<?xml version="1.0" encoding="utf-8"?>
<!-- Generator: Adobe Illustrator 25.3.1, SVG Export Plug-In . SVG Version: 6.00 Build 0)  -->
<svg version="1.1" id="Layer_1" xmlns="http://www.w3.org/2000/svg" xmlns:xlink="http://www.w3.org/1999/xlink" x="0px" y="0px"
	 viewBox="0 0 340.8 321.3" style="enable-background:new 0 0 340.8 321.3;" xml:space="preserve">
<style type="text/css">
	.st0{fill:#E1E1E1;}
	.st1{fill:#FAFAFA;}
	.st2{fill:#ECECEC;}
	.st3{fill:#AED3F2;}
	.st4{fill:#344154;}
	.st5{fill:#FFFFFF;}
	.st6{fill:#D9A171;}
	.st7{fill:#DBDBDB;}
	.st8{fill:#C7C7C7;}
	.st9{fill:#5E6178;}
	.st10{fill:#B78876;}
	.st11{fill:#AA6550;}
	.st12{opacity:0.4;}
	.st13{opacity:0.3;}
</style>
<g transform="translate(260.321 186.785)">
	<g transform="translate(0.157 0)">
		<g transform="translate(0)">
			<g transform="translate(0)">
				<rect x="4.5" y="0" class="st0" width="36.3" height="4.9"/>
			</g>
		</g>
		<g transform="translate(4.722 0.202)">
			<path class="st1" d="M4.8,0c0.3,1.5,0.3,3,0,4.5C4.5,3,4.5,1.5,4.8,0z"/>
		</g>
		<g transform="translate(3.931 0.102)">
			<path class="st1" d="M4.8,0c0.3,1.5,0.3,3,0,4.5C4.5,3,4.5,1.5,4.8,0z"/>
		</g>
		<g transform="translate(33.299 0.202)">
			<path class="st1" d="M4.8,0c0.3,1.5,0.3,3,0,4.5C4.5,3,4.5,1.5,4.8,0z"/>
		</g>
		<g transform="translate(32.507 0.102)">
			<ellipse class="st1" cx="4.8" cy="2.3" rx="0.2" ry="2.3"/>
		</g>
		<g transform="translate(9.4 2.346)">
			<path class="st1" d="M23.1,0.2c0,0.1-4.2,0.2-9.3,0.2S4.5,0.4,4.5,0.2S8.7,0,13.8,0S23.1,0.1,23.1,0.2z"/>
		</g>
	</g>
	<g transform="translate(0 21.856)">
		<g transform="translate(0 0)">
			<rect x="4.5" y="0" class="st0" width="36.3" height="9.7"/>
		</g>
		<g transform="translate(0.091 0.819)">
			<path class="st1" d="M41.3,6.2c-0.1,0-0.1,0.1-0.2,0.1c-0.1,0.1-0.3,0.2-0.6,0.3c-0.8,0.3-1.6,0.6-2.5,0.7c-1.4,0.2-2.8,0-4-0.6
				c-0.8-0.4-1.4-1-1.9-1.7c-0.6-0.8-0.8-1.8-0.7-2.8c0.1-0.5,0.3-1,0.7-1.4C32.5,0.3,33,0,33.6,0c0.6,0.1,1.2,0.4,1.5,0.8
				c0.4,0.5,0.6,1,0.7,1.7C36,3.8,35.5,5,34.6,5.9c-0.9,1-2.2,1.6-3.5,1.7c-1.4,0.1-2.8,0-4.1-0.5c-1.4-0.4-2.6-1.3-3.5-2.4
				c-0.5-0.6-0.8-1.3-0.8-2.1c-0.1-0.8,0.2-1.6,0.8-2.2C23.8,0.2,24.2,0,24.6,0c0.4,0,0.8,0.1,1.2,0.3c0.7,0.5,1.2,1.2,1.3,2
				c0.3,1.6-0.2,3.2-1.4,4.3c-1.2,1-2.6,1.6-4.1,1.7c-1.4,0.2-2.9,0-4.2-0.4c-1.3-0.4-2.5-1.3-3.2-2.5c-0.7-1.1-0.9-2.6-0.4-3.9
				c0.2-0.6,0.8-1.1,1.5-1.3c0.6-0.1,1.3,0,1.8,0.4c0.9,0.8,1.3,2.1,0.9,3.3c-0.4,1-1,1.9-1.8,2.6c-1.4,1.2-3.2,1.9-5,1.9
				c-1.4,0-2.7-0.3-3.9-0.9C6.4,7.1,5.7,6.6,5.1,6C5,5.8,4.8,5.7,4.7,5.5C4.6,5.4,4.6,5.4,4.5,5.3c0.8,0.8,1.7,1.5,2.7,2.1
				c1.2,0.6,2.5,0.9,3.9,0.8c1.8-0.1,3.4-0.8,4.8-1.9c0.8-0.6,1.4-1.5,1.7-2.4c0.3-1,0.1-2.2-0.8-2.9c-0.4-0.3-1-0.5-1.5-0.4
				c-0.5,0.1-1,0.5-1.2,1c-0.4,1.2-0.3,2.4,0.4,3.5c0.7,1.1,1.8,1.9,3,2.3c1.3,0.4,2.7,0.5,4.1,0.4c1.4-0.1,2.8-0.6,3.8-1.6
				c1.1-1,1.6-2.4,1.3-3.8c-0.1-0.7-0.6-1.3-1.1-1.7c-0.5-0.4-1.3-0.3-1.8,0.1c-0.5,0.5-0.7,1.1-0.6,1.8c0.1,0.7,0.3,1.3,0.7,1.9
				c0.9,1.1,2,1.8,3.3,2.2c1.2,0.5,2.6,0.6,3.9,0.5c1.2-0.1,2.4-0.7,3.2-1.6c0.8-0.8,1.3-2,1.2-3.1c0-1.1-0.8-2-1.9-2.2
				c-0.5,0-1,0.2-1.3,0.6c-0.3,0.4-0.5,0.8-0.6,1.3c-0.1,0.9,0.1,1.8,0.6,2.6c0.4,0.7,1.1,1.3,1.8,1.7c1.2,0.6,2.5,0.8,3.9,0.6
				c0.8-0.1,1.7-0.3,2.5-0.6C41,6.3,41.3,6.1,41.3,6.2z"/>
		</g>
	</g>
	<g transform="translate(3.245 4.823)">
		<g transform="translate(0 0.172)">
			<g transform="translate(0 0)">
				<g transform="translate(0)">
					<rect x="4.5" y="0" class="st2" width="33.1" height="16.8"/>
				</g>
			</g>
		</g>
		<g transform="translate(5.271 0.75)">
			<path class="st0" d="M4.8,0c0.3,5.4,0.3,10.9,0,16.3C4.5,10.9,4.5,5.4,4.8,0z"/>
		</g>
		<g transform="translate(7.778 0.541)">
			<path class="st0" d="M4.8,0c0.3,5.4,0.3,10.7,0,16.1C4.5,10.7,4.5,5.4,4.8,0z"/>
		</g>
		<g transform="translate(29.122)">
			<path class="st0" d="M4.8,0c0.3,5.6,0.3,11.3,0,17C4.5,11.3,4.5,5.6,4.8,0z"/>
		</g>
		<g transform="translate(26.173 0.227)">
			<path class="st0" d="M4.8,0c0.3,5.5,0.3,11,0,16.5C4.5,11,4.5,5.5,4.8,0z"/>
		</g>
	</g>
</g>
<rect x="71.1" class="st0" width="223.1" height="148"/>
<g transform="translate(56.789 267.839)">
	<g transform="translate(10.316 26.737)">
		<path class="st3" d="M6.6,20.8c-1-0.8-3.1-3.5-1.5-6.5c0.8-1,1.8-1.8,3.1-2.2c1.2-0.4,2.4-1,3.4-1.8c1.8-1.6,2.3-4.2,3.6-6.2
			C16.6,1.6,19.2,0,22,0c3.2,0.1,5.8,2.7,7,5.7s1.2,6.2,1.3,9.4c0,1.8-0.1,3.7-1.4,4.9c-1.2,1.1-3,1.1-4.6,1.1L7,20.5"/>
	</g>
	<path class="st0" d="M50,0H4.5l8.2,48.8c0.3,2.1,1.9,3.8,3.9,4.3c0.1,0,0.1,0,0.2,0c0.1,0,0.3,0.1,0.4,0.1c0.3,0.1,0.6,0.1,0.9,0.1
		l0,0l0.2,0h20.3c0.4,0,0.7,0,1.1-0.1c2.4-0.4,4.3-2.3,4.6-4.8l3.9-33.6l0.2-1.3h0L50,0.2L50,0z M41.4,31.1h-4.7L37.2,17h5.4
		L41.4,31.1z M43.1,17h4.5l-1.7,14.2h-4L43.1,17z M29.8,46.9l-0.3-12.3h6.7l-0.4,12.3H29.8z M22.5,34.5H29l0.3,12.3h-5.9L22.5,34.5z
		 M23,46.9h-5.5c-0.5-3.3-1.2-7.6-1.9-12.3H22L23,46.9z M22.2,31.1L21.1,17h7.5l0.3,14.2H22.2z M29.4,31.1L29.1,17h7.7l-0.5,14.2
		H29.4z M29,13.6L28.7,0.5h8.6l-0.4,13.1H29z M28.5,13.6h-7.7l-1-13.1h8.4L28.5,13.6z M20.4,13.6h-8.1c-0.3-1.8-0.6-3.5-0.8-5.1
		c-0.8-5.3-1.2-7.3-1.3-8.1h9.2L20.4,13.6z M20.7,17l1.1,14.2h-6.7c-0.2-1.4-0.5-2.9-0.7-4.3c-0.5-3.3-1.1-6.7-1.5-9.8H20.7z
		 M14.6,31.1h-4.4L7.9,17h4.5C13.1,21.4,13.8,26.2,14.6,31.1L14.6,31.1z M15.1,34.5c0.7,4.3,1.3,8.5,1.9,12.3h-4.2l-2.1-12.3H15.1z
		 M36.2,46.9l0.4-12.3h4.5l-1.1,12.3H36.2z M37.3,13.6l0.4-13.1h6.3l-1.1,13.1H37.3z M9.7,0.5c0.2,0.9,1,6.1,2.1,13.1H7.3L5.1,0.5
		H9.7z M44.1,46.9h-3.5l1.1-12.3h3.9L44.1,46.9z M48,13.6h-4.6l1.1-13.1h5L48,13.6z"/>
</g>
<g transform="translate(0 166.177)">
	<path class="st0" d="M7.2,0h90.2c1.5,0,2.6,1.2,2.6,2.6v21.6c0,1.5-1.2,2.6-2.6,2.6H7.2c-1.5,0-2.6-1.2-2.6-2.6V2.6
		C4.5,1.2,5.7,0,7.2,0z"/>
	<g transform="translate(9.767 8.429)">
		<ellipse class="st3" cx="10.4" cy="5.8" rx="5.8" ry="5.8"/>
	</g>
	<g transform="translate(12.31 12.285)">
		<path class="st0" d="M11.1,0c-0.9,1.2-2,2.4-3.1,3.4L7.2,4.1L7,4.3L6.9,4.1C6,3.3,5.2,2.4,4.6,1.5c1,0.7,1.9,1.5,2.6,2.3H6.9
			l0.8-0.8C8.7,1.9,9.8,0.9,11.1,0z"/>
	</g>
	<g transform="translate(28.831 11.162)">
		<path class="st1" d="M61.8,0.2c0,0.1-12.8,0.2-28.6,0.2S4.6,0.4,4.6,0.2S17.4,0,33.2,0S61.8,0.1,61.8,0.2z"/>
	</g>
	<g transform="translate(29.083 16.03)">
		<path class="st1" d="M61.8,0.2c0,0.1-12.8,0.2-28.6,0.2S4.5,0.4,4.5,0.2S17.4,0,33.2,0S61.8,0.1,61.8,0.2z"/>
	</g>
</g>
<g transform="translate(26.605 319.877)">
	<path class="st4" d="M304.3,0.5c0,0.2-67.1,0.5-149.9,0.5C71.6,0.9,4.5,0.7,4.5,0.5S71.6,0,154.4,0C237.2,0,304.3,0.2,304.3,0.5z"
		/>
</g>
<g transform="translate(52.944 3.489)">
	<g transform="translate(0.225 0.225)">
		<rect x="4.5" y="0" class="st1" width="231" height="151.5"/>
	</g>
	<path class="st4" d="M235.8,151.8c0-1.5-0.1-59.1-0.2-151.5l0.2,0.2l-231,0h0L5,0.2c0,53.9,0,105.2,0,151.5l-0.2-0.2L235.8,151.8
		L4.8,152H4.6v-0.2c0-46.4,0-97.6,0-151.5V0h0.2l231,0h0.2v0.2C235.9,92.7,235.8,150.3,235.8,151.8z"/>
</g>
<rect x="91" y="71.1" class="st5" width="152" height="11.7"/>
<rect x="91" y="59.4" class="st6" width="152" height="11.7"/>
<rect x="91" y="82.7" class="st7" width="152" height="11.7"/>
<rect x="91" y="94.4" class="st5" width="152" height="11.7"/>
<rect x="91" y="106.1" class="st7" width="152" height="11.7"/>
<rect x="91" y="117.8" class="st5" width="152" height="11.7"/>
<rect x="91" y="129.5" class="st7" width="152" height="11.7"/>
<rect x="91" y="59.4" class="st8" width="45.6" height="81.8"/>
<path class="st4" d="M91,82.7l76-0.1l76,0.1l-76,0.2L91,82.7z"/>
<path class="st4" d="M91,94.4l76-0.1l76,0.1l-76,0.2L91,94.4z"/>
<path class="st4" d="M91,106.1l76-0.2l76,0.2l-76,0.1L91,106.1z"/>
<path class="st4" d="M91,117.8l76-0.1l76,0.1l-76,0.2L91,117.8z"/>
<path class="st4" d="M91,129.5l76-0.1l76,0.1l-76,0.2L91,129.5z"/>
<path class="st4" d="M99.1,65.2c4.8-0.2,9.7-0.3,14.5-0.3s9.7,0,14.6,0.3c-4.9,0.2-9.7,0.3-14.6,0.3S104,65.4,99.1,65.2z"/>
<path class="st4" d="M99.1,76.9c3.7-0.2,7.3-0.3,11-0.3s7.3,0,11,0.3c-3.7,0.2-7.3,0.3-11,0.3S102.8,77.1,99.1,76.9z"/>
<path class="st4" d="M99.1,88.6c4.8-0.2,9.7-0.3,14.5-0.3s9.7,0,14.6,0.3c-4.9,0.2-9.7,0.3-14.6,0.3S104,88.8,99.1,88.6z"/>
<path class="st4" d="M99.1,100.3c4-0.2,8-0.3,12-0.3s8,0,12,0.3c-4,0.2-8,0.3-12,0.3S103.1,100.5,99.1,100.3z"/>
<path class="st4" d="M99.1,111.9c4.8-0.2,9.7-0.3,14.5-0.3s9.7,0,14.6,0.3c-4.9,0.2-9.7,0.3-14.6,0.3S104,112.2,99.1,111.9z"/>
<path class="st4" d="M99.1,123.6c4.8-0.2,9.7-0.3,14.5-0.3s9.7,0,14.6,0.3c-4.9,0.2-9.7,0.3-14.6,0.3S104,123.9,99.1,123.6z"/>
<path class="st4" d="M99.1,135.3c2.9-0.2,5.9-0.3,8.8-0.3s5.9,0.1,8.8,0.3c-2.9,0.2-5.9,0.3-8.8,0.3S102.1,135.5,99.1,135.3z"/>
<path class="st4" d="M147.2,65.2c3.6-0.2,7.3-0.3,10.9-0.3s7.3,0,10.9,0.3c-3.6,0.2-7.3,0.3-10.9,0.3S150.9,65.4,147.2,65.2z"/>
<path class="st4" d="M147.2,76.9c3.6-0.2,7.3-0.3,10.9-0.3s7.3,0,10.9,0.3c-3.6,0.2-7.3,0.3-10.9,0.3S150.9,77.1,147.2,76.9z"/>
<path class="st4" d="M147.2,88.6c3.6-0.2,7.3-0.3,10.9-0.3s7.3,0,10.9,0.3c-3.6,0.2-7.3,0.3-10.9,0.3S150.9,88.8,147.2,88.6z"/>
<path class="st4" d="M147.2,100.3c3.6-0.2,7.3-0.3,10.9-0.3s7.3,0,10.9,0.3c-3.6,0.2-7.3,0.3-10.9,0.3S150.9,100.5,147.2,100.3z"/>
<path class="st4" d="M147.2,111.9c3.6-0.2,7.3-0.3,10.9-0.3s7.3,0,10.9,0.3c-3.6,0.2-7.3,0.3-10.9,0.3S150.9,112.2,147.2,111.9z"/>
<path class="st4" d="M147.2,123.6c3.6-0.2,7.3-0.3,10.9-0.3s7.3,0,10.9,0.3c-3.6,0.2-7.3,0.3-10.9,0.3S150.9,123.9,147.2,123.6z"/>
<path class="st4" d="M147.2,135.3c3.6-0.2,7.3-0.3,10.9-0.3s7.3,0,10.9,0.3c-3.6,0.2-7.3,0.3-10.9,0.3S150.9,135.6,147.2,135.3z"/>
<path class="st4" d="M178.8,65.2c3.7-0.2,7.3-0.3,10.9-0.3s7.3,0,10.9,0.3c-3.6,0.2-7.3,0.3-10.9,0.3S182.5,65.4,178.8,65.2z"/>
<path class="st4" d="M186.3,123.6c2.3-0.4,4.7-0.4,7,0C191,124,188.6,124,186.3,123.6z"/>
<path class="st4" d="M186.3,111.9c1.2-0.2,2.4-0.3,3.5-0.3c1.2,0,2.3,0.1,3.5,0.3C191,112.3,188.7,112.3,186.3,111.9L186.3,111.9z"
	/>
<path class="st4" d="M186.3,100.3c2.3-0.4,4.7-0.4,7,0C191,100.6,188.6,100.6,186.3,100.3z"/>
<path class="st4" d="M186.3,88.6c2.3-0.4,4.7-0.4,7,0C191,89,188.6,89,186.3,88.6z"/>
<path class="st4" d="M186.3,76.9c1.2-0.2,2.4-0.3,3.5-0.3c1.2,0,2.3,0.1,3.5,0.3c-1.2,0.2-2.3,0.3-3.5,0.3
	C188.7,77.2,187.5,77.1,186.3,76.9z"/>
<path class="st4" d="M210.4,65.2c3.7-0.2,7.3-0.3,10.9-0.3s7.3,0,10.9,0.3c-3.6,0.2-7.3,0.3-10.9,0.3S214.1,65.4,210.4,65.2z"/>
<path class="st4" d="M210.4,76.9c3.7-0.2,7.3-0.3,10.9-0.3s7.3,0,10.9,0.3c-3.6,0.2-7.3,0.3-10.9,0.3S214.1,77.1,210.4,76.9z"/>
<path class="st4" d="M210.4,88.6c3.7-0.2,7.3-0.3,10.9-0.3s7.3,0,10.9,0.3c-3.6,0.2-7.3,0.3-10.9,0.3S214.1,88.8,210.4,88.6z"/>
<path class="st4" d="M210.4,100.3c3.7-0.2,7.3-0.3,10.9-0.3s7.3,0,10.9,0.3c-3.6,0.2-7.3,0.3-10.9,0.3S214.1,100.5,210.4,100.3z"/>
<path class="st4" d="M210.4,111.9c3.7-0.2,7.3-0.3,10.9-0.3s7.3,0,10.9,0.3c-3.6,0.2-7.3,0.3-10.9,0.3S214.1,112.2,210.4,111.9z"/>
<path class="st4" d="M210.4,123.6c3.7-0.2,7.3-0.3,10.9-0.3s7.3,0,10.9,0.3c-3.6,0.2-7.3,0.3-10.9,0.3S214.1,123.9,210.4,123.6z"/>
<path class="st4" d="M210.4,135.3c3.7-0.2,7.3-0.3,10.9-0.3s7.3,0,10.9,0.3c-3.6,0.2-7.3,0.3-10.9,0.3S214.1,135.6,210.4,135.3z"/>
<path class="st4" d="M91,38.7c4.2-0.2,8.4-0.3,12.6-0.3s8.4,0,12.6-0.1s8.4,0,12.6,0.1s8.4,0.2,12.6,0.3c-4.2,0.2-8.4,0.3-12.6,0.3
	s-8.4,0-12.6,0.1s-8.4,0-12.6-0.1S95.2,38.9,91,38.7z"/>
<path class="st4" d="M91,43.7c2.6-0.2,5.3-0.3,7.9-0.3s5.3,0,7.9-0.1s5.3,0,7.9,0.1s5.3,0.2,7.9,0.3c-2.6,0.2-5.3,0.3-7.9,0.3
	s-5.3,0.1-7.9,0.1s-5.3,0-7.9-0.1S93.6,43.9,91,43.7z"/>
<path class="st4" d="M91,48.7c3.7-0.2,7.3-0.3,11-0.3s7.3-0.1,11-0.1s7.3,0,11,0.1s7.3,0.2,11,0.3c-3.7,0.2-7.3,0.3-11,0.3
	s-7.3,0.1-11,0.1s-7.3,0-11-0.1S94.7,48.9,91,48.7z"/>
<g transform="translate(17.64 33.692)">
	<rect x="141.5" y="182.8" class="st4" width="51.5" height="2.5"/>
</g>
<path class="st4" d="M151.2,219l-9.7-36.2h40.2l8.7,36.2H151.2z"/>
<g transform="translate(2.264 1.673)">
	<path class="st3" d="M185.8,214.6h-35.9l-8.4-31.8h36.1L185.8,214.6z"/>
</g>
<g transform="translate(2.265 1.673)">
	<path class="st2" d="M142.1,185.1h36.1l-0.6-2.3h-36.1L142.1,185.1z"/>
</g>
<g transform="translate(4.048 2.42)">
	<g transform="translate(2.717)">
		<path class="st1" d="M141.5,183.2c0,0.2,0.2,0.4,0.4,0.4c0.2,0,0.4-0.2,0.4-0.4c0-0.2-0.2-0.4-0.4-0.4
			C141.7,182.8,141.5,182.9,141.5,183.2C141.5,183.2,141.5,183.2,141.5,183.2z"/>
	</g>
	<g transform="translate(1.358)">
		<path class="st1" d="M141.5,183.2c0,0.2,0.2,0.4,0.4,0.4s0.4-0.2,0.4-0.4c0-0.2-0.2-0.4-0.4-0.4
			C141.7,182.8,141.5,182.9,141.5,183.2C141.5,183.2,141.5,183.2,141.5,183.2z"/>
	</g>
	<path class="st1" d="M141.5,183.2c0,0.2,0.2,0.4,0.4,0.4c0.2,0,0.4-0.2,0.4-0.4c0-0.2-0.2-0.4-0.4-0.4
		C141.7,182.8,141.5,182.9,141.5,183.2C141.5,183.2,141.5,183.2,141.5,183.2z"/>
</g>
<g transform="translate(13.332 2.341)">
	<path class="st6" d="M158.2,198.3l4,4.5c1.5-1,2.4-2.7,2.4-4.5c0-3.2-2.9-5.8-6.4-5.7s-6.4,2.6-6.4,5.8L158.2,198.3z"/>
</g>
<g transform="translate(12.796 8.732)">
	<path class="st4" d="M158.2,192.6c0.4,0.3,0.8,0.7,1.1,1.1c0.7,0.8,1.7,1.9,2.9,3.2l0.1,0.2l-0.2,0.1c-2,1.4-4.5,1.6-6.7,0.7
		c-1.1-0.5-2-1.2-2.7-2.2c-0.6-0.9-1-1.9-1-3l0-0.2h0.2c1.9,0,3.5,0,4.5,0C157.1,192.5,157.7,192.6,158.2,192.6
		c-0.6,0.1-1.2,0.1-1.7,0.1c-1.1,0.1-2.6,0.1-4.5,0.2l0.2-0.2c0.1,1,0.4,1.9,1,2.7c0.7,0.9,1.5,1.6,2.6,2c2,0.9,4.4,0.7,6.3-0.6
		l0,0.3c-1.1-1.3-2.1-2.5-2.7-3.3C158.9,193.6,158.6,193.1,158.2,192.6z"/>
</g>
<g transform="translate(16.63 4.335)">
	<path class="st4" d="M151.8,192.9c0,0.2,0.2,0.4,0.4,0.4s0.4-0.2,0.4-0.4s-0.2-0.4-0.4-0.4c0,0,0,0,0,0
		C152,192.5,151.8,192.7,151.8,192.9z"/>
</g>
<g transform="translate(9.516 1.862)">
	<path class="st4" d="M151.8,192.8c1.4-0.2,2.8-0.3,4.3-0.2h0.7l0.1,0.1c0.9,0.8,1.8,1.8,2.5,2.8c-1-0.7-2-1.5-2.8-2.4l0.2,0.1
		l-0.6,0C154.7,193.1,153.2,193,151.8,192.8z"/>
</g>
<path class="st4" d="M153.3,199.2c-0.2-0.5-0.3-1.1-0.4-1.7c-0.2-1.1-0.6-2.7-1-4.7l0-0.2h0.2l8.9-0.1c0,0,0.4,0.3,0.2,0.2v0v0v0
	l0,0.1l0,0.1l0,0.2l0.1,0.4c0.1,0.3,0.1,0.6,0.2,0.8c0.1,0.6,0.2,1.1,0.3,1.6c0.2,1.1,0.4,2.1,0.6,3.1l0,0.2h-0.2
	c-2.7,0-4.9,0-6.5-0.1c-0.7,0-1.3,0-1.8,0C153.7,199.2,153.5,199.2,153.3,199.2c0.2,0,0.4-0.1,0.7-0.1l1.9-0.1
	c1.6,0,3.8-0.1,6.4-0.1l-0.2,0.2c-0.2-1-0.4-2-0.6-3l-0.3-1.6c-0.1-0.3-0.1-0.6-0.2-0.8l-0.1-0.4l0-0.2l0-0.1l0-0.1l0,0v0v0
	c-0.2-0.2,0.3,0.2,0.2,0.2l-8.9,0l0.2-0.2c0.3,1.9,0.6,3.5,0.8,4.6C153.1,198,153.2,198.6,153.3,199.2z"/>
<g transform="translate(0.041 9.76)">
	<path class="st4" d="M153.3,197.5c-0.2-0.4-0.3-0.8-0.4-1.2c-0.2-0.8-0.6-2-1-3.4l-0.1-0.2h0.2c2.4,0,5.7-0.1,9.2-0.1l0.2,0.2v0v0
		l0,0l0,0l0,0.1l0,0.2l0.1,0.3l0.2,0.6c0.1,0.4,0.2,0.8,0.3,1.2c0.2,0.8,0.4,1.5,0.6,2.3l0.1,0.3h-0.3c-2.7,0-5.1,0-6.7-0.1
		l-1.9-0.1C153.7,197.6,153.5,197.6,153.3,197.5c0.2,0,0.5-0.1,0.7-0.1l1.9-0.1c1.6,0,3.9-0.1,6.6-0.1l-0.2,0.3
		c-0.2-0.7-0.4-1.5-0.6-2.3l-0.3-1.2l-0.2-0.6l-0.1-0.3l0-0.2l0-0.1l0,0l0,0v0v0l0,0l0.2,0.2c-3.5,0-6.8,0-9.2,0l0.2-0.2
		c0.3,1.4,0.6,2.6,0.8,3.4C153.1,196.6,153.2,197.1,153.3,197.5z"/>
</g>
<g transform="translate(0 94.321)">
	<path class="st4" d="M98.2,124.5v4.7h3.1v96.1h6.4v-96.1h33.9v96.1h6.4v-96.1h146.9v96.1h6.4v-96.1h2.8v-4.7H98.2z"/>
</g>
<g transform="translate(138.307 129.96)">
	<path class="st4" d="M98.2,124.7c2.8,0.2,5.5,0.2,8.3,0C103.7,124.5,101,124.5,98.2,124.7z"/>
</g>
<g transform="translate(77.668 130.893)">
	<ellipse class="st9" cx="98.4" cy="124.6" rx="0.2" ry="0.1"/>
</g>
<g transform="translate(63.073)">
	<g transform="translate(19.249 8.856)">
		<path class="st10" d="M134.4,161.2L110.6,137l-0.5-2.6c-0.1-0.5-0.2-1-0.3-1.6c-0.1-0.7-0.1-1.4,0-2.1c0.1-0.9,0.4-1.7,0.7-2.5
			c0.4-0.7-0.2-1.5-0.9-1.3s-1.8,2.2-2.1,4.8s-2.5-0.9-3.3-2.1s-3.6-5-4.2-5c-0.8-0.1-1.1,0.8-0.2,2.1c0.9,1.2,3.2,5.1,2.5,5.5h0
			c-1.3-0.2-2.7,0.4-3.3,1.6c-0.6,1.2-1.3,2.8-0.7,3.5c1.2,1.4,2.4,2.8,3.8,4l0.8,0.7c0,0,20.6,29.9,25.1,30.8
			c2.8,0.6,46,4.2,46,4.2l3.3-11.9L134.4,161.2z"/>
		<g transform="translate(0.016 10.588)">
			<g transform="translate(0.003 0.003)">
				<path class="st10" d="M98.2,126.2l2.2,2.1c0.2,0.3,0.5,0.5,0.8,0.6c0.4,0.2,0.9,0.1,1.1-0.3c0.1-0.2,0.1-0.5,0-0.7
					c-0.1-0.3-0.3-0.6-0.5-0.8c-0.7-0.9-1.4-1.7-2.1-2.6"/>
			</g>
			<path class="st11" d="M99.7,124.5c0,0,0.5,0.4,1.1,1.1c0.4,0.4,0.7,0.8,1.1,1.2c0.2,0.2,0.4,0.5,0.6,0.8c0.2,0.4,0.2,0.9-0.1,1.2
				c-0.3,0.3-0.8,0.4-1.2,0.3c-0.3-0.1-0.6-0.3-0.9-0.6l-1.2-1.2c-0.4-0.3-0.7-0.7-1-1.2c0.4,0.3,0.8,0.6,1.2,0.9l1.2,1.1
				c0.2,0.2,0.4,0.4,0.7,0.5c0.2,0.1,0.5,0,0.7-0.1c0.1-0.2,0.1-0.5,0-0.8c-0.1-0.3-0.3-0.5-0.5-0.7l-1-1.3
				C100.2,125.4,99.9,125,99.7,124.5z"/>
		</g>
		<g transform="translate(1.581 9.048)">
			<g transform="translate(0.003 0.003)">
				<path class="st10" d="M98.2,126.2l2.2,2.1c0.2,0.3,0.5,0.5,0.8,0.6c0.4,0.2,0.9,0.1,1.1-0.3c0.1-0.2,0.1-0.5,0-0.7
					c-0.1-0.3-0.3-0.6-0.5-0.8l-2.1-2.6"/>
			</g>
			<path class="st11" d="M99.7,124.5c0,0,0.5,0.4,1.1,1.1l1.1,1.2c0.2,0.2,0.4,0.5,0.6,0.8c0.2,0.4,0.2,0.9-0.1,1.2
				c-0.3,0.3-0.8,0.4-1.2,0.3c-0.3-0.1-0.6-0.3-0.9-0.6l-1.2-1.2c-0.4-0.3-0.7-0.7-1-1.2c0.4,0.3,0.8,0.6,1.2,0.9l1.2,1.1
				c0.2,0.2,0.4,0.4,0.7,0.5c0.2,0.1,0.5,0,0.7-0.1c0.1-0.2,0.1-0.5,0-0.8c-0.1-0.3-0.3-0.5-0.5-0.7l-1-1.3
				C100.2,125.4,99.9,125,99.7,124.5z"/>
		</g>
		<g transform="translate(3.296 7.785)">
			<g transform="translate(0.003 0.003)">
				<path class="st10" d="M98.2,126.2l2.2,2.1c0.2,0.3,0.5,0.5,0.8,0.6c0.4,0.2,0.9,0.1,1.1-0.3c0.1-0.2,0.1-0.5,0-0.7
					c-0.1-0.3-0.3-0.6-0.5-0.8l-2.1-2.6"/>
			</g>
			<path class="st11" d="M99.7,124.5c0,0,0.5,0.4,1.1,1.1l1.1,1.2c0.2,0.2,0.4,0.5,0.6,0.8c0.2,0.4,0.2,0.9-0.1,1.2
				c-0.3,0.3-0.8,0.4-1.2,0.3c-0.3-0.1-0.6-0.3-0.9-0.6l-1.2-1.2c-0.4-0.3-0.7-0.7-1-1.2c0.4,0.2,0.8,0.6,1.2,0.9l1.2,1.1
				c0.2,0.2,0.4,0.4,0.7,0.5c0.2,0.1,0.5,0,0.7-0.1c0.1-0.2,0.1-0.5,0-0.8c-0.1-0.3-0.3-0.5-0.5-0.7l-1-1.3
				C100.2,125.4,99.9,125,99.7,124.5z"/>
		</g>
		<g transform="translate(6.784 9.53)">
			<path class="st11" d="M98.2,128.1c0-0.1,0.5-0.2,1.3,0.1l-0.3,0.2c-0.1-0.5-0.1-1-0.1-1.5c0.1-0.7,0.4-1.3,0.8-1.8
				c0.3-0.4,0.6-0.6,0.7-0.5c-0.5,0.7-0.8,1.6-1,2.4c-0.1,0.5-0.1,0.9,0,1.4l0,0.3l-0.3-0.1C98.7,128.2,98.2,128.2,98.2,128.1z"/>
		</g>
	</g>
	<g transform="translate(61.391)">
		<g transform="translate(3.744 5.199)">
			<path class="st10" d="M119.7,128.6l0.1,33.2l-12.9,0.6l-0.5-7.9c0,0-6.2,0.9-7.5-3.7c-0.8-3-0.6-26.2-0.6-26.2L119.7,128.6z"/>
		</g>
		<path class="st4" d="M98.8,133c1,2,5.5,5.6,5.5,5.6l2.1,5.5c1.8-1.4,4.2-1.3,4.7,1.8c0.3,2.3-2.5,2.7-2.5,2.7
			c1.4,2.8,3.2,5.4,5.2,7.7c2.6,2.9,4,3.2,6.9,3.2h3.1c0,0,6.3-5.3,5.1-19.3s-13.8-9.9-16.8-13.4C107,121.3,95.6,126.4,98.8,133z"/>
		<g transform="translate(0.679 5.333)">
			<path class="st9" d="M127.3,146.7c-0.5,0.1-1,0-1.5-0.1c-1.4-0.3-2.7-1-3.7-1.9c-1.5-1.4-2.8-3.1-3.7-5c-1.2-2-2.5-4.3-4.8-5.8
				c-2.2-1.5-4.9-1.8-7.2-2.3c-2.1-0.3-4.1-1-5.8-2.2c-1.1-0.8-2-2.1-2.3-3.4c-0.1-0.5-0.2-1-0.1-1.5c0,0.5,0,1,0.1,1.5
				c0.4,1.3,1.2,2.5,2.3,3.3c1.7,1.1,3.7,1.9,5.7,2.1c2.3,0.5,4.9,0.8,7.2,2.3c2.3,1.6,3.6,3.9,4.8,5.9c1,1.8,2.2,3.5,3.7,4.9
				c1,0.9,2.3,1.6,3.6,1.9c0.4,0.1,0.7,0.1,1.1,0.1C127.2,146.7,127.3,146.7,127.3,146.7z"/>
		</g>
		<g transform="translate(0.843 3.486)">
			<path class="st9" d="M127.9,137.2c0,0-0.2-0.1-0.7-0.2c-0.6-0.2-1.3-0.4-1.9-0.4c-1-0.1-2.1,0.1-3,0.7c-0.5,0.4-0.9,0.9-1,1.6
				c-0.1,0.7,0.1,1.5,0.6,2c0.3,0.3,0.7,0.4,1,0.4c0.4,0,0.8-0.1,1.2-0.3c0.8-0.5,1.3-1.2,1.6-2c0.9-2.6-0.5-5.4-3.1-6.3
				c-0.3-0.1-0.7-0.2-1-0.2c-1.1-0.1-2.2,0.1-3.2,0.4c-1.1,0.4-2.2,0.6-3.3,0.8c-1.2,0.2-2.4,0.2-3.5,0c-1.2-0.1-2.3-0.5-3.4-0.9
				c-1.1-0.4-1.9-1.3-2.3-2.5c-0.3-1.1,0-2.3,0.8-3.1c0.8-0.8,2-0.9,3-0.4c0.5,0.2,0.9,0.6,1.1,1.1c0.2,0.5,0.3,1,0.2,1.5
				c-0.1,1-0.7,1.8-1.5,2.4c-0.8,0.5-1.7,0.7-2.6,0.7c-0.8,0-1.6-0.1-2.4-0.4c-1.3-0.4-2.6-1.2-3.6-2.2c-0.8-0.8-1.4-1.6-1.8-2.6
				c-0.3-0.6-0.5-1.2-0.6-1.9c-0.1-0.5-0.1-0.7-0.1-0.7s0.1,0.2,0.1,0.7c0.2,0.6,0.4,1.3,0.7,1.9c0.5,0.9,1.1,1.8,1.8,2.6
				c1,1,2.2,1.7,3.5,2.1c0.8,0.2,1.6,0.4,2.4,0.4c0.9,0,1.7-0.2,2.5-0.7c0.8-0.5,1.3-1.3,1.4-2.3c0.2-1-0.4-2-1.3-2.4
				c-0.9-0.4-2.1-0.3-2.8,0.4c-0.8,0.8-1,1.9-0.7,3c0.4,1.1,1.2,1.9,2.2,2.3c1.1,0.5,2.2,0.8,3.3,0.9c1.2,0.1,2.3,0.1,3.5,0
				c1.1-0.2,2.2-0.4,3.3-0.8c1.1-0.3,2.2-0.5,3.3-0.4c2.8,0.3,4.8,2.8,4.5,5.6c0,0.4-0.1,0.7-0.2,1.1c-0.3,0.9-0.9,1.6-1.6,2.1
				c-0.4,0.2-0.8,0.3-1.2,0.3c-0.4,0-0.8-0.2-1.1-0.5c-0.5-0.5-0.8-1.3-0.6-2.1c0.1-0.7,0.5-1.3,1.1-1.6c0.9-0.6,2-0.8,3.1-0.7
				c0.7,0.1,1.3,0.2,2,0.5C127.7,137.1,127.9,137.2,127.9,137.2z"/>
		</g>
	</g>
	<g transform="translate(70.433 173.684)">
		<path class="st6" d="M103.2,137.9l-4.2-5.4l10.1-8l6.3,7.9l-0.6,0.5c-2.7,2.4-13.7,11.8-16,12.7
			C96.2,146.6,103.2,137.9,103.2,137.9z"/>
		<g transform="translate(0.005 7.653)" class="st12">
			<path class="st5" d="M99.9,134.7c0,0-2.3,3.2-1.6,3.4s12.3-8.9,17-13.4l-0.2-0.2l-13.4,10.7C101.8,135.3,100.5,134.2,99.9,134.7z
				"/>
		</g>
		<g transform="translate(0.023 7.521)">
			<path class="st4" d="M115.3,124.5c0,0.1-0.1,0.1-0.2,0.2l-0.5,0.4l-1.8,1.5c-1.5,1.3-3.6,3-6,4.9s-4.5,3.5-6.1,4.7l-1.9,1.4
				l-0.5,0.4c-0.1,0-0.1,0.1-0.2,0.1c0.1-0.1,0.1-0.1,0.2-0.1l0.5-0.4l1.9-1.4c1.6-1.2,3.7-2.9,6.1-4.7s4.5-3.6,6-4.9l1.8-1.5
				l0.5-0.4C115.2,124.6,115.3,124.6,115.3,124.5z"/>
		</g>
		<g transform="translate(1.547 17.667)">
			<path class="st4" d="M100.4,125.4c-0.6-0.5-1.4-0.8-2.2-0.8C99,124.4,99.9,124.7,100.4,125.4z"/>
		</g>
		<g transform="translate(4.351 14.259)">
			<path class="st4" d="M99.4,125c-0.2,0-0.4,0-0.6-0.1c-0.3-0.1-0.6-0.2-0.6-0.3c0.2,0,0.4,0,0.6,0.1
				C99.2,124.8,99.4,124.9,99.4,125z"/>
		</g>
		<g transform="translate(4.948 13.492)">
			<path class="st4" d="M99.3,124.6c0,0-0.2,0.1-0.5,0s-0.5-0.1-0.5-0.1s0.2-0.1,0.5,0S99.3,124.6,99.3,124.6z"/>
		</g>
		<g transform="translate(4.74 12.245)">
			<path class="st4" d="M99.2,124.5c0,0-0.2,0.2-0.5,0.5s-0.5,0.4-0.6,0.4s0.2-0.2,0.5-0.5S99.2,124.5,99.2,124.5z"/>
		</g>
		<g transform="translate(4.31 11.435)">
			<path class="st4" d="M99.3,124.5c-0.2,0.5-0.6,0.9-1.1,1c0,0,0.3-0.2,0.6-0.5S99.3,124.5,99.3,124.5z"/>
		</g>
		<g transform="translate(2.084 13.859)">
			<path class="st4" d="M100.6,124.7c-0.2,0.2-0.4,0.4-0.7,0.5c-0.3,0.2-0.5,0.3-0.8,0.4c-0.2,0.1-0.3,0.1-0.5,0.1
				c-0.1,0-0.2,0-0.3-0.1c-0.1-0.1-0.1-0.2-0.1-0.3c0.3-0.7,1-1,1.7-0.8c0.2,0,0.4,0.1,0.6,0.3c0.1,0.1,0.2,0.2,0.2,0.2
				c-0.2-0.1-0.5-0.3-0.7-0.3c-0.3-0.1-0.6,0-0.8,0.1c-0.3,0.1-0.6,0.4-0.7,0.7c0,0.2,0.1,0.2,0.3,0.2c0.2,0,0.3-0.1,0.5-0.1
				c0.3-0.1,0.5-0.2,0.8-0.4C100.4,124.9,100.6,124.7,100.6,124.7z"/>
		</g>
		<g transform="translate(3.738 12.443)">
			<path class="st4" d="M98.8,126.3c0,0-0.2-0.1-0.4-0.4c-0.1-0.2-0.2-0.4-0.2-0.6c0-0.3,0.1-0.6,0.3-0.8c0.2-0.1,0.4,0,0.4,0.1
				c0.1,0.1,0.1,0.2,0.1,0.4c0,0.2,0,0.4,0,0.6C99,125.9,99,126.1,98.8,126.3c0-0.1,0.1-0.3,0.1-0.6c0-0.2,0-0.4,0-0.6
				c0-0.2-0.2-0.5-0.3-0.4c-0.2,0.2-0.2,0.4-0.2,0.6c0,0.2,0.1,0.4,0.2,0.6C98.6,126,98.7,126.2,98.8,126.3z"/>
		</g>
		<g transform="translate(12.687 4.92)">
			<path class="st4" d="M100.3,124.5c0,0-0.3,0.2-0.7,0.6c-1.1,1.1-1.5,2.7-1,4.2c0.2,0.6,0.4,0.9,0.4,0.9c-0.1-0.1-0.1-0.1-0.2-0.2
				c-0.1-0.2-0.2-0.4-0.3-0.6c-0.6-1.5-0.2-3.2,1-4.3c0.2-0.2,0.4-0.3,0.6-0.4C100.1,124.6,100.2,124.5,100.3,124.5z"/>
		</g>
		<g transform="translate(10.389 1.545)">
			<path class="st4" d="M98.2,124.5c1.2,1.3,2.3,2.7,3.3,4.1C100.3,127.3,99.2,126,98.2,124.5z"/>
		</g>
		<g transform="translate(8.487 10.699)">
			<path class="st4" d="M101.1,124.5c-0.8,1-1.8,1.8-2.9,2.4c0,0,0.7-0.5,1.5-1.2S101.1,124.5,101.1,124.5z"/>
		</g>
		<g transform="translate(13.327 9.132)">
			<path class="st4" d="M98.3,124.5c0,0,0.1,0.2,0.1,0.4s0.1,0.4,0.1,0.4s-0.2-0.1-0.2-0.4S98.2,124.5,98.3,124.5z"/>
		</g>
		<g transform="translate(13.282 7.614)">
			<path class="st4" d="M98.3,124.5c0,0,0.1,0.2,0,0.4s-0.1,0.3-0.1,0.3s-0.1-0.2,0-0.4S98.3,124.5,98.3,124.5z"/>
		</g>
		<g transform="translate(13.685 6.334)">
			<path class="st4" d="M98.7,124.5c0,0-0.1,0.1-0.2,0.3s-0.2,0.3-0.2,0.3s-0.1-0.2,0.1-0.4S98.6,124.5,98.7,124.5z"/>
		</g>
		<g transform="translate(14.509 5.54)">
			<path class="st4" d="M98.4,124.5c0,0,0,0.1,0,0.2s-0.1,0.2-0.2,0.1s0-0.1,0-0.2S98.4,124.5,98.4,124.5z"/>
		</g>
		<g transform="translate(3.365 3.958)" class="st13">
			<path d="M109.4,125.2L99.1,133l-0.9-1.2l10.7-7.3L109.4,125.2z"/>
		</g>
	</g>
	<g transform="translate(20.281 185.608)">
		<g transform="translate(0.037)">
			<path class="st6" d="M106.9,131.4l0-6.9l12.9,0l0.1,10.1l-0.8,0.1c-3.6,0.2-18.1,0.8-20.5,0.1C96,133.9,106.9,131.4,106.9,131.4z
				"/>
		</g>
		<g transform="translate(0 8.335)" class="st12">
			<path class="st5" d="M101.6,124.5c0,0-3.8,1.1-3.3,1.8s15.2,0.6,21.7,0l0-0.3l-17.1,0.2C102.7,126.2,102.3,124.5,101.6,124.5z"/>
		</g>
		<g transform="translate(0.036 9.754)">
			<path class="st4" d="M120.1,124.5c-0.1,0-0.1,0-0.2,0l-0.6,0l-2.3,0.1c-2,0.1-4.7,0.2-7.7,0.2s-5.8,0-7.7-0.1l-2.3-0.1l-0.6,0
				c-0.1,0-0.1,0-0.2,0c0.1,0,0.1,0,0.2,0l0.6,0l2.3,0c2,0,4.7,0.1,7.7,0s5.7-0.1,7.7-0.1l2.3-0.1c0.2,0,0.4,0,0.6,0
				C119.9,124.5,120,124.5,120.1,124.5z"/>
		</g>
		<g transform="translate(3.296 8.176)">
			<path class="st4" d="M99.4,126.5c-0.2-0.8-0.6-1.5-1.2-2C99,124.9,99.5,125.7,99.4,126.5z"/>
		</g>
		<g transform="translate(7.64 7.174)">
			<path class="st4" d="M98.9,125.6c0,0-0.2-0.2-0.4-0.5s-0.3-0.6-0.3-0.6s0.2,0.2,0.4,0.5S98.9,125.6,98.9,125.6z"/>
		</g>
		<g transform="translate(8.562 6.966)">
			<path class="st4" d="M99,125.2c0,0-0.2-0.1-0.5-0.3s-0.4-0.4-0.4-0.4s0.2,0.1,0.5,0.3S99,125.2,99,125.2z"/>
		</g>
		<g transform="translate(8.681 6.403)">
			<path class="st4" d="M99.5,124.6c-0.2,0.1-0.4,0.1-0.7,0.1c-0.2,0-0.5,0-0.7-0.1C98.6,124.5,99.1,124.5,99.5,124.6L99.5,124.6z"
				/>
		</g>
		<g transform="translate(8.725 5.6)">
			<path class="st4" d="M99.7,124.5c-0.5,0.3-1,0.3-1.5,0.1c0.3,0,0.5-0.1,0.8-0.1C99.2,124.6,99.5,124.5,99.7,124.5z"/>
		</g>
		<g transform="translate(5.461 5.972)">
			<path class="st4" d="M100.6,125.7c-0.3,0-0.6,0-0.8,0c-0.3,0-0.6-0.1-0.9-0.2c-0.2,0-0.3-0.1-0.5-0.2c-0.1-0.1-0.2-0.1-0.2-0.3
				c0-0.1,0-0.3,0.1-0.3c0.6-0.3,1.4-0.1,1.9,0.4c0.1,0.2,0.2,0.4,0.3,0.6c0,0.1,0,0.1,0,0.2c-0.1-0.3-0.2-0.5-0.4-0.7
				c-0.2-0.2-0.4-0.4-0.7-0.5c-0.3-0.1-0.7-0.1-1,0.1c-0.1,0.1-0.1,0.3,0.1,0.3c0.1,0.1,0.3,0.1,0.5,0.2c0.3,0.1,0.6,0.2,0.9,0.2
				C100.3,125.7,100.6,125.7,100.6,125.7z"/>
		</g>
		<g transform="translate(7.571 5.56)">
			<path class="st4" d="M98.3,126.1c-0.1-0.2-0.1-0.4-0.1-0.6c0-0.2,0.1-0.4,0.2-0.6c0.1-0.3,0.4-0.4,0.7-0.4c0.2,0,0.3,0.2,0.3,0.4
				c0,0.1-0.1,0.3-0.1,0.4c-0.1,0.2-0.2,0.4-0.4,0.5C98.7,125.9,98.6,126,98.3,126.1c0.1,0,0.2-0.2,0.5-0.4c0.1-0.2,0.2-0.3,0.3-0.5
				c0.1-0.2,0.2-0.5,0-0.5c-0.2,0-0.4,0.2-0.5,0.4c-0.1,0.2-0.2,0.3-0.2,0.5C98.3,125.8,98.3,125.9,98.3,126.1z"/>
		</g>
		<g transform="translate(17.046 6.155)">
			<path class="st4" d="M102.8,124.6c0,0-0.4,0-1,0c-1.5,0.2-2.9,1.2-3.4,2.7c-0.2,0.6-0.2,0.9-0.2,0.9c0-0.1,0-0.2,0-0.3
				c0-0.2,0.1-0.5,0.1-0.7c0.5-1.6,1.8-2.7,3.5-2.8c0.2,0,0.5,0,0.7,0C102.6,124.6,102.7,124.6,102.8,124.6z"/>
		</g>
		<g transform="translate(20.206 0.886)">
			<path class="st4" d="M98.2,124.5c0.1,1.8,0.2,3.5,0.1,5.3c-0.1-0.9-0.1-1.8-0.1-2.6C98.2,126.3,98.2,125.4,98.2,124.5z"/>
		</g>
		<g transform="translate(11.648 8.709)">
			<path class="st4" d="M102,124.5c-1.2,0.2-2.5,0.3-3.8,0.1c0,0,0.8,0,1.9,0S102,124.5,102,124.5z"/>
		</g>
		<g transform="translate(17.569 8.705)">
			<path class="st4" d="M98.6,124.5c0,0-0.1,0.2-0.2,0.4s-0.1,0.4-0.2,0.4s-0.1-0.2,0-0.4S98.5,124.5,98.6,124.5z"/>
		</g>
		<g transform="translate(18.394 7.516)">
			<path class="st4" d="M98.7,124.5c0,0-0.1,0.2-0.2,0.3s-0.3,0.2-0.3,0.2s0.1-0.2,0.2-0.3S98.7,124.5,98.7,124.5z"/>
		</g>
		<g transform="translate(19.505 6.902)">
			<path class="st4" d="M98.9,124.6c0,0-0.2,0-0.4,0.1s-0.3,0.2-0.4,0.1s0.1-0.2,0.3-0.3S98.9,124.6,98.9,124.6z"/>
		</g>
		<g transform="translate(20.818 6.687)">
			<path class="st4" d="M98.6,124.6c0,0-0.1,0.1-0.2,0.1s-0.2,0-0.2,0s0.1-0.1,0.2-0.1S98.6,124.5,98.6,124.6z"/>
		</g>
		<g transform="translate(8.725 4.099)" class="st13">
			<path d="M111.2,126.2l-13,0l0-1.6l12.9-0.1L111.2,126.2z"/>
		</g>
	</g>
	<g transform="translate(0 68.194)">
		<g transform="translate(17.485)">
			<path class="st10" d="M141.5,130.2l-5.2,15.5c-1.4,4.2-5.1,4.9-9.5,4.9H98.2v-6.4l26.2-3.7l6.2-16L141.5,130.2z"/>
		</g>
		<g transform="translate(0 12.723)">
			<path class="st10" d="M112.5,130.2l-2.3-1.1c0,0-2.5-4.7-3-4.6s-0.7,1.6,0.3,3.8l-3-0.9c0,0-6.6,3-6.3,3.4c0.3,0.8,1.2,1.1,2,0.8
				c0.1,0,0.2-0.1,0.3-0.1c1.4-0.7,3.3-1.6,3.3-1.6l3.5,1l-4.6,0.6l-4.3,3.9c0.8,0.6,1.9,0.6,2.6-0.1l11.1,2.4l3.5,0.2v-6.4
				L112.5,130.2z"/>
			<g transform="translate(2.871 8.537)">
				<path class="st11" d="M98.2,126.8c0,0,0.3-0.3,0.7-0.7c0.2-0.2,0.5-0.5,0.8-0.6c0.4-0.2,0.8-0.3,1.2-0.3
					c1.1-0.1,2.2-0.3,3.3-0.6c-1.1,0-2.3,0-3.4,0.2c-0.5,0-0.9,0.2-1.3,0.4c-0.3,0.2-0.6,0.4-0.8,0.7
					C98.4,126.2,98.3,126.5,98.2,126.8z"/>
			</g>
			<g transform="translate(4.575 10.411)">
				<path class="st11" d="M98.2,125.4c0,0,0.1-0.2,0.4-0.3s0.8-0.1,1.4-0.2c0.7,0,1.3-0.1,2-0.2c-0.6-0.2-1.3-0.3-2-0.1
					c-0.5,0-0.9,0.1-1.4,0.3c-0.2,0.1-0.3,0.2-0.3,0.4C98.2,125.3,98.2,125.4,98.2,125.4z"/>
			</g>
		</g>
	</g>
	<g transform="translate(47.021 39.032)">
		<path class="st6" d="M114.4,156l-2.2,7.5l-14-6.3c0.5-1.6,2.8-8.5,7.3-19.6c2.5-6.2,8-10.6,14.5-11.7c4.4-0.8,8.9-1.2,13.4-1.3
			c7.8,0.1,19.4,5,21,12.7c1.2,5.9,0,16.2,0,28.8l-1,24.1l-40.2,1.4L114.4,156z"/>
		<g transform="translate(26.302 35.516)" class="st13">
			<path d="M128,125c-4.9,1-9.9,0-14.9-0.3c-3-0.2-6.4-0.5-8.8,1.4c-1.9,1.5-2.7,4-3.2,6.3c-2.1,8.9-2.5,14.9-2.9,24l24.2,1.5
				L128,125z"/>
		</g>
		<g transform="translate(15.172 5.331)">
			<path class="st4" d="M98.2,124.5c0,0,0.4,0.1,1.1,0.3c0.9,0.4,1.7,1.1,2.3,1.9c0.9,1.2,1.3,2.7,1.4,4.2c0.1,1.8-0.1,3.7-0.4,5.5
				c-0.6,3.3-1.3,6.6-2.2,9.9c-0.3,1.2-0.6,2.2-0.8,3c-0.1,0.4-0.2,0.7-0.3,1.1c0.2-0.3,0.3-0.7,0.4-1.1c0.2-0.7,0.5-1.7,0.9-2.9
				c1-3.2,1.8-6.5,2.4-9.9c0.3-1.8,0.5-3.7,0.4-5.6c-0.1-1.6-0.6-3.1-1.5-4.3c-0.6-0.8-1.5-1.5-2.5-1.9c-0.3-0.1-0.5-0.2-0.8-0.2
				C98.4,124.5,98.3,124.5,98.2,124.5z"/>
		</g>
		<g transform="translate(0.438 30.693)">
			<path class="st4" d="M98.2,124.5c0.6,0.4,1.3,0.8,2,1.1c1.2,0.7,3,1.5,4.9,2.4c2,0.9,3.7,1.6,5.1,2.1c0.7,0.3,1.4,0.5,2.2,0.7
				c-0.7-0.4-1.4-0.7-2.1-1c-1.3-0.6-3.1-1.3-5-2.2c-1.9-0.9-3.7-1.7-5-2.3C99.6,125.1,98.9,124.8,98.2,124.5z"/>
		</g>
	</g>
	<g transform="translate(21.783 104.855)">
		<g transform="translate(11.788 2.98)">
			<path class="st4" d="M105.7,124.5c-6.9,3.7-9.5,12.3-5.9,19.2l35,60.1l16.2-9.8l-27.2-54.3l19.7-12.9"/>
		</g>
		<path class="st4" d="M160.1,124.5l-48.1,1.7c-7.8,0.3-13.9,6.7-13.8,14.6l2,68.6l20.2,0l-0.7-64.9l40.4-1.1L160.1,124.5z"/>
		<g transform="translate(21.497 22.296)">
			<path class="st9" d="M98.2,124.5c0,0.2,0.1,0.4,0.1,0.6c0,0.5,0,1.1,0.1,1.8c0.1,1.6,0.1,3.9,0.2,6.7c0.1,5.7,0.2,13.5,0.2,22.1
				c0,8.6,0.1,16.4,0.1,22.1c0,2.8,0,5.1,0,6.7c0,0.8,0,1.4,0,1.8c0,0.2,0,0.4,0,0.6c0-0.2-0.1-0.4-0.1-0.6c0-0.5,0-1.1-0.1-1.8
				c-0.1-1.6-0.1-3.9-0.2-6.7c-0.1-5.7-0.2-13.5-0.2-22.1c0-8.6-0.1-16.4-0.1-22.1c0-2.8,0-5.1,0-6.7c0-0.8,0-1.4,0-1.8
				C98.2,124.9,98.2,124.7,98.2,124.5z"/>
		</g>
	</g>
</g>
<g transform="translate(106.038 61.291)">
	<path class="st9" d="M159.7,124.5h-14.5c-5.9,0-10.6,4.7-10.6,10.6l0,0v50.7h-29.1c-4.1,0-7.3,3.3-7.3,7.3l0,0h66.3v0
		c3.2-0.1,5.8-2.8,5.8-6v-52C170.3,129.3,165.6,124.5,159.7,124.5C159.7,124.5,159.7,124.5,159.7,124.5z"/>
	<g transform="translate(40.394 1.673)">
		<path class="st4" d="M98.4,124.5c0.1,0,0.2,14.9,0.2,33.3s-0.1,33.3-0.2,33.3s-0.2-14.9-0.2-33.3S98.3,124.5,98.4,124.5z"/>
	</g>
	<g transform="translate(16.117 68.698)">
		<path class="st9" d="M120.9,177.7v-53.2h-4.7v53.2c-2.9,5.7-9.7,9.5-17.9,12.7h42.1C131.8,187,124.1,184.3,120.9,177.7z"/>
	</g>
</g>
<rect x="190" y="22.3" class="st6" width="80.3" height="8.7"/>
<g transform="translate(298.34 2588.962)">
	<g transform="translate(1.388)">
		<path class="st0" d="M-263.4-2513.3c1,0.2,1.7,1.1,1.5,2.1c-0.1,0.6-0.2,1.3-0.2,1.5l-2.1,13.9c-0.1,0.7-0.7,1.1-1.4,1
			c0,0,0,0,0,0l-31.8-4.8c-0.6-0.1-1.1-0.7-1-1.3l1.6-18c0.1-0.7,0.6-1.2,1.3-1.1c0,0,0.1,0,0.1,0l7.2,1.1c0.7,0.1,1.3,0.4,1.8,1
			l1.3,1.5L-263.4-2513.3z"/>
	</g>
	<g transform="translate(0.534 3.665)">
		
			<rect x="-290" y="-2524.4" transform="matrix(0.1504 -0.9886 0.9886 0.1504 2240.9905 -2406.0767)" class="st3" width="21.2" height="35.1"/>
	</g>
	<g transform="translate(0 4.364)">
		<path class="st2" d="M-297.7-2519.2l-0.7,22.3c0,0.4,0.3,0.7,0.7,0.8l33.9,5.1c0.4,0.1,0.8-0.2,0.9-0.6l5-21.6
			c0.1-0.4-0.2-0.8-0.6-0.9c0,0,0,0-0.1,0l-38.2-5.8C-297.2-2520-297.6-2519.7-297.7-2519.2
			C-297.7-2519.3-297.7-2519.3-297.7-2519.2z"/>
	</g>
</g>
<g transform="translate(599.359 2540.13)">
	<path class="st2" d="M-260.7-2484.2l-23.5,7.3c-1.6,0.5-3.4-0.4-3.9-2l-10.1-32.5c-0.5-1.6,0.4-3.4,2-3.9l14.9-4.6l15.3,8.3
		l7.4,23.6C-258.2-2486.5-259.1-2484.7-260.7-2484.2z"/>
	<g transform="translate(17.078)">
		<path class="st0" d="M-298.3-2520l2.9,9.2c0.5,1.5,2.1,2.4,3.6,1.9c0,0,0,0,0,0l8.8-2.7L-298.3-2520z"/>
	</g>
	<g transform="translate(6.966 9.386)">
		<path class="st1" d="M-287.5-2520c-3.5,1.4-7.2,2.5-10.9,3.4C-294.8-2518-291.2-2519.1-287.5-2520z"/>
	</g>
	<g transform="translate(8.58 12.381)">
		<path class="st1" d="M-280.4-2520c0,0.1-3.9,1.5-8.9,3s-9,2.7-9,2.6s3.9-1.5,8.9-3S-280.5-2520.1-280.4-2520z"/>
	</g>
	<g transform="translate(9.928 16.204)">
		<path class="st1" d="M-278.8-2520c0,0.1-4.3,1.6-9.7,3.3s-9.8,2.9-9.8,2.8s4.3-1.6,9.7-3.3S-278.9-2520.1-278.8-2520z"/>
	</g>
	<g transform="translate(11.2 20.284)">
		<path class="st1" d="M-278.8-2520c0,0.1-4.3,1.6-9.7,3.3s-9.8,2.9-9.8,2.8s4.3-1.6,9.7-3.3S-278.9-2520.1-278.8-2520z"/>
	</g>
	<g transform="translate(12.471 24.364)">
		<path class="st1" d="M-278.8-2520c0,0.1-4.3,1.6-9.7,3.3s-9.8,2.9-9.8,2.8s4.3-1.6,9.7-3.3S-278.9-2520.1-278.8-2520z"/>
	</g>
	<g transform="translate(13.743 28.444)">
		<path class="st1" d="M-278.8-2520c0,0.1-4.3,1.6-9.7,3.3s-9.8,2.9-9.8,2.8s4.3-1.6,9.7-3.3S-278.9-2520.1-278.8-2520z"/>
	</g>
</g>
</svg>
