<svg xmlns="http://www.w3.org/2000/svg" width="340.842" height="321.313" viewBox="0 0 340.842 321.313"><defs><style>.a{fill:#e1e1e1;}.b{fill:#fafafa;}.c{fill:#ececec;}.d{fill:#aed3f2;}.e{fill:#344154;}.f{fill:#fff;}.g{fill:#d9a171;}.h{fill:#dbdbdb;}.i{fill:#c7c7c7;}.j{fill:#5e6178;}.k{fill:#b78876;}.l{fill:#aa6550;}.m{opacity:0.4;}.n{opacity:0.3;}</style></defs><g transform="translate(-298.34 -2519.986)"><g transform="translate(302.889 2519.986)"><g transform="translate(260.321 186.785)"><g transform="translate(0.157 0)"><g transform="translate(0)"><g transform="translate(0)"><rect class="a" width="4.854" height="36.337" transform="translate(0 4.854) rotate(-90)"/></g></g><g transform="translate(4.722 0.202)"><path class="b" d="M556.484,2696.652a11.422,11.422,0,0,1,0,4.548,11.428,11.428,0,0,1,0-4.548Z" transform="translate(-556.256 -2696.652)"/></g><g transform="translate(3.931 0.102)"><path class="b" d="M555.738,2696.558a11.432,11.432,0,0,1,0,4.549,11.426,11.426,0,0,1,0-4.549Z" transform="translate(-555.509 -2696.558)"/></g><g transform="translate(33.299 0.202)"><path class="b" d="M583.484,2696.652a11.422,11.422,0,0,1,0,4.548,11.473,11.473,0,0,1,0-4.548Z" transform="translate(-583.256 -2696.652)"/></g><g transform="translate(32.507 0.102)"><ellipse class="b" cx="0.229" cy="2.274" rx="0.229" ry="2.274"/></g><g transform="translate(9.4 2.346)"><path class="b" d="M579.266,2698.906c0,.126-4.162.229-9.3.229s-9.295-.1-9.295-.229,4.161-.229,9.295-.229S579.266,2698.78,579.266,2698.906Z" transform="translate(-560.676 -2698.678)"/></g></g><g transform="translate(0 21.856)"><g transform="translate(0 0)"><rect class="a" width="9.709" height="36.337" transform="translate(0 9.709) rotate(-90)"/></g><g transform="translate(0.091 0.819)"><path class="b" d="M588.444,2724.043a.826.826,0,0,1-.2.113c-.133.069-.336.162-.605.276a10.5,10.5,0,0,1-2.463.705,6.416,6.416,0,0,1-4-.568,5.306,5.306,0,0,1-1.9-1.721,3.994,3.994,0,0,1-.661-2.8,2.938,2.938,0,0,1,.669-1.446,1.909,1.909,0,0,1,1.531-.7,2.2,2.2,0,0,1,1.541.83,3.016,3.016,0,0,1,.7,1.656,4.4,4.4,0,0,1-1.253,3.44,5.529,5.529,0,0,1-3.492,1.707,9.281,9.281,0,0,1-4.054-.5,7.481,7.481,0,0,1-3.542-2.381,3.9,3.9,0,0,1-.826-2.1,2.718,2.718,0,0,1,.774-2.181,1.763,1.763,0,0,1,1.137-.5,2.068,2.068,0,0,1,1.188.334,3.152,3.152,0,0,1,1.338,1.959,4.573,4.573,0,0,1-1.433,4.276,7.154,7.154,0,0,1-4.091,1.666,10.077,10.077,0,0,1-4.241-.418,5.858,5.858,0,0,1-3.226-2.508,4.3,4.3,0,0,1-.4-3.857,2.03,2.03,0,0,1,1.482-1.255,2.349,2.349,0,0,1,1.831.442,3.03,3.03,0,0,1,.865,3.271,5.645,5.645,0,0,1-1.831,2.58,8.252,8.252,0,0,1-4.983,1.936,7.979,7.979,0,0,1-3.948-.9,7.869,7.869,0,0,1-2.059-1.526,5.847,5.847,0,0,1-.435-.5.818.818,0,0,1-.128-.188,9.24,9.24,0,0,0,2.7,2.06,7.92,7.92,0,0,0,3.857.8,8.018,8.018,0,0,0,4.784-1.925,5.35,5.35,0,0,0,1.7-2.435,2.677,2.677,0,0,0-.756-2.869,1.968,1.968,0,0,0-1.527-.36,1.623,1.623,0,0,0-1.189,1.032,3.9,3.9,0,0,0,.4,3.479,5.442,5.442,0,0,0,3.007,2.312,9.669,9.669,0,0,0,4.051.385,6.715,6.715,0,0,0,3.833-1.557,4.127,4.127,0,0,0,1.293-3.837,2.7,2.7,0,0,0-1.134-1.674,1.392,1.392,0,0,0-1.772.108,2.274,2.274,0,0,0-.634,1.819,3.451,3.451,0,0,0,.731,1.856,7.066,7.066,0,0,0,3.326,2.237,8.865,8.865,0,0,0,3.863.5,5.119,5.119,0,0,0,3.247-1.564,4.025,4.025,0,0,0,1.171-3.125,2.321,2.321,0,0,0-1.885-2.175,1.566,1.566,0,0,0-1.261.568,2.616,2.616,0,0,0-.6,1.276,3.7,3.7,0,0,0,.585,2.584,5.078,5.078,0,0,0,1.778,1.656,6.3,6.3,0,0,0,3.851.615,11.619,11.619,0,0,0,2.454-.615C588.154,2724.148,588.436,2724.025,588.444,2724.043Z" transform="translate(-551.732 -2717.885)"/></g></g><g transform="translate(3.245 4.823)"><g transform="translate(0 0.172)"><g transform="translate(0 0)"><g transform="translate(0)"><rect class="c" width="16.844" height="33.091" transform="translate(0 16.844) rotate(-90)"/></g></g></g><g transform="translate(5.271 0.75)"><path class="a" d="M559.919,2701.727a145.425,145.425,0,0,1,0,16.305,146.2,146.2,0,0,1,0-16.305Z" transform="translate(-559.692 -2701.727)"/></g><g transform="translate(7.778 0.541)"><path class="a" d="M562.29,2701.529a141.8,141.8,0,0,1,0,16.1,141.8,141.8,0,0,1,0-16.1Z" transform="translate(-562.061 -2701.529)"/></g><g transform="translate(29.122)"><path class="a" d="M582.456,2701.018a157.2,157.2,0,0,1,0,16.951,157.2,157.2,0,0,1,0-16.951Z" transform="translate(-582.227 -2701.018)"/></g><g transform="translate(26.173 0.227)"><path class="a" d="M579.67,2701.233a149.2,149.2,0,0,1,0,16.513,149.2,149.2,0,0,1,0-16.513Z" transform="translate(-579.441 -2701.233)"/></g></g></g><rect class="a" width="223.088" height="147.978" transform="translate(66.543)"/><g transform="translate(56.789 267.839)"><g transform="translate(10.316 26.737)"><path class="d" d="M371.177,2819.1c-.972-.833-3.138-3.472-1.467-6.543a5.837,5.837,0,0,1,3.092-2.178,12.544,12.544,0,0,0,3.39-1.755c1.837-1.564,2.344-4.161,3.565-6.247a7.805,7.805,0,0,1,6.777-4.063c3.163.143,5.8,2.726,7,5.672s1.238,6.216,1.263,9.4c.014,1.76-.065,3.742-1.356,4.93-1.191,1.094-2.983,1.108-4.6,1.058l-17.285-.53" transform="translate(-369.096 -2798.303)"/></g><path class="a" d="M404.806,2773.042H359.349l8.188,48.825a5.452,5.452,0,0,0,3.881,4.346c.052.017.107.028.16.044.134.035.266.08.4.1a5.671,5.671,0,0,0,.924.107l.007.046.222-.035H393.4a5.784,5.784,0,0,0,1.113-.111,5.474,5.474,0,0,0,4.6-4.772l3.947-33.642.179-1.337h-.021l1.563-13.323Zm-8.575,31.144h-4.666l.471-14.17h5.405Zm1.663-14.17h4.467l-1.663,14.17h-4.015Zm-13.327,29.879-.284-12.31H391l-.41,12.31Zm-7.263-12.31h6.527l.284,12.31h-5.854Zm.5,12.31h-5.473c-.52-3.323-1.2-7.643-1.929-12.31h6.446Zm-.769-15.709-1.1-14.17h7.488l.326,14.17Zm7.165,0-.327-14.17h7.706l-.471,14.17Zm-.4-17.568-.3-13.123h8.636l-.436,13.123Zm-.452,0h-7.675l-1.019-13.123h8.391Zm-8.127,0H367.1c-.288-1.813-.56-3.529-.806-5.072-.847-5.306-1.165-7.3-1.342-8.051H374.2Zm.265,3.4,1.1,14.17h-6.715c-.225-1.438-.455-2.892-.684-4.347-.526-3.346-1.053-6.689-1.548-9.823Zm-6.07,14.17H365.03l-2.376-14.17h4.53C367.876,2794.4,368.644,2799.27,369.417,2804.186Zm.534,3.4c.669,4.26,1.326,8.46,1.928,12.31h-4.215l-2.064-12.31Zm21.093,12.31.41-12.31h4.487l-1.051,12.31Zm1.106-33.277.435-13.123h6.268l-1.121,13.123Zm-27.625-13.123c.18.948,1.01,6.112,2.121,13.123h-4.563l-2.2-13.123Zm34.33,46.4h-3.514l1.052-12.31H400.3Zm3.9-33.277h-4.575l1.121-13.123H404.3Z" transform="translate(-359.349 -2773.042)"/></g><g transform="translate(0 166.177)"><rect class="a" width="95.457" height="26.887" rx="2.638"/><g transform="translate(9.767 8.429)"><ellipse class="d" cx="5.817" cy="5.843" rx="5.817" ry="5.843"/></g><g transform="translate(12.31 12.285)"><path class="a" d="M323.867,2688.6a23.724,23.724,0,0,1-3.128,3.378l-.768.745-.158.153-.15-.155a16.455,16.455,0,0,1-2.335-2.656,16.453,16.453,0,0,1,2.645,2.346l-.308,0,.76-.752A23.638,23.638,0,0,1,323.867,2688.6Z" transform="translate(-317.324 -2688.598)"/></g><g transform="translate(28.831 11.162)"><path class="b" d="M390.163,2687.762c0,.124-12.812.225-28.613.225s-28.615-.1-28.615-.225,12.809-.226,28.615-.226S390.163,2687.637,390.163,2687.762Z" transform="translate(-332.934 -2687.536)"/></g><g transform="translate(29.083 16.03)"><path class="b" d="M390.4,2692.363c0,.124-12.813.225-28.613.225s-28.617-.1-28.617-.225,12.809-.226,28.617-.226S390.4,2692.239,390.4,2692.363Z" transform="translate(-333.172 -2692.137)"/></g></g><g transform="translate(26.605 319.877)"><path class="e" d="M630.6,2822.66c0,.249-67.111.451-149.877.451-82.8,0-149.891-.2-149.891-.451s67.1-.452,149.891-.452C563.488,2822.208,630.6,2822.41,630.6,2822.66Z" transform="translate(-330.831 -2822.208)"/></g><g transform="translate(52.944 3.489)"><g transform="translate(0.225 0.225)"><rect class="b" width="231.033" height="151.538"/></g><path class="e" d="M586.973,2675.046c0-1.459-.07-59.113-.179-151.538l.179.179-231.014.047h-.018l.224-.225c-.006,53.892-.013,105.177-.018,151.538l-.206-.207,231.032.207-231.032.207h-.207v-.207c-.005-46.361-.012-97.646-.018-151.538v-.225h.243l231.014.045h.18v.179C587.043,2615.933,586.975,2673.588,586.973,2675.046Z" transform="translate(-355.716 -2523.283)"/></g><rect class="f" width="151.976" height="11.69" transform="translate(86.44 71.05)"/><rect class="g" width="151.976" height="11.69" transform="translate(86.44 59.361)"/><rect class="h" width="151.976" height="11.69" transform="translate(86.44 82.728)"/><rect class="f" width="151.976" height="11.69" transform="translate(86.44 94.417)"/><rect class="h" width="151.976" height="11.69" transform="translate(86.44 106.107)"/><rect class="f" width="151.976" height="11.69" transform="translate(86.44 117.785)"/><rect class="h" width="151.976" height="11.69" transform="translate(86.44 129.474)"/><rect class="i" width="45.564" height="81.803" transform="translate(86.44 59.361)"/><path class="e" d="M387.363,2598.156l75.988-.142,75.988.142-75.988.154Z" transform="translate(-300.923 -2515.427)"/><path class="e" d="M387.363,2609.2l75.988-.142,75.988.142-75.988.154Z" transform="translate(-300.923 -2514.782)"/><path class="e" d="M387.363,2620.245l75.988-.154,75.988.154-75.988.141Z" transform="translate(-300.923 -2514.138)"/><path class="e" d="M387.363,2631.278l75.988-.142,75.988.142-75.988.154Z" transform="translate(-300.923 -2513.493)"/><path class="e" d="M387.363,2642.322l75.988-.142,75.988.142-75.988.154Z" transform="translate(-300.923 -2512.848)"/><path class="e" d="M395.057,2581.582c4.847-.237,9.7-.26,14.55-.3s9.7,0,14.562.3c-4.858.248-9.7.26-14.562.3S399.9,2581.854,395.057,2581.582Z" transform="translate(-300.474 -2516.405)"/><path class="e" d="M395.057,2592.648c3.664-.248,7.34-.26,11-.3s7.339,0,11.015.3c-3.676.248-7.339.26-11.015.3S398.721,2592.9,395.057,2592.648Z" transform="translate(-300.474 -2515.759)"/><path class="e" d="M395.057,2603.693c4.847-.249,9.7-.26,14.55-.3s9.7,0,14.562.3c-4.858.248-9.7.259-14.562.3S399.9,2603.929,395.057,2603.693Z" transform="translate(-300.474 -2515.114)"/><path class="e" d="M395.057,2614.726c3.983-.236,7.978-.26,11.973-.3s7.99,0,11.986.3c-4,.248-7.99.26-11.986.295S399.04,2614.974,395.057,2614.726Z" transform="translate(-300.474 -2514.469)"/><path class="e" d="M395.057,2625.77c4.847-.247,9.7-.259,14.55-.3s9.7,0,14.562.3c-4.858.249-9.7.261-14.562.3S399.9,2626.019,395.057,2625.77Z" transform="translate(-300.474 -2513.824)"/><path class="e" d="M395.057,2636.815c4.847-.249,9.7-.261,14.55-.3s9.7,0,14.562.3c-4.858.247-9.7.259-14.562.295S399.9,2637.051,395.057,2636.815Z" transform="translate(-300.474 -2513.179)"/><path class="e" d="M395.057,2647.848c2.943-.225,5.91-.284,8.829-.3s5.909.071,8.841.3c-2.943.236-5.91.284-8.841.295S398,2648.083,395.057,2647.848Z" transform="translate(-300.474 -2512.534)"/><path class="e" d="M440.474,2581.582c3.64-.237,7.293-.26,10.934-.3s7.3,0,10.944.3c-3.64.248-7.293.26-10.944.3S444.138,2581.854,440.474,2581.582Z" transform="translate(-297.82 -2516.405)"/><path class="e" d="M440.474,2592.648c3.64-.248,7.293-.26,10.934-.3s7.3,0,10.944.3c-3.64.248-7.293.26-10.944.3S444.138,2592.9,440.474,2592.648Z" transform="translate(-297.82 -2515.759)"/><path class="e" d="M440.474,2603.693c3.64-.249,7.293-.26,10.934-.3s7.3,0,10.944.3c-3.64.248-7.293.259-10.944.3S444.138,2603.929,440.474,2603.693Z" transform="translate(-297.82 -2515.114)"/><path class="e" d="M440.474,2614.726c3.64-.236,7.293-.26,10.934-.3s7.3,0,10.944.3c-3.64.248-7.293.26-10.944.295S444.138,2614.974,440.474,2614.726Z" transform="translate(-297.82 -2514.469)"/><path class="e" d="M440.474,2625.77c3.64-.247,7.293-.259,10.934-.3s7.3,0,10.944.3c-3.64.249-7.293.261-10.944.3S444.138,2626.019,440.474,2625.77Z" transform="translate(-297.82 -2513.824)"/><path class="e" d="M440.474,2636.815c3.64-.249,7.293-.261,10.934-.3s7.3,0,10.944.3c-3.64.247-7.293.259-10.944.295S444.138,2637.051,440.474,2636.815Z" transform="translate(-297.82 -2513.179)"/><path class="e" d="M440.474,2647.848c3.64-.237,7.293-.261,10.934-.3s7.3,0,10.944.3c-3.64.247-7.293.259-10.944.3S444.138,2648.1,440.474,2647.848Z" transform="translate(-297.82 -2512.535)"/><path class="e" d="M470.346,2581.582c3.653-.237,7.293-.26,10.945-.3s7.292,0,10.933.3c-3.641.248-7.294.26-10.933.3S474,2581.854,470.346,2581.582Z" transform="translate(-296.075 -2516.405)"/><path class="e" d="M477.437,2636.814a20.763,20.763,0,0,1,6.986,0A20.839,20.839,0,0,1,477.437,2636.814Z" transform="translate(-295.661 -2513.179)"/><path class="e" d="M477.437,2625.769a19.438,19.438,0,0,1,3.546-.3,18.334,18.334,0,0,1,3.487.3,20.8,20.8,0,0,1-6.985,0Z" transform="translate(-295.661 -2513.824)"/><path class="e" d="M477.437,2614.725a20.788,20.788,0,0,1,6.986,0A20.8,20.8,0,0,1,477.437,2614.725Z" transform="translate(-295.661 -2514.469)"/><path class="e" d="M477.437,2603.692a20.763,20.763,0,0,1,6.986,0A20.788,20.788,0,0,1,477.437,2603.692Z" transform="translate(-295.661 -2515.113)"/><path class="e" d="M477.437,2592.648a19.482,19.482,0,0,1,3.546-.3,18.314,18.314,0,0,1,3.487.3,18.3,18.3,0,0,1-3.487.3A19.461,19.461,0,0,1,477.437,2592.648Z" transform="translate(-295.661 -2515.759)"/><path class="e" d="M500.218,2581.582c3.653-.237,7.293-.26,10.945-.3s7.293,0,10.933.3c-3.641.248-7.292.26-10.933.3S503.871,2581.854,500.218,2581.582Z" transform="translate(-294.33 -2516.405)"/><path class="e" d="M500.218,2592.648c3.653-.248,7.293-.26,10.945-.3s7.293,0,10.933.3c-3.641.248-7.292.26-10.933.3S503.871,2592.9,500.218,2592.648Z" transform="translate(-294.33 -2515.759)"/><path class="e" d="M500.218,2603.693c3.653-.249,7.293-.26,10.945-.3s7.293,0,10.933.3c-3.641.248-7.292.259-10.933.3S503.871,2603.929,500.218,2603.693Z" transform="translate(-294.33 -2515.114)"/><path class="e" d="M500.218,2614.726c3.653-.236,7.293-.26,10.945-.3s7.293,0,10.933.3c-3.641.248-7.292.26-10.933.295S503.871,2614.974,500.218,2614.726Z" transform="translate(-294.33 -2514.469)"/><path class="e" d="M500.218,2625.77c3.653-.247,7.293-.259,10.945-.3s7.293,0,10.933.3c-3.641.249-7.292.261-10.933.3S503.871,2626.019,500.218,2625.77Z" transform="translate(-294.33 -2513.824)"/><path class="e" d="M500.218,2636.815c3.653-.249,7.293-.261,10.945-.3s7.293,0,10.933.3c-3.641.247-7.292.259-10.933.295S503.871,2637.051,500.218,2636.815Z" transform="translate(-294.33 -2513.179)"/><path class="e" d="M500.218,2647.848c3.653-.237,7.293-.261,10.945-.3s7.293,0,10.933.3c-3.641.247-7.292.259-10.933.3S503.871,2648.1,500.218,2647.848Z" transform="translate(-294.33 -2512.535)"/><path class="e" d="M387.363,2556.621c4.2-.189,8.379-.272,12.576-.343s8.391,0,12.588-.094,8.38,0,12.576.094,8.38.154,12.576.343c-4.2.189-8.381.272-12.576.343s-8.392,0-12.576.094-8.392,0-12.588-.094S391.559,2556.8,387.363,2556.621Z" transform="translate(-300.923 -2517.874)"/><path class="e" d="M387.363,2561.322c2.624-.177,5.259-.272,7.883-.343s5.26,0,7.9-.094,5.259,0,7.884.094,5.259.166,7.895.343c-2.635.189-5.259.272-7.895.343s-5.26.07-7.884.107-5.259,0-7.9-.107S389.987,2561.5,387.363,2561.322Z" transform="translate(-300.923 -2517.599)"/><path class="e" d="M387.363,2566.023c3.664-.178,7.316-.26,10.98-.331s7.317-.071,10.98-.107,7.329,0,10.981.107,7.327.153,10.98.331c-3.653.188-7.316.271-10.98.342s-7.317.07-10.981.106-7.316,0-10.98-.106S391.027,2566.211,387.363,2566.023Z" transform="translate(-300.923 -2517.323)"/><g transform="translate(93.653 124.525)"><g transform="translate(43.344 58.243)"><g transform="translate(17.64 33.692)"><rect class="e" width="51.496" height="2.505"/></g><path class="e" d="M444.789,2728.863l-9.659-36.2h40.208l8.747,36.2Z" transform="translate(-435.129 -2692.666)"/><g transform="translate(2.264 1.673)"><path class="d" d="M481.55,2726.031H445.63l-8.361-31.784h36.105Z" transform="translate(-437.269 -2694.247)"/></g><g transform="translate(2.265 1.673)"><path class="c" d="M437.87,2696.531h36.111l-.608-2.284h-36.1Z" transform="translate(-437.269 -2694.247)"/></g><g transform="translate(4.048 2.42)"><g transform="translate(2.717)"><path class="b" d="M441.521,2695.348a.394.394,0,1,0,.395-.4A.395.395,0,0,0,441.521,2695.348Z" transform="translate(-441.521 -2694.953)"/></g><g transform="translate(1.358)"><path class="b" d="M440.237,2695.348a.395.395,0,1,0,.395-.4A.395.395,0,0,0,440.237,2695.348Z" transform="translate(-440.237 -2694.953)"/></g><path class="b" d="M438.954,2695.348a.394.394,0,1,0,.394-.4A.394.394,0,0,0,438.954,2695.348Z" transform="translate(-438.954 -2694.953)"/></g><g transform="translate(10.288 9.776)"><g transform="translate(13.332 2.341)"><path class="g" d="M463.828,2709.882l3.954,4.523a5.59,5.59,0,0,0,2.429-4.549c-.013-3.164-2.9-5.756-6.406-5.742s-6.373,2.628-6.36,5.792Z" transform="translate(-457.446 -2704.115)"/></g><g transform="translate(12.796 8.732)"><path class="e" d="M463.356,2710.253a9.2,9.2,0,0,1,1.128,1.131c.706.758,1.716,1.864,2.923,3.215l.137.152-.169.128a6.843,6.843,0,0,1-6.667.654,6.532,6.532,0,0,1-2.743-2.205,5.637,5.637,0,0,1-1.017-2.971l-.007-.2h.2c1.892-.01,3.459,0,4.545.016a9.777,9.777,0,0,1,1.673.08,11.505,11.505,0,0,1-1.74.134c-1.089.051-2.63.107-4.472.156l.189-.2a5.318,5.318,0,0,0,.985,2.738,6.191,6.191,0,0,0,2.568,2.043,6.556,6.556,0,0,0,6.268-.553l-.034.281c-1.145-1.341-2.089-2.47-2.749-3.276A10.84,10.84,0,0,1,463.356,2710.253Z" transform="translate(-456.94 -2710.153)"/></g><g transform="translate(16.63 4.335)"><path class="e" d="M460.562,2706.357a.358.358,0,1,0,.357-.359A.358.358,0,0,0,460.562,2706.357Z" transform="translate(-460.562 -2705.999)"/></g><g transform="translate(9.516 1.862)"><path class="e" d="M453.841,2703.9a20.443,20.443,0,0,1,4.272-.242h.664l.065.064a16.863,16.863,0,0,1,2.471,2.767,16.806,16.806,0,0,1-2.786-2.45l.158.064-.569.005A20.524,20.524,0,0,1,453.841,2703.9Z" transform="translate(-453.841 -2703.662)"/></g><path class="e" d="M446.28,2708.534a13.147,13.147,0,0,1-.41-1.668c-.241-1.1-.584-2.7-.978-4.665l-.042-.215h.222l8.936-.078c-.048-.041.421.347.223.184v.012l0,.014,0,.026.011.054.02.106.04.213.08.423c.053.281.106.562.158.839q.156.83.3,1.632c.2,1.065.385,2.085.563,3.051l.044.242h-.244c-2.684-.007-4.943-.039-6.511-.071-.719-.021-1.32-.036-1.813-.049a2.555,2.555,0,0,1-.614-.049,4.154,4.154,0,0,1,.691-.055l1.853-.062c1.578-.045,3.788-.095,6.392-.123l-.2.242c-.187-.963-.386-1.982-.593-3.045l-.313-1.631c-.053-.277-.107-.557-.16-.838l-.082-.423-.04-.213-.02-.107-.01-.054-.005-.026,0-.014v-.012c-.2-.164.27.222.221.182l-8.937-.005.18-.217c.339,1.9.6,3.479.778,4.6A17.451,17.451,0,0,1,446.28,2708.534Z" transform="translate(-444.85 -2701.903)"/><g transform="translate(9.964 11.531)"><g transform="translate(6.135)"><path class="e" d="M460.06,2713.157a.358.358,0,1,0,.356-.359A.357.357,0,0,0,460.06,2713.157Z" transform="translate(-460.06 -2712.798)"/></g><g transform="translate(0 0.145)"><path class="e" d="M454.264,2713.173a23.432,23.432,0,1,1,3.246.213A11.9,11.9,0,0,1,454.264,2713.173Z" transform="translate(-454.264 -2712.936)"/></g></g><g transform="translate(0.041 9.76)"><path class="e" d="M446.309,2716.1a7.53,7.53,0,0,1-.393-1.193c-.236-.8-.574-1.973-.972-3.441l-.056-.207.219,0c2.433-.045,5.671-.078,9.216-.093l.22.169v.008l0,.011.005.019.009.039.02.077.039.155.079.307.156.609q.152.6.3,1.193c.2.781.388,1.538.57,2.263l.067.264h-.271c-2.733-.005-5.062-.037-6.689-.07l-1.885-.051a2.5,2.5,0,0,1-.642-.055,4.22,4.22,0,0,1,.722-.059l1.925-.067c1.635-.046,3.913-.1,6.569-.122l-.2.265c-.188-.724-.386-1.479-.59-2.259l-.309-1.192-.157-.607-.078-.307-.04-.154-.02-.078-.01-.038-.005-.021,0-.009v-.008h0l.218.169c-3.545.015-6.782.007-9.216-.019l.163-.212c.342,1.414.6,2.576.783,3.4A10.393,10.393,0,0,1,446.309,2716.1Z" transform="translate(-444.889 -2711.124)"/></g><g transform="translate(2.138 1.978)"><path class="e" d="M446.87,2704.009a20.885,20.885,0,1,1,3.058.213A10.591,10.591,0,0,1,446.87,2704.009Z" transform="translate(-446.87 -2703.772)"/></g><g transform="translate(2.213 2.979)"><path class="e" d="M446.941,2704.955a21.132,21.132,0,1,1,3.076.213A10.67,10.67,0,0,1,446.941,2704.955Z" transform="translate(-446.941 -2704.718)"/></g><g transform="translate(2.396 3.944)"><path class="e" d="M447.114,2705.866a19.666,19.666,0,1,1,2.969.214A10.013,10.013,0,0,1,447.114,2705.866Z" transform="translate(-447.114 -2705.629)"/></g><g transform="translate(2.319 11.597)"><path class="e" d="M447.041,2713.1a19.04,19.04,0,1,1,2.915.213A9.595,9.595,0,0,1,447.041,2713.1Z" transform="translate(-447.041 -2712.86)"/></g><g transform="translate(2.681 12.706)"><path class="e" d="M447.383,2714.143a13.853,13.853,0,1,1,2.486.215A7.033,7.033,0,0,1,447.383,2714.143Z" transform="translate(-447.383 -2713.907)"/></g></g></g><g transform="translate(0 94.321)"><path class="e" d="M394.178,2726.753v4.747h3.108v96.111h6.379V2731.5h33.853v96.111H443.9V2731.5H590.755v96.088h6.379V2731.5h2.761v-4.747Z" transform="translate(-394.178 -2726.753)"/></g><g transform="translate(138.307 129.96)"><path class="e" d="M524.851,2760.6a49.37,49.37,0,0,0,8.3,0,49.646,49.646,0,0,0-8.3,0Z" transform="translate(-524.851 -2760.425)"/></g><g transform="translate(77.668 130.893)"><ellipse class="j" cx="0.225" cy="0.11" rx="0.225" ry="0.11"/></g><g transform="translate(63.073)"><g transform="translate(19.249 8.856)"><path class="k" d="M508.172,2682.716l-23.825-24.205-.516-2.621c-.1-.479-.2-1.014-.291-1.622a6.439,6.439,0,0,1,.037-2.133,9.675,9.675,0,0,1,.735-2.537c.4-.7-.241-1.547-.9-1.257s-1.815,2.193-2.064,4.807-2.48-.854-3.314-2.1-3.594-4.993-4.17-5.037c-.844-.066-1.058.849-.2,2.076.872,1.244,3.2,5.1,2.535,5.51l-.025,0a3.116,3.116,0,0,0-3.291,1.632c-.6,1.154-1.271,2.793-.722,3.548a42.871,42.871,0,0,0,3.8,4.024l.8.686s20.613,29.866,25.1,30.836c2.794.6,45.988,4.187,45.988,4.187l3.259-11.9Z" transform="translate(-471.955 -2646.005)"/><g transform="translate(0.016 10.588)"><g transform="translate(0.003 0.003)"><path class="k" d="M471.974,2657.685l2.2,2.116a2.626,2.626,0,0,0,.83.609.791.791,0,0,0,1.093-1.04,2.607,2.607,0,0,0-.507-.784q-1.072-1.288-2.142-2.576" transform="translate(-471.974 -2656.011)"/></g><path class="l" d="M473.452,2656.011c.048-.039.461.371,1.091,1.064.354.4.714.81,1.09,1.234a4.09,4.09,0,0,1,.608.823,1.169,1.169,0,0,1-.06,1.225,1.08,1.08,0,0,1-1.206.276,2.43,2.43,0,0,1-.864-.608l-1.154-1.175a5.118,5.118,0,0,1-.983-1.166,5.262,5.262,0,0,1,1.2.936l1.219,1.1a2.143,2.143,0,0,0,.721.491.655.655,0,0,0,.709-.138.744.744,0,0,0,.015-.756,3.986,3.986,0,0,0-.528-.747l-1.015-1.3A5.163,5.163,0,0,1,473.452,2656.011Z" transform="translate(-471.971 -2656.008)"/></g><g transform="translate(1.581 9.048)"><g transform="translate(0.003 0.003)"><path class="k" d="M473.452,2656.229l2.2,2.117a2.607,2.607,0,0,0,.83.608.79.79,0,0,0,1.092-1.04,2.565,2.565,0,0,0-.507-.784l-2.141-2.575" transform="translate(-473.452 -2654.556)"/></g><path class="l" d="M474.93,2654.556c.048-.04.461.37,1.091,1.064l1.089,1.233a4.078,4.078,0,0,1,.609.823,1.167,1.167,0,0,1-.06,1.224,1.082,1.082,0,0,1-1.206.278,2.43,2.43,0,0,1-.864-.609l-1.155-1.175a5.193,5.193,0,0,1-.982-1.165,5.177,5.177,0,0,1,1.2.934l1.219,1.1a2.134,2.134,0,0,0,.721.491.655.655,0,0,0,.709-.138.746.746,0,0,0,.015-.757,4,4,0,0,0-.528-.746l-1.015-1.3A5.2,5.2,0,0,1,474.93,2654.556Z" transform="translate(-473.449 -2654.553)"/></g><g transform="translate(3.296 7.785)"><g transform="translate(0.003 0.003)"><path class="k" d="M475.073,2655.037l2.2,2.116a2.616,2.616,0,0,0,.831.609.791.791,0,0,0,1.092-1.041,2.609,2.609,0,0,0-.507-.784l-2.142-2.574" transform="translate(-475.073 -2653.363)"/></g><path class="l" d="M476.551,2653.363c.048-.04.461.369,1.092,1.064l1.089,1.233a4.032,4.032,0,0,1,.608.823,1.165,1.165,0,0,1-.06,1.224,1.081,1.081,0,0,1-1.206.277,2.439,2.439,0,0,1-.864-.609l-1.154-1.175a5.214,5.214,0,0,1-.983-1.164,5.124,5.124,0,0,1,1.2.934l1.219,1.1a2.136,2.136,0,0,0,.721.491.656.656,0,0,0,.71-.137.751.751,0,0,0,.015-.757,4.133,4.133,0,0,0-.528-.747l-1.015-1.295A5.186,5.186,0,0,1,476.551,2653.363Z" transform="translate(-475.07 -2653.36)"/></g><g transform="translate(6.784 9.53)"><path class="l" d="M478.365,2658.6c-.006-.072.546-.182,1.342.063l-.254.217a3.758,3.758,0,0,1-.056-1.513,3.844,3.844,0,0,1,.826-1.842c.34-.4.627-.554.661-.512a7.9,7.9,0,0,0-1.043,2.425,4.5,4.5,0,0,0-.014,1.366l.047.345-.3-.128C478.885,2658.729,478.361,2658.69,478.365,2658.6Z" transform="translate(-478.365 -2655.008)"/></g></g><g transform="translate(61.391)"><g transform="translate(3.744 5.199)"><path class="k" d="M536.847,2646.631l.1,33.155-12.929.617-.523-7.947s-6.237.948-7.54-3.745c-.833-3-.624-26.162-.624-26.162Z" transform="translate(-515.309 -2642.55)"/></g><path class="e" d="M512.327,2646.106c.958,1.982,5.521,5.608,5.521,5.608l2.061,5.523c1.791-1.4,4.195-1.321,4.65,1.825.328,2.274-2.5,2.733-2.5,2.733a41.189,41.189,0,0,0,5.157,7.729c2.593,2.883,4.046,3.173,6.859,3.221h3.1s6.346-5.3,5.092-19.267-13.809-9.891-16.807-13.381C520.58,2634.413,509.128,2639.493,512.327,2646.106Z" transform="translate(-511.771 -2637.638)"/><g transform="translate(0.679 5.333)"><path class="j" d="M541.524,2664.858a4.459,4.459,0,0,1-1.534-.07,7.979,7.979,0,0,1-3.7-1.906,20.126,20.126,0,0,1-3.745-4.953c-1.208-1.973-2.528-4.276-4.751-5.811-2.249-1.5-4.892-1.811-7.162-2.275a13.51,13.51,0,0,1-5.783-2.2,6.206,6.206,0,0,1-2.317-3.433,3.552,3.552,0,0,1-.064-1.534,5.293,5.293,0,0,0,.131,1.518,6.221,6.221,0,0,0,2.326,3.347,13.534,13.534,0,0,0,5.738,2.14c2.264.456,4.931.753,7.232,2.289,2.269,1.569,3.59,3.9,4.792,5.875a20.348,20.348,0,0,0,3.686,4.941A8.058,8.058,0,0,0,540,2664.72a6.418,6.418,0,0,0,1.124.133C541.387,2664.849,541.524,2664.858,541.524,2664.858Z" transform="translate(-512.413 -2642.677)"/></g><g transform="translate(0.843 3.486)"><path class="j" d="M542.247,2653.6s-.231-.068-.668-.2a10.109,10.109,0,0,0-1.947-.432,4.36,4.36,0,0,0-2.994.67,2.462,2.462,0,0,0-1.041,1.571,2.186,2.186,0,0,0,.6,1.979,1.671,1.671,0,0,0,1.046.415,2.2,2.2,0,0,0,1.151-.314,3.536,3.536,0,0,0,1.563-2,4.949,4.949,0,0,0-4.171-6.49,8.686,8.686,0,0,0-3.213.423,22.583,22.583,0,0,1-3.326.8,13.539,13.539,0,0,1-3.528.009,11.658,11.658,0,0,1-3.4-.943,4.109,4.109,0,0,1-2.328-2.454,3.206,3.206,0,0,1,.791-3.132,2.76,2.76,0,0,1,3.037-.447,2.317,2.317,0,0,1,1.126,1.059,2.536,2.536,0,0,1,.238,1.487,3.38,3.38,0,0,1-1.512,2.37,4.863,4.863,0,0,1-2.554.71,7.537,7.537,0,0,1-2.423-.373,8.686,8.686,0,0,1-3.56-2.2,9.091,9.091,0,0,1-1.817-2.593,9.2,9.2,0,0,1-.644-1.9c-.077-.453-.108-.691-.108-.691s.055.235.143.683a9.7,9.7,0,0,0,.672,1.876,9.142,9.142,0,0,0,1.825,2.552,8.6,8.6,0,0,0,3.527,2.144,7.4,7.4,0,0,0,2.382.356,4.707,4.707,0,0,0,2.476-.7,3.228,3.228,0,0,0,1.437-2.264,2.222,2.222,0,0,0-1.276-2.375,2.593,2.593,0,0,0-2.849.422,3.035,3.035,0,0,0-.74,2.959,3.94,3.94,0,0,0,2.235,2.342,11.542,11.542,0,0,0,3.347.925,13.367,13.367,0,0,0,3.48-.009,22.682,22.682,0,0,0,3.3-.791,8.8,8.8,0,0,1,3.278-.423,5.106,5.106,0,0,1,4.295,6.707,3.673,3.673,0,0,1-1.636,2.069,2.333,2.333,0,0,1-1.225.327,1.8,1.8,0,0,1-1.125-.453,2.3,2.3,0,0,1-.631-2.093,2.561,2.561,0,0,1,1.1-1.634,4.427,4.427,0,0,1,3.06-.657,9.415,9.415,0,0,1,1.95.468C542.024,2653.51,542.247,2653.6,542.247,2653.6Z" transform="translate(-512.568 -2640.932)"/></g></g><g transform="translate(70.433 173.684)"><path class="g" d="M525.363,2815.136l-4.225-5.421,10.1-7.98,6.266,7.866-.595.536c-2.666,2.356-13.722,11.795-16.032,12.7C518.3,2823.851,525.363,2815.136,525.363,2815.136Z" transform="translate(-520.315 -2801.735)"/><g class="m" transform="translate(0.005 7.653)"><path class="f" d="M522.031,2819.121s-2.323,3.244-1.557,3.443,12.3-8.918,17.033-13.386l-.195-.213-13.36,10.75S522.639,2818.681,522.031,2819.121Z" transform="translate(-520.319 -2808.966)"/></g><g transform="translate(0.023 7.521)"><path class="e" d="M537.466,2808.841a1.288,1.288,0,0,1-.159.156l-.475.425-1.773,1.53c-1.507,1.282-3.611,3.025-5.977,4.9s-4.547,3.522-6.139,4.695l-1.9,1.376-.522.365a1.243,1.243,0,0,1-.188.119,1.206,1.206,0,0,1,.169-.144l.5-.39,1.866-1.414c1.575-1.195,3.743-2.858,6.108-4.73s4.479-3.6,6-4.862l1.8-1.492.493-.4A1.283,1.283,0,0,1,537.466,2808.841Z" transform="translate(-520.337 -2808.841)"/></g><g transform="translate(1.547 17.667)"><path class="e" d="M523.995,2819.318a3.393,3.393,0,0,0-2.218-.813,2.082,2.082,0,0,1,2.218.813Z" transform="translate(-521.777 -2818.426)"/></g><g transform="translate(4.351 14.259)"><path class="e" d="M525.624,2815.638a1.35,1.35,0,0,1-.625-.135c-.331-.116-.587-.242-.574-.283a1.355,1.355,0,0,1,.625.135C525.382,2815.47,525.639,2815.6,525.624,2815.638Z" transform="translate(-524.425 -2815.207)"/></g><g transform="translate(4.948 13.492)"><path class="e" d="M526.067,2814.6c0,.042-.246.063-.544.043s-.537-.069-.533-.111.245-.064.543-.044S526.07,2814.558,526.067,2814.6Z" transform="translate(-524.99 -2814.482)"/></g><g transform="translate(4.74 12.245)"><path class="e" d="M525.842,2813.308c.027.034-.185.25-.473.484s-.545.4-.573.362.185-.249.474-.484S525.815,2813.274,525.842,2813.308Z" transform="translate(-524.794 -2813.303)"/></g><g transform="translate(4.31 11.435)"><path class="e" d="M525.512,2812.54a1.892,1.892,0,0,1-1.124,1.035c-.022-.039.26-.231.565-.513S525.474,2812.515,525.512,2812.54Z" transform="translate(-524.387 -2812.538)"/></g><g transform="translate(2.084 13.859)"><path class="e" d="M524.71,2815.05a2.388,2.388,0,0,1-.652.509,4.959,4.959,0,0,1-.811.394,2.452,2.452,0,0,1-.525.15.447.447,0,0,1-.32-.075.324.324,0,0,1-.107-.336,1.517,1.517,0,0,1,1.747-.816,1.477,1.477,0,0,1,.554.266c.114.09.162.156.156.162a2.3,2.3,0,0,0-.734-.319,1.476,1.476,0,0,0-.839.078,1.279,1.279,0,0,0-.731.664c-.044.158.093.248.261.225a2.438,2.438,0,0,0,.488-.133,5.544,5.544,0,0,0,.806-.355C524.446,2815.224,524.7,2815.03,524.71,2815.05Z" transform="translate(-522.284 -2814.829)"/></g><g transform="translate(3.738 12.443)"><path class="e" d="M524.477,2815.293c0,.014-.231-.076-.432-.391a1.364,1.364,0,0,1-.2-.614.833.833,0,0,1,.28-.759.33.33,0,0,1,.437.142.9.9,0,0,1,.119.378,2.507,2.507,0,0,1,0,.635,1.2,1.2,0,0,1-.164.557c-.023-.007.037-.219.054-.566a2.951,2.951,0,0,0-.036-.6c-.02-.209-.154-.5-.34-.4a.74.74,0,0,0-.21.614,1.359,1.359,0,0,0,.15.567A2.915,2.915,0,0,0,524.477,2815.293Z" transform="translate(-523.847 -2813.49)"/></g><g transform="translate(12.687 4.92)"><path class="e" d="M534.375,2806.385c.016.024-.311.2-.725.615a4.035,4.035,0,0,0-.978,4.2c.188.554.4.857.378.873a.789.789,0,0,1-.161-.2,3.318,3.318,0,0,1-.321-.632,3.915,3.915,0,0,1,1.005-4.317,3.454,3.454,0,0,1,.566-.425A.723.723,0,0,1,534.375,2806.385Z" transform="translate(-532.302 -2806.384)"/></g><g transform="translate(10.389 1.545)"><path class="e" d="M530.132,2803.2a44.774,44.774,0,0,1,3.335,4.11,44.828,44.828,0,0,1-3.335-4.11Z" transform="translate(-530.131 -2803.195)"/></g><g transform="translate(8.487 10.699)"><path class="e" d="M531.264,2811.845a10.555,10.555,0,0,1-2.93,2.361c-.024-.038.667-.519,1.473-1.17S531.232,2811.812,531.264,2811.845Z" transform="translate(-528.333 -2811.844)"/></g><g transform="translate(13.327 9.132)"><path class="e" d="M532.974,2810.363c.044.005.056.184.109.388s.122.368.085.393-.178-.118-.236-.355S532.932,2810.355,532.974,2810.363Z" transform="translate(-532.906 -2810.363)"/></g><g transform="translate(13.282 7.614)"><path class="e" d="M532.988,2808.929c.043,0,.061.161.04.35s-.072.337-.115.333-.06-.161-.04-.35S532.945,2808.924,532.988,2808.929Z" transform="translate(-532.864 -2808.929)"/></g><g transform="translate(13.685 6.334)"><path class="e" d="M533.7,2807.73c.02.041-.115.145-.222.316s-.151.333-.2.33-.071-.208.065-.416S533.683,2807.691,533.7,2807.73Z" transform="translate(-533.245 -2807.719)"/></g><g transform="translate(14.509 5.54)"><path class="e" d="M534.254,2806.975c.037.021.02.119-.038.217s-.135.162-.173.14-.02-.12.038-.219S534.217,2806.952,534.254,2806.975Z" transform="translate(-534.023 -2806.97)"/></g><g class="n" transform="translate(3.365 3.958)"><path d="M534.663,2806.178l-10.223,7.81-.945-1.229,10.743-7.284Z" transform="translate(-523.494 -2805.475)"/></g></g><g transform="translate(20.281 185.608)"><g transform="translate(0.037)"><path class="g" d="M481.66,2819.922l.019-6.874,12.876-.047.079,10.057-.8.054c-3.553.209-18.077.819-20.455.107C470.728,2822.425,481.66,2819.922,481.66,2819.922Z" transform="translate(-472.966 -2813.001)"/></g><g class="m" transform="translate(0 8.335)"><path class="f" d="M476.321,2820.875s-3.829,1.12-3.349,1.75,15.181.567,21.664-.028l-.022-.288-17.146.219S477.072,2820.9,476.321,2820.875Z" transform="translate(-472.931 -2820.875)"/></g><g transform="translate(0.036 9.754)"><path class="e" d="M494.814,2822.222a1.007,1.007,0,0,1-.221.026l-.635.041-2.34.112c-1.976.079-4.708.152-7.727.168s-5.751-.032-7.729-.091l-2.34-.088-.636-.034a1.131,1.131,0,0,1-.221-.023,1.169,1.169,0,0,1,.222-.009l.637.005,2.34.038c1.977.031,4.709.06,7.725.046s5.747-.072,7.724-.124l2.34-.06c.237-.006.446-.009.637-.012A1.445,1.445,0,0,1,494.814,2822.222Z" transform="translate(-472.965 -2822.217)"/></g><g transform="translate(3.296 8.176)"><path class="e" d="M477.29,2822.738a3.405,3.405,0,0,0-1.244-2.008,2.085,2.085,0,0,1,1.244,2.008Z" transform="translate(-476.045 -2820.726)"/></g><g transform="translate(7.64 7.174)"><path class="e" d="M480.84,2820.85c-.036.023-.219-.2-.407-.492s-.313-.553-.277-.577.219.2.409.492S480.877,2820.827,480.84,2820.85Z" transform="translate(-480.149 -2819.779)"/></g><g transform="translate(8.562 6.966)"><path class="e" d="M481.83,2820.306c-.029.031-.233-.1-.455-.3s-.38-.385-.351-.417.233.1.455.3S481.858,2820.273,481.83,2820.306Z" transform="translate(-481.02 -2819.582)"/></g><g transform="translate(8.681 6.403)"><path class="e" d="M482.477,2819.119a1.516,1.516,0,0,1-.671.088,1.5,1.5,0,0,1-.674-.068,2.935,2.935,0,0,1,1.345-.02Z" transform="translate(-481.132 -2819.05)"/></g><g transform="translate(8.725 5.6)"><path class="e" d="M482.7,2818.3a1.9,1.9,0,0,1-1.523.122,4.134,4.134,0,0,1,.762-.056A4.209,4.209,0,0,1,482.7,2818.3Z" transform="translate(-481.174 -2818.292)"/></g><g transform="translate(5.461 5.972)"><path class="e" d="M480.519,2819.794a2.347,2.347,0,0,1-.828,0,4.865,4.865,0,0,1-.882-.191,2.389,2.389,0,0,1-.5-.206.439.439,0,0,1-.205-.256.325.325,0,0,1,.124-.332,1.518,1.518,0,0,1,1.878.436,1.485,1.485,0,0,1,.273.552.484.484,0,0,1,.022.223,2.334,2.334,0,0,0-.38-.7,1.5,1.5,0,0,0-.709-.457,1.282,1.282,0,0,0-.985.072c-.131.1-.079.252.067.338a2.482,2.482,0,0,0,.467.2,5.685,5.685,0,0,0,.853.219C480.2,2819.77,480.519,2819.769,480.519,2819.794Z" transform="translate(-478.09 -2818.644)"/></g><g transform="translate(7.571 5.56)"><path class="e" d="M480.189,2819.86a.817.817,0,0,1-.1-.575,1.378,1.378,0,0,1,.223-.605.833.833,0,0,1,.687-.425.329.329,0,0,1,.257.381.922.922,0,0,1-.139.37,2.511,2.511,0,0,1-.389.5,1.2,1.2,0,0,1-.472.338c-.014-.021.165-.149.392-.413a2.862,2.862,0,0,0,.344-.5c.113-.175.189-.49-.018-.526-.208-.019-.418.188-.544.354a1.364,1.364,0,0,0-.232.539A3.016,3.016,0,0,0,480.189,2819.86Z" transform="translate(-480.083 -2818.254)"/></g><g transform="translate(17.046 6.155)"><path class="e" d="M493.6,2818.9c0,.029-.369-.034-.951.038a4.03,4.03,0,0,0-3.361,2.7c-.195.553-.212.924-.24.92a.747.747,0,0,1,0-.26,3.434,3.434,0,0,1,.138-.7,3.914,3.914,0,0,1,3.455-2.777,3.369,3.369,0,0,1,.708.015A.756.756,0,0,1,493.6,2818.9Z" transform="translate(-489.036 -2818.816)"/></g><g transform="translate(20.206 0.886)"><path class="e" d="M492.065,2813.837a45.054,45.054,0,0,1,.09,5.291,22.292,22.292,0,0,1-.123-2.643A22.9,22.9,0,0,1,492.065,2813.837Z" transform="translate(-492.021 -2813.837)"/></g><g transform="translate(11.648 8.709)"><path class="e" d="M487.7,2821.245a10.583,10.583,0,0,1-3.763.052c0-.046.845,0,1.881-.014S487.693,2821.2,487.7,2821.245Z" transform="translate(-483.936 -2821.23)"/></g><g transform="translate(17.569 8.705)"><path class="e" d="M489.9,2821.23c.032.032-.068.179-.153.372s-.131.365-.176.362-.067-.2.034-.426S489.868,2821.2,489.9,2821.23Z" transform="translate(-489.53 -2821.225)"/></g><g transform="translate(18.394 7.516)"><path class="e" d="M490.8,2820.108c.031.03-.052.164-.185.3s-.265.221-.3.191.052-.165.184-.3S490.765,2820.079,490.8,2820.108Z" transform="translate(-490.309 -2820.102)"/></g><g transform="translate(19.505 6.902)"><path class="e" d="M492.092,2819.595c-.008.045-.18.043-.368.111s-.325.168-.359.14.073-.208.308-.288S492.105,2819.556,492.092,2819.595Z" transform="translate(-491.359 -2819.522)"/></g><g transform="translate(20.818 6.687)"><path class="e" d="M492.987,2819.348c.016.039-.057.106-.164.148s-.206.044-.221,0,.057-.107.164-.148S492.973,2819.308,492.987,2819.348Z" transform="translate(-492.6 -2819.319)"/></g><g class="n" transform="translate(8.725 4.099)"><path d="M494.154,2818.5l-12.98.012.014-1.55,12.92-.085Z" transform="translate(-481.174 -2816.874)"/></g></g><g transform="translate(0 68.194)"><g transform="translate(17.485)"><path class="k" d="M513.6,2707.759l-5.156,15.526c-1.393,4.193-5.056,4.911-9.474,4.911H470.289v-6.434l26.2-3.742,6.245-15.951Z" transform="translate(-470.289 -2702.068)"/></g><g transform="translate(0 12.723)"><path class="k" d="M468.1,2719.721l-2.275-1.076s-2.452-4.741-3.018-4.552-.727,1.585.258,3.763l-3.024-.863s-6.554,3.028-6.265,3.437a1.514,1.514,0,0,0,2.254.644c1.428-.731,3.3-1.587,3.3-1.587l3.532,1.009-4.553.578-4.283,3.9a2.1,2.1,0,0,0,2.62-.065l11.124,2.39,3.484.2v-6.434Z" transform="translate(-453.769 -2714.088)"/><g transform="translate(2.871 8.537)"><path class="l" d="M456.487,2724.434c.048.031.254-.3.655-.734a3.372,3.372,0,0,1,.81-.627,3.321,3.321,0,0,1,1.2-.313,16.755,16.755,0,0,0,3.338-.57,16.472,16.472,0,0,0-3.382.223,3.287,3.287,0,0,0-1.319.382,3.126,3.126,0,0,0-.836.743A1.99,1.99,0,0,0,456.487,2724.434Z" transform="translate(-456.482 -2722.154)"/></g><g transform="translate(4.575 10.411)"><path class="l" d="M458.133,2724.778c.042,0,.077-.229.389-.3s.823-.117,1.351-.171a11.15,11.15,0,0,0,1.956-.2,3.916,3.916,0,0,0-1.99-.149,5.981,5.981,0,0,0-1.4.287.56.56,0,0,0-.339.35C458.073,2724.719,458.112,2724.781,458.133,2724.778Z" transform="translate(-458.091 -2723.925)"/></g></g></g><g transform="translate(47.021 39.032)"><path class="g" d="M514.4,2705.984l-2.206,7.471-14-6.338c.5-1.563,2.819-8.532,7.251-19.589a19.009,19.009,0,0,1,14.51-11.7,83,83,0,0,1,13.4-1.315c7.85.087,19.406,4.993,20.959,12.688,1.184,5.873.042,16.244.042,28.844l-1.025,24.075-40.226,1.364Z" transform="translate(-498.195 -2674.514)"/><g class="n" transform="translate(26.302 35.516)"><path d="M552.867,2708.517c-4.9,1-9.922-.008-14.909-.3-3.024-.179-6.379-.506-8.771,1.353-1.9,1.474-2.66,3.952-3.207,6.29-2.087,8.915-2.466,14.891-2.935,24.034l24.214,1.468Z" transform="translate(-523.045 -2708.07)"/></g><g transform="translate(15.172 5.331)"><path class="e" d="M512.53,2679.56c-.005.036.4.06,1.07.321a5.576,5.576,0,0,1,2.317,1.875,7.809,7.809,0,0,1,1.384,4.191,26.344,26.344,0,0,1-.423,5.515,92.312,92.312,0,0,1-2.247,9.86c-.331,1.208-.605,2.206-.814,2.963a7.225,7.225,0,0,0-.258,1.1,6.831,6.831,0,0,0,.388-1.059c.227-.689.546-1.69.92-2.933a76.63,76.63,0,0,0,2.355-9.875,25.348,25.348,0,0,0,.4-5.591,7.909,7.909,0,0,0-1.507-4.317,5.478,5.478,0,0,0-2.466-1.854,3.956,3.956,0,0,0-.823-.187A.908.908,0,0,0,512.53,2679.56Z" transform="translate(-512.53 -2679.552)"/></g><g transform="translate(0.438 30.693)"><path class="e" d="M498.609,2703.517a13.485,13.485,0,0,0,1.972,1.13c1.243.652,2.983,1.509,4.935,2.39s3.748,1.617,5.058,2.118a13.52,13.52,0,0,0,2.154.729,16,16,0,0,0-2.061-.958c-1.285-.558-3.06-1.329-5.008-2.207s-3.7-1.7-4.969-2.292A15.869,15.869,0,0,0,498.609,2703.517Z" transform="translate(-498.609 -2703.513)"/></g></g><g transform="translate(21.783 104.855)"><g transform="translate(11.788 2.98)"><path class="e" d="M492.961,2739.521a14.338,14.338,0,0,0-5.854,19.2l35.012,60.113,16.152-9.757L511.085,2754.8l19.7-12.862" transform="translate(-485.488 -2739.521)"/></g><path class="e" d="M536.242,2736.705l-48.063,1.7a14.336,14.336,0,0,0-13.827,14.55l2,68.646,20.214-.045-.674-64.9,40.355-1.062Z" transform="translate(-474.35 -2736.705)"/><g transform="translate(21.497 22.296)"><path class="j" d="M494.7,2757.771a3.406,3.406,0,0,1,.057.633c.02.46.047,1.066.079,1.822.059,1.582.121,3.873.18,6.7.121,5.659.2,13.48.246,22.117.044,8.616.084,16.415.113,22.119.016,2.793.029,5.07.037,6.7,0,.757,0,1.362-.005,1.824a3.477,3.477,0,0,1-.033.636,3.371,3.371,0,0,1-.058-.635c-.02-.46-.046-1.066-.078-1.822-.06-1.581-.122-3.871-.181-6.7-.121-5.661-.2-13.481-.245-22.121-.044-8.614-.085-16.411-.113-22.115-.016-2.792-.029-5.071-.038-6.7,0-.756,0-1.362.006-1.822A3.329,3.329,0,0,1,494.7,2757.771Z" transform="translate(-494.661 -2757.771)"/></g></g></g><g transform="translate(106.038 61.291)"><path class="j" d="M555.893,2695.545H541.353a10.6,10.6,0,0,0-10.6,10.6v50.73H501.7a7.34,7.34,0,0,0-7.34,7.34H560.7v-.042a6.054,6.054,0,0,0,5.8-6.045v-51.982A10.6,10.6,0,0,0,555.893,2695.545Z" transform="translate(-494.363 -2695.545)"/><g transform="translate(40.394 1.673)"><path class="e" d="M532.752,2697.127c.124,0,.224,14.909.224,33.3s-.1,33.3-.224,33.3-.226-14.906-.226-33.3S532.628,2697.127,532.752,2697.127Z" transform="translate(-532.527 -2697.127)"/></g><g transform="translate(16.117 68.698)"><path class="j" d="M532.255,2813.67v-53.219h-4.728v53.219c-2.886,5.689-9.671,9.54-17.937,12.692h42.144C543.176,2822.884,535.451,2820.214,532.255,2813.67Z" transform="translate(-509.59 -2760.451)"/></g></g></g><rect class="g" width="80.306" height="8.746" transform="translate(185.405 22.256)"/></g><g transform="translate(298.34 2588.962)"><g transform="translate(1.388)"><path class="a" d="M249.575,3229.016a1.837,1.837,0,0,1,1.544,2.088c-.092.639-.183,1.267-.226,1.544l-2.113,13.891a1.212,1.212,0,0,1-1.376,1.023l-31.794-4.836a1.212,1.212,0,0,1-1.019-1.312l1.623-18a1.214,1.214,0,0,1,1.386-1.1l7.192,1.094a2.9,2.9,0,0,1,1.752.966l1.292,1.486Z" transform="translate(-214.587 -3222.301)"/></g><g transform="translate(0.534 3.665)"><rect class="d" width="35.138" height="21.206" transform="translate(3.189 0) rotate(8.649)"/></g><g transform="translate(0 4.364)"><path class="c" d="M213.391,3228.939l-.673,22.266a.778.778,0,0,0,.658.8l33.855,5.149a.779.779,0,0,0,.873-.6l5.03-21.6a.781.781,0,0,0-.638-.952l-38.212-5.813A.782.782,0,0,0,213.391,3228.939Z" transform="translate(-212.718 -3228.177)"/></g></g><g transform="translate(599.359 2540.13)"><path class="c" d="M404.7,3267.581l-23.514,7.328a3.082,3.082,0,0,1-3.859-2.025l-10.144-32.546a3.082,3.082,0,0,1,2.025-3.859l14.913-4.647,15.251,8.3,7.353,23.59A3.082,3.082,0,0,1,404.7,3267.581Z" transform="translate(-367.046 -3231.831)"/><g transform="translate(17.078)"><path class="a" d="M390.045,3231.831l2.854,9.159a2.866,2.866,0,0,0,3.589,1.884l8.807-2.743Z" transform="translate(-390.045 -3231.831)"/></g><g transform="translate(6.966 9.386)"><path class="b" d="M387.305,3244.485a72.768,72.768,0,0,1-10.878,3.391,72.763,72.763,0,0,1,10.878-3.391Z" transform="translate(-376.427 -3244.472)"/></g><g transform="translate(8.58 12.381)"><path class="b" d="M396.5,3248.513c.037.117-3.941,1.462-8.885,3s-8.983,2.694-9.019,2.577,3.941-1.462,8.886-3S396.468,3248.4,396.5,3248.513Z" transform="translate(-378.601 -3248.505)"/></g><g transform="translate(9.928 16.204)"><path class="b" d="M399.932,3253.66c.036.118-4.3,1.575-9.691,3.255s-9.789,2.946-9.825,2.828,4.3-1.575,9.693-3.255S399.9,3253.543,399.932,3253.66Z" transform="translate(-380.416 -3253.653)"/></g><g transform="translate(11.2 20.284)"><path class="b" d="M401.645,3259.156c.036.117-4.3,1.575-9.692,3.254s-9.788,2.946-9.825,2.828,4.3-1.575,9.692-3.255S401.608,3259.037,401.645,3259.156Z" transform="translate(-382.129 -3259.148)"/></g><g transform="translate(12.471 24.364)"><path class="b" d="M403.357,3264.649c.037.118-4.3,1.575-9.691,3.255s-9.788,2.947-9.825,2.828,4.3-1.573,9.692-3.255S403.321,3264.532,403.357,3264.649Z" transform="translate(-383.841 -3264.642)"/></g><g transform="translate(13.743 28.444)"><path class="b" d="M405.07,3270.145c.036.118-4.3,1.575-9.692,3.255s-9.788,2.947-9.825,2.829,4.3-1.575,9.692-3.255S405.033,3270.027,405.07,3270.145Z" transform="translate(-385.554 -3270.137)"/></g></g></g></svg>