<svg xmlns="http://www.w3.org/2000/svg" width="333.207" height="209.222" viewBox="0 0 333.207 209.222"><defs><style>.a{fill:#f5f5f5;}.b{fill:#ebebeb;}.c{fill:#e0e0e0;}.d{fill:#fff;}.e{fill:#263238;}.f{fill:#d9a171;}.g{opacity:0.1;}.h{fill:#636363;}.i{fill:#8e8e8e;}.j{opacity:0.3;}.k{fill:#3e4e5c;}.l{fill:#aed3f2;}.m{fill:#455a64;}.n{fill:#bc7e4a;}.o{opacity:0.6;}.p{fill:#ffbf9d;}.q{fill:#ff9a6c;}.r{fill:#839eb6;}</style></defs><g transform="translate(-16.993 -27.671)"><g transform="translate(39.942 27.671)"><g transform="translate(111.655 5.804)"><path class="a" d="M345.49,57.627A20.553,20.553,0,1,1,322.2,40.29,20.531,20.531,0,0,1,345.49,57.627Z" transform="translate(-304.596 -40.073)"/><g transform="translate(4.891 4.88)"><path class="b" d="M346.21,63.877a15.663,15.663,0,1,1-17.747-13.212A15.645,15.645,0,0,1,346.21,63.877Z" transform="translate(-315.046 -50.5)"/></g><g transform="translate(4.607 4.285)"><path class="c" d="M345.812,62.716a9.275,9.275,0,0,1-.681-1.8,16.621,16.621,0,0,0-2.478-4.491,16.045,16.045,0,0,0-2.461-2.518,15.691,15.691,0,0,0-3.423-2.115,15.363,15.363,0,0,0-4.258-1.226,15.189,15.189,0,0,0-2.343-.137,15.318,15.318,0,0,0-4.746.842,15.241,15.241,0,0,0-2.153.935,15.35,15.35,0,0,0-3.576,2.617,15.665,15.665,0,0,0-2.484,3.165,16.05,16.05,0,0,0-1.444,3.212,16.632,16.632,0,0,0-.779,5.069,9.181,9.181,0,0,1-.017,1.928,4.6,4.6,0,0,1-.449-1.9,14.488,14.488,0,0,1,.432-5.331,15.694,15.694,0,0,1,3.959-6.917,15.941,15.941,0,0,1,3.8-2.872,15.933,15.933,0,0,1,2.316-1.026,16.063,16.063,0,0,1,5.119-.908,16.022,16.022,0,0,1,2.527.167,15.964,15.964,0,0,1,4.561,1.387,15.694,15.694,0,0,1,6.1,5.131,14.5,14.5,0,0,1,2.242,4.857A4.6,4.6,0,0,1,345.812,62.716Z" transform="translate(-314.439 -49.23)"/></g><g transform="translate(13.596 9.583)"><path class="c" d="M343.7,80.466l.431,2.694-2.405.384-.42-2.621a11.544,11.544,0,0,1-6.3-.965l.853-3.146a9.846,9.846,0,0,0,4.94.961l-.644-4.017c-2.774-.221-5.9-.634-6.449-4.074-.408-2.549,1.093-5.034,4.824-6.076l-.428-2.67,2.406-.386.42,2.622a11.022,11.022,0,0,1,5.117.685l-.728,3.152a10,10,0,0,0-3.881-.662l.655,4.09c2.77.2,5.847.619,6.39,4.01C348.887,76.947,347.4,79.4,343.7,80.466ZM339.6,70.219l-.548-3.416c-1.229.493-1.622,1.272-1.495,2.065C337.687,69.71,338.483,70.053,339.6,70.219Zm5.065,5.135c-.135-.842-.906-1.187-2-1.383l.531,3.32C344.354,76.833,344.784,76.124,344.66,75.354Z" transform="translate(-333.646 -60.549)"/></g></g><g transform="translate(172.234)"><g transform="translate(0)"><path class="a" d="M460.9,42.032A13.451,13.451,0,1,1,448.424,27.7,13.436,13.436,0,0,1,460.9,42.032Z" transform="translate(-434.034 -27.671)"/><g transform="translate(3.201 3.193)"><path class="b" d="M461.349,45.437a10.25,10.25,0,1,1-9.51-10.918A10.239,10.239,0,0,1,461.349,45.437Z" transform="translate(-440.873 -34.493)"/></g><g transform="translate(3.148 2.804)"><path class="c" d="M461.309,44.675a6.039,6.039,0,0,1-.184-1.249,10.879,10.879,0,0,0-.96-3.217,10.523,10.523,0,0,0-1.223-1.953,10.264,10.264,0,0,0-1.895-1.829,10.048,10.048,0,0,0-2.552-1.376,9.9,9.9,0,0,0-1.479-.413,10.027,10.027,0,0,0-3.152-.122,10.008,10.008,0,0,0-1.507.3,10.056,10.056,0,0,0-2.651,1.176,10.251,10.251,0,0,0-2.029,1.678,10.513,10.513,0,0,0-1.37,1.853,10.889,10.889,0,0,0-1.2,3.133,6.015,6.015,0,0,1-.279,1.23A3.012,3.012,0,0,1,440.8,42.6a9.477,9.477,0,0,1,1.018-3.349,10.268,10.268,0,0,1,3.494-3.872,9.92,9.92,0,0,1,1.336-.746,10.042,10.042,0,0,1,1.5-.562,10.458,10.458,0,0,1,1.624-.334,10.487,10.487,0,0,1,3.4.132,10.538,10.538,0,0,1,1.594.458,10.467,10.467,0,0,1,2.723,1.522,10.271,10.271,0,0,1,3.186,4.13,9.488,9.488,0,0,1,.758,3.418A3.007,3.007,0,0,1,461.309,44.675Z" transform="translate(-440.76 -33.662)"/></g></g><g transform="translate(8.694 6.332)"><path class="c" d="M458.1,54.469l-.1,1.783-1.592-.089.1-1.735a7.557,7.557,0,0,1-3.893-1.493l.983-1.894a6.445,6.445,0,0,0,3.025,1.3l.147-2.659c-1.743-.527-3.684-1.226-3.557-3.5.094-1.687,1.4-3.067,3.931-3.214l.1-1.767,1.592.088-.1,1.735a7.207,7.207,0,0,1,3.177,1.15l-.9,1.914a6.545,6.545,0,0,0-2.39-.964l-.15,2.707c1.744.512,3.653,1.209,3.528,3.453C461.9,52.941,460.613,54.306,458.1,54.469Zm-1.2-7.124.125-2.26c-.854.144-1.214.587-1.243,1.112C455.748,46.755,456.208,47.084,456.9,47.345Zm2.524,3.988c.031-.557-.414-.885-1.085-1.163l-.122,2.2C459.02,52.237,459.392,51.843,459.421,51.334Z" transform="translate(-452.61 -41.201)"/></g></g><g transform="translate(0 4.324)"><g transform="translate(16.443 1.039)"><path class="c" d="M101.871,54.671a20.946,20.946,0,1,1,33.537,21.59h0a20.942,20.942,0,0,1-33.537-21.59Zm39.106,10.458a19.53,19.53,0,1,0-6.46,10.048A19.535,19.535,0,0,0,140.976,65.129Z" transform="translate(-101.161 -39.13)"/></g><g transform="translate(15.995)"><path class="a" d="M100.912,52.45a20.946,20.946,0,1,1,33.537,21.59h0a20.943,20.943,0,0,1-33.537-21.59Zm39.106,10.458a19.53,19.53,0,1,0-6.46,10.048A19.534,19.534,0,0,0,140.017,62.909Z" transform="translate(-100.202 -36.91)"/></g><g transform="translate(0 33.093)"><path class="a" d="M67.07,128.417l-.331-.365c-.709-.781-.924-1.741-.48-2.144l20.087-18.25c.1-.09.307-.022.466.153l2.327,2.561c.158.174.206.388.107.478L69.158,129.1C68.714,129.5,67.779,129.2,67.07,128.417Z" transform="translate(-66.027 -107.618)"/></g><g transform="translate(29.563 4.281)"><path class="c" d="M129.194,48.365a3.051,3.051,0,0,1,.523-.338,6.473,6.473,0,0,1,.643-.347c.257-.123.544-.277.88-.4a15.484,15.484,0,0,1,2.4-.782,16.216,16.216,0,0,1,6.146-.265,15.543,15.543,0,0,1,2.456.572c.346.1.645.227.912.327a6.5,6.5,0,0,1,.67.29,2.972,2.972,0,0,1,.55.292c-.02.045-.817-.346-2.182-.744a17.136,17.136,0,0,0-2.437-.515,17.116,17.116,0,0,0-6.065.262,17.188,17.188,0,0,0-2.384.723C129.979,47.951,129.218,48.409,129.194,48.365Z" transform="translate(-129.193 -46.056)"/></g><g transform="translate(46.349 6.844)"><path class="c" d="M167.139,52.848a3.2,3.2,0,0,1-1.1-.55c-.574-.361-1.01-.7-.974-.756a3.188,3.188,0,0,1,1.1.55C166.739,52.452,167.175,52.791,167.139,52.848Z" transform="translate(-165.06 -51.533)"/></g></g><g transform="translate(255.567 17.376)"><path class="b" d="M632.838,105.891,613.595,96.52a2.678,2.678,0,0,1-1.236-3.58L625.33,66.3a2.678,2.678,0,0,1,3.58-1.236l12.2,5.943,4.705,14.337-9.4,19.306A2.678,2.678,0,0,1,632.838,105.891Z" transform="translate(-612.088 -64.798)"/><g transform="translate(25.123 6.214)"><path class="c" d="M669.671,78.075l-3.651,7.5a2.491,2.491,0,0,0,1.148,3.33l7.207,3.511Z" transform="translate(-665.769 -78.075)"/></g><g transform="translate(15.007 8.276)"><path class="d" d="M653.057,86.824a31.7,31.7,0,0,1-4.537-1.993,31.825,31.825,0,0,1-4.367-2.342,31.7,31.7,0,0,1,4.536,1.993A31.75,31.75,0,0,1,653.057,86.824Z" transform="translate(-644.153 -82.482)"/></g><g transform="translate(12.943 12.517)"><path class="d" d="M654.4,98.683c-.047.1-3.365-1.423-7.411-3.393s-7.288-3.646-7.242-3.742,3.365,1.423,7.411,3.394S654.444,98.586,654.4,98.683Z" transform="translate(-639.744 -91.543)"/></g><g transform="translate(11.22 16.056)"><path class="d" d="M652.035,106.888c-.047.1-3.661-1.567-8.071-3.714s-7.948-3.967-7.9-4.064,3.66,1.567,8.072,3.715S652.081,106.792,652.035,106.888Z" transform="translate(-636.062 -99.106)"/></g><g transform="translate(9.594 19.396)"><path class="d" d="M648.56,114.022c-.047.1-3.66-1.567-8.07-3.714s-7.948-3.967-7.9-4.064,3.66,1.566,8.071,3.715S648.607,113.926,648.56,114.022Z" transform="translate(-632.588 -106.24)"/></g><g transform="translate(7.968 22.735)"><path class="d" d="M645.086,121.157c-.047.1-3.661-1.567-8.07-3.714s-7.948-3.967-7.9-4.063,3.66,1.566,8.071,3.715S645.132,121.061,645.086,121.157Z" transform="translate(-629.113 -113.375)"/></g><g transform="translate(6.342 26.074)"><path class="d" d="M641.612,128.291c-.047.1-3.661-1.567-8.07-3.714s-7.948-3.967-7.9-4.064,3.66,1.566,8.071,3.715S641.658,128.2,641.612,128.291Z" transform="translate(-625.639 -120.509)"/></g></g><g transform="translate(36.718 55.021)"><g transform="translate(0.019 1.162)"><path class="c" d="M146.183,171.206a2.142,2.142,0,0,1-1.607-2.568l4.179-18.148a1.777,1.777,0,0,1,2.171-1.261l1.707.393a1.844,1.844,0,0,0,1.844-.6l.538-.66a1.844,1.844,0,0,1,1.845-.6l8.1,1.866a1.858,1.858,0,0,1,1.348,1.175l.253.722a1.86,1.86,0,0,0,1.348,1.176l10.327,2.378a1.778,1.778,0,0,1,1.4,2.084l-4.275,18.562a2.143,2.143,0,0,1-2.568,1.607Z" transform="translate(-144.521 -147.716)"/></g><path class="b" d="M166.824,151.154l-6.566-1.528-.334-1.233a2.327,2.327,0,0,0-1.741-1.624l-6.421-1.478a2.06,2.06,0,0,0-2.516,1.461l-.172.749-4.538,19.706a2.34,2.34,0,0,0,1.844,2.744l26.084,6.007a2.34,2.34,0,0,0,2.858-1.661l4.287-18.616a1.543,1.543,0,0,0-1.157-1.85Z" transform="translate(-144.481 -145.232)"/><g transform="translate(9.559 11.038)"><g transform="translate(0 0)"><rect class="d" width="15.93" height="6.702" transform="translate(1.504 0) rotate(12.969)"/></g></g><g transform="translate(12.867 14.48)"><path class="c" d="M182.639,178.633c-.013.058-2.412-.445-5.357-1.124s-5.323-1.275-5.309-1.333,2.412.446,5.357,1.124S182.653,178.575,182.639,178.633Z" transform="translate(-171.973 -176.171)"/></g><g transform="translate(12.546 15.871)"><path class="c" d="M181.955,181.606c-.014.058-2.412-.446-5.357-1.124s-5.322-1.275-5.309-1.333,2.412.446,5.357,1.124S181.968,181.548,181.955,181.606Z" transform="translate(-171.288 -179.144)"/></g></g></g><g transform="translate(22.525 236.523)"><g transform="translate(0)"><path class="e" d="M341.625,474.039c0,.067-70.031.122-156.4.122-86.4,0-156.413-.054-156.413-.122s70.016-.122,156.413-.122C271.594,473.917,341.625,473.971,341.625,474.039Z" transform="translate(-28.813 -473.917)"/></g></g><g transform="translate(304.696 86.646)"><g transform="translate(0 15.825)"><path class="f" d="M641.295,191.555a4.818,4.818,0,1,1-5.516-4A4.818,4.818,0,0,1,641.295,191.555Z" transform="translate(-631.717 -187.493)"/><g class="g" transform="translate(0 0.061)"><path class="d" d="M635.779,187.623a4.817,4.817,0,0,0-4,5.516s3.367-.383,3.958-1.857A7.208,7.208,0,0,0,635.779,187.623Z" transform="translate(-631.717 -187.623)"/></g><g transform="translate(1.068 1.092)"><path class="h" d="M641.28,192.914a3.663,3.663,0,1,1-4.193-3.042A3.662,3.662,0,0,1,641.28,192.914Z" transform="translate(-634 -189.827)"/></g><g transform="translate(1.292 1.268)"><path class="i" d="M641.661,193.249a3.614,3.614,0,1,1-4.137-3A3.613,3.613,0,0,1,641.661,193.249Z" transform="translate(-634.478 -190.203)"/></g><g transform="translate(3.329 2.544)"><g transform="translate(0.173)"><path class="f" d="M640.7,194.936l-.146-.913h0a1.9,1.9,0,0,1,.505.049,1.536,1.536,0,0,1,.25.107l.008-.03.089-.351.02-.081-.19-.145-.073.048a1.739,1.739,0,0,0-.692-.086l-.08-.5-.176-.1.02.126-.214.034.081.512c-.695.18-.966.636-.893,1.1.1.629.665.706,1.186.748l.144.9a1.753,1.753,0,0,1-.959-.2l-.131.49a2.005,2.005,0,0,0,1.168.2l.06.379-.176.031.2.092.371-.059-.08-.507c.7-.185.974-.637.9-1.1C641.792,195.049,641.219,194.978,640.7,194.936Zm-.386-.036c-.275-.035-.485-.1-.52-.321-.032-.2.078-.383.391-.484Zm.241-.878Zm.36,2.262-.127-.8c.284.034.5.106.534.328C641.35,196.005,641.235,196.181,640.912,196.284Z" transform="translate(-639.201 -192.93)"/></g><g class="j" transform="translate(0.173)"><path class="f" d="M640.7,194.936l-.146-.913h0a1.9,1.9,0,0,1,.505.049,1.536,1.536,0,0,1,.25.107l.008-.03.089-.351.02-.081-.19-.145-.073.048a1.739,1.739,0,0,0-.692-.086l-.08-.5-.176-.1.02.126-.214.034.081.512c-.695.18-.966.636-.893,1.1.1.629.665.706,1.186.748l.144.9a1.753,1.753,0,0,1-.959-.2l-.131.49a2.005,2.005,0,0,0,1.168.2l.06.379-.176.031.2.092.371-.059-.08-.507c.7-.185.974-.637.9-1.1C641.792,195.049,641.219,194.978,640.7,194.936Zm-.386-.036c-.275-.035-.485-.1-.52-.321-.032-.2.078-.383.391-.484Zm.241-.878Zm.36,2.262-.127-.8c.284.034.5.106.534.328C641.35,196.005,641.235,196.181,640.912,196.284Z" transform="translate(-639.201 -192.93)"/></g><g transform="translate(0 0.001)"><path class="f" d="M640.621,196.678l.08.506-.371.059-.08-.5a2.008,2.008,0,0,1-1.168-.2l.13-.489a1.759,1.759,0,0,0,.96.2l-.144-.9c-.522-.042-1.086-.119-1.186-.748-.073-.461.2-.917.892-1.1l-.082-.511.371-.059.08.5a1.96,1.96,0,0,1,.962.13l-.113.486a1.9,1.9,0,0,0-.772-.128l.146.914c.522.042,1.094.114,1.194.742C641.6,196.041,641.319,196.493,640.621,196.678Zm-.679-1.878-.128-.8c-.313.1-.423.285-.391.484C639.457,194.7,639.667,194.766,639.942,194.8Zm1.008.911c-.035-.221-.251-.294-.534-.328l.127.8C640.865,196.083,640.981,195.907,640.949,195.712Z" transform="translate(-638.831 -192.932)"/></g></g><g transform="translate(3.428 3.66)"><path class="d" d="M639.325,196.2a.309.309,0,0,1-.122-.088.566.566,0,0,1-.083-.68.3.3,0,0,1,.1-.115s-.035.046-.074.126a.607.607,0,0,0-.06.338.613.613,0,0,0,.14.314C639.28,196.16,639.328,196.191,639.325,196.2Z" transform="translate(-639.043 -195.314)"/></g><g transform="translate(4.244 2.731)"><path class="d" d="M640.84,193.627a.633.633,0,1,1-.006-.152A.328.328,0,0,1,640.84,193.627Z" transform="translate(-640.786 -193.329)"/></g></g><g transform="translate(22.856 0) rotate(20)"><g transform="translate(0 0)"><g transform="translate(0 0)"><path class="f" d="M20.816,8.827A10.472,10.472,0,1,1,8.828.132,10.472,10.472,0,0,1,20.816,8.827Z"/></g><g class="g" transform="translate(0 0.132)"><g transform="translate(0 0)"><path class="d" d="M8.828,0a10.471,10.471,0,0,0-8.7,11.988s7.319-.832,8.6-4.036S8.828,0,8.828,0Z"/></g></g><g transform="translate(2.322 2.373)"><g transform="translate(0 0)"><path class="h" d="M15.824,6.711A7.961,7.961,0,1,1,6.711.1,7.961,7.961,0,0,1,15.824,6.711Z"/></g></g><g transform="translate(2.808 2.756)"><g transform="translate(0 0)"><path class="i" d="M15.612,6.62A7.854,7.854,0,1,1,6.621.1,7.854,7.854,0,0,1,15.612,6.62Z"/></g></g><g transform="translate(7.236 5.53)"><g transform="translate(0.376 0)"><g transform="translate(0)"><path class="f" d="M3.253,4.36,2.937,2.375l.01,0a4.126,4.126,0,0,1,1.1.107,3.335,3.335,0,0,1,.543.233l.017-.065L4.8,1.885l.044-.176-.413-.315-.158.1a3.78,3.78,0,0,0-1.5-.186L2.594.22,2.21,0l.044.274L1.788.348,1.965,1.46c-1.51.392-2.1,1.382-1.94,2.385C.243,5.211,1.47,5.379,2.6,5.471l.313,1.966A3.809,3.809,0,0,1,.831,7L.546,8.067A4.359,4.359,0,0,0,3.085,8.5l.131.824-.382.068.425.2.806-.128-.175-1.1c1.519-.4,2.118-1.385,1.958-2.388C5.631,4.606,4.386,4.451,3.253,4.36Zm-.839-.078c-.6-.076-1.054-.226-1.129-.7-.069-.432.17-.833.85-1.053Zm.523-1.908Zm.782,4.916-.277-1.74c.616.073,1.085.231,1.162.712C4.671,6.684,4.42,7.067,3.719,7.289Z"/></g></g><g class="j" transform="translate(0.376 0)"><g transform="translate(0)"><path class="f" d="M3.253,4.36,2.937,2.375l.01,0a4.126,4.126,0,0,1,1.1.107,3.335,3.335,0,0,1,.543.233l.017-.065L4.8,1.885l.044-.176-.413-.315-.158.1a3.78,3.78,0,0,0-1.5-.186L2.594.22,2.21,0l.044.274L1.788.348,1.965,1.46c-1.51.392-2.1,1.382-1.94,2.385C.243,5.211,1.47,5.379,2.6,5.471l.313,1.966A3.809,3.809,0,0,1,.831,7L.546,8.067A4.359,4.359,0,0,0,3.085,8.5l.131.824-.382.068.425.2.806-.128-.175-1.1c1.519-.4,2.118-1.385,1.958-2.388C5.631,4.606,4.386,4.451,3.253,4.36Zm-.839-.078c-.6-.076-1.054-.226-1.129-.7-.069-.432.17-.833.85-1.053Zm.523-1.908Zm.782,4.916-.277-1.74c.616.073,1.085.231,1.162.712C4.671,6.684,4.42,7.067,3.719,7.289Z"/></g></g><g transform="translate(0 0.002)"><g transform="translate(0 0)"><path class="f" d="M3.89,8.143l.175,1.1-.806.129L3.085,8.281A4.364,4.364,0,0,1,.546,7.848L.83,6.785a3.824,3.824,0,0,0,2.086.433L2.6,5.252C1.469,5.16.243,4.993.025,3.625c-.16-1,.428-1.994,1.939-2.385L1.787.129,2.594,0l.174,1.092a4.26,4.26,0,0,1,2.091.283L4.614,2.431a4.129,4.129,0,0,0-1.677-.278L3.253,4.14c1.134.092,2.378.247,2.6,1.613C6.009,6.756,5.409,7.739,3.89,8.143ZM2.414,4.062l-.279-1.75c-.68.219-.919.619-.85,1.053C1.36,3.837,1.817,3.986,2.414,4.062ZM4.6,6.042c-.076-.481-.545-.639-1.162-.712l.277,1.74C4.42,6.848,4.672,6.466,4.6,6.042Z"/></g></g></g><g transform="translate(7.451 7.955)"><g transform="translate(0 0)"><path class="d" d="M.613,1.919a.669.669,0,0,1-.265-.191,1.259,1.259,0,0,1-.34-.708A1.251,1.251,0,0,1,.167.25.661.661,0,0,1,.378,0C.388.009.3.1.216.275a1.317,1.317,0,0,0-.13.734,1.332,1.332,0,0,0,.3.682C.516,1.839.621,1.908.613,1.919Z"/></g></g><g transform="translate(9.225 5.936)"><g transform="translate(0 0)"><path class="d" d="M.116.647A.725.725,0,0,1,.026.33.723.723,0,0,1,.013,0,.725.725,0,0,1,.1.317.714.714,0,0,1,.116.647Z"/></g></g></g></g></g><g transform="translate(99.929 60.701)"><g transform="translate(0 0)"><g transform="translate(11.284 0.234)"><path class="k" d="M221.244,98.744l-2.934,17.173V274.454H361.04V264.38Z" transform="translate(-218.31 -98.744)"/></g><g transform="translate(13.984)"><path class="k" d="M0,0H130.855a12.2,12.2,0,0,1,12.2,12.2V155.443a12.2,12.2,0,0,1-12.2,12.2H0a0,0,0,0,1,0,0V0A0,0,0,0,1,0,0Z" transform="translate(0.234 0.234)"/><path class="e" d="M361.656,266.352H224.079V98.244H361.656a5.948,5.948,0,0,1,5.942,5.942V260.41A5.948,5.948,0,0,1,361.656,266.352Zm-137.109-.468H361.656a5.48,5.48,0,0,0,5.474-5.474V104.186a5.48,5.48,0,0,0-5.474-5.474H224.547Z" transform="translate(-224.079 -98.244)"/></g><g transform="translate(19.506 5.028)"><path class="c" d="M358.2,108.988l7.925,13.215V266.86l-123.483-1.23-6.761-6.992Z" transform="translate(-235.877 -108.988)"/></g><g transform="translate(19.384 4.271)"><g transform="translate(0.122 0.122)"><rect class="d" width="122.319" height="150.286"/></g><path class="e" d="M358.058,257.777c0-.951-.044-60.9-.109-150.285l.109.109-122.306.013h-.013l.122-.122c-.007,55.6-.014,107.3-.02,150.285l-.1-.1,122.319.1-122.319.1h-.1v-.1c-.006-42.985-.013-94.689-.02-150.285v-.122h.135l122.306.013h.109v.109C358.1,196.874,358.058,256.828,358.058,257.777Z" transform="translate(-235.617 -107.37)"/></g><g transform="translate(28.969 51.944)"><path class="e" d="M261.647,212.289a2.788,2.788,0,1,1-2.775-3.059A2.927,2.927,0,0,1,261.647,212.289Z" transform="translate(-256.096 -209.23)"/></g><g class="j" transform="translate(14.218 72.02)"><path d="M224.579,256.684h5.288l-.013-4.557h-5.274Z" transform="translate(-224.579 -252.127)"/></g><g transform="translate(0 39.858)"><g transform="translate(0.074 0.001)"><path class="c" d="M211.043,183.409a16.484,16.484,0,0,0-16.684,16.238c0,8.954,7.575,16.238,16.774,16.238h2.657l-.038-3.85-2.619.106c-7.326,0-13.376-5.6-13.376-12.494s5.96-12.494,13.286-12.494,13.287,5.6,13.287,12.494a1.707,1.707,0,1,0,3.4,0A16.484,16.484,0,0,0,211.043,183.409Z" transform="translate(-194.359 -183.409)"/></g><path class="e" d="M210.958,183.408s.134,0,.4.007l1.161.045c.508.044,1.133.146,1.871.258a18.653,18.653,0,0,1,2.479.71,17.094,17.094,0,0,1,5.963,3.724l.721.768c.121.132.249.258.366.4l.336.435c.22.3.466.581.676.9l.616.982a16.614,16.614,0,0,1,1.812,4.6,16.435,16.435,0,0,1,.339,2.648,3.9,3.9,0,0,1-.054,1.4,1.921,1.921,0,0,1-.895,1.127,1.662,1.662,0,0,1-1.463.07,1.889,1.889,0,0,1-1.007-1.106,2.283,2.283,0,0,1-.129-.759q-.02-.368-.041-.739a10.585,10.585,0,0,0-.19-1.487,12.171,12.171,0,0,0-2.739-5.548,13.167,13.167,0,0,0-2.443-2.165,14.072,14.072,0,0,0-1.426-.868c-.249-.129-.51-.235-.765-.355a6.072,6.072,0,0,0-.785-.32l-.808-.278c-.274-.081-.555-.139-.834-.209a14.54,14.54,0,0,0-1.708-.294,14.692,14.692,0,0,0-5.269.459c-.289.081-.57.192-.856.286l-.428.147-.414.186a12.923,12.923,0,0,0-3.121,1.907,12.285,12.285,0,0,0-2.5,2.752,11.354,11.354,0,0,0-1.579,3.427,10.569,10.569,0,0,0-.408,3.8,10.953,10.953,0,0,0,.87,3.777,12.907,12.907,0,0,0,6.282,6.532,13.232,13.232,0,0,0,4.29,1.269,7.91,7.91,0,0,0,1.1.094,8.621,8.621,0,0,0,1.1.015l2.189-.088.122-.005v.122q.018,1.959.036,3.85V216h-.118c-.987-.007-1.962.013-2.934-.015l-1.454-.074-1.427-.213a17.6,17.6,0,0,1-5.258-1.915c-.39-.24-.8-.448-1.167-.711l-1.095-.794-1.005-.88a4.365,4.365,0,0,1-.473-.461l-.45-.479a16.27,16.27,0,0,1-2.819-4.231c-.193-.366-.306-.765-.461-1.142l-.216-.57-.157-.584c-.1-.389-.222-.769-.291-1.158s-.123-.777-.183-1.162a15.689,15.689,0,0,1,.093-4.487,14.875,14.875,0,0,1,.47-2.074,8.681,8.681,0,0,1,.341-.974c.128-.315.224-.641.375-.938a16.227,16.227,0,0,1,.918-1.725l.5-.8c.175-.256.373-.492.555-.734a16.559,16.559,0,0,1,4.872-4.236c.206-.117.4-.244.606-.349l.611-.284a10.229,10.229,0,0,1,1.163-.5l1.092-.385c.352-.1.695-.176,1.014-.258a12.5,12.5,0,0,1,1.719-.314c.251-.032.48-.077.692-.089l.577-.023.779-.029c.175-.006.264,0,.264,0s-.089.011-.264.023l-.777.049-.574.033c-.211.016-.439.064-.688.1a12.669,12.669,0,0,0-1.71.331c-.317.085-.657.16-1.007.266l-1.083.391a10.242,10.242,0,0,0-1.152.5l-.6.286c-.2.105-.4.232-.6.35a16.5,16.5,0,0,0-4.813,4.227c-.179.241-.375.475-.547.73l-.494.794a16.068,16.068,0,0,0-.9,1.711c-.149.295-.242.618-.367.93a8.573,8.573,0,0,0-.334.966,14.727,14.727,0,0,0-.459,2.053,15.532,15.532,0,0,0-.079,4.436l.184,1.147c.069.384.2.759.291,1.144l.157.576.215.562c.154.372.265.765.457,1.127a16.076,16.076,0,0,0,2.792,4.172l.446.473a4.342,4.342,0,0,0,.468.455l.994.867,1.082.782c.364.26.768.464,1.153.7a17.394,17.394,0,0,0,5.193,1.882l1.407.209,1.435.071c.965.027,1.946.007,2.931.012l-.117.118q-.02-1.894-.04-3.85l.123.117-2.193.09a8.879,8.879,0,0,1-1.115-.015,8.13,8.13,0,0,1-1.121-.095,13.456,13.456,0,0,1-4.365-1.289,13.146,13.146,0,0,1-6.4-6.655,11.2,11.2,0,0,1-.888-3.857,10.779,10.779,0,0,1,.417-3.884,11.593,11.593,0,0,1,1.612-3.5,12.536,12.536,0,0,1,2.55-2.8,13.149,13.149,0,0,1,3.178-1.938l.422-.189.436-.15c.291-.1.577-.208.871-.29a14.893,14.893,0,0,1,5.356-.462,14.835,14.835,0,0,1,1.735.3c.283.072.569.131.847.214l.821.283a6.206,6.206,0,0,1,.8.327c.259.121.525.23.777.361a14.274,14.274,0,0,1,1.449.885,13.378,13.378,0,0,1,2.48,2.2,12.375,12.375,0,0,1,2.775,5.649,10.8,10.8,0,0,1,.19,1.513c.013.252.027.5.04.753a2.093,2.093,0,0,0,.115.694,1.694,1.694,0,0,0,.9,1,1.472,1.472,0,0,0,1.3-.059,1.735,1.735,0,0,0,.809-1.016,3.773,3.773,0,0,0,.05-1.332,16.257,16.257,0,0,0-.327-2.619,16.488,16.488,0,0,0-1.778-4.561l-.606-.975c-.207-.314-.449-.6-.666-.893l-.331-.432c-.115-.139-.242-.264-.361-.4l-.711-.766a17.094,17.094,0,0,0-5.9-3.732,19.014,19.014,0,0,0-2.46-.727c-.733-.119-1.355-.228-1.861-.28l-1.157-.069C211.092,183.423,210.958,183.408,210.958,183.408Z" transform="translate(-194.2 -183.407)"/></g><g transform="translate(28.969 96.1)"><path class="e" d="M261.647,306.637a2.788,2.788,0,1,1-2.775-3.059A2.927,2.927,0,0,1,261.647,306.637Z" transform="translate(-256.096 -303.578)"/></g><g transform="translate(38.705 42.299)"><rect class="l" width="94.224" height="3.944"/></g><g transform="translate(38.705 37.464)"><rect class="k" width="54.919" height="3.944"/></g><g transform="translate(38.705 127.093)"><rect class="f" width="54.919" height="3.944" transform="translate(0 0)"/></g><g transform="translate(38.098 28.975)"><g transform="translate(1.016)"><rect class="c" width="94.342" height="5.753"/></g><g transform="translate(0 52.729)"><rect class="c" width="94.342" height="5.753"/></g><g transform="translate(1.016 24.396)"><rect class="c" width="37.626" height="5.753"/></g><g transform="translate(47.301 24.396)"><rect class="c" width="47.041" height="5.753"/></g><g transform="translate(1.447 10.714)"><path class="e" d="M332.774,183.167c0,.067-12.107.122-27.038.122s-27.041-.054-27.041-.122,12.1-.122,27.041-.122S332.774,183.1,332.774,183.167Z" transform="translate(-278.694 -183.045)"/></g><g transform="translate(1.346 15.241)"><path class="e" d="M371.963,192.839c0,.067-20.929.121-46.741.121s-46.745-.054-46.745-.121,20.925-.122,46.745-.122S371.963,192.771,371.963,192.839Z" transform="translate(-278.477 -192.717)"/></g><g transform="translate(1.346 19.528)"><path class="e" d="M371.963,202c0,.067-20.929.122-46.741.122s-46.745-.054-46.745-.122,20.925-.122,46.745-.122S371.963,201.933,371.963,202Z" transform="translate(-278.477 -201.878)"/></g><g transform="translate(0.719 33.536)"><path class="e" d="M314.734,231.931c0,.067-8.417.122-18.8.122s-18.8-.054-18.8-.122,8.415-.122,18.8-.122S314.734,231.864,314.734,231.931Z" transform="translate(-277.138 -231.809)"/></g><g transform="translate(1.343 37.955)"><path class="e" d="M315.443,241.372c0,.067-8.277.122-18.485.122s-18.486-.054-18.486-.122,8.275-.122,18.486-.122S315.443,241.3,315.443,241.372Z" transform="translate(-278.472 -241.25)"/></g><g transform="translate(0.872 42.446)"><path class="e" d="M314.754,250.967c0,.067-8.348.122-18.644.122s-18.645-.054-18.645-.122,8.346-.121,18.645-.121S314.754,250.9,314.754,250.967Z" transform="translate(-277.466 -250.846)"/></g><g transform="translate(0.872 46.806)"><path class="e" d="M314.754,260.282c0,.067-8.348.122-18.644.122s-18.645-.054-18.645-.122,8.346-.121,18.645-.121S314.754,260.215,314.754,260.282Z" transform="translate(-277.466 -260.161)"/></g><g transform="translate(48.867 33.162)"><g transform="translate(5.813 1.411)"><path class="e" d="M431.374,234.145c0,.067-8.718.122-19.469.122s-19.47-.054-19.47-.122,8.715-.121,19.47-.121S431.374,234.078,431.374,234.145Z" transform="translate(-392.434 -234.024)"/></g><path class="e" d="M382.837,233.95a7.281,7.281,0,0,1-.049-.808c-.019-.5-.041-1.187-.051-2.009l.1.105-2.681.016.116-.121h0v.381c0,.126,0,.252,0,.376,0,.248,0,.491,0,.729,0,.468-.008.913-.012,1.329l-.1-.1c.783.01,1.44.034,1.912.053a6.162,6.162,0,0,1,.769.051,3.961,3.961,0,0,1-.705.052c-.466.02-1.149.043-1.976.053h-.1v-.107c0-.416-.007-.86-.012-1.329,0-.237,0-.481,0-.729v-.757h0l.116-.122,2.681.017h.1v.1c-.01.868-.032,1.587-.051,2.076A4.656,4.656,0,0,1,382.837,233.95Z" transform="translate(-380.014 -231.009)"/></g><g transform="translate(48.867 38.574)"><g transform="translate(5.813 1.411)"><path class="e" d="M431.374,245.709c0,.067-8.718.122-19.469.122s-19.47-.055-19.47-.122,8.715-.122,19.47-.122S431.374,245.641,431.374,245.709Z" transform="translate(-392.434 -245.587)"/></g><path class="e" d="M382.837,245.514a7.3,7.3,0,0,1-.049-.809c-.019-.5-.041-1.187-.051-2.009l.1.105-2.681.016.116-.121h0v.382q0,.19,0,.377,0,.372,0,.728c0,.469-.008.914-.012,1.329l-.1-.105c.783.01,1.44.034,1.912.054a6.161,6.161,0,0,1,.769.052,4.063,4.063,0,0,1-.705.051c-.466.02-1.149.044-1.976.054h-.1v-.106c0-.416-.007-.86-.012-1.329q0-.356,0-.728V242.7h0l.116-.122,2.681.016h.1v.1c-.01.868-.032,1.587-.051,2.076A4.657,4.657,0,0,1,382.837,245.514Z" transform="translate(-380.014 -242.573)"/></g><g transform="translate(48.867 43.986)"><g transform="translate(5.813 1.411)"><path class="e" d="M431.374,257.272c0,.067-8.718.122-19.469.122s-19.47-.054-19.47-.122,8.715-.122,19.47-.122S431.374,257.2,431.374,257.272Z" transform="translate(-392.434 -257.15)"/></g><path class="e" d="M382.837,257.077a7.281,7.281,0,0,1-.049-.808c-.019-.5-.041-1.187-.051-2.009l.1.105-2.681.016.116-.121h0v.381c0,.126,0,.252,0,.376,0,.248,0,.491,0,.729,0,.469-.008.913-.012,1.329l-.1-.1c.783.01,1.44.034,1.912.053a6.165,6.165,0,0,1,.769.051,3.959,3.959,0,0,1-.705.052c-.466.02-1.149.043-1.976.053h-.1v-.107c0-.416-.007-.86-.012-1.329,0-.237,0-.481,0-.729v-.757h0l.116-.122,2.681.017h.1v.1c-.01.869-.032,1.587-.051,2.076A4.655,4.655,0,0,1,382.837,257.077Z" transform="translate(-380.014 -254.136)"/></g><g transform="translate(0.608 63.495)"><path class="e" d="M369.912,322.592s-.005-.158-.008-.461,0-.756-.007-1.347c0-1.188-.01-2.941-.018-5.22-.009-4.555-.022-11.208-.039-19.62l.071.075-92.89.047h-.006l.116-.122c0,9.169,0,18.107,0,26.649l-.113-.119,66.343.054,19.486.034,5.24.015,1.359.008c.307,0,.467.007.467.007s-.151.005-.452.008l-1.345.007-5.216.015-19.461.034-66.422.054H276.9v-.119c0-8.542,0-17.48,0-26.649v-.122h.121l92.89.047h.072v.075c-.017,8.431-.03,15.1-.039,19.665-.007,2.272-.014,4.019-.017,5.2q0,.878-.008,1.334C369.917,322.443,369.912,322.592,369.912,322.592Z" transform="translate(-276.901 -295.821)"/><g transform="translate(0.375 6.707)"><path class="e" d="M370.339,310.273c0,.067-20.739.122-46.316.122s-46.32-.054-46.32-.122,20.734-.121,46.32-.121S370.339,310.206,370.339,310.273Z" transform="translate(-277.703 -310.152)"/></g><g transform="translate(0.375 13.324)"><path class="e" d="M370.339,324.413c0,.067-20.739.122-46.316.122s-46.32-.055-46.32-.122,20.734-.122,46.32-.122S370.339,324.346,370.339,324.413Z" transform="translate(-277.703 -324.291)"/></g><g transform="translate(0.375 20.014)"><path class="e" d="M370.339,338.707c0,.067-20.739.121-46.316.121s-46.32-.054-46.32-.121,20.734-.122,46.32-.122S370.339,338.639,370.339,338.707Z" transform="translate(-277.703 -338.585)"/></g><g transform="translate(10.798 0.079)"><path class="e" d="M300.088,322.914c-.064,0-.116-6.028-.116-13.462s.052-13.464.116-13.464.116,6.027.116,13.464S300.152,322.914,300.088,322.914Z" transform="translate(-299.972 -295.989)"/></g><g transform="translate(42.211 0.483)"><path class="e" d="M367.208,322.565c-.064,0-.116-5.756-.116-12.855s.052-12.856.116-12.856.116,5.755.116,12.856S367.272,322.565,367.208,322.565Z" transform="translate(-367.092 -296.854)"/></g><g transform="translate(75.311 0.888)"><path class="e" d="M437.931,324.239c-.064,0-.116-5.937-.116-13.259s.052-13.261.116-13.261.116,5.936.116,13.261S437.995,324.239,437.931,324.239Z" transform="translate(-437.815 -297.719)"/></g></g><g transform="translate(1.165 96.117)"><path class="e" d="M368.7,365.645c0,.067-20.284.122-45.3.122s-45.3-.054-45.3-.122,20.28-.122,45.3-.122S368.7,365.578,368.7,365.645Z" transform="translate(-278.092 -365.523)"/></g><g transform="translate(1.165 99.969)"><path class="e" d="M368.7,373.875c0,.067-20.284.122-45.3.122s-45.3-.054-45.3-.122,20.28-.122,45.3-.122S368.7,373.808,368.7,373.875Z" transform="translate(-278.092 -373.753)"/></g><g transform="translate(1.165 103.821)"><path class="e" d="M311.063,382.105c0,.067-7.382.122-16.485.122s-16.486-.054-16.486-.122,7.38-.121,16.486-.121S311.063,382.038,311.063,382.105Z" transform="translate(-278.092 -381.984)"/></g></g><g class="j" transform="translate(14.218 114.803)"><path d="M224.579,348.1h5.288l-.013-4.557h-5.274Z" transform="translate(-224.579 -343.539)"/></g><g transform="translate(0 83.677)"><g transform="translate(0.074 0.001)"><path class="c" d="M211.043,277.035a16.484,16.484,0,0,0-16.684,16.238c0,8.954,7.575,16.239,16.774,16.239h2.657l-.038-3.85-2.619.106c-7.326,0-13.376-5.6-13.376-12.495s5.96-12.494,13.286-12.494,13.287,5.6,13.287,12.494a1.707,1.707,0,1,0,3.4,0A16.484,16.484,0,0,0,211.043,277.035Z" transform="translate(-194.359 -277.035)"/></g><path class="e" d="M210.958,277.034s.134,0,.4.007l1.161.045c.508.044,1.133.146,1.871.258a18.656,18.656,0,0,1,2.479.71,17.091,17.091,0,0,1,5.963,3.723l.721.769c.121.132.249.258.366.4l.336.434c.22.3.466.581.676.9l.616.981a16.617,16.617,0,0,1,1.812,4.6,16.428,16.428,0,0,1,.339,2.648,3.9,3.9,0,0,1-.054,1.4,1.923,1.923,0,0,1-.895,1.127,1.662,1.662,0,0,1-1.463.07,1.887,1.887,0,0,1-1.007-1.106,2.283,2.283,0,0,1-.129-.759q-.02-.369-.041-.74a10.585,10.585,0,0,0-.19-1.487,12.172,12.172,0,0,0-2.739-5.547,13.168,13.168,0,0,0-2.443-2.165,14.078,14.078,0,0,0-1.426-.868c-.249-.129-.51-.235-.765-.354a6,6,0,0,0-.785-.32l-.808-.278c-.274-.081-.555-.138-.834-.209a14.444,14.444,0,0,0-1.708-.294,14.7,14.7,0,0,0-5.269.46c-.289.08-.57.191-.856.286l-.428.148-.414.186a12.907,12.907,0,0,0-3.121,1.906,12.305,12.305,0,0,0-2.5,2.752,11.351,11.351,0,0,0-1.579,3.428,10.565,10.565,0,0,0-.408,3.8,10.956,10.956,0,0,0,.87,3.778,12.906,12.906,0,0,0,6.282,6.531,13.232,13.232,0,0,0,4.29,1.27,8.052,8.052,0,0,0,1.1.094,8.7,8.7,0,0,0,1.1.015l2.189-.088.122,0v.122q.018,1.959.036,3.85v.119h-.118c-.987-.007-1.962.013-2.934-.015l-1.454-.074-1.427-.213a17.6,17.6,0,0,1-5.258-1.914c-.39-.241-.8-.448-1.167-.712l-1.095-.794-1.005-.879a4.453,4.453,0,0,1-.473-.461l-.45-.479a16.279,16.279,0,0,1-2.819-4.231c-.193-.366-.306-.766-.461-1.142l-.216-.57-.157-.584c-.1-.389-.222-.769-.291-1.158s-.123-.778-.183-1.162a15.689,15.689,0,0,1,.093-4.487,14.866,14.866,0,0,1,.47-2.075,8.7,8.7,0,0,1,.341-.974c.128-.315.224-.641.375-.938a16.231,16.231,0,0,1,.918-1.725l.5-.8c.175-.257.373-.492.555-.734a16.553,16.553,0,0,1,4.872-4.236c.206-.118.4-.244.606-.349l.611-.285a10.143,10.143,0,0,1,1.163-.5l1.092-.385c.352-.1.695-.176,1.014-.258a12.5,12.5,0,0,1,1.719-.315c.251-.032.48-.077.692-.09l.577-.023.779-.029c.175-.005.264,0,.264,0s-.089.011-.264.023l-.777.048-.574.033c-.211.016-.439.064-.688.1a12.681,12.681,0,0,0-1.71.332c-.317.085-.657.16-1.007.265l-1.083.392a10.154,10.154,0,0,0-1.152.5l-.6.286c-.2.1-.4.232-.6.35a16.49,16.49,0,0,0-4.813,4.227c-.179.241-.375.475-.547.73l-.494.794a16.07,16.07,0,0,0-.9,1.711c-.149.295-.242.617-.367.93a8.565,8.565,0,0,0-.334.965,14.735,14.735,0,0,0-.459,2.054,15.532,15.532,0,0,0-.079,4.436l.184,1.147c.069.384.2.759.291,1.143l.157.576.215.563c.154.372.265.765.457,1.126a16.086,16.086,0,0,0,2.792,4.173l.446.472a4.3,4.3,0,0,0,.468.455l.994.867,1.082.782c.364.26.768.464,1.153.7a17.406,17.406,0,0,0,5.193,1.882l1.407.208,1.435.072c.965.027,1.946.007,2.931.012l-.117.117q-.02-1.894-.04-3.85l.123.117-2.193.09a8.781,8.781,0,0,1-1.115-.015,8.275,8.275,0,0,1-1.121-.1,13.468,13.468,0,0,1-4.365-1.29,13.144,13.144,0,0,1-6.4-6.655,11.2,11.2,0,0,1-.888-3.857,10.778,10.778,0,0,1,.417-3.884,11.593,11.593,0,0,1,1.612-3.5,12.526,12.526,0,0,1,2.55-2.8,13.134,13.134,0,0,1,3.178-1.938l.422-.189.436-.15c.291-.1.577-.208.871-.29a14.912,14.912,0,0,1,5.356-.461,14.649,14.649,0,0,1,1.735.3c.283.072.569.131.847.213l.821.284a6.192,6.192,0,0,1,.8.326c.259.122.525.23.777.362a14.34,14.34,0,0,1,1.449.884,13.4,13.4,0,0,1,2.48,2.205,12.375,12.375,0,0,1,2.775,5.649,10.8,10.8,0,0,1,.19,1.513q.02.378.04.752a2.094,2.094,0,0,0,.115.694,1.7,1.7,0,0,0,.9,1,1.471,1.471,0,0,0,1.3-.059,1.735,1.735,0,0,0,.809-1.016,3.773,3.773,0,0,0,.05-1.332,16.263,16.263,0,0,0-.327-2.62,16.492,16.492,0,0,0-1.778-4.561l-.606-.975c-.207-.315-.449-.6-.666-.893l-.331-.432c-.115-.138-.242-.264-.361-.4l-.711-.766a17.1,17.1,0,0,0-5.9-3.732,18.943,18.943,0,0,0-2.46-.728c-.733-.119-1.355-.228-1.861-.28l-1.157-.069C211.092,277.049,210.958,277.034,210.958,277.034Z" transform="translate(-194.2 -277.034)"/></g><g class="j" transform="translate(11.284 167.874)"><path d="M221.244,456.934,218.31,465H361.04v-8.07Z" transform="translate(-218.31 -456.934)"/></g><g transform="translate(23.016 11.956)"><path class="e" d="M243.378,270.142s.211-.007.624-.008h1.833l7.066.024,26.135.132,87.5.527-.122.122c0-3.819,0-7.883,0-11.99.014-37.328.027-71.115.036-95.577.016-12.227.029-22.121.039-28.963.01-3.417.017-6.07.023-7.874.005-.9.009-1.582.012-2.048s.012-.7.012-.7.008.236.013.7.007,1.15.012,2.048c.005,1.8.013,4.458.023,7.874.009,6.842.022,16.737.038,28.963.009,24.461.022,58.249.036,95.577,0,4.107,0,8.171,0,11.99v.122h-.122l-87.5-.605-26.135-.206-7.066-.067L244,270.158C243.589,270.152,243.378,270.142,243.378,270.142Z" transform="translate(-243.378 -123.789)"/></g><g transform="translate(20.99 8.552)"><path class="e" d="M239.049,264.288s.211-.007.622-.009l1.828,0,7.049,0,26.078.06,87.366.287-.122.121c0-4.026.008-8.308.012-12.636.052-37.448.1-71.343.134-95.883.029-12.265.052-22.192.069-29.056.014-3.427.024-6.09.031-7.9.006-.9.011-1.588.014-2.054s.014-.7.014-.7.008.237.012.7.006,1.154.01,2.054c0,1.81.008,4.472.014,7.9,0,6.864.005,16.791.009,29.056-.016,24.539-.038,58.435-.063,95.883,0,4.329-.009,8.61-.014,12.637v.122h-.122l-87.365-.365-26.078-.135-7.049-.048-1.829-.018C239.26,264.3,239.049,264.288,239.049,264.288Z" transform="translate(-239.049 -116.517)"/></g><g transform="translate(24.834 15.946)"><path class="e" d="M247.262,276.585s.211-.007.623-.008h1.831l7.059.023,26.1.131,87.285.523-.122.121c.014-3.525.028-7.282.042-11.076.156-37,.3-70.5.4-94.746.063-12.12.114-21.929.149-28.711.023-3.387.041-6.018.053-7.806.008-.89.016-1.569.02-2.03s.015-.691.015-.691.007.234.01.692,0,1.141,0,2.03c0,1.789,0,4.419-.007,7.806-.017,6.783-.041,16.592-.072,28.712-.084,24.249-.2,57.742-.328,94.746-.015,3.794-.029,7.552-.043,11.076v.122h-.122l-87.285-.6-26.1-.205-7.059-.067-1.831-.023C247.473,276.594,247.262,276.585,247.262,276.585Z" transform="translate(-247.262 -132.315)"/></g><g transform="translate(144.062 21.799)"><path class="m" d="M502.022,144.822h11.461l4.084,4.587-3.553,5.464h-12Z" transform="translate(-502.011 -144.822)"/></g></g></g><g transform="translate(16.993 127.575)"><g transform="translate(0 12.662)"><g transform="translate(0 0.542)"><path class="m" d="M18.343,287.168a1.573,1.573,0,0,1-1.333-1.781l1.946-13.538a1.3,1.3,0,0,1,1.511-1.056l1.273.183a1.355,1.355,0,0,0,1.314-.551l.353-.516a1.355,1.355,0,0,1,1.314-.551l6.043.869a1.367,1.367,0,0,1,1.059.777l.229.513a1.365,1.365,0,0,0,1.059.778l7.7,1.108a1.3,1.3,0,0,1,1.152,1.439l-1.991,13.846a1.573,1.573,0,0,1-1.781,1.333Z" transform="translate(-16.993 -269.344)"/><g class="j"><path d="M18.343,287.168a1.573,1.573,0,0,1-1.333-1.781l1.946-13.538a1.3,1.3,0,0,1,1.511-1.056l1.273.183a1.355,1.355,0,0,0,1.314-.551l.353-.516a1.355,1.355,0,0,1,1.314-.551l6.043.869a1.367,1.367,0,0,1,1.059.777l.229.513a1.365,1.365,0,0,0,1.059.778l7.7,1.108a1.3,1.3,0,0,1,1.152,1.439l-1.991,13.846a1.573,1.573,0,0,1-1.781,1.333Z" transform="translate(-16.993 -269.344)"/></g></g><g transform="translate(0.012)"><path class="m" d="M32.363,271.57l-4.9-.716-.32-.882a1.707,1.707,0,0,0-1.373-1.082l-4.79-.689a1.512,1.512,0,0,0-1.751,1.224l-.081.558-2.114,14.7a1.718,1.718,0,0,0,1.518,1.895l19.456,2.8a1.718,1.718,0,0,0,1.99-1.39L42,274.1a1.134,1.134,0,0,0-.961-1.283Z" transform="translate(-17.02 -268.185)"/></g><g transform="translate(7.002 7.766)"><g transform="translate(0 0)"><rect class="d" width="11.699" height="4.922" transform="translate(0.701 0) rotate(8.182)"/></g></g><g transform="translate(9.234 10.172)"><path class="e" d="M44.679,291.07c-.007.043-1.793-.178-3.989-.494s-3.973-.607-3.967-.65,1.792.178,3.989.494S44.685,291.027,44.679,291.07Z" transform="translate(-36.723 -289.921)"/></g><g transform="translate(9.085 11.21)"><path class="e" d="M44.36,293.287c-.006.043-1.793-.178-3.989-.494s-3.973-.607-3.967-.65,1.792.178,3.989.494S44.366,293.244,44.36,293.287Z" transform="translate(-36.404 -292.138)"/></g></g><g transform="translate(23.551)"><g transform="translate(0.173)"><path class="n" d="M70.145,254.129a1.035,1.035,0,0,1-1.171-.876l-1.284-8.9a.858.858,0,0,1,.757-.946l.837-.121a.89.89,0,0,0,.726-.591l.127-.391a.89.89,0,0,1,.726-.591l3.972-.573a.9.9,0,0,1,.812.294l.24.281a.9.9,0,0,0,.812.294l5.063-.731a.858.858,0,0,1,.994.694l1.313,9.1a1.035,1.035,0,0,1-.876,1.171Z" transform="translate(-67.682 -241.131)"/></g><g transform="translate(0 0.121)"><path class="f" d="M76,242.219l-3.222.458-.366-.5a1.122,1.122,0,0,0-1.067-.427l-3.149.454a.994.994,0,0,0-.878,1.1l.053.367,1.394,9.663a1.129,1.129,0,0,0,1.309.913l12.79-1.845a1.13,1.13,0,0,0,1-1.246l-1.317-9.128a.745.745,0,0,0-.844-.631Z" transform="translate(-67.313 -241.389)"/></g><g transform="translate(4.676 4.035)"><g transform="translate(0 0)"><rect class="d" width="7.69" height="3.236" transform="matrix(0.99, -0.143, 0.143, 0.99, 0, 1.098)"/></g></g><g transform="translate(6.089 5.613)"><path class="e" d="M85.553,253.127c0,.029-1.163.22-2.607.429s-2.619.354-2.623.326,1.164-.22,2.608-.428S85.549,253.1,85.553,253.127Z" transform="translate(-80.323 -253.124)"/></g><g transform="translate(6.188 6.295)"><path class="e" d="M85.764,254.585c0,.028-1.164.22-2.607.428s-2.619.355-2.622.326,1.163-.22,2.607-.429S85.76,254.556,85.764,254.585Z" transform="translate(-80.534 -254.581)"/></g></g></g><g transform="translate(298.113 77.024)"><g transform="translate(0 0.053)"><path class="d" d="M617.653,147.625l3.046.392a9.81,9.81,0,1,0-1.216-3.3l0-.005Z" transform="translate(-617.653 -133.235)"/></g><path class="e" d="M617.653,147.565s.045-.066.125-.191l.358-.556,1.371-2.147-.053,0,0,0a.03.03,0,0,0,.04.015.031.031,0,0,0,.017-.033,9.794,9.794,0,0,1,.382-4.809,9.627,9.627,0,0,1,.6-1.387,11.006,11.006,0,0,1,.875-1.357,9.725,9.725,0,0,1,17.414,6.972,9.9,9.9,0,0,1-1.513,4.212,9.58,9.58,0,0,1-3.016,2.944,9.765,9.765,0,0,1-7.208,1.246l-.407-.1a2.656,2.656,0,0,1-.4-.112l-.758-.262a13.449,13.449,0,0,1-1.362-.675,9.755,9.755,0,0,1-3.4-3.389.03.03,0,0,0-.021-.014l-2.259-.272-.587-.069c-.133-.015-.2-.022-.2-.022s.062.011.19.029l.578.081,2.275.311-.021-.014a9.749,9.749,0,0,0,3.4,3.437,13.524,13.524,0,0,0,1.371.688l.765.268a2.706,2.706,0,0,0,.4.115l.41.1a9.855,9.855,0,0,0,7.3-1.241,9.69,9.69,0,0,0,3.061-2.979,10.026,10.026,0,0,0,1.538-4.269,9.8,9.8,0,0,0-.614-4.711,4.347,4.347,0,0,0-.236-.548l-.256-.536-.3-.508a4.1,4.1,0,0,0-.322-.492l-.349-.471c-.112-.16-.255-.293-.381-.44s-.255-.292-.394-.425l-.427-.388a9.71,9.71,0,0,0-3.916-2.108,9.828,9.828,0,0,0-10.434,3.576,11,11,0,0,0-.878,1.375,9.59,9.59,0,0,0-.6,1.4,9.791,9.791,0,0,0-.355,4.849l.058-.018,0-.005a.03.03,0,0,0-.04-.015.026.026,0,0,0-.013.012l-1.351,2.186-.341.556C617.688,147.5,617.653,147.565,617.653,147.565Z" transform="translate(-617.653 -133.122)"/><g transform="translate(8.786 5.563)"><path class="e" d="M636.427,147.5h1.337a1.136,1.136,0,0,1,1.166-1.142,1.081,1.081,0,0,1,1.047.69,1.2,1.2,0,0,1-.095,1.082,1.45,1.45,0,0,1-1.624.555V151.7h1.321v-1.765a2.581,2.581,0,0,0,1.853-2.522,2.4,2.4,0,0,0-2.5-2.408A2.293,2.293,0,0,0,636.427,147.5Z" transform="translate(-636.427 -145.009)"/><g transform="translate(1.827 7.315)"><rect class="e" width="1.341" height="1.253"/></g></g></g><g transform="translate(36.158 97.85)"><g transform="translate(0.107 0.11)"><path class="d" d="M80.46,196.643l-3.432-.037a11.032,11.032,0,1,1,2.224-3.268l0,0Z" transform="translate(-58.171 -177.854)"/></g><path class="e" d="M80.339,196.518s-.034-.078-.089-.221l-.244-.636-.919-2.435.089.015,0,0a.052.052,0,0,1-.073.007.053.053,0,0,1-.015-.062,11.039,11.039,0,0,0,.884-5.292,11.085,11.085,0,0,0-3.016-6.686A10.89,10.89,0,0,0,60.1,182.578c-.124.187-.253.37-.372.559l-.318.587-.159.293-.131.306-.258.609a11.063,11.063,0,0,0-.058,7.493,10.956,10.956,0,0,0,18.062,4.021.053.053,0,0,1,.037-.015l2.535.058.663.019c.151,0,.233.011.233.011s-.067,0-.212.006l-.649,0-2.571,0,.037-.015a10.965,10.965,0,0,1-4.624,2.833A11.135,11.135,0,0,1,58.588,192.5a11.273,11.273,0,0,1,.05-7.657l.263-.623.133-.312.162-.3.326-.6c.121-.193.253-.38.38-.571a11.113,11.113,0,0,1,17.2-1.367,11.005,11.005,0,0,1,2.191,3.366,10.879,10.879,0,0,1,.838,3.449,11.028,11.028,0,0,1-.949,5.347l-.088-.054,0,0a.051.051,0,0,1,.073-.008.052.052,0,0,1,.016.023c.378,1.08.67,1.913.872,2.491l.217.629A2.088,2.088,0,0,1,80.339,196.518Z" transform="translate(-57.943 -177.62)"/><g transform="translate(6.973 6.378)"><path class="e" d="M76.426,198.407a3.579,3.579,0,1,1,2.013-.622A3.578,3.578,0,0,1,76.426,198.407Zm-.009-6.223a2.644,2.644,0,1,0,2.188,1.153A2.631,2.631,0,0,0,76.417,192.183Z" transform="translate(-72.841 -191.247)"/><g transform="translate(4.866 5.682)"><path class="e" d="M85.764,207.338a.468.468,0,0,1-.387-.2L83.32,204.12a.468.468,0,1,1,.773-.528l2.057,3.014a.468.468,0,0,1-.387.732Z" transform="translate(-83.239 -203.388)"/></g></g></g><g transform="translate(255.237 79.342)"><g transform="translate(9.04 78.47)"><g transform="translate(4.289 59.353)"><path class="m" d="M567.023,434.824l-2.647,9.17s8.432,5.77,8.108,7.513l-17.965-4.494,3.538-14.458Z" transform="translate(-554.519 -432.555)"/><g transform="translate(3.78 9.264)"><path class="c" d="M563.312,452.356a.757.757,0,0,0-.717.71.727.727,0,0,0,.7.717.8.8,0,0,0,.755-.756.754.754,0,0,0-.809-.665" transform="translate(-562.595 -452.348)"/></g><g class="o" transform="translate(0 13.015)"><path class="d" d="M554.519,461.806l.414-1.443L572,465.212s.713.548.482,1.089Z" transform="translate(-554.519 -460.363)"/></g><g transform="translate(8.286 11.231)"><path class="e" d="M574.108,456.742c-.025.087-.473.017-.975.191s-.825.485-.9.43c-.076-.037.186-.529.8-.729S574.148,456.666,574.108,456.742Z" transform="translate(-572.223 -456.552)"/></g><g transform="translate(10.358 12.595)"><path class="e" d="M578.153,459.542c0,.09-.418.144-.809.441s-.575.667-.661.642c-.086-.007-.018-.536.475-.9S578.172,459.459,578.153,459.542Z" transform="translate(-576.651 -459.466)"/></g><g transform="translate(12.317 13.842)"><path class="e" d="M580.885,463.483c-.084,0-.1-.47.248-.894s.8-.513.822-.431-.3.276-.578.629S580.975,463.5,580.885,463.483Z" transform="translate(-580.836 -462.13)"/></g><g transform="translate(8.651 8.682)"><path class="e" d="M574.895,451.687c-.057.071-.429-.151-.933-.242s-.93-.031-.957-.117.423-.307,1.015-.192S574.955,451.629,574.895,451.687Z" transform="translate(-573.003 -451.105)"/></g></g><g transform="translate(1.207 63.684)"><path class="m" d="M557.223,441.906l-.417,9.536s9.553,3.626,9.647,5.4l-18.518-.144.04-14.884Z" transform="translate(-547.935 -441.809)"/><g transform="translate(2.606 8.756)"><path class="c" d="M554.049,460.547a.757.757,0,0,0-.53.859.727.727,0,0,0,.847.533.8.8,0,0,0,.556-.913.754.754,0,0,0-.942-.456" transform="translate(-553.504 -460.517)"/></g><g class="o" transform="translate(0 13.384)"><path class="d" d="M547.935,471.907l.063-1.5,17.731.7s.822.365.724.945Z" transform="translate(-547.935 -470.407)"/></g><g transform="translate(7.476 9.455)"><path class="e" d="M565.6,462.1c0,.091-.456.128-.9.416s-.687.666-.77.629c-.083-.018.056-.558.6-.9S565.625,462.014,565.6,462.1Z" transform="translate(-563.909 -462.011)"/></g><g transform="translate(9.871 10.322)"><path class="e" d="M570.263,463.9c.02.088-.373.239-.683.619s-.4.784-.492.779c-.085.014-.143-.517.251-.982S570.262,463.814,570.263,463.9Z" transform="translate(-569.026 -463.863)"/></g><g transform="translate(12.087 11.137)"><path class="e" d="M573.867,467.161c-.082.018-.2-.434.031-.928s.661-.687.7-.612-.226.338-.414.746S573.956,467.153,573.867,467.161Z" transform="translate(-573.761 -465.606)"/></g><g transform="translate(7.1 7.025)"><path class="e" d="M565.031,457.152c-.038.082-.453-.046-.964-.015s-.911.189-.958.111.339-.4.942-.425S565.076,457.081,565.031,457.152Z" transform="translate(-563.105 -456.82)"/></g><g transform="translate(9.051 7.249)"><path class="e" d="M567.485,457.3a15.432,15.432,0,0,1,.025,2.3l-.074-.113c1.082.411,2.52.965,4.048,1.685a21.708,21.708,0,0,1,4.1,2.363,4.4,4.4,0,0,1,1.015,1.034c.193.3.167.524.137.513a1.313,1.313,0,0,0-.236-.445,5.17,5.17,0,0,0-1.048-.928,26.85,26.85,0,0,0-4.1-2.257c-1.518-.716-2.941-1.3-4-1.749l-.079-.034,0-.08A15.5,15.5,0,0,1,567.485,457.3Z" transform="translate(-567.273 -457.298)"/></g></g><path class="k" d="M545.562,305.738v6.848l1.839,26.679s-1.145,12.942-1.847,20.247c-.61,6.344.388,17.393.388,17.393h10.705l3.83-36.849,2.377-22.981,4.136-10.459Z" transform="translate(-545.356 -305.738)"/><g transform="translate(8.623 0.468)"><path class="k" d="M584.114,307.49l-2.61,37.194-10.83,27.868-.5,1.678-6.4-1.546,4.757-65.945Z" transform="translate(-563.781 -306.737)"/></g><g transform="translate(11.289 6.382)"><path class="m" d="M576.972,319.375a.859.859,0,0,1,0,.168c0,.122-.007.285-.011.494-.015.446-.037,1.083-.065,1.9-.052,1.648-.184,4.032-.371,6.976-.392,5.887-1.123,14.01-2.262,22.949-1.122,8.945-2.361,17.016-3.266,22.856l-1.092,6.914-.308,1.878c-.036.206-.065.367-.086.488a.085.085,0,1,1-.025,0c.016-.121.036-.283.063-.491.062-.442.15-1.075.263-1.884l1.016-6.922c.862-5.845,2.074-13.918,3.2-22.859,1.139-8.936,1.9-17.053,2.332-22.935.208-2.941.366-5.323.447-6.97.047-.814.085-1.45.11-1.9.015-.208.027-.371.035-.493A.881.881,0,0,1,576.972,319.375Z" transform="translate(-569.476 -319.375)"/></g></g><g transform="translate(16.125)"><g transform="translate(4.209 2.723)"><path class="p" d="M569.5,152.6l-.015,17.938c0,3.051,3.659,8.519,8.482,8.3l.392.006c4.171-.5,1.8-5.462,1.8-8.308,0-1.351,0-2.477.011-2.615,0,0,4.567-.426,4.9-4.945.161-2.184.127-6.71.048-10.8a8.441,8.441,0,0,0-7.925-8.259l-.436-.027C572.034,143.879,569.384,147.882,569.5,152.6Z" transform="translate(-569.486 -143.893)"/></g><g transform="translate(9.11 24.654)"><path class="q" d="M585.741,192.855a10.949,10.949,0,0,1-5.782-2.1s1.234,3.392,5.772,3.261Z" transform="translate(-579.959 -190.753)"/></g><g transform="translate(9.365 12.165)"><path class="e" d="M583.282,164.85c-.088.093-.615-.321-1.372-.333s-1.317.366-1.4.27c-.04-.043.051-.211.3-.387a1.892,1.892,0,0,1,1.121-.332,1.828,1.828,0,0,1,1.09.382C583.25,164.638,583.326,164.809,583.282,164.85Z" transform="translate(-580.504 -164.068)"/></g><g transform="translate(11.024 14.465)"><path class="e" d="M585.272,169.571a.612.612,0,0,1-.627.58.586.586,0,0,1-.6-.59.613.613,0,0,1,.626-.581A.586.586,0,0,1,585.272,169.571Z" transform="translate(-584.049 -168.981)"/></g><g transform="translate(14.099 12.377)"><path class="e" d="M590.619,170.331a4.621,4.621,0,0,1,1.142-.134c.178-.007.349-.032.386-.152a.9.9,0,0,0-.087-.533l-.442-1.384a23.267,23.267,0,0,1-.962-3.607,23.32,23.32,0,0,1,1.25,3.522q.219.727.419,1.39a1.031,1.031,0,0,1,.049.7.445.445,0,0,1-.307.241,1.2,1.2,0,0,1-.3.023A4.507,4.507,0,0,1,590.619,170.331Z" transform="translate(-590.619 -164.52)"/></g><g transform="translate(8.974 9.938)"><path class="e" d="M582.482,159.86c-.071.168-.678.049-1.4.1-.725.03-1.319.212-1.4.052-.038-.077.073-.233.318-.385a2.375,2.375,0,0,1,2.139-.112C582.389,159.637,582.513,159.78,582.482,159.86Z" transform="translate(-579.667 -159.308)"/></g><g transform="translate(16.213 10.542)"><path class="e" d="M597.911,161.169c-.078.138-.67-.007-1.385-.021s-1.309.085-1.385-.058c-.034-.068.082-.192.33-.3a2.5,2.5,0,0,1,1.056-.187,2.577,2.577,0,0,1,1.054.247C597.829,160.972,597.945,161.1,597.911,161.169Z" transform="translate(-595.135 -160.599)"/></g><g transform="translate(1.243 14.595)"><path class="p" d="M566.294,169.469c-.075-.038-3.051-1.11-3.142,1.988s3.038,2.551,3.046,2.462S566.294,169.469,566.294,169.469Z" transform="translate(-563.15 -169.259)"/></g><g transform="translate(2.029 15.585)"><path class="q" d="M566.18,173.842c-.014-.01-.055.036-.148.075a.541.541,0,0,1-.4,0,1.338,1.338,0,0,1-.583-1.216,1.788,1.788,0,0,1,.174-.768.625.625,0,0,1,.418-.4.276.276,0,0,1,.315.157c.039.088.017.149.034.155s.068-.05.047-.179a.349.349,0,0,0-.116-.2.411.411,0,0,0-.3-.088.759.759,0,0,0-.578.464,1.833,1.833,0,0,0-.212.858,1.4,1.4,0,0,0,.748,1.361.578.578,0,0,0,.5-.068C566.172,173.917,566.191,173.848,566.18,173.842Z" transform="translate(-564.83 -171.374)"/></g><path class="e" d="M560.705,147.914a15.166,15.166,0,0,0,1.106-3.627A4.1,4.1,0,0,1,564,141.353l.027.011a3.259,3.259,0,0,1,3.28.27,4.236,4.236,0,0,1,3.162-3.333,10.484,10.484,0,0,1,5.6.375,11.512,11.512,0,0,1,3.693,2.8,15.189,15.189,0,0,1,1.6,1.9l1.415,4.2-1.144,2.225c-.068.152-.139.3-.225.453v-.01l-1,4.674c-.081-1.27-.04-5.693-.122-6.964a7.089,7.089,0,0,1-5.079-2.275,8.315,8.315,0,0,0-2.195-2.167c-1.2-.579-2.627-.131-3.883.322l.053-.049a5.661,5.661,0,0,0-1.734,1.283,17.633,17.633,0,0,1-.677,7.468c-.115.362-.429,1.108-.781,1.249-.693.277-.888-.429-1.311-.8a1.841,1.841,0,0,0-1.268-.3,27.668,27.668,0,0,1-.887-3.2,2.824,2.824,0,0,1-1.3.1l.389-.962a1.48,1.48,0,0,1-.554.258.5.5,0,0,1-.53-.224C560.416,148.419,560.573,148.143,560.705,147.914Z" transform="translate(-560.494 -138.075)"/><g transform="translate(1.703 4.061)"><path class="m" d="M570.675,146.752a3.9,3.9,0,0,0-.448.42,3.243,3.243,0,0,0-.676,1.507,5.706,5.706,0,0,0-.1,1.149c0,.416.042.861.079,1.33a11.817,11.817,0,0,1,.051,1.481,5.127,5.127,0,0,1-.093.783,1.628,1.628,0,0,1-.31.761.681.681,0,0,1-.635.222,1.016,1.016,0,0,1-.577-.317,2.338,2.338,0,0,1-.448-1.143l.095.01a3.77,3.77,0,0,1-.538.952,1.345,1.345,0,0,1-.873.489.872.872,0,0,1-.467-.076.757.757,0,0,1-.32-.308.776.776,0,0,1-.1-.4.561.561,0,0,1,.141-.353l.048.043a2.911,2.911,0,0,1-.962.739,2.693,2.693,0,0,1-.3.12.49.49,0,0,1-.108.028.612.612,0,0,1,.1-.044c.067-.028.166-.07.29-.134a3.011,3.011,0,0,0,.928-.749l.048.042a.579.579,0,0,0-.022.671.679.679,0,0,0,.289.273.787.787,0,0,0,.423.064,1.26,1.26,0,0,0,.811-.464,3.744,3.744,0,0,0,.519-.932l.063-.146.031.156a2.264,2.264,0,0,0,.427,1.092.914.914,0,0,0,.517.284.575.575,0,0,0,.54-.188,1.538,1.538,0,0,0,.286-.713,5.146,5.146,0,0,0,.093-.766,12.159,12.159,0,0,0-.045-1.469c-.035-.469-.07-.916-.069-1.337a5.636,5.636,0,0,1,.117-1.164,3.2,3.2,0,0,1,.718-1.52A1.842,1.842,0,0,1,570.675,146.752Z" transform="translate(-564.132 -146.752)"/></g><g transform="translate(8.395 1.496)"><path class="m" d="M592.3,148.069s-.011.012-.036.031l-.112.084a1.539,1.539,0,0,1-.19.125,2.493,2.493,0,0,1-.273.148,4,4,0,0,1-1.929.37,5.117,5.117,0,0,1-2.738-.975,8.864,8.864,0,0,1-2.373-2.672c-.335-.543-.609-1.1-.91-1.615a5.981,5.981,0,0,0-1.025-1.363,3.083,3.083,0,0,0-1.31-.775,2.208,2.208,0,0,0-.688-.071,2.437,2.437,0,0,0-.627.128,2.617,2.617,0,0,0-1.437,1.245,3.1,3.1,0,0,0-.225.68.149.149,0,0,1,0-.047l.02-.139a2.273,2.273,0,0,1,.165-.512,2.559,2.559,0,0,1,.5-.691,2.641,2.641,0,0,1,.951-.606,2.511,2.511,0,0,1,.647-.139,2.292,2.292,0,0,1,.715.068,3.161,3.161,0,0,1,1.355.789,6.04,6.04,0,0,1,1.047,1.382c.3.518.579,1.074.911,1.612a8.877,8.877,0,0,0,2.339,2.648,5.088,5.088,0,0,0,2.685.98,4.063,4.063,0,0,0,1.908-.333A6.267,6.267,0,0,0,592.3,148.069Z" transform="translate(-578.431 -141.271)"/></g><g transform="translate(16.265 12.37)"><path class="e" d="M598.024,165.288c-.089.093-.615-.321-1.372-.333s-1.317.366-1.4.27c-.04-.043.051-.211.3-.387a1.892,1.892,0,0,1,1.121-.332,1.825,1.825,0,0,1,1.09.382C597.991,165.076,598.068,165.247,598.024,165.288Z" transform="translate(-595.246 -164.506)"/></g><g transform="translate(17.136 14.465)"><path class="e" d="M598.332,169.571a.612.612,0,0,1-.627.58.586.586,0,0,1-.6-.59.613.613,0,0,1,.626-.581A.586.586,0,0,1,598.332,169.571Z" transform="translate(-597.109 -168.981)"/></g><g transform="translate(19.872 4.78)"><path class="e" d="M603.575,148.289a1.935,1.935,0,0,0,1.608.9,4.779,4.779,0,0,0,.674-.2c.221.134.168.892.015,1.1a4.029,4.029,0,0,1-.475.491,2.5,2.5,0,0,0,2.21-.085,3.884,3.884,0,0,1-2.309,3.111,1.363,1.363,0,0,1-1.247.023,1.568,1.568,0,0,1-.547-.973,17.019,17.019,0,0,1-.551-4.153Z" transform="translate(-602.954 -148.289)"/></g><g transform="translate(11.824 18.802)"><path class="e" d="M588.04,179.577c.013.036-.137.137-.418.178a1.689,1.689,0,0,1-1.789-1.054c-.1-.266-.085-.445-.046-.452.082-.028.262.635.917,1.019A3.624,3.624,0,0,0,588.04,179.577Z" transform="translate(-585.757 -178.249)"/></g></g><g transform="translate(5.078 27.789)"><g transform="translate(29.833 17.365)"><path class="p" d="M607.97,234.553l1.036,9.751,14.434,3.728s.426,5.083,0,5.2-17.973.284-19.545-2.148-.2.444-.391,0-2.87-14.9-2.87-14.9Z" transform="translate(-600.634 -234.553)"/><g transform="translate(18.447 11.924)"><path class="p" d="M640.05,266.29s3.988.472,4.92.5a22.439,22.439,0,0,0,3.568-.64s4.305.825,4.527.6.515-.486.25-.676-3.552-1.261-3.552-1.261l2.25-.031a29.827,29.827,0,0,0,3.477.807c.247-.088.584-.482.4-.8l-.187-.323a.7.7,0,0,0-.29-.883l-.3-.123.087-.271a1.083,1.083,0,0,0-.485-1.077c-.629-.446-1.951-1.428-1.951-1.428l-4.144-.642-7.959,1.184" transform="translate(-640.05 -260.031)"/></g><g transform="translate(19.067 13.828)"><path class="q" d="M641.374,266.992a5.137,5.137,0,0,0,.483.415,2.9,2.9,0,0,0,1.625.465,6.261,6.261,0,0,0,2.462-.648,9.032,9.032,0,0,1,3.068-.954c.293-.019.583.033.818-.013a.412.412,0,0,0,.38-.416c-.029-.171-.306-.226-.554-.284l-.731-.18-2.527-.633-1.7-.447a3.293,3.293,0,0,1-.615-.2,3.289,3.289,0,0,1,.637.1l1.717.372,2.539.582.733.172a3.169,3.169,0,0,1,.392.106.515.515,0,0,1,.341.353.643.643,0,0,1-.566.706,7.306,7.306,0,0,1-.854.018,9.175,9.175,0,0,0-2.992.918,6.2,6.2,0,0,1-2.552.614,2.856,2.856,0,0,1-1.678-.561,1.869,1.869,0,0,1-.342-.344C641.4,267.047,641.367,267,641.374,266.992Z" transform="translate(-641.373 -264.098)"/></g><g transform="translate(26.548 13.864)"><path class="q" d="M657.358,264.4c.007-.074,1.571.114,3.48-.118.237-.027.468-.061.69-.095l.055-.008.041.034a8.583,8.583,0,0,0,2.424,1.3,2.01,2.01,0,0,1-.8-.148,5.517,5.517,0,0,1-1.781-.962l.1.025c-.226.037-.46.074-.7.1a12.523,12.523,0,0,1-2.491.048A3.381,3.381,0,0,1,657.358,264.4Z" transform="translate(-657.358 -264.175)"/></g><g transform="translate(30.351 15.423)"><path class="q" d="M665.484,267.515c.031-.066.839.279,1.888.5s1.926.251,1.927.324a5.846,5.846,0,0,1-3.815-.827Z" transform="translate(-665.483 -267.506)"/></g></g><g transform="translate(3.923)"><path class="r" d="M575.487,249.848s-1.1-29.864-1.656-35.045-1.9-14.5-1.9-14.5l-4.673-1.731.017.043c.052.578.017,2.9-1.774,3.249-4.8.925-9.065-4.415-9.065-4.415l-9.423,4.688,1.055,27.1-2.791,19.141Z" transform="translate(-545.274 -197.45)"/></g><g transform="translate(0.515 13.341)"><path class="p" d="M565.689,243.193l-18.74-2.023,1.978-12.427-6.76-2.787h-2.42s-1.354,13.638-1.669,16.178c-.334,2.691.01,7.149,5.773,7.405,2.825.126,21.406-1.247,21.406-1.247Z" transform="translate(-537.99 -225.955)"/></g><g transform="translate(0 4.323)"><path class="r" d="M546.52,207.633c4.016,2.353,2.576,16.425,2.576,16.425l-12.206-.384,1.583-11.167a8.253,8.253,0,0,1,2.571-4.4,5.3,5.3,0,0,1,2.619-1.383A3.3,3.3,0,0,1,546.52,207.633Z" transform="translate(-536.891 -206.686)"/></g><g transform="translate(30.527 2.835)"><path class="r" d="M606.7,207.539a8.133,8.133,0,0,0-4.587-4.031l1.3,17.79,6.486-.483S608.325,211.315,606.7,207.539Z" transform="translate(-602.117 -203.508)"/></g><g transform="translate(32.252 8.74)"><path class="e" d="M605.82,216.125c.067,0,.306,3.662.534,8.187s.358,8.2.291,8.2-.307-3.662-.534-8.187S605.752,216.128,605.82,216.125Z" transform="translate(-605.802 -216.125)"/></g><g transform="translate(26.19 29.193)"><g transform="translate(0 0.096)"><path class="p" d="M592.851,266.29s3.988.472,4.92.5a22.448,22.448,0,0,0,3.568-.64s4.305.825,4.527.6.515-.486.25-.676-3.551-1.261-3.551-1.261l2.25-.031a29.827,29.827,0,0,0,3.477.807c.247-.088.584-.482.4-.8l-.187-.323a.7.7,0,0,0-.29-.883l-.3-.123.086-.271a1.082,1.082,0,0,0-.485-1.077c-.629-.446-1.95-1.428-1.95-1.428l-4.144-.642-7.959,1.184" transform="translate(-592.851 -260.031)"/></g><path class="q" d="M593.454,261.105a.574.574,0,0,1,.14-.035l.414-.075,1.59-.263,5.8-.905.014,0,.015,0,4.146.627.026,0,.023.017,1.442,1.051a6.6,6.6,0,0,1,.751.586,1.178,1.178,0,0,1,.292.982v0l0,.007c-.026.084-.056.177-.086.271l-.068-.146.3.122,0,0,.006,0a.733.733,0,0,1,.377.44.956.956,0,0,1-.03.594l-.008-.1c.076.14.148.235.229.414a.622.622,0,0,1-.088.537.892.892,0,0,1-.4.345.47.47,0,0,1-.165.015l-.125-.013-.234-.04c-.616-.122-1.225-.28-1.843-.439l-1.2-.321.034,0-2.25.03.036-.234c.814.268,1.609.535,2.381.807.389.142.758.262,1.147.445a.414.414,0,0,1,.15.126.306.306,0,0,1,.051.225.663.663,0,0,1-.173.308c-.069.079-.14.148-.207.216a.329.329,0,0,1-.208.073c-.055.005-.1,0-.156,0a20.273,20.273,0,0,1-2.232-.284q-1.064-.178-2.034-.368h.042a20.733,20.733,0,0,1-3.5.622c-1.061-.049-1.956-.177-2.7-.257l-1.71-.218-.446-.066a.6.6,0,0,1-.151-.033.638.638,0,0,1,.154,0l.45.038,1.716.165c.739.063,1.651.177,2.685.211a21.277,21.277,0,0,0,3.458-.654l.022-.005.021,0c.645.119,1.324.238,2.031.351a20.507,20.507,0,0,0,2.2.268c.045,0,.093,0,.133,0s.088-.021.066-.006c.069-.071.137-.138.2-.207a.476.476,0,0,0,.119-.2c.008-.04-.014-.075-.091-.116-.331-.154-.731-.287-1.109-.423-.769-.269-1.565-.533-2.378-.8l-.686-.224.721-.011,2.25-.032h.017l.017,0,1.194.32c.615.158,1.225.317,1.827.437l.223.038a1,1,0,0,0,.169.012.661.661,0,0,0,.283-.249.384.384,0,0,0,.064-.328c-.042-.1-.141-.251-.209-.373l-.028-.05.02-.056a.731.731,0,0,0,.024-.436.491.491,0,0,0-.257-.3l.01,0-.3-.123-.1-.042.033-.1.087-.271,0,.01a.953.953,0,0,0-.236-.776,6.806,6.806,0,0,0-.71-.555l-1.44-1.06.049.021-4.141-.657h.028l-5.812.823-1.6.212-.418.048A.537.537,0,0,1,593.454,261.105Z" transform="translate(-592.851 -259.825)"/><g transform="translate(9.204 2.801)"><path class="q" d="M612.517,265.815a2.706,2.706,0,0,0,.994.231,10.232,10.232,0,0,1,2.385.359,12.5,12.5,0,0,1,1.194.6,9.255,9.255,0,0,0,1.015.444,3.481,3.481,0,0,0,.984.264c.008-.029-.36-.148-.932-.394-.286-.123-.622-.28-.983-.475a10.386,10.386,0,0,0-1.209-.619,4.8,4.8,0,0,0-1.344-.261c-.417-.028-.789-.034-1.1-.053C612.9,265.877,612.525,265.785,612.517,265.815Z" transform="translate(-612.517 -265.809)"/></g><g transform="translate(9.641 1.651)"><path class="q" d="M613.45,263.359a2.15,2.15,0,0,0,.892.173,4.806,4.806,0,0,1,2.081.406c.757.374,1.441.733,1.944.971a4.123,4.123,0,0,0,.832.356,4.11,4.11,0,0,0-.767-.479c-.489-.27-1.158-.647-1.925-1.026a3.325,3.325,0,0,0-1.175-.339c-.375-.035-.707-.024-.985-.027C613.792,263.4,613.457,263.331,613.45,263.359Z" transform="translate(-613.45 -263.352)"/></g></g><g transform="translate(0.796 11.644)"><path class="e" d="M538.592,232.021a.756.756,0,0,1,.219-.018l.627,0,2.3.034c1.944.039,4.63.109,7.595.2l.672.022-.125.126c-.072-2.267-.138-4.34-.191-6.005v.01c-.137-1.247-.185-2.258-.239-2.962-.022-.326-.04-.594-.055-.812a1.257,1.257,0,0,1-.008-.286.984.984,0,0,1,.063.28c.03.184.066.457.106.808.086.7.163,1.718.32,2.944v.01c.067,1.665.152,3.737.243,6l.005.13-.13,0-.671-.021c-2.965-.093-5.65-.191-7.592-.275l-2.3-.111-.625-.043A.736.736,0,0,1,538.592,232.021Z" transform="translate(-538.592 -222.33)"/></g></g><g transform="translate(0 63.289)"><g transform="translate(58.539 48.03)"><rect class="c" width="3.714" height="44.768"/></g><g transform="translate(53.885 40.204)"><rect class="c" width="1.617" height="3.031"/><g transform="translate(1.49 0.912)"><rect class="c" width="1.852" height="1.256"/></g></g><g transform="translate(56.73 4.238)"><g transform="translate(0.122 0.122)"><rect class="c" width="7.088" height="43.67"/></g><path class="e" d="M654.464,326.149s-.006-.079-.008-.227,0-.372-.008-.652c0-.58-.009-1.419-.016-2.5-.008-2.177-.02-5.321-.035-9.234-.013-7.827-.032-18.725-.053-31.058l.121.12h-7.088l.122-.122c-.026,18.7-.048,35.021-.06,43.67l-.061-.061,5.24.035,1.372.014.353.007a1.115,1.115,0,0,1,.123.006.642.642,0,0,1-.111.006l-.342.007-1.358.014-5.276.035h-.061v-.062c-.012-8.649-.035-24.975-.061-43.67v-.122h7.331v.121c-.021,12.366-.04,23.3-.053,31.144-.015,3.9-.027,7.037-.036,9.206-.007,1.068-.013,1.9-.016,2.473,0,.273-.006.484-.008.637S654.464,326.149,654.464,326.149Z" transform="translate(-647.254 -282.357)"/></g><g transform="translate(46.436 91.95)"><rect class="c" width="27.79" height="1.99"/></g><g transform="translate(0.122 0.122)"><rect class="m" width="94.808" height="4.238"/></g><path class="e" d="M620.971,277.662s0-.087-.006-.259,0-.433-.008-.779c0-.7-.01-1.754-.019-3.2l.033.033-94.8.088h0l.122-.122v4.237l-.122-.122,67.156.051,20.231.037,5.495.017,1.432.008c.323,0,.493.009.493.009s-.159.006-.476.008l-1.415.008-5.467.017-20.2.037-67.246.051h-.122V273.3h.127l94.8.088H621v.034c-.008,1.454-.015,2.515-.019,3.219,0,.343-.006.6-.008.771S620.971,277.662,620.971,277.662Z" transform="translate(-526.041 -273.302)"/></g><g transform="translate(30.705 38.741)"><g transform="translate(0.056 0.045)"><path class="c" d="M637.953,220.948H611.709a1.7,1.7,0,0,0-1.831,1.386l-3.5,21.434H592.572a.876.876,0,0,0,0,1.747h44.106l3.014-22.373A1.864,1.864,0,0,0,637.953,220.948Z" transform="translate(-591.767 -220.948)"/></g><path class="e" d="M637.889,220.9a2.226,2.226,0,0,1,.451.073,1.76,1.76,0,0,1,1.018.816,1.977,1.977,0,0,1,.271.933,3.021,3.021,0,0,1-.044.565l-.085.615c-.117.854-.251,1.837-.4,2.943-.6,4.425-1.466,10.8-2.528,18.616l.044-.039-42.642-.013h-1.459a.705.705,0,0,1-.262-.051.765.765,0,0,1-.39-.358.872.872,0,0,1,.139-1.006.706.706,0,0,1,.474-.217l.572,0h13.318l.008-.046,3.242-19.921q.091-.564.182-1.121c.031-.184.058-.373.094-.549a1.475,1.475,0,0,1,.219-.49,1.606,1.606,0,0,1,.862-.6,2.3,2.3,0,0,1,.523-.1c.176-.008.359,0,.537-.005l4.157,0,7.39-.007,10.522-.016,2.816-.009.727,0c.163,0,.247-.005.247-.005s-.083,0-.247,0l-.727,0-2.816-.009-10.522-.016-7.39-.007-4.157,0c-.18,0-.358,0-.543,0a2.391,2.391,0,0,0-.545.1,1.693,1.693,0,0,0-.91.637,1.571,1.571,0,0,0-.234.52c-.039.19-.064.371-.1.557q-.091.556-.184,1.12c-.984,6.019-2.081,12.728-3.256,19.918l.054-.046-8.725,0h-4.545l-.578,0a.819.819,0,0,0-.55.25.985.985,0,0,0-.159,1.139.881.881,0,0,0,.448.41.829.829,0,0,0,.3.059h1.459l42.642-.013h.039l.005-.038c1.045-7.817,1.9-14.2,2.489-18.622.146-1.106.277-2.09.391-2.944l.082-.615a3.069,3.069,0,0,0,.041-.572,2,2,0,0,0-.28-.945,1.765,1.765,0,0,0-1.037-.815A1.424,1.424,0,0,0,638,220.9C637.928,220.9,637.889,220.9,637.889,220.9Z" transform="translate(-591.647 -220.852)"/><g transform="translate(30.318 11.083)"><path class="d" d="M656.427,246.354a1.821,1.821,0,1,0,1.821-1.821A1.821,1.821,0,0,0,656.427,246.354Z" transform="translate(-656.427 -244.533)"/></g><g transform="translate(16.008 0.261)"><path class="e" d="M625.852,245.545c.041.007.967-5.391,2.067-12.055s1.96-12.074,1.919-12.081-.966,5.39-2.068,12.056S625.811,245.538,625.852,245.545Z" transform="translate(-625.851 -221.41)"/></g></g></g><g transform="translate(20.423 108.043)"><g transform="translate(43.85)"><g transform="translate(13.75 11.626)"><path class="e" d="M153.458,224.24l-6.064,4.487,1.873,5.426A13.13,13.13,0,0,0,153.458,224.24Z" transform="translate(-147.394 -224.24)"/></g><g transform="translate(2.674)"><path class="e" d="M126.747,200.232a7.954,7.954,0,0,1,5.347-.645,16.847,16.847,0,0,1,5.057,2.091,8.248,8.248,0,0,1,2.417,1.886A11.734,11.734,0,0,1,142,209.316,20.724,20.724,0,0,1,140.873,216c-.587,1.263-3.337,2.224-4.694,2.535l-12.451-14.481A6.3,6.3,0,0,1,126.747,200.232Z" transform="translate(-123.728 -199.398)"/></g><g transform="translate(0 2.253)"><path class="e" d="M121.561,204.746l2.985-.534c-1.632,3.885-2.074,12.772-3.007,16.881-1.1-1.6-3.655-6.459-3.519-8.393S118.015,204.416,121.561,204.746Z" transform="translate(-118.015 -204.212)"/></g><g transform="translate(1.631 2.786)"><path class="p" d="M137.567,211.82a5.1,5.1,0,0,0-3.835-4.695l-6.874-1.754c-2.971-.321-4.954,3.334-5.149,6.315a47.223,47.223,0,0,0,.038,9.281c.778,4.973,4.587,5.613,4.587,5.613s0,2.365,0,3.817l2.3,9.523,7.668-8.274,1.279-19.766C137.586,211.8,137.575,211.933,137.567,211.82Z" transform="translate(-121.5 -205.352)"/></g><g transform="translate(3.333 12.302)"><path class="e" d="M125.137,226.259a.638.638,0,0,0,.613.644.61.61,0,0,0,.658-.573.637.637,0,0,0-.613-.644A.61.61,0,0,0,125.137,226.259Z" transform="translate(-125.136 -225.685)"/></g><g transform="translate(2.576 10.402)"><path class="e" d="M123.529,222.29c.079.083.563-.273,1.249-.27s1.188.348,1.263.264c.036-.037-.044-.187-.263-.347a1.747,1.747,0,0,0-1.01-.314,1.68,1.68,0,0,0-.994.318C123.562,222.1,123.49,222.253,123.529,222.29Z" transform="translate(-123.519 -221.623)"/></g><g transform="translate(9.313 12.302)"><path class="e" d="M137.913,226.259a.637.637,0,0,0,.613.644.61.61,0,0,0,.658-.573.637.637,0,0,0-.613-.644A.609.609,0,0,0,137.913,226.259Z" transform="translate(-137.913 -225.685)"/></g><g transform="translate(9.091 10.402)"><path class="e" d="M137.449,222.29c.079.083.563-.273,1.249-.27s1.188.347,1.262.263c.037-.037-.043-.187-.263-.347a1.747,1.747,0,0,0-1.01-.314,1.681,1.681,0,0,0-.994.318C137.482,222.1,137.41,222.253,137.449,222.29Z" transform="translate(-137.439 -221.623)"/></g><g transform="translate(5.209 10.741)"><path class="e" d="M130.892,228.064a4.562,4.562,0,0,0-1.114-.2c-.175-.019-.341-.054-.37-.173a.892.892,0,0,1,.118-.519l.521-1.333a22.889,22.889,0,0,0,1.171-3.486,22.956,22.956,0,0,0-1.449,3.384q-.261.7-.5,1.341a1.012,1.012,0,0,0-.093.687.44.44,0,0,0,.287.256,1.2,1.2,0,0,0,.3.042A4.442,4.442,0,0,0,130.892,228.064Z" transform="translate(-129.146 -222.349)"/></g><g transform="translate(6.464 22.247)"><path class="q" d="M138.42,246.933s-1.617,3.414-6.592,2.938V248.7A12.522,12.522,0,0,0,138.42,246.933Z" transform="translate(-131.827 -246.933)"/></g><g transform="translate(9.313 8.078)"><path class="e" d="M137.916,217.171c.067.187.753.1,1.557.2.807.082,1.456.32,1.563.153.048-.08-.065-.256-.327-.437a2.728,2.728,0,0,0-2.376-.268C138.036,216.936,137.888,217.082,137.916,217.171Z" transform="translate(-137.913 -216.659)"/></g><g transform="translate(2.792 8.263)"><path class="e" d="M124,217.76c.121.156.593,0,1.162-.011.568-.026,1.049.107,1.161-.056.049-.079-.027-.235-.237-.383a1.681,1.681,0,0,0-1.871.054C124.012,217.524,123.945,217.685,124,217.76Z" transform="translate(-123.981 -217.053)"/></g><g transform="translate(3.101 0.861)"><path class="e" d="M124.729,204.958a2.187,2.187,0,0,1,1.931-1.238,4.242,4.242,0,0,1,2.293.669c2.961,1.711,4.482,5.844,7.407,7.614.719.436,1.656.037,2.268.614a2.11,2.11,0,0,1,.67,2.269,6.966,6.966,0,0,0,1.015-1.717,2.349,2.349,0,0,0-.082-1.938c-.253-.439-.7-.773-.823-1.265a6.68,6.68,0,0,1,.044-1.329A2.9,2.9,0,0,0,139,207.37a12.9,12.9,0,0,0-4.752-5,8.409,8.409,0,0,0-4.362-1.128,6.432,6.432,0,0,0-4.15,1.647c-.654.61-1.342,1.241-1,2.069" transform="translate(-124.64 -201.238)"/></g><g transform="translate(17.017 12.589)"><path class="p" d="M154.375,226.563a1.734,1.734,0,0,1,2.68,1.678,2.012,2.012,0,0,1-2.674,2.074C154.375,230.238,154.375,226.563,154.375,226.563Z" transform="translate(-154.375 -226.296)"/><g transform="translate(0.82 0.874)"><path class="q" d="M156.129,230.286c.012-.008.047.032.126.067a.466.466,0,0,0,.349,0,1.155,1.155,0,0,0,.524-1.04,1.542,1.542,0,0,0-.137-.667.539.539,0,0,0-.354-.355.237.237,0,0,0-.274.131c-.035.075-.018.128-.032.133s-.058-.044-.037-.155a.3.3,0,0,1,.1-.168.351.351,0,0,1,.257-.071.655.655,0,0,1,.491.41,1.586,1.586,0,0,1,.168.745,1.212,1.212,0,0,1-.669,1.163.5.5,0,0,1-.427-.067C156.135,230.35,156.121,230.291,156.129,230.286Z" transform="translate(-156.127 -228.163)"/></g></g><g transform="translate(3.676 2.457)"><path class="m" d="M140.275,213.671a1.023,1.023,0,0,1-.161-.09c-.1-.065-.261-.152-.449-.285a9.221,9.221,0,0,1-1.445-1.316,25.676,25.676,0,0,1-1.768-2.3,21.082,21.082,0,0,0-2.21-2.751,8.424,8.424,0,0,0-1.426-1.127,6.936,6.936,0,0,0-1.54-.7,7.618,7.618,0,0,0-2.836-.348,7.314,7.314,0,0,0-1.9.372c-.22.067-.383.141-.5.184a.98.98,0,0,1-.175.062,1.109,1.109,0,0,1,.165-.084,4.528,4.528,0,0,1,.49-.206,6.951,6.951,0,0,1,1.91-.414,7.576,7.576,0,0,1,2.876.327,7,7,0,0,1,1.568.7,8.464,8.464,0,0,1,1.449,1.142,20.479,20.479,0,0,1,2.216,2.773,27.537,27.537,0,0,0,1.741,2.3,9.927,9.927,0,0,0,1.409,1.335c.183.139.336.231.434.3A1.084,1.084,0,0,1,140.275,213.671Z" transform="translate(-125.869 -204.648)"/></g><g transform="translate(17.668 16.029)"><g transform="translate(0.048 0.022)"><path class="d" d="M156.3,233.7a.528.528,0,1,1-.125.04" transform="translate(-155.869 -233.693)"/></g><path class="e" d="M156.117,233.716a.718.718,0,0,0-.241.359.454.454,0,0,0,.1.42.468.468,0,0,0,.823-.262.455.455,0,0,0-.158-.4.722.722,0,0,0-.4-.154c0-.007.041-.028.125-.029a.546.546,0,0,1,.334.117.535.535,0,0,1,.215.483.575.575,0,0,1-1.019.325.535.535,0,0,1-.1-.518.545.545,0,0,1,.2-.289C156.068,233.717,156.114,233.71,156.117,233.716Z" transform="translate(-155.766 -233.647)"/></g><g transform="translate(13.92 8.435)"><path class="e" d="M151.247,221.224a4.125,4.125,0,0,1-.262,2.153,1.421,1.421,0,0,1-1.826.728,2.022,2.022,0,0,1-.762-1.551c-.254-1.705-.37-3.429-.639-5.132Z" transform="translate(-147.758 -217.422)"/></g><g transform="translate(3.849 3.183)"><path class="m" d="M126.239,206.324c0,.015.237-.044.666-.058a4.584,4.584,0,0,1,1.772.323,5.834,5.834,0,0,1,1.11.572,12.02,12.02,0,0,1,1.145.874,13.765,13.765,0,0,1,2.242,2.417c.34.478.641.969.968,1.423a6.791,6.791,0,0,0,1.073,1.207,11.905,11.905,0,0,0,2.263,1.514c.685.362,1.258.616,1.653.791l.458.2a.087.087,0,1,0,.013-.028l-.446-.221c-.387-.191-.952-.459-1.626-.831a12.341,12.341,0,0,1-2.222-1.524,6.776,6.776,0,0,1-1.045-1.189c-.321-.45-.621-.942-.965-1.425a13.5,13.5,0,0,0-2.275-2.436,11.723,11.723,0,0,0-1.167-.873,5.8,5.8,0,0,0-1.141-.567,4.419,4.419,0,0,0-1.812-.282,3.108,3.108,0,0,0-.5.069A.747.747,0,0,0,126.239,206.324Z" transform="translate(-126.239 -206.199)"/></g><g transform="translate(17.483 7.148)"><path class="m" d="M155.37,218.108a1.215,1.215,0,0,0,.237.16l.678.4.228.131a.713.713,0,0,0,.293.1.28.28,0,0,0,.181-.043.233.233,0,0,0,.1-.176.6.6,0,0,0-.126-.339l-.787-1.26-.106.1a2.8,2.8,0,0,0,1.818.542.818.818,0,0,0,.243-.042.329.329,0,0,0,.208-.181.294.294,0,0,0-.045-.271,1.126,1.126,0,0,0-.153-.168,5.652,5.652,0,0,1-.912-1.15,9.632,9.632,0,0,1-.58-1.233,1.389,1.389,0,0,0,.085.36,4.986,4.986,0,0,0,.4.926,5.405,5.405,0,0,0,.907,1.2c.1.095.2.2.161.287s-.184.126-.325.127a2.7,2.7,0,0,1-1.723-.513l-.32-.234.213.333.8,1.25a.5.5,0,0,1,.114.261.127.127,0,0,1-.154.114,1.362,1.362,0,0,1-.481-.2l-.7-.359A1.177,1.177,0,0,0,155.37,218.108Z" transform="translate(-155.37 -214.672)"/></g><g transform="translate(7.809 17.038)"><path class="q" d="M136.457,236.486a.9.9,0,0,0-.925-.68.937.937,0,0,0-.72.512,1.151,1.151,0,0,0-.041.895l.015.065a1.019,1.019,0,0,0,1.147.244A.953.953,0,0,0,136.457,236.486Z" transform="translate(-134.7 -235.803)"/></g><g transform="translate(7.397 16.575)"><path class="e" d="M133.82,236.766c0-.1.693-.071,1.215-.64s.483-1.311.579-1.312c.044-.007.127.171.12.484a1.732,1.732,0,0,1-.445,1.1,1.506,1.506,0,0,1-1.017.492C133.981,236.9,133.813,236.813,133.82,236.766Z" transform="translate(-133.82 -234.814)"/></g></g><g transform="translate(40.404 26.345)"><path class="a" d="M110.923,301.04c.622-3.224,2.621-14.079,2.619-16.273a12.455,12.455,0,0,0-.666-1.837c-.583-1.959-2.615-9.167-2.159-12.966.365-3.036,2.934-6.924,3.7-9,.363-.977,3.249-1.984,4.212-2.385l2.046-2.89s-.444,1.343,1.363,2.549a5.493,5.493,0,0,0,3.3.874,8.4,8.4,0,0,0,6.021-2.962l.337.261a76.168,76.168,0,0,1,7.807,2.678c1.634.688-3.542,17.453-3.542,17.453s-3.058,11.32-1.41,14.828c.928,1.975,4.053,5.239,4.844,7.075a11.632,11.632,0,0,1,1.4,2.407c.027.483-8.137,4.019-14.581,4.376C114.294,305.888,110.923,301.04,110.923,301.04Z" transform="translate(-110.651 -255.689)"/></g><g transform="translate(39.691 87.991)"><g transform="translate(0 13.136)"><path class="e" d="M3.755,0H48.634A3.756,3.756,0,0,1,52.39,3.756V9.887a3.756,3.756,0,0,1-3.756,3.756H3.755A3.755,3.755,0,0,1,0,9.887V3.755A3.755,3.755,0,0,1,3.755,0Z"/><g transform="translate(23.58 3.256)"><rect class="d" width="23.23" height="7.703" rx="0.708"/></g><g transform="translate(8.688 3.851)"><circle class="e" cx="2.789" cy="2.789" r="2.789" transform="translate(0.468 0.468)"/><path class="c" d="M130.948,430.216a3.257,3.257,0,1,1,3.256-3.257A3.261,3.261,0,0,1,130.948,430.216Zm0-5.578a2.321,2.321,0,1,0,2.32,2.321A2.324,2.324,0,0,0,130.948,424.638Z" transform="translate(-127.691 -423.702)"/></g><g transform="translate(25.889 4.573)"><path class="c" d="M164.565,425.245a27.349,27.349,0,0,1,0,5.164,27.455,27.455,0,0,1,0-5.164Z" transform="translate(-164.443 -425.245)"/></g><g transform="translate(28.149 4.573)"><path class="c" d="M169.394,425.245a27.356,27.356,0,0,1,0,5.164,27.451,27.451,0,0,1,0-5.164Z" transform="translate(-169.272 -425.245)"/></g><g transform="translate(30.409 4.573)"><path class="c" d="M174.222,425.245a27.458,27.458,0,0,1,0,5.164,27.349,27.349,0,0,1,0-5.164Z" transform="translate(-174.1 -425.245)"/></g><g transform="translate(32.669 4.573)"><path class="c" d="M179.051,425.245a27.462,27.462,0,0,1,0,5.164,27.349,27.349,0,0,1,0-5.164Z" transform="translate(-178.929 -425.245)"/></g><g transform="translate(34.929 4.573)"><path class="c" d="M183.88,425.245a27.352,27.352,0,0,1,0,5.164,27.455,27.455,0,0,1,0-5.164Z" transform="translate(-183.758 -425.245)"/></g><g transform="translate(37.189 4.573)"><path class="c" d="M188.709,425.245a27.458,27.458,0,0,1,0,5.164,27.458,27.458,0,0,1,0-5.164Z" transform="translate(-188.587 -425.245)"/></g><g transform="translate(39.448 4.573)"><path class="c" d="M193.537,425.245a27.455,27.455,0,0,1,0,5.164,27.352,27.352,0,0,1,0-5.164Z" transform="translate(-193.415 -425.245)"/></g><g transform="translate(41.708 4.573)"><path class="c" d="M198.366,425.245a27.462,27.462,0,0,1,0,5.164,27.349,27.349,0,0,1,0-5.164Z" transform="translate(-198.244 -425.245)"/></g><g transform="translate(43.969 4.573)"><path class="c" d="M203.195,425.245a27.345,27.345,0,0,1,0,5.164,27.458,27.458,0,0,1,0-5.164Z" transform="translate(-203.073 -425.245)"/></g></g><path class="m" d="M3.755,0H48.634A3.756,3.756,0,0,1,52.39,3.756V9.887a3.756,3.756,0,0,1-3.756,3.756H3.755A3.755,3.755,0,0,1,0,9.887V3.755A3.755,3.755,0,0,1,3.755,0Z"/><g transform="translate(23.58 3.256)"><rect class="d" width="23.23" height="7.703" rx="0.708"/></g><g transform="translate(8.688 3.851)"><circle class="e" cx="2.789" cy="2.789" r="2.789" transform="translate(0.468 0.468)"/><path class="c" d="M130.948,402.148a3.257,3.257,0,1,1,3.256-3.257A3.261,3.261,0,0,1,130.948,402.148Zm0-5.577a2.321,2.321,0,1,0,2.32,2.32A2.324,2.324,0,0,0,130.948,396.571Z" transform="translate(-127.691 -395.635)"/></g><g transform="translate(25.889 4.573)"><path class="c" d="M164.565,397.177a27.349,27.349,0,0,1,0,5.164,27.455,27.455,0,0,1,0-5.164Z" transform="translate(-164.443 -397.177)"/></g><g transform="translate(28.149 4.573)"><path class="c" d="M169.394,397.177a27.356,27.356,0,0,1,0,5.164,27.451,27.451,0,0,1,0-5.164Z" transform="translate(-169.272 -397.177)"/></g><g transform="translate(30.409 4.573)"><path class="c" d="M174.222,397.177a27.458,27.458,0,0,1,0,5.164,27.349,27.349,0,0,1,0-5.164Z" transform="translate(-174.1 -397.177)"/></g><g transform="translate(32.669 4.573)"><path class="c" d="M179.051,397.177a27.462,27.462,0,0,1,0,5.164,27.349,27.349,0,0,1,0-5.164Z" transform="translate(-178.929 -397.177)"/></g><g transform="translate(34.929 4.573)"><path class="c" d="M183.88,397.177a27.352,27.352,0,0,1,0,5.164,27.455,27.455,0,0,1,0-5.164Z" transform="translate(-183.758 -397.177)"/></g><g transform="translate(37.189 4.573)"><path class="c" d="M188.709,397.177a27.458,27.458,0,0,1,0,5.164,27.458,27.458,0,0,1,0-5.164Z" transform="translate(-188.587 -397.177)"/></g><g transform="translate(39.448 4.573)"><path class="c" d="M193.537,397.177a27.455,27.455,0,0,1,0,5.164,27.352,27.352,0,0,1,0-5.164Z" transform="translate(-193.415 -397.177)"/></g><g transform="translate(41.708 4.573)"><path class="c" d="M198.366,397.177a27.462,27.462,0,0,1,0,5.164,27.349,27.349,0,0,1,0-5.164Z" transform="translate(-198.244 -397.177)"/></g><g transform="translate(43.969 4.573)"><path class="c" d="M203.195,397.177a27.345,27.345,0,0,1,0,5.164,27.458,27.458,0,0,1,0-5.164Z" transform="translate(-203.073 -397.177)"/></g><g transform="translate(0 26.852)"><path class="l" d="M3.755,0H48.634A3.756,3.756,0,0,1,52.39,3.756V9.887a3.756,3.756,0,0,1-3.756,3.756H3.755A3.755,3.755,0,0,1,0,9.887V3.755A3.755,3.755,0,0,1,3.755,0Z"/><g transform="translate(23.58 3.256)"><rect class="d" width="23.23" height="7.703" rx="0.708"/></g><g transform="translate(8.688 3.851)"><path class="e" d="M134.268,456.8a2.789,2.789,0,1,0-2.788,2.788A2.789,2.789,0,0,0,134.268,456.8Z" transform="translate(-128.223 -453.54)"/><path class="a" d="M130.948,459.521a3.257,3.257,0,1,1,3.256-3.256A3.26,3.26,0,0,1,130.948,459.521Zm0-5.577a2.321,2.321,0,1,0,2.32,2.321A2.324,2.324,0,0,0,130.948,453.944Z" transform="translate(-127.691 -453.008)"/></g><g transform="translate(25.889 4.573)"><path class="c" d="M164.565,454.55a27.354,27.354,0,0,1,0,5.165,27.46,27.46,0,0,1,0-5.165Z" transform="translate(-164.443 -454.55)"/></g><g transform="translate(28.149 4.573)"><path class="c" d="M169.394,454.55a27.361,27.361,0,0,1,0,5.165,27.456,27.456,0,0,1,0-5.165Z" transform="translate(-169.272 -454.55)"/></g><g transform="translate(30.409 4.573)"><path class="c" d="M174.222,454.55a27.463,27.463,0,0,1,0,5.165,27.354,27.354,0,0,1,0-5.165Z" transform="translate(-174.1 -454.55)"/></g><g transform="translate(32.669 4.573)"><path class="c" d="M179.051,454.55a27.467,27.467,0,0,1,0,5.165,27.354,27.354,0,0,1,0-5.165Z" transform="translate(-178.929 -454.55)"/></g><g transform="translate(34.929 4.573)"><path class="c" d="M183.88,454.55a27.357,27.357,0,0,1,0,5.165,27.46,27.46,0,0,1,0-5.165Z" transform="translate(-183.758 -454.55)"/></g><g transform="translate(37.189 4.573)"><path class="c" d="M188.709,454.55a27.463,27.463,0,0,1,0,5.165,27.463,27.463,0,0,1,0-5.165Z" transform="translate(-188.587 -454.55)"/></g><g transform="translate(39.448 4.573)"><path class="c" d="M193.537,454.55a27.46,27.46,0,0,1,0,5.165,27.357,27.357,0,0,1,0-5.165Z" transform="translate(-193.415 -454.55)"/></g><g transform="translate(41.708 4.573)"><path class="c" d="M198.366,454.55a27.467,27.467,0,0,1,0,5.165,27.354,27.354,0,0,1,0-5.165Z" transform="translate(-198.244 -454.55)"/></g><g transform="translate(43.969 4.573)"><path class="c" d="M203.195,454.55a27.351,27.351,0,0,1,0,5.165,27.463,27.463,0,0,1,0-5.165Z" transform="translate(-203.073 -454.55)"/></g></g></g><g transform="translate(0 65.838)"><g transform="translate(0 35.126)"><g transform="translate(0.123)"><path class="m" d="M39.02,415.124l-3.88,8.375s-9.687-1.281-10.555.2l15.84,8.257,6.581-12.8Z" transform="translate(-24.584 -415.124)"/></g><g transform="translate(14.709 9.997)"><path class="c" d="M56.887,436.653a.737.737,0,0,1,.074.98.708.708,0,0,1-.971.081.776.776,0,0,1-.073-1.038.734.734,0,0,1,1.019.027" transform="translate(-55.75 -436.485)"/></g><g transform="translate(0 8.103)"><path class="e" d="M40.285,441.162l.524-1.02-15.535-7.7a1.362,1.362,0,0,0-.952.513Z" transform="translate(-24.321 -432.438)"/></g><g transform="translate(10.504 8.333)"><path class="e" d="M46.768,432.95c-.037.08.337.315.6.763s.3.883.384.889c.08.021.2-.507-.12-1.045S46.788,432.869,46.768,432.95Z" transform="translate(-46.765 -432.929)"/></g><g transform="translate(8.458 8.183)"><path class="e" d="M42.4,432.62c-.057.067.216.374.314.841s0,.858.077.894.355-.382.222-.961S42.441,432.546,42.4,432.62Z" transform="translate(-42.394 -432.608)"/></g><g transform="translate(6.462 8.065)"><path class="e" d="M38.149,434.019c.063.053.371-.284.388-.816s-.264-.89-.33-.841.044.394.024.831S38.075,433.972,38.149,434.019Z" transform="translate(-38.128 -432.357)"/></g><g transform="translate(11.611 6.463)"><path class="e" d="M49.129,429c0,.088.412.163.841.418s.7.571.779.525-.116-.5-.624-.79S49.122,428.919,49.129,429Z" transform="translate(-49.129 -428.933)"/></g><g transform="translate(12.219 4.159)"><path class="e" d="M50.434,424.464a1.7,1.7,0,0,0,.808.4,4.083,4.083,0,0,0,.974.169,4.293,4.293,0,0,0,.587-.011,1.092,1.092,0,0,0,.339-.066.384.384,0,0,0,.248-.4.482.482,0,0,0-.253-.354,1.18,1.18,0,0,0-.323-.112,3.293,3.293,0,0,0-.588-.082,3.206,3.206,0,0,0-.99.11c-.549.156-.825.385-.806.414s.329-.11.854-.2a3.608,3.608,0,0,1,.924-.04,3.4,3.4,0,0,1,.534.092c.193.042.339.114.344.212,0,.037,0,.049-.064.081a.908.908,0,0,1-.249.047,4.725,4.725,0,0,1-.549.028,5.015,5.015,0,0,1-.93-.1A6.26,6.26,0,0,0,50.434,424.464Z" transform="translate(-50.429 -424.011)"/></g></g><g transform="translate(20.797 48.406)"><g transform="translate(0.088)"><path class="m" d="M77.691,443.678l.49,9.217s-9.161,3.4-9.236,5.114l17.862-.117L86.634,443.5Z" transform="translate(-68.946 -443.499)"/></g><g transform="translate(13.859 8.532)"><path class="c" d="M99.239,461.756a.736.736,0,0,1,.524.832.708.708,0,0,1-.819.526.776.776,0,0,1-.55-.884.734.734,0,0,1,.913-.453" transform="translate(-98.37 -461.728)"/></g><g transform="translate(0 13.246)"><path class="e" d="M86.708,472.947l-.014-1.146-17.335.461a1.362,1.362,0,0,0-.6.9Z" transform="translate(-68.758 -471.801)"/></g><g transform="translate(9.162 9.371)"><path class="e" d="M88.334,463.608c0,.088.446.12.884.4s.675.642.755.606c.081-.019-.059-.543-.6-.867S88.314,463.527,88.334,463.608Z" transform="translate(-88.334 -463.521)"/></g><g transform="translate(7.284 10.235)"><path class="e" d="M84.321,465.4c-.019.086.366.229.671.6s.4.76.486.754c.083.012.135-.5-.253-.954S84.322,465.32,84.321,465.4Z" transform="translate(-84.321 -465.367)"/></g><g transform="translate(5.519 11.046)"><path class="e" d="M81.28,468.61c.08.017.2-.425-.039-.9s-.65-.663-.686-.589.223.328.41.723S81.192,468.6,81.28,468.61Z" transform="translate(-80.55 -467.101)"/></g><g transform="translate(9.281 6.998)"><path class="e" d="M88.592,458.782c.038.08.44-.049.938-.024s.889.175.934.1-.334-.384-.922-.405S88.548,458.714,88.592,458.782Z" transform="translate(-88.589 -458.45)"/></g><g transform="translate(8.929 3.855)"><path class="e" d="M87.836,453.229a1.7,1.7,0,0,0,.9-.02,4.066,4.066,0,0,0,.94-.307,4.263,4.263,0,0,0,.514-.284,1.117,1.117,0,0,0,.269-.217.384.384,0,0,0,.032-.469.484.484,0,0,0-.389-.195,1.177,1.177,0,0,0-.338.053,3.243,3.243,0,0,0-.558.2,3.2,3.2,0,0,0-.824.561c-.411.395-.549.726-.518.743s.239-.251.659-.578a3.6,3.6,0,0,1,.8-.468,3.4,3.4,0,0,1,.516-.169c.19-.053.353-.058.4.027.018.032.021.045-.018.1a.9.9,0,0,1-.2.158,4.729,4.729,0,0,1-.472.281,5,5,0,0,1-.868.35A6.226,6.226,0,0,0,87.836,453.229Z" transform="translate(-87.836 -451.737)"/></g></g><g transform="translate(12.22)"><path class="k" d="M108.691,344.4s-36.576-4.331-38.684-4.332c-4.952,0-7.273,3.624-8.012,6.536-.547,2.154-11.564,33.276-11.564,33.276l8.128,4.213L70.51,362.86l6.091-10.6,31.391,4.851Z" transform="translate(-50.431 -340.072)"/><g transform="translate(16.028 10.36)"><path class="k" d="M93.341,363.06s-4.9,0-7.553,3.924c-1.557,2.307-1.01,6.428-1.041,9.54-.043,4.236.981,30.043.981,30.043l10.033.168,2.1-26.9-.124-4.971,20.032-1.629a11.855,11.855,0,0,0-2.662-10.864C114.531,361.757,93.341,363.06,93.341,363.06Z" transform="translate(-84.678 -362.208)"/></g><g transform="translate(41.93 3.624)"><path class="k" d="M156.339,349.023s3.125,7.215-1.093,13.385c-2.786,4.074-8.129,3.141-8.129,3.141l-7.1-8.886,5.662-8.848Z" transform="translate(-140.021 -347.815)"/></g></g><g transform="translate(29.298 21.138)"><path class="m" d="M86.92,418.817a.875.875,0,0,1,.177-.01l.52,0,2,.009,7.339.083-.091.083c.389-5.4.912-12.665,1.486-20.643.192-2.6.379-5.12.556-7.519v.012q-.046-1.91-.088-3.708l0-.108.107-.008c5.693-.459,10.547-.869,13.975-1.181,1.714-.156,3.073-.285,4-.39.465-.046.819-.1,1.061-.128.234-.044.358-.073.362-.066a2.965,2.965,0,0,1-.355.1c-.24.039-.594.107-1.058.164-.926.128-2.283.279-4,.455-3.426.352-8.278.792-13.97,1.269l.1-.116q.047,1.8.1,3.708v.012c-.175,2.4-.359,4.922-.549,7.519-.6,7.975-1.144,15.239-1.55,20.639l-.006.085-.085,0-7.338-.162-2-.058-.52-.022A.92.92,0,0,1,86.92,418.817Z" transform="translate(-86.92 -385.237)"/></g><g transform="translate(28.406 10.889)"><path class="m" d="M117.856,373.807a.868.868,0,0,0-.133-.07l-.4-.186-1.544-.7-5.692-2.536-8.453-3.738-4.994-2.2c-.438-.184-.858-.4-1.324-.557a8.326,8.326,0,0,0-1.425-.364,10.789,10.789,0,0,0-2.991-.026,9.487,9.487,0,0,0-2.879.817,5.139,5.139,0,0,0-1.237.809,4.64,4.64,0,0,0-.908,1.137,6.463,6.463,0,0,0-.838,2.679c-.039.466-.012.913-.013,1.359s.009.886.014,1.321c.04,3.476.075,6.608.105,9.242s.068,4.749.089,6.231c.015.727.026,1.3.034,1.694l.014.44a.793.793,0,0,0,.012.15.843.843,0,0,0,.009-.15c0-.109,0-.255.006-.44,0-.4,0-.967,0-1.694-.006-1.483-.015-3.608-.025-6.231s-.039-5.765-.062-9.242q-.006-.652-.01-1.32c0-.445-.023-.9.015-1.342a6.27,6.27,0,0,1,.816-2.6,4.458,4.458,0,0,1,.872-1.09,4.926,4.926,0,0,1,1.191-.776,9.317,9.317,0,0,1,2.818-.8,10.623,10.623,0,0,1,2.934.024,8.132,8.132,0,0,1,1.39.354c.447.151.88.369,1.314.551l5,2.19,8.469,3.7,5.717,2.478,1.559.664.408.168A.811.811,0,0,0,117.856,373.807Z" transform="translate(-85.016 -363.338)"/></g></g><g transform="translate(32.044 24.869)"><g transform="translate(10.474 11.694)"><path class="e" d="M115.8,292.143a3.34,3.34,0,0,0-.079-.585c-.068-.373-.147-.915-.221-1.587s-.128-1.477-.14-2.37a23.126,23.126,0,0,1,.673-5.76c.219-.866.453-1.638.683-2.274s.429-1.147.582-1.494a3.4,3.4,0,0,0,.212-.551,3.281,3.281,0,0,0-.283.519,15.984,15.984,0,0,0-.644,1.478,20.917,20.917,0,0,0-.73,2.278,21.521,21.521,0,0,0-.679,5.808,20.807,20.807,0,0,0,.185,2.385,15.978,15.978,0,0,0,.285,1.586A3.316,3.316,0,0,0,115.8,292.143Z" transform="translate(-115.169 -277.521)"/></g><g transform="translate(6.794)"><path class="f" d="M118.9,254.011l-.018-1.477-1.734,2.827-3.534,1.3c-1.111,1.28-4.71,15.693-3.983,18.077l1.257,14.093-3.583,5.388,6.429.688s1.381-1.364,1.036-4.974c-.873-9.142.03-19.57.162-21.879C115.131,264.579,118.9,254.011,118.9,254.011Z" transform="translate(-107.305 -252.534)"/></g><g transform="translate(0 2.827)"><path class="f" d="M109.425,258.575s-5.8,1.9-6.56,2.989c-2.067,2.97-14.515,23.295-8.4,29.356,4,3.971,9.623-4.406,9.623-4.406Z" transform="translate(-92.789 -258.575)"/></g><g transform="translate(2.42 25.565)"><path class="e" d="M97.96,308.69a3.127,3.127,0,0,0,.528-.094l1.445-.31c1.229-.258,2.951-.624,4.925-.92l-.105-.062.592,1.518,1.406,3.57.014-.089-2.182,2.722-.606.779a1.681,1.681,0,0,0-.2.289,1.6,1.6,0,0,0,.244-.253l.645-.747,2.239-2.676.034-.04-.02-.05-1.387-3.578-.595-1.517-.029-.074-.077.012c-1.987.306-3.7.7-4.927.989-.612.148-1.1.275-1.434.368A3.03,3.03,0,0,0,97.96,308.69Z" transform="translate(-97.96 -307.158)"/></g><g transform="translate(7.636 9.557)"><path class="e" d="M109.849,288.866a4.013,4.013,0,0,0-.059-.649c-.055-.449-.128-1.042-.216-1.759a27.935,27.935,0,0,1-.191-5.814,15.978,15.978,0,0,1,1.606-5.557c.327-.671.622-1.2.828-1.562a4.589,4.589,0,0,0,.31-.572c-.006,0-.042.042-.107.131s-.157.224-.27.4c-.227.352-.543.872-.888,1.539a15.21,15.21,0,0,0-1.679,5.6,25.312,25.312,0,0,0,.25,5.851c.1.742.207,1.34.28,1.752A4.044,4.044,0,0,0,109.849,288.866Z" transform="translate(-109.105 -272.954)"/></g><g transform="translate(12.397 2.961)"><path class="e" d="M120.488,278.953a1,1,0,0,0,0-.233c-.013-.174-.029-.394-.049-.665-.054-.6-.127-1.43-.218-2.44-.1-1.038-.218-2.261-.348-3.616-.068-.681-.139-1.4-.212-2.135a7.681,7.681,0,0,1-.06-1.117,2.051,2.051,0,0,1,.3-1.057,1.206,1.206,0,0,1,1.023-.594l.366.023-.305-.205-1.525-1.03.029.129,2.978-5.111.849-1.492.22-.4a.08.08,0,1,0-.029-.017l-.247.387-.9,1.464-3.04,5.074-.047.078.075.051,1.522,1.035.062-.183a1.4,1.4,0,0,0-1.2.682,2.237,2.237,0,0,0-.337,1.159,7.787,7.787,0,0,0,.064,1.147l.224,2.133c.146,1.353.279,2.576.391,3.612.117,1.008.212,1.832.281,2.434l.086.661A1.037,1.037,0,0,0,120.488,278.953Z" transform="translate(-119.277 -258.862)"/></g><g transform="translate(21.496 0.344)"><path class="f" d="M145.658,253.268l1.734,1.86,6.437,2.045a114.371,114.371,0,0,1-1.522,14.094c-1.417,7.939-2.178,16.032-2.219,16.157a43.2,43.2,0,0,1,5.2,9.066c1.54,3.759,2.385,11.606,2.385,11.606l-16.207,4.965-2.745-29.371.715-13.587Z" transform="translate(-138.718 -253.268)"/><g transform="translate(0.717 1.695)"><path class="e" d="M140.25,279.3a1.42,1.42,0,0,0,.122-.242l.315-.708c.272-.615.667-1.5,1.177-2.593a92.9,92.9,0,0,1,4.4-8.291l.445-.735.061-.1-.108-.045-1.824-.753.025.167a4.979,4.979,0,0,1,2.026-1.02l.066-.015.006-.067a22.386,22.386,0,0,1,.569-3.22c.226-.959.419-1.807.533-2.518a12.2,12.2,0,0,0,.165-1.671c.006-.195,0-.345-.005-.446a.612.612,0,0,0-.014-.154,5.354,5.354,0,0,0-.041.6,14.667,14.667,0,0,1-.217,1.654c-.128.7-.335,1.544-.572,2.5a21.525,21.525,0,0,0-.6,3.241l.071-.082a5.12,5.12,0,0,0-2.108,1.049l-.126.1.151.063,1.823.757-.047-.145-.446.736a81.513,81.513,0,0,0-4.357,8.335c-.494,1.1-.87,2-1.119,2.622l-.28.723A1.363,1.363,0,0,0,140.25,279.3Z" transform="translate(-140.249 -256.89)"/></g><g transform="translate(6.102 44.247)"><path class="e" d="M159.671,347.812a1.326,1.326,0,0,0,.145.2l.429.54,1.584,1.939.041-.117-7.7,1.447.1.04-.122-.17L152,348.7l-.066.15,5.539-.718,1.608-.224.432-.067a.73.73,0,0,0,.154-.033.5.5,0,0,0-.142,0l-.423.037-1.6.169-5.59.644-.16.019.094.132,2.139,2.994.122.17.037.052.063-.012,7.686-1.5.122-.024-.081-.093-1.655-1.917-.451-.508A1.066,1.066,0,0,0,159.671,347.812Z" transform="translate(-151.755 -347.808)"/></g><g class="j" transform="translate(6.721 45.823)"><path d="M161.6,352.428l.509.994-7.223,1.553-1.8-3.8,1.817,2.536Z" transform="translate(-153.079 -351.177)"/></g></g></g><g transform="translate(14.965 47.978)"><g transform="translate(0)"><g transform="translate(0.003 0.01)"><path class="c" d="M56.317,302.831l3.951,19.4h34.3a.685.685,0,0,0,.685-.685h0a.685.685,0,0,0-.685-.685h-6.9L84,302.818a.749.749,0,0,0-.726-.6l-26.214-.286A.749.749,0,0,0,56.317,302.831Z" transform="translate(-56.301 -301.932)"/></g><path class="e" d="M56.313,302.819s0-.019-.011-.058a.687.687,0,0,1,0-.176.752.752,0,0,1,.363-.567.766.766,0,0,1,.227-.09,1.186,1.186,0,0,1,.27-.017l.617,0,1.543.013,9.912.094,6.909.07,3.871.04,2.03.021,1.038.011c.088,0,.171,0,.265.007a.784.784,0,0,1,.265.076.794.794,0,0,1,.377.395,1.242,1.242,0,0,1,.072.264l.053.261q.053.261.107.524.107.526.215,1.059.217,1.066.439,2.158l.909,4.466,1.924,9.465-.046-.037h6.79a1.253,1.253,0,0,1,.267.016.733.733,0,0,1,.2,1.361.749.749,0,0,1-.322.087H85.654l-9.285,0-16.1-.008h-.03l-.006-.029-2.871-14.174-.78-3.876c-.088-.443-.155-.781-.2-1.01s-.065-.346-.065-.346.027.116.075.344.118.567.211,1.009l.8,3.872c.688,3.36,1.682,8.208,2.9,14.168l-.035-.029,16.1-.008,9.285,0h8.932a.653.653,0,0,0,.281-.076.638.638,0,0,0-.171-1.185,1.21,1.21,0,0,0-.248-.014H87.62l-.007-.037-1.92-9.465q-.463-2.282-.906-4.467-.221-1.092-.438-2.158l-.214-1.059-.106-.525-.053-.261a1.17,1.17,0,0,0-.066-.248.709.709,0,0,0-.574-.423c-.08-.007-.172,0-.258-.006l-1.038-.012-2.03-.023-3.871-.045-6.909-.081-9.912-.123-1.543-.021-.617-.009a1.166,1.166,0,0,0-.266.014.765.765,0,0,0-.222.086.747.747,0,0,0-.363.553A.974.974,0,0,0,56.313,302.819Z" transform="translate(-56.295 -301.911)"/></g><g transform="translate(13.557 8.654)"><circle class="d" cx="1.133" cy="1.133" r="1.133"/></g><g transform="translate(0.05 1.06)"><path class="e" d="M56.4,304.181s.04,0,.118,0l.347,0,1.333,0,4.9.023,16.179.114,2.34.019.575,0a1.543,1.543,0,0,1,.294.018.82.82,0,0,1,.626.585c.043.19.075.369.112.553.29,1.461.57,2.871.836,4.214l1.41,7.136.943,4.813.251,1.309c.028.148.048.261.063.341s.018.117.018.117-.011-.038-.028-.115-.041-.192-.073-.339l-.269-1.306-.972-4.807c-.408-2.031-.892-4.448-1.43-7.132-.268-1.343-.55-2.752-.842-4.213-.037-.181-.072-.37-.112-.547a.716.716,0,0,0-.308-.418.729.729,0,0,0-.246-.1,1.425,1.425,0,0,0-.276-.016l-.575,0-2.34-.018L63.1,304.268l-4.9-.054-1.333-.02-.347-.008C56.442,304.184,56.4,304.181,56.4,304.181Z" transform="translate(-56.402 -304.175)"/></g></g><g transform="translate(43.286 29.117)"><g transform="translate(0 27.666)"><g transform="translate(7.137 0.847)"><path class="p" d="M132.057,322.534l.011.007Z" transform="translate(-132.057 -322.534)"/></g><g transform="translate(7.204 0.889)"><path class="p" d="M132.2,322.624l.025.015Z" transform="translate(-132.2 -322.624)"/></g><g transform="translate(7.148 0.854)"><path class="p" d="M132.081,322.549l.056.035Z" transform="translate(-132.081 -322.549)"/></g><g transform="translate(7.112 0.831)"><path class="p" d="M132.005,322.5l.024.015Z" transform="translate(-132.005 -322.501)"/></g><path class="p" d="M117.174,326.424c.637-.922,5.008-3.034,5.008-3.034l-1.07-.385-1.276.37a3.009,3.009,0,0,1-.658,1.076c-.522.584-1.2-.164-1.2-.164l.8-2.4,2.575-1.162a23.763,23.763,0,0,1,2.565.831l.859,1c.384.381,1.45,1.834,1.779,1.913.1.025,3.137-.967,3.137-.967l1.258,5.569-4.635.4-2.818.431a19.267,19.267,0,0,1-2.333.5c-.93.083-1.507-.282-1.472-.788s.746-.476.746-.476a13.9,13.9,0,0,0,1.846-.564,3.1,3.1,0,0,0,1.119-.969h-.987s-2.238,1.191-3.066,1.52-.889-.462-.924-.7a19.664,19.664,0,0,1,2.627-2.294s-2.434,1.129-2.883,1.434-1.067.338-1.169.086S116.537,327.346,117.174,326.424Z" transform="translate(-116.809 -320.725)"/><g transform="translate(7.228 0.904)"><path class="p" d="M132.253,322.657l.022.014Z" transform="translate(-132.253 -322.657)"/></g><g transform="translate(7.262 0.925)"><path class="p" d="M132.325,322.7Z" transform="translate(-132.325 -322.702)"/></g><g transform="translate(7.25 0.918)"><path class="p" d="M132.3,322.686l.012.008Z" transform="translate(-132.299 -322.686)"/></g><g transform="translate(9.75 3.74)"><path class="q" d="M139.421,332.229a.515.515,0,0,0,.031-.158.959.959,0,0,0,.009-.189,1.381,1.381,0,0,0-.015-.251,3.486,3.486,0,0,0-.509-1.348,7.446,7.446,0,0,0-.87-1.148,2.992,2.992,0,0,0-.425-.418,4.743,4.743,0,0,0,.373.462,9.569,9.569,0,0,1,.839,1.154,3.793,3.793,0,0,1,.524,1.309C139.438,332,139.4,332.227,139.421,332.229Z" transform="translate(-137.642 -328.716)"/></g><g transform="translate(5.476 2.317)"><path class="q" d="M128.51,325.958a1.508,1.508,0,0,0,1.335-.279c-.015-.025-.285.13-.654.2S128.513,325.929,128.51,325.958Z" transform="translate(-128.51 -325.676)"/></g><g transform="translate(4.482 4.613)"><path class="q" d="M126.385,331.181a12.76,12.76,0,0,0,2.132-.6,12.762,12.762,0,0,0-2.132.6Z" transform="translate(-126.385 -330.582)"/></g><g transform="translate(6.497 6.549)"><path class="q" d="M130.692,335.016a2.469,2.469,0,0,0,.553-.125,2.44,2.44,0,0,0,.543-.16,2.114,2.114,0,0,0-1.1.285Z" transform="translate(-130.691 -334.719)"/></g><g transform="translate(4.795 5.428)"><path class="q" d="M127.053,332.326c-.014.025.212.14.359.4a2.252,2.252,0,0,1,.174.508c.012,0,.031-.062.028-.167a.869.869,0,0,0-.4-.682C127.123,332.328,127.058,332.315,127.053,332.326Z" transform="translate(-127.053 -332.323)"/></g><g transform="translate(4.018 3.811)"><path class="q" d="M125.394,328.873c-.015.023.151.14.244.361a2.715,2.715,0,0,1,.1.424.488.488,0,0,0-.01-.462C125.618,328.943,125.4,328.847,125.394,328.873Z" transform="translate(-125.393 -328.869)"/></g><g transform="translate(4.55 0.261)"><path class="q" d="M126.641,322.19c.01.007.052-.034.091-.119a.7.7,0,0,0-.083-.693c-.058-.074-.109-.1-.117-.094a1.857,1.857,0,0,1,.155.441A1.834,1.834,0,0,1,126.641,322.19Z" transform="translate(-126.531 -321.283)"/></g></g><g transform="translate(10.659)"><g transform="translate(0.14)"><path class="f" d="M154.449,261.612a6.824,6.824,0,0,1,3.84,4.522s.685,2.122,1.2,4.5c1.241,5.775,3.467,15.616,3.574,18.492.194,5.2-3.569,6.677-5.68,7.133s-15.207,2.074-15.207,2.074l-2.29-6.469,13.354-5.812s-2.546-8.743-3.136-11.475" transform="translate(-139.883 -261.612)"/></g><path class="e" d="M149.941,274.577s.023.067.058.2l.151.592.609,2.274c.544,1.975,1.357,4.836,2.4,8.386l.021.07-.067.029-13.342,5.839.06-.14,2.3,6.466-.126-.078c3.4-.427,7.033-.887,10.765-1.4,1.507-.213,3.009-.406,4.456-.683a7.67,7.67,0,0,0,3.8-1.928,5.987,5.987,0,0,0,1.706-3.7c.016-.17.042-.338.051-.507l.005-.509a8.494,8.494,0,0,0-.043-1.008c-.073-.669-.164-1.33-.271-1.981-.426-2.6-.937-5.064-1.412-7.366l-1.36-6.4q-.316-1.464-.6-2.787c-.2-.876-.415-1.7-.627-2.46s-.422-1.476-.642-2.111a6.284,6.284,0,0,0-.885-1.612,7.048,7.048,0,0,0-1.869-1.729c-.247-.157-.444-.264-.578-.332s-.2-.1-.2-.1a1.441,1.441,0,0,1,.213.081,5.276,5.276,0,0,1,.594.313,6.884,6.884,0,0,1,1.919,1.713,6.331,6.331,0,0,1,.918,1.627c.231.646.44,1.353.665,2.116s.441,1.585.647,2.463l.617,2.785c.425,1.954.891,4.094,1.39,6.39.484,2.3,1,4.76,1.436,7.371q.163.979.277,1.994a8.674,8.674,0,0,1,.046,1.031l0,.52c-.009.174-.035.348-.052.522a6.219,6.219,0,0,1-1.769,3.838,7.9,7.9,0,0,1-3.916,2c-1.471.283-2.962.474-4.474.688-3.735.51-7.364.968-10.77,1.39l-.094.012-.032-.089-2.283-6.47-.035-.1.1-.042,13.365-5.786-.047.1c-1.02-3.557-1.809-6.425-2.326-8.409-.257-.992-.449-1.762-.567-2.286-.062-.262-.1-.463-.129-.6S149.941,274.577,149.941,274.577Z" transform="translate(-139.584 -261.612)"/></g><g transform="translate(20.334 0.59)"><path class="e" d="M160.382,272.779a1.455,1.455,0,0,1-.074-.419,8.679,8.679,0,0,1-.051-1.16,12.319,12.319,0,0,1,2.442-7.154,8.749,8.749,0,0,1,.75-.886c.192-.2.3-.3.316-.286.031.029-.376.475-.926,1.273a13.759,13.759,0,0,0-2.409,7.059C160.376,272.174,160.425,272.776,160.382,272.779Z" transform="translate(-160.256 -262.873)"/></g></g></g></g></svg>