<svg xmlns="http://www.w3.org/2000/svg" width="414.981" height="428.704" viewBox="0 0 414.981 428.704"><defs><style>.a{fill:#ececec;}.b{fill:#fafafa;}.c{fill:#e1e1e1;}.d{fill:#f5f5f5;}.e{fill:#344154;}.f{fill:#5e6178;}.g{fill:#d9a171;}.h{opacity:0.4;}.i{opacity:0.2;}.j{fill:#fff;}.k{fill:none;stroke:#fff;stroke-miterlimit:10;}.l{opacity:0.3;}.m{fill:#c07f68;}.n{fill:#8a503f;}</style></defs><g transform="translate(-117.724 -5154.231)"><g transform="translate(117.724 5154.231)"><g transform="translate(16.847 364.477)"><g transform="translate(24.936)"><path class="a" d="M197.184,5461.72l-1.508,1.615L150.6,5517.067l99.956.062,27.486-55.12Z" transform="translate(-150.598 -5461.72)"/></g><g transform="translate(0 2.471)"><g transform="translate(0.481 0.041)"><path class="b" d="M181.553,5463.854l-1.508,1.669-50.218,55.554,97.4.063,35.181-56.987Z" transform="translate(-129.826 -5463.854)"/></g><path class="c" d="M181.625,5463.86s.122-.01.368-.015.625,0,1.1-.011l4.315-.015h16.412l58.658.122h.386l-.2.33c-10.363,16.8-22.351,36.243-35.153,57l-.073.12H227.3l-13.348-.008-84.054-.09h-.48l.323-.355,37.6-41.458c4.534-4.978,8.1-8.887,10.533-11.564,1.215-1.324,2.149-2.34,2.788-3.036s.968-1.022.968-1.022-.312.377-.925,1.073L177.966,5468c-2.417,2.7-5.949,6.63-10.445,11.645l-37.464,41.577-.158-.355c24.256,0,53.136.011,84.054.017l13.348.008-.212.118,35.209-56.971.184.331-58.581-.312c-7.072-.052-12.631-.091-16.437-.12l-4.339-.046-1.116-.019C181.757,5463.871,181.625,5463.86,181.625,5463.86Z" transform="translate(-129.418 -5463.819)"/></g><g transform="translate(21.797 48.808)"><path class="c" d="M215.469,5503.876a3.449,3.449,0,0,1-.686.044l-1.969.028-7.238.015-23.875-.144-23.879-.29-7.237-.146c-.814-.028-1.468-.048-1.967-.064a3.577,3.577,0,0,1-.685-.058,3.526,3.526,0,0,1,.685-.044c.5-.007,1.154-.018,1.967-.028l7.237-.014c6.161.036,14.579.088,23.882.144l23.877.29,7.236.145,1.967.065A3.573,3.573,0,0,1,215.469,5503.876Z" transform="translate(-147.932 -5503.176)"/></g><g transform="translate(26.334 42.861)"><path class="c" d="M217.682,5498.814a3.475,3.475,0,0,1-.67.043l-1.921.03-7.062.014-23.3-.137-23.3-.286c-2.937-.058-5.335-.108-7.061-.142-.792-.029-1.43-.048-1.919-.065a3.3,3.3,0,0,1-.67-.057,3.348,3.348,0,0,1,.67-.045c.489-.006,1.127-.016,1.919-.028l7.062-.015,23.3.139,23.3.283c2.937.061,5.335.109,7.061.144l1.919.065A3.341,3.341,0,0,1,217.682,5498.814Z" transform="translate(-151.785 -5498.126)"/></g><g transform="translate(31.884 36.861)"><path class="c" d="M221.192,5493.707a3.138,3.138,0,0,1-.658.046c-.482.006-1.108.018-1.885.029l-6.933.016-22.87-.134-22.873-.282c-2.882-.058-5.236-.107-6.931-.142-.777-.028-1.4-.05-1.885-.064a3.372,3.372,0,0,1-.657-.056,3.174,3.174,0,0,1,.657-.045l1.885-.03,6.932-.016,22.876.135,22.871.281,6.931.143c.777.025,1.4.046,1.884.063A3.259,3.259,0,0,1,221.192,5493.707Z" transform="translate(-156.499 -5493.029)"/></g><g transform="translate(38.241 31.3)"><path class="c" d="M225.267,5488.973a3.068,3.068,0,0,1-.645.045c-.473.007-1.086.017-1.846.031-1.665,0-3.969.009-6.791.018l-22.4-.131c-8.723-.108-16.617-.207-22.4-.276l-6.79-.142-1.846-.063a3.007,3.007,0,0,1-.644-.057,3.133,3.133,0,0,1,.644-.044l1.846-.03,6.79-.019,22.407.13,22.4.277,6.79.142,1.846.063A3.2,3.2,0,0,1,225.267,5488.973Z" transform="translate(-161.899 -5488.304)"/></g><g transform="translate(41.954 25.45)"><path class="c" d="M228.419,5484a3.211,3.211,0,0,1-.644.044l-1.847.03-6.791.018c-5.787-.035-13.681-.08-22.4-.13-8.724-.109-16.618-.207-22.4-.276-2.822-.061-5.126-.108-6.79-.142l-1.846-.064a3.17,3.17,0,0,1-.643-.056,3,3,0,0,1,.643-.045l1.846-.03c1.664-.006,3.969-.01,6.791-.019,5.787.035,13.682.081,22.407.13,8.721.109,16.615.207,22.4.277,2.821.059,5.125.108,6.789.141.761.027,1.373.046,1.846.065A3.012,3.012,0,0,1,228.419,5484Z" transform="translate(-165.052 -5483.335)"/></g><g transform="translate(47.436 19.635)"><path class="c" d="M233.076,5479.064a2.889,2.889,0,0,1-.644.045c-.473.01-1.087.018-1.847.03l-6.791.019-22.4-.13-22.4-.277-6.79-.141-1.846-.063a3.158,3.158,0,0,1-.643-.057,3.126,3.126,0,0,1,.643-.043c.474-.008,1.087-.02,1.846-.031l6.791-.018c5.787.033,13.682.08,22.407.131l22.4.276,6.789.141,1.846.064A3.3,3.3,0,0,1,233.076,5479.064Z" transform="translate(-169.709 -5478.397)"/></g><g transform="translate(51.464 13.703)"><path class="c" d="M236.492,5474.281a3.13,3.13,0,0,1-.644.042c-.473.005-1.087.012-1.847.022-1.664,0-3.969-.007-6.791-.013-5.787-.061-13.68-.142-22.4-.23l-22.4-.378c-2.822-.072-5.126-.129-6.789-.17-.761-.03-1.373-.055-1.846-.073a3.337,3.337,0,0,1-.643-.058,2.9,2.9,0,0,1,.643-.043l1.846-.022,6.791.013,22.406.23,22.4.378,6.789.171,1.846.072A3.026,3.026,0,0,1,236.492,5474.281Z" transform="translate(-173.13 -5473.357)"/></g><g transform="translate(57.653 8.291)"><path class="c" d="M241.751,5469.684a3.134,3.134,0,0,1-.645.042l-1.847.021-6.791-.014c-5.787-.058-13.68-.139-22.4-.229-8.723-.147-16.617-.279-22.4-.378l-6.789-.171-1.846-.072a3.02,3.02,0,0,1-.643-.059,3.074,3.074,0,0,1,.644-.043c.473,0,1.085-.011,1.846-.021l6.79.013,22.406.231c8.721.147,16.613.278,22.4.377l6.789.172c.761.029,1.373.053,1.846.072A3.208,3.208,0,0,1,241.751,5469.684Z" transform="translate(-178.387 -5468.761)"/></g></g><g transform="translate(41.198 182.543)"><path class="a" d="M150.1,5318.26c0-6.766,4.074-11.068,9.846-11.068s9.791,4.243,9.791,11.068-4.019,11.07-9.791,11.07S150.1,5325.028,150.1,5318.26Zm13.979,0c0-4.3-1.642-6.366-4.132-6.366-2.434,0-4.131,2.122-4.131,6.366s1.7,6.367,4.131,6.367C162.437,5324.626,164.08,5322.561,164.08,5318.26Zm19.466-10.611h6.734L163.23,5347.8H156.5Zm-6.507,29.54c0-6.769,4.074-11.071,9.79-11.071,5.771,0,9.847,4.3,9.847,11.071s-4.076,11.068-9.847,11.068C181.112,5348.257,177.039,5343.955,177.039,5337.189Zm13.92,0c0-4.246-1.641-6.367-4.13-6.367-2.434,0-4.131,2.066-4.131,6.367s1.7,6.366,4.131,6.366C189.317,5343.555,190.958,5341.433,190.958,5337.189Z" transform="translate(-150.101 -5307.192)"/></g><g transform="translate(275.998)"><path class="d" d="M437.054,5189.5A44,44,0,1,1,387,5152.642,43.956,43.956,0,0,1,437.054,5189.5Z" transform="translate(-349.533 -5152.143)"/><g transform="translate(10.472 10.448)"><path class="a" d="M425.124,5189.484a33.534,33.534,0,1,1-38.146-28.085A33.5,33.5,0,0,1,425.124,5189.484Z" transform="translate(-358.428 -5161.019)"/></g><g transform="translate(9.856 9.176)"><path class="c" d="M425.053,5188.636c-.2.04-.562-1.4-1.478-3.854a35.611,35.611,0,0,0-5.357-9.588,34.41,34.41,0,0,0-5.3-5.363,33.566,33.566,0,0,0-7.35-4.49,32.714,32.714,0,0,0-9.13-2.576,32.649,32.649,0,0,0-5.018-.268,32.74,32.74,0,0,0-10.151,1.857,32.744,32.744,0,0,0-4.6,2.026,32.827,32.827,0,0,0-7.627,5.643,33.534,33.534,0,0,0-5.283,6.8,34.362,34.362,0,0,0-3.055,6.893,35.587,35.587,0,0,0-1.612,10.861c.015,2.623.186,4.092-.015,4.126-.147.03-.655-1.38-.983-4.068a31.028,31.028,0,0,1,.863-11.419,33.934,33.934,0,0,1,2.945-7.432,34.276,34.276,0,0,1,5.453-7.422,34.135,34.135,0,0,1,8.113-6.192,34.013,34.013,0,0,1,4.947-2.223,34.316,34.316,0,0,1,10.949-2,34.094,34.094,0,0,1,5.412.328,34.229,34.229,0,0,1,9.78,2.918,33.627,33.627,0,0,1,13.117,10.917,31.057,31.057,0,0,1,4.854,10.373C425.175,5187.112,425.2,5188.612,425.053,5188.636Z" transform="translate(-357.905 -5159.937)"/></g><g transform="translate(29.08 20.519)"><path class="c" d="M395.894,5212.178l.955,5.762-5.146.851-.928-5.607c-5.145.533-10.3-.25-13.492-2l1.79-6.746a21.077,21.077,0,0,0,10.587,2l-1.423-8.594c-5.941-.441-12.635-1.289-13.854-8.647-.9-5.454,2.284-10.792,10.261-13.064l-.945-5.711,5.145-.852.929,5.609a23.573,23.573,0,0,1,10.963,1.409l-1.524,6.754a21.382,21.382,0,0,0-8.317-1.372l1.449,8.748c5.931.393,12.525,1.258,13.726,8.511C406.954,5204.585,403.81,5209.863,395.894,5212.178Zm-8.909-21.892-1.211-7.306c-2.623,1.069-3.457,2.74-3.176,4.438C382.9,5189.219,384.6,5189.942,386.985,5190.286Zm10.9,10.937c-.3-1.8-1.952-2.532-4.293-2.939l1.175,7.1C397.249,5204.394,398.16,5202.87,397.887,5201.223Z" transform="translate(-374.233 -5169.573)"/></g></g><g transform="translate(344.509 246.967)"><path class="d" d="M476.078,5409.117a35.236,35.236,0,1,1-21.113-45.074A35.2,35.2,0,0,1,476.078,5409.117Z" transform="translate(-407.724 -5361.91)"/><g transform="translate(8.384 8.369)"><path class="a" d="M466.934,5404.993a26.852,26.852,0,1,1-16.089-34.349A26.821,26.821,0,0,1,466.934,5404.993Z" transform="translate(-414.845 -5369.019)"/></g><g transform="translate(9.698 7.372)"><path class="c" d="M467.018,5404.35c-.155-.05.14-1.2.436-3.276a28.5,28.5,0,0,0-.1-8.794,27.518,27.518,0,0,0-1.675-5.8,26.872,26.872,0,0,0-3.453-5.971,26.31,26.31,0,0,0-5.437-5.306,26.086,26.086,0,0,0-3.427-2.105,28.348,28.348,0,0,0-3.823-1.6,28.723,28.723,0,0,0-4.028-.979,26.534,26.534,0,0,0-4.01-.334,26.347,26.347,0,0,0-7.523,1.051,26.848,26.848,0,0,0-6.32,2.765,27.65,27.65,0,0,0-4.786,3.68,28.5,28.5,0,0,0-5.287,7.024c-.994,1.851-1.435,2.949-1.591,2.9-.114-.034.068-1.223.865-3.238a24.836,24.836,0,0,1,4.975-7.7,26.907,26.907,0,0,1,11.59-7.236,25.941,25.941,0,0,1,3.9-.916,26.532,26.532,0,0,1,4.174-.337,27.5,27.5,0,0,1,4.33.33,27.47,27.47,0,0,1,8.467,2.781,27.387,27.387,0,0,1,3.683,2.3,27.318,27.318,0,0,1,5.763,5.795,26.9,26.9,0,0,1,5.05,12.7,24.845,24.845,0,0,1-.553,9.155C467.689,5403.324,467.132,5404.388,467.018,5404.35Z" transform="translate(-415.962 -5368.171)"/></g><g transform="translate(19.907 17.227)"><path class="c" d="M437.347,5410.579l-1.534,4.42-3.944-1.372,1.492-4.3c-3.823-1.593-7.146-4.115-8.728-6.567l3.84-4.059a16.9,16.9,0,0,0,6.682,5.458l2.286-6.59c-4.01-2.584-8.394-5.742-6.436-11.384,1.452-4.182,5.735-6.718,12.215-5.264l1.52-4.379,3.945,1.369-1.493,4.3a18.9,18.9,0,0,1,7.174,5.187l-3.657,4.168a17.136,17.136,0,0,0-5.324-4.15l-2.328,6.711c4.023,2.543,8.33,5.674,6.4,11.237C448.032,5409.467,443.8,5411.978,437.347,5410.579Zm2.107-18.808,1.944-5.6c-2.254-.251-3.48.606-3.933,1.907C436.987,5389.455,437.91,5390.618,439.455,5391.771Zm3.486,11.864c.479-1.382-.405-2.527-1.9-3.709l-1.89,5.444C441.278,5405.623,442.5,5404.9,442.941,5403.635Z" transform="translate(-424.633 -5376.543)"/></g></g><g transform="translate(26.456 22.678)"><rect class="d" width="218.227" height="142.206"/></g><g transform="translate(15.669 14.988)"><rect class="a" width="218.227" height="141.895"/></g><g transform="translate(0 354.714)"><path class="e" d="M523.6,5453.677c0,.139-91.453.25-204.237.25-112.825,0-204.258-.111-204.258-.25s91.433-.249,204.258-.249C432.152,5453.428,523.6,5453.54,523.6,5453.677Z" transform="translate(-115.109 -5453.428)"/></g><g transform="translate(205.607 357.699)"><g transform="translate(30.656 0.212)"><path class="d" d="M467.828,5514.983l-85.641,2.776-66.4-61.615h83.211Z" transform="translate(-315.783 -5456.144)"/></g><g transform="translate(0 9.39)"><path class="d" d="M441.79,5522.779l-85.641,2.774-66.4-61.615h83.212Z" transform="translate(-289.745 -5463.938)"/></g><g transform="translate(14.41 3.283)"><path class="c" d="M454.029,5517.592l-85.641,2.776-66.4-61.616H385.2Z" transform="translate(-301.984 -5458.752)"/></g><g transform="translate(3.265)"><g transform="translate(0.539 0.212)"><path class="d" d="M376.188,5456.144H292.976l66.4,61.615,88.382-2.863Z" transform="translate(-292.976 -5456.144)"/></g><path class="e" d="M376.268,5456.175s.117.082.34.258.562.448.993.794c.883.717,2.176,1.762,3.858,3.125,3.383,2.76,8.325,6.79,14.6,11.91l51.919,42.5.452.369-.584.02-84.759,2.777-3.622.116-.1,0-.075-.069c-24.446-22.7-47.214-43.846-66.378-61.644l-.4-.367h.539l60.422.092,16.853.058c1.931.014,3.413.023,4.427.032s1.509.029,1.509.029-.524.022-1.531.031-2.507.018-4.446.029l-16.872.058-60.362.094.144-.367c19.179,17.781,41.964,38.905,66.431,61.586l-.178-.066,3.62-.118,84.762-2.715-.132.388c-21.357-17.58-39.217-32.284-51.75-42.6l-14.544-12.016-3.832-3.187-.981-.826C376.378,5456.278,376.268,5456.175,376.268,5456.175Z" transform="translate(-292.518 -5455.963)"/></g><g transform="translate(51.728 30.956)"><g transform="translate(5.82 4.76)"><path class="e" d="M397.932,5486.332c0,.138-13.27.665-29.644,1.178s-29.66.815-29.663.677,13.266-.666,29.648-1.177S397.927,5486.194,397.932,5486.332Z" transform="translate(-338.624 -5486.298)"/></g><g transform="translate(11.955 10.018)"><path class="e" d="M404.085,5490.8c0,.137-13.481.661-30.115,1.171s-30.129.809-30.134.671,13.478-.663,30.119-1.171S404.08,5490.659,404.085,5490.8Z" transform="translate(-343.835 -5490.764)"/></g><g transform="translate(19.009 15.288)"><path class="e" d="M410.5,5495.271c0,.138-13.575.689-30.327,1.231s-30.34.869-30.345.731,13.571-.688,30.33-1.23S410.494,5495.133,410.5,5495.271Z" transform="translate(-349.827 -5495.24)"/></g><path class="e" d="M394.716,5482.288c0,.138-13.656.684-30.509,1.218s-30.521.856-30.526.72,13.654-.685,30.511-1.219S394.711,5482.15,394.716,5482.288Z" transform="translate(-333.681 -5482.256)"/></g><g transform="translate(22.046 6.459)"><g transform="translate(5.87 4.771)"><path class="e" d="M370.082,5465.556c0,.137-12.673.492-28.307.793s-28.316.43-28.319.293,12.669-.494,28.309-.794S370.078,5465.417,370.082,5465.556Z" transform="translate(-313.456 -5465.5)"/></g><g transform="translate(11.207 10.03)"><path class="e" d="M376.354,5470.021c0,.138-13.062.5-29.176.81s-29.186.448-29.189.31,13.059-.5,29.179-.81S376.351,5469.883,376.354,5470.021Z" transform="translate(-317.989 -5469.968)"/></g><g transform="translate(15.408 15.289)"><path class="e" d="M382.8,5474.485c0,.14-13.705.514-30.614.839s-30.624.476-30.626.338,13.7-.514,30.617-.838S382.8,5474.35,382.8,5474.485Z" transform="translate(-321.557 -5474.436)"/></g><g transform="translate(22.485 20.548)"><path class="e" d="M388.809,5478.953c0,.137-13.706.514-30.615.837s-30.624.478-30.626.337,13.7-.511,30.617-.837S388.806,5478.816,388.809,5478.953Z" transform="translate(-327.568 -5478.902)"/></g><path class="e" d="M366.872,5461.513a2.693,2.693,0,0,1-.592.06l-1.7.07-6.258.17-20.647.372c-8.037.087-15.309.167-20.652.226-2.594,0-4.716.007-6.259.01l-1.7-.021a2.711,2.711,0,0,1-.593-.042,2.808,2.808,0,0,1,.593-.06l1.7-.072c1.542-.04,3.664-.1,6.258-.17l20.647-.37,20.647-.226c2.594,0,4.716-.006,6.259-.011l1.7.022A2.6,2.6,0,0,1,366.872,5461.513Z" transform="translate(-308.47 -5461.449)"/></g></g><g transform="translate(237.523 356.245)"><path class="f" d="M338.688,5477.72l-21.834-20,75.6-3,22.221,12.3Z" transform="translate(-316.854 -5454.727)"/><g transform="translate(8.55 1.074)"><g transform="translate(0 1.891)"><g transform="translate(0 0.519)"><path class="e" d="M324.379,5460l4.246,3.639-.017-2.594-4.491-3.356Z" transform="translate(-324.116 -5457.687)"/></g><g transform="translate(0 0.259)"><path class="g" d="M328.565,5461.25l6.123-.208-4.928-3.576-5.643.26Z" transform="translate(-324.116 -5457.466)"/></g><g transform="translate(4.449 3.834)"><path class="e" d="M327.895,5460.711l.06,2.429,5.981-.389.081-2.248Z" transform="translate(-327.895 -5460.503)"/></g><path class="e" d="M334.687,5461.079a34.1,34.1,0,0,1-4.929-3.171l-.291-.205.155.044a31.816,31.816,0,0,1-5.506.017,31.6,31.6,0,0,1,5.483-.515l.085,0,.071.051.291.205A34.536,34.536,0,0,1,334.687,5461.079Z" transform="translate(-324.116 -5457.245)"/><g transform="translate(4.206 4.063)"><path class="f" d="M327.972,5463.1c-.138,0-.264-.533-.281-1.2s.08-1.206.218-1.209.265.531.281,1.2S328.109,5463.1,327.972,5463.1Z" transform="translate(-327.688 -5460.696)"/></g></g><g transform="translate(10.245 1.699)"><g transform="translate(0.001 0.519)"><path class="e" d="M333.082,5459.836l4.246,3.641-.018-2.6-4.491-3.358Z" transform="translate(-332.818 -5457.523)"/></g><g transform="translate(0.001 0.258)"><path class="c" d="M337.267,5461.086l6.123-.208-4.928-3.577-5.643.261Z" transform="translate(-332.818 -5457.301)"/></g><g transform="translate(4.449 3.834)"><path class="e" d="M336.6,5460.546l.061,2.428,5.981-.387.081-2.249Z" transform="translate(-336.597 -5460.339)"/></g><path class="e" d="M343.389,5460.918a34.548,34.548,0,0,1-4.93-3.172l-.291-.205.155.045a32.087,32.087,0,0,1-5.506.018,31.449,31.449,0,0,1,5.483-.517l.085,0,.071.049.292.206A34.513,34.513,0,0,1,343.389,5460.918Z" transform="translate(-332.818 -5457.083)"/><g transform="translate(4.206 4.063)"><path class="f" d="M336.674,5462.942c-.138,0-.264-.534-.281-1.2s.081-1.208.219-1.209.264.531.281,1.2S336.811,5462.938,336.674,5462.942Z" transform="translate(-336.39 -5460.535)"/></g></g><g transform="translate(20.056 1.568)"><g transform="translate(0 0.519)"><path class="e" d="M341.414,5459.724l4.246,3.641-.018-2.6-4.491-3.356Z" transform="translate(-341.151 -5457.413)"/></g><g transform="translate(0 0.259)"><path class="f" d="M345.6,5460.975l6.123-.207-4.928-3.576-5.643.259Z" transform="translate(-341.151 -5457.192)"/></g><g transform="translate(4.448 3.835)"><path class="e" d="M344.929,5460.437l.06,2.429,5.981-.389.081-2.248Z" transform="translate(-344.929 -5460.229)"/></g><g transform="translate(0.001)"><path class="e" d="M351.721,5460.807a34.705,34.705,0,0,1-4.93-3.17l-.291-.208.155.046a31.614,31.614,0,0,1-5.505.016,31.536,31.536,0,0,1,5.482-.514l.086-.006.071.051.291.2A34.391,34.391,0,0,1,351.721,5460.807Z" transform="translate(-341.151 -5456.972)"/></g><g transform="translate(4.205 4.063)"><path class="f" d="M345.006,5462.829c-.138,0-.264-.53-.281-1.2s.081-1.208.219-1.212.264.533.281,1.2S345.144,5462.828,345.006,5462.829Z" transform="translate(-344.723 -5460.422)"/></g></g><g transform="translate(30.271 1.276)"><g transform="translate(0 0.519)"><path class="e" d="M350.09,5459.475l4.246,3.64-.018-2.594-4.491-3.356Z" transform="translate(-349.827 -5457.165)"/></g><g transform="translate(0 0.259)"><path class="f" d="M354.275,5460.728l6.123-.207-4.928-3.577-5.643.261Z" transform="translate(-349.827 -5456.944)"/></g><g transform="translate(4.448 3.834)"><path class="e" d="M353.605,5460.188l.061,2.428,5.981-.387.082-2.249Z" transform="translate(-353.605 -5459.98)"/></g><g transform="translate(0)"><path class="e" d="M360.4,5460.559a34.375,34.375,0,0,1-4.931-3.171l-.291-.206.157.044a31.84,31.84,0,0,1-5.507.018,31.435,31.435,0,0,1,5.482-.515l.086-.006.071.052.291.2A34.436,34.436,0,0,1,360.4,5460.559Z" transform="translate(-349.827 -5456.723)"/></g><g transform="translate(4.205 4.063)"><path class="f" d="M353.682,5462.582c-.138,0-.264-.533-.281-1.2s.081-1.207.219-1.21.264.531.281,1.2S353.821,5462.578,353.682,5462.582Z" transform="translate(-353.399 -5460.174)"/></g></g><g transform="translate(40.631 1.019)"><g transform="translate(0 0.519)"><path class="e" d="M358.89,5459.257l4.246,3.641-.018-2.6-4.491-3.356Z" transform="translate(-358.627 -5456.946)"/></g><g transform="translate(0 0.259)"><path class="f" d="M363.075,5460.51l6.123-.208-4.928-3.577-5.643.26Z" transform="translate(-358.627 -5456.725)"/></g><g transform="translate(4.448 3.835)"><path class="e" d="M362.405,5459.971l.061,2.428,5.981-.388.082-2.249Z" transform="translate(-362.405 -5459.762)"/></g><g transform="translate(0)"><path class="e" d="M369.2,5460.34a34.6,34.6,0,0,1-4.931-3.172l-.291-.2.157.045a31.734,31.734,0,0,1-5.506.015,31.726,31.726,0,0,1,5.482-.514l.086,0,.071.049.291.205A34.565,34.565,0,0,1,369.2,5460.34Z" transform="translate(-358.627 -5456.505)"/></g><g transform="translate(4.206 4.063)"><path class="f" d="M362.482,5462.365c-.138,0-.264-.532-.28-1.2s.08-1.207.218-1.209.264.533.281,1.2S362.62,5462.361,362.482,5462.365Z" transform="translate(-362.199 -5459.957)"/></g></g><g transform="translate(50.524 0.556)"><g transform="translate(0 0.519)"><path class="e" d="M367.293,5458.865l4.246,3.642-.018-2.6-4.491-3.357Z" transform="translate(-367.03 -5456.553)"/></g><g transform="translate(0 0.259)"><path class="f" d="M371.478,5460.116l6.123-.208-4.928-3.577-5.643.26Z" transform="translate(-367.03 -5456.332)"/></g><g transform="translate(4.448 3.834)"><path class="e" d="M370.808,5459.577l.061,2.43,5.981-.388.081-2.249Z" transform="translate(-370.808 -5459.37)"/></g><g transform="translate(0)"><path class="e" d="M377.6,5459.948a34.73,34.73,0,0,1-4.931-3.172l-.291-.206.157.045a31.472,31.472,0,0,1-5.507.015,31.664,31.664,0,0,1,5.482-.512l.086-.005.071.049.291.2A34.429,34.429,0,0,1,377.6,5459.948Z" transform="translate(-367.03 -5456.113)"/></g><g transform="translate(4.205 4.063)"><path class="f" d="M370.885,5461.972c-.138,0-.264-.535-.281-1.2s.081-1.207.219-1.209.264.532.281,1.2S371.024,5461.967,370.885,5461.972Z" transform="translate(-370.602 -5459.564)"/></g></g><g transform="translate(60.195)"><g transform="translate(0 0.518)"><path class="e" d="M375.508,5458.391l4.246,3.641-.018-2.595-4.491-3.357Z" transform="translate(-375.244 -5456.08)"/></g><g transform="translate(0 0.258)"><path class="f" d="M379.693,5459.642l6.123-.208-4.928-3.576-5.643.262Z" transform="translate(-375.244 -5455.857)"/></g><g transform="translate(4.449 3.834)"><path class="e" d="M379.023,5459.1l.06,2.428,5.981-.387.081-2.248Z" transform="translate(-379.023 -5458.896)"/></g><path class="e" d="M385.815,5459.473a34.429,34.429,0,0,1-4.93-3.171l-.291-.206.155.046a31.783,31.783,0,0,1-5.506.017,31.742,31.742,0,0,1,5.483-.516l.085,0,.071.05.292.205A34.621,34.621,0,0,1,385.815,5459.473Z" transform="translate(-375.244 -5455.639)"/><g transform="translate(4.206 4.061)"><path class="f" d="M379.1,5461.5c-.138,0-.264-.533-.281-1.2s.08-1.207.219-1.211.264.535.281,1.2S379.238,5461.5,379.1,5461.5Z" transform="translate(-378.816 -5459.089)"/></g></g></g><g transform="translate(15.386 7.908)"><g transform="translate(0 1.892)"><g transform="translate(0 0.519)"><path class="e" d="M330.185,5465.8l4.246,3.64-.018-2.594-4.491-3.357Z" transform="translate(-329.922 -5463.492)"/></g><g transform="translate(0 0.258)"><path class="f" d="M334.37,5467.054l6.123-.208-4.928-3.577-5.643.261Z" transform="translate(-329.922 -5463.27)"/></g><g transform="translate(4.448 3.834)"><path class="e" d="M333.7,5466.516l.061,2.429,5.981-.388.081-2.249Z" transform="translate(-333.7 -5466.308)"/></g><g transform="translate(0.001)"><path class="e" d="M340.492,5466.887a34.6,34.6,0,0,1-4.93-3.172l-.291-.206.155.048a31.576,31.576,0,0,1-5.505.015,31.706,31.706,0,0,1,5.482-.515l.085,0,.072.049.291.2A34.505,34.505,0,0,1,340.492,5466.887Z" transform="translate(-329.922 -5463.053)"/></g><g transform="translate(4.205 4.062)"><path class="f" d="M333.777,5468.91c-.138,0-.264-.533-.281-1.2s.081-1.208.219-1.211.264.534.281,1.2S333.914,5468.906,333.777,5468.91Z" transform="translate(-333.493 -5466.5)"/></g></g><g transform="translate(10.246 1.699)"><g transform="translate(0 0.519)"><path class="e" d="M338.887,5465.64l4.246,3.642-.018-2.6-4.491-3.357Z" transform="translate(-338.624 -5463.329)"/></g><g transform="translate(0 0.259)"><path class="f" d="M343.072,5466.892l6.123-.208-4.928-3.576-5.643.26Z" transform="translate(-338.624 -5463.108)"/></g><g transform="translate(4.448 3.834)"><path class="e" d="M342.4,5466.353l.06,2.428,5.981-.387.081-2.249Z" transform="translate(-342.402 -5466.146)"/></g><g transform="translate(0)"><path class="e" d="M349.2,5466.723a34.5,34.5,0,0,1-4.931-3.171l-.291-.207.157.044a31.6,31.6,0,0,1-5.506.017,31.735,31.735,0,0,1,5.482-.514l.086,0,.071.05.291.206A34.5,34.5,0,0,1,349.2,5466.723Z" transform="translate(-338.624 -5462.889)"/></g><g transform="translate(4.206 4.063)"><path class="f" d="M342.479,5468.747c-.138,0-.264-.532-.28-1.2s.08-1.207.218-1.211.264.532.281,1.2S342.618,5468.744,342.479,5468.747Z" transform="translate(-342.196 -5466.339)"/></g></g><g transform="translate(20.055 1.569)"><g transform="translate(0 0.519)"><path class="e" d="M347.219,5465.53l4.246,3.64-.018-2.595-4.491-3.357Z" transform="translate(-346.956 -5463.219)"/></g><g transform="translate(0 0.258)"><path class="f" d="M351.4,5466.78l6.123-.208L352.6,5463l-5.643.261Z" transform="translate(-346.956 -5462.996)"/></g><g transform="translate(4.448 3.834)"><path class="e" d="M350.734,5466.242l.06,2.429,5.981-.389.081-2.248Z" transform="translate(-350.734 -5466.035)"/></g><path class="e" d="M357.527,5466.613a34.738,34.738,0,0,1-4.93-3.173l-.291-.206.155.046a31.418,31.418,0,0,1-5.506.015,32.1,32.1,0,0,1,5.482-.513l.086,0,.071.049.291.205A34.442,34.442,0,0,1,357.527,5466.613Z" transform="translate(-346.956 -5462.777)"/><g transform="translate(4.206 4.063)"><path class="f" d="M350.812,5468.636c-.139,0-.265-.532-.281-1.2s.08-1.207.218-1.208.264.532.281,1.2S350.949,5468.632,350.812,5468.636Z" transform="translate(-350.528 -5466.229)"/></g></g><g transform="translate(30.27 1.277)"><g transform="translate(0 0.519)"><path class="e" d="M355.9,5465.281l4.246,3.64-.018-2.595-4.491-3.356Z" transform="translate(-355.632 -5462.97)"/></g><g transform="translate(0 0.258)"><path class="f" d="M360.081,5466.533l6.123-.208-4.928-3.576-5.643.26Z" transform="translate(-355.632 -5462.749)"/></g><g transform="translate(4.449 3.834)"><path class="e" d="M359.41,5465.994l.06,2.429,5.981-.388.081-2.248Z" transform="translate(-359.41 -5465.787)"/></g><path class="e" d="M366.2,5466.366a34.579,34.579,0,0,1-4.93-3.173l-.291-.206.155.046a31.629,31.629,0,0,1-5.507.015,31.832,31.832,0,0,1,5.483-.515l.085,0,.071.05.292.2A34.421,34.421,0,0,1,366.2,5466.366Z" transform="translate(-355.632 -5462.53)"/><g transform="translate(4.206 4.062)"><path class="f" d="M359.488,5468.389c-.138,0-.264-.534-.281-1.2s.08-1.208.219-1.211.264.534.28,1.2S359.626,5468.384,359.488,5468.389Z" transform="translate(-359.204 -5465.979)"/></g></g><g transform="translate(40.631 1.021)"><g transform="translate(0 0.518)"><path class="e" d="M364.7,5465.063l4.246,3.642-.018-2.6-4.491-3.358Z" transform="translate(-364.432 -5462.751)"/></g><g transform="translate(0 0.258)"><path class="f" d="M368.881,5466.315l6.123-.209-4.928-3.575-5.643.259Z" transform="translate(-364.432 -5462.531)"/></g><g transform="translate(4.449 3.834)"><path class="e" d="M368.211,5465.775l.06,2.429,5.981-.388.081-2.249Z" transform="translate(-368.211 -5465.568)"/></g><path class="e" d="M375,5466.145a34.493,34.493,0,0,1-4.93-3.17l-.291-.207.155.047a31.711,31.711,0,0,1-5.506.015,31.861,31.861,0,0,1,5.483-.515l.085,0,.071.049.292.206A34.6,34.6,0,0,1,375,5466.145Z" transform="translate(-364.432 -5462.311)"/><g transform="translate(4.206 4.062)"><path class="f" d="M368.288,5468.17c-.138,0-.264-.533-.281-1.2s.08-1.208.219-1.212.264.534.28,1.2S368.426,5468.167,368.288,5468.17Z" transform="translate(-368.004 -5465.761)"/></g></g><g transform="translate(50.524 0.557)"><g transform="translate(0 0.519)"><path class="e" d="M373.1,5464.669l4.246,3.642-.018-2.6-4.491-3.356Z" transform="translate(-372.835 -5462.358)"/></g><g transform="translate(0 0.259)"><path class="f" d="M377.284,5465.922l6.123-.208-4.928-3.577-5.643.26Z" transform="translate(-372.835 -5462.137)"/></g><g transform="translate(4.449 3.835)"><path class="e" d="M376.614,5465.382l.061,2.429,5.981-.387.081-2.248Z" transform="translate(-376.614 -5465.176)"/></g><path class="e" d="M383.406,5465.751a34.32,34.32,0,0,1-4.929-3.17l-.291-.206.155.045a31.6,31.6,0,0,1-5.506.016,31.868,31.868,0,0,1,5.483-.514l.085,0,.071.049.291.2A34.739,34.739,0,0,1,383.406,5465.751Z" transform="translate(-372.835 -5461.917)"/><g transform="translate(4.206 4.063)"><path class="f" d="M376.691,5467.776c-.138,0-.264-.532-.281-1.2s.08-1.207.219-1.209.264.531.28,1.2S376.829,5467.772,376.691,5467.776Z" transform="translate(-376.407 -5465.369)"/></g></g><g transform="translate(60.196)"><g transform="translate(0 0.519)"><path class="e" d="M381.313,5464.2l4.246,3.641-.018-2.6-4.491-3.356Z" transform="translate(-381.05 -5461.885)"/></g><g transform="translate(0 0.259)"><path class="f" d="M385.5,5465.447l6.123-.208-4.928-3.574-5.643.259Z" transform="translate(-381.05 -5461.665)"/></g><g transform="translate(4.448 3.834)"><path class="e" d="M384.828,5464.91l.06,2.428,5.981-.388.081-2.249Z" transform="translate(-384.828 -5464.701)"/></g><g transform="translate(0)"><path class="e" d="M391.62,5465.278a34.583,34.583,0,0,1-4.93-3.171l-.291-.2.157.043a31.509,31.509,0,0,1-5.506.016,31.709,31.709,0,0,1,5.482-.514l.086,0,.071.048.291.206A34.512,34.512,0,0,1,391.62,5465.278Z" transform="translate(-381.05 -5461.444)"/></g><g transform="translate(4.206 4.063)"><path class="f" d="M384.9,5467.3c-.138,0-.264-.531-.28-1.2s.08-1.205.218-1.209.264.532.281,1.2S385.044,5467.3,384.9,5467.3Z" transform="translate(-384.622 -5464.896)"/></g></g></g><g transform="translate(0 2.998)"><path class="e" d="M435.908,5461.081l-85.73,4.665-11.383,10.765-21.941-19.236v5.581l22.728,21.784,12.546-12.2,85.089-5.073Z" transform="translate(-316.854 -5457.274)"/><g transform="translate(22.728 10.09)"><path class="e" d="M336.158,5483.119l77.46-4.531,20.175-12.743-87.135,3.417Z" transform="translate(-336.158 -5465.844)"/></g><g transform="translate(22.727 10.079)"><path class="f" d="M433.793,5465.845a.968.968,0,0,1-.263.042l-.776.071c-.721.056-1.719.13-2.986.226-2.633.174-6.375.426-10.985.734l-36.253,2.235c-13.008.751-24.882,1.438-33.816,1.956l.119-.054-9.23,8.861c-1.078,1.02-1.927,1.821-2.535,2.4l-.67.613a1.315,1.315,0,0,1-.241.2,1.3,1.3,0,0,1,.2-.235l.632-.652c.591-.593,1.416-1.418,2.465-2.468l9.115-8.982.049-.047.071,0c8.931-.548,20.8-1.279,33.807-2.08l36.262-2.089,10.994-.576c1.27-.057,2.27-.1,2.992-.131l.778-.021A1.108,1.108,0,0,1,433.793,5465.845Z" transform="translate(-336.158 -5465.835)"/></g><g transform="translate(33.295 8.471)"><path class="f" d="M347.112,5471.161a24.35,24.35,0,0,1-1.95-6.692,24.44,24.44,0,0,1,1.95,6.692Z" transform="translate(-345.133 -5464.468)"/></g></g></g><g transform="translate(280.251 75.739)"><g transform="translate(6.698 1.312)"><path class="f" d="M439.3,5371.756l-76.944-14.729a4.335,4.335,0,0,1-3.445-5.076l24.76-129.359a6.161,6.161,0,0,1,7.211-4.893l73.362,14.039a6.166,6.166,0,0,1,4.894,7.213L444.379,5368.31A4.337,4.337,0,0,1,439.3,5371.756Z" transform="translate(-358.835 -5217.588)"/></g><g class="h" transform="translate(6.637 1.291)"><path d="M439.251,5371.74l-76.944-14.728a4.34,4.34,0,0,1-3.446-5.078l24.761-129.359a6.163,6.163,0,0,1,7.211-4.894l73.362,14.042a6.164,6.164,0,0,1,4.894,7.211l-24.761,129.361A4.338,4.338,0,0,1,439.251,5371.74Z" transform="translate(-358.783 -5217.57)"/></g><path class="f" d="M433.614,5370.643l-76.944-14.727a4.34,4.34,0,0,1-3.446-5.078l24.761-129.359a6.162,6.162,0,0,1,7.211-4.893l73.36,14.042a6.163,6.163,0,0,1,4.9,7.211L438.691,5367.2A4.337,4.337,0,0,1,433.614,5370.643Z" transform="translate(-353.146 -5216.475)"/><g transform="translate(14.526 109.475)"><g transform="translate(0 0)"><rect class="f" width="29.35" height="12.967" rx="2.42" transform="translate(2.438 0) rotate(10.836)"/></g></g><g class="i" transform="translate(14.526 109.475)"><g transform="translate(0 0)"><rect width="29.35" height="12.967" rx="2.42" transform="translate(2.438 0) rotate(10.836)"/></g></g><g transform="translate(24.405 13.994)"><g transform="translate(0.141 0.147)"><g transform="translate(0 0)"><rect class="b" width="29.183" height="74.396" transform="translate(0 28.663) rotate(-79.164)"/></g></g><path class="e" d="M447.085,5271.156s.028-.177.09-.512.154-.836.274-1.484c.245-1.307.605-3.224,1.069-5.7.935-4.942,2.288-12.1,3.968-20.985l.069.1-73.071-13.948h-.006l.147-.1c-1.92,10.024-3.776,19.709-5.491,28.662l-.1-.142,52.356,10.079c6.488,1.256,11.655,2.258,15.2,2.945,1.772.345,3.14.613,4.071.793l1.053.21c.238.048.361.077.361.077s-.115-.017-.35-.059l-1.042-.192-4.051-.761-15.189-2.873-52.46-9.982-.118-.023.022-.118c1.712-8.953,3.564-18.638,5.482-28.664l.024-.124.124.023,0,0,73.057,14.021.086.017-.017.085c-1.724,8.9-3.113,16.068-4.071,21.019-.48,2.462-.854,4.37-1.108,5.671l-.29,1.464C447.122,5270.993,447.085,5271.156,447.085,5271.156Z" transform="translate(-373.875 -5228.361)"/></g><g transform="translate(22.147 54.648)"><g transform="translate(1.918 0.367)"><g transform="translate(0 0)"><rect class="f" width="12.645" height="12.645" rx="2.082" transform="translate(2.377 0) rotate(10.835)"/></g></g><g class="i" transform="translate(1.918 0.367)"><g transform="translate(0 0)"><rect width="12.645" height="12.645" rx="2.082" transform="translate(2.377 0) rotate(10.835)"/></g></g><g transform="translate(0 0)"><g transform="translate(0 0)"><rect class="e" width="12.645" height="12.645" rx="2.082" transform="translate(2.377 0) rotate(10.836)"/></g></g><g transform="translate(6.363 4.494)"><path class="j" d="M379.779,5267.136l-.99,5.175-1.2-.229.808-4.216-1.036-.2.185-.96Z" transform="translate(-377.362 -5266.708)"/></g></g><g transform="translate(39.466 57.962)"><g transform="translate(1.918 0.367)"><g transform="translate(0 0)"><rect class="f" width="12.645" height="12.645" rx="2.082" transform="translate(2.377 0) rotate(10.836)"/></g></g><g class="i" transform="translate(1.918 0.367)"><g transform="translate(0 0)"><rect width="12.645" height="12.645" rx="2.082" transform="translate(2.377 0) rotate(10.836)"/></g></g><g transform="translate(0 0)"><g transform="translate(0 0)"><rect class="e" width="12.645" height="12.645" rx="2.082" transform="translate(2.377 0) rotate(10.836)"/></g></g><g transform="translate(5.75 4.732)"><path class="j" d="M395.649,5274.473l-.187.976-3.911-.749.148-.776,2.358-1.5c.542-.349.673-.6.722-.851.078-.406-.158-.7-.705-.8a1.289,1.289,0,0,0-1.171.313l-.764-.73a2.449,2.449,0,0,1,2.239-.567c1.153.22,1.81.959,1.629,1.9a2.108,2.108,0,0,1-1.177,1.467l-1.406.9Z" transform="translate(-391.551 -5269.725)"/></g></g><g transform="translate(57.421 61.399)"><g transform="translate(1.918 0.367)"><g transform="translate(0 0)"><rect class="f" width="12.645" height="12.645" rx="2.082" transform="translate(2.377 0) rotate(10.836)"/></g></g><g class="i" transform="translate(1.918 0.367)"><g transform="translate(0 0)"><rect width="12.645" height="12.645" rx="2.082" transform="translate(2.377 0) rotate(10.836)"/></g></g><g transform="translate(0 0)"><g transform="translate(0 0)"><rect class="e" width="12.645" height="12.645" rx="2.082" transform="translate(2.377 0) rotate(10.836)"/></g></g><g transform="translate(5.588 4.533)"><path class="j" d="M410.995,5276.807c-.166.873-.993,1.542-2.463,1.261a3.628,3.628,0,0,1-1.868-.933l.642-.828a2.562,2.562,0,0,0,1.389.75c.6.115,1.015-.059,1.1-.479.075-.392-.167-.693-.847-.822l-.547-.1.151-.791,1.3-1-2.2-.421.184-.96,3.624.693-.148.776-1.423,1.108A1.5,1.5,0,0,1,410.995,5276.807Z" transform="translate(-406.663 -5272.475)"/></g></g><g transform="translate(75.419 64.839)"><g transform="translate(1.874 0.363)"><g transform="translate(0 0)"><rect class="f" width="12.645" height="12.645" rx="2.082" transform="translate(2.377 0) rotate(10.836)"/></g></g><g class="i" transform="translate(1.874 0.363)"><g transform="translate(0 0)"><rect width="12.645" height="12.645" rx="2.082" transform="translate(2.377 0) rotate(10.836)"/></g></g><g transform="translate(0 0)"><g transform="translate(0 0)"><rect class="e" width="12.645" height="12.645" rx="2.082" transform="translate(2.377 0) rotate(10.836)"/></g></g><g transform="translate(4.543 3.854)"><g transform="translate(0 2.566)"><g transform="translate(0 0)"><rect class="j" width="0.483" height="5.647" transform="translate(0 0.474) rotate(-79.163)"/></g></g><g transform="translate(2.365)"><path class="j" d="M424.887,5275.906a.916.916,0,1,1-.728-1.07A.916.916,0,0,1,424.887,5275.906Z" transform="translate(-423.072 -5274.819)"/></g><g transform="translate(1.44 4.836)"><path class="j" d="M424.1,5280.017a.915.915,0,1,1-.726-1.072A.914.914,0,0,1,424.1,5280.017Z" transform="translate(-422.286 -5278.928)"/></g></g></g><g transform="translate(18.665 72.841)"><g class="i" transform="translate(2.141 0.592)"><path d="M381.723,5293.172l-9.835-1.883a1.316,1.316,0,0,1-1.045-1.54l1.883-9.833a1.316,1.316,0,0,1,1.54-1.046l9.836,1.882a1.3,1.3,0,0,1,1.044,1.541l-1.881,9.834A1.317,1.317,0,0,1,381.723,5293.172Z" transform="translate(-370.818 -5278.846)"/></g><g transform="translate(0 0)"><rect class="e" width="12.645" height="12.645" rx="2.082" transform="translate(2.377 0) rotate(10.836)"/></g><g transform="translate(4.71 4.759)"><path class="j" d="M377.8,5286.927l-.844-.162-.208,1.087-1.168-.224.208-1.086-2.788-.534.154-.806,3.069-2.816,1.256.241-2.859,2.68,1.39.265.185-.968,1.131.217-.185.968.843.162Z" transform="translate(-373 -5282.385)"/></g></g><g transform="translate(35.984 76.157)"><g transform="translate(1.918 0.367)"><g transform="translate(0 0)"><rect class="f" width="12.645" height="12.645" rx="2.082" transform="translate(2.377 0) rotate(10.836)"/></g></g><g class="i" transform="translate(1.918 0.367)"><g transform="translate(0 0)"><rect width="12.645" height="12.645" rx="2.082" transform="translate(2.377 0) rotate(10.836)"/></g></g><g transform="translate(0 0)"><g transform="translate(0 0)"><rect class="e" width="12.645" height="12.645" rx="2.082" transform="translate(2.377 0) rotate(10.836)"/></g></g><g transform="translate(5.053 4.505)"><path class="j" d="M392.349,5289.2c-.175.916-1,1.585-2.481,1.3a3.63,3.63,0,0,1-1.867-.933l.649-.825a2.532,2.532,0,0,0,1.382.747c.6.115,1.016-.066,1.1-.487s-.138-.725-1.076-.9l-1.323-.252.823-2.863,3.158.6-.184.962-2.159-.413-.27.966.422.082C392.05,5287.48,392.524,5288.284,392.349,5289.2Z" transform="translate(-388.001 -5284.986)"/></g></g><g transform="translate(53.938 79.593)"><g transform="translate(1.918 0.367)"><g transform="translate(0 0)"><rect class="f" width="12.645" height="12.645" rx="2.082" transform="translate(2.377 0) rotate(10.836)"/></g></g><g class="i" transform="translate(1.918 0.367)"><g transform="translate(0 0)"><rect width="12.645" height="12.645" rx="2.082" transform="translate(2.377 0) rotate(10.836)"/></g></g><g transform="translate(0 0)"><g transform="translate(0 0)"><rect class="e" width="12.645" height="12.645" rx="2.082" transform="translate(2.377 0) rotate(10.835)"/></g></g><g transform="translate(5.577 4.777)"><path class="j" d="M407.884,5292.14a1.812,1.812,0,0,1-2.29,1.348c-1.426-.273-2.143-1.338-1.823-3.01a2.565,2.565,0,0,1,3.174-2.281,2.834,2.834,0,0,1,1.373.631l-.612.795a1.741,1.741,0,0,0-.919-.445,1.4,1.4,0,0,0-1.742,1.224,1.777,1.777,0,0,1,1.366-.215A1.672,1.672,0,0,1,407.884,5292.14Zm-1.173-.164a.8.8,0,0,0-.731-.945.825.825,0,0,0-1.043.606c-.085.444.186.833.762.944A.788.788,0,0,0,406.711,5291.976Z" transform="translate(-403.696 -5288.135)"/></g></g><g transform="translate(71.892 83.03)"><g transform="translate(1.918 0.367)"><g transform="translate(0 0)"><rect class="f" width="12.645" height="12.645" rx="2.082" transform="translate(2.377 0) rotate(10.835)"/></g></g><g class="i" transform="translate(1.918 0.367)"><g transform="translate(0 0)"><rect width="12.645" height="12.645" rx="2.082" transform="translate(2.377 0) rotate(10.835)"/></g></g><g transform="translate(0 0)"><g transform="translate(0 0)"><rect class="e" width="12.645" height="12.645" rx="2.082" transform="translate(2.377 0) rotate(10.835)"/></g></g><g transform="translate(4.906 4.927)"><g transform="translate(0 0.719)"><g transform="translate(0 0)"><rect class="j" width="5.647" height="0.483" transform="matrix(0.836, -0.549, 0.549, 0.836, 0, 3.1)"/></g></g><g transform="translate(0.707 0)"><g transform="translate(0)"><rect class="j" width="0.483" height="5.647" transform="translate(0 0.271) rotate(-34.17)"/></g></g></g></g><g transform="translate(15.211 90.888)"><g transform="translate(1.918 0.367)"><g transform="translate(0 0)"><rect class="f" width="12.645" height="12.645" rx="2.082" transform="translate(2.377 0) rotate(10.835)"/></g></g><g class="i" transform="translate(1.918 0.367)"><g transform="translate(0 0)"><rect width="12.645" height="12.645" rx="2.082" transform="translate(2.377 0) rotate(10.835)"/></g></g><g transform="translate(0 0)"><g transform="translate(0 0)"><rect class="e" width="12.645" height="12.645" rx="2.082" transform="translate(2.377 0) rotate(10.835)"/></g></g><g transform="translate(5.108 4.285)"><path class="j" d="M374.9,5298.1l-.148.777-2.764,4.032-1.3-.25,2.66-3.845-1.714-.328-.161.843-1.065-.2.349-1.819Z" transform="translate(-370.404 -5297.311)"/></g></g><g transform="translate(32.53 94.203)"><g transform="translate(1.918 0.367)"><g transform="translate(0 0)"><rect class="f" width="12.646" height="12.645" rx="2.082" transform="translate(2.377 0) rotate(10.836)"/></g></g><g class="i" transform="translate(1.918 0.367)"><g transform="translate(0 0)"><rect width="12.646" height="12.645" rx="2.082" transform="translate(2.377 0) rotate(10.836)"/></g></g><g transform="translate(0 0)"><g transform="translate(0 0)"><rect class="e" width="12.645" height="12.645" rx="2.082" transform="translate(2.377 0) rotate(10.836)"/></g></g><g transform="translate(5.407 4.682)"><path class="j" d="M389.76,5304.707c-.187.976-1.177,1.423-2.494,1.171s-2.056-1.029-1.87-2.005a1.344,1.344,0,0,1,1.018-1.071,1.215,1.215,0,0,1-.4-1.18c.174-.909,1.1-1.323,2.272-1.1,1.19.228,1.894.954,1.72,1.863a1.222,1.222,0,0,1-.81.948A1.337,1.337,0,0,1,389.76,5304.707Zm-1.206-.269c.087-.458-.236-.812-.835-.926s-1.015.1-1.1.556.227.816.818.929S388.466,5304.9,388.554,5304.438ZM387.2,5301.9c-.074.393.19.7.678.789s.86-.089.935-.48-.2-.714-.689-.807S387.277,5301.5,387.2,5301.9Z" transform="translate(-385.368 -5300.464)"/></g></g><g transform="translate(50.484 97.639)"><g transform="translate(1.918 0.367)"><g transform="translate(0 0)"><rect class="f" width="12.645" height="12.645" rx="2.082" transform="translate(2.377 0) rotate(10.836)"/></g></g><g class="i" transform="translate(1.918 0.367)"><g transform="translate(0 0)"><rect width="12.645" height="12.645" rx="2.082" transform="translate(2.377 0) rotate(10.836)"/></g></g><g transform="translate(0 0)"><g transform="translate(0 0)"><rect class="e" width="12.645" height="12.645" rx="2.082" transform="translate(2.377 0) rotate(10.836)"/></g></g><g transform="translate(5.288 4.633)"><path class="j" d="M405.057,5306.4a2.562,2.562,0,0,1-3.173,2.283,2.807,2.807,0,0,1-1.367-.63l.612-.8a1.688,1.688,0,0,0,.919.445,1.4,1.4,0,0,0,1.745-1.229,1.8,1.8,0,0,1-1.375.219,1.671,1.671,0,0,1-1.474-1.953,1.813,1.813,0,0,1,2.289-1.349C404.668,5303.663,405.377,5304.726,405.057,5306.4Zm-1.165-1.159a.805.805,0,0,0-.755-.94.787.787,0,0,0-1.012.6.8.8,0,0,0,.731.945A.817.817,0,0,0,403.891,5305.238Z" transform="translate(-400.517 -5303.341)"/></g></g><g transform="translate(68.438 101.075)"><g transform="translate(1.918 0.367)"><g transform="translate(0 0)"><rect class="f" width="12.645" height="12.645" rx="2.082" transform="translate(2.377 0) rotate(10.836)"/></g></g><g class="i" transform="translate(1.918 0.367)"><g transform="translate(0 0)"><rect width="12.645" height="12.645" rx="2.082" transform="translate(2.377 0) rotate(10.836)"/></g></g><g transform="translate(0 0)"><g transform="translate(0 0)"><rect class="e" width="12.645" height="12.645" rx="2.082" transform="translate(2.377 0) rotate(10.836)"/></g></g><g transform="translate(4.58 6.632)"><g transform="translate(0 0)"><g transform="translate(0)"><rect class="j" width="0.483" height="5.647" transform="translate(0 0.474) rotate(-79.169)"/></g></g></g></g><g transform="translate(47 115.843)"><g transform="translate(1.918 0.367)"><g transform="translate(0 0)"><rect class="f" width="12.645" height="12.645" rx="2.082" transform="translate(2.377 0) rotate(10.836)"/></g></g><g class="i" transform="translate(1.918 0.367)"><g transform="translate(0 0)"><rect width="12.645" height="12.645" rx="2.082" transform="translate(2.377 0) rotate(10.836)"/></g></g><g transform="translate(0 0)"><g transform="translate(0 0)"><rect class="e" width="12.645" height="12.645" rx="2.082" transform="translate(2.377 0) rotate(10.836)"/></g></g></g><g transform="translate(64.954 119.279)"><g transform="translate(1.918 0.367)"><g transform="translate(0 0)"><rect class="g" width="12.646" height="12.645" rx="2.082" transform="translate(2.377 0) rotate(10.836)"/></g></g><g class="h" transform="translate(1.918 0.367)"><g transform="translate(0 0)"><rect width="12.646" height="12.645" rx="2.082" transform="translate(2.377 0) rotate(10.836)"/></g></g><g transform="translate(0 0)"><g transform="translate(0 0)"><rect class="g" width="12.645" height="12.645" rx="2.082" transform="translate(2.377 0) rotate(10.836)"/></g></g><g transform="translate(4.307 5.947)"><g transform="translate(0.404 0)"><g transform="translate(0)"><g transform="translate(0)"><rect class="j" width="0.482" height="5.647" transform="translate(0 0.474) rotate(-79.17)"/></g></g></g><g transform="translate(0 2.111)"><g transform="translate(0 0)"><g transform="translate(0)"><rect class="j" width="0.482" height="5.647" transform="translate(0 0.474) rotate(-79.17)"/></g></g></g></g></g><g transform="translate(11.045 108.808)"><g transform="translate(0 0)"><path class="e" d="M2.5,0H28.023a2.5,2.5,0,0,1,2.5,2.5v7.966a2.5,2.5,0,0,1-2.5,2.5H2.5a2.5,2.5,0,0,1-2.5-2.5V2.5A2.5,2.5,0,0,1,2.5,0Z" transform="translate(2.438 0) rotate(10.836)"/></g></g><g transform="translate(26.085 115.286)"><path class="j" d="M375.377,5316.689c.327-1.708,1.46-2.5,2.73-2.252s2.033,1.394,1.707,3.1-1.452,2.5-2.732,2.253S375.051,5318.4,375.377,5316.689Zm3.232.62c.225-1.176-.1-1.744-.695-1.858s-1.1.3-1.323,1.471.1,1.743.686,1.856S378.384,5318.483,378.609,5317.309Z" transform="translate(-375.302 -5314.394)"/></g><g transform="translate(51.58 120.428)"><g transform="translate(2.011 0)"><g transform="translate(0)"><rect class="j" width="5.647" height="0.482" transform="translate(0 5.53) rotate(-78.31)"/></g></g><g transform="translate(0 2.046)"><g transform="translate(0 0)"><rect class="j" width="0.482" height="5.647" transform="translate(0 0.474) rotate(-79.167)"/></g></g></g><g transform="translate(54.305 33.801)"><path class="e" d="M401.647,5245.626l-1.481,7.737-.365-.07,1.416-7.4-1.946-.372.066-.342Z" transform="translate(-399.271 -5245.184)"/><g transform="translate(2.774 1.132)"><path class="e" d="M406.932,5254.215l-.066.342-5.239-1,.051-.267,3.956-2.7c1.133-.769,1.44-1.294,1.56-1.924.2-1.029-.394-1.83-1.744-2.088a2.91,2.91,0,0,0-2.5.485l-.207-.292a3.328,3.328,0,0,1,2.783-.533c1.482.283,2.275,1.225,2.036,2.474-.139.73-.494,1.327-1.706,2.15l-3.6,2.46Z" transform="translate(-401.627 -5246.146)"/></g><g transform="translate(8.862 1.978)"><path class="e" d="M412.308,5253.423c-.246,1.282-1.327,2.016-3.028,1.69a3.552,3.552,0,0,1-2.482-1.588l.25-.227a3.265,3.265,0,0,0,2.286,1.469c1.481.284,2.395-.3,2.609-1.415s-.4-1.99-2.036-2.3l-.431-.083.051-.265,3.012-2.678-4.268-.818.066-.343,4.754.911-.052.265-3.023,2.688C411.829,5251.072,412.555,5252.129,412.308,5253.423Z" transform="translate(-406.798 -5246.864)"/></g><g transform="translate(15.503 3.975)"><path class="e" d="M418.929,5254.49l-1.68-.322-.427,2.234-.365-.07.427-2.233-4.444-.852.051-.264,5.283-4.423.431.084-5.213,4.366,3.957.756.377-1.968.365.07-.377,1.967,1.681.322Z" transform="translate(-412.439 -5248.56)"/></g><g transform="translate(22.328 11.711)"><path class="e" d="M419.35,5255.572a2.288,2.288,0,0,1-.145.4l-.682,1.406-.287-.055.635-1.461a.374.374,0,0,1-.251-.426.368.368,0,0,1,.434-.294A.376.376,0,0,1,419.35,5255.572Z" transform="translate(-418.236 -5255.13)"/></g><g transform="translate(24.789 5.752)"><path class="e" d="M426.816,5256l-1.68-.323-.427,2.233-.365-.07.427-2.233-4.445-.85.051-.265,5.282-4.422.431.082-5.213,4.367,3.958.757.377-1.967.365.07-.377,1.968,1.68.322Z" transform="translate(-420.326 -5250.069)"/></g><g transform="translate(31.49 6.436)"><path class="e" d="M431.547,5257.041c-.241,1.259-1.3,2.065-3.059,1.729a3.551,3.551,0,0,1-2.47-1.584l.26-.226a3.236,3.236,0,0,0,2.275,1.468c1.515.29,2.408-.365,2.618-1.458.228-1.2-.345-2.039-2.556-2.461l-1.5-.289,1.108-3.569,3.991.762-.066.344-3.682-.7-.9,2.9,1.194.229C431.124,5254.632,431.808,5255.668,431.547,5257.041Z" transform="translate(-426.018 -5250.65)"/></g></g></g><g transform="translate(0.997 12.297)"><g transform="translate(0.25 0.251)"><rect class="b" width="214.057" height="142.746"/></g><g transform="translate(39.974 51.323)"><rect class="g" width="35.217" height="14.127"/></g><g transform="translate(145.624 51.323)"><rect class="g" width="35.217" height="14.127"/></g><g transform="translate(145.624 79.382)"><rect class="g" width="35.217" height="14.127"/></g><g transform="translate(145.624 93.412)"><rect class="g" width="35.217" height="14.127"/></g><g transform="translate(75.191 79.635)"><rect class="f" width="35.217" height="14.127"/></g><g transform="translate(110.35 93.934)"><rect class="f" width="35.217" height="14.127"/></g><g transform="translate(75.191 121.958)"><rect class="a" width="35.217" height="14.699"/></g><g transform="translate(145.624 122.155)"><rect class="g" width="35.217" height="14.127"/></g><g transform="translate(17.659 37.517)"><rect class="c" width="190.145" height="13.806"/></g><g transform="translate(6.158 37.037)"><rect class="c" width="33.336" height="99.437" transform="translate(0.48 0.48)"/><path class="c" d="M155.483,5294.443h-34.3v-100.4h34.3Zm-33.337-.96h32.376v-98.477H122.147Z" transform="translate(-121.186 -5194.047)"/></g><g transform="translate(0.25 0.251)"><rect class="g" width="214.057" height="16.194"/></g><g transform="translate(7.017 22.347)"><rect class="a" width="32.958" height="9.268"/></g><g transform="translate(43.833 22.347)"><rect class="a" width="31.783" height="9.268"/></g><g transform="translate(78.691 22.347)"><rect class="a" width="31.783" height="9.268"/></g><g transform="translate(113.549 22.347)"><rect class="a" width="31.783" height="9.268"/></g><g transform="translate(148.408 22.347)"><rect class="a" width="31.783" height="9.268"/></g><g transform="translate(183.266 22.347)"><rect class="a" width="26.125" height="9.268"/></g><g transform="translate(6.453 37.267)"><path class="e" d="M121.622,5293.633s.337-.009.984-.014l2.873-.014c2.534-.008,6.271-.017,11.121-.031l41.666-.063c35.606-.029,85.867-.067,144.521-.113l-.235.235c0-30.661-.009-64.2-.014-99.125v-.014l.25.25-201.166-.065.185-.184c-.041,30.556-.075,55.319-.1,72.452-.02,8.573-.035,15.236-.046,19.764-.009,2.259-.015,3.985-.02,5.155s-.02,1.769-.02,1.769-.013-.58-.019-1.732-.012-2.875-.021-5.121c-.011-4.518-.026-11.167-.046-19.722-.024-17.159-.058-41.961-.1-72.565v-.186h.185c52.639-.017,123.449-.038,201.166-.065h.251v.265c0,34.927-.009,68.465-.014,99.125v.236h-.237l-144.679-.113c-17.793-.028-31.924-.05-41.613-.064l-11.072-.031c-1.249-.005-2.2-.012-2.846-.014S121.622,5293.633,121.622,5293.633Z" transform="translate(-121.437 -5194.242)"/></g><g transform="translate(7.017 51.073)"><path class="e" d="M323.082,5206.218c0,.138-45.036.25-100.578.25-55.561,0-100.588-.112-100.588-.25s45.026-.25,100.588-.25C278.046,5205.968,323.082,5206.082,323.082,5206.218Z" transform="translate(-121.916 -5205.968)"/></g><g transform="translate(7.017 65.2)"><path class="e" d="M323.082,5218.218c0,.138-45.036.25-100.578.25-55.561,0-100.588-.112-100.588-.25s45.026-.25,100.588-.25C278.046,5217.968,323.082,5218.079,323.082,5218.218Z" transform="translate(-121.916 -5217.968)"/></g><g transform="translate(7.017 79.327)"><path class="e" d="M323.082,5230.216c0,.138-45.036.251-100.578.251-55.561,0-100.588-.113-100.588-.251s45.026-.25,100.588-.25C278.046,5229.966,323.082,5230.078,323.082,5230.216Z" transform="translate(-121.916 -5229.966)"/></g><g transform="translate(7.017 93.454)"><path class="e" d="M323.082,5242.215c0,.137-45.036.25-100.578.25-55.561,0-100.588-.113-100.588-.25s45.026-.25,100.588-.25C278.046,5241.966,323.082,5242.077,323.082,5242.215Z" transform="translate(-121.916 -5241.966)"/></g><g transform="translate(7.017 107.581)"><path class="e" d="M323.082,5254.213c0,.14-45.036.251-100.578.251-55.561,0-100.588-.112-100.588-.251s45.026-.25,100.588-.25C278.046,5253.964,323.082,5254.077,323.082,5254.213Z" transform="translate(-121.916 -5253.964)"/></g><g transform="translate(7.017 121.708)"><path class="e" d="M323.082,5266.214c0,.138-45.036.251-100.578.251-55.561,0-100.588-.113-100.588-.251s45.026-.25,100.588-.25C278.046,5265.963,323.082,5266.076,323.082,5266.214Z" transform="translate(-121.916 -5265.963)"/></g><g transform="translate(35.808 37.847)"><path class="k" d="M146.37,5194.734" transform="translate(-146.37 -5194.734)"/></g><g transform="translate(39.725 38.073)"><path class="e" d="M149.947,5293.807c-.138,0-.25-22.138-.25-49.438s.112-49.442.25-49.442.25,22.132.25,49.442S150.084,5293.807,149.947,5293.807Z" transform="translate(-149.697 -5194.927)"/></g><g transform="translate(74.942 38.073)"><path class="e" d="M179.859,5293.51c-.138,0-.25-22.07-.25-49.29s.112-49.294.25-49.294.25,22.066.25,49.294S180,5293.51,179.859,5293.51Z" transform="translate(-179.609 -5194.927)"/></g><g transform="translate(110.158 38.073)"><path class="e" d="M209.771,5293.807c-.138,0-.25-22.138-.25-49.438s.112-49.442.25-49.442.25,22.132.25,49.442S209.908,5293.807,209.771,5293.807Z" transform="translate(-209.521 -5194.927)"/></g><g transform="translate(145.375 38.073)"><path class="e" d="M239.683,5293.807c-.138,0-.25-22.138-.25-49.438s.112-49.442.25-49.442.25,22.132.25,49.442S239.82,5293.807,239.683,5293.807Z" transform="translate(-239.433 -5194.927)"/></g><g transform="translate(180.592 38.073)"><path class="e" d="M269.595,5293.807c-.138,0-.25-22.138-.25-49.438s.112-49.442.25-49.442.25,22.132.25,49.442S269.732,5293.807,269.595,5293.807Z" transform="translate(-269.345 -5194.927)"/></g><g transform="translate(8.679 6.246)"><path class="j" d="M127.412,5170a2.043,2.043,0,1,1-2.041-2.1A2.074,2.074,0,0,1,127.412,5170Z" transform="translate(-123.328 -5167.894)"/></g><g transform="translate(15.617 6.246)"><path class="j" d="M133.3,5170a2.042,2.042,0,1,1-2.041-2.1A2.073,2.073,0,0,1,133.3,5170Z" transform="translate(-129.221 -5167.894)"/></g><g transform="translate(22.554 6.246)"><path class="j" d="M139.2,5170a2.043,2.043,0,1,1-2.042-2.1A2.073,2.073,0,0,1,139.2,5170Z" transform="translate(-135.113 -5167.894)"/></g><path class="e" d="M330.262,5305.586c0-1.63-.078-55.783-.2-142.748l.2.2-214.039.052h-.018l.25-.252c-.007,50.838-.014,99.188-.02,142.748l-.23-.229,154.244.112c18.882.025,33.824.047,44.051.062l11.71.028,3.02.014c.679,0,1.031.015,1.031.015s-.334.009-1,.012l-2.994.015-11.664.026c-10.216.013-25.14.036-44,.063-37.775.027-91.313.067-154.395.111h-.23v-.229c-.006-43.56-.013-91.909-.02-142.748v-.25h.267c80.678.021,155.106.037,214.039.05h.2v.2C330.341,5249.8,330.265,5303.957,330.262,5305.586Z" transform="translate(-115.956 -5162.589)"/></g><g transform="translate(12.742 42.056)"><g transform="translate(46.879 139.318)"><g transform="translate(81.195)"><path class="g" d="M292.116,5306.2l-11.1,13.793-46.3,12.89,6.916,74.786c2.133,29.312,5.133,36.5,7.2,55.988v15.89h131.5l18.358-151.817L353.343,5317.3l-9.755-11.1Z" transform="translate(-234.714 -5306.198)"/></g><g transform="translate(136.633 15.548)"><path class="j" d="M281.8,5330.563l5.664,74.89,6.056,38.015L337.978,5319.4l-35.862,42.5Z" transform="translate(-281.801 -5319.403)"/></g><g transform="translate(147.71 11.101)"><path class="e" d="M291.21,5449.485a2.284,2.284,0,0,1,.174-.363c.137-.255.32-.6.556-1.043.512-.934,1.244-2.272,2.182-3.987,1.927-3.475,4.693-8.464,8.1-14.619l26.9-48.139,14.666-26.122.052.289-6.382-5.394-.235-.2.264-.155c3.22-1.9,6.262-3.692,9.1-5.362l-.093.19c-.994-8.857-1.806-16.085-2.371-21.129-.267-2.49-.476-4.438-.622-5.792-.062-.646-.112-1.149-.147-1.514-.031-.342-.032-.52-.032-.52s.04.174.089.513q.073.545.2,1.507c.17,1.351.414,3.3.725,5.781.606,5.038,1.475,12.261,2.541,21.109l.014.125-.108.064-9.071,5.4.029-.354,6.4,5.373.146.122-.093.167c-4.489,8.019-9.439,16.862-14.633,26.141-10.55,18.761-20.1,35.746-27.031,48.068-3.471,6.122-6.284,11.084-8.243,14.542-.974,1.692-1.733,3.016-2.264,3.941-.254.43-.452.768-.6,1.018A2.384,2.384,0,0,1,291.21,5449.485Z" transform="translate(-291.209 -5315.626)"/></g><g transform="translate(119.89 13.793)"><path class="e" d="M295.4,5449.082a2.029,2.029,0,0,1-.128-.351c-.08-.259-.188-.606-.326-1.046l-1.207-4.036c-1.034-3.537-2.517-8.609-4.348-14.866-1.8-6.29-4.038-13.733-6.336-22.089-2.143-8.386-4.187-17.67-6.348-27.413-2.932-13.362-5.582-25.875-7.783-36.464l-.039-.183.177-.062,6.057-2.119-.026.363-7.374-3.907-.139-.074.058-.144c2.317-5.819,4.185-10.512,5.486-13.778.646-1.6,1.151-2.843,1.506-3.716l.4-.961a2.023,2.023,0,0,1,.152-.32,1.822,1.822,0,0,1-.106.338c-.088.242-.206.567-.357.978-.334.881-.811,2.139-1.421,3.75-1.266,3.281-3.085,7.994-5.34,13.836l-.081-.215c2.274,1.187,4.731,2.469,7.4,3.863l.4.21-.431.153-6.047,2.148.139-.247c2.245,10.58,4.921,23.085,7.853,36.445,2.16,9.738,4.191,19.028,6.3,27.406,2.263,8.322,4.474,15.809,6.23,22.1,1.766,6.275,3.2,11.363,4.2,14.912l1.117,4.062c.116.447.21.8.278,1.059A2.1,2.1,0,0,1,295.4,5449.082Z" transform="translate(-267.58 -5317.914)"/></g><g transform="translate(0 26.682)"><path class="g" d="M246.945,5328.86s-10.183,4.955-17.358,27.782c-5.212,16.584-26.413,73.7-26.413,73.7L179.7,5423.49s-17.282,21.523-13.37,29.022,32.515,23.013,32.515,23.013h33.494a27.508,27.508,0,0,0,9.574-13.955l19.151-64.493Z" transform="translate(-165.749 -5328.86)"/></g><g transform="translate(225.687 21.53)"><path class="g" d="M376.926,5324.485a41.259,41.259,0,0,1,14.74,15.141c5.849,10.4,52.527,86.369,56.4,104.383,5.776,26.9-5.765,32.267-5.765,32.267H426.165l-39.926-.227L381.2,5444.8l17.75-3.788-32.9-36.482-2.178,3.718-6.435-52.076Z" transform="translate(-357.441 -5324.485)"/></g><g transform="translate(85.416 58.053)"><path class="e" d="M238.312,5355.506c.138-.012,1.327,12.907,2.657,28.852s2.3,28.884,2.158,28.9-1.327-12.9-2.657-28.855S238.174,5355.516,238.312,5355.506Z" transform="translate(-238.299 -5355.506)"/></g><g transform="translate(234.103 43.595)"><path class="e" d="M373.307,5343.227c.137.016-1.7,16.136-4.108,36s-4.467,35.961-4.6,35.944,1.7-16.134,4.108-36S373.17,5343.209,373.307,5343.227Z" transform="translate(-364.589 -5343.227)"/></g><g transform="translate(252.838 135.94)"><path class="e" d="M382.634,5459.068a6.927,6.927,0,0,1,.452-.574c.29-.378.717-.938,1.2-1.706a28.017,28.017,0,0,0,3.09-6.99,34.075,34.075,0,0,0,1.111-5.168,24.221,24.221,0,0,0,.261-6.026,14.2,14.2,0,0,0-2.225-6.184,16.759,16.759,0,0,0-5.06-4.954c-.145-.089-.3-.179-.427-.25l-.533-.291.579-.17a125.423,125.423,0,0,1,24.66-4.6c3.2-.274,5.785-.4,7.575-.45.895-.032,1.589-.037,2.06-.042a3.663,3.663,0,0,1,.719.021,4.155,4.155,0,0,1-.716.078l-2.055.135c-1.785.114-4.368.29-7.551.606a133.816,133.816,0,0,0-24.554,4.733l.046-.461c.154.084.305.172.459.267a17.169,17.169,0,0,1,5.208,5.112,14.588,14.588,0,0,1,2.272,6.4,24.336,24.336,0,0,1-.308,6.137,33.772,33.772,0,0,1-1.184,5.211,26.518,26.518,0,0,1-3.266,6.992,15.885,15.885,0,0,1-1.284,1.665A2.854,2.854,0,0,1,382.634,5459.068Z" transform="translate(-380.502 -5421.66)"/></g><g transform="translate(147.576 144.615)"><path class="e" d="M291.346,5457.76c-.138,0-.25-6.431-.25-14.365s.112-14.368.25-14.368.251,6.433.251,14.368S291.485,5457.76,291.346,5457.76Z" transform="translate(-291.096 -5429.028)"/></g><g transform="translate(182.713 99.618)"><path class="e" d="M360.977,5400.814a6.333,6.333,0,0,1-.031-.683c-.008-.471-.021-1.107-.035-1.917-.02-1.692-.047-4.1-.083-7.132l.148.148-39.784.1c.111-.111-.252.248.247-.25v2.483q0,1.235,0,2.452,0,2.436,0,4.8l-.245-.246c11.289.043,21.192.083,28.317.111l8.385.069c.961.016,1.718.024,2.273.032l.6.016a.966.966,0,0,1,.213.018,6.756,6.756,0,0,1-.749.031l-2.219.032c-1.991.018-4.816.04-8.33.069-7.168.028-17.13.068-28.488.111h-.246v-.245q0-2.357,0-4.8,0-1.219,0-2.452v-2.483c.5-.5.14-.138.253-.25,16.337.04,30.817.079,39.784.1h.15l0,.147c-.034,3.068-.062,5.5-.081,7.219-.015.8-.027,1.421-.036,1.885A5.1,5.1,0,0,1,360.977,5400.814Z" transform="translate(-320.94 -5390.811)"/></g><g transform="translate(80.08 28.874)"><path class="e" d="M239.116,5355.619c-.134.028-1.439-5.523-2.913-12.4s-2.56-12.472-2.425-12.5,1.44,5.52,2.914,12.4S239.251,5355.588,239.116,5355.619Z" transform="translate(-233.766 -5330.722)"/></g><g class="l" transform="translate(149.915 40.034)"><path d="M293.082,5441.195l56.785-87.1-8.194-7.917,4.683-5.982-9.083,5.382,6.392,5.383Z" transform="translate(-293.082 -5340.201)"/></g><g class="l" transform="translate(9.642 143.949)"><path d="M173.939,5428.464v4.837l64.453.2v-5.041Z" transform="translate(-173.939 -5428.464)"/></g></g><g transform="translate(134.746)"><g transform="translate(0 20.378)"><path class="e" d="M240.7,5290.131a9.544,9.544,0,0,0,8.971-4.006c-2.314.355-4.807.684-6.892-.38s-3.266-4.136-1.632-5.811c1.276-1.308,3.379-1.083,5.2-1.216a11.253,11.253,0,0,0,9.57-7.345c1.542-4.432.132-9.266-.423-13.926a38.354,38.354,0,0,1,16.056-35.4l29.19-16.873c10.587,13.548,13.888,31.81,11.692,48.864s-9.429,33.083-18.125,47.917a56.911,56.911,0,0,1-8.808,12.12c-3.574,3.509-8.137,6.215-13.118,6.731a13.528,13.528,0,0,1,2.16-12.215,29.463,29.463,0,0,1-21.708-7.776l6.255-4.8A22.85,22.85,0,0,1,240.7,5290.131Z" transform="translate(-240.381 -5205.174)"/></g><g transform="translate(25.688 21.337)"><path class="m" d="M349.248,5242.377c-.514-12.2-8.11-22.41-19.849-25.764l-36.594-10.458c-15.881-2.174-27.079,17.118-28.579,33.079-1.666,17.73-2.915,36.456-1.219,49.775,3.413,26.784,23.739,30.806,23.739,30.806,0-.04-.678,24.139-.887,31.924l18.614,38.919,36.069-49.781,8.79-98.175C349.357,5242.246,349.274,5242.983,349.248,5242.377Z" transform="translate(-262.199 -5205.987)"/><g transform="translate(9.053 52.346)"><path class="e" d="M269.9,5253.437a3.42,3.42,0,0,0,3.191,3.551,3.272,3.272,0,0,0,3.618-2.974,3.422,3.422,0,0,0-3.186-3.552A3.275,3.275,0,0,0,269.9,5253.437Z" transform="translate(-269.889 -5250.449)"/></g><g transform="translate(5.681 40.412)"><path class="e" d="M267.075,5243.7c.41.458,3.059-1.377,6.737-1.256,3.677.07,6.318,2.045,6.731,1.608.2-.194-.206-1.013-1.355-1.9a9.383,9.383,0,0,0-5.37-1.839,9.008,9.008,0,0,0-5.379,1.556C267.279,5242.7,266.872,5243.5,267.075,5243.7Z" transform="translate(-267.025 -5240.312)"/></g><g transform="translate(40.158 52.346)"><path class="e" d="M296.315,5253.438a3.42,3.42,0,0,0,3.191,3.55,3.272,3.272,0,0,0,3.618-2.974,3.423,3.423,0,0,0-3.187-3.552A3.274,3.274,0,0,0,296.315,5253.438Z" transform="translate(-296.308 -5250.449)"/></g><g transform="translate(40.618 41.408)"><path class="e" d="M296.747,5244.55c.412.46,3.064-1.376,6.739-1.253,3.676.07,6.318,2.045,6.73,1.607.2-.194-.2-1.012-1.354-1.9a9.373,9.373,0,0,0-5.371-1.839,9.01,9.01,0,0,0-5.379,1.557C296.957,5243.551,296.547,5244.346,296.747,5244.55Z" transform="translate(-296.699 -5241.159)"/></g><g transform="translate(19.049 42.767)"><path class="e" d="M287.672,5272.909c.022-.208-2.251-.672-5.942-1.26-.936-.126-1.819-.34-1.958-.986a4.784,4.784,0,0,1,.712-2.765q1.43-3.369,3-7.067c4.17-10.064,7.221-18.352,6.815-18.516s-4.118,7.86-8.29,17.924q-1.508,3.721-2.882,7.112c-.388,1.057-1.037,2.25-.6,3.671a2.356,2.356,0,0,0,1.5,1.421,6.248,6.248,0,0,0,1.588.271C285.338,5273.031,287.652,5273.119,287.672,5272.909Z" transform="translate(-278.379 -5242.313)"/></g><g transform="translate(24.375 105.352)"><path class="n" d="M318.7,5295.47s-9.2,18.062-35.8,14.747l.171-6.271A67.182,67.182,0,0,0,318.7,5295.47Z" transform="translate(-282.903 -5295.47)"/></g><g transform="translate(42.185 30.388)"><path class="e" d="M298.045,5234.345c.332,1.01,4.019.651,8.318,1.3,4.314.565,7.755,1.936,8.356,1.057.268-.422-.31-1.381-1.687-2.392a14.639,14.639,0,0,0-12.7-1.8C298.726,5233.1,297.9,5233.866,298.045,5234.345Z" transform="translate(-298.03 -5231.798)"/></g><g transform="translate(7.167 28.966)"><path class="e" d="M268.372,5234.209c.622.857,3.182.067,6.23.12,3.051-.054,5.61.735,6.232-.122.273-.417-.108-1.265-1.212-2.091a9.014,9.014,0,0,0-10.04,0C268.479,5232.944,268.1,5233.793,268.372,5234.209Z" transform="translate(-268.287 -5230.59)"/></g><g transform="translate(32.67 76.752)"><path class="n" d="M299.419,5274.974a4.8,4.8,0,0,0-4.857-3.785,5.016,5.016,0,0,0-3.937,2.632,6.178,6.178,0,0,0-.356,4.8l.068.346a5.466,5.466,0,0,0,6.114,1.485A5.111,5.111,0,0,0,299.419,5274.974Z" transform="translate(-289.948 -5271.179)"/></g><g transform="translate(30.388 74.343)"><path class="e" d="M288.011,5279.326c.012-.557,3.726-.275,6.612-3.246s2.788-6.959,3.309-6.947c.238-.034.652.939.568,2.614a9.282,9.282,0,0,1-2.552,5.814,8.072,8.072,0,0,1-5.526,2.484C288.858,5280.065,287.97,5279.58,288.011,5279.326Z" transform="translate(-288.01 -5269.132)"/></g></g><g transform="translate(12.064)"><path class="e" d="M339,5203.128c-4.117-6.541-13.843-13.37-21.456-14.7-8.679-1.517-13.908-.028-19.616,5.182,0,0-4.441,4.284-8.6,5.094s-7.642.122-12.608,2.661c-6.782,3.47-9.756,12.54-12.9,19.479-3.905,8.625-9.471,16.561-12.017,25.68s-1.191,20.319,6.491,25.852c-1.317-6.986-2.415-14.672.464-21a18.316,18.316,0,0,0,.465,7.568c1.437-4.1,2.953-8.335,5.933-11.5,2.809-2.988,6.693-4.773,9.588-7.678,4.253-4.268,6.212-10.773,11.379-13.87,5.376-3.222,12.175-1.616,18.443-1.586a35.339,35.339,0,0,0,27.474-13.236l-1.559-.132A43.777,43.777,0,0,0,339,5203.128Z" transform="translate(-250.627 -5187.865)"/></g><g transform="translate(79.873 13.184)"><path class="e" d="M367.986,5266.349c-2.392-7.84-6.593-15.016-9.221-22.781-2.56-7.561-3.618-15.642-7.017-22.866-4.573-9.718-13.119-22.3-26.438-21.612l-.91.8a28.462,28.462,0,0,0-13.422,1.6l-.2,10.382-2.552,2.244c1.07,2.06,2.083,4.052,3.065,6.009a65.544,65.544,0,0,0,3.4,11.427,29.592,29.592,0,0,0,6.389,9.715c22.942,54.922,2.133,58.392,12.468,89.87l6.5-18.021a32.116,32.116,0,0,0,12.858-13.851q.574,2.854,1.147,5.709a33.107,33.107,0,0,0,8.961-20.455q1.49,2.741,2.981,5.48C370.707,5283.3,370.38,5274.189,367.986,5266.349Z" transform="translate(-308.222 -5199.063)"/></g><g transform="translate(99.853 76.959)"><path class="m" d="M325.834,5254.737c.357-.894,16.94-6.348,16.659,11.1-.273,16.955-17.279,13.13-17.3,12.644S325.834,5254.737,325.834,5254.737Z" transform="translate(-325.193 -5253.231)"/><g transform="translate(5.338 5.578)"><path class="n" d="M329.744,5271.321c.075-.051.291.213.785.45a2.941,2.941,0,0,0,2.208.088c1.8-.623,3.365-3.436,3.506-6.49a9.765,9.765,0,0,0-.745-4.245,3.408,3.408,0,0,0-2.178-2.309,1.5,1.5,0,0,0-1.758.777c-.237.467-.135.808-.226.837-.048.04-.358-.292-.208-.989a1.879,1.879,0,0,1,.688-1.05,2.222,2.222,0,0,1,1.641-.4,4.151,4.151,0,0,1,3.034,2.689,10.022,10.022,0,0,1,.934,4.744c-.174,3.413-1.985,6.577-4.448,7.238a3.167,3.167,0,0,1-2.693-.5C329.766,5271.733,329.684,5271.351,329.744,5271.321Z" transform="translate(-329.727 -5257.969)"/></g><g transform="translate(4.084 21.815)"><g transform="translate(0.307 0.129)"><path class="j" d="M331.726,5271.907a3.333,3.333,0,1,1-.8.228" transform="translate(-328.922 -5271.871)"/></g><path class="e" d="M330.974,5272.153a4.574,4.574,0,0,0-1.589,2.234,2.874,2.874,0,0,0,.586,2.68,2.965,2.965,0,0,0,5.259-1.512,2.877,2.877,0,0,0-.925-2.583,4.584,4.584,0,0,0-2.534-1.048c-.008-.042.266-.168.8-.164a3.449,3.449,0,0,1,2.092.8,3.387,3.387,0,0,1,1.273,3.1,3.641,3.641,0,0,1-6.511,1.871,3.392,3.392,0,0,1-.565-3.3,3.461,3.461,0,0,1,1.349-1.788C330.661,5272.151,330.96,5272.113,330.974,5272.153Z" transform="translate(-328.662 -5271.76)"/></g></g><g transform="translate(81.188 13.481)"><path class="f" d="M309.373,5218.325c.337.133,1.9-5.612,6.626-10.944,4.648-5.4,10.129-7.729,9.951-8.044-.049-.122-1.479.285-3.576,1.432a27.484,27.484,0,0,0-12.066,13.82C309.456,5216.821,309.247,5218.292,309.373,5218.325Z" transform="translate(-309.339 -5199.315)"/></g></g><g transform="translate(0 174.59)"><g transform="translate(14.377 38.955)"><path class="m" d="M187.727,5443.8l-12.652-14.871s-8.878,0-13.317-4.216-12.652-8.212-9.322-15.759c0,0-3.991-4.661-.775-9.767l.108-1.331s-9.987-4.218-7.1-9.323,8.434-2.884,8.434-2.884-10.907-7.37-12.873-9.389c-5.256-5.4.4-9.032,6.242-5.8,9.671,5.347,42.366,20.738,44.585,31.836v4.833s9.1,11.146,9.1,11.813S199.49,5436.921,187.727,5443.8Z" transform="translate(-138.143 -5369.244)"/></g><g transform="translate(0 0.205)"><path class="j" d="M125.934,5337.557c-.4-.5,49.65,80.176,49.65,80.176l2.271,27.067h78.106l-7.247-30.813s-13.5-36.193-13.35-36.616c.3-.82-25.268-41.042-25.268-41.042Z" transform="translate(-125.932 -5336.33)"/></g><g transform="translate(0.002)"><path class="e" d="M125.934,5337.589s.524-.027,1.531-.051l4.448-.093c3.908-.069,9.632-.169,16.951-.3l61.23-.987.113,0,.061.1c6.691,10.55,14.048,22.111,21.673,34.6.945,1.565,1.9,3.143,2.815,4.765.227.408.454.814.664,1.245a2.8,2.8,0,0,1,.15.356.407.407,0,0,1,.027.174c-.019.125,0,.081.012.089s.009,0,.009,0l.024.08.207.658.922,2.655q1.93,5.31,3.915,10.768l8.26,22.283.006.015,0,.015c2.2,9.349,4.506,19.149,6.853,29.128.133.565.266,1.13.4,1.685l.073.309h-.315l-78.106-.02h-.211l-.018-.21q-1.183-14.205-2.253-27.071l.031.093-35.989-58.217c-4.31-7.015-7.693-12.521-10.005-16.282l-2.611-4.3-.658-1.108a2.629,2.629,0,0,1-.206-.381c.938,1.507,19.895,31.965,49.829,80.063l.027.042,0,.052q1.086,12.847,2.289,27.066l-.228-.208,78.106-.021-.244.307-.4-1.687c-2.345-9.977-4.649-19.78-6.847-29.128l.009.03-8.25-22.29q-1.98-5.46-3.909-10.776-.463-1.337-.923-2.665l-.213-.682-.026-.087a1.09,1.09,0,0,1-.021-.169v-.087c-.175-.074.255.06.151.026a.317.317,0,0,0-.134-.021c-.066.007-.014.04-.028.033l-.011-.03a2.547,2.547,0,0,0-.124-.29c-.2-.407-.424-.813-.648-1.218-.91-1.611-1.86-3.19-2.8-4.755-7.606-12.491-14.948-24.065-21.618-34.625l.174.093c-25.593.335-46.643.608-61.308.8-7.31.083-13.026.147-16.928.193l-4.426.036C126.44,5337.6,125.934,5337.589,125.934,5337.589Z" transform="translate(-125.933 -5336.156)"/></g><g transform="translate(33.909 42.032)"><path class="e" d="M223.268,5373.076a3.444,3.444,0,0,1-.7.03c-.506,0-1.17,0-2-.008l-7.347-.139c-6.2-.142-14.77-.377-24.232-.53s-18.035-.135-24.232.061c-3.1.083-5.6.212-7.336.311l-1.993.115a3.548,3.548,0,0,1-.7.006,3.673,3.673,0,0,1,.689-.106c.5-.052,1.164-.123,1.989-.209,1.728-.157,4.236-.339,7.337-.47,6.2-.287,14.782-.35,24.252-.209s18.036.446,24.236.679l7.342.3c.828.043,1.491.076,2,.1A3.642,3.642,0,0,1,223.268,5373.076Z" transform="translate(-154.733 -5371.856)"/></g><g transform="translate(62.761 73.282)"><path class="e" d="M228.522,5404.295c-.017.137-11.062-1.07-24.67-2.695s-24.629-3.053-24.612-3.189,11.06,1.069,24.672,2.692S228.538,5404.158,228.522,5404.295Z" transform="translate(-179.239 -5398.4)"/></g><g transform="translate(40.076 72.867)"><g transform="translate(0 0.006)"><path class="m" d="M159.971,5409.814l14.614-.931c1.536-.1,3.225-.263,4.3-1.369,1.332-1.378.68-4.5-1-5.426l-16.745-4.036" transform="translate(-159.971 -5398.053)"/></g><path class="n" d="M161.135,5398.053a7.522,7.522,0,0,1,1.3.225l3.536.775c3.08.721,7.242,1.693,11.972,2.8l.034.007.027.017a3.465,3.465,0,0,1,1.4,1.616,4.743,4.743,0,0,1,.433,2.135,3.044,3.044,0,0,1-.863,2.143,4.334,4.334,0,0,1-1.964,1.033,24.013,24.013,0,0,1-4.023.413l-6.77.378-4.567.21a10.854,10.854,0,0,1-1.679.01,11.006,11.006,0,0,1,1.667-.2c1.159-.094,2.695-.217,4.556-.37l6.763-.484a24.651,24.651,0,0,0,3.928-.427,3.867,3.867,0,0,0,1.742-.918,2.55,2.55,0,0,0,.709-1.8,3.759,3.759,0,0,0-1.573-3.3l.06.024-11.931-2.965c-1.429-.374-2.6-.683-3.5-.92A7.444,7.444,0,0,1,161.135,5398.053Z" transform="translate(-159.971 -5398.047)"/></g><g transform="translate(33.908 67.623)"><g transform="translate(0 0.007)"><path class="m" d="M167.674,5393.6a72.044,72.044,0,0,1,12.981,3.659,2.88,2.88,0,0,1,1.919,3.349,2.324,2.324,0,0,1-.961,1.785,4.6,4.6,0,0,1-2.049.567,52.867,52.867,0,0,1-12.422-.756c-4.186-.577-9.986,0-12.41,1.281" transform="translate(-154.733 -5393.599)"/></g><path class="n" d="M154.733,5403.485a1.761,1.761,0,0,1,.412-.25,9.784,9.784,0,0,1,1.288-.5,23.572,23.572,0,0,1,4.987-.86,31.048,31.048,0,0,1,3.5-.074,39.082,39.082,0,0,1,3.992.412,53.26,53.26,0,0,0,9.083.6,19.432,19.432,0,0,0,2.356-.215,2.216,2.216,0,0,0,1.719-1.082c.55-1.264.36-2.984-.779-3.677a9.629,9.629,0,0,0-1.831-.792l-1.823-.653c-1.18-.407-2.288-.761-3.3-1.065-2.036-.607-3.706-1.015-4.864-1.287a15.266,15.266,0,0,1-1.8-.446,1.775,1.775,0,0,1,.479.038c.311.039.769.114,1.355.218,1.174.215,2.864.571,4.922,1.137,1.029.285,2.149.62,3.34,1.014l1.839.632a9.644,9.644,0,0,1,1.94.824,2.841,2.841,0,0,1,1.236,1.919,4.076,4.076,0,0,1-.278,2.356,2.132,2.132,0,0,1-.881.936,3.947,3.947,0,0,1-1.18.416,19.775,19.775,0,0,1-2.432.228,51.308,51.308,0,0,1-9.164-.644c-1.4-.2-2.707-.4-3.949-.453a32.479,32.479,0,0,0-3.459.012,26.758,26.758,0,0,0-4.959.694C155.336,5403.215,154.753,5403.526,154.733,5403.485Z" transform="translate(-154.733 -5393.593)"/></g><g transform="translate(28.266 55.518)"><g transform="translate(0 0.002)"><path class="m" d="M151.757,5383.314q5.761,3.212,11.52,6.426c1.74.971,3.557,2.012,4.6,3.713s.954,4.263-.715,5.354c-1.309.855-3.033.533-4.548.149a112.016,112.016,0,0,1-12.671-4.025" transform="translate(-149.94 -5383.314)"/></g><path class="n" d="M149.94,5394.93a11.631,11.631,0,0,1,1.619.505c1.034.346,2.527.852,4.387,1.424s4.087,1.214,6.583,1.838a7.109,7.109,0,0,0,3.845.216,2.66,2.66,0,0,0,1.483-1.211,3.656,3.656,0,0,0,.439-1.984,5.09,5.09,0,0,0-1.851-3.58,17.822,17.822,0,0,0-3.31-2.213l-5.955-3.383-3.992-2.319a11.021,11.021,0,0,1-1.432-.91,10.857,10.857,0,0,1,1.526.74c1.034.553,2.406,1.29,4.071,2.179,1.733.949,3.763,2.062,6.007,3.289a17.97,17.97,0,0,1,3.413,2.253,6.779,6.779,0,0,1,1.4,1.71,4.965,4.965,0,0,1,.622,2.211,4.149,4.149,0,0,1-.507,2.255,3.154,3.154,0,0,1-1.758,1.427,7.44,7.44,0,0,1-4.116-.234c-2.5-.65-4.725-1.33-6.577-1.947s-3.331-1.177-4.346-1.578c-.506-.205-.9-.367-1.16-.486A1.516,1.516,0,0,1,149.94,5394.93Z" transform="translate(-149.94 -5383.312)"/></g></g><g transform="translate(276.165 281.166)"><path class="m" d="M388.238,5455.446l-5.476-1.549-17.4-1.623-4.866-6.467,3.391-13.957,21.741-5.171C395.672,5433.821,392.96,5445.724,388.238,5455.446Z" transform="translate(-360.498 -5426.679)"/></g><g transform="translate(241.069 270.63)"><g transform="translate(0 4.087)"><g transform="translate(0.228 0.081)"><path class="m" d="M342.9,5421.37a14.991,14.991,0,0,0-6.107.479,8.107,8.107,0,0,0-4.838,6.336c-.562,4.476-.739,8.1-1.06,12.272a3.915,3.915,0,0,0,1.137,2.943c1.368,1.4,3.856.932,5.27-.421s2.049-3.3,2.729-5.129,1.4-6.224,2.465-6.606c3.028-1.092,7.15,4.125,9.428,1.564l4.131-10.077C349.652,5422.1,349.3,5422,342.9,5421.37Z" transform="translate(-330.882 -5421.269)"/></g><path class="n" d="M342.93,5421.383a.8.8,0,0,1,.234,0l.684.041,2.623.218,9.633.925.244.023-.093.227c-1.188,2.935-2.572,6.354-4.089,10.1l-.014.034-.027.031a2.354,2.354,0,0,1-1.984.775,6.289,6.289,0,0,1-2.043-.618,22.222,22.222,0,0,0-3.876-1.684l-.511-.082h-.51a3.942,3.942,0,0,0-.491.1c-.177.033-.217.1-.338.225a6.781,6.781,0,0,0-.856,1.973c-.451,1.435-.739,2.952-1.284,4.456a18.112,18.112,0,0,1-1.78,3.915,6.058,6.058,0,0,1-1.481,1.571,5,5,0,0,1-1.972.827,3.807,3.807,0,0,1-2.113-.183,3.414,3.414,0,0,1-1.559-1.388,4.124,4.124,0,0,1-.637-1.927c-.015-.7.08-1.279.113-1.913.185-2.479.347-4.841.564-7.046.107-1.1.225-2.167.352-3.187a8.577,8.577,0,0,1,.755-2.9,7.745,7.745,0,0,1,7.187-4.669,18.322,18.322,0,0,1,2.43.045c.277.024.487.048.628.07a.647.647,0,0,1,.212.045,7.318,7.318,0,0,1-.845-.015,22.9,22.9,0,0,0-2.412.049,8.245,8.245,0,0,0-3.614.97,8.016,8.016,0,0,0-3.262,3.652,8.24,8.24,0,0,0-.693,2.795q-.175,1.528-.321,3.18c-.2,2.2-.345,4.556-.518,7.039-.029.607-.122,1.282-.1,1.852a3.667,3.667,0,0,0,.573,1.7,2.914,2.914,0,0,0,1.339,1.192,3.325,3.325,0,0,0,1.842.15,4.755,4.755,0,0,0,3.128-2.193,17.877,17.877,0,0,0,1.724-3.809c.523-1.44.818-2.971,1.279-4.432a7.057,7.057,0,0,1,.952-2.143,1.194,1.194,0,0,1,.251-.233.8.8,0,0,1,.319-.142,4.377,4.377,0,0,1,.593-.121c.2,0,.4-.009.6,0l.573.094a22.041,22.041,0,0,1,3.969,1.731,5.885,5.885,0,0,0,1.879.583,1.884,1.884,0,0,0,1.611-.613l-.04.065,4.172-10.06.151.25c-4.065-.416-7.349-.823-9.618-1.088l-2.614-.313-.678-.092A.834.834,0,0,1,342.93,5421.383Z" transform="translate(-330.689 -5421.202)"/></g><g transform="translate(6.066)"><g transform="translate(0.205 0.137)"><path class="m" d="M378.667,5423.256s-2.157-.672-5.074,1.453c0,0-1.09-4.8-4.924-5.745-2.781-.684-6.319,2.169-6.319,2.169s-2.4-4.8-8.8-2.8c-5.3,1.656-16.408,34.5-17.362,36.707-1.093,2.52,3.4,5.679,5.878,3.135,2.6-2.668,11.326-17.259,11.326-17.259l-5.8,20.462a3.93,3.93,0,0,0,.056,2.023c.622,2.082,4.721,4.518,7.615.6,3.6-4.879,7.271-14.934,7.271-14.934l3.539-7.717s-6.606,20.444-4.206,22.307,5.484,1.141,7.685-3.659,10.2-20.009,10.2-20.009l3.8-2-1.4,4.8s-7.281,3.8-5.642,7.2,5.073,2.392,8.443.8,6.306-9.49,8.107-12.738c1.611-2.906,1.766-11.456-5.139-11.78a5.272,5.272,0,0,0-3.952,1.576l-.345.342S382.492,5423.938,378.667,5423.256Z" transform="translate(-336.015 -5417.846)"/></g><path class="n" d="M378.7,5423.277s.155.022.458.09a2.737,2.737,0,0,1,.556.171,4.18,4.18,0,0,1,.741.335,7.4,7.4,0,0,1,3.278,4.32l-.131-.035a5.68,5.68,0,0,1,3.539-1.932,6.415,6.415,0,0,1,4.687,1.436,7.7,7.7,0,0,1,2.279,5.268,11.99,11.99,0,0,1-.2,3.22,7.822,7.822,0,0,1-.509,1.623c-.237.542-.527,1.01-.775,1.542-1.022,2.084-2.006,4.339-3.268,6.594a21.722,21.722,0,0,1-2.2,3.3,7.987,7.987,0,0,1-1.514,1.424,12.4,12.4,0,0,1-1.9.927,9.279,9.279,0,0,1-4.244.877,3.618,3.618,0,0,1-2.086-.922,4.484,4.484,0,0,1-.742-.9l-.284-.509c-.071-.187-.13-.384-.192-.578a3.27,3.27,0,0,1,.465-2.317,8.151,8.151,0,0,1,1.515-1.823,19.817,19.817,0,0,1,3.923-2.764l-.1.123c.429-1.476.908-3.126,1.4-4.8l.3.247c-1.167.617-2.476,1.307-3.8,2l.091-.089-5.887,11.353q-1.485,2.945-3.014,5.981-.738,1.53-1.486,3.081a10.553,10.553,0,0,1-2.009,2.9,4.575,4.575,0,0,1-3.3,1.43,4.188,4.188,0,0,1-1.788-.517,4.5,4.5,0,0,1-.783-.519,1.693,1.693,0,0,1-.459-.917,12.012,12.012,0,0,1,.069-3.66c.163-1.2.386-2.4.636-3.59,1.027-4.771,2.4-9.547,3.912-14.364l.461.179c-1.118,2.441-2.324,5.067-3.538,7.718l.007-.019c-.806,2.17-1.751,4.463-2.776,6.741-.759,1.679-1.562,3.333-2.447,4.936q-.668,1.2-1.411,2.353a9.318,9.318,0,0,1-1.777,2.134,4.394,4.394,0,0,1-2.617,1.016,4.722,4.722,0,0,1-2.67-.807,3.983,3.983,0,0,1-1.7-2.2,4.154,4.154,0,0,1-.114-1.4,6.756,6.756,0,0,1,.3-1.327c1.924-6.775,3.8-13.373,5.607-19.742l.436.188q-3.334,5.528-6.675,10.723c-1.123,1.724-2.246,3.418-3.443,5.04a7.376,7.376,0,0,1-2.151,2.176,3.6,3.6,0,0,1-3.034.027,4.341,4.341,0,0,1-2.217-2.021,2.693,2.693,0,0,1-.238-1.524c.138-.538.328-.925.487-1.38q.978-2.665,1.926-5.246c1.272-3.44,2.53-6.757,3.8-9.926s2.54-6.2,3.84-9.052a71.268,71.268,0,0,1,4.142-7.968,12.709,12.709,0,0,1,2.643-3.231,2.9,2.9,0,0,1,.92-.493l.963-.248a10.306,10.306,0,0,1,1.936-.207,6.757,6.757,0,0,1,5.971,3.368l-.193-.042a11.8,11.8,0,0,1,4.191-2.124,4.777,4.777,0,0,1,2.12-.067,5.347,5.347,0,0,1,1.792.775,7.294,7.294,0,0,1,2.258,2.52,10.525,10.525,0,0,1,1.024,2.556l-.1-.04a7.488,7.488,0,0,1,3.8-1.513,3.218,3.218,0,0,1,1.31.114s-.1-.021-.319-.046a4.837,4.837,0,0,0-.985,0,7.552,7.552,0,0,0-3.731,1.555l-.077.057-.026-.1a10.633,10.633,0,0,0-1.037-2.5,7.148,7.148,0,0,0-2.224-2.437,5.154,5.154,0,0,0-1.731-.734,4.593,4.593,0,0,0-2.024.081,11.639,11.639,0,0,0-4.084,2.1l-.118.089-.075-.132a6.486,6.486,0,0,0-5.744-3.187,9.726,9.726,0,0,0-1.872.208l-.938.245a2.623,2.623,0,0,0-.822.45,12.484,12.484,0,0,0-2.551,3.157,71.348,71.348,0,0,0-4.091,7.943c-1.288,2.854-2.551,5.878-3.805,9.048s-2.508,6.485-3.771,9.925q-.941,2.583-1.914,5.252c-.155.438-.369.917-.464,1.3a2.263,2.263,0,0,0,.2,1.266,3.91,3.91,0,0,0,1.992,1.8,3.157,3.157,0,0,0,2.663-.018,7.067,7.067,0,0,0,1.99-2.048c1.181-1.607,2.3-3.3,3.418-5.022,2.228-3.448,4.439-7.034,6.653-10.716l.922-1.534-.487,1.722-5.589,19.738a6.416,6.416,0,0,0-.287,1.244,3.627,3.627,0,0,0,.1,1.233,3.507,3.507,0,0,0,1.5,1.914,4.225,4.225,0,0,0,2.381.723,3.909,3.909,0,0,0,2.317-.905,8.883,8.883,0,0,0,1.674-2.021q.731-1.132,1.389-2.32c.876-1.587,1.673-3.229,2.43-4.9,1.018-2.265,1.961-4.554,2.762-6.707l0-.012,0-.006,3.541-7.716.461.18c-1.511,4.8-2.883,9.571-3.906,14.311-.25,1.185-.472,2.371-.632,3.554a11.731,11.731,0,0,0-.081,3.488,1.281,1.281,0,0,0,.3.661,4.047,4.047,0,0,0,.695.459,3.69,3.69,0,0,0,1.581.461,4.1,4.1,0,0,0,2.953-1.293c1.633-1.583,2.346-3.85,3.406-5.848q1.535-3.034,3.027-5.983,3.05-5.858,5.909-11.347l.031-.06.06-.03,3.8-2,.443-.231-.14.478c-.491,1.674-.974,3.326-1.407,4.8l-.023.083-.079.042a19.585,19.585,0,0,0-3.839,2.694,7.759,7.759,0,0,0-1.448,1.727,2.89,2.89,0,0,0-.427,2.037,3.509,3.509,0,0,0,2.967,2.621,8.95,8.95,0,0,0,4.067-.838,12.322,12.322,0,0,0,1.838-.888,7.579,7.579,0,0,0,1.448-1.355,21.425,21.425,0,0,0,2.179-3.242c1.26-2.231,2.251-4.475,3.288-6.563.245-.523.56-1.034.777-1.53a7.49,7.49,0,0,0,.5-1.56,11.759,11.759,0,0,0,.214-3.143,7.476,7.476,0,0,0-2.167-5.116,6.233,6.233,0,0,0-4.51-1.414,5.522,5.522,0,0,0-3.451,1.851l-.089.1-.041-.134a6.5,6.5,0,0,0-4.881-4.958Z" transform="translate(-335.841 -5417.729)"/><g transform="translate(29.335 13.649)"><path class="n" d="M365.276,5429.323a23.7,23.7,0,0,1-1.832,6.4c-.663,1.718-1.319,3.245-1.8,4.346a8.048,8.048,0,0,1-.871,1.748,42.042,42.042,0,0,1,2.206-6.272c.661-1.709,1.229-3.261,1.614-4.4A9.432,9.432,0,0,1,365.276,5429.323Z" transform="translate(-360.757 -5429.322)"/></g><g transform="translate(17.4 11.589)"><path class="n" d="M355.713,5427.574c.131.065-1.088,2.752-2.436,6.127a40.85,40.85,0,0,1-2.645,6.048,7.974,7.974,0,0,1,.552-1.86c.4-1.125.949-2.68,1.629-4.375s1.373-3.2,1.915-4.265A7.094,7.094,0,0,1,355.713,5427.574Z" transform="translate(-350.621 -5427.573)"/></g></g></g></g></g></g></svg>