<svg xmlns="http://www.w3.org/2000/svg" width="403.322" height="347.295" viewBox="0 0 403.322 347.295"><defs><style>.a{fill:#e0e0e0;}.b{fill:#263238;}.c{fill:#fff;}.d{fill:#d9a171;}.e{fill:#6595bf;}.f{fill:#f5f5f5;}.g{fill:#5e6178;}.h{fill:#455a64;}.i{fill:#12263f;font-size:14px;font-family:Roboto-Black, Roboto;font-weight:800;}.j{fill:#ffbe9d;}.k{fill:#eb996e;}.l{opacity:0.3;}.m{opacity:0.6;}.n{fill:#344154;}</style></defs><g transform="translate(-203.486 -3720.734)"><g transform="translate(90.326 3674.64)"><g transform="translate(113.16 46.095)"><g transform="translate(0.331 0.303)"><path class="a" d="M11.55,0H391.179a11.549,11.549,0,0,1,11.549,11.549V269.081a11.549,11.549,0,0,1-11.549,11.549H11.549A11.549,11.549,0,0,1,0,269.081V11.55A11.55,11.55,0,0,1,11.55,0Z"/></g><path class="b" d="M516.22,61.074s-.027-.292-.061-.87a13.606,13.606,0,0,0-.391-2.55,14.285,14.285,0,0,0-1.591-3.925,14.582,14.582,0,0,0-3.895-4.342,14.07,14.07,0,0,0-6.826-2.766,34.022,34.022,0,0,0-4.312-.131l-4.711.008-22.556.031-143.749.105-99.267.039q-26.762.01-55.3.017l-28.919.008-14.758,0a25.461,25.461,0,0,0-3.672.15,14.312,14.312,0,0,0-3.52.938,14.555,14.555,0,0,0-5.791,4.384,14.167,14.167,0,0,0-2.915,6.694A22.247,22.247,0,0,0,113.8,62.6v3.8q0,7.613,0,15.319,0,15.409.005,31.163,0,31.5.009,64.275c0,43.659,0,88.862.006,135.161a15.814,15.814,0,0,0,.615,4.182,15.518,15.518,0,0,0,1.8,3.816,15.968,15.968,0,0,0,2.83,3.123,14.332,14.332,0,0,0,7.682,3.184c1.388.1,2.841.065,4.271.071h42.66l66.609.005,125.919.019,113.943.031,13.266,0,6.546,0a29.854,29.854,0,0,0,3.216-.1,14.689,14.689,0,0,0,3.089-.709A14.393,14.393,0,0,0,515,317.488a15.828,15.828,0,0,0,.962-6.092q0-3.135,0-6.242.011-24.846.022-47.633c.044-60.686.08-109.8.1-143.74.028-16.966.048-30.14.062-39.08.015-4.463.025-7.867.033-10.163s.034-3.463.034-3.463.023,1.173.033,3.463.019,5.7.033,10.163c.014,8.94.036,22.115.062,39.08.025,33.944.061,83.054.105,143.74q.01,22.761.022,47.633,0,3.105,0,6.242a16.379,16.379,0,0,1-.991,6.277,14.918,14.918,0,0,1-9.044,8.781,15.2,15.2,0,0,1-3.2.737,30.223,30.223,0,0,1-3.277.1l-6.546,0-13.266,0-113.943.032-125.919.019-66.609.005H131.02c-1.437-.008-2.855.033-4.336-.075a15,15,0,0,1-8.037-3.332,16.63,16.63,0,0,1-2.96-3.267,16.191,16.191,0,0,1-1.885-3.991,16.485,16.485,0,0,1-.643-4.374c0-46.3.005-91.5.006-135.161q.006-32.745.009-64.275,0-15.75.005-31.163,0-7.7,0-15.319V62.6a22.819,22.819,0,0,1,.194-3.826,14.789,14.789,0,0,1,3.042-6.98,15.163,15.163,0,0,1,6.039-4.566,14.934,14.934,0,0,1,3.67-.977,26.139,26.139,0,0,1,3.754-.154l14.758,0,28.919.008q28.511.008,55.3.017l99.267.039,143.749.105,22.556.031,4.711.008a34.436,34.436,0,0,1,4.333.149,14.2,14.2,0,0,1,6.885,2.824,14.642,14.642,0,0,1,3.9,4.4,14.258,14.258,0,0,1,1.571,3.96,12.867,12.867,0,0,1,.358,2.564C516.216,60.782,516.22,61.074,516.22,61.074Z" transform="translate(-113.16 -46.095)"/><g transform="translate(29.063 10.193)"><rect class="c" width="262.932" height="336.327" transform="translate(0 262.932) rotate(-90)"/></g><g transform="translate(372.054 128.715)"><circle class="b" cx="10.768" cy="10.768" r="10.768"/></g><g transform="translate(11.929 98.357)"><rect class="b" width="84.522" height="4.449" rx="1.215" transform="translate(0 84.522) rotate(-90)"/></g><g transform="translate(29.063 9.288)"><rect class="d" width="31.5" height="263.837"/><g transform="translate(0 114.797)"><path class="c" d="M2.367,0h30.5a0,0,0,0,1,0,0V26.232a0,0,0,0,1,0,0H2.367A2.367,2.367,0,0,1,0,23.865V2.367A2.367,2.367,0,0,1,2.367,0Z"/></g><g transform="translate(10.007 26.43)"><path class="c" d="M149.65,85.731h0a5.753,5.753,0,0,1-5.744-5.764h0A5.753,5.753,0,0,1,149.65,74.2h0a5.754,5.754,0,0,1,5.744,5.764h0A5.754,5.754,0,0,1,149.65,85.731Z" transform="translate(-143.906 -74.203)"/></g><g transform="translate(10.169 58.308)"><path class="c" d="M154.394,99.619c0,.183-2.32.33-5.18.33s-5.181-.147-5.181-.33,2.319-.33,5.181-.33S154.394,99.436,154.394,99.619Z" transform="translate(-144.034 -99.289)"/></g><g transform="translate(11.091 87.507)"><path class="c" d="M155.118,122.6c0,.183-2.319.332-5.179.332s-5.18-.149-5.18-.332,2.318-.33,5.18-.33S155.118,122.414,155.118,122.6Z" transform="translate(-144.759 -122.267)"/></g><g transform="translate(11.091 161.771)"><path class="c" d="M155.118,181.039c0,.183-2.319.332-5.179.332s-5.18-.149-5.18-.332,2.318-.33,5.18-.33S155.118,180.856,155.118,181.039Z" transform="translate(-144.759 -180.709)"/></g><g transform="translate(11.091 200.072)"><path class="c" d="M155.118,211.18c0,.183-2.319.332-5.179.332s-5.18-.149-5.18-.332,2.318-.33,5.18-.33S155.118,211,155.118,211.18Z" transform="translate(-144.759 -210.85)"/></g><g transform="translate(11.091 127.966)"><path class="b" d="M155.118,154.436c0,.183-2.319.332-5.179.332s-5.18-.149-5.18-.332,2.318-.33,5.18-.33S155.118,154.255,155.118,154.436Z" transform="translate(-144.759 -154.106)"/></g></g><g transform="translate(28.733 8.956)"><path class="b" d="M472.429,317.312c0-2.281-.109-104.682-.274-263.837l.274.274-336.3.056H136.1l.332-.33c-.013,95.155-.024,185.13-.034,263.836l-.3-.3c199.692.175,333.721.295,336.327.3-2.6,0-136.635.119-336.327.3h-.3v-.3c-.01-78.705-.022-168.681-.033-263.836v-.332h.36l336.3.057h.274v.274C472.537,212.63,472.431,315.033,472.429,317.312Z" transform="translate(-135.771 -53.143)"/></g><g transform="translate(199.149 175.43)"><g transform="translate(21.496 35.252)"><g transform="translate(37.844 15.781)"><rect class="e" width="4.531" height="15.177"/></g><g transform="translate(0 13.582)"><rect class="e" width="4.531" height="17.376"/></g><g transform="translate(9.461 9.96)"><rect class="e" width="4.531" height="20.998"/></g><g transform="translate(18.922 11.112)"><rect class="e" width="4.531" height="19.846"/></g><g transform="translate(28.383 4.398)"><rect class="e" width="4.531" height="26.56"/></g><g transform="translate(47.305 4.527)"><rect class="e" width="4.531" height="26.43"/></g><g transform="translate(56.767 13.208)"><rect class="e" width="4.531" height="17.75"/></g><g transform="translate(66.227 5.691)"><rect class="e" width="4.531" height="25.266"/></g><g transform="translate(75.688)"><rect class="e" width="4.531" height="30.958"/></g><g transform="translate(85.15 5.562)"><rect class="e" width="4.531" height="25.395"/></g></g><path class="a" d="M390.526,269.179H279.08a9.211,9.211,0,0,1-9.2-9.2v-66.63a9.211,9.211,0,0,1,9.2-9.2H390.526a9.212,9.212,0,0,1,9.2,9.2v66.63A9.212,9.212,0,0,1,390.526,269.179ZM279.08,185.058a8.3,8.3,0,0,0-8.292,8.292v66.63a8.3,8.3,0,0,0,8.292,8.29H390.526a8.3,8.3,0,0,0,8.292-8.29v-66.63a8.3,8.3,0,0,0-8.292-8.292Z" transform="translate(-269.88 -184.149)"/><g transform="translate(15.058 21.915)"><path class="a" d="M339.314,201.633c0,.13-12.892.236-28.791.236s-28.794-.107-28.794-.236,12.889-.238,28.794-.238S339.314,201.5,339.314,201.633Z" transform="translate(-281.73 -201.395)"/></g></g><g transform="translate(86.084 176.179)"><path class="f" d="M180.9,184.739v82.292h87.565V184.739Z" transform="translate(-180.904 -184.739)"/><g transform="translate(16.375 9.326)"><path class="b" d="M220.808,192.078A27.018,27.018,0,1,0,247.827,219.1,27.018,27.018,0,0,0,220.808,192.078Zm.408,43.207a16.6,16.6,0,1,1,16.6-16.6A16.6,16.6,0,0,1,221.216,235.285Z" transform="translate(-193.79 -192.078)"/><g transform="translate(0 0.01)"><g transform="translate(27.43)"><path class="d" d="M215.379,192.086c0,2.874,0,6.751,0,10a16.6,16.6,0,0,1,15.814,21.629l9.791,2.656a27.005,27.005,0,0,0-25.6-34.288Z" transform="translate(-215.376 -192.086)"/></g><g transform="translate(0 2.109)"><path class="g" d="M204.619,218.237a16.594,16.594,0,0,1,9.838-15.157l-4.157-9.334a27.025,27.025,0,0,0-16.511,24.9c0,.38.014.757.029,1.133h10.874C204.646,219.27,204.619,218.757,204.619,218.237Z" transform="translate(-193.79 -193.746)"/></g><g transform="translate(22.089 31.632)"><path class="e" d="M216.51,228.544a16.631,16.631,0,0,1-3.511-.376c-.418,2.408-1.207,7.074-1.826,10.748a27,27,0,0,0,30.946-19.281l-9.791-2.656A16.6,16.6,0,0,1,216.51,228.544Z" transform="translate(-211.173 -216.979)"/></g></g><g transform="translate(18.147 22.998)"><g transform="translate(0 0.105)"><path class="b" d="M213.764,215.109h-1v1.29h-1.385v-1.29h-3.308v-.956l2.895-3.895h1.492l-2.685,3.693h1.649V212.8h1.342v1.149h1Z" transform="translate(-208.071 -210.259)"/></g><g transform="translate(6.112)"><path class="b" d="M212.881,213.352c0-2.026,1.123-3.176,2.632-3.176s2.632,1.15,2.632,3.176-1.114,3.176-2.632,3.176S212.881,215.377,212.881,213.352Zm3.834,0c0-1.394-.492-1.973-1.2-1.973s-1.192.579-1.192,1.973.49,1.973,1.192,1.973S216.715,214.746,216.715,213.352Z" transform="translate(-212.881 -210.176)"/></g><g transform="translate(11.961 0.036)"><path class="b" d="M217.484,211.9a1.53,1.53,0,1,1,1.526,1.693A1.528,1.528,0,0,1,217.484,211.9Zm2.168,0c0-.658-.255-.973-.642-.973s-.64.324-.64.973.263.973.64.973S219.652,212.555,219.652,211.9Zm3.017-1.623h1.043l-4.192,6.14h-1.045Zm-1.009,4.517a1.531,1.531,0,1,1,1.517,1.693A1.525,1.525,0,0,1,221.66,214.791Zm2.158,0c0-.649-.254-.973-.64-.973s-.64.315-.64.973.263.973.64.973S223.817,215.441,223.817,214.791Z" transform="translate(-217.484 -210.204)"/></g></g><g transform="translate(4.661 60.596)"><path class="b" d="M242.171,240.021c0,.141-10.01.257-22.355.257s-22.359-.116-22.359-.257,10.008-.257,22.359-.257S242.171,239.88,242.171,240.021Z" transform="translate(-197.458 -239.764)"/><g transform="translate(9.957 4.106)"><path class="b" d="M230.094,243.252c0,.141-5.552.255-12.4.255s-12.4-.114-12.4-.255,5.551-.257,12.4-.257S230.094,243.109,230.094,243.252Z" transform="translate(-205.294 -242.995)"/></g></g></g></g><g transform="translate(72.453 55.236)"><g transform="translate(10.891)"><path class="a" d="M442.195,89.893s-.441.02-1.305.03l-3.844.029-14.855.056-55.257.1-187.718.116.46-.33c0,14.752.006,30.05.009,45.707,0,16.132-.006,31.884-.009,47.095l-.46-.33,186.413.116,54.823.1,14.734.056,3.812.029c.856.01,1.295.03,1.295.03s-.438.02-1.295.031l-3.812.029-14.734.056-54.823.1-186.413.116h-.459v-.33c0-15.211-.005-30.963-.009-47.095,0-15.657.006-30.955.009-45.707v-.33h.46l187.718.116,55.257.1,14.855.057,3.844.029C441.754,89.873,442.195,89.893,442.195,89.893Z" transform="translate(-178.748 -89.563)"/></g><g transform="translate(11.36 15.617)"><path class="a" d="M442.1,102.19c0,.186-58.874.337-131.483.337-72.634,0-131.5-.151-131.5-.337s58.862-.337,131.5-.337C383.221,101.853,442.1,102,442.1,102.19Z" transform="translate(-179.117 -101.853)"/></g><g transform="translate(11.36 28.4)"><path class="a" d="M442.1,112.249c0,.187-58.874.337-131.483.337-72.634,0-131.5-.15-131.5-.337s58.862-.337,131.5-.337C383.221,111.912,442.1,112.063,442.1,112.249Z" transform="translate(-179.117 -111.912)"/></g><g transform="translate(11.36 41.182)"><path class="a" d="M442.1,122.308c0,.187-58.874.338-131.483.338-72.634,0-131.5-.151-131.5-.338s58.862-.337,131.5-.337C383.221,121.971,442.1,122.122,442.1,122.308Z" transform="translate(-179.117 -121.971)"/></g><g transform="translate(11.36 53.965)"><path class="a" d="M442.1,132.368c0,.186-58.874.337-131.483.337-72.634,0-131.5-.151-131.5-.337s58.862-.337,131.5-.337C383.221,132.031,442.1,132.182,442.1,132.368Z" transform="translate(-179.117 -132.031)"/></g><g transform="translate(11.36 66.748)"><path class="a" d="M442.1,142.427c0,.187-58.874.337-131.483.337-72.634,0-131.5-.15-131.5-.337s58.862-.337,131.5-.337C383.221,142.09,442.1,142.241,442.1,142.427Z" transform="translate(-179.117 -142.09)"/></g><g transform="translate(11.36 79.531)"><path class="a" d="M179.117,152.487c0-.187,58.874-.337,131.483-.337,72.634,0,131.5.15,131.5.337s-58.862.337-131.5.337C237.991,152.823,179.117,152.672,179.117,152.487Z" transform="translate(-179.117 -152.15)"/></g><g transform="translate(48.299 0.33)"><path class="a" d="M208.523,184.036c-.186,0-.337-21.092-.337-47.1s.151-47.109.337-47.109.337,21.088.337,47.109S208.71,184.036,208.523,184.036Z" transform="translate(-208.186 -89.823)"/></g><g transform="translate(86.175 0.33)"><path class="a" d="M238.329,184.036c-.186,0-.337-21.092-.337-47.1s.151-47.109.337-47.109.337,21.088.337,47.109S238.514,184.036,238.329,184.036Z" transform="translate(-237.992 -89.823)"/></g><g transform="translate(124.049 0.33)"><path class="a" d="M268.135,184.036c-.187,0-.338-21.092-.338-47.1s.151-47.109.338-47.109.337,21.088.337,47.109S268.321,184.036,268.135,184.036Z" transform="translate(-267.797 -89.823)"/></g><g transform="translate(161.924 0.33)"><path class="a" d="M297.94,184.036c-.186,0-.337-21.092-.337-47.1s.151-47.109.337-47.109.337,21.088.337,47.109S298.127,184.036,297.94,184.036Z" transform="translate(-297.603 -89.823)"/></g><g transform="translate(199.8 0.33)"><path class="a" d="M327.746,184.036c-.187,0-.337-21.092-.337-47.1s.15-47.109.337-47.109.337,21.088.337,47.109S327.931,184.036,327.746,184.036Z" transform="translate(-327.409 -89.823)"/></g><g transform="translate(236.464 0.33)"><path class="a" d="M356.6,184.036c-.187,0-.337-21.092-.337-47.1s.15-47.109.337-47.109.337,21.088.337,47.109S356.784,184.036,356.6,184.036Z" transform="translate(-356.262 -89.823)"/></g><g transform="translate(274.338 0.33)"><path class="a" d="M386.4,184.036c-.186,0-.337-21.092-.337-47.1s.151-47.109.337-47.109.338,21.088.338,47.109S386.591,184.036,386.4,184.036Z" transform="translate(-386.067 -89.823)"/></g><g transform="translate(46.331 77.562)"><path class="d" d="M211.248,152.906a2.306,2.306,0,1,1-2.306-2.306A2.306,2.306,0,0,1,211.248,152.906Z" transform="translate(-206.637 -150.6)"/></g><g transform="translate(84.206 51.997)"><path class="d" d="M241.053,132.787a2.305,2.305,0,1,1-2.305-2.305A2.3,2.3,0,0,1,241.053,132.787Z" transform="translate(-236.443 -130.482)"/></g><g transform="translate(122.08 64.56)"><path class="d" d="M270.859,142.674a2.306,2.306,0,1,1-2.305-2.306A2.3,2.3,0,0,1,270.859,142.674Z" transform="translate(-266.248 -140.368)"/></g><g transform="translate(160.341 39.324)"><path class="d" d="M300.351,121.125a2.39,2.39,0,0,1-3.378,3.379h0A2.39,2.39,0,0,1,300.351,121.125Z" transform="translate(-296.357 -120.509)"/></g><g transform="translate(198.649 39.324)"><path class="d" d="M330.5,121.125a2.39,2.39,0,0,1-3.378,3.379h0A2.39,2.39,0,0,1,330.5,121.125Z" transform="translate(-326.504 -120.509)"/></g><g transform="translate(234.49 64.419)"><path class="d" d="M358.7,140.873a2.39,2.39,0,0,1-3.376,3.379h0A2.39,2.39,0,0,1,358.7,140.873Z" transform="translate(-354.708 -140.257)"/></g><g transform="translate(84.206 26.431)"><path class="h" d="M241.053,112.668a2.305,2.305,0,1,1-2.305-2.305A2.3,2.3,0,0,1,241.053,112.668Z" transform="translate(-236.443 -110.363)"/></g><g transform="translate(46.331 64.779)"><path class="h" d="M211.248,142.846a2.306,2.306,0,1,1-2.306-2.305A2.307,2.307,0,0,1,211.248,142.846Z" transform="translate(-206.637 -140.541)"/></g><g transform="translate(234.495 77.562)"><path class="h" d="M358.707,151.217a2.39,2.39,0,0,1-3.378,3.378A2.39,2.39,0,0,1,358.707,151.217Z" transform="translate(-354.712 -150.6)"/></g><g transform="translate(197.831 51.997)"><path class="h" d="M330.47,132.787a2.305,2.305,0,1,1-2.305-2.305A2.3,2.3,0,0,1,330.47,132.787Z" transform="translate(-325.86 -130.482)"/></g><g transform="translate(160.341 51.66)"><path class="h" d="M300.968,132.522a2.306,2.306,0,1,1-2.306-2.305A2.306,2.306,0,0,1,300.968,132.522Z" transform="translate(-296.357 -130.217)"/></g><g transform="translate(25.528 103.375)"><path class="a" d="M197.56,171.251c0,.186-1.633.337-3.647.337s-3.647-.151-3.647-.337,1.633-.337,3.647-.337S197.56,171.065,197.56,171.251Z" transform="translate(-190.266 -170.914)"/></g><g transform="translate(64.241 103.375)"><path class="a" d="M228.024,171.251c0,.186-1.633.337-3.647.337s-3.646-.151-3.646-.337,1.632-.337,3.646-.337S228.024,171.065,228.024,171.251Z" transform="translate(-220.731 -170.914)"/></g><g transform="translate(102.952 103.375)"><path class="a" d="M258.489,171.251c0,.186-1.633.337-3.647.337s-3.647-.151-3.647-.337,1.633-.337,3.647-.337S258.489,171.065,258.489,171.251Z" transform="translate(-251.195 -170.914)"/></g><g transform="translate(141.664 103.375)"><path class="a" d="M288.953,171.251c0,.186-1.633.337-3.647.337s-3.647-.151-3.647-.337,1.633-.337,3.647-.337S288.953,171.065,288.953,171.251Z" transform="translate(-281.659 -170.914)"/></g><g transform="translate(180.377 103.375)"><path class="a" d="M319.417,171.251c0,.186-1.632.337-3.646.337s-3.647-.151-3.647-.337,1.632-.337,3.647-.337S319.417,171.065,319.417,171.251Z" transform="translate(-312.124 -170.914)"/></g><g transform="translate(214.994 103.375)"><path class="a" d="M346.659,171.251c0,.186-1.632.337-3.646.337s-3.647-.151-3.647-.337,1.632-.337,3.647-.337S346.659,171.065,346.659,171.251Z" transform="translate(-339.366 -170.914)"/></g><g transform="translate(249.611 103.375)"><path class="a" d="M373.9,171.251c0,.186-1.632.337-3.646.337s-3.647-.151-3.647-.337,1.633-.337,3.647-.337S373.9,171.065,373.9,171.251Z" transform="translate(-366.608 -170.914)"/></g><g transform="translate(0 3.073)"><g transform="translate(0 89.207)"><path class="a" d="M176.068,162.519c0,.186-1.319.337-2.946.337s-2.946-.151-2.946-.337,1.319-.337,2.946-.337S176.068,162.333,176.068,162.519Z" transform="translate(-170.177 -162.182)"/></g><g transform="translate(0 74.339)"><path class="a" d="M176.068,150.819c0,.186-1.319.337-2.946.337s-2.946-.151-2.946-.337,1.319-.337,2.946-.337S176.068,150.633,176.068,150.819Z" transform="translate(-170.177 -150.482)"/></g><g transform="translate(0 59.472)"><path class="a" d="M176.068,139.119c0,.186-1.319.337-2.946.337s-2.946-.151-2.946-.337,1.319-.337,2.946-.337S176.068,138.933,176.068,139.119Z" transform="translate(-170.177 -138.782)"/></g><g transform="translate(0 44.604)"><path class="a" d="M176.068,127.419c0,.186-1.319.337-2.946.337s-2.946-.151-2.946-.337,1.319-.337,2.946-.337S176.068,127.232,176.068,127.419Z" transform="translate(-170.177 -127.082)"/></g><g transform="translate(0 29.736)"><path class="a" d="M176.068,115.719c0,.186-1.319.337-2.946.337s-2.946-.151-2.946-.337,1.319-.337,2.946-.337S176.068,115.532,176.068,115.719Z" transform="translate(-170.177 -115.382)"/></g><g transform="translate(0 14.869)"><path class="a" d="M176.068,104.019c0,.186-1.319.337-2.946.337s-2.946-.151-2.946-.337,1.319-.337,2.946-.337S176.068,103.832,176.068,104.019Z" transform="translate(-170.177 -103.682)"/></g><path class="a" d="M176.068,92.318c0,.187-1.319.338-2.946.338s-2.946-.151-2.946-.338,1.319-.337,2.946-.337S176.068,92.132,176.068,92.318Z" transform="translate(-170.177 -91.981)"/></g><g transform="translate(10.69 40.884)"><path class="d" d="M179.011,174.584l-.422-1.2,37.658-13.237,38.066-25.7,37.879,12.565,38.162-25.17,38.219-.112.165.117,36.31,25.652,35.18-23.247.7,1.06-35.9,23.726-.354-.251-36.5-25.785-37.434.109-38.358,25.3-37.872-12.562L216.747,161.32Z" transform="translate(-178.589 -121.736)"/></g><g transform="translate(11.361 14.681)"><path class="h" d="M405.106,166.573l-37.072-25.2H329.827L291.6,116.142l-37.068-.333-37.873,38.346H179.117v-1.271h37.01L254,114.534l37.981.341L330.21,140.1h38.216l36.256,24.647,36.212-63.632,1.1.628Z" transform="translate(-179.117 -101.116)"/></g></g><g transform="translate(282.617 36.644)"><path class="b" d="M399.351,75.264c0,.183-14.28.33-31.892.33s-31.894-.147-31.894-.33,14.277-.332,31.894-.332S399.351,75.081,399.351,75.264Z" transform="translate(-335.565 -74.932)"/></g></g><text class="i" transform="translate(196.674 87.36)"><tspan x="0" y="0">NIC/NIIF</tspan></text></g><g transform="translate(166.254 3704.64)"><g transform="translate(39.552 78.739)"><g transform="translate(55.251 90.865)"><path class="j" d="M126.962,207.187l-2.553,3.192v-5.491h-8.042s-.894,12.577-.7,15.257,3.191,10.34,3.191,10.34a29.627,29.627,0,0,0,8.106-7.085c3.574-4.6,9.513-15.79,9.513-15.79l-6.194-3.741Z" transform="translate(-115.638 -203.868)"/><g transform="translate(3.844 2.726)"><path class="k" d="M128.92,207.625a9.135,9.135,0,0,1-1.051,1.4c-.678.841-1.618,2-2.693,3.253s-2.089,2.356-2.877,3.1a5.782,5.782,0,0,1-1.366,1.107,13.543,13.543,0,0,1,1.175-1.295c.733-.789,1.708-1.914,2.781-3.163A39.489,39.489,0,0,1,128.92,207.625Z" transform="translate(-120.931 -207.622)"/></g></g><g transform="translate(6.997 49.526)"><g transform="translate(43.805 3.414)"><path class="e" d="M125.553,172.327s-2.291-18.767-11.35-20.685l-4.692,18.038,3.9,13.01,12.934-1.765Z" transform="translate(-109.511 -151.642)"/></g><path class="e" d="M49.188,183.51l.428,1.34,8.9,27.893s21.941,8.342,29.825,5.04,11.533-7.994,11.533-7.994l-1.759-59.37-12.51-1.9-21.575-1.584-14.452,4.637Z" transform="translate(-49.188 -146.941)"/><g class="l" transform="translate(0 33.451)"><path d="M76.419,206.995a92.857,92.857,0,0,1-22.811-13.989l-4.419,2.357c3.322,6.7,6.084,12.818,10.662,18.733a15.6,15.6,0,0,0,6.095,4.891,10.192,10.192,0,0,0,10.238-2.083c2.629-2.447,4.6-9.631,3.735-15.494C78.443,201.492,77.785,207.559,76.419,206.995Z" transform="translate(-49.188 -193.006)"/></g><g transform="translate(45.608 19.093)"><path class="b" d="M116.548,184.426A21.73,21.73,0,0,0,112,173.235a6.054,6.054,0,0,1,1.24,1.325,16.42,16.42,0,0,1,3.274,8.05A6.015,6.015,0,0,1,116.548,184.426Z" transform="translate(-111.994 -173.234)"/></g></g><g transform="translate(9.599)"><g transform="translate(23.134 6.868)"><path class="b" d="M109.02,116.828A3.217,3.217,0,0,1,106,115.478a3.83,3.83,0,0,0,2.322-.128c.7-.359,1.1-1.394.55-1.958-.43-.441-1.139-.365-1.752-.41a3.79,3.79,0,0,1-3.225-2.475c-.52-1.494-.045-3.123.142-4.693a12.925,12.925,0,0,0-5.411-11.93L88.786,88.2c-3.568,4.566-4.681,10.72-3.941,16.467s3.178,11.15,6.109,16.149a19.179,19.179,0,0,0,2.969,4.085,7.606,7.606,0,0,0,4.421,2.269,4.56,4.56,0,0,0-.728-4.117,9.928,9.928,0,0,0,7.316-2.62l-2.109-1.617A7.7,7.7,0,0,0,109.02,116.828Z" transform="translate(-84.628 -88.197)"/></g><g transform="translate(9.611 7.191)"><path class="j" d="M66.035,100.9a9.219,9.219,0,0,1,6.689-8.683L85.057,88.7c5.353-.733,9.126,5.769,9.631,11.147.561,5.976.983,12.287.41,16.775-1.15,9.027-8,10.382-8,10.382s.121,4.274.191,6.9l-2.01,11.758L69.019,131.776l-3.012-30.762C66,100.861,66.026,101.11,66.035,100.9Z" transform="translate(-66.005 -88.642)"/><g transform="translate(24.826 17.062)"><path class="b" d="M102.49,113.143a1.152,1.152,0,0,1-1.075,1.2,1.1,1.1,0,0,1-1.219-1,1.153,1.153,0,0,1,1.074-1.2A1.1,1.1,0,0,1,102.49,113.143Z" transform="translate(-100.193 -112.137)"/></g><g transform="translate(22.879 13.619)"><path class="b" d="M102.067,108.539c-.138.155-1.03-.464-2.27-.423-1.239.023-2.129.689-2.269.542-.068-.065.07-.341.457-.642a3.16,3.16,0,0,1,1.81-.619,3.033,3.033,0,0,1,1.813.524C102,108.2,102.136,108.469,102.067,108.539Z" transform="translate(-97.512 -107.396)"/></g><g transform="translate(13.97 17.075)"><path class="b" d="M87.54,113.163a1.152,1.152,0,0,1-1.075,1.2,1.1,1.1,0,0,1-1.219-1,1.154,1.154,0,0,1,1.074-1.2A1.1,1.1,0,0,1,87.54,113.163Z" transform="translate(-85.243 -112.156)"/></g><g transform="translate(11.105 13.955)"><path class="b" d="M85.854,109c-.139.155-1.033-.464-2.271-.423-1.238.023-2.128.689-2.268.542-.068-.065.068-.341.457-.642a3.167,3.167,0,0,1,1.81-.619,3.039,3.039,0,0,1,1.813.524C85.784,108.665,85.922,108.933,85.854,109Z" transform="translate(-81.298 -107.859)"/></g><g transform="translate(18.918 14.412)"><path class="b" d="M92.954,118.8a8.259,8.259,0,0,1,2-.425c.316-.043.614-.115.66-.333a1.612,1.612,0,0,0-.24-.932l-1.01-2.382a41.438,41.438,0,0,1-2.3-6.24,41.6,41.6,0,0,1,2.793,6.041q.509,1.255.972,2.4a1.836,1.836,0,0,1,.2,1.237.794.794,0,0,1-.507.479,2.156,2.156,0,0,1-.535.091A8.067,8.067,0,0,1,92.954,118.8Z" transform="translate(-92.057 -108.489)"/></g><g transform="translate(9.087 35.504)"><path class="k" d="M78.519,137.534s3.1,6.087,12.065,4.97l-.058-2.113A22.642,22.642,0,0,1,78.519,137.534Z" transform="translate(-78.519 -137.534)"/></g><g transform="translate(9.503 9.771)"><path class="b" d="M84.733,102.955c-.112.341-1.354.219-2.8.439-1.453.191-2.613.653-2.815.357-.091-.142.1-.465.569-.807a4.937,4.937,0,0,1,4.281-.606C84.5,102.537,84.78,102.794,84.733,102.955Z" transform="translate(-79.092 -102.097)"/></g><g transform="translate(22.694 9.761)"><path class="b" d="M101.485,103.3c-.209.288-1.072.023-2.1.04-1.028-.018-1.891.248-2.1-.041-.092-.14.036-.426.408-.705a3.039,3.039,0,0,1,3.384,0C101.449,102.878,101.577,103.164,101.485,103.3Z" transform="translate(-97.256 -102.084)"/></g><g transform="translate(15.138 25.866)"><path class="k" d="M86.878,125.541a1.618,1.618,0,0,1,1.637-1.276,1.693,1.693,0,0,1,1.327.887,2.079,2.079,0,0,1,.12,1.616l-.023.117a1.843,1.843,0,0,1-2.061.5A1.724,1.724,0,0,1,86.878,125.541Z" transform="translate(-86.851 -124.261)"/></g><g transform="translate(15.586 25.054)"><path class="b" d="M91.007,126.579c0-.189-1.256-.093-2.228-1.094s-.94-2.346-1.115-2.342c-.08-.011-.22.317-.191.881a3.125,3.125,0,0,0,.86,1.96,2.722,2.722,0,0,0,1.863.837C90.722,126.828,91.021,126.664,91.007,126.579Z" transform="translate(-87.469 -123.143)"/></g></g><g transform="translate(13.786)"><path class="b" d="M71.755,83.882a12.509,12.509,0,0,1,7.231-4.953c2.925-.512,4.687-.01,6.611,1.746a7.281,7.281,0,0,0,2.9,1.717c1.4.272,2.576.041,4.249.9,2.286,1.169,3.288,4.226,4.347,6.565,1.317,2.906,3.192,5.581,4.051,8.654s.4,6.848-2.188,8.713c.495-2.623.9-5.541-.538-7.787-1.1-1.714-3.055-2.663-4.464-4.132-1.7-1.772-1.921-4.143-3.7-5.834-4.066-3.86-11.226,2.932-18.495-5.584" transform="translate(-71.755 -78.739)"/></g><g transform="translate(16.132 5.244)"><path class="b" d="M98.47,98.143a26.281,26.281,0,0,0-4.008-7.26,14.117,14.117,0,0,0-18.766-2.405l-.709.06A11.91,11.91,0,0,0,84.245,93c2.112-.01,4.4-.552,6.215.534,1.741,1.044,2.4,3.236,3.835,4.674.975.979,2.285,1.58,3.231,2.587a10.587,10.587,0,0,1,2,3.877C100.157,102.512,99.327,100.223,98.47,98.143Z" transform="translate(-74.986 -85.96)"/></g><g transform="translate(0 4.444)"><path class="b" d="M73.486,89.932l-5.759-5.064c-4.489-.234-7.369,4.008-8.91,7.283-1.146,2.434-1.5,5.158-2.364,7.706-.886,2.616-2.3,5.035-3.108,7.677s-.917,5.713.674,7.971l1-1.847a11.164,11.164,0,0,0,3.02,6.894q.193-.963.386-1.924a10.825,10.825,0,0,0,4.333,4.668l2.7,7.211C69.445,118.372,59.187,117.452,73.486,89.932Z" transform="translate(-52.77 -84.858)"/></g><g transform="translate(2.841 4.651)"><path class="b" d="M73.733,91.067a26.086,26.086,0,0,1-1.353,4.82,9.271,9.271,0,0,1-2.964,3.967c-1.97,1.428-4.507,1.722-6.873,2.291s-4.887,1.662-5.862,3.892A55.731,55.731,0,0,1,58.7,96.376c1.055-3.476,2.577-7.018,5.473-9.21a10.032,10.032,0,0,1,9.455-1.41" transform="translate(-56.682 -85.145)"/></g><g transform="translate(8.151 25.936)"><path class="j" d="M69.611,114.963c-.121-.3-5.708-2.139-5.614,3.742.091,5.714,5.822,4.425,5.83,4.26S69.611,114.963,69.611,114.963Z" transform="translate(-63.995 -114.455)"/><g transform="translate(1.434 1.88)"><path class="k" d="M68.563,121.543c-.026-.017-.1.072-.265.152a.993.993,0,0,1-.744.03,2.463,2.463,0,0,1-1.182-2.187,3.283,3.283,0,0,1,.251-1.431,1.153,1.153,0,0,1,.734-.778.507.507,0,0,1,.593.261c.079.158.046.273.076.282s.121-.1.07-.333a.632.632,0,0,0-.232-.354.747.747,0,0,0-.553-.134,1.4,1.4,0,0,0-1.023.906,3.38,3.38,0,0,0-.314,1.6,2.585,2.585,0,0,0,1.5,2.439,1.067,1.067,0,0,0,.908-.168C68.555,121.682,68.583,121.554,68.563,121.543Z" transform="translate(-65.971 -117.044)"/></g><g transform="translate(1.992 7.353)"><g transform="translate(0.118 0.043)"><path class="c" d="M68.2,124.651a1.124,1.124,0,1,0,.269.077" transform="translate(-66.901 -124.639)"/></g><path class="b" d="M68.422,124.712a1.536,1.536,0,0,1,.535.753.967.967,0,0,1-.2.9,1,1,0,0,1-1.772-.509.967.967,0,0,1,.312-.871,1.538,1.538,0,0,1,.854-.353c0-.015-.089-.057-.27-.055a1.166,1.166,0,0,0-.705.269,1.141,1.141,0,0,0-.428,1.043,1.227,1.227,0,0,0,2.194.631,1.144,1.144,0,0,0,.191-1.112,1.167,1.167,0,0,0-.455-.6C68.527,124.711,68.427,124.7,68.422,124.712Z" transform="translate(-66.739 -124.58)"/></g></g><g transform="translate(5.59 18.322)"><path class="h" d="M62.775,118.734c-.009.009-.068-.035-.175-.128a3.871,3.871,0,0,1-.436-.44,6.843,6.843,0,0,1-1.19-1.947,6.71,6.71,0,0,1-.454-3.361,5.733,5.733,0,0,1,2.023-3.608,13.9,13.9,0,0,1,3.571-2.1c1.16-.5,2.2-.94,3.032-1.393a12.351,12.351,0,0,0,2.474-1.787,2.474,2.474,0,0,1-.522.651,8.88,8.88,0,0,1-1.821,1.369,32.437,32.437,0,0,1-3.019,1.478,14.265,14.265,0,0,0-3.465,2.064,5.47,5.47,0,0,0-1.927,3.373,6.667,6.667,0,0,0,.359,3.216A9.976,9.976,0,0,0,62.775,118.734Z" transform="translate(-60.468 -103.971)"/></g><g transform="translate(6.925 18.965)"><path class="h" d="M62.776,115.585a1.459,1.459,0,0,1-.256-.557,4.649,4.649,0,0,1-.206-1.663,5.318,5.318,0,0,1,.7-2.394,5.229,5.229,0,0,1,2.235-2.078,29.27,29.27,0,0,1,2.792-1.129,7.778,7.778,0,0,0,2.088-1.158,4.608,4.608,0,0,0,1.308-1.749,1.257,1.257,0,0,1-.137.6,3.736,3.736,0,0,1-1,1.353,7.429,7.429,0,0,1-2.131,1.277c-.855.362-1.825.664-2.749,1.142a5.024,5.024,0,0,0-2.11,1.919,5.313,5.313,0,0,0-.734,2.237A7.76,7.76,0,0,0,62.776,115.585Z" transform="translate(-62.307 -104.856)"/></g><g transform="translate(14.673 4.543)"><path class="h" d="M78.565,91.4a16.7,16.7,0,0,0-2.233-3.688A16.767,16.767,0,0,0,72.978,85a3.188,3.188,0,0,1,1.2.483,9.257,9.257,0,0,1,4.066,4.658A3.179,3.179,0,0,1,78.565,91.4Z" transform="translate(-72.977 -84.996)"/></g><g transform="translate(37.062 18.765)"><path class="h" d="M113.267,117.769a2.809,2.809,0,0,1-.733-.1,14.74,14.74,0,0,1-1.949-.523,8.388,8.388,0,0,1-1.288-.572,3.463,3.463,0,0,1-1.253-1.075,2.188,2.188,0,0,1-.34-.86l-.065-.436a3.1,3.1,0,0,1-.053-.479,5.951,5.951,0,0,1,.349-1.906,7.139,7.139,0,0,0,.4-1.789,2.763,2.763,0,0,0-.445-1.564,11.966,11.966,0,0,0-1.977-2.148,16.7,16.7,0,0,0-1.51-1.3,5.159,5.159,0,0,1-.592-.436,6.584,6.584,0,0,1,2.281,1.536,11.146,11.146,0,0,1,2.094,2.163,3.083,3.083,0,0,1,.519,1.76,7.237,7.237,0,0,1-.406,1.887,5.77,5.77,0,0,0-.339,1.786,2.678,2.678,0,0,0,.041.42l.061.443a1.841,1.841,0,0,0,.277.732,3.22,3.22,0,0,0,1.118.994,8.879,8.879,0,0,0,1.224.592C112.248,117.491,113.285,117.7,113.267,117.769Z" transform="translate(-103.807 -104.58)"/></g></g><g transform="translate(34.863 266.209)"><g transform="translate(0.895)"><path class="j" d="M88.795,453.872l.316-8.015,13.968-.526-.212,9.809L97.787,458.2Z" transform="translate(-88.795 -445.332)"/></g><g transform="translate(0 7.525)"><path class="e" d="M102.833,456.153l-.005.919s15.508,6.4,15.645,9.357l-30.912-.454.572-10.28A17.685,17.685,0,0,0,102.833,456.153Z" transform="translate(-87.562 -455.694)"/><g class="m" transform="translate(2.736 3.286)"><path class="c" d="M92.247,460.268a1.262,1.262,0,0,0-.894,1.428,1.214,1.214,0,0,0,1.407.9,1.332,1.332,0,0,0,.939-1.517,1.259,1.259,0,0,0-1.568-.773" transform="translate(-91.33 -460.219)"/></g><g class="m" transform="translate(0 7.808)"><path class="c" d="M87.562,468.919l.137-2.473,29.577,1.34s1.367.619,1.2,1.586Z" transform="translate(-87.562 -466.446)"/></g><g transform="translate(12.531 1.319)"><path class="b" d="M107.66,457.657c-.007.151-.763.208-1.513.683-.762.455-1.155,1.1-1.293,1.041-.139-.031.1-.93,1.018-1.489S107.7,457.519,107.66,457.657Z" transform="translate(-104.818 -457.51)"/></g><g transform="translate(16.516 2.79)"><path class="b" d="M112.385,459.6c.033.147-.625.394-1.147,1.025-.541.615-.68,1.3-.831,1.295-.142.022-.233-.864.431-1.636S112.384,459.456,112.385,459.6Z" transform="translate(-110.306 -459.536)"/></g><g transform="translate(20.207 4.174)"><path class="b" d="M115.562,464.029c-.138.031-.337-.727.063-1.547s1.11-1.14,1.172-1.013c.083.125-.381.562-.7,1.241C115.764,463.381,115.712,464.017,115.562,464.029Z" transform="translate(-115.388 -461.442)"/></g></g></g><g transform="translate(22.306 266.391)"><g transform="translate(0.895 0)"><path class="j" d="M71.5,454.123l.316-8.015,13.968-.526-.212,9.809-5.079,3.064Z" transform="translate(-71.502 -445.582)"/></g><g transform="translate(0 7.525)"><path class="e" d="M85.541,456.4l-.005.919s15.508,6.4,15.646,9.357l-30.912-.455.571-10.28A17.688,17.688,0,0,0,85.541,456.4Z" transform="translate(-70.27 -455.945)"/><g class="m" transform="translate(2.736 3.286)"><path class="c" d="M74.955,460.519a1.262,1.262,0,0,0-.894,1.428,1.213,1.213,0,0,0,1.407.9,1.332,1.332,0,0,0,.939-1.517,1.26,1.26,0,0,0-1.568-.772" transform="translate(-74.038 -460.47)"/></g><g class="m" transform="translate(0 7.807)"><path class="c" d="M70.27,469.169l.137-2.473,29.577,1.341s1.367.619,1.2,1.586Z" transform="translate(-70.27 -466.696)"/></g><g transform="translate(12.531 1.318)"><path class="b" d="M90.367,457.908c-.007.151-.762.208-1.513.683-.762.455-1.155,1.1-1.293,1.041-.139-.031.1-.93,1.017-1.489S90.4,457.77,90.367,457.908Z" transform="translate(-87.526 -457.76)"/></g><g transform="translate(16.516 2.79)"><path class="b" d="M95.093,459.851c.033.147-.625.394-1.147,1.025-.54.616-.68,1.3-.83,1.295-.142.022-.234-.863.431-1.635S95.092,459.707,95.093,459.851Z" transform="translate(-93.014 -459.787)"/></g><g transform="translate(20.207 4.173)"><path class="b" d="M98.269,464.28c-.137.03-.336-.727.063-1.548s1.111-1.139,1.173-1.013c.084.126-.381.562-.7,1.241C98.471,463.632,98.419,464.267,98.269,464.28Z" transform="translate(-98.096 -461.692)"/></g></g></g><g transform="translate(2.22 40.741)"><g transform="translate(0 19.918)"><path class="j" d="M42.609,179.013s11.62,18.012,17.721,25.274,16.124.871,17.286-9.006.871-28.179.871-28.179l-8.116-4.831-5.247,24.986-6.536-12.166Z" transform="translate(-42.609 -162.271)"/></g><g transform="translate(27.706)"><g transform="translate(0.055 0.177)"><path class="j" d="M88.955,159.658l3.486-8.715a13.891,13.891,0,0,0,2.059-1.19c.511-.479.41-3.6.265-4.184s.565-2.179.065-2.47-1.9,0-1.953-.581c-.012-.123.723-1.6-.293-2.336a4.423,4.423,0,0,0-1.608-.29L90.408,137s-2.324-3.042-3.632-1.452c0,0-4.939,5.955-5.374,6.827s-.563,10.966-.563,12.854" transform="translate(-80.839 -135.086)"/></g><path class="k" d="M80.818,155.16a2.772,2.772,0,0,1-.036-.526c0-.381-.011-.882-.019-1.509,0-1.311.005-3.21.067-5.562.034-1.176.073-2.465.177-3.852.033-.348.06-.7.123-1.065a2.267,2.267,0,0,1,.508-1.028c.435-.6.9-1.2,1.385-1.818.966-1.227,2-2.5,3.078-3.818a4.475,4.475,0,0,1,.931-.972,1.538,1.538,0,0,1,1.422.015,6.314,6.314,0,0,1,2.083,1.791l.026.032.009.046c.055.28.114.582.174.885.133.678.265,1.348.394,2.009l-.181-.152a7.108,7.108,0,0,1,1.134.115,1.583,1.583,0,0,1,.587.217,1.477,1.477,0,0,1,.41.465,1.834,1.834,0,0,1,.169,1.165,3.6,3.6,0,0,1-.123.548l-.081.256-.016.054c.005-.01,0-.031,0-.012a.081.081,0,0,0,.02.047c.03.062.19.118.343.142s.329.038.5.052.347.023.528.051a.993.993,0,0,1,.579.237.849.849,0,0,1,.152.609,3.923,3.923,0,0,1-.066.523c-.061.335-.14.655-.182.964a1.241,1.241,0,0,0,0,.425,4.332,4.332,0,0,1,.065.5c.026.325.038.643.044.959a12.616,12.616,0,0,1-.093,1.848,2.269,2.269,0,0,1-.274.9,2.732,2.732,0,0,1-.731.54c-.489.284-.973.529-1.446.758l.07-.076-2.606,6.347L89.216,159a3.94,3.94,0,0,1-.281.592,3.875,3.875,0,0,1,.2-.623l.66-1.752,2.489-6.393.02-.05.051-.025c.463-.232.943-.482,1.416-.763a2.664,2.664,0,0,0,.632-.463,2.085,2.085,0,0,0,.21-.765,12.455,12.455,0,0,0,.076-1.8c-.008-.309-.022-.622-.049-.935a4.034,4.034,0,0,0-.06-.454,1.589,1.589,0,0,1-.01-.545c.044-.339.123-.661.179-.983a3.563,3.563,0,0,0,.058-.474.553.553,0,0,0-.065-.357.8.8,0,0,0-.363-.118c-.158-.024-.327-.033-.5-.046s-.351-.023-.537-.054a.858.858,0,0,1-.583-.293.443.443,0,0,1-.08-.193.287.287,0,0,1,0-.142l.021-.073.078-.251a3.209,3.209,0,0,0,.11-.493,1.469,1.469,0,0,0-.129-.932,1.1,1.1,0,0,0-.3-.345,1.29,1.29,0,0,0-.439-.151,6.88,6.88,0,0,0-1.068-.107l-.152-.005-.029-.147c-.13-.659-.263-1.331-.4-2.008-.06-.3-.119-.606-.174-.885l.035.078a6,6,0,0,0-1.936-1.678,1.17,1.17,0,0,0-1.085-.033,4.463,4.463,0,0,0-.831.882c-1.083,1.311-2.12,2.58-3.091,3.8-.485.609-.955,1.206-1.389,1.8a1.963,1.963,0,0,0-.46.893c-.062.341-.093.691-.128,1.033-.117,1.373-.171,2.661-.223,3.834-.077,2.318-.14,4.2-.185,5.555-.021.626-.038,1.127-.051,1.508A2.828,2.828,0,0,1,80.818,155.16Z" transform="translate(-80.763 -134.843)"/></g><g transform="translate(29.052 4.963)"><path class="k" d="M91.464,141.7c.012.064-.6.153-1.526.459a11.432,11.432,0,0,0-1.551.746,7.72,7.72,0,0,1-2.112.5,4.1,4.1,0,0,0-3.087,1.838,4.4,4.4,0,0,0-.513,1.463,2.02,2.02,0,0,1,.282-1.6,3.985,3.985,0,0,1,1.2-1.33,4.479,4.479,0,0,1,2.058-.748,8.275,8.275,0,0,0,2.027-.443,9.3,9.3,0,0,1,1.615-.683A4.251,4.251,0,0,1,91.464,141.7Z" transform="translate(-82.616 -141.677)"/></g><g transform="translate(35.247 3.722)"><path class="k" d="M91.647,141.552c-.078.065-.4-.229-.481-.733s.125-.885.219-.849.083.382.154.787S91.734,141.49,91.647,141.552Z" transform="translate(-91.147 -139.968)"/></g><g transform="translate(32.403 7.655)"><path class="k" d="M94.838,145.4a13.387,13.387,0,0,1-4.586.671,4.586,4.586,0,0,0-1.7.166,1.843,1.843,0,0,0-.911.952,11.016,11.016,0,0,0-.333,1.277,2.059,2.059,0,0,1,.084-1.378,2.035,2.035,0,0,1,1.017-1.169,4.454,4.454,0,0,1,1.843-.227C92.782,145.675,94.816,145.294,94.838,145.4Z" transform="translate(-87.231 -145.384)"/></g><g transform="translate(34.831 10.167)"><path class="k" d="M97.166,148.89a2.477,2.477,0,0,1-1.107.257c-.7.079-1.664.052-2.706.084a6.024,6.024,0,0,0-1.426.177,1.714,1.714,0,0,0-.922.591,1.64,1.64,0,0,0-.29.99c-.02.009-.1-.083-.131-.29a1.3,1.3,0,0,1,.2-.85,1.886,1.886,0,0,1,1.037-.773,5.461,5.461,0,0,1,1.518-.224c1.072-.031,2.02.038,2.706.028A5.5,5.5,0,0,1,97.166,148.89Z" transform="translate(-90.574 -148.844)"/></g><g transform="translate(38.653 12.768)"><path class="k" d="M97.315,152.432c.073.033-.313.68-1.247.89l.148-.2.054.495a5.352,5.352,0,0,1,0,2,5.4,5.4,0,0,1-.381-1.956l-.042-.493-.015-.174.163-.027A6.512,6.512,0,0,0,97.315,152.432Z" transform="translate(-95.838 -152.425)"/></g></g><g transform="translate(7.464 111.313)"><path class="n" d="M100.022,232.026s10.336,22.815,10.336,37.084-10.193,60.926-10.193,60.926-1.359,12.911-2.717,30.124a205.657,205.657,0,0,1-5.21,31.936H82.047l-16.533.453s-7.021-28.765-6.568-39.637,2.265-23.328,2.265-23.328S52.376,293.571,50.791,287c-.621-2.574-.9-7.478-.956-12.695a83.309,83.309,0,0,1,5.832-31.39l2.885-7.323Z" transform="translate(-49.831 -232.026)"/><g transform="translate(29.864 45.618)"><path class="h" d="M96.044,294.846c-.112,0-1.34,25.536-2.743,57.041s-2.45,57.06-2.338,57.065S92.3,383.42,93.707,351.9,96.156,294.851,96.044,294.846Z" transform="translate(-90.956 -294.846)"/></g><g transform="translate(34.96 3.145)"><path class="h" d="M100.194,268.629a7.746,7.746,0,0,0,.225-1.262c.125-.815.259-2,.382-3.473a77.225,77.225,0,0,0-1.574-22.931c-.323-1.439-.618-2.6-.853-3.387a7.693,7.693,0,0,0-.4-1.219,7.761,7.761,0,0,0,.243,1.258c.187.8.438,1.966.724,3.408a89.234,89.234,0,0,1,1.569,22.852c-.086,1.468-.176,2.655-.253,3.474A7.661,7.661,0,0,0,100.194,268.629Z" transform="translate(-97.974 -236.357)"/></g><g transform="translate(2.449 11.434)"><path class="h" d="M53.2,258.324a2.017,2.017,0,0,0,.709.429,5.272,5.272,0,0,0,2.232.373,12.93,12.93,0,0,0,6.822-2.782,15.942,15.942,0,0,0,4.716-5.679,13.656,13.656,0,0,0,.831-2.088,3.2,3.2,0,0,0,.176-.805c-.078-.026-.367,1.116-1.262,2.762a16.92,16.92,0,0,1-4.706,5.488,13.439,13.439,0,0,1-6.592,2.819A6.174,6.174,0,0,1,53.2,258.324Z" transform="translate(-53.203 -247.771)"/></g><g transform="translate(45.132 8.399)"><path class="h" d="M111.988,243.593a2.631,2.631,0,0,0,.168.727,14.415,14.415,0,0,0,.712,1.9,20.361,20.361,0,0,0,9.031,9.636,14.45,14.45,0,0,0,1.852.834,2.624,2.624,0,0,0,.715.214c.028-.068-.959-.454-2.428-1.3a22.42,22.42,0,0,1-8.911-9.506C112.378,244.579,112.057,243.57,111.988,243.593Z" transform="translate(-111.981 -243.592)"/></g><g transform="translate(30.517 5.934)"><path class="h" d="M91.9,242.145c.033,0,.046-.158.132-.414a1.777,1.777,0,0,1,.655-.882,1.642,1.642,0,0,1,1.526-.194,1.592,1.592,0,0,1,0,2.979,1.64,1.64,0,0,1-1.526-.195,1.773,1.773,0,0,1-.655-.882c-.086-.256-.1-.414-.132-.413s-.066.158-.021.452a1.767,1.767,0,0,0,.635,1.072,1.906,1.906,0,0,0,1.828.317,1.95,1.95,0,0,0,0-3.682,1.906,1.906,0,0,0-1.828.317,1.767,1.767,0,0,0-.635,1.072C91.83,241.986,91.874,242.146,91.9,242.145Z" transform="translate(-91.855 -240.197)"/></g><g transform="translate(16.457 96.891)"><path class="h" d="M72.495,365.458a50.322,50.322,0,0,0,5.48,3.274,50.408,50.408,0,0,0,5.677,2.918,50.287,50.287,0,0,0-5.48-3.274A50.48,50.48,0,0,0,72.495,365.458Z" transform="translate(-72.494 -365.453)"/></g></g><g transform="translate(47.435 61.825)"><g transform="translate(0.171 0.151)"><path class="a" d="M124.966,166.985c-3.156,4.8-15.931,24.222-19.708,29.966a.888.888,0,0,0,.855,1.367l22.7-2.855a.891.891,0,0,0,.606-.357L151.093,165.5a.889.889,0,0,0-.783-1.411l-23.351,1.728A2.61,2.61,0,0,0,124.966,166.985Z" transform="translate(-105.11 -164.085)"/></g><path class="b" d="M124.9,166.928a1.538,1.538,0,0,1,.181-.272,2.542,2.542,0,0,1,.734-.619,3.187,3.187,0,0,1,1.512-.367l2.112-.174L142.9,164.44l4.462-.342,2.373-.182c.21-.012.386-.038.626-.038a1.01,1.01,0,0,1,.653.271,1.042,1.042,0,0,1,.173,1.333l-6.31,8.655L130.4,193.932c-.33.444-.622.863-.98,1.325a1.082,1.082,0,0,1-.4.273,1.823,1.823,0,0,1-.441.087l-.8.1-3.176.4-6.208.778-11.738,1.465c-.243.026-.445.065-.72.08a1.042,1.042,0,0,1-.752-.313,1.077,1.077,0,0,1-.31-.746,1.247,1.247,0,0,1,.273-.728l1.5-2.268,2.863-4.335,5.143-7.778,7.47-11.248,2.046-3.048.54-.787a1.987,1.987,0,0,1,.2-.261,2.158,2.158,0,0,1-.163.282l-.509.807-1.988,3.087-7.369,11.314-5.1,7.8-2.847,4.346-1.489,2.272a.893.893,0,0,0-.215.54.729.729,0,0,0,.213.5.694.694,0,0,0,.505.209c.192-.011.454-.054.678-.079l11.735-1.488,6.207-.784,3.176-.4.8-.1a1.486,1.486,0,0,0,.351-.065.694.694,0,0,0,.261-.177l.952-1.292,14.5-19.777,6.328-8.62a.729.729,0,0,0-.118-.936.7.7,0,0,0-.458-.192c-.168,0-.4.025-.59.035l-2.374.171-4.463.317-13.471.937-2.115.139a3.151,3.151,0,0,0-1.484.322A2.982,2.982,0,0,0,124.9,166.928Z" transform="translate(-104.874 -163.878)"/><g transform="translate(1.82 1.556)"><path class="b" d="M151.715,166.029a2.726,2.726,0,0,1-.476.07l-1.378.139-5.129.455-17.441,1.424.139-.081c-1.091,1.622-2.218,3.306-3.349,5.046-4.6,7.075-8.623,13.578-11.659,18.205-1.509,2.319-2.764,4.174-3.638,5.451L107.76,198.2a3.718,3.718,0,0,1-.378.494,3.808,3.808,0,0,1,.315-.536l.964-1.5,3.536-5.514c2.977-4.661,6.96-11.184,11.567-18.267,1.131-1.741,2.262-3.425,3.359-5.047l.051-.074.089-.007,17.451-1.295,5.138-.344,1.383-.076A2.546,2.546,0,0,1,151.715,166.029Z" transform="translate(-107.381 -166.021)"/></g><g transform="translate(31.266 5.788)"><g transform="translate(0.817 0.006)"><path class="c" d="M149.055,171.86h0l.009,0Z" transform="translate(-149.055 -171.857)"/></g><path class="c" d="M149.309,172.2a.458.458,0,0,0-.561-.338,1.215,1.215,0,0,0-.609.342.607.607,0,0,0-.111.778c.227.28.693.177.966-.058A.794.794,0,0,0,149.309,172.2Z" transform="translate(-147.93 -171.848)"/></g><g transform="translate(18.185 20.397)"><path class="j" d="M133.775,194.5s-.9-2.135,1.378-2.411a78.786,78.786,0,0,1,8.241,0s3.263.344,2.574,2.687c0,0,1.929,1.722.9,3.581s-1.447,1.309-1.447,1.309.276,2.273-1.447,2.617c0,0-1.867,2.2-3.585,2.067s-9.02-3.651-9.5-4.34-1.171-1.081-.757-1.849c0,0-.9-2.016,1.033-2.322C131.158,195.84,131.3,194.156,133.775,194.5Z" transform="translate(-129.917 -191.967)"/></g><g transform="translate(22.12 22.771)"><path class="k" d="M145.616,196.166a6.244,6.244,0,0,1-1.536.11c-.948.02-2.258.021-3.7,0a21.917,21.917,0,0,1-3.719-.221c-.98-.227-1.365-.8-1.319-.815a3.9,3.9,0,0,0,1.374.553c.9.151,2.226.058,3.67.1,1.446.023,2.754.063,3.7.112A6.308,6.308,0,0,1,145.616,196.166Z" transform="translate(-135.335 -195.236)"/></g><g transform="translate(19.313 23.649)"><path class="k" d="M142.93,199.941a1.134,1.134,0,0,1-.494.171,5.292,5.292,0,0,1-1.42.088,10.006,10.006,0,0,1-2.072-.375c-.762-.211-1.574-.5-2.429-.766a10.856,10.856,0,0,0-2.445-.5,3.756,3.756,0,0,1-2.083-.42,1.194,1.194,0,0,1-.5-.709.981.981,0,0,1,.086-.646c.18-.328.424-.347.418-.328.019.029-.176.1-.283.388a.89.89,0,0,0,.426,1.073,3.739,3.739,0,0,0,1.951.294,10.183,10.183,0,0,1,2.537.491l2.416.793a11.545,11.545,0,0,0,2,.444A12.987,12.987,0,0,0,142.93,199.941Z" transform="translate(-131.47 -196.444)"/></g><g transform="translate(18.242 26.746)"><path class="k" d="M140.085,204.021a6.126,6.126,0,0,1-1.534-.3c-.933-.235-2.213-.6-3.608-1.057s-2.644-.919-3.536-1.281a6.159,6.159,0,0,1-1.412-.667c.038-.1,2.282.68,5.066,1.589S140.113,203.917,140.085,204.021Z" transform="translate(-129.994 -200.71)"/></g><g transform="translate(20.904 29.547)"><path class="k" d="M141.674,207.78a3.349,3.349,0,0,1-1.272-.147,15.173,15.173,0,0,1-2.908-1.023c-1.1-.5-2.05-1.007-2.742-1.374a4.6,4.6,0,0,1-1.09-.659,23.916,23.916,0,0,1,3.987,1.688C139.8,207.3,141.688,207.681,141.674,207.78Z" transform="translate(-133.661 -204.566)"/></g></g><g transform="translate(0 54.163)"><path class="e" d="M46.942,153.326s-9.338,3.889-7.021,16.245,3.524,16.483,3.524,16.483l18.409-9.686Z" transform="translate(-39.552 -153.326)"/><g transform="translate(3.893 23.244)"><path class="b" d="M62.932,185.338a3.3,3.3,0,0,1-.672.437c-.445.259-1.1.624-1.9,1.068-1.614.888-3.857,2.092-6.345,3.4s-4.752,2.476-6.4,3.3c-.823.414-1.492.743-1.959.963a3.254,3.254,0,0,1-.742.307,3.241,3.241,0,0,1,.674-.437c.445-.26,1.1-.625,1.9-1.069,1.614-.888,3.857-2.092,6.345-3.4s4.748-2.476,6.4-3.3c.823-.413,1.492-.743,1.959-.963A3.29,3.29,0,0,1,62.932,185.338Z" transform="translate(-44.913 -185.335)"/></g><g transform="translate(15.314 11.43)"><path class="b" d="M67.239,180.883a12.018,12.018,0,0,1-1.006-1.712L63.895,175c-.887-1.569-1.69-2.987-2.356-4.163a10.41,10.41,0,0,1-.894-1.774,10.284,10.284,0,0,1,1.124,1.638c.653,1.038,1.529,2.486,2.455,4.112s1.715,3.126,2.247,4.232A9.11,9.11,0,0,1,67.239,180.883Z" transform="translate(-60.641 -169.066)"/></g></g></g></g></g></svg>