<svg xmlns="http://www.w3.org/2000/svg" width="485.846" height="325.876" viewBox="0 0 485.846 325.876"><defs><style>.a{fill:#12263f;font-size:15px;font-family:Roboto-Regular, Roboto;}.b,.d{fill:none;stroke:#12263f;}.b,.d,.e{stroke-miterlimit:10;}.c{fill:#6595bf;}.d,.e{stroke-width:2px;}.e{fill:#d9a171;stroke:#d9a171;}.f{fill:#fff;font-size:21px;font-family:Roboto-Bold, Roboto;font-weight:700;}</style></defs><g transform="translate(-304 -638.063)"><text class="a" transform="translate(435.867 709.429)"><tspan x="-116.865" y="0">1.800.000.000.00</tspan><tspan x="-116.865" y="23">1.600.000.000.00</tspan><tspan x="-116.865" y="46">1.400.000.000.00</tspan><tspan x="-116.865" y="69">1.200.000.000.00</tspan><tspan x="-116.865" y="92">1.000.000.000.00</tspan><tspan x="-104.495" y="115">800.000.000.00</tspan><tspan x="-104.495" y="138">600.000.000.00</tspan><tspan x="-104.495" y="161">400.000.000.00</tspan><tspan x="-104.495" y="184">200.000.000.00</tspan><tspan x="-29.216" y="207">0.00</tspan></text><path class="b" d="M199.194,524.141V735.29h310.95" transform="translate(260.832 180.704)"/><line class="b" x2="310.95" transform="translate(460.026 706.037)"/><line class="b" x2="310.95" transform="translate(460.026 728.765)"/><line class="b" x2="310.95" transform="translate(460.026 751.492)"/><line class="b" x2="310.95" transform="translate(460.026 775.525)"/><line class="b" x2="310.95" transform="translate(460.026 798.253)"/><line class="b" x2="310.95" transform="translate(460.026 820.98)"/><line class="b" x2="310.95" transform="translate(460.026 843.708)"/><line class="b" x2="310.95" transform="translate(460.026 867.741)"/><line class="b" x2="310.95" transform="translate(460.026 890.469)"/><rect class="c" width="26.664" height="193.995" transform="translate(485.595 721.999)"/><rect class="c" width="26.664" height="105.574" transform="translate(562.988 810.42)"/><rect class="c" width="26.664" height="88.666" transform="translate(639.557 827.329)"/><rect class="c" width="26.664" height="5.94" transform="translate(711.315 910.055)"/><text class="a" transform="translate(467.856 938.533)"><tspan x="0" y="0">Ingresos</tspan></text><text class="a" transform="translate(552.921 938.533)"><tspan x="0" y="0">Gastos</tspan></text><text class="a" transform="translate(627.993 938.533)"><tspan x="0" y="0">Costos</tspan></text><text class="a" transform="translate(697.52 938.533)"><tspan x="0" y="0">Utilidad</tspan></text><rect class="d" width="483.846" height="323.876" transform="translate(305 639.063)"/><rect class="e" width="483.846" height="33.134" transform="translate(305 639.063)"/><text class="f" transform="translate(361.814 661.907)"><tspan x="0" y="0">ESTADO DE RESULTADO con UTILIDAD</tspan></text></g></svg>