<svg xmlns="http://www.w3.org/2000/svg" width="485.846" height="325.876" viewBox="0 0 485.846 325.876"><defs><style>.a{fill:#12263f;}.b,.c,.g{fill:none;stroke:#12263f;}.b{stroke-miterlimit:10;}.d{fill:#6595bf;}.e{fill:#d9a171;stroke:#d9a171;}.e,.g{stroke-width:2px;}.f{fill:#fff;}</style></defs><g transform="translate(7058.75 13807.937)"><path class="a" d="M-108.992,0h-6.987V-.974l3.691-4.1a8.77,8.77,0,0,0,1.132-1.512,2.524,2.524,0,0,0,.311-1.2,1.913,1.913,0,0,0-.505-1.37A1.767,1.767,0,0,0-112.7-9.7a2.093,2.093,0,0,0-1.571.575,2.2,2.2,0,0,0-.56,1.6h-1.355a3.145,3.145,0,0,1,.948-2.38,3.516,3.516,0,0,1,2.538-.908,3.379,3.379,0,0,1,2.351.78,2.661,2.661,0,0,1,.864,2.076q0,1.575-2.007,3.75l-2.856,3.1h5.354Zm1.6-.71a.849.849,0,0,1,.209-.586.8.8,0,0,1,.626-.234.819.819,0,0,1,.634.234.831.831,0,0,1,.216.586.786.786,0,0,1-.216.564.834.834,0,0,1-.634.227.809.809,0,0,1-.626-.227A.8.8,0,0,1-107.388-.71Zm10.466-3.838a6.2,6.2,0,0,1-.813,3.538A2.891,2.891,0,0,1-100.276.146,2.912,2.912,0,0,1-102.8-.985a5.882,5.882,0,0,1-.85-3.38V-6.174a6.059,6.059,0,0,1,.813-3.494,2.914,2.914,0,0,1,2.549-1.143,2.94,2.94,0,0,1,2.534,1.1,5.847,5.847,0,0,1,.835,3.4ZM-98.276-6.4A4.965,4.965,0,0,0-98.76-8.91a1.664,1.664,0,0,0-1.531-.787,1.642,1.642,0,0,0-1.516.784A4.848,4.848,0,0,0-102.3-6.5v2.168a5.045,5.045,0,0,0,.5,2.552,1.661,1.661,0,0,0,1.52.824,1.638,1.638,0,0,0,1.49-.776,4.862,4.862,0,0,0,.509-2.446ZM-88.5-4.548a6.2,6.2,0,0,1-.813,3.538A2.891,2.891,0,0,1-91.853.146,2.912,2.912,0,0,1-94.38-.985a5.882,5.882,0,0,1-.85-3.38V-6.174a6.059,6.059,0,0,1,.813-3.494,2.914,2.914,0,0,1,2.549-1.143,2.94,2.94,0,0,1,2.534,1.1,5.847,5.847,0,0,1,.835,3.4ZM-89.854-6.4a4.965,4.965,0,0,0-.483-2.509A1.664,1.664,0,0,0-91.868-9.7a1.642,1.642,0,0,0-1.516.784,4.848,4.848,0,0,0-.491,2.41v2.168a5.045,5.045,0,0,0,.5,2.552,1.661,1.661,0,0,0,1.52.824,1.638,1.638,0,0,0,1.49-.776,4.862,4.862,0,0,0,.509-2.446Zm9.778,1.853a6.2,6.2,0,0,1-.813,3.538A2.891,2.891,0,0,1-83.43.146,2.912,2.912,0,0,1-85.957-.985a5.882,5.882,0,0,1-.85-3.38V-6.174a6.059,6.059,0,0,1,.813-3.494,2.914,2.914,0,0,1,2.549-1.143,2.94,2.94,0,0,1,2.534,1.1,5.847,5.847,0,0,1,.835,3.4ZM-81.431-6.4a4.965,4.965,0,0,0-.483-2.509A1.664,1.664,0,0,0-83.445-9.7a1.642,1.642,0,0,0-1.516.784,4.848,4.848,0,0,0-.491,2.41v2.168a5.045,5.045,0,0,0,.5,2.552,1.661,1.661,0,0,0,1.52.824,1.638,1.638,0,0,0,1.49-.776,4.862,4.862,0,0,0,.509-2.446ZM-78.171-.71a.849.849,0,0,1,.209-.586.8.8,0,0,1,.626-.234A.819.819,0,0,1-76.7-1.3a.831.831,0,0,1,.216.586.786.786,0,0,1-.216.564.834.834,0,0,1-.634.227.809.809,0,0,1-.626-.227A.8.8,0,0,1-78.171-.71Zm10.466-3.838a6.2,6.2,0,0,1-.813,3.538A2.891,2.891,0,0,1-71.06.146,2.912,2.912,0,0,1-73.586-.985a5.882,5.882,0,0,1-.85-3.38V-6.174a6.059,6.059,0,0,1,.813-3.494,2.914,2.914,0,0,1,2.549-1.143,2.94,2.94,0,0,1,2.534,1.1,5.847,5.847,0,0,1,.835,3.4ZM-69.06-6.4a4.965,4.965,0,0,0-.483-2.509A1.664,1.664,0,0,0-71.074-9.7a1.642,1.642,0,0,0-1.516.784,4.848,4.848,0,0,0-.491,2.41v2.168a5.045,5.045,0,0,0,.5,2.552,1.661,1.661,0,0,0,1.52.824,1.638,1.638,0,0,0,1.49-.776,4.862,4.862,0,0,0,.509-2.446Zm9.778,1.853A6.2,6.2,0,0,1-60.1-1.011,2.891,2.891,0,0,1-62.637.146,2.912,2.912,0,0,1-65.164-.985a5.882,5.882,0,0,1-.85-3.38V-6.174A6.059,6.059,0,0,1-65.2-9.668a2.914,2.914,0,0,1,2.549-1.143,2.94,2.94,0,0,1,2.534,1.1,5.847,5.847,0,0,1,.835,3.4ZM-60.637-6.4a4.965,4.965,0,0,0-.483-2.509A1.664,1.664,0,0,0-62.651-9.7a1.642,1.642,0,0,0-1.516.784,4.848,4.848,0,0,0-.491,2.41v2.168a5.045,5.045,0,0,0,.5,2.552,1.661,1.661,0,0,0,1.52.824,1.638,1.638,0,0,0,1.49-.776,4.862,4.862,0,0,0,.509-2.446Zm9.778,1.853a6.2,6.2,0,0,1-.813,3.538A2.891,2.891,0,0,1-54.214.146,2.912,2.912,0,0,1-56.741-.985a5.882,5.882,0,0,1-.85-3.38V-6.174a6.059,6.059,0,0,1,.813-3.494,2.914,2.914,0,0,1,2.549-1.143,2.94,2.94,0,0,1,2.534,1.1,5.847,5.847,0,0,1,.835,3.4ZM-52.214-6.4A4.965,4.965,0,0,0-52.7-8.91,1.664,1.664,0,0,0-54.229-9.7a1.642,1.642,0,0,0-1.516.784,4.848,4.848,0,0,0-.491,2.41v2.168a5.045,5.045,0,0,0,.5,2.552,1.661,1.661,0,0,0,1.52.824,1.638,1.638,0,0,0,1.49-.776,4.862,4.862,0,0,0,.509-2.446ZM-48.955-.71a.849.849,0,0,1,.209-.586.8.8,0,0,1,.626-.234.819.819,0,0,1,.634.234.831.831,0,0,1,.216.586.786.786,0,0,1-.216.564.834.834,0,0,1-.634.227.809.809,0,0,1-.626-.227A.8.8,0,0,1-48.955-.71Zm10.466-3.838A6.2,6.2,0,0,1-39.3-1.011,2.891,2.891,0,0,1-41.843.146,2.912,2.912,0,0,1-44.37-.985a5.882,5.882,0,0,1-.85-3.38V-6.174a6.059,6.059,0,0,1,.813-3.494,2.914,2.914,0,0,1,2.549-1.143,2.94,2.94,0,0,1,2.534,1.1,5.847,5.847,0,0,1,.835,3.4ZM-39.844-6.4a4.965,4.965,0,0,0-.483-2.509A1.664,1.664,0,0,0-41.858-9.7a1.642,1.642,0,0,0-1.516.784,4.848,4.848,0,0,0-.491,2.41v2.168a5.045,5.045,0,0,0,.5,2.552,1.661,1.661,0,0,0,1.52.824,1.638,1.638,0,0,0,1.49-.776,4.862,4.862,0,0,0,.509-2.446Zm9.778,1.853a6.2,6.2,0,0,1-.813,3.538A2.891,2.891,0,0,1-33.42.146,2.912,2.912,0,0,1-35.947-.985a5.882,5.882,0,0,1-.85-3.38V-6.174a6.059,6.059,0,0,1,.813-3.494,2.914,2.914,0,0,1,2.549-1.143,2.94,2.94,0,0,1,2.534,1.1,5.847,5.847,0,0,1,.835,3.4ZM-31.421-6.4A4.965,4.965,0,0,0-31.9-8.91,1.664,1.664,0,0,0-33.435-9.7a1.642,1.642,0,0,0-1.516.784,4.848,4.848,0,0,0-.491,2.41v2.168a5.045,5.045,0,0,0,.5,2.552,1.661,1.661,0,0,0,1.52.824,1.638,1.638,0,0,0,1.49-.776,4.862,4.862,0,0,0,.509-2.446Zm9.778,1.853a6.2,6.2,0,0,1-.813,3.538A2.891,2.891,0,0,1-25,.146,2.912,2.912,0,0,1-27.524-.985a5.882,5.882,0,0,1-.85-3.38V-6.174a6.059,6.059,0,0,1,.813-3.494,2.914,2.914,0,0,1,2.549-1.143,2.94,2.94,0,0,1,2.534,1.1,5.847,5.847,0,0,1,.835,3.4ZM-23-6.4a4.965,4.965,0,0,0-.483-2.509A1.664,1.664,0,0,0-25.012-9.7a1.642,1.642,0,0,0-1.516.784,4.848,4.848,0,0,0-.491,2.41v2.168a5.045,5.045,0,0,0,.5,2.552A1.661,1.661,0,0,0-25-.959a1.638,1.638,0,0,0,1.49-.776A4.862,4.862,0,0,0-23-4.182ZM-19.739-.71A.849.849,0,0,1-19.53-1.3a.8.8,0,0,1,.626-.234.819.819,0,0,1,.634.234.831.831,0,0,1,.216.586.786.786,0,0,1-.216.564A.834.834,0,0,1-18.9.081a.809.809,0,0,1-.626-.227A.8.8,0,0,1-19.739-.71ZM-9.272-4.548a6.2,6.2,0,0,1-.813,3.538A2.891,2.891,0,0,1-12.627.146,2.912,2.912,0,0,1-15.154-.985,5.882,5.882,0,0,1-16-4.365V-6.174a6.059,6.059,0,0,1,.813-3.494,2.914,2.914,0,0,1,2.549-1.143,2.94,2.94,0,0,1,2.534,1.1,5.847,5.847,0,0,1,.835,3.4ZM-10.627-6.4a4.965,4.965,0,0,0-.483-2.509A1.664,1.664,0,0,0-12.642-9.7a1.642,1.642,0,0,0-1.516.784,4.848,4.848,0,0,0-.491,2.41v2.168a5.045,5.045,0,0,0,.5,2.552,1.661,1.661,0,0,0,1.52.824,1.638,1.638,0,0,0,1.49-.776,4.862,4.862,0,0,0,.509-2.446ZM-.85-4.548a6.2,6.2,0,0,1-.813,3.538A2.891,2.891,0,0,1-4.2.146,2.912,2.912,0,0,1-6.731-.985a5.882,5.882,0,0,1-.85-3.38V-6.174a6.059,6.059,0,0,1,.813-3.494,2.914,2.914,0,0,1,2.549-1.143,2.94,2.94,0,0,1,2.534,1.1,5.847,5.847,0,0,1,.835,3.4ZM-2.2-6.4A4.965,4.965,0,0,0-2.688-8.91,1.664,1.664,0,0,0-4.219-9.7a1.642,1.642,0,0,0-1.516.784A4.848,4.848,0,0,0-6.226-6.5v2.168a5.045,5.045,0,0,0,.5,2.552A1.661,1.661,0,0,0-4.2-.959a1.638,1.638,0,0,0,1.49-.776A4.862,4.862,0,0,0-2.2-4.182ZM-111.526,23h-1.362V13.969l-2.732,1v-1.23l3.882-1.458h.212Zm4.138-.71a.849.849,0,0,1,.209-.586.8.8,0,0,1,.626-.234.819.819,0,0,1,.634.234.831.831,0,0,1,.216.586.786.786,0,0,1-.216.564.834.834,0,0,1-.634.227.809.809,0,0,1-.626-.227A.8.8,0,0,1-107.388,22.29Zm4.4-4.636.542-5.317h5.464v1.252h-4.314l-.322,2.908a3.441,3.441,0,0,1,1.78-.461A2.942,2.942,0,0,1-97.522,17a3.775,3.775,0,0,1,.857,2.6,3.643,3.643,0,0,1-.89,2.6,3.243,3.243,0,0,1-2.487.948,3.371,3.371,0,0,1-2.307-.784,3.128,3.128,0,0,1-1.018-2.168h1.282a2.152,2.152,0,0,0,.652,1.381,2.027,2.027,0,0,0,1.392.465,1.828,1.828,0,0,0,1.483-.645,2.694,2.694,0,0,0,.538-1.78A2.473,2.473,0,0,0-98.6,17.9a1.981,1.981,0,0,0-1.549-.648,2.234,2.234,0,0,0-1.392.388l-.359.293Zm14.487.8a6.2,6.2,0,0,1-.813,3.538,2.891,2.891,0,0,1-2.542,1.157,2.912,2.912,0,0,1-2.527-1.132,5.882,5.882,0,0,1-.85-3.38V16.826a6.059,6.059,0,0,1,.813-3.494,2.914,2.914,0,0,1,2.549-1.143,2.94,2.94,0,0,1,2.534,1.1,5.847,5.847,0,0,1,.835,3.4ZM-89.854,16.6a4.965,4.965,0,0,0-.483-2.509,1.664,1.664,0,0,0-1.531-.787,1.642,1.642,0,0,0-1.516.784,4.848,4.848,0,0,0-.491,2.41v2.168a5.045,5.045,0,0,0,.5,2.552,1.661,1.661,0,0,0,1.52.824,1.638,1.638,0,0,0,1.49-.776,4.862,4.862,0,0,0,.509-2.446Zm9.778,1.853a6.2,6.2,0,0,1-.813,3.538,2.891,2.891,0,0,1-2.542,1.157,2.912,2.912,0,0,1-2.527-1.132,5.882,5.882,0,0,1-.85-3.38V16.826a6.059,6.059,0,0,1,.813-3.494,2.914,2.914,0,0,1,2.549-1.143,2.94,2.94,0,0,1,2.534,1.1,5.847,5.847,0,0,1,.835,3.4ZM-81.431,16.6a4.965,4.965,0,0,0-.483-2.509,1.664,1.664,0,0,0-1.531-.787,1.642,1.642,0,0,0-1.516.784,4.848,4.848,0,0,0-.491,2.41v2.168a5.045,5.045,0,0,0,.5,2.552,1.661,1.661,0,0,0,1.52.824,1.638,1.638,0,0,0,1.49-.776,4.862,4.862,0,0,0,.509-2.446Zm3.259,5.691a.849.849,0,0,1,.209-.586.8.8,0,0,1,.626-.234.819.819,0,0,1,.634.234.831.831,0,0,1,.216.586.786.786,0,0,1-.216.564.834.834,0,0,1-.634.227.809.809,0,0,1-.626-.227A.8.8,0,0,1-78.171,22.29Zm10.466-3.838a6.2,6.2,0,0,1-.813,3.538,2.891,2.891,0,0,1-2.542,1.157,2.912,2.912,0,0,1-2.527-1.132,5.882,5.882,0,0,1-.85-3.38V16.826a6.059,6.059,0,0,1,.813-3.494,2.914,2.914,0,0,1,2.549-1.143,2.94,2.94,0,0,1,2.534,1.1,5.847,5.847,0,0,1,.835,3.4ZM-69.06,16.6a4.965,4.965,0,0,0-.483-2.509,1.664,1.664,0,0,0-1.531-.787,1.642,1.642,0,0,0-1.516.784,4.848,4.848,0,0,0-.491,2.41v2.168a5.045,5.045,0,0,0,.5,2.552,1.661,1.661,0,0,0,1.52.824,1.638,1.638,0,0,0,1.49-.776,4.862,4.862,0,0,0,.509-2.446Zm9.778,1.853a6.2,6.2,0,0,1-.813,3.538,2.891,2.891,0,0,1-2.542,1.157,2.912,2.912,0,0,1-2.527-1.132,5.882,5.882,0,0,1-.85-3.38V16.826a6.059,6.059,0,0,1,.813-3.494,2.914,2.914,0,0,1,2.549-1.143,2.94,2.94,0,0,1,2.534,1.1,5.847,5.847,0,0,1,.835,3.4ZM-60.637,16.6a4.965,4.965,0,0,0-.483-2.509,1.664,1.664,0,0,0-1.531-.787,1.642,1.642,0,0,0-1.516.784,4.848,4.848,0,0,0-.491,2.41v2.168a5.045,5.045,0,0,0,.5,2.552,1.661,1.661,0,0,0,1.52.824,1.638,1.638,0,0,0,1.49-.776,4.862,4.862,0,0,0,.509-2.446Zm9.778,1.853a6.2,6.2,0,0,1-.813,3.538,2.891,2.891,0,0,1-2.542,1.157,2.912,2.912,0,0,1-2.527-1.132,5.882,5.882,0,0,1-.85-3.38V16.826a6.059,6.059,0,0,1,.813-3.494,2.914,2.914,0,0,1,2.549-1.143,2.94,2.94,0,0,1,2.534,1.1,5.847,5.847,0,0,1,.835,3.4ZM-52.214,16.6A4.965,4.965,0,0,0-52.7,14.09a1.664,1.664,0,0,0-1.531-.787,1.642,1.642,0,0,0-1.516.784,4.848,4.848,0,0,0-.491,2.41v2.168a5.045,5.045,0,0,0,.5,2.552,1.661,1.661,0,0,0,1.52.824,1.638,1.638,0,0,0,1.49-.776,4.862,4.862,0,0,0,.509-2.446Zm3.259,5.691a.849.849,0,0,1,.209-.586.8.8,0,0,1,.626-.234.819.819,0,0,1,.634.234.831.831,0,0,1,.216.586.786.786,0,0,1-.216.564.834.834,0,0,1-.634.227.809.809,0,0,1-.626-.227A.8.8,0,0,1-48.955,22.29Zm10.466-3.838a6.2,6.2,0,0,1-.813,3.538,2.891,2.891,0,0,1-2.542,1.157,2.912,2.912,0,0,1-2.527-1.132,5.882,5.882,0,0,1-.85-3.38V16.826a6.059,6.059,0,0,1,.813-3.494,2.914,2.914,0,0,1,2.549-1.143,2.94,2.94,0,0,1,2.534,1.1,5.847,5.847,0,0,1,.835,3.4ZM-39.844,16.6a4.965,4.965,0,0,0-.483-2.509,1.664,1.664,0,0,0-1.531-.787,1.642,1.642,0,0,0-1.516.784,4.848,4.848,0,0,0-.491,2.41v2.168a5.045,5.045,0,0,0,.5,2.552,1.661,1.661,0,0,0,1.52.824,1.638,1.638,0,0,0,1.49-.776,4.862,4.862,0,0,0,.509-2.446Zm9.778,1.853a6.2,6.2,0,0,1-.813,3.538,2.891,2.891,0,0,1-2.542,1.157,2.912,2.912,0,0,1-2.527-1.132,5.882,5.882,0,0,1-.85-3.38V16.826a6.059,6.059,0,0,1,.813-3.494,2.914,2.914,0,0,1,2.549-1.143,2.94,2.94,0,0,1,2.534,1.1,5.847,5.847,0,0,1,.835,3.4ZM-31.421,16.6A4.965,4.965,0,0,0-31.9,14.09a1.664,1.664,0,0,0-1.531-.787,1.642,1.642,0,0,0-1.516.784,4.848,4.848,0,0,0-.491,2.41v2.168a5.045,5.045,0,0,0,.5,2.552,1.661,1.661,0,0,0,1.52.824,1.638,1.638,0,0,0,1.49-.776,4.862,4.862,0,0,0,.509-2.446Zm9.778,1.853a6.2,6.2,0,0,1-.813,3.538A2.891,2.891,0,0,1-25,23.146a2.912,2.912,0,0,1-2.527-1.132,5.882,5.882,0,0,1-.85-3.38V16.826a6.059,6.059,0,0,1,.813-3.494,2.914,2.914,0,0,1,2.549-1.143,2.94,2.94,0,0,1,2.534,1.1,5.847,5.847,0,0,1,.835,3.4ZM-23,16.6a4.965,4.965,0,0,0-.483-2.509,1.664,1.664,0,0,0-1.531-.787,1.642,1.642,0,0,0-1.516.784,4.848,4.848,0,0,0-.491,2.41v2.168a5.045,5.045,0,0,0,.5,2.552,1.661,1.661,0,0,0,1.52.824,1.638,1.638,0,0,0,1.49-.776A4.862,4.862,0,0,0-23,18.818Zm3.259,5.691a.849.849,0,0,1,.209-.586.8.8,0,0,1,.626-.234.819.819,0,0,1,.634.234.831.831,0,0,1,.216.586.786.786,0,0,1-.216.564.834.834,0,0,1-.634.227.809.809,0,0,1-.626-.227A.8.8,0,0,1-19.739,22.29Zm10.466-3.838a6.2,6.2,0,0,1-.813,3.538,2.891,2.891,0,0,1-2.542,1.157,2.912,2.912,0,0,1-2.527-1.132,5.882,5.882,0,0,1-.85-3.38V16.826a6.059,6.059,0,0,1,.813-3.494,2.914,2.914,0,0,1,2.549-1.143,2.94,2.94,0,0,1,2.534,1.1,5.847,5.847,0,0,1,.835,3.4ZM-10.627,16.6a4.965,4.965,0,0,0-.483-2.509,1.664,1.664,0,0,0-1.531-.787,1.642,1.642,0,0,0-1.516.784,4.848,4.848,0,0,0-.491,2.41v2.168a5.045,5.045,0,0,0,.5,2.552,1.661,1.661,0,0,0,1.52.824,1.638,1.638,0,0,0,1.49-.776,4.862,4.862,0,0,0,.509-2.446ZM-.85,18.452a6.2,6.2,0,0,1-.813,3.538A2.891,2.891,0,0,1-4.2,23.146a2.912,2.912,0,0,1-2.527-1.132,5.882,5.882,0,0,1-.85-3.38V16.826a6.059,6.059,0,0,1,.813-3.494,2.914,2.914,0,0,1,2.549-1.143,2.94,2.94,0,0,1,2.534,1.1,5.847,5.847,0,0,1,.835,3.4ZM-2.2,16.6a4.965,4.965,0,0,0-.483-2.509A1.664,1.664,0,0,0-4.219,13.3a1.642,1.642,0,0,0-1.516.784,4.848,4.848,0,0,0-.491,2.41v2.168a5.045,5.045,0,0,0,.5,2.552,1.661,1.661,0,0,0,1.52.824,1.638,1.638,0,0,0,1.49-.776A4.862,4.862,0,0,0-2.2,18.818ZM-111.526,46h-1.362V36.969l-2.732,1v-1.23l3.882-1.458h.212Zm4.138-.71a.849.849,0,0,1,.209-.586.8.8,0,0,1,.626-.234.819.819,0,0,1,.634.234.831.831,0,0,1,.216.586.786.786,0,0,1-.216.564.834.834,0,0,1-.634.227.809.809,0,0,1-.626-.227A.8.8,0,0,1-107.388,45.29Zm10.466-3.838a6.2,6.2,0,0,1-.813,3.538,2.891,2.891,0,0,1-2.542,1.157,2.912,2.912,0,0,1-2.527-1.132,5.882,5.882,0,0,1-.85-3.38V39.826a6.059,6.059,0,0,1,.813-3.494,2.914,2.914,0,0,1,2.549-1.143,2.94,2.94,0,0,1,2.534,1.1,5.847,5.847,0,0,1,.835,3.4ZM-98.276,39.6a4.965,4.965,0,0,0-.483-2.509,1.664,1.664,0,0,0-1.531-.787,1.642,1.642,0,0,0-1.516.784,4.848,4.848,0,0,0-.491,2.41v2.168a5.045,5.045,0,0,0,.5,2.552,1.661,1.661,0,0,0,1.52.824,1.638,1.638,0,0,0,1.49-.776,4.862,4.862,0,0,0,.509-2.446Zm9.778,1.853a6.2,6.2,0,0,1-.813,3.538,2.891,2.891,0,0,1-2.542,1.157,2.912,2.912,0,0,1-2.527-1.132,5.882,5.882,0,0,1-.85-3.38V39.826a6.059,6.059,0,0,1,.813-3.494,2.914,2.914,0,0,1,2.549-1.143,2.94,2.94,0,0,1,2.534,1.1,5.847,5.847,0,0,1,.835,3.4ZM-89.854,39.6a4.965,4.965,0,0,0-.483-2.509,1.664,1.664,0,0,0-1.531-.787,1.642,1.642,0,0,0-1.516.784,4.848,4.848,0,0,0-.491,2.41v2.168a5.045,5.045,0,0,0,.5,2.552,1.661,1.661,0,0,0,1.52.824,1.638,1.638,0,0,0,1.49-.776,4.862,4.862,0,0,0,.509-2.446Zm9.778,1.853a6.2,6.2,0,0,1-.813,3.538,2.891,2.891,0,0,1-2.542,1.157,2.912,2.912,0,0,1-2.527-1.132,5.882,5.882,0,0,1-.85-3.38V39.826a6.059,6.059,0,0,1,.813-3.494,2.914,2.914,0,0,1,2.549-1.143,2.94,2.94,0,0,1,2.534,1.1,5.847,5.847,0,0,1,.835,3.4ZM-81.431,39.6a4.965,4.965,0,0,0-.483-2.509,1.664,1.664,0,0,0-1.531-.787,1.642,1.642,0,0,0-1.516.784,4.848,4.848,0,0,0-.491,2.41v2.168a5.045,5.045,0,0,0,.5,2.552,1.661,1.661,0,0,0,1.52.824,1.638,1.638,0,0,0,1.49-.776,4.862,4.862,0,0,0,.509-2.446Zm3.259,5.691a.849.849,0,0,1,.209-.586.8.8,0,0,1,.626-.234.819.819,0,0,1,.634.234.831.831,0,0,1,.216.586.786.786,0,0,1-.216.564.834.834,0,0,1-.634.227.809.809,0,0,1-.626-.227A.8.8,0,0,1-78.171,45.29Zm10.466-3.838a6.2,6.2,0,0,1-.813,3.538,2.891,2.891,0,0,1-2.542,1.157,2.912,2.912,0,0,1-2.527-1.132,5.882,5.882,0,0,1-.85-3.38V39.826a6.059,6.059,0,0,1,.813-3.494,2.914,2.914,0,0,1,2.549-1.143,2.94,2.94,0,0,1,2.534,1.1,5.847,5.847,0,0,1,.835,3.4ZM-69.06,39.6a4.965,4.965,0,0,0-.483-2.509,1.664,1.664,0,0,0-1.531-.787,1.642,1.642,0,0,0-1.516.784,4.848,4.848,0,0,0-.491,2.41v2.168a5.045,5.045,0,0,0,.5,2.552,1.661,1.661,0,0,0,1.52.824,1.638,1.638,0,0,0,1.49-.776,4.862,4.862,0,0,0,.509-2.446Zm9.778,1.853a6.2,6.2,0,0,1-.813,3.538,2.891,2.891,0,0,1-2.542,1.157,2.912,2.912,0,0,1-2.527-1.132,5.882,5.882,0,0,1-.85-3.38V39.826a6.059,6.059,0,0,1,.813-3.494,2.914,2.914,0,0,1,2.549-1.143,2.94,2.94,0,0,1,2.534,1.1,5.847,5.847,0,0,1,.835,3.4ZM-60.637,39.6a4.965,4.965,0,0,0-.483-2.509,1.664,1.664,0,0,0-1.531-.787,1.642,1.642,0,0,0-1.516.784,4.848,4.848,0,0,0-.491,2.41v2.168a5.045,5.045,0,0,0,.5,2.552,1.661,1.661,0,0,0,1.52.824,1.638,1.638,0,0,0,1.49-.776,4.862,4.862,0,0,0,.509-2.446Zm9.778,1.853a6.2,6.2,0,0,1-.813,3.538,2.891,2.891,0,0,1-2.542,1.157,2.912,2.912,0,0,1-2.527-1.132,5.882,5.882,0,0,1-.85-3.38V39.826a6.059,6.059,0,0,1,.813-3.494,2.914,2.914,0,0,1,2.549-1.143,2.94,2.94,0,0,1,2.534,1.1,5.847,5.847,0,0,1,.835,3.4ZM-52.214,39.6A4.965,4.965,0,0,0-52.7,37.09a1.664,1.664,0,0,0-1.531-.787,1.642,1.642,0,0,0-1.516.784,4.848,4.848,0,0,0-.491,2.41v2.168a5.045,5.045,0,0,0,.5,2.552,1.661,1.661,0,0,0,1.52.824,1.638,1.638,0,0,0,1.49-.776,4.862,4.862,0,0,0,.509-2.446Zm3.259,5.691a.849.849,0,0,1,.209-.586.8.8,0,0,1,.626-.234.819.819,0,0,1,.634.234.831.831,0,0,1,.216.586.786.786,0,0,1-.216.564.834.834,0,0,1-.634.227.809.809,0,0,1-.626-.227A.8.8,0,0,1-48.955,45.29Zm10.466-3.838a6.2,6.2,0,0,1-.813,3.538,2.891,2.891,0,0,1-2.542,1.157,2.912,2.912,0,0,1-2.527-1.132,5.882,5.882,0,0,1-.85-3.38V39.826a6.059,6.059,0,0,1,.813-3.494,2.914,2.914,0,0,1,2.549-1.143,2.94,2.94,0,0,1,2.534,1.1,5.847,5.847,0,0,1,.835,3.4ZM-39.844,39.6a4.965,4.965,0,0,0-.483-2.509,1.664,1.664,0,0,0-1.531-.787,1.642,1.642,0,0,0-1.516.784,4.848,4.848,0,0,0-.491,2.41v2.168a5.045,5.045,0,0,0,.5,2.552,1.661,1.661,0,0,0,1.52.824,1.638,1.638,0,0,0,1.49-.776,4.862,4.862,0,0,0,.509-2.446Zm9.778,1.853a6.2,6.2,0,0,1-.813,3.538,2.891,2.891,0,0,1-2.542,1.157,2.912,2.912,0,0,1-2.527-1.132,5.882,5.882,0,0,1-.85-3.38V39.826a6.059,6.059,0,0,1,.813-3.494,2.914,2.914,0,0,1,2.549-1.143,2.94,2.94,0,0,1,2.534,1.1,5.847,5.847,0,0,1,.835,3.4ZM-31.421,39.6A4.965,4.965,0,0,0-31.9,37.09a1.664,1.664,0,0,0-1.531-.787,1.642,1.642,0,0,0-1.516.784,4.848,4.848,0,0,0-.491,2.41v2.168a5.045,5.045,0,0,0,.5,2.552,1.661,1.661,0,0,0,1.52.824,1.638,1.638,0,0,0,1.49-.776,4.862,4.862,0,0,0,.509-2.446Zm9.778,1.853a6.2,6.2,0,0,1-.813,3.538A2.891,2.891,0,0,1-25,46.146a2.912,2.912,0,0,1-2.527-1.132,5.882,5.882,0,0,1-.85-3.38V39.826a6.059,6.059,0,0,1,.813-3.494,2.914,2.914,0,0,1,2.549-1.143,2.94,2.94,0,0,1,2.534,1.1,5.847,5.847,0,0,1,.835,3.4ZM-23,39.6a4.965,4.965,0,0,0-.483-2.509,1.664,1.664,0,0,0-1.531-.787,1.642,1.642,0,0,0-1.516.784,4.848,4.848,0,0,0-.491,2.41v2.168a5.045,5.045,0,0,0,.5,2.552,1.661,1.661,0,0,0,1.52.824,1.638,1.638,0,0,0,1.49-.776A4.862,4.862,0,0,0-23,41.818Zm3.259,5.691a.849.849,0,0,1,.209-.586.8.8,0,0,1,.626-.234.819.819,0,0,1,.634.234.831.831,0,0,1,.216.586.786.786,0,0,1-.216.564.834.834,0,0,1-.634.227.809.809,0,0,1-.626-.227A.8.8,0,0,1-19.739,45.29Zm10.466-3.838a6.2,6.2,0,0,1-.813,3.538,2.891,2.891,0,0,1-2.542,1.157,2.912,2.912,0,0,1-2.527-1.132,5.882,5.882,0,0,1-.85-3.38V39.826a6.059,6.059,0,0,1,.813-3.494,2.914,2.914,0,0,1,2.549-1.143,2.94,2.94,0,0,1,2.534,1.1,5.847,5.847,0,0,1,.835,3.4ZM-10.627,39.6a4.965,4.965,0,0,0-.483-2.509,1.664,1.664,0,0,0-1.531-.787,1.642,1.642,0,0,0-1.516.784,4.848,4.848,0,0,0-.491,2.41v2.168a5.045,5.045,0,0,0,.5,2.552,1.661,1.661,0,0,0,1.52.824,1.638,1.638,0,0,0,1.49-.776,4.862,4.862,0,0,0,.509-2.446ZM-.85,41.452a6.2,6.2,0,0,1-.813,3.538A2.891,2.891,0,0,1-4.2,46.146a2.912,2.912,0,0,1-2.527-1.132,5.882,5.882,0,0,1-.85-3.38V39.826a6.059,6.059,0,0,1,.813-3.494,2.914,2.914,0,0,1,2.549-1.143,2.94,2.94,0,0,1,2.534,1.1,5.847,5.847,0,0,1,.835,3.4ZM-2.2,39.6a4.965,4.965,0,0,0-.483-2.509A1.664,1.664,0,0,0-4.219,36.3a1.642,1.642,0,0,0-1.516.784,4.848,4.848,0,0,0-.491,2.41v2.168a5.045,5.045,0,0,0,.5,2.552,1.661,1.661,0,0,0,1.52.824,1.638,1.638,0,0,0,1.49-.776A4.862,4.862,0,0,0-2.2,41.818ZM-102.986,63.653l.542-5.317h5.464v1.252h-4.314l-.322,2.908a3.441,3.441,0,0,1,1.78-.461A2.942,2.942,0,0,1-97.522,63a3.775,3.775,0,0,1,.857,2.6,3.643,3.643,0,0,1-.89,2.6,3.243,3.243,0,0,1-2.487.948,3.371,3.371,0,0,1-2.307-.784,3.128,3.128,0,0,1-1.018-2.168h1.282a2.152,2.152,0,0,0,.652,1.381,2.027,2.027,0,0,0,1.392.465,1.828,1.828,0,0,0,1.483-.645,2.694,2.694,0,0,0,.538-1.78A2.473,2.473,0,0,0-98.6,63.9a1.981,1.981,0,0,0-1.549-.648,2.234,2.234,0,0,0-1.392.388l-.359.293Zm14.487.8a6.2,6.2,0,0,1-.813,3.538,2.891,2.891,0,0,1-2.542,1.157,2.912,2.912,0,0,1-2.527-1.132,5.882,5.882,0,0,1-.85-3.38V62.826a6.059,6.059,0,0,1,.813-3.494,2.914,2.914,0,0,1,2.549-1.143,2.94,2.94,0,0,1,2.534,1.1,5.847,5.847,0,0,1,.835,3.4ZM-89.854,62.6a4.965,4.965,0,0,0-.483-2.509,1.664,1.664,0,0,0-1.531-.787,1.642,1.642,0,0,0-1.516.784,4.848,4.848,0,0,0-.491,2.41v2.168a5.045,5.045,0,0,0,.5,2.552,1.661,1.661,0,0,0,1.52.824,1.638,1.638,0,0,0,1.49-.776,4.862,4.862,0,0,0,.509-2.446Zm9.778,1.853a6.2,6.2,0,0,1-.813,3.538,2.891,2.891,0,0,1-2.542,1.157,2.912,2.912,0,0,1-2.527-1.132,5.882,5.882,0,0,1-.85-3.38V62.826a6.059,6.059,0,0,1,.813-3.494,2.914,2.914,0,0,1,2.549-1.143,2.94,2.94,0,0,1,2.534,1.1,5.847,5.847,0,0,1,.835,3.4ZM-81.431,62.6a4.965,4.965,0,0,0-.483-2.509,1.664,1.664,0,0,0-1.531-.787,1.642,1.642,0,0,0-1.516.784,4.848,4.848,0,0,0-.491,2.41v2.168a5.045,5.045,0,0,0,.5,2.552,1.661,1.661,0,0,0,1.52.824,1.638,1.638,0,0,0,1.49-.776,4.862,4.862,0,0,0,.509-2.446Zm3.259,5.691a.849.849,0,0,1,.209-.586.8.8,0,0,1,.626-.234.819.819,0,0,1,.634.234.831.831,0,0,1,.216.586.786.786,0,0,1-.216.564.834.834,0,0,1-.634.227.809.809,0,0,1-.626-.227A.8.8,0,0,1-78.171,68.29Zm10.466-3.838a6.2,6.2,0,0,1-.813,3.538,2.891,2.891,0,0,1-2.542,1.157,2.912,2.912,0,0,1-2.527-1.132,5.882,5.882,0,0,1-.85-3.38V62.826a6.059,6.059,0,0,1,.813-3.494,2.914,2.914,0,0,1,2.549-1.143,2.94,2.94,0,0,1,2.534,1.1,5.847,5.847,0,0,1,.835,3.4ZM-69.06,62.6a4.965,4.965,0,0,0-.483-2.509,1.664,1.664,0,0,0-1.531-.787,1.642,1.642,0,0,0-1.516.784,4.848,4.848,0,0,0-.491,2.41v2.168a5.045,5.045,0,0,0,.5,2.552,1.661,1.661,0,0,0,1.52.824,1.638,1.638,0,0,0,1.49-.776,4.862,4.862,0,0,0,.509-2.446Zm9.778,1.853a6.2,6.2,0,0,1-.813,3.538,2.891,2.891,0,0,1-2.542,1.157,2.912,2.912,0,0,1-2.527-1.132,5.882,5.882,0,0,1-.85-3.38V62.826a6.059,6.059,0,0,1,.813-3.494,2.914,2.914,0,0,1,2.549-1.143,2.94,2.94,0,0,1,2.534,1.1,5.847,5.847,0,0,1,.835,3.4ZM-60.637,62.6a4.965,4.965,0,0,0-.483-2.509,1.664,1.664,0,0,0-1.531-.787,1.642,1.642,0,0,0-1.516.784,4.848,4.848,0,0,0-.491,2.41v2.168a5.045,5.045,0,0,0,.5,2.552,1.661,1.661,0,0,0,1.52.824,1.638,1.638,0,0,0,1.49-.776,4.862,4.862,0,0,0,.509-2.446Zm9.778,1.853a6.2,6.2,0,0,1-.813,3.538,2.891,2.891,0,0,1-2.542,1.157,2.912,2.912,0,0,1-2.527-1.132,5.882,5.882,0,0,1-.85-3.38V62.826a6.059,6.059,0,0,1,.813-3.494,2.914,2.914,0,0,1,2.549-1.143,2.94,2.94,0,0,1,2.534,1.1,5.847,5.847,0,0,1,.835,3.4ZM-52.214,62.6A4.965,4.965,0,0,0-52.7,60.09a1.664,1.664,0,0,0-1.531-.787,1.642,1.642,0,0,0-1.516.784,4.848,4.848,0,0,0-.491,2.41v2.168a5.045,5.045,0,0,0,.5,2.552,1.661,1.661,0,0,0,1.52.824,1.638,1.638,0,0,0,1.49-.776,4.862,4.862,0,0,0,.509-2.446Zm3.259,5.691a.849.849,0,0,1,.209-.586.8.8,0,0,1,.626-.234.819.819,0,0,1,.634.234.831.831,0,0,1,.216.586.786.786,0,0,1-.216.564.834.834,0,0,1-.634.227.809.809,0,0,1-.626-.227A.8.8,0,0,1-48.955,68.29Zm10.466-3.838a6.2,6.2,0,0,1-.813,3.538,2.891,2.891,0,0,1-2.542,1.157,2.912,2.912,0,0,1-2.527-1.132,5.882,5.882,0,0,1-.85-3.38V62.826a6.059,6.059,0,0,1,.813-3.494,2.914,2.914,0,0,1,2.549-1.143,2.94,2.94,0,0,1,2.534,1.1,5.847,5.847,0,0,1,.835,3.4ZM-39.844,62.6a4.965,4.965,0,0,0-.483-2.509,1.664,1.664,0,0,0-1.531-.787,1.642,1.642,0,0,0-1.516.784,4.848,4.848,0,0,0-.491,2.41v2.168a5.045,5.045,0,0,0,.5,2.552,1.661,1.661,0,0,0,1.52.824,1.638,1.638,0,0,0,1.49-.776,4.862,4.862,0,0,0,.509-2.446Zm9.778,1.853a6.2,6.2,0,0,1-.813,3.538,2.891,2.891,0,0,1-2.542,1.157,2.912,2.912,0,0,1-2.527-1.132,5.882,5.882,0,0,1-.85-3.38V62.826a6.059,6.059,0,0,1,.813-3.494,2.914,2.914,0,0,1,2.549-1.143,2.94,2.94,0,0,1,2.534,1.1,5.847,5.847,0,0,1,.835,3.4ZM-31.421,62.6A4.965,4.965,0,0,0-31.9,60.09a1.664,1.664,0,0,0-1.531-.787,1.642,1.642,0,0,0-1.516.784,4.848,4.848,0,0,0-.491,2.41v2.168a5.045,5.045,0,0,0,.5,2.552,1.661,1.661,0,0,0,1.52.824,1.638,1.638,0,0,0,1.49-.776,4.862,4.862,0,0,0,.509-2.446Zm9.778,1.853a6.2,6.2,0,0,1-.813,3.538A2.891,2.891,0,0,1-25,69.146a2.912,2.912,0,0,1-2.527-1.132,5.882,5.882,0,0,1-.85-3.38V62.826a6.059,6.059,0,0,1,.813-3.494,2.914,2.914,0,0,1,2.549-1.143,2.94,2.94,0,0,1,2.534,1.1,5.847,5.847,0,0,1,.835,3.4ZM-23,62.6a4.965,4.965,0,0,0-.483-2.509,1.664,1.664,0,0,0-1.531-.787,1.642,1.642,0,0,0-1.516.784,4.848,4.848,0,0,0-.491,2.41v2.168a5.045,5.045,0,0,0,.5,2.552,1.661,1.661,0,0,0,1.52.824,1.638,1.638,0,0,0,1.49-.776A4.862,4.862,0,0,0-23,64.818Zm3.259,5.691a.849.849,0,0,1,.209-.586.8.8,0,0,1,.626-.234.819.819,0,0,1,.634.234.831.831,0,0,1,.216.586.786.786,0,0,1-.216.564.834.834,0,0,1-.634.227.809.809,0,0,1-.626-.227A.8.8,0,0,1-19.739,68.29Zm10.466-3.838a6.2,6.2,0,0,1-.813,3.538,2.891,2.891,0,0,1-2.542,1.157,2.912,2.912,0,0,1-2.527-1.132,5.882,5.882,0,0,1-.85-3.38V62.826a6.059,6.059,0,0,1,.813-3.494,2.914,2.914,0,0,1,2.549-1.143,2.94,2.94,0,0,1,2.534,1.1,5.847,5.847,0,0,1,.835,3.4ZM-10.627,62.6a4.965,4.965,0,0,0-.483-2.509,1.664,1.664,0,0,0-1.531-.787,1.642,1.642,0,0,0-1.516.784,4.848,4.848,0,0,0-.491,2.41v2.168a5.045,5.045,0,0,0,.5,2.552,1.661,1.661,0,0,0,1.52.824,1.638,1.638,0,0,0,1.49-.776,4.862,4.862,0,0,0,.509-2.446ZM-.85,64.452a6.2,6.2,0,0,1-.813,3.538A2.891,2.891,0,0,1-4.2,69.146a2.912,2.912,0,0,1-2.527-1.132,5.882,5.882,0,0,1-.85-3.38V62.826a6.059,6.059,0,0,1,.813-3.494,2.914,2.914,0,0,1,2.549-1.143,2.94,2.94,0,0,1,2.534,1.1,5.847,5.847,0,0,1,.835,3.4ZM-2.2,62.6a4.965,4.965,0,0,0-.483-2.509A1.664,1.664,0,0,0-4.219,59.3a1.642,1.642,0,0,0-1.516.784,4.848,4.848,0,0,0-.491,2.41v2.168a5.045,5.045,0,0,0,.5,2.552,1.661,1.661,0,0,0,1.52.824,1.638,1.638,0,0,0,1.49-.776A4.862,4.862,0,0,0-2.2,64.818ZM-21.643,87.452a6.2,6.2,0,0,1-.813,3.538A2.891,2.891,0,0,1-25,92.146a2.912,2.912,0,0,1-2.527-1.132,5.882,5.882,0,0,1-.85-3.38V85.826a6.059,6.059,0,0,1,.813-3.494,2.914,2.914,0,0,1,2.549-1.143,2.94,2.94,0,0,1,2.534,1.1,5.847,5.847,0,0,1,.835,3.4ZM-23,85.6a4.965,4.965,0,0,0-.483-2.509,1.664,1.664,0,0,0-1.531-.787,1.642,1.642,0,0,0-1.516.784,4.848,4.848,0,0,0-.491,2.41v2.168a5.045,5.045,0,0,0,.5,2.552,1.661,1.661,0,0,0,1.52.824,1.638,1.638,0,0,0,1.49-.776A4.862,4.862,0,0,0-23,87.818Zm3.259,5.691a.849.849,0,0,1,.209-.586.8.8,0,0,1,.626-.234.819.819,0,0,1,.634.234.831.831,0,0,1,.216.586.786.786,0,0,1-.216.564.834.834,0,0,1-.634.227.809.809,0,0,1-.626-.227A.8.8,0,0,1-19.739,91.29Zm10.466-3.838a6.2,6.2,0,0,1-.813,3.538,2.891,2.891,0,0,1-2.542,1.157,2.912,2.912,0,0,1-2.527-1.132,5.882,5.882,0,0,1-.85-3.38V85.826a6.059,6.059,0,0,1,.813-3.494,2.914,2.914,0,0,1,2.549-1.143,2.94,2.94,0,0,1,2.534,1.1,5.847,5.847,0,0,1,.835,3.4ZM-10.627,85.6a4.965,4.965,0,0,0-.483-2.509,1.664,1.664,0,0,0-1.531-.787,1.642,1.642,0,0,0-1.516.784,4.848,4.848,0,0,0-.491,2.41v2.168a5.045,5.045,0,0,0,.5,2.552,1.661,1.661,0,0,0,1.52.824,1.638,1.638,0,0,0,1.49-.776,4.862,4.862,0,0,0,.509-2.446ZM-.85,87.452a6.2,6.2,0,0,1-.813,3.538A2.891,2.891,0,0,1-4.2,92.146a2.912,2.912,0,0,1-2.527-1.132,5.882,5.882,0,0,1-.85-3.38V85.826a6.059,6.059,0,0,1,.813-3.494,2.914,2.914,0,0,1,2.549-1.143,2.94,2.94,0,0,1,2.534,1.1,5.847,5.847,0,0,1,.835,3.4ZM-2.2,85.6a4.965,4.965,0,0,0-.483-2.509A1.664,1.664,0,0,0-4.219,82.3a1.642,1.642,0,0,0-1.516.784,4.848,4.848,0,0,0-.491,2.41v2.168a5.045,5.045,0,0,0,.5,2.552,1.661,1.661,0,0,0,1.52.824,1.638,1.638,0,0,0,1.49-.776A4.862,4.862,0,0,0-2.2,87.818Zm-102.583,25.424h-3.574v-1.106h3.574Zm1.8-1.37.542-5.317h5.464v1.252h-4.314l-.322,2.908a3.441,3.441,0,0,1,1.78-.461,2.942,2.942,0,0,1,2.314.963,3.775,3.775,0,0,1,.857,2.6,3.643,3.643,0,0,1-.89,2.6,3.243,3.243,0,0,1-2.487.948,3.371,3.371,0,0,1-2.307-.784,3.128,3.128,0,0,1-1.018-2.168h1.282a2.152,2.152,0,0,0,.652,1.381,2.027,2.027,0,0,0,1.392.465,1.828,1.828,0,0,0,1.483-.645,2.694,2.694,0,0,0,.538-1.78A2.473,2.473,0,0,0-98.6,109.9a1.981,1.981,0,0,0-1.549-.648,2.234,2.234,0,0,0-1.392.388l-.359.293Zm14.487.8a6.2,6.2,0,0,1-.813,3.538,2.891,2.891,0,0,1-2.542,1.157,2.912,2.912,0,0,1-2.527-1.132,5.882,5.882,0,0,1-.85-3.38v-1.809a6.059,6.059,0,0,1,.813-3.494,2.914,2.914,0,0,1,2.549-1.143,2.94,2.94,0,0,1,2.534,1.1,5.847,5.847,0,0,1,.835,3.4Zm-1.355-1.853a4.965,4.965,0,0,0-.483-2.509,1.664,1.664,0,0,0-1.531-.787,1.642,1.642,0,0,0-1.516.784,4.848,4.848,0,0,0-.491,2.41v2.168a5.045,5.045,0,0,0,.5,2.552,1.661,1.661,0,0,0,1.52.824,1.638,1.638,0,0,0,1.49-.776,4.862,4.862,0,0,0,.509-2.446Zm9.778,1.853a6.2,6.2,0,0,1-.813,3.538,2.891,2.891,0,0,1-2.542,1.157,2.912,2.912,0,0,1-2.527-1.132,5.882,5.882,0,0,1-.85-3.38v-1.809a6.059,6.059,0,0,1,.813-3.494,2.914,2.914,0,0,1,2.549-1.143,2.94,2.94,0,0,1,2.534,1.1,5.847,5.847,0,0,1,.835,3.4Zm-1.355-1.853a4.965,4.965,0,0,0-.483-2.509,1.664,1.664,0,0,0-1.531-.787,1.642,1.642,0,0,0-1.516.784,4.848,4.848,0,0,0-.491,2.41v2.168a5.045,5.045,0,0,0,.5,2.552,1.661,1.661,0,0,0,1.52.824,1.638,1.638,0,0,0,1.49-.776,4.862,4.862,0,0,0,.509-2.446Zm3.259,5.691a.849.849,0,0,1,.209-.586.8.8,0,0,1,.626-.234.819.819,0,0,1,.634.234.831.831,0,0,1,.216.586.786.786,0,0,1-.216.564.834.834,0,0,1-.634.227.809.809,0,0,1-.626-.227A.8.8,0,0,1-78.171,114.29Zm10.466-3.838a6.2,6.2,0,0,1-.813,3.538,2.891,2.891,0,0,1-2.542,1.157,2.912,2.912,0,0,1-2.527-1.132,5.882,5.882,0,0,1-.85-3.38v-1.809a6.059,6.059,0,0,1,.813-3.494,2.914,2.914,0,0,1,2.549-1.143,2.94,2.94,0,0,1,2.534,1.1,5.847,5.847,0,0,1,.835,3.4ZM-69.06,108.6a4.965,4.965,0,0,0-.483-2.509,1.664,1.664,0,0,0-1.531-.787,1.642,1.642,0,0,0-1.516.784,4.848,4.848,0,0,0-.491,2.41v2.168a5.045,5.045,0,0,0,.5,2.552,1.661,1.661,0,0,0,1.52.824,1.638,1.638,0,0,0,1.49-.776,4.862,4.862,0,0,0,.509-2.446Zm9.778,1.853a6.2,6.2,0,0,1-.813,3.538,2.891,2.891,0,0,1-2.542,1.157,2.912,2.912,0,0,1-2.527-1.132,5.882,5.882,0,0,1-.85-3.38v-1.809a6.059,6.059,0,0,1,.813-3.494,2.914,2.914,0,0,1,2.549-1.143,2.94,2.94,0,0,1,2.534,1.1,5.847,5.847,0,0,1,.835,3.4Zm-1.355-1.853a4.965,4.965,0,0,0-.483-2.509,1.664,1.664,0,0,0-1.531-.787,1.642,1.642,0,0,0-1.516.784,4.848,4.848,0,0,0-.491,2.41v2.168a5.045,5.045,0,0,0,.5,2.552,1.661,1.661,0,0,0,1.52.824,1.638,1.638,0,0,0,1.49-.776,4.862,4.862,0,0,0,.509-2.446Zm9.778,1.853a6.2,6.2,0,0,1-.813,3.538,2.891,2.891,0,0,1-2.542,1.157,2.912,2.912,0,0,1-2.527-1.132,5.882,5.882,0,0,1-.85-3.38v-1.809a6.059,6.059,0,0,1,.813-3.494,2.914,2.914,0,0,1,2.549-1.143,2.94,2.94,0,0,1,2.534,1.1,5.847,5.847,0,0,1,.835,3.4Zm-1.355-1.853a4.965,4.965,0,0,0-.483-2.509,1.664,1.664,0,0,0-1.531-.787,1.642,1.642,0,0,0-1.516.784,4.848,4.848,0,0,0-.491,2.41v2.168a5.045,5.045,0,0,0,.5,2.552,1.661,1.661,0,0,0,1.52.824,1.638,1.638,0,0,0,1.49-.776,4.862,4.862,0,0,0,.509-2.446Zm3.259,5.691a.849.849,0,0,1,.209-.586.8.8,0,0,1,.626-.234.819.819,0,0,1,.634.234.831.831,0,0,1,.216.586.786.786,0,0,1-.216.564.834.834,0,0,1-.634.227.809.809,0,0,1-.626-.227A.8.8,0,0,1-48.955,114.29Zm10.466-3.838a6.2,6.2,0,0,1-.813,3.538,2.891,2.891,0,0,1-2.542,1.157,2.912,2.912,0,0,1-2.527-1.132,5.882,5.882,0,0,1-.85-3.38v-1.809a6.059,6.059,0,0,1,.813-3.494,2.914,2.914,0,0,1,2.549-1.143,2.94,2.94,0,0,1,2.534,1.1,5.847,5.847,0,0,1,.835,3.4Zm-1.355-1.853a4.965,4.965,0,0,0-.483-2.509,1.664,1.664,0,0,0-1.531-.787,1.642,1.642,0,0,0-1.516.784,4.848,4.848,0,0,0-.491,2.41v2.168a5.045,5.045,0,0,0,.5,2.552,1.661,1.661,0,0,0,1.52.824,1.638,1.638,0,0,0,1.49-.776,4.862,4.862,0,0,0,.509-2.446Zm9.778,1.853a6.2,6.2,0,0,1-.813,3.538,2.891,2.891,0,0,1-2.542,1.157,2.912,2.912,0,0,1-2.527-1.132,5.882,5.882,0,0,1-.85-3.38v-1.809a6.059,6.059,0,0,1,.813-3.494,2.914,2.914,0,0,1,2.549-1.143,2.94,2.94,0,0,1,2.534,1.1,5.847,5.847,0,0,1,.835,3.4Zm-1.355-1.853a4.965,4.965,0,0,0-.483-2.509,1.664,1.664,0,0,0-1.531-.787,1.642,1.642,0,0,0-1.516.784,4.848,4.848,0,0,0-.491,2.41v2.168a5.045,5.045,0,0,0,.5,2.552,1.661,1.661,0,0,0,1.52.824,1.638,1.638,0,0,0,1.49-.776,4.862,4.862,0,0,0,.509-2.446Zm9.778,1.853a6.2,6.2,0,0,1-.813,3.538A2.891,2.891,0,0,1-25,115.146a2.912,2.912,0,0,1-2.527-1.132,5.882,5.882,0,0,1-.85-3.38v-1.809a6.059,6.059,0,0,1,.813-3.494,2.914,2.914,0,0,1,2.549-1.143,2.94,2.94,0,0,1,2.534,1.1,5.847,5.847,0,0,1,.835,3.4ZM-23,108.6a4.965,4.965,0,0,0-.483-2.509,1.664,1.664,0,0,0-1.531-.787,1.642,1.642,0,0,0-1.516.784,4.848,4.848,0,0,0-.491,2.41v2.168a5.045,5.045,0,0,0,.5,2.552,1.661,1.661,0,0,0,1.52.824,1.638,1.638,0,0,0,1.49-.776A4.862,4.862,0,0,0-23,110.818Zm3.259,5.691a.849.849,0,0,1,.209-.586.8.8,0,0,1,.626-.234.819.819,0,0,1,.634.234.831.831,0,0,1,.216.586.786.786,0,0,1-.216.564.834.834,0,0,1-.634.227.809.809,0,0,1-.626-.227A.8.8,0,0,1-19.739,114.29Zm10.466-3.838a6.2,6.2,0,0,1-.813,3.538,2.891,2.891,0,0,1-2.542,1.157,2.912,2.912,0,0,1-2.527-1.132,5.882,5.882,0,0,1-.85-3.38v-1.809a6.059,6.059,0,0,1,.813-3.494,2.914,2.914,0,0,1,2.549-1.143,2.94,2.94,0,0,1,2.534,1.1,5.847,5.847,0,0,1,.835,3.4Zm-1.355-1.853a4.965,4.965,0,0,0-.483-2.509,1.664,1.664,0,0,0-1.531-.787,1.642,1.642,0,0,0-1.516.784,4.848,4.848,0,0,0-.491,2.41v2.168a5.045,5.045,0,0,0,.5,2.552,1.661,1.661,0,0,0,1.52.824,1.638,1.638,0,0,0,1.49-.776,4.862,4.862,0,0,0,.509-2.446Zm9.778,1.853a6.2,6.2,0,0,1-.813,3.538A2.891,2.891,0,0,1-4.2,115.146a2.912,2.912,0,0,1-2.527-1.132,5.882,5.882,0,0,1-.85-3.38v-1.809a6.059,6.059,0,0,1,.813-3.494,2.914,2.914,0,0,1,2.549-1.143,2.94,2.94,0,0,1,2.534,1.1,5.847,5.847,0,0,1,.835,3.4ZM-2.2,108.6a4.965,4.965,0,0,0-.483-2.509,1.664,1.664,0,0,0-1.531-.787,1.642,1.642,0,0,0-1.516.784,4.848,4.848,0,0,0-.491,2.41v2.168a5.045,5.045,0,0,0,.5,2.552,1.661,1.661,0,0,0,1.52.824,1.638,1.638,0,0,0,1.49-.776,4.862,4.862,0,0,0,.509-2.446Zm-114.954,25.424h-3.574v-1.106h3.574Zm5.632,3.977h-1.362v-9.031l-2.732,1v-1.23l3.882-1.458h.212Zm4.138-.71a.849.849,0,0,1,.209-.586.8.8,0,0,1,.626-.234.819.819,0,0,1,.634.234.831.831,0,0,1,.216.586.786.786,0,0,1-.216.564.834.834,0,0,1-.634.227.809.809,0,0,1-.626-.227A.8.8,0,0,1-107.388,137.29Zm10.466-3.838a6.2,6.2,0,0,1-.813,3.538,2.891,2.891,0,0,1-2.542,1.157,2.912,2.912,0,0,1-2.527-1.132,5.882,5.882,0,0,1-.85-3.38v-1.809a6.059,6.059,0,0,1,.813-3.494,2.914,2.914,0,0,1,2.549-1.143,2.94,2.94,0,0,1,2.534,1.1,5.847,5.847,0,0,1,.835,3.4Zm-1.355-1.853a4.965,4.965,0,0,0-.483-2.509,1.664,1.664,0,0,0-1.531-.787,1.642,1.642,0,0,0-1.516.784,4.848,4.848,0,0,0-.491,2.41v2.168a5.045,5.045,0,0,0,.5,2.552,1.661,1.661,0,0,0,1.52.824,1.638,1.638,0,0,0,1.49-.776,4.862,4.862,0,0,0,.509-2.446Zm9.778,1.853a6.2,6.2,0,0,1-.813,3.538,2.891,2.891,0,0,1-2.542,1.157,2.912,2.912,0,0,1-2.527-1.132,5.882,5.882,0,0,1-.85-3.38v-1.809a6.059,6.059,0,0,1,.813-3.494,2.914,2.914,0,0,1,2.549-1.143,2.94,2.94,0,0,1,2.534,1.1,5.847,5.847,0,0,1,.835,3.4Zm-1.355-1.853a4.965,4.965,0,0,0-.483-2.509,1.664,1.664,0,0,0-1.531-.787,1.642,1.642,0,0,0-1.516.784,4.848,4.848,0,0,0-.491,2.41v2.168a5.045,5.045,0,0,0,.5,2.552,1.661,1.661,0,0,0,1.52.824,1.638,1.638,0,0,0,1.49-.776,4.862,4.862,0,0,0,.509-2.446Zm9.778,1.853a6.2,6.2,0,0,1-.813,3.538,2.891,2.891,0,0,1-2.542,1.157,2.912,2.912,0,0,1-2.527-1.132,5.882,5.882,0,0,1-.85-3.38v-1.809a6.059,6.059,0,0,1,.813-3.494,2.914,2.914,0,0,1,2.549-1.143,2.94,2.94,0,0,1,2.534,1.1,5.847,5.847,0,0,1,.835,3.4Zm-1.355-1.853a4.965,4.965,0,0,0-.483-2.509,1.664,1.664,0,0,0-1.531-.787,1.642,1.642,0,0,0-1.516.784,4.848,4.848,0,0,0-.491,2.41v2.168a5.045,5.045,0,0,0,.5,2.552,1.661,1.661,0,0,0,1.52.824,1.638,1.638,0,0,0,1.49-.776,4.862,4.862,0,0,0,.509-2.446Zm3.259,5.691a.849.849,0,0,1,.209-.586.8.8,0,0,1,.626-.234.819.819,0,0,1,.634.234.831.831,0,0,1,.216.586.786.786,0,0,1-.216.564.834.834,0,0,1-.634.227.809.809,0,0,1-.626-.227A.8.8,0,0,1-78.171,137.29Zm10.466-3.838a6.2,6.2,0,0,1-.813,3.538,2.891,2.891,0,0,1-2.542,1.157,2.912,2.912,0,0,1-2.527-1.132,5.882,5.882,0,0,1-.85-3.38v-1.809a6.059,6.059,0,0,1,.813-3.494,2.914,2.914,0,0,1,2.549-1.143,2.94,2.94,0,0,1,2.534,1.1,5.847,5.847,0,0,1,.835,3.4ZM-69.06,131.6a4.965,4.965,0,0,0-.483-2.509,1.664,1.664,0,0,0-1.531-.787,1.642,1.642,0,0,0-1.516.784,4.848,4.848,0,0,0-.491,2.41v2.168a5.045,5.045,0,0,0,.5,2.552,1.661,1.661,0,0,0,1.52.824,1.638,1.638,0,0,0,1.49-.776,4.862,4.862,0,0,0,.509-2.446Zm9.778,1.853a6.2,6.2,0,0,1-.813,3.538,2.891,2.891,0,0,1-2.542,1.157,2.912,2.912,0,0,1-2.527-1.132,5.882,5.882,0,0,1-.85-3.38v-1.809a6.059,6.059,0,0,1,.813-3.494,2.914,2.914,0,0,1,2.549-1.143,2.94,2.94,0,0,1,2.534,1.1,5.847,5.847,0,0,1,.835,3.4Zm-1.355-1.853a4.965,4.965,0,0,0-.483-2.509,1.664,1.664,0,0,0-1.531-.787,1.642,1.642,0,0,0-1.516.784,4.848,4.848,0,0,0-.491,2.41v2.168a5.045,5.045,0,0,0,.5,2.552,1.661,1.661,0,0,0,1.52.824,1.638,1.638,0,0,0,1.49-.776,4.862,4.862,0,0,0,.509-2.446Zm9.778,1.853a6.2,6.2,0,0,1-.813,3.538,2.891,2.891,0,0,1-2.542,1.157,2.912,2.912,0,0,1-2.527-1.132,5.882,5.882,0,0,1-.85-3.38v-1.809a6.059,6.059,0,0,1,.813-3.494,2.914,2.914,0,0,1,2.549-1.143,2.94,2.94,0,0,1,2.534,1.1,5.847,5.847,0,0,1,.835,3.4Zm-1.355-1.853a4.965,4.965,0,0,0-.483-2.509,1.664,1.664,0,0,0-1.531-.787,1.642,1.642,0,0,0-1.516.784,4.848,4.848,0,0,0-.491,2.41v2.168a5.045,5.045,0,0,0,.5,2.552,1.661,1.661,0,0,0,1.52.824,1.638,1.638,0,0,0,1.49-.776,4.862,4.862,0,0,0,.509-2.446Zm3.259,5.691a.849.849,0,0,1,.209-.586.8.8,0,0,1,.626-.234.819.819,0,0,1,.634.234.831.831,0,0,1,.216.586.786.786,0,0,1-.216.564.834.834,0,0,1-.634.227.809.809,0,0,1-.626-.227A.8.8,0,0,1-48.955,137.29Zm10.466-3.838a6.2,6.2,0,0,1-.813,3.538,2.891,2.891,0,0,1-2.542,1.157,2.912,2.912,0,0,1-2.527-1.132,5.882,5.882,0,0,1-.85-3.38v-1.809a6.059,6.059,0,0,1,.813-3.494,2.914,2.914,0,0,1,2.549-1.143,2.94,2.94,0,0,1,2.534,1.1,5.847,5.847,0,0,1,.835,3.4Zm-1.355-1.853a4.965,4.965,0,0,0-.483-2.509,1.664,1.664,0,0,0-1.531-.787,1.642,1.642,0,0,0-1.516.784,4.848,4.848,0,0,0-.491,2.41v2.168a5.045,5.045,0,0,0,.5,2.552,1.661,1.661,0,0,0,1.52.824,1.638,1.638,0,0,0,1.49-.776,4.862,4.862,0,0,0,.509-2.446Zm9.778,1.853a6.2,6.2,0,0,1-.813,3.538,2.891,2.891,0,0,1-2.542,1.157,2.912,2.912,0,0,1-2.527-1.132,5.882,5.882,0,0,1-.85-3.38v-1.809a6.059,6.059,0,0,1,.813-3.494,2.914,2.914,0,0,1,2.549-1.143,2.94,2.94,0,0,1,2.534,1.1,5.847,5.847,0,0,1,.835,3.4Zm-1.355-1.853a4.965,4.965,0,0,0-.483-2.509,1.664,1.664,0,0,0-1.531-.787,1.642,1.642,0,0,0-1.516.784,4.848,4.848,0,0,0-.491,2.41v2.168a5.045,5.045,0,0,0,.5,2.552,1.661,1.661,0,0,0,1.52.824,1.638,1.638,0,0,0,1.49-.776,4.862,4.862,0,0,0,.509-2.446Zm9.778,1.853a6.2,6.2,0,0,1-.813,3.538A2.891,2.891,0,0,1-25,138.146a2.912,2.912,0,0,1-2.527-1.132,5.882,5.882,0,0,1-.85-3.38v-1.809a6.059,6.059,0,0,1,.813-3.494,2.914,2.914,0,0,1,2.549-1.143,2.94,2.94,0,0,1,2.534,1.1,5.847,5.847,0,0,1,.835,3.4ZM-23,131.6a4.965,4.965,0,0,0-.483-2.509,1.664,1.664,0,0,0-1.531-.787,1.642,1.642,0,0,0-1.516.784,4.848,4.848,0,0,0-.491,2.41v2.168a5.045,5.045,0,0,0,.5,2.552,1.661,1.661,0,0,0,1.52.824,1.638,1.638,0,0,0,1.49-.776A4.862,4.862,0,0,0-23,133.818Zm3.259,5.691a.849.849,0,0,1,.209-.586.8.8,0,0,1,.626-.234.819.819,0,0,1,.634.234.831.831,0,0,1,.216.586.786.786,0,0,1-.216.564.834.834,0,0,1-.634.227.809.809,0,0,1-.626-.227A.8.8,0,0,1-19.739,137.29Zm10.466-3.838a6.2,6.2,0,0,1-.813,3.538,2.891,2.891,0,0,1-2.542,1.157,2.912,2.912,0,0,1-2.527-1.132,5.882,5.882,0,0,1-.85-3.38v-1.809a6.059,6.059,0,0,1,.813-3.494,2.914,2.914,0,0,1,2.549-1.143,2.94,2.94,0,0,1,2.534,1.1,5.847,5.847,0,0,1,.835,3.4Zm-1.355-1.853a4.965,4.965,0,0,0-.483-2.509,1.664,1.664,0,0,0-1.531-.787,1.642,1.642,0,0,0-1.516.784,4.848,4.848,0,0,0-.491,2.41v2.168a5.045,5.045,0,0,0,.5,2.552,1.661,1.661,0,0,0,1.52.824,1.638,1.638,0,0,0,1.49-.776,4.862,4.862,0,0,0,.509-2.446Zm9.778,1.853a6.2,6.2,0,0,1-.813,3.538A2.891,2.891,0,0,1-4.2,138.146a2.912,2.912,0,0,1-2.527-1.132,5.882,5.882,0,0,1-.85-3.38v-1.809a6.059,6.059,0,0,1,.813-3.494,2.914,2.914,0,0,1,2.549-1.143,2.94,2.94,0,0,1,2.534,1.1,5.847,5.847,0,0,1,.835,3.4ZM-2.2,131.6a4.965,4.965,0,0,0-.483-2.509,1.664,1.664,0,0,0-1.531-.787,1.642,1.642,0,0,0-1.516.784,4.848,4.848,0,0,0-.491,2.41v2.168a5.045,5.045,0,0,0,.5,2.552,1.661,1.661,0,0,0,1.52.824,1.638,1.638,0,0,0,1.49-.776,4.862,4.862,0,0,0,.509-2.446Zm-114.954,25.424h-3.574v-1.106h3.574Zm5.632,3.977h-1.362v-9.031l-2.732,1v-1.23l3.882-1.458h.212Zm4.138-.71a.849.849,0,0,1,.209-.586.8.8,0,0,1,.626-.234.819.819,0,0,1,.634.234.831.831,0,0,1,.216.586.786.786,0,0,1-.216.564.834.834,0,0,1-.634.227.809.809,0,0,1-.626-.227A.8.8,0,0,1-107.388,160.29Zm4.4-4.636.542-5.317h5.464v1.252h-4.314l-.322,2.908a3.441,3.441,0,0,1,1.78-.461,2.942,2.942,0,0,1,2.314.963,3.775,3.775,0,0,1,.857,2.6,3.643,3.643,0,0,1-.89,2.6,3.243,3.243,0,0,1-2.487.948,3.371,3.371,0,0,1-2.307-.784,3.128,3.128,0,0,1-1.018-2.168h1.282a2.152,2.152,0,0,0,.652,1.381,2.027,2.027,0,0,0,1.392.465,1.828,1.828,0,0,0,1.483-.645,2.694,2.694,0,0,0,.538-1.78A2.473,2.473,0,0,0-98.6,155.9a1.981,1.981,0,0,0-1.549-.648,2.234,2.234,0,0,0-1.392.388l-.359.293Zm14.487.8a6.2,6.2,0,0,1-.813,3.538,2.891,2.891,0,0,1-2.542,1.157,2.912,2.912,0,0,1-2.527-1.132,5.882,5.882,0,0,1-.85-3.38v-1.809a6.059,6.059,0,0,1,.813-3.494,2.914,2.914,0,0,1,2.549-1.143,2.94,2.94,0,0,1,2.534,1.1,5.847,5.847,0,0,1,.835,3.4Zm-1.355-1.853a4.965,4.965,0,0,0-.483-2.509,1.664,1.664,0,0,0-1.531-.787,1.642,1.642,0,0,0-1.516.784,4.848,4.848,0,0,0-.491,2.41v2.168a5.045,5.045,0,0,0,.5,2.552,1.661,1.661,0,0,0,1.52.824,1.638,1.638,0,0,0,1.49-.776,4.862,4.862,0,0,0,.509-2.446Zm9.778,1.853a6.2,6.2,0,0,1-.813,3.538,2.891,2.891,0,0,1-2.542,1.157,2.912,2.912,0,0,1-2.527-1.132,5.882,5.882,0,0,1-.85-3.38v-1.809a6.059,6.059,0,0,1,.813-3.494,2.914,2.914,0,0,1,2.549-1.143,2.94,2.94,0,0,1,2.534,1.1,5.847,5.847,0,0,1,.835,3.4Zm-1.355-1.853a4.965,4.965,0,0,0-.483-2.509,1.664,1.664,0,0,0-1.531-.787,1.642,1.642,0,0,0-1.516.784,4.848,4.848,0,0,0-.491,2.41v2.168a5.045,5.045,0,0,0,.5,2.552,1.661,1.661,0,0,0,1.52.824,1.638,1.638,0,0,0,1.49-.776,4.862,4.862,0,0,0,.509-2.446Zm3.259,5.691a.849.849,0,0,1,.209-.586.8.8,0,0,1,.626-.234.819.819,0,0,1,.634.234.831.831,0,0,1,.216.586.786.786,0,0,1-.216.564.834.834,0,0,1-.634.227.809.809,0,0,1-.626-.227A.8.8,0,0,1-78.171,160.29Zm10.466-3.838a6.2,6.2,0,0,1-.813,3.538,2.891,2.891,0,0,1-2.542,1.157,2.912,2.912,0,0,1-2.527-1.132,5.882,5.882,0,0,1-.85-3.38v-1.809a6.059,6.059,0,0,1,.813-3.494,2.914,2.914,0,0,1,2.549-1.143,2.94,2.94,0,0,1,2.534,1.1,5.847,5.847,0,0,1,.835,3.4ZM-69.06,154.6a4.965,4.965,0,0,0-.483-2.509,1.664,1.664,0,0,0-1.531-.787,1.642,1.642,0,0,0-1.516.784,4.848,4.848,0,0,0-.491,2.41v2.168a5.045,5.045,0,0,0,.5,2.552,1.661,1.661,0,0,0,1.52.824,1.638,1.638,0,0,0,1.49-.776,4.862,4.862,0,0,0,.509-2.446Zm9.778,1.853a6.2,6.2,0,0,1-.813,3.538,2.891,2.891,0,0,1-2.542,1.157,2.912,2.912,0,0,1-2.527-1.132,5.882,5.882,0,0,1-.85-3.38v-1.809a6.059,6.059,0,0,1,.813-3.494,2.914,2.914,0,0,1,2.549-1.143,2.94,2.94,0,0,1,2.534,1.1,5.847,5.847,0,0,1,.835,3.4Zm-1.355-1.853a4.965,4.965,0,0,0-.483-2.509,1.664,1.664,0,0,0-1.531-.787,1.642,1.642,0,0,0-1.516.784,4.848,4.848,0,0,0-.491,2.41v2.168a5.045,5.045,0,0,0,.5,2.552,1.661,1.661,0,0,0,1.52.824,1.638,1.638,0,0,0,1.49-.776,4.862,4.862,0,0,0,.509-2.446Zm9.778,1.853a6.2,6.2,0,0,1-.813,3.538,2.891,2.891,0,0,1-2.542,1.157,2.912,2.912,0,0,1-2.527-1.132,5.882,5.882,0,0,1-.85-3.38v-1.809a6.059,6.059,0,0,1,.813-3.494,2.914,2.914,0,0,1,2.549-1.143,2.94,2.94,0,0,1,2.534,1.1,5.847,5.847,0,0,1,.835,3.4Zm-1.355-1.853a4.965,4.965,0,0,0-.483-2.509,1.664,1.664,0,0,0-1.531-.787,1.642,1.642,0,0,0-1.516.784,4.848,4.848,0,0,0-.491,2.41v2.168a5.045,5.045,0,0,0,.5,2.552,1.661,1.661,0,0,0,1.52.824,1.638,1.638,0,0,0,1.49-.776,4.862,4.862,0,0,0,.509-2.446Zm3.259,5.691a.849.849,0,0,1,.209-.586.8.8,0,0,1,.626-.234.819.819,0,0,1,.634.234.831.831,0,0,1,.216.586.786.786,0,0,1-.216.564.834.834,0,0,1-.634.227.809.809,0,0,1-.626-.227A.8.8,0,0,1-48.955,160.29Zm10.466-3.838a6.2,6.2,0,0,1-.813,3.538,2.891,2.891,0,0,1-2.542,1.157,2.912,2.912,0,0,1-2.527-1.132,5.882,5.882,0,0,1-.85-3.38v-1.809a6.059,6.059,0,0,1,.813-3.494,2.914,2.914,0,0,1,2.549-1.143,2.94,2.94,0,0,1,2.534,1.1,5.847,5.847,0,0,1,.835,3.4Zm-1.355-1.853a4.965,4.965,0,0,0-.483-2.509,1.664,1.664,0,0,0-1.531-.787,1.642,1.642,0,0,0-1.516.784,4.848,4.848,0,0,0-.491,2.41v2.168a5.045,5.045,0,0,0,.5,2.552,1.661,1.661,0,0,0,1.52.824,1.638,1.638,0,0,0,1.49-.776,4.862,4.862,0,0,0,.509-2.446Zm9.778,1.853a6.2,6.2,0,0,1-.813,3.538,2.891,2.891,0,0,1-2.542,1.157,2.912,2.912,0,0,1-2.527-1.132,5.882,5.882,0,0,1-.85-3.38v-1.809a6.059,6.059,0,0,1,.813-3.494,2.914,2.914,0,0,1,2.549-1.143,2.94,2.94,0,0,1,2.534,1.1,5.847,5.847,0,0,1,.835,3.4Zm-1.355-1.853a4.965,4.965,0,0,0-.483-2.509,1.664,1.664,0,0,0-1.531-.787,1.642,1.642,0,0,0-1.516.784,4.848,4.848,0,0,0-.491,2.41v2.168a5.045,5.045,0,0,0,.5,2.552,1.661,1.661,0,0,0,1.52.824,1.638,1.638,0,0,0,1.49-.776,4.862,4.862,0,0,0,.509-2.446Zm9.778,1.853a6.2,6.2,0,0,1-.813,3.538A2.891,2.891,0,0,1-25,161.146a2.912,2.912,0,0,1-2.527-1.132,5.882,5.882,0,0,1-.85-3.38v-1.809a6.059,6.059,0,0,1,.813-3.494,2.914,2.914,0,0,1,2.549-1.143,2.94,2.94,0,0,1,2.534,1.1,5.847,5.847,0,0,1,.835,3.4ZM-23,154.6a4.965,4.965,0,0,0-.483-2.509,1.664,1.664,0,0,0-1.531-.787,1.642,1.642,0,0,0-1.516.784,4.848,4.848,0,0,0-.491,2.41v2.168a5.045,5.045,0,0,0,.5,2.552,1.661,1.661,0,0,0,1.52.824,1.638,1.638,0,0,0,1.49-.776A4.862,4.862,0,0,0-23,156.818Zm3.259,5.691a.849.849,0,0,1,.209-.586.8.8,0,0,1,.626-.234.819.819,0,0,1,.634.234.831.831,0,0,1,.216.586.786.786,0,0,1-.216.564.834.834,0,0,1-.634.227.809.809,0,0,1-.626-.227A.8.8,0,0,1-19.739,160.29Zm10.466-3.838a6.2,6.2,0,0,1-.813,3.538,2.891,2.891,0,0,1-2.542,1.157,2.912,2.912,0,0,1-2.527-1.132,5.882,5.882,0,0,1-.85-3.38v-1.809a6.059,6.059,0,0,1,.813-3.494,2.914,2.914,0,0,1,2.549-1.143,2.94,2.94,0,0,1,2.534,1.1,5.847,5.847,0,0,1,.835,3.4Zm-1.355-1.853a4.965,4.965,0,0,0-.483-2.509,1.664,1.664,0,0,0-1.531-.787,1.642,1.642,0,0,0-1.516.784,4.848,4.848,0,0,0-.491,2.41v2.168a5.045,5.045,0,0,0,.5,2.552,1.661,1.661,0,0,0,1.52.824,1.638,1.638,0,0,0,1.49-.776,4.862,4.862,0,0,0,.509-2.446Zm9.778,1.853a6.2,6.2,0,0,1-.813,3.538A2.891,2.891,0,0,1-4.2,161.146a2.912,2.912,0,0,1-2.527-1.132,5.882,5.882,0,0,1-.85-3.38v-1.809a6.059,6.059,0,0,1,.813-3.494,2.914,2.914,0,0,1,2.549-1.143,2.94,2.94,0,0,1,2.534,1.1,5.847,5.847,0,0,1,.835,3.4ZM-2.2,154.6a4.965,4.965,0,0,0-.483-2.509,1.664,1.664,0,0,0-1.531-.787,1.642,1.642,0,0,0-1.516.784,4.848,4.848,0,0,0-.491,2.41v2.168a5.045,5.045,0,0,0,.5,2.552,1.661,1.661,0,0,0,1.52.824,1.638,1.638,0,0,0,1.49-.776,4.862,4.862,0,0,0,.509-2.446Zm-114.954,25.424h-3.574v-1.106h3.574Zm8.167,3.977h-6.987v-.974l3.691-4.1a8.77,8.77,0,0,0,1.132-1.512,2.524,2.524,0,0,0,.311-1.2,1.913,1.913,0,0,0-.505-1.37,1.767,1.767,0,0,0-1.348-.535,2.093,2.093,0,0,0-1.571.575,2.2,2.2,0,0,0-.56,1.6h-1.355a3.145,3.145,0,0,1,.948-2.38,3.516,3.516,0,0,1,2.538-.908,3.379,3.379,0,0,1,2.351.78,2.661,2.661,0,0,1,.864,2.076q0,1.575-2.007,3.75l-2.856,3.1h5.354Zm1.6-.71a.849.849,0,0,1,.209-.586.8.8,0,0,1,.626-.234.819.819,0,0,1,.634.234.831.831,0,0,1,.216.586.786.786,0,0,1-.216.564.834.834,0,0,1-.634.227.809.809,0,0,1-.626-.227A.8.8,0,0,1-107.388,183.29Zm10.466-3.838a6.2,6.2,0,0,1-.813,3.538,2.891,2.891,0,0,1-2.542,1.157,2.912,2.912,0,0,1-2.527-1.132,5.882,5.882,0,0,1-.85-3.38v-1.809a6.059,6.059,0,0,1,.813-3.494,2.914,2.914,0,0,1,2.549-1.143,2.94,2.94,0,0,1,2.534,1.1,5.847,5.847,0,0,1,.835,3.4Zm-1.355-1.853a4.965,4.965,0,0,0-.483-2.509,1.664,1.664,0,0,0-1.531-.787,1.642,1.642,0,0,0-1.516.784,4.848,4.848,0,0,0-.491,2.41v2.168a5.045,5.045,0,0,0,.5,2.552,1.661,1.661,0,0,0,1.52.824,1.638,1.638,0,0,0,1.49-.776,4.862,4.862,0,0,0,.509-2.446Zm9.778,1.853a6.2,6.2,0,0,1-.813,3.538,2.891,2.891,0,0,1-2.542,1.157,2.912,2.912,0,0,1-2.527-1.132,5.882,5.882,0,0,1-.85-3.38v-1.809a6.059,6.059,0,0,1,.813-3.494,2.914,2.914,0,0,1,2.549-1.143,2.94,2.94,0,0,1,2.534,1.1,5.847,5.847,0,0,1,.835,3.4Zm-1.355-1.853a4.965,4.965,0,0,0-.483-2.509,1.664,1.664,0,0,0-1.531-.787,1.642,1.642,0,0,0-1.516.784,4.848,4.848,0,0,0-.491,2.41v2.168a5.045,5.045,0,0,0,.5,2.552,1.661,1.661,0,0,0,1.52.824,1.638,1.638,0,0,0,1.49-.776,4.862,4.862,0,0,0,.509-2.446Zm9.778,1.853a6.2,6.2,0,0,1-.813,3.538,2.891,2.891,0,0,1-2.542,1.157,2.912,2.912,0,0,1-2.527-1.132,5.882,5.882,0,0,1-.85-3.38v-1.809a6.059,6.059,0,0,1,.813-3.494,2.914,2.914,0,0,1,2.549-1.143,2.94,2.94,0,0,1,2.534,1.1,5.847,5.847,0,0,1,.835,3.4Zm-1.355-1.853a4.965,4.965,0,0,0-.483-2.509,1.664,1.664,0,0,0-1.531-.787,1.642,1.642,0,0,0-1.516.784,4.848,4.848,0,0,0-.491,2.41v2.168a5.045,5.045,0,0,0,.5,2.552,1.661,1.661,0,0,0,1.52.824,1.638,1.638,0,0,0,1.49-.776,4.862,4.862,0,0,0,.509-2.446Zm3.259,5.691a.849.849,0,0,1,.209-.586.8.8,0,0,1,.626-.234.819.819,0,0,1,.634.234.831.831,0,0,1,.216.586.786.786,0,0,1-.216.564.834.834,0,0,1-.634.227.809.809,0,0,1-.626-.227A.8.8,0,0,1-78.171,183.29Zm10.466-3.838a6.2,6.2,0,0,1-.813,3.538,2.891,2.891,0,0,1-2.542,1.157,2.912,2.912,0,0,1-2.527-1.132,5.882,5.882,0,0,1-.85-3.38v-1.809a6.059,6.059,0,0,1,.813-3.494,2.914,2.914,0,0,1,2.549-1.143,2.94,2.94,0,0,1,2.534,1.1,5.847,5.847,0,0,1,.835,3.4ZM-69.06,177.6a4.965,4.965,0,0,0-.483-2.509,1.664,1.664,0,0,0-1.531-.787,1.642,1.642,0,0,0-1.516.784,4.848,4.848,0,0,0-.491,2.41v2.168a5.045,5.045,0,0,0,.5,2.552,1.661,1.661,0,0,0,1.52.824,1.638,1.638,0,0,0,1.49-.776,4.862,4.862,0,0,0,.509-2.446Zm9.778,1.853a6.2,6.2,0,0,1-.813,3.538,2.891,2.891,0,0,1-2.542,1.157,2.912,2.912,0,0,1-2.527-1.132,5.882,5.882,0,0,1-.85-3.38v-1.809a6.059,6.059,0,0,1,.813-3.494,2.914,2.914,0,0,1,2.549-1.143,2.94,2.94,0,0,1,2.534,1.1,5.847,5.847,0,0,1,.835,3.4Zm-1.355-1.853a4.965,4.965,0,0,0-.483-2.509,1.664,1.664,0,0,0-1.531-.787,1.642,1.642,0,0,0-1.516.784,4.848,4.848,0,0,0-.491,2.41v2.168a5.045,5.045,0,0,0,.5,2.552,1.661,1.661,0,0,0,1.52.824,1.638,1.638,0,0,0,1.49-.776,4.862,4.862,0,0,0,.509-2.446Zm9.778,1.853a6.2,6.2,0,0,1-.813,3.538,2.891,2.891,0,0,1-2.542,1.157,2.912,2.912,0,0,1-2.527-1.132,5.882,5.882,0,0,1-.85-3.38v-1.809a6.059,6.059,0,0,1,.813-3.494,2.914,2.914,0,0,1,2.549-1.143,2.94,2.94,0,0,1,2.534,1.1,5.847,5.847,0,0,1,.835,3.4Zm-1.355-1.853a4.965,4.965,0,0,0-.483-2.509,1.664,1.664,0,0,0-1.531-.787,1.642,1.642,0,0,0-1.516.784,4.848,4.848,0,0,0-.491,2.41v2.168a5.045,5.045,0,0,0,.5,2.552,1.661,1.661,0,0,0,1.52.824,1.638,1.638,0,0,0,1.49-.776,4.862,4.862,0,0,0,.509-2.446Zm3.259,5.691a.849.849,0,0,1,.209-.586.8.8,0,0,1,.626-.234.819.819,0,0,1,.634.234.831.831,0,0,1,.216.586.786.786,0,0,1-.216.564.834.834,0,0,1-.634.227.809.809,0,0,1-.626-.227A.8.8,0,0,1-48.955,183.29Zm10.466-3.838a6.2,6.2,0,0,1-.813,3.538,2.891,2.891,0,0,1-2.542,1.157,2.912,2.912,0,0,1-2.527-1.132,5.882,5.882,0,0,1-.85-3.38v-1.809a6.059,6.059,0,0,1,.813-3.494,2.914,2.914,0,0,1,2.549-1.143,2.94,2.94,0,0,1,2.534,1.1,5.847,5.847,0,0,1,.835,3.4Zm-1.355-1.853a4.965,4.965,0,0,0-.483-2.509,1.664,1.664,0,0,0-1.531-.787,1.642,1.642,0,0,0-1.516.784,4.848,4.848,0,0,0-.491,2.41v2.168a5.045,5.045,0,0,0,.5,2.552,1.661,1.661,0,0,0,1.52.824,1.638,1.638,0,0,0,1.49-.776,4.862,4.862,0,0,0,.509-2.446Zm9.778,1.853a6.2,6.2,0,0,1-.813,3.538,2.891,2.891,0,0,1-2.542,1.157,2.912,2.912,0,0,1-2.527-1.132,5.882,5.882,0,0,1-.85-3.38v-1.809a6.059,6.059,0,0,1,.813-3.494,2.914,2.914,0,0,1,2.549-1.143,2.94,2.94,0,0,1,2.534,1.1,5.847,5.847,0,0,1,.835,3.4Zm-1.355-1.853a4.965,4.965,0,0,0-.483-2.509,1.664,1.664,0,0,0-1.531-.787,1.642,1.642,0,0,0-1.516.784,4.848,4.848,0,0,0-.491,2.41v2.168a5.045,5.045,0,0,0,.5,2.552,1.661,1.661,0,0,0,1.52.824,1.638,1.638,0,0,0,1.49-.776,4.862,4.862,0,0,0,.509-2.446Zm9.778,1.853a6.2,6.2,0,0,1-.813,3.538A2.891,2.891,0,0,1-25,184.146a2.912,2.912,0,0,1-2.527-1.132,5.882,5.882,0,0,1-.85-3.38v-1.809a6.059,6.059,0,0,1,.813-3.494,2.914,2.914,0,0,1,2.549-1.143,2.94,2.94,0,0,1,2.534,1.1,5.847,5.847,0,0,1,.835,3.4ZM-23,177.6a4.965,4.965,0,0,0-.483-2.509,1.664,1.664,0,0,0-1.531-.787,1.642,1.642,0,0,0-1.516.784,4.848,4.848,0,0,0-.491,2.41v2.168a5.045,5.045,0,0,0,.5,2.552,1.661,1.661,0,0,0,1.52.824,1.638,1.638,0,0,0,1.49-.776A4.862,4.862,0,0,0-23,179.818Zm3.259,5.691a.849.849,0,0,1,.209-.586.8.8,0,0,1,.626-.234.819.819,0,0,1,.634.234.831.831,0,0,1,.216.586.786.786,0,0,1-.216.564.834.834,0,0,1-.634.227.809.809,0,0,1-.626-.227A.8.8,0,0,1-19.739,183.29Zm10.466-3.838a6.2,6.2,0,0,1-.813,3.538,2.891,2.891,0,0,1-2.542,1.157,2.912,2.912,0,0,1-2.527-1.132,5.882,5.882,0,0,1-.85-3.38v-1.809a6.059,6.059,0,0,1,.813-3.494,2.914,2.914,0,0,1,2.549-1.143,2.94,2.94,0,0,1,2.534,1.1,5.847,5.847,0,0,1,.835,3.4Zm-1.355-1.853a4.965,4.965,0,0,0-.483-2.509,1.664,1.664,0,0,0-1.531-.787,1.642,1.642,0,0,0-1.516.784,4.848,4.848,0,0,0-.491,2.41v2.168a5.045,5.045,0,0,0,.5,2.552,1.661,1.661,0,0,0,1.52.824,1.638,1.638,0,0,0,1.49-.776,4.862,4.862,0,0,0,.509-2.446Zm9.778,1.853a6.2,6.2,0,0,1-.813,3.538A2.891,2.891,0,0,1-4.2,184.146a2.912,2.912,0,0,1-2.527-1.132,5.882,5.882,0,0,1-.85-3.38v-1.809a6.059,6.059,0,0,1,.813-3.494,2.914,2.914,0,0,1,2.549-1.143,2.94,2.94,0,0,1,2.534,1.1,5.847,5.847,0,0,1,.835,3.4ZM-2.2,177.6a4.965,4.965,0,0,0-.483-2.509,1.664,1.664,0,0,0-1.531-.787,1.642,1.642,0,0,0-1.516.784,4.848,4.848,0,0,0-.491,2.41v2.168a5.045,5.045,0,0,0,.5,2.552,1.661,1.661,0,0,0,1.52.824,1.638,1.638,0,0,0,1.49-.776,4.862,4.862,0,0,0,.509-2.446Z" transform="translate(-6923.801 -13716.981)"/><path class="b" d="M588.922,539.141V724.764h310.95" transform="translate(-7489.034 -14260.706)"/><path class="c" d="M0,0H310.95" transform="translate(-6900.112 -13720.374)"/><path class="c" d="M0,0H310.95" transform="translate(-6900.112 -13697.646)"/><path class="c" d="M0,0H310.95" transform="translate(-6900.112 -13674.919)"/><path class="c" d="M0,0H310.95" transform="translate(-6900.112 -13650.886)"/><path class="c" d="M0,0H310.95" transform="translate(-6900.112 -13628.158)"/><path class="c" d="M0,0H310.95" transform="translate(-6900.112 -13605.431)"/><path class="c" d="M0,0H310.95" transform="translate(-6900.112 -13582.703)"/><path class="c" d="M0,0H310.95" transform="translate(-6900.112 -13558.67)"/><path class="d" d="M0,0H26.664V75.658H0Z" transform="translate(-6874.543 -13704.412)"/><path class="d" d="M0,0H26.664V41.174H0Z" transform="translate(-6797.149 -13669.928)"/><path class="d" d="M0,0H26.664V34.579H0Z" transform="translate(-6720.581 -13663.333)"/><path class="d" d="M0,0H26.664V69.71H0Z" transform="translate(-6648.823 -13628.38)"/><path class="a" d="M2.747,0H1.34V-10.664H2.747Zm3.64-7.925.044,1A2.888,2.888,0,0,1,8.8-8.071q2.512,0,2.534,2.834V0H9.983V-5.244a1.824,1.824,0,0,0-.392-1.267,1.57,1.57,0,0,0-1.2-.41,1.956,1.956,0,0,0-1.157.352,2.387,2.387,0,0,0-.776.923V0H5.1V-7.925Zm6.672,3.9a4.658,4.658,0,0,1,.857-2.948,2.741,2.741,0,0,1,2.271-1.095A2.726,2.726,0,0,1,18.45-7.046l.066-.879h1.238V-.19a3.224,3.224,0,0,1-.912,2.424,3.365,3.365,0,0,1-2.45.886,4.076,4.076,0,0,1-1.677-.366,2.887,2.887,0,0,1-1.252-1l.7-.813A2.65,2.65,0,0,0,16.3,2.014a2.076,2.076,0,0,0,1.542-.557A2.128,2.128,0,0,0,18.391-.11V-.791a2.785,2.785,0,0,1-2.219.938A2.707,2.707,0,0,1,13.92-.974,4.9,4.9,0,0,1,13.059-4.028Zm1.362.154a3.553,3.553,0,0,0,.549,2.106A1.785,1.785,0,0,0,16.509-1a1.985,1.985,0,0,0,1.882-1.165V-5.786a2.008,2.008,0,0,0-1.868-1.135,1.8,1.8,0,0,0-1.545.769A3.87,3.87,0,0,0,14.421-3.875ZM25.627-6.709a4.06,4.06,0,0,0-.667-.051,1.786,1.786,0,0,0-1.809,1.135V0H21.8V-7.925h1.318l.022.916a2.11,2.11,0,0,1,1.89-1.062,1.384,1.384,0,0,1,.6.1ZM30.161.146A3.463,3.463,0,0,1,27.539-.912a3.928,3.928,0,0,1-1.011-2.831v-.249a4.756,4.756,0,0,1,.45-2.106,3.514,3.514,0,0,1,1.26-1.45,3.167,3.167,0,0,1,1.754-.524,2.968,2.968,0,0,1,2.4,1.018,4.408,4.408,0,0,1,.857,2.915v.564H27.883a2.817,2.817,0,0,0,.685,1.893,2.153,2.153,0,0,0,1.666.721,2.36,2.36,0,0,0,1.216-.293,3.055,3.055,0,0,0,.872-.776l.828.645A3.328,3.328,0,0,1,30.161.146Zm-.168-7.1a1.807,1.807,0,0,0-1.377.6,2.9,2.9,0,0,0-.688,1.674H31.9v-.1a2.581,2.581,0,0,0-.557-1.6A1.7,1.7,0,0,0,29.993-6.958ZM39.434-2.1a1,1,0,0,0-.414-.853,3.983,3.983,0,0,0-1.443-.524,6.822,6.822,0,0,1-1.633-.527,2.324,2.324,0,0,1-.894-.732,1.752,1.752,0,0,1-.289-1.011A2.056,2.056,0,0,1,35.585-7.4a3.218,3.218,0,0,1,2.106-.674,3.311,3.311,0,0,1,2.186.7,2.21,2.21,0,0,1,.839,1.78H39.353a1.223,1.223,0,0,0-.472-.959,1.77,1.77,0,0,0-1.19-.4,1.852,1.852,0,0,0-1.157.322,1.014,1.014,0,0,0-.417.842.822.822,0,0,0,.388.74,4.776,4.776,0,0,0,1.4.476,7.308,7.308,0,0,1,1.644.542,2.4,2.4,0,0,1,.934.758,1.864,1.864,0,0,1,.3,1.08,2.028,2.028,0,0,1-.85,1.7,3.564,3.564,0,0,1-2.2.641A3.991,3.991,0,0,1,36.05-.19,2.74,2.74,0,0,1,34.9-1.132a2.268,2.268,0,0,1-.414-1.307h1.355a1.4,1.4,0,0,0,.546,1.08,2.117,2.117,0,0,0,1.344.4,2.185,2.185,0,0,0,1.234-.311A.956.956,0,0,0,39.434-2.1Zm2.761-1.934a4.681,4.681,0,0,1,.458-2.095,3.415,3.415,0,0,1,1.274-1.436,3.469,3.469,0,0,1,1.864-.505,3.342,3.342,0,0,1,2.618,1.121,4.311,4.311,0,0,1,1,2.981v.1A4.722,4.722,0,0,1,48.966-1.8,3.365,3.365,0,0,1,47.7-.366a3.509,3.509,0,0,1-1.893.513A3.334,3.334,0,0,1,43.195-.974a4.29,4.29,0,0,1-1-2.966Zm1.362.161a3.39,3.39,0,0,0,.612,2.117,1.957,1.957,0,0,0,1.637.8,1.945,1.945,0,0,0,1.641-.809,3.707,3.707,0,0,0,.608-2.267,3.384,3.384,0,0,0-.619-2.113,1.968,1.968,0,0,0-1.644-.809,1.946,1.946,0,0,0-1.619.8A3.68,3.68,0,0,0,43.557-3.875ZM55.723-2.1a1,1,0,0,0-.414-.853,3.983,3.983,0,0,0-1.443-.524,6.822,6.822,0,0,1-1.633-.527,2.324,2.324,0,0,1-.894-.732A1.752,1.752,0,0,1,51.05-5.75,2.056,2.056,0,0,1,51.874-7.4a3.218,3.218,0,0,1,2.106-.674,3.311,3.311,0,0,1,2.186.7A2.21,2.21,0,0,1,57-5.6H55.642a1.223,1.223,0,0,0-.472-.959,1.77,1.77,0,0,0-1.19-.4,1.852,1.852,0,0,0-1.157.322,1.014,1.014,0,0,0-.417.842.822.822,0,0,0,.388.74,4.776,4.776,0,0,0,1.4.476,7.308,7.308,0,0,1,1.644.542,2.4,2.4,0,0,1,.934.758,1.864,1.864,0,0,1,.3,1.08,2.028,2.028,0,0,1-.85,1.7,3.564,3.564,0,0,1-2.2.641A3.991,3.991,0,0,1,52.339-.19a2.74,2.74,0,0,1-1.146-.941,2.268,2.268,0,0,1-.414-1.307h1.355a1.4,1.4,0,0,0,.546,1.08,2.117,2.117,0,0,0,1.344.4,2.185,2.185,0,0,0,1.234-.311A.956.956,0,0,0,55.723-2.1Z" transform="translate(-6892.281 -13610.749)"/><path class="a" d="M9.111-1.4A3.248,3.248,0,0,1,7.6-.238a6.109,6.109,0,0,1-2.26.385A4.382,4.382,0,0,1,3.025-.465,4.074,4.074,0,0,1,1.461-2.2,6.008,6.008,0,0,1,.894-4.819v-.93A5.608,5.608,0,0,1,2.018-9.485a3.917,3.917,0,0,1,3.16-1.326,4.046,4.046,0,0,1,2.688.853A3.717,3.717,0,0,1,9.111-7.537H7.705a2.323,2.323,0,0,0-2.52-2.117,2.49,2.49,0,0,0-2.142.992,4.842,4.842,0,0,0-.736,2.875v.872a4.539,4.539,0,0,0,.82,2.853A2.66,2.66,0,0,0,5.347-1a4.891,4.891,0,0,0,1.384-.176,2.14,2.14,0,0,0,.981-.593v-2.4H5.244V-5.31H9.111ZM16.135,0a2.846,2.846,0,0,1-.19-.835,3.023,3.023,0,0,1-2.256.981,2.8,2.8,0,0,1-1.923-.663A2.145,2.145,0,0,1,11.016-2.2a2.24,2.24,0,0,1,.941-1.923A4.437,4.437,0,0,1,14.6-4.8h1.318v-.623A1.522,1.522,0,0,0,15.5-6.559a1.707,1.707,0,0,0-1.252-.421,1.976,1.976,0,0,0-1.216.366,1.079,1.079,0,0,0-.491.886H11.177A1.87,1.87,0,0,1,11.6-6.874a2.874,2.874,0,0,1,1.143-.875,3.844,3.844,0,0,1,1.586-.322,3.133,3.133,0,0,1,2.146.685A2.47,2.47,0,0,1,17.278-5.5v3.647a4.459,4.459,0,0,0,.278,1.736V0ZM13.887-1.033a2.381,2.381,0,0,0,1.208-.33,1.994,1.994,0,0,0,.828-.857V-3.845H14.861q-2.49,0-2.49,1.458a1.234,1.234,0,0,0,.425,1A1.633,1.633,0,0,0,13.887-1.033ZM24.016-2.1a1,1,0,0,0-.414-.853,3.983,3.983,0,0,0-1.443-.524,6.822,6.822,0,0,1-1.633-.527,2.324,2.324,0,0,1-.894-.732,1.752,1.752,0,0,1-.289-1.011A2.056,2.056,0,0,1,20.167-7.4a3.218,3.218,0,0,1,2.106-.674,3.311,3.311,0,0,1,2.186.7A2.21,2.21,0,0,1,25.3-5.6H23.936a1.223,1.223,0,0,0-.472-.959,1.77,1.77,0,0,0-1.19-.4,1.852,1.852,0,0,0-1.157.322,1.014,1.014,0,0,0-.417.842.822.822,0,0,0,.388.74,4.776,4.776,0,0,0,1.4.476,7.308,7.308,0,0,1,1.644.542,2.4,2.4,0,0,1,.934.758,1.864,1.864,0,0,1,.3,1.08,2.028,2.028,0,0,1-.85,1.7,3.564,3.564,0,0,1-2.2.641A3.991,3.991,0,0,1,20.632-.19a2.74,2.74,0,0,1-1.146-.941,2.268,2.268,0,0,1-.414-1.307h1.355a1.4,1.4,0,0,0,.546,1.08,2.117,2.117,0,0,0,1.344.4,2.185,2.185,0,0,0,1.234-.311A.956.956,0,0,0,24.016-2.1Zm4.958-7.742v1.919h1.479v1.047H28.975v4.915a1.1,1.1,0,0,0,.2.714.833.833,0,0,0,.674.238,3.281,3.281,0,0,0,.645-.088V0a3.928,3.928,0,0,1-1.04.146A1.687,1.687,0,0,1,28.081-.4a2.36,2.36,0,0,1-.461-1.56V-6.877H26.177V-7.925H27.62V-9.844Zm2.556,5.808a4.681,4.681,0,0,1,.458-2.095,3.415,3.415,0,0,1,1.274-1.436,3.469,3.469,0,0,1,1.864-.505,3.342,3.342,0,0,1,2.618,1.121,4.311,4.311,0,0,1,1,2.981v.1A4.722,4.722,0,0,1,38.3-1.8,3.365,3.365,0,0,1,37.035-.366a3.509,3.509,0,0,1-1.893.513A3.334,3.334,0,0,1,32.531-.974a4.29,4.29,0,0,1-1-2.966Zm1.362.161A3.39,3.39,0,0,0,33.5-1.758a1.957,1.957,0,0,0,1.637.8,1.945,1.945,0,0,0,1.641-.809,3.707,3.707,0,0,0,.608-2.267,3.384,3.384,0,0,0-.619-2.113,1.968,1.968,0,0,0-1.644-.809,1.946,1.946,0,0,0-1.619.8A3.68,3.68,0,0,0,32.893-3.875ZM45.059-2.1a1,1,0,0,0-.414-.853A3.983,3.983,0,0,0,43.2-3.479a6.822,6.822,0,0,1-1.633-.527,2.324,2.324,0,0,1-.894-.732,1.752,1.752,0,0,1-.289-1.011A2.056,2.056,0,0,1,41.21-7.4a3.218,3.218,0,0,1,2.106-.674,3.311,3.311,0,0,1,2.186.7A2.21,2.21,0,0,1,46.34-5.6H44.978a1.223,1.223,0,0,0-.472-.959,1.77,1.77,0,0,0-1.19-.4,1.852,1.852,0,0,0-1.157.322,1.014,1.014,0,0,0-.417.842.822.822,0,0,0,.388.74,4.776,4.776,0,0,0,1.4.476,7.308,7.308,0,0,1,1.644.542,2.4,2.4,0,0,1,.934.758,1.864,1.864,0,0,1,.3,1.08,2.028,2.028,0,0,1-.85,1.7,3.564,3.564,0,0,1-2.2.641A3.991,3.991,0,0,1,41.675-.19a2.74,2.74,0,0,1-1.146-.941,2.268,2.268,0,0,1-.414-1.307H41.47a1.4,1.4,0,0,0,.546,1.08,2.117,2.117,0,0,0,1.344.4,2.185,2.185,0,0,0,1.234-.311A.956.956,0,0,0,45.059-2.1Z" transform="translate(-6807.217 -13610.749)"/><path class="a" d="M9.082-3.384A3.923,3.923,0,0,1,7.833-.773,4.093,4.093,0,0,1,5.039.146,3.758,3.758,0,0,1,2.01-1.208,5.451,5.451,0,0,1,.872-4.834V-5.859A6.076,6.076,0,0,1,1.4-8.474a3.966,3.966,0,0,1,1.505-1.732,4.191,4.191,0,0,1,2.256-.6,3.853,3.853,0,0,1,2.725.948A3.971,3.971,0,0,1,9.082-7.236H7.668a3.05,3.05,0,0,0-.795-1.846,2.409,2.409,0,0,0-1.71-.571,2.517,2.517,0,0,0-2.113,1,4.57,4.57,0,0,0-.765,2.834V-4.79A4.7,4.7,0,0,0,3.01-2.029,2.344,2.344,0,0,0,5.039-1a2.706,2.706,0,0,0,1.8-.531,2.947,2.947,0,0,0,.831-1.849Zm1.348-.652a4.681,4.681,0,0,1,.458-2.095,3.415,3.415,0,0,1,1.274-1.436,3.469,3.469,0,0,1,1.864-.505,3.342,3.342,0,0,1,2.618,1.121,4.311,4.311,0,0,1,1,2.981v.1A4.722,4.722,0,0,1,17.2-1.8,3.365,3.365,0,0,1,15.934-.366a3.509,3.509,0,0,1-1.893.513A3.334,3.334,0,0,1,11.429-.974a4.29,4.29,0,0,1-1-2.966Zm1.362.161A3.39,3.39,0,0,0,12.4-1.758a1.957,1.957,0,0,0,1.637.8,1.945,1.945,0,0,0,1.641-.809,3.707,3.707,0,0,0,.608-2.267,3.384,3.384,0,0,0-.619-2.113,1.968,1.968,0,0,0-1.644-.809,1.946,1.946,0,0,0-1.619.8A3.68,3.68,0,0,0,11.792-3.875ZM23.958-2.1a1,1,0,0,0-.414-.853A3.983,3.983,0,0,0,22.1-3.479a6.822,6.822,0,0,1-1.633-.527,2.324,2.324,0,0,1-.894-.732,1.752,1.752,0,0,1-.289-1.011A2.056,2.056,0,0,1,20.109-7.4a3.218,3.218,0,0,1,2.106-.674,3.311,3.311,0,0,1,2.186.7,2.21,2.21,0,0,1,.839,1.78H23.877a1.223,1.223,0,0,0-.472-.959,1.77,1.77,0,0,0-1.19-.4,1.852,1.852,0,0,0-1.157.322,1.014,1.014,0,0,0-.417.842.822.822,0,0,0,.388.74,4.776,4.776,0,0,0,1.4.476,7.308,7.308,0,0,1,1.644.542,2.4,2.4,0,0,1,.934.758,1.864,1.864,0,0,1,.3,1.08,2.028,2.028,0,0,1-.85,1.7,3.564,3.564,0,0,1-2.2.641A3.991,3.991,0,0,1,20.574-.19a2.74,2.74,0,0,1-1.146-.941,2.268,2.268,0,0,1-.414-1.307h1.355a1.4,1.4,0,0,0,.546,1.08,2.117,2.117,0,0,0,1.344.4,2.185,2.185,0,0,0,1.234-.311A.956.956,0,0,0,23.958-2.1Zm4.958-7.742v1.919H30.4v1.047H28.916v4.915a1.1,1.1,0,0,0,.2.714.833.833,0,0,0,.674.238,3.281,3.281,0,0,0,.645-.088V0a3.928,3.928,0,0,1-1.04.146A1.687,1.687,0,0,1,28.022-.4a2.36,2.36,0,0,1-.461-1.56V-6.877H26.118V-7.925h1.443V-9.844Zm2.556,5.808A4.681,4.681,0,0,1,31.93-6.13,3.415,3.415,0,0,1,33.2-7.566a3.469,3.469,0,0,1,1.864-.505,3.342,3.342,0,0,1,2.618,1.121,4.311,4.311,0,0,1,1,2.981v.1A4.722,4.722,0,0,1,38.243-1.8,3.365,3.365,0,0,1,36.976-.366a3.509,3.509,0,0,1-1.893.513A3.334,3.334,0,0,1,32.472-.974a4.29,4.29,0,0,1-1-2.966Zm1.362.161a3.39,3.39,0,0,0,.612,2.117,1.957,1.957,0,0,0,1.637.8,1.945,1.945,0,0,0,1.641-.809,3.707,3.707,0,0,0,.608-2.267,3.384,3.384,0,0,0-.619-2.113,1.968,1.968,0,0,0-1.644-.809,1.946,1.946,0,0,0-1.619.8A3.68,3.68,0,0,0,32.834-3.875ZM45-2.1a1,1,0,0,0-.414-.853,3.983,3.983,0,0,0-1.443-.524,6.822,6.822,0,0,1-1.633-.527,2.324,2.324,0,0,1-.894-.732,1.752,1.752,0,0,1-.289-1.011A2.056,2.056,0,0,1,41.151-7.4a3.218,3.218,0,0,1,2.106-.674,3.311,3.311,0,0,1,2.186.7,2.21,2.21,0,0,1,.839,1.78H44.919a1.223,1.223,0,0,0-.472-.959,1.77,1.77,0,0,0-1.19-.4,1.852,1.852,0,0,0-1.157.322,1.014,1.014,0,0,0-.417.842.822.822,0,0,0,.388.74,4.776,4.776,0,0,0,1.4.476,7.308,7.308,0,0,1,1.644.542,2.4,2.4,0,0,1,.934.758,1.864,1.864,0,0,1,.3,1.08,2.028,2.028,0,0,1-.85,1.7,3.564,3.564,0,0,1-2.2.641A3.991,3.991,0,0,1,41.616-.19a2.74,2.74,0,0,1-1.146-.941,2.268,2.268,0,0,1-.414-1.307h1.355a1.4,1.4,0,0,0,.546,1.08,2.117,2.117,0,0,0,1.344.4,2.185,2.185,0,0,0,1.234-.311A.956.956,0,0,0,45-2.1Z" transform="translate(-6732.145 -13610.749)"/><path class="a" d="M2.644-4.175V0H1.238V-10.664H5.171a3.952,3.952,0,0,1,2.743.894A3.029,3.029,0,0,1,8.906-7.4a2.989,2.989,0,0,1-.97,2.391,4.128,4.128,0,0,1-2.78.839Zm0-1.15H5.171A2.529,2.529,0,0,0,6.9-5.856,1.94,1.94,0,0,0,7.5-7.39a2,2,0,0,0-.6-1.523,2.37,2.37,0,0,0-1.648-.593H2.644ZM13.777.146A3.463,3.463,0,0,1,11.155-.912a3.928,3.928,0,0,1-1.011-2.831v-.249a4.756,4.756,0,0,1,.45-2.106,3.514,3.514,0,0,1,1.26-1.45,3.167,3.167,0,0,1,1.754-.524,2.968,2.968,0,0,1,2.4,1.018,4.408,4.408,0,0,1,.857,2.915v.564H11.5a2.817,2.817,0,0,0,.685,1.893,2.153,2.153,0,0,0,1.666.721,2.36,2.36,0,0,0,1.216-.293,3.055,3.055,0,0,0,.872-.776l.828.645A3.328,3.328,0,0,1,13.777.146Zm-.168-7.1a1.807,1.807,0,0,0-1.377.6,2.9,2.9,0,0,0-.688,1.674h3.97v-.1a2.581,2.581,0,0,0-.557-1.6A1.7,1.7,0,0,0,13.608-6.958Zm8.657.249A4.06,4.06,0,0,0,21.6-6.76,1.786,1.786,0,0,0,19.79-5.625V0H18.435V-7.925h1.318l.022.916a2.11,2.11,0,0,1,1.89-1.062,1.384,1.384,0,0,1,.6.1Zm.916,2.681a4.642,4.642,0,0,1,.864-2.933,2.733,2.733,0,0,1,2.263-1.11,2.748,2.748,0,0,1,2.2.952V-11.25h1.355V0H28.623l-.066-.85a2.759,2.759,0,0,1-2.263,1A2.707,2.707,0,0,1,24.049-.981a4.7,4.7,0,0,1-.868-2.944Zm1.355.154a3.515,3.515,0,0,0,.557,2.109A1.8,1.8,0,0,0,26.631-1a1.977,1.977,0,0,0,1.882-1.157V-5.8a1.992,1.992,0,0,0-1.868-1.121,1.808,1.808,0,0,0-1.553.769A3.87,3.87,0,0,0,24.536-3.875ZM33.442,0H32.087V-7.925h1.355ZM31.978-10.027a.809.809,0,0,1,.2-.557.756.756,0,0,1,.6-.227.768.768,0,0,1,.6.227.8.8,0,0,1,.205.557.774.774,0,0,1-.205.549.782.782,0,0,1-.6.22.77.77,0,0,1-.6-.22A.782.782,0,0,1,31.978-10.027Zm3.3,6a4.642,4.642,0,0,1,.864-2.933,2.733,2.733,0,0,1,2.263-1.11,2.748,2.748,0,0,1,2.2.952V-11.25h1.355V0H40.723l-.066-.85a2.759,2.759,0,0,1-2.263,1A2.707,2.707,0,0,1,36.149-.981a4.7,4.7,0,0,1-.868-2.944Zm1.355.154a3.515,3.515,0,0,0,.557,2.109A1.8,1.8,0,0,0,38.73-1a1.977,1.977,0,0,0,1.882-1.157V-5.8a1.992,1.992,0,0,0-1.868-1.121,1.808,1.808,0,0,0-1.553.769A3.87,3.87,0,0,0,36.636-3.875ZM48.962,0a2.846,2.846,0,0,1-.19-.835,3.023,3.023,0,0,1-2.256.981,2.8,2.8,0,0,1-1.923-.663A2.145,2.145,0,0,1,43.843-2.2a2.24,2.24,0,0,1,.941-1.923A4.437,4.437,0,0,1,47.432-4.8H48.75v-.623a1.522,1.522,0,0,0-.425-1.132,1.707,1.707,0,0,0-1.252-.421,1.976,1.976,0,0,0-1.216.366,1.079,1.079,0,0,0-.491.886H44a1.87,1.87,0,0,1,.421-1.146,2.874,2.874,0,0,1,1.143-.875,3.844,3.844,0,0,1,1.586-.322,3.133,3.133,0,0,1,2.146.685A2.47,2.47,0,0,1,50.1-5.5v3.647a4.459,4.459,0,0,0,.278,1.736V0ZM46.714-1.033a2.381,2.381,0,0,0,1.208-.33,1.994,1.994,0,0,0,.828-.857V-3.845H47.688q-2.49,0-2.49,1.458a1.234,1.234,0,0,0,.425,1A1.633,1.633,0,0,0,46.714-1.033Z" transform="translate(-6662.618 -13634.341)"/><path class="e" d="M0,0H483.846V33.134H0Z" transform="translate(-7057.75 -13806.937)"/><path class="f" d="M10.315-6.47H4.409v4h6.932V0H1.333V-14.93H11.32v2.492H4.409V-8.88h5.906ZM20.887-3.917a1.579,1.579,0,0,0-.615-1.338,8.07,8.07,0,0,0-2.215-.984,15.7,15.7,0,0,1-2.533-1.02,4.138,4.138,0,0,1-2.543-3.7,3.605,3.605,0,0,1,.682-2.158A4.448,4.448,0,0,1,15.622-14.6a7.372,7.372,0,0,1,2.866-.533,6.71,6.71,0,0,1,2.851.579,4.539,4.539,0,0,1,1.943,1.635,4.28,4.28,0,0,1,.692,2.4H20.9a2.013,2.013,0,0,0-.646-1.594,2.655,2.655,0,0,0-1.815-.569,2.837,2.837,0,0,0-1.753.477,1.5,1.5,0,0,0-.625,1.256,1.44,1.44,0,0,0,.733,1.22,8.283,8.283,0,0,0,2.158.923A9.326,9.326,0,0,1,22.774-6.85a3.9,3.9,0,0,1,1.2,2.912A3.593,3.593,0,0,1,22.507-.9,6.419,6.419,0,0,1,18.56.205a7.623,7.623,0,0,1-3.138-.631,4.965,4.965,0,0,1-2.158-1.728A4.425,4.425,0,0,1,12.52-4.7h3.086q0,2.471,2.953,2.471a2.873,2.873,0,0,0,1.712-.446A1.451,1.451,0,0,0,20.887-3.917Zm16.406-8.521H32.72V0H29.644V-12.438H25.132V-14.93H37.293Zm8.952,9.362H40.852L39.826,0H36.555l5.558-14.93h2.851L50.552,0H47.281ZM41.682-5.568h3.732l-1.876-5.588ZM51.946,0V-14.93H56.54a6.976,6.976,0,0,1,3.522.887,6.185,6.185,0,0,1,2.425,2.522A7.78,7.78,0,0,1,63.359-7.8v.687a7.8,7.8,0,0,1-.856,3.7A6.132,6.132,0,0,1,60.088-.9a7.029,7.029,0,0,1-3.517.9Zm3.076-12.438v9.967h1.487A3.341,3.341,0,0,0,59.268-3.65a5.329,5.329,0,0,0,.974-3.374v-.79a5.413,5.413,0,0,0-.943-3.45,3.329,3.329,0,0,0-2.758-1.174ZM77.858-7.126a9.013,9.013,0,0,1-.779,3.866A5.869,5.869,0,0,1,74.848-.7a6.169,6.169,0,0,1-3.327.9,6.211,6.211,0,0,1-3.312-.892,5.926,5.926,0,0,1-2.256-2.548,8.755,8.755,0,0,1-.81-3.809v-.738a8.965,8.965,0,0,1,.795-3.881,5.917,5.917,0,0,1,2.246-2.574,6.177,6.177,0,0,1,3.317-.9,6.177,6.177,0,0,1,3.317.9,5.917,5.917,0,0,1,2.246,2.574,8.94,8.94,0,0,1,.795,3.871ZM74.741-7.8a6.283,6.283,0,0,0-.841-3.568,2.74,2.74,0,0,0-2.4-1.22,2.741,2.741,0,0,0-2.389,1.2,6.211,6.211,0,0,0-.851,3.532v.728A6.361,6.361,0,0,0,69.1-3.579a2.733,2.733,0,0,0,2.42,1.261A2.708,2.708,0,0,0,73.9-3.532a6.324,6.324,0,0,0,.841-3.543ZM85.323,0V-14.93h4.594a6.976,6.976,0,0,1,3.522.887,6.185,6.185,0,0,1,2.425,2.522A7.78,7.78,0,0,1,96.735-7.8v.687a7.8,7.8,0,0,1-.856,3.7A6.132,6.132,0,0,1,93.464-.9a7.029,7.029,0,0,1-3.517.9ZM88.4-12.438v9.967h1.487A3.341,3.341,0,0,0,92.644-3.65a5.329,5.329,0,0,0,.974-3.374v-.79a5.413,5.413,0,0,0-.943-3.45,3.329,3.329,0,0,0-2.758-1.174ZM107.953-6.47h-5.906v4h6.932V0H98.971V-14.93h9.987v2.492h-6.911V-8.88h5.906Zm13.586,1h-2.451V0h-3.076V-14.93h5.547a6.271,6.271,0,0,1,4.081,1.179,4.07,4.07,0,0,1,1.436,3.333,4.593,4.593,0,0,1-.661,2.548,4.511,4.511,0,0,1-2,1.625l3.23,6.1V0h-3.3Zm-2.451-2.492h2.481a2.541,2.541,0,0,0,1.794-.59A2.107,2.107,0,0,0,124-10.172a2.256,2.256,0,0,0-.6-1.661,2.493,2.493,0,0,0-1.841-.6h-2.471ZM138.4-6.47h-5.906v4h6.932V0H129.415V-14.93H139.4v2.492h-6.911V-8.88H138.4Zm10.572,2.553a1.579,1.579,0,0,0-.615-1.338,8.07,8.07,0,0,0-2.215-.984,15.7,15.7,0,0,1-2.533-1.02,4.138,4.138,0,0,1-2.543-3.7,3.605,3.605,0,0,1,.682-2.158A4.448,4.448,0,0,1,143.7-14.6a7.372,7.372,0,0,1,2.866-.533,6.71,6.71,0,0,1,2.851.579,4.539,4.539,0,0,1,1.943,1.635,4.28,4.28,0,0,1,.692,2.4h-3.076a2.013,2.013,0,0,0-.646-1.594,2.655,2.655,0,0,0-1.815-.569,2.837,2.837,0,0,0-1.753.477,1.5,1.5,0,0,0-.625,1.256,1.44,1.44,0,0,0,.733,1.22,8.283,8.283,0,0,0,2.158.923,9.326,9.326,0,0,1,3.825,1.958,3.9,3.9,0,0,1,1.2,2.912A3.593,3.593,0,0,1,150.589-.9a6.419,6.419,0,0,1-3.948,1.1A7.623,7.623,0,0,1,143.5-.426a4.965,4.965,0,0,1-2.158-1.728A4.425,4.425,0,0,1,140.6-4.7h3.086q0,2.471,2.953,2.471a2.873,2.873,0,0,0,1.712-.446A1.451,1.451,0,0,0,148.969-3.917ZM165.437-14.93V-5.1A5.035,5.035,0,0,1,163.9-1.22,5.91,5.91,0,0,1,159.715.205a5.976,5.976,0,0,1-4.153-1.384,4.949,4.949,0,0,1-1.569-3.8V-14.93h3.076v9.854a2.845,2.845,0,0,0,.7,2.138,2.7,2.7,0,0,0,1.943.672q2.594,0,2.635-2.728V-14.93Zm5.6,12.458h6.532V0h-9.608V-14.93h3.076Zm17.432-9.967h-4.573V0h-3.076V-12.438h-4.512V-14.93h12.161Zm8.952,9.362h-5.394L191,0h-3.271l5.558-14.93h2.851L201.725,0h-3.271Zm-4.563-2.492h3.732l-1.876-5.588ZM203.12,0V-14.93h4.594a6.976,6.976,0,0,1,3.522.887,6.185,6.185,0,0,1,2.425,2.522,7.78,7.78,0,0,1,.872,3.717v.687a7.8,7.8,0,0,1-.856,3.7A6.132,6.132,0,0,1,211.261-.9a7.029,7.029,0,0,1-3.517.9ZM206.2-12.438v9.967h1.487a3.341,3.341,0,0,0,2.758-1.179,5.329,5.329,0,0,0,.974-3.374v-.79a5.413,5.413,0,0,0-.943-3.45,3.329,3.329,0,0,0-2.758-1.174Zm22.835,5.312a9.013,9.013,0,0,1-.779,3.866A5.869,5.869,0,0,1,226.022-.7a6.169,6.169,0,0,1-3.327.9,6.211,6.211,0,0,1-3.312-.892,5.926,5.926,0,0,1-2.256-2.548,8.755,8.755,0,0,1-.81-3.809v-.738a8.965,8.965,0,0,1,.795-3.881,5.917,5.917,0,0,1,2.246-2.574,6.177,6.177,0,0,1,3.317-.9,6.177,6.177,0,0,1,3.317.9,5.917,5.917,0,0,1,2.246,2.574,8.94,8.94,0,0,1,.795,3.871ZM225.914-7.8a6.283,6.283,0,0,0-.841-3.568,2.74,2.74,0,0,0-2.4-1.22,2.741,2.741,0,0,0-2.389,1.2,6.211,6.211,0,0,0-.851,3.532v.728a6.361,6.361,0,0,0,.841,3.548,2.733,2.733,0,0,0,2.42,1.261,2.708,2.708,0,0,0,2.379-1.215,6.324,6.324,0,0,0,.841-3.543Zm15,5.619a1.944,1.944,0,0,0,1.333-.451,1.581,1.581,0,0,0,.533-1.2h2.779a3.8,3.8,0,0,1-.615,2.066,4.06,4.06,0,0,1-1.656,1.456,5.183,5.183,0,0,1-2.323.518,4.817,4.817,0,0,1-3.753-1.512,5.985,5.985,0,0,1-1.374-4.178v-.195A5.917,5.917,0,0,1,237.2-9.772a4.761,4.761,0,0,1,3.743-1.528,4.667,4.667,0,0,1,3.338,1.184,4.193,4.193,0,0,1,1.277,3.153h-2.779a2.02,2.02,0,0,0-.533-1.4A1.783,1.783,0,0,0,240.9-8.9a1.786,1.786,0,0,0-1.564.754A4.363,4.363,0,0,0,238.8-5.7v.308a4.418,4.418,0,0,0,.523,2.461A1.808,1.808,0,0,0,240.916-2.184Zm5.875-3.466a6.58,6.58,0,0,1,.636-2.943,4.654,4.654,0,0,1,1.83-2,5.34,5.34,0,0,1,2.774-.708A5.052,5.052,0,0,1,255.7-9.926a5.514,5.514,0,0,1,1.584,3.732l.021.759a5.8,5.8,0,0,1-1.425,4.1A4.954,4.954,0,0,1,252.051.205a4.979,4.979,0,0,1-3.83-1.538,5.9,5.9,0,0,1-1.43-4.184Zm2.963.215a4.136,4.136,0,0,0,.595,2.415,1.963,1.963,0,0,0,1.7.836,1.967,1.967,0,0,0,1.682-.825,4.526,4.526,0,0,0,.6-2.64,4.1,4.1,0,0,0-.6-2.4,1.968,1.968,0,0,0-1.7-.851,1.935,1.935,0,0,0-1.682.846A4.6,4.6,0,0,0,249.754-5.435Zm12.1-5.66.092,1.282a3.874,3.874,0,0,1,3.189-1.487,3.219,3.219,0,0,1,2.625,1.036,4.832,4.832,0,0,1,.882,3.1V0h-2.963V-7.1a1.923,1.923,0,0,0-.41-1.369A1.836,1.836,0,0,0,263.9-8.89a2.039,2.039,0,0,0-1.876,1.066V0h-2.963V-11.095ZM279.388-5.26V0h-3.076V-14.93h5.824a6.738,6.738,0,0,1,2.958.615,4.534,4.534,0,0,1,1.964,1.748,4.875,4.875,0,0,1,.687,2.579,4.287,4.287,0,0,1-1.5,3.461,6.257,6.257,0,0,1-4.158,1.266Zm0-2.492h2.748A2.7,2.7,0,0,0,284-8.326a2.088,2.088,0,0,0,.641-1.641,2.463,2.463,0,0,0-.646-1.774,2.413,2.413,0,0,0-1.784-.7h-2.82ZM298.84-6.47h-5.906v4h6.932V0H289.857V-14.93h9.987v2.492h-6.911V-8.88h5.906ZM295.63-18.959h3.23l-2.84,3.179h-2.41ZM307.2-5.465h-2.451V0H301.67V-14.93h5.547A6.271,6.271,0,0,1,311.3-13.75a4.07,4.07,0,0,1,1.436,3.333,4.593,4.593,0,0,1-.661,2.548,4.511,4.511,0,0,1-2,1.625l3.23,6.1V0H310Zm-2.451-2.492h2.481a2.541,2.541,0,0,0,1.794-.59,2.107,2.107,0,0,0,.636-1.625,2.256,2.256,0,0,0-.6-1.661,2.493,2.493,0,0,0-1.841-.6h-2.471ZM315.072,0V-14.93h4.594a6.976,6.976,0,0,1,3.522.887,6.185,6.185,0,0,1,2.425,2.522,7.78,7.78,0,0,1,.872,3.717v.687a7.8,7.8,0,0,1-.856,3.7A6.132,6.132,0,0,1,323.213-.9,7.029,7.029,0,0,1,319.7,0Zm3.076-12.438v9.967h1.487a3.341,3.341,0,0,0,2.758-1.179,5.329,5.329,0,0,0,.974-3.374v-.79a5.413,5.413,0,0,0-.943-3.45,3.329,3.329,0,0,0-2.758-1.174ZM331.991,0h-3.076V-14.93h3.076Zm2.851,0V-14.93h4.594a6.976,6.976,0,0,1,3.522.887,6.185,6.185,0,0,1,2.425,2.522,7.78,7.78,0,0,1,.872,3.717v.687a7.8,7.8,0,0,1-.856,3.7A6.132,6.132,0,0,1,342.983-.9a7.029,7.029,0,0,1-3.517.9Zm3.076-12.438v9.967H339.4a3.341,3.341,0,0,0,2.758-1.179,5.329,5.329,0,0,0,.974-3.374v-.79a5.413,5.413,0,0,0-.943-3.45,3.329,3.329,0,0,0-2.758-1.174Zm19,9.362h-5.394L350.5,0h-3.271l5.558-14.93h2.851L361.225,0h-3.271Zm-4.563-2.492h3.732l-1.876-5.588Z" transform="translate(-6997.018 -13784.093)"/><path class="g" d="M0,0H483.846V323.876H0Z" transform="translate(-7057.75 -13806.937)"/></g></svg>