<svg xmlns="http://www.w3.org/2000/svg" width="470.641" height="457.437" viewBox="0 0 470.641 457.437"><defs><style>.a{fill:#5e6178;}.b{opacity:0.4;}.c{opacity:0.2;}.d{fill:#fafafa;}.e{fill:#344154;}.f{fill:#fff;}.g{fill:#d9a171;}.h{fill:#ececec;}.i{fill:#aed3f2;}.j{fill:#e1e1e1;}.k{opacity:0.1;}.l{opacity:0.3;}.m{fill:#ffbf9d;}.n{opacity:0.5;}.o{fill:#ebebeb;}.p{fill:#636363;}.q{fill:#8e8e8e;}</style></defs><g transform="translate(-181 -4316.44)"><g transform="translate(237.197 4316.44)"><g transform="translate(6.698 1.312)"><path class="a" d="M439.3,5371.756l-76.944-14.729a4.335,4.335,0,0,1-3.445-5.076l24.76-129.359a6.161,6.161,0,0,1,7.211-4.893l73.362,14.039a6.166,6.166,0,0,1,4.894,7.213L444.379,5368.31A4.337,4.337,0,0,1,439.3,5371.756Z" transform="translate(-358.835 -5217.588)"/></g><g class="b" transform="translate(6.637 1.291)"><path d="M439.251,5371.74l-76.944-14.728a4.34,4.34,0,0,1-3.446-5.078l24.761-129.359a6.163,6.163,0,0,1,7.211-4.894l73.362,14.042a6.164,6.164,0,0,1,4.894,7.211l-24.761,129.361A4.338,4.338,0,0,1,439.251,5371.74Z" transform="translate(-358.783 -5217.57)"/></g><path class="a" d="M433.614,5370.643l-76.944-14.727a4.34,4.34,0,0,1-3.446-5.078l24.761-129.359a6.162,6.162,0,0,1,7.211-4.893l73.36,14.042a6.163,6.163,0,0,1,4.9,7.211L438.691,5367.2A4.337,4.337,0,0,1,433.614,5370.643Z" transform="translate(-353.146 -5216.475)"/><g transform="translate(14.526 109.475)"><g transform="translate(0 0)"><rect class="a" width="29.35" height="12.967" rx="2.42" transform="translate(2.438 0) rotate(10.836)"/></g></g><g class="c" transform="translate(14.526 109.475)"><g transform="translate(0 0)"><rect width="29.35" height="12.967" rx="2.42" transform="translate(2.438 0) rotate(10.836)"/></g></g><g transform="translate(24.405 13.994)"><g transform="translate(0.141 0.147)"><g transform="translate(0 0)"><rect class="d" width="29.183" height="74.396" transform="translate(0 28.663) rotate(-79.164)"/></g></g><path class="e" d="M447.085,5271.156s.028-.177.09-.512.154-.836.274-1.484c.245-1.307.605-3.224,1.069-5.7.935-4.942,2.288-12.1,3.968-20.985l.069.1-73.071-13.948h-.006l.147-.1c-1.92,10.024-3.776,19.709-5.491,28.662l-.1-.142,52.356,10.079c6.488,1.256,11.655,2.258,15.2,2.945,1.772.345,3.14.613,4.071.793l1.053.21c.238.048.361.077.361.077s-.115-.017-.35-.059l-1.042-.192-4.051-.761-15.189-2.873-52.46-9.982-.118-.023.022-.118c1.712-8.953,3.564-18.638,5.482-28.664l.024-.124.124.023,0,0,73.057,14.021.086.017-.017.085c-1.724,8.9-3.113,16.068-4.071,21.019-.48,2.462-.854,4.37-1.108,5.671l-.29,1.464C447.122,5270.993,447.085,5271.156,447.085,5271.156Z" transform="translate(-373.875 -5228.361)"/></g><g transform="translate(22.147 54.648)"><g transform="translate(1.918 0.367)"><g transform="translate(0 0)"><rect class="a" width="12.645" height="12.645" rx="2.082" transform="translate(2.377 0) rotate(10.835)"/></g></g><g class="c" transform="translate(1.918 0.367)"><g transform="translate(0 0)"><rect width="12.645" height="12.645" rx="2.082" transform="translate(2.377 0) rotate(10.835)"/></g></g><g transform="translate(0 0)"><g transform="translate(0 0)"><rect class="e" width="12.645" height="12.645" rx="2.082" transform="translate(2.377 0) rotate(10.836)"/></g></g><g transform="translate(6.363 4.494)"><path class="f" d="M379.779,5267.136l-.99,5.175-1.2-.229.808-4.216-1.036-.2.185-.96Z" transform="translate(-377.362 -5266.708)"/></g></g><g transform="translate(39.466 57.962)"><g transform="translate(1.918 0.367)"><g transform="translate(0 0)"><rect class="a" width="12.645" height="12.645" rx="2.082" transform="translate(2.377 0) rotate(10.836)"/></g></g><g class="c" transform="translate(1.918 0.367)"><g transform="translate(0 0)"><rect width="12.645" height="12.645" rx="2.082" transform="translate(2.377 0) rotate(10.836)"/></g></g><g transform="translate(0 0)"><g transform="translate(0 0)"><rect class="e" width="12.645" height="12.645" rx="2.082" transform="translate(2.377 0) rotate(10.836)"/></g></g><g transform="translate(5.75 4.732)"><path class="f" d="M395.649,5274.473l-.187.976-3.911-.749.148-.776,2.358-1.5c.542-.349.673-.6.722-.851.078-.406-.158-.7-.705-.8a1.289,1.289,0,0,0-1.171.313l-.764-.73a2.449,2.449,0,0,1,2.239-.567c1.153.22,1.81.959,1.629,1.9a2.108,2.108,0,0,1-1.177,1.467l-1.406.9Z" transform="translate(-391.551 -5269.725)"/></g></g><g transform="translate(57.421 61.399)"><g transform="translate(1.918 0.367)"><g transform="translate(0 0)"><rect class="a" width="12.645" height="12.645" rx="2.082" transform="translate(2.377 0) rotate(10.836)"/></g></g><g class="c" transform="translate(1.918 0.367)"><g transform="translate(0 0)"><rect width="12.645" height="12.645" rx="2.082" transform="translate(2.377 0) rotate(10.836)"/></g></g><g transform="translate(0 0)"><g transform="translate(0 0)"><rect class="e" width="12.645" height="12.645" rx="2.082" transform="translate(2.377 0) rotate(10.836)"/></g></g><g transform="translate(5.588 4.533)"><path class="f" d="M410.995,5276.807c-.166.873-.993,1.542-2.463,1.261a3.628,3.628,0,0,1-1.868-.933l.642-.828a2.562,2.562,0,0,0,1.389.75c.6.115,1.015-.059,1.1-.479.075-.392-.167-.693-.847-.822l-.547-.1.151-.791,1.3-1-2.2-.421.184-.96,3.624.693-.148.776-1.423,1.108A1.5,1.5,0,0,1,410.995,5276.807Z" transform="translate(-406.663 -5272.475)"/></g></g><g transform="translate(75.419 64.839)"><g transform="translate(1.874 0.363)"><g transform="translate(0 0)"><rect class="a" width="12.645" height="12.645" rx="2.082" transform="translate(2.377 0) rotate(10.836)"/></g></g><g class="c" transform="translate(1.874 0.363)"><g transform="translate(0 0)"><rect width="12.645" height="12.645" rx="2.082" transform="translate(2.377 0) rotate(10.836)"/></g></g><g transform="translate(0 0)"><g transform="translate(0 0)"><rect class="e" width="12.645" height="12.645" rx="2.082" transform="translate(2.377 0) rotate(10.836)"/></g></g><g transform="translate(4.543 3.854)"><g transform="translate(0 2.566)"><g transform="translate(0 0)"><rect class="f" width="0.483" height="5.647" transform="translate(0 0.474) rotate(-79.163)"/></g></g><g transform="translate(2.365)"><path class="f" d="M424.887,5275.906a.916.916,0,1,1-.728-1.07A.916.916,0,0,1,424.887,5275.906Z" transform="translate(-423.072 -5274.819)"/></g><g transform="translate(1.44 4.836)"><path class="f" d="M424.1,5280.017a.915.915,0,1,1-.726-1.072A.914.914,0,0,1,424.1,5280.017Z" transform="translate(-422.286 -5278.928)"/></g></g></g><g transform="translate(18.665 72.841)"><g class="c" transform="translate(2.141 0.592)"><path d="M381.723,5293.172l-9.835-1.883a1.316,1.316,0,0,1-1.045-1.54l1.883-9.833a1.316,1.316,0,0,1,1.54-1.046l9.836,1.882a1.3,1.3,0,0,1,1.044,1.541l-1.881,9.834A1.317,1.317,0,0,1,381.723,5293.172Z" transform="translate(-370.818 -5278.846)"/></g><g transform="translate(0 0)"><rect class="e" width="12.645" height="12.645" rx="2.082" transform="translate(2.377 0) rotate(10.836)"/></g><g transform="translate(4.71 4.759)"><path class="f" d="M377.8,5286.927l-.844-.162-.208,1.087-1.168-.224.208-1.086-2.788-.534.154-.806,3.069-2.816,1.256.241-2.859,2.68,1.39.265.185-.968,1.131.217-.185.968.843.162Z" transform="translate(-373 -5282.385)"/></g></g><g transform="translate(35.984 76.157)"><g transform="translate(1.918 0.367)"><g transform="translate(0 0)"><rect class="a" width="12.645" height="12.645" rx="2.082" transform="translate(2.377 0) rotate(10.836)"/></g></g><g class="c" transform="translate(1.918 0.367)"><g transform="translate(0 0)"><rect width="12.645" height="12.645" rx="2.082" transform="translate(2.377 0) rotate(10.836)"/></g></g><g transform="translate(0 0)"><g transform="translate(0 0)"><rect class="e" width="12.645" height="12.645" rx="2.082" transform="translate(2.377 0) rotate(10.836)"/></g></g><g transform="translate(5.053 4.505)"><path class="f" d="M392.349,5289.2c-.175.916-1,1.585-2.481,1.3a3.63,3.63,0,0,1-1.867-.933l.649-.825a2.532,2.532,0,0,0,1.382.747c.6.115,1.016-.066,1.1-.487s-.138-.725-1.076-.9l-1.323-.252.823-2.863,3.158.6-.184.962-2.159-.413-.27.966.422.082C392.05,5287.48,392.524,5288.284,392.349,5289.2Z" transform="translate(-388.001 -5284.986)"/></g></g><g transform="translate(53.938 79.593)"><g transform="translate(1.918 0.367)"><g transform="translate(0 0)"><rect class="a" width="12.645" height="12.645" rx="2.082" transform="translate(2.377 0) rotate(10.836)"/></g></g><g class="c" transform="translate(1.918 0.367)"><g transform="translate(0 0)"><rect width="12.645" height="12.645" rx="2.082" transform="translate(2.377 0) rotate(10.836)"/></g></g><g transform="translate(0 0)"><g transform="translate(0 0)"><rect class="e" width="12.645" height="12.645" rx="2.082" transform="translate(2.377 0) rotate(10.835)"/></g></g><g transform="translate(5.577 4.777)"><path class="f" d="M407.884,5292.14a1.812,1.812,0,0,1-2.29,1.348c-1.426-.273-2.143-1.338-1.823-3.01a2.565,2.565,0,0,1,3.174-2.281,2.834,2.834,0,0,1,1.373.631l-.612.795a1.741,1.741,0,0,0-.919-.445,1.4,1.4,0,0,0-1.742,1.224,1.777,1.777,0,0,1,1.366-.215A1.672,1.672,0,0,1,407.884,5292.14Zm-1.173-.164a.8.8,0,0,0-.731-.945.825.825,0,0,0-1.043.606c-.085.444.186.833.762.944A.788.788,0,0,0,406.711,5291.976Z" transform="translate(-403.696 -5288.135)"/></g></g><g transform="translate(71.892 83.03)"><g transform="translate(1.918 0.367)"><g transform="translate(0 0)"><rect class="a" width="12.645" height="12.645" rx="2.082" transform="translate(2.377 0) rotate(10.835)"/></g></g><g class="c" transform="translate(1.918 0.367)"><g transform="translate(0 0)"><rect width="12.645" height="12.645" rx="2.082" transform="translate(2.377 0) rotate(10.835)"/></g></g><g transform="translate(0 0)"><g transform="translate(0 0)"><rect class="e" width="12.645" height="12.645" rx="2.082" transform="translate(2.377 0) rotate(10.835)"/></g></g><g transform="translate(4.906 4.927)"><g transform="translate(0 0.719)"><g transform="translate(0 0)"><rect class="f" width="5.647" height="0.483" transform="matrix(0.836, -0.549, 0.549, 0.836, 0, 3.1)"/></g></g><g transform="translate(0.707 0)"><g transform="translate(0)"><rect class="f" width="0.483" height="5.647" transform="translate(0 0.271) rotate(-34.17)"/></g></g></g></g><g transform="translate(15.211 90.888)"><g transform="translate(1.918 0.367)"><g transform="translate(0 0)"><rect class="a" width="12.645" height="12.645" rx="2.082" transform="translate(2.377 0) rotate(10.835)"/></g></g><g class="c" transform="translate(1.918 0.367)"><g transform="translate(0 0)"><rect width="12.645" height="12.645" rx="2.082" transform="translate(2.377 0) rotate(10.835)"/></g></g><g transform="translate(0 0)"><g transform="translate(0 0)"><rect class="e" width="12.645" height="12.645" rx="2.082" transform="translate(2.377 0) rotate(10.835)"/></g></g><g transform="translate(5.108 4.285)"><path class="f" d="M374.9,5298.1l-.148.777-2.764,4.032-1.3-.25,2.66-3.845-1.714-.328-.161.843-1.065-.2.349-1.819Z" transform="translate(-370.404 -5297.311)"/></g></g><g transform="translate(32.53 94.203)"><g transform="translate(1.918 0.367)"><g transform="translate(0 0)"><rect class="a" width="12.646" height="12.645" rx="2.082" transform="translate(2.377 0) rotate(10.836)"/></g></g><g class="c" transform="translate(1.918 0.367)"><g transform="translate(0 0)"><rect width="12.646" height="12.645" rx="2.082" transform="translate(2.377 0) rotate(10.836)"/></g></g><g transform="translate(0 0)"><g transform="translate(0 0)"><rect class="e" width="12.645" height="12.645" rx="2.082" transform="translate(2.377 0) rotate(10.836)"/></g></g><g transform="translate(5.407 4.682)"><path class="f" d="M389.76,5304.707c-.187.976-1.177,1.423-2.494,1.171s-2.056-1.029-1.87-2.005a1.344,1.344,0,0,1,1.018-1.071,1.215,1.215,0,0,1-.4-1.18c.174-.909,1.1-1.323,2.272-1.1,1.19.228,1.894.954,1.72,1.863a1.222,1.222,0,0,1-.81.948A1.337,1.337,0,0,1,389.76,5304.707Zm-1.206-.269c.087-.458-.236-.812-.835-.926s-1.015.1-1.1.556.227.816.818.929S388.466,5304.9,388.554,5304.438ZM387.2,5301.9c-.074.393.19.7.678.789s.86-.089.935-.48-.2-.714-.689-.807S387.277,5301.5,387.2,5301.9Z" transform="translate(-385.368 -5300.464)"/></g></g><g transform="translate(50.484 97.639)"><g transform="translate(1.918 0.367)"><g transform="translate(0 0)"><rect class="a" width="12.645" height="12.645" rx="2.082" transform="translate(2.377 0) rotate(10.836)"/></g></g><g class="c" transform="translate(1.918 0.367)"><g transform="translate(0 0)"><rect width="12.645" height="12.645" rx="2.082" transform="translate(2.377 0) rotate(10.836)"/></g></g><g transform="translate(0 0)"><g transform="translate(0 0)"><rect class="e" width="12.645" height="12.645" rx="2.082" transform="translate(2.377 0) rotate(10.836)"/></g></g><g transform="translate(5.288 4.633)"><path class="f" d="M405.057,5306.4a2.562,2.562,0,0,1-3.173,2.283,2.807,2.807,0,0,1-1.367-.63l.612-.8a1.688,1.688,0,0,0,.919.445,1.4,1.4,0,0,0,1.745-1.229,1.8,1.8,0,0,1-1.375.219,1.671,1.671,0,0,1-1.474-1.953,1.813,1.813,0,0,1,2.289-1.349C404.668,5303.663,405.377,5304.726,405.057,5306.4Zm-1.165-1.159a.805.805,0,0,0-.755-.94.787.787,0,0,0-1.012.6.8.8,0,0,0,.731.945A.817.817,0,0,0,403.891,5305.238Z" transform="translate(-400.517 -5303.341)"/></g></g><g transform="translate(68.438 101.075)"><g transform="translate(1.918 0.367)"><g transform="translate(0 0)"><rect class="a" width="12.645" height="12.645" rx="2.082" transform="translate(2.377 0) rotate(10.836)"/></g></g><g class="c" transform="translate(1.918 0.367)"><g transform="translate(0 0)"><rect width="12.645" height="12.645" rx="2.082" transform="translate(2.377 0) rotate(10.836)"/></g></g><g transform="translate(0 0)"><g transform="translate(0 0)"><rect class="e" width="12.645" height="12.645" rx="2.082" transform="translate(2.377 0) rotate(10.836)"/></g></g><g transform="translate(4.58 6.632)"><g transform="translate(0 0)"><g transform="translate(0)"><rect class="f" width="0.483" height="5.647" transform="translate(0 0.474) rotate(-79.169)"/></g></g></g></g><g transform="translate(47 115.843)"><g transform="translate(1.918 0.367)"><g transform="translate(0 0)"><rect class="a" width="12.645" height="12.645" rx="2.082" transform="translate(2.377 0) rotate(10.836)"/></g></g><g class="c" transform="translate(1.918 0.367)"><g transform="translate(0 0)"><rect width="12.645" height="12.645" rx="2.082" transform="translate(2.377 0) rotate(10.836)"/></g></g><g transform="translate(0 0)"><g transform="translate(0 0)"><rect class="e" width="12.645" height="12.645" rx="2.082" transform="translate(2.377 0) rotate(10.836)"/></g></g></g><g transform="translate(64.954 119.279)"><g transform="translate(1.918 0.367)"><g transform="translate(0 0)"><rect class="g" width="12.646" height="12.645" rx="2.082" transform="translate(2.377 0) rotate(10.836)"/></g></g><g class="b" transform="translate(1.918 0.367)"><g transform="translate(0 0)"><rect width="12.646" height="12.645" rx="2.082" transform="translate(2.377 0) rotate(10.836)"/></g></g><g transform="translate(0 0)"><g transform="translate(0 0)"><rect class="g" width="12.645" height="12.645" rx="2.082" transform="translate(2.377 0) rotate(10.836)"/></g></g><g transform="translate(4.307 5.947)"><g transform="translate(0.404 0)"><g transform="translate(0)"><g transform="translate(0)"><rect class="f" width="0.482" height="5.647" transform="translate(0 0.474) rotate(-79.17)"/></g></g></g><g transform="translate(0 2.111)"><g transform="translate(0 0)"><g transform="translate(0)"><rect class="f" width="0.482" height="5.647" transform="translate(0 0.474) rotate(-79.17)"/></g></g></g></g></g><g transform="translate(11.045 108.808)"><g transform="translate(0 0)"><path class="e" d="M2.5,0H28.023a2.5,2.5,0,0,1,2.5,2.5v7.966a2.5,2.5,0,0,1-2.5,2.5H2.5a2.5,2.5,0,0,1-2.5-2.5V2.5A2.5,2.5,0,0,1,2.5,0Z" transform="translate(2.438 0) rotate(10.836)"/></g></g><g transform="translate(26.085 115.286)"><path class="f" d="M375.377,5316.689c.327-1.708,1.46-2.5,2.73-2.252s2.033,1.394,1.707,3.1-1.452,2.5-2.732,2.253S375.051,5318.4,375.377,5316.689Zm3.232.62c.225-1.176-.1-1.744-.695-1.858s-1.1.3-1.323,1.471.1,1.743.686,1.856S378.384,5318.483,378.609,5317.309Z" transform="translate(-375.302 -5314.394)"/></g><g transform="translate(51.58 120.428)"><g transform="translate(2.011 0)"><g transform="translate(0)"><rect class="f" width="5.647" height="0.482" transform="translate(0 5.53) rotate(-78.31)"/></g></g><g transform="translate(0 2.046)"><g transform="translate(0 0)"><rect class="f" width="0.482" height="5.647" transform="translate(0 0.474) rotate(-79.167)"/></g></g></g><g transform="translate(54.305 33.801)"><path class="e" d="M401.647,5245.626l-1.481,7.737-.365-.07,1.416-7.4-1.946-.372.066-.342Z" transform="translate(-399.271 -5245.184)"/><g transform="translate(2.774 1.132)"><path class="e" d="M406.932,5254.215l-.066.342-5.239-1,.051-.267,3.956-2.7c1.133-.769,1.44-1.294,1.56-1.924.2-1.029-.394-1.83-1.744-2.088a2.91,2.91,0,0,0-2.5.485l-.207-.292a3.328,3.328,0,0,1,2.783-.533c1.482.283,2.275,1.225,2.036,2.474-.139.73-.494,1.327-1.706,2.15l-3.6,2.46Z" transform="translate(-401.627 -5246.146)"/></g><g transform="translate(8.862 1.978)"><path class="e" d="M412.308,5253.423c-.246,1.282-1.327,2.016-3.028,1.69a3.552,3.552,0,0,1-2.482-1.588l.25-.227a3.265,3.265,0,0,0,2.286,1.469c1.481.284,2.395-.3,2.609-1.415s-.4-1.99-2.036-2.3l-.431-.083.051-.265,3.012-2.678-4.268-.818.066-.343,4.754.911-.052.265-3.023,2.688C411.829,5251.072,412.555,5252.129,412.308,5253.423Z" transform="translate(-406.798 -5246.864)"/></g><g transform="translate(15.503 3.975)"><path class="e" d="M418.929,5254.49l-1.68-.322-.427,2.234-.365-.07.427-2.233-4.444-.852.051-.264,5.283-4.423.431.084-5.213,4.366,3.957.756.377-1.968.365.07-.377,1.967,1.681.322Z" transform="translate(-412.439 -5248.56)"/></g><g transform="translate(22.328 11.711)"><path class="e" d="M419.35,5255.572a2.288,2.288,0,0,1-.145.4l-.682,1.406-.287-.055.635-1.461a.374.374,0,0,1-.251-.426.368.368,0,0,1,.434-.294A.376.376,0,0,1,419.35,5255.572Z" transform="translate(-418.236 -5255.13)"/></g><g transform="translate(24.789 5.752)"><path class="e" d="M426.816,5256l-1.68-.323-.427,2.233-.365-.07.427-2.233-4.445-.85.051-.265,5.282-4.422.431.082-5.213,4.367,3.958.757.377-1.967.365.07-.377,1.968,1.68.322Z" transform="translate(-420.326 -5250.069)"/></g><g transform="translate(31.49 6.436)"><path class="e" d="M431.547,5257.041c-.241,1.259-1.3,2.065-3.059,1.729a3.551,3.551,0,0,1-2.47-1.584l.26-.226a3.236,3.236,0,0,0,2.275,1.468c1.515.29,2.408-.365,2.618-1.458.228-1.2-.345-2.039-2.556-2.461l-1.5-.289,1.108-3.569,3.991.762-.066.344-3.682-.7-.9,2.9,1.194.229C431.124,5254.632,431.808,5255.668,431.547,5257.041Z" transform="translate(-426.018 -5250.65)"/></g></g></g><g transform="translate(-1591.959 -43.728)"><g transform="translate(2161.65 4718.601)"><g transform="translate(0 24.043)"><path class="h" d="M2130.132,4712.521c-.32.96,10.883,43.531,10.883,43.531l7.682-1.6-10.563-41.93Z" transform="translate(-2130.125 -4712.521)"/></g><g transform="translate(44.179 17.961)"><path class="i" d="M2186.085,4706.933l-15.364,49.614h8.962l14.725-46.092Z" transform="translate(-2170.72 -4706.933)"/></g><g transform="translate(56.022 10.279)"><path class="h" d="M2199.208,4699.873l-17.6,57.3h8.963l16.965-53.775Z" transform="translate(-2181.603 -4699.873)"/></g><g transform="translate(5.448 64.055)"><path class="j" d="M2135.131,4749.287l8.962,31.05h45.133l8.322-31.05Z" transform="translate(-2135.131 -4749.287)"/></g><g transform="translate(6.312)"><path class="j" d="M2158.342,4754.482a1.636,1.636,0,0,1-.1-.319l-.24-.949c-.206-.874-.5-2.1-.866-3.668-.739-3.229-1.8-7.847-3.1-13.56-2.58-11.52-6.147-27.44-10.129-45.215l.276.222h-7.9l.275-.345c4.008,17.791,7.6,33.726,10.192,45.254,1.264,5.729,2.285,10.359,3,13.6.335,1.576.6,2.811.785,3.688.078.4.142.716.191.961a1.6,1.6,0,0,1,.046.332,1.509,1.509,0,0,1-.1-.319c-.062-.243-.142-.556-.243-.949-.211-.874-.509-2.1-.886-3.667-.755-3.229-1.836-7.846-3.171-13.558L2136,4690.773l-.078-.346h8.485l.049.222c3.915,17.789,7.42,33.724,9.958,45.252,1.233,5.729,2.231,10.359,2.928,13.6.328,1.576.584,2.811.766,3.688l.186.961A1.492,1.492,0,0,1,2158.342,4754.482Z" transform="translate(-2135.925 -4690.427)"/></g></g><g transform="translate(1772.959 4814.718)"><g transform="translate(0 0)"><path class="e" d="M2234.481,4779.034c0,.155-103.324.283-230.75.283-127.471,0-230.772-.128-230.772-.283s103.3-.283,230.772-.283C2131.157,4778.75,2234.481,4778.877,2234.481,4779.034Z" transform="translate(-1772.959 -4778.75)"/></g></g><g transform="translate(2132.176 4517.545)"><g transform="translate(0)"><path class="e" d="M2175.638,4506.1a4.3,4.3,0,0,0-.772-.236,5.382,5.382,0,0,0-2.36.034,8.532,8.532,0,0,0-3.431,1.761,18.273,18.273,0,0,0-3.482,4.058c-2.226,3.415-3.984,8.138-6.03,13.646a200.238,200.238,0,0,0-6.138,19.186l-.006.024-.009.015a5.636,5.636,0,0,1-1.268,1.572,2.5,2.5,0,0,1-1.979.63,3.648,3.648,0,0,1-1.822-1.051c-.509-.47-.985-.973-1.465-1.478a33.963,33.963,0,0,0-3.016-2.942,5.559,5.559,0,0,0-3.814-1.558,5.153,5.153,0,0,0-3.5,2.33,8.765,8.765,0,0,0-1.2,4.322c-.186,3.114.713,6.253,1.259,9.513q.909,4.879,1.863,10,.477,2.558.963,5.173.242,1.307.488,2.628a3.41,3.41,0,0,1-.311,2.787,1.374,1.374,0,0,1-1.453.494,3.656,3.656,0,0,1-1.286-.671l-2.209-1.652a48.9,48.9,0,0,0-4.611-3.1,17.5,17.5,0,0,0-5.157-2.146,6.073,6.073,0,0,0-2.745.017,4.061,4.061,0,0,0-2.237,1.5,9.228,9.228,0,0,0-1.466,5.437,30.506,30.506,0,0,0,.571,5.9,75.162,75.162,0,0,0,3.318,11.729,15.537,15.537,0,0,1,.95,3.026,2.2,2.2,0,0,1-.4,1.679,1.99,1.99,0,0,1-.315.316,1.051,1.051,0,0,1-.423.25,1.305,1.305,0,0,1-.948-.209,16.256,16.256,0,0,1-2.517-2l-2.332-2.162a34.413,34.413,0,0,0-4.949-3.986,10.413,10.413,0,0,0-2.855-1.3,3.535,3.535,0,0,0-2.909.363,4.211,4.211,0,0,0-1.647,2.52,12.824,12.824,0,0,0-.388,3.184,26.908,26.908,0,0,0,.82,6.5,56.442,56.442,0,0,0,4.725,12.509,94.611,94.611,0,0,0,7.043,11.7,66.537,66.537,0,0,0,4.241,5.471q2.2,2.7,4.417,5.415l.051.063-.26-.1,6.918-1.005a63.889,63.889,0,0,0,6.826-1.176,94.875,94.875,0,0,0,13.088-3.926,56.542,56.542,0,0,0,11.915-6.081,26.882,26.882,0,0,0,4.98-4.261,12.893,12.893,0,0,0,1.856-2.618,4.229,4.229,0,0,0,.479-2.974,3.532,3.532,0,0,0-1.909-2.225,10.331,10.331,0,0,0-2.988-.959,34.751,34.751,0,0,0-6.345-.379l-3.18.032a16.25,16.25,0,0,1-3.21-.209,1.3,1.3,0,0,1-.842-.485,1.04,1.04,0,0,1-.144-.468,1.943,1.943,0,0,1-.021-.447,2.207,2.207,0,0,1,.832-1.513,15.49,15.49,0,0,1,2.74-1.6,75.4,75.4,0,0,0,10.344-6.455,30.438,30.438,0,0,0,4.388-3.984,9.224,9.224,0,0,0,2.568-5.014,4.064,4.064,0,0,0-.651-2.613,6.078,6.078,0,0,0-2.023-1.858,17.651,17.651,0,0,0-5.262-1.876,49.545,49.545,0,0,0-5.5-.8l-2.746-.261a3.666,3.666,0,0,1-1.4-.374,1.374,1.374,0,0,1-.733-1.35,3.432,3.432,0,0,1,1.65-2.266q1.07-.811,2.129-1.617l4.19-3.18,8.1-6.148c2.6-2.045,5.372-3.763,7.327-6.194a8.755,8.755,0,0,0,2.012-4.01,5.148,5.148,0,0,0-1.026-4.073,3.749,3.749,0,0,0-1.781-1.064,8.6,8.6,0,0,0-2.091-.343,33.475,33.475,0,0,0-4.209.15c-.694.052-1.385.1-2.077.109a3.664,3.664,0,0,1-2.055-.447,2.5,2.5,0,0,1-1.038-1.8,5.6,5.6,0,0,1,.116-2.015l0-.017.012-.023a199.77,199.77,0,0,0,8.344-18.295c2.185-5.442,4.055-10.112,4.729-14.123a18.478,18.478,0,0,0,.216-5.334,8.65,8.65,0,0,0-1.267-3.637,5.2,5.2,0,0,0-1.685-1.645,3.937,3.937,0,0,0-.725-.351,2.871,2.871,0,0,1,.748.31,5.116,5.116,0,0,1,1.74,1.632,8.668,8.668,0,0,1,1.327,3.671,18.421,18.421,0,0,1-.172,5.383c-.652,4.045-2.5,8.741-4.665,14.191a196.865,196.865,0,0,1-8.292,18.363l.015-.039a5.267,5.267,0,0,0-.1,1.876,2.149,2.149,0,0,0,.889,1.553,3.3,3.3,0,0,0,1.856.382c.674-.009,1.359-.06,2.052-.114a33.78,33.78,0,0,1,4.258-.163,8.953,8.953,0,0,1,2.185.355,4.133,4.133,0,0,1,1.955,1.167,5.532,5.532,0,0,1,1.135,4.4,9.147,9.147,0,0,1-2.089,4.206c-2.009,2.5-4.813,4.243-7.391,6.287l-8.081,6.157-4.181,3.186q-1.058.8-2.125,1.619a4.942,4.942,0,0,0-.967.851,2.169,2.169,0,0,0-.5,1.088.887.887,0,0,0,.495.893,3.19,3.19,0,0,0,1.225.312l2.739.256a50.193,50.193,0,0,1,5.557.8,18,18,0,0,1,5.417,1.928,6.55,6.55,0,0,1,2.188,2.012,4.57,4.57,0,0,1,.734,2.924,9.684,9.684,0,0,1-2.686,5.313,31.014,31.014,0,0,1-4.459,4.059,75.683,75.683,0,0,1-10.41,6.511,15.414,15.414,0,0,0-2.634,1.53,1.673,1.673,0,0,0-.652,1.147,1.512,1.512,0,0,0,.015.336c.015.086.045.291.078.273a.914.914,0,0,0,.506.234,16.008,16.008,0,0,0,3.082.192l3.177-.034a35.136,35.136,0,0,1,6.448.382,10.905,10.905,0,0,1,3.151,1.014,4.087,4.087,0,0,1,2.183,2.577,4.774,4.774,0,0,1-.52,3.353,13.364,13.364,0,0,1-1.936,2.739,27.467,27.467,0,0,1-5.078,4.351,57.147,57.147,0,0,1-12.029,6.148,95.164,95.164,0,0,1-13.171,3.953,64.063,64.063,0,0,1-6.852,1.182l-6.929,1.008-.159.024-.1-.125-.05-.063q-2.221-2.719-4.425-5.422a67.567,67.567,0,0,1-4.256-5.492,95.227,95.227,0,0,1-7.086-11.78,57.054,57.054,0,0,1-4.766-12.634,27.343,27.343,0,0,1-.83-6.632,13.29,13.29,0,0,1,.41-3.328,4.763,4.763,0,0,1,1.872-2.829,4.1,4.1,0,0,1,3.348-.437,10.838,10.838,0,0,1,3.012,1.369,35.14,35.14,0,0,1,5.029,4.05l2.327,2.162a15.993,15.993,0,0,0,2.411,1.929.931.931,0,0,0,.533.169c.012.034.172-.094.24-.15a1.4,1.4,0,0,0,.237-.239,1.667,1.667,0,0,0,.291-1.286,15.377,15.377,0,0,0-.919-2.9,75.852,75.852,0,0,1-3.329-11.818,31,31,0,0,1-.571-6,9.684,9.684,0,0,1,1.58-5.738,4.562,4.562,0,0,1,2.5-1.677,6.582,6.582,0,0,1,2.973-.022,18.065,18.065,0,0,1,5.307,2.212,49.556,49.556,0,0,1,4.653,3.143l2.2,1.651a3.233,3.233,0,0,0,1.116.6.883.883,0,0,0,.969-.319,2.155,2.155,0,0,0,.366-1.139,4.923,4.923,0,0,0-.141-1.279q-.245-1.321-.485-2.627-.482-2.611-.952-5.168-.942-5.114-1.842-9.994c-.535-3.246-1.442-6.418-1.247-9.623a9.173,9.173,0,0,1,1.279-4.521,5.54,5.54,0,0,1,3.8-2.5,4.135,4.135,0,0,1,2.233.448,9.03,9.03,0,0,1,1.858,1.205,33.76,33.76,0,0,1,3.044,2.985c.477.5.949,1,1.442,1.465a3.333,3.333,0,0,0,1.631.965,2.15,2.15,0,0,0,1.7-.55,5.268,5.268,0,0,0,1.186-1.458l-.015.039a197.774,197.774,0,0,1,6.222-19.2c2.07-5.5,3.859-10.23,6.126-13.653a18.208,18.208,0,0,1,3.548-4.067,8.557,8.557,0,0,1,3.5-1.744,5.28,5.28,0,0,1,2.391.012A3,3,0,0,1,2175.638,4506.1Z" transform="translate(-2103.042 -4505.68)"/></g><g transform="translate(15.174 15.229)"><path class="e" d="M2168.7,4519.672a1.794,1.794,0,0,1-.109.355l-.375,1.023c-.355.928-.855,2.239-1.493,3.913-1.322,3.427-3.209,8.328-5.539,14.372-4.636,12.182-11.022,28.958-18.073,47.488-7.035,18.561-13.468,35.34-18.235,47.44-2.381,6.052-4.33,10.94-5.7,14.308l-1.593,3.872-.428,1a1.835,1.835,0,0,1-.163.334,1.71,1.71,0,0,1,.11-.354c.1-.26.218-.6.374-1.024.355-.927.856-2.239,1.494-3.912,1.32-3.427,3.209-8.328,5.537-14.371,4.637-12.183,11.023-28.96,18.078-47.5,7.032-18.555,13.464-35.332,18.231-47.433,2.381-6.051,4.33-10.94,5.706-14.307l1.592-3.873.427-1A1.96,1.96,0,0,1,2168.7,4519.672Z" transform="translate(-2116.985 -4519.672)"/></g><g transform="translate(48.449 52.777)"><path class="e" d="M2166.586,4554.182a19.073,19.073,0,0,1-2.722,1.617l-6.666,3.708c-2.606,1.449-4.979,2.74-6.729,3.616a14.566,14.566,0,0,1-2.906,1.267,22.2,22.2,0,0,1,2.717-1.621l6.643-3.757c2.606-1.449,5-2.709,6.755-3.568A16.107,16.107,0,0,1,2166.586,4554.182Z" transform="translate(-2147.562 -4554.175)"/></g><g transform="translate(36.509 40.021)"><path class="e" d="M2147.647,4564.766c-.141.07-2.728-4.869-5.78-11.029s-5.412-11.213-5.271-11.282,2.727,4.867,5.779,11.03S2147.787,4564.7,2147.647,4564.766Z" transform="translate(-2136.59 -4542.455)"/></g><g transform="translate(23.823 74.505)"><path class="e" d="M2139.16,4590.955a16.583,16.583,0,0,1-2.392-2.18c-1.412-1.415-3.309-3.422-5.276-5.755s-3.645-4.528-4.8-6.157a16.417,16.417,0,0,1-1.753-2.721,20.694,20.694,0,0,1,2.073,2.48c1.236,1.563,2.95,3.714,4.916,6.031s3.8,4.365,5.133,5.847A20.186,20.186,0,0,1,2139.16,4590.955Z" transform="translate(-2124.932 -4574.141)"/></g><g transform="translate(38.071 86.626)"><path class="e" d="M2157.912,4585.3a15.75,15.75,0,0,1-2.869.839c-1.789.449-4.268,1.03-7.012,1.638s-5.24,1.127-7.05,1.476a1.5,1.5,0,1,1-.087-.392c1.788-.449,4.267-1.03,7.014-1.638s5.238-1.127,7.049-1.476A15.3,15.3,0,0,1,2157.912,4585.3Z" transform="translate(-2138.025 -4585.28)"/></g><g transform="translate(27.266 113.286)"><path class="e" d="M2153.638,4609.791a25.585,25.585,0,0,1-3.7.988c-2.3.538-5.487,1.244-9.012,1.99s-6.727,1.39-9.049,1.828a25.627,25.627,0,0,1-3.782.595,25.43,25.43,0,0,1,3.7-.987c2.3-.54,5.487-1.245,9.015-1.99s6.724-1.391,9.047-1.828A25.909,25.909,0,0,1,2153.638,4609.791Z" transform="translate(-2128.096 -4609.776)"/></g><g transform="translate(10.373 96.579)"><path class="e" d="M2130.041,4616.245a4.2,4.2,0,0,1-.817-.744c-.5-.5-1.2-1.247-2.06-2.18-1.706-1.872-4.008-4.511-6.422-7.532s-4.494-5.839-5.942-7.915c-.726-1.04-1.3-1.891-1.677-2.488a.555.555,0,1,1,.179-.128l1.822,2.379c1.529,2.013,3.65,4.788,6.062,7.8s4.653,5.685,6.281,7.621A32.343,32.343,0,0,1,2130.041,4616.245Z" transform="translate(-2112.573 -4594.425)"/></g></g><g transform="translate(2129.146 4576.73)"><path class="g" d="M2120.242,4692.176c-18.9-15.229-21.635-41.276-19.261-64.359.395-3.854.25-7.954,2.32-11.217s6.516-5.284,9.862-3.42c2.775,1.547,3.8,4.97,5.211,7.839a22.646,22.646,0,0,0,8.464,9.271c2.372,1.443,5.361,2.434,7.88,1.263,3.458-1.611,4.166-6.185,4.406-10.029q.669-10.745,1.34-21.486c.239-3.841.5-7.765,1.941-11.329s4.317-6.77,8.041-7.542,8.1,1.643,8.613,5.458c.214,1.586-.217,3.188-.219,4.79s.619,3.417,2.1,3.965c1.5.555,3.115-.429,4.34-1.473,4.23-3.606,7.263-8.42,10.119-13.215s5.644-9.715,9.532-13.7,9.094-6.995,14.617-6.928,11.15,3.864,12.17,9.359c1.023,5.511-2.514,10.788-6.252,14.937a85.988,85.988,0,0,1-19.02,15.792c-1.27.777-2.645,1.615-3.206,3.005-1.011,2.5,1.242,5.214,3.712,6.229,2.8,1.149,5.925,1.066,8.9,1.624s6.125,2.1,7.064,5.01c1.3,4.035-2.261,7.925-5.677,10.4a73.7,73.7,0,0,1-22.6,11.058c-2.9.84-5.932,1.544-8.347,3.371s-4.026,5.188-2.836,7.988,4.665,3.911,7.663,3.565,5.756-1.771,8.649-2.642c5.416-1.63,12.207-.8,15.276,4,2.017,3.15,1.925,7.34.556,10.837a28.066,28.066,0,0,1-6.474,9.094c-9.142,9.346-20.52,16.593-33.058,20s-23.962,3.775-35.826-1.509" transform="translate(-2100.257 -4560.063)"/><g class="k"><path class="g" d="M2120.242,4692.176c-18.9-15.229-21.635-41.276-19.261-64.359.395-3.854.25-7.954,2.32-11.217s6.516-5.284,9.862-3.42c2.775,1.547,3.8,4.97,5.211,7.839a22.646,22.646,0,0,0,8.464,9.271c2.372,1.443,5.361,2.434,7.88,1.263,3.458-1.611,4.166-6.185,4.406-10.029q.669-10.745,1.34-21.486c.239-3.841.5-7.765,1.941-11.329s4.317-6.77,8.041-7.542,8.1,1.643,8.613,5.458c.214,1.586-.217,3.188-.219,4.79s.619,3.417,2.1,3.965c1.5.555,3.115-.429,4.34-1.473,4.23-3.606,7.263-8.42,10.119-13.215s5.644-9.715,9.532-13.7,9.094-6.995,14.617-6.928,11.15,3.864,12.17,9.359c1.023,5.511-2.514,10.788-6.252,14.937a85.988,85.988,0,0,1-19.02,15.792c-1.27.777-2.645,1.615-3.206,3.005-1.011,2.5,1.242,5.214,3.712,6.229,2.8,1.149,5.925,1.066,8.9,1.624s6.125,2.1,7.064,5.01c1.3,4.035-2.261,7.925-5.677,10.4a73.7,73.7,0,0,1-22.6,11.058c-2.9.84-5.932,1.544-8.347,3.371s-4.026,5.188-2.836,7.988,4.665,3.911,7.663,3.565,5.756-1.771,8.649-2.642c5.416-1.63,12.207-.8,15.276,4,2.017,3.15,1.925,7.34.556,10.837a28.066,28.066,0,0,1-6.474,9.094c-9.142,9.346-20.52,16.593-33.058,20s-23.962,3.775-35.826-1.509" transform="translate(-2100.257 -4560.063)"/></g><g transform="translate(18.505 3.711)"><path class="e" d="M2117.261,4709.008a169.027,169.027,0,0,1,8.448-31.229,345.1,345.1,0,0,1,16.2-36.119l4.734-9.249c1.56-3.032,3.108-6.039,4.8-8.888a172.408,172.408,0,0,1,10.68-15.8c3.64-4.864,7.272-9.345,10.7-13.511s6.713-7.978,9.847-11.331a136.707,136.707,0,0,1,15.954-14.7c2.012-1.583,3.613-2.759,4.709-3.54l1.252-.884a.262.262,0,1,1,.042.061l-1.21.938c-1.067.821-2.64,2.031-4.624,3.644a144.667,144.667,0,0,0-15.758,14.83c-3.1,3.364-6.349,7.191-9.76,11.363s-7.014,8.668-10.631,13.53a174.23,174.23,0,0,0-10.6,15.765c-1.683,2.836-3.213,5.818-4.776,8.858s-3.132,6.125-4.73,9.246a353.618,353.618,0,0,0-16.223,36.025,171.935,171.935,0,0,0-8.564,31.079" transform="translate(-2117.261 -4563.473)"/></g><g transform="translate(50.169 21.104)"><path class="e" d="M2149.087,4622.1a7.758,7.758,0,0,1-.263-1.665c-.128-1.075-.263-2.637-.4-4.568-.281-3.861-.486-9.208-.691-15.1s-.485-11.227-.823-15.075c-.165-1.923-.312-3.48-.429-4.553a7.764,7.764,0,0,1-.1-1.682,7.572,7.572,0,0,1,.372,1.642c.2,1.066.426,2.617.653,4.541.469,3.848.83,9.195,1.035,15.1.187,5.819.354,11.083.484,15.1.07,1.817.129,3.349.177,4.577A7.729,7.729,0,0,1,2149.087,4622.1Z" transform="translate(-2146.357 -4579.456)"/></g><g transform="translate(52.899 57.646)"><path class="e" d="M2198.885,4613.295a10.721,10.721,0,0,1-1.986.1c-1.275.027-3.12.054-5.4.161-4.556.177-10.842.645-17.755,1.461-6.914.832-13.137,1.85-17.619,2.716-2.244.417-4.051.8-5.3,1.063a10.521,10.521,0,0,1-1.958.34,10.634,10.634,0,0,1,1.9-.612c1.234-.342,3.03-.805,5.267-1.289,4.468-1,10.7-2.1,17.635-2.931a174.934,174.934,0,0,1,17.824-1.255c2.287-.042,4.137.008,5.415.068A10.554,10.554,0,0,1,2198.885,4613.295Z" transform="translate(-2148.866 -4613.034)"/></g><g transform="translate(7.079 52.371)"><path class="e" d="M2127.3,4672.968a2.578,2.578,0,0,1-.3-.625c-.2-.5-.433-1.108-.722-1.844-.62-1.6-1.456-3.951-2.451-6.862-1.994-5.82-4.5-13.949-7.136-22.954s-5.065-17.148-6.935-23c-.918-2.848-1.674-5.188-2.235-6.928-.24-.756-.437-1.379-.6-1.891a2.482,2.482,0,0,1-.163-.675,2.676,2.676,0,0,1,.3.627c.2.5.433,1.106.723,1.844.618,1.6,1.455,3.949,2.45,6.859,1.995,5.821,4.5,13.949,7.138,22.958s5.064,17.146,6.933,23c.92,2.846,1.674,5.188,2.236,6.927.239.754.437,1.379.6,1.889A2.592,2.592,0,0,1,2127.3,4672.968Z" transform="translate(-2106.762 -4608.188)"/></g><g transform="translate(27.622 100.494)"><path class="e" d="M2192.715,4652.415a2.616,2.616,0,0,1-.669.225c-.526.136-1.169.3-1.95.508l-7.183,1.794c-6.066,1.519-14.419,3.711-23.646,6.144s-17.613,4.553-23.711,5.946c-3.048.7-5.521,1.235-7.237,1.572-.793.151-1.447.275-1.98.378a2.638,2.638,0,0,1-.7.082,2.71,2.71,0,0,1,.669-.225l1.95-.506,7.183-1.8c6.066-1.516,14.42-3.709,23.65-6.144s17.607-4.552,23.706-5.943c3.049-.7,5.522-1.237,7.239-1.575.793-.151,1.446-.276,1.979-.375A2.609,2.609,0,0,1,2192.715,4652.415Z" transform="translate(-2125.639 -4652.407)"/></g></g><g transform="translate(1889.614 4379.727)"><g transform="translate(0 28.7)"><rect class="a" width="263.912" height="361.634"/></g><g transform="translate(21.975 43.316)"><path class="j" d="M2131.851,4744.352H1900.345V4418.843h231.505v325.509Z" transform="translate(-1900.345 -4418.843)"/></g><g transform="translate(20.404 39.012)"><path class="h" d="M2128.321,4738.662H1898.9V4414.887h229.419v323.775Z" transform="translate(-1898.902 -4414.887)"/></g><g transform="translate(15.838 39.549)"><g transform="translate(0.283 0.284)"><path class="d" d="M2104.016,4713.4l-26.424,21.517H1894.966V4415.641h231.506v279.554Z" transform="translate(-1894.966 -4415.641)"/></g><path class="e" d="M2104.039,4713.421s.468-.4,1.41-1.175,2.362-1.93,4.233-3.459l16.755-13.638-.033.069c-.027-45.92-.088-147.957-.167-279.553l.257.255c-68.938.009-147.048.018-229.485.027h-2.021l.283-.282c-.021,120.03-.04,230.762-.055,319.273l-.227-.226,182.626.128-.06.023,19.843-16.1q3.311-2.675,4.973-4.018c1.107-.89,1.669-1.326,1.669-1.326s-.541.462-1.637,1.366l-4.94,4.056q-6.606,5.4-19.785,16.169l-.026.022h-.035c-35.222.024-99.262.07-182.626.13h-.226v-.228c-.015-88.511-.035-199.243-.056-319.273v-.284h2.3l229.485.028h.255v.256c-.078,131.6-.138,233.633-.165,279.553v.045l-.033.026c-7.416,5.984-13.037,10.524-16.81,13.569l-4.262,3.425C2104.527,4713.046,2104.039,4713.421,2104.039,4713.421Z" transform="translate(-1894.706 -4415.38)"/></g><g transform="translate(84.582 17.521)"><path class="g" d="M14.757,0H80.594A14.154,14.154,0,0,1,94.749,14.154V32.481a0,0,0,0,1,0,0H0a0,0,0,0,1,0,0V14.757A14.757,14.757,0,0,1,14.757,0Z"/></g><g transform="translate(104.324 0)"><path class="g" d="M1979.479,4396.559l-3.464-17.521h54.554l-3.031,17.521Z" transform="translate(-1976.016 -4379.039)"/></g><g transform="translate(40.334 90.699)"><path class="g" d="M1956.218,4501.385h-39v-39h39ZM1918.3,4500.3h36.826V4463.47H1918.3Z" transform="translate(-1917.216 -4462.382)"/><g transform="translate(55.557 9.135)"><path class="e" d="M2089.532,4471.061c0,.155-27.148.282-60.629.282s-60.636-.127-60.636-.282,27.143-.285,60.636-.285S2089.532,4470.9,2089.532,4471.061Z" transform="translate(-1968.267 -4470.776)"/></g><g transform="translate(55.557 17.241)"><path class="e" d="M2089.532,4478.508c0,.156-27.148.283-60.629.283s-60.636-.126-60.636-.283,27.143-.284,60.636-.284S2089.532,4478.351,2089.532,4478.508Z" transform="translate(-1968.267 -4478.224)"/></g><g transform="translate(55.557 25.345)"><path class="e" d="M2089.532,4485.954c0,.158-27.148.284-60.629.284s-60.636-.126-60.636-.284,27.143-.283,60.636-.283S2089.532,4485.8,2089.532,4485.954Z" transform="translate(-1968.267 -4485.671)"/></g><g transform="translate(55.557 33.449)"><path class="e" d="M2089.532,4493.4c0,.157-27.148.283-60.629.283s-60.636-.126-60.636-.283,27.143-.283,60.636-.283S2089.532,4493.246,2089.532,4493.4Z" transform="translate(-1968.267 -4493.118)"/></g></g><g transform="translate(40.334 150.807)"><path class="g" d="M1956.218,4556.618h-39v-39h39Zm-37.914-1.09h36.826V4518.7H1918.3Z" transform="translate(-1917.216 -4517.616)"/><g transform="translate(7.756 2.47)"><path class="g" d="M1924.343,4537.72l5.178-5.564,8.629,6.905,19.752-19.177,4.732,5.577-24.867,24.53Z" transform="translate(-1924.343 -4519.885)"/></g><g transform="translate(55.557 9.135)"><path class="e" d="M2089.532,4526.293c0,.157-27.148.283-60.629.283s-60.636-.126-60.636-.283,27.143-.283,60.636-.283S2089.532,4526.136,2089.532,4526.293Z" transform="translate(-1968.267 -4526.01)"/></g><g transform="translate(55.557 17.24)"><path class="e" d="M2089.532,4533.74c0,.156-27.148.285-60.629.285s-60.636-.128-60.636-.285,27.143-.283,60.636-.283S2089.532,4533.583,2089.532,4533.74Z" transform="translate(-1968.267 -4533.457)"/></g><g transform="translate(55.557 25.344)"><path class="e" d="M2089.532,4541.188c0,.155-27.148.282-60.629.282s-60.636-.126-60.636-.282,27.143-.284,60.636-.284S2089.532,4541.031,2089.532,4541.188Z" transform="translate(-1968.267 -4540.903)"/></g><g transform="translate(55.557 33.449)"><path class="e" d="M2089.532,4548.636c0,.155-27.148.282-60.629.282s-60.636-.126-60.636-.282,27.143-.285,60.636-.285S2089.532,4548.478,2089.532,4548.636Z" transform="translate(-1968.267 -4548.351)"/></g></g><g transform="translate(40.334 208.973)"><path class="g" d="M1956.218,4610.065h-39v-39h39Zm-37.914-1.088h36.826v-36.826H1918.3Z" transform="translate(-1917.216 -4571.063)"/><g transform="translate(7.756 2.47)"><path class="g" d="M1924.343,4591.166l5.178-5.561,8.629,6.9,19.752-19.176,4.732,5.578-24.867,24.529Z" transform="translate(-1924.343 -4573.333)"/></g><g transform="translate(55.557 9.136)"><path class="e" d="M2089.532,4579.74c0,.156-27.148.284-60.629.284s-60.636-.128-60.636-.284,27.143-.282,60.636-.282S2089.532,4579.584,2089.532,4579.74Z" transform="translate(-1968.267 -4579.458)"/></g><g transform="translate(55.557 17.24)"><path class="e" d="M2089.532,4587.187c0,.157-27.148.284-60.629.284s-60.636-.127-60.636-.284,27.143-.283,60.636-.283S2089.532,4587.032,2089.532,4587.187Z" transform="translate(-1968.267 -4586.904)"/></g><g transform="translate(55.557 25.345)"><path class="e" d="M2089.532,4594.636c0,.156-27.148.283-60.629.283s-60.636-.126-60.636-.283,27.143-.284,60.636-.284S2089.532,4594.48,2089.532,4594.636Z" transform="translate(-1968.267 -4594.352)"/></g><g transform="translate(55.557 33.45)"><path class="e" d="M2089.532,4602.083c0,.158-27.148.284-60.629.284s-60.636-.126-60.636-.284,27.143-.283,60.636-.283S2089.532,4601.927,2089.532,4602.083Z" transform="translate(-1968.267 -4601.8)"/></g></g><g transform="translate(40.334 265.134)"><path class="g" d="M1956.218,4661.669h-39v-39h39Zm-37.914-1.088h36.826v-36.825H1918.3Z" transform="translate(-1917.216 -4622.668)"/><g transform="translate(7.756 2.47)"><path class="g" d="M1924.343,4642.772l5.178-5.561,8.629,6.9,19.752-19.177,4.732,5.578-24.867,24.53Z" transform="translate(-1924.343 -4624.938)"/></g><g transform="translate(55.557 9.135)"><path class="e" d="M2089.532,4631.347c0,.156-27.148.283-60.629.283s-60.636-.127-60.636-.283,27.143-.285,60.636-.285S2089.532,4631.19,2089.532,4631.347Z" transform="translate(-1968.267 -4631.062)"/></g><g transform="translate(55.557 17.239)"><path class="e" d="M2089.532,4638.794c0,.156-27.148.281-60.629.281s-60.636-.125-60.636-.281,27.143-.285,60.636-.285S2089.532,4638.638,2089.532,4638.794Z" transform="translate(-1968.267 -4638.509)"/></g><g transform="translate(55.557 25.345)"><path class="e" d="M2089.532,4646.241c0,.156-27.148.284-60.629.284s-60.636-.128-60.636-.284,27.143-.283,60.636-.283S2089.532,4646.083,2089.532,4646.241Z" transform="translate(-1968.267 -4645.958)"/></g><g transform="translate(55.557 33.449)"><path class="e" d="M2089.532,4653.688c0,.156-27.148.284-60.629.284s-60.636-.128-60.636-.284,27.143-.284,60.636-.284S2089.532,4653.532,2089.532,4653.688Z" transform="translate(-1968.267 -4653.404)"/></g></g><g transform="translate(180.625 306.247)"><path class="j" d="M2071.509,4660.448l-25.38,52.563h18.121Z" transform="translate(-2046.129 -4660.448)"/></g><g transform="translate(198.746 306.195)"><g transform="translate(0.001 0.348)"><path class="d" d="M2062.78,4713.283l7.259-52.564,41.62,12.845Z" transform="translate(-2062.78 -4660.719)"/></g><path class="e" d="M2062.78,4713.312c1.022-.841,5.514-4.541,14-11.52l34.709-28.414.094.478c-5.162-1.592-10.547-3.251-16.069-4.952-9.008-2.788-17.649-5.459-25.548-7.9l.343-.219c-2.175,15.269-4.039,28.347-5.363,37.644-1.313,9.039-1.989,13.7-2.16,14.883a2.155,2.155,0,0,1,.023-.232l.092-.728q.133-1.022.374-2.863c.337-2.553.821-6.224,1.43-10.835,1.253-9.371,3.017-22.553,5.076-37.942l.042-.311.3.091c7.9,2.434,16.546,5.1,25.558,7.871,5.52,1.707,10.9,3.37,16.065,4.964l.5.154-.406.327-35.129,28.335-10.258,8.242-2.735,2.194c-.293.232-.524.417-.7.557A2.611,2.611,0,0,1,2062.78,4713.312Z" transform="translate(-2062.779 -4660.4)"/></g><g class="l" transform="translate(152.101 0)"><path class="g" d="M2022.925,4379.039l-3.008,17.521h3.746l3.031-17.521h-4.771" transform="translate(-2019.917 -4379.039)"/></g></g><g transform="translate(1833.19 4483.062)"><g transform="translate(26.642 8.746)"><g transform="translate(16.847 14.441)"><path class="m" d="M1876.517,4553.57h0a9.79,9.79,0,0,0,10.53-9.387c.205-5.329.384-10.716.384-10.716s8.075-.756,8.661-8.748.319-26.441.319-26.441h0a27.846,27.846,0,0,0-28.144,1.81l.5,28.126v15.132C1868.818,4548.421,1871.456,4553.181,1876.517,4553.57Z" transform="translate(-1868.267 -4495.298)"/></g><g transform="translate(12.696 7.74)"><path class="e" d="M1888.463,4515.505a4.1,4.1,0,0,0-5.46-1.192,4.644,4.644,0,0,0-1.547,5.807,6.117,6.117,0,0,0,3.921,2.965,3.07,3.07,0,0,1,2.4,3.3,10.234,10.234,0,0,1-2.805,5.565,14.753,14.753,0,0,1-9.251,4.383c-3.4.4-7.3-.307-9.283-3.1-1.441-2.036-1.545-4.7-1.6-7.191q-.183-8.836-.366-17.677a25.316,25.316,0,0,1,.4-6.342,8.512,8.512,0,0,1,3.345-5.245c1.944-1.28,4.407-1.389,6.622-2.1,2.767-.9,5.118-2.732,7.708-4.057s5.763-2.117,8.363-.812c1.866.937,3.118,2.8,4.932,3.83,2.585,1.47,6.1,1.137,7.357,4.936a6.439,6.439,0,0,1-.044,4.064c-1.752,5.17-8.156,7.255-12.767,5.021-.091.876.771,2.825-.15,5.592-.295.883-.4,2.231-1.782,2.256" transform="translate(-1864.453 -4489.14)"/></g><g transform="translate(1.08)"><path class="e" d="M1867.352,4499.683a27.223,27.223,0,0,0,2.568-8.03,9.2,9.2,0,0,0-2.519-7.757,7.573,7.573,0,0,0-5.268-1.865,8.911,8.911,0,0,0-8.03,6.365,9.594,9.594,0,0,0,3.23,9.832,10.4,10.4,0,0,0,10.354,1.349" transform="translate(-1853.779 -4482.027)"/></g><g transform="translate(12.435 14.738)"><path class="g" d="M1868,4495.573a3.937,3.937,0,0,1-3.787,3.7c-.039-.162,1.17-.482,2.213-1.521C1867.492,4496.731,1867.84,4495.531,1868,4495.573Z" transform="translate(-1864.213 -4495.572)"/></g><g transform="translate(4.496 9.425)"><path class="e" d="M1866.016,4497.957a7.517,7.517,0,0,1-2.17,1.588,6.252,6.252,0,0,1-2.86.808,3.974,3.974,0,0,1-3.336-1.5,4.444,4.444,0,0,1-.591-3.615,7.023,7.023,0,0,1,1.344-2.645,8.289,8.289,0,0,1,1.892-1.907,25.326,25.326,0,0,1-1.568,2.143,7.181,7.181,0,0,0-1.158,2.523,4.034,4.034,0,0,0,.539,3.165,3.534,3.534,0,0,0,2.877,1.31,6.3,6.3,0,0,0,2.683-.646C1865.123,4498.48,1865.963,4497.872,1866.016,4497.957Z" transform="translate(-1856.917 -4490.689)"/></g><g transform="translate(0 17.63)"><path class="e" d="M1852.8,4506.317a3.543,3.543,0,0,1,.389.887,9.11,9.11,0,0,0,1.178,2.276,3.3,3.3,0,0,0,3.13,1.44,4.3,4.3,0,0,0,3.011-3.034,31.22,31.22,0,0,0,.818-4.642,7.171,7.171,0,0,1,1.526-3.661,3.931,3.931,0,0,1,2.327-1.327,1.552,1.552,0,0,1,.978.082c0,.056-.353-.014-.937.135a3.955,3.955,0,0,0-2.065,1.371,7.068,7.068,0,0,0-1.315,3.484,27.709,27.709,0,0,1-.8,4.743,4.755,4.755,0,0,1-3.456,3.363,3.2,3.2,0,0,1-2.167-.419,4.518,4.518,0,0,1-1.377-1.3,7.849,7.849,0,0,1-1.064-2.447A3,3,0,0,1,1852.8,4506.317Z" transform="translate(-1852.786 -4498.229)"/></g></g><g transform="translate(20.915 101.603)"><path class="m" d="M1849.334,4567.355s-4.073,29.841,0,33.623,8,2.528,8,2.528l7.756-6.487,1.526-29.664Z" transform="translate(-1847.523 -4567.355)"/></g><g transform="translate(87.211 0)"><g transform="translate(19.806)"><path class="g" d="M1926.643,4491.827l5.178-5.561,8.629,6.9,19.752-19.177,4.732,5.577-24.867,24.529Z" transform="translate(-1926.643 -4473.993)"/></g><g transform="translate(0 19.348)"><path class="m" d="M1952.58,4491.771l-7.509,4.82c-.34-2.969-2.605-5.911-2.489-4.421s.014,9.227.014,9.227l-13.391,28.176c-1.821,4.465-5.508,7.271-8.262,7.933l-12.5,3.717,4.887,16.525,17.373-5.76a14.984,14.984,0,0,0,9.521-9.549l11.975-36.482a56.562,56.562,0,0,0,1.936-7.187C1954.646,4495.728,1952.58,4491.771,1952.58,4491.771Z" transform="translate(-1908.443 -4491.771)"/></g></g><g transform="translate(53.902 319.161)"><g transform="translate(0.083)"><path class="g" d="M1893.75,4775.624l-.187-8.355-15.653.251.143,12.226.972.047c4.323.171,21.993.563,24.867-.358C1907.1,4778.405,1893.75,4775.624,1893.75,4775.624Z" transform="translate(-1877.911 -4767.268)"/><g class="n" transform="translate(0.089 7.855)"><path class="f" d="M1883.72,4778.894a5.427,5.427,0,0,0-2.05-3.307,5.283,5.283,0,0,0-3.677-1.078l.066,4.373Z" transform="translate(-1877.993 -4774.486)"/></g></g><g class="b" transform="translate(0.226 9.947)"><path class="f" d="M1900.264,4776.408s4.683,1.27,4.113,2.046-18.441,1.051-26.335.483l.02-.351,20.849-.142S1899.353,4776.461,1900.264,4776.408Z" transform="translate(-1878.043 -4776.408)"/></g><g transform="translate(0 11.725)"><path class="e" d="M1877.835,4778.438a1.432,1.432,0,0,0,.27.026c.232.009.487.021.773.034l2.847.079c2.405.049,5.728.073,9.4.021s6.991-.175,9.393-.3l2.843-.162.773-.057a1.366,1.366,0,0,0,.269-.034,1.432,1.432,0,0,0-.271,0l-.774.021-2.845.1c-2.4.085-5.722.186-9.389.24s-6.988.05-9.392.035l-2.847-.018h-.775A1.61,1.61,0,0,0,1877.835,4778.438Z" transform="translate(-1877.835 -4778.042)"/></g><g transform="translate(21.064 9.752)"><path class="e" d="M1897.22,4778.7a4.137,4.137,0,0,1,1.464-2.47,2.53,2.53,0,0,0-1.464,2.47Z" transform="translate(-1897.19 -4776.229)"/></g><g transform="translate(16.431 8.638)"><path class="e" d="M1892.942,4776.522c.045.027.262-.245.484-.609s.368-.679.323-.708-.261.247-.484.61S1892.9,4776.495,1892.942,4776.522Z" transform="translate(-1892.933 -4775.204)"/></g><g transform="translate(15.158 8.406)"><path class="e" d="M1891.767,4775.89c.036.039.281-.129.546-.376s.453-.478.417-.517-.28.13-.545.377S1891.732,4775.852,1891.767,4775.89Z" transform="translate(-1891.763 -4774.992)"/></g><g transform="translate(14.338 7.741)"><path class="e" d="M1891.01,4774.479a3.559,3.559,0,0,0,1.635-.006,1.817,1.817,0,0,0-.819-.092A1.839,1.839,0,0,0,1891.01,4774.479Z" transform="translate(-1891.01 -4774.381)"/></g><g transform="translate(14.047 6.785)"><path class="e" d="M1890.743,4773.519a2.3,2.3,0,0,0,1.855.111,67.382,67.382,0,0,1-1.855-.111Z" transform="translate(-1890.742 -4773.502)"/></g><g transform="translate(16.95 7.143)"><path class="e" d="M1893.41,4775.269a2.91,2.91,0,0,0,1-.022,5.7,5.7,0,0,0,1.068-.252,2.9,2.9,0,0,0,.61-.262.535.535,0,0,0,.243-.315.4.4,0,0,0-.159-.4,1.844,1.844,0,0,0-2.272.574,1.8,1.8,0,0,0-.318.676c-.038.172-.034.271-.022.271a2.8,2.8,0,0,1,.444-.864,1.824,1.824,0,0,1,.851-.571,1.558,1.558,0,0,1,1.2.063c.161.116.1.3-.074.414a3,3,0,0,1-.562.25,7.084,7.084,0,0,1-1.031.285C1893.793,4775.232,1893.409,4775.238,1893.41,4775.269Z" transform="translate(-1893.41 -4773.831)"/></g><g transform="translate(15.874 6.694)"><path class="e" d="M1893.758,4775.351a.993.993,0,0,0,.106-.7,1.654,1.654,0,0,0-.286-.731,1.013,1.013,0,0,0-.846-.5.4.4,0,0,0-.3.469,1.1,1.1,0,0,0,.178.446,3.052,3.052,0,0,0,.485.6,1.461,1.461,0,0,0,.581.4c.018-.024-.2-.177-.485-.492a3.48,3.48,0,0,1-.43-.6c-.142-.21-.241-.59.01-.64.251-.028.511.218.669.417a1.651,1.651,0,0,1,.294.65A3.648,3.648,0,0,1,1893.758,4775.351Z" transform="translate(-1892.422 -4773.42)"/></g><g transform="translate(0.254 7.715)"><path class="e" d="M1878.068,4774.476c0,.034.447-.05,1.157.022a4.9,4.9,0,0,1,4.15,3.205c.249.667.279,1.118.314,1.113a.9.9,0,0,0,0-.316,4.1,4.1,0,0,0-.184-.841,4.759,4.759,0,0,0-4.265-3.294,4.252,4.252,0,0,0-.861.034A.875.875,0,0,0,1878.068,4774.476Z" transform="translate(-1878.068 -4774.357)"/></g><g transform="translate(1.69 1.294)"><path class="e" d="M1879.474,4768.457a54.747,54.747,0,0,0,.018,6.434,54.745,54.745,0,0,0-.018-6.434Z" transform="translate(-1879.388 -4768.457)"/></g><g transform="translate(7.846 10.661)"><path class="e" d="M1885.045,4777.11a12.814,12.814,0,0,0,4.575-.027c-.007-.055-1.027.023-2.287.028S1885.05,4777.055,1885.045,4777.11Z" transform="translate(-1885.045 -4777.063)"/></g><g transform="translate(4.772 10.743)"><path class="e" d="M1882.226,4777.146c-.038.039.087.216.2.448s.168.439.222.436.076-.249-.05-.518S1882.259,4777.108,1882.226,4777.146Z" transform="translate(-1882.219 -4777.14)"/></g><g transform="translate(3.593 9.321)"><path class="e" d="M1881.143,4775.84c-.037.037.067.2.231.36s.328.264.364.226-.067-.2-.23-.36S1881.18,4775.8,1881.143,4775.84Z" transform="translate(-1881.136 -4775.833)"/></g><g transform="translate(1.934 8.603)"><path class="e" d="M1879.613,4775.266c.012.053.22.048.451.125s.4.2.439.16-.094-.25-.381-.341S1879.6,4775.22,1879.613,4775.266Z" transform="translate(-1879.612 -4775.173)"/></g><g transform="translate(0.751 8.367)"><path class="e" d="M1878.527,4775c-.019.048.073.127.2.176s.251.047.27,0-.073-.128-.2-.178S1878.546,4774.945,1878.527,4775Z" transform="translate(-1878.525 -4774.957)"/></g></g><g transform="translate(0 308.369)"><path class="g" d="M1842.892,4773.826l5.308-6.455-12.03-10.021-7.865,9.363.706.668c3.166,2.949,16.3,14.772,19.084,15.948C1851.2,4784.64,1842.892,4773.826,1842.892,4773.826Z" transform="translate(-1828.305 -4757.351)"/><g class="n" transform="translate(0.156 5.842)"><path class="f" d="M1832.732,4769.779a5.434,5.434,0,0,0,.6-3.844,5.277,5.277,0,0,0-2.084-3.216l-2.8,3.359Z" transform="translate(-1828.448 -4762.719)"/></g><g class="b" transform="translate(0 9.11)"><path class="f" d="M1846.8,4778.548s2.721,4.018,1.782,4.234-14.665-11.229-20.279-16.808l.244-.253,15.9,13.489S1846.076,4778,1846.8,4778.548Z" transform="translate(-1828.305 -4765.722)"/></g><g transform="translate(0.061 8.945)"><path class="e" d="M1828.361,4765.571a1.583,1.583,0,0,0,.189.2c.168.158.353.334.563.53l2.107,1.917c1.79,1.605,4.293,3.791,7.109,6.144s5.414,4.426,7.313,5.9q1.337,1.023,2.26,1.732l.624.459a1.884,1.884,0,0,0,.224.15,1.4,1.4,0,0,0-.2-.181l-.6-.488-2.224-1.779c-1.876-1.5-4.458-3.591-7.274-5.941s-5.329-4.521-7.143-6.1q-1.268-1.1-2.145-1.871l-.588-.5A1.366,1.366,0,0,0,1828.361,4765.571Z" transform="translate(-1828.361 -4765.571)"/></g><g transform="translate(15.979 21.754)"><path class="e" d="M1842.991,4778.371a4.129,4.129,0,0,1,2.72-.918,2.532,2.532,0,0,0-2.72.918Z" transform="translate(-1842.988 -4777.341)"/></g><g transform="translate(13.936 17.537)"><path class="e" d="M1841.111,4773.953a1.651,1.651,0,0,0,.763-.145c.406-.13.723-.276.707-.326a1.667,1.667,0,0,0-.764.146C1841.41,4773.757,1841.094,4773.9,1841.111,4773.953Z" transform="translate(-1841.11 -4773.465)"/></g><g transform="translate(13.391 16.577)"><path class="e" d="M1840.61,4772.7c0,.053.3.084.661.07s.654-.066.652-.117-.3-.084-.659-.072S1840.609,4772.652,1840.61,4772.7Z" transform="translate(-1840.61 -4772.583)"/></g><g transform="translate(13.72 15.045)"><path class="e" d="M1840.915,4771.182c-.035.04.217.31.561.6s.649.5.683.459-.217-.309-.561-.6S1840.949,4771.142,1840.915,4771.182Z" transform="translate(-1840.912 -4771.177)"/></g><g transform="translate(14.173 14.073)"><path class="e" d="M1841.334,4770.284a2.3,2.3,0,0,0,1.333,1.292c.027-.046-.31-.288-.671-.642S1841.38,4770.254,1841.334,4770.284Z" transform="translate(-1841.328 -4770.282)"/></g><g transform="translate(15.159 17.079)"><path class="e" d="M1842.294,4773.283a2.944,2.944,0,0,0,.777.639,5.893,5.893,0,0,0,.973.5,3.012,3.012,0,0,0,.634.2.544.544,0,0,0,.39-.081.4.4,0,0,0,.141-.408,1.845,1.845,0,0,0-2.1-1.045,1.809,1.809,0,0,0-.682.305c-.14.106-.2.185-.194.191a2.894,2.894,0,0,1,.9-.364,1.807,1.807,0,0,1,1.017.121,1.557,1.557,0,0,1,.869.83c.048.194-.121.3-.325.266a3.071,3.071,0,0,1-.589-.177,7,7,0,0,1-.969-.457C1842.608,4773.5,1842.313,4773.258,1842.294,4773.283Z" transform="translate(-1842.234 -4773.045)"/></g><g transform="translate(15.137 15.338)"><path class="e" d="M1842.464,4773.629c0,.018.282-.085.537-.463a1.656,1.656,0,0,0,.259-.739,1.008,1.008,0,0,0-.315-.93.4.4,0,0,0-.535.157,1.1,1.1,0,0,0-.157.455,3.062,3.062,0,0,0-.025.772,1.442,1.442,0,0,0,.182.681c.028-.008-.039-.268-.048-.689a3.512,3.512,0,0,1,.063-.733c.031-.25.2-.605.425-.479a.9.9,0,0,1,.235.753,1.636,1.636,0,0,1-.2.684A3.829,3.829,0,0,1,1842.464,4773.629Z" transform="translate(-1842.214 -4771.446)"/></g><g transform="translate(3.049 5.859)"><path class="e" d="M1831.107,4762.736c-.02.03.372.254.862.771a4.9,4.9,0,0,1,1.056,5.137c-.246.668-.517,1.029-.487,1.048.01.007.086-.075.2-.243a4.191,4.191,0,0,0,.409-.756,4.762,4.762,0,0,0-1.085-5.279,4.133,4.133,0,0,0-.676-.535A.89.89,0,0,0,1831.107,4762.736Z" transform="translate(-1831.106 -4762.734)"/></g><g transform="translate(4.283 1.896)"><path class="e" d="M1836.425,4759.094a26.949,26.949,0,0,0-2.163,2.382,27.682,27.682,0,0,0-2.02,2.505,54.629,54.629,0,0,0,4.183-4.888Z" transform="translate(-1832.241 -4759.093)"/></g><g transform="translate(6.93 12.989)"><path class="e" d="M1834.674,4769.288a12.856,12.856,0,0,0,3.486,2.964c.03-.046-.794-.651-1.753-1.471S1834.713,4769.251,1834.674,4769.288Z" transform="translate(-1834.673 -4769.287)"/></g><g transform="translate(4.306 11.022)"><path class="e" d="M1832.533,4767.478c-.053.006-.074.221-.145.469s-.159.441-.115.476.221-.139.3-.425S1832.583,4767.471,1832.533,4767.478Z" transform="translate(-1832.262 -4767.478)"/></g><g transform="translate(4.545 9.176)"><path class="e" d="M1832.547,4765.783c-.052.005-.079.194-.059.424s.077.412.129.409.079-.195.06-.425S1832.6,4765.777,1832.547,4765.783Z" transform="translate(-1832.481 -4765.783)"/></g><g transform="translate(3.758 7.599)"><path class="e" d="M1831.761,4764.346c-.025.048.136.179.26.389s.174.409.228.409.091-.25-.066-.509S1831.781,4764.3,1831.761,4764.346Z" transform="translate(-1831.759 -4764.333)"/></g><g transform="translate(3.03 6.614)"><path class="e" d="M1831.115,4763.434c-.046.024-.028.144.039.266s.159.2.2.175.028-.145-.039-.267S1831.161,4763.408,1831.115,4763.434Z" transform="translate(-1831.089 -4763.429)"/></g></g><g transform="translate(1.318 140.988)"><g transform="translate(0 8.014)"><path class="e" d="M1875.36,4611.887s-5.211,22.052-3.737,26.415,11.023,6.884,11.023,6.884l-.323,60.384-52.807,65.273,19.5,15.955s57.166-65.4,62.206-77.238-3.212-98.649-3.212-98.649Z" transform="translate(-1829.516 -4610.91)"/></g><g transform="translate(28.696)"><path class="e" d="M1900,4603.546l2.585,183.4-26.865.136-13.481-149.369h0c-2.85-2.722-6.858-7.379-6.307-17.769l.656-12.069Z" transform="translate(-1855.885 -4603.546)"/></g><g transform="translate(44.489 37.118)"><path class="a" d="M1870.4,4713.418a1.07,1.07,0,0,1,.155-.271l.51-.751q.741-1.05,2-2.826l7.288-10.089-.046.138c-.584-6.365-1.294-14.085-2.059-22.409-.974-10.907-1.764-20.79-2.229-27.954-.237-3.579-.394-6.48-.479-8.484-.033-.96-.059-1.727-.079-2.31a4.31,4.31,0,0,1,.011-.808,4.258,4.258,0,0,1,.1.8c.047.582.109,1.346.186,2.3.16,2.063.384,4.941.658,8.471.567,7.15,1.42,17.026,2.394,27.932.732,8.353,1.479,16.061,1.961,22.458l.005.071-.051.067-7.448,9.972-2.1,2.75-.566.712C1870.48,4713.349,1870.408,4713.427,1870.4,4713.418Z" transform="translate(-1870.397 -4637.654)"/></g><g transform="translate(38.685 34.145)"><path class="a" d="M1879.115,4637.9a60.683,60.683,0,0,1-14.051-2.95,182.589,182.589,0,0,1,14.051,2.95Z" transform="translate(-1865.064 -4634.922)"/></g><g transform="translate(56.418 97.23)"><path class="a" d="M1896.077,4695.4c-.072.173-3.085-1.589-7.254-1.89-4.167-.358-7.42.906-7.463.724a6.138,6.138,0,0,1,2.094-.82,16.506,16.506,0,0,1,10.686.848A6.112,6.112,0,0,1,1896.077,4695.4Z" transform="translate(-1881.359 -4692.891)"/></g><g transform="translate(46.405 108.234)"><path class="a" d="M1906.364,4703c.124.094-7.432,10.237-16.877,22.65s-17.2,22.405-17.328,22.312,7.431-10.236,16.878-22.654S1906.239,4702.908,1906.364,4703Z" transform="translate(-1872.157 -4703.002)"/></g><g transform="translate(63.441 12.197)"><path class="a" d="M1901.344,4616.181a4.492,4.492,0,0,1-1.512,1.995,7.482,7.482,0,0,1-10.95-1.154,4.5,4.5,0,0,1-1.062-2.267,23.132,23.132,0,0,0,1.374,2.013,7.459,7.459,0,0,0,10.386,1.1A23.311,23.311,0,0,0,1901.344,4616.181Z" transform="translate(-1887.811 -4614.753)"/></g></g><g transform="translate(34.289 27.576)"><path class="e" d="M1867.109,4532a23.426,23.426,0,0,1-1.271-32.672" transform="translate(-1859.813 -4499.333)"/></g><g transform="translate(19.452 64.963)"><g transform="translate(0 12.394)"><path class="g" d="M1853.224,4545.077s-5.836,6.591-7.045,31.808c0,0,16.621,3.155,16.925,2.248S1853.224,4545.077,1853.224,4545.077Z" transform="translate(-1846.179 -4545.077)"/></g><g class="l" transform="translate(0 12.394)"><path class="g" d="M1853.224,4545.077s-5.836,6.591-7.045,31.808c0,0,16.621,3.155,16.925,2.248S1853.224,4545.077,1853.224,4545.077Z" transform="translate(-1846.179 -4545.077)"/></g><g transform="translate(5.22)"><g transform="translate(6.525 44.204)"><path class="a" d="M1856.971,4574.306" transform="translate(-1856.971 -4574.306)"/></g><path class="g" d="M1855.493,4619.521h51.027l-.824-7.969s-5.831-30.327-5.789-30.727l.919-1.93a19.239,19.239,0,0,0,.224-16.048h0l24.986-8.544-6.117-20.617c-11.337,1.915-28.475,4.05-28.475,4.05l-2.552.214s-17.691.922-18.069.967c-7.4.9-16.012,1.462-19.159,9.383-1.683,4.236-.084,10.593,2.663,17.147l6.541,20.13c2.612,11.063-1.556,10.54-3.844,21.674C1856.678,4608.937,1855.459,4617.976,1855.493,4619.521Z" transform="translate(-1850.975 -4533.686)"/><g class="l"><path class="g" d="M1855.493,4619.521h51.027l-.824-7.969s-5.831-30.327-5.789-30.727l.919-1.93a19.239,19.239,0,0,0,.224-16.048h0l24.986-8.544-6.117-20.617c-11.337,1.915-28.475,4.05-28.475,4.05l-2.552.214s-17.691.922-18.069.967c-7.4.9-16.012,1.462-19.159,9.383-1.683,4.236-.084,10.593,2.663,17.147l6.541,20.13c2.612,11.063-1.556,10.54-3.844,21.674C1856.678,4608.937,1855.459,4617.976,1855.493,4619.521Z" transform="translate(-1850.975 -4533.686)"/></g></g><g transform="translate(51.36 20.942)"><path class="e" d="M1922.059,4552.938a4.9,4.9,0,0,1-1.109.466c-.725.265-1.779.631-3.087,1.071-2.613.882-6.24,2.052-10.245,3.333s-7.586,2.554-10.128,3.6c-1.276.515-2.29.974-3,1.277a5.021,5.021,0,0,1-1.118.44,4.917,4.917,0,0,1,1.021-.638c.681-.365,1.674-.882,2.938-1.447a96.563,96.563,0,0,1,10.113-3.775c4.01-1.284,7.654-2.391,10.3-3.175,1.322-.393,2.4-.7,3.141-.9A5,5,0,0,1,1922.059,4552.938Z" transform="translate(-1893.373 -4552.931)"/></g><g transform="translate(9.692 9.691)"><path class="d" d="M1922.474,4542.875c0,.155-15.087.282-33.693.282s-33.7-.127-33.7-.282,15.083-.284,33.7-.284S1922.474,4542.717,1922.474,4542.875Z" transform="translate(-1855.085 -4542.591)"/></g><g transform="translate(3.645 19.713)"><path class="d" d="M1924.519,4552.084c0,.157-16.788.283-37.494.283s-37.5-.126-37.5-.283,16.786-.282,37.5-.282S1924.519,4551.928,1924.519,4552.084Z" transform="translate(-1849.528 -4551.802)"/></g><g transform="translate(1.572 31.116)"><path class="d" d="M1853.872,4562.562a17.406,17.406,0,1,1-3.125-.283A8.806,8.806,0,0,1,1853.872,4562.562Z" transform="translate(-1847.623 -4562.279)"/></g><g transform="translate(7.82 31.462)"><path class="d" d="M1902.408,4562.881c0,.157-10.979.283-24.521.283s-24.523-.126-24.523-.283,10.978-.284,24.523-.284S1902.408,4562.724,1902.408,4562.881Z" transform="translate(-1853.365 -4562.597)"/></g><g transform="translate(11.766 43.212)"><path class="d" d="M1901.008,4573.677c0,.156-9.854.283-22.008.283s-22.009-.127-22.009-.283,9.852-.283,22.009-.283S1901.008,4573.521,1901.008,4573.677Z" transform="translate(-1856.991 -4573.394)"/></g><g transform="translate(15.568 54.098)"><path class="d" d="M1900.381,4583.681c0,.156-8.932.282-19.948.282s-19.949-.126-19.949-.282,8.929-.284,19.949-.284S1900.381,4583.523,1900.381,4583.681Z" transform="translate(-1860.484 -4583.396)"/></g><g transform="translate(14.531 62.909)"><path class="d" d="M1902.211,4591.777c0,.157-9.555.284-21.339.284s-21.341-.127-21.341-.284,9.553-.283,21.341-.283S1902.211,4591.621,1902.211,4591.777Z" transform="translate(-1859.531 -4591.494)"/></g><g transform="translate(11.42 74.141)"><path class="d" d="M1905.227,4602.1c0,.156-10.87.283-24.276.283s-24.278-.126-24.278-.283,10.868-.283,24.278-.283S1905.227,4601.941,1905.227,4602.1Z" transform="translate(-1856.673 -4601.815)"/></g><g transform="translate(5.783 24.597)"><path class="e" d="M1860.517,4582.641a4.114,4.114,0,0,1-.451-1q-.449-1.167-1.073-2.785c-.9-2.355-2.162-5.6-3.477-9.215s-2.4-6.936-3.091-9.366c-.34-1.217-.6-2.207-.743-2.9a4.106,4.106,0,0,1-.178-1.085,40.032,40.032,0,0,1,1.3,3.866c.781,2.393,1.922,5.678,3.241,9.29s2.518,6.88,3.32,9.273c.4,1.2.711,2.17.906,2.85A4.191,4.191,0,0,1,1860.517,4582.641Z" transform="translate(-1851.493 -4556.29)"/></g></g></g><g transform="translate(2156.884 4423.039)"><path class="f" d="M529.832,4138.094a34.267,34.267,0,0,1-54.695,27.523l-16.826,4.28,6.991-15.635a34.277,34.277,0,1,1,64.489-16.168Z" transform="translate(-457.583 -4103.633)"/><path class="e" d="M530,4138.128a34.442,34.442,0,0,1-5.081,18A38.862,38.862,0,0,1,522.2,4160a38.468,38.468,0,0,1-3.275,3.417c-.606.513-1.14,1.109-1.786,1.56l-1.9,1.427c-.626.472-1.335.852-1.992,1.273l-1.026.625c-.338.2-.708.359-1.027.535l-2.135,1.025-2.227.832a15.754,15.754,0,0,1-2.269.689c-.771.184-1.529.452-2.31.564a33.221,33.221,0,0,1-4.723.573,29.142,29.142,0,0,1-4.753,0,34.338,34.338,0,0,1-17.666-6.579l.307.062-16.764,4.373-.9.236.38-.862,6.95-15.645v.431a33.94,33.94,0,0,1-4.105-15.1,34.523,34.523,0,1,1,69.025-1.3Zm0,0a34.358,34.358,0,0,0-13.253-26.937,34.813,34.813,0,0,0-13.961-6.414,34.154,34.154,0,0,0-15.317.42,33.689,33.689,0,0,0-13.591,7.023,35.312,35.312,0,0,0-9.1,12.226,33.873,33.873,0,0,0,1.128,29.625l.113.216-.092.216-7.032,15.614-.524-.618,16.815-4.206h.165l.143.1a33.888,33.888,0,0,0,17.267,6.684,29.861,29.861,0,0,0,4.691.07,34,34,0,0,0,4.671-.5c.781-.115,1.529-.36,2.3-.535a15.55,15.55,0,0,0,2.258-.658l2.218-.79,2.125-1.028c.359-.173.719-.329,1.026-.513l1.027-.605c.667-.423,1.375-.78,2-1.244l1.9-1.4a21.265,21.265,0,0,0,1.786-1.54,38.991,38.991,0,0,0,3.286-3.388,37.441,37.441,0,0,0,2.73-3.85A34.355,34.355,0,0,0,530,4138.128Z" transform="translate(-457.75 -4103.667)"/><path class="g" d="M487.091,4151.936l-12.76-12.9,4.291-4.229,7.443,7.534,15.481-24.257,5.071,3.234Z" transform="translate(-452.824 -4099.386)"/></g><path class="o" d="M489.148,4048.751a2.556,2.556,0,0,1,2.576,2.535v1.366a21.914,21.914,0,0,1,9.291,3.294,3.227,3.227,0,0,1,1.8,2.885,3.3,3.3,0,0,1-3.295,3.3h-.062a3.458,3.458,0,0,1-1.8-.545,22.164,22.164,0,0,0-6.16-2.638v11.519c9.116,2.279,13.016,5.934,13.016,12.318,0,6.6-5.133,10.975-12.77,11.693v3.635a2.556,2.556,0,0,1-2.536,2.576h-.042a2.607,2.607,0,0,1-2.637-2.576h0v-3.728a25.847,25.847,0,0,1-12.32-4.67,3.308,3.308,0,1,1,3.624-5.523,21.353,21.353,0,0,0,8.88,4.024V4076.4c-8.757-2.279-12.832-5.574-12.832-12.318,0-6.416,5.133-10.852,12.6-11.458v-1.292a2.608,2.608,0,0,1,2.637-2.578Zm-2.4,20.45v-10.616c-3.839.359-5.759,2.4-5.759,5.041S482.125,4067.7,486.746,4069.2Zm4.732,8.334v10.913c3.839-.42,5.945-2.341,5.945-5.214C497.422,4080.6,496.1,4078.972,491.477,4077.535Z" transform="translate(1344.654 491.528)"/><path class="o" d="M489.148,4048.751a2.556,2.556,0,0,1,2.576,2.535v1.366a21.914,21.914,0,0,1,9.291,3.294,3.227,3.227,0,0,1,1.8,2.885,3.3,3.3,0,0,1-3.295,3.3h-.062a3.458,3.458,0,0,1-1.8-.545,22.164,22.164,0,0,0-6.16-2.638v11.519c9.116,2.279,13.016,5.934,13.016,12.318,0,6.6-5.133,10.975-12.77,11.693v3.635a2.556,2.556,0,0,1-2.536,2.576h-.042a2.607,2.607,0,0,1-2.637-2.576h0v-3.728a25.847,25.847,0,0,1-12.32-4.67,3.308,3.308,0,1,1,3.624-5.523,21.353,21.353,0,0,0,8.88,4.024V4076.4c-8.757-2.279-12.832-5.574-12.832-12.318,0-6.416,5.133-10.852,12.6-11.458v-1.292a2.608,2.608,0,0,1,2.637-2.578Zm-2.4,20.45v-10.616c-3.839.359-5.759,2.4-5.759,5.041S482.125,4067.7,486.746,4069.2Zm4.732,8.334v10.913c3.839-.42,5.945-2.341,5.945-5.214C497.422,4080.6,496.1,4078.972,491.477,4077.535Z" transform="translate(1598 565.727)"/><g transform="translate(1972.657 4702.167)"><g transform="translate(22.012 0) rotate(20)"><g transform="translate(0 0)"><g transform="translate(0 0)"><g transform="translate(0)"><path class="g" d="M63.956,27.121A32.176,32.176,0,1,1,27.124.4,32.176,32.176,0,0,1,63.956,27.121Z"/></g></g><g class="k" transform="translate(0 0.405)"><g transform="translate(0 0)"><path class="f" d="M27.124,0A32.17,32.17,0,0,0,.4,36.832s22.487-2.557,26.428-12.4S27.124,0,27.124,0Z"/></g></g><g transform="translate(7.133 7.292)"><g transform="translate(0 0)"><path class="p" d="M48.619,20.619a24.46,24.46,0,1,1-28-20.312A24.459,24.459,0,0,1,48.619,20.619Z"/></g></g><g transform="translate(8.628 8.468)"><g transform="translate(0 0)"><path class="q" d="M47.968,20.341A24.133,24.133,0,1,1,20.343.3,24.13,24.13,0,0,1,47.968,20.341Z"/></g></g><g transform="translate(22.233 16.991)"><g transform="translate(1.157 0)"><g transform="translate(0)"><path class="g" d="M9.995,13.4,9.022,7.3l.032-.006a12.68,12.68,0,0,1,3.375.328,10.241,10.241,0,0,1,1.669.716l.053-.2.591-2.344.134-.541-1.269-.969-.484.319A11.615,11.615,0,0,0,8.5,4.029L7.969.675,6.791,0l.134.841-1.431.228.544,3.416C1.4,5.688-.413,8.732.078,11.814c.669,4.2,4.438,4.713,7.919,4.994L8.96,22.85a11.7,11.7,0,0,1-6.407-1.335l-.875,3.269a13.393,13.393,0,0,0,7.8,1.328l.4,2.531-1.175.209,1.306.612,2.475-.394-.537-3.385c4.666-1.238,6.507-4.257,6.016-7.338C17.3,14.152,13.476,13.677,9.995,13.4Zm-2.578-.241c-1.835-.234-3.238-.694-3.469-2.144-.212-1.328.522-2.56,2.613-3.235ZM9.022,7.292Zm2.4,15.1-.85-5.348c1.894.225,3.335.709,3.569,2.188C14.352,20.537,13.579,21.712,11.426,22.4Z"/></g></g><g class="l" transform="translate(1.157 0)"><g transform="translate(0)"><path class="g" d="M9.995,13.4,9.022,7.3l.032-.006a12.68,12.68,0,0,1,3.375.328,10.241,10.241,0,0,1,1.669.716l.053-.2.591-2.344.134-.541-1.269-.969-.484.319A11.615,11.615,0,0,0,8.5,4.029L7.969.675,6.791,0l.134.841-1.431.228.544,3.416C1.4,5.688-.413,8.732.078,11.814c.669,4.2,4.438,4.713,7.919,4.994L8.96,22.85a11.7,11.7,0,0,1-6.407-1.335l-.875,3.269a13.393,13.393,0,0,0,7.8,1.328l.4,2.531-1.175.209,1.306.612,2.475-.394-.537-3.385c4.666-1.238,6.507-4.257,6.016-7.338C17.3,14.152,13.476,13.677,9.995,13.4Zm-2.578-.241c-1.835-.234-3.238-.694-3.469-2.144-.212-1.328.522-2.56,2.613-3.235ZM9.022,7.292Zm2.4,15.1-.85-5.348c1.894.225,3.335.709,3.569,2.188C14.352,20.537,13.579,21.712,11.426,22.4Z"/></g></g><g transform="translate(0 0.006)"><g transform="translate(0 0)"><path class="g" d="M11.952,25.019l.538,3.382-2.476.4-.534-3.353a13.408,13.408,0,0,1-7.8-1.331l.871-3.266a11.748,11.748,0,0,0,6.41,1.331L8,16.136c-3.485-.281-7.251-.8-7.92-5C-.412,8.057,1.394,5.013,6.035,3.81L5.491.4,7.97,0,8.5,3.354a13.09,13.09,0,0,1,6.426.869L14.176,7.47a12.688,12.688,0,0,0-5.154-.853L10,12.72c3.485.281,7.307.76,7.976,4.957C18.461,20.759,16.618,23.778,11.952,25.019ZM7.416,12.48,6.56,7.1c-2.091.672-2.825,1.9-2.613,3.235C4.179,11.789,5.582,12.245,7.416,12.48Zm6.729,6.085c-.234-1.478-1.675-1.963-3.569-2.188l.85,5.347C13.58,21.04,14.355,19.865,14.145,18.565Z"/></g></g></g><g transform="translate(22.894 24.441)"><g transform="translate(0 0)"><path class="f" d="M1.883,5.9a2.055,2.055,0,0,1-.813-.588A3.867,3.867,0,0,1,.026,3.133,3.845,3.845,0,0,1,.514.767,2.03,2.03,0,0,1,1.161,0C1.192.029.93.307.664.845A4.044,4.044,0,0,0,.264,3.1,4.09,4.09,0,0,0,1.2,5.2C1.586,5.652,1.908,5.861,1.883,5.9Z"/></g></g><g transform="translate(28.344 18.238)"><g transform="translate(0 0)"><path class="f" d="M.355,1.988A2.225,2.225,0,0,1,.08,1.013,2.22,2.22,0,0,1,.039,0,2.226,2.226,0,0,1,.317.975,2.2,2.2,0,0,1,.355,1.988Z"/></g></g></g></g><g transform="translate(52.786 41.245)"><path class="e" d="M393.5,2572a1.513,1.513,0,0,1-1.514-1.512v-18.808a1.514,1.514,0,0,1,1.514-1.513h3.645l-8.036-9.485-8.04,9.485h3.645a1.514,1.514,0,0,1,1.512,1.513v18.808a1.512,1.512,0,1,1-3.024,0v-17.3h-5.4a1.512,1.512,0,0,1-1.154-2.49l11.3-13.338a1.512,1.512,0,0,1,1.154-.535h0a1.512,1.512,0,0,1,1.154.535l11.3,13.338a1.513,1.513,0,0,1-1.155,2.49h-5.395v17.3A1.513,1.513,0,0,1,393.5,2572Z" transform="translate(-376.293 -2536.828)"/></g></g></g></g></svg>