<svg xmlns="http://www.w3.org/2000/svg" xmlns:xlink="http://www.w3.org/1999/xlink" width="183.347" height="183.347" viewBox="0 0 183.347 183.347"><defs><style>.a{fill:#fff;}.b{fill:url(#a);}.c{fill:#eceef0;}.d{fill:none;stroke:#00223d;stroke-miterlimit:10;stroke-width:4px;}.e,.f{fill:#12263f;}.e{stroke:#12263f;}</style><radialGradient id="a" cx="0.076" cy="0.019" r="1.465" gradientTransform="translate(0.001)" gradientUnits="objectBoundingBox"><stop offset="0" stop-color="#f6f6f7"/><stop offset="0.477" stop-color="#f9f9fa"/><stop offset="0.715" stop-color="#fff"/></radialGradient></defs><g transform="translate(6037 10627)"><g transform="translate(-0.13 0.396)"><g transform="translate(-6036.87 -10627.396)"><path class="a" d="M377.97,2237.392a91.673,91.673,0,1,1-91.672-91.671A91.672,91.672,0,0,1,377.97,2237.392Z" transform="translate(-194.623 -2145.721)"/></g><path class="b" d="M376.482,2235.77a91.671,91.671,0,1,0-91.672,91.676A91.311,91.311,0,0,0,376.482,2235.77Z" transform="translate(-6230.005 -12771.494)"/><g transform="translate(-6020.629 -10575.928)"><path class="c" d="M358.381,2164.488a91.684,91.684,0,0,1-157.836,91.294,91.393,91.393,0,0,0,157.836-91.294Z" transform="translate(-200.545 -2164.488)"/></g></g><path class="d" d="M341.45,2222.48a69.974,69.974,0,1,0-69.974,69.974A69.714,69.714,0,0,0,341.45,2222.48Z" transform="translate(-6217.788 -12758.953)"/><g transform="translate(-5907.252 -11379.101)"><path class="e" d="M-12.261,877.061c2.055-10.343,10.892-15.68,19.672-14.229a16.872,16.872,0,0,1,14.013,19.011c-.978,7.825-8.055,15.447-18.761,14.575,0,.515,0,1.015,0,1.516,0,9.965-.033,19.93.036,29.894.011,1.5-.488,1.8-1.868,1.8q-37.879-.054-75.757-.027c-2.174,0-2.174,0-2.181-2.162,0-.422,0-.845,0-1.47-.805,0-1.547-.038-2.283.009-1.048.067-1.489-.388-1.424-1.423.037-.605.007-1.215.007-1.98a14.6,14.6,0,0,0-1.906.014c-1.4.2-1.778-.4-1.772-1.751.047-9.3.025-18.6.025-27.9q0-6.975,0-13.951c0-1.866.058-1.924,1.922-1.924l68.779,0Zm-63.322,8.383v42.7h76.8V896.2A16.843,16.843,0,0,1-10.9,886.371c-.381-.85-.865-.936-1.631-.936q-30.468.019-60.937.008Zm64.57-5.953A15.6,15.6,0,1,0,4.565,863.953,15.652,15.652,0,0,0-11.013,879.491Zm-1.231,2.422H-79.3V924.5h2.193v-1.724q0-18.359,0-36.718c0-1.968,0-1.969,2.034-1.969h63.288ZM-83,878.5V921.12h2.2v-1.792q0-18.51,0-37.021c0-1.895,0-1.9,1.866-1.9h66.477V878.5Z" transform="translate(-0.189 -51.85)"/><path class="e" d="M-50.344,1105.51H-75.7a2.7,2.7,0,0,1-.987-.028,3.692,3.692,0,0,1-.848-.709,6.275,6.275,0,0,1,.911-.658,1.74,1.74,0,0,1,.7-.019h51a2.625,2.625,0,0,1,.986.039c.294.129.5.459.744.7-.266.222-.5.539-.806.64a3.761,3.761,0,0,1-1.131.032Z" transform="translate(-5.16 -224.555)"/><path class="e" d="M50.428,1116.749c-5.832,0-11.665.016-17.5-.029-.477,0-.952-.423-1.428-.649.494-.233.988-.667,1.483-.669q17.5-.057,34.993-.024a1.963,1.963,0,0,1,.964.13,1.091,1.091,0,0,1,.41.778c.009.137-.354.386-.58.433a5.664,5.664,0,0,1-1.134.029Z" transform="translate(-83.146 -232.641)"/><path class="e" d="M7.565,830.293a11.147,11.147,0,0,1,1.411-1.281c.246-.154.657-.046.993-.056-.012.337.113.8-.06.991a26.274,26.274,0,0,1-2.531,2.489,1.131,1.131,0,0,1-1.088-.019,22.665,22.665,0,0,1-2.444-2.375c-.2-.229-.1-.727-.141-1.1a3.166,3.166,0,0,1,1.079.213,11.076,11.076,0,0,1,1.4,1.279V828.66c0-6.874-.013-13.749.024-20.623a4.035,4.035,0,0,1,.569-1.362c.263.476.751.95.754,1.427C7.58,815.4,7.565,822.7,7.565,830.293Z" transform="translate(-63.263 -11.854)"/><path class="e" d="M36.8,813.679a11.583,11.583,0,0,1,1.427-1.276c.241-.151.644-.045.973-.055.006.305.145.734,0,.894-.873.934-1.814,1.8-2.734,2.7-.032.031-.107.07-.125.057-1.023-.766-2.087-1.488-3.035-2.338-.283-.254-.252-.869-.326-1.325-.011-.064.2-.165.438-.344l1.98,1.779V812.03c0-6.833-.014-13.667.03-20.5,0-.478.429-.953.658-1.43.24.484.686.967.689,1.453.045,6.833.03,13.666.029,20.5Z" transform="translate(-84.2 0)"/><path class="e" d="M-34.3,845.138c0-3.948,0-7.625,0-11.3a6.344,6.344,0,0,1,.04-1.556c.1-.374.47-.676.72-1.01.183.339.517.675.524,1.018.048,2.275.026,4.551.026,6.827,0,1.92,0,3.84,0,6.1a14.443,14.443,0,0,1,1.541-1.428c.231-.157.637-.055.964-.071-.007.331.123.786-.045.973a26.515,26.515,0,0,1-2.525,2.5,1.15,1.15,0,0,1-1.108.034,26.478,26.478,0,0,1-2.533-2.488c-.179-.2-.083-.644-.114-.977.366.016.806-.09,1.08.076A10.322,10.322,0,0,1-34.3,845.138Z" transform="translate(-34.287 -29.445)"/><path class="e" d="M-75.445,1116.572c-2.654,0-5.308.032-7.96-.03-.452-.01-.9-.419-1.343-.644.42-.247.838-.7,1.26-.708q8.031-.073,16.063,0c.424,0,.844.454,1.266.7-.442.229-.879.644-1.326.655C-70.137,1116.6-72.791,1116.571-75.445,1116.572Z" transform="translate(0 -232.484)"/><path class="e" d="M176.453,1116.775a19.079,19.079,0,0,1-2.115-.027c-.28-.032-.526-.353-.788-.543.216-.258.424-.729.651-.739,1.5-.066,3.01-.068,4.511,0,.24.011.459.488.688.749-.277.187-.538.5-.832.534A18.62,18.62,0,0,1,176.453,1116.775Z" transform="translate(-184.74 -232.671)"/><path class="e" d="M22.342,959.155c.2,3.075,1.417,5.305,4.376,6.265.742.241,1.927.189,2.172.657a6.566,6.566,0,0,1,.332,2.885c.024,5.03-.013,10.06.028,15.09.009,1.19-.218,1.733-1.618,1.849a5.808,5.808,0,0,0-5.136,5.273c-.114,1.318-.721,1.418-1.734,1.416q-15.807-.02-31.614-.005c-6.883,0-13.766-.015-20.649.014-1.2.005-1.865-.148-1.958-1.66a5.821,5.821,0,0,0-5.325-5.065c-1.144-.076-1.318-.556-1.314-1.5.023-5.647.037-11.294,0-16.94-.008-1.2.263-1.782,1.641-1.851a5.72,5.72,0,0,0,5.026-5.166c.073-1.046.368-1.379,1.419-1.378q26.63.038,53.261.022C21.571,959.059,21.894,959.114,22.342,959.155Zm5.466,7.968c-3.233-.526-5.528-2.281-6.416-5.433-.306-1.087-.67-1.294-1.673-1.292q-22.785.042-45.57.02h-6.076a7.882,7.882,0,0,1-6.841,6.754c0,5.536.022,10.944-.02,16.35-.008.968.586,1.015,1.237,1.184a7.327,7.327,0,0,1,5.195,4.8c.21.551.32,1.141.467,1.68H21.037a7.71,7.71,0,0,1,6.771-6.8Z" transform="translate(-31.933 -120.826)"/><path class="e" d="M211.934,899.15c1.175,0,2.207-.037,3.234.022a1.452,1.452,0,0,1,.919.476c.083.1-.169.592-.373.8-2.36,2.461-4.756,4.888-7.105,7.359-.633.666-1.07.535-1.631-.061-2.238-2.38-4.512-4.726-6.743-7.112a3.677,3.677,0,0,1-.481-1.085,4.468,4.468,0,0,1,1.131-.381c.939-.056,1.883-.018,3.066-.018v-5.984c0-3.075,0-3.075,3.08-3.075,1.185,0,2.372.048,3.553-.014,1.074-.055,1.392.394,1.369,1.427C211.9,894.005,211.934,896.5,211.934,899.15Zm1.954,1.293c-.689,0-.967,0-1.245,0-2.122.016-2.123.016-2.123-2.059,0-2.26,0-4.52,0-6.8h-5.2c0,2.061-.019,4.044,0,6.027.04,3.332-.029,2.841-2.837,2.821-.068,0-.136.1-.292.225l5.36,5.678Z" transform="translate(-203.481 -71.505)"/><path class="e" d="M60.049,987.922a8.547,8.547,0,1,1-.093,17.094,8.547,8.547,0,0,1,.093-17.094Zm7.108,8.512a7.134,7.134,0,1,0-14.268,0,7.135,7.135,0,1,0,14.268,0Z" transform="translate(-97.429 -141.485)"/><path class="f" d="M164.346,739.227h-1.709a2.353,2.353,0,0,0-.248-.876,1.361,1.361,0,0,0-.852-.5.972.972,0,0,0-.782.449,1.03,1.03,0,0,0,.209.886,11.514,11.514,0,0,0,1.26,1.06,13.977,13.977,0,0,1,1.676,1.456,2.377,2.377,0,0,1-.967,3.924c-.347.146-.347.146-.487,1.244h-1.722l-.082-1.051a2.6,2.6,0,0,1-1.909-3.206h1.744c.05.289.1.587.152.885a.8.8,0,0,0,.894.75,1.437,1.437,0,0,0,.92-.514c.3-.431-.007-.831-.364-1.109-.757-.588-1.54-1.142-2.3-1.722a2.532,2.532,0,0,1-.952-2.82,2.255,2.255,0,0,1,.941-1.343c.7-.361,1.161-.69.873-1.589h1.821a2.158,2.158,0,0,1,.048.494c-.066.478.126.7.581.893A2.386,2.386,0,0,1,164.346,739.227Z" transform="translate(-198.993 113.969)"/></g></g></svg>