<svg xmlns="http://www.w3.org/2000/svg" width="440.148" height="256.729" viewBox="0 0 440.148 256.729"><defs><style>.a{fill:#ececec;}.b{fill:#f5f5f5;}.c{fill:#e1e1e1;}.d{fill:#aed3f2;}.e{fill:#344154;}.f{fill:none;}.g{fill:#263238;}.h{fill:#cee5f7;}.i{fill:#839eb6;}.j,.q{fill:#fff;}.k{fill:#d9a171;}.l,.p,.q{opacity:0.3;}.m{fill:#6595bf;}.n{fill:#d57b61;}.o{fill:#ee9476;}.r{fill:#fafafa;}.s{fill:#ffbf9d;}.t{fill:#ff9a6c;}</style></defs><g transform="translate(-940.163 -1724.267)"><g transform="translate(978.816 1767.686)"><path class="a" d="M150.1,5317.47c0-6.283,3.783-10.278,9.143-10.278s9.092,3.94,9.092,10.278-3.733,10.28-9.092,10.28S150.1,5323.754,150.1,5317.47Zm12.981,0c0-3.993-1.525-5.912-3.837-5.912-2.26,0-3.836,1.97-3.836,5.912s1.577,5.912,3.836,5.912C161.557,5323.382,163.082,5321.463,163.082,5317.47Zm18.077-9.854h6.254l-25.12,37.284h-6.254Zm-6.043,27.432c0-6.286,3.783-10.281,9.091-10.281,5.359,0,9.144,4,9.144,10.281s-3.785,10.278-9.144,10.278C178.9,5345.326,175.116,5341.331,175.116,5335.048Zm12.926,0c0-3.943-1.524-5.913-3.835-5.913-2.26,0-3.836,1.918-3.836,5.913s1.577,5.912,3.836,5.912C186.518,5340.959,188.042,5338.988,188.042,5335.048Z" transform="translate(-150.101 -5307.192)"/></g><g transform="translate(1226.593 1724.267)"><path class="b" d="M430.807,5186.829a40.864,40.864,0,1,1-46.483-34.223A40.818,40.818,0,0,1,430.807,5186.829Z" transform="translate(-349.533 -5152.143)"/><g transform="translate(9.724 9.703)"><path class="a" d="M420.363,5187.452a31.14,31.14,0,1,1-35.423-26.08A31.106,31.106,0,0,1,420.363,5187.452Z" transform="translate(-358.428 -5161.019)"/></g><g transform="translate(9.153 8.521)"><path class="c" d="M420.26,5186.587c-.186.037-.521-1.3-1.372-3.579a33.067,33.067,0,0,0-4.975-8.9,31.965,31.965,0,0,0-4.921-4.98,31.178,31.178,0,0,0-6.826-4.169,30.389,30.389,0,0,0-8.479-2.392,30.364,30.364,0,0,0-4.66-.249,30.39,30.39,0,0,0-9.427,1.725,30.393,30.393,0,0,0-4.27,1.881,30.468,30.468,0,0,0-7.083,5.24,31.142,31.142,0,0,0-4.906,6.317,31.912,31.912,0,0,0-2.837,6.4,33.045,33.045,0,0,0-1.5,10.086c.014,2.435.173,3.8-.014,3.832-.137.028-.608-1.282-.913-3.778a28.812,28.812,0,0,1,.8-10.6,31.516,31.516,0,0,1,2.734-6.9,31.834,31.834,0,0,1,5.064-6.893,31.7,31.7,0,0,1,7.534-5.75,31.637,31.637,0,0,1,4.594-2.064,31.871,31.871,0,0,1,10.168-1.86,31.691,31.691,0,0,1,5.026.3,31.792,31.792,0,0,1,9.082,2.71,31.229,31.229,0,0,1,12.181,10.138,28.838,28.838,0,0,1,4.508,9.632C420.373,5185.172,420.4,5186.565,420.26,5186.587Z" transform="translate(-357.905 -5159.937)"/></g><g transform="translate(27.004 19.054)"><path class="c" d="M394.348,5209.137l.887,5.351-4.779.79-.862-5.207c-4.778.5-9.562-.233-12.529-1.854l1.662-6.264a19.572,19.572,0,0,0,9.831,1.857l-1.322-7.98c-5.517-.41-11.733-1.2-12.865-8.03-.838-5.065,2.121-10.022,9.528-12.132l-.878-5.3,4.778-.791.863,5.209a21.889,21.889,0,0,1,10.181,1.309l-1.415,6.272a19.86,19.86,0,0,0-7.723-1.274l1.346,8.124c5.508.365,11.631,1.168,12.746,7.9C404.618,5202.086,401.7,5206.987,394.348,5209.137Zm-8.273-20.33-1.125-6.784c-2.436.993-3.21,2.544-2.95,4.122C382.278,5187.817,383.861,5188.488,386.075,5188.808Zm10.124,10.156c-.277-1.673-1.813-2.351-3.986-2.729l1.091,6.6C395.606,5201.909,396.452,5200.493,396.2,5198.964Z" transform="translate(-374.233 -5169.573)"/></g></g><g transform="translate(1314.869 1893.78)"><path class="b" d="M471.2,5405.747a32.721,32.721,0,1,1-19.606-41.857A32.684,32.684,0,0,1,471.2,5405.747Z" transform="translate(-407.724 -5361.91)"/><g transform="translate(7.785 7.772)"><path class="a" d="M463.216,5402.425a24.935,24.935,0,1,1-14.94-31.9A24.906,24.906,0,0,1,463.216,5402.425Z" transform="translate(-414.845 -5369.019)"/></g><g transform="translate(9.006 6.845)"><path class="c" d="M463.373,5401.768c-.144-.047.13-1.111.4-3.043a26.469,26.469,0,0,0-.093-8.166,25.564,25.564,0,0,0-1.556-5.387,24.947,24.947,0,0,0-3.207-5.544,24.436,24.436,0,0,0-5.049-4.927,24.312,24.312,0,0,0-3.183-1.956,26.376,26.376,0,0,0-3.55-1.485,26.694,26.694,0,0,0-3.74-.909,24.692,24.692,0,0,0-3.724-.311,24.525,24.525,0,0,0-6.986.977,24.929,24.929,0,0,0-5.869,2.567,25.727,25.727,0,0,0-4.444,3.417,26.469,26.469,0,0,0-4.91,6.523c-.923,1.719-1.333,2.737-1.477,2.689-.106-.032.063-1.136.8-3.007a23.059,23.059,0,0,1,4.62-7.152,24.982,24.982,0,0,1,10.762-6.72,24.069,24.069,0,0,1,3.624-.851,24.727,24.727,0,0,1,3.876-.313,25.6,25.6,0,0,1,4.021.307,25.474,25.474,0,0,1,7.863,2.582,25.444,25.444,0,0,1,3.42,2.136,25.354,25.354,0,0,1,5.352,5.381,24.976,24.976,0,0,1,4.689,11.79,23.075,23.075,0,0,1-.514,8.5C464,5400.814,463.479,5401.8,463.373,5401.768Z" transform="translate(-415.962 -5368.171)"/></g><g transform="translate(18.486 15.998)"><path class="c" d="M436.44,5408.149l-1.425,4.1-3.663-1.274,1.385-3.992c-3.55-1.479-6.636-3.822-8.1-6.1l3.566-3.77a15.689,15.689,0,0,0,6.2,5.069l2.123-6.12c-3.724-2.4-7.8-5.333-5.977-10.571,1.348-3.884,5.325-6.238,11.343-4.888l1.411-4.066,3.664,1.271-1.386,3.993a17.548,17.548,0,0,1,6.662,4.817l-3.4,3.871a15.918,15.918,0,0,0-4.944-3.854l-2.161,6.232c3.736,2.361,7.735,5.269,5.942,10.435C446.361,5407.117,442.433,5409.448,436.44,5408.149Zm1.957-17.465,1.805-5.2c-2.094-.233-3.232.563-3.653,1.771C436.1,5388.533,436.962,5389.613,438.4,5390.684Zm3.237,11.017c.445-1.283-.376-2.347-1.76-3.445l-1.755,5.056C440.09,5403.547,441.227,5402.874,441.634,5401.7Z" transform="translate(-424.633 -5376.543)"/></g></g><g transform="translate(940.163 1833.03)"><g transform="translate(5.31)"><g transform="translate(0.381 0.136)"><path class="d" d="M129.4,196.277a22.113,22.113,0,0,1,5.676,1.5l4.172-3.5,7.166,5.454-2.258,4.953a22.02,22.02,0,0,1,2.957,5.071l5.421.479,1.21,8.923-5.1,1.906a22.05,22.05,0,0,1-1.5,5.676l3.5,4.173-5.453,7.165-4.953-2.257a22.069,22.069,0,0,1-5.072,2.956l-.477,5.421-8.924,1.212-1.906-5.1a22.073,22.073,0,0,1-5.676-1.5l-4.172,3.5-7.166-5.454L109.1,231.9a22.129,22.129,0,0,1-2.957-5.072l-5.419-.477-1.212-8.924,5.1-1.9a21.943,21.943,0,0,1,1.5-5.678l-3.5-4.172,5.453-7.166,4.954,2.258a22.1,22.1,0,0,1,5.072-2.957l.476-5.419,8.924-1.211,1.906,5.1Zm-3.664,12.39a9.661,9.661,0,1,0,10.872,8.274A9.661,9.661,0,0,0,125.738,208.667Z" transform="translate(-99.516 -191.181)"/></g><g transform="translate(17.923 17.42)"><path class="e" d="M120.688,203.691a1.872,1.872,0,0,1,.608-.131,7.525,7.525,0,0,1,1.786-.038,9.615,9.615,0,0,1,5.923,2.723,9.936,9.936,0,0,1-.049,14.235,9.959,9.959,0,0,1-11.764,1.6,9.939,9.939,0,0,1-3.841-13.71,9.61,9.61,0,0,1,4.982-4.2,7.511,7.511,0,0,1,1.732-.44,1.908,1.908,0,0,1,.622-.036c.015.083-.845.167-2.24.758a9.634,9.634,0,0,0-4.617,4.19,9.4,9.4,0,0,0-.074,8.938,9.215,9.215,0,0,0,3.8,3.828,9.259,9.259,0,0,0,10.868-1.475,9.2,9.2,0,0,0,2.643-4.7,9.4,9.4,0,0,0-2.453-8.6,9.637,9.637,0,0,0-5.567-2.81C121.547,203.627,120.695,203.775,120.688,203.691Z" transform="translate(-112.008 -203.489)"/></g><path class="e" d="M129.512,196.316a1.435,1.435,0,0,1-.143-.3l-.389-.952-1.49-3.8.133.08-8.914,1.282.171-.178c-.136,1.646-.286,3.47-.447,5.423l-.011.136-.129.055a21.947,21.947,0,0,0-5,2.948l-.122.1-.142-.065-4.963-2.237.336-.086-5.429,7.183-.01-.382,3.508,4.162.126.149-.074.181a21.78,21.78,0,0,0-1.465,5.595l-.024.2-.192.072L99.748,217.8l.223-.372c.385,2.8.8,5.825,1.226,8.921l-.327-.313,5.419.47.223.02.087.208a21.89,21.89,0,0,0,2.913,4.982l.14.18-.094.208c-.706,1.553-1.477,3.245-2.255,4.956l-.115-.462,7.169,5.449-.483.013,4.171-3.5.181-.152.218.09a21.765,21.765,0,0,0,5.571,1.472h0l.319.251v0l0,.011.007.02.015.039.029.08.06.162.119.32.239.642.479,1.278.948,2.54-.417-.249,8.926-1.208-.333.348q.242-2.736.48-5.421l.021-.23.213-.088a21.753,21.753,0,0,0,4.988-2.9l.181-.14.206.1,4.952,2.262-.451.114q2.8-3.665,5.464-7.158l.01.448q-1.776-2.128-3.488-4.179l-.136-.163.081-.2a21.754,21.754,0,0,0,1.487-5.585l.027-.2.191-.07,5.1-1.893-.208.347c-.417-3.14-.81-6.1-1.184-8.927l.268.257-5.418-.5-.17-.015-.065-.156a21.831,21.831,0,0,0-2.9-5.022l-.1-.125.065-.139c.829-1.795,1.576-3.412,2.281-4.942l.07.278c-2.759-2.126-5.113-3.94-7.132-5.5l.219-.006-4.2,3.459-.059.049-.069-.03a23.334,23.334,0,0,0-4.2-1.323l-1.071-.212a1.524,1.524,0,0,1-.354-.08,2.024,2.024,0,0,1,.364.015c.24.025.6.067,1.086.15a21.033,21.033,0,0,1,4.275,1.218l-.128.02,4.14-3.535.105-.09.112.086c2.039,1.531,4.415,3.317,7.2,5.409l.146.11-.076.17c-.691,1.536-1.423,3.161-2.234,4.963l-.031-.263a22.3,22.3,0,0,1,3.014,5.121l-.233-.171,5.422.459.237.02.032.237c.39,2.821.8,5.783,1.236,8.92l.035.257-.243.091-5.092,1.917.216-.274a22.379,22.379,0,0,1-1.511,5.767l-.055-.357,3.5,4.165.185.219-.174.229-5.443,7.173-.18.237-.271-.124-4.956-2.252.389-.045a22.452,22.452,0,0,1-5.158,3.012l.235-.32q-.234,2.684-.473,5.421l-.027.308-.306.042-8.924,1.213-.308.042-.11-.291q-.474-1.266-.949-2.542l-.479-1.278-.239-.64-.121-.322-.059-.16-.031-.08-.014-.041-.008-.02,0-.01,0-.006c.633.5.176.139.316.25h0a22.492,22.492,0,0,1-5.77-1.525l.4-.062-4.174,3.5-.237.2-.246-.187-7.163-5.459-.243-.185.126-.278c.781-1.709,1.555-3.4,2.264-4.95l.045.388a22.563,22.563,0,0,1-3-5.161l.309.226-5.419-.485-.289-.027-.038-.286c-.416-3.1-.82-6.123-1.2-8.927l-.037-.275.26-.1,5.1-1.893-.216.272a22.362,22.362,0,0,1,1.536-5.758l.051.33-3.485-4.182-.157-.19.149-.194q2.882-3.762,5.477-7.148l.135-.178.2.093c1.736.8,3.4,1.569,4.945,2.278l-.263.031a22.364,22.364,0,0,1,5.141-2.966l-.14.191c.184-1.951.354-3.775.508-5.416l.015-.159.156-.021,8.933-1.137.1-.013.032.093,1.35,3.8c.139.409.25.734.338.992A2.016,2.016,0,0,1,129.512,196.316Z" transform="translate(-99.245 -191.084)"/></g><g transform="translate(0 62.164)"><g transform="translate(0.239 0.086)"><path class="f" d="M114.4,238.612a13.914,13.914,0,0,1,3.564.941l2.62-2.195,4.5,3.425-1.417,3.11a13.91,13.91,0,0,1,1.858,3.185l3.4.3.76,5.6-3.2,1.2a13.869,13.869,0,0,1-.942,3.566l2.2,2.62-3.425,4.5-3.11-1.418a13.872,13.872,0,0,1-3.186,1.858l-.3,3.4-5.606.761-1.2-3.2a13.874,13.874,0,0,1-3.565-.941l-2.62,2.195-4.5-3.425,1.418-3.111A13.966,13.966,0,0,1,99.8,257.8l-3.4-.3-.761-5.6,3.2-1.2a13.883,13.883,0,0,1,.942-3.566l-2.2-2.62,3.425-4.5,3.112,1.418a13.8,13.8,0,0,1,3.185-1.858l.3-3.4,5.6-.76,1.2,3.2Zm-2.3,7.781a6.068,6.068,0,1,0,6.828,5.2A6.07,6.07,0,0,0,112.1,246.394Z" transform="translate(-95.634 -235.412)"/></g><g transform="translate(11.256 10.94)"><path class="g" d="M108.93,243.268a1.181,1.181,0,0,1,.382-.081,4.681,4.681,0,0,1,1.122-.024,6.039,6.039,0,0,1,3.72,1.709,6.242,6.242,0,0,1-.031,8.941,6.252,6.252,0,0,1-7.388,1,6.241,6.241,0,0,1-2.413-8.61,6.037,6.037,0,0,1,3.13-2.639,4.638,4.638,0,0,1,1.087-.275,1.165,1.165,0,0,1,.39-.024c.01.052-.531.105-1.407.476a6.045,6.045,0,0,0-2.9,2.633,5.9,5.9,0,0,0-.048,5.613,5.789,5.789,0,0,0,2.387,2.4,5.817,5.817,0,0,0,6.826-.927,5.8,5.8,0,0,0,1.66-2.953,5.9,5.9,0,0,0-1.542-5.4,6.047,6.047,0,0,0-3.5-1.765C109.471,243.228,108.935,243.322,108.93,243.268Z" transform="translate(-103.479 -243.142)"/></g><path class="g" d="M114.473,238.637a.877.877,0,0,1-.091-.191l-.243-.6q-.335-.849-.937-2.386l.084.05-5.6.806.108-.112c-.086,1.034-.18,2.179-.281,3.405l-.007.086-.081.035a13.8,13.8,0,0,0-3.141,1.851l-.076.06-.09-.041L101,240.2l.211-.053c-1.074,1.421-2.213,2.929-3.41,4.511l-.006-.24c.681.81,1.432,1.7,2.2,2.615l.079.093-.048.115a13.669,13.669,0,0,0-.918,3.514l-.015.126-.121.045-3.2,1.2.139-.235c.243,1.76.5,3.658.771,5.6l-.206-.2,3.4.3.14.011.053.131a13.756,13.756,0,0,0,1.83,3.129l.088.114-.059.131-1.416,3.112-.073-.291,4.5,3.422-.3.007,2.619-2.2.114-.1.138.058a13.659,13.659,0,0,0,3.5.924h0c.088.07-.2-.157.2.157v0l0,.007,0,.013.01.025.018.051.038.1.074.2.15.4.3.8c.2.534.4,1.067.6,1.6l-.261-.157,5.6-.758-.208.219q.152-1.719.3-3.4l.014-.146.133-.055a13.625,13.625,0,0,0,3.133-1.823l.114-.089.131.06,3.109,1.421-.284.07q1.759-2.3,3.432-4.5l.006.282-2.191-2.625-.086-.1.051-.122a13.653,13.653,0,0,0,.935-3.508l.015-.128.121-.045,3.2-1.188-.131.218c-.261-1.972-.508-3.834-.744-5.606l.17.162-3.4-.312-.107-.01-.041-.1a13.749,13.749,0,0,0-1.823-3.154l-.059-.077.039-.088c.521-1.126.99-2.143,1.434-3.1l.044.176c-1.733-1.336-3.21-2.476-4.48-3.453l.138,0-2.64,2.171-.038.031-.044-.018a14.538,14.538,0,0,0-2.639-.83l-.673-.133a.879.879,0,0,1-.222-.051,1.268,1.268,0,0,1,.228.01c.152.016.379.042.682.094a13.25,13.25,0,0,1,2.684.764l-.08.013,2.6-2.219.067-.056.07.053,4.522,3.4.091.069-.048.107-1.4,3.116-.02-.164a14.008,14.008,0,0,1,1.893,3.216l-.146-.107,3.4.288.149.013.021.149c.246,1.771.5,3.632.777,5.6l.021.161-.152.058-3.2,1.2.136-.171a14,14,0,0,1-.949,3.622l-.034-.225,2.2,2.616.115.138-.11.145-3.418,4.505-.112.147-.17-.077-3.112-1.414.243-.028a14.11,14.11,0,0,1-3.238,1.892l.146-.2q-.145,1.685-.3,3.4l-.017.192-.192.027-5.6.763-.194.027-.069-.183c-.2-.531-.4-1.062-.6-1.6l-.3-.8-.15-.4-.076-.2-.038-.1-.018-.051-.01-.025,0-.013,0-.006v0c.4.314.11.087.2.157h0a14.116,14.116,0,0,1-3.624-.958l.25-.039-2.622,2.2-.149.125-.154-.118-4.5-3.428-.153-.117.079-.174c.491-1.073.977-2.136,1.423-3.109l.028.243a14.091,14.091,0,0,1-1.885-3.241l.194.143-3.4-.3-.183-.017-.024-.18c-.261-1.946-.515-3.845-.751-5.606l-.022-.174.163-.06,3.2-1.189-.136.173a14.093,14.093,0,0,1,.965-3.617l.032.208L97.5,244.664l-.1-.119.093-.122q1.809-2.361,3.439-4.488l.086-.112.126.059,3.1,1.43-.166.02a14,14,0,0,1,3.23-1.862l-.088.119.319-3.4.01-.1.1-.013,5.61-.713.063-.008.02.058q.548,1.538.848,2.384l.212.622A1.326,1.326,0,0,1,114.473,238.637Z" transform="translate(-95.464 -235.351)"/></g></g><g transform="translate(978.816 1763.848)"><g transform="translate(0 61.066)"><path class="h" d="M1594.479,7316.931l1.352,152.507h-60.411V7319.01Z" transform="translate(-1535.421 -7316.931)"/><g transform="translate(0 1.146)"><path class="d" d="M1561.934,7318.689l.535,151.361h-27.048V7319.623Z" transform="translate(-1535.421 -7318.689)"/></g><g transform="translate(28.544 1.881)"><path class="i" d="M1607.828,7319.817v21.377h-28.615v-20.367Z" transform="translate(-1579.213 -7319.817)"/><g transform="translate(9.709 5.594)"><g transform="translate(0.287)"><path class="b" d="M1603.3,7328.686v3.158h-8.755V7328.4Z" transform="translate(-1594.548 -7328.399)"/></g><g transform="translate(0 6.099)"><rect class="b" width="9.042" height="1.292"/></g></g></g><g transform="translate(28.544 76.792)"><path class="i" d="M1607.828,7434.743v21.376h-28.615v-20.366Z" transform="translate(-1579.213 -7434.743)"/><g transform="translate(9.709 5.594)"><g transform="translate(0.287)"><path class="b" d="M1603.3,7443.612v3.157h-8.755v-3.443Z" transform="translate(-1594.548 -7443.326)"/></g><g transform="translate(0 6.099)"><rect class="b" width="9.042" height="1.292"/></g></g></g><g transform="translate(28.544 25.98)"><path class="i" d="M1607.828,7356.788v21.378h-28.615V7357.8Z" transform="translate(-1579.213 -7356.788)"/><g transform="translate(9.709 5.595)"><g transform="translate(0.287)"><path class="b" d="M1603.3,7365.657v3.158h-8.755v-3.445Z" transform="translate(-1594.548 -7365.37)"/></g><g transform="translate(0 6.099)"><rect class="b" width="9.042" height="1.292"/></g></g></g><g transform="translate(28.544 100.886)"><path class="i" d="M1607.828,7471.707v21.377h-28.615v-20.366Z" transform="translate(-1579.213 -7471.707)"/><g transform="translate(9.996 5.594)"><path class="b" d="M1603.3,7480.576v3.157h-8.755v-3.444Z" transform="translate(-1594.548 -7480.289)"/></g><g transform="translate(9.709 11.693)"><rect class="b" width="9.042" height="1.292"/></g></g><g transform="translate(28.853 124.98)"><path class="i" d="M1608.3,7508.672v21.377h-28.615v-20.368Z" transform="translate(-1579.685 -7508.672)"/><g transform="translate(9.996 5.594)"><path class="b" d="M1603.775,7517.54v3.158h-8.755v-3.445Z" transform="translate(-1595.02 -7517.252)"/></g><g transform="translate(9.709 11.693)"><rect class="b" width="9.042" height="1.292"/></g></g><g transform="translate(28.917 51.576)"><rect class="i" width="28.615" height="21.377"/><g transform="translate(10.328 9.365)"><path class="b" d="M1603.859,7410.693v2.969h-8.229v-3.237Z" transform="translate(-1595.629 -7410.425)"/></g><g transform="translate(10.058 15.098)"><rect class="b" width="8.499" height="1.214"/></g></g></g><g transform="translate(233.024 189.759)"><g transform="translate(2.404 5.21)"><path class="b" d="M1896.607,7522.358v18.634h57.3v-18.634Z" transform="translate(-1896.607 -7522.358)"/></g><path class="i" d="M1892.918,7514.367v5.209h61.713v-5.209h-61.713Z" transform="translate(-1892.918 -7514.367)"/><g transform="translate(29.654)"><path class="i" d="M1939.614,7538.21h28.853v-18.634h2v-5.209h-32.059v4.728Z" transform="translate(-1938.412 -7514.367)"/></g><g transform="translate(10.419 8.215)"><rect class="i" width="11.621" height="2.805"/></g><g transform="translate(8.923 14.526)"><rect class="j" width="14.922" height="5.923"/></g></g><g transform="translate(307.06 165.915)"><g transform="translate(2.404 5.21)"><path class="b" d="M2010.191,7485.778v18.634H2067.5v-18.634Z" transform="translate(-2010.191 -7485.778)"/></g><path class="i" d="M2006.5,7477.786V7483h61.713v-5.209H2006.5Z" transform="translate(-2006.503 -7477.786)"/><g transform="translate(29.654)"><path class="i" d="M2053.2,7501.629h28.853V7483h2v-5.209H2052v4.728Z" transform="translate(-2051.997 -7477.786)"/></g><g transform="translate(10.419 8.215)"><rect class="i" width="11.621" height="2.805"/></g><g transform="translate(8.923 14.526)"><rect class="j" width="14.922" height="5.923"/></g></g><g transform="translate(304.317 189.759)"><g transform="translate(2.404 5.21)"><path class="b" d="M2005.982,7522.358v18.634h57.3v-18.634Z" transform="translate(-2005.982 -7522.358)"/></g><path class="i" d="M2002.293,7514.367v5.209h61.713v-5.209h-61.713Z" transform="translate(-2002.293 -7514.367)"/><g transform="translate(29.654)"><path class="i" d="M2048.99,7538.21h28.853v-18.634h2v-5.209h-32.059v4.728Z" transform="translate(-2047.787 -7514.367)"/></g><g transform="translate(10.419 8.215)"><rect class="i" width="11.621" height="2.805"/></g><g transform="translate(8.923 14.526)"><rect class="j" width="14.922" height="5.923"/></g></g><g transform="translate(116.584 2.4)"><g transform="translate(2.902 30.333)"><path class="k" d="M1718.742,7279.071l4.6,78.473a5.3,5.3,0,0,0,5.275,4.989l141.245.431a5.3,5.3,0,0,0,5.316-5.283l.187-61.1a5.3,5.3,0,0,0-5.318-5.315l-86.866.295a5.3,5.3,0,0,1-3.749-1.536l-15.052-14.916a5.3,5.3,0,0,0-3.714-1.536l-36.62-.11A5.3,5.3,0,0,0,1718.742,7279.071Z" transform="translate(-1718.733 -7273.462)"/><path class="l" d="M1718.742,7279.071l4.6,78.473a5.3,5.3,0,0,0,5.275,4.989l141.245.431a5.3,5.3,0,0,0,5.316-5.283l.187-61.1a5.3,5.3,0,0,0-5.318-5.315l-86.866.295a5.3,5.3,0,0,1-3.749-1.536l-15.052-14.916a5.3,5.3,0,0,0-3.714-1.536l-36.62-.11A5.3,5.3,0,0,0,1718.742,7279.071Z" transform="translate(-1718.733 -7273.462)"/></g><g transform="translate(4.303 0.828)"><rect class="j" width="76.65" height="61.28" transform="matrix(0.606, -0.795, 0.795, 0.606, 0.213, 60.975)"/><path class="e" d="M1767.543,7228.2s-.073.106-.216.3l-.643.859c-.572.761-1.413,1.874-2.506,3.321l-9.473,12.5-33.487,44.085-.029-.213,48.753,37.116.005,0-.238.033c17.2-22.568,33.193-43.542,46.47-60.958l.027.2c-14.667-11.211-26.824-20.5-35.322-27l-9.855-7.552-2.594-2c-.587-.453-.891-.7-.891-.7s.3.217.886.656l2.592,1.953c2.281,1.729,5.619,4.255,9.874,7.476l35.481,26.937.112.087-.085.112c-13.265,17.426-29.237,38.412-46.425,60.99l-.1.135-.135-.1-.005-.005L1721,7289.291l-.121-.092.092-.122,33.668-44.07c4.087-5.338,7.31-9.548,9.517-12.429,1.1-1.427,1.942-2.525,2.517-3.274l.647-.834C1767.468,7228.284,1767.543,7228.2,1767.543,7228.2Z" transform="translate(-1720.882 -7228.195)"/><rect class="e" width="71.265" height="53.564" transform="matrix(0.606, -0.795, 0.795, 0.606, 4.883, 61.211)"/><path class="m" d="M1787.653,7342.646l-11.4-39.977,25.914.358-2.521-15.067,31.194-2Z" transform="translate(-1740.16 -7248.308)"/><g transform="translate(36.437 31.894)"><g transform="translate(0 0)"><circle class="m" cx="5.611" cy="5.611" r="5.611" transform="translate(0 1.517) rotate(-7.768)"/></g></g></g><g transform="translate(57.579)"><rect class="j" width="85.292" height="106.686" transform="matrix(0.041, -0.999, 0.999, 0.041, 0.176, 85.378)"/><path class="e" d="M1912.894,7231.468s-.175,0-.51-.012-.837-.03-1.49-.052l-5.78-.221c-5.052-.2-12.441-.487-21.811-.856l-77.012-3.092.158-.145c-1.039,25.362-2.229,54.44-3.488,85.21v.009l-.163-.177,106.594,4.415-.146.135c1.086-25.682,1.987-46.969,2.617-61.842l.746-17.259c.089-1.99.157-3.512.2-4.546s.079-1.568.079-1.568-.01.519-.048,1.539-.095,2.543-.17,4.52c-.155,3.976-.382,9.8-.673,17.231-.595,14.895-1.447,36.214-2.475,61.936l-.005.141-.141-.006-106.6-4.357-.169-.006.006-.17v-.008c1.272-30.77,2.474-59.849,3.523-85.21l.007-.153.152.007,77.1,3.247,21.773.937,5.748.254,1.472.07C1912.731,7231.456,1912.894,7231.468,1912.894,7231.468Z" transform="translate(-1802.616 -7226.924)"/><rect class="m" width="74.554" height="99.191" transform="translate(4.072 80.165) rotate(-87.644)"/><path class="e" d="M1808.863,7325.938l36.52-44.877,20.251,29.85,15.181-14.887,27.155,33.993Z" transform="translate(-1804.791 -7245.774)"/><g transform="translate(54.237 21.22)"><g transform="translate(0 0)"><circle class="e" cx="7.81" cy="7.81" r="7.81" transform="translate(0 15.242) rotate(-77.36)"/></g></g></g><g transform="translate(23.278 16.26)"><path class="a" d="M1902.587,7290.1l-144.391,19.88,15.289,105.753,143.209-20.173Z" transform="translate(-1752.849 -7265.181)"/><path class="i" d="M1904.327,7269.857l-142.72,29.583L1784,7403.921l141.521-29.8Z" transform="translate(-1754.037 -7258.134)"/><path class="j" d="M1887.788,7251.872,1750.3,7300.246,1786.44,7400.8l136.275-48.425Z" transform="translate(-1750.099 -7251.872)"/><g transform="translate(0 0)"><path class="e" d="M1887.682,7251.872c.376,1.078,13.819,39.6,35.059,100.458l.045.129-.13.047-136.264,48.455-.16.056-.057-.16-.263-.732-35.866-99.827-.053-.146.147-.053,137.542-48.228-137.441,48.52.094-.2c10.815,30.073,23.022,64.015,35.9,99.816l.263.734-.216-.1,136.286-48.4-.084.176C1901.4,7291.5,1888.056,7252.95,1887.682,7251.872Z" transform="translate(-1749.993 -7251.872)"/></g><g transform="translate(113.004 19.493)"><path class="e" d="M1951.918,7358.73c-.264.1-6.869-17.05-14.751-38.3s-14.062-38.558-13.8-38.655,6.867,17.047,14.752,38.3S1952.182,7358.633,1951.918,7358.73Z" transform="translate(-1923.361 -7281.777)"/></g><g transform="translate(101.262 24.86)"><path class="e" d="M1933.9,7366.964c-.264.1-6.869-17.05-14.751-38.3s-14.062-38.558-13.8-38.657,6.867,17.047,14.753,38.3S1934.167,7366.867,1933.9,7366.964Z" transform="translate(-1905.346 -7290.01)"/></g><g transform="translate(64.805 40.13)"><path class="e" d="M1877.973,7390.391c-.264.1-6.869-17.052-14.751-38.3s-14.062-38.558-13.8-38.655,6.867,17.047,14.753,38.3S1878.236,7390.293,1877.973,7390.391Z" transform="translate(-1849.416 -7313.437)"/></g><g transform="translate(76.425 35.451)"><path class="e" d="M1895.8,7383.212c-.263.1-6.869-17.05-14.751-38.3s-14.062-38.558-13.8-38.655,6.868,17.047,14.753,38.3S1896.063,7383.115,1895.8,7383.212Z" transform="translate(-1867.241 -7306.259)"/></g><g transform="translate(88.044 30.772)"><path class="e" d="M1913.625,7376.035c-.264.1-6.869-17.051-14.752-38.3s-14.061-38.558-13.8-38.656,6.867,17.047,14.752,38.3S1913.889,7375.937,1913.625,7376.035Z" transform="translate(-1885.068 -7299.081)"/></g><g transform="translate(51.346 44.003)"><path class="e" d="M1857.323,7396.333c-.263.1-6.869-17.052-14.751-38.3s-14.061-38.558-13.8-38.657,6.867,17.047,14.753,38.3S1857.587,7396.234,1857.323,7396.333Z" transform="translate(-1828.766 -7319.378)"/></g><g transform="translate(38.474 48.723)"><path class="e" d="M1837.576,7403.575c-.263.1-6.869-17.051-14.751-38.3s-14.062-38.559-13.8-38.656,6.868,17.047,14.753,38.3S1837.84,7403.477,1837.576,7403.575Z" transform="translate(-1809.018 -7326.621)"/></g><g transform="translate(25.602 53.443)"><path class="e" d="M1817.828,7410.816c-.264.1-6.869-17.051-14.751-38.3s-14.062-38.558-13.8-38.655,6.868,17.047,14.753,38.3S1818.092,7410.718,1817.828,7410.816Z" transform="translate(-1789.27 -7333.862)"/></g></g><path class="k" d="M1714.305,7345.929l11.489,96.2a3.406,3.406,0,0,0,3.373,3l150.4.46a3.41,3.41,0,0,0,3.407-3.13l7.865-96.145a3.407,3.407,0,0,0-3.386-3.685l-169.756-.518A3.408,3.408,0,0,0,1714.305,7345.929Z" transform="translate(-1714.28 -7267.033)"/></g><g transform="translate(275.203 10.145)"><path class="n" d="M1993.919,7306.807l-5.07,3.63,2.955,14.536,6.664-5.945Z" transform="translate(-1968.498 -7262.484)"/><g transform="translate(22.67)"><path class="m" d="M1998.4,7469.054l21.087-10.245,27.052,3.247a8.812,8.812,0,0,1,3.4,5.612,2.871,2.871,0,0,1-.307,2.13,2.7,2.7,0,0,1-2.86.7,25,25,0,0,0-2.994-.894c-2.012-.239-3.87,1.049-5.382,2.4s-3.018,2.889-4.994,3.339a7.655,7.655,0,0,1-5.147-.959c-1.58-.827-2.99-1.941-4.532-2.835a15.272,15.272,0,0,0-9.524-2.117c-2.625.342-5.087,1.492-7.7,1.907s-6.673-.047-8.092-2.283" transform="translate(-1994.492 -7315.409)"/><g transform="translate(7.055 81.046)"><g transform="translate(5.048)"><path class="o" d="M2053.049,7477.587s-17.274-58.89-17.6-60.775c-.3-1.7,2.4-42.959,3.6-53.664l-19.026.16-.007.179-9.043.223,4.052,117.132,11.7.9-.078-38.646c7.379,18.636,15.929,39.416,15.929,39.416Z" transform="translate(-2010.974 -7363.147)"/><g transform="translate(7.625 50.966)"><path class="n" d="M2023.006,7441.338c.036,0-.035.459-.079,1.284a25.517,25.517,0,0,0,.052,3.49,32.079,32.079,0,0,0,.853,5.1,50.805,50.805,0,0,0,2.062,6c1.6,4.229,3.036,8.063,4.054,10.846.486,1.351.887,2.465,1.189,3.3a8.609,8.609,0,0,1,.388,1.229,8.253,8.253,0,0,1-.525-1.177l-1.3-3.26c-1.083-2.758-2.554-6.579-4.157-10.807-.4-1.058-.787-2.092-1.163-3.09a28.474,28.474,0,0,1-.885-2.961,29.964,29.964,0,0,1-.781-5.166,21.2,21.2,0,0,1,.067-3.521,9.409,9.409,0,0,1,.142-.946A1.1,1.1,0,0,1,2023.006,7441.338Z" transform="translate(-2022.672 -7441.338)"/></g><g transform="translate(11.615 69.395)"><path class="n" d="M2032.879,7494.2c.021-.357.267-13.1.267-13.1s-4.24-11.833-4.35-11.473S2032.879,7494.2,2032.879,7494.2Z" transform="translate(-2028.794 -7469.61)"/></g></g><g transform="translate(0 116.309)"><g transform="translate(0.037)"><path class="k" d="M2011.687,7542.9l.032-1.317,12.4.249-.06,4.344-.767.035c-3.411.128-17.352.412-19.618-.32C2001.152,7545.076,2011.687,7542.9,2011.687,7542.9Z" transform="translate(-2003.288 -7541.584)"/><g class="p" transform="translate(16.3 0.946)"><path class="j" d="M2028.295,7546.5a4.281,4.281,0,0,1,1.623-2.6,4.166,4.166,0,0,1,2.9-.847l-.059,3.452Z" transform="translate(-2028.295 -7543.035)"/></g></g><g transform="translate(0 2.563)"><path class="q" d="M2006.516,7545.515s-3.7,1-3.249,1.609,14.547.857,20.776.421l-.015-.276-16.448-.145S2007.235,7545.559,2006.516,7545.515Z" transform="translate(-2003.23 -7545.515)"/></g><g transform="translate(0.037 3.961)"><path class="e" d="M2024.242,7548.012a1.232,1.232,0,0,1-.212.02l-.611.025c-.61.017-1.36.035-2.245.058-1.9.036-4.519.05-7.413,0s-5.515-.149-7.409-.247l-2.243-.132-.609-.047a1.072,1.072,0,0,1-.212-.026,1.2,1.2,0,0,1,.214,0l.61.018,2.245.085c1.895.071,4.514.155,7.407.2s5.513.051,7.409.042l2.246-.009c.227,0,.428,0,.611,0A1.2,1.2,0,0,1,2024.242,7548.012Z" transform="translate(-2003.287 -7547.661)"/></g><g transform="translate(3.198 2.409)"><path class="e" d="M2009.289,7547.234a5.112,5.112,0,0,0-.4-1.078,5.035,5.035,0,0,0-.75-.872,1.994,1.994,0,0,1,1.151,1.95Z" transform="translate(-2008.136 -7545.28)"/></g><g transform="translate(7.385 1.538)"><path class="e" d="M2015.2,7544.984c-.035.021-.206-.194-.381-.48s-.289-.537-.253-.56.205.2.381.481S2015.236,7544.963,2015.2,7544.984Z" transform="translate(-2014.56 -7543.943)"/></g><g transform="translate(8.273 1.357)"><path class="e" d="M2016.684,7544.376c-.028.031-.221-.1-.43-.3s-.357-.376-.329-.408.221.1.43.3S2016.712,7544.346,2016.684,7544.376Z" transform="translate(-2015.922 -7543.667)"/></g><g transform="translate(8.397 0.834)"><path class="e" d="M2017.4,7542.942a2.807,2.807,0,1,1-.645-.079A1.46,1.46,0,0,1,2017.4,7542.942Z" transform="translate(-2016.112 -7542.863)"/></g><g transform="translate(8.455 0.081)"><path class="e" d="M2017.665,7541.722a1.823,1.823,0,0,1-1.463.084,57.682,57.682,0,0,0,1.463-.084Z" transform="translate(-2016.202 -7541.709)"/></g><g transform="translate(5.31 0.356)"><path class="e" d="M2013.692,7543.27a2.278,2.278,0,0,1-.793-.02,4.627,4.627,0,0,1-.841-.2,2.3,2.3,0,0,1-.48-.208.434.434,0,0,1-.192-.25.312.312,0,0,1,.126-.315,1.455,1.455,0,0,1,1.793.457,1.425,1.425,0,0,1,.25.534.44.44,0,0,1,.017.214,2.248,2.248,0,0,0-.35-.683,1.422,1.422,0,0,0-.67-.452,1.227,1.227,0,0,0-.947.048c-.128.091-.081.24.058.327a2.308,2.308,0,0,0,.442.2,5.393,5.393,0,0,0,.814.227C2013.39,7543.239,2013.693,7543.246,2013.692,7543.27Z" transform="translate(-2011.377 -7542.131)"/></g><g transform="translate(7.328 0.007)"><path class="e" d="M2014.564,7543.118a.779.779,0,0,1-.082-.553,1.3,1.3,0,0,1,.227-.576.8.8,0,0,1,.668-.393.315.315,0,0,1,.238.37.871.871,0,0,1-.141.353,2.409,2.409,0,0,1-.383.474,1.134,1.134,0,0,1-.459.313c-.014-.019.161-.14.384-.387a2.807,2.807,0,0,0,.34-.47c.112-.167.192-.466-.006-.506-.2-.022-.4.171-.529.328a1.305,1.305,0,0,0-.233.512A2.8,2.8,0,0,0,2014.564,7543.118Z" transform="translate(-2014.472 -7541.595)"/></g><g transform="translate(16.35 0.834)"><path class="e" d="M2032.763,7542.958c0,.028-.353-.04-.912.017a3.871,3.871,0,0,0-3.279,2.522c-.2.526-.222.882-.25.878a.707.707,0,0,1,0-.249,3.215,3.215,0,0,1,.146-.665,3.755,3.755,0,0,1,3.37-2.593,3.211,3.211,0,0,1,.679.03A.7.7,0,0,1,2032.763,7542.958Z" transform="translate(-2028.314 -7542.864)"/></g><g transform="translate(11.196 3.141)"><path class="e" d="M2024.015,7546.447a10.171,10.171,0,0,1-3.609-.029c0-.043.81.02,1.8.026S2024.011,7546.4,2024.015,7546.447Z" transform="translate(-2020.406 -7546.403)"/></g><g transform="translate(16.862 3.218)"><path class="e" d="M2029.462,7546.525c.029.031-.069.171-.154.353s-.134.348-.176.344-.06-.2.04-.408S2029.436,7546.5,2029.462,7546.525Z" transform="translate(-2029.099 -7546.521)"/></g><g transform="translate(17.68 2.097)"><path class="e" d="M2030.831,7544.808c.029.03-.053.156-.182.284s-.259.208-.288.177.053-.157.183-.285S2030.8,7544.779,2030.831,7544.808Z" transform="translate(-2030.354 -7544.802)"/></g><g transform="translate(18.762 1.533)"><path class="e" d="M2032.723,7544.009c-.009.042-.173.039-.355.1s-.315.155-.347.127.074-.2.3-.269S2032.736,7543.972,2032.723,7544.009Z" transform="translate(-2032.014 -7543.936)"/></g><g transform="translate(20.028 1.349)"><path class="e" d="M2034.332,7543.683c.014.039-.057.1-.161.14s-.2.037-.213,0,.058-.1.161-.139S2034.318,7543.645,2034.332,7543.683Z" transform="translate(-2033.957 -7543.654)"/></g></g><g transform="translate(30.303 113.136)"><g transform="translate(0.009)"><path class="k" d="M2056.072,7543.221l-.559-1.193,11.212-5.311,1.885,3.914-.67.373c-3,1.637-15.347,8.11-17.7,8.466C2047.613,7549.867,2056.072,7543.221,2056.072,7543.221Z" transform="translate(-2049.733 -7536.717)"/><g class="p" transform="translate(14.634 0.645)"><path class="j" d="M2072.342,7542.813a4.289,4.289,0,0,1,.29-3.056,4.165,4.165,0,0,1,2.22-2.052l1.487,3.115Z" transform="translate(-2072.185 -7537.706)"/></g></g><g transform="translate(0 3.673)"><path class="q" d="M2052.012,7548.6s-2.864,2.539-2.189,2.889,13.4-5.722,18.781-8.891l-.136-.241-14.785,7.209S2052.674,7548.313,2052.012,7548.6Z" transform="translate(-2049.72 -7542.352)"/></g><g transform="translate(0.011 3.582)"><path class="e" d="M2068.646,7542.213a1.171,1.171,0,0,1-.182.112l-.535.3-1.984,1.054c-1.682.877-4.022,2.061-6.634,3.309s-5,2.327-6.742,3.084q-1.222.524-2.065.882l-.567.231a1.374,1.374,0,0,1-.2.071.966.966,0,0,1,.189-.1l.555-.256,2.046-.926c1.728-.782,4.109-1.875,6.72-3.122s4.956-2.414,6.65-3.27l2.006-1.011c.2-.1.383-.19.548-.27A.947.947,0,0,1,2068.646,7542.213Z" transform="translate(-2049.737 -7542.212)"/></g><g transform="translate(2.148 9.802)"><path class="e" d="M2054.917,7553.007a5.1,5.1,0,0,0-.84-.787,4.973,4.973,0,0,0-1.06-.445,2,2,0,0,1,1.9,1.232Z" transform="translate(-2053.016 -7551.755)"/></g><g transform="translate(5.508 7.162)"><path class="e" d="M2059.2,7548.359c-.022.034-.271-.082-.556-.26s-.5-.354-.476-.388.271.082.555.26S2059.226,7548.323,2059.2,7548.359Z" transform="translate(-2058.171 -7547.705)"/></g><g transform="translate(6.222 6.598)"><path class="e" d="M2060.26,7547.149c-.012.04-.244.007-.517-.073s-.488-.18-.476-.219.244-.006.519.075S2060.272,7547.11,2060.26,7547.149Z" transform="translate(-2059.266 -7546.839)"/></g><g transform="translate(6.125 5.576)"><path class="e" d="M2060.277,7545.278c.019.037-.227.2-.546.352a1.434,1.434,0,0,1-.613.217c-.018-.036.227-.194.546-.352A1.467,1.467,0,0,1,2060.277,7545.278Z" transform="translate(-2059.117 -7545.271)"/></g><g transform="translate(5.855 4.745)"><path class="e" d="M2059.975,7544c.028.027-.195.291-.559.5a1.257,1.257,0,0,1-.713.23,4.086,4.086,0,0,1,.638-.361A4.043,4.043,0,0,1,2059.975,7544Z" transform="translate(-2058.702 -7543.996)"/></g><g transform="translate(3.268 6.559)"><path class="e" d="M2057.165,7547.245a2.334,2.334,0,0,1-.719.337,4.639,4.639,0,0,1-.843.195,2.272,2.272,0,0,1-.523.029.429.429,0,0,1-.283-.138.313.313,0,0,1-.028-.339,1.454,1.454,0,0,1,1.807-.39,1.4,1.4,0,0,1,.462.366c.087.11.119.18.11.185a2.232,2.232,0,0,0-.617-.456,1.438,1.438,0,0,0-.8-.1,1.226,1.226,0,0,0-.826.465c-.074.138.035.251.2.265a2.372,2.372,0,0,0,.484-.02,5.4,5.4,0,0,0,.83-.159C2056.881,7547.351,2057.155,7547.222,2057.165,7547.245Z" transform="translate(-2054.734 -7546.779)"/></g><g transform="translate(5.142 5.411)"><path class="e" d="M2058,7546.755c-.007.013-.2-.119-.32-.458a1.287,1.287,0,0,1-.054-.615.8.8,0,0,1,.422-.651.317.317,0,0,1,.379.225.875.875,0,0,1,.031.378,2.473,2.473,0,0,1-.131.595,1.139,1.139,0,0,1-.272.486c-.021-.011.082-.2.171-.517a2.829,2.829,0,0,0,.1-.574c.026-.2-.037-.5-.232-.449s-.286.333-.327.529a1.3,1.3,0,0,0,.02.562A2.884,2.884,0,0,0,2058,7546.755Z" transform="translate(-2057.609 -7545.018)"/></g><g transform="translate(14.473 0.639)"><path class="e" d="M2074.688,7537.7c.01.026-.333.121-.809.421a3.871,3.871,0,0,0-1.81,3.721c.059.558.2.887.168.9a.725.725,0,0,1-.107-.225,3.257,3.257,0,0,1-.166-.659,3.753,3.753,0,0,1,1.86-3.824,3.315,3.315,0,0,1,.62-.277A.725.725,0,0,1,2074.688,7537.7Z" transform="translate(-2071.923 -7537.697)"/></g><g transform="translate(9.636 5.332)"><path class="e" d="M2067.745,7544.9a6.96,6.96,0,0,1-1.55.938,7.045,7.045,0,0,1-1.693.647c-.015-.042.734-.344,1.627-.781S2067.723,7544.862,2067.745,7544.9Z" transform="translate(-2064.503 -7544.896)"/></g><g transform="translate(14.932 4.287)"><path class="e" d="M2072.758,7543.3c.041.014.014.182.02.385s.036.371,0,.386-.141-.149-.145-.383S2072.721,7543.28,2072.758,7543.3Z" transform="translate(-2072.628 -7543.295)"/></g><g transform="translate(15.159 2.87)"><path class="e" d="M2073.214,7541.122c.039.013.022.163-.037.335s-.139.3-.178.287-.023-.164.037-.336S2073.175,7541.107,2073.214,7541.122Z" transform="translate(-2072.977 -7541.121)"/></g><g transform="translate(15.805 1.822)"><path class="e" d="M2074.513,7539.53c.01.041-.138.111-.274.246s-.213.279-.254.268-.022-.209.149-.374S2074.509,7539.489,2074.513,7539.53Z" transform="translate(-2073.968 -7539.511)"/></g><g transform="translate(16.801 1.211)"><path class="e" d="M2075.779,7538.582c.031.03-.006.118-.082.2s-.161.123-.191.094.007-.115.083-.2S2075.749,7538.556,2075.779,7538.582Z" transform="translate(-2075.496 -7538.574)"/></g></g></g><g transform="translate(0 33.48)"><path class="e" d="M2032.076,7334.419h.006c-5.2-9-6.52-7.946-4.757-13.187l5.08-17.042-2.137-10.7a11.775,11.775,0,0,0-9.007-3.293l-10.612.73s-5.223-1.145-12.915,6.328l-5.328,4.973,6.71,12.732.335,5.772,4.84,15.8L2003,7343.5c-.561,5.3-7.69,66.078-6.723,67.039,1.009,1,15.865-6.434,19.463-3.4s10.842,4.9,14.927,3.594,10.214-9.441,16.4-3.958C2047.067,7406.773,2045.045,7352.853,2032.076,7334.419Z" transform="translate(-1992.407 -7290.173)"/><path class="e" d="M2039.387,7291.335s11.053,2.942,9.422,10.837c-.8,3.882-6.1,11.979-6.1,11.979l-12.528-5.929Z" transform="translate(-2005.558 -7290.578)"/><g transform="translate(8.535 46.772)"><path class="r" d="M2008.25,7364.753a10.261,10.261,0,0,1,1.87-1.321,10.649,10.649,0,0,1,6.017-1.484,8.661,8.661,0,0,1,4.143,1.232,7.985,7.985,0,0,1,3.235,3.749,6.139,6.139,0,0,1,.457,2.68,6.533,6.533,0,0,1-.817,2.712c-.895,1.713-2.3,3.137-3.231,4.885a9.731,9.731,0,0,0-.879,5.614,18.821,18.821,0,0,1-.014,5.483,7.53,7.53,0,0,1-.952,2.4,4.566,4.566,0,0,1-1.756,1.7,3.766,3.766,0,0,1-2.253.383,5.27,5.27,0,0,1-1.965-.748,15.473,15.473,0,0,1-2.692-2.342,25.255,25.255,0,0,0-2.006-1.763,12.393,12.393,0,0,0-1.393-.95c-.333-.2-.52-.277-.513-.293a.551.551,0,0,1,.143.049,4.007,4.007,0,0,1,.4.183,10.539,10.539,0,0,1,1.44.906,23.2,23.2,0,0,1,2.057,1.731,15.675,15.675,0,0,0,2.685,2.273,5.038,5.038,0,0,0,1.877.693,3.493,3.493,0,0,0,2.086-.373,4.279,4.279,0,0,0,1.634-1.607,7.241,7.241,0,0,0,.9-2.31,18.712,18.712,0,0,0-.012-5.393,15.821,15.821,0,0,1,.012-2.916,7.723,7.723,0,0,1,.9-2.88c.966-1.805,2.372-3.225,3.237-4.88a6.23,6.23,0,0,0,.788-2.578,5.851,5.851,0,0,0-.424-2.544,7.732,7.732,0,0,0-3.094-3.625,8.473,8.473,0,0,0-4.009-1.233,10.74,10.74,0,0,0-5.938,1.361,16.3,16.3,0,0,0-1.44.881l-.363.249A.479.479,0,0,1,2008.25,7364.753Z" transform="translate(-2005.501 -7361.929)"/></g><g transform="translate(28.119 60.537)"><path class="r" d="M2060.787,7422.648a.706.706,0,0,1-.171.042l-.508.085c-.447.072-1.107.174-1.959.29a45.143,45.143,0,0,1-7.27.492,22.3,22.3,0,0,1-5-.676,16.64,16.64,0,0,1-5.292-2.353,11.584,11.584,0,0,1-4.142-4.853,10.3,10.3,0,0,1-.557-6.8,8.133,8.133,0,0,1,1.689-3.087,20.261,20.261,0,0,1,2.539-2.256,14.519,14.519,0,0,0,2.339-2.2,6.574,6.574,0,0,0,1.265-2.745,34.067,34.067,0,0,0,.314-5.722,9.717,9.717,0,0,1,4.035-7.971,9.578,9.578,0,0,1,2.8-1.434,8.465,8.465,0,0,1,1.946-.394l.516-.019a.685.685,0,0,1,.175.005,11.319,11.319,0,0,0-2.6.532,9.694,9.694,0,0,0-2.725,1.46,9.552,9.552,0,0,0-3.868,7.83,33.631,33.631,0,0,1-.289,5.779,6.877,6.877,0,0,1-1.315,2.877,14.675,14.675,0,0,1-2.386,2.257,20.055,20.055,0,0,0-2.495,2.222,7.815,7.815,0,0,0-1.616,2.958,9.993,9.993,0,0,0,.535,6.576,11.293,11.293,0,0,0,4.016,4.729,16.418,16.418,0,0,0,5.185,2.338,22.41,22.41,0,0,0,4.936.708,48.746,48.746,0,0,0,7.246-.384l1.966-.226.512-.054A.7.7,0,0,1,2060.787,7422.648Z" transform="translate(-2035.547 -7383.046)"/></g><g transform="translate(5.021 101.953)"><path class="r" d="M2017.377,7461.068c-.006-.009.068-.072.222-.168a3.032,3.032,0,0,0,.629-.438c.231-.23.134-.671-.01-1.118a9.083,9.083,0,0,0-.714-1.469c-.595-1.07-1.291-2.354-2.152-3.717a20.92,20.92,0,0,0-3.258-4.076,12.062,12.062,0,0,0-4.384-2.727,8.654,8.654,0,0,0-4.176-.394,6.064,6.064,0,0,0-2.6,1.113c-.542.41-.8.7-.821.672-.008-.007.05-.084.168-.221a4.914,4.914,0,0,1,.57-.555,5.873,5.873,0,0,1,2.641-1.246,8.682,8.682,0,0,1,4.318.332,12.129,12.129,0,0,1,4.519,2.776,20.4,20.4,0,0,1,3.29,4.156c.855,1.386,1.531,2.686,2.1,3.771a8.754,8.754,0,0,1,.683,1.526,2.983,2.983,0,0,1,.126.688.74.74,0,0,1-.2.575,2.517,2.517,0,0,1-.694.409A1.142,1.142,0,0,1,2017.377,7461.068Z" transform="translate(-2000.109 -7446.586)"/></g><g transform="translate(30.44 33.46)"><path class="r" d="M2045.221,7347.847c.013.012-.079.151-.314.337a2.781,2.781,0,0,1-1.151.508,3.462,3.462,0,0,1-1.866-.156,3.989,3.989,0,0,1-1.8-1.422,5.836,5.836,0,0,1-.953-3.956,4.712,4.712,0,0,1,.365-1.651c.055.011-.084.643-.125,1.666a6.005,6.005,0,0,0,.989,3.743,3.837,3.837,0,0,0,1.635,1.329,3.392,3.392,0,0,0,1.712.211A4.031,4.031,0,0,0,2045.221,7347.847Z" transform="translate(-2039.108 -7341.506)"/></g><g transform="translate(32.096 2.846)"><path class="r" d="M2047.039,7312.743a.749.749,0,0,1-.253.056,3.722,3.722,0,0,1-.742.023,4.85,4.85,0,0,1-2.547-.955,4.589,4.589,0,0,1-1.258-1.432,4.716,4.716,0,0,1-.586-2.111,4.924,4.924,0,0,1,.488-2.372,9.331,9.331,0,0,1,1.579-2.033,4.715,4.715,0,0,0,.708-1.016,2,2,0,0,0,.188-1.125,6.954,6.954,0,0,0-.954-2.087,3.552,3.552,0,0,1-.431-2.153,3.485,3.485,0,0,1,.736-1.767,3.392,3.392,0,0,1,2.408-1.228,2.915,2.915,0,0,1,.744.044.67.67,0,0,1,.248.076,7.76,7.76,0,0,0-.979.011,3.339,3.339,0,0,0-2.232,1.245,3.289,3.289,0,0,0-.218,3.625,6.99,6.99,0,0,1,1.006,2.189,2.321,2.321,0,0,1-.211,1.311,4.917,4.917,0,0,1-.757,1.1,9.248,9.248,0,0,0-1.537,1.957,4.674,4.674,0,0,0-.474,2.215,4.411,4.411,0,0,0,1.679,3.364,4.985,4.985,0,0,0,2.412,1.014C2046.682,7312.763,2047.035,7312.711,2047.039,7312.743Z" transform="translate(-2041.648 -7294.539)"/></g><g transform="translate(5.063 7.705)"><path class="r" d="M2002.685,7321.614a8.744,8.744,0,0,0,1.05.05,4.171,4.171,0,0,0,2.562-1.064,3.841,3.841,0,0,0,1.076-3.794,3.951,3.951,0,0,0-1.282-2.034,8.93,8.93,0,0,1-1.919-1.984,4.484,4.484,0,0,1-.437-2.746c.1-.891.3-1.72.444-2.508a7.6,7.6,0,0,0,.135-2.238,3.38,3.38,0,0,0-.707-1.765,3.829,3.829,0,0,0-2.384-1.388,7.348,7.348,0,0,0-1.049-.039.839.839,0,0,1,.268-.072,3.09,3.09,0,0,1,.8-.02,3.852,3.852,0,0,1,2.554,1.368,3.6,3.6,0,0,1,.8,1.879,7.694,7.694,0,0,1-.107,2.327c-.133.8-.332,1.63-.42,2.49a4.188,4.188,0,0,0,.4,2.544,8.936,8.936,0,0,0,1.851,1.909,4.238,4.238,0,0,1,1.359,2.2,4.069,4.069,0,0,1-1.22,4.048,4.161,4.161,0,0,1-2.718,1.018,3.347,3.347,0,0,1-.792-.089A.913.913,0,0,1,2002.685,7321.614Z" transform="translate(-2000.174 -7301.994)"/></g></g><g transform="translate(2.751)"><path class="m" d="M2017.516,7241.086a7.95,7.95,0,0,1,9.489,7.3c.078,1.25-.077,2.685.806,3.572a9.117,9.117,0,0,0,2.349,1.181,3.593,3.593,0,0,1,1.592,4.3c-.3.781-.873,1.434-1.166,2.218a5.98,5.98,0,0,0-.439,3.659c1.816,6.188-2.571,6.95-4.911,7.363-3.3.581-6.64-.467-6.983-3.918-.11-1.115-2.095-.989-3.206-.844-1.34.173-2.33,1.276-3.308,2.208a11.243,11.243,0,0,1-5.405,3.066,6.432,6.432,0,0,1-5.829-1.579,4.55,4.55,0,0,1-.531-5.749,5.709,5.709,0,0,1-2.161-8.689c.8-1.037,1.962-1.806,2.535-2.984.484-1,1-3.271,1.381-4.313.537-1.477,2.364-4.015,3.777-4.7" transform="translate(-1996.628 -7239.551)"/><g transform="translate(7.464 4.367)"><path class="o" d="M2027.366,7276.5l-12.241.173c-.209-1.411-.624-6.909-.624-6.909s-5.129-.31-5.667-5.358-.755-16.736-.755-16.736h0a17.643,17.643,0,0,1,17.859.558l.8.505Z" transform="translate(-2008.079 -7245.51)"/><g transform="translate(4.156 9.512)"><path class="e" d="M2016.314,7266.193a3.38,3.38,0,0,0-1.148-.133c-.184,0-.331-.03-.354-.127a1,1,0,0,1,.082-.533l.417-1.466a19.423,19.423,0,0,0,.842-3.831,19.484,19.484,0,0,0-1.225,3.726l-.387,1.475a1.169,1.169,0,0,0-.029.767.485.485,0,0,0,.342.261,1.109,1.109,0,0,0,.314.01A3.339,3.339,0,0,0,2016.314,7266.193Z" transform="translate(-2014.455 -7260.103)"/></g><g transform="translate(6.407 21.688)"><path class="n" d="M2017.909,7281.274a11.8,11.8,0,0,0,6.413-2.492s-1.215,3.783-6.3,3.8Z" transform="translate(-2017.909 -7278.782)"/></g></g><g transform="translate(15.807 13.299)"><g transform="translate(0.198 0.803)"><path class="e" d="M2022.461,7261.037a.641.641,0,0,1-.63.633.612.612,0,0,1-.648-.591.642.642,0,0,1,.63-.635A.613.613,0,0,1,2022.461,7261.037Z" transform="translate(-2021.182 -7260.444)"/></g><path class="e" d="M2023.407,7259.911c-.081.081-.559-.287-1.247-.3s-1.2.321-1.274.235c-.036-.037.047-.187.271-.343a1.758,1.758,0,0,1,1.022-.292,1.684,1.684,0,0,1,.991.343C2023.379,7259.722,2023.448,7259.874,2023.407,7259.911Z" transform="translate(-2020.878 -7259.212)"/></g><g transform="translate(8.611 13.404)"><g transform="translate(0.337 0.678)"><path class="e" d="M2011.635,7261a.64.64,0,0,1-.63.633.611.611,0,0,1-.649-.591.639.639,0,0,1,.63-.633A.611.611,0,0,1,2011.635,7261Z" transform="translate(-2010.356 -7260.414)"/></g><path class="e" d="M2012.369,7260.073c-.082.082-.56-.288-1.249-.3s-1.2.323-1.274.237c-.036-.039.048-.188.272-.343a1.743,1.743,0,0,1,1.022-.293,1.678,1.678,0,0,1,.992.343C2012.34,7259.884,2012.409,7260.037,2012.369,7260.073Z" transform="translate(-2009.839 -7259.374)"/></g><path class="n" d="M2019.028,7271.25a1.334,1.334,0,0,1-.11-.511.455.455,0,0,1,.272-.417c.12-.041.261-.013.367-.083.145-.095.142-.3.223-.457a.562.562,0,0,1,.607-.245,1.2,1.2,0,0,1,.59.362,1.066,1.066,0,0,1,.363.7.831.831,0,0,1-.38.664,1.754,1.754,0,0,1-.746.258,4.084,4.084,0,0,1-.86.035.567.567,0,0,1-.241-.055.215.215,0,0,1-.12-.2" transform="translate(-2004.388 -7249.504)"/><g transform="translate(14.139 19.889)"><path class="n" d="M2018.319,7271.283a3.258,3.258,0,0,0,2.623-1.958" transform="translate(-2018.319 -7269.323)"/><path class="e" d="M2020.943,7269.323a2.5,2.5,0,0,1-2.623,1.958,11.96,11.96,0,0,0,1.474-.76C2020.528,7269.984,2020.851,7269.285,2020.943,7269.323Z" transform="translate(-2018.319 -7269.322)"/></g><g transform="translate(8.629 11.628)"><path class="n" d="M2009.888,7257.435a2.933,2.933,0,0,1,1.889-.209" transform="translate(-2009.874 -7256.825)"/><path class="e" d="M2011.77,7257.048c-.051.184-.461.229-.924.286s-.875.093-.965-.075.282-.533.89-.6S2011.824,7256.873,2011.77,7257.048Z" transform="translate(-2009.867 -7256.649)"/></g><g transform="translate(15.737 11.76)"><path class="n" d="M2020.781,7257.56a3.589,3.589,0,0,1,2.667.145" transform="translate(-2020.774 -7257.032)"/><path class="e" d="M2023.445,7257.524c-.091.171-.658.04-1.338.008s-1.258.026-1.329-.153.52-.571,1.366-.524S2023.539,7257.37,2023.445,7257.524Z" transform="translate(-2020.771 -7256.851)"/></g><path class="m" d="M2018.262,7240.247a4.044,4.044,0,0,0-2.9-1.383,9.508,9.508,0,0,0-8.671,3.927c-1.117,1.6-1.68,3.837-.636,5.488a3.415,3.415,0,0,0,6.164-.857,2.853,2.853,0,1,0,5.7-.256,5.179,5.179,0,0,0,1.813,2.594,2,2,0,0,0,2.8-.533c.572.679,1.377,1.372,2.238,1.161a1.743,1.743,0,0,0,1.165-1.748,4.481,4.481,0,0,0-.74-2.117c-1.672-2.907-4.137-5.58-7.373-6.463" transform="translate(-1999.719 -7238.81)"/><path class="m" d="M2030.254,7250.037a9.1,9.1,0,0,1,.068,8.808,14.912,14.912,0,0,0-1.388,2.555,2.416,2.416,0,0,0,.594,2.665c.477.356,1.206.534,1.319,1.12a1.605,1.605,0,0,1-.18.856,5.8,5.8,0,0,0-.153,3.673,3.17,3.17,0,0,0,2.166,2.63c.942.421,1.453,1.138,3.493.614,3.573-.919,2.31-8.9,1.978-12.574s-2.045-10.216-4.106-13.275" transform="translate(-2007.823 -7241.699)"/><path class="o" d="M2017.4,7288.732s-3.7,13.823-1.343,12.455,13.814-10.473,13.814-10.473l-5.792-4.37Z" transform="translate(-2003.119 -7255.361)"/></g></g><g transform="translate(0 47.953)"><path class="o" d="M1962.464,7321.607c-.41-1.354-5.532-4.144-4.757-4.9,1.009-.979,5.214,3.156,5.6,3.478s.847-.228.488-.5c-.516-.393-5.84-4.65-4.857-5.624.545-.539,1.4.559,1.4.559s4.7,4.358,5.146,3.884-2.218-3.137-3.181-3.967-.96-1.615-.258-1.745c.478-.089,3.486,2.383,4.42,3.227s3.455,3.2,3.13,1c0-.034-.005-.065-.01-.1-.379-2.155.042-3.939.516-4.372a.756.756,0,0,1,1.218.6.781.781,0,0,1-.018.318c-.012.046-.018.11-.028.163a10.922,10.922,0,0,0,.143,2.235,5.867,5.867,0,0,0,.615,1.9c.362.688.7,1.266,1,1.744,3.426,1.9,13.281,6.922,23.162,7.709,1.784.143,9.667-12.3,9.667-12.3l11.714,5.542a114.111,114.111,0,0,1-9.337,14.727c-9.887,13.438-40.8-8.955-40.8-8.955h0l-.29-.143a71.535,71.535,0,0,1-6.831-3.857c-2.658-1.878-2.5-2.124-2.234-2.4C1958.788,7319.086,1962.874,7322.96,1962.464,7321.607Z" transform="translate(-1957.628 -7312.377)"/></g></g><g transform="translate(33.929)"><g transform="translate(0 93.836)"><g transform="translate(57.968 111.416)"><g transform="translate(0.134)"><path class="m" d="M1686.692,7543.483l-.062-5.348-10.019.052.009,7.826.621.037c2.766.139,14.071.513,15.915-.058C1695.215,7545.356,1686.692,7543.483,1686.692,7543.483Z" transform="translate(-1676.611 -7538.136)"/></g><g transform="translate(0 7.577)"><path class="e" d="M1676.405,7549.833a1.047,1.047,0,0,0,.173.017l.495.027c.495.02,1.1.042,1.821.07,1.538.049,3.664.087,6.012.079s4.475-.065,6.013-.124l1.821-.083.495-.034a.864.864,0,0,0,.172-.018.975.975,0,0,0-.173-.005l-.5.009-1.821.045c-1.538.038-3.663.079-6.011.089s-4.472-.017-6.01-.044l-1.822-.031c-.184,0-.347,0-.5,0A.9.9,0,0,0,1676.405,7549.833Z" transform="translate(-1676.405 -7549.761)"/></g><g transform="translate(13.48 6.288)"><path class="e" d="M1697.1,7549.356a4.171,4.171,0,0,1,.337-.871,3.986,3.986,0,0,1,.617-.7,1.616,1.616,0,0,0-.954,1.57Z" transform="translate(-1697.086 -7547.783)"/></g><g transform="translate(10.53 5.538)"><path class="e" d="M1692.565,7547.47c.029.018.17-.155.314-.387s.24-.432.211-.45-.169.156-.314.387S1692.537,7547.451,1692.565,7547.47Z" transform="translate(-1692.56 -7546.631)"/></g><g transform="translate(9.72 5.382)"><path class="e" d="M1691.32,7546.962c.022.024.18-.082.352-.238s.293-.3.271-.327-.18.082-.352.237S1691.3,7546.938,1691.32,7546.962Z" transform="translate(-1691.317 -7546.394)"/></g><g transform="translate(9.205 4.95)"><path class="e" d="M1690.527,7545.787a1.2,1.2,0,0,0,.524.064,1.169,1.169,0,0,0,.523-.058,1.188,1.188,0,0,0-.523-.063A1.151,1.151,0,0,0,1690.527,7545.787Z" transform="translate(-1690.527 -7545.73)"/></g><g transform="translate(9.025 4.331)"><path class="e" d="M1690.252,7544.791a1.018,1.018,0,0,0,.584.167,1.008,1.008,0,0,0,.6-.083,3.447,3.447,0,0,0-.593-.038A3.294,3.294,0,0,0,1690.252,7544.791Z" transform="translate(-1690.252 -7544.781)"/></g><g transform="translate(10.871 4.593)"><path class="e" d="M1693.083,7546.09a1.874,1.874,0,0,0,.644-.007,3.705,3.705,0,0,0,.685-.155,1.853,1.853,0,0,0,.391-.162.346.346,0,0,0,.158-.2.252.252,0,0,0-.1-.257,1.191,1.191,0,0,0-1.667.782.366.366,0,0,0-.016.175,1.82,1.82,0,0,1,.291-.551,1.167,1.167,0,0,1,.548-.36,1,1,0,0,1,.768.049c.1.075.063.2-.05.263a1.879,1.879,0,0,1-.361.158,4.558,4.558,0,0,1-.662.175C1693.329,7546.068,1693.083,7546.07,1693.083,7546.09Z" transform="translate(-1693.083 -7545.183)"/></g><g transform="translate(10.193 4.287)"><path class="e" d="M1692.889,7545.958a.644.644,0,0,0,.072-.448,1.052,1.052,0,0,0-.178-.47.645.645,0,0,0-.537-.326.256.256,0,0,0-.2.3.709.709,0,0,0,.111.287,1.965,1.965,0,0,0,.306.389.948.948,0,0,0,.37.259c.011-.017-.129-.116-.308-.319a2.206,2.206,0,0,1-.271-.385c-.089-.136-.151-.38.011-.41s.326.144.426.271a1.058,1.058,0,0,1,.184.419A2.355,2.355,0,0,1,1692.889,7545.958Z" transform="translate(-1692.043 -7544.714)"/></g><g transform="translate(0.192 4.836)"><path class="e" d="M1676.7,7545.625c0,.023.287-.028.74.023a3.135,3.135,0,0,1,2.634,2.079c.155.43.171.718.194.715a.557.557,0,0,0,0-.2,2.586,2.586,0,0,0-.111-.54,3.048,3.048,0,0,0-2.707-2.138,2.566,2.566,0,0,0-.551.017A.582.582,0,0,0,1676.7,7545.625Z" transform="translate(-1676.7 -7545.556)"/></g><g transform="translate(1.131 0.732)"><path class="e" d="M1678.22,7539.259a34.743,34.743,0,0,0-.033,4.117,17.3,17.3,0,0,0,.078-2.058A17.622,17.622,0,0,0,1678.22,7539.259Z" transform="translate(-1678.141 -7539.259)"/></g><g transform="translate(5.031 6.785)"><path class="e" d="M1684.123,7548.559a5.769,5.769,0,0,0,1.463.138,5.7,5.7,0,0,0,1.464-.124c0-.035-.657.007-1.464,0S1684.127,7548.523,1684.123,7548.559Z" transform="translate(-1684.123 -7548.546)"/></g><g transform="translate(3.063 6.8)"><path class="e" d="M1681.109,7548.573c-.024.024.054.138.122.288s.1.284.139.28.051-.159-.029-.33S1681.13,7548.548,1681.109,7548.573Z" transform="translate(-1681.104 -7548.569)"/></g><g transform="translate(2.318 5.881)"><path class="e" d="M1679.966,7547.165c-.023.024.042.127.145.232s.208.17.232.146-.042-.128-.146-.232S1679.99,7547.14,1679.966,7547.165Z" transform="translate(-1679.962 -7547.16)"/></g><g transform="translate(1.262 5.412)"><path class="e" d="M1678.342,7546.5c.007.034.14.032.287.083s.254.129.28.107-.058-.163-.241-.222S1678.331,7546.467,1678.342,7546.5Z" transform="translate(-1678.341 -7546.439)"/></g><g transform="translate(0.506 5.252)"><path class="e" d="M1677.183,7546.216c-.013.032.045.083.129.115s.16.032.172,0-.046-.082-.129-.114S1677.195,7546.185,1677.183,7546.216Z" transform="translate(-1677.181 -7546.193)"/></g></g><g transform="translate(0 99.156)"><path class="m" d="M1597.321,7529.222l2.83-4.539-8.468-5.355-4.21,6.6.5.366c2.255,1.608,11.576,8.015,13.437,8.529C1603.49,7535.392,1597.321,7529.222,1597.321,7529.222Z" transform="translate(-1587.473 -7519.327)"/><g transform="translate(0.003 6.325)"><path class="e" d="M1587.478,7529.029a.845.845,0,0,0,.135.109c.121.088.253.183.4.289q.61.427,1.5,1.041c1.27.871,3.04,2.048,5.023,3.306s3.8,2.359,5.132,3.137l1.578.911c.161.089.3.167.434.24a1.1,1.1,0,0,0,.155.076.817.817,0,0,0-.143-.1c-.127-.079-.265-.165-.422-.26l-1.559-.943c-1.316-.8-3.128-1.908-5.11-3.165s-3.758-2.423-5.04-3.275q-.9-.6-1.517-1.008l-.415-.271A1.015,1.015,0,0,0,1587.478,7529.029Z" transform="translate(-1587.478 -7529.029)"/></g><g transform="translate(11.256 12.939)"><path class="e" d="M1604.745,7540.019a4.07,4.07,0,0,1,.752-.553,4.025,4.025,0,0,1,.9-.256,1.618,1.618,0,0,0-1.65.809Z" transform="translate(-1604.742 -7539.178)"/></g><g transform="translate(9.563 10.503)"><path class="e" d="M1602.144,7535.87a1.074,1.074,0,0,0,.473-.156c.247-.116.435-.236.421-.266s-.226.04-.473.156S1602.13,7535.839,1602.144,7535.87Z" transform="translate(-1602.144 -7535.442)"/></g><g transform="translate(9.108 9.973)"><path class="e" d="M1601.446,7534.789c.006.033.2.028.424-.01s.41-.1.4-.131-.2-.028-.424.011S1601.441,7534.756,1601.446,7534.789Z" transform="translate(-1601.446 -7534.626)"/></g><g transform="translate(9.179 9.057)"><path class="e" d="M1601.557,7533.226c-.019.028.163.179.406.336s.454.263.472.234-.163-.178-.406-.335S1601.575,7533.2,1601.557,7533.226Z" transform="translate(-1601.556 -7533.221)"/></g><g transform="translate(9.386 8.403)"><path class="e" d="M1601.875,7532.221c-.025.018.128.252.4.455a1.027,1.027,0,0,0,.552.255c.014-.033-.22-.158-.479-.352S1601.9,7532.2,1601.875,7532.221Z" transform="translate(-1601.873 -7532.219)"/></g><g transform="translate(10.306 10.114)"><path class="e" d="M1603.3,7535.1a1.877,1.877,0,0,0,.547.34,3.683,3.683,0,0,0,.66.24,1.858,1.858,0,0,0,.418.073.347.347,0,0,0,.241-.083.254.254,0,0,0,.056-.27,1.179,1.179,0,0,0-1.418-.489,1.161,1.161,0,0,0-.408.25c-.08.08-.112.133-.107.137a1.82,1.82,0,0,1,.542-.305,1.159,1.159,0,0,1,.656-.008,1,1,0,0,1,.62.454c.046.119-.052.2-.184.2a1.923,1.923,0,0,1-.388-.064,4.2,4.2,0,0,1-.653-.208C1603.515,7535.219,1603.307,7535.087,1603.3,7535.1Z" transform="translate(-1603.284 -7534.843)"/></g><g transform="translate(10.181 9.078)"><path class="e" d="M1603.354,7534.667c0,.011.172-.078.3-.338a1.064,1.064,0,0,0,.1-.492.649.649,0,0,0-.278-.564.257.257,0,0,0-.327.145.705.705,0,0,0-.061.3,1.926,1.926,0,0,0,.048.49.945.945,0,0,0,.172.418c.018-.007-.047-.166-.088-.434a2.313,2.313,0,0,1-.021-.47c0-.161.078-.4.23-.339s.2.3.212.458a1.053,1.053,0,0,1-.069.451A2.422,2.422,0,0,1,1603.354,7534.667Z" transform="translate(-1603.093 -7533.254)"/></g><g transform="translate(1.642 4.117)"><path class="e" d="M1589.993,7525.645c-.01.021.257.132.611.419a3.136,3.136,0,0,1,1.1,3.17c-.1.445-.242.7-.222.706s.048-.054.109-.171a2.642,2.642,0,0,0,.2-.514,3.043,3.043,0,0,0-1.129-3.259,2.685,2.685,0,0,0-.473-.283A.619.619,0,0,0,1589.993,7525.645Z" transform="translate(-1589.993 -7525.644)"/></g><g transform="translate(2.502 1.152)"><path class="e" d="M1593.561,7521.1a17.106,17.106,0,0,0-1.175,1.691,17.537,17.537,0,0,0-1.073,1.758,17.2,17.2,0,0,0,1.175-1.692A17.6,17.6,0,0,0,1593.561,7521.1Z" transform="translate(-1591.312 -7521.095)"/></g><g transform="translate(4.699 8.319)"><path class="e" d="M1594.683,7532.091a8.232,8.232,0,0,0,2.458,1.59c.016-.031-.558-.347-1.235-.787S1594.705,7532.064,1594.683,7532.091Z" transform="translate(-1594.682 -7532.09)"/></g><g transform="translate(2.945 7.267)"><path class="e" d="M1592.088,7530.475c-.033.008-.029.146-.053.309s-.064.295-.034.312.129-.105.155-.294S1592.12,7530.467,1592.088,7530.475Z" transform="translate(-1591.991 -7530.474)"/></g><g transform="translate(2.884 6.093)"><path class="e" d="M1591.923,7528.675c-.032.007-.034.129,0,.273s.083.256.116.249.034-.13,0-.274S1591.956,7528.668,1591.923,7528.675Z" transform="translate(-1591.898 -7528.674)"/></g><g transform="translate(2.239 5.159)"><path class="e" d="M1590.909,7527.252c-.012.033.1.1.2.227s.144.246.179.241.038-.167-.084-.317S1590.917,7527.222,1590.909,7527.252Z" transform="translate(-1590.908 -7527.242)"/></g><g transform="translate(1.698 4.595)"><path class="e" d="M1590.09,7526.381c-.027.021-.006.094.047.166s.118.114.146.095.006-.1-.047-.168S1590.117,7526.361,1590.09,7526.381Z" transform="translate(-1590.078 -7526.376)"/></g></g><g transform="translate(0.367)"><g transform="translate(0 0.774)"><path class="k" d="M1636.322,7372.935s8.5,56.476,7.264,59.2-40.924,46.375-40.924,46.375l-14.625-9.691s34.666-43.646,34.4-44.694-13.137-55.738-13.137-55.738Z" transform="translate(-1588.036 -7368.391)"/></g><g transform="translate(15.218)"><path class="k" d="M1612.606,7367.205l-.514,2.1a24.674,24.674,0,0,0,2.592,18.2l23.05,39.955a32.1,32.1,0,0,1,3.533,9.083l10.406,46.149h16.055c0,.961-4.153-38.016-6.235-50.961-1.57-9.764-14.635-40.07-20.965-54.381l3.921-4.825-6.812-1.137Z" transform="translate(-1611.383 -7367.205)"/></g><g transform="translate(44.859 10.031)"><path class="e" d="M1656.86,7382.595a2.974,2.974,0,0,1,.355.635c.208.418.5,1.028.841,1.789.69,1.521,1.6,3.644,2.521,6.019s1.689,4.555,2.208,6.144c.259.793.46,1.439.589,1.887a.365.365,0,1,1-.125.043q-.282-.76-.69-1.852c-.576-1.565-1.375-3.726-2.3-6.1s-1.792-4.5-2.425-6.047c-.291-.719-.539-1.332-.742-1.832A3.028,3.028,0,0,1,1656.86,7382.595Z" transform="translate(-1656.857 -7382.594)"/></g><g transform="translate(27.808 36.399)"><path class="e" d="M1649.647,7463.667a2.436,2.436,0,0,1-.1-.451q-.089-.493-.233-1.3-.073-.428-.16-.938c-.075-.341-.158-.71-.246-1.1-.177-.792-.359-1.7-.647-2.682q-.2-.739-.42-1.546-.254-.8-.528-1.656c-.343-1.152-.819-2.345-1.274-3.616-.991-2.514-2.194-5.231-3.6-8.017a150.932,150.932,0,0,0-8.1-13.771l-2.675-4.043-.725-1.1a2.392,2.392,0,0,1-.234-.4,2.326,2.326,0,0,1,.29.358c.2.272.456.625.777,1.066.671.928,1.622,2.286,2.766,3.986a133.468,133.468,0,0,1,8.2,13.75c1.411,2.793,2.611,5.526,3.59,8.057.45,1.281.918,2.482,1.251,3.643q.264.865.511,1.67l.4,1.56c.274.988.44,1.9.6,2.7q.118.6.22,1.114l.131.945c.07.542.127.977.17,1.31A2.336,2.336,0,0,1,1649.647,7463.667Z" transform="translate(-1630.699 -7423.048)"/></g></g><g transform="translate(2.142 98.955)"><path class="e" d="M1605.756,7528.625a2.809,2.809,0,0,1-.67-.219,16.768,16.768,0,0,1-1.744-.8,40.6,40.6,0,0,1-5.3-3.447c-1.978-1.474-3.755-2.813-5.1-3.7s-2.21-1.381-2.184-1.431a2.817,2.817,0,0,1,.645.284c.408.2.978.521,1.668.946,1.385.843,3.2,2.16,5.17,3.631a51.9,51.9,0,0,0,5.215,3.507C1604.854,7528.186,1605.778,7528.569,1605.756,7528.625Z" transform="translate(-1590.759 -7519.02)"/></g><g transform="translate(54.963 112.726)"><path class="e" d="M1688.725,7540.51a2.569,2.569,0,0,1-.667.038l-1.815-.013-5.983-.051-5.984.038-1.814.008a2.5,2.5,0,0,1-.668-.04,2.569,2.569,0,0,1,.662-.093c.427-.038,1.046-.079,1.812-.116,1.532-.078,3.651-.14,5.991-.137s4.459.069,5.99.149c.766.041,1.385.082,1.813.122A2.462,2.462,0,0,1,1688.725,7540.51Z" transform="translate(-1671.795 -7540.145)"/></g></g><g transform="translate(19.712 10.123)"><path class="e" d="M1625.385,7264.837a7.311,7.311,0,0,1-4.129-.623,3.882,3.882,0,0,1-2.175-3.379,12.644,12.644,0,0,0,.248-2.455,7.786,7.786,0,0,0-1.133-2.2,4.565,4.565,0,0,1,1.224-5.589,17.13,17.13,0,0,0,2.661-1.791c.848-.948.983-2.315,1.5-3.477a5.624,5.624,0,0,1,4.187-3.208,17.9,17.9,0,0,0,3-.367,10.259,10.259,0,0,0,2.221-1.322,10.284,10.284,0,0,1,7.663-1.436,6.153,6.153,0,0,1,3.107,1.529c.929.925,2.133,1.927,2.468,3.2a10.2,10.2,0,0,1-.491,4.866,4,4,0,0,1-3.139,3.043" transform="translate(-1617.714 -7238.774)"/><g transform="translate(4.751 6.603)"><g transform="translate(2.591)"><path class="s" d="M1628.978,7279.891l12.24.175c.209-1.411.625-6.909.625-6.909s5.129-.311,5.667-5.358.755-16.736.755-16.736h0a17.64,17.64,0,0,0-17.859.557l-.8.505Z" transform="translate(-1628.978 -7248.905)"/><g transform="translate(13.272 9.512)"><path class="e" d="M1649.34,7269.588a3.354,3.354,0,0,1,1.149-.131c.184,0,.33-.031.353-.128a1,1,0,0,0-.081-.534c-.136-.477-.274-.959-.417-1.465a19.535,19.535,0,0,1-.842-3.831,19.418,19.418,0,0,1,1.225,3.725l.387,1.476a1.165,1.165,0,0,1,.028.766.48.48,0,0,1-.341.261,1.15,1.15,0,0,1-.314.01A3.378,3.378,0,0,1,1649.34,7269.588Z" transform="translate(-1649.34 -7263.499)"/></g><g transform="translate(6.468 21.687)"><path class="t" d="M1645.314,7284.67a11.806,11.806,0,0,1-6.412-2.493s1.215,3.784,6.3,3.8Z" transform="translate(-1638.901 -7282.178)"/></g></g><g transform="translate(0 8.487)"><path class="s" d="M1628.281,7261.973c-.1-.042-3.46-.589-3.27,3.4s4.162,2.481,4.163,2.366S1628.281,7261.973,1628.281,7261.973Z" transform="translate(-1625.003 -7261.925)"/><g transform="translate(1.023 1.351)"><path class="t" d="M1628.43,7267.123c-.018-.012-.067.051-.182.112a.7.7,0,0,1-.519.036,1.726,1.726,0,0,1-.87-1.508,2.3,2.3,0,0,1,.147-1.006.8.8,0,0,1,.5-.559.355.355,0,0,1,.42.17c.059.11.037.191.059.2s.083-.071.043-.234a.446.446,0,0,0-.17-.242.522.522,0,0,0-.39-.084.98.98,0,0,0-.7.655,2.355,2.355,0,0,0-.188,1.125,1.808,1.808,0,0,0,1.1,1.677.748.748,0,0,0,.631-.136C1628.427,7267.22,1628.444,7267.129,1628.43,7267.123Z" transform="translate(-1626.573 -7263.998)"/></g></g><g transform="translate(11.308 7.553)"><path class="e" d="M1642.366,7261.374c-.055-.07.041-.26.3-.459a2.34,2.34,0,0,1,2.408-.165c.283.162.4.336.359.413-.1.166-.747-.055-1.54.013C1643.1,7261.217,1642.488,7261.525,1642.366,7261.374Z" transform="translate(-1642.351 -7260.492)"/></g><g transform="translate(18.406 8.046)"><path class="e" d="M1653.242,7261.682c-.035-.183.513-.437,1.23-.434s1.264.258,1.228.44-.582.239-1.23.239S1653.276,7261.868,1653.242,7261.682Z" transform="translate(-1653.241 -7261.249)"/></g></g><path class="e" d="M1628.091,7251.521q.284,1.844.569,3.686a3.061,3.061,0,0,0,.585,1.626,2.19,2.19,0,0,0,2.671.17,6.381,6.381,0,0,0,2.4-3.385,10.469,10.469,0,0,1,1.963-3.712,4.864,4.864,0,0,0,5.613,1.035c.814-.41,1.492-1.044,2.274-1.514a2.984,2.984,0,0,1,2.6-.417c.461.191.877.57,1.377.548a1.113,1.113,0,0,0,.9-.617,1.909,1.909,0,0,0,.165-1.11,4.363,4.363,0,0,0-2.6-3.158,13.488,13.488,0,0,0-5.947-1.021,22.447,22.447,0,0,0-5.736.569,9.908,9.908,0,0,0-4.942,2.835,6.4,6.4,0,0,0-1.637,5.333" transform="translate(-1621.327 -7240.472)"/><path class="e" d="M1652.339,7248.422a6.04,6.04,0,0,0,1.922,3.337,2.589,2.589,0,0,0,1.692.76,2.1,2.1,0,0,0,1.844-2.095,4,4,0,0,0-1.25-2.729,3.791,3.791,0,0,0-2.543-1.342,1.941,1.941,0,0,0-2.033,1.7" transform="translate(-1629.642 -7241.413)"/><g transform="translate(15.746 15.534)"><g transform="translate(1.063 0.803)"><path class="e" d="M1643.5,7264.432a.639.639,0,0,0,.631.633.612.612,0,0,0,.648-.59.641.641,0,0,0-.63-.635A.614.614,0,0,0,1643.5,7264.432Z" transform="translate(-1643.503 -7263.839)"/></g><path class="e" d="M1641.882,7263.306c.081.082.559-.286,1.248-.3s1.2.322,1.275.236c.036-.038-.049-.187-.272-.343a1.765,1.765,0,0,0-1.022-.292,1.686,1.686,0,0,0-.991.342C1641.911,7263.118,1641.842,7263.269,1641.882,7263.306Z" transform="translate(-1641.871 -7262.607)"/></g><g transform="translate(22.941 15.64)"><g transform="translate(0.924 0.678)"><path class="e" d="M1654.329,7264.4a.641.641,0,0,0,.631.633.612.612,0,0,0,.648-.591.639.639,0,0,0-.629-.633A.612.612,0,0,0,1654.329,7264.4Z" transform="translate(-1654.329 -7263.808)"/></g><path class="e" d="M1652.921,7263.466c.081.082.559-.288,1.248-.3s1.2.323,1.274.237c.036-.039-.047-.187-.271-.343a1.756,1.756,0,0,0-1.022-.293,1.694,1.694,0,0,0-.991.342C1652.951,7263.278,1652.881,7263.43,1652.921,7263.466Z" transform="translate(-1652.91 -7262.767)"/></g><g transform="translate(18.435 22.277)"><path class="e" d="M1648.011,7274.928c.006.042-.171.121-.48.1a1.667,1.667,0,0,1-1.533-1.6c-.005-.31.082-.484.124-.475.093,0,.021.747.582,1.334S1648.014,7274.835,1648.011,7274.928Z" transform="translate(-1645.998 -7272.952)"/></g></g><g transform="translate(42.396 57.084)"><path class="t" d="M1652.588,7314.223l10.172-3.4s7.084,16.754,8.907,16.92c10.1.921,20.9-2.427,24.693-3.75.384-.432.824-.95,1.313-1.585a6.04,6.04,0,0,0,.951-1.814,9.231,9.231,0,0,0,.541-2.495.792.792,0,0,1,1.362-.625c.438.565.548,2.729-.448,5.058s2.532.477,3.829-.176,5.408-2.48,5.924-2.24c.757.352.52,1.229-.792,1.85-1.327.628-5.112,2.76-4.735,3.428s6.933-2.75,6.933-2.75,1.285-.954,1.746-.2c.833,1.369-6.41,4.478-7.107,4.757-.484.194-.1.935.409.7s6.466-3.552,7.327-2.167c.66,1.063-5.933,2.613-6.786,3.983s4.882-1.684,5.471-.642c.22.387.33.706-3.215,1.985a75.591,75.591,0,0,1-7.9,2.017l.013.037s-36.493,16.331-43.056.571C1651.453,7317.628,1652.588,7314.223,1652.588,7314.223Z" transform="translate(-1652.515 -7310.821)"/></g><path class="a" d="M1650.383,7309.5c-4.07-9.536-9.408-13.273-12.222-14.652a8.192,8.192,0,0,0-3.151-.809h0l-.339-1.639-13.5-1.214-.331,2.086-1.98-.107s-11.634,1.163-11.655,14.64c-.01,6.3,3.394,12.436,4.595,15.439.75,6.287-1.948,17.681-1.875,20.46l33.067,2.347,1.4-20.67-.309-1.939,10.885-3.333Zm-29.207-16.211Z" transform="translate(-1594.345 -7246.902)"/><g transform="translate(37.39)"><path class="e" d="M1738.373,7241.692a38.419,38.419,0,0,0-68.1,20.042h0a38.393,38.393,0,0,0,12.97,33.025l-33.629,39.464,4.825,4.113,33.913-39.8a38.186,38.186,0,0,0,16.039,5.479,39.151,39.151,0,0,0,4.156.224,38.424,38.424,0,0,0,29.826-62.55Zm2,27.533a32.077,32.077,0,1,1-6.931-23.551A31.873,31.873,0,0,1,1740.37,7269.226Z" transform="translate(-1646.499 -7224.691)"/><path class="m" d="M1734,7237.541a38.418,38.418,0,0,0-68.1,20.041h0a38.391,38.391,0,0,0,12.97,33.023l-34.036,39.788,5.158,4.127,33.987-40.135a38.186,38.186,0,0,0,16.039,5.479,39.128,39.128,0,0,0,4.156.222A38.421,38.421,0,0,0,1734,7237.541Zm2,27.533a32.077,32.077,0,1,1-6.931-23.553A31.867,31.867,0,0,1,1736,7265.074Z" transform="translate(-1644.836 -7223.245)"/><g transform="translate(34.872 24.163)"><path class="e" d="M1705.3,7295.386a1.511,1.511,0,0,1-.254-.284c-.154-.194-.394-.472-.668-.856a29.413,29.413,0,0,1-2.141-3.375,31.778,31.778,0,0,1-2.174-25.59,29.092,29.092,0,0,1,1.541-3.687c.2-.425.394-.74.513-.958a1.682,1.682,0,0,1,.2-.321,1.606,1.606,0,0,1-.142.353c-.1.227-.269.55-.454.982a34.941,34.941,0,0,0-1.433,3.706,32.647,32.647,0,0,0,2.159,25.4,34.721,34.721,0,0,0,2.037,3.412c.255.395.478.684.613.892A1.607,1.607,0,0,1,1705.3,7295.386Z" transform="translate(-1698.336 -7260.315)"/></g><g transform="translate(41.947 19.771)"><path class="e" d="M1710.679,7253.589c.057.079-.334.443-.725.957s-.647.981-.739.947.039-.6.47-1.154S1710.631,7253.514,1710.679,7253.589Z" transform="translate(-1709.19 -7253.576)"/></g></g><g transform="translate(13.631 44.602)"><g transform="translate(33.392 10.797)"><path class="e" d="M1659.62,7308.235a4.96,4.96,0,0,1,.236.9c.132.583.3,1.431.5,2.482.394,2.1.869,5.02,1.27,8.259s.648,6.186.777,8.322c.065,1.067.105,1.933.119,2.53a4.848,4.848,0,0,1-.01.93,4.9,4.9,0,0,1-.121-.922c-.059-.66-.135-1.5-.227-2.52-.19-2.127-.476-5.063-.875-8.3s-.837-6.15-1.17-8.26c-.158-1.005-.29-1.845-.393-2.5A4.8,4.8,0,0,1,1659.62,7308.235Z" transform="translate(-1659.614 -7308.235)"/></g><g transform="translate(2.721 20.56)"><path class="s" d="M1661.225,7345.469s-36.48,16.368-43.043.607c-6.686-16.054-5.55-19.46-5.55-19.46l10.172-3.4s7.085,16.754,8.907,16.92c10.1.922,20.9-2.427,24.693-3.751.385-.432.823-.951,1.313-1.586.419-.543.856-1.329,1.286-1.867a13.366,13.366,0,0,1,2.147-1.883c1.008-1.141,1.927-.307,1.489.306a10.985,10.985,0,0,0-2.517,3.57c-1,2.326,2.554,1.184,3.959.813,1.554-.409,4.47-1.542,4.47-1.542a3.413,3.413,0,0,1-2.017,2.68,20.7,20.7,0,0,1-2.186.91s2.7-.328,2.769.287-.8,5.161-3.667,6.512Z" transform="translate(-1612.559 -7323.214)"/></g><path class="a" d="M1618.98,7300.808l6.553,19.8-14.342,5.67s-7.483-19.443,1.993-24.2Z" transform="translate(-1608.385 -7294.852)"/><g transform="translate(2.77 3.038)"><g transform="translate(3.978)"><path class="e" d="M1630.091,7318.276c-.007.005-.08-.051-.195-.185a3.658,3.658,0,0,1-.43-.637,22.013,22.013,0,0,1-1.034-2.605c-.8-2.217-1.891-5.291-3.072-8.691-.586-1.7-1.143-3.317-1.653-4.8a11.911,11.911,0,0,0-1.654-3.721,3.019,3.019,0,0,0-2.344-1.166,2.934,2.934,0,0,0-.972.234c-.005-.008.065-.071.22-.156a1.94,1.94,0,0,1,.745-.209,3.105,3.105,0,0,1,2.534,1.141,11.651,11.651,0,0,1,1.766,3.775c.518,1.477,1.084,3.094,1.678,4.789,1.181,3.4,2.233,6.485,2.979,8.725.379,1.117.642,2.037.926,2.624S1630.115,7318.256,1630.091,7318.276Z" transform="translate(-1618.737 -7296.333)"/></g><g transform="translate(0 22.31)"><path class="e" d="M1627.661,7330.563a2.37,2.37,0,0,1-.542.34c-.359.2-.887.476-1.545.8-1.316.652-3.163,1.5-5.243,2.342s-4,1.509-5.4,1.95c-.7.223-1.271.391-1.668.5a2.356,2.356,0,0,1-.627.133,18.558,18.558,0,0,1,2.218-.854c1.378-.5,3.277-1.2,5.351-2.041s3.929-1.646,5.268-2.243A19.043,19.043,0,0,1,1627.661,7330.563Z" transform="translate(-1612.635 -7330.56)"/></g><g transform="translate(1.206 24.709)"><path class="e" d="M1615.668,7337.185a7.467,7.467,0,1,1-.423-1.534A3.831,3.831,0,0,1,1615.668,7337.185Z" transform="translate(-1614.485 -7334.239)"/></g><g transform="translate(4.358 23.647)"><path class="e" d="M1620.379,7335.454c-.08.045-.477-.528-.763-1.33a2.754,2.754,0,0,1-.255-1.513,4.978,4.978,0,0,1,.575,1.4A4.922,4.922,0,0,1,1620.379,7335.454Z" transform="translate(-1619.321 -7332.61)"/></g><g transform="translate(7.466 22.18)"><path class="e" d="M1625.217,7333.294a4.4,4.4,0,0,1-1.089-2.935,23.785,23.785,0,0,1,1.089,2.935Z" transform="translate(-1624.089 -7330.359)"/></g><g transform="translate(10.987 20.618)"><path class="e" d="M1630.494,7331.086a7.975,7.975,0,1,1-.327-1.611A4.106,4.106,0,0,1,1630.494,7331.086Z" transform="translate(-1629.491 -7327.963)"/></g></g><g transform="translate(36.111 26.309)"><g transform="translate(0 2.075)"><path class="e" d="M1674.933,7335.226a100.937,100.937,0,0,1-11.147,3.55,100.409,100.409,0,0,1,11.147-3.55Z" transform="translate(-1663.786 -7335.218)"/></g><g transform="translate(1.417 2.11)"><path class="e" d="M1666.953,7337.545c-.086.036-.373-.442-.64-1.07s-.415-1.165-.329-1.2.373.443.641,1.07S1667.039,7337.508,1666.953,7337.545Z" transform="translate(-1665.959 -7335.27)"/></g><g transform="translate(4.423 1.034)"><path class="e" d="M1671.366,7336.336c-.085.034-.4-.532-.6-1.294a2.57,2.57,0,0,1-.141-1.42c.094-.016.265.588.469,1.33A3.838,3.838,0,0,1,1671.366,7336.336Z" transform="translate(-1670.571 -7333.621)"/></g><g transform="translate(7.619)"><path class="e" d="M1676.088,7334.819a6.039,6.039,0,1,1-.118-1.427A3.139,3.139,0,0,1,1676.088,7334.819Z" transform="translate(-1675.475 -7332.033)"/></g></g><g transform="translate(14.413)"><path class="e" d="M1630.619,7293.262c-.093-.007-.144-.368-.113-.809s.132-.789.226-.782.144.368.113.808S1630.712,7293.268,1630.619,7293.262Z" transform="translate(-1630.497 -7291.671)"/></g><g transform="translate(17.303 0.172)"><path class="e" d="M1635.135,7293.526c-.093,0-.184-.35-.2-.789s.044-.8.138-.8.184.35.2.79S1635.229,7293.522,1635.135,7293.526Z" transform="translate(-1634.93 -7291.935)"/></g><g transform="translate(19.642 0.512)"><path class="e" d="M1638.682,7294.1c-.094,0-.167-.37-.163-.826s.082-.823.176-.822.167.37.164.825S1638.776,7294.105,1638.682,7294.1Z" transform="translate(-1638.519 -7292.457)"/></g><g transform="translate(22.617 0.568)"><path class="e" d="M1643.375,7294.476c-.089.023-.275-.4-.29-.958s.142-.992.231-.975.091.447.107.964S1643.468,7294.452,1643.375,7294.476Z" transform="translate(-1643.084 -7292.542)"/></g><g transform="translate(25.144 0.57)"><path class="e" d="M1647.281,7294.477c-.093.012-.22-.413-.284-.945s-.04-.975.053-.985.221.411.284.944S1647.373,7294.466,1647.281,7294.477Z" transform="translate(-1646.961 -7292.546)"/></g></g></g></g><g transform="translate(1329.748 1794.775)"><g transform="translate(0 0)"><path class="g" d="M306.974,345.771a4.5,4.5,0,0,1-.783.052l-2.244.049-8.255.081-27.234.076h-2.2v-.256c.031-10.173.059-19.3.079-25.938.034-3.258.061-5.9.08-7.793.019-.88.035-1.582.047-2.112a4.036,4.036,0,0,1,.051-.735,4.228,4.228,0,0,1,.05.735c.012.53.028,1.233.047,2.112.019,1.889.047,4.536.08,7.793.02,6.643.048,15.765.079,25.938l-.256-.256h1.941l27.234.076,8.255.082,2.244.048A4.5,4.5,0,0,1,306.974,345.771Z" transform="translate(-266.258 -309.193)"/><g transform="translate(4.025 8.873)"><path class="g" d="M302.819,318.818a10.418,10.418,0,0,1-1.207,1.153l-3.416,3c-2.9,2.515-6.926,5.962-11.394,9.745l-.677.573-.174.147-.166-.154-5.068-4.71.316.007-7.443,6.139-2.16,1.727a4.781,4.781,0,0,1-.807.577,4.707,4.707,0,0,1,.706-.7l2.072-1.831,7.323-6.281.159-.136.157.144,5.092,4.683-.34-.007.677-.573c4.468-3.783,8.533-7.186,11.492-9.63l3.521-2.874A10.259,10.259,0,0,1,302.819,318.818Z" transform="translate(-270.623 -318.816)"/></g><g transform="translate(26.671 8.419)"><path class="g" d="M304.733,327.255a12.747,12.747,0,0,1-.178-2.525c-.046-1.564-.076-3.733-.078-6.15l.256.257H304.3c-2.517,0-4.795-.029-6.444-.076a13.758,13.758,0,0,1-2.668-.182,13.862,13.862,0,0,1,2.668-.182c1.65-.046,3.927-.075,6.444-.075h.694v.256c0,2.418-.032,4.586-.079,6.15A12.72,12.72,0,0,1,304.733,327.255Z" transform="translate(-295.183 -318.324)"/></g></g></g></g></svg>