<svg xmlns="http://www.w3.org/2000/svg" width="485.846" height="325.876" viewBox="0 0 485.846 325.876"><defs><style>.a{fill:#12263f;font-size:15px;font-family:Roboto-Regular, Roboto;}.b{font-family:Roboto-Regular;}.c,.e{fill:none;stroke:#12263f;}.c,.e,.f{stroke-miterlimit:10;}.d{fill:#6595bf;}.e,.f{stroke-width:2px;}.f{fill:#d9a171;stroke:#d9a171;}.g{fill:#fff;font-size:21px;font-family:Roboto-Bold, Roboto;font-weight:700;}</style></defs><g transform="translate(-810.348 -638.063)"><text class="a" transform="translate(945.296 729.019)"><tspan x="-116.865" y="0">2.000.000.000.00</tspan><tspan x="-116.865" y="23">1.500.000.000.00</tspan><tspan x="-116.865" y="46">1.000.000.000.00</tspan><tspan x="-104.495" y="69">500.000.000.00</tspan><tspan x="-29.216" y="92">0.00</tspan><tspan x="-108.633" y="115">-500.000.000.00</tspan><tspan x="-121.003" y="138">-1.000.000.000.00</tspan><tspan x="-121.003" y="161">-1.500.000.000.00</tspan><tspan x="-121.003" y="184">-2.000.000.000.00</tspan><tspan class="b"><tspan x="0" y="207"></tspan></tspan></text><path class="c" d="M588.922,539.141V724.764h310.95" transform="translate(380.063 185.294)"/><line class="c" x2="310.95" transform="translate(968.985 725.626)"/><line class="c" x2="310.95" transform="translate(968.985 748.354)"/><line class="c" x2="310.95" transform="translate(968.985 771.081)"/><line class="c" x2="310.95" transform="translate(968.985 795.114)"/><line class="c" x2="310.95" transform="translate(968.985 817.842)"/><line class="c" x2="310.95" transform="translate(968.985 840.569)"/><line class="c" x2="310.95" transform="translate(968.985 863.297)"/><line class="c" x2="310.95" transform="translate(968.985 887.33)"/><rect class="d" width="26.664" height="75.658" transform="translate(994.554 741.588)"/><rect class="d" width="26.664" height="41.174" transform="translate(1071.947 776.072)"/><rect class="d" width="26.664" height="34.579" transform="translate(1148.517 782.667)"/><rect class="d" width="26.664" height="69.71" transform="translate(1220.274 817.62)"/><text class="a" transform="translate(976.816 835.251)"><tspan x="0" y="0">Ingresos</tspan></text><text class="a" transform="translate(1061.88 835.251)"><tspan x="0" y="0">Gastos</tspan></text><text class="a" transform="translate(1136.952 835.251)"><tspan x="0" y="0">Costos</tspan></text><text class="a" transform="translate(1206.479 835.251)"><tspan x="0" y="0">Utilidad</tspan></text><rect class="e" width="483.846" height="323.876" transform="translate(811.348 639.063)"/><rect class="f" width="483.846" height="33.134" transform="translate(811.348 639.063)"/><text class="g" transform="translate(872.079 661.907)"><tspan x="0" y="0">ESTADO DE RESULTADO con PÉRDIDA</tspan></text></g></svg>