<svg xmlns="http://www.w3.org/2000/svg" width="241.801" height="216.224" viewBox="0 0 241.801 216.224"><defs><style>.a{fill:#f5f5f5;}.b{fill:#ececec;}.c{fill:#e1e1e1;}.d{fill:#e0e0e0;}.e{fill:#ebebeb;}.f{fill:#fff;}.g{fill:#263238;}.h{fill:#6595bf;}.i{fill:#d9a171;}.j{fill:#d2e1f1;}.k{opacity:0.4;}.l{fill:#fafafa;}.m{fill:#ffbf9d;}.n{fill:#ff9a6c;}.o{fill:#455a64;}.p{opacity:0.3;}</style></defs><g transform="translate(-242.191 -2697.775)"><g transform="translate(402.258 2785)"><path class="a" d="M430.807,5186.829a40.864,40.864,0,1,1-46.483-34.223A40.818,40.818,0,0,1,430.807,5186.829Z" transform="translate(-349.533 -5152.143)"/><g transform="translate(9.724 9.703)"><path class="b" d="M420.363,5187.452a31.14,31.14,0,1,1-35.423-26.08A31.106,31.106,0,0,1,420.363,5187.452Z" transform="translate(-358.428 -5161.019)"/></g><g transform="translate(9.153 8.521)"><path class="c" d="M420.26,5186.587c-.186.037-.521-1.3-1.372-3.579a33.067,33.067,0,0,0-4.975-8.9,31.965,31.965,0,0,0-4.921-4.98,31.178,31.178,0,0,0-6.826-4.169,30.389,30.389,0,0,0-8.479-2.392,30.364,30.364,0,0,0-4.66-.249,30.39,30.39,0,0,0-9.427,1.725,30.393,30.393,0,0,0-4.27,1.881,30.468,30.468,0,0,0-7.083,5.24,31.142,31.142,0,0,0-4.906,6.317,31.912,31.912,0,0,0-2.837,6.4,33.045,33.045,0,0,0-1.5,10.086c.014,2.435.173,3.8-.014,3.832-.137.028-.608-1.282-.913-3.778a28.812,28.812,0,0,1,.8-10.6,31.516,31.516,0,0,1,2.734-6.9,31.834,31.834,0,0,1,5.064-6.893,31.7,31.7,0,0,1,7.534-5.75,31.637,31.637,0,0,1,4.594-2.064,31.871,31.871,0,0,1,10.168-1.86,31.691,31.691,0,0,1,5.026.3,31.792,31.792,0,0,1,9.082,2.71,31.229,31.229,0,0,1,12.181,10.138,28.838,28.838,0,0,1,4.508,9.632C420.373,5185.172,420.4,5186.565,420.26,5186.587Z" transform="translate(-357.905 -5159.937)"/></g><g transform="translate(27.004 19.054)"><path class="c" d="M394.348,5209.137l.887,5.351-4.779.79-.862-5.207c-4.778.5-9.562-.233-12.529-1.854l1.662-6.264a19.572,19.572,0,0,0,9.831,1.857l-1.322-7.98c-5.517-.41-11.733-1.2-12.865-8.03-.838-5.065,2.121-10.022,9.528-12.132l-.878-5.3,4.778-.791.863,5.209a21.889,21.889,0,0,1,10.181,1.309l-1.415,6.272a19.86,19.86,0,0,0-7.723-1.274l1.346,8.124c5.508.365,11.631,1.168,12.746,7.9C404.618,5202.086,401.7,5206.987,394.348,5209.137Zm-8.273-20.33-1.125-6.784c-2.436.993-3.21,2.544-2.95,4.122C382.278,5187.817,383.861,5188.488,386.075,5188.808Zm10.124,10.156c-.277-1.673-1.813-2.351-3.986-2.729l1.091,6.6C395.606,5201.909,396.452,5200.493,396.2,5198.964Z" transform="translate(-374.233 -5169.573)"/></g></g><g transform="translate(242.191 2759.111)"><path class="a" d="M391.166,5169.911a20.933,20.933,0,1,1-23.811-17.531A20.909,20.909,0,0,1,391.166,5169.911Z" transform="translate(-349.533 -5152.143)"/><g transform="translate(4.981 4.97)"><path class="b" d="M390.154,5174.56a15.952,15.952,0,1,1-18.146-13.359A15.934,15.934,0,0,1,390.154,5174.56Z" transform="translate(-358.428 -5161.02)"/></g><g transform="translate(4.688 4.365)"><path class="c" d="M389.846,5173.588a9.327,9.327,0,0,1-.7-1.833,16.94,16.94,0,0,0-2.548-4.561,16.366,16.366,0,0,0-2.521-2.552,16,16,0,0,0-3.5-2.136,15.606,15.606,0,0,0-4.343-1.225,15.612,15.612,0,0,0-2.387-.127,15.563,15.563,0,0,0-4.829.883,15.6,15.6,0,0,0-2.188.964,15.593,15.593,0,0,0-3.628,2.684,15.976,15.976,0,0,0-2.513,3.236,16.353,16.353,0,0,0-1.453,3.279,16.93,16.93,0,0,0-.767,5.167,9.328,9.328,0,0,1-.007,1.963,4.687,4.687,0,0,1-.468-1.936,14.758,14.758,0,0,1,.411-5.432,16.128,16.128,0,0,1,1.4-3.535,16.3,16.3,0,0,1,2.594-3.531,16.254,16.254,0,0,1,3.859-2.945,16.289,16.289,0,0,1,2.353-1.058,16.359,16.359,0,0,1,5.208-.953,16.24,16.24,0,0,1,2.575.156,16.266,16.266,0,0,1,4.652,1.389,16,16,0,0,1,6.24,5.193,14.775,14.775,0,0,1,2.309,4.934A4.69,4.69,0,0,1,389.846,5173.588Z" transform="translate(-357.905 -5159.937)"/></g><g transform="translate(13.833 9.761)"><path class="c" d="M384.537,5189.84l.454,2.741-2.448.4-.441-2.667a11.756,11.756,0,0,1-6.418-.949l.851-3.209a10.02,10.02,0,0,0,5.036.951l-.677-4.088c-2.826-.21-6.01-.613-6.59-4.113-.429-2.595,1.086-5.134,4.881-6.215l-.45-2.717,2.447-.405.442,2.668a11.211,11.211,0,0,1,5.215.671l-.725,3.212a10.177,10.177,0,0,0-3.956-.653l.689,4.162c2.822.187,5.958.6,6.529,4.049C389.8,5186.228,388.3,5188.739,384.537,5189.84Zm-4.238-10.414-.576-3.475c-1.248.509-1.644,1.3-1.511,2.111C378.354,5178.918,379.165,5179.263,380.3,5179.426Zm5.186,5.2c-.142-.857-.929-1.2-2.042-1.4l.559,3.379C385.182,5186.137,385.615,5185.412,385.485,5184.629Z" transform="translate(-374.233 -5169.573)"/></g></g><g transform="translate(231.369 2699.497)"><g transform="translate(22.631 16.936)"><g transform="translate(164.467 140.85)"><g transform="translate(0.048)"><path class="a" d="M387.059,349.856v10.862h-1.814V361.9h1.814v7.269h33.9v-6.615h-2.511v-1.44h2.511V358.95h1.116v-.983h-1.325v-8.111Z" transform="translate(-385.245 -349.856)"/></g><g transform="translate(26.759 0)"><path class="d" d="M444.12,349.888v19.158h9v-6.615h-2.511v-1.32l2.511.045v-2.161h1.138l-.022-1.117-1.325-.033v-7.99Z" transform="translate(-444.12 -349.856)"/></g><g transform="translate(0 11.765)"><path class="d" d="M412.54,375.907c0,.067-6.134.12-13.7.12s-13.7-.054-13.7-.12,6.133-.12,13.7-.12S412.54,375.841,412.54,375.907Z" transform="translate(-385.14 -375.787)"/></g><g transform="translate(0 10.661)"><path class="d" d="M412.54,373.475c0,.067-6.134.121-13.7.121s-13.7-.054-13.7-.121,6.133-.12,13.7-.12S412.54,373.409,412.54,373.475Z" transform="translate(-385.14 -373.355)"/></g><g transform="translate(1.76 7.692)"><path class="d" d="M416.419,366.93c0,.067-6.134.12-13.7.12s-13.7-.054-13.7-.12,6.133-.12,13.7-.12S416.419,366.864,416.419,366.93Z" transform="translate(-389.019 -366.81)"/></g><g transform="translate(1.929 15.783)"><path class="d" d="M416.792,384.765c0,.067-6.134.121-13.7.121s-13.7-.054-13.7-.121,6.133-.12,13.7-.12S416.792,384.7,416.792,384.765Z" transform="translate(-389.392 -384.645)"/></g></g><g transform="translate(167.024 159.624)"><g transform="translate(0.048)"><path class="a" d="M392.7,391.236V402.1h-1.813v1.179H392.7v7.27h33.9v-6.615h-2.511v-1.441H426.6V400.33h1.116v-.983h-1.325v-8.111Z" transform="translate(-390.882 -391.236)"/></g><g transform="translate(26.759 0)"><path class="d" d="M449.757,391.268v19.158h9v-6.615h-2.511v-1.32l2.511.045v-2.161H459.9l-.022-1.117-1.325-.033v-7.99Z" transform="translate(-449.757 -391.236)"/></g><g transform="translate(0 11.765)"><path class="d" d="M418.177,417.287c0,.067-6.134.12-13.7.12s-13.7-.054-13.7-.12,6.133-.12,13.7-.12S418.177,417.221,418.177,417.287Z" transform="translate(-390.777 -417.167)"/></g><g transform="translate(0 10.661)"><path class="d" d="M418.177,414.855c0,.067-6.134.12-13.7.12s-13.7-.054-13.7-.12,6.133-.12,13.7-.12S418.177,414.789,418.177,414.855Z" transform="translate(-390.777 -414.735)"/></g><g transform="translate(1.759 7.692)"><path class="d" d="M422.055,408.31c0,.067-6.134.12-13.7.12s-13.7-.054-13.7-.12,6.133-.12,13.7-.12S422.055,408.244,422.055,408.31Z" transform="translate(-394.655 -408.19)"/></g><g transform="translate(1.929 15.783)"><path class="d" d="M422.428,426.145c0,.067-6.134.121-13.7.121s-13.7-.054-13.7-.121,6.133-.12,13.7-.12S422.428,426.079,422.428,426.145Z" transform="translate(-395.028 -426.025)"/></g></g><g transform="translate(164.053 178.144)"><g transform="translate(0.048)"><path class="a" d="M386.146,432.058V442.92h-1.813V444.1h1.813v7.269h33.9v-6.615h-2.511v-1.441h2.511v-2.161h1.116v-.983h-1.325v-8.111Z" transform="translate(-384.333 -432.058)"/></g><g transform="translate(26.758)"><path class="d" d="M443.208,432.09v19.158h9v-6.615H449.7v-1.32l2.511.045V441.2h1.138l-.022-1.117L452,440.048v-7.99Z" transform="translate(-443.208 -432.058)"/></g><g transform="translate(0 11.764)"><path class="d" d="M411.628,458.109c0,.066-6.134.12-13.7.12s-13.7-.054-13.7-.12,6.133-.121,13.7-.121S411.628,458.042,411.628,458.109Z" transform="translate(-384.228 -457.988)"/></g><g transform="translate(0 10.661)"><path class="d" d="M411.628,455.677c0,.067-6.134.12-13.7.12s-13.7-.054-13.7-.12,6.133-.12,13.7-.12S411.628,455.611,411.628,455.677Z" transform="translate(-384.228 -455.557)"/></g><g transform="translate(1.759 7.692)"><path class="d" d="M415.506,449.132c0,.066-6.134.12-13.7.12s-13.7-.054-13.7-.12,6.133-.12,13.7-.12S415.506,449.066,415.506,449.132Z" transform="translate(-388.106 -449.012)"/></g><g transform="translate(1.929 15.783)"><path class="d" d="M415.879,466.967c0,.067-6.134.121-13.7.121s-13.7-.054-13.7-.121,6.133-.12,13.7-.12S415.879,466.9,415.879,466.967Z" transform="translate(-388.479 -466.847)"/></g></g><g transform="translate(6.866 140.85)"><g transform="translate(0.048)"><path class="a" d="M39.684,349.856v10.862H37.871V361.9h1.813v7.269h33.9v-6.615H71.073v-1.44h2.511V358.95H74.7v-.983H73.374v-8.111Z" transform="translate(-37.871 -349.856)"/></g><g transform="translate(26.759 0)"><path class="d" d="M96.745,349.888v19.158h9v-6.615h-2.511v-1.32l2.511.045v-2.161h1.138l-.022-1.117-1.325-.033v-7.99Z" transform="translate(-96.745 -349.856)"/></g><g transform="translate(0 11.765)"><path class="d" d="M65.165,375.907c0,.067-6.134.12-13.7.12s-13.7-.054-13.7-.12,6.133-.12,13.7-.12S65.165,375.841,65.165,375.907Z" transform="translate(-37.765 -375.787)"/></g><g transform="translate(0 10.661)"><path class="d" d="M65.165,373.475c0,.067-6.134.121-13.7.121s-13.7-.054-13.7-.121,6.133-.12,13.7-.12S65.165,373.409,65.165,373.475Z" transform="translate(-37.765 -373.355)"/></g><g transform="translate(1.76 7.692)"><path class="d" d="M69.044,366.93c0,.067-6.134.12-13.7.12s-13.7-.054-13.7-.12,6.133-.12,13.7-.12S69.044,366.864,69.044,366.93Z" transform="translate(-41.644 -366.81)"/></g><g transform="translate(1.929 15.783)"><path class="d" d="M69.417,384.765c0,.067-6.134.121-13.7.121s-13.7-.054-13.7-.121,6.133-.12,13.7-.12S69.417,384.7,69.417,384.765Z" transform="translate(-42.017 -384.645)"/></g></g><g transform="translate(170.225 124.19)"><g transform="translate(0.048 0)"><path class="a" d="M399.752,313.135V324h-1.814v1.179h1.814v7.27h33.9v-6.615H431.14V324.39h2.511v-2.161h1.116v-.982h-1.325v-8.111Z" transform="translate(-397.938 -313.135)"/></g><g transform="translate(26.759)"><path class="d" d="M456.813,313.166v19.158h9v-6.615H463.3v-1.32l2.511.045v-2.161h1.138l-.022-1.117-1.325-.033v-7.99Z" transform="translate(-456.813 -313.135)"/></g><g transform="translate(0 11.764)"><path class="d" d="M425.233,339.185c0,.067-6.134.121-13.7.121s-13.7-.054-13.7-.121,6.133-.12,13.7-.12S425.233,339.119,425.233,339.185Z" transform="translate(-397.833 -339.065)"/></g><g transform="translate(0 10.661)"><path class="d" d="M425.233,336.754c0,.066-6.134.12-13.7.12s-13.7-.054-13.7-.12,6.133-.121,13.7-.121S425.233,336.687,425.233,336.754Z" transform="translate(-397.833 -336.633)"/></g><g transform="translate(1.76 7.692)"><path class="d" d="M429.112,330.208c0,.067-6.134.121-13.7.121s-13.7-.054-13.7-.121,6.133-.12,13.7-.12S429.112,330.142,429.112,330.208Z" transform="translate(-401.712 -330.088)"/></g><g transform="translate(1.929 15.784)"><path class="d" d="M429.485,348.044c0,.067-6.134.12-13.7.12s-13.7-.054-13.7-.12,6.133-.12,13.7-.12S429.485,347.978,429.485,348.044Z" transform="translate(-402.085 -347.924)"/></g></g><g transform="translate(8.666 159.624)"><g transform="translate(0.048)"><path class="a" d="M43.651,391.236V402.1H41.838v1.179h1.813v7.27h33.9v-6.615H75.04v-1.441h2.511V400.33h1.116v-.983H77.341v-8.111Z" transform="translate(-41.838 -391.236)"/></g><g transform="translate(26.758 0)"><path class="d" d="M100.712,391.268v19.158h9v-6.615H107.2v-1.32l2.511.045v-2.161h1.138l-.022-1.117-1.325-.033v-7.99Z" transform="translate(-100.712 -391.236)"/></g><g transform="translate(0 11.765)"><path class="d" d="M69.133,417.287c0,.067-6.134.12-13.7.12s-13.7-.054-13.7-.12,6.133-.12,13.7-.12S69.133,417.221,69.133,417.287Z" transform="translate(-41.733 -417.167)"/></g><g transform="translate(0 10.661)"><path class="d" d="M69.133,414.855c0,.067-6.134.12-13.7.12s-13.7-.054-13.7-.12,6.133-.12,13.7-.12S69.133,414.789,69.133,414.855Z" transform="translate(-41.733 -414.735)"/></g><g transform="translate(1.759 7.692)"><path class="d" d="M73.011,408.31c0,.067-6.134.12-13.7.12s-13.7-.054-13.7-.12,6.133-.12,13.7-.12S73.011,408.244,73.011,408.31Z" transform="translate(-45.611 -408.19)"/></g><g transform="translate(1.929 15.783)"><path class="d" d="M73.384,426.145c0,.067-6.134.121-13.7.121s-13.7-.054-13.7-.121,6.133-.12,13.7-.12S73.384,426.079,73.384,426.145Z" transform="translate(-45.984 -426.025)"/></g></g><g transform="translate(12.71 178.144)"><g transform="translate(0.048)"><path class="a" d="M52.564,432.058V442.92H50.751V444.1h1.813v7.269h33.9v-6.615H83.953v-1.441h2.511v-2.161H87.58v-.983H86.255v-8.111Z" transform="translate(-50.751 -432.058)"/></g><g transform="translate(26.758)"><path class="d" d="M109.626,432.09v19.158h9v-6.615h-2.511v-1.32l2.511.045V441.2h1.138l-.022-1.117-1.325-.033v-7.99Z" transform="translate(-109.626 -432.058)"/></g><g transform="translate(0 11.764)"><path class="d" d="M78.046,458.109c0,.066-6.134.12-13.7.12s-13.7-.054-13.7-.12,6.133-.121,13.7-.121S78.046,458.042,78.046,458.109Z" transform="translate(-50.646 -457.988)"/></g><g transform="translate(0 10.661)"><path class="d" d="M78.046,455.677c0,.067-6.134.12-13.7.12s-13.7-.054-13.7-.12,6.133-.12,13.7-.12S78.046,455.611,78.046,455.677Z" transform="translate(-50.646 -455.557)"/></g><g transform="translate(1.759 7.692)"><path class="d" d="M81.924,449.132c0,.066-6.134.12-13.7.12s-13.7-.054-13.7-.12,6.133-.12,13.7-.12S81.924,449.066,81.924,449.132Z" transform="translate(-54.524 -449.012)"/></g><g transform="translate(1.929 15.783)"><path class="d" d="M82.3,466.967c0,.067-6.134.121-13.7.121s-13.7-.054-13.7-.121,6.133-.12,13.7-.12S82.3,466.9,82.3,466.967Z" transform="translate(-54.897 -466.847)"/></g></g><g transform="translate(124.76 178.381)"><g transform="translate(0.046 0)"><path class="a" d="M299.481,432.581v10.527h-1.758v1.142h1.758V451.3h32.854v-6.411H329.9v-1.4h2.434v-2.095h1.082v-.952h-1.284v-7.861Z" transform="translate(-297.723 -432.581)"/></g><g transform="translate(25.933)"><path class="d" d="M354.782,432.611v18.567h8.725v-6.411h-2.434v-1.279l2.434.043v-2.095h1.1l-.021-1.082-1.284-.032v-7.744Z" transform="translate(-354.782 -432.581)"/></g><g transform="translate(0 11.402)"><path class="d" d="M324.176,457.829c0,.064-5.945.117-13.277.117s-13.278-.052-13.278-.117,5.944-.117,13.278-.117S324.176,457.764,324.176,457.829Z" transform="translate(-297.621 -457.712)"/></g><g transform="translate(0 10.332)"><path class="d" d="M324.176,455.472c0,.064-5.945.117-13.277.117s-13.278-.052-13.278-.117,5.944-.117,13.278-.117S324.176,455.407,324.176,455.472Z" transform="translate(-297.621 -455.355)"/></g><g transform="translate(1.705 7.455)"><path class="d" d="M327.935,449.129c0,.064-5.945.117-13.277.117s-13.278-.052-13.278-.117,5.944-.117,13.278-.117S327.935,449.064,327.935,449.129Z" transform="translate(-301.38 -449.012)"/></g><g transform="translate(1.869 15.297)"><path class="d" d="M328.3,466.414c0,.064-5.945.117-13.277.117s-13.279-.052-13.279-.117,5.944-.117,13.279-.117S328.3,466.349,328.3,466.414Z" transform="translate(-301.741 -466.297)"/></g></g><g transform="translate(63.929 159.624)"><g transform="translate(0.048)"><path class="a" d="M165.459,391.236V402.1h-1.814v1.179h1.814v7.27h33.9v-6.615h-2.511v-1.441h2.511V400.33h1.116v-.983h-1.325v-8.111Z" transform="translate(-163.645 -391.236)"/></g><g transform="translate(26.759 0)"><path class="d" d="M222.52,391.268v19.158h9v-6.615h-2.511v-1.32l2.511.045v-2.161h1.138l-.022-1.117-1.325-.033v-7.99Z" transform="translate(-222.52 -391.236)"/></g><g transform="translate(0 11.765)"><path class="d" d="M190.94,417.287c0,.067-6.134.12-13.7.12s-13.7-.054-13.7-.12,6.133-.12,13.7-.12S190.94,417.221,190.94,417.287Z" transform="translate(-163.54 -417.167)"/></g><g transform="translate(0 10.661)"><path class="d" d="M190.94,414.855c0,.067-6.134.12-13.7.12s-13.7-.054-13.7-.12,6.133-.12,13.7-.12S190.94,414.789,190.94,414.855Z" transform="translate(-163.54 -414.735)"/></g><g transform="translate(1.76 7.692)"><path class="d" d="M194.819,408.31c0,.067-6.134.12-13.7.12s-13.7-.054-13.7-.12,6.133-.12,13.7-.12S194.819,408.244,194.819,408.31Z" transform="translate(-167.419 -408.19)"/></g><g transform="translate(1.929 15.783)"><path class="d" d="M195.192,426.145c0,.067-6.134.121-13.7.121s-13.7-.054-13.7-.121,6.133-.12,13.7-.12S195.192,426.079,195.192,426.145Z" transform="translate(-167.792 -426.025)"/></g></g><g transform="translate(60.958 178.144)"><g transform="translate(0.048)"><path class="a" d="M158.91,432.058V442.92H157.1V444.1h1.814v7.269h33.9v-6.615H190.3v-1.441h2.511v-2.161h1.116v-.983H192.6v-8.111Z" transform="translate(-157.096 -432.058)"/></g><g transform="translate(26.759)"><path class="d" d="M215.971,432.09v19.158h9v-6.615h-2.511v-1.32l2.511.045V441.2h1.138l-.022-1.117-1.325-.033v-7.99Z" transform="translate(-215.971 -432.058)"/></g><g transform="translate(0 11.764)"><path class="d" d="M184.391,458.109c0,.066-6.134.12-13.7.12s-13.7-.054-13.7-.12,6.133-.121,13.7-.121S184.391,458.042,184.391,458.109Z" transform="translate(-156.991 -457.988)"/></g><g transform="translate(0 10.661)"><path class="d" d="M184.391,455.677c0,.067-6.134.12-13.7.12s-13.7-.054-13.7-.12,6.133-.12,13.7-.12S184.391,455.611,184.391,455.677Z" transform="translate(-156.991 -455.557)"/></g><g transform="translate(1.76 7.692)"><path class="d" d="M188.27,449.132c0,.066-6.134.12-13.7.12s-13.7-.054-13.7-.12,6.133-.12,13.7-.12S188.27,449.066,188.27,449.132Z" transform="translate(-160.87 -449.012)"/></g><g transform="translate(1.929 15.783)"><path class="d" d="M188.642,466.967c0,.067-6.134.121-13.7.121s-13.7-.054-13.7-.121,6.133-.12,13.7-.12S188.642,466.9,188.642,466.967Z" transform="translate(-161.242 -466.847)"/></g></g><g transform="translate(0 146.646)"><path class="d" d="M22.631,374.193c.367,2.945,2.63,5.375,5.256,6.757a29.48,29.48,0,0,0,8.526,2.433,25.042,25.042,0,0,1,8.445,2.658l5.057-14.066a31.539,31.539,0,0,0-12.692-2.63c-5.223.208-9.371-6.712-9.371-6.712Z" transform="translate(-22.631 -362.632)"/></g><g transform="translate(13.642 176.044)"><path class="d" d="M61.492,445.336a25.268,25.268,0,0,1,16.744-8.1c-1.593-2.483-4.424-7.321-6.017-9.8-8.478.045-15.064,4.826-19.52,11.951C55.833,441.639,58.358,443.078,61.492,445.336Z" transform="translate(-52.699 -427.43)"/></g><g transform="translate(174.657 36.906)"><path class="e" d="M415.713,124.883a11.645,11.645,0,0,1,2.844-1.236l.586-2.815,4.755-.083.685,2.792a11.657,11.657,0,0,1,2.885,1.135l2.4-1.575,3.421,3.3-1.489,2.457a11.641,11.641,0,0,1,1.236,2.844l2.814.586.083,4.755-2.792.685a11.654,11.654,0,0,1-1.135,2.885l1.575,2.4-3.3,3.422-2.457-1.49a11.656,11.656,0,0,1-2.844,1.236L424.395,149l-4.755.083-.685-2.792a11.653,11.653,0,0,1-2.885-1.135l-2.4,1.575-3.421-3.3,1.489-2.457a11.642,11.642,0,0,1-1.236-2.844l-2.814-.586-.083-4.755,2.792-.685a11.655,11.655,0,0,1,1.135-2.885l-1.575-2.4,3.3-3.422,2.457,1.49Zm2.535,6.335a5.1,5.1,0,1,0,7.214-.127A5.1,5.1,0,0,0,418.249,131.218Z" transform="translate(-407.601 -120.749)"/></g><g transform="translate(8.607 82.641)"><path class="e" d="M51.385,226.54a14.052,14.052,0,0,1,3.429-1.49l.706-3.394,5.734-.1.825,3.366a14.042,14.042,0,0,1,3.479,1.368l2.9-1.9,4.125,3.983-1.8,2.963a14.037,14.037,0,0,1,1.49,3.429l3.393.706.1,5.733-3.366.826a14.039,14.039,0,0,1-1.368,3.478l1.9,2.9-3.983,4.125-2.963-1.8a14.064,14.064,0,0,1-3.429,1.49l-.706,3.394-5.733.1-.825-3.366a14.062,14.062,0,0,1-3.479-1.369l-2.9,1.9L44.791,248.9l1.8-2.962a14.031,14.031,0,0,1-1.49-3.429L41.7,241.8l-.1-5.733,3.366-.826a14.058,14.058,0,0,1,1.369-3.478l-1.9-2.9,3.983-4.125,2.963,1.8Zm3.057,7.638a6.152,6.152,0,1,0,8.7-.153A6.151,6.151,0,0,0,54.441,234.178Z" transform="translate(-41.603 -221.556)"/></g><g transform="translate(3.261 1.773)"><g transform="translate(0.195)"><g transform="translate(0 1.592)"><rect class="f" width="53.654" height="42.595" transform="translate(0 9.548) rotate(-10.251)"/></g><g transform="translate(0 1.592)"><rect class="e" width="53.654" height="11.148" transform="matrix(0.984, -0.178, 0.178, 0.984, 0, 9.548)"/></g><g transform="translate(4.399 22.009)"><path class="d" d="M49.056,99.539a4.567,4.567,0,0,1-.136-.566c-.083-.4-.188-.916-.318-1.543-.266-1.321-.637-3.184-1.054-5.414l.169.117L40.171,93.52c-.03.042.255-.368.135-.194v.006l0,.008,0,.016.006.033.012.064.023.129.047.258.092.512.181,1.009q.178,1,.348,1.952c.223,1.266.434,2.462.628,3.565l-.169-.117c2.236-.39,4.11-.7,5.441-.909l1.557-.243a4.6,4.6,0,0,1,.578-.071,2.941,2.941,0,0,1-.507.126l-1.511.312c-1.312.265-3.213.642-5.506,1.071l-.142.027-.027-.144L40.7,97.372q-.174-.951-.357-1.951-.091-.5-.184-1.009l-.093-.512-.047-.258L40,93.513l-.012-.065-.006-.032,0-.016,0-.008v-.006c-.121.174.164-.239.136-.2l7.553-1.343.144-.025.025.142c.4,2.3.714,4.21.925,5.532L49,99.02A3,3,0,0,1,49.056,99.539Z" transform="translate(-39.946 -91.821)"/></g><g transform="translate(14.282 20.221)"><path class="d" d="M70.84,95.6a4.621,4.621,0,0,1-.136-.567l-.318-1.543c-.267-1.322-.637-3.184-1.054-5.414l.169.117L61.955,89.58c-.03.042.255-.369.135-.194V89.4l0,.016.006.032.012.065.023.129.047.258.092.512.181,1.009q.178,1,.348,1.953c.223,1.266.434,2.462.628,3.564l-.169-.117c2.235-.39,4.11-.7,5.441-.909l1.557-.243a4.5,4.5,0,0,1,.578-.071,2.98,2.98,0,0,1-.507.125l-1.511.312c-1.312.265-3.213.642-5.506,1.071l-.142.027-.027-.144-.661-3.558q-.174-.951-.357-1.951l-.184-1.009-.093-.512-.047-.258-.023-.129-.012-.065-.006-.032,0-.016,0-.008v-.006c-.121.173.164-.239.136-.2l7.553-1.343.144-.026.025.143c.4,2.3.714,4.21.925,5.532.1.62.175,1.127.237,1.524A3,3,0,0,1,70.84,95.6Z" transform="translate(-61.73 -87.881)"/></g><g transform="translate(24.165 18.434)"><path class="d" d="M92.624,91.66a4.568,4.568,0,0,1-.136-.566c-.083-.4-.188-.916-.318-1.543-.267-1.321-.637-3.184-1.054-5.414l.168.117-7.545,1.387c-.03.043.255-.368.135-.193v.014l0,.016.006.033.012.064.023.129.047.258.092.512.181,1.009q.178,1,.348,1.952c.223,1.266.434,2.462.628,3.565l-.169-.117c2.235-.39,4.11-.7,5.441-.909l1.557-.243a4.6,4.6,0,0,1,.578-.071,2.94,2.94,0,0,1-.507.126l-1.511.312c-1.312.265-3.212.642-5.506,1.071l-.142.026-.027-.143c-.2-1.1-.426-2.3-.661-3.559l-.357-1.95-.184-1.009-.093-.512-.047-.258-.023-.129-.012-.064-.006-.033,0-.016,0-.008v-.006c-.121.174.164-.239.136-.2l7.553-1.343.144-.025.025.142c.4,2.3.714,4.211.925,5.532l.237,1.525A2.98,2.98,0,0,1,92.624,91.66Z" transform="translate(-83.514 -83.942)"/></g><g transform="translate(34.049 16.646)"><path class="d" d="M114.408,87.721a4.49,4.49,0,0,1-.136-.567c-.083-.4-.189-.915-.318-1.543-.267-1.322-.637-3.184-1.054-5.414l.168.117L105.523,81.7c-.031.042.255-.368.135-.194v.014l0,.016.006.032.011.065.024.129.046.258.093.512.181,1.009.348,1.953c.223,1.266.434,2.462.627,3.564l-.168-.117c2.235-.39,4.11-.7,5.441-.908l1.557-.243a4.6,4.6,0,0,1,.578-.071,3,3,0,0,1-.507.126l-1.511.312c-1.312.265-3.212.642-5.506,1.071l-.142.027-.026-.144c-.2-1.1-.426-2.295-.661-3.558L105.7,83.6l-.183-1.009-.093-.512-.047-.258-.023-.129-.012-.065-.006-.032,0-.016v-.014c-.121.173.164-.239.136-.2l7.553-1.343.144-.026.024.143c.4,2.3.714,4.21.926,5.532q.144.93.237,1.524A2.984,2.984,0,0,1,114.408,87.721Z" transform="translate(-105.298 -80.002)"/></g><g transform="translate(43.932 14.859)"><path class="d" d="M136.192,83.781a4.466,4.466,0,0,1-.136-.566l-.318-1.543c-.266-1.322-.637-3.184-1.054-5.415l.169.117-7.545,1.387c-.03.043.256-.368.135-.193v.014l0,.016.006.032.011.065.024.129.046.257.093.512q.091.51.181,1.009l.348,1.953.627,3.564L128.616,85c2.235-.39,4.11-.7,5.441-.909l1.557-.243a4.561,4.561,0,0,1,.578-.071,2.94,2.94,0,0,1-.508.126l-1.511.312c-1.312.265-3.212.642-5.506,1.071l-.142.026-.027-.143-.66-3.558-.358-1.951q-.091-.5-.184-1.009l-.093-.512-.047-.258-.024-.129-.012-.064-.005-.033,0-.016v-.015c-.121.174.164-.239.136-.2l7.553-1.343.144-.025.025.142c.4,2.3.714,4.211.925,5.532.1.62.176,1.127.237,1.524A2.984,2.984,0,0,1,136.192,83.781Z" transform="translate(-127.081 -76.063)"/></g><g transform="translate(6.155 31.718)"><path class="d" d="M52.926,120.939a4.568,4.568,0,0,1-.136-.566c-.083-.4-.188-.916-.318-1.543-.266-1.321-.637-3.184-1.054-5.414l.169.117-7.545,1.387c-.03.043.255-.368.135-.193v.014l0,.016.006.032.012.065.023.129.047.258.092.512.181,1.009.349,1.952.627,3.565-.169-.117c2.236-.39,4.11-.7,5.441-.909l1.557-.243a4.56,4.56,0,0,1,.578-.071,2.943,2.943,0,0,1-.507.126l-1.511.312c-1.312.265-3.213.642-5.506,1.071l-.142.026-.027-.143-.661-3.559-.357-1.95-.184-1.009-.093-.512-.047-.258-.023-.129-.012-.064-.006-.033,0-.016v-.015c-.121.174.164-.239.136-.2l7.553-1.343.144-.025.025.142c.4,2.3.714,4.211.925,5.532.1.621.175,1.127.237,1.525A3,3,0,0,1,52.926,120.939Z" transform="translate(-43.816 -113.221)"/></g><g transform="translate(16.038 29.931)"><g transform="translate(0)"><path class="d" d="M74.71,117a4.568,4.568,0,0,1-.136-.566c-.083-.4-.188-.916-.318-1.543-.267-1.322-.637-3.184-1.054-5.414l.169.117-7.545,1.387c-.03.042.255-.368.135-.194v.006l0,.008,0,.016.006.033.012.064.023.129.047.258.092.512q.092.51.181,1.01.178,1,.348,1.952c.223,1.266.434,2.462.628,3.564l-.169-.117c2.236-.39,4.11-.7,5.441-.909l1.557-.243A4.6,4.6,0,0,1,74.71,117a3,3,0,0,1-.507.126l-1.511.312c-1.312.264-3.212.642-5.506,1.071l-.142.027-.027-.144-.661-3.558q-.174-.951-.357-1.951l-.184-1.009-.093-.512-.047-.257-.023-.129-.012-.065-.006-.032,0-.016,0-.008v-.006c-.121.174.164-.239.136-.2l7.553-1.343.144-.025.025.142c.4,2.3.714,4.211.925,5.532q.145.93.237,1.524A3,3,0,0,1,74.71,117Z" transform="translate(-65.6 -109.282)"/></g></g><g transform="translate(25.921 28.143)"><path class="d" d="M96.494,113.061a4.517,4.517,0,0,1-.136-.567l-.318-1.543c-.267-1.322-.637-3.184-1.054-5.415l.168.117-7.545,1.388c-.03.042.255-.369.135-.194v.014l0,.016.006.032.012.065.023.129.047.257.092.512.181,1.009q.178,1,.348,1.953l.628,3.564-.169-.117c2.235-.39,4.11-.7,5.441-.909l1.557-.243a4.4,4.4,0,0,1,.578-.071,3.04,3.04,0,0,1-.507.125l-1.511.312c-1.312.264-3.212.642-5.506,1.071l-.142.026-.027-.143-.661-3.558-.357-1.951-.184-1.009-.093-.512-.047-.258-.023-.129-.012-.064-.006-.033,0-.016v-.014c-.121.173.164-.239.136-.2l7.553-1.342.144-.026.025.143c.4,2.3.714,4.21.926,5.532.1.62.175,1.127.237,1.524A2.983,2.983,0,0,1,96.494,113.061Z" transform="translate(-87.384 -105.342)"/></g><g transform="translate(35.804 26.356)"><path class="d" d="M118.278,109.121a4.468,4.468,0,0,1-.136-.566c-.083-.4-.189-.916-.318-1.543-.267-1.321-.637-3.184-1.054-5.414l.168.117-7.545,1.387c-.03.042.255-.368.135-.194v.015l0,.016.006.033.011.064.024.129.047.258.092.512q.091.509.181,1.009l.348,1.952.627,3.565-.168-.117c2.235-.39,4.11-.7,5.441-.909l1.557-.243a4.593,4.593,0,0,1,.578-.071,2.941,2.941,0,0,1-.507.126l-1.511.312c-1.312.265-3.212.642-5.506,1.071l-.142.027-.027-.144c-.2-1.1-.426-2.295-.661-3.558L109.567,105l-.183-1.009-.093-.512-.047-.258-.023-.129-.012-.065L109.2,103l0-.016v-.014c-.121.174.164-.239.136-.2l7.553-1.343.144-.025.025.142c.4,2.3.714,4.211.926,5.532l.237,1.525A2.982,2.982,0,0,1,118.278,109.121Z" transform="translate(-109.168 -101.403)"/></g><g transform="translate(45.688 24.568)"><path class="d" d="M140.062,105.182a4.514,4.514,0,0,1-.136-.567c-.083-.4-.189-.915-.318-1.543-.267-1.322-.637-3.184-1.054-5.414l.168.117-7.545,1.388c-.03.042.256-.369.135-.194v.014l0,.016.006.032.011.065.024.129.046.258.093.512q.091.51.181,1.009l.348,1.953.627,3.564-.168-.117c2.235-.39,4.11-.7,5.441-.909l1.557-.243a4.494,4.494,0,0,1,.578-.071,3,3,0,0,1-.508.126l-1.511.312c-1.312.265-3.212.642-5.506,1.071l-.142.027-.026-.144c-.2-1.1-.426-2.295-.661-3.558l-.357-1.951q-.091-.5-.184-1.009l-.093-.512-.047-.258L131,99.156l-.011-.065-.006-.032,0-.016v-.014c-.121.173.164-.239.136-.2l7.553-1.343.144-.026.025.143c.4,2.3.714,4.21.925,5.532.1.62.176,1.127.237,1.524A2.984,2.984,0,0,1,140.062,105.182Z" transform="translate(-130.952 -97.463)"/></g><g transform="translate(7.989 40.947)"><rect class="d" width="7.672" height="7.673" transform="translate(0 1.365) rotate(-10.251)"/></g><g transform="translate(17.677 38.991)"><g transform="translate(0)"><path class="d" d="M78.322,136.972a4.519,4.519,0,0,1-.136-.567q-.125-.6-.318-1.543c-.267-1.322-.637-3.184-1.054-5.414l.168.117-7.545,1.387c-.031.043.255-.368.135-.193v.014l0,.016.006.032.011.065.024.129.046.257.093.512q.091.51.181,1.009l.348,1.953c.223,1.265.434,2.462.627,3.564l-.168-.117c2.235-.39,4.11-.7,5.441-.909l1.557-.243a4.5,4.5,0,0,1,.578-.071,3.056,3.056,0,0,1-.507.126l-1.511.312c-1.312.265-3.212.642-5.506,1.071l-.142.027-.026-.144c-.2-1.1-.426-2.295-.661-3.558l-.357-1.951-.183-1.009-.093-.512-.047-.258-.024-.129-.011-.064-.006-.033,0-.016v-.014c-.121.173.164-.239.136-.2l7.553-1.343.144-.026.025.143c.4,2.3.714,4.21.926,5.532.1.62.175,1.127.237,1.524A2.983,2.983,0,0,1,78.322,136.972Z" transform="translate(-69.212 -129.253)"/></g></g><g transform="translate(27.56 37.204)"><path class="d" d="M100.106,133.032a4.465,4.465,0,0,1-.136-.566c-.083-.4-.189-.916-.318-1.543-.267-1.321-.637-3.184-1.054-5.414l.168.117-7.545,1.387c-.03.042.256-.368.135-.194v.015l0,.016.006.032.011.064.024.129.046.258.093.512q.091.51.181,1.009.178,1,.348,1.952l.627,3.565-.168-.117c2.235-.39,4.11-.7,5.441-.909l1.557-.243a4.608,4.608,0,0,1,.578-.071,2.941,2.941,0,0,1-.508.126l-1.511.312c-1.312.265-3.212.642-5.506,1.071l-.142.026-.026-.144c-.2-1.1-.426-2.295-.661-3.558l-.358-1.951q-.091-.5-.184-1.009l-.093-.512-.047-.258-.024-.129-.011-.065-.006-.032,0-.016v-.014c-.121.174.164-.239.136-.2l7.553-1.343.144-.025.025.142c.4,2.3.714,4.211.925,5.532l.237,1.525A2.983,2.983,0,0,1,100.106,133.032Z" transform="translate(-90.996 -125.314)"/></g><g transform="translate(37.443 35.417)"><path class="d" d="M121.89,129.093a4.521,4.521,0,0,1-.136-.566l-.318-1.543c-.266-1.322-.637-3.184-1.054-5.414l.169.117L113,123.073c-.03.042.256-.368.135-.194v.014l0,.016.005.032.012.065.024.129.046.258.093.512q.091.51.181,1.01.179,1,.349,1.952l.627,3.564-.168-.117c2.235-.39,4.11-.7,5.441-.909l1.557-.243a4.5,4.5,0,0,1,.578-.071,3,3,0,0,1-.508.126l-1.511.312c-1.312.265-3.212.642-5.506,1.071l-.142.027-.027-.144c-.2-1.1-.426-2.295-.661-3.558q-.174-.951-.357-1.951-.091-.5-.184-1.009l-.093-.512-.047-.257-.024-.129L112.82,123l-.006-.032,0-.016v-.014c-.121.173.164-.239.136-.2L120.5,121.4l.144-.026.025.143c.4,2.3.714,4.21.925,5.532l.237,1.524A2.984,2.984,0,0,1,121.89,129.093Z" transform="translate(-112.779 -121.374)"/></g><g transform="translate(47.326 33.629)"><path class="d" d="M143.674,125.153a4.506,4.506,0,0,1-.137-.566c-.083-.4-.188-.916-.318-1.543-.266-1.321-.637-3.184-1.054-5.414l.169.117-7.545,1.387c-.03.042.255-.368.135-.193v.014l0,.016.006.032.012.065.023.129.047.257.092.512.181,1.009.349,1.953.627,3.564-.169-.117c2.236-.39,4.11-.7,5.441-.909l1.557-.243a4.56,4.56,0,0,1,.578-.071,2.941,2.941,0,0,1-.508.126l-1.511.312c-1.312.265-3.212.642-5.506,1.071l-.142.026-.027-.143c-.2-1.1-.426-2.3-.661-3.559-.116-.634-.235-1.285-.357-1.95l-.184-1.009-.093-.512-.046-.258-.024-.129-.012-.064-.006-.033,0-.016V119c-.121.174.164-.239.136-.2l7.553-1.343.144-.025.025.142c.4,2.3.714,4.211.925,5.532l.237,1.525A2.985,2.985,0,0,1,143.674,125.153Z" transform="translate(-134.563 -117.435)"/></g><g transform="translate(9.202 5.487)"><rect class="d" width="2.371" height="7.039" rx="1.185" transform="translate(0 0.422) rotate(-10.247)"/></g><g transform="translate(24.373 2.744)"><rect class="d" width="2.371" height="7.039" rx="1.185" transform="matrix(0.984, -0.178, 0.178, 0.984, 0, 0.422)"/></g><g transform="translate(39.543)"><rect class="d" width="2.371" height="7.039" rx="1.186" transform="translate(0 0.422) rotate(-10.26)"/></g></g><g transform="translate(0 1.43)"><path class="d" d="M90.527,89.29s-.06-.273-.158-.79l-.429-2.28-1.6-8.644c-1.364-7.446-3.314-18.09-5.666-30.924l.162.113L30.049,56.338h0l.135-.2,7.7,42.667L37.7,98.69l38.141-6.821,10.813-1.915,2.87-.5.742-.126c.168-.027.258-.038.258-.038s-.077.02-.238.052l-.723.139-2.836.531L75.966,92,37.756,98.985l-.147.027-.027-.148L29.849,56.2l-.03-.165.166-.03h0l52.8-9.52.138-.024.024.137c2.3,12.882,4.206,23.564,5.539,31.037.656,3.714,1.171,6.628,1.523,8.626.171.984.3,1.739.392,2.26S90.527,89.29,90.527,89.29Z" transform="translate(-29.819 -46.463)"/></g></g><g transform="translate(139.61)"><path class="e" d="M343.235,45.966A18.507,18.507,0,0,1,347.75,44l.93-4.469,7.551-.132,1.087,4.433a18.511,18.511,0,0,1,4.582,1.8l3.816-2.5,5.433,5.246-2.366,3.9a18.475,18.475,0,0,1,1.962,4.516l4.469.93.132,7.551-4.433,1.087a18.522,18.522,0,0,1-1.8,4.581l2.5,3.816L366.368,80.2l-3.9-2.366a18.486,18.486,0,0,1-4.516,1.962l-.93,4.469-7.551.132-1.087-4.434a18.5,18.5,0,0,1-4.581-1.8l-3.816,2.5-5.433-5.246,2.366-3.9A18.494,18.494,0,0,1,334.955,67l-4.469-.93-.132-7.551,4.434-1.087a18.512,18.512,0,0,1,1.8-4.581l-2.5-3.816,5.245-5.433,3.9,2.366Zm4.026,10.059a8.1,8.1,0,1,0,11.455-.2A8.1,8.1,0,0,0,347.261,56.025Z" transform="translate(-330.353 -39.402)"/></g></g><g transform="translate(35.793 214.008)"><g transform="translate(0)"><path class="g" d="M229.813,473.9c0,.065-39.888.118-89.082.118-49.21,0-89.09-.053-89.09-.118s39.88-.118,89.09-.118C189.925,473.778,229.813,473.831,229.813,473.9Z" transform="translate(-51.641 -473.778)"/></g></g><g transform="translate(27.421 -1.722)"><g transform="translate(94.806 10.713)"><g transform="translate(0.09)"><g transform="translate(4.588 11.855)"><rect class="g" width="8.763" height="13.676"/></g><path class="h" d="M260.406,37.837H242.355V23.1a34.425,34.425,0,0,1,18.051,0Z" transform="translate(-242.355 -21.892)"/></g><g transform="translate(0 1.261)"><path class="g" d="M260.509,24.676a3.448,3.448,0,0,1-.666.33,16.854,16.854,0,0,1-1.9.7,22.217,22.217,0,0,1-2.927.694,25.068,25.068,0,0,1-3.673.313,25.006,25.006,0,0,1-3.676-.278,22.17,22.17,0,0,1-2.934-.666,16.85,16.85,0,0,1-1.908-.681,3.44,3.44,0,0,1-.669-.323c.021-.054,1,.356,2.635.8a25.42,25.42,0,0,0,2.917.6,27.286,27.286,0,0,0,3.633.25,27.216,27.216,0,0,0,3.63-.285,25.333,25.333,0,0,0,2.91-.623C259.516,25.042,260.487,24.622,260.509,24.676Z" transform="translate(-242.156 -24.672)"/></g><g transform="translate(5.9 3.262)"><path class="g" d="M255.313,41.724c-.085,0-.154-2.83-.154-6.32s.069-6.321.154-6.321.154,2.83.154,6.321S255.4,41.724,255.313,41.724Z" transform="translate(-255.159 -29.083)"/></g><g transform="translate(9.334 3.291)"><path class="g" d="M262.883,41.844c-.085,0-.154-2.843-.154-6.349s.069-6.349.154-6.349.154,2.842.154,6.349S262.968,41.844,262.883,41.844Z" transform="translate(-262.729 -29.146)"/></g><g transform="translate(12.768 3.234)"><path class="g" d="M270.453,41.718c-.085,0-.154-2.843-.154-6.349s.069-6.349.154-6.349.154,2.842.154,6.349S270.538,41.718,270.453,41.718Z" transform="translate(-270.299 -29.02)"/></g><g transform="translate(15.628 2.207)"><path class="g" d="M276.757,40.482c-.085,0-.154-3.073-.154-6.862s.069-6.863.154-6.863.154,3.072.154,6.863S276.842,40.482,276.757,40.482Z" transform="translate(-276.603 -26.757)"/></g><g transform="translate(2.652 2.12)"><path class="g" d="M248.156,40.289c-.085,0-.154-3.073-.154-6.862s.069-6.863.154-6.863.154,3.072.154,6.863S248.241,40.289,248.156,40.289Z" transform="translate(-248.002 -26.564)"/></g></g><g transform="translate(146.62 32.442)"><g transform="translate(0 7.72)"><rect class="g" width="6.337" height="9.89" transform="matrix(0.691, 0.723, -0.723, 0.691, 7.15, 0)"/></g><g transform="translate(2.72)"><path class="h" d="M371.373,86.587l-9.018-9.437,7.707-7.365a24.9,24.9,0,0,1,9.018,9.437Z" transform="translate(-362.355 -69.785)"/></g><g transform="translate(4.229 1.223)"><path class="g" d="M365.682,80.2c-.051-.052,1.7-1.823,3.9-3.954s4.035-3.818,4.086-3.766-1.7,1.823-3.9,3.955S365.732,80.255,365.682,80.2Z" transform="translate(-365.681 -72.481)"/></g><g transform="translate(5.947 3.022)"><path class="g" d="M369.47,84.167a10.631,10.631,0,0,1,1.173-1.186c.746-.709,1.789-1.675,2.948-2.733l2.98-2.7.908-.811c.219-.193.325-.291.337-.293a34.66,34.66,0,0,1-4.046,4c-1.159,1.059-2.222,2-3,2.677A10.3,10.3,0,0,1,369.47,84.167Z" transform="translate(-369.469 -76.446)"/></g><g transform="translate(8.235 5.401)"><path class="g" d="M374.513,89.426a10.768,10.768,0,0,1,1.19-1.194c.757-.713,1.815-1.685,2.991-2.748l3.031-2.7.929-.807a3.1,3.1,0,0,1,.353-.284,7.062,7.062,0,0,1-1.156,1.228c-.75.721-1.8,1.7-2.98,2.763s-2.254,2.014-3.043,2.691A10.6,10.6,0,0,1,374.513,89.426Z" transform="translate(-374.512 -81.689)"/></g><g transform="translate(10.377 7.649)"><path class="g" d="M379.233,94.313c-.05-.053,1.719-1.812,3.952-3.929s4.084-3.791,4.134-3.738-1.719,1.812-3.953,3.929S379.283,94.366,379.233,94.313Z" transform="translate(-379.232 -86.644)"/></g></g><g transform="translate(35.391 36.053)"><g transform="translate(7.584 8.024)"><rect class="g" width="6.337" height="9.89" transform="matrix(0.75, -0.662, 0.662, 0.75, 0, 4.193)"/></g><path class="h" d="M128.036,85.737l-9.787,8.637L111.2,86.381a24.894,24.894,0,0,1,9.787-8.637Z" transform="translate(-111.195 -77.744)"/><g transform="translate(1.293 6.896)"><path class="g" d="M121.443,101.231c-.054.049-1.754-1.768-3.8-4.056s-3.654-4.183-3.6-4.232,1.754,1.767,3.8,4.056S121.5,101.183,121.443,101.231Z" transform="translate(-114.045 -92.943)"/></g><g transform="translate(3.173 4.89)"><path class="g" d="M125.573,97.17a10.487,10.487,0,0,1-1.139-1.219c-.678-.774-1.6-1.854-2.615-3.053l-2.577-3.085-.774-.94c-.184-.226-.278-.336-.279-.348a34.666,34.666,0,0,1,3.832,4.2c1.013,1.2,1.914,2.3,2.556,3.1A10.376,10.376,0,0,1,125.573,97.17Z" transform="translate(-118.188 -88.522)"/></g><g transform="translate(5.646 2.551)"><path class="g" d="M131.034,92.162a10.721,10.721,0,0,1-1.146-1.236c-.682-.784-1.612-1.88-2.627-3.1l-2.582-3.135-.769-.96a3.062,3.062,0,0,1-.27-.363,7.054,7.054,0,0,1,1.181,1.2c.691.778,1.626,1.869,2.642,3.087s1.923,2.332,2.568,3.148A10.524,10.524,0,0,1,131.034,92.162Z" transform="translate(-123.64 -83.366)"/></g><g transform="translate(7.961 0.909)"><path class="g" d="M136.085,88.132c-.055.048-1.743-1.79-3.77-4.1s-3.626-4.231-3.571-4.279,1.742,1.79,3.77,4.105S136.139,88.084,136.085,88.132Z" transform="translate(-128.742 -79.747)"/></g></g><circle class="i" cx="72.243" cy="72.243" r="72.243" transform="translate(0 102.167) rotate(-45)"/><g transform="translate(8.305 8.305)"><circle class="f" cx="66.371" cy="66.371" r="66.371" transform="translate(0 93.862) rotate(-45)"/><path class="g" d="M178.188,209.875a66.6,66.6,0,1,1,66.6-66.6A66.673,66.673,0,0,1,178.188,209.875Zm0-132.741a66.144,66.144,0,1,0,66.143,66.144A66.219,66.219,0,0,0,178.188,77.134Z" transform="translate(-84.325 -49.415)"/></g><g transform="translate(60.517 50.002)"><path class="j" d="M166.578,134.152c2.765-8.585,8.432-14.391,15.939-19.389s17.745-6.871,26.732-6.11v53.492Z" transform="translate(-166.578 -108.49)"/></g><g transform="translate(67.588 52.258)"><g transform="translate(0 27.913)"><path class="h" d="M212.018,198.179l-29.855-23.192,34.962,16.121,1.028,6.127Z" transform="translate(-182.163 -174.986)"/><g class="k"><path d="M182.163,174.986l31.175,18.331,3.787-2.211Z" transform="translate(-182.163 -174.986)"/></g></g><g transform="translate(27.902 42.156)"><circle class="l" cx="6.212" cy="6.212" r="6.212" transform="matrix(0.925, -0.38, 0.38, 0.925, 0, 4.715)"/><g transform="translate(1.768 1.879)"><path class="g" d="M253.9,210.536a13.351,13.351,0,0,0-1.5.252,6.193,6.193,0,0,0-3.35,2.267,6.086,6.086,0,0,0-.85,5.761,6.1,6.1,0,0,0,2.119,2.814,6.042,6.042,0,0,0,7.167,0,6.089,6.089,0,0,0,2.119-2.814,6.087,6.087,0,0,0-.85-5.762,6.193,6.193,0,0,0-3.35-2.267,13.38,13.38,0,0,0-1.5-.252,4.805,4.805,0,0,1,1.531.137,6.186,6.186,0,0,1,3.493,2.251,6.25,6.25,0,0,1,1.2,2.655,6.34,6.34,0,0,1-.26,3.334,6.35,6.35,0,0,1-2.207,2.96,6.316,6.316,0,0,1-7.521,0,6.344,6.344,0,0,1-2.206-2.959,6.338,6.338,0,0,1-.26-3.334,6.265,6.265,0,0,1,4.7-4.906A4.806,4.806,0,0,1,253.9,210.536Z" transform="translate(-247.559 -210.522)"/></g><g transform="translate(3.482 3.482)"><path class="g" d="M255.96,214.054a4.624,4.624,0,1,1-4.624,4.624A4.624,4.624,0,0,1,255.96,214.054Z" transform="translate(-251.336 -214.054)"/></g></g><g transform="translate(35.274)"><path class="g" d="M260.34,161.9s-1.273-40,.576-48.439C260.917,113.463,264.012,137.713,260.34,161.9Z" transform="translate(-259.913 -113.463)"/></g></g><g transform="translate(42.359 42.621)"><path class="g" d="M183.868,213.123l-.079,0,.178-4.987.142.006Zm24.9-4.044-1.863-4.629.139-.055,1.792,4.658Zm-49.4-2.381-.075-.038,2.22-4.469.123.062Zm70.551-11.478-3.559-3.5.093-.093,3.529,3.529Zm-90.287-4.342-.075-.091,3.868-3.154.065.08Zm104.02-16.925-4.678-1.74.049-.13,4.658,1.792ZM128.021,168.4l-.034-.128,4.823-1.28.024.085Zm114.523-19.18,0-.08,4.982-.3.008.141Zm0-.09-.007-.11,4.982-.3.006.112Zm-111.051-5.25-4.934-.747.017-.112,4.933.752ZM236.433,126.7l-.048-.092,4.433-2.292.054.1ZM139.7,122.145l-4.2-2.7.055-.087,4.207,2.685Zm82.029-13.418-.087-.069,3.117-3.9.087.069Zm-65.7-3.11-2.734-4.175.075-.049,2.768,4.153Zm44.952-7.365-.093-.024,1.252-4.831.122.032Zm-23.308-1.088-.811-4.924.112-.019.806,4.925Z" transform="translate(-126.555 -92.221)"/></g></g><g transform="translate(28.231 135.974)"><g transform="translate(154.823 20.359)"><g transform="translate(0 3.077)"><path class="g" d="M403.711,353.554c0,.065-6.152.118-13.74.118s-13.742-.053-13.742-.118,6.151-.118,13.742-.118S403.711,353.489,403.711,353.554Z" transform="translate(-376.229 -353.436)"/></g><g transform="translate(8.646)"><path class="g" d="M422.768,346.772c0,.065-6.152.118-13.74.118s-13.742-.053-13.742-.118,6.152-.118,13.742-.118S422.768,346.707,422.768,346.772Z" transform="translate(-395.286 -346.654)"/></g></g><g transform="translate(0 3.077)"><path class="g" d="M60.467,308.68c0,.065-5.707.118-12.746.118s-12.747-.053-12.747-.118,5.706-.118,12.747-.118S60.467,308.615,60.467,308.68Z" transform="translate(-34.975 -308.562)"/></g><g transform="translate(8.02)"><path class="g" d="M78.144,301.9c0,.065-5.707.118-12.746.118s-12.747-.053-12.747-.118,5.706-.118,12.747-.118S78.144,301.833,78.144,301.9Z" transform="translate(-52.652 -301.78)"/></g></g><g transform="translate(62.485 77.259)"><g transform="translate(82.973)"><g transform="translate(13.157 0.192)"><path class="g" d="M323.042,173.269a2.076,2.076,0,0,1,2.393-.193,2.837,2.837,0,0,1,3.228,1.341,2.524,2.524,0,0,1,2.789,3.314,2.109,2.109,0,0,1,.414,3.982,2.027,2.027,0,0,1-2.237,3.356l-7.1-9.455A2.076,2.076,0,0,1,323.042,173.269Z" transform="translate(-322.361 -172.785)"/></g><g transform="translate(0 1.112)"><g transform="translate(0 0.691)"><path class="m" d="M313.955,187.381a8.6,8.6,0,0,0-5.085-10.5l-.415-.163c-4.572-1.5-8.4,1.551-9.767,6.162l-5.205,15.138-.123,2.113,4.641,7,3.95-1.811,2.265-4.238s4.56,1.022,6.3-3.254C311.359,195.764,312.746,191.371,313.955,187.381Z" transform="translate(-293.36 -176.335)"/></g><g transform="translate(5.911 21.584)"><path class="n" d="M311.372,226.249a11.2,11.2,0,0,1-4.982-3.861s-.181,3.837,4.258,5.135Z" transform="translate(-306.39 -222.388)"/></g><g transform="translate(16.501 14.387)"><path class="g" d="M331.015,207.363a.659.659,0,0,1-.835.386.63.63,0,0,1-.415-.8.66.66,0,0,1,.834-.387A.631.631,0,0,1,331.015,207.363Z" transform="translate(-329.731 -206.525)"/></g><g transform="translate(16.393 12.467)"><path class="g" d="M331.906,203.538c-.107.05-.436-.477-1.1-.735s-1.275-.118-1.314-.227c-.021-.05.113-.164.384-.235a1.807,1.807,0,0,1,1.091.083,1.737,1.737,0,0,1,.835.685C331.946,203.345,331.958,203.517,331.906,203.538Z" transform="translate(-329.492 -202.293)"/></g><g transform="translate(10.732 12.445)"><path class="g" d="M318.3,203.082a.659.659,0,0,1-.835.387.631.631,0,0,1-.415-.8.66.66,0,0,1,.835-.387A.631.631,0,0,1,318.3,203.082Z" transform="translate(-317.015 -202.245)"/></g><g transform="translate(10.113 9.892)"><path class="g" d="M318.065,197.862c-.108.05-.437-.477-1.1-.734s-1.274-.118-1.314-.227c-.021-.049.112-.164.385-.234a1.81,1.81,0,0,1,1.091.083,1.739,1.739,0,0,1,.834.685C318.1,197.669,318.116,197.841,318.065,197.862Z" transform="translate(-315.65 -196.617)"/></g><g transform="translate(12.777 11.265)"><path class="g" d="M321.524,205.263a4.7,4.7,0,0,1,1.148.228c.176.049.348.078.422-.026a.923.923,0,0,0,.084-.544q0-.705.006-1.479a23.723,23.723,0,0,1,.2-3.8,23.71,23.71,0,0,1,.106,3.805q-.016.774-.03,1.479a1.048,1.048,0,0,1-.173.7.454.454,0,0,1-.374.137,1.236,1.236,0,0,1-.3-.073A4.631,4.631,0,0,1,321.524,205.263Z" transform="translate(-321.523 -199.644)"/></g><g transform="translate(10.273 8.083)"><path class="g" d="M318.789,193.725c-.128.157-.678-.157-1.4-.332-.718-.191-1.359-.181-1.387-.378-.01-.093.152-.224.444-.31a2.214,2.214,0,0,1,1.139,0,2.127,2.127,0,0,1,.983.544C318.776,193.459,318.847,193.649,318.789,193.725Z" transform="translate(-316.003 -192.629)"/></g><g transform="translate(17.237 10.463)"><path class="g" d="M331.4,197.9c.169-.114.58.2,1.136.39.549.211,1.064.238,1.12.433.022.093-.1.222-.357.3a1.74,1.74,0,0,1-1.818-.664C331.335,198.135,331.323,197.956,331.4,197.9Z" transform="translate(-331.353 -197.874)"/></g><g transform="translate(3.542)"><path class="g" d="M318.582,184.417s-.075-3.136-1.126-4.274c-1.272-1.378-2.626.08-3.958-.926s-2.544-2.326-4.529-1.77c-2.172.608-1.737,1.8-2.59,3.67-3.458,7.563-5.729,9.194-4.7,5.4.113-.416-.869-1.168-.371-2.918a20.4,20.4,0,0,1,2.7-6.314,6.573,6.573,0,0,1,3.753-2.225c2.727-.742,5.638.363,7.528,1.335S320.086,181.119,318.582,184.417Z" transform="translate(-301.168 -174.813)"/></g><g transform="translate(0.843 9.975)"><path class="m" d="M298.75,198.515a1.253,1.253,0,0,0-.818-1.619c-.831-.239-1.9-.135-2.5,1.542-1.061,2.974,2.143,3.426,2.179,3.342C297.636,201.724,298.316,199.763,298.75,198.515Z" transform="translate(-295.217 -196.801)"/></g><g transform="translate(1.945 11.022)"><path class="n" d="M298.691,201.691c-.01-.014-.064.018-.167.027a.55.55,0,0,1-.39-.13,1.362,1.362,0,0,1-.183-1.362,1.823,1.823,0,0,1,.41-.69.635.635,0,0,1,.532-.259.28.28,0,0,1,.255.251c.01.1-.03.15-.016.161s.082-.027.1-.159a.351.351,0,0,0-.051-.228.413.413,0,0,0-.26-.178.774.774,0,0,0-.705.268,1.872,1.872,0,0,0-.475.765,1.428,1.428,0,0,0,.3,1.554.588.588,0,0,0,.5.09C298.66,201.761,298.7,201.7,298.691,201.691Z" transform="translate(-297.647 -199.108)"/></g></g><g transform="translate(4.617)"><path class="g" d="M305.589,179.5a3,3,0,0,0,1.018,1.063,1.03,1.03,0,0,0,1.328-.256c.115-.191.158-.447.355-.553.235-.126.507.05.743.173a2.015,2.015,0,0,0,2.474-.579.846.846,0,0,0,1.016.514,4.531,4.531,0,0,0,1.137-.541,1.3,1.3,0,0,1,1.206-.108c.205.116.358.325.583.392.4.118.765-.26.974-.62s.43-.789.838-.868c.379-.073.727.192,1.062.384s.826.289,1.053-.023a.749.749,0,0,0,.078-.584,2.044,2.044,0,0,0-1.962-1.6,2.77,2.77,0,0,0-4.541-2.362,2.811,2.811,0,0,0-4.557-.691,2.038,2.038,0,0,0-3.223,1.918,1.935,1.935,0,0,0-1.555,1.045,1.108,1.108,0,0,0,.754,1.513,1.129,1.129,0,0,0,1.405,1.762" transform="translate(-303.535 -172.362)"/></g><g transform="translate(5.156 5.256)"><path class="o" d="M304.807,183.949a.759.759,0,0,0-.039.637,1.015,1.015,0,0,0,.451.583,1.094,1.094,0,0,0,.933.086l-.117-.067a3.152,3.152,0,0,0,.3.963,1.809,1.809,0,0,0,.4.543,1.228,1.228,0,0,0,.569.288,1.243,1.243,0,0,0,1.039-.153,1.83,1.83,0,0,0,.478-.518c.089-.138.125-.222.116-.228s-.068.063-.173.186a2.114,2.114,0,0,1-.491.452,1.287,1.287,0,0,1-1.781-.652,3.158,3.158,0,0,1-.289-.906l-.018-.107-.1.039a.959.959,0,0,1-.8-.053.928.928,0,0,1-.421-.489A1.534,1.534,0,0,1,304.807,183.949Z" transform="translate(-304.725 -183.948)"/></g><g transform="translate(13.425 0.73)"><path class="o" d="M322.951,173.973c-.005.01.069.051.178.158a1.083,1.083,0,0,1,.3.567l.013.07.062-.039a3.934,3.934,0,0,1,1.872-.592,3.072,3.072,0,0,1,1.256.2,2.563,2.563,0,0,1,1.1.845,2.6,2.6,0,0,1,.465.993,2.135,2.135,0,0,1-.025,1.012l-.028.1.1.011a1.773,1.773,0,0,1,1.162.628,1.726,1.726,0,0,1,.386.978,2.356,2.356,0,0,1-.159.942.64.64,0,0,0,.13-.226,1.754,1.754,0,0,0,.131-.721,1.8,1.8,0,0,0-.378-1.061,1.9,1.9,0,0,0-1.254-.707l.072.107a2.276,2.276,0,0,0,.039-1.1,2.741,2.741,0,0,0-.494-1.066,2.7,2.7,0,0,0-1.185-.9,3.166,3.166,0,0,0-1.328-.2,3.838,3.838,0,0,0-1.918.668l.075.031a1.075,1.075,0,0,0-.365-.587A.47.47,0,0,0,322.951,173.973Z" transform="translate(-322.95 -173.972)"/></g><g transform="translate(10.675 18.784)"><path class="g" d="M318.89,215.482a4.742,4.742,0,0,0-2-1.7,2.254,2.254,0,0,1,2,1.7Z" transform="translate(-316.889 -213.764)"/></g></g><g transform="translate(43.516 20.074)"><g transform="translate(73.528 22.651)"><g transform="translate(6.506)"><path class="n" d="M386.367,266.55a49.491,49.491,0,0,1,5.417.663.849.849,0,0,1-.943,1.039c-1.136-.036-4.859-.333-4.859-.333l-2.4,1.056-.79-.345Z" transform="translate(-382.796 -266.534)"/></g><g transform="translate(0 0.721)"><path class="m" d="M368.456,268.348l6.978.661,1.09.132s2.572-.931,3.044-1.016,4.8,2.254,4.8,2.254.164,1-1.043.745a13.446,13.446,0,0,1-2.672-1s-3.916,1.83-4.7,2.185-5.445.326-5.445.326l-1.649,1.078Z" transform="translate(-368.456 -268.124)"/></g></g><g transform="translate(76.273 27.874)"><path class="m" d="M374.506,284.476l2.847-1.806,9.787-3.485s.858-.781.415-1.1-10.861,1.25-10.861,1.25l-2.188,1.232Z" transform="translate(-374.506 -278.046)"/></g><g transform="translate(25.772 21.769)"><path class="o" d="M286.072,270.179c0,.545-8.508,14.58-10.927,18.087-3.584,5.2-7.178,5.849-7.178,5.849l-4.771-3.987,19.638-21.284,5.831-4.252Z" transform="translate(-263.196 -264.591)"/></g><g transform="translate(44.248 28.116)"><path class="o" d="M303.92,284.184s7.642,3.448,10.5,3.94c3.369.579,21.837-.722,21.837-.722l-.35-7.354-26.989-.613-3.224-.855Z" transform="translate(-303.92 -278.58)"/></g><g class="p" transform="translate(26.156 27.808)"><path d="M284.656,278.006c-.558.251-.877,1.726-1.3,2.169-4.472,4.695-7.749,9.995-12.366,14.243-1.99,1.831-4.248,3.4-6.949,3.263l2.758,2.343c2.3-.045,3.822-1.126,5.554-2.637s2.47-3.678,3.807-5.548c3.046-4.258,6.029-9.02,9.074-13.278C285.084,277.968,285.214,277.754,284.656,278.006Z" transform="translate(-264.042 -277.902)"/></g><g transform="translate(9.007)"><path class="d" d="M244.185,264.148s3.987.3,5.492-.629c1.8-1.115,17.737-22.009,17.737-22.009l.141-16.321-8.991-8.58-.931,1.414L238.51,239.846,226.242,251.49l14.708,7.9Z" transform="translate(-226.242 -216.608)"/></g><g transform="translate(0.05 0.633)"><path class="o" d="M253.026,241.787c-.478.574.287,8.8-10.428,9.949-9.045.969-27.906-.039-33.566-.376a2.639,2.639,0,0,1-2.527-2.736,2.28,2.28,0,0,1,.887-1.657c2.009-1.64,4.114-1.133,5.357-4.5s.676-4.613,2.87-5.946c3.1-1.883,10.688,1.568,10.688,1.568,1.907-2.884,2.91-5.426,5.589-8.871,2.165-2.784,5.1-6.594,7.482-7.943a30.628,30.628,0,0,1,4.389-1.732l1.468-.258.979-1.287c1.444,1.47,6.841,6.441,7.793,8.178l1.091,6.345Z" transform="translate(-206.5 -218.004)"/></g><g class="p" transform="translate(47.969 28.038)"><path d="M335.915,281.235a161.323,161.323,0,0,1-23.253-2.828l-.542,1.179c5.06,3.159,8.559,3.276,12.4,3.552s7.4-.316,11.107-.316A2.343,2.343,0,0,0,335.915,281.235Z" transform="translate(-312.12 -278.407)"/></g><g class="p" transform="translate(29.663 14.242)"><path d="M274.65,248l-2.879.181c1.2,3.906,3.13,5.229,6.42,7.649s3.817,3.133,7.546,4.8c.355.159,3.17,1.92,3.258,1.54C282.6,258.245,278.912,254.175,274.65,248Z" transform="translate(-271.771 -248)"/></g><g transform="translate(29.379 6.592)"><g transform="translate(0.029)"><path class="o" d="M271.524,236.232c-1.046,2.911.849,4.246.849,4.246S287.8,254.49,294.027,255.2s22.557-.158,22.557-.158v-7.6L296.693,245.3s-8-9.432-12.432-14.162" transform="translate(-271.209 -231.137)"/></g><path class="g" d="M284.227,231.137s.084.077.239.237l.68.715c.589.634,1.454,1.57,2.545,2.788,2.184,2.434,5.291,5.976,9.039,10.362l-.06-.032,19.894,2.113.1.011v.1c0,2.436,0,4.992,0,7.6v.113l-.112,0-3.571.163c-5.048.2-9.926.331-14.525.24l-1.711-.054c-.565-.034-1.127-.056-1.683-.1a15.254,15.254,0,0,1-1.655-.2c-.269-.065-.536-.136-.8-.216s-.518-.172-.766-.277a31.982,31.982,0,0,1-5.411-2.979,104.56,104.56,0,0,1-8.415-6.3c-2.354-1.932-4.274-3.61-5.718-4.922l0,0a3.18,3.18,0,0,1-1.055-1.687,3.794,3.794,0,0,1-.068-1.452,4.485,4.485,0,0,1,.2-.865c.063-.189.1-.283.1-.283s-.022.1-.076.291a4.983,4.983,0,0,0-.176.863,3.785,3.785,0,0,0,.09,1.427,3.111,3.111,0,0,0,1.039,1.625l0,0h0c1.455,1.294,3.387,2.958,5.749,4.875s5.152,4.1,8.426,6.253a31.976,31.976,0,0,0,5.38,2.946c.246.1.5.179.754.27s.515.146.777.209a15.11,15.11,0,0,0,1.626.189c.552.044,1.112.064,1.675.1l1.706.052c4.59.085,9.466-.052,14.511-.25l3.568-.162-.112.118c0-2.612,0-5.168,0-7.6l.1.114-19.889-2.159-.037,0-.024-.028c-3.73-4.4-6.816-7.959-8.976-10.413l-2.507-2.82-.66-.732C284.3,231.227,284.227,231.137,284.227,231.137Z" transform="translate(-271.146 -231.137)"/></g><g transform="translate(37.034 29.09)"><path class="g" d="M299.011,280.727a5.265,5.265,0,0,1-.426.683l-1.2,1.835c-1,1.553-2.358,3.722-3.849,6.119s-2.842,4.571-3.844,6.128c-.5.779-.912,1.4-1.2,1.833a5.326,5.326,0,0,1-.473.651,5.123,5.123,0,0,1,.4-.7l1.14-1.872,3.785-6.163c1.491-2.4,2.868-4.555,3.91-6.087.519-.767.953-1.378,1.26-1.8A5.255,5.255,0,0,1,299.011,280.727Z" transform="translate(-288.019 -280.726)"/></g><g transform="translate(74.666 6.474)"><g transform="translate(0 19.158)"><g transform="translate(0.117 0.058)"><path class="d" d="M390.661,274.792l-18.655,2.856a.654.654,0,0,1-.745-.547l-.029-.192a.653.653,0,0,1,.55-.745l19.777-2.931-.241.951A.81.81,0,0,1,390.661,274.792Z" transform="translate(-371.224 -273.232)"/></g><path class="g" d="M390.52,274.723a.864.864,0,0,0,.657-.764q.085-.355.193-.808l.054.06c-3.294.53-10.729,1.66-19.37,2.941a3.8,3.8,0,0,0-.519.093.533.533,0,0,0-.333.538c.007.072.025.182.039.257a.537.537,0,0,0,.25.354.586.586,0,0,0,.445.056l.531-.081,1.048-.159,3.995-.6,6.767-1.01,4.565-.661,1.243-.168.324-.038a.419.419,0,0,1,.112,0,.391.391,0,0,1-.108.029l-.321.061-1.236.212-4.554.735-6.759,1.06-3.993.618-1.048.161-.53.082a.827.827,0,0,1-.6-.086.773.773,0,0,1-.361-.509c-.018-.1-.03-.174-.043-.285a.768.768,0,0,1,.48-.775,3.568,3.568,0,0,1,.572-.107c8.641-1.28,16.085-2.355,19.39-2.8l.073-.01-.019.07-.215.8a.989.989,0,0,1-.278.544.772.772,0,0,1-.326.185A.315.315,0,0,1,390.52,274.723Z" transform="translate(-370.966 -273.105)"/></g><g transform="translate(19.014)"><g transform="translate(0.001 0.117)"><path class="d" d="M412.878,250.417l5.589-18.808a.667.667,0,0,1,.831-.444l.166.05a.666.666,0,0,1,.443.831l-5.888,19.277Z" transform="translate(-412.878 -231.137)"/></g><path class="g" d="M412.877,250.276a.449.449,0,0,1,.083.054l.224.166.86.654-.066.021c.838-2.914,3.154-10.548,5.837-19.408a.552.552,0,0,0-.146-.424.815.815,0,0,0-.435-.208.56.56,0,0,0-.682.462l-.615,2.062-1.167,3.9-1.995,6.606-1.366,4.466-.383,1.219-.105.319a.587.587,0,0,1-.044.111.379.379,0,0,1,.02-.1l.083-.313c.083-.295.2-.7.339-1.21l1.289-4.47,1.944-6.647,1.159-3.929.615-2.078a.841.841,0,0,1,.34-.514.786.786,0,0,1,.624-.11c.106.03.171.046.283.088a.786.786,0,0,1,.476.794,3.057,3.057,0,0,1-.118.443l-.127.414-.251.822-.495,1.617-.954,3.106-1.717,5.567-2.33,7.44-.019.06-.047-.039-.847-.7A2.589,2.589,0,0,1,412.877,250.276Z" transform="translate(-412.876 -230.878)"/></g></g><g transform="translate(38.897 1.839)"><path class="g" d="M299.629,228.823c-.031.02-.379-.5-.986-1.3a36.019,36.019,0,0,0-2.539-2.985c-1.051-1.116-2.064-2.065-2.8-2.75a13.172,13.172,0,0,1-1.177-1.129,1.583,1.583,0,0,1,.363.249c.225.171.54.429.925.755a36.814,36.814,0,0,1,2.862,2.713,26.563,26.563,0,0,1,2.5,3.049c.289.415.509.759.65,1A1.566,1.566,0,0,1,299.629,228.823Z" transform="translate(-292.125 -220.661)"/></g><g class="p" transform="translate(0 21.727)"><path d="M246.1,276.381c-1.32.348-11.757-.359-16.995-2.033a35.207,35.207,0,0,1-9.9-4.644,19.949,19.949,0,0,1-4.909-5.164c-.6-.343-1,1.467-1.241,2.218s-.736,2.712-2.122,3.611c-1.7,1.1-4.3,1.464-4.534,3.719a2.582,2.582,0,0,0,2.558,2.651c4.466.219,16.8.81,20.087.808C233.081,277.543,241.728,277.775,246.1,276.381Z" transform="translate(-206.39 -264.497)"/></g><g transform="translate(7.695 21.314)"><path class="g" d="M257.038,275.093a2.314,2.314,0,0,1-.293.25,3.743,3.743,0,0,1-1.011.443,13.645,13.645,0,0,1-4.033.257c-1.708-.081-3.728-.338-5.958-.655a60.685,60.685,0,0,1-7.207-1.4,32.642,32.642,0,0,1-6.857-2.63,23.35,23.35,0,0,1-4.9-3.453,18.18,18.18,0,0,1-2.656-3.048c-.269-.4-.466-.71-.587-.931a2.289,2.289,0,0,1-.181-.338,2.375,2.375,0,0,1,.221.313c.134.212.343.517.622.9a19.408,19.408,0,0,0,2.694,2.979,23.822,23.822,0,0,0,4.892,3.384,33.166,33.166,0,0,0,6.816,2.594,63.034,63.034,0,0,0,7.176,1.414c2.229.328,4.239.6,5.937.7a14.3,14.3,0,0,0,4-.179,4.082,4.082,0,0,0,1.008-.394A2.334,2.334,0,0,1,257.038,275.093Z" transform="translate(-223.351 -263.588)"/></g><g transform="translate(42.277 28.945)"><path class="g" d="M300.8,281.725c-.048.044-.359-.214-.7-.577s-.569-.693-.522-.737.359.214.7.577S300.845,281.68,300.8,281.725Z" transform="translate(-299.574 -280.406)"/></g><g transform="translate(30.05 5.362)"><path class="g" d="M283.065,229.171c-.016.043-.645-.247-1.727-.425a8.235,8.235,0,0,0-7.661,2.787c-.715.832-1.009,1.458-1.049,1.435a1.679,1.679,0,0,1,.193-.443,7.006,7.006,0,0,1,.728-1.1,7.971,7.971,0,0,1,7.82-2.845,6.976,6.976,0,0,1,1.264.374A1.7,1.7,0,0,1,283.065,229.171Z" transform="translate(-272.625 -228.426)"/></g><g transform="translate(19.785 20.752)"><path class="g" d="M266.473,268.767a.566.566,0,0,1-.171.075,4.289,4.289,0,0,1-.51.16,7.047,7.047,0,0,1-1.956.214,10.178,10.178,0,0,1-2.874-.514,16.276,16.276,0,0,1-3.246-1.491c-1.088-.649-2.076-1.339-2.974-1.959s-1.71-1.175-2.411-1.606-1.285-.754-1.7-.961a4.954,4.954,0,0,1-.634-.336.555.555,0,0,1,.179.053c.113.044.284.1.495.2a16.922,16.922,0,0,1,1.744.9c1.446.815,3.272,2.2,5.42,3.5a16.9,16.9,0,0,0,3.193,1.487,10.519,10.519,0,0,0,2.812.553A9.783,9.783,0,0,0,266.473,268.767Z" transform="translate(-250 -262.348)"/></g><g transform="translate(9.27 21.195)"><path class="g" d="M258.041,274.971a1.855,1.855,0,0,1-.346,0l-.989-.054c-.429-.024-.955-.058-1.562-.122s-1.3-.112-2.064-.222-1.6-.2-2.491-.36c-.9-.134-1.843-.328-2.84-.532a56.311,56.311,0,0,1-6.379-1.768,48.8,48.8,0,0,1-6.084-2.615c-.893-.49-1.751-.94-2.512-1.432-.383-.241-.764-.458-1.11-.7l-.994-.688c-.643-.425-1.176-.875-1.662-1.246-.24-.19-.468-.36-.667-.529l-.537-.474-.738-.661a1.916,1.916,0,0,1-.246-.242,1.887,1.887,0,0,1,.278.206l.765.627.549.456c.2.164.435.328.677.513.491.36,1.03.8,1.676,1.213l1,.673c.347.233.728.445,1.112.682.762.483,1.619.924,2.51,1.406a50.832,50.832,0,0,0,6.061,2.586,59.081,59.081,0,0,0,6.348,1.778c.992.209,1.935.409,2.826.551.887.167,1.72.279,2.479.387s1.45.181,2.056.256,1.129.123,1.557.162l.984.1A1.934,1.934,0,0,1,258.041,274.971Z" transform="translate(-226.821 -263.324)"/></g></g><g transform="translate(77.755 124.436)"><g transform="translate(0.005 0.314)"><path class="i" d="M282.611,447.33l-.741,12.293,18.619.14c-.1-1.779-9.7-5.422-9.7-5.422l.289-6.666Z" transform="translate(-281.87 -447.33)"/></g><g transform="translate(2.624 6.444)"><path class="d" d="M288.191,460.871a.76.76,0,0,0-.532.864.731.731,0,0,0,.852.535.8.8,0,0,0,.559-.918.758.758,0,0,0-.947-.458" transform="translate(-287.643 -460.841)"/></g><g transform="translate(0 11.036)"><path class="g" d="M281.864,472.533l0-1.571,17.9.818s.824.372.722.955Z" transform="translate(-281.859 -470.962)"/></g><g transform="translate(7.521 7.145)"><path class="d" d="M300.14,462.473c0,.091-.459.129-.908.418s-.69.669-.774.632c-.083-.018.056-.561.607-.9S300.161,462.39,300.14,462.473Z" transform="translate(-298.436 -462.387)"/></g><g transform="translate(9.929 8.016)"><path class="d" d="M304.987,464.345c.02.088-.375.24-.686.622s-.4.788-.495.784c-.085.014-.144-.52.252-.987S304.986,464.258,304.987,464.345Z" transform="translate(-303.744 -464.307)"/></g><g transform="translate(12.157 8.836)"><path class="d" d="M308.762,467.677c-.083.019-.206-.436.031-.933s.664-.691.7-.615-.227.34-.416.751S308.852,467.669,308.762,467.677Z" transform="translate(-308.655 -466.113)"/></g><g transform="translate(7.141 4.702)"><path class="d" d="M299.536,457.336c-.039.083-.455-.046-.969-.015s-.916.19-.963.112.341-.4.947-.428S299.581,457.265,299.536,457.336Z" transform="translate(-297.6 -457.002)"/></g><g transform="translate(5.828 1.306)"><path class="d" d="M297.527,451.034a1.745,1.745,0,0,1-.932-.012,4.185,4.185,0,0,1-.974-.307,4.365,4.365,0,0,1-.533-.288,1.142,1.142,0,0,1-.28-.221.4.4,0,0,1-.038-.484.5.5,0,0,1,.4-.205,1.211,1.211,0,0,1,.349.051,3.287,3.287,0,0,1,1.434.774c.429.4.574.744.543.761s-.25-.257-.686-.59a3.723,3.723,0,0,0-.828-.475,3.5,3.5,0,0,0-.534-.169c-.2-.054-.365-.056-.416.031-.019.034-.021.047.02.1a.924.924,0,0,0,.206.161,4.925,4.925,0,0,0,.49.285,5.174,5.174,0,0,0,.9.352A6.493,6.493,0,0,1,297.527,451.034Z" transform="translate(-294.704 -449.516)"/></g><g transform="translate(8.29)"><path class="d" d="M300.373,449.591a1.485,1.485,0,0,1-.239-.9,3.015,3.015,0,0,1,.377-1.585.771.771,0,0,1,.6-.466.435.435,0,0,1,.387.263,1.249,1.249,0,0,1,.093.343,2.079,2.079,0,0,1,0,.628,2.146,2.146,0,0,1-.405.96c-.367.48-.748.586-.755.555-.03-.046.289-.219.57-.681a2.143,2.143,0,0,0,.3-.874,1.911,1.911,0,0,0-.013-.539c-.028-.2-.1-.358-.175-.338-.093,0-.251.146-.328.3a3.115,3.115,0,0,0-.235.5,3.361,3.361,0,0,0-.187.929C300.328,449.236,300.422,449.577,300.373,449.591Z" transform="translate(-300.131 -446.638)"/></g></g><g transform="translate(0 92.66)"><g transform="translate(0.06)"><path class="i" d="M125.775,379.323l-12.01-2.725-3.157,18.35c1.771.194,6.924-8.693,6.924-8.693l6.531,1.367Z" transform="translate(-110.608 -376.598)"/></g><g transform="translate(7.322 3.453)"><path class="d" d="M128.047,384.875a.761.761,0,0,0-.766-.666.731.731,0,0,0-.666.754.8.8,0,0,0,.815.7.758.758,0,0,0,.606-.86" transform="translate(-126.613 -384.209)"/></g><path class="g" d="M113.693,376.6l1.551.25-3.709,17.529s-.5.753-1.059.558Z" transform="translate(-110.475 -376.598)"/><g transform="translate(6.258 8.124)"><path class="d" d="M125.037,396.351c-.089-.019-.053-.474-.265-.964s-.549-.79-.5-.867c.032-.079.544.147.791.745S125.116,396.384,125.037,396.351Z" transform="translate(-124.268 -394.505)"/></g><g transform="translate(4.703 10.326)"><path class="d" d="M122.037,400.79c-.09.005-.176-.409-.5-.778s-.712-.527-.693-.615c0-.087.536-.059.933.409S122.123,400.8,122.037,400.79Z" transform="translate(-120.841 -399.358)"/></g><g transform="translate(3.408 12.391)"><path class="d" d="M117.986,403.973c0-.084.464-.132.915.182s.574.767.493.792-.3-.279-.673-.532S117.98,404.064,117.986,403.973Z" transform="translate(-117.986 -403.91)"/></g><g transform="translate(9.2 8.256)"><path class="d" d="M130.769,396.72c-.075-.051.119-.441.172-.954s-.039-.935.046-.968.339.4.269,1S130.832,396.776,130.769,396.72Z" transform="translate(-130.752 -394.795)"/></g><g transform="translate(11.405 7.506)"><path class="d" d="M135.678,395.755a1.747,1.747,0,0,1,.163-.918,4.189,4.189,0,0,1,.461-.911,4.415,4.415,0,0,1,.371-.48,1.144,1.144,0,0,1,.264-.24.4.4,0,0,1,.484.041.5.5,0,0,1,.137.428,1.215,1.215,0,0,1-.107.337,3.349,3.349,0,0,1-.294.538,3.287,3.287,0,0,1-.7.752c-.467.358-.827.446-.839.412s.294-.2.693-.582a3.72,3.72,0,0,0,.6-.74,3.5,3.5,0,0,0,.254-.5c.084-.186.114-.351.036-.416-.03-.024-.043-.028-.106,0a.922.922,0,0,0-.193.176,4.925,4.925,0,0,0-.361.438,5.166,5.166,0,0,0-.494.83A6.431,6.431,0,0,1,135.678,395.755Z" transform="translate(-135.613 -393.142)"/></g><g transform="translate(11.361 9.87)"><path class="d" d="M135.516,398.462a1.484,1.484,0,0,1,.929-.09,3.014,3.014,0,0,1,1.5.629.77.77,0,0,1,.363.666.436.436,0,0,1-.323.34,1.267,1.267,0,0,1-.353.036,2.076,2.076,0,0,1-.619-.106,2.141,2.141,0,0,1-.882-.556c-.414-.44-.456-.833-.425-.835.05-.022.17.32.579.673a2.149,2.149,0,0,0,.813.439,1.918,1.918,0,0,0,.534.074c.2.005.37-.041.363-.118.017-.091-.1-.271-.246-.373a3.117,3.117,0,0,0-.459-.313,3.374,3.374,0,0,0-.887-.336C135.873,398.475,135.521,398.513,135.516,398.462Z" transform="translate(-135.516 -398.352)"/></g></g><g transform="translate(9.452 54.392)"><g transform="translate(0 2.092)"><path class="g" d="M172.558,296.861c-.664,1.062-7.554,4.693-7.388,15.482l-4.495,23.6L133.8,333.423l-2.49,10.789,34.113,5.627s4.813,1.162,7.635-4.482,10.371-26.209,10.537-26.706,4.814-12.615,4.814-12.615Z" transform="translate(-131.309 -296.861)"/></g><g transform="translate(36.024 2.092)"><path class="g" d="M210.955,304.9c-.058.32-1.842,7.153,5.2,12.247S243.8,335.355,243.8,335.355l.542,2.168-1.843,31.993,11.669.225s3.4-31.459,3.5-34.711-.255-7.7-4.413-11.3c-4.118-3.559-21.815-18.834-21.815-18.834s-14.683-8.127-14.538-8.038S211.822,300.131,210.955,304.9Z" transform="translate(-210.712 -296.861)"/></g><g transform="translate(41.249)"><path class="g" d="M222.227,294.343l1.564-2.092a64.937,64.937,0,0,1,11.242,5.98c2.815,2.038,6.933,4.769,6.564,7.661Z" transform="translate(-222.227 -292.251)"/></g><g transform="translate(35.937 5.98)"><path class="o" d="M243.69,340.037a.608.608,0,0,1-.119-.063l-.337-.2-1.284-.8-4.7-2.99c-3.955-2.542-9.423-6.046-15.4-10.024-1.5-.994-2.9-2.038-4.3-2.988a30.191,30.191,0,0,1-3.831-3.039,10.334,10.334,0,0,1-2.538-3.62,10.483,10.483,0,0,1-.665-3.8,11.846,11.846,0,0,1,1.283-5.4,8.557,8.557,0,0,1,.816-1.279l.251-.3a.56.56,0,0,1,.091-.1.578.578,0,0,1-.073.113l-.232.318a9.613,9.613,0,0,0-.772,1.293,12.012,12.012,0,0,0-1.2,5.355,10.393,10.393,0,0,0,.68,3.727,10.2,10.2,0,0,0,2.508,3.537,30.382,30.382,0,0,0,3.811,3c1.4.948,2.811,1.991,4.3,2.981,5.968,3.975,11.423,7.5,15.354,10.08L242,338.892l1.26.839.325.223A.537.537,0,0,1,243.69,340.037Z" transform="translate(-210.52 -305.432)"/></g><g transform="translate(51.18 6.819)"><path class="o" d="M263.122,322.188a1,1,0,0,1-.2-.142l-.548-.443-1.989-1.665-6.505-5.56a52.506,52.506,0,0,0-6.786-5.17c-.914-.6-1.663-1.073-2.18-1.4l-.594-.379a1.01,1.01,0,0,1-.2-.144.94.94,0,0,1,.225.1c.143.075.351.19.617.342.532.3,1.3.755,2.223,1.339a47.4,47.4,0,0,1,6.853,5.134l6.456,5.61,1.94,1.721.52.477A.959.959,0,0,1,263.122,322.188Z" transform="translate(-244.118 -307.282)"/></g><g transform="translate(29.275 41.338)"><path class="o" d="M200.025,389.948a64.463,64.463,0,0,1-4.188-6.581,64.581,64.581,0,0,1,4.188,6.581Z" transform="translate(-195.835 -383.367)"/></g><g transform="translate(30.003 41.435)"><path class="o" d="M202.829,387.979a51.284,51.284,0,0,1-5.388-4.4,51.276,51.276,0,0,1,5.388,4.4Z" transform="translate(-197.441 -383.581)"/></g><g transform="translate(68.777 38.5)"><path class="o" d="M288.937,377.12c.016.066-1.348.449-3.01.98s-3,1-3.022.94a3.465,3.465,0,0,1,.839-.405c.531-.218,1.276-.494,2.111-.76s1.6-.471,2.162-.6A3.473,3.473,0,0,1,288.937,377.12Z" transform="translate(-282.904 -377.112)"/></g><g transform="translate(69.805 42.255)"><path class="o" d="M290.91,385.471c0,.068-1.287.1-2.869.2s-2.863.227-2.872.16a19.443,19.443,0,0,1,5.741-.364Z" transform="translate(-285.17 -385.388)"/></g></g></g><g transform="translate(42.42 141.064)"><g transform="translate(17.681 46.09)"><g transform="translate(0.118 0.12)"><path class="d" d="M114.274,432.761a25.27,25.27,0,0,1,16.744-8.1c-1.593-2.482-4.424-7.321-6.017-9.8-8.477.045-15.064,4.826-19.52,11.951C108.614,429.064,111.14,430.5,114.274,432.761Z" transform="translate(-105.481 -414.855)"/></g><path class="g" d="M114.132,432.616a1.252,1.252,0,0,1-.154-.1l-.461-.312-1.756-1.177c-1.525-1.02-3.8-2.4-6.472-4.3l-.067-.048.044-.069A35.338,35.338,0,0,1,108,422.844a26.571,26.571,0,0,1,3.813-3.673,21.834,21.834,0,0,1,5-2.952,20.713,20.713,0,0,1,6.022-1.513,9.275,9.275,0,0,1,1.013-.073l1.007-.041.064,0,.036.057c2.193,3.469,4.127,6.844,6.008,9.809l.095.149-.176.016a26.4,26.4,0,0,0-7.472,1.708,24.291,24.291,0,0,0-5.25,2.867,31.516,31.516,0,0,0-3.017,2.468l-.757.719-.193.18a.43.43,0,0,1-.065.055.515.515,0,0,1,.063-.073l.186-.2c.165-.169.4-.421.719-.734a28.786,28.786,0,0,1,2.988-2.523,24.011,24.011,0,0,1,5.259-2.929,26.343,26.343,0,0,1,7.52-1.756l-.081.165c-1.9-2.965-3.836-6.337-6.025-9.8l.1.054-1,.041a9.076,9.076,0,0,0-1,.072,20.583,20.583,0,0,0-5.955,1.491,21.761,21.761,0,0,0-4.958,2.912,26.6,26.6,0,0,0-3.8,3.63,35.7,35.7,0,0,0-2.74,3.734l-.023-.117c2.655,1.915,4.914,3.315,6.425,4.36.759.517,1.34.932,1.731,1.216l.435.327A1.624,1.624,0,0,1,114.132,432.616Z" transform="translate(-105.221 -414.59)"/><g transform="translate(4.012 10.229)"><path class="g" d="M114.064,437.138a29.812,29.812,0,0,1,3.057,2.18,29.858,29.858,0,0,1,2.915,2.368,29.984,29.984,0,0,1-3.057-2.18A29.991,29.991,0,0,1,114.064,437.138Z" transform="translate(-114.063 -437.136)"/></g><g transform="translate(5.748 8.029)"><path class="g" d="M117.891,432.289a29.806,29.806,0,0,1,2.852,2.442,29.922,29.922,0,0,1,2.693,2.617,59.73,59.73,0,0,1-5.545-5.059Z" transform="translate(-117.889 -432.288)"/></g><g transform="translate(8.336 5.969)"><path class="g" d="M123.6,427.747a5.52,5.52,0,0,1,.765.778c.455.495,1.088,1.171,1.8,1.913s1.339,1.429,1.768,1.95a4.416,4.416,0,0,1,.645.883,5.843,5.843,0,0,1-.77-.773l-1.814-1.9c-.709-.744-1.327-1.442-1.751-1.966A4.633,4.633,0,0,1,123.6,427.747Z" transform="translate(-123.595 -427.746)"/></g><g transform="translate(11.315 4.61)"><path class="g" d="M134.354,430.839a4.414,4.414,0,0,1-.745-.793,25.963,25.963,0,0,1-1.557-2.109c-.57-.851-1.045-1.646-1.383-2.224a5.171,5.171,0,0,1-.506-.961,34.422,34.422,0,0,1,2.085,3.053c.565.847,1.1,1.6,1.492,2.138A5.731,5.731,0,0,1,134.354,430.839Z" transform="translate(-130.161 -424.751)"/></g><g transform="translate(14.231 3.93)"><path class="g" d="M139.9,429.166a3.826,3.826,0,0,1-.617-.785c-.351-.505-.808-1.224-1.267-2.043s-.832-1.585-1.08-2.149a3.847,3.847,0,0,1-.347-.936c.063-.028.718,1.34,1.633,2.969S139.961,429.127,139.9,429.166Z" transform="translate(-136.589 -423.253)"/></g><g transform="translate(16.667 3.05)"><path class="g" d="M145.562,427.222a4.143,4.143,0,0,1-.631-.8c-.362-.513-.84-1.236-1.338-2.053s-.922-1.574-1.212-2.131a4.168,4.168,0,0,1-.421-.926,4.569,4.569,0,0,1,.567.844l1.269,2.09,1.277,2.085A4.585,4.585,0,0,1,145.562,427.222Z" transform="translate(-141.957 -421.312)"/></g></g><g transform="translate(41.664)"><g transform="translate(0.13 0.195)"><path class="l" d="M180.426,319.973a27.575,27.575,0,0,1-19.215-6.543c-.666,3.149-2.176,9.077-2.842,12.226,6.618,6.464,15.4,7.8,24.321,5.683C181.988,327.183,181.129,324.129,180.426,319.973Z" transform="translate(-158.369 -313.43)"/></g><path class="g" d="M180.27,319.738a1.551,1.551,0,0,1,.045.193c.029.146.068.343.118.6l.459,2.261c.4,1.962,1.11,4.774,1.728,8.3l.014.081-.08.019a38.578,38.578,0,0,1-5.015.831,29,29,0,0,1-5.775-.071,23.855,23.855,0,0,1-6.147-1.543,22.6,22.6,0,0,1-5.833-3.44,10.076,10.076,0,0,1-.843-.72l-.812-.74-.048-.043.015-.066c.956-4.375,2.041-8.479,2.852-12.223l.038-.173.136.112a28.821,28.821,0,0,0,7.116,4.4,26.51,26.51,0,0,0,6.277,1.8,34.165,34.165,0,0,0,4.235.393l1.138.021.288.007a.44.44,0,0,1,.093.007.7.7,0,0,1-.1.007l-.294.01c-.259,0-.632.021-1.122.017a31.5,31.5,0,0,1-4.254-.334,26.2,26.2,0,0,1-6.327-1.759,28.759,28.759,0,0,1-7.183-4.4l.174-.06c-.8,3.755-1.88,7.862-2.832,12.228l-.033-.109.8.733a9.95,9.95,0,0,0,.834.712,22.451,22.451,0,0,0,5.771,3.409,23.724,23.724,0,0,0,6.085,1.54,29.071,29.071,0,0,0,5.732.09,38.921,38.921,0,0,0,4.991-.8l-.066.1c-.595-3.523-1.278-6.342-1.65-8.311-.194-.983-.328-1.75-.414-2.271-.037-.249-.067-.444-.088-.587A2.014,2.014,0,0,1,180.27,319.738Z" transform="translate(-158.083 -313)"/><g transform="translate(18.852 8.438)"><path class="g" d="M200.8,339.708a71.1,71.1,0,0,1-1.151-8.11,71.177,71.177,0,0,1,1.151,8.11Z" transform="translate(-199.636 -331.598)"/></g><g transform="translate(16.522 8.745)"><path class="g" d="M194.958,340.455a70.9,70.9,0,0,1-.428-8.18,71.215,71.215,0,0,1,.428,8.18Z" transform="translate(-194.5 -332.275)"/></g><g transform="translate(13.37 8.438)"><path class="g" d="M187.572,339.7a6.6,6.6,0,0,1,.009-1.19c.028-.733.055-1.744.074-2.863s.054-2.136.119-2.87a5.18,5.18,0,0,1,.169-1.181,7.05,7.05,0,0,1,0,1.19c-.014.816-.031,1.789-.049,2.865-.02,1.121-.073,2.137-.144,2.869A5.444,5.444,0,0,1,187.572,339.7Z" transform="translate(-187.553 -331.598)"/></g><g transform="translate(10.026 7.372)"><path class="g" d="M181.6,329.249a5.232,5.232,0,0,1-.037,1.186c-.065.73-.2,1.734-.411,2.831s-.449,2.079-.628,2.787a6.084,6.084,0,0,1-.337,1.136,5.692,5.692,0,0,1,.174-1.172l.559-2.8c.211-1.092.371-2.085.477-2.806A6.8,6.8,0,0,1,181.6,329.249Z" transform="translate(-180.181 -329.249)"/></g><g transform="translate(7.241 6.474)"><path class="g" d="M176.01,327.269a4.517,4.517,0,0,1-.13,1.08c-.117.661-.314,1.569-.585,2.557s-.568,1.869-.805,2.5a4.507,4.507,0,0,1-.441.995,5.534,5.534,0,0,1,.283-1.049c.2-.639.465-1.523.736-2.506s.491-1.879.65-2.529A5.55,5.55,0,0,1,176.01,327.269Z" transform="translate(-174.043 -327.269)"/></g><g transform="translate(4.674 5.069)"><path class="g" d="M170.124,324.174a4.881,4.881,0,0,1-.13,1.1c-.114.675-.3,1.6-.538,2.62s-.49,1.93-.689,2.585a4.916,4.916,0,0,1-.376,1.044,5.518,5.518,0,0,1,.215-1.088l.62-2.6.6-2.6A5.493,5.493,0,0,1,170.124,324.174Z" transform="translate(-168.385 -324.174)"/></g></g><g transform="translate(59.69 45.281)"><g transform="translate(0.197 0)"><path class="e" d="M213.826,412.808a25.6,25.6,0,0,1-15.578,10.6c1.964,2.252,5.52,6.681,7.484,8.932,8.489-1.3,14.382-7.072,17.79-14.873C220.046,415.674,217.3,414.606,213.826,412.808Z" transform="translate(-198.248 -412.808)"/></g><path class="g" d="M213.589,412.807a1.287,1.287,0,0,1,.168.073l.509.244,1.934.919c1.68.8,4.162,1.839,7.125,3.349l.073.038-.034.075a35.748,35.748,0,0,1-2.181,4.186,26.94,26.94,0,0,1-3.276,4.246,22.148,22.148,0,0,1-4.576,3.7,21,21,0,0,1-5.81,2.409,9.316,9.316,0,0,1-1,.223l-1,.19-.063.012-.044-.051c-2.712-3.152-5.151-6.247-7.476-8.939l-.116-.134.172-.041a26.757,26.757,0,0,0,7.235-2.821,24.622,24.622,0,0,0,4.836-3.653,31.852,31.852,0,0,0,2.657-2.921l.652-.833.166-.208a.4.4,0,0,1,.057-.065.552.552,0,0,1-.052.082l-.157.224c-.141.195-.336.481-.612.843a29.193,29.193,0,0,1-2.621,2.971,24.306,24.306,0,0,1-4.836,3.715,26.691,26.691,0,0,1-7.275,2.875l.056-.175c2.339,2.691,4.785,5.782,7.492,8.925l-.107-.039.992-.188a9.186,9.186,0,0,0,.994-.221,20.835,20.835,0,0,0,5.747-2.378,22.04,22.04,0,0,0,4.538-3.654,26.979,26.979,0,0,0,3.265-4.2,36.136,36.136,0,0,0,2.192-4.149l.039.112c-2.945-1.525-5.417-2.593-7.086-3.416-.837-.405-1.481-.735-1.915-.962l-.484-.263A1.791,1.791,0,0,1,213.589,412.807Z" transform="translate(-197.814 -412.807)"/><g transform="translate(15.181 3.412)"><path class="g" d="M237.935,424a61.289,61.289,0,0,1-6.66-3.672,61.289,61.289,0,0,1,6.66,3.672Z" transform="translate(-231.275 -420.327)"/></g><g transform="translate(14.119 5.299)"><path class="g" d="M235.242,428.737a61.358,61.358,0,0,1-6.308-4.247,61.106,61.106,0,0,1,6.308,4.247Z" transform="translate(-228.933 -424.487)"/></g><g transform="translate(12.333 7.199)"><path class="g" d="M230.8,433.474a5.669,5.669,0,0,1-.882-.666c-.529-.428-1.264-1.012-2.083-1.651s-1.554-1.233-2.062-1.692a4.486,4.486,0,0,1-.778-.788,6.036,6.036,0,0,1,.885.661l2.1,1.633c.82.64,1.544,1.248,2.047,1.71A4.714,4.714,0,0,1,230.8,433.474Z" transform="translate(-224.997 -428.674)"/></g><g transform="translate(10.249 8.322)"><path class="g" d="M220.406,431.152a4.492,4.492,0,0,1,.864.685,26.514,26.514,0,0,1,1.872,1.883c.7.769,1.292,1.494,1.716,2.023a5.249,5.249,0,0,1,.65.888,35.567,35.567,0,0,1-2.541-2.752c-.692-.766-1.339-1.439-1.813-1.921A5.83,5.83,0,0,1,220.406,431.152Z" transform="translate(-220.405 -431.151)"/></g><g transform="translate(8.333 9.481)"><path class="g" d="M216.184,433.707a3.92,3.92,0,0,1,.734.7c.426.455.991,1.107,1.572,1.86s1.069,1.465,1.4,1.993a3.942,3.942,0,0,1,.487.886c-.059.037-.917-1.238-2.076-2.734S216.133,433.753,216.184,433.707Z" transform="translate(-216.182 -433.705)"/></g><g transform="translate(5.732 10.771)"><path class="g" d="M210.45,436.549a4.236,4.236,0,0,1,.749.708c.438.461,1.025,1.114,1.646,1.86s1.157,1.441,1.531,1.955a4.261,4.261,0,0,1,.561.865,4.74,4.74,0,0,1-.692-.763l-1.581-1.907-1.589-1.9A4.723,4.723,0,0,1,210.45,436.549Z" transform="translate(-210.448 -436.548)"/></g></g><g transform="translate(115.277 29.278)"><g transform="translate(0.12 0.106)"><path class="l" d="M328.215,393.9a25.568,25.568,0,0,1,18.176-4.886c-1.114-2.768-3.012-8.113-4.126-10.882-8.435-1.559-15.886,1.947-21.663,8.185C323.289,389.157,325.528,391.065,328.215,393.9Z" transform="translate(-320.602 -377.765)"/></g><path class="g" d="M328.07,393.775a1.342,1.342,0,0,1-.135-.125l-.4-.4-1.523-1.5c-1.323-1.3-3.321-3.1-5.619-5.5l-.057-.059.056-.06a35.664,35.664,0,0,1,3.432-3.232,26.883,26.883,0,0,1,4.484-2.929,22.092,22.092,0,0,1,5.532-1.987,20.953,20.953,0,0,1,6.271-.364,9.213,9.213,0,0,1,1.021.119l1.008.15.063.01.025.062c1.523,3.863,2.807,7.583,4.116,10.886l.065.164-.176-.017a26.734,26.734,0,0,0-7.751.284,24.587,24.587,0,0,0-5.76,1.857,31.8,31.8,0,0,0-3.465,1.882l-.888.571-.225.142a.39.39,0,0,1-.075.042.6.6,0,0,1,.076-.06l.221-.16c.2-.137.474-.343.854-.593a29.108,29.108,0,0,1,3.447-1.942,24.3,24.3,0,0,1,5.781-1.915,26.65,26.65,0,0,1,7.806-.322l-.111.147c-1.323-3.306-2.614-7.025-4.135-10.879l.088.072-1-.148a9.262,9.262,0,0,0-1.01-.118,20.826,20.826,0,0,0-6.2.356,22,22,0,0,0-5.479,1.956,26.9,26.9,0,0,0-4.459,2.89,36.044,36.044,0,0,0-3.429,3.194v-.119c2.277,2.406,4.258,4.225,5.561,5.549.657.657,1.155,1.18,1.49,1.536l.371.407A1.791,1.791,0,0,1,328.07,393.775Z" transform="translate(-320.337 -377.532)"/><g transform="translate(4.338 7.566)"><path class="g" d="M329.9,394.21a61.211,61.211,0,0,1,5.075,5.65,61.046,61.046,0,0,1-5.075-5.65Z" transform="translate(-329.899 -394.209)"/></g><g transform="translate(6.479 5.708)"><path class="g" d="M334.621,390.115a61.047,61.047,0,0,1,4.554,6.078,61.176,61.176,0,0,1-4.554-6.078Z" transform="translate(-334.619 -390.114)"/></g><g transform="translate(9.442 4.15)"><path class="g" d="M341.152,386.68a5.659,5.659,0,0,1,.613.918c.358.578.86,1.37,1.423,2.242s1.061,1.673,1.388,2.273a4.47,4.47,0,0,1,.475,1,5.982,5.982,0,0,1-.618-.914l-1.444-2.23c-.564-.873-1.046-1.684-1.368-2.285A4.727,4.727,0,0,1,341.152,386.68Z" transform="translate(-341.149 -386.68)"/></g><g transform="translate(12.66 3.363)"><path class="g" d="M351.259,391.789a4.522,4.522,0,0,1-.59-.93,26.442,26.442,0,0,1-1.148-2.391c-.405-.954-.727-1.833-.954-2.472a5.236,5.236,0,0,1-.322-1.051,35.5,35.5,0,0,1,1.493,3.43c.4.95.79,1.8,1.079,2.408A5.816,5.816,0,0,1,351.259,391.789Z" transform="translate(-348.241 -384.945)"/></g><g transform="translate(15.685 3.239)"><path class="g" d="M357.088,391.176a3.905,3.905,0,0,1-.464-.9c-.253-.569-.571-1.37-.872-2.271s-.528-1.733-.667-2.34a3.945,3.945,0,0,1-.168-1c.067-.016.459,1.468,1.06,3.26S357.151,391.148,357.088,391.176Z" transform="translate(-354.909 -384.673)"/></g><g transform="translate(18.273 2.825)"><path class="g" d="M363.082,390.314a4.286,4.286,0,0,1-.475-.914c-.262-.578-.6-1.388-.941-2.294s-.619-1.739-.8-2.347a4.255,4.255,0,0,1-.244-1,4.736,4.736,0,0,1,.4.946l.865,2.318.875,2.313A4.673,4.673,0,0,1,363.082,390.314Z" transform="translate(-360.614 -383.759)"/></g></g><g transform="translate(70.683 17.206)"><g transform="translate(0.141 0.152)"><path class="l" d="M227.107,372.516c2.383,1.769,5.7,1.813,8.517.868a29.482,29.482,0,0,0,7.649-4.483,25.031,25.031,0,0,1,7.756-4.269l-6.676-13.374a31.535,31.535,0,0,0-10.671,7.359c-3.458,3.92-11.327,2.137-11.327,2.137Z" transform="translate(-222.355 -351.258)"/></g><path class="g" d="M226.938,372.333s-.035-.065-.093-.2l-.255-.6-.965-2.327-3.518-8.6-.061-.148.16.032a20.32,20.32,0,0,0,5.262.345,13.452,13.452,0,0,0,2.854-.535,7.329,7.329,0,0,0,2.64-1.484c.379-.349.746-.743,1.116-1.144s.777-.77,1.185-1.146a29.4,29.4,0,0,1,2.658-2.107,34.021,34.021,0,0,1,6.22-3.45l.1-.042.049.1.866,1.735,5.8,11.642.06.121-.131.036a18.708,18.708,0,0,0-5.03,2.379c-1.506.967-2.87,2-4.193,2.934a32.162,32.162,0,0,1-3.865,2.415,14.382,14.382,0,0,1-3.666,1.345,10.866,10.866,0,0,1-3.167.2,8.57,8.57,0,0,1-2.3-.527,6.907,6.907,0,0,1-1.316-.67l-.31-.223a.709.709,0,0,1-.1-.079,8.386,8.386,0,0,0,1.751.9,8.7,8.7,0,0,0,2.287.489,10.853,10.853,0,0,0,3.13-.23,14.363,14.363,0,0,0,3.619-1.357,32.385,32.385,0,0,0,3.831-2.422c1.315-.936,2.678-1.977,4.19-2.955a18.825,18.825,0,0,1,5.083-2.419l-.07.157-5.816-11.636-.866-1.735.149.057a34.021,34.021,0,0,0-6.174,3.419,29.269,29.269,0,0,0-2.64,2.086c-.4.372-.8.743-1.176,1.132s-.729.783-1.129,1.152a7.541,7.541,0,0,1-2.722,1.521,13.593,13.593,0,0,1-2.9.534,20.333,20.333,0,0,1-5.315-.374l.1-.116,3.438,8.615c.4,1.012.709,1.8.925,2.349l.235.615C226.916,372.258,226.938,372.333,226.938,372.333Z" transform="translate(-222.045 -350.924)"/><g transform="translate(5.168 3.874)"><g transform="translate(0 8.014)"><path class="g" d="M237.186,385.8c-.06.026-.947-1.894-1.982-4.288a47.191,47.191,0,0,1-1.765-4.382c.06-.026.947,1.894,1.982,4.289S237.246,385.771,237.186,385.8Z" transform="translate(-233.436 -377.126)"/></g><g transform="translate(2.365 8.136)"><path class="g" d="M242.924,385.632a91.168,91.168,0,0,1-4.272-8.235,91.309,91.309,0,0,1,4.272,8.235Z" transform="translate(-238.649 -377.396)"/></g><g transform="translate(4.491 7.49)"><path class="g" d="M247.63,383.995a8.355,8.355,0,0,1-.632-1.176c-.369-.735-.882-1.75-1.474-2.856s-1.151-2.1-1.559-2.812a8.291,8.291,0,0,1-.628-1.178,6.788,6.788,0,0,1,.771,1.092c.445.7,1.029,1.675,1.625,2.787s1.085,2.141,1.417,2.9A6.789,6.789,0,0,1,247.63,383.995Z" transform="translate(-243.334 -375.972)"/></g><g transform="translate(6.292 6.304)"><path class="g" d="M252.035,380.641a7.367,7.367,0,0,1-.713-1.056L249.674,377l-1.693-2.558a7.518,7.518,0,0,1-.676-1.081,6.26,6.26,0,0,1,.812.984c.473.629,1.1,1.518,1.755,2.526s1.21,1.943,1.593,2.63A6.364,6.364,0,0,1,252.035,380.641Z" transform="translate(-247.304 -373.358)"/></g><g transform="translate(8.209 4.71)"><path class="g" d="M256.5,377.12a6.653,6.653,0,0,1-.835-.989c-.488-.632-1.14-1.523-1.827-2.528s-1.28-1.938-1.692-2.622a6.633,6.633,0,0,1-.618-1.136,7.465,7.465,0,0,1,.759,1.047l1.746,2.578,1.768,2.563A7.481,7.481,0,0,1,256.5,377.12Z" transform="translate(-251.53 -369.844)"/></g><g transform="translate(9.998 3.066)"><path class="g" d="M260.447,373.5a6.626,6.626,0,0,1-.834-.99c-.488-.632-1.14-1.522-1.828-2.528s-1.28-1.937-1.692-2.621a6.608,6.608,0,0,1-.618-1.137,7.5,7.5,0,0,1,.759,1.047l1.746,2.578,1.768,2.563A7.438,7.438,0,0,1,260.447,373.5Z" transform="translate(-255.472 -366.221)"/></g><g transform="translate(11.868 1.816)"><path class="g" d="M264.665,370.643a81.967,81.967,0,0,1-5.069-7.178,81.725,81.725,0,0,1,5.069,7.178Z" transform="translate(-259.595 -363.465)"/></g><g transform="translate(14.154)"><path class="g" d="M269.1,367.811a7.479,7.479,0,0,1-.686-1.21l-1.494-3c-.586-1.168-1.141-2.211-1.575-2.947s-.733-1.172-.7-1.195a5.532,5.532,0,0,1,.846,1.107,30.211,30.211,0,0,1,1.644,2.929c.586,1.172,1.08,2.249,1.434,3.03A8.885,8.885,0,0,1,269.1,367.811Z" transform="translate(-264.634 -359.463)"/></g></g></g><g transform="translate(0 3.602)"><g transform="translate(0.141 0.152)"><path class="l" d="M71.311,342.531c2.382,1.769,5.7,1.813,8.516.868a29.487,29.487,0,0,0,7.649-4.483,25.031,25.031,0,0,1,7.756-4.269l-6.676-13.374a31.535,31.535,0,0,0-10.67,7.359c-3.458,3.92-11.327,2.137-11.327,2.137Z" transform="translate(-66.559 -321.273)"/></g><path class="g" d="M71.142,342.348s-.035-.065-.094-.2l-.255-.6-.965-2.326-3.518-8.6-.061-.148.16.032a20.3,20.3,0,0,0,5.262.345,13.451,13.451,0,0,0,2.855-.535,7.329,7.329,0,0,0,2.64-1.484c.378-.349.746-.743,1.116-1.144s.777-.77,1.185-1.146a29.312,29.312,0,0,1,2.658-2.107,34.033,34.033,0,0,1,6.22-3.45l.1-.042.049.1.866,1.734,5.8,11.642.06.121-.13.036a18.707,18.707,0,0,0-5.031,2.379c-1.506.967-2.87,2-4.193,2.934A32.205,32.205,0,0,1,82,342.3a14.407,14.407,0,0,1-3.667,1.345,10.862,10.862,0,0,1-3.167.2,8.6,8.6,0,0,1-2.3-.527,6.923,6.923,0,0,1-1.316-.67l-.31-.223a.654.654,0,0,1-.1-.078,8.385,8.385,0,0,0,1.751.9,8.681,8.681,0,0,0,2.287.489,10.834,10.834,0,0,0,3.13-.23,14.353,14.353,0,0,0,3.619-1.357,32.372,32.372,0,0,0,3.832-2.423c1.315-.936,2.678-1.977,4.19-2.954a18.833,18.833,0,0,1,5.084-2.419l-.07.157-5.816-11.636-.866-1.735.148.057a34.038,34.038,0,0,0-6.174,3.419,29.314,29.314,0,0,0-2.64,2.086c-.405.372-.8.743-1.176,1.132s-.728.783-1.129,1.152a7.529,7.529,0,0,1-2.722,1.521,13.593,13.593,0,0,1-2.9.534,20.336,20.336,0,0,1-5.315-.374l.1-.116,3.438,8.615.925,2.349.235.615C71.12,342.273,71.142,342.348,71.142,342.348Z" transform="translate(-66.249 -320.939)"/><g transform="translate(5.168 3.874)"><g transform="translate(0 8.014)"><path class="g" d="M81.389,355.812c-.06.026-.947-1.894-1.982-4.288s-1.825-4.356-1.765-4.382.947,1.894,1.982,4.289S81.449,355.786,81.389,355.812Z" transform="translate(-77.639 -347.141)"/></g><g transform="translate(2.365 8.136)"><path class="g" d="M87.127,355.647a91.168,91.168,0,0,1-4.272-8.235,45.532,45.532,0,0,1,2.241,4.064A45.564,45.564,0,0,1,87.127,355.647Z" transform="translate(-82.852 -347.411)"/></g><g transform="translate(4.491 7.49)"><path class="g" d="M91.833,354.01a8.356,8.356,0,0,1-.632-1.176c-.369-.735-.882-1.75-1.474-2.856s-1.152-2.1-1.559-2.812a8.351,8.351,0,0,1-.628-1.178,6.806,6.806,0,0,1,.772,1.092c.445.7,1.029,1.676,1.624,2.787s1.085,2.141,1.417,2.9A6.8,6.8,0,0,1,91.833,354.01Z" transform="translate(-87.537 -345.987)"/></g><g transform="translate(6.292 6.304)"><path class="g" d="M96.239,350.655a7.275,7.275,0,0,1-.713-1.056l-1.648-2.587-1.694-2.558a7.378,7.378,0,0,1-.675-1.081,6.373,6.373,0,0,1,.812.985c.473.629,1.1,1.518,1.755,2.526s1.21,1.943,1.593,2.63A6.388,6.388,0,0,1,96.239,350.655Z" transform="translate(-91.508 -343.373)"/></g><g transform="translate(8.209 4.71)"><path class="g" d="M100.708,347.135a6.635,6.635,0,0,1-.834-.989c-.488-.632-1.14-1.523-1.828-2.528s-1.28-1.937-1.691-2.621a6.66,6.66,0,0,1-.619-1.137,7.444,7.444,0,0,1,.759,1.047l1.746,2.578,1.768,2.563A7.437,7.437,0,0,1,100.708,347.135Z" transform="translate(-95.733 -339.859)"/></g><g transform="translate(9.998 3.066)"><path class="g" d="M104.65,343.512a6.627,6.627,0,0,1-.834-.99c-.488-.632-1.14-1.522-1.827-2.528s-1.28-1.937-1.692-2.621a6.655,6.655,0,0,1-.619-1.137,7.462,7.462,0,0,1,.759,1.047l1.746,2.578,1.768,2.563A7.469,7.469,0,0,1,104.65,343.512Z" transform="translate(-99.675 -336.236)"/></g><g transform="translate(11.868 1.815)"><path class="g" d="M108.869,340.658a41.056,41.056,0,0,1-2.63-3.521,40.727,40.727,0,0,1-2.438-3.658,41.1,41.1,0,0,1,2.63,3.522A40.87,40.87,0,0,1,108.869,340.658Z" transform="translate(-103.799 -333.479)"/></g><g transform="translate(14.154)"><path class="g" d="M113.3,337.826a7.416,7.416,0,0,1-.687-1.21l-1.494-3c-.586-1.168-1.14-2.211-1.575-2.947s-.733-1.172-.7-1.195a5.515,5.515,0,0,1,.846,1.107,30.2,30.2,0,0,1,1.644,2.929c.586,1.172,1.08,2.249,1.434,3.03A8.952,8.952,0,0,1,113.3,337.826Z" transform="translate(-108.837 -329.478)"/></g></g></g></g></g></g></svg>