<svg xmlns="http://www.w3.org/2000/svg" width="326.193" height="347.544" viewBox="0 0 326.193 347.544"><defs><style>.a,.h{fill:#344154;}.a{opacity:0.15;}.b{fill:#f5f5f5;}.c{fill:#1a2e35;}.d,.m{fill:#fff;}.e{fill:#e1e1e1;}.f{fill:#ececec;}.g{fill:#aed3f2;}.i{fill:#d9a171;}.j{fill:#ffbf9d;}.k{fill:#ff9a6c;}.l{fill:#375a64;}.m{opacity:0.5;}.n{opacity:0.3;}</style></defs><g transform="translate(-672.787 -4698.699)"><g transform="translate(672.787 4698.699)"><rect class="a" width="160.215" height="225.569" transform="translate(147.752 11.944)"/><g transform="translate(229.529 240.845)"><path class="b" d="M941.371,4996.887a14.031,14.031,0,0,1,3.425-1.489l.705-3.391,5.729-.1.824,3.363a14.025,14.025,0,0,1,3.476,1.367l2.9-1.9,4.121,3.98-1.794,2.959a14.008,14.008,0,0,1,1.489,3.426l3.39.706.1,5.728-3.363.824a14.051,14.051,0,0,1-1.367,3.475l1.9,2.9-3.979,4.123-2.959-1.8a14.07,14.07,0,0,1-3.426,1.489l-.706,3.391-5.728.1-.825-3.363a14.058,14.058,0,0,1-3.475-1.367l-2.895,1.9-4.122-3.979,1.8-2.959a14.021,14.021,0,0,1-1.489-3.426l-3.39-.707-.1-5.728,3.363-.824a14.055,14.055,0,0,1,1.367-3.475l-1.9-2.9,3.98-4.123,2.96,1.8Zm3.053,7.63a6.145,6.145,0,1,0,8.69-.153A6.145,6.145,0,0,0,944.425,5004.517Z" transform="translate(-931.599 -4991.907)"/></g><g transform="translate(0 279.678)"><path class="c" d="M995.874,5035.7s.339-.015,1.03-.022l3.135-.019v.082c-16.2.084-82.154.146-161.007.146l-116.809-.054c-14.942-.026-27.033-.047-35.4-.06l-9.624-.036-2.5-.019c-.564-.005-.852-.018-.852-.018s.288-.014.852-.02l2.5-.019,9.624-.035,35.4-.06,116.809-.055c78.853,0,144.811.063,161.007.147v.082l-3.135-.02C996.214,5035.717,995.874,5035.7,995.874,5035.7Z" transform="translate(-673.846 -5035.516)"/></g><g transform="translate(133.581 0)"><rect class="d" width="161.333" height="227.641" transform="translate(0.187 0.187)"/><path class="c" d="M985.373,4949.274c0-1.514-.069-93.16-.17-227.64l.17.169-161.315.017h-.019l.188-.187c-.013,85.3-.026,164.187-.036,227.64l-.152-.151,161.333.151-161.333.152h-.151v-.152c-.01-63.453-.022-142.335-.036-227.64v-.188h.206l161.315.017h.171v.172C985.444,4856.116,985.375,4947.761,985.373,4949.274Z" transform="translate(-823.853 -4721.446)"/><rect class="b" width="68.872" height="15.791" rx="6.688" transform="translate(11.055 151.327)"/><rect class="b" width="32.34" height="15.791" rx="6.688" transform="translate(44.81 151.327)"/><rect class="b" width="142.012" height="15.791" rx="6.688" transform="translate(10.73 183.695)"/><g transform="translate(12.943 144.787)"><path class="c" d="M868.122,4884.224c0,.1-6.657.188-14.866.188s-14.868-.083-14.868-.188,6.656-.187,14.868-.187S868.122,4884.12,868.122,4884.224Z" transform="translate(-838.388 -4884.037)"/></g><g transform="translate(13.317 176.991)"><path class="c" d="M887.036,4920.388c0,.1-10.8.188-24.113.188s-24.116-.084-24.116-.188,10.795-.187,24.116-.187S887.036,4920.284,887.036,4920.388Z" transform="translate(-838.808 -4920.201)"/></g><rect class="e" width="69.414" height="17.262" rx="6.508" transform="translate(8.194 115.478)"/><rect class="e" width="144.547" height="17.262" rx="6.508" transform="translate(8.194 10.525)"/><g transform="translate(53.97 18.969)"><path class="c" d="M941.746,4742.935c0,.1-12.825.188-28.641.188s-28.645-.084-28.645-.187,12.822-.187,28.645-.187S941.746,4742.831,941.746,4742.935Z" transform="translate(-884.46 -4742.748)"/></g><g transform="translate(0.043 31.779)"><path class="f" d="M985.379,4757.321c0,.1-36.151.188-80.735.188-44.6,0-80.742-.084-80.742-.188s36.143-.187,80.742-.187C949.228,4757.134,985.379,4757.218,985.379,4757.321Z" transform="translate(-823.901 -4757.134)"/></g><g transform="translate(0.043 108.143)"><path class="f" d="M985.379,4843.074c0,.1-36.151.188-80.735.188-44.6,0-80.742-.084-80.742-.188s36.143-.187,80.742-.187C949.228,4842.887,985.379,4842.97,985.379,4843.074Z" transform="translate(-823.901 -4842.887)"/></g><rect class="b" width="68.872" height="15.791" rx="6.688" transform="translate(11.055 49.272)"/><rect class="b" width="32.34" height="15.791" rx="6.688" transform="translate(44.81 49.272)"/><rect class="b" width="68.196" height="15.791" rx="6.688" transform="translate(9.412 81.64)"/><g transform="translate(12.943 42.732)"><path class="c" d="M868.122,4769.62c0,.1-6.657.188-14.866.188s-14.868-.085-14.868-.188,6.656-.187,14.868-.187S868.122,4769.516,868.122,4769.62Z" transform="translate(-838.388 -4769.433)"/></g><g transform="translate(89.601 42.732)"><path class="c" d="M947.884,4769.62c0,.1-5.241.188-11.7.188s-11.707-.085-11.707-.188,5.241-.187,11.707-.187S947.884,4769.516,947.884,4769.62Z" transform="translate(-924.472 -4769.433)"/></g><g transform="translate(13.317 74.935)"><path class="c" d="M887.036,4805.784c0,.1-10.8.187-24.113.187s-24.116-.084-24.116-.187,10.795-.188,24.116-.188S887.036,4805.68,887.036,4805.784Z" transform="translate(-838.808 -4805.596)"/></g><g transform="translate(100.716 208.895)"><path class="c" d="M984,4956.215c0,.1-10.531.188-23.52.188s-23.523-.083-23.523-.187,10.529-.187,23.523-.187S984,4956.113,984,4956.215Z" transform="translate(-936.954 -4956.028)"/></g><g transform="translate(83.983 47.945)"><path class="g" d="M923.338,4784.954a1.353,1.353,0,0,0-.338-.967,3.032,3.032,0,0,0-1.145-.664,13.562,13.562,0,0,1-1.394-.6,4.478,4.478,0,0,1-1-.689,2.777,2.777,0,0,1-.653-.916,3.083,3.083,0,0,1-.233-1.253,2.779,2.779,0,0,1,.8-2.053,3.379,3.379,0,0,1,2.128-.935v-1.586h1.186v1.609a3.092,3.092,0,0,1,2.053,1.093,3.6,3.6,0,0,1,.741,2.354h-2.143a2.042,2.042,0,0,0-.367-1.33,1.21,1.21,0,0,0-.982-.441,1.247,1.247,0,0,0-.941.344,1.312,1.312,0,0,0-.334.953,1.257,1.257,0,0,0,.326.905,3.591,3.591,0,0,0,1.213.7,13.643,13.643,0,0,1,1.456.671,4.212,4.212,0,0,1,.964.712,2.744,2.744,0,0,1,.6.9,3.119,3.119,0,0,1,.208,1.182,2.767,2.767,0,0,1-.786,2.046,3.448,3.448,0,0,1-2.165.927v1.475h-1.179v-1.467a3.568,3.568,0,0,1-2.354-1.079,3.475,3.475,0,0,1-.834-2.435h2.143a1.969,1.969,0,0,0,.419,1.353,1.526,1.526,0,0,0,1.2.471,1.472,1.472,0,0,0,1.031-.345A1.2,1.2,0,0,0,923.338,4784.954Z" transform="translate(-918.163 -4775.287)"/><path class="g" d="M937.516,4788h-2.142v-8.259l-2.558.793v-1.742l4.47-1.6h.231Z" transform="translate(-919.767 -4775.496)"/><path class="g" d="M949.293,4783.523a5.465,5.465,0,0,1-.927,3.424,3.7,3.7,0,0,1-5.412.022,5.314,5.314,0,0,1-.957-3.336v-1.987a5.4,5.4,0,0,1,.938-3.433,3.711,3.711,0,0,1,5.4-.01,5.291,5.291,0,0,1,.957,3.332Zm-2.143-2.185a3.947,3.947,0,0,0-.367-1.956,1.241,1.241,0,0,0-1.145-.613,1.22,1.22,0,0,0-1.116.584,3.7,3.7,0,0,0-.382,1.822v2.626a4.153,4.153,0,0,0,.36,1.963,1.224,1.224,0,0,0,1.152.642,1.2,1.2,0,0,0,1.135-.615,4.048,4.048,0,0,0,.363-1.885Z" transform="translate(-920.773 -4775.479)"/><path class="g" d="M959.075,4783.523a5.465,5.465,0,0,1-.927,3.424,3.7,3.7,0,0,1-5.411.022,5.311,5.311,0,0,1-.956-3.336v-1.987a5.4,5.4,0,0,1,.938-3.433,3.711,3.711,0,0,1,5.4-.01,5.291,5.291,0,0,1,.956,3.332Zm-2.142-2.185a3.947,3.947,0,0,0-.367-1.956,1.241,1.241,0,0,0-1.145-.613,1.22,1.22,0,0,0-1.116.584,3.7,3.7,0,0,0-.382,1.822v2.626a4.151,4.151,0,0,0,.36,1.963,1.224,1.224,0,0,0,1.152.642,1.2,1.2,0,0,0,1.135-.615,4.051,4.051,0,0,0,.363-1.885Z" transform="translate(-921.844 -4775.479)"/><path class="g" d="M961.82,4788.007a1.079,1.079,0,0,1,.345-.83,1.341,1.341,0,0,1,1.735,0,1.079,1.079,0,0,1,.345.83,1.062,1.062,0,0,1-.341.819,1.362,1.362,0,0,1-1.742,0A1.065,1.065,0,0,1,961.82,4788.007Z" transform="translate(-922.943 -4776.554)"/><path class="g" d="M973.81,4783.523a5.47,5.47,0,0,1-.926,3.424,3.7,3.7,0,0,1-5.412.022,5.312,5.312,0,0,1-.956-3.336v-1.987a5.393,5.393,0,0,1,.939-3.433,3.71,3.71,0,0,1,5.4-.01,5.28,5.28,0,0,1,.956,3.332Zm-2.142-2.185a3.947,3.947,0,0,0-.367-1.956,1.24,1.24,0,0,0-1.145-.613,1.22,1.22,0,0,0-1.116.584,3.7,3.7,0,0,0-.382,1.822v2.626a4.153,4.153,0,0,0,.36,1.963,1.225,1.225,0,0,0,1.153.642,1.2,1.2,0,0,0,1.134-.615,4.048,4.048,0,0,0,.363-1.885Z" transform="translate(-923.457 -4775.479)"/><path class="g" d="M982.144,4777.085v1.765h-.207a3.631,3.631,0,0,0-2.339.756,3.068,3.068,0,0,0-1.064,2.039,2.918,2.918,0,0,1,2.173-.875,2.75,2.75,0,0,1,2.239,1.008,4.044,4.044,0,0,1,.83,2.654,3.979,3.979,0,0,1-.456,1.905,3.27,3.27,0,0,1-1.289,1.326,3.754,3.754,0,0,1-1.887.475,3.5,3.5,0,0,1-2.754-1.186,4.606,4.606,0,0,1-1.049-3.166v-.771a6.928,6.928,0,0,1,.663-3.1,4.869,4.869,0,0,1,1.906-2.083,5.584,5.584,0,0,1,2.88-.745Zm-2.091,5.412a1.708,1.708,0,0,0-.941.27,1.629,1.629,0,0,0-.623.714v.65a2.888,2.888,0,0,0,.423,1.676,1.364,1.364,0,0,0,1.186.6,1.349,1.349,0,0,0,1.116-.544,2.55,2.55,0,0,0,0-2.83A1.4,1.4,0,0,0,980.053,4782.5Z" transform="translate(-924.533 -4775.484)"/><path class="g" d="M993.374,4783.523a5.47,5.47,0,0,1-.926,3.424,3.7,3.7,0,0,1-5.412.022,5.312,5.312,0,0,1-.956-3.336v-1.987a5.392,5.392,0,0,1,.939-3.433,3.71,3.71,0,0,1,5.4-.01,5.28,5.28,0,0,1,.956,3.332Zm-2.142-2.185a3.947,3.947,0,0,0-.367-1.956,1.24,1.24,0,0,0-1.145-.613,1.22,1.22,0,0,0-1.116.584,3.7,3.7,0,0,0-.382,1.822v2.626a4.151,4.151,0,0,0,.36,1.963,1.225,1.225,0,0,0,1.153.642,1.2,1.2,0,0,0,1.134-.615,4.048,4.048,0,0,0,.363-1.885Z" transform="translate(-925.6 -4775.479)"/></g><g transform="translate(83.983 67.603)"><path class="g" d="M923.338,4807.03a1.36,1.36,0,0,0-.338-.969,3.058,3.058,0,0,0-1.145-.663,13.369,13.369,0,0,1-1.394-.6,4.479,4.479,0,0,1-1-.689,2.768,2.768,0,0,1-.653-.917,3.078,3.078,0,0,1-.233-1.252,2.785,2.785,0,0,1,.8-2.054,3.383,3.383,0,0,1,2.128-.934v-1.586h1.186v1.608a3.1,3.1,0,0,1,2.053,1.093,3.606,3.606,0,0,1,.741,2.355h-2.143a2.047,2.047,0,0,0-.367-1.332,1.211,1.211,0,0,0-.982-.441,1.249,1.249,0,0,0-.941.345,1.314,1.314,0,0,0-.334.953,1.251,1.251,0,0,0,.326.9,3.58,3.58,0,0,0,1.213.7,13.564,13.564,0,0,1,1.456.67,4.184,4.184,0,0,1,.964.712,2.757,2.757,0,0,1,.6.9,3.12,3.12,0,0,1,.208,1.183,2.767,2.767,0,0,1-.786,2.046,3.452,3.452,0,0,1-2.165.927v1.475h-1.179V4810a3.566,3.566,0,0,1-2.354-1.079,3.475,3.475,0,0,1-.834-2.436h2.143a1.969,1.969,0,0,0,.419,1.353,1.524,1.524,0,0,0,1.2.471,1.474,1.474,0,0,0,1.031-.345A1.2,1.2,0,0,0,923.338,4807.03Z" transform="translate(-918.163 -4797.362)"/><path class="g" d="M939.281,4802.137a2.515,2.515,0,0,1-.393,1.394,2.844,2.844,0,0,1-1.083.971,3.126,3.126,0,0,1,1.246,1.041,2.674,2.674,0,0,1,.459,1.561,2.827,2.827,0,0,1-.979,2.272,4.665,4.665,0,0,1-5.331,0,2.821,2.821,0,0,1-.986-2.268,2.69,2.69,0,0,1,.459-1.564,3.071,3.071,0,0,1,1.238-1.037,2.811,2.811,0,0,1-1.078-.971,2.534,2.534,0,0,1-.389-1.394,2.8,2.8,0,0,1,.919-2.2,4.229,4.229,0,0,1,4.993-.008A2.79,2.79,0,0,1,939.281,4802.137Zm-1.92,4.812a1.558,1.558,0,0,0-.408-1.128,1.632,1.632,0,0,0-2.187,0,1.758,1.758,0,0,0-.007,2.243,1.673,1.673,0,0,0,2.2.014A1.545,1.545,0,0,0,937.361,4806.948Zm-.223-4.708a1.483,1.483,0,0,0-.334-1.012,1.357,1.357,0,0,0-1.875-.012,1.478,1.478,0,0,0-.334,1.024,1.548,1.548,0,0,0,.334,1.038,1.322,1.322,0,0,0,1.879,0A1.56,1.56,0,0,0,937.139,4802.24Z" transform="translate(-919.702 -4797.555)"/><path class="g" d="M949.293,4805.6a5.469,5.469,0,0,1-.927,3.425,3.7,3.7,0,0,1-5.412.022,5.314,5.314,0,0,1-.957-3.335v-1.988a5.4,5.4,0,0,1,.938-3.432,3.71,3.71,0,0,1,5.4-.012,5.3,5.3,0,0,1,.957,3.333Zm-2.143-2.186a3.949,3.949,0,0,0-.367-1.955,1.242,1.242,0,0,0-1.145-.612,1.218,1.218,0,0,0-1.116.583,3.7,3.7,0,0,0-.382,1.822v2.626a4.148,4.148,0,0,0,.36,1.963,1.221,1.221,0,0,0,1.152.642,1.2,1.2,0,0,0,1.135-.616,4.04,4.04,0,0,0,.363-1.884Z" transform="translate(-920.773 -4797.555)"/><path class="g" d="M959.075,4805.6a5.469,5.469,0,0,1-.927,3.425,3.7,3.7,0,0,1-5.411.022,5.312,5.312,0,0,1-.956-3.335v-1.988a5.4,5.4,0,0,1,.938-3.432,3.71,3.71,0,0,1,5.4-.012,5.3,5.3,0,0,1,.956,3.333Zm-2.142-2.186a3.949,3.949,0,0,0-.367-1.955,1.242,1.242,0,0,0-1.145-.612,1.218,1.218,0,0,0-1.116.583,3.705,3.705,0,0,0-.382,1.822v2.626a4.146,4.146,0,0,0,.36,1.963,1.221,1.221,0,0,0,1.152.642,1.2,1.2,0,0,0,1.135-.616,4.043,4.043,0,0,0,.363-1.884Z" transform="translate(-921.844 -4797.555)"/><path class="g" d="M961.82,4810.083a1.078,1.078,0,0,1,.345-.831,1.341,1.341,0,0,1,1.735,0,1.078,1.078,0,0,1,.345.831,1.063,1.063,0,0,1-.341.819,1.362,1.362,0,0,1-1.742,0A1.066,1.066,0,0,1,961.82,4810.083Z" transform="translate(-922.943 -4798.629)"/><path class="g" d="M973.81,4805.6a5.474,5.474,0,0,1-.926,3.425,3.7,3.7,0,0,1-5.412.022,5.312,5.312,0,0,1-.956-3.335v-1.988a5.392,5.392,0,0,1,.939-3.432,3.709,3.709,0,0,1,5.4-.012,5.287,5.287,0,0,1,.956,3.333Zm-2.142-2.186a3.949,3.949,0,0,0-.367-1.955,1.24,1.24,0,0,0-1.145-.612,1.218,1.218,0,0,0-1.116.583,3.7,3.7,0,0,0-.382,1.822v2.626a4.148,4.148,0,0,0,.36,1.963,1.223,1.223,0,0,0,1.153.642,1.2,1.2,0,0,0,1.134-.616,4.04,4.04,0,0,0,.363-1.884Z" transform="translate(-923.457 -4797.555)"/><path class="g" d="M983.592,4805.6a5.474,5.474,0,0,1-.926,3.425,3.7,3.7,0,0,1-5.412.022,5.312,5.312,0,0,1-.956-3.335v-1.988a5.392,5.392,0,0,1,.939-3.432,3.709,3.709,0,0,1,5.4-.012,5.287,5.287,0,0,1,.957,3.333Zm-2.143-2.186a3.948,3.948,0,0,0-.367-1.955,1.24,1.24,0,0,0-1.145-.612,1.217,1.217,0,0,0-1.116.583,3.7,3.7,0,0,0-.382,1.822v2.626a4.146,4.146,0,0,0,.36,1.963,1.223,1.223,0,0,0,1.153.642,1.2,1.2,0,0,0,1.134-.616,4.045,4.045,0,0,0,.363-1.884Z" transform="translate(-924.529 -4797.555)"/><path class="g" d="M993.374,4805.6a5.474,5.474,0,0,1-.926,3.425,3.7,3.7,0,0,1-5.412.022,5.312,5.312,0,0,1-.956-3.335v-1.988a5.392,5.392,0,0,1,.939-3.432,3.709,3.709,0,0,1,5.4-.012,5.287,5.287,0,0,1,.956,3.333Zm-2.142-2.186a3.949,3.949,0,0,0-.367-1.955,1.24,1.24,0,0,0-1.145-.612,1.217,1.217,0,0,0-1.116.583,3.705,3.705,0,0,0-.382,1.822v2.626a4.146,4.146,0,0,0,.36,1.963,1.223,1.223,0,0,0,1.153.642,1.2,1.2,0,0,0,1.134-.616,4.04,4.04,0,0,0,.363-1.884Z" transform="translate(-925.6 -4797.555)"/></g><g transform="translate(83.983 84.894)"><path class="h" d="M923.338,4826.447a1.353,1.353,0,0,0-.338-.968,3.039,3.039,0,0,0-1.145-.663,13.569,13.569,0,0,1-1.394-.6,4.479,4.479,0,0,1-1-.689,2.764,2.764,0,0,1-.653-.916,3.075,3.075,0,0,1-.233-1.252,2.78,2.78,0,0,1,.8-2.054,3.384,3.384,0,0,1,2.128-.935v-1.587h1.186v1.609a3.09,3.09,0,0,1,2.053,1.094,3.6,3.6,0,0,1,.741,2.354h-2.143a2.043,2.043,0,0,0-.367-1.33,1.208,1.208,0,0,0-.982-.442,1.249,1.249,0,0,0-.941.345,1.313,1.313,0,0,0-.334.952,1.255,1.255,0,0,0,.326.905,3.6,3.6,0,0,0,1.213.7,13.461,13.461,0,0,1,1.456.671,4.183,4.183,0,0,1,.964.712,2.739,2.739,0,0,1,.6.9,3.107,3.107,0,0,1,.208,1.182,2.768,2.768,0,0,1-.786,2.046,3.451,3.451,0,0,1-2.165.928v1.476h-1.179v-1.469a3.567,3.567,0,0,1-2.354-1.078,3.476,3.476,0,0,1-.834-2.436h2.143a1.968,1.968,0,0,0,.419,1.353,1.524,1.524,0,0,0,1.2.471,1.474,1.474,0,0,0,1.031-.344A1.2,1.2,0,0,0,923.338,4826.447Z" transform="translate(-918.163 -4816.779)"/><path class="h" d="M937.516,4829.5h-2.142v-8.26l-2.558.793v-1.742l4.47-1.6h.231Z" transform="translate(-919.767 -4816.988)"/><path class="h" d="M949.293,4825.016a5.468,5.468,0,0,1-.927,3.425,3.7,3.7,0,0,1-5.412.022,5.313,5.313,0,0,1-.957-3.336v-1.987a5.4,5.4,0,0,1,.938-3.432,3.711,3.711,0,0,1,5.4-.011,5.3,5.3,0,0,1,.957,3.333Zm-2.143-2.185a3.951,3.951,0,0,0-.367-1.955,1.241,1.241,0,0,0-1.145-.612,1.218,1.218,0,0,0-1.116.583,3.7,3.7,0,0,0-.382,1.822v2.626a4.153,4.153,0,0,0,.36,1.963,1.222,1.222,0,0,0,1.152.641,1.2,1.2,0,0,0,1.135-.615,4.044,4.044,0,0,0,.363-1.885Z" transform="translate(-920.773 -4816.972)"/><path class="h" d="M959.075,4825.016a5.467,5.467,0,0,1-.927,3.425,3.7,3.7,0,0,1-5.411.022,5.31,5.31,0,0,1-.956-3.336v-1.987a5.4,5.4,0,0,1,.938-3.432,3.711,3.711,0,0,1,5.4-.011,5.3,5.3,0,0,1,.956,3.333Zm-2.142-2.185a3.951,3.951,0,0,0-.367-1.955,1.241,1.241,0,0,0-1.145-.612,1.218,1.218,0,0,0-1.116.583,3.7,3.7,0,0,0-.382,1.822v2.626a4.151,4.151,0,0,0,.36,1.963,1.222,1.222,0,0,0,1.152.641,1.2,1.2,0,0,0,1.135-.615,4.047,4.047,0,0,0,.363-1.885Z" transform="translate(-921.844 -4816.972)"/><path class="h" d="M961.82,4829.5a1.081,1.081,0,0,1,.345-.831,1.341,1.341,0,0,1,1.735,0,1.081,1.081,0,0,1,.345.831,1.06,1.06,0,0,1-.341.818,1.36,1.36,0,0,1-1.742,0A1.063,1.063,0,0,1,961.82,4829.5Z" transform="translate(-922.943 -4818.046)"/><path class="h" d="M973.81,4825.016a5.473,5.473,0,0,1-.926,3.425,3.7,3.7,0,0,1-5.412.022,5.311,5.311,0,0,1-.956-3.336v-1.987a5.391,5.391,0,0,1,.939-3.432,3.71,3.71,0,0,1,5.4-.011,5.284,5.284,0,0,1,.956,3.333Zm-2.142-2.185a3.951,3.951,0,0,0-.367-1.955,1.239,1.239,0,0,0-1.145-.612,1.218,1.218,0,0,0-1.116.583,3.7,3.7,0,0,0-.382,1.822v2.626a4.153,4.153,0,0,0,.36,1.963,1.224,1.224,0,0,0,1.153.641,1.2,1.2,0,0,0,1.134-.615,4.044,4.044,0,0,0,.363-1.885Z" transform="translate(-923.457 -4816.972)"/><path class="h" d="M983.592,4825.016a5.473,5.473,0,0,1-.926,3.425,3.7,3.7,0,0,1-5.412.022,5.31,5.31,0,0,1-.956-3.336v-1.987a5.39,5.39,0,0,1,.939-3.432,3.709,3.709,0,0,1,5.4-.011,5.285,5.285,0,0,1,.957,3.333Zm-2.143-2.185a3.95,3.95,0,0,0-.367-1.955,1.239,1.239,0,0,0-1.145-.612,1.217,1.217,0,0,0-1.116.583,3.7,3.7,0,0,0-.382,1.822v2.626a4.151,4.151,0,0,0,.36,1.963,1.224,1.224,0,0,0,1.153.641,1.2,1.2,0,0,0,1.134-.615,4.049,4.049,0,0,0,.363-1.885Z" transform="translate(-924.529 -4816.972)"/><path class="h" d="M993.374,4825.016a5.473,5.473,0,0,1-.926,3.425,3.7,3.7,0,0,1-5.412.022,5.311,5.311,0,0,1-.956-3.336v-1.987a5.39,5.39,0,0,1,.939-3.432,3.71,3.71,0,0,1,5.4-.011,5.284,5.284,0,0,1,.956,3.333Zm-2.142-2.185a3.951,3.951,0,0,0-.367-1.955,1.239,1.239,0,0,0-1.145-.612,1.217,1.217,0,0,0-1.116.583,3.7,3.7,0,0,0-.382,1.822v2.626a4.151,4.151,0,0,0,.36,1.963,1.224,1.224,0,0,0,1.153.641,1.2,1.2,0,0,0,1.134-.615,4.044,4.044,0,0,0,.363-1.885Z" transform="translate(-925.6 -4816.972)"/></g><g transform="translate(83.983 101.167)"><path class="g" d="M923.338,4844.721a1.354,1.354,0,0,0-.338-.968,3.045,3.045,0,0,0-1.145-.664,13.575,13.575,0,0,1-1.394-.6,4.45,4.45,0,0,1-1-.69,2.757,2.757,0,0,1-.653-.916,3.082,3.082,0,0,1-.233-1.252,2.784,2.784,0,0,1,.8-2.054,3.385,3.385,0,0,1,2.128-.934v-1.586h1.186v1.608a3.1,3.1,0,0,1,2.053,1.094,3.6,3.6,0,0,1,.741,2.353h-2.143a2.047,2.047,0,0,0-.367-1.331,1.213,1.213,0,0,0-.982-.44,1.246,1.246,0,0,0-.941.345,1.313,1.313,0,0,0-.334.953,1.252,1.252,0,0,0,.326.9,3.588,3.588,0,0,0,1.213.7,13.367,13.367,0,0,1,1.456.671,4.2,4.2,0,0,1,.964.712,2.739,2.739,0,0,1,.6.9,3.113,3.113,0,0,1,.208,1.183,2.77,2.77,0,0,1-.786,2.046,3.449,3.449,0,0,1-2.165.926v1.476h-1.179v-1.468a3.564,3.564,0,0,1-2.354-1.079,3.473,3.473,0,0,1-.834-2.435h2.143a1.969,1.969,0,0,0,.419,1.353,1.529,1.529,0,0,0,1.2.471,1.474,1.474,0,0,0,1.031-.345A1.2,1.2,0,0,0,923.338,4844.721Z" transform="translate(-918.163 -4835.054)"/><path class="g" d="M938.547,4843.708h1.224v1.727h-1.224v2.335H936.4v-2.335h-4.426l-.1-1.349,4.5-7.11h2.165Zm-4.529,0H936.4V4839.9l-.141.245Z" transform="translate(-919.665 -4835.264)"/><path class="g" d="M949.293,4843.29a5.468,5.468,0,0,1-.927,3.425,3.7,3.7,0,0,1-5.412.022A5.315,5.315,0,0,1,942,4843.4v-1.987a5.394,5.394,0,0,1,.938-3.432,3.71,3.71,0,0,1,5.4-.012,5.3,5.3,0,0,1,.957,3.333Zm-2.143-2.186a3.946,3.946,0,0,0-.367-1.954,1.24,1.24,0,0,0-1.145-.613,1.218,1.218,0,0,0-1.116.583,3.7,3.7,0,0,0-.382,1.822v2.626a4.147,4.147,0,0,0,.36,1.962,1.222,1.222,0,0,0,1.152.643,1.2,1.2,0,0,0,1.135-.616,4.045,4.045,0,0,0,.363-1.884Z" transform="translate(-920.773 -4835.246)"/><path class="g" d="M959.118,4838.172l-4.174,9.6h-2.261l4.181-9.066H951.5v-1.728h7.621Z" transform="translate(-921.813 -4835.264)"/><path class="g" d="M961.82,4847.774a1.078,1.078,0,0,1,.345-.83,1.339,1.339,0,0,1,1.735,0,1.078,1.078,0,0,1,.345.83,1.064,1.064,0,0,1-.341.819,1.362,1.362,0,0,1-1.742,0A1.067,1.067,0,0,1,961.82,4847.774Z" transform="translate(-922.943 -4836.321)"/><path class="g" d="M973.81,4843.29a5.473,5.473,0,0,1-.926,3.425,3.7,3.7,0,0,1-5.412.022,5.313,5.313,0,0,1-.956-3.337v-1.987a5.389,5.389,0,0,1,.939-3.432,3.709,3.709,0,0,1,5.4-.012,5.285,5.285,0,0,1,.956,3.333Zm-2.142-2.186a3.946,3.946,0,0,0-.367-1.954,1.238,1.238,0,0,0-1.145-.613,1.218,1.218,0,0,0-1.116.583,3.7,3.7,0,0,0-.382,1.822v2.626a4.147,4.147,0,0,0,.36,1.962,1.223,1.223,0,0,0,1.153.643,1.2,1.2,0,0,0,1.134-.616,4.044,4.044,0,0,0,.363-1.884Z" transform="translate(-923.457 -4835.246)"/><path class="g" d="M983.592,4843.29a5.473,5.473,0,0,1-.926,3.425,3.7,3.7,0,0,1-5.412.022,5.312,5.312,0,0,1-.956-3.337v-1.987a5.388,5.388,0,0,1,.939-3.432,3.709,3.709,0,0,1,5.4-.012,5.286,5.286,0,0,1,.957,3.333Zm-2.143-2.186a3.944,3.944,0,0,0-.367-1.954,1.238,1.238,0,0,0-1.145-.613,1.217,1.217,0,0,0-1.116.583,3.7,3.7,0,0,0-.382,1.822v2.626a4.145,4.145,0,0,0,.36,1.962,1.223,1.223,0,0,0,1.153.643,1.2,1.2,0,0,0,1.134-.616,4.049,4.049,0,0,0,.363-1.884Z" transform="translate(-924.529 -4835.246)"/><path class="g" d="M993.374,4843.29a5.473,5.473,0,0,1-.926,3.425,3.7,3.7,0,0,1-5.412.022,5.313,5.313,0,0,1-.956-3.337v-1.987a5.388,5.388,0,0,1,.939-3.432,3.709,3.709,0,0,1,5.4-.012,5.285,5.285,0,0,1,.956,3.333Zm-2.142-2.186a3.946,3.946,0,0,0-.367-1.954,1.238,1.238,0,0,0-1.145-.613,1.217,1.217,0,0,0-1.116.583,3.7,3.7,0,0,0-.382,1.822v2.626a4.145,4.145,0,0,0,.36,1.962,1.223,1.223,0,0,0,1.153.643,1.2,1.2,0,0,0,1.134-.616,4.044,4.044,0,0,0,.363-1.884Z" transform="translate(-925.6 -4835.246)"/></g><g transform="translate(17.358 52.985)"><path class="i" d="M895.334,4786.789a8.233,8.233,0,0,1-1.115.28,13.186,13.186,0,0,1-8.311-1.19,4.793,4.793,0,0,1-1.278-.967,3.049,3.049,0,0,1-.768-1.535,2.272,2.272,0,0,1,.37-1.786,1.734,1.734,0,0,1,1.819-.579,1.313,1.313,0,0,1,.8.675,1.685,1.685,0,0,1,.135,1.05,3.782,3.782,0,0,1-1,1.848,9.039,9.039,0,0,1-3.612,2.467,8.71,8.71,0,0,1-4.664.423,5.215,5.215,0,0,1-2.281-1,2.711,2.711,0,0,1-1.109-2.307,2.53,2.53,0,0,1,.5-1.255,1.967,1.967,0,0,1,1.134-.793,1.412,1.412,0,0,1,1.346.444,2.013,2.013,0,0,1,.483,1.331,2.726,2.726,0,0,1-.331,1.371,3.082,3.082,0,0,1-.978,1.025,8.885,8.885,0,0,1-2.576,1.034,11.341,11.341,0,0,1-5.6.6,5.278,5.278,0,0,1-2.577-1.4,3.7,3.7,0,0,1-1.117-2.754,2.44,2.44,0,0,1,.78-1.748,1.788,1.788,0,0,1,1.9-.2,1.469,1.469,0,0,1,.718.7,1.5,1.5,0,0,1,.085.994,2.833,2.833,0,0,1-1.124,1.483,14.571,14.571,0,0,1-6.479,2.462,6.552,6.552,0,0,1-3.374-.3,3.4,3.4,0,0,1-2.074-2.542,2.318,2.318,0,0,1,1.716-2.589,1.605,1.605,0,0,1,1.536.552,2.448,2.448,0,0,1,.54,1.5,2.985,2.985,0,0,1-.329,1.517,3.553,3.553,0,0,1-1.022,1.117,7.858,7.858,0,0,1-2.641,1.107,8.858,8.858,0,0,1-5.27.19,4.529,4.529,0,0,1-2-1.459,3.248,3.248,0,0,1-.71-2.218,3.111,3.111,0,0,1,.962-1.956,2.118,2.118,0,0,1,1.921-.575l.078.021,0,.076a5.568,5.568,0,0,1-1.411,3.828,5.826,5.826,0,0,1-2.522,1.719,4.789,4.789,0,0,1-1.89.242,5.5,5.5,0,0,1-.647-.122,5,5,0,0,0,2.5-.225,5.784,5.784,0,0,0,2.436-1.72,5.411,5.411,0,0,0,1.325-3.711l.08.1a1.9,1.9,0,0,0-1.715.537,2.882,2.882,0,0,0-.873,1.808,3.624,3.624,0,0,0,2.564,3.4,8.606,8.606,0,0,0,5.095-.226,7.61,7.61,0,0,0,2.532-1.067,3.267,3.267,0,0,0,.924-1.015,2.653,2.653,0,0,0,.286-1.348,2.132,2.132,0,0,0-.464-1.293,1.269,1.269,0,0,0-1.217-.436,1.979,1.979,0,0,0-1.435,2.208,3.052,3.052,0,0,0,1.867,2.262,6.232,6.232,0,0,0,3.191.264,14.233,14.233,0,0,0,6.3-2.4,2.49,2.49,0,0,0,.986-1.274,1.068,1.068,0,0,0-.6-1.267,1.418,1.418,0,0,0-1.5.15,2.066,2.066,0,0,0-.648,1.482,3.321,3.321,0,0,0,1.01,2.472,4.916,4.916,0,0,0,2.394,1.3,11.024,11.024,0,0,0,5.416-.586,8.575,8.575,0,0,0,2.474-.981,2.739,2.739,0,0,0,.866-.9,2.381,2.381,0,0,0,.289-1.188,1.665,1.665,0,0,0-.387-1.1,1.055,1.055,0,0,0-1.011-.339,2.018,2.018,0,0,0-1.362,1.739,2.381,2.381,0,0,0,.98,2.009,4.894,4.894,0,0,0,2.13.942,8.417,8.417,0,0,0,4.493-.392,8.747,8.747,0,0,0,3.5-2.369,3.5,3.5,0,0,0,.938-1.7,1.188,1.188,0,0,0-.74-1.425,1.478,1.478,0,0,0-1.543.48,2.035,2.035,0,0,0-.334,1.588,3.448,3.448,0,0,0,1.913,2.359,13.088,13.088,0,0,0,4.932,1.415,13.875,13.875,0,0,0,3.265-.115c.369-.061.652-.112.84-.154A1.705,1.705,0,0,1,895.334,4786.789Z" transform="translate(-843.345 -4780.946)"/></g><g transform="translate(95.369 52.466)"><path class="i" d="M975.347,4785.868a4.81,4.81,0,0,1-.9.45,8.274,8.274,0,0,1-2.833.595,8.706,8.706,0,0,1-4.448-1.04,5.536,5.536,0,0,1-2.166-1.9,2.576,2.576,0,0,1-.388-1.564,2.184,2.184,0,0,1,.835-1.484,1.409,1.409,0,0,1,.876-.29,1.346,1.346,0,0,1,.874.371,2.137,2.137,0,0,1,.583,1.774,3.133,3.133,0,0,1-.9,1.712,7.489,7.489,0,0,1-1.575,1.2,9.371,9.371,0,0,1-3.932,1.257,7.511,7.511,0,0,1-4.3-.8,4.211,4.211,0,0,1-1.667-1.613,3.134,3.134,0,0,1-.381-1.147,2.776,2.776,0,0,1,.176-1.217,2.822,2.822,0,0,1,1.714-1.729,1.642,1.642,0,0,1,1.294.129,2,2,0,0,1,.867.968,2.991,2.991,0,0,1-.1,2.521,5.223,5.223,0,0,1-1.714,1.886,9.4,9.4,0,0,1-4.831,1.67,9.591,9.591,0,0,1-5-1.075,7.523,7.523,0,0,1-2.033-1.515,3.44,3.44,0,0,1-1.009-2.312,2.28,2.28,0,0,1,1.386-2.052,1.4,1.4,0,0,1,1.292.154,1.888,1.888,0,0,1,.714,1.051,2.716,2.716,0,0,1-.485,2.329,7.212,7.212,0,0,1-1.657,1.6,10.13,10.13,0,0,1-8.131,1.739,5.491,5.491,0,0,1-3.3-1.975,3.05,3.05,0,0,1-.611-1.75,3.32,3.32,0,0,1,.434-1.722,2.19,2.19,0,0,1,1.33-1.06,1.884,1.884,0,0,1,1.573.352,2.892,2.892,0,0,1,1.062,2.639,3.553,3.553,0,0,1-1.272,2.154,4.775,4.775,0,0,1-1.88.955,9.274,9.274,0,0,1-2.892.181l-.75-.066a1.266,1.266,0,0,1-.255-.039,1.324,1.324,0,0,1,.257,0l.751.028a9.675,9.675,0,0,0,2.85-.246,4.659,4.659,0,0,0,1.8-.949,3.378,3.378,0,0,0,1.18-2.047,2.677,2.677,0,0,0-1-2.419,1.64,1.64,0,0,0-1.371-.3,1.939,1.939,0,0,0-1.16.947,2.9,2.9,0,0,0,.183,3.171,5.2,5.2,0,0,0,3.132,1.841,9.83,9.83,0,0,0,7.859-1.714,6.94,6.94,0,0,0,1.572-1.52,2.358,2.358,0,0,0,.431-2.029,1.534,1.534,0,0,0-.574-.851,1.032,1.032,0,0,0-.964-.111,1.926,1.926,0,0,0-1.144,1.716,3.08,3.08,0,0,0,.915,2.056,7.19,7.19,0,0,0,1.934,1.436,9.248,9.248,0,0,0,4.8,1.03,9.032,9.032,0,0,0,4.636-1.6,4.843,4.843,0,0,0,1.6-1.745,2.62,2.62,0,0,0,.093-2.208,1.437,1.437,0,0,0-1.721-.9,2.48,2.48,0,0,0-1.484,1.51,2.436,2.436,0,0,0-.159,1.055,2.816,2.816,0,0,0,.338,1.013,3.865,3.865,0,0,0,1.528,1.481,7.187,7.187,0,0,0,4.1.775,9.084,9.084,0,0,0,3.8-1.2,7.206,7.206,0,0,0,1.516-1.142,2.844,2.844,0,0,0,.833-1.541,1.858,1.858,0,0,0-.486-1.535,1.062,1.062,0,0,0-1.4-.07,1.938,1.938,0,0,0-.742,1.3,2.34,2.34,0,0,0,.344,1.413,5.339,5.339,0,0,0,2.061,1.84,8.687,8.687,0,0,0,7.154.559C975.037,4786.025,975.336,4785.844,975.347,4785.868Z" transform="translate(-930.949 -4780.364)"/></g><g transform="translate(15.92 85.973)"><path class="i" d="M898.661,4821.781a1.759,1.759,0,0,1-.276.14l-.826.375c-.729.323-1.808.794-3.228,1.329a26.253,26.253,0,0,1-5.341,1.421,20.561,20.561,0,0,1-3.453.209,11.7,11.7,0,0,1-3.843-.581,4.574,4.574,0,0,1-2.92-3.041,2.97,2.97,0,0,1,.283-2.3,2.6,2.6,0,0,1,1.989-1.341,2.2,2.2,0,0,1,2.067,1.335,3.4,3.4,0,0,1,.182,2.561,5.009,5.009,0,0,1-1.508,2.163,9.819,9.819,0,0,1-2.261,1.458,7.749,7.749,0,0,1-5.465.639,5.538,5.538,0,0,1-3.8-4.185,4.555,4.555,0,0,1-.01-1.523,2.93,2.93,0,0,1,.619-1.427,1.939,1.939,0,0,1,1.386-.8,1.4,1.4,0,0,1,1.329.929,3.722,3.722,0,0,1-.531,3.059,9.242,9.242,0,0,1-2.018,2.391,8.513,8.513,0,0,1-11.281-.173,4.807,4.807,0,0,1-1.461-2.575,2.95,2.95,0,0,1,.1-1.5,3.024,3.024,0,0,1,.843-1.228,2.506,2.506,0,0,1,1.341-.631,1.776,1.776,0,0,1,1.417.443,2.739,2.739,0,0,1,.644,2.7,5.033,5.033,0,0,1-1.493,2.262,12.133,12.133,0,0,1-6.794,3.162,10.557,10.557,0,0,1-4.619-.415,5.15,5.15,0,0,1-1.9-1.138,3.56,3.56,0,0,1-1.03-1.859,3.243,3.243,0,0,1,.187-2.021,2,2,0,0,1,1.512-1.178,2.262,2.262,0,0,1,1.756.481,1.665,1.665,0,0,1,.558,1.6,2.515,2.515,0,0,1-.831,1.359,5.265,5.265,0,0,1-1.219.809,14.081,14.081,0,0,1-2.364.9,13.411,13.411,0,0,1-3.454.513,8.768,8.768,0,0,1-1.216-.052,2.009,2.009,0,0,1,.309-.006c.2,0,.508,0,.9-.018a14.19,14.19,0,0,0,5.741-1.5,5.124,5.124,0,0,0,1.167-.791,2.335,2.335,0,0,0,.757-1.255,1.443,1.443,0,0,0-.5-1.393,2.036,2.036,0,0,0-1.575-.418,1.747,1.747,0,0,0-1.32,1.049,2.982,2.982,0,0,0-.157,1.858,3.924,3.924,0,0,0,2.768,2.781,10.285,10.285,0,0,0,4.486.378,11.834,11.834,0,0,0,4.57-1.572,11.961,11.961,0,0,0,2.029-1.525,4.716,4.716,0,0,0,1.392-2.107,2.4,2.4,0,0,0-.546-2.345,1.7,1.7,0,0,0-2.287.2,2.659,2.659,0,0,0-.739,1.078,2.584,2.584,0,0,0-.079,1.316,4.457,4.457,0,0,0,1.36,2.373,8.149,8.149,0,0,0,10.784.151,8.878,8.878,0,0,0,1.936-2.293,4.272,4.272,0,0,0,.551-1.349,2.524,2.524,0,0,0-.044-1.386,1.02,1.02,0,0,0-.971-.692,1.577,1.577,0,0,0-1.109.66,3.337,3.337,0,0,0-.536,2.651,5.182,5.182,0,0,0,3.537,3.908,7.411,7.411,0,0,0,5.216-.608,6.546,6.546,0,0,0,3.6-3.413,3.068,3.068,0,0,0-.157-2.313,1.885,1.885,0,0,0-1.76-1.167,2.3,2.3,0,0,0-1.75,1.183,2.671,2.671,0,0,0-.262,2.072,4.3,4.3,0,0,0,2.734,2.864,11.5,11.5,0,0,0,3.755.59,20.6,20.6,0,0,0,3.419-.178,26.818,26.818,0,0,0,5.32-1.351c1.423-.511,2.509-.962,3.249-1.261l.841-.34A2.01,2.01,0,0,1,898.661,4821.781Z" transform="translate(-841.731 -4817.991)"/></g></g><g transform="translate(4.582 85.957)"><g transform="translate(43.143)"><g transform="translate(0 10.035)"><g transform="translate(10.31)"><path class="j" d="M739.838,4784.785l-.815,65.586c-.139,11.154,1.937,27.566,19.58,26.98h0c15.27-1.662,19.321-16.117,19.441-26.526.056-4.937.113-9.054.152-9.561,0,0,16.716-1.363,18.127-17.874.681-7.978.748-24.526.634-39.5a30.864,30.864,0,0,0-28.626-30.531l-1.595-.117C749.471,4752.994,739.611,4767.518,739.838,4784.785Z" transform="translate(-739.017 -4753.242)"/><g transform="translate(18.128 80.09)"><path class="k" d="M780.425,4851.114a40.043,40.043,0,0,1-21.051-7.933s4.367,12.453,20.965,12.168Z" transform="translate(-759.374 -4843.181)"/></g></g><g transform="translate(28.549 24.941)"><g transform="translate(1.32 9.555)"><path class="c" d="M771.135,4794.9c-.328.334-2.234-1.2-5-1.275-2.762-.116-4.832,1.283-5.122.927-.143-.159.2-.77,1.1-1.4a6.934,6.934,0,0,1,4.113-1.167,6.68,6.68,0,0,1,3.968,1.445C771.026,4794.122,771.3,4794.751,771.135,4794.9Z" transform="translate(-760.981 -4791.98)"/><g transform="translate(5.599 6.46)"><path class="c" d="M771.741,4801.417a2.238,2.238,0,0,1-2.317,2.094,2.141,2.141,0,0,1-2.154-2.181,2.24,2.24,0,0,1,2.315-2.1A2.143,2.143,0,0,1,771.741,4801.417Z" transform="translate(-767.268 -4799.234)"/></g><g transform="translate(17.084 0.919)"><path class="c" d="M780.165,4814.256c0-.146,1.6-.3,4.179-.443.654-.02,1.276-.1,1.418-.538a3.308,3.308,0,0,0-.292-1.954q-.743-2.42-1.557-5.078c-2.15-7.225-3.656-13.146-3.363-13.23s2.271,5.7,4.42,12.929q.772,2.67,1.475,5.1a3.769,3.769,0,0,1,.15,2.57,1.631,1.631,0,0,1-1.135.87,4.378,4.378,0,0,1-1.113.073C781.762,4814.505,780.164,4814.4,780.165,4814.256Z" transform="translate(-780.165 -4793.012)"/></g></g><path class="c" d="M769.8,4783.326c-.268.613-2.482.151-5.134.288-2.655.08-4.832.72-5.139.131-.135-.282.277-.848,1.178-1.395a8.68,8.68,0,0,1,7.826-.319C769.464,4782.5,769.913,4783.034,769.8,4783.326Z" transform="translate(-759.499 -4781.25)"/><g transform="translate(26.421 5.055)"><path class="c" d="M799.316,4789.073c-.29.5-2.449-.055-5.064-.136-2.616-.128-4.787.255-5.063-.269-.121-.249.31-.7,1.222-1.095a9.146,9.146,0,0,1,3.869-.64,9.441,9.441,0,0,1,3.847.948C799.026,4788.352,799.444,4788.834,799.316,4789.073Z" transform="translate(-789.168 -4786.927)"/></g></g><g transform="translate(0 43.06)"><path class="j" d="M739.026,4802.414c-.273-.143-11.109-4.187-11.573,7.136s11,9.454,11.033,9.131S739.026,4802.414,739.026,4802.414Z" transform="translate(-727.44 -4801.597)"/></g><g transform="translate(2.875 46.664)"><path class="k" d="M735.557,4814.692c-.049-.039-.2.13-.542.269a1.971,1.971,0,0,1-1.476-.029c-1.178-.489-2.108-2.43-2.079-4.473a6.525,6.525,0,0,1,.668-2.8,2.281,2.281,0,0,1,1.547-1.453,1,1,0,0,1,1.142.588c.139.323.058.546.117.568.031.03.251-.179.179-.652a1.261,1.261,0,0,0-.417-.728,1.5,1.5,0,0,0-1.078-.333,2.774,2.774,0,0,0-2.133,1.671,6.705,6.705,0,0,0-.814,3.128c-.021,2.286,1.06,4.468,2.678,5.009a2.114,2.114,0,0,0,1.816-.226C735.525,4814.965,735.6,4814.715,735.557,4814.692Z" transform="translate(-730.669 -4805.645)"/></g><g transform="translate(38.287 57.208)"><path class="c" d="M776.428,4824.776c.124-.286-2.1-.95-3.655-3.031a12.721,12.721,0,0,1-1.567-2.957c-.33-.823-.581-1.339-.7-1.3s-.087.593.094,1.487a8.364,8.364,0,0,0,1.458,3.312,6.759,6.759,0,0,0,2.892,2.214C775.813,4824.852,776.4,4824.874,776.428,4824.776Z" transform="translate(-770.435 -4817.485)"/></g><g transform="translate(55.086 35.538)"><path class="c" d="M799.454,4796.071c-.329.334-2.234-1.2-5-1.275-2.762-.116-4.832,1.282-5.122.927-.143-.159.2-.77,1.1-1.4a6.929,6.929,0,0,1,4.112-1.167,6.678,6.678,0,0,1,3.969,1.444C799.345,4795.292,799.615,4795.922,799.454,4796.071Z" transform="translate(-789.299 -4793.15)"/></g><g transform="translate(60.315 41.759)"><path class="c" d="M799.643,4802.319a2.24,2.24,0,0,1-2.317,2.1,2.141,2.141,0,0,1-2.153-2.181,2.241,2.241,0,0,1,2.315-2.1A2.144,2.144,0,0,1,799.643,4802.319Z" transform="translate(-795.171 -4800.136)"/></g></g><g transform="translate(0.922)"><path class="c" d="M807.321,4760.734a8.933,8.933,0,0,0-11.144-3.526,12.229,12.229,0,0,0-21.067-10.56,5,5,0,0,0-2.435-3.352,9.861,9.861,0,0,0-4.065-1.211,19.438,19.438,0,0,0-17.758,7.743,21.159,21.159,0,0,0-17.93,6.542c-5.32,5.892-6.323,19.548-.5,31.344l1.371,7.4c1.827-.005,3.5.125,4.625,1.138,1.531,1.376,2.215,3.965,4.758,2.982,1.295-.5,2.476-3.215,2.909-4.534a64.434,64.434,0,0,0,2.79-27.276,20.7,20.7,0,0,1,6.4-4.615l-.2.175c4.614-1.6,9.834-3.179,14.211-1.012,3.4,1.68,5.392,5.2,7.931,8.017a25.928,25.928,0,0,0,18.476,8.533c.244,4.649-.146,11.22.1,15.869l3.911-7.447,0,.037c.321-.545.585-1.094.842-1.646l.087-.167v-.021l0-.005c.715-.581,1.258-1.646,2.467-3.03a9.753,9.753,0,0,0,1.6-9.98A8.936,8.936,0,0,0,807.321,4760.734Z" transform="translate(-728.474 -4741.973)"/><path class="c" d="M811.029,4787.526l-.015-.013h0Z" transform="translate(-737.513 -4746.96)"/></g><g transform="translate(53.675 18.931)"><path class="l" d="M807.039,4763.232c.012,0,.04.081.083.244a3.329,3.329,0,0,1,.1.732,4.918,4.918,0,0,1-.659,2.654,5.061,5.061,0,0,1-1.265,1.465,4.526,4.526,0,0,1-2.063.88,5.109,5.109,0,0,1-4.721-1.777l.281-.242a3.12,3.12,0,0,1,.8,2.22,4.1,4.1,0,0,1-1.266,2.854,4.626,4.626,0,0,1-2.678,1.14,7.2,7.2,0,0,1-4.655-1.281,15.2,15.2,0,0,1-2.488-2.115,6.315,6.315,0,0,1-.793-.894,8.5,8.5,0,0,1,.894.789,17.56,17.56,0,0,0,2.53,2,7.028,7.028,0,0,0,4.476,1.161,4.3,4.3,0,0,0,2.463-1.062,3.762,3.762,0,0,0,1.143-2.594,2.762,2.762,0,0,0-.694-1.959l.281-.241a4.806,4.806,0,0,0,4.38,1.683,4.433,4.433,0,0,0,3.167-2.146,5.01,5.01,0,0,0,.737-2.527C807.1,4763.582,807.005,4763.24,807.039,4763.232Z" transform="translate(-787.715 -4763.232)"/></g><g transform="translate(47.798 6.52)"><path class="l" d="M792.147,4749.3c.006-.011.09.027.243.108a5.023,5.023,0,0,1,.631.426,5.513,5.513,0,0,1,1.708,2.219,4.341,4.341,0,0,1-.389,4.079,3.346,3.346,0,0,1-2.063,1.417,3.4,3.4,0,0,1-2.639-.512,2.943,2.943,0,0,1-.628-.625l.324-.184a3.17,3.17,0,0,1-.085,2.545,3.48,3.48,0,0,1-1.647,1.688,4.585,4.585,0,0,1-3.858-.008,6.151,6.151,0,0,1-2.078-1.567,2.98,2.98,0,0,1-.551-.771c.024-.018.227.25.654.675a6.559,6.559,0,0,0,2.078,1.428,4.371,4.371,0,0,0,3.6-.059,3.162,3.162,0,0,0,1.468-1.535,2.819,2.819,0,0,0,.071-2.247l-.6-1.389.922,1.207a2.607,2.607,0,0,0,.542.538,3.053,3.053,0,0,0,2.344.456,3.007,3.007,0,0,0,1.856-1.253,4.1,4.1,0,0,0,.426-3.786,5.72,5.72,0,0,0-1.555-2.2C792.446,4749.509,792.129,4749.326,792.147,4749.3Z" transform="translate(-781.115 -4749.294)"/></g></g><g transform="translate(0 87.344)"><g transform="translate(169.074)"><g transform="translate(1.536)"><path class="i" d="M898.039,4841.795l-26.127,19.951a3.383,3.383,0,0,0-.5,4.908h0a3.383,3.383,0,0,0,4.631.454l25.912-20.136,3.506-6.913Z" transform="translate(-870.581 -4840.058)"/><path class="m" d="M905.45,4840.939l1.853,2.158-2,3.971a1.59,1.59,0,0,1-1.742-1.808,1.4,1.4,0,0,1-1.581-1.814s-1.359-.121-.592-1.555Z" transform="translate(-873.929 -4840.154)"/><path class="c" d="M872.075,4864.261l4.288,5.239,1.439-1.119-4.112-5.354Z" transform="translate(-870.745 -4842.573)"/></g><g transform="translate(0 3.38)"><path class="j" d="M869.8,4912.177l-.94-.169L888.1,4878.36l-3.042-9.7s-3.527-13.815-.588-17.342c0,0,6.429-7.568,8.515-7.464s3.754.522,4.171,2.085c0,0,3.546-.416,4.484.731a18.059,18.059,0,0,1,1.669,2.5s3.859-.313,4.9,3.024c0,0,3.65,1.877,3.963,4.588s-.73,15.331-1.877,18.563-5.423,10.01-6.674,20.022-5.662,16.51-9.582,31.142l-10.649,4.211Z" transform="translate(-868.856 -4843.853)"/></g><g transform="translate(24.462 5.244)"><path class="k" d="M899.986,4845.956a11.415,11.415,0,0,0-3.617,5.755,6.532,6.532,0,0,1,3.617-5.755Z" transform="translate(-896.326 -4845.947)"/></g><g transform="translate(30.57 8.683)"><path class="k" d="M906.865,4849.82a11.173,11.173,0,0,0-3.647,5.186,6.05,6.05,0,0,1,3.647-5.186Z" transform="translate(-903.185 -4849.809)"/></g><g transform="translate(35.906 11.61)"><path class="k" d="M912.426,4853.1c.082.1-.877.939-1.756,2.21s-1.347,2.452-1.47,2.411a6.792,6.792,0,0,1,3.226-4.621Z" transform="translate(-909.177 -4853.096)"/></g><g transform="translate(16.868 11.917)"><path class="k" d="M892.009,4854.248a4.613,4.613,0,0,0-4.205.286c-.038-.037.1-.272.452-.532a3.16,3.16,0,0,1,3.233-.218C891.871,4853.993,892.042,4854.206,892.009,4854.248Z" transform="translate(-887.798 -4853.44)"/></g><g transform="translate(24.911 14.51)"><path class="k" d="M900.673,4859.367a5.593,5.593,0,0,0-3.843-2.931c0-.052.3-.122.781-.059a3.834,3.834,0,0,1,2.914,2.221C900.713,4859.049,900.725,4859.354,900.673,4859.367Z" transform="translate(-896.83 -4856.352)"/></g><g transform="translate(31.345 17.349)"><path class="k" d="M909.087,4861.344a6.262,6.262,0,0,0-5.031-1.362c-.019-.05.255-.225.762-.346a4.3,4.3,0,0,1,3.786,1.025C908.981,4861.021,909.129,4861.31,909.087,4861.344Z" transform="translate(-904.055 -4859.54)"/></g></g><g transform="translate(0 8.186)"><g transform="translate(0 47.667)"><path class="i" d="M690.239,4902.78s-11.8,67-11.227,73.268,3.707,16.232,10.824,17.94a31.307,31.307,0,0,0,13.667,0l-8.544-82.3Z" transform="translate(-678.992 -4902.78)"/></g><g transform="translate(11.098)"><path class="i" d="M726.145,4862.358s-14.118,10.036-17.239,12.987c-13.052,12.344-15.783,17.4-17.3,21.572s9.062,101.185,9.062,101.185l2.143,16.949h0l99.094.255h0v-86.6l-14.888-60.942-9.161-2.607L776,4857.9s-11.382-8.4-30.156-8.646c-5.776-.075-13.945,2.194-18.509,5.735h0Z" transform="translate(-691.455 -4849.25)"/></g><g transform="translate(87.386 18.466)"><path class="i" d="M785.312,4870.292s10.184-.458,11.083-.251c3.139.724,11.759,8.626,21.577,18.364,9.366,9.29,27.8,28.618,27.8,28.618s3.313-3.345,7.089,1.119l14.549-21.163s21.837,2.683,25.271,19.165c0,0-6.693,12.778-12.175,21.916,0,0-20.3,33.678-36.325,27.579-14.643-5.57-33-20.468-35.589-23.65l-21.558-15.383s-14.765-28.156-8.242-42.235Z" transform="translate(-777.123 -4869.987)"/></g><g transform="translate(45.789 11.237)"><path class="c" d="M782.12,4866.545a2.513,2.513,0,0,1-.523-.107l-1.47-.388c-1.279-.324-3.136-.771-5.454-1.209a151.936,151.936,0,0,0-18.289-2.254,125.031,125.031,0,0,0-18.42.054c-2.349.2-4.237.5-5.534.73l-1.491.295a2.513,2.513,0,0,1-.528.074,2.411,2.411,0,0,1,.507-.16c.383-.1.873-.223,1.478-.375a48.333,48.333,0,0,1,5.537-.871,113.076,113.076,0,0,1,18.478-.184,134.9,134.9,0,0,1,18.322,2.388c2.318.478,4.171.972,5.439,1.348l1.452.468A2.435,2.435,0,0,1,782.12,4866.545Z" transform="translate(-730.411 -4861.87)"/></g><g transform="translate(57.818 3.402)"><path class="c" d="M745,4860.54a32.577,32.577,0,0,1-1.037-7.469A32.7,32.7,0,0,1,745,4860.54Z" transform="translate(-743.92 -4853.071)"/></g><g transform="translate(61.693 3.055)"><path class="c" d="M749.177,4860.18a11.822,11.822,0,0,1-.52-7.5c.129.019-.066,1.7.084,3.761S749.3,4860.144,749.177,4860.18Z" transform="translate(-748.271 -4852.681)"/></g><g class="n" transform="translate(46.116 11.519)"><path d="M730.778,4863.689c15.508,2.745,31.228.025,47.64,1.967-15.847-3.279-32.35-4.835-47.64-1.967" transform="translate(-730.778 -4862.186)"/></g><g class="n" transform="translate(11.616 73.299)"><path d="M699.321,4997.267c-8.723-20.429-7.69-43.521-6.508-65.7Z" transform="translate(-692.036 -4931.563)"/></g><g transform="translate(11.242 62.275)"><path class="c" d="M691.621,4919.184a1.184,1.184,0,0,1,.046.257c.023.2.053.445.092.76.074.7.177,1.678.31,2.924.255,2.571.618,6.24,1.065,10.761.886,9.088,2.1,21.645,3.54,35.5s2.891,26.391,4.047,35.448c.569,4.529,1.059,8.191,1.4,10.721.165,1.242.293,2.219.386,2.915.036.314.066.564.089.759a1.092,1.092,0,0,1,.015.261,1.177,1.177,0,0,1-.06-.255l-.132-.753c-.111-.692-.268-1.665-.467-2.9-.4-2.523-.932-6.179-1.541-10.705-1.235-9.049-2.729-21.579-4.176-35.443s-2.606-26.42-3.413-35.516c-.389-4.527-.705-8.2-.927-10.775-.1-1.25-.174-2.231-.228-2.932-.02-.316-.036-.568-.048-.764A1.149,1.149,0,0,1,691.621,4919.184Z" transform="translate(-691.616 -4919.184)"/></g><g transform="translate(16.18 51.123)"><path class="c" d="M759.318,4906.85a3.407,3.407,0,0,1-.638.035l-1.83.012c-1.589-.007-3.888.017-6.726.083-5.677.127-13.517.544-22.121,1.563s-16.326,2.464-21.874,3.673c-2.775.6-5.015,1.118-6.557,1.5l-1.782.417a3.712,3.712,0,0,1-.629.117,3.472,3.472,0,0,1,.606-.2l1.761-.5c1.531-.43,3.762-.994,6.533-1.634a207.027,207.027,0,0,1,44.057-5.243c2.843-.027,5.144,0,6.733.056l1.83.069A3.654,3.654,0,0,1,759.318,4906.85Z" transform="translate(-697.161 -4906.66)"/></g><g transform="translate(40.251 31.579)"><path class="c" d="M724.225,4926.142c-.121,0,.107-9.283.508-20.722s.825-20.712.946-20.708-.107,9.281-.509,20.724S724.345,4926.146,724.225,4926.142Z" transform="translate(-724.192 -4884.712)"/></g><g transform="translate(79.786 17.244)"><path class="c" d="M779.73,4923.233a4.11,4.11,0,0,1-.372-.582c-.247-.426-.578-.993-.993-1.708l-3.656-6.28a54.5,54.5,0,0,1-4.586-9.772,32.035,32.035,0,0,1-1.368-6.248,37.652,37.652,0,0,1-.02-6.865,36.453,36.453,0,0,1,3.272-12.792,21.073,21.073,0,0,1,3.225-4.812,18.3,18.3,0,0,1,3.875-3.235,14.764,14.764,0,0,1,6.875-2.3,9.686,9.686,0,0,1,2.664.148,24.543,24.543,0,0,0-2.651.022,14.993,14.993,0,0,0-6.723,2.394,18.242,18.242,0,0,0-3.769,3.216,20.951,20.951,0,0,0-3.134,4.748,36.59,36.59,0,0,0-3.2,12.654,37.763,37.763,0,0,0,.011,6.779,32.058,32.058,0,0,0,1.325,6.168,56.165,56.165,0,0,0,4.472,9.746l3.535,6.349q.578,1.1.922,1.749A4,4,0,0,1,779.73,4923.233Z" transform="translate(-768.588 -4868.615)"/></g><g class="n" transform="translate(17.412 51.508)"><path d="M698.916,4914.244a118.1,118.1,0,0,0,18.621-2.456,28.392,28.392,0,0,0-1.043,8.33,19.114,19.114,0,0,0,4.14-7.619,11.531,11.531,0,0,0,4.7,7.709,25.186,25.186,0,0,0,.419-8.489q13.9-1.674,27.613-4.57a187.248,187.248,0,0,0-54.818,6.824" transform="translate(-698.545 -4907.093)"/></g></g><g transform="translate(97.771 83.842)"><path class="c" d="M827.927,4963.4a2.534,2.534,0,0,1-.427-.255l-1.184-.79c-1.024-.691-2.5-1.71-4.3-2.979-3.617-2.538-8.576-6.1-13.982-10.133s-10.237-7.769-13.7-10.513c-1.733-1.37-3.128-2.49-4.082-3.274l-1.1-.909a2.387,2.387,0,0,1-.366-.337,2.6,2.6,0,0,1,.413.277l1.138.854,4.155,3.18c3.506,2.688,8.359,6.391,13.764,10.421s10.335,7.625,13.911,10.219c1.761,1.278,3.2,2.322,4.233,3.075l1.143.847A2.319,2.319,0,0,1,827.927,4963.4Z" transform="translate(-788.784 -4934.209)"/></g><g transform="translate(155.461 72.808)"><path class="c" d="M859.208,4939.954c-.065,0-.023-1.088-.15-2.829a29.664,29.664,0,0,0-4.006-12.891c-.883-1.506-1.533-2.376-1.48-2.416a2.989,2.989,0,0,1,.508.573,19.033,19.033,0,0,1,1.2,1.705,26.354,26.354,0,0,1,4.045,13.014,18.863,18.863,0,0,1-.021,2.083A3.008,3.008,0,0,1,859.208,4939.954Z" transform="translate(-853.569 -4921.818)"/></g><g transform="translate(163.84 74.436)"><path class="c" d="M864.7,4938.526c-.06-.01.078-.851.182-2.216a27.7,27.7,0,0,0-1.214-10.545c-.411-1.305-.736-2.093-.68-2.118a1.853,1.853,0,0,1,.3.523,15.524,15.524,0,0,1,.632,1.509,23.189,23.189,0,0,1,1.226,10.656,15.613,15.613,0,0,1-.273,1.613A1.854,1.854,0,0,1,864.7,4938.526Z" transform="translate(-862.978 -4923.647)"/></g><g transform="translate(174.458 59.151)"><path class="c" d="M899.808,4927.379c-.021,0,.01-.139-.167-.271a.871.871,0,0,1-.292-.317c-.085-.149-.139-.336-.242-.51-.192-.359-.671-.64-1.018-1.172a7.622,7.622,0,0,1-.868-1.9,12.664,12.664,0,0,0-2.47-4.661,20.552,20.552,0,0,0-2.226-2.219,23.476,23.476,0,0,0-2.685-2.051,21.99,21.99,0,0,0-2.873-1.782l-2.85-1.4c-.911-.429-1.755-.875-2.583-1.23l-2.305-.982a10.349,10.349,0,0,1-1-.457c-.305-.184-.56-.381-.818-.524l-.747-.4c-.235-.125-.425-.287-.6-.4-.354-.22-.668-.343-.867-.451a.969.969,0,0,1-.295-.181,1.472,1.472,0,0,1,.325.113,6.992,6.992,0,0,1,.912.4,9.879,9.879,0,0,0,1.369.733c.278.144.545.337.836.5s.646.273.992.423l2.316.937c.831.341,1.7.782,2.617,1.207l2.86,1.376a21.624,21.624,0,0,1,2.916,1.8,22.968,22.968,0,0,1,2.72,2.088,20.214,20.214,0,0,1,2.249,2.273,12.61,12.61,0,0,1,2.457,4.8,7.726,7.726,0,0,0,.791,1.867c.3.505.766.8.971,1.218.105.2.146.388.215.53a.849.849,0,0,0,.243.312C899.876,4927.227,899.812,4927.392,899.808,4927.379Z" transform="translate(-874.902 -4906.482)"/></g><g transform="translate(106.834 91.214)"><path class="c" d="M799.15,5023.839c-.1,0-.188-18.212-.188-40.673s.084-40.677.188-40.677.187,18.208.187,40.677S799.253,5023.839,799.15,5023.839Z" transform="translate(-798.962 -4942.489)"/></g></g></g></g></g></svg>