<svg xmlns="http://www.w3.org/2000/svg" xmlns:xlink="http://www.w3.org/1999/xlink" width="183.347" height="183.348" viewBox="0 0 183.347 183.348"><defs><style>.a{fill:#fff;}.b{fill:url(#a);}.c{fill:none;stroke:#00223d;stroke-miterlimit:10;stroke-width:4px;}.d{fill:#eceef0;}.e{fill:#12263f;}</style><radialGradient id="a" cx="0.076" cy="0.019" r="1.465" gradientTransform="translate(0.001)" gradientUnits="objectBoundingBox"><stop offset="0" stop-color="#f6f6f7"/><stop offset="0.477" stop-color="#f9f9fa"/><stop offset="0.715" stop-color="#fff"/></radialGradient></defs><g transform="translate(0 0.001)"><g transform="translate(0 0)"><g transform="translate(0 0)"><path class="a" d="M377.97,2237.392a91.673,91.673,0,1,1-91.672-91.671A91.672,91.672,0,0,1,377.97,2237.392Z" transform="translate(-194.623 -2145.721)"/><path class="b" d="M376.482,2235.77a91.671,91.671,0,1,0-91.672,91.676A91.311,91.311,0,0,0,376.482,2235.77Z" transform="translate(-193.135 -2144.099)"/><path class="c" d="M341.45,2222.48a69.974,69.974,0,1,0-69.974,69.974A69.714,69.714,0,0,0,341.45,2222.48Z" transform="translate(-179.525 -2130.503)"/><g transform="translate(16.241 51.468)"><path class="d" d="M358.381,2164.488a91.684,91.684,0,0,1-157.836,91.294,91.393,91.393,0,0,0,157.836-91.294Z" transform="translate(-200.545 -2164.488)"/></g></g></g><g transform="translate(-409.329 -326.136)"><g transform="translate(471.89 382.834)"><path class="e" d="M527.765,422.1a14.7,14.7,0,0,1,10.494,5.607,15.331,15.331,0,0,1,2.393,15.323,4.322,4.322,0,0,1-.322.715,1.36,1.36,0,0,1-1.789.629,1.415,1.415,0,0,1-.739-1.752,29.9,29.9,0,0,0,.983-3.783,12.523,12.523,0,1,0-14.053,10.993,12.651,12.651,0,0,0,6.806-.975c1.015-.436,1.793-.232,2.153.557s0,1.531-1.009,1.985a16.558,16.558,0,0,1-7.644,1.327c-2.811-.114-5.633.043-8.45.044-13.347.008-26.694-.014-40.041.016-3.343.008-5.1-2.425-4.562-5.92a1.25,1.25,0,0,1,1.4-1.07,1.316,1.316,0,0,1,1.312,1.179,6.041,6.041,0,0,1,.031,1.046c.011,1.532.426,1.941,1.986,1.952h40.739c-5.4-4.4-7.608-9.9-5.83-16.551,1.788-6.693,6.45-10.334,13.292-11.364V399.625h-.9q-4.318,0-8.636-.006a4.184,4.184,0,0,1-4.356-4.334c-.007-3.174,0-6.348,0-9.652h-.956l-33.324,0c-1.6,0-2.007.4-2.007,2.009q0,24.476-.005,48.953c0,.117,0,.233,0,.35-.008,1.176-.51,1.83-1.4,1.827s-1.394-.648-1.394-1.829q0-24.914.006-49.827a4.172,4.172,0,0,1,4.232-4.282q18.014-.012,36.028.02a2.257,2.257,0,0,1,1.427.614q6.8,6.726,13.509,13.534a2.386,2.386,0,0,1,.611,1.516c.038,7.547.025,15.094.024,22.64C527.765,421.451,527.765,421.737,527.765,422.1Zm-5.209-25.287-8.742-8.758c0,2.313-.009,4.811.005,7.308a1.275,1.275,0,0,0,1.235,1.428C517.624,396.848,520.2,396.811,522.557,396.811Z" transform="translate(-471.89 -382.834)"/><path class="e" d="M597.869,521.638H586.092c-.2,0-.407.007-.611,0a1.414,1.414,0,0,1-1.507-1.365,1.392,1.392,0,0,1,1.532-1.423c2.966-.016,5.932-.01,8.9-.01h15.441a5,5,0,0,1,.784.017,1.389,1.389,0,0,1-.024,2.765c-.548.05-1.1.023-1.657.023q-5.54,0-11.079,0Z" transform="translate(-564.383 -495.06)"/><path class="e" d="M597.928,553.665H586.064c-.233,0-.466.012-.7-.006a1.4,1.4,0,0,1-1.391-1.394,1.372,1.372,0,0,1,1.385-1.391c.784-.035,1.57-.012,2.355-.012h22.332c.145,0,.292-.007.436,0a1.4,1.4,0,0,1,1.394,1.391,1.366,1.366,0,0,1-1.388,1.389c-1.453.034-2.907.013-4.361.013h-8.2Z" transform="translate(-564.385 -521.487)"/><path class="e" d="M768.454,642.78c0,.349.009.7,0,1.048-.032.98-.057,1.823,1.02,2.491a2.77,2.77,0,0,1,1,3.059,1.131,1.131,0,0,0,.383,1.211c.986.946,1.945,1.921,2.9,2.9.743.759.814,1.533.228,2.155-.61.647-1.43.589-2.21-.182-.993-.981-1.948-2-2.974-2.947a1.6,1.6,0,0,0-1.119-.375,3.455,3.455,0,0,1-2.414-6.372,1.087,1.087,0,0,0,.378-.757c.036-1.455.01-2.911.02-4.367.008-1.041.526-1.658,1.372-1.672.873-.015,1.41.628,1.42,1.714.007.7,0,1.4,0,2.1Z" transform="translate(-712.578 -594.202)"/><path class="e" d="M528.4,443.123c0,.874.011,1.749,0,2.622a1.328,1.328,0,0,1-1.437,1.483q-2.748.024-5.5,0a1.32,1.32,0,0,1-1.436-1.48q-.02-2.71,0-5.42a1.336,1.336,0,0,1,1.52-1.484q2.661-.015,5.321,0c1.04.007,1.518.507,1.528,1.569C528.4,441.317,528.4,442.22,528.4,443.123Zm-5.536-1.443v2.7h2.683v-2.7Z" transform="translate(-511.604 -429.048)"/><path class="e" d="M524.2,518.849c.9,0,1.8-.01,2.7,0a1.332,1.332,0,0,1,1.48,1.434q.025,2.746,0,5.493a1.321,1.321,0,0,1-1.451,1.462q-2.74.022-5.481,0a1.322,1.322,0,0,1-1.439-1.472q-.017-2.746.006-5.493a1.3,1.3,0,0,1,1.4-1.418c.928-.02,1.856,0,2.784,0Zm-1.357,2.84V524.4h2.692v-2.711Z" transform="translate(-511.592 -495.073)"/><path class="e" d="M524.215,607.267c-.928,0-1.857.013-2.785,0a1.306,1.306,0,0,1-1.424-1.4q-.024-2.791,0-5.581a1.3,1.3,0,0,1,1.415-1.406q2.785-.026,5.57,0a1.305,1.305,0,0,1,1.382,1.44q.019,2.747,0,5.494a1.326,1.326,0,0,1-1.462,1.452C526.014,607.278,525.114,607.267,524.215,607.267Zm1.323-2.837v-2.7h-2.676v2.7Z" transform="translate(-511.588 -561.107)"/><path class="e" d="M524.2,678.923c.928,0,1.856-.015,2.784,0a1.31,1.31,0,0,1,1.414,1.411q.025,2.79-.005,5.58a1.306,1.306,0,0,1-1.432,1.392q-2.74.025-5.482.005a1.317,1.317,0,0,1-1.451-1.46q-.021-2.747,0-5.493a1.319,1.319,0,0,1,1.474-1.436C522.4,678.912,523.3,678.923,524.2,678.923Zm1.364,2.859h-2.678v2.684h2.678Z" transform="translate(-511.602 -627.167)"/><path class="e" d="M593.741,598.914q3.925,0,7.85,0c1.1,0,1.739.529,1.737,1.4s-.644,1.394-1.742,1.395q-7.938.006-15.875,0c-1.1,0-1.736-.524-1.735-1.4s.634-1.391,1.74-1.394Q589.728,598.908,593.741,598.914Z" transform="translate(-564.385 -561.146)"/><path class="e" d="M593.593,633.724q-3.926,0-7.851,0c-1.12,0-1.748-.5-1.768-1.368-.02-.9.634-1.426,1.795-1.427q7.9,0,15.79,0c1.111,0,1.747.5,1.768,1.369.022.9-.633,1.424-1.795,1.426Q597.562,633.729,593.593,633.724Z" transform="translate(-564.383 -587.564)"/><path class="e" d="M592.35,441.657c-2.21,0-4.419,0-6.629,0-1.109,0-1.74-.514-1.745-1.389s.629-1.4,1.729-1.4q6.629-.007,13.258,0c1.1,0,1.742.52,1.748,1.388s-.638,1.4-1.731,1.405C596.77,441.661,594.56,441.657,592.35,441.657Z" transform="translate(-564.385 -429.066)"/><path class="e" d="M592.359,473.671q-3.308,0-6.616,0c-1.12,0-1.744-.487-1.771-1.357-.028-.9.618-1.44,1.774-1.441q6.616-.007,13.233,0c1.087,0,1.734.535,1.733,1.4s-.649,1.4-1.736,1.4Q595.668,473.675,592.359,473.671Z" transform="translate(-564.381 -455.481)"/><path class="e" d="M592.307,681.723c-2.21,0-4.42.005-6.63,0-1.083,0-1.726-.554-1.7-1.431.021-.846.639-1.36,1.683-1.362q6.673-.011,13.346,0c1.072,0,1.726.563,1.705,1.433-.02.839-.648,1.361-1.685,1.365C596.785,681.729,594.546,681.723,592.307,681.723Z" transform="translate(-564.383 -627.171)"/><path class="e" d="M592.432,710.951c2.181,0,4.361,0,6.542,0,1.1,0,1.739.529,1.737,1.4s-.644,1.393-1.742,1.395q-6.629.007-13.258,0c-1.1,0-1.736-.524-1.734-1.4s.634-1.391,1.74-1.394C587.955,710.947,590.193,710.951,592.432,710.951Z" transform="translate(-564.385 -653.601)"/><path class="e" d="M472.133,713.092c0-1.435.434-2.092,1.387-2.1s1.4.67,1.4,2.084-.442,2.093-1.391,2.1S472.133,714.513,472.133,713.092Z" transform="translate(-472.09 -653.638)"/><path class="e" d="M834.2,741.421c-.072,1.1-1.5,2.619-2.287,2.555a1.743,1.743,0,0,1-1.211-.64,1.549,1.549,0,0,1-.043-1.362,4.819,4.819,0,0,1,1.5-1.527,1.593,1.593,0,0,1,1.359.05C833.888,740.7,834.07,741.228,834.2,741.421Z" transform="translate(-767.84 -677.835)"/></g></g></g></svg>