<svg xmlns="http://www.w3.org/2000/svg" width="259.457" height="258.48" viewBox="0 0 259.457 258.48"><defs><style>.a{fill:#263238;}.ak,.b{fill:#e0e0e0;}.b{fill-rule:evenodd;}.c{fill:#ebebeb;}.d{fill:#f0f0f0;}.e{fill:#e6e6e6;}.f{fill:#f5f5f5;}.g{fill:#fafafa;}.h{fill:#afafaf;}.ai,.h,.r{opacity:0.3;}.i,.v{fill:#d9a171;}.ah,.j,.o,.p,.q,.r,.t,.z{fill:#fff;}.k,.l{fill:#e8e8e8;}.aj,.k,.q{opacity:0.7;}.ad,.l{opacity:0.4;}.m{fill:#5e6178;}.n{fill:#407bff;}.o,.v,.w,.y{opacity:0.5;}.p{opacity:0.9;}.s,.z{opacity:0.6;}.t{opacity:0.8;}.ah,.u{opacity:0.2;}.ai,.x{fill:#6595bf;}.aa{fill:#de5753;}.ab{fill:#e4897b;}.ac{fill:#a66d58;}.ae{fill:#344154;}.af{fill:#a24e3f;}.ag{fill:#b97964;}</style></defs><g transform="translate(-199.824 -7792.254)"><g transform="translate(426.001 7792.254) rotate(45)"><g transform="translate(23.576 10.547)"><g transform="translate(11.119 10.938)"><path class="a" d="M7.479.205A4.526,4.526,0,0,1,8.9.649a5.98,5.98,0,0,1,2.831,2.866,6.053,6.053,0,0,1,.578,2.768,6.153,6.153,0,0,1-.952,3.1A5.792,5.792,0,0,1,10.2,10.731a5.787,5.787,0,0,1-1.563.991,6.13,6.13,0,0,1-7.127-1.6A5.8,5.8,0,0,1,.522,8.56a5.793,5.793,0,0,1-.471-1.71A6.152,6.152,0,0,1,.516,3.637,6.055,6.055,0,0,1,2.221,1.382,5.981,5.981,0,0,1,6,0a4.537,4.537,0,0,1,1.474.2C7.473.247,6.954.1,6.009.134A5.991,5.991,0,0,0,2.378,1.569,5.868,5.868,0,0,0,.367,6.81,5.49,5.49,0,0,0,.824,8.427,5.494,5.494,0,0,0,1.767,9.9,5.821,5.821,0,0,0,8.5,11.413a5.485,5.485,0,0,0,1.483-.931,5.493,5.493,0,0,0,1.1-1.267,5.871,5.871,0,0,0,.421-5.6A5.989,5.989,0,0,0,8.84.769C8,.335,7.467.246,7.479.205Z"/></g><path class="a" d="M23.417,4.711A1.239,1.239,0,0,1,23.4,4.5c0-.157-.009-.368-.015-.641-.008-.587-.02-1.434-.035-2.533l.043.053L17.925.186l.1-.048L16.583,3.2l-.026.055-.062,0a13.692,13.692,0,0,0-3.568.633l-.065.021-.049-.049L10.408,1.483l.152.016L5.836,4.508l.055-.16L7.032,7.535l.029.081L7,7.68a13.609,13.609,0,0,0-2.076,2.957l-.041.08H4.8l-3.384.012.15-.12c-.383,1.717-.8,3.569-1.219,5.467L.254,15.9l3.058,1.449.09.042,0,.1a13.659,13.659,0,0,0,.622,3.554l.031.1-.071.072L1.6,23.61l.023-.209,3,4.73-.2-.07,3.19-1.136.1-.035.077.071a13.571,13.571,0,0,0,2.945,2.075h0c.042.068-.092-.152.094.153v.848l0,.849q0,.847,0,1.687l-.135-.168,5.466,1.227-.192.093,1.453-3.056.044-.093.1,0a13.563,13.563,0,0,0,3.554-.616l.1-.031.072.071,2.4,2.391-.2-.022,4.734-2.993-.065.187q-.576-1.624-1.132-3.191l-.031-.089.064-.069a13.573,13.573,0,0,0,2.085-2.949l.042-.08h.09l3.384,0-.14.112,1.238-5.463.072.148L30.775,16.52l-.068-.033,0-.074a13.677,13.677,0,0,0-.611-3.569l-.021-.066.049-.048,2.4-2.391-.014.126L29.527,5.72l.091.031-3.2,1.115-.032.011-.024-.023a14.24,14.24,0,0,0-2.174-1.674l-.582-.351a1.389,1.389,0,0,1-.192-.119,1.781,1.781,0,0,1,.206.093c.134.069.336.173.6.327a13.279,13.279,0,0,1,2.22,1.642l-.056-.012,3.182-1.156.058-.021.034.052,3.019,4.719.044.069-.058.058L30.281,12.89l.028-.114a13.866,13.866,0,0,1,.642,3.627l-.071-.107,3.061,1.445.095.045-.023.1c-.384,1.728-.788,3.545-1.216,5.468l-.025.112h-.115l-3.384.013.132-.08a13.874,13.874,0,0,1-2.123,3.022l.032-.156,1.139,3.188.043.119-.107.068-4.728,3-.111.07-.093-.093-2.4-2.387.168.041a13.89,13.89,0,0,1-3.642.636l.146-.1-1.45,3.058L16.221,34l-.133-.03-5.466-1.224-.135-.03v-.138q0-.84,0-1.687l0-.849v-.848c.186.3.051.084.092.152h0a13.893,13.893,0,0,1-3.02-2.129l.174.036-3.19,1.135L4.4,28.43l-.073-.116-3-4.733-.072-.114.1-.1,2.391-2.4-.04.168A13.95,13.95,0,0,1,3.078,17.5l.093.142L.116,16.187,0,16.132l.028-.125L1.26,10.542l.027-.12H1.41l3.384,0-.132.08A13.882,13.882,0,0,1,6.794,7.486l-.03.144L5.635,4.439l-.037-.1.092-.058,4.738-2.987.083-.053.069.069,2.393,2.4-.114-.027a13.846,13.846,0,0,1,3.628-.619l-.087.058L17.864.064,17.895,0l.068.016,5.458,1.257.043.01v.044c-.01,1.089-.018,1.928-.023,2.51,0,.277-.009.49-.012.649A1.686,1.686,0,0,1,23.417,4.711Z"/></g><g transform="translate(0 0)"><path class="b" d="M14.952,2.967A8.858,8.858,0,0,1,16.873,4.32l2.053-.731,1.929,3.045L19.317,8.179a8.826,8.826,0,0,1,.4,2.315l1.967.934L20.9,14.946l-2.178,0a8.809,8.809,0,0,1-1.354,1.921l.731,2.053-3.045,1.929-1.544-1.537a8.824,8.824,0,0,1-2.315.4l-.934,1.968L6.741,20.9l0-2.178a8.834,8.834,0,0,1-1.921-1.354L2.762,18.1.833,15.053l1.538-1.544a8.859,8.859,0,0,1-.4-2.315L0,10.259.789,6.741l2.178,0A8.82,8.82,0,0,1,4.321,4.815L3.59,2.762,6.635.833,8.179,2.371a8.828,8.828,0,0,1,2.316-.4L11.429,0l3.518.789.005,2.178Zm-3.1,4.139a3.867,3.867,0,1,0,2.927,4.62A3.867,3.867,0,0,0,11.85,7.106Z"/></g></g><g transform="translate(199.824 7796.467)"><g transform="translate(0 153.665)"><g transform="translate(0 75.98)"><rect class="c" width="25.542" height="0.193" transform="translate(182.045 12.412)"/><rect class="c" width="6.704" height="0.193" transform="translate(157.235 14.505)"/><rect class="c" width="14.8" height="0.193" transform="translate(190.883 5.251)"/><rect class="c" width="33.309" height="0.193" transform="translate(40.454 6.547)"/><rect class="c" width="4.884" height="0.193" transform="translate(51.114 6.547)"/><rect class="c" width="72.238" height="0.193" transform="translate(56.294 9.803)"/><rect class="c" width="246.221" height="0.193"/></g><g transform="translate(50.276)"><g transform="translate(2.775 6.277)"><path class="d" d="M0,0H4.8a0,0,0,0,1,0,0V69.416A1.186,1.186,0,0,1,3.614,70.6H1.186A1.186,1.186,0,0,1,0,69.416V0A0,0,0,0,1,0,0Z"/></g><rect class="e" width="41.609" height="6.277" transform="translate(109.77)"/><g transform="translate(32.516 6.277)"><path class="e" d="M0,0H4.8a0,0,0,0,1,0,0V69.416A1.186,1.186,0,0,1,3.614,70.6H1.186A1.186,1.186,0,0,1,0,69.416V0A0,0,0,0,1,0,0Z"/></g><path class="e" d="M0,0H4.8a0,0,0,0,1,0,0V69.416A1.186,1.186,0,0,1,3.614,70.6H1.186A1.186,1.186,0,0,1,0,69.416V0A0,0,0,0,1,0,0Z" transform="translate(143.803 6.277)"/><rect class="f" width="121.638" height="6.277"/><path class="d" d="M0,0H4.8a0,0,0,0,1,0,0V69.416A1.186,1.186,0,0,1,3.614,70.6H1.186A1.186,1.186,0,0,1,0,69.416V0A0,0,0,0,1,0,0Z" transform="translate(114.063 6.277)"/></g><g transform="translate(63.21 10.319)"><rect class="f" width="50.022" height="66.56"/><rect class="e" width="9.542" height="66.56" transform="translate(50.022)"/><rect class="g" width="43.271" height="16.164" transform="translate(3.504 4.939)"/><path class="c" d="M197.607,303.656l.189,2.155a1.376,1.376,0,0,0,1.371,1.255h8.165a1.375,1.375,0,0,0,1.37-1.255l.189-2.155Z" transform="translate(-178.11 -298.717)"/><rect class="g" width="43.271" height="16.164" transform="translate(3.504 22.868)"/><path class="c" d="M197.607,326.906l.189,2.155a1.376,1.376,0,0,0,1.371,1.255h8.165a1.375,1.375,0,0,0,1.37-1.255l.189-2.155Z" transform="translate(-178.11 -304.037)"/><rect class="g" width="43.271" height="16.164" transform="translate(3.504 40.798)"/><path class="c" d="M197.607,350.156l.189,2.155a1.376,1.376,0,0,0,1.371,1.255h8.165a1.375,1.375,0,0,0,1.37-1.255l.189-2.155Z" transform="translate(-178.11 -309.358)"/></g></g><g transform="translate(23.031 1.434)"><g transform="translate(0 0)"><path class="g" d="M3.88,0H199.961a3.879,3.879,0,0,1,3.879,3.879V146.543a3.88,3.88,0,0,1-3.88,3.88H3.879A3.879,3.879,0,0,1,0,146.543V3.88A3.88,3.88,0,0,1,3.88,0Z"/><path class="h" d="M159.941,86.464H124.035a3.814,3.814,0,0,0-3.814,3.814V233.072a3.814,3.814,0,0,0,3.814,3.814h35.906Z" transform="translate(-120.221 -86.464)"/><path class="i" d="M320.247,86.464H124.035a3.814,3.814,0,0,0-3.814,3.814v9.95h203.84v-9.95A3.814,3.814,0,0,0,320.247,86.464Z" transform="translate(-120.221 -86.464)"/><g transform="translate(5.993 3.55)"><path class="j" d="M128.659,92.4a.666.666,0,0,1,0-1.333h5.255a.666.666,0,0,1,0,1.333Z" transform="translate(-127.993 -91.067)"/><path class="j" d="M128.659,95.857a.667.667,0,0,1,0-1.333h5.255a.667.667,0,0,1,0,1.333Z" transform="translate(-127.993 -91.858)"/><path class="j" d="M128.659,99.314a.667.667,0,0,1,0-1.333h5.255a.667.667,0,0,1,0,1.333Z" transform="translate(-127.993 -92.649)"/></g><rect class="k" width="17.182" height="47.608" rx="2.192" transform="translate(46.738 22.613)"/><rect class="l" width="17.182" height="47.608" rx="2.192" transform="translate(68.215 22.613)"/><rect class="k" width="17.182" height="47.608" rx="2.192" transform="translate(89.692 22.613)"/><rect class="l" width="17.182" height="47.608" rx="2.192" transform="translate(111.17 22.613)"/><rect class="k" width="17.182" height="47.608" rx="2.192" transform="translate(132.647 22.613)"/><rect class="l" width="17.182" height="47.608" rx="2.192" transform="translate(154.124 22.613)"/><rect class="k" width="17.182" height="47.608" rx="2.192" transform="translate(175.602 22.613)"/><g transform="translate(88.064 96.399)"><path class="m" d="M237.9,214.5h-.612v.789h-.848V214.5h-2.024v-.585l1.772-2.384h.912l-1.643,2.259h1.009v-.7h.821v.7h.612Z" transform="translate(-234.419 -211.484)"/><path class="m" d="M241.673,213.256a1.049,1.049,0,0,1,.379.848,1.172,1.172,0,0,1-.172.625,1.2,1.2,0,0,1-.523.452,2,2,0,0,1-.868.169,2.939,2.939,0,0,1-.781-.1,1.988,1.988,0,0,1-.652-.3l.344-.666a1.651,1.651,0,0,0,.494.25,1.879,1.879,0,0,0,.574.089.905.905,0,0,0,.516-.129.413.413,0,0,0,.188-.36.4.4,0,0,0-.2-.365,1.345,1.345,0,0,0-.679-.124h-.962l.194-2.115h2.293v.7h-1.568l-.059.713h.306A1.8,1.8,0,0,1,241.673,213.256Z" transform="translate(-235.48 -211.484)"/><path class="m" d="M243.508,213.262a1.224,1.224,0,0,1,0-1.508.875.875,0,0,1,.674-.282.867.867,0,0,1,.671.282,1.23,1.23,0,0,1,0,1.508.864.864,0,0,1-.671.282A.873.873,0,0,1,243.508,213.262Zm.962-.308a1,1,0,0,0,0-.891.345.345,0,0,0-.572,0,.969.969,0,0,0,0,.886.346.346,0,0,0,.572,0Zm1.951-1.438h.639l-2.566,3.758h-.639Zm-.169,3.675a.85.85,0,0,1-.33-.362,1.331,1.331,0,0,1,0-1.1.856.856,0,0,1,.33-.362.921.921,0,0,1,.48-.126.875.875,0,0,1,.674.282,1.222,1.222,0,0,1,0,1.508.875.875,0,0,1-.674.282A.922.922,0,0,1,246.252,215.19Zm.768-.467a.995.995,0,0,0,0-.886.345.345,0,0,0-.572,0,.98.98,0,0,0,0,.891.346.346,0,0,0,.572,0Z" transform="translate(-236.44 -211.471)"/></g><g transform="translate(147.359 96.378)"><path class="m" d="M313.775,213.055a1.14,1.14,0,0,1,.467.41,1.105,1.105,0,0,1,.171.615,1.181,1.181,0,0,1-.187.661,1.228,1.228,0,0,1-.514.437,1.667,1.667,0,0,1-.723.153,1.6,1.6,0,0,1-1.235-.483,1.963,1.963,0,0,1-.446-1.38,2.313,2.313,0,0,1,.242-1.1,1.639,1.639,0,0,1,.673-.692,2.057,2.057,0,0,1,1-.237,2.449,2.449,0,0,1,.578.068,1.539,1.539,0,0,1,.47.19l-.322.639a1.238,1.238,0,0,0-.7-.187,1.024,1.024,0,0,0-.757.279,1.167,1.167,0,0,0-.3.81,1.255,1.255,0,0,1,.928-.332A1.471,1.471,0,0,1,313.775,213.055Zm-.378,1.477a.57.57,0,0,0,0-.819.679.679,0,0,0-.465-.153.687.687,0,0,0-.467.158.543.543,0,0,0,0,.808.7.7,0,0,0,.483.156A.673.673,0,0,0,313.4,214.531Z" transform="translate(-311.31 -211.443)"/><path class="m" d="M318.161,213.256a1.051,1.051,0,0,1,.379.848,1.172,1.172,0,0,1-.172.625,1.2,1.2,0,0,1-.523.452,2,2,0,0,1-.868.169,2.932,2.932,0,0,1-.78-.1,2,2,0,0,1-.653-.3l.344-.666a1.665,1.665,0,0,0,.494.25,1.879,1.879,0,0,0,.575.089.9.9,0,0,0,.515-.129.414.414,0,0,0,.189-.36.4.4,0,0,0-.2-.365,1.346,1.346,0,0,0-.679-.124h-.961l.193-2.115h2.293v.7h-1.568l-.059.713h.306A1.8,1.8,0,0,1,318.161,213.256Z" transform="translate(-312.279 -211.462)"/><path class="m" d="M320,213.262a1.224,1.224,0,0,1,0-1.508.942.942,0,0,1,1.345,0,1.233,1.233,0,0,1,0,1.508.942.942,0,0,1-1.345,0Zm.961-.308a1,1,0,0,0,0-.891.345.345,0,0,0-.572,0,.975.975,0,0,0,0,.886.335.335,0,0,0,.285.153A.331.331,0,0,0,320.957,212.953Zm1.952-1.438h.639l-2.566,3.758h-.639Zm-.169,3.675a.845.845,0,0,1-.33-.362,1.331,1.331,0,0,1,0-1.1.851.851,0,0,1,.33-.362.922.922,0,0,1,.48-.126.877.877,0,0,1,.674.282,1.224,1.224,0,0,1,0,1.508.877.877,0,0,1-.674.282A.922.922,0,0,1,322.74,215.19Zm.767-.467a.988.988,0,0,0,0-.886.345.345,0,0,0-.571,0,.98.98,0,0,0,0,.891.333.333,0,0,0,.285.15A.329.329,0,0,0,323.507,214.723Z" transform="translate(-313.238 -211.449)"/></g><g transform="translate(158.481 4.814)"><path class="j" d="M328.536,96.763a1.572,1.572,0,0,1-.929.389v.6h-.537v-.585a2.905,2.905,0,0,1-.757-.14,1.892,1.892,0,0,1-.58-.29l.3-.655a1.945,1.945,0,0,0,.478.252,2.175,2.175,0,0,0,.564.129v-.9a4,4,0,0,1-.645-.2,1.141,1.141,0,0,1-.44-.33.887.887,0,0,1-.177-.578,1.037,1.037,0,0,1,.324-.765,1.545,1.545,0,0,1,.938-.389v-.6h.537v.585a2.351,2.351,0,0,1,1.09.328l-.268.661a2.133,2.133,0,0,0-.821-.28v.913a3.856,3.856,0,0,1,.636.2,1.117,1.117,0,0,1,.438.328.877.877,0,0,1,.177.571A1.018,1.018,0,0,1,328.536,96.763Zm-1.761-2.129a.841.841,0,0,0,.3.145v-.763a.582.582,0,0,0-.3.153.349.349,0,0,0-.1.244A.272.272,0,0,0,326.775,94.634ZM327.9,96.3a.312.312,0,0,0,.1-.231.277.277,0,0,0-.1-.22.84.84,0,0,0-.287-.15v.74A.584.584,0,0,0,327.9,96.3Z" transform="translate(-325.733 -92.706)"/><path class="j" d="M331.581,93.542V97.3h-.87V94.24h-.752v-.7Z" transform="translate(-326.7 -92.897)"/><path class="j" d="M335.659,96.573v.709h-2.841v-.564l1.45-1.37a1.516,1.516,0,0,0,.312-.379.682.682,0,0,0,.08-.314.415.415,0,0,0-.153-.346.708.708,0,0,0-.448-.121,1.03,1.03,0,0,0-.446.094.854.854,0,0,0-.333.281l-.633-.408a1.5,1.5,0,0,1,.606-.513,2.031,2.031,0,0,1,.887-.185,1.815,1.815,0,0,1,.733.137,1.119,1.119,0,0,1,.488.386,1,1,0,0,1,.175.588,1.3,1.3,0,0,1-.13.574,2.207,2.207,0,0,1-.5.613l-.865.816Z" transform="translate(-327.315 -92.878)"/><path class="j" d="M337.2,98.012a.508.508,0,0,1-.15-.376.491.491,0,0,1,.15-.373.555.555,0,0,1,.741,0,.491.491,0,0,1,.15.373.524.524,0,0,1-.891.376Z" transform="translate(-328.324 -93.716)"/><path class="j" d="M339.6,97.115a1.548,1.548,0,0,1-.571-.669,2.741,2.741,0,0,1,0-2.088,1.555,1.555,0,0,1,.571-.669,1.617,1.617,0,0,1,1.664,0,1.551,1.551,0,0,1,.572.669,2.741,2.741,0,0,1,0,2.088,1.544,1.544,0,0,1-.572.669,1.617,1.617,0,0,1-1.664,0Zm1.372-.8a2.226,2.226,0,0,0,0-1.826.635.635,0,0,0-1.073,0,2.225,2.225,0,0,0,0,1.826.636.636,0,0,0,1.073,0Z" transform="translate(-328.729 -92.878)"/><path class="j" d="M346.075,93.938a1.965,1.965,0,0,1,.446,1.383,2.334,2.334,0,0,1-.239,1.094,1.627,1.627,0,0,1-.675.693,2.069,2.069,0,0,1-1,.236,2.364,2.364,0,0,1-.575-.067,1.532,1.532,0,0,1-.467-.19l.322-.639a1.212,1.212,0,0,0,.7.188,1.018,1.018,0,0,0,.757-.281,1.176,1.176,0,0,0,.3-.814,1.263,1.263,0,0,1-.934.339,1.467,1.467,0,0,1-.655-.145,1.147,1.147,0,0,1-.467-.411,1.106,1.106,0,0,1-.172-.615,1.174,1.174,0,0,1,.187-.66,1.226,1.226,0,0,1,.513-.437,1.678,1.678,0,0,1,.723-.153A1.6,1.6,0,0,1,346.075,93.938Zm-.706,1.133a.549.549,0,0,0,.006-.808.7.7,0,0,0-.48-.155.671.671,0,0,0-.454.15.51.51,0,0,0-.174.408.519.519,0,0,0,.174.411.77.77,0,0,0,.928-.006Z" transform="translate(-329.78 -92.878)"/><path class="j" d="M350.978,95.67a.927.927,0,0,1,.148.521.979.979,0,0,1-.2.609,1.265,1.265,0,0,1-.558.4,2.5,2.5,0,0,1-1.662,0,1.243,1.243,0,0,1-.553-.4.982.982,0,0,1-.2-.609.927.927,0,0,1,.148-.521,1.075,1.075,0,0,1,.422-.366.908.908,0,0,1-.322-.325.877.877,0,0,1-.113-.448.92.92,0,0,1,.182-.569,1.176,1.176,0,0,1,.51-.374,2.016,2.016,0,0,1,.752-.131,2.055,2.055,0,0,1,.76.131,1.175,1.175,0,0,1,.513.374.915.915,0,0,1,.183.569.878.878,0,0,1-.113.448.9.9,0,0,1-.327.325A1.063,1.063,0,0,1,350.978,95.67Zm-.924.888a.473.473,0,0,0,.191-.394.467.467,0,0,0-.191-.393.835.835,0,0,0-.517-.145.818.818,0,0,0-.511.145.47.47,0,0,0-.187.393.475.475,0,0,0,.187.4.975.975,0,0,0,1.028,0Zm-.939-2.336a.42.42,0,0,0-.158.347.409.409,0,0,0,.155.338.666.666,0,0,0,.425.124.687.687,0,0,0,.43-.124.4.4,0,0,0,.16-.338.418.418,0,0,0-.16-.347.678.678,0,0,0-.43-.126A.658.658,0,0,0,349.115,94.223Z" transform="translate(-330.819 -92.878)"/><path class="j" d="M352.766,98.012a.51.51,0,0,1-.15-.376.493.493,0,0,1,.15-.373.556.556,0,0,1,.742,0,.49.49,0,0,1,.15.373.524.524,0,0,1-.891.376Z" transform="translate(-331.885 -93.716)"/><path class="j" d="M356.89,95.271a1.05,1.05,0,0,1,.379.848,1.176,1.176,0,0,1-.172.625,1.2,1.2,0,0,1-.524.451,1.994,1.994,0,0,1-.867.169,2.939,2.939,0,0,1-.781-.1,2,2,0,0,1-.652-.3l.343-.666a1.667,1.667,0,0,0,.494.251,1.9,1.9,0,0,0,.575.088.9.9,0,0,0,.515-.129.411.411,0,0,0,.188-.36.4.4,0,0,0-.2-.365,1.352,1.352,0,0,0-.679-.123h-.962l.194-2.115h2.293v.7H355.47l-.059.714h.306A1.8,1.8,0,0,1,356.89,95.271Z" transform="translate(-332.264 -92.897)"/><path class="j" d="M359.4,97.115a1.538,1.538,0,0,1-.571-.669,2.732,2.732,0,0,1,0-2.088,1.544,1.544,0,0,1,.571-.669,1.617,1.617,0,0,1,1.664,0,1.551,1.551,0,0,1,.572.669,2.741,2.741,0,0,1,0,2.088,1.544,1.544,0,0,1-.572.669,1.617,1.617,0,0,1-1.664,0Zm1.372-.8a2.226,2.226,0,0,0,0-1.826.616.616,0,0,0-.54-.3.61.61,0,0,0-.534.3,2.226,2.226,0,0,0,0,1.826.609.609,0,0,0,.534.295A.615.615,0,0,0,360.768,96.315Z" transform="translate(-333.258 -92.878)"/><path class="j" d="M364.7,93.542V97.3h-.87V94.24h-.752v-.7Z" transform="translate(-334.28 -92.897)"/><path class="j" d="M366.147,98.012a.511.511,0,0,1-.15-.376.493.493,0,0,1,.15-.373.556.556,0,0,1,.742,0,.49.49,0,0,1,.15.373.524.524,0,0,1-.891.376Z" transform="translate(-334.947 -93.716)"/><path class="j" d="M368.544,97.115a1.545,1.545,0,0,1-.572-.669,2.741,2.741,0,0,1,0-2.088,1.551,1.551,0,0,1,.572-.669,1.617,1.617,0,0,1,1.664,0,1.551,1.551,0,0,1,.572.669,2.741,2.741,0,0,1,0,2.088,1.545,1.545,0,0,1-.572.669,1.617,1.617,0,0,1-1.664,0Zm1.372-.8a2.226,2.226,0,0,0,0-1.826.636.636,0,0,0-1.074,0,2.226,2.226,0,0,0,0,1.826.637.637,0,0,0,1.074,0Z" transform="translate(-335.352 -92.878)"/><path class="j" d="M373.271,97.115a1.549,1.549,0,0,1-.572-.669,2.742,2.742,0,0,1,0-2.088,1.555,1.555,0,0,1,.572-.669,1.617,1.617,0,0,1,1.664,0,1.551,1.551,0,0,1,.572.669,2.741,2.741,0,0,1,0,2.088,1.545,1.545,0,0,1-.572.669,1.617,1.617,0,0,1-1.664,0Zm1.372-.8a2.226,2.226,0,0,0,0-1.826.635.635,0,0,0-1.073,0,2.226,2.226,0,0,0,0,1.826.636.636,0,0,0,1.073,0Z" transform="translate(-336.434 -92.878)"/></g><g transform="translate(52.096 76.174)"><path class="m" d="M189.4,185.243V189h-.87v-3.061h-.752v-.7Z" transform="translate(-187.777 -185.243)"/><path class="m" d="M191.035,185.243h1.708a2.4,2.4,0,0,1,1.082.234,1.756,1.756,0,0,1,.73.657,2.009,2.009,0,0,1,0,1.976,1.758,1.758,0,0,1-.73.658,2.4,2.4,0,0,1-1.082.234h-1.708Zm1.665,3.044a1.26,1.26,0,0,0,.9-.314,1.247,1.247,0,0,0,0-1.7,1.26,1.26,0,0,0-.9-.314h-.8v2.33Z" transform="translate(-188.523 -185.243)"/></g><g transform="translate(72.669 76.174)"><path class="m" d="M216.077,185.243V189h-.87v-3.061h-.752v-.7Z" transform="translate(-214.455 -185.243)"/><path class="m" d="M223.3,185.243,222.068,189h-.935l-.827-2.546L219.453,189h-.929l-1.235-3.759h.9l.848,2.642.887-2.642h.805l.859,2.663.875-2.663Z" transform="translate(-215.104 -185.243)"/></g><g transform="translate(94.705 76.174)"><path class="m" d="M244.652,185.243V189h-.87v-3.061h-.752v-.7Z" transform="translate(-243.03 -185.243)"/><path class="m" d="M249.709,189l-.005-2.256L248.6,188.6h-.393l-1.1-1.809V189h-.816v-3.759h.719l1.407,2.335,1.385-2.335h.715l.01,3.759Z" transform="translate(-243.776 -185.243)"/></g><g transform="translate(112.781 73.859)"><rect class="n" width="13.96" height="8.591" rx="4"/><g transform="translate(2.821 2.314)"><path class="j" d="M272.857,187.141a1.015,1.015,0,0,1,.263.711,1.12,1.12,0,0,1-.172.6,1.19,1.19,0,0,1-.524.443,2,2,0,0,1-.861.167,2.939,2.939,0,0,1-.781-.1,2,2,0,0,1-.652-.3l.338-.666a1.665,1.665,0,0,0,.5.251,1.928,1.928,0,0,0,.577.088.918.918,0,0,0,.516-.126.407.407,0,0,0,.188-.358q0-.462-.7-.461h-.4v-.574l.773-.875h-1.6v-.7h2.63v.564l-.847.966A1.268,1.268,0,0,1,272.857,187.141Z" transform="translate(-270.129 -185.243)"/><path class="j" d="M278.256,189l-.005-2.256-1.106,1.858h-.393l-1.1-1.809V189h-.817v-3.759h.72l1.407,2.335,1.385-2.335h.714l.011,3.759Z" transform="translate(-271.206 -185.243)"/></g></g><g transform="translate(137.173 76.109)"><path class="m" d="M300.567,186.77a1.15,1.15,0,0,1,.467.41,1.114,1.114,0,0,1,.171.615,1.17,1.17,0,0,1-.187.66,1.238,1.238,0,0,1-.513.438,1.678,1.678,0,0,1-.723.153,1.6,1.6,0,0,1-1.235-.483,1.967,1.967,0,0,1-.446-1.38,2.3,2.3,0,0,1,.242-1.1,1.644,1.644,0,0,1,.673-.692,2.059,2.059,0,0,1,1-.237,2.437,2.437,0,0,1,.577.067,1.57,1.57,0,0,1,.47.19l-.322.639a1.232,1.232,0,0,0-.7-.188,1.023,1.023,0,0,0-.757.279,1.166,1.166,0,0,0-.3.811,1.255,1.255,0,0,1,.928-.333A1.471,1.471,0,0,1,300.567,186.77Zm-.379,1.477a.51.51,0,0,0,.174-.408.519.519,0,0,0-.174-.411.676.676,0,0,0-.464-.153.688.688,0,0,0-.467.159.543.543,0,0,0-.005.807.7.7,0,0,0,.483.157A.671.671,0,0,0,300.188,188.247Z" transform="translate(-298.102 -185.159)"/><path class="m" d="M306.264,189l-.005-2.256-1.106,1.858h-.393l-1.1-1.809V189h-.816v-3.759h.72l1.407,2.335,1.385-2.335h.715l.01,3.759Z" transform="translate(-299.187 -185.178)"/></g><g transform="translate(159.885 76.174)"><path class="m" d="M329.176,185.243V189h-.87v-3.061h-.752v-.7Z" transform="translate(-327.554 -185.243)"/><path class="m" d="M332.462,187.67V189h-.869v-1.343l-1.456-2.416h.924l1,1.67,1-1.67h.854Z" transform="translate(-328.145 -185.243)"/></g><g transform="translate(180.81 76.174)"><path class="m" d="M357.416,187.141a1.015,1.015,0,0,1,.263.711,1.12,1.12,0,0,1-.172.6,1.191,1.191,0,0,1-.524.443,2,2,0,0,1-.861.167,2.938,2.938,0,0,1-.781-.1,2,2,0,0,1-.652-.3l.338-.666a1.656,1.656,0,0,0,.5.251,1.928,1.928,0,0,0,.577.088.914.914,0,0,0,.515-.126.405.405,0,0,0,.188-.358q0-.462-.7-.461h-.4v-.574l.773-.875h-1.6v-.7h2.631v.564l-.848.966A1.27,1.27,0,0,1,357.416,187.141Z" transform="translate(-354.688 -185.243)"/><path class="m" d="M360.974,187.67V189H360.1v-1.343l-1.456-2.416h.924l1,1.67,1-1.67h.854Z" transform="translate(-355.594 -185.243)"/></g><g transform="translate(44.578 31.543)"><path class="n" d="M178.039,152.086h0a1.074,1.074,0,0,1,.9-1.222l20.284-3.043,21.625-8.971,21.732-2.9,21.324,7.463,21.3-9.228h21.526l20.294-6.765a1.074,1.074,0,0,1,1.358.679h0a1.073,1.073,0,0,1-.679,1.358l-20.624,6.875H285.649l-21.659,9.386-21.632-7.571-21.083,2.811-21.6,8.965-20.416,3.062A1.074,1.074,0,0,1,178.039,152.086Z" transform="translate(-178.027 -127.367)"/></g><g transform="translate(44.348 26.904)"><path class="m" d="M199.146,155.427l-21.022-17.168a1.074,1.074,0,0,1-.153-1.511h0a1.074,1.074,0,0,1,1.511-.153l20.27,16.554,20.9-3.483,21.383-7.84,21.57-10.411,21.684-5.782,21.435,2.858,20.222-7.078a1.073,1.073,0,0,1,1.368.659h0a1.074,1.074,0,0,1-.659,1.369l-20.706,7.247-21.52-2.869-21.172,5.646L242.871,143.8,221.1,151.768Z" transform="translate(-177.73 -121.352)"/></g><g transform="translate(4.568 18.893)"><circle class="i" cx="5.842" cy="5.842" r="5.842" transform="translate(8.272 11.372) rotate(-76.718)"/><path class="o" d="M1.538,0H29.062A1.539,1.539,0,0,1,30.6,1.539v5.23a1.539,1.539,0,0,1-1.539,1.539H1.539A1.539,1.539,0,0,1,0,6.769V1.538A1.538,1.538,0,0,1,1.538,0Z" transform="translate(0 16.992)"/><path class="n" d="M130.707,139.063l-1.219.641.233-1.358-.987-.962,1.363-.2.61-1.235.61,1.235,1.363.2-.986.962.233,1.358Z" transform="translate(-126.737 -116.682)"/><path class="n" d="M138.053,139.063l-1.219.641.233-1.358-.987-.962,1.363-.2.61-1.235.61,1.235,1.363.2-.987.962.233,1.358Z" transform="translate(-128.418 -116.682)"/><path class="n" d="M145.4,139.063l-1.219.641.233-1.358-.987-.962,1.363-.2.61-1.235.61,1.235,1.363.2-.987.962.233,1.358Z" transform="translate(-130.099 -116.682)"/><path class="p" d="M152.746,139.063l-1.219.641.233-1.358-.987-.962,1.363-.2.61-1.235.61,1.235,1.363.2-.987.962.233,1.358Z" transform="translate(-131.78 -116.682)"/><path class="p" d="M160.092,139.063l-1.219.641.233-1.358-.987-.962,1.363-.2.61-1.235.61,1.235,1.363.2-.987.962.233,1.358Z" transform="translate(-133.461 -116.682)"/></g><g transform="translate(4.568 51.048)"><circle class="a" cx="5.842" cy="5.842" r="5.842" transform="translate(8.272 11.372) rotate(-76.718)"/><circle class="q" cx="5.842" cy="5.842" r="5.842" transform="translate(8.272 11.372) rotate(-76.718)"/><path class="o" d="M1.538,0H29.062A1.539,1.539,0,0,1,30.6,1.539v5.23a1.539,1.539,0,0,1-1.539,1.539H1.539A1.539,1.539,0,0,1,0,6.769V1.538A1.538,1.538,0,0,1,1.538,0Z" transform="translate(0 16.992)"/><path class="n" d="M130.707,180.761l-1.219.641.233-1.358-.987-.962,1.363-.2.61-1.235.61,1.235,1.363.2-.986.962.233,1.358Z" transform="translate(-126.737 -158.379)"/><path class="n" d="M138.053,180.761l-1.219.641.233-1.358-.987-.962,1.363-.2.61-1.235.61,1.235,1.363.2-.987.962.233,1.358Z" transform="translate(-128.418 -158.379)"/><path class="p" d="M145.4,180.761l-1.219.641.233-1.358-.987-.962,1.363-.2.61-1.235.61,1.235,1.363.2-.987.962.233,1.358Z" transform="translate(-130.099 -158.379)"/><path class="p" d="M152.746,180.761l-1.219.641.233-1.358-.987-.962,1.363-.2.61-1.235.61,1.235,1.363.2-.987.962.233,1.358Z" transform="translate(-131.78 -158.379)"/><path class="p" d="M160.092,180.761l-1.219.641.233-1.358-.987-.962,1.363-.2.61-1.235.61,1.235,1.363.2-.987.962.233,1.358Z" transform="translate(-133.461 -158.379)"/></g><g transform="translate(4.568 81.969)"><circle class="n" cx="5.842" cy="5.842" r="5.842" transform="translate(7.038 8.262) rotate(-45)"/><circle class="r" cx="5.842" cy="5.842" r="5.842" transform="translate(7.038 8.262) rotate(-45)"/><path class="o" d="M1.538,0H29.062A1.539,1.539,0,0,1,30.6,1.539v5.23a1.539,1.539,0,0,1-1.539,1.539H1.539A1.539,1.539,0,0,1,0,6.769V1.538A1.538,1.538,0,0,1,1.538,0Z" transform="translate(0 18.226)"/><path class="n" d="M130.707,222.458l-1.219.641.233-1.358-.987-.962,1.363-.2.61-1.235.61,1.235,1.363.2-.986.962.233,1.358Z" transform="translate(-126.737 -198.843)"/><path class="n" d="M138.053,222.458l-1.219.641.233-1.358-.987-.962,1.363-.2.61-1.235.61,1.235,1.363.2-.987.962.233,1.358Z" transform="translate(-128.418 -198.843)"/><path class="n" d="M145.4,222.458l-1.219.641.233-1.358-.987-.962,1.363-.2.61-1.235.61,1.235,1.363.2-.987.962.233,1.358Z" transform="translate(-130.099 -198.843)"/><path class="n" d="M152.746,222.458l-1.219.641.233-1.358-.987-.962,1.363-.2.61-1.235.61,1.235,1.363.2-.987.962.233,1.358Z" transform="translate(-131.78 -198.843)"/><path class="p" d="M160.092,222.458l-1.219.641.233-1.358-.987-.962,1.363-.2.61-1.235.61,1.235,1.363.2-.987.962.233,1.358Z" transform="translate(-133.461 -198.843)"/></g><g transform="translate(4.568 114.124)"><circle class="a" cx="5.842" cy="5.842" r="5.842" transform="translate(7.038 8.262) rotate(-45)"/><circle class="o" cx="5.842" cy="5.842" r="5.842" transform="translate(7.038 8.262) rotate(-45)"/><rect class="o" width="30.601" height="8.308" rx="1.539" transform="translate(0 18.226)"/><path class="n" d="M130.707,264.155l-1.219.641.233-1.358-.987-.962,1.363-.2.61-1.235.61,1.235,1.363.2-.986.962.233,1.358Z" transform="translate(-126.737 -240.54)"/><path class="n" d="M138.053,264.155l-1.219.641.233-1.358-.987-.962,1.363-.2.61-1.235.61,1.235,1.363.2-.987.962.233,1.358Z" transform="translate(-128.418 -240.54)"/><path class="p" d="M145.4,264.155l-1.219.641.233-1.358-.987-.962,1.363-.2.61-1.235.61,1.235,1.363.2-.987.962.233,1.358Z" transform="translate(-130.099 -240.54)"/><path class="n" d="M145.4,264.155l-1.219.641.233-1.358-.987-.962,1.363-.2.61-1.235Z" transform="translate(-130.099 -240.54)"/><path class="p" d="M152.746,264.155l-1.219.641.233-1.358-.987-.962,1.363-.2.61-1.235.61,1.235,1.363.2-.987.962.233,1.358Z" transform="translate(-131.78 -240.54)"/><path class="p" d="M160.092,264.155l-1.219.641.233-1.358-.987-.962,1.363-.2.61-1.235.61,1.235,1.363.2-.987.962.233,1.358Z" transform="translate(-133.461 -240.54)"/></g><g transform="translate(46.738 112.417)"><rect class="n" width="6.255" height="11.836" transform="translate(0 15.201)"/><rect class="n" width="6.255" height="16.358" transform="translate(15.097 10.679)"/><rect class="n" width="6.255" height="24.665" transform="translate(30.194 2.371)"/><g transform="translate(7.549 6.525)"><rect class="a" width="6.254" height="18.635" transform="translate(0 1.876)"/><rect class="a" width="6.255" height="20.512" transform="translate(15.097)"/><rect class="a" width="6.254" height="20.026" transform="translate(30.194 0.485)"/></g><g class="s" transform="translate(7.549 6.525)"><rect class="m" width="6.254" height="18.635" transform="translate(0 1.876)"/><rect class="m" width="6.255" height="20.512" transform="translate(15.097)"/><rect class="m" width="6.254" height="20.026" transform="translate(30.194 0.485)"/></g><rect class="n" width="6.254" height="27.037" transform="translate(45.291)"/></g><g transform="translate(106.874 112.417)"><path class="i" d="M310.357,259.278H258.811l3.491-11.836,7.185-6.8,7.549,10.456,7.548-12.333,7.549,8.179,7.549-7.694,7.548-7.01h3.127Z" transform="translate(-258.811 -232.241)"/><path class="t" d="M310.357,259.278H258.811l3.491-7.9,7.185-5.816,7.549,5.54,7.548-6.434,7.549,2.28,7.549-1.795,7.548-3.078,3.127-9.832Z" transform="translate(-258.811 -232.241)"/></g><g transform="translate(167.295 87.888)"><path class="n" d="M349.726,213.021h12.565a12.565,12.565,0,1,0-25.13,0h12.564Z" transform="translate(-337.162 -200.438)"/><path class="o" d="M349.726,213.021h12.565a12.565,12.565,0,1,0-25.13,0h12.564Z" transform="translate(-337.162 -200.438)"/><path class="q" d="M358.612,204.136a12.565,12.565,0,0,0-21.45,8.885h12.564Z" transform="translate(-337.162 -200.438)"/><path class="u" d="M341.934,204.114,350.818,213V200.433A12.525,12.525,0,0,0,341.934,204.114Z" transform="translate(-338.254 -200.433)"/><path class="n" d="M341.934,204.114,350.818,213V200.433A12.525,12.525,0,0,0,341.934,204.114Z" transform="translate(-338.254 -200.433)"/><path class="o" d="M341.934,204.114,350.818,213V200.433A12.525,12.525,0,0,0,341.934,204.114Z" transform="translate(-338.254 -200.433)"/><path d="M360,208.666l-.9-.905-5.685,5.67a1.261,1.261,0,0,0-.342-.069,1.313,1.313,0,1,0,1.313,1.313,1.276,1.276,0,0,0-.069-.339Z" transform="translate(-340.501 -202.11)"/></g><g transform="translate(167.295 107.634)"><path class="n" d="M349.726,238.627h12.565a12.565,12.565,0,1,0-25.13,0h12.564Z" transform="translate(-337.162 -226.045)"/><path class="o" d="M349.726,238.627h12.565a12.565,12.565,0,1,0-25.13,0h12.564Z" transform="translate(-337.162 -226.045)"/><path class="q" d="M358.612,229.742a12.565,12.565,0,0,0-21.45,8.885h12.564Z" transform="translate(-337.162 -226.045)"/><path class="n" d="M341.934,229.72l8.884,8.884V226.04A12.524,12.524,0,0,0,341.934,229.72Z" transform="translate(-338.254 -226.04)"/><path class="o" d="M341.934,229.72l8.884,8.884V226.04A12.524,12.524,0,0,0,341.934,229.72Z" transform="translate(-338.254 -226.04)"/><path d="M353.7,238.709v-7.3h-1.278v7.3a1.3,1.3,0,0,0-.674,1.124,1.313,1.313,0,0,0,2.626,0A1.3,1.3,0,0,0,353.7,238.709Z" transform="translate(-340.501 -227.268)"/></g><g transform="translate(167.295 127.381)"><path class="n" d="M349.726,264.233h12.565a12.565,12.565,0,1,0-25.13,0h12.564Z" transform="translate(-337.162 -251.651)"/><path class="o" d="M349.726,264.233h12.565a12.565,12.565,0,1,0-25.13,0h12.564Z" transform="translate(-337.162 -251.651)"/><path class="q" d="M358.612,255.349a12.564,12.564,0,0,0-21.45,8.884h12.564Z" transform="translate(-337.162 -251.651)"/><path class="n" d="M341.934,255.326l8.884,8.885V251.646A12.528,12.528,0,0,0,341.934,255.326Z" transform="translate(-338.254 -251.646)"/><path class="v" d="M341.934,255.326l8.884,8.885V251.646A12.528,12.528,0,0,0,341.934,255.326Z" transform="translate(-338.254 -251.646)"/><path d="M360,259.879l-.9-.905-5.685,5.67a1.264,1.264,0,0,0-.342-.069,1.313,1.313,0,1,0,1.313,1.313,1.269,1.269,0,0,0-.069-.339Z" transform="translate(-340.501 -253.323)"/></g><g transform="translate(186.422 12.644)"><path class="n" d="M372.488,102.86l-8.444.091a2.1,2.1,0,0,0-2.078,2.125l.076,7.065a2.1,2.1,0,0,0,2.118,2.079l2.442-.019,1.056,1.633a.891.891,0,0,0,1.512-.025l1-1.676,2.429-.019a2.1,2.1,0,0,0,2.085-2.125l-.076-7.051A2.1,2.1,0,0,0,372.488,102.86Z" transform="translate(-361.966 -102.86)"/><g transform="translate(2.225 4.538)"><path class="j" d="M366.656,109.925a.844.844,0,0,1,.342.3.815.815,0,0,1,.126.45.862.862,0,0,1-.137.484.9.9,0,0,1-.376.321,1.223,1.223,0,0,1-.528.112,1.167,1.167,0,0,1-.905-.354,1.436,1.436,0,0,1-.326-1.01,1.692,1.692,0,0,1,.177-.8,1.2,1.2,0,0,1,.494-.507,1.5,1.5,0,0,1,.733-.174,1.767,1.767,0,0,1,.423.049,1.13,1.13,0,0,1,.344.14l-.235.468a.905.905,0,0,0-.516-.137.745.745,0,0,0-.554.2.857.857,0,0,0-.221.594.922.922,0,0,1,.681-.244A1.073,1.073,0,0,1,366.656,109.925Zm-.277,1.082a.378.378,0,0,0,.127-.3.383.383,0,0,0-.127-.3.5.5,0,0,0-.341-.112.506.506,0,0,0-.342.116.4.4,0,0,0,0,.592.523.523,0,0,0,.355.113A.492.492,0,0,0,366.379,111.007Z" transform="translate(-364.851 -108.745)"/><path class="j" d="M368.669,111.423a1.134,1.134,0,0,1-.418-.49,2,2,0,0,1,0-1.53,1.124,1.124,0,0,1,2.056,0,2,2,0,0,1,0,1.53,1.148,1.148,0,0,1-1.638.49Zm1.006-.586a1.638,1.638,0,0,0,0-1.337.452.452,0,0,0-.4-.216.448.448,0,0,0-.391.216,1.63,1.63,0,0,0,0,1.337.447.447,0,0,0,.391.217A.452.452,0,0,0,369.674,110.837Z" transform="translate(-365.594 -108.745)"/><path class="j" d="M371.691,110.077a.894.894,0,0,1,0-1.105.692.692,0,0,1,.985,0,.9.9,0,0,1,0,1.105.69.69,0,0,1-.985,0Zm.7-.226a.735.735,0,0,0,0-.652.241.241,0,0,0-.211-.11.244.244,0,0,0-.208.112.709.709,0,0,0,0,.649.253.253,0,0,0,.419,0Zm1.429-1.053h.469l-1.88,2.752h-.468Zm-.123,2.691a.627.627,0,0,1-.242-.265.974.974,0,0,1,0-.8.624.624,0,0,1,.242-.266.681.681,0,0,1,.352-.093.643.643,0,0,1,.494.207.9.9,0,0,1,0,1.1.642.642,0,0,1-.494.207A.674.674,0,0,1,373.7,111.489Zm.562-.342a.721.721,0,0,0,0-.649.252.252,0,0,0-.418,0,.716.716,0,0,0,0,.652.252.252,0,0,0,.418,0Z" transform="translate(-366.373 -108.75)"/></g></g><g transform="translate(186.445 36.208)"><path class="m" d="M364.2,146.8l8.443-.092a2.1,2.1,0,0,0,2.078-2.124l-.076-7.065a2.1,2.1,0,0,0-2.117-2.079l-2.443.019-1.056-1.633a.89.89,0,0,0-1.511.026l-1,1.676-2.428.019a2.1,2.1,0,0,0-2.086,2.124l.076,7.051A2.1,2.1,0,0,0,364.2,146.8Z" transform="translate(-361.995 -133.417)"/><g transform="translate(2.172 6.808)"><path class="j" d="M366.728,143.573a.77.77,0,0,1,.277.622.863.863,0,0,1-.126.458.874.874,0,0,1-.383.33,1.463,1.463,0,0,1-.635.124,2.186,2.186,0,0,1-.573-.076,1.487,1.487,0,0,1-.477-.218l.251-.488a1.2,1.2,0,0,0,.362.183,1.388,1.388,0,0,0,.421.065.656.656,0,0,0,.377-.094.3.3,0,0,0,.138-.263.294.294,0,0,0-.144-.268.979.979,0,0,0-.5-.091h-.7l.141-1.549h1.679v.511h-1.148l-.043.523h.225A1.324,1.324,0,0,1,366.728,143.573Z" transform="translate(-364.811 -142.26)"/><path class="j" d="M368.562,144.924a1.141,1.141,0,0,1-.419-.49,2.011,2.011,0,0,1,0-1.53,1.134,1.134,0,0,1,.419-.489,1.124,1.124,0,0,1,1.638.489,2,2,0,0,1,0,1.53,1.148,1.148,0,0,1-1.638.49Zm1.006-.586a1.638,1.638,0,0,0,0-1.337.451.451,0,0,0-.4-.216.445.445,0,0,0-.391.216,1.622,1.622,0,0,0,0,1.337.445.445,0,0,0,.391.216A.451.451,0,0,0,369.567,144.338Z" transform="translate(-365.539 -142.246)"/><path class="j" d="M371.584,143.578a.894.894,0,0,1,0-1.105.69.69,0,0,1,.985,0,.9.9,0,0,1,0,1.105.69.69,0,0,1-.985,0Zm.7-.226a.737.737,0,0,0,0-.653.253.253,0,0,0-.419,0,.708.708,0,0,0,0,.649.253.253,0,0,0,.419,0Zm1.429-1.054h.469l-1.88,2.753h-.468Zm-.123,2.692a.627.627,0,0,1-.242-.265.976.976,0,0,1,0-.8.627.627,0,0,1,.242-.265.674.674,0,0,1,.352-.092.645.645,0,0,1,.494.207.9.9,0,0,1,0,1.105.645.645,0,0,1-.494.207A.674.674,0,0,1,373.594,144.99Zm.562-.342a.721.721,0,0,0,0-.649.251.251,0,0,0-.418,0,.708.708,0,0,0,0,.652.251.251,0,0,0,.418,0Z" transform="translate(-366.317 -142.251)"/></g></g><g transform="translate(107.358 96.082)"><path class="a" d="M260.452,213.087a1.014,1.014,0,1,1,0-2.028h31.369a1.014,1.014,0,1,1,0,2.028Z" transform="translate(-259.438 -211.059)"/><path class="a" d="M260.452,222.569a1.014,1.014,0,1,1,0-2.028h25.255a1.014,1.014,0,0,1,0,2.028Z" transform="translate(-259.438 -213.229)"/><path class="a" d="M260.452,217.828a1.014,1.014,0,1,1,0-2.028h22.674a1.014,1.014,0,1,1,0,2.028Z" transform="translate(-259.438 -212.144)"/><g class="w"><path class="j" d="M260.452,213.087a1.014,1.014,0,1,1,0-2.028h31.369a1.014,1.014,0,1,1,0,2.028Z" transform="translate(-259.438 -211.059)"/><path class="j" d="M260.452,222.569a1.014,1.014,0,1,1,0-2.028h25.255a1.014,1.014,0,0,1,0,2.028Z" transform="translate(-259.438 -213.229)"/><path class="j" d="M260.452,217.828a1.014,1.014,0,1,1,0-2.028h22.674a1.014,1.014,0,1,1,0,2.028Z" transform="translate(-259.438 -212.144)"/></g></g><g transform="translate(46.737 96.082)"><path class="a" d="M181.842,213.087a1.014,1.014,0,1,1,0-2.028h31.369a1.014,1.014,0,1,1,0,2.028Z" transform="translate(-180.828 -211.059)"/><path class="a" d="M181.842,222.569a1.014,1.014,0,1,1,0-2.028h18.373a1.014,1.014,0,0,1,0,2.028Z" transform="translate(-180.828 -213.229)"/><path class="a" d="M181.842,217.828a1.014,1.014,0,1,1,0-2.028h26.607a1.014,1.014,0,0,1,0,2.028Z" transform="translate(-180.828 -212.144)"/><g class="w"><path class="j" d="M181.842,213.087a1.014,1.014,0,1,1,0-2.028h31.369a1.014,1.014,0,1,1,0,2.028Z" transform="translate(-180.828 -211.059)"/><path class="j" d="M181.842,222.569a1.014,1.014,0,1,1,0-2.028h18.373a1.014,1.014,0,0,1,0,2.028Z" transform="translate(-180.828 -213.229)"/><path class="j" d="M181.842,217.828a1.014,1.014,0,1,1,0-2.028h26.607a1.014,1.014,0,0,1,0,2.028Z" transform="translate(-180.828 -212.144)"/></g></g></g></g><g transform="translate(185.476 61.987)"><g transform="translate(0 0)"><g transform="translate(2.39 23.048)"><path class="x" d="M350.436,217.237H337.03a1.337,1.337,0,0,1-1.306-1.2l-1.746-19.962a1.082,1.082,0,0,1,1.1-1.2H348.48a1.338,1.338,0,0,1,1.306,1.2l1.746,19.962A1.083,1.083,0,0,1,350.436,217.237Z" transform="translate(-333.973 -194.874)"/><path class="n" d="M351.436,217.237H338.03a1.337,1.337,0,0,1-1.306-1.2l-1.746-19.962a1.082,1.082,0,0,1,1.1-1.2H349.48a1.338,1.338,0,0,1,1.306,1.2l1.746,19.962A1.083,1.083,0,0,1,351.436,217.237Z" transform="translate(-334.202 -194.874)"/><path class="y" d="M351.436,217.237H338.03a1.337,1.337,0,0,1-1.306-1.2l-1.746-19.962a1.082,1.082,0,0,1,1.1-1.2H349.48a1.338,1.338,0,0,1,1.306,1.2l1.746,19.962A1.083,1.083,0,0,1,351.436,217.237Z" transform="translate(-334.202 -194.874)"/><path class="z" d="M349.777,195.874H336.37a.388.388,0,0,0-.392.43l1.746,19.962a.479.479,0,0,0,.467.43H351.6a.388.388,0,0,0,.393-.43L350.245,196.3A.479.479,0,0,0,349.777,195.874Z" transform="translate(-334.432 -195.103)"/><path class="r" d="M352.559,216.473l-1.723-19.692-12.375,20.005a.464.464,0,0,0,.3.116h13.406A.388.388,0,0,0,352.559,216.473Z" transform="translate(-335 -195.31)"/><path class="p" d="M348.709,207.682h-6.943a.893.893,0,0,1-.872-.8l-.359-4.1a.724.724,0,0,1,.732-.8h6.944a.892.892,0,0,1,.871.8l.359,4.1A.723.723,0,0,1,348.709,207.682Z" transform="translate(-335.474 -196.5)"/><path class="p" d="M349.518,216.932h-6.943a.894.894,0,0,1-.872-.8l-.359-4.1a.724.724,0,0,1,.732-.8h6.943a.894.894,0,0,1,.872.8l.359,4.1A.724.724,0,0,1,349.518,216.932Z" transform="translate(-335.659 -198.617)"/><g transform="translate(6.144 6.637)"><path class="a" d="M342.206,203.969a.271.271,0,0,1-.265-.244.22.22,0,0,1,.223-.244h5.576a.272.272,0,0,1,.265.244.219.219,0,0,1-.223.244Z" transform="translate(-341.94 -203.481)"/><path class="a" d="M342.406,206.252a.271.271,0,0,1-.265-.244.22.22,0,0,1,.222-.244h4.63a.272.272,0,0,1,.265.244.219.219,0,0,1-.222.244Z" transform="translate(-341.986 -204.003)"/><path class="a" d="M342.306,205.111a.272.272,0,0,1-.265-.244.22.22,0,0,1,.222-.244h3.684a.271.271,0,0,1,.265.244.22.22,0,0,1-.223.244Z" transform="translate(-341.963 -203.742)"/><g class="w"><path class="j" d="M342.206,203.969a.271.271,0,0,1-.265-.244.22.22,0,0,1,.223-.244h5.576a.272.272,0,0,1,.265.244.219.219,0,0,1-.223.244Z" transform="translate(-341.94 -203.481)"/><path class="j" d="M342.406,206.252a.271.271,0,0,1-.265-.244.22.22,0,0,1,.222-.244h4.63a.272.272,0,0,1,.265.244.219.219,0,0,1-.222.244Z" transform="translate(-341.986 -204.003)"/><path class="j" d="M342.306,205.111a.272.272,0,0,1-.265-.244.22.22,0,0,1,.222-.244h3.684a.271.271,0,0,1,.265.244.22.22,0,0,1-.223.244Z" transform="translate(-341.963 -203.742)"/></g></g><g transform="translate(6.777 13.874)"><path class="a" d="M343.027,213.353a.272.272,0,0,1-.265-.244.22.22,0,0,1,.223-.244h5.576a.271.271,0,0,1,.265.244.22.22,0,0,1-.222.244Z" transform="translate(-342.761 -212.865)"/><path class="a" d="M343.127,214.494a.271.271,0,0,1-.265-.244.22.22,0,0,1,.222-.244h3.684a.271.271,0,0,1,.265.244.22.22,0,0,1-.223.244Z" transform="translate(-342.784 -213.126)"/><g class="w"><path class="j" d="M343.027,213.353a.272.272,0,0,1-.265-.244.22.22,0,0,1,.223-.244h5.576a.271.271,0,0,1,.265.244.22.22,0,0,1-.222.244Z" transform="translate(-342.761 -212.865)"/><path class="j" d="M343.127,214.494a.271.271,0,0,1-.265-.244.22.22,0,0,1,.222-.244h3.684a.271.271,0,0,1,.265.244.22.22,0,0,1-.223.244Z" transform="translate(-342.784 -213.126)"/></g></g></g><path class="a" d="M370.54,178.958c.128-.446-.005-.875-.3-.959s-.631.211-.758.657.005.875.3.959S370.412,179.4,370.54,178.958Z" transform="translate(-339.699 -167.961)"/><path class="aa" d="M369.1,180.124l-3.405,2.184a3.03,3.03,0,0,0,2.352,1.383Z" transform="translate(-338.842 -168.45)"/><path class="ab" d="M385.257,182.2c-2.285,5.393-3.137,7.729-6.92,9.575-5.272,1.379-11.826-1.209-11.2-7.18.564-5.373,4.2-13.27,10.385-13.588a8,8,0,0,1,7.731,11.193Z" transform="translate(-339.164 -166.363)"/><path class="a" d="M371.765,177.535a.284.284,0,0,1-.184-.179,2.141,2.141,0,0,0-1.325-1.444.272.272,0,0,1-.183-.333.278.278,0,0,1,.335-.189,2.693,2.693,0,0,1,1.694,1.8.265.265,0,0,1-.157.34l-.012,0A.236.236,0,0,1,371.765,177.535Z" transform="translate(-339.842 -167.365)"/><path class="u" d="M372.725,193.879s-3.922.8-5.472-2.628c.527,2.748,2.812,4.5,5.565,5.188l.945-.659-.51-1.4Z" transform="translate(-339.199 -170.997)"/><path class="ab" d="M380.559,203.309s-3.389-1.66-.946-8.121c0,0-2.706-2.684-5.519-1.545s-.452,7.091-3.763,8.008C370.33,201.651,372.059,204.045,380.559,203.309Z" transform="translate(-339.903 -171.48)"/><path class="a" d="M370.436,177.937a1.334,1.334,0,0,1-.825-.631,1.043,1.043,0,0,0,.7.844Z" transform="translate(-339.739 -167.805)"/><g transform="translate(28.812 27.83)"><path class="ac" d="M368.236,203.682s2.024-3.152,7.47-2.526,4.373,3.917,4.373,3.917Z" transform="translate(-368.236 -201.074)"/></g><path class="a" d="M373.925,180.323a8.9,8.9,0,0,1,1.578-4.454c1.559-2.317.676-3.816.764-5.284s7.607-2.946,10.5,2.067c0,0,5.205,4.5,1.542,9.9s-5.141,9.52-9.575,8.841S376.817,183.376,373.925,180.323Z" transform="translate(-340.726 -165.947)"/><path class="ad" d="M388.309,172.667a7.121,7.121,0,0,0-5.7-3.416c-1.149,2.562,1.888,5.4,1.888,5.4s-4.46,1.1-3.749,4.753,5.9,1.73,5.9,1.73-3.276,3.174-.875,5.053a1.705,1.705,0,0,0,1.5.382c.769-1.2,1.595-2.553,2.58-4C393.514,177.166,388.309,172.667,388.309,172.667Z" transform="translate(-342.27 -165.962)"/><path class="i" d="M389.216,173.248a6.522,6.522,0,0,0-1.156-1.46,6.293,6.293,0,0,0-3.428,5.6,6.144,6.144,0,0,0,5.783,6.272c.114-.172.224-.341.343-.516C394.421,177.747,389.216,173.248,389.216,173.248Z" transform="translate(-343.176 -166.543)"/><path class="ab" d="M373.862,181.3a4.5,4.5,0,0,0-1.827,2.93c-.247,1.568,1.2,2.182,2.589,1.6,1.255-.522,2.879-1.967,2.493-3.477A2.038,2.038,0,0,0,373.862,181.3Z" transform="translate(-340.287 -168.621)"/><path class="a" d="M387.036,174.087s-4-4.445-.649-7.023c2.7-2.078,4.778,3.181,4.778,3.181s-.44-5.88,3.7-5.205c4.183.682,1.639,5.784,1.639,5.784s3.663-2.313,5.205.193-2.948,4.156-2.948,4.156,5.069,2.987,2.659,5.055-4.723-.4-4.723-.4,1.446,4.012-1.253,4.645c-2.444.573-3.181-3.139-3.181-3.139s-1.832,4.434-4.049,2.7.1-4.667.1-4.667-4.086,1.775-4.742-1.6S387.036,174.087,387.036,174.087Z" transform="translate(-342.918 -164.986)"/><path class="ab" d="M391.571,222.767s7.334,15.761,3.8,17.189-14.306,3.856-14.306,3.856l-5.185,1.875-3.006-1.954.763-5.054,7.588,1.656,9.1-4.078-4.3-9.577Z" transform="translate(-340.486 -178.209)"/><path class="i" d="M391.491,211.749a.506.506,0,0,1,.837.142c1.682,3.892,9.585,22.59,7.379,25.313-1.64,2.024-9.574,3.085-9.574,3.085l-1.688-4.531,4.811-2.217-5.413-12.335S387.271,216.488,391.491,211.749Z" transform="translate(-343.905 -175.65)"/><path class="u" d="M387.844,221.255l2.886,6.577c2.391-14.219.761-16.034.761-16.034C387.271,216.537,387.844,221.255,387.844,221.255Z" transform="translate(-343.905 -175.699)"/><path class="ab" d="M389.307,386.419l4.135,14.058,4.2-.244-.889-15.262Z" transform="translate(-344.246 -215.329)"/><path class="ae" d="M360.4,251.475s-5.1,10.258-.2,29.119,24.531,84.57,24.531,84.57l5.527-.664s.348-23.579-7.427-42.606c0,0-3.731-32.348-1.914-39.953,1.271-5.316,2.044-9.759-.149-17.811a55.873,55.873,0,0,0-3.541-10.016c-1.444-2.876-1.017-3.981-1.017-3.981Z" transform="translate(-337.099 -184.472)"/><path class="y" d="M392.443,398.36l5.527-.664s.013-.911-.024-2.5l-6.2.841Z" transform="translate(-344.805 -217.668)"/><path class="ad" d="M368.023,310.54c7.091-19.707,5.139-34,5.139-34l-4.434-.578-3.47,6.169-2.418,10.109C364.212,297.227,366.021,303.591,368.023,310.54Z" transform="translate(-338.189 -190.381)"/><path class="i" d="M392.324,404.347l4.989-.7a.467.467,0,0,1,.5.307l2.379,4.56a.777.777,0,0,1-.467.995.763.763,0,0,1-.16.039c-2.081.215-3.941.325-6.526.642-3.05.369-2.232.641-5.812,1.126-2.157.29-2.85-2.118-1.949-2.35,4.13-1.035,4.412-2.354,5.848-4.05A1.868,1.868,0,0,1,392.324,404.347Z" transform="translate(-343.235 -219.603)"/><path class="a" d="M391.073,397.689l7.661-.961-.117,2.283-6.757.836Z" transform="translate(-344.65 -218.02)"/><path class="ab" d="M361.841,388.082l1.806,14.009h4.241l1.092-13.752Z" transform="translate(-337.961 -216.041)"/><path class="ae" d="M350.978,249.832a13.377,13.377,0,0,1-1.027,3.674,49.829,49.829,0,0,0-3.193,25.138c2.251,19.358,12.605,87.149,12.605,87.149h5.573s3.817-23.037-.688-43.33c0,0-1.6-28.567.781-36.015,1.656-5.185,6.339-10.2,5.138-21.159s-4.107-14.706-4.107-14.706Z" transform="translate(-334.42 -184.403)"/><path class="y" d="M362.721,396.938l.384,2.519h5.573s.15-.914.356-2.519Z" transform="translate(-338.162 -218.068)"/><path class="i" d="M361.459,405.679l4.962.1a.462.462,0,0,1,.444.369l.951,4.683a.768.768,0,0,1-.592.91.815.815,0,0,1-.162.016c-2.067-.074-3.9-.221-6.475-.264-3.037-.055-2.273.322-5.844.308-2.152-.012-2.5-2.463-1.586-2.567,4.184-.449,5.411-1.7,7.049-3.166A1.845,1.845,0,0,1,361.459,405.679Z" transform="translate(-335.865 -220.067)"/><path class="a" d="M361.841,398.675h7.727l-.432,2.245h-6.815Z" transform="translate(-337.961 -218.465)"/><path class="i" d="M378.267,248.792c-7.907-10.893,5.88-35.088,4.265-39.613s-26.725-12.055-30.024.772-1.548,21.6-2.044,27.178c-.73,8.193-4.1,11.471-4.1,11.471S363.808,255.154,378.267,248.792Z" transform="translate(-334.418 -173.646)"/><path class="u" d="M351.97,222.082a88.894,88.894,0,0,0-.26,11.3c9.34-10.828,7.273-21.076,7.273-21.076l-.76.482-3.374,2.8S353.51,218.459,351.97,222.082Z" transform="translate(-335.627 -175.815)"/><path class="ab" d="M332.652,219.676s2.615,13.646,5.6,16.013,13.3-14.5,13.3-14.5l-5.1-3.049-7.07,9.506-4.174-9.784.827-5.221-1.36-3.2a1.117,1.117,0,0,0-1.993.086l-1.542,3.415a3.026,3.026,0,0,0-.091,2.263Z" transform="translate(-330.874 -175.028)"/><path class="i" d="M340.212,225.975l-2.442-5.912-3.257,4.823s1.619,11.512,5.764,10.44c3.958-1.024,12.908-14.489,14.845-19.682s-.685-10.252-.685-10.252-3.171-.823-7.25,8.744C343.681,222.358,340.212,225.975,340.212,225.975Z" transform="translate(-331.706 -174.229)"/></g></g><g transform="translate(13.817 53.063)"><g transform="translate(0 0)"><path class="m" d="M120.864,198.054a1.833,1.833,0,0,0-2.776.53c-3.131,5.64-12.123,22.682-9.26,27.425,3.449,5.711,19.826,5.253,19.826,5.253l.79-4.845-10.51-5.439s3.239-6.46,4.224-8.658C124.676,208.942,126.934,203.179,120.864,198.054Z" transform="translate(-108.273 -163.533)"/><path class="ad" d="M121.414,221.549s3.239-6.46,4.225-8.658c1.1-2.441,2.576-6.125,1.026-9.915l-2.684-2.847-2.569.813s-5.207,25.1.017,30.248c1.788.281,3.555.444,5.081.536,1.835-1.065,3.173-3.366,4.06-5.437Z" transform="translate(-110.752 -164.105)"/><path class="a" d="M144.538,167.056c-.145-.509.007-1,.339-1.094s.719.241.865.75-.007,1-.339,1.093S144.683,167.564,144.538,167.056Z" transform="translate(-116.56 -156.282)"/><path class="af" d="M145.421,168.386l3.885,2.491a3.46,3.46,0,0,1-2.684,1.579Z" transform="translate(-116.774 -156.84)"/><path class="ag" d="M121.763,170.759c2.607,6.152,3.58,8.817,7.9,10.923,6.014,1.572,13.491-1.379,12.772-8.191-.644-6.13-4.789-15.139-11.847-15.5a9.122,9.122,0,0,0-8.82,12.77Z" transform="translate(-111.185 -154.458)"/><path class="a" d="M142.834,165.432a.324.324,0,0,0,.211-.2,2.444,2.444,0,0,1,1.511-1.648.309.309,0,0,0,.209-.38.318.318,0,0,0-.383-.215,3.071,3.071,0,0,0-1.932,2.057.3.3,0,0,0,.178.388l.015,0A.27.27,0,0,0,142.834,165.432Z" transform="translate(-116.09 -155.602)"/><path class="u" d="M140.232,184.077s4.473.91,6.242-3c-.6,3.136-3.208,5.135-6.348,5.919l-1.077-.752.582-1.592Z" transform="translate(-115.316 -159.745)"/><path class="ag" d="M129.344,196.137s4.316-2.114,1.205-10.343c0,0,3.446-3.419,7.029-1.969s.576,9.031,4.793,10.2C142.371,194.025,140.169,197.073,129.344,196.137Z" transform="translate(-113.095 -160.291)"/><g transform="translate(17.018 27.304)"><path class="a" d="M130.389,193.217s-.78-2.8,4.012-3.976,8.777.268,9.415,2.367S130.389,193.217,130.389,193.217Z" transform="translate(-130.342 -188.82)"/><path class="ah" d="M130.389,193.217s-.78-2.8,4.012-3.976,8.777.268,9.415,2.367S130.389,193.217,130.389,193.217Z" transform="translate(-130.342 -188.82)"/></g><path class="a" d="M137.254,168.2a1.736,1.736,0,0,0,0-2.751c-1.573-1.445-3.874-2.675-3.2-4.665s-2.4-3.368-2.4-3.368,3.015-1.966,1.245-3.54c-1.821-1.619-2.571,1.377-6.817,3.055-4.89,1.933-10.358,6.582-7.014,12.678s6.293,11.209,10.292,10.226,5.9-8.719,5.9-8.719Z" transform="translate(-110.508 -153.414)"/><path class="ag" d="M140.409,169.729a5.134,5.134,0,0,1,2.084,3.342c.282,1.789-1.373,2.489-2.953,1.831-1.432-.6-3.285-2.244-2.845-3.967A2.325,2.325,0,0,1,140.409,169.729Z" transform="translate(-114.762 -157.035)"/><path class="ag" d="M153.731,392.292l1.517,10.286,6.188-.226.465-10.646Z" transform="translate(-118.676 -207.946)"/><path class="m" d="M160.955,404.559l-6.1.129a.57.57,0,0,0-.546.453l-1.168,5.756a.942.942,0,0,0,.728,1.117.963.963,0,0,0,.2.021c2.539-.091,4.8-.271,7.958-.325,3.732-.067,2.793.4,7.182.379,2.644-.014,3.074-3.027,1.95-3.155-5.143-.552-6.651-2.091-8.664-3.892A2.271,2.271,0,0,0,160.955,404.559Z" transform="translate(-118.537 -210.887)"/><path class="ag" d="M114.493,392.292l-.4,9.116,6.424.841,2.147-10.543Z" transform="translate(-109.605 -207.946)"/><path class="m" d="M119.459,403.124l-6.088-.382a.567.567,0,0,0-.581.406l-1.647,5.637a.943.943,0,0,0,.632,1.175.893.893,0,0,0,.2.036c2.538.123,4.8.132,7.957.344,3.725.246,2.751.629,7.125.979,2.636.208,3.316-2.759,2.207-2.98-5.078-.981-6.452-2.641-8.307-4.6A2.275,2.275,0,0,0,119.459,403.124Z" transform="translate(-108.921 -210.472)"/><path class="ag" d="M132.941,235.076l3.782.909,6.4-1.618,1.035,2.827.8,3.963-5.091.87-4.184-2.521-5.337-.108Z" transform="translate(-113.324 -171.94)"/><path class="m" d="M121.977,197.816l3.124,43.9,33.564.262s4.095-12.126-.965-29.3l-4.944-16.569a4.1,4.1,0,0,0-2.944-2.816c-4.976-1.228-17.075-2.7-26.516,2.18A2.442,2.442,0,0,0,121.977,197.816Z" transform="translate(-111.408 -162.265)"/><path class="x" d="M122.336,256.426a88.269,88.269,0,0,0-2.347,18.872c.009,1.44.083,2.628.184,3.587a52.257,52.257,0,0,1,.228,8.69l-.046.746c-.517,8.357-.607,16.9-.593,22.525v.119a34.418,34.418,0,0,1-1.716,10.848q-.267.816-.517,1.67c-4.742,16.264-4.337,42.224-4.337,42.224l9.2.518,25.322-111.391h-23.5A1.957,1.957,0,0,0,122.336,256.426Z" transform="translate(-109.397 -176.624)"/><path class="u" d="M141.378,277.867l-3.151-.726-1.946-2.358A144.453,144.453,0,0,0,141.59,309.6l4.982-21.917Z" transform="translate(-114.683 -181.189)"/><g transform="translate(2.981 187.293)"><path class="n" d="M112.139,396.288l.135,2.71,10.473.43.466-2.75Z" transform="translate(-112.139 -396.288)"/></g><path class="ai" d="M112.139,396.288l.135,2.71,10.473.43.466-2.75Z" transform="translate(-109.158 -208.995)"/><path class="x" d="M136.7,254.834c-2.147,12.876-.825,20.216.6,24.055q.209.563.419,1.027a26.3,26.3,0,0,1,2.105,7.333c.016.12.032.241.048.361a228.143,228.143,0,0,0,5.4,26.272l.022.085a20.03,20.03,0,0,1,.508,7.831c-.119.855-.209,1.772-.275,2.741-1.013,14.991,3.914,42.319,3.914,42.319l9.006-.83,3.938-109.893a1.224,1.224,0,0,0-1.187-1.3Z" transform="translate(-114.521 -176.624)"/><g transform="translate(33.761 187.83)"><path class="n" d="M152.053,398.007l.769,2.645,10.12-.878.148-2.789Z" transform="translate(-152.053 -396.984)"/><path class="ai" d="M152.053,398.007l.769,2.645,10.12-.878.148-2.789Z" transform="translate(-152.053 -396.984)"/></g><g class="aj" transform="translate(13.23 80.08)"><rect class="j" width="17.003" height="2.36" transform="translate(9.135)"/><path class="j" d="M132.315,257.258h-6.531l-.355,2.36h6.886Z" transform="translate(-125.429 -257.258)"/><rect class="j" width="5.181" height="2.36" transform="translate(28.431)"/></g><path class="ad" d="M165.936,214.843l-2.67-8.947-1.826-2.547-2.36-1.814-1.117,2.754a22.269,22.269,0,0,0,9.073,14.84C166.73,217.738,166.368,216.31,165.936,214.843Z" transform="translate(-119.645 -164.426)"/><path class="ag" d="M189.063,195.639l1.625-3.534-.289-5.5a2.734,2.734,0,0,1,.66-1.927l.94-1.088a2.729,2.729,0,0,1,4.142.014l.538.63a2.735,2.735,0,0,1,.652,1.842l-.08,3.1a2.731,2.731,0,0,1-.708,1.764l-2.6,2.865-1.141,5.215Z" transform="translate(-126.762 -160.104)"/><path class="m" d="M160.74,194.648,176.577,207.4l5.535-10.71,4.752,1.988s-3.384,19.016-7.715,19.32-15.167-4.825-19.629-10.923c-3.244-4.433-1.771-9.508-.725-11.947A1.256,1.256,0,0,1,160.74,194.648Z" transform="translate(-119.547 -162.786)"/></g></g><g transform="translate(8.381 0)"><path class="f" d="M345.1,57.461a20.359,20.359,0,1,1-23.069-17.172A20.336,20.336,0,0,1,345.1,57.461Z" transform="translate(-304.596 -40.073)"/><g transform="translate(4.844 4.834)"><path class="c" d="M345.915,63.75a15.515,15.515,0,1,1-17.579-13.087A15.5,15.5,0,0,1,345.915,63.75Z" transform="translate(-315.046 -50.5)"/></g><g transform="translate(4.563 4.245)"><path class="ak" d="M345.516,62.588a9.184,9.184,0,0,1-.674-1.787,16.465,16.465,0,0,0-2.455-4.449,15.894,15.894,0,0,0-2.438-2.495,15.543,15.543,0,0,0-3.39-2.1,15.218,15.218,0,0,0-4.218-1.214,15.045,15.045,0,0,0-2.321-.135,15.173,15.173,0,0,0-4.7.834,15.1,15.1,0,0,0-2.133.926,15.2,15.2,0,0,0-3.542,2.592,15.514,15.514,0,0,0-2.461,3.135,15.9,15.9,0,0,0-1.431,3.181,16.475,16.475,0,0,0-.772,5.021,9.1,9.1,0,0,1-.017,1.91,4.558,4.558,0,0,1-.445-1.885,14.35,14.35,0,0,1,.427-5.281,15.544,15.544,0,0,1,3.922-6.852,15.043,15.043,0,0,1,1.736-1.533,15.2,15.2,0,0,1,2.033-1.312,15.778,15.778,0,0,1,2.294-1.017,15.911,15.911,0,0,1,5.07-.9,15.871,15.871,0,0,1,2.5.165,15.812,15.812,0,0,1,4.518,1.374,15.546,15.546,0,0,1,6.042,5.083,14.364,14.364,0,0,1,2.221,4.811A4.552,4.552,0,0,1,345.516,62.588Z" transform="translate(-314.439 -49.23)"/></g><g transform="translate(13.467 9.492)"><path class="ak" d="M343.607,80.277l.427,2.669-2.382.381-.416-2.6A11.435,11.435,0,0,1,335,79.774l.845-3.117a9.753,9.753,0,0,0,4.893.952L340.1,73.63c-2.748-.219-5.843-.628-6.388-4.036-.4-2.525,1.083-4.987,4.779-6.018l-.424-2.645,2.383-.382.416,2.6a10.918,10.918,0,0,1,5.069.679l-.721,3.122a9.9,9.9,0,0,0-3.844-.656l.649,4.051c2.744.2,5.792.613,6.329,3.972C348.742,76.791,347.275,79.226,343.607,80.277Zm-4.068-10.149L339,66.744c-1.217.488-1.606,1.26-1.481,2.046C337.649,69.623,338.437,69.963,339.539,70.128Zm5.017,5.086c-.134-.834-.9-1.176-1.979-1.37l.526,3.288C344.253,76.679,344.678,75.976,344.556,75.214Z" transform="translate(-333.646 -60.549)"/></g></g><g transform="translate(141.719 35.4)"><g transform="translate(0)"><path class="f" d="M460.649,41.9A13.324,13.324,0,1,1,448.287,27.7,13.309,13.309,0,0,1,460.649,41.9Z" transform="translate(-434.034 -27.671)"/><g transform="translate(3.17 3.163)"><path class="c" d="M461.155,45.334a10.153,10.153,0,1,1-9.42-10.815A10.142,10.142,0,0,1,461.155,45.334Z" transform="translate(-440.873 -34.493)"/></g><g transform="translate(3.118 2.777)"><path class="ak" d="M461.114,44.57a5.984,5.984,0,0,1-.182-1.237,10.777,10.777,0,0,0-.951-3.186,10.424,10.424,0,0,0-1.212-1.935,10.167,10.167,0,0,0-1.877-1.812,9.953,9.953,0,0,0-2.528-1.363,9.809,9.809,0,0,0-1.465-.409,9.932,9.932,0,0,0-3.122-.121,9.912,9.912,0,0,0-1.493.3,9.959,9.959,0,0,0-2.626,1.165,10.154,10.154,0,0,0-2.01,1.662,10.415,10.415,0,0,0-1.357,1.835,10.786,10.786,0,0,0-1.192,3.1,5.958,5.958,0,0,1-.277,1.218,2.983,2.983,0,0,1-.022-1.267,9.389,9.389,0,0,1,1.008-3.317,10.171,10.171,0,0,1,3.461-3.836,9.827,9.827,0,0,1,1.324-.739,9.949,9.949,0,0,1,1.482-.556,10.358,10.358,0,0,1,1.609-.331,10.388,10.388,0,0,1,3.367.13,10.439,10.439,0,0,1,1.579.453,10.367,10.367,0,0,1,2.7,1.508,10.174,10.174,0,0,1,3.156,4.091,9.4,9.4,0,0,1,.751,3.386A2.978,2.978,0,0,1,461.114,44.57Z" transform="translate(-440.76 -33.662)"/></g></g><g transform="translate(8.612 6.272)"><path class="ak" d="M458.045,54.344l-.1,1.766-1.577-.088.1-1.719a7.486,7.486,0,0,1-3.856-1.479l.974-1.876a6.383,6.383,0,0,0,3,1.29l.146-2.634c-1.726-.522-3.649-1.215-3.524-3.469.093-1.671,1.387-3.038,3.894-3.183l.1-1.751,1.577.088-.1,1.719a7.138,7.138,0,0,1,3.147,1.14l-.9,1.9a6.483,6.483,0,0,0-2.367-.955l-.149,2.681c1.727.507,3.618,1.2,3.495,3.42C461.814,52.83,460.537,54.182,458.045,54.344Zm-1.189-7.057.124-2.239c-.846.143-1.2.582-1.231,1.1C455.718,46.7,456.174,47.028,456.856,47.287Zm2.5,3.951c.031-.552-.41-.877-1.075-1.152l-.121,2.176C458.959,52.133,459.328,51.743,459.357,51.238Z" transform="translate(-452.61 -41.201)"/></g></g><g transform="translate(165.019 173.162)"><path class="c" d="M632.641,105.5,613.581,96.22a2.653,2.653,0,0,1-1.224-3.546L625.2,66.291a2.653,2.653,0,0,1,3.546-1.224l12.089,5.887,4.66,14.2-9.312,19.124A2.653,2.653,0,0,1,632.641,105.5Z" transform="translate(-612.088 -64.798)"/><g transform="translate(24.886 6.155)"><path class="ak" d="M669.634,78.075,666.018,85.5a2.467,2.467,0,0,0,1.138,3.3l7.139,3.478Z" transform="translate(-665.768 -78.075)"/></g><g transform="translate(14.865 8.198)"><path class="j" d="M652.973,86.783a31.4,31.4,0,0,1-4.494-1.974,31.526,31.526,0,0,1-4.325-2.32,62.7,62.7,0,0,1,8.819,4.294Z" transform="translate(-644.153 -82.482)"/></g><g transform="translate(12.821 12.398)"><path class="j" d="M654.258,98.615c-.047.1-3.334-1.409-7.341-3.361s-7.219-3.611-7.173-3.707,3.333,1.409,7.341,3.361S654.3,98.519,654.258,98.615Z" transform="translate(-639.744 -91.543)"/></g><g transform="translate(11.114 15.904)"><path class="j" d="M651.883,106.814c-.047.1-3.626-1.552-7.994-3.679s-7.873-3.93-7.827-4.025,3.625,1.552,8,3.68S651.93,106.719,651.883,106.814Z" transform="translate(-636.062 -99.106)"/></g><g transform="translate(9.503 19.212)"><path class="j" d="M648.409,113.949c-.046.1-3.626-1.552-7.994-3.679s-7.873-3.93-7.826-4.025,3.625,1.552,7.995,3.68S648.456,113.853,648.409,113.949Z" transform="translate(-632.588 -106.24)"/></g><g transform="translate(7.892 22.52)"><path class="j" d="M644.934,121.083c-.046.1-3.626-1.552-7.994-3.679s-7.873-3.93-7.827-4.025,3.625,1.552,8,3.68S644.981,120.988,644.934,121.083Z" transform="translate(-629.113 -113.375)"/></g><g transform="translate(6.282 25.827)"><path class="j" d="M641.46,128.218c-.046.1-3.626-1.552-7.994-3.679s-7.873-3.93-7.827-4.025,3.625,1.552,7.995,3.68S641.507,128.122,641.46,128.218Z" transform="translate(-625.639 -120.509)"/></g></g><g transform="translate(75.495 142.618)"><g transform="translate(0.018 1.151)"><path class="ak" d="M146.167,170.984a2.122,2.122,0,0,1-1.592-2.544l4.14-17.977a1.76,1.76,0,0,1,2.15-1.249l1.691.389a1.826,1.826,0,0,0,1.827-.592l.533-.654a1.827,1.827,0,0,1,1.827-.592l8.024,1.848a1.84,1.84,0,0,1,1.335,1.164l.25.715a1.843,1.843,0,0,0,1.335,1.165l10.229,2.355a1.761,1.761,0,0,1,1.387,2.064l-4.234,18.386a2.122,2.122,0,0,1-2.544,1.592Z" transform="translate(-144.521 -147.716)"/></g><path class="c" d="M166.613,151.1l-6.5-1.513-.331-1.221a2.3,2.3,0,0,0-1.724-1.609l-6.36-1.464a2.04,2.04,0,0,0-2.492,1.447l-.171.742-4.5,19.52a2.318,2.318,0,0,0,1.827,2.718l25.837,5.951a2.318,2.318,0,0,0,2.831-1.645l4.246-18.44a1.528,1.528,0,0,0-1.146-1.833Z" transform="translate(-144.481 -145.232)"/><g transform="translate(9.468 10.933)"><g transform="translate(0)"><rect class="j" width="15.779" height="6.639" transform="translate(1.49 0) rotate(12.969)"/></g></g><g transform="translate(12.745 14.343)"><path class="ak" d="M182.538,178.609c-.013.057-2.389-.441-5.306-1.113s-5.272-1.263-5.259-1.32,2.389.441,5.307,1.114S182.552,178.552,182.538,178.609Z" transform="translate(-171.973 -176.171)"/></g><g transform="translate(12.427 15.721)"><path class="ak" d="M181.854,181.582c-.013.057-2.389-.441-5.307-1.113s-5.272-1.263-5.259-1.32,2.389.441,5.307,1.113S181.867,181.525,181.854,181.582Z" transform="translate(-171.288 -179.144)"/></g></g></g></g></svg>