<svg xmlns="http://www.w3.org/2000/svg" xmlns:xlink="http://www.w3.org/1999/xlink" width="62.628" height="62.627" viewBox="0 0 62.628 62.627"><defs><style>.a{fill:#fff;}.b{fill:url(#a);}.c{fill:#eceef0;}.d{fill:none;stroke:#6595bf;stroke-miterlimit:10;stroke-width:4px;}.e{fill:#12263f;}</style><radialGradient id="a" cx="0.076" cy="0.019" r="1.465" gradientTransform="translate(0.001)" gradientUnits="objectBoundingBox"><stop offset="0" stop-color="#f6f6f7"/><stop offset="0.477" stop-color="#f9f9fa"/><stop offset="0.715" stop-color="#fff"/></radialGradient></defs><g transform="translate(8039 7150)"><g transform="translate(-40 152)"><g transform="translate(-7999 -7302)"><path class="a" d="M257.25,2177.034a31.314,31.314,0,1,1-31.313-31.313A31.313,31.313,0,0,1,257.25,2177.034Z" transform="translate(-194.623 -2145.721)"/></g><path class="b" d="M257.3,2177.093a31.313,31.313,0,1,0-31.313,31.314A31.189,31.189,0,0,0,257.3,2177.093Z" transform="translate(-8193.677 -9447.78)"/><g transform="translate(-7993.453 -7284.42)"><path class="c" d="M254.459,2164.488a31.317,31.317,0,0,1-53.913,31.184,31.218,31.218,0,0,0,53.913-31.184Z" transform="translate(-200.545 -2164.488)"/></g></g><path class="d" d="M250.481,2177.69a23.9,23.9,0,1,0-23.9,23.9A23.813,23.813,0,0,0,250.481,2177.69Z" transform="translate(-8234.788 -9296.954)"/><path class="e" d="M5.815,18.271H8.145q2.769,0,2.769-2.71a2.343,2.343,0,0,0-.659-1.721,2.5,2.5,0,0,0-1.86-.667,2.676,2.676,0,0,0-1.707.571,1.743,1.743,0,0,0-.725,1.421H1.025a5.053,5.053,0,0,1,.938-3,6.191,6.191,0,0,1,2.6-2.058,8.89,8.89,0,0,1,3.655-.74,8.735,8.735,0,0,1,5.6,1.626,5.405,5.405,0,0,1,2.036,4.468,4.505,4.505,0,0,1-.842,2.6,6,6,0,0,1-2.454,1.985,5.734,5.734,0,0,1,2.666,1.868,4.919,4.919,0,0,1,.967,3.1,5.5,5.5,0,0,1-2.2,4.57,9.12,9.12,0,0,1-5.771,1.714,9.458,9.458,0,0,1-3.889-.8,6.093,6.093,0,0,1-2.717-2.212,5.751,5.751,0,0,1-.923-3.215H5.654a2.223,2.223,0,0,0,.791,1.7,2.793,2.793,0,0,0,1.948.718,2.925,2.925,0,0,0,2.08-.725,2.424,2.424,0,0,0,.776-1.853,2.833,2.833,0,0,0-.806-2.285,3.368,3.368,0,0,0-2.227-.674h-2.4Z" transform="translate(-8016.688 -7139.364)"/></g></svg>