<svg xmlns="http://www.w3.org/2000/svg" xmlns:xlink="http://www.w3.org/1999/xlink" width="62.627" height="62.627" viewBox="0 0 62.627 62.627"><defs><style>.a{fill:#fff;}.b{fill:url(#a);}.c{fill:#eceef0;}.d{fill:none;stroke:#6595bf;stroke-miterlimit:10;stroke-width:4px;}.e{fill:#12263f;}</style><radialGradient id="a" cx="0.076" cy="0.019" r="1.465" gradientTransform="translate(0.001)" gradientUnits="objectBoundingBox"><stop offset="0" stop-color="#f6f6f7"/><stop offset="0.477" stop-color="#f9f9fa"/><stop offset="0.715" stop-color="#fff"/></radialGradient></defs><g transform="translate(8041 7224)"><g transform="translate(-42 78)"><g transform="translate(-7999 -7302)"><path class="a" d="M257.25,2177.034a31.314,31.314,0,1,1-31.313-31.313A31.313,31.313,0,0,1,257.25,2177.034Z" transform="translate(-194.623 -2145.721)"/></g><path class="b" d="M257.3,2177.093a31.313,31.313,0,1,0-31.313,31.314A31.189,31.189,0,0,0,257.3,2177.093Z" transform="translate(-8193.677 -9447.78)"/><g transform="translate(-7993.453 -7284.42)"><path class="c" d="M254.459,2164.488a31.317,31.317,0,0,1-53.913,31.184,31.218,31.218,0,0,0,53.913-31.184Z" transform="translate(-200.545 -2164.488)"/></g></g><path class="d" d="M250.481,2177.69a23.9,23.9,0,1,0-23.9,23.9A23.813,23.813,0,0,0,250.481,2177.69Z" transform="translate(-8236.788 -9370.954)"/><path class="e" d="M16.187,31H1.3V27.777L8.159,20.57q2.534-2.886,2.534-4.585a3.189,3.189,0,0,0-.6-2.095,2.144,2.144,0,0,0-1.743-.718,2.171,2.171,0,0,0-1.831.959,3.943,3.943,0,0,0-.7,2.4H.864A7,7,0,0,1,1.846,12.9,6.882,6.882,0,0,1,4.57,10.3a8.094,8.094,0,0,1,3.9-.937,7.962,7.962,0,0,1,5.325,1.6,5.7,5.7,0,0,1,1.868,4.585A6.658,6.658,0,0,1,15.19,18a10.76,10.76,0,0,1-1.458,2.5,36.715,36.715,0,0,1-3.186,3.508L7.793,27.191h8.394Z" transform="translate(-8017.864 -7213.364)"/></g></svg>