<svg xmlns="http://www.w3.org/2000/svg" width="80" height="80" viewBox="0 0 80 80"><defs><style>.a{fill:#344154;}.b{fill:none;}</style></defs><g transform="translate(10047.655 6235.775)"><g transform="translate(-10954.465 -6741.4)"><path class="a" d="M965.3,580.94h-3.448c-.674-.119-1.352-.221-2.021-.361a18.41,18.41,0,0,1-11.353-7.337,1.3,1.3,0,0,0-1.187-.6q-16.757.024-33.514.011a2.059,2.059,0,0,1-2.264-2.262v-53.52a2.07,2.07,0,0,1,1.826-2.289,2.092,2.092,0,0,1,.481,0h10.243v-2.058a2.056,2.056,0,0,1,1.887-2.211c.049,0,.1-.006.147-.006a2.056,2.056,0,0,1,2.1,2.007c0,.072,0,.144-.007.216v2.013h8.282c0-.746-.011-1.454,0-2.162a2.04,2.04,0,0,1,2.006-2.073h.031a2.042,2.042,0,0,1,2.089,1.993c0,.032,0,.065,0,.1.011.706,0,1.413,0,2.144h8.282c0-.749-.011-1.458,0-2.166a2.039,2.039,0,0,1,2.01-2.067h.033a2.042,2.042,0,0,1,2.085,2c0,.032,0,.065,0,.1.011.706,0,1.412,0,2.136h8.281v-2.031a2.053,2.053,0,0,1,1.9-2.2c.05,0,.1-.005.149-.005a2.048,2.048,0,0,1,2.083,2.015c0,.052,0,.1,0,.155.007.682,0,1.366,0,2.105h10.059c1.761,0,2.493.74,2.493,2.519q0,16.414.017,32.829a2.133,2.133,0,0,0,.39,1.179,18.618,18.618,0,0,1,3.329,7.407q.2,1,.4,2v3.586c-.048.173-.1.343-.144.519a31.361,31.361,0,0,1-.865,3.668,18.32,18.32,0,0,1-13.279,12.111C967.007,580.624,966.15,580.764,965.3,580.94Zm-49.609-49.771v37.319h30.162l-.921-4.1c-.658,0-1.343.006-2.028,0a2.048,2.048,0,0,1-2.147-1.943c0-.03,0-.059,0-.088a2.048,2.048,0,0,1,1.995-2.1c.052,0,.1,0,.155,0,.685-.007,1.37,0,2.029,0l.924-4.147c-1.1,0-2.132.024-3.164-.007a2.024,2.024,0,0,1-1.94-1.956,1.985,1.985,0,0,1,1.74-2.132,42.361,42.361,0,0,1,4.754.016,1.007,1.007,0,0,0,1.091-.486,18.567,18.567,0,0,1,22.538-6.314c.995.436,1.943.98,2.942,1.489v-15.55Zm62.3,31.223A14.482,14.482,0,1,0,963.435,576.8a14.561,14.561,0,0,0,14.556-14.408Zm-4.183-35.414v-8.2h-8.369v1.848a2.058,2.058,0,0,1-1.873,2.226c-.071.006-.142.008-.213.007A2.055,2.055,0,0,1,961.3,520.8c0-.05,0-.1.005-.148,0-.632,0-1.266,0-1.875h-8.281v1.849a2.057,2.057,0,0,1-1.875,2.224c-.07.006-.141.008-.212.007a2.055,2.055,0,0,1-2.05-2.059c0-.049,0-.1.006-.148-.005-.632,0-1.266,0-1.9h-8.281v1.874a2.057,2.057,0,0,1-1.877,2.223c-.071.006-.142.008-.213.007a2.054,2.054,0,0,1-2.047-2.061c0-.049,0-.1.005-.148,0-.632,0-1.265,0-1.894H928.2v1.875a2.056,2.056,0,0,1-1.877,2.221,2,2,0,0,1-.219.007,2.055,2.055,0,0,1-2.046-2.063q0-.074.006-.147v-1.893h-8.377v8.221Z"/><path class="a" d="M928.2,539.549c-.71,0-1.421.017-2.131,0a2.038,2.038,0,0,1-2-2.074v-.022a2.026,2.026,0,0,1,2.006-2.022q2.13-.033,4.262,0a2.029,2.029,0,0,1,2,2.053v.044a2.035,2.035,0,0,1-2.005,2.023C929.613,539.565,928.907,539.549,928.2,539.549Z"/><path class="a" d="M944.858,539.551c-.688,0-1.375.013-2.063,0a2.036,2.036,0,0,1-2.039-2.034v-.025a2.028,2.028,0,0,1,1.992-2.064h.041q2.1-.03,4.192,0a2.029,2.029,0,0,1,2.04,2.018v.04a2.038,2.038,0,0,1-2.007,2.066h-.026C946.28,539.565,945.569,539.55,944.858,539.551Z"/><path class="a" d="M961.509,535.42c.687,0,1.375-.016,2.062,0a2.038,2.038,0,0,1,2,2.074v.022a2.026,2.026,0,0,1-2,2.027q-2.13.034-4.261,0a2.028,2.028,0,0,1-2-2.053v-.043a2.036,2.036,0,0,1,2-2.029C960.039,535.4,960.776,535.42,961.509,535.42Z"/><path class="a" d="M928.2,543.7c.711,0,1.421-.018,2.131,0a2.038,2.038,0,0,1,2,2.074v.022a2.025,2.025,0,0,1-2.005,2.021q-2.132.034-4.263,0a2.027,2.027,0,0,1-2-2.052v-.044a2.036,2.036,0,0,1,2.006-2.023C926.782,543.681,927.492,543.7,928.2,543.7Z"/><path class="a" d="M944.843,547.828c-.688,0-1.376.014-2.063,0a2.037,2.037,0,0,1-2.024-2.05v-.025a2.03,2.03,0,0,1,2.011-2.05h.038q2.1-.027,4.192,0a2.029,2.029,0,0,1,2.024,2.033v.04A2.038,2.038,0,0,1,947,547.827h-.024C946.263,547.841,945.553,547.829,944.843,547.828Z"/><path class="a" d="M928.2,556.1c-.711,0-1.421.016-2.131,0a2.036,2.036,0,0,1-2-2.074v-.022a2.025,2.025,0,0,1,2-2.025q2.13-.034,4.262,0a2.027,2.027,0,0,1,2,2.052v.044a2.035,2.035,0,0,1-2,2.027C929.622,556.12,928.911,556.1,928.2,556.1Z"/><path class="a" d="M928.133,564.381c-.686,0-1.375.016-2.062,0a2.038,2.038,0,0,1-2-2.074v-.022a2.026,2.026,0,0,1,2-2.028q2.13-.035,4.262,0a2.029,2.029,0,0,1,2,2.053v.039a2.035,2.035,0,0,1-2,2.029C929.6,564.4,928.867,564.381,928.133,564.381Z"/><path class="a" d="M965.577,560.25c2.142,0,4.185-.011,6.229,0a2.061,2.061,0,0,1,.537,4.05,2.546,2.546,0,0,1-.679.074q-4,.008-8,0a2.052,2.052,0,0,1-2.221-1.867,2.075,2.075,0,0,1,0-.37q-.008-3.966,0-7.932a2.055,2.055,0,0,1,1.863-2.229c.072-.006.145-.009.219-.008a2.062,2.062,0,0,1,2.06,2.062,2.085,2.085,0,0,1-.011.209C965.58,556.218,965.577,558.193,965.577,560.25Z"/></g><rect class="b" width="80" height="80" transform="translate(-10047.655 -6235.775)"/></g></svg>