<svg xmlns="http://www.w3.org/2000/svg" width="80" height="80" viewBox="0 0 80 80"><defs><style>.a{fill:#344154;}.b{fill:none;}</style></defs><g transform="translate(10298.832 6272)"><g transform="translate(-10954.465 -6741.4)"><path class="a" d="M682.821,500.024c-.134-.28-.223-.447-.295-.62q-2.337-5.643-4.68-11.282a2.631,2.631,0,0,0-.609-.938c-.858-.766-1.856-.548-2.705.563q-9.141,11.959-18.267,23.928a4.2,4.2,0,0,0-.442.683,1.645,1.645,0,0,0,1.417,2.412c.9.061,1.366-.54,1.833-1.154q7.935-10.418,15.871-20.832c.22-.289.447-.572.741-.947.317.749.583,1.371.839,1.992q2.066,5.005,4.129,10.013c.477,1.153,1.166,1.7,2.058,1.415a2.962,2.962,0,0,0,1.407-1.1q7.728-11.313,15.4-22.672c.172-.255.356-.5.606-.853l.587,2.285q.987,3.865,1.973,7.731a1.8,1.8,0,0,0,1.454,1.566c1.39.218,2.243-.9,1.848-2.449q-1.8-7.062-3.619-14.116c-.417-1.615-1.117-2-2.761-1.586l-9.39,2.385c-1.63.416-3.265.823-4.885,1.272a1.684,1.684,0,0,0-1.119,2.644,1.726,1.726,0,0,0,2.024.63q5.32-1.371,10.651-2.712c.19-.047.387-.063.739-.119Z"/><path class="a" d="M735.631,536.161c-1.169,3.7-4.265,5.145-7.521,6.365a38.231,38.231,0,0,1-10.02,2.08,54.981,54.981,0,0,1-17.98-1.11,20.756,20.756,0,0,1-8.628-3.846,6.036,6.036,0,0,1-2.353-4.882q.016-15.1,0-30.2c0-2.6,1.363-4.327,3.394-5.668a24.71,24.71,0,0,1,8.937-3.368,56.729,56.729,0,0,1,17.278-.721,37.492,37.492,0,0,1,10.739,2.529,10.71,10.71,0,0,1,5.364,4.07,14.764,14.764,0,0,1,.791,1.765Zm-23.266-38.312a43.314,43.314,0,0,0-14.036,2.073,19.33,19.33,0,0,0-4.48,2.243c-1.751,1.2-1.746,2.593.015,3.769a20.346,20.346,0,0,0,4.64,2.291,42.731,42.731,0,0,0,14.129,2,44.291,44.291,0,0,0,13.727-2,13.276,13.276,0,0,0,4.826-2.468c1.384-1.225,1.371-2.251-.014-3.463a13.281,13.281,0,0,0-4.68-2.4A45.307,45.307,0,0,0,712.365,497.849Zm19.847,11.532c-6.283,3.441-13.018,4.24-19.893,4.23s-13.571-.892-19.792-4.32c0,1.605.033,3.073-.011,4.539a2.862,2.862,0,0,0,1.126,2.409,14.316,14.316,0,0,0,4.845,2.436,41.738,41.738,0,0,0,10.888,1.888,45.4,45.4,0,0,0,17.378-2.072,19.9,19.9,0,0,0,4.359-2.316,2.721,2.721,0,0,0,1.047-1.81c.151-1.618.052-3.259.052-4.984ZM692.527,519.7c0,1.613.024,3.127-.009,4.639a2.589,2.589,0,0,0,.956,2.152,9.972,9.972,0,0,0,1.587,1.136,27.487,27.487,0,0,0,9.134,2.822,52.372,52.372,0,0,0,13.579.351,36.255,36.255,0,0,0,8.906-1.859,27.107,27.107,0,0,0,4.441-2.338,2.174,2.174,0,0,0,1-1.415c.121-1.765.047-3.543.047-5.366-6.226,3.422-12.943,4.217-19.783,4.215-6.869,0-13.6-.871-19.854-4.332ZM732.2,530.207c-6.274,3.485-13.005,4.254-19.838,4.252-6.861,0-13.6-.87-19.838-4.334a32.609,32.609,0,0,1-.025,3.726c-.234,1.993.74,3.191,2.337,4.076.427.236.861.466,1.307.663a37.579,37.579,0,0,0,13.721,2.823,45.913,45.913,0,0,0,16.581-1.971,12.031,12.031,0,0,0,4.733-2.461,2.916,2.916,0,0,0,.977-1.613c.128-1.675.045-3.358.045-5.161Z"/><path class="a" d="M682.821,500.024l14.8-21.857c-.352.055-.548.07-.738.119-3.552.9-7.1,1.793-10.652,2.711a1.725,1.725,0,0,1-2.024-.63,1.683,1.683,0,0,1,1.119-2.643c1.62-.453,3.255-.856,4.885-1.272q4.694-1.2,9.39-2.385c1.646-.418,2.344-.03,2.761,1.585q1.823,7.055,3.62,14.116c.4,1.554-.457,2.668-1.849,2.449a1.8,1.8,0,0,1-1.453-1.566q-.993-3.864-1.973-7.73c-.183-.709-.366-1.417-.588-2.286-.249.35-.433.6-.606.853q-7.689,11.336-15.395,22.672a2.959,2.959,0,0,1-1.407,1.1c-.893.287-1.581-.262-2.058-1.416q-2.07-5-4.128-10.013c-.257-.622-.523-1.242-.839-1.992-.294.375-.521.658-.742.947q-7.937,10.416-15.87,20.832c-.468.614-.93,1.215-1.834,1.155a1.645,1.645,0,0,1-1.417-2.413,4.239,4.239,0,0,1,.442-.683q9.131-11.967,18.268-23.928c.849-1.111,1.847-1.328,2.7-.562a2.613,2.613,0,0,1,.609.937q2.355,5.636,4.681,11.282C682.6,499.577,682.687,499.745,682.821,500.024Z"/><path class="a" d="M716.936,501.479a8.04,8.04,0,0,1-1.94.143,7.164,7.164,0,0,1-1.731-.8v2.155c.541.119,1.124.212,1.687.378a7.389,7.389,0,0,1,1.662.629,1.629,1.629,0,0,1,.209,2.84,14.345,14.345,0,0,1-3.047,1.215,2.372,2.372,0,0,1-.517.063l-.163,1.049H711.65c.183-.914-.3-1.107-1.06-1.177a3.953,3.953,0,0,1-2.858-1.377,5.286,5.286,0,0,1-.457-.814,3.552,3.552,0,0,1,4.183,1.082l.115-.235v-2.272a12.113,12.113,0,0,1-1.537-.383,6.4,6.4,0,0,1-1.724-.866,1.554,1.554,0,0,1,.109-2.623,10.769,10.769,0,0,1,2.329-.878c.353-.118.766.038.985-.518.063-.16.945-.055,1.432.034.315.058.579.352.892.464a14.326,14.326,0,0,1,1.847.59,6.279,6.279,0,0,1,1.2,1.08Zm-3.671,3.216v2.048c1.082-.118,1.646-.5,1.646-1.067s-.594-.917-1.647-.98Zm-1.657-3.931c-.62.176-1.332.3-1.24.969.054.395.679.712,1.048,1.064l.191-.175Z"/></g><rect class="b" width="80" height="80" transform="translate(-10298.832 -6272)"/></g></svg>