<svg xmlns="http://www.w3.org/2000/svg" xmlns:xlink="http://www.w3.org/1999/xlink" width="87.713" height="87.713" viewBox="0 0 87.713 87.713"><defs><style>.a{fill:#fff;}.b{fill:url(#a);}.c{fill:none;stroke:#6595bf;stroke-miterlimit:10;stroke-width:4px;}.d{fill:#eceef0;}.e{fill:#344154;}</style><radialGradient id="a" cx="0.076" cy="0.019" r="1.465" gradientTransform="translate(0.001)" gradientUnits="objectBoundingBox"><stop offset="0" stop-color="#f6f6f7"/><stop offset="0.477" stop-color="#f9f9fa"/><stop offset="0.715" stop-color="#fff"/></radialGradient></defs><g transform="translate(-217 -741.333)"><g transform="translate(217 741.333)"><g transform="translate(0 0)"><path class="a" d="M282.336,2189.576a43.857,43.857,0,1,1-43.856-43.855A43.856,43.856,0,0,1,282.336,2189.576Z" transform="translate(-194.623 -2145.721)"/><path class="b" d="M282.07,2189.286a43.856,43.856,0,1,0-43.856,43.858A43.683,43.683,0,0,0,282.07,2189.286Z" transform="translate(-194.357 -2145.431)"/><path class="c" d="M269.385,2187a33.476,33.476,0,1,0-33.476,33.475A33.351,33.351,0,0,0,269.385,2187Z" transform="translate(-191.92 -2142.996)"/><g transform="translate(7.77 24.622)"><path class="d" d="M276.054,2164.488a43.862,43.862,0,0,1-75.509,43.675,43.723,43.723,0,0,0,75.509-43.675Z" transform="translate(-200.545 -2164.488)"/></g></g></g><g transform="translate(239.49 770.987)"><path class="e" d="M286.36,277.624c-.055,0-.108,0-.161,0a4.368,4.368,0,0,1-4.455-3.161H265.687a.7.7,0,0,1-.7-.7v-3.975a.7.7,0,1,1,1.391,0v3.28H282.3a.7.7,0,0,1,.687.585,3.01,3.01,0,0,0,3.172,2.576h.074a3,3,0,0,0,3.171-2.576.7.7,0,0,1,.687-.585h15.921v-3.28a.7.7,0,1,1,1.392,0v3.975a.7.7,0,0,1-.7.7H290.656A4.359,4.359,0,0,1,286.36,277.624Z" transform="translate(-263.879 -245.4)"/><path class="e" d="M311.359,249.692h-4.95a.7.7,0,0,1-.7-.7v-3.459a.7.7,0,0,1,.7-.7h4.95a.7.7,0,0,1,.7.7V249A.7.7,0,0,1,311.359,249.692ZM307.1,248.3h3.559v-2.068H307.1Z" transform="translate(-270.89 -241.224)"/><path class="e" d="M311.359,257.471h-4.95a.7.7,0,0,1-.7-.7v-3.459a.7.7,0,0,1,.7-.7h4.95a.7.7,0,0,1,.7.7v3.459A.7.7,0,0,1,311.359,257.471ZM307.1,256.08h3.559v-2.067H307.1Z" transform="translate(-270.89 -242.564)"/><path class="e" d="M311.359,265.25h-4.95a.7.7,0,0,1-.7-.7V261.1a.7.7,0,0,1,.7-.7h4.95a.7.7,0,0,1,.7.7v3.459A.7.7,0,0,1,311.359,265.25Zm-4.254-1.392h3.559v-2.066H307.1Z" transform="translate(-270.89 -243.903)"/><path class="e" d="M301.612,248.322h-6.56a.7.7,0,1,1,0-1.391h6.56a.7.7,0,1,1,0,1.391Z" transform="translate(-268.935 -241.584)"/><path class="e" d="M301.612,256.389h-6.56a.7.7,0,0,1,0-1.392h6.56a.7.7,0,0,1,0,1.392Z" transform="translate(-268.935 -242.973)"/><path class="e" d="M301.612,263.881h-6.56a.7.7,0,0,1,0-1.392h6.56a.7.7,0,0,1,0,1.392Z" transform="translate(-268.935 -244.263)"/><path class="e" d="M273.494,249.692h-4.949a.7.7,0,0,1-.7-.7v-3.459a.7.7,0,0,1,.7-.7h4.949a.7.7,0,0,1,.7.7V249A.7.7,0,0,1,273.494,249.692Zm-4.253-1.392H272.8v-2.068h-3.557Z" transform="translate(-264.371 -241.224)"/><path class="e" d="M273.494,257.471h-4.949a.7.7,0,0,1-.7-.7v-3.459a.7.7,0,0,1,.7-.7h4.949a.7.7,0,0,1,.7.7v3.459A.7.7,0,0,1,273.494,257.471Zm-4.253-1.392H272.8v-2.067h-3.557Z" transform="translate(-264.371 -242.564)"/><path class="e" d="M273.494,265.25h-4.949a.7.7,0,0,1-.7-.7V261.1a.7.7,0,0,1,.7-.7h4.949a.7.7,0,0,1,.7.7v3.459A.7.7,0,0,1,273.494,265.25Zm-4.253-1.392H272.8v-2.066h-3.557Z" transform="translate(-264.371 -243.903)"/><path class="e" d="M284.516,248.322h-6.56a.7.7,0,1,1,0-1.391h6.56a.7.7,0,1,1,0,1.391Z" transform="translate(-265.991 -241.584)"/><path class="e" d="M284.516,256.389h-6.56a.7.7,0,0,1,0-1.392h6.56a.7.7,0,1,1,0,1.392Z" transform="translate(-265.991 -242.973)"/><path class="e" d="M284.516,263.881h-6.56a.7.7,0,0,1,0-1.392h6.56a.7.7,0,1,1,0,1.392Z" transform="translate(-265.991 -244.263)"/><path class="e" d="M290.466,269.531a.7.7,0,0,1-.7-.7V245.143a4.676,4.676,0,0,1,4.671-4.671h17.651a.7.7,0,0,1,.7.7V264.86a.7.7,0,0,1-.7.7H294.441a3.283,3.283,0,0,0-3.279,3.28A.7.7,0,0,1,290.466,269.531Zm3.975-27.669a3.284,3.284,0,0,0-3.279,3.281v20.368a4.659,4.659,0,0,1,3.279-1.348H311.4v-22.3Z" transform="translate(-268.145 -240.472)"/><path class="e" d="M285.968,269.531a.7.7,0,0,1-.7-.7,3.283,3.283,0,0,0-3.28-3.28H264.342a.7.7,0,0,1-.7-.7V241.167a.7.7,0,0,1,.7-.7h17.651a4.676,4.676,0,0,1,4.671,4.671v23.692A.7.7,0,0,1,285.968,269.531Zm-20.93-5.368h16.954a4.661,4.661,0,0,1,3.28,1.348V245.143a3.284,3.284,0,0,0-3.28-3.281H265.039Z" transform="translate(-263.647 -240.472)"/></g></g></svg>