<svg xmlns="http://www.w3.org/2000/svg" width="229.832" height="199.211" viewBox="0 0 229.832 199.211"><defs><style>.a{fill:#d9a171;}.b{fill:#344154;}.c,.p{fill:none;}.d{fill:#263238;}.e{fill:#e0e0e0;}.f{fill:#f5f5f5;}.g{fill:#fafafa;}.h{fill:#ebebeb;}.i{fill:#5e6178;}.j{fill:#f2e9e4;}.k{opacity:0.2;}.l{fill:#fff;}.m{opacity:0.3;}.n{fill:#12263f;font-size:5px;font-family:Roboto-Bold, Roboto;font-weight:700;}.o{fill:#afafaf;}.p{stroke:#fbfbfb;stroke-miterlimit:10;}.q{fill:#455a64;}.r{fill:#ffbe9d;}.s{fill:#eb996e;}.t{fill:#6595bf;}.u{opacity:0.6;}.v{fill:#e6e6e6;}.w{fill:#aed3f2;}.x{fill:#ececec;}.y{fill:#e1e1e1;}</style></defs><g transform="translate(-245.163 -1614.189)"><g transform="translate(245.163 1679.374)"><g transform="translate(5.31)"><g transform="translate(0.381 0.136)"><path class="a" d="M129.4,196.277a22.113,22.113,0,0,1,5.676,1.5l4.172-3.5,7.166,5.454-2.258,4.953a22.02,22.02,0,0,1,2.957,5.071l5.421.479,1.21,8.923-5.1,1.906a22.05,22.05,0,0,1-1.5,5.676l3.5,4.173-5.453,7.165-4.953-2.257a22.069,22.069,0,0,1-5.072,2.956l-.477,5.421-8.924,1.212-1.906-5.1a22.073,22.073,0,0,1-5.676-1.5l-4.172,3.5-7.166-5.454L109.1,231.9a22.129,22.129,0,0,1-2.957-5.072l-5.419-.477-1.212-8.924,5.1-1.9a21.943,21.943,0,0,1,1.5-5.678l-3.5-4.172,5.453-7.166,4.954,2.258a22.1,22.1,0,0,1,5.072-2.957l.476-5.419,8.924-1.211,1.906,5.1Zm-3.664,12.39a9.661,9.661,0,1,0,10.872,8.274A9.661,9.661,0,0,0,125.738,208.667Z" transform="translate(-99.516 -191.181)"/></g><g transform="translate(17.923 17.42)"><path class="b" d="M120.688,203.691a1.872,1.872,0,0,1,.608-.131,7.525,7.525,0,0,1,1.786-.038,9.615,9.615,0,0,1,5.923,2.723,9.936,9.936,0,0,1-.049,14.235,9.959,9.959,0,0,1-11.764,1.6,9.939,9.939,0,0,1-3.841-13.71,9.61,9.61,0,0,1,4.982-4.2,7.511,7.511,0,0,1,1.732-.44,1.908,1.908,0,0,1,.622-.036c.015.083-.845.167-2.24.758a9.634,9.634,0,0,0-4.617,4.19,9.4,9.4,0,0,0-.074,8.938,9.215,9.215,0,0,0,3.8,3.828,9.259,9.259,0,0,0,10.868-1.475,9.2,9.2,0,0,0,2.643-4.7,9.4,9.4,0,0,0-2.453-8.6,9.637,9.637,0,0,0-5.567-2.81C121.547,203.627,120.695,203.775,120.688,203.691Z" transform="translate(-112.008 -203.489)"/></g><path class="b" d="M129.512,196.316a1.435,1.435,0,0,1-.143-.3l-.389-.952-1.49-3.8.133.08-8.914,1.282.171-.178c-.136,1.646-.286,3.47-.447,5.423l-.011.136-.129.055a21.947,21.947,0,0,0-5,2.948l-.122.1-.142-.065-4.963-2.237.336-.086-5.429,7.183-.01-.382,3.508,4.162.126.149-.074.181a21.78,21.78,0,0,0-1.465,5.595l-.024.2-.192.072L99.748,217.8l.223-.372c.385,2.8.8,5.825,1.226,8.921l-.327-.313,5.419.47.223.02.087.208a21.89,21.89,0,0,0,2.913,4.982l.14.18-.094.208c-.706,1.553-1.477,3.245-2.255,4.956l-.115-.462,7.169,5.449-.483.013,4.171-3.5.181-.152.218.09a21.765,21.765,0,0,0,5.571,1.472h0l.319.251v0l0,.011.007.02.015.039.029.08.06.162.119.32.239.642.479,1.278.948,2.54-.417-.249,8.926-1.208-.333.348q.242-2.736.48-5.421l.021-.23.213-.088a21.753,21.753,0,0,0,4.988-2.9l.181-.14.206.1,4.952,2.262-.451.114q2.8-3.665,5.464-7.158l.01.448q-1.776-2.128-3.488-4.179l-.136-.163.081-.2a21.754,21.754,0,0,0,1.487-5.585l.027-.2.191-.07,5.1-1.893-.208.347c-.417-3.14-.81-6.1-1.184-8.927l.268.257-5.418-.5-.17-.015-.065-.156a21.831,21.831,0,0,0-2.9-5.022l-.1-.125.065-.139c.829-1.795,1.576-3.412,2.281-4.942l.07.278c-2.759-2.126-5.113-3.94-7.132-5.5l.219-.006-4.2,3.459-.059.049-.069-.03a23.334,23.334,0,0,0-4.2-1.323l-1.071-.212a1.524,1.524,0,0,1-.354-.08,2.024,2.024,0,0,1,.364.015c.24.025.6.067,1.086.15a21.033,21.033,0,0,1,4.275,1.218l-.128.02,4.14-3.535.105-.09.112.086c2.039,1.531,4.415,3.317,7.2,5.409l.146.11-.076.17c-.691,1.536-1.423,3.161-2.234,4.963l-.031-.263a22.3,22.3,0,0,1,3.014,5.121l-.233-.171,5.422.459.237.02.032.237c.39,2.821.8,5.783,1.236,8.92l.035.257-.243.091-5.092,1.917.216-.274a22.379,22.379,0,0,1-1.511,5.767l-.055-.357,3.5,4.165.185.219-.174.229-5.443,7.173-.18.237-.271-.124-4.956-2.252.389-.045a22.452,22.452,0,0,1-5.158,3.012l.235-.32q-.234,2.684-.473,5.421l-.027.308-.306.042-8.924,1.213-.308.042-.11-.291q-.474-1.266-.949-2.542l-.479-1.278-.239-.64-.121-.322-.059-.16-.031-.08-.014-.041-.008-.02,0-.01,0-.006c.633.5.176.139.316.25h0a22.492,22.492,0,0,1-5.77-1.525l.4-.062-4.174,3.5-.237.2-.246-.187-7.163-5.459-.243-.185.126-.278c.781-1.709,1.555-3.4,2.264-4.95l.045.388a22.563,22.563,0,0,1-3-5.161l.309.226-5.419-.485-.289-.027-.038-.286c-.416-3.1-.82-6.123-1.2-8.927l-.037-.275.26-.1,5.1-1.893-.216.272a22.362,22.362,0,0,1,1.536-5.758l.051.33-3.485-4.182-.157-.19.149-.194q2.882-3.762,5.477-7.148l.135-.178.2.093c1.736.8,3.4,1.569,4.945,2.278l-.263.031a22.364,22.364,0,0,1,5.141-2.966l-.14.191c.184-1.951.354-3.775.508-5.416l.015-.159.156-.021,8.933-1.137.1-.013.032.093,1.35,3.8c.139.409.25.734.338.992A2.016,2.016,0,0,1,129.512,196.316Z" transform="translate(-99.245 -191.084)"/></g><g transform="translate(0 62.164)"><g transform="translate(0.239 0.086)"><path class="c" d="M114.4,238.612a13.914,13.914,0,0,1,3.564.941l2.62-2.195,4.5,3.425-1.417,3.11a13.91,13.91,0,0,1,1.858,3.185l3.4.3.76,5.6-3.2,1.2a13.869,13.869,0,0,1-.942,3.566l2.2,2.62-3.425,4.5-3.11-1.418a13.872,13.872,0,0,1-3.186,1.858l-.3,3.4-5.606.761-1.2-3.2a13.874,13.874,0,0,1-3.565-.941l-2.62,2.195-4.5-3.425,1.418-3.111A13.966,13.966,0,0,1,99.8,257.8l-3.4-.3-.761-5.6,3.2-1.2a13.883,13.883,0,0,1,.942-3.566l-2.2-2.62,3.425-4.5,3.112,1.418a13.8,13.8,0,0,1,3.185-1.858l.3-3.4,5.6-.76,1.2,3.2Zm-2.3,7.781a6.068,6.068,0,1,0,6.828,5.2A6.07,6.07,0,0,0,112.1,246.394Z" transform="translate(-95.634 -235.412)"/></g><g transform="translate(11.256 10.94)"><path class="d" d="M108.93,243.268a1.181,1.181,0,0,1,.382-.081,4.681,4.681,0,0,1,1.122-.024,6.039,6.039,0,0,1,3.72,1.709,6.242,6.242,0,0,1-.031,8.941,6.252,6.252,0,0,1-7.388,1,6.241,6.241,0,0,1-2.413-8.61,6.037,6.037,0,0,1,3.13-2.639,4.638,4.638,0,0,1,1.087-.275,1.165,1.165,0,0,1,.39-.024c.01.052-.531.105-1.407.476a6.045,6.045,0,0,0-2.9,2.633,5.9,5.9,0,0,0-.048,5.613,5.789,5.789,0,0,0,2.387,2.4,5.817,5.817,0,0,0,6.826-.927,5.8,5.8,0,0,0,1.66-2.953,5.9,5.9,0,0,0-1.542-5.4,6.047,6.047,0,0,0-3.5-1.765C109.471,243.228,108.935,243.322,108.93,243.268Z" transform="translate(-103.479 -243.142)"/></g><path class="d" d="M114.473,238.637a.877.877,0,0,1-.091-.191l-.243-.6q-.335-.849-.937-2.386l.084.05-5.6.806.108-.112c-.086,1.034-.18,2.179-.281,3.405l-.007.086-.081.035a13.8,13.8,0,0,0-3.141,1.851l-.076.06-.09-.041L101,240.2l.211-.053c-1.074,1.421-2.213,2.929-3.41,4.511l-.006-.24c.681.81,1.432,1.7,2.2,2.615l.079.093-.048.115a13.669,13.669,0,0,0-.918,3.514l-.015.126-.121.045-3.2,1.2.139-.235c.243,1.76.5,3.658.771,5.6l-.206-.2,3.4.3.14.011.053.131a13.756,13.756,0,0,0,1.83,3.129l.088.114-.059.131-1.416,3.112-.073-.291,4.5,3.422-.3.007,2.619-2.2.114-.1.138.058a13.659,13.659,0,0,0,3.5.924h0c.088.07-.2-.157.2.157v0l0,.007,0,.013.01.025.018.051.038.1.074.2.15.4.3.8c.2.534.4,1.067.6,1.6l-.261-.157,5.6-.758-.208.219q.152-1.719.3-3.4l.014-.146.133-.055a13.625,13.625,0,0,0,3.133-1.823l.114-.089.131.06,3.109,1.421-.284.07q1.759-2.3,3.432-4.5l.006.282-2.191-2.625-.086-.1.051-.122a13.653,13.653,0,0,0,.935-3.508l.015-.128.121-.045,3.2-1.188-.131.218c-.261-1.972-.508-3.834-.744-5.606l.17.162-3.4-.312-.107-.01-.041-.1a13.749,13.749,0,0,0-1.823-3.154l-.059-.077.039-.088c.521-1.126.99-2.143,1.434-3.1l.044.176c-1.733-1.336-3.21-2.476-4.48-3.453l.138,0-2.64,2.171-.038.031-.044-.018a14.538,14.538,0,0,0-2.639-.83l-.673-.133a.879.879,0,0,1-.222-.051,1.268,1.268,0,0,1,.228.01c.152.016.379.042.682.094a13.25,13.25,0,0,1,2.684.764l-.08.013,2.6-2.219.067-.056.07.053,4.522,3.4.091.069-.048.107-1.4,3.116-.02-.164a14.008,14.008,0,0,1,1.893,3.216l-.146-.107,3.4.288.149.013.021.149c.246,1.771.5,3.632.777,5.6l.021.161-.152.058-3.2,1.2.136-.171a14,14,0,0,1-.949,3.622l-.034-.225,2.2,2.616.115.138-.11.145-3.418,4.505-.112.147-.17-.077-3.112-1.414.243-.028a14.11,14.11,0,0,1-3.238,1.892l.146-.2q-.145,1.685-.3,3.4l-.017.192-.192.027-5.6.763-.194.027-.069-.183c-.2-.531-.4-1.062-.6-1.6l-.3-.8-.15-.4-.076-.2-.038-.1-.018-.051-.01-.025,0-.013,0-.006v0c.4.314.11.087.2.157h0a14.116,14.116,0,0,1-3.624-.958l.25-.039-2.622,2.2-.149.125-.154-.118-4.5-3.428-.153-.117.079-.174c.491-1.073.977-2.136,1.423-3.109l.028.243a14.091,14.091,0,0,1-1.885-3.241l.194.143-3.4-.3-.183-.017-.024-.18c-.261-1.946-.515-3.845-.751-5.606l-.022-.174.163-.06,3.2-1.189-.136.173a14.093,14.093,0,0,1,.965-3.617l.032.208L97.5,244.664l-.1-.119.093-.122q1.809-2.361,3.439-4.488l.086-.112.126.059,3.1,1.43-.166.02a14,14,0,0,1,3.23-1.862l-.088.119.319-3.4.01-.1.1-.013,5.61-.713.063-.008.02.058q.548,1.538.848,2.384l.212.622A1.326,1.326,0,0,1,114.473,238.637Z" transform="translate(-95.464 -235.351)"/></g></g><g transform="translate(217.745 1581.115)"><g transform="translate(45.255 37.629)"><g transform="translate(119.118 61.081)"><g transform="translate(24.679)"><rect class="e" width="45.98" height="133.459" transform="translate(45.98 133.459) rotate(180)"/></g><rect class="f" width="50.342" height="133.459" transform="translate(50.342 133.459) rotate(180)"/><g transform="translate(2.121 100.481)"><g transform="translate(14.375 0.078)"><path class="e" d="M1.758,0H13.61a1.758,1.758,0,0,1,1.758,1.758v0a0,0,0,0,1,0,0H0a0,0,0,0,1,0,0v0A1.758,1.758,0,0,1,1.758,0Z" transform="translate(15.368 1.758) rotate(180)"/></g><path class="e" d="M317.2,405.624s-.007.16-.011.481-.006.809-.011,1.432c-.006,1.271-.014,3.127-.025,5.506-.012,4.795-.031,11.691-.053,20.135v.1h.1l44.863.028h.153v-.128c0-9.751-.007-19.051-.01-27.513v-.119h-.119l-32.366.029-9.239.024-2.447.012-.627.006c-.14,0-.207.007-.207.007s.077,0,.221.007l.64.008,2.472.017,9.266.04,32.288.088-.119-.119c0,8.463-.006,17.762-.01,27.513l.128-.128h-.024l-44.863.028.1.1c-.022-8.418-.041-15.293-.053-20.073-.011-2.39-.02-4.253-.025-5.529q-.007-.947-.011-1.45C317.211,405.8,317.2,405.624,317.2,405.624Z" transform="translate(-317.103 -405.546)"/><g transform="translate(14.979 6.809)"><rect class="e" width="13.359" height="3.609" transform="translate(13.359 3.609) rotate(180)"/></g></g><g transform="translate(2.246 68.367)"><g transform="translate(14.861 0.078)"><path class="e" d="M1.758,0H13.61a1.758,1.758,0,0,1,1.758,1.758v0a0,0,0,0,1,0,0H0a0,0,0,0,1,0,0v0A1.758,1.758,0,0,1,1.758,0Z" transform="translate(15.368 1.758) rotate(180)"/></g><path class="e" d="M317.483,333.617s-.007.16-.011.481-.006.809-.011,1.432c-.006,1.271-.014,3.127-.025,5.506-.012,4.795-.031,11.691-.053,20.135v.1h.1l44.863.028h.152v-.128c0-9.751-.007-19.051-.009-27.514v-.119h-.119L330,333.568l-9.239.024-2.448.012-.626.006c-.14,0-.208.007-.208.007s.077,0,.222.007l.64.008,2.471.016,9.266.041,32.288.088-.119-.119c0,8.463-.006,17.763-.009,27.514l.128-.128h-.024l-44.863.028.1.1c-.022-8.418-.041-15.293-.054-20.073-.011-2.389-.019-4.253-.025-5.528q-.007-.947-.011-1.45C317.49,333.791,317.483,333.617,317.483,333.617Z" transform="translate(-317.382 -333.539)"/><g transform="translate(15.865 6.596)"><rect class="e" width="13.359" height="3.609" transform="translate(13.359 3.609) rotate(180)"/></g></g><g transform="translate(2.145 3.561)"><g transform="translate(14.376 0.078)"><path class="e" d="M1.758,0H13.61a1.758,1.758,0,0,1,1.758,1.758v0a0,0,0,0,1,0,0H0a0,0,0,0,1,0,0v0A1.758,1.758,0,0,1,1.758,0Z" transform="translate(15.368 1.758) rotate(180)"/></g><path class="e" d="M317.257,188.308s-.007.16-.011.482-.006.809-.011,1.432c-.006,1.271-.015,3.126-.025,5.506-.013,4.795-.031,11.691-.053,20.135v.1h.1l44.863.028h.152v-.128c0-9.751-.007-19.051-.01-27.514v-.119h-.119l-32.366.029-9.239.024-2.448.012-.627.007c-.14,0-.207.007-.207.007s.077,0,.222.008l.64.008,2.471.016,9.266.041,32.288.087-.119-.119c0,8.463-.006,17.762-.01,27.514l.128-.128h-.024l-44.863.028.1.1c-.022-8.418-.04-15.293-.053-20.073-.011-2.389-.02-4.253-.025-5.528q-.007-.947-.011-1.45C317.264,188.482,317.257,188.308,317.257,188.308Z" transform="translate(-317.156 -188.23)"/><g transform="translate(15.62 5.947)"><rect class="e" width="13.359" height="3.609" transform="translate(13.359 3.609) rotate(180)"/></g></g><g transform="translate(2.145 35.947)"><g transform="translate(14.376 0.078)"><path class="e" d="M1.758,0H13.61a1.758,1.758,0,0,1,1.758,1.758v0a0,0,0,0,1,0,0H0a0,0,0,0,1,0,0v0A1.758,1.758,0,0,1,1.758,0Z" transform="translate(15.368 1.758) rotate(180)"/></g><path class="e" d="M317.257,260.924s-.007.16-.011.481-.006.809-.011,1.432c-.006,1.271-.015,3.127-.025,5.506-.013,4.795-.031,11.691-.053,20.135v.1h.1l44.863.028h.152v-.128c0-9.751-.007-19.051-.01-27.513v-.119h-.119l-32.366.029-9.239.024-2.448.012-.627.006c-.14,0-.207.007-.207.007s.077,0,.222.007l.64.008,2.471.017,9.266.04,32.288.088-.119-.119c0,8.463-.006,17.762-.01,27.513l.128-.128h-.024l-44.863.028.1.1c-.022-8.418-.04-15.293-.053-20.073-.011-2.39-.02-4.253-.025-5.529q-.007-.947-.011-1.45C317.264,261.1,317.257,260.924,317.257,260.924Z" transform="translate(-317.156 -260.846)"/><g transform="translate(15.62 5.947)"><rect class="e" width="13.359" height="3.609" transform="translate(13.359 3.609) rotate(180)"/></g></g></g><g transform="translate(0.129 0.129)"><rect class="g" width="48.206" height="43.128"/></g><path class="e" d="M93.589,86.544s-.008-.277-.012-.8-.007-1.3-.012-2.311c-.006-2.025-.016-4.985-.028-8.755-.014-7.535-.033-18.3-.056-31.262l.109.109-48.2.02h0l.129-.129c-.006,15.69-.011,30.455-.016,43.128l-.113-.114,34.866.058,9.833.03,2.6.013.671.006c.151,0,.231.007.231.007s-.072,0-.219.006l-.659.007-2.581.013-9.809.03-34.938.057H45.27v-.114c0-12.673-.01-27.437-.015-43.128v-.129h.133l48.2.02H93.7v.109c-.023,12.987-.043,23.779-.056,31.331-.012,3.76-.022,6.711-.029,8.73-.005,1-.009,1.765-.012,2.29S93.589,86.544,93.589,86.544Z" transform="translate(-45.255 -43.288)"/><g transform="translate(7.279 7.663)"><path class="e" d="M72.91,60.6c0,.071-2.538.129-5.667.129s-5.667-.058-5.667-.129,2.537-.129,5.667-.129S72.91,60.528,72.91,60.6Z" transform="translate(-61.576 -60.47)"/></g><g transform="translate(7.901 10.901)"><path class="e" d="M94.108,67.86c0,.071-6.971.128-15.568.128s-15.569-.058-15.569-.128,6.969-.129,15.569-.129S94.108,67.789,94.108,67.86Z" transform="translate(-62.972 -67.731)"/></g><g transform="translate(7.362 16.515)"><rect class="e" width="2.031" height="2.031"/></g><g transform="translate(12.361 16.515)"><rect class="e" width="2.031" height="2.031"/></g><g transform="translate(17.452 16.423)"><rect class="e" width="2.031" height="2.031"/></g><g transform="translate(22.359 16.515)"><rect class="e" width="2.031" height="2.031"/></g><g transform="translate(27.358 16.515)"><rect class="e" width="2.031" height="2.031"/></g><g transform="translate(32.357 16.515)"><rect class="e" width="2.031" height="2.031"/></g><g transform="translate(37.357 16.515)"><rect class="h" width="2.031" height="2.031"/></g><g transform="translate(7.362 20.833)"><rect class="h" width="2.031" height="2.031"/></g><g transform="translate(12.361 20.833)"><rect class="e" width="2.031" height="2.031"/></g><g transform="translate(17.36 20.833)"><rect class="h" width="2.031" height="2.031"/></g><g transform="translate(22.359 20.833)"><rect class="e" width="2.031" height="2.031"/></g><g transform="translate(27.358 20.833)"><rect class="e" width="2.031" height="2.031"/></g><g transform="translate(32.45 20.74)"><rect class="e" width="2.031" height="2.031"/></g><g transform="translate(37.357 20.833)"><rect class="e" width="2.031" height="2.031"/></g><g transform="translate(7.362 25.15)"><rect class="e" width="2.031" height="2.031"/></g><g transform="translate(12.453 25.058)"><rect class="e" width="2.031" height="2.031"/></g><g transform="translate(17.36 25.15)"><rect class="e" width="2.031" height="2.031"/></g><g transform="translate(22.359 25.15)"><rect class="h" width="2.031" height="2.031"/></g><g transform="translate(27.358 25.15)"><rect class="e" width="2.031" height="2.031"/></g><g transform="translate(32.357 25.15)"><rect class="e" width="2.031" height="2.031"/></g><g transform="translate(37.357 25.15)"><rect class="e" width="2.031" height="2.031"/></g><g transform="translate(7.362 29.468)"><rect class="e" width="2.031" height="2.031"/></g><g transform="translate(12.361 29.468)"><rect class="e" width="2.031" height="2.031"/></g><g transform="translate(17.36 29.468)"><rect class="e" width="2.031" height="2.031"/></g><g transform="translate(22.451 29.376)"><rect class="e" width="2.031" height="2.031"/></g><g transform="translate(27.358 29.468)"><rect class="e" width="2.031" height="2.031"/></g><g transform="translate(32.357 29.468)"><rect class="h" width="2.031" height="2.031"/></g><g transform="translate(37.357 29.468)"><rect class="e" width="2.031" height="2.031"/></g><g transform="translate(7.362 33.785)"><rect class="e" width="2.031" height="2.031"/></g><g transform="translate(12.361 33.785)"><rect class="h" width="2.031" height="2.031"/></g><g transform="translate(17.36 33.785)"><rect class="e" width="2.031" height="2.031"/></g><g transform="translate(22.359 33.785)"><rect class="e" width="2.031" height="2.031"/></g><g transform="translate(27.358 33.785)"><rect class="e" width="2.031" height="2.031"/></g><g transform="translate(32.45 33.693)"><rect class="e" width="2.031" height="2.031"/></g><g transform="translate(37.357 33.785)"><rect class="e" width="2.031" height="2.031"/></g><g transform="translate(72.23 64.354)"><g transform="translate(0 0)"><rect class="h" width="17.765" height="11.974" transform="translate(0 6.258) rotate(-20.625)"/></g><g transform="translate(0.104 0.115)"><path class="e" d="M224.07,187.843a1.246,1.246,0,0,1-.1.207l-.31.58-1.168,2.12-3.915,6.981-.032.058-.063-.021-.152-.049-7.709-2.526-2.33-.783-.631-.221a1.244,1.244,0,0,1-.217-.087,1.247,1.247,0,0,1,.227.057l.64.192,2.346.735,7.723,2.481.152.049-.1.037,3.957-6.957,1.213-2.095.336-.565A1.243,1.243,0,0,1,224.07,187.843Z" transform="translate(-207.444 -187.843)"/></g><g transform="translate(4.32 8.669)"><path class="e" d="M216.9,215.933c-.042-.015.63-2.022,1.5-4.481s1.611-4.443,1.653-4.428-.63,2.021-1.5,4.482S216.942,215.948,216.9,215.933Z" transform="translate(-216.898 -207.024)"/></g><g transform="translate(12.949 6.448)"><path class="e" d="M236.247,202.045c.023-.038,1.833,1.022,4.041,2.367s3.981,2.467,3.958,2.505-1.832-1.022-4.042-2.367S236.224,202.083,236.247,202.045Z" transform="translate(-236.247 -202.044)"/></g></g><g transform="translate(106.453 26.951)"><g transform="translate(0.05 0.042)"><path class="e" d="M287.942,105.791a5.57,5.57,0,0,1,1.36-.591l.281-1.346,2.275-.04.327,1.336a5.574,5.574,0,0,1,1.38.543l1.15-.754,1.637,1.581-.713,1.176a5.572,5.572,0,0,1,.591,1.361l1.346.28.04,2.275-1.336.328a5.587,5.587,0,0,1-.543,1.38l.753,1.15-1.58,1.637-1.176-.713a5.582,5.582,0,0,1-1.361.591l-.28,1.346-2.275.04-.327-1.336a5.58,5.58,0,0,1-1.38-.543l-1.15.754-1.637-1.581.713-1.176a5.555,5.555,0,0,1-.591-1.361l-1.347-.28-.04-2.275,1.336-.328a5.6,5.6,0,0,1,.543-1.38l-.754-1.15,1.581-1.637,1.176.713Zm1.213,3.03a2.441,2.441,0,1,0,3.451-.061A2.442,2.442,0,0,0,289.155,108.821Z" transform="translate(-284.061 -103.813)"/></g><g transform="translate(4.417 4.261)"><path class="e" d="M294.579,114.063a1.856,1.856,0,0,1,.454-.4,2.432,2.432,0,0,1,1.593-.376,2.459,2.459,0,0,1,1.082.384,2.5,2.5,0,0,1,.875.986,2.51,2.51,0,0,1,.235,1.437,2.49,2.49,0,0,1-2.06,2.134,2.5,2.5,0,0,1-1.444-.185,2.5,2.5,0,0,1-1.016-.84,2.464,2.464,0,0,1-.422-1.068,2.432,2.432,0,0,1,.32-1.6,1.854,1.854,0,0,1,.383-.468c.013.012-.147.161-.335.5a2.436,2.436,0,0,0-.27,1.563,2.385,2.385,0,0,0,1.394,1.805,2.379,2.379,0,0,0,1.368.168,2.365,2.365,0,0,0,1.948-2.018,2.387,2.387,0,0,0-.216-1.362,2.385,2.385,0,0,0-1.854-1.329,2.432,2.432,0,0,0-1.552.325C294.734,113.91,294.59,114.076,294.579,114.063Z" transform="translate(-293.851 -113.273)"/></g><g transform="translate(0)"><path class="e" d="M287.88,105.739a.562.562,0,0,1-.076-.04l-.226-.13-.886-.524.028,0-1.571,1.646,0-.044.758,1.147.013.021-.012.022a5.57,5.57,0,0,0-.534,1.371l-.006.027-.027.007-1.335.331.038-.049c.014.716.029,1.477.045,2.275l-.044-.053,1.347.277.034.007.009.034a5.555,5.555,0,0,0,.587,1.345l.019.031-.019.031-.711,1.177-.01-.077,1.639,1.579-.081-.008,1.149-.755.034-.022.035.019a5.541,5.541,0,0,0,1.364.536l.04.01.01.04.328,1.336-.068-.052,2.275-.041-.067.055.28-1.346.008-.041.041-.012a5.514,5.514,0,0,0,1.342-.583h0l.037-.022.036.022,1.176.713L294.8,116l1.581-1.637-.008.086-.753-1.15-.023-.035.02-.036a5.507,5.507,0,0,0,.537-1.363l.01-.04.04-.01,1.336-.326-.051.066q-.019-1.165-.037-2.275l.051.062-1.346-.282-.037-.008-.01-.037a5.525,5.525,0,0,0-.583-1.346l-.019-.032.019-.031.714-1.174.009.072-1.634-1.584.067.006-1.152.751-.025.016-.026-.015a5.563,5.563,0,0,0-1.367-.542l-.027-.007-.007-.027-.323-1.337.041.032-2.275.03.03-.025-.289,1.345,0,.013-.013,0a5.769,5.769,0,0,0-1.04.4l-.244.128a.57.57,0,0,1-.082.041.7.7,0,0,1,.076-.052c.052-.032.131-.08.24-.138a5.409,5.409,0,0,1,1.038-.423l-.016.017.272-1.349,0-.024h.025l2.275-.05h.033l.008.032.332,1.335-.033-.034a5.614,5.614,0,0,1,1.394.544l-.052,0,1.148-.756.036-.024.031.03,1.64,1.577.033.032-.024.04-.711,1.177v-.062a5.634,5.634,0,0,1,.6,1.375l-.047-.044,1.346.279.05.01v.052q.021,1.109.042,2.275v.053l-.052.012-1.335.329.049-.049a5.638,5.638,0,0,1-.549,1.4l0-.071.754,1.15.03.046-.038.04L294.9,116.1l-.039.04-.048-.029-1.176-.712h.071a5.638,5.638,0,0,1-1.376.6l.049-.053-.281,1.346-.011.054h-.056l-2.275.039H289.7l-.013-.054L289.365,116l.049.049a5.671,5.671,0,0,1-1.4-.551l.069,0-1.151.753-.044.029-.037-.036-1.635-1.583-.036-.034.026-.043.714-1.174v.062a5.631,5.631,0,0,1-.6-1.376l.044.041-1.346-.283-.043-.009V111.8c-.012-.8-.024-1.559-.035-2.275v-.04l.038-.009,1.337-.324-.034.034a5.63,5.63,0,0,1,.552-1.389l0,.042-.749-1.153-.015-.024.02-.02,1.59-1.628L286.7,105l.015.009.866.539.223.141A.594.594,0,0,1,287.88,105.739Z" transform="translate(-283.948 -103.719)"/></g></g></g><g transform="translate(45.809 232.053)"><path class="d" d="M228.907,479.347c0,.064-40.837.116-91.2.116-50.381,0-91.209-.052-91.209-.116s40.828-.116,91.209-.116C188.07,479.231,228.907,479.283,228.907,479.347Z" transform="translate(-46.497 -479.231)"/></g><g transform="translate(91.355 38.159)"><g transform="translate(0 0)"><rect class="a" width="17.765" height="11.974" transform="translate(0 5.417) rotate(-17.753)"/><g transform="translate(0.098 0.12)"><path class="d" d="M165.761,44.743a1.2,1.2,0,0,1-.109.2l-.339.563-1.273,2.059-4.26,6.776-.035.056-.062-.024-.149-.057-7.572-2.909-2.288-.9-.619-.252a1.28,1.28,0,0,1-.212-.1,1.252,1.252,0,0,1,.223.068l.63.223L152,51.3l7.589,2.865.149.057-.1.032,4.3-6.75,1.316-2.031.364-.548A1.3,1.3,0,0,1,165.761,44.743Z" transform="translate(-148.843 -44.743)"/></g><g transform="translate(3.747 8.199)"><path class="d" d="M157.027,71.6c-.041-.017.731-1.988,1.724-4.4s1.832-4.357,1.873-4.34-.731,1.987-1.724,4.4S157.069,71.618,157.027,71.6Z" transform="translate(-157.025 -62.86)"/></g><g transform="translate(12.923 6.256)"><path class="d" d="M177.6,58.5c.025-.037,1.779,1.113,3.917,2.567s3.852,2.664,3.827,2.7-1.779-1.112-3.918-2.567S177.576,58.539,177.6,58.5Z" transform="translate(-177.6 -58.501)"/></g></g></g><g transform="translate(169.387 36.837)"><path class="i" d="M337.224,67.563l-12.593-5.335a1.711,1.711,0,0,1-.908-2.243l7.384-17.43a1.711,1.711,0,0,1,2.243-.908l7.986,3.384,3.483,8.991-5.352,12.633A1.712,1.712,0,0,1,337.224,67.563Z" transform="translate(-323.587 -41.511)"/><g transform="translate(15.544 3.52)"><path class="j" d="M360.646,49.4l-2.078,4.905a1.592,1.592,0,0,0,.845,2.086l4.716,2Z" transform="translate(-358.442 -49.403)"/></g><g class="k" transform="translate(15.418 8.882)"><path d="M358.294,61.428a1.769,1.769,0,0,0,.623,2.128,1.55,1.55,0,0,0,.14.1c.569.371,4.318,2.81,4.357,2.716l.558-1.318-4.717-2A1.631,1.631,0,0,1,358.294,61.428Z" transform="translate(-358.159 -61.428)"/></g><g transform="translate(8.874 5.304)"><path class="g" d="M349.31,55.877a20.314,20.314,0,0,1-2.961-1.12,20.33,20.33,0,0,1-2.865-1.348,40.419,40.419,0,0,1,5.826,2.468Z" transform="translate(-343.484 -53.404)"/></g><g transform="translate(7.699 8.08)"><path class="g" d="M350.438,63.693c-.027.063-2.2-.8-4.842-1.917s-4.772-2.082-4.746-2.145,2.195.795,4.843,1.917S350.465,63.63,350.438,63.693Z" transform="translate(-340.849 -59.628)"/></g><g transform="translate(6.718 10.396)"><path class="g" d="M349.1,69.252c-.027.063-2.388-.877-5.274-2.1s-5.2-2.265-5.178-2.328,2.387.877,5.274,2.1S349.129,69.189,349.1,69.252Z" transform="translate(-338.65 -64.821)"/></g><g transform="translate(5.792 12.581)"><path class="g" d="M347.027,74.151c-.027.063-2.389-.877-5.274-2.1s-5.2-2.265-5.178-2.328,2.388.877,5.275,2.1S347.053,74.088,347.027,74.151Z" transform="translate(-336.574 -69.72)"/></g><g transform="translate(4.866 14.766)"><path class="g" d="M344.951,79.051c-.027.063-2.388-.877-5.274-2.1s-5.2-2.265-5.178-2.328,2.388.877,5.275,2.1S344.978,78.988,344.951,79.051Z" transform="translate(-334.498 -74.62)"/></g><g transform="translate(3.941 16.951)"><path class="g" d="M342.875,83.95c-.026.063-2.388-.877-5.274-2.1s-5.2-2.265-5.178-2.328,2.388.877,5.275,2.1S342.9,83.887,342.875,83.95Z" transform="translate(-332.423 -79.519)"/></g></g><g transform="translate(119.308 33.074)"><g transform="translate(0 0)"><g transform="translate(4.599 0.106)"><g transform="translate(0.116 0.095)"><circle class="l" cx="16.656" cy="16.656" r="16.656"/></g><path class="d" d="M255.041,50.062s-.012-.091-.025-.269-.029-.449-.052-.791q-.015-.262-.035-.582c-.023-.213-.068-.444-.106-.7a12.056,12.056,0,0,0-.347-1.718,15.882,15.882,0,0,0-1.845-4.417,16.643,16.643,0,0,0-11.19-7.794,15.385,15.385,0,0,0-2.093-.242c-.357-.012-.717-.047-1.079-.041l-1.1.057c-.184.013-.369.012-.553.036l-.552.085c-.368.061-.743.1-1.113.181a17.525,17.525,0,0,0-2.207.648,17.259,17.259,0,0,0-2.158.949c-.349.19-.684.41-1.03.615-.169.108-.35.2-.511.323l-.487.365a15.147,15.147,0,0,0-3.5,3.513l-.38.509-.333.545-.333.548a4.088,4.088,0,0,0-.308.564l-.562,1.167-.449,1.225a16.392,16.392,0,0,0,0,10.439l.449,1.225.561,1.167a4.106,4.106,0,0,0,.308.564l.333.548.333.545.38.509a15.15,15.15,0,0,0,3.5,3.513l.487.365c.161.123.342.215.511.323.346.206.681.426,1.031.616a18.134,18.134,0,0,0,4.365,1.6c.371.077.745.12,1.114.181l.552.085c.184.025.37.023.553.036l1.1.057c.363.005.722-.029,1.079-.041a15.4,15.4,0,0,0,2.094-.242,16.645,16.645,0,0,0,11.189-7.794,15.89,15.89,0,0,0,1.845-4.417,12.171,12.171,0,0,0,.347-1.717c.037-.252.083-.483.106-.7s.025-.407.035-.582c.022-.341.039-.6.052-.79s.025-.269.025-.269,0,.091,0,.27-.016.45-.029.793q-.011.263-.024.585c-.019.215-.061.446-.1.7a11.862,11.862,0,0,1-.328,1.73,15.779,15.779,0,0,1-1.821,4.461,16.741,16.741,0,0,1-11.265,7.917,15.589,15.589,0,0,1-2.118.251c-.361.013-.725.049-1.092.045l-1.109-.055c-.186-.012-.374-.011-.56-.035l-.559-.085c-.373-.061-.753-.1-1.128-.181a17.7,17.7,0,0,1-2.237-.652,17.416,17.416,0,0,1-2.188-.958c-.355-.191-.694-.414-1.045-.622-.172-.11-.355-.2-.518-.327l-.495-.369a15.338,15.338,0,0,1-3.549-3.557l-.386-.516-.338-.552-.338-.555a4.109,4.109,0,0,1-.313-.572l-.57-1.183-.456-1.243a16.6,16.6,0,0,1,0-10.585l.456-1.242.57-1.182a4.2,4.2,0,0,1,.313-.572l.338-.555.338-.552.386-.516a15.333,15.333,0,0,1,3.549-3.556l.494-.369c.164-.124.347-.217.519-.327.351-.207.69-.43,1.045-.622a17.347,17.347,0,0,1,2.188-.958,17.7,17.7,0,0,1,2.237-.652c.375-.077.755-.12,1.128-.181l.559-.084c.186-.025.374-.023.56-.035l1.109-.055c.367,0,.731.031,1.092.045a15.518,15.518,0,0,1,2.118.251,16.739,16.739,0,0,1,11.266,7.916,15.8,15.8,0,0,1,1.821,4.461,11.922,11.922,0,0,1,.328,1.73c.034.253.076.485.1.7l.024.585c.012.343.022.606.029.793S255.041,50.062,255.041,50.062Z" transform="translate(-221.613 -33.311)"/></g><g transform="translate(20.398 8.369)"><path class="d" d="M265.911,59.857a4.138,4.138,0,0,1-.673.192l-1.858.444c-1.574.366-3.761.859-6.2,1.395l-.141.031v-.629c0-2.61.013-4.973.034-6.683.015-.825.027-1.507.037-2.025a4.558,4.558,0,0,1,.045-.743,4.558,4.558,0,0,1,.045.743c.009.518.022,1.2.037,2.025.021,1.71.034,4.073.034,6.683v.485l-.141-.113c2.442-.533,4.634-1,6.217-1.325l1.874-.373A4.236,4.236,0,0,1,265.911,59.857Z" transform="translate(-257.038 -51.839)"/></g><g transform="translate(30.752)"><path class="d" d="M288.723,56.8a1.249,1.249,0,0,1,.074-.27c.051-.176.15-.426.243-.761a20.1,20.1,0,0,0,.651-2.857,19.267,19.267,0,0,0-6.226-17.439,20.135,20.135,0,0,0-2.312-1.8c-.283-.2-.519-.331-.67-.435a1.313,1.313,0,0,1-.228-.162,1.24,1.24,0,0,1,.252.122c.159.091.4.21.7.4a17.675,17.675,0,0,1,2.372,1.752,18.958,18.958,0,0,1,6.279,17.588,17.668,17.668,0,0,1-.727,2.858c-.107.331-.219.578-.285.749A1.232,1.232,0,0,1,288.723,56.8Z" transform="translate(-280.254 -33.074)"/></g><g transform="translate(38.63 4.483)"><path class="d" d="M301.7,54.169c-.037,0-.059-.664-.195-1.724a20.219,20.219,0,0,0-2.684-7.837c-.544-.921-.934-1.458-.9-1.481a1.732,1.732,0,0,1,.31.351c.186.236.442.59.734,1.043a17.673,17.673,0,0,1,2.707,7.906c.048.537.062.973.061,1.274A1.713,1.713,0,0,1,301.7,54.169Z" transform="translate(-297.917 -43.126)"/></g><g transform="translate(1.989 7.209)"><path class="d" d="M218.514,49.239a1.252,1.252,0,0,1-.116.255c-.078.165-.216.4-.361.713a20.115,20.115,0,0,0-1.1,2.716,19.267,19.267,0,0,0,3.375,18.207,20.087,20.087,0,0,0,2,2.143c.248.242.459.409.592.536a1.278,1.278,0,0,1,.2.2,1.28,1.28,0,0,1-.229-.161c-.142-.115-.364-.271-.623-.5a17.706,17.706,0,0,1-2.064-2.107,18.96,18.96,0,0,1-3.4-18.363,17.683,17.683,0,0,1,1.172-2.706c.158-.31.309-.536.4-.694A1.289,1.289,0,0,1,218.514,49.239Z" transform="translate(-215.761 -49.239)"/></g><g transform="translate(0 14.795)"><path class="d" d="M211.587,66.249c.037,0-.047.665-.082,1.734a20.21,20.21,0,0,0,1.4,8.164c.391,1,.691,1.589.657,1.606a1.72,1.72,0,0,1-.251-.4c-.146-.263-.343-.653-.559-1.147a17.674,17.674,0,0,1-1.416-8.235c.038-.538.093-.97.142-1.267A1.742,1.742,0,0,1,211.587,66.249Z" transform="translate(-211.3 -66.249)"/></g><g transform="translate(6.96 2.135)"><g transform="translate(27.064 17.227)"><path class="d" d="M288.725,76.734c-.628-.129-1.137-.238-1.135-.245s.512.093,1.14.221,1.136.238,1.135.245S289.354,76.863,288.725,76.734Z" transform="translate(-287.59 -76.489)"/></g><g transform="translate(25.59 21.071)"><path class="d" d="M285.28,85.707c-.553-.326-1-.594-.995-.6s.454.254,1.006.58,1,.594.995.6S285.832,86.032,285.28,85.707Z" transform="translate(-284.285 -85.108)"/></g><g transform="translate(22.944 24.221)"><path class="d" d="M279.1,93.062c-.417-.488-.751-.887-.746-.891s.346.388.763.876.75.886.746.89S279.515,93.549,279.1,93.062Z" transform="translate(-278.353 -92.171)"/></g><g transform="translate(19.42 26.346)"><path class="d" d="M270.869,98.02c-.237-.6-.424-1.082-.418-1.084s.2.479.439,1.075.424,1.081.418,1.083S271.106,98.616,270.869,98.02Z" transform="translate(-270.451 -96.936)"/></g><g transform="translate(15.4 27.213)"><path class="d" d="M261.48,100.04c-.029-.641-.049-1.16-.042-1.161s.035.519.064,1.16.048,1.16.042,1.16S261.509,100.68,261.48,100.04Z" transform="translate(-261.436 -98.879)"/></g><g transform="translate(10.662 26.722)"><path class="d" d="M251.126,98.892c.179-.616.33-1.114.336-1.112s-.134.5-.314,1.119-.329,1.113-.335,1.111S250.947,99.507,251.126,98.892Z" transform="translate(-250.813 -97.78)"/></g><g transform="translate(6.263 24.937)"><path class="d" d="M241.61,94.718c.371-.524.675-.945.68-.942s-.291.431-.661.955-.674.945-.679.941S241.24,95.241,241.61,94.718Z" transform="translate(-240.949 -93.776)"/></g><g transform="translate(2.798 22.04)"><path class="d" d="M234.114,87.953c.52-.376.945-.676.948-.671s-.415.313-.935.689-.945.675-.948.67S233.594,88.328,234.114,87.953Z" transform="translate(-233.179 -87.282)"/></g><g transform="translate(0.629 18.353)"><path class="d" d="M229.425,79.342c.614-.187,1.112-.334,1.114-.328s-.494.162-1.108.349-1.112.334-1.114.328S228.812,79.528,229.425,79.342Z" transform="translate(-228.317 -79.014)"/></g><g transform="translate(0 14.187)"><path class="d" d="M228.066,69.705c.641.024,1.16.048,1.16.054s-.52-.008-1.161-.032-1.16-.048-1.16-.054S227.426,69.682,228.066,69.705Z" transform="translate(-226.906 -69.672)"/></g><g transform="translate(0.975 9.407)"><path class="d" d="M230.181,59.36c.6.23,1.083.42,1.081.426s-.49-.175-1.089-.4-1.082-.42-1.08-.426S229.583,59.131,230.181,59.36Z" transform="translate(-229.093 -58.956)"/></g><g transform="translate(3.451 5.199)"><path class="d" d="M235.541,50.258c.491.413.887.751.883.755s-.405-.326-.9-.738-.886-.75-.882-.755S235.05,49.846,235.541,50.258Z" transform="translate(-234.645 -49.52)"/></g><g transform="translate(7.157 2.029)"><path class="d" d="M243.564,43.4c.331.549.6,1,.591,1s-.278-.439-.61-.988-.6-1-.591-1S243.232,42.852,243.564,43.4Z" transform="translate(-242.954 -42.412)"/></g><g transform="translate(11.689 0.227)"><path class="d" d="M253.371,39.5c.136.627.24,1.136.235,1.137s-.12-.506-.256-1.133-.241-1.136-.235-1.137S253.236,38.878,253.371,39.5Z" transform="translate(-253.114 -38.372)"/></g><g transform="translate(16.289)"><path class="d" d="M263.579,39.016c-.077.637-.144,1.153-.149,1.152s.051-.517.127-1.155.143-1.152.149-1.152S263.655,38.38,263.579,39.016Z" transform="translate(-263.429 -37.862)"/></g><g transform="translate(20.244 1.363)"><path class="d" d="M272.813,41.97c-.278.578-.508,1.044-.514,1.042s.215-.474.493-1.052.508-1.044.513-1.041S273.091,41.392,272.813,41.97Z" transform="translate(-272.299 -40.919)"/></g><g transform="translate(23.605 4.178)"><path class="d" d="M280.659,48.063c-.451.456-.821.822-.825.817s.358-.377.809-.833.821-.822.825-.817S281.11,47.607,280.659,48.063Z" transform="translate(-279.834 -47.23)"/></g><g transform="translate(26.016 8.13)"><path class="d" d="M286.284,56.618c-.574.286-1.042.513-1.045.508s.461-.241,1.035-.527,1.042-.512,1.044-.507S286.858,56.332,286.284,56.618Z" transform="translate(-285.239 -56.091)"/></g><g transform="translate(27.216 12.795)"><path class="d" d="M289.083,66.714c-.636.083-1.152.146-1.153.14s.514-.078,1.15-.161,1.152-.146,1.153-.14S289.719,66.631,289.083,66.714Z" transform="translate(-287.93 -66.552)"/></g></g><g transform="translate(41.234 13.554)"><path class="d" d="M306.113,63.466a12.188,12.188,0,0,1-.953,2.171l-.026.052-.091.181-.111-.169a11.785,11.785,0,0,1-1.173-1.994,11.717,11.717,0,0,1,1.366,1.867l-.2.012.026-.052A12.164,12.164,0,0,1,306.113,63.466Z" transform="translate(-303.757 -63.466)"/></g></g></g><g transform="translate(113.292 79.468)"><g transform="translate(0 4.714)"><g transform="translate(0.11 0.113)"><path class="g" d="M255.114,147.922H202.7a4.643,4.643,0,0,0,0,9.287h24.514l5.49,5.231v-5.231h22.411a4.643,4.643,0,1,0,0-9.287Z" transform="translate(-198.055 -147.922)"/></g><path class="d" d="M254.978,147.781s.058,0,.173,0a3.356,3.356,0,0,1,.508.038,4.565,4.565,0,0,1,1.858.682,4.671,4.671,0,0,1,1.272,6.672,4.746,4.746,0,0,1-2,1.6,5.121,5.121,0,0,1-1.346.342c-.477.036-.951.022-1.44.027l-6.314.011-15.123.018.1-.1c0,1.638,0,3.414,0,5.231v.248l-.18-.171L227,157.148l.076.031-20.849,0h-3.637a4.76,4.76,0,0,1-3.641-7.85,4.716,4.716,0,0,1,3.013-1.623,16.864,16.864,0,0,1,1.7-.041h1.668l6.493,0,22.462.025,15.142.037,4.117.022,1.07.012c.241,0,.365.012.365.012s-.124.008-.365.012l-1.07.012-4.117.022-15.142.037-22.462.025-6.493,0H203.66c-.557.007-1.127-.021-1.669.041a4.528,4.528,0,0,0-2.569,7.749,4.542,4.542,0,0,0,3.169,1.27h3.637l20.849.005h.045l.032.031,5.487,5.234-.18.077c0-1.817,0-3.594,0-5.231v-.1h.1l15.123.018L254,157c.487,0,.969.013,1.426-.02a5.018,5.018,0,0,0,1.308-.326,4.606,4.606,0,0,0-1.084-8.8C255.212,147.783,254.977,147.8,254.978,147.781Z" transform="translate(-197.809 -147.668)"/></g><g transform="translate(1.44)"><g transform="translate(0 6.189)"><path class="a" d="M227.278,157.539H204.32a3.281,3.281,0,0,1-3.281-3.281h0a3.28,3.28,0,0,1,3.281-3.281h22.959a3.281,3.281,0,0,1,3.281,3.281h0A3.281,3.281,0,0,1,227.278,157.539Z" transform="translate(-201.039 -150.977)"/></g><g transform="translate(46.653 7.7)"><g transform="translate(0 0.025)"><path class="d" d="M308.712,157.036h-.664l-.168.852H307.4l.173-.852h-1.927l.065-.347,2.2-2.269h.56l-2.111,2.19h1.308l.154-.753h.46l-.149.753h.659Z" transform="translate(-305.645 -154.42)"/></g><g transform="translate(3.142 0.025)"><path class="d" d="M314.043,154.851l-.287.951h.337c.887,0,1.288.367,1.288.927,0,.718-.589,1.2-1.476,1.2a1.628,1.628,0,0,1-1.214-.436l.263-.381a1.307,1.307,0,0,0,.986.376c.6,0,.946-.263.946-.7,0-.342-.248-.55-.882-.55h-.842l.54-1.813h1.957l-.084.431Z" transform="translate(-312.69 -154.42)"/></g><g transform="translate(6.413)"><path class="d" d="M320.024,155.494a1.022,1.022,0,0,1,.946-1.13.672.672,0,0,1,.7.753,1.018,1.018,0,0,1-.946,1.129A.672.672,0,0,1,320.024,155.494Zm3.076-1.1h.4l-3.032,3.468h-.406Zm-1.753.753c0-.327-.154-.5-.4-.5-.4,0-.6.451-.6.828,0,.327.153.5.4.5C321.149,155.969,321.347,155.519,321.347,155.142Zm.549,1.992a1.018,1.018,0,0,1,.946-1.13.67.67,0,0,1,.693.753,1.015,1.015,0,0,1-.946,1.13A.669.669,0,0,1,321.9,157.134Zm1.318-.352c0-.327-.153-.5-.4-.5-.4,0-.6.451-.6.827,0,.327.159.5.4.5C323.017,157.609,323.215,157.158,323.215,156.782Z" transform="translate(-320.024 -154.364)"/></g></g><g class="m" transform="translate(2.043 6.189)"><path class="l" d="M207.746,150.977l-2.126,6.562h2.126l2-6.562Z" transform="translate(-205.62 -150.977)"/></g><g class="m" transform="translate(7.296 6.189)"><path class="l" d="M219.525,150.977l-2.126,6.562h2.126l2-6.562Z" transform="translate(-217.398 -150.977)"/></g><g class="m" transform="translate(12.549 6.189)"><path class="l" d="M231.3,150.977l-2.126,6.562H231.3l2-6.562Z" transform="translate(-229.177 -150.977)"/></g><g class="m" transform="translate(17.802 6.189)"><path class="l" d="M243.082,150.977l-2.126,6.562h2.126l2-6.562Z" transform="translate(-240.956 -150.977)"/></g><g class="m" transform="translate(23.055 6.189)"><path class="l" d="M254.861,150.977l-2.126,6.562h2.126l2-6.562Z" transform="translate(-252.734 -150.977)"/></g><text class="n" transform="translate(18.523 2.418)"><tspan x="0" y="0">INFORME</tspan></text></g></g><g transform="translate(54.023 62.492)"><g transform="translate(6.279 115.626)"><path class="o" d="M78.994,358.692s11.294,5.089,23.058,5.089c10.894,0,22.422-5.485,22.422-5.485Z" transform="translate(-78.994 -358.296)"/><g transform="translate(19.624 0.491)"><rect class="o" width="4.666" height="48.867"/></g><g transform="translate(23.757 9.681)"><path class="p" d="M132.262,380" transform="translate(-132.262 -380.002)"/></g><g transform="translate(1.253 46.493)"><rect class="o" width="41.407" height="2.865"/></g><g transform="translate(0 47.135)"><path class="d" d="M85.314,467.144a3.16,3.16,0,1,1-3.16-3.16A3.16,3.16,0,0,1,85.314,467.144Z" transform="translate(-78.994 -463.984)"/></g><g transform="translate(18.399 47.135)"><path class="d" d="M126.569,467.144a3.16,3.16,0,1,1-3.16-3.16A3.16,3.16,0,0,1,126.569,467.144Z" transform="translate(-120.249 -463.984)"/></g><g transform="translate(39.712 47.135)"><path class="d" d="M174.358,467.144a3.16,3.16,0,1,1-3.16-3.16A3.16,3.16,0,0,1,174.358,467.144Z" transform="translate(-168.038 -463.984)"/></g><g transform="translate(16.712 18.079)"><rect class="o" width="6.346" height="2.626"/></g><g transform="translate(15.557 16.24)"><rect class="e" width="2.311" height="6.303"/></g></g><g transform="translate(0 41.642)"><path class="q" d="M11.607,0h12.5a0,0,0,0,1,0,0V68.163a0,0,0,0,1,0,0H0a0,0,0,0,1,0,0V11.607A11.607,11.607,0,0,1,11.607,0Z"/><g transform="translate(5.221 1.064)"><path class="d" d="M76.738,260.856c-.064,0-.116-14.79-.116-33.03s.052-33.034.116-33.034.116,14.787.116,33.034S76.8,260.856,76.738,260.856Z" transform="translate(-76.622 -194.792)"/></g></g><g transform="translate(0 109.665)"><path class="q" d="M0,0H59.678a0,0,0,0,1,0,0V7.412a0,0,0,0,1,0,0H7.412A7.412,7.412,0,0,1,0,0V0A0,0,0,0,1,0,0Z"/></g><g transform="translate(28.119)"><g transform="translate(2.937 3.687)"><path class="r" d="M137.275,118.3l-2.585,24.66c-.439,4.194-.228,10.444,6.434,10.836h0c5.806-.1,7.833-5.4,8.239-9.31.193-1.857.357-3.4.389-3.594,0,0,6.34.067,7.444-6.1.534-2.98,1.133-9.206,1.61-14.846a11.667,11.667,0,0,0-9.715-12.487l-.6-.1C142,106.671,137.789,111.8,137.275,118.3Z" transform="translate(-134.549 -107.302)"/></g><g transform="translate(10.491 33.564)"><path class="s" d="M159.136,178.01a15.129,15.129,0,0,1-7.649-3.717s1.211,4.84,7.469,5.309Z" transform="translate(-151.487 -174.293)"/></g><g transform="translate(12.527 16.614)"><path class="d" d="M159.859,137.576c-.135.114-.8-.53-1.838-.654-1.036-.139-1.863.315-1.961.171-.048-.065.1-.283.463-.49a2.615,2.615,0,0,1,1.589-.3,2.524,2.524,0,0,1,1.444.681C159.844,137.279,159.925,137.526,159.859,137.576Z" transform="translate(-156.051 -136.287)"/></g><g transform="translate(14.544 19.389)"><path class="d" d="M162.261,143.411a.846.846,0,0,1-.945.708.809.809,0,0,1-.735-.9.847.847,0,0,1,.944-.709A.81.81,0,0,1,162.261,143.411Z" transform="translate(-160.574 -142.509)"/></g><g transform="translate(18.274 17.404)"><path class="d" d="M168.939,146.041a6.381,6.381,0,0,1,1.588-.021c.247.015.484.005.553-.153a1.254,1.254,0,0,0-.042-.746q-.2-.937-.41-1.965a32.2,32.2,0,0,1-.807-5.1,32.161,32.161,0,0,1,1.215,5.02q.2,1.032.378,1.971a1.423,1.423,0,0,1-.033.973.617.617,0,0,1-.458.288,1.669,1.669,0,0,1-.421-.011A6.235,6.235,0,0,1,168.939,146.041Z" transform="translate(-168.939 -138.058)"/></g><g transform="translate(12.365 12.984)"><path class="d" d="M159.576,129.111c-.122.222-.939-.029-1.942-.07-1-.062-1.844.1-1.939-.129-.041-.111.134-.309.492-.484a3.167,3.167,0,0,1,1.5-.276,3.128,3.128,0,0,1,1.457.428C159.479,128.79,159.63,129.005,159.576,129.111Z" transform="translate(-155.689 -128.147)"/></g><g transform="translate(22.16 15.776)"><path class="d" d="M181.455,135.421c-.127.178-.92-.106-1.9-.227-.98-.139-1.811-.07-1.9-.277-.037-.1.141-.252.5-.37a3.451,3.451,0,0,1,1.478-.106,3.563,3.563,0,0,1,1.415.49C181.371,135.14,181.512,135.335,181.455,135.421Z" transform="translate(-177.652 -134.408)"/></g><g transform="translate(0.75 18.87)"><path class="r" d="M134.3,141.823c-.1-.063-4.037-1.962-4.6,2.284s3.813,3.941,3.836,3.82S134.3,141.823,134.3,141.823Z" transform="translate(-129.646 -141.346)"/></g><g transform="translate(1.849 20.197)"><path class="s" d="M133.816,147.793c-.017-.016-.081.042-.214.083a.746.746,0,0,1-.555-.062,1.848,1.848,0,0,1-.627-1.756,2.463,2.463,0,0,1,.349-1.031.863.863,0,0,1,.632-.494.38.38,0,0,1,.409.261c.041.126,0,.207.024.218s.1-.059.09-.239a.476.476,0,0,0-.132-.288.565.565,0,0,0-.395-.163,1.048,1.048,0,0,0-.861.555,2.534,2.534,0,0,0-.415,1.149,1.938,1.938,0,0,0,.834,1.978.8.8,0,0,0,.691-.022C133.795,147.895,133.83,147.8,133.816,147.793Z" transform="translate(-132.11 -144.32)"/></g><g transform="translate(14.98 25.295)"><path class="d" d="M163.568,158.7c.056-.1-.756-.43-1.271-1.268a4.8,4.8,0,0,1-.487-1.168c-.1-.321-.172-.524-.219-.514s-.053.22-.016.563a3.162,3.162,0,0,0,.434,1.3,2.563,2.563,0,0,0,1.012.934C163.334,158.71,163.553,158.739,163.568,158.7Z" transform="translate(-161.551 -155.753)"/></g><path class="d" d="M128.338,110.958c1.027-1.421,1.4-3.2,2.039-4.829s1.735-3.284,3.434-3.719l.036.02a4.506,4.506,0,0,1,4.471.839,5.856,5.856,0,0,1,4.824-4.131,14.5,14.5,0,0,1,7.649,1.317,15.91,15.91,0,0,1,4.677,4.375,21.007,21.007,0,0,1,1.932,2.836l1.345,5.98-1.892,2.9c-.116.2-.234.4-.374.59v-.014l-2.044,6.283c.07-1.759.759-7.834.828-9.592a9.8,9.8,0,0,1-6.659-3.854c-.858-1.147-1.487-2.542-2.707-3.293-1.573-.968-3.592-.555-5.385-.112l.08-.059a7.829,7.829,0,0,0-2.568,1.515,24.357,24.357,0,0,1-2,10.17c-.209.482-.748,1.463-1.252,1.606-.991.282-1.159-.717-1.688-1.288a2.544,2.544,0,0,0-1.7-.589,38.312,38.312,0,0,1-.762-4.532,3.905,3.905,0,0,1-1.8-.046l.672-1.267a2.04,2.04,0,0,1-.8.276.7.7,0,0,1-.7-.383C127.868,111.612,128.124,111.255,128.338,110.958Z" transform="translate(-127.964 -99.035)"/><g transform="translate(2.187 5.128)"><path class="q" d="M142.926,110.534a5.3,5.3,0,0,0-.676.512,4.477,4.477,0,0,0-1.145,1.976,7.884,7.884,0,0,0-.3,1.565c-.055.572-.066,1.189-.082,1.84a16.513,16.513,0,0,1-.141,2.043,7.181,7.181,0,0,1-.239,1.063,2.248,2.248,0,0,1-.535,1,.941.941,0,0,1-.9.214,1.4,1.4,0,0,1-.748-.519,3.231,3.231,0,0,1-.453-1.636l.129.028a5.242,5.242,0,0,1-.876,1.233,1.861,1.861,0,0,1-1.271.547,1.2,1.2,0,0,1-.631-.171,1.039,1.039,0,0,1-.4-.469,1.068,1.068,0,0,1-.081-.563.775.775,0,0,1,.244-.465l.061.065a4.025,4.025,0,0,1-1.428.879,3.583,3.583,0,0,1-.429.123.738.738,0,0,1-.152.023.727.727,0,0,1,.146-.047c.1-.029.238-.072.418-.144a4.149,4.149,0,0,0,1.383-.9l.061.065a.8.8,0,0,0-.126.92.932.932,0,0,0,.359.416,1.087,1.087,0,0,0,.572.148,1.742,1.742,0,0,0,1.181-.522,5.148,5.148,0,0,0,.846-1.207l.108-.191.021.219a3.129,3.129,0,0,0,.431,1.563,1.264,1.264,0,0,0,.67.464.8.8,0,0,0,.769-.181,2.125,2.125,0,0,0,.5-.939,7.159,7.159,0,0,0,.237-1.04,16.747,16.747,0,0,0,.148-2.025c.02-.649.034-1.269.1-1.848a7.828,7.828,0,0,1,.326-1.585,4.421,4.421,0,0,1,1.2-1.986A2.529,2.529,0,0,1,142.926,110.534Z" transform="translate(-132.868 -110.534)"/></g><g transform="translate(12.512 1.952)"><path class="q" d="M174.427,114.412s-.017.015-.054.038l-.165.1a2.082,2.082,0,0,1-.279.145,3.336,3.336,0,0,1-.4.164,5.538,5.538,0,0,1-2.705.233,7.072,7.072,0,0,1-3.624-1.732,12.247,12.247,0,0,1-2.881-4.013c-.383-.795-.68-1.6-1.021-2.351a8.268,8.268,0,0,0-1.214-2.021,4.267,4.267,0,0,0-1.691-1.253,3.053,3.053,0,0,0-.935-.2,3.351,3.351,0,0,0-.88.087,3.614,3.614,0,0,0-2.154,1.506,4.32,4.32,0,0,0-.407.9.211.211,0,0,1,.011-.065l.047-.187a3.111,3.111,0,0,1,.3-.681,3.566,3.566,0,0,1,.783-.879,3.66,3.66,0,0,1,1.395-.7,3.412,3.412,0,0,1,.909-.1,3.165,3.165,0,0,1,.973.195,4.371,4.371,0,0,1,1.75,1.279,8.337,8.337,0,0,1,1.243,2.049c.345.756.643,1.56,1.022,2.347a12.256,12.256,0,0,0,2.838,3.974,7.026,7.026,0,0,0,3.551,1.731,5.615,5.615,0,0,0,2.671-.185A8.851,8.851,0,0,0,174.427,114.412Z" transform="translate(-156.019 -103.413)"/></g><g transform="translate(21.983 17.882)"><path class="d" d="M181.063,140.419c-.135.114-.8-.53-1.838-.654-1.036-.139-1.863.315-1.96.171-.048-.065.1-.283.463-.49a2.618,2.618,0,0,1,1.589-.3,2.524,2.524,0,0,1,1.444.681C181.048,140.122,181.129,140.369,181.063,140.419Z" transform="translate(-177.255 -139.13)"/></g><g transform="translate(23.221 20.196)"><path class="d" d="M181.718,145.222a.846.846,0,0,1-.945.708.809.809,0,0,1-.735-.9.847.847,0,0,1,.944-.709A.81.81,0,0,1,181.718,145.222Z" transform="translate(-180.031 -144.32)"/></g><g transform="translate(27.99 7.867)"><path class="d" d="M191.715,116.675a2.674,2.674,0,0,0,2.081,1.473,6.579,6.579,0,0,0,.955-.175c.285.216.1,1.25-.136,1.515a5.588,5.588,0,0,1-.723.607,3.46,3.46,0,0,0,3.051.2,5.368,5.368,0,0,1-3.619,3.947,1.882,1.882,0,0,1-1.718-.147,2.168,2.168,0,0,1-.613-1.416,23.511,23.511,0,0,1-.164-5.789Z" transform="translate(-190.723 -116.675)"/></g></g><g transform="translate(6.253 32.704)"><g transform="translate(37.526 10.361)"><path class="t" d="M164.9,195.6s3.924,1.6,6.161,7.028c1.571,3.816,10.3,15.866,10.3,15.866l23.219,5.156.793,7.406-37.137-.306-5.161-16.434Z" transform="translate(-163.077 -195.596)"/></g><g transform="translate(0.026)"><path class="t" d="M102.683,175.879,98.56,177.61c-3.812,1.6-8.693,5.279-10.327,9.078a126.009,126.009,0,0,0-8.853,31.319C78,228.5,80.747,244.027,80.747,244.027l34.846-19.912-2.036-1.425,6.6-35.927-1.231-4.349.822-3.678s-9.245-3.714-15.981-6.372Z" transform="translate(-78.994 -172.364)"/></g><g class="m" transform="translate(0 48.671)"><path d="M99.321,294.106q.194-2.691.388-5.382a2.365,2.365,0,0,1-1.508.647,15.8,15.8,0,0,0,2.3-2.772l-1.586.682a4.7,4.7,0,0,0,1.351-1.606,4.308,4.308,0,0,0-3.127-.447,99.116,99.116,0,0,1-16.6-.182,3.789,3.789,0,0,1-1.584-.467,6.665,6.665,0,0,1,.133-2.081c.246-.564.627-.4,1.207-.609a6.41,6.41,0,0,1,1.817-.281,149.885,149.885,0,0,1,20.189.755,2.1,2.1,0,0,1,1.18.342,2.131,2.131,0,0,1,.408,1.984q-.512,3.77-1.025,7.539" transform="translate(-78.936 -281.496)"/></g><g transform="translate(34.133 12.954)"><path class="d" d="M162.121,201.411a1.893,1.893,0,0,1-.034.337l-.141.959c-.128.832-.326,2.034-.59,3.516-.523,2.965-1.315,7.048-2.254,11.543s-1.837,8.557-2.5,11.493l-.8,3.473-.23.941a1.856,1.856,0,0,1-.1.325,1.8,1.8,0,0,1,.05-.335c.047-.24.109-.556.187-.951l.73-3.488,2.436-11.505c.939-4.494,1.755-8.57,2.319-11.526.277-1.46.5-2.65.663-3.5l.184-.951A1.841,1.841,0,0,1,162.121,201.411Z" transform="translate(-155.471 -201.411)"/></g><g transform="translate(9.265 50.518)"><path class="d" d="M99.711,299.08a1.373,1.373,0,0,1,.207-.212l.624-.574c.271-.25.608-.55,1.012-.882s.853-.727,1.378-1.126c1.031-.822,2.3-1.746,3.751-2.716s3.1-1.949,4.878-2.894,3.531-1.729,5.143-2.394,3.1-1.177,4.36-1.563c.625-.208,1.2-.358,1.706-.5s.941-.255,1.3-.338l.827-.192a1.444,1.444,0,0,1,.292-.051,1.408,1.408,0,0,1-.281.1l-.815.234c-.355.1-.789.217-1.287.375s-1.072.316-1.693.533c-1.251.405-2.72.947-4.328,1.605s-3.34,1.47-5.116,2.4-3.41,1.924-4.869,2.867-2.728,1.863-3.768,2.667c-.53.39-.986.772-1.4,1.1s-.756.612-1.036.85l-.653.541A1.44,1.44,0,0,1,99.711,299.08Z" transform="translate(-99.71 -285.636)"/></g><g transform="translate(11.904 50.809)"><path class="d" d="M120.876,286.29c.031.057-3.358,1.961-7.569,4.254s-7.65,4.107-7.681,4.05,3.358-1.961,7.57-4.255S120.846,286.234,120.876,286.29Z" transform="translate(-105.627 -286.289)"/></g><g class="m" transform="translate(14.908 23.282)"><path d="M112.363,224.568a31.423,31.423,0,0,0,17.58,21.539A208.489,208.489,0,0,1,112.363,224.568Z" transform="translate(-112.363 -224.568)"/></g><g class="m" transform="translate(37.967 16.166)"><path d="M166.329,208.611a18.84,18.84,0,0,1-1.767,12.43l-.5-1.027c.7-2.972,1.705-8.252,2.262-11.4" transform="translate(-164.067 -208.611)"/></g></g><g transform="translate(8.032 84.166)"><g transform="translate(38.963 55.565)"><path class="q" d="M188.3,415.984l-4.177,12.571s11.375,8.467,10.829,10.865L170.289,432.2l5.7-19.854Z" transform="translate(-170.289 -412.343)"/><g class="m"><path class="t" d="M188.3,415.984l-4.177,12.571s11.375,8.467,10.829,10.865L170.289,432.2l5.7-19.854Z" transform="translate(-170.289 -412.343)"/></g><g transform="translate(5.487 12.9)"><path class="e" d="M183.628,441.277a1.049,1.049,0,0,0-1.033.945,1.008,1.008,0,0,0,.928,1.032,1.107,1.107,0,0,0,1.089-1.007,1.047,1.047,0,0,0-1.085-.967" transform="translate(-182.593 -441.268)"/></g><g class="u" transform="translate(0 17.875)"><path class="l" d="M170.289,454.4l.653-1.979,23.4,7.666s.958.8.607,1.536Z" transform="translate(-170.289 -452.423)"/></g><g transform="translate(11.625 15.906)"><path class="d" d="M199,448.305c-.039.119-.657,0-1.363.211-.711.2-1.17.628-1.267.547-.1-.056.286-.723,1.146-.967S199.061,448.2,199,448.305Z" transform="translate(-196.356 -448.009)"/></g><g transform="translate(14.407 17.91)"><path class="d" d="M204.732,452.622c-.007.124-.588.177-1.147.566-.57.373-.834.894-.953.854-.119-.014,0-.744.708-1.215S204.763,452.506,204.732,452.622Z" transform="translate(-202.593 -452.501)"/></g><g transform="translate(17.047 19.736)"><path class="d" d="M208.573,458.417c-.117-.007-.108-.657.394-1.226s1.143-.667,1.164-.551c.039.119-.43.366-.836.839S208.7,458.44,208.573,458.417Z" transform="translate(-208.512 -456.596)"/></g><g transform="translate(12.303 12.357)"><path class="d" d="M200.478,440.926c-.083.1-.586-.233-1.281-.386s-1.288-.094-1.32-.215.6-.4,1.419-.21S200.565,440.849,200.478,440.926Z" transform="translate(-197.875 -440.051)"/></g></g><g transform="translate(51.334 64.738)"><path class="t" d="M210.863,432.99l-.52,13.236s13.279,4.974,13.421,7.43l-25.7-.087-.036-20.657Z" transform="translate(-198.028 -432.912)"/><g transform="translate(3.62 12.131)"><path class="e" d="M206.9,460.156a1.049,1.049,0,0,0-.73,1.2,1.008,1.008,0,0,0,1.178.734,1.107,1.107,0,0,0,.766-1.27,1.047,1.047,0,0,0-1.31-.628" transform="translate(-206.145 -460.113)"/></g><g class="u" transform="translate(0.036 18.575)"><path class="l" d="M198.108,476.643l.078-2.082,24.613.862s1.142.5,1.01,1.307Z" transform="translate(-198.108 -474.561)"/></g><g transform="translate(10.385 13.068)"><path class="d" d="M223.66,462.33c0,.125-.632.18-1.251.582-.629.385-.949.928-1.065.878-.116-.025.074-.774.832-1.247S223.687,462.215,223.66,462.33Z" transform="translate(-221.313 -462.212)"/></g><g transform="translate(13.714 14.258)"><path class="d" d="M230.488,464.932c.029.122-.516.334-.944.863-.444.517-.553,1.09-.678,1.085-.118.019-.2-.716.342-1.364S230.486,464.813,230.488,464.932Z" transform="translate(-228.779 -464.881)"/></g><g transform="translate(16.795 15.378)"><path class="d" d="M235.835,469.556c-.114.026-.287-.6.038-1.288s.912-.958.965-.853c.07.1-.312.471-.57,1.038S235.959,469.544,235.835,469.556Z" transform="translate(-235.685 -467.394)"/></g><g transform="translate(9.843 9.7)"><path class="d" d="M222.771,455.117c-.053.114-.628-.061-1.338-.015s-1.263.268-1.329.16c-.072-.091.468-.554,1.3-.6S222.833,455.019,222.771,455.117Z" transform="translate(-220.099 -454.662)"/></g></g><g transform="translate(12.16)"><path class="b" d="M131.416,287.754s30.8,8.008,34.628,13.339c3.232,4.507-13.728,50.563-13.728,50.563l-13.38-1.153,5.767-38.526-34.512-10.971,5.214-13.252Z" transform="translate(-110.191 -287.754)"/></g><g transform="translate(0 1.714)"><path class="b" d="M118.516,297.1s31.49,7.652,34.673,13.089c1.486,2.538.512,10.867-.043,14.8-.374,2.649-5.942,39.718-5.942,39.718H133.592l.3-41.869h0l-32.719-6.6s-17.563,1.337-18.246-6.153l7.329-9.934,17.3-8.553Z" transform="translate(-82.925 -291.598)"/></g><g transform="translate(19.143 6.25)"><path class="q" d="M139.9,301.769s.156.037.458.12l1.336.372,5.135,1.437c2.229.625,4.958,1.386,8.112,2.324s6.729,2.068,10.6,3.536q2.911,1.088,6.011,2.477l1.562.708a15.519,15.519,0,0,1,1.534.852,10.078,10.078,0,0,1,1.431,1.078,5.167,5.167,0,0,1,1.146,1.432c1.063,4.826.419,10.1-.368,15.492-.344,2.716-.786,5.486-1.2,8.321l-1.3,8.672-2.73,18.237q-.266,1.773-.529,3.529l-.015.1h-.1l-13.612,0h-.115v-.115c.123-15.87.234-30.24.323-41.869l.071.087-23.244-4.726-6.346-1.3-1.652-.346c-.372-.079-.562-.127-.562-.127s.193.03.567.1l1.657.321,6.356,1.257,23.259,4.649.071.014v.073c-.075,11.629-.169,26-.272,41.869l-.114-.115,13.612,0-.115.1.528-3.529c.937-6.246,1.851-12.345,2.734-18.235q.663-4.417,1.3-8.671c.419-2.834.863-5.6,1.211-8.318q.275-2.034.543-4.016a35.523,35.523,0,0,0,.343-3.919q.07-1.939,0-3.823c-.025-.627-.062-1.249-.116-1.863a4.609,4.609,0,0,0-.359-1.756,5,5,0,0,0-1.1-1.378,9.921,9.921,0,0,0-1.4-1.061,15.181,15.181,0,0,0-1.514-.844l-1.555-.709q-3.09-1.389-6-2.488c-3.866-1.476-7.438-2.6-10.582-3.565s-5.873-1.724-8.1-2.362l-5.123-1.478-1.329-.394C140.05,301.821,139.9,301.769,139.9,301.769Z" transform="translate(-125.848 -301.769)"/></g></g><g transform="translate(81.715 68.176)"><path class="r" d="M251.26,255.2c.2-.3,2.8-3.3,3.5-3.3a2.781,2.781,0,0,1,1.5.8,2.594,2.594,0,0,1,1.5-.2c.6.2,3.4,2.6,3.4,3.5v1.5a3.917,3.917,0,0,1,0,1.2c-.1.7-1.8,1.9-1.8,1.9h-9.6s-1.836-1.237-1.606-2.4S251.26,255.2,251.26,255.2Z" transform="translate(-248.138 -251.902)"/><g transform="translate(6.537 0.8)"><path class="s" d="M264.383,253.7a3.883,3.883,0,0,1,.6.341l1.588,1a4.96,4.96,0,0,1,.524.359,1.379,1.379,0,0,1,.388.6,2.913,2.913,0,0,1,.087.74l.04.764c.051,1.051.106,2.2.165,3.4q.013.276.025.546l0,.095-.092.023-.588.145-.015,0h-.015a1.249,1.249,0,0,1-.753-.283,2.1,2.1,0,0,1-.485-.582,5.117,5.117,0,0,1-.5-1.292,11.572,11.572,0,0,1-.331-2.308l.053.072-1.679-.663a3.683,3.683,0,0,1-.6-.27,3.68,3.68,0,0,1,.632.187l1.7.595.048.017,0,.055a12.191,12.191,0,0,0,.369,2.261,5.012,5.012,0,0,0,.494,1.232,1.319,1.319,0,0,0,1.051.748l-.029,0,.587-.147-.088.117c-.008-.18-.016-.362-.025-.545-.052-1.206-.1-2.354-.147-3.405q-.015-.391-.03-.765a2.786,2.786,0,0,0-.067-.691,1.2,1.2,0,0,0-.326-.526,5.05,5.05,0,0,0-.493-.353l-1.547-1.063A3.964,3.964,0,0,1,264.383,253.7Z" transform="translate(-262.795 -253.695)"/></g><g transform="translate(1.625 4.753)"><path class="s" d="M251.783,266.17a3.121,3.121,0,0,1,.643-.087l1.75-.14h.012l.016,0a20.027,20.027,0,0,0,1.977.357,11.129,11.129,0,0,0,1.153.091,1.283,1.283,0,0,0,1.056-.3.922.922,0,0,0,.167-.587c0-.219-.032-.436-.038-.676a.828.828,0,0,0-.262-.491,2.036,2.036,0,0,0-.475-.357,3.629,3.629,0,0,0-2.059-.364,1.61,1.61,0,0,1-1.362-.545.72.72,0,0,1-.179-.513,1.619,1.619,0,0,0,.25.457,1.551,1.551,0,0,0,1.288.438,3.689,3.689,0,0,1,2.165.341,2.2,2.2,0,0,1,.531.389,1.02,1.02,0,0,1,.331.645c.006.206.045.438.042.68a1.142,1.142,0,0,1-.216.729,1.032,1.032,0,0,1-.6.344,2.668,2.668,0,0,1-.64.041,10.881,10.881,0,0,1-1.176-.1,17.315,17.315,0,0,1-1.993-.4l.027,0-1.755.063A3.168,3.168,0,0,1,251.783,266.17Z" transform="translate(-251.783 -262.56)"/></g><g transform="translate(11.41 4.884)"><path class="s" d="M273.727,266.289a15.9,15.9,0,0,1,.773-1.742,7.807,7.807,0,0,1,.886-1.694,8.08,8.08,0,0,1-.675,1.791A5.319,5.319,0,0,1,273.727,266.289Z" transform="translate(-273.723 -262.853)"/></g></g><g transform="translate(71.395 45.927)"><path class="d" d="M225.9,234.614l34.647.459L271.7,203.792a1.312,1.312,0,0,0-.693-1.664h0a1.312,1.312,0,0,0-1.762.742l-10.991,29.62-32.361.321a.9.9,0,0,0-.892.9h0A.9.9,0,0,0,225.9,234.614Z" transform="translate(-224.999 -202.015)"/></g><g transform="translate(20.468 39.364)"><path class="t" d="M111,203.238s16.927,23.042,19.574,23.042H155.3v-9.369L136.6,212.5s-9.21-19.057-11.246-21.5-7.486-5.726-11.559-2.061S111,203.238,111,203.238Z" transform="translate(-110.808 -187.298)"/><g transform="translate(44.476 21.437)"><path class="r" d="M210.533,244.446l4.051-.325s.088-1.5.973-2.035.8-1.68,1.326-1.592a2.308,2.308,0,0,0,.885,0l3.361-2.826,2.83-1.857,2.211-.442s1.327.354,0,1.592l-1.415.8-1.238,1.238,2.83-1.389a.963.963,0,0,1,.835-.007,12.005,12.005,0,0,1,2.172,1.219.613.613,0,0,1,0,.884l1.238,1.061s.265,1.415-1.15,1.061l-1.15-.265-1.5,1.5s5.13-1.061,5.484-.884a1.008,1.008,0,0,1,0,1.68c-.8.707-3.892.531-4.6,1.238s-5.386,4.98-6.535,5.245-10.588,2.57-10.588,2.57Z" transform="translate(-210.533 -235.365)"/><g transform="translate(15.147 3.648)"><path class="s" d="M249.409,245.292a6.1,6.1,0,0,1-.7-.494c-.212-.155-.465-.339-.75-.533-.142-.1-.294-.2-.453-.293a1.023,1.023,0,0,0-.474-.194,2.884,2.884,0,0,0-.989.41c-.3.165-.574.322-.8.454a3.926,3.926,0,0,1-.749.412,2.656,2.656,0,0,1,.66-.55c.217-.152.482-.325.784-.5.152-.089.311-.178.483-.268a1.453,1.453,0,0,1,.6-.187.513.513,0,0,1,.184.021,1.391,1.391,0,0,1,.155.063c.093.047.179.1.261.148.164.1.317.208.458.313.284.207.529.406.73.579C249.219,245.013,249.437,245.267,249.409,245.292Z" transform="translate(-244.497 -243.544)"/></g><g transform="translate(5.818 4.782)"><path class="s" d="M225.4,246.094c.04.054-.383.417-.871.89s-.893.866-.943.819a3.025,3.025,0,0,1,.782-.987A2.62,2.62,0,0,1,225.4,246.094Z" transform="translate(-223.577 -246.088)"/></g></g><g transform="translate(0.19 3.701)"><path class="d" d="M125.588,195.6a11.241,11.241,0,0,1,.979,1.426c.586.967,1.409,2.409,2.4,4.281,1.994,3.739,4.738,9.154,7.953,15.752l-.065-.052,18.707,4.394.088.021v.09c0,3.014,0,6.157,0,9.369v.116h-1.239l-21.018-.009-2.391,0a1.909,1.909,0,0,1-.311-.014,1.161,1.161,0,0,1-.3-.1,3.442,3.442,0,0,1-.517-.31,10.041,10.041,0,0,1-.9-.742,43.463,43.463,0,0,1-3.084-3.224c-1.9-2.161-3.581-4.242-5.105-6.152-3.039-3.827-5.416-6.986-7.051-9.175l-1.866-2.532-.478-.665c-.107-.151-.156-.231-.156-.231s.062.071.175.217l.5.651,1.9,2.506c1.656,2.172,4.053,5.316,7.107,9.127,1.531,1.9,3.221,3.976,5.121,6.127a43.541,43.541,0,0,0,3.076,3.2,9.913,9.913,0,0,0,.883.725,3.281,3.281,0,0,0,.484.289.972.972,0,0,0,.528.095l2.391,0,21.018-.009h1.123l-.116.116c0-3.212,0-6.355,0-9.369l.088.111-18.7-4.428-.045-.01-.02-.042c-3.2-6.6-5.915-12.032-7.877-15.784-.977-1.878-1.784-3.327-2.353-4.3-.293-.482-.509-.857-.684-1.09S125.588,195.6,125.588,195.6Z" transform="translate(-111.234 -195.596)"/></g><g transform="translate(1.709 1.273)"><path class="d" d="M125.015,191.074c-.016.04-.579-.189-1.527-.4a12.27,12.27,0,0,0-1.684-.255,12,12,0,0,0-4.132.39,12.225,12.225,0,0,0-1.607.566c-.891.389-1.4.719-1.424.682a1.514,1.514,0,0,1,.341-.259,7.876,7.876,0,0,1,1.015-.573,10.548,10.548,0,0,1,1.617-.623,11.122,11.122,0,0,1,4.209-.4,10.569,10.569,0,0,1,1.7.309,7.882,7.882,0,0,1,1.105.373A1.532,1.532,0,0,1,125.015,191.074Z" transform="translate(-114.64 -190.153)"/></g><g transform="translate(22.384 25.568)"><path class="d" d="M161,248.522a8.521,8.521,0,0,1,3.1-3.893c.045.054-.808.783-1.66,1.86S161.065,248.554,161,248.522Z" transform="translate(-160.998 -244.627)"/></g><g transform="translate(21.817 25.324)"><path class="d" d="M159.729,245.346a4.9,4.9,0,0,1,3.449-1.234c.006.07-.818.157-1.766.5S159.769,245.4,159.729,245.346Z" transform="translate(-159.727 -244.079)"/></g></g><g transform="translate(0.346 78.561)"><g transform="translate(0 28.393)"><path class="q" d="M123.524,345.947a3.122,3.122,0,0,0-2.012-1.327c-15.578-5.023-32.293-7.43-48.4-4.5a12.011,12.011,0,0,0-5.474,2.044C66.1,343.388,65.177,345.6,66,347.387l3.306,1.059a210.821,210.821,0,0,1,49.6.351,6.39,6.39,0,0,0,3.3-.158A2.158,2.158,0,0,0,123.524,345.947Z" transform="translate(-65.692 -338.849)"/></g><g transform="translate(0.714 28.594)"><path class="d" d="M106.331,341.045a.356.356,0,0,1-.1-.006l-.3-.039-1.154-.173c-1-.16-2.448-.391-4.248-.6a101.183,101.183,0,0,0-14.119-.673c-1.382.027-2.729.093-4.027.2s-2.549.17-3.75.279a2.5,2.5,0,0,1-.465-.01,2.36,2.36,0,0,0-.422-.019,5.133,5.133,0,0,0-.836.127l-1.616.337c-1.037.232-1.994.488-2.852.771a16.421,16.421,0,0,0-3.865,1.8c-.424.274-.741.507-.949.672l-.241.185a.362.362,0,0,1-.087.057s.022-.028.072-.075l.227-.2a9.483,9.483,0,0,1,.929-.711,15.69,15.69,0,0,1,3.863-1.88,29.523,29.523,0,0,1,2.862-.8l1.615-.348a5.343,5.343,0,0,1,.869-.136,2.527,2.527,0,0,1,.457.018,2.34,2.34,0,0,0,.427.006c1.185-.114,2.449-.191,3.748-.293s2.652-.178,4.037-.205a94.05,94.05,0,0,1,14.145.743c1.8.227,3.246.483,4.243.67l1.148.215.3.062A.35.35,0,0,1,106.331,341.045Z" transform="translate(-67.293 -339.301)"/></g><path class="q" d="M66.406,280.14l26.551.926a.66.66,0,0,1,.631.754l-3.822,31.844h5.983l3.089-35.054A2.056,2.056,0,0,0,96.87,276.3l-31.178-1.119Z" transform="translate(-65.692 -275.186)"/></g></g><g transform="translate(93.294 140.837)"><g transform="translate(98.748 2.848)"><path class="q" d="M378.547,281.089h-4.161v.922l9.162,87.562h4.273Z" transform="translate(-374.386 -281.089)"/></g><g transform="translate(0)"><g transform="translate(1.23 2.815)"><g transform="translate(0.128 0.033)"><path class="q" d="M164.67,281.089h4.161v.942l-8.541,87.513h-4.273Z" transform="translate(-156.016 -281.089)"/></g><path class="d" d="M164.51,281.048s-.01.159-.037.461-.069.752-.122,1.336c-.111,1.176-.274,2.9-.485,5.127l-1.811,18.876c-1.548,15.95-3.694,38.05-6.084,62.666l-.116-.127h4.273l-.116.1,8.621-87.505v0c0-.436,0-.695,0-.941l.033.033-3.141-.019-.766-.008c-.169,0-.255-.007-.255-.007s.078,0,.244-.006l.759-.008,3.158-.019h.033v.033c0,.247,0,.505,0,.941v0l-8.462,87.521-.01.1h-4.507l.012-.128c2.429-24.645,4.611-46.769,6.184-62.737.795-7.968,1.436-14.4,1.879-18.844.224-2.212.4-3.929.516-5.1l.138-1.32C164.49,281.2,164.51,281.048,164.51,281.048Z" transform="translate(-155.729 -281.015)"/></g><rect class="q" width="119.084" height="3.77"/><g transform="translate(0.39 3.654)"><path class="d" d="M259.864,283.013c0,.064-23.735.116-53.007.116s-53.012-.052-53.012-.116,23.73-.116,53.012-.116S259.864,282.949,259.864,283.013Z" transform="translate(-153.845 -282.897)"/></g></g></g><g transform="translate(176.46 70.615)"><g transform="translate(0)"><rect class="v" width="80.789" height="77.784" rx="8.41"/></g><g transform="translate(5.646 8.217)"><g transform="translate(0 45.07)"><rect class="d" width="2.651" height="0.764"/></g><g transform="translate(5.998 49.155)"><rect class="d" width="3.391" height="0.764"/></g><g transform="translate(17.802 49.155)"><rect class="d" width="3.391" height="0.764"/></g><g transform="translate(29.606 49.155)"><rect class="d" width="3.391" height="0.764"/></g><g transform="translate(41.41 49.155)"><rect class="d" width="3.391" height="0.764"/></g><g transform="translate(53.214 49.155)"><rect class="d" width="3.391" height="0.764"/></g><g transform="translate(65.018 49.155)"><rect class="d" width="3.391" height="0.764"/></g><g transform="translate(0 34.865)"><rect class="d" width="2.651" height="0.764"/></g><g transform="translate(0 15.659)"><rect class="d" width="2.651" height="0.764"/></g><g transform="translate(0 6.007)"><rect class="d" width="2.651" height="0.764"/></g><g transform="translate(0.134 25.262)"><rect class="d" width="2.651" height="0.764"/></g><g transform="translate(3.91)"><path class="d" d="M433.487,312.563s-.1.009-.284.013l-.834.013-3.208.023-11.8.04-38.928.037h-9.349v-.124c.017-13.017.032-24.472.042-32.683.016-4.095.029-7.38.037-9.652.009-1.124.016-2,.022-2.6,0-.289.008-.512.011-.673s.012-.228.012-.228.008.077.012.228.006.384.011.673c0,.6.012,1.474.021,2.6.009,2.272.022,5.557.038,9.652.011,8.211.026,19.666.042,32.683l-.124-.124h9.225l38.928.037,11.8.04,3.208.024.834.012C433.391,312.554,433.487,312.563,433.487,312.563Z" transform="translate(-369.084 -266.729)"/></g><g transform="translate(6.599 25.519)"><path class="d" d="M437.116,319.728c0,.069-13.983.126-31.229.126s-31.232-.056-31.232-.126,13.98-.125,31.232-.125S437.116,319.659,437.116,319.728Z" transform="translate(-374.655 -319.603)"/></g><g transform="translate(6.599 15.915)"><path class="d" d="M437.116,299.831c0,.069-13.983.125-31.229.125s-31.232-.056-31.232-.125,13.98-.126,31.232-.126S437.116,299.761,437.116,299.831Z" transform="translate(-374.655 -299.705)"/></g><g transform="translate(6.599 6.264)"><path class="d" d="M437.116,279.832c0,.07-13.983.126-31.229.126s-31.232-.056-31.232-.126,13.98-.125,31.232-.125S437.116,279.763,437.116,279.832Z" transform="translate(-374.655 -279.707)"/></g><g transform="translate(6.599 35.121)"><path class="d" d="M437.116,339.626c0,.069-13.983.125-31.229.125s-31.232-.056-31.232-.125,13.98-.126,31.232-.126S437.116,339.556,437.116,339.626Z" transform="translate(-374.655 -339.5)"/></g><g transform="translate(7.243 0.708)"><path class="w" d="M375.989,311.255v-8.52l5.31-8.244,3.6,2.765,7.4-11.49,4.362,3.072,6.069-10.6,4.931,4.017,7.4-14.06,7.966,15.715,6.448-7.863,7.586-2.171v37.378Z" transform="translate(-375.989 -268.196)"/></g><g transform="translate(7.243 3.294)"><path class="d" d="M437.806,273.624a.657.657,0,0,1-.134.01l-.4.01-1.54.018-5.821.033.055-.027-6.238,8.154-.03.039h-.049l-15.618.022.1-.058-6.567,10.932-6.447,10.715-.094.157-.107-.148-8.46-11.633.169-.005-7.718,12.024-2.153,3.324-.571.868c-.13.195-.2.291-.2.291s.056-.107.178-.308l.546-.884,2.105-3.354,7.644-12.072.081-.127.089.122,8.49,11.612-.2.009,6.439-10.72,6.574-10.927.036-.059h.068l15.618.022-.079.039,6.284-8.118.022-.028h.034l5.821.033,1.54.018.4.009A.767.767,0,0,1,437.806,273.624Z" transform="translate(-375.989 -273.554)"/></g><g transform="translate(19.164 23.678)"><path class="d" d="M401.887,316.367a.6.6,0,1,1-.6-.577A.589.589,0,0,1,401.887,316.367Z" transform="translate(-400.689 -315.79)"/></g><g transform="translate(37.179 13.439)"><path class="d" d="M439.214,295.151a.6.6,0,1,1-.6-.577A.588.588,0,0,1,439.214,295.151Z" transform="translate(-438.016 -294.574)"/></g><g transform="translate(51.184 10.923)"><path class="d" d="M468.232,289.938a.6.6,0,1,1-.6-.577A.588.588,0,0,1,468.232,289.938Z" transform="translate(-467.034 -289.361)"/></g></g><g transform="translate(11.644 63.85)"><ellipse class="l" cx="3.875" cy="3.731" rx="3.875" ry="3.731"/></g><g transform="translate(25.144 65.082)"><rect class="l" width="45.52" height="1.396"/></g><g transform="translate(25.144 68.57)"><rect class="l" width="18.9" height="1.396"/></g></g><g transform="translate(166.848 127.68)"><path class="f" d="M384.633,5167.123a17.648,17.648,0,1,1-20.074-14.78A17.628,17.628,0,0,1,384.633,5167.123Z" transform="translate(-349.533 -5152.143)"/><g transform="translate(4.2 4.19)"><path class="x" d="M385.175,5172.435a13.448,13.448,0,1,1-15.3-11.263A13.433,13.433,0,0,1,385.175,5172.435Z" transform="translate(-358.428 -5161.02)"/></g><g transform="translate(3.953 3.68)"><path class="y" d="M384.834,5171.446a7.9,7.9,0,0,1-.593-1.546,14.291,14.291,0,0,0-2.148-3.846,13.831,13.831,0,0,0-2.125-2.15,13.45,13.45,0,0,0-2.948-1.8,13.126,13.126,0,0,0-3.662-1.033,13.114,13.114,0,0,0-2.012-.108,13.117,13.117,0,0,0-4.071.745,13.111,13.111,0,0,0-1.844.813,13.181,13.181,0,0,0-3.059,2.263,13.471,13.471,0,0,0-2.119,2.729,13.787,13.787,0,0,0-1.225,2.765,14.269,14.269,0,0,0-.646,4.355,7.864,7.864,0,0,1-.006,1.655,3.953,3.953,0,0,1-.394-1.631,12.446,12.446,0,0,1,.346-4.58,13.49,13.49,0,0,1,3.368-5.957,13.7,13.7,0,0,1,3.254-2.483,13.667,13.667,0,0,1,1.984-.891,13.749,13.749,0,0,1,4.391-.8,13.616,13.616,0,0,1,2.171.131,13.092,13.092,0,0,1,2.048.452,12.923,12.923,0,0,1,1.874.719,13.494,13.494,0,0,1,5.26,4.378,12.454,12.454,0,0,1,1.947,4.16A3.954,3.954,0,0,1,384.834,5171.446Z" transform="translate(-357.905 -5159.937)"/></g><g transform="translate(11.662 8.229)"><path class="y" d="M382.92,5186.659l.383,2.311-2.064.341-.372-2.249a9.914,9.914,0,0,1-5.411-.8l.718-2.706a8.458,8.458,0,0,0,4.246.8l-.571-3.447c-2.383-.177-5.067-.517-5.556-3.468-.362-2.187.916-4.329,4.115-5.24l-.379-2.29,2.063-.342.373,2.25a9.456,9.456,0,0,1,4.4.565l-.611,2.709a8.578,8.578,0,0,0-3.335-.55l.581,3.508c2.379.157,5.023.5,5.5,3.413C387.355,5183.614,386.095,5185.731,382.92,5186.659Zm-3.573-8.779-.486-2.93c-1.052.429-1.386,1.1-1.274,1.78C377.707,5177.452,378.391,5177.742,379.347,5177.88Zm4.372,4.386c-.119-.723-.783-1.015-1.721-1.179l.471,2.848C383.463,5183.538,383.829,5182.926,383.719,5182.266Z" transform="translate(-374.233 -5169.573)"/></g></g></g></g></svg>