<svg xmlns="http://www.w3.org/2000/svg" width="270.955" height="196.036" viewBox="0 0 270.955 196.036"><defs><style>.a{fill:#f5f5f5;}.b{fill:#ebebeb;}.c{fill:#e0e0e0;}.d{fill:#5e6178;}.e{fill:#fff;}.f{fill:#344154;}.g{fill:#fafafa;}.h{fill:#d9a171;}.i{opacity:0.3;}.j{fill:#ffbe9d;}.k{fill:#eb996e;}.l{fill:#6595bf;}.m{fill:#f2e9e4;}.n{opacity:0.1;}.o{fill:#636363;}.p{fill:#8e8e8e;}</style></defs><g transform="translate(-346.059 -2999.365)"><g transform="translate(364.558 3016.493)"><path class="a" d="M394.684,3362.9v18.483H391.6v2.007h3.085v12.375h57.7V3384.5h-4.288v-2.448h4.276v-3.672h1.9v-1.673h-2.256V3362.9Z" transform="translate(-391.517 -3223.982)"/><path class="b" d="M503.02,3362.952v32.6H518.34V3384.3h-4.276v-2.248l4.276.077v-3.68l1.934,0-.037-1.9-2.256-.053v-13.6Z" transform="translate(-457.477 -3223.983)"/><path class="c" d="M438.031,3412.173c0,.115-10.441.2-23.314.2s-23.318-.089-23.318-.2,10.437-.2,23.318-.2S438.031,3412.058,438.031,3412.173Z" transform="translate(-391.399 -3253.031)"/><path class="c" d="M438.031,3407.572c0,.115-10.441.2-23.314.2s-23.318-.089-23.318-.2,10.437-.2,23.318-.2S438.031,3407.458,438.031,3407.572Z" transform="translate(-391.399 -3250.308)"/><path class="c" d="M445.4,3395.183c0,.114-10.441.208-23.314.208s-23.318-.094-23.318-.208,10.437-.2,23.318-.2S445.4,3395.072,445.4,3395.183Z" transform="translate(-395.762 -3242.973)"/><path class="c" d="M446.081,3428.937c0,.111-10.441.2-23.318.2s-23.314-.093-23.314-.2,10.437-.208,23.314-.208S446.081,3428.822,446.081,3428.937Z" transform="translate(-396.164 -3262.953)"/><path class="b" d="M679.859,3042.4a17.129,17.129,0,0,1,4.174-1.816l.861-4.133,6.981-.122,1,4.08a17.008,17.008,0,0,1,4.235,1.665l3.521-2.293,5.023,4.851-2.167,3.607a17.036,17.036,0,0,1,1.816,4.178l4.133.856.122,6.981-4.1,1.008a17.067,17.067,0,0,1-1.664,4.235l2.309,3.529-4.86,5.023-3.607-2.187a17.141,17.141,0,0,1-4.178,1.812l-.857,4.134-6.981.122-1.008-4.1a17.034,17.034,0,0,1-4.235-1.665l-3.529,2.313-5.023-4.851,2.187-3.607a17.079,17.079,0,0,1-1.812-4.174l-4.133-.86-.122-6.982,4.1-1a17.019,17.019,0,0,1,1.656-4.236l-2.313-3.53,4.851-5.023,3.607,2.187Zm3.721,9.3a7.54,7.54,0,1,0,.016-.016Z" transform="translate(-555.113 -3030.657)"/><path class="b" d="M782.056,3025.97a10.1,10.1,0,0,1,2.448-1.061l.5-2.411,4.08-.07.567,2.4a10.171,10.171,0,0,1,2.473.971l2.04-1.346,2.962,2.823-1.273,2.105a10.033,10.033,0,0,1,1.057,2.448l2.411.5.069,4.08-2.391.587a9.877,9.877,0,0,1-.971,2.448l1.35,2.04-2.832,2.929-2.105-1.277A9.886,9.886,0,0,1,790,3044.2l-.5,2.407-4.08.073-.583-2.391a10.075,10.075,0,0,1-2.473-.971l-2.04,1.347-2.934-2.827,1.277-2.106a9.889,9.889,0,0,1-1.057-2.448l-2.411-.5-.073-4.08,2.378-.531a9.926,9.926,0,0,1,.975-2.448l-1.35-2.04,2.827-2.929,2.106,1.277Zm2.171,5.423a4.37,4.37,0,1,0,6.181-.106,4.37,4.37,0,0,0-6.181.106Z" transform="translate(-618.557 -3022.428)"/><path class="b" d="M928.091,3177.505a13.334,13.334,0,0,1,3.244-1.412l.665-3.207,5.423-.1.783,3.186a13.249,13.249,0,0,1,3.288,1.294l2.738-1.8,3.9,3.766-1.7,2.8a13.4,13.4,0,0,1,1.411,3.264l3.207.669.1,5.386-3.182.779a13.1,13.1,0,0,1-1.306,3.3l1.8,2.741-3.766,3.9-2.8-1.7a13.151,13.151,0,0,1-3.24,1.407l-.669,3.211-5.422.094-.779-3.183a13.38,13.38,0,0,1-3.289-1.293l-2.742,1.8-3.9-3.766,1.7-2.8a13.161,13.161,0,0,1-1.408-3.244l-3.22-.66-.094-5.423,3.183-.783a13.554,13.554,0,0,1,1.293-3.289l-1.8-2.738,3.766-3.905,2.8,1.7Zm2.889,7.222a5.818,5.818,0,1,0,8.23-.143,5.818,5.818,0,0,0-8.23.143Z" transform="translate(-703.631 -3111.439)"/></g><g transform="translate(346.059 3188.487)"><path class="d" d="M612.083,3444.074c0,.057-59.57.106-133.012.106s-133.012-.049-133.012-.106,59.57-.106,133.012-.106S612.083,3444.014,612.083,3444.074Z" transform="translate(-346.059 -3443.969)"/></g><g transform="translate(368.981 3012.956)"><rect class="e" width="145.832" height="114.113"/><rect class="d" width="146.379" height="9.49" transform="translate(0.029)"/><rect class="f" width="8.144" height="104.623" transform="translate(0.029 9.49)"/><rect class="f" width="146.379" height="6.287" transform="translate(0.029 9.49)"/><path class="e" d="M409.335,3023.923a.2.2,0,0,1-.143-.057.2.2,0,0,1,0-.288h0l4.647-4.725a.2.2,0,0,1,.283,0l0,0a.2.2,0,0,1,0,.289h0l-4.643,4.72A.206.206,0,0,1,409.335,3023.923Z" transform="translate(-406.32 -3016.738)"/><path class="e" d="M413.968,3023.951a.191.191,0,0,1-.143-.061l-4.725-4.652a.2.2,0,1,1,.286-.293l4.725,4.647a.2.2,0,0,1,0,.289h0A.191.191,0,0,1,413.968,3023.951Z" transform="translate(-406.264 -3016.794)"/><path class="d" d="M550.9,3052.275c0,.057-32.139.106-71.778.106s-71.786-.049-71.786-.106,32.135-.106,71.786-.106S550.9,3052.221,550.9,3052.275Z" transform="translate(-405.259 -3036.497)"/><path class="d" d="M422.116,3142.946c-.057,0-.106-23.082-.106-51.549s.049-51.548.106-51.548.106,23.073.106,51.548S422.173,3142.946,422.116,3142.946Z" transform="translate(-413.944 -3029.204)"/><path class="d" d="M442.6,3044.875a29.838,29.838,0,0,1,0-5.027,29.821,29.821,0,0,1,0,5.027Z" transform="translate(-426.059 -3029.204)"/><path class="d" d="M463.078,3044.875a29.829,29.829,0,0,1,0-5.027,29.847,29.847,0,0,1,0,5.027Z" transform="translate(-438.185 -3029.204)"/><path class="d" d="M483.566,3044.875a29.829,29.829,0,0,1,0-5.027,29.829,29.829,0,0,1,0,5.027Z" transform="translate(-450.313 -3029.204)"/><path class="d" d="M504.048,3044.875a29.829,29.829,0,0,1,0-5.027,29.829,29.829,0,0,1,0,5.027Z" transform="translate(-462.439 -3029.204)"/><path class="d" d="M524.536,3044.875a29.812,29.812,0,0,1,0-5.027,29.847,29.847,0,0,1,0,5.027Z" transform="translate(-474.566 -3029.204)"/><path class="d" d="M545.018,3044.875a29.847,29.847,0,0,1,0-5.027,29.8,29.8,0,0,1,0,5.027Z" transform="translate(-486.692 -3029.204)"/><path class="d" d="M565.506,3044.875a29.812,29.812,0,0,1,0-5.027,29.812,29.812,0,0,1,0,5.027Z" transform="translate(-498.82 -3029.204)"/><path class="d" d="M585.988,3044.875a29.847,29.847,0,0,1,0-5.027,29.812,29.812,0,0,1,0,5.027Z" transform="translate(-510.946 -3029.204)"/><path class="d" d="M606.476,3044.875a29.812,29.812,0,0,1,0-5.027,29.829,29.829,0,0,1,0,5.027Z" transform="translate(-523.074 -3029.204)"/><path class="d" d="M626.958,3044.875a29.829,29.829,0,0,1,0-5.027,29.864,29.864,0,0,1,0,5.027Z" transform="translate(-535.2 -3029.204)"/><path class="d" d="M647.446,3044.875a29.847,29.847,0,0,1,0-5.027,29.812,29.812,0,0,1,0,5.027Z" transform="translate(-547.328 -3029.204)"/><path class="d" d="M667.928,3044.875a29.812,29.812,0,0,1,0-5.027,29.847,29.847,0,0,1,0,5.027Z" transform="translate(-559.454 -3029.204)"/><path class="d" d="M688.41,3044.875a28.679,28.679,0,0,1,0-5.027,29.864,29.864,0,0,1,0,5.027Z" transform="translate(-571.576 -3029.204)"/><path class="d" d="M708.9,3044.875a29.864,29.864,0,0,1,0-5.027,29.8,29.8,0,0,1,0,5.027Z" transform="translate(-583.707 -3029.204)"/><path class="d" d="M729.378,3044.875a29.812,29.812,0,0,1,0-5.027,28.726,28.726,0,0,1,0,5.027Z" transform="translate(-595.831 -3029.204)"/><path class="d" d="M749.868,3044.875a29.829,29.829,0,0,1,0-5.027,29.812,29.812,0,0,1,0,5.027Z" transform="translate(-607.961 -3029.204)"/><path class="d" d="M413.432,3069.686a43.83,43.83,0,0,1-6.092,0,44.032,44.032,0,0,1,6.092,0Z" transform="translate(-405.259 -3046.797)"/><path class="d" d="M413.432,3088.566a43.729,43.729,0,0,1-6.092,0,43.931,43.931,0,0,1,6.092,0Z" transform="translate(-405.259 -3057.973)"/><path class="d" d="M413.432,3107.447a43.931,43.931,0,0,1-6.092,0,43.629,43.629,0,0,1,6.092,0Z" transform="translate(-405.259 -3069.151)"/><path class="d" d="M413.432,3126.324a43.729,43.729,0,0,1-6.092,0,43.931,43.931,0,0,1,6.092,0Z" transform="translate(-405.259 -3080.325)"/><path class="d" d="M413.432,3145.2a43.629,43.629,0,0,1-6.092,0,43.83,43.83,0,0,1,6.092,0Z" transform="translate(-405.259 -3091.498)"/><path class="d" d="M413.432,3164.126a43.83,43.83,0,0,1-6.092,0,43.931,43.931,0,0,1,6.092,0Z" transform="translate(-405.259 -3102.705)"/><path class="d" d="M413.432,3182.954a43.629,43.629,0,0,1-6.092,0,43.83,43.83,0,0,1,6.092,0Z" transform="translate(-405.259 -3113.85)"/><path class="d" d="M413.432,3201.835a43.931,43.931,0,0,1-6.092,0,43.53,43.53,0,0,1,6.092,0Z" transform="translate(-405.259 -3125.026)"/><path class="d" d="M413.432,3220.707a44.032,44.032,0,0,1-6.092,0,43.629,43.629,0,0,1,6.092,0Z" transform="translate(-405.259 -3136.199)"/><path class="d" d="M413.432,3239.586a43.629,43.629,0,0,1-6.092,0,43.83,43.83,0,0,1,6.092,0Z" transform="translate(-405.259 -3147.375)"/><path class="d" d="M413.432,3258.465a43.83,43.83,0,0,1-6.092,0,43.629,43.629,0,0,1,6.092,0Z" transform="translate(-405.259 -3158.551)"/><path class="d" d="M413.432,3277.358a42.275,42.275,0,0,1-6.092,0,54.326,54.326,0,0,1,6.092,0Z" transform="translate(-405.259 -3169.744)"/><path class="d" d="M565.046,3273.274c0,.057-27.814.106-62.116.106s-62.12-.049-62.12-.106,27.806-.106,62.12-.106S565.046,3273.221,565.046,3273.274Z" transform="translate(-425.073 -3167.325)"/><g transform="translate(8.051 16.306)"><g transform="translate(0.129 0.129)"><rect class="g" width="132.266" height="86.755"/></g><path class="f" d="M554.366,3140.608c0-.836-.04-33.843-.1-86.755l.1.1-132.255.026H422.1l.129-.128c0,30.853-.007,60.213-.011,86.754l-.118-.118,132.266.119-132.266.118h-.118v-.119c0-26.541-.007-55.9-.011-86.754v-.129h.14l132.255.026h.1v.1C554.406,3106.765,554.367,3139.773,554.366,3140.608Z" transform="translate(-421.971 -3053.723)"/><g transform="translate(9.953 33.39)"><g transform="translate(30.521 14.647)"><path class="d" d="M521.247,3171.458l13.01.179a12.952,12.952,0,0,1-13.01,12.583h-.076Z" transform="translate(-521.171 -3171.458)"/><g transform="translate(4.584 7.705)"><path class="f" d="M549.41,3200.252a1.27,1.27,0,0,1-.278.022l-.8.021-2.907.033h-.037l-.024-.03-4.292-5.407-3.46-4.411.067.032-3.829-.036-1.071-.023a2.221,2.221,0,0,1-.379-.026,2.026,2.026,0,0,1,.379-.027l1.071-.023,3.829-.036h.041l.026.033,3.482,4.394,4.256,5.435-.06-.029,2.907.034.8.021A1.384,1.384,0,0,1,549.41,3200.252Z" transform="translate(-532.407 -3190.343)"/></g><g transform="translate(17.836 19.015)"><path class="f" d="M573.3,3218.162c0,.055-1.885.1-4.209.1s-4.21-.044-4.21-.1,1.884-.1,4.21-.1S573.3,3218.107,573.3,3218.162Z" transform="translate(-564.885 -3218.062)"/></g><g transform="translate(17.836 20.574)"><path class="f" d="M573.3,3221.982c0,.055-1.885.1-4.209.1s-4.21-.044-4.21-.1,1.884-.1,4.21-.1S573.3,3221.928,573.3,3221.982Z" transform="translate(-564.885 -3221.883)"/></g></g><g transform="translate(15.529 0.033)"><path class="h" d="M497.438,3148.4l-.183,12.761a12.767,12.767,0,1,1,13.193-12.761Z" transform="translate(-484.427 -3135.64)"/></g><g transform="translate(11.713 0.661)"><path class="f" d="M486.821,3145.14a.833.833,0,0,1-.226.053l-.647.1-2.337.328-.038.005-.029-.028-3.117-3.033c-1.5-1.469-2.845-2.806-3.814-3.781l-1.14-1.162a3.494,3.494,0,0,1-.4-.446,3.408,3.408,0,0,1,.453.39l1.184,1.117c.994.949,2.357,2.271,3.854,3.74l3.092,3.058-.067-.023,2.346-.259.653-.059A.845.845,0,0,1,486.821,3145.14Z" transform="translate(-475.074 -3137.179)"/></g><path class="f" d="M454.785,3135.659c0,.055-1.885.1-4.209.1s-4.209-.045-4.209-.1,1.884-.1,4.209-.1S454.785,3135.6,454.785,3135.659Z" transform="translate(-446.366 -3135.56)"/><g transform="translate(0 1.559)"><path class="f" d="M454.785,3139.479c0,.055-1.885.1-4.209.1s-4.209-.045-4.209-.1,1.884-.1,4.209-.1S454.785,3139.424,454.785,3139.479Z" transform="translate(-446.366 -3139.379)"/></g></g><g transform="translate(74.199 13.042)"><path class="h" d="M613.636,3093.619l-.052-7.93a10.122,10.122,0,0,0-6.542,2.551,9.38,9.38,0,0,0-3.153,8.214,11.19,11.19,0,0,0,.185,1.152c0,.01,0,.019.005.028h0l9.556-2.15Z" transform="translate(-603.827 -3085.688)"/><g class="i"><path class="e" d="M613.636,3093.619l-.052-7.93a10.122,10.122,0,0,0-6.542,2.551,9.38,9.38,0,0,0-3.153,8.214,11.19,11.19,0,0,0,.185,1.152c0,.01,0,.019.005.028h0l9.556-2.15Z" transform="translate(-603.827 -3085.688)"/></g><g transform="translate(10.822 0.031)"><path class="h" d="M639.186,3091.222a9.407,9.407,0,0,0-7.712-5.4c-.1-.01-.2-.019-.3-.026-.064,0-.128-.011-.193-.015q-.284-.015-.576-.017h-.052v0h0l.052,7.93.012,1.864,9.558,2.085.012,0h0a9.447,9.447,0,0,0,.212-2.057A10.285,10.285,0,0,0,639.186,3091.222Z" transform="translate(-630.351 -3085.763)"/></g><g class="i" transform="translate(10.822 0.031)"><path class="h" d="M639.186,3091.222a9.407,9.407,0,0,0-7.712-5.4c-.1-.01-.2-.019-.3-.026-.064,0-.128-.011-.193-.015q-.284-.015-.576-.017h-.052v0h0l.052,7.93.012,1.864,9.558,2.085.012,0h0a9.447,9.447,0,0,0,.212-2.057A10.285,10.285,0,0,0,639.186,3091.222Z" transform="translate(-630.351 -3085.763)"/></g><g transform="translate(0.765 10.784)"><path class="h" d="M615.258,3112.119l-9.556,2.15a9.795,9.795,0,0,0,19.126-.064l-9.558-2.085" transform="translate(-605.702 -3112.119)"/></g><g transform="translate(25.449 9.228)"><path class="f" d="M688.268,3108.433c0,.072-4.941.129-11.033.129s-11.035-.058-11.035-.129,4.94-.128,11.035-.128S688.268,3108.362,688.268,3108.433Z" transform="translate(-666.199 -3108.305)"/></g><g transform="translate(25.449 6.712)"><path class="f" d="M688.268,3102.268c0,.071-4.941.129-11.033.129s-11.035-.059-11.035-.129,4.94-.128,11.035-.128S688.268,3102.2,688.268,3102.268Z" transform="translate(-666.199 -3102.14)"/></g><g transform="translate(25.449 4.197)"><path class="f" d="M688.268,3096.1c0,.071-4.941.128-11.033.128s-11.035-.057-11.035-.128,4.94-.129,11.035-.129S688.268,3096.032,688.268,3096.1Z" transform="translate(-666.199 -3095.975)"/></g><g transform="translate(25.449 11.568)"><path class="f" d="M688.268,3114.17c0,.071-4.941.128-11.033.128s-11.035-.057-11.035-.128,4.94-.129,11.035-.129S688.268,3114.1,688.268,3114.17Z" transform="translate(-666.199 -3114.041)"/></g><g transform="translate(25.527 14.115)"><path class="f" d="M681.547,3120.412c0,.071-3.393.129-7.578.129s-7.579-.058-7.579-.129,3.393-.128,7.579-.128S681.547,3120.342,681.547,3120.412Z" transform="translate(-666.39 -3120.284)"/></g></g><g transform="translate(75.428 45.495)"><g transform="translate(1.076)"><rect class="h" width="2.273" height="25.386"/></g><g transform="translate(5.465 8.622)"><rect class="h" width="2.273" height="16.764"/></g><g transform="translate(9.853 3.155)"><rect class="h" width="2.273" height="22.36"/></g><g transform="translate(14.242 0.98)"><rect class="h" width="2.273" height="24.406"/></g><g transform="translate(18.63 9.138)"><rect class="h" width="2.273" height="16.248"/></g><g transform="translate(23.018 12.324)"><rect class="h" width="2.273" height="13.061"/></g><g transform="translate(27.407 2.606)"><rect class="h" width="2.273" height="22.78"/></g><g transform="translate(31.795 6.713)"><rect class="h" width="2.273" height="18.673"/></g><g transform="translate(36.184 3.431)"><rect class="h" width="2.273" height="21.955"/></g><g transform="translate(40.572 10.428)"><rect class="h" width="2.273" height="14.958"/></g><g transform="translate(44.96 7.582)"><rect class="h" width="2.273" height="17.804"/></g><g transform="translate(0 27.061)"><path class="f" d="M655,3231.642c0,.052-10.782.094-24.08.094s-24.082-.042-24.082-.094,10.78-.092,24.082-.092S655,3231.591,655,3231.642Z" transform="translate(-606.839 -3231.55)"/></g><g transform="translate(0.945 29.059)"><path class="f" d="M612.529,3236.541a15.385,15.385,0,0,1-3.374,0,15.226,15.226,0,0,1,3.374,0Z" transform="translate(-609.155 -3236.447)"/></g><g transform="translate(5.882 29.16)"><path class="f" d="M625.288,3236.789a21.723,21.723,0,1,1-2.016-.094A10.952,10.952,0,0,1,625.288,3236.789Z" transform="translate(-621.256 -3236.695)"/></g><g transform="translate(10.655 29.16)"><path class="f" d="M636.985,3236.789a21.723,21.723,0,1,1-2.016-.094A10.95,10.95,0,0,1,636.985,3236.789Z" transform="translate(-632.953 -3236.695)"/></g><g transform="translate(15.427 29.16)"><path class="f" d="M648.682,3236.789a21.722,21.722,0,1,1-2.016-.094A10.949,10.949,0,0,1,648.682,3236.789Z" transform="translate(-644.65 -3236.695)"/></g><g transform="translate(20.2 29.16)"><path class="f" d="M660.379,3236.789a21.723,21.723,0,1,1-2.016-.094A10.947,10.947,0,0,1,660.379,3236.789Z" transform="translate(-656.347 -3236.695)"/></g><g transform="translate(24.972 29.16)"><path class="f" d="M672.076,3236.789a21.723,21.723,0,1,1-2.016-.094A10.947,10.947,0,0,1,672.076,3236.789Z" transform="translate(-668.044 -3236.695)"/></g><g transform="translate(29.745 29.16)"><path class="f" d="M683.774,3236.789a21.724,21.724,0,1,1-2.016-.094A10.954,10.954,0,0,1,683.774,3236.789Z" transform="translate(-679.742 -3236.695)"/></g><g transform="translate(34.518 29.16)"><path class="f" d="M695.471,3236.789a21.723,21.723,0,1,1-2.016-.094A10.949,10.949,0,0,1,695.471,3236.789Z" transform="translate(-691.439 -3236.695)"/></g><g transform="translate(39.29 29.16)"><path class="f" d="M707.168,3236.789a21.722,21.722,0,1,1-2.016-.094A10.948,10.948,0,0,1,707.168,3236.789Z" transform="translate(-703.136 -3236.695)"/></g><g transform="translate(44.063 29.16)"><path class="f" d="M718.865,3236.789a21.724,21.724,0,1,1-2.016-.094A10.948,10.948,0,0,1,718.865,3236.789Z" transform="translate(-714.833 -3236.695)"/></g><g class="i" transform="translate(5.465 8.622)"><rect class="e" width="2.273" height="16.764"/></g><g class="i" transform="translate(14.242 0.98)"><rect class="e" width="2.273" height="24.406"/></g><g class="i" transform="translate(23.018 12.324)"><rect class="e" width="2.273" height="13.061"/></g><g class="i" transform="translate(31.795 6.713)"><rect class="e" width="2.273" height="18.673"/></g><g class="i" transform="translate(40.572 10.428)"><rect class="e" width="2.273" height="14.958"/></g></g><g transform="translate(11.823 14.247)"><path class="h" d="M455.324,3090.829a2.188,2.188,0,1,1-2.188-2.188A2.188,2.188,0,0,1,455.324,3090.829Z" transform="translate(-450.948 -3088.641)"/></g><g transform="translate(20.862 14.58)"><path class="h" d="M506.056,3089.587c0,.072-7.377.129-16.476.129s-16.477-.058-16.477-.129,7.376-.129,16.477-.129S506.056,3089.517,506.056,3089.587Z" transform="translate(-473.103 -3089.458)"/></g><g transform="translate(21.103 17.226)"><path class="h" d="M486.682,3096.073a2.024,2.024,0,0,1-.51.05c-.329.015-.8.03-1.392.041-1.175.023-2.8.038-4.592.038s-3.418-.014-4.593-.038c-.588-.011-1.063-.026-1.392-.041a2.02,2.02,0,0,1-.51-.05,1.948,1.948,0,0,1,.51-.05c.329-.016.8-.029,1.392-.041,1.175-.023,2.8-.038,4.593-.038s3.416.015,4.592.038c.588.012,1.063.025,1.392.041A1.951,1.951,0,0,1,486.682,3096.073Z" transform="translate(-473.693 -3095.943)"/></g></g><path class="d" d="M631.1,3225.849l4.243,9.625,1.481-4.235,3.631-1.33Z" transform="translate(-537.722 -3139.313)"/><rect class="e" width="5.333" height="5.333" transform="translate(101.481 93.872)"/><path class="d" d="M656.188,3248.948s0-.151-.02-.408,0-.644-.024-1.093c0-.959-.029-2.273-.045-3.836l.09.09h-5.329c-.024,0,.2-.2.106-.106h0v5.324l-.09-.094,3.835.045,1.093.025a2.816,2.816,0,0,1,.408.024,3.105,3.105,0,0,1-.363,0l-1.073.024-3.892.045h-.094v-5.414h0l.106-.106h5.423v.094c0,1.587-.037,2.921-.049,3.892,0,.441,0,.816-.024,1.073A1.891,1.891,0,0,1,656.188,3248.948Z" transform="translate(-549.378 -3149.744)"/><path class="d" d="M657.336,3249.38a22.236,22.236,0,0,1,0-4.341A22.3,22.3,0,0,1,657.336,3249.38Z" transform="translate(-553.191 -3150.674)"/><path class="d" d="M656.511,3250.2a22.236,22.236,0,0,1-4.341,0A22.313,22.313,0,0,1,656.511,3250.2Z" transform="translate(-550.195 -3153.669)"/><rect class="f" width="5.859" height="98.335" transform="translate(140.548 15.778)"/><path class="d" d="M749.64,3080.769h0a2.93,2.93,0,0,1,2.93,2.93v14.284a2.93,2.93,0,0,1-2.93,2.93h0a2.929,2.929,0,0,1-2.93-2.93V3083.7A2.93,2.93,0,0,1,749.64,3080.769Z" transform="translate(-606.162 -3053.428)"/><path class="d" d="M475.2,3102.765v-1.5c0-.979,0-2.4-.024-4.2,0-3.611-.029-8.756-.045-14.921l.09.09H454.6c-.029,0,.2-.2.1-.1h0v20.617l-.094-.094,14.925.049,4.2.024h.037l-4.178.024-14.982.045h-.09v-20.658h0c-.094.09.131-.134.11-.11h20.715v.11c-.02,6.19-.037,11.355-.049,14.979,0,1.8,0,3.207-.025,4.182v1.371A.387.387,0,0,1,475.2,3102.765Z" transform="translate(-433.173 -3054.17)"/><path class="d" d="M460.364,3087.978h1.126l3.219-.025,11.567-.045h.09v16c.02-.024-.2.2-.11.106H460.29v-.094c0-4.778.037-8.76.049-11.563,0-1.379,0-2.448.024-3.223v-1.126a.682.682,0,0,1,0,.081v1.081c0,.763,0,1.856.024,3.264,0,2.792.029,6.753.045,11.507l-.09-.094h15.908l-.1.106v-15.912l.094.094-11.506-.049-3.264-.024h-1.085A.313.313,0,0,1,460.364,3087.978Z" transform="translate(-436.605 -3057.654)"/><path class="d" d="M454.63,3082.3a13.727,13.727,0,0,1,2.407,2.358,6.352,6.352,0,0,1-1.281-1.1A6.914,6.914,0,0,1,454.63,3082.3Z" transform="translate(-433.254 -3054.333)"/><path class="d" d="M501.881,3082.479a6.27,6.27,0,0,1-1.016,1.261,6.51,6.51,0,0,1-1.175,1.122,6.148,6.148,0,0,1,1.016-1.264A6.241,6.241,0,0,1,501.881,3082.479Z" transform="translate(-459.929 -3054.44)"/><path class="d" d="M501.909,3129.608a10.31,10.31,0,0,1-1-1.159,9.911,9.911,0,0,1-1-1.151,5.871,5.871,0,0,1,1.983,2.326Z" transform="translate(-460.059 -3080.972)"/><path class="d" d="M456.763,3127.019a6.487,6.487,0,0,1-1.069,1.248,6.364,6.364,0,0,1-1.224,1.1,12.644,12.644,0,0,1,2.293-2.35Z" transform="translate(-433.159 -3080.807)"/><path class="d" d="M468.85,3095.761a.866.866,0,0,1,.159,0h.486l1.861-.024,6.708-.049h.09v9.3l-.11.106H468.76V3105c.02-2.762.037-5.068.045-6.708,0-.783.02-1.412.025-1.861v-.641a1.108,1.108,0,0,1,0,.179v.5c0,.453,0,1.085.02,1.881,0,1.632.029,3.909.049,6.647l-.094-.09h9.209c.1-.094-.127.13-.1.106v-9.208l.094.089-6.646-.045-1.885-.024h-.5Z" transform="translate(-441.619 -3062.26)"/><path class="d" d="M549.322,3293.495c0,.057-32.674.106-72.969.106s-72.973-.049-72.973-.106,32.665-.106,72.973-.106S549.322,3293.433,549.322,3293.495Z" transform="translate(-402.915 -3179.296)"/></g><g transform="translate(434.253 3050.778)"><path class="j" d="M673.085,3394.935H668.12s-11.208-4.047-13.513-3.672c-2.073.351-9.674,5.4-11.163,6.4a.935.935,0,0,0-.359.461h0a1.632,1.632,0,0,0,.906,2.069l.159.065-.069.224a2.7,2.7,0,0,0-.114.91,1.1,1.1,0,0,0,2.04.473l-.286.506a1.248,1.248,0,0,0-.159.682l.024.465a1.253,1.253,0,0,0,.857,1.114h0a1.223,1.223,0,0,0,1.306-.343,10.652,10.652,0,0,1,4.57-2.856,33.614,33.614,0,0,1,4.488-.816,1.568,1.568,0,0,1,1.449,1h0c-.837.062-5.149,2.04-7.21,3.11a2.215,2.215,0,0,0-1.2,1.66c-.073.645.253,1.322,1.53,1.02,2.738-.636,6.153-1.828,6.153-1.828s2.542-.726,4.186.433c2.317,1.632,3.378,2.236,5.369,1.575a17.049,17.049,0,0,0,3.456-1.6l3.917-.408S678.153,3396.363,673.085,3394.935Z" transform="translate(-610.028 -3275.043)"/><path class="k" d="M687.776,3410.63a1.477,1.477,0,0,1-.265.192,1.777,1.777,0,0,1-.343.2,3.128,3.128,0,0,1-.494.224,5.4,5.4,0,0,1-3.415.115,5.306,5.306,0,0,1-2.1-1.138l-.245-.224-.22-.249a4.648,4.648,0,0,1-.408-.551c-.249-.408-.432-.816-.706-1.2a1.723,1.723,0,0,0-1.118-.775,5.622,5.622,0,0,0-1.5,0,8.876,8.876,0,0,1-3.236-.318,9.332,9.332,0,0,1-2.783-1.33,9.452,9.452,0,0,1-1.134-.943.71.71,0,0,1-.188-.75.719.719,0,0,1,.6-.477h0l7.283-.306,2.089-.07h.555a.742.742,0,0,1,.192,0l-.192.025-.551.041-2.085.126-7.279.38h0a.515.515,0,0,0-.286.89,9.443,9.443,0,0,0,1.11.914,9.165,9.165,0,0,0,2.722,1.3,8.767,8.767,0,0,0,3.162.314,5.52,5.52,0,0,1,1.559,0,1.845,1.845,0,0,1,.718.306,2.293,2.293,0,0,1,.522.551c.282.407.465.844.7,1.224a4.688,4.688,0,0,0,.408.531l.212.245.232.212a5.162,5.162,0,0,0,2.04,1.13,5.416,5.416,0,0,0,3.342-.049A8.174,8.174,0,0,0,687.776,3410.63Z" transform="translate(-625.776 -3282.021)"/><path class="f" d="M813.838,3109.285a4.436,4.436,0,0,0-4.774-1.885,6.076,6.076,0,0,0-7.442.734,5.4,5.4,0,0,0-7.752,5.052,4.509,4.509,0,0,0-3.337,7.895,4.333,4.333,0,0,0,2.489,8.259l20.4-14.934A4.439,4.439,0,0,0,813.838,3109.285Z" transform="translate(-695.785 -3106.458)"/><path class="j" d="M799.106,3137.44a18.4,18.4,0,0,1,16.937-18.324l.951-.073c10.287-.22,16.219,8.393,16.154,18.683l1.224,34.22-1.065,4.4-13.848,11.425-6.957-6.161-1.991-10.069s-9.968-.748-10.874-10.58C799.2,3156.208,799.086,3146.359,799.106,3137.44Z" transform="translate(-702.449 -3113.905)"/><path class="k" d="M826.869,3240.721a23.942,23.942,0,0,0,12.6-4.8s-2.448,7.324-12.359,7.221Z" transform="translate(-718.886 -3183.097)"/><path class="d" d="M807.888,3183.91a1.408,1.408,0,0,0,1.465,1.31,1.347,1.347,0,0,0,1.351-1.342c0-.014,0-.028,0-.042a1.411,1.411,0,0,0-1.469-1.309,1.347,1.347,0,0,0-1.347,1.346C807.888,3183.886,807.888,3183.9,807.888,3183.91Z" transform="translate(-707.65 -3151.49)"/><path class="d" d="M805.02,3174.306c.188.167,1.191-.706,2.7-.816s2.685.554,2.831.355c.073-.089-.13-.408-.64-.718a3.87,3.87,0,0,0-2.285-.51,3.729,3.729,0,0,0-2.134.882C805.061,3173.886,804.93,3174.229,805.02,3174.306Z" transform="translate(-705.936 -3145.614)"/><path class="d" d="M839.778,3182.96a1.408,1.408,0,0,0,1.469,1.31,1.346,1.346,0,0,0,1.351-1.342c0-.012,0-.024,0-.037a1.416,1.416,0,0,0-1.469-1.314,1.351,1.351,0,0,0-1.351,1.35C839.778,3182.938,839.778,3182.949,839.778,3182.96Z" transform="translate(-726.528 -3150.927)"/><path class="d" d="M840.45,3170.955c.188.171,1.191-.7,2.705-.816s2.681.551,2.832.355c.074-.09-.131-.408-.645-.722a3.86,3.86,0,0,0-2.281-.506,3.671,3.671,0,0,0-2.134.881C840.492,3170.535,840.361,3170.9,840.45,3170.955Z" transform="translate(-726.91 -3143.63)"/><path class="d" d="M824.746,3183.514a10,10,0,0,0-2.489-.249c-.408,0-.763-.057-.849-.314a1.978,1.978,0,0,1,.167-1.167c.286-.963.588-1.971.906-3.032,1.253-4.312,2.126-7.846,1.95-7.895s-1.33,3.407-2.579,7.72l-.861,3.068a2.235,2.235,0,0,0-.078,1.53.96.96,0,0,0,.677.514,2.575,2.575,0,0,0,.665.041A9.478,9.478,0,0,0,824.746,3183.514Z" transform="translate(-715.294 -3144.582)"/><path class="d" d="M835.06,3203.568c-.249,0-.118,1.632-1.433,2.926s-3.076,1.224-3.068,1.465c0,.106.408.29,1.155.249a4.076,4.076,0,0,0,2.57-1.13,3.582,3.582,0,0,0,1.093-2.448C835.386,3203.943,835.17,3203.551,835.06,3203.568Z" transform="translate(-721.07 -3163.945)"/><path class="d" d="M839.568,3160.375c.212.376,1.485-.082,3.068-.179s2.93.122,3.064-.282c.053-.192-.237-.526-.816-.816a4.727,4.727,0,0,0-2.4-.408,4.54,4.54,0,0,0-2.273.779C839.7,3159.816,839.475,3160.191,839.568,3160.375Z" transform="translate(-726.391 -3137.367)"/><path class="d" d="M805.014,3164.269c.265.347,1.31,0,2.566-.024s2.322.241,2.566-.123c.111-.171-.057-.518-.522-.844a3.721,3.721,0,0,0-4.137.114C805.059,3163.764,804.912,3164.1,805.014,3164.269Z" transform="translate(-705.93 -3139.756)"/><path class="f" d="M800.425,3131.159s2.105-6.369,4.961-8.046c3.46-2.04,5.325,1.8,8.674.568s6.655-3.179,10.372-.816c4.08,2.595,2.448,4.773,3.019,9.123,2.371,17.63,6.006,22.379,6.259,13.966.029-.922,2.505-1.852,2.575-5.741.086-5.047-.2-11.138-1.608-14.6-1.179-2.917-3.052-4.852-6.3-6.887-5.121-3.215-11.763-2.762-16.234-1.951S799.409,3123.476,800.425,3131.159Z" transform="translate(-703.181 -3112.215)"/><path class="j" d="M880.535,3184.561a2.676,2.676,0,0,1,2.547-2.8c.044,0,.089,0,.133,0,1.848.028,3.974.906,4.154,4.708.322,6.749-6.528,5.679-6.528,5.488S880.645,3187.385,880.535,3184.561Z" transform="translate(-750.654 -3151.035)"/><path class="k" d="M884.561,3192.488c.028-.021.122.078.326.159a1.151,1.151,0,0,0,.877-.024,2.911,2.911,0,0,0,1.224-2.673,3.864,3.864,0,0,0-.408-1.665,1.354,1.354,0,0,0-.926-.861.6.6,0,0,0-.677.355c-.082.192-.033.325-.069.338s-.151-.106-.11-.408a.785.785,0,0,1,.244-.437.9.9,0,0,1,.645-.2,1.633,1.633,0,0,1,1.277.988,4,4,0,0,1,.5,1.861c0,1.359-.616,2.664-1.575,2.994a1.27,1.27,0,0,1-1.085-.126C884.581,3192.651,884.536,3192.5,884.561,3192.488Z" transform="translate(-753.035 -3154.18)"/><path class="f" d="M837.576,3129.587a6.359,6.359,0,0,1-2.746,1.542,2.2,2.2,0,0,1-2.558-1.351c-.118-.46-.045-1.016-.384-1.35-.408-.408-1.069-.216-1.632-.111a4.312,4.312,0,0,1-4.7-2.725,1.79,1.79,0,0,1-2.4.408,10.11,10.11,0,0,1-1.987-1.816,2.785,2.785,0,0,0-2.4-.972,6.731,6.731,0,0,1-1.436.441c-.889,0-1.4-1.007-1.608-1.876s-.408-1.881-1.175-2.3a3.348,3.348,0,0,0-2.411.126c-.8.188-1.873.078-2.142-.7a1.592,1.592,0,0,1,.2-1.244,4.37,4.37,0,0,1,5.01-2.061,5.924,5.924,0,0,1,10.763-2.011,6.014,6.014,0,0,1,9.756,1.42,4.357,4.357,0,0,1,5.4,5.932,4.134,4.134,0,0,1,2.534,3.1c.135,1.387-1.11,2.889-2.485,2.628a2.415,2.415,0,0,1-3.97,2.733" transform="translate(-708.866 -3109.084)"/><path class="f" d="M873.478,3149.468a1.613,1.613,0,0,1-.314,1.326,2.19,2.19,0,0,1-1.285.914,2.329,2.329,0,0,1-1.962-.408l.281-.065a6.875,6.875,0,0,1-1.224,1.783,3.85,3.85,0,0,1-1.163.861,2.6,2.6,0,0,1-1.346.232,2.639,2.639,0,0,1-2.04-.959,3.822,3.822,0,0,1-.656-1.354,1.367,1.367,0,0,1-.1-.538,1.9,1.9,0,0,1,.241.485,4.452,4.452,0,0,0,.722,1.224,2.767,2.767,0,0,0,4.051-.228,6.788,6.788,0,0,0,1.155-1.673l.1-.208.179.143a2.075,2.075,0,0,0,1.665.388,1.988,1.988,0,0,0,1.167-.743A3.264,3.264,0,0,0,873.478,3149.468Z" transform="translate(-740.671 -3131.919)"/><path class="f" d="M828.18,3111.509c0,.024-.171.061-.461.212a2.33,2.33,0,0,0-.975.971l-.069.135-.1-.115a8.371,8.371,0,0,0-3.464-2.374,6.568,6.568,0,0,0-2.7-.372,5.509,5.509,0,0,0-2.783,1.041,5.608,5.608,0,0,0-1.571,1.746,4.572,4.572,0,0,0-.575,2.085v.216l-.208-.041a3.8,3.8,0,0,0-2.77.563,3.7,3.7,0,0,0-1.4,1.763,5.041,5.041,0,0,0-.261,2.04,1.375,1.375,0,0,1-.126-.546,3.785,3.785,0,0,1,.184-1.554,3.851,3.851,0,0,1,1.432-1.938,4.078,4.078,0,0,1,3.007-.665l-.212.175a4.863,4.863,0,0,1,.6-2.273,5.892,5.892,0,0,1,1.672-1.873,5.814,5.814,0,0,1,2.983-1.1,6.834,6.834,0,0,1,2.856.408,8.2,8.2,0,0,1,3.509,2.562h-.171a2.308,2.308,0,0,1,1.114-.975A1.082,1.082,0,0,1,828.18,3111.509Z" transform="translate(-709.315 -3108.31)"/><path class="h" d="M806.862,3290.272c-.371,0-1.146-31.6-1.146-31.6l-21.58-7.7-16.557,14.913-8.45-13.3L751.69,3256a62.3,62.3,0,0,0-5.875,2.705c-2.358,1.8-7.283,6.12-8.674,11.359-2.122,8.017-5.451,34.681-5.451,34.681l-20.27,7.153.441,13.056,19.838,3.1c4.786-.171,10.58-2.195,12.444-5.516v6.969h60.945S807.229,3290.272,806.862,3290.272Z" transform="translate(-650.541 -3192.006)"/><path class="d" d="M792.165,3317.839a.768.768,0,0,1,0,.131v1.864c-.024,1.281-.077,3.134-.18,5.427s-.245,5.018-.355,8.046-.151,6.357-.171,9.854c-.033,7,0,13.334,0,17.92v7.287a.466.466,0,0,1,0,.135.586.586,0,0,1,0-.131v-.387c0-.351-.02-.845-.033-1.473,0-1.3-.037-3.15-.065-5.431-.041-4.586-.081-10.923-.049-17.92.02-3.5.065-6.83.188-9.862s.282-5.757.408-8.046.2-4.141.249-5.423c.025-.628.041-1.126.057-1.477a2.047,2.047,0,0,1,.021-.384A.56.56,0,0,1,792.165,3317.839Z" transform="translate(-697.83 -3231.593)"/><g class="i" transform="translate(91.242 89.245)"><path d="M788.931,3325.189c-3.456,13.032-4.374,27.153-.9,40.181C788.095,3350.865,788.013,3337.282,788.931,3325.189Z" transform="translate(-785.838 -3325.189)"/></g><g class="i" transform="translate(145.088 89.563)"><path d="M917.809,3327.005q1.9,12.2,3.774,24.4a1.634,1.634,0,0,0,.265.791c.408.514,1.2.379,1.828.2,1.526-.445,3.929-.608,4.754-1.971l.2-3.473c-.22-1.052-1.224-2.064-1.718-3.027q-4.443-8.975-8.878-17.952" transform="translate(-917.809 -3325.969)"/></g><path class="h" d="M927.813,3269.7s7.047,3.966,9.658,9.548c3.187,6.81,17.287,31.343,17.81,37.464s.31,13.118-10.131,15.2a117.364,117.364,0,0,1-21.343,1.946l-4.256-12.681L931.518,3315l-2.983-2.619a6.985,6.985,0,0,1-1.591-2.04l-9-17.341" transform="translate(-772.798 -3203.094)"/><path class="d" d="M917.939,3293.034s.082.135.224.407l.636,1.2,2.42,4.615,3.8,7.283,1.151,2.2.6,1.151a10.6,10.6,0,0,0,.657,1.158,7.029,7.029,0,0,0,.877,1.04c.331.318.7.62,1.053.939l2.212,1.938.09.077-.106.053-11.963,6.193.045-.111,4.268,12.678-.094-.07c3.46,0,7.075-.159,10.784-.485,1.856-.159,3.733-.367,5.626-.636s3.807-.568,5.712-1.017l.938-.228c.31-.086.612-.2.914-.306s.612-.2.906-.323l.865-.408c.147-.069.29-.13.433-.2l.408-.249c.269-.167.543-.327.816-.5a10.75,10.75,0,0,0,1.412-1.224,8.711,8.711,0,0,0,1.938-3.146,13.539,13.539,0,0,0,.742-3.586,28.268,28.268,0,0,0,0-3.624,15.58,15.58,0,0,0-.184-1.77,16.022,16.022,0,0,0-.453-1.7c-.355-1.122-.779-2.2-1.224-3.264s-.906-2.1-1.367-3.125c-1.881-4.08-3.827-7.9-5.667-11.453s-3.595-6.842-5.182-9.849l-2.252-4.305c-.351-.681-.69-1.346-1.008-1.995-.155-.327-.31-.645-.465-.963s-.314-.612-.469-.909a18.365,18.365,0,0,0-2.187-3.048,27.872,27.872,0,0,0-2.244-2.224,33.874,33.874,0,0,0-3.468-2.668c-.408-.282-.739-.486-.955-.621l-.326-.208s.118.062.339.188.547.33.967.6a32.143,32.143,0,0,1,3.5,2.644,27.269,27.269,0,0,1,2.269,2.219,18.391,18.391,0,0,1,2.211,3.056c.159.3.326.6.481.918s.306.633.465.955c.322.648.661,1.31,1.012,1.991l2.265,4.292c1.6,3.008,3.358,6.292,5.21,9.846s3.8,7.344,5.684,11.449c.469,1.024.934,2.064,1.375,3.129s.869,2.154,1.224,3.264a15.152,15.152,0,0,1,.461,1.73,15.552,15.552,0,0,1,.188,1.795,28.547,28.547,0,0,1,0,3.672,13.744,13.744,0,0,1-.751,3.644,8.852,8.852,0,0,1-1.987,3.215,10.4,10.4,0,0,1-1.44,1.273c-.265.176-.543.338-.816.51l-.408.253-.441.208-.877.408c-.3.13-.612.216-.918.326s-.612.22-.922.31l-.951.229c-1.91.453-3.823.75-5.712,1.02s-3.778.477-5.635.64c-3.717.323-7.344.486-10.808.477h-.073l-.02-.069c-1.5-4.459-2.925-8.731-4.251-12.685l-.024-.073.069-.037,11.975-6.173v.131l-2.207-1.943c-.355-.318-.718-.616-1.057-.946a7.255,7.255,0,0,1-.89-1.065,11.4,11.4,0,0,1-.665-1.175c-.2-.408-.408-.775-.6-1.155q-.587-1.138-1.142-2.2c-1.465-2.856-2.734-5.3-3.77-7.3l-2.379-4.63c-.269-.531-.477-.934-.616-1.224A2.45,2.45,0,0,0,917.939,3293.034Z" transform="translate(-772.798 -3203.123)"/><path class="d" d="M922.008,3268.646a6.888,6.888,0,0,1-.652.408,17.355,17.355,0,0,0-1.714,1.224,16.053,16.053,0,0,0-5.937,12.1,17.706,17.706,0,0,0,.073,2.11c.045.5.082.771.065.775a.831.831,0,0,1-.053-.2c-.021-.13-.065-.322-.094-.571a13.712,13.712,0,0,1-.139-2.122,15.594,15.594,0,0,1,5.99-12.2,14.745,14.745,0,0,1,1.763-1.187c.216-.131.408-.212.51-.269A.373.373,0,0,1,922.008,3268.646Z" transform="translate(-770.204 -3202.47)"/><path class="d" d="M963.933,3368.148a2.323,2.323,0,0,1-.522.151l-1.432.359a40.524,40.524,0,0,0-4.631,1.493,34.53,34.53,0,0,0-4.382,2.105c-.543.31-.975.567-1.273.755a2.726,2.726,0,0,1-.473.265,2.838,2.838,0,0,1,.428-.334c.286-.208.706-.486,1.224-.817a29.064,29.064,0,0,1,4.4-2.17,32.957,32.957,0,0,1,4.672-1.444c.608-.139,1.106-.237,1.453-.294A3,3,0,0,1,963.933,3368.148Z" transform="translate(-792.5 -3261.375)"/><g class="i" transform="translate(117.09 59.688)"><path d="M865.089,3252.764a3.859,3.859,0,0,0-1.718.853,83.215,83.215,0,0,0-13.5,12.44l-.685,1.269c1.522-1,3.264-2.04,5.043-1.685,1.526.323,2.632,1.6,3.623,2.8a127.2,127.2,0,0,0,9.98-14.529A3.952,3.952,0,0,0,865.089,3252.764Z" transform="translate(-849.189 -3252.748)"/></g><path class="e" d="M849.03,3260.489l6.088-7.7,9.156-10.931,4.864,4.566-8.527,13.2-6.055-3.643Z" transform="translate(-732.005 -3186.613)"/><g class="i" transform="translate(105.968 62.557)"><path d="M822,3261.141c.816,4.333,2.819,7.948,3.631,12.281.967-1.265.734-1.8,1.7-3.069a3.49,3.49,0,0,1,1.416-1.261c1.041-.408,2.187.2,3.133.78a35.393,35.393,0,0,0-4.867-4.46l-.074.351q-2.448-3.04-5.014-5.986" transform="translate(-821.929 -3259.779)"/></g><path class="e" d="M831.957,3266.263l-8.552-14.574h0l-3.056,2.815,2.893,13.04,4.1-5.283Z" transform="translate(-715.026 -3192.433)"/><path class="d" d="M831.443,3259.688l-.155-.24-.432-.718-1.632-2.771-6.038-10.22h.114l-3.076,2.7.025-.082c.881,3.95,1.869,8.376,2.938,13.158l-.175-.041,4.08-5.3.065-.085.082.069,4.615,4-.09-.025.5-.094-.053.024c1.481-1.318,3.121-2.619,4.717-4.007l.408-.359.057-.049.065.036c2.126,1.134,4.035,2.542,6.055,3.644l-.139.037,8.531-13.2v.122q-2.534-2.392-4.856-4.569h.126l-10.751,13.056-3.007,3.627-.776,1.008c-.183.212-.282.318-.282.318s.086-.115.262-.335l.771-.967,2.966-3.672,10.7-13.117.061-.07.069.062,4.863,4.562.062.054-.045.064-8.515,13.212-.053.082-.086-.049c-2.04-1.109-3.945-2.518-6.055-3.639h.122l-.408.359c-1.6,1.4-3.264,2.693-4.717,4.007H832.3l-.494.094h-.049l-.041-.032-4.611-4h.151l-4.109,5.276-.126.168-.045-.208-2.917-13.179v-.049l.037-.033,3.089-2.689.069-.061.045.082,5.981,10.253,1.612,2.791.408.73C831.4,3259.6,831.443,3259.688,831.443,3259.688Z" transform="translate(-714.855 -3186.441)"/><path class="d" d="M791.418,3278.3c.057,0,0,2.652-.086,5.925a58.251,58.251,0,0,1-.322,5.908c-.073,0-.02-2.652.086-5.924S791.352,3278.3,791.418,3278.3Z" transform="translate(-697.638 -3208.185)"/><path class="j" d="M876.41,3398.492a4.3,4.3,0,0,0-1.489.543c-1.093.739-1.338,2.215-1.485,3.529-.045.408-.057.9.282,1.142a1.163,1.163,0,0,0,1,0,31.122,31.122,0,0,0,6.418-2.856,5.123,5.123,0,0,0,2.562-2.624l.069-.514A30.66,30.66,0,0,0,876.41,3398.492Z" transform="translate(-746.439 -3278.875)"/><path class="f" d="M900.91,3376.628l2.424,2.032.673-.783-2.432-2.049Z" transform="translate(-762.717 -3265.922)"/><path class="f" d="M897.008,3387.42c-.041.041-.334-.167-.661-.469s-.551-.579-.514-.62.335.167.661.465S897.045,3387.376,897.008,3387.42Z" transform="translate(-759.71 -3272.136)"/><path class="j" d="M889.215,3397.7l-3.75,1.31s-3.44-.865-4.9-1.2a3.752,3.752,0,0,0-2.9.51c-1.762,1.143-4.794,3.109-5.879,3.831s-3.856,3.015-3.856,3.015-2.012,2.306-1.355,3.627,2.477,1.135,2.477,1.135a2.745,2.745,0,0,0,2.179,2.04s-.457.718,1.261,1.175,5.712,0,5.712,0,7.344.3,8.042-.054a41.187,41.187,0,0,0,3.79-3.5l2.62-1.566Z" transform="translate(-742.315 -3278.868)"/><path class="k" d="M875.9,3403.938a8.879,8.879,0,0,1-1.118.816c-.705.486-1.693,1.134-2.745,1.9a27.091,27.091,0,0,0-2.575,2.109c-.62.579-.98.971-1,.946s.065-.114.217-.3.384-.449.681-.755a20.656,20.656,0,0,1,2.558-2.171c1.057-.767,2.04-1.4,2.787-1.852A8.965,8.965,0,0,1,875.9,3403.938Z" transform="translate(-743.501 -3282.563)"/><path class="k" d="M881.941,3412.3a1.86,1.86,0,0,1-.371.229l-1.029.588c-.881.478-2.093,1.142-3.366,1.979a24.949,24.949,0,0,0-3.089,2.378c-.739.673-1.163,1.126-1.187,1.106a1.616,1.616,0,0,1,.265-.347c.18-.216.461-.513.816-.869a20.646,20.646,0,0,1,3.072-2.448,33.151,33.151,0,0,1,3.415-1.933c.449-.221.816-.408,1.077-.507A1.492,1.492,0,0,1,881.941,3412.3Z" transform="translate(-746.136 -3287.511)"/><path class="k" d="M888.977,3418.918a1.878,1.878,0,0,1-.339.331c-.228.2-.575.473-1.011.788-.878.645-2.158,1.42-3.579,2.261a19.214,19.214,0,0,1-3.884,1.688c-.518.168-.938.29-1.224.372a2.254,2.254,0,0,1-.461.1,2.02,2.02,0,0,1,.432-.184c.331-.114.73-.262,1.224-.433a22.165,22.165,0,0,0,3.823-1.73c1.424-.84,2.709-1.591,3.6-2.2.445-.3.816-.555,1.044-.73A2.218,2.218,0,0,1,888.977,3418.918Z" transform="translate(-749.439 -3291.431)"/><path class="k" d="M900.667,3426.945a3.157,3.157,0,0,1-.628.645,13.448,13.448,0,0,1-1.734,1.3,13.859,13.859,0,0,1-1.914,1.016,3.114,3.114,0,0,1-.853.294c-.024-.061,1.224-.587,2.652-1.489S900.622,3426.9,900.667,3426.945Z" transform="translate(-759.537 -3296.181)"/><path class="d" d="M878.614,3438.771H823.279a3.563,3.563,0,0,1,3.562-3.562h48.211a3.562,3.562,0,0,1,3.562,3.563Z" transform="translate(-716.761 -3301.074)"/><path class="d" d="M657.184,3372.482l-25.591-.122-8.674-41.078a3.672,3.672,0,0,0-3.578-2.914H565.863a3.672,3.672,0,0,0-3.57,4.435L571.1,3373.2a2.945,2.945,0,0,0,2.881,2.318h86.907C660.889,3373.446,659.257,3372.482,657.184,3372.482Z" transform="translate(-562.213 -3237.826)"/><path class="d" d="M712.8,3375.522c-.057,0-2.469-10.531-5.386-23.551s-5.239-23.588-5.182-23.6,2.469,10.531,5.39,23.554S712.852,3375.51,712.8,3375.522Z" transform="translate(-645.099 -3237.826)"/><path class="e" d="M641.477,3382.266a3.438,3.438,0,1,1-5.035-1.053A3.648,3.648,0,0,1,641.477,3382.266Z" transform="translate(-605.398 -3268.749)"/><rect class="d" width="3.705" height="1.697" rx="0.849" transform="translate(79.39 135.208)"/><path class="d" d="M798.76,3439.509a1.436,1.436,0,0,1,.111.119,1.086,1.086,0,0,1,.184.432,1.749,1.749,0,0,1-.673,1.631,2.415,2.415,0,0,1-1.224.462,6.7,6.7,0,0,1-1.555-.041,8.843,8.843,0,0,0-1.763-.1,2.738,2.738,0,0,0-.918.212,1.36,1.36,0,0,0-.726.608.867.867,0,0,0,.2.915,2.158,2.158,0,0,0,.881.611,8.917,8.917,0,0,1,1.081.466,1.465,1.465,0,0,1,.747,1,2.007,2.007,0,0,1-1.351,2.077,7.852,7.852,0,0,1-2.7.338,44.921,44.921,0,0,1-5.8-.375c-2-.237-4.08-.531-6.185-.722a32.45,32.45,0,0,0-6.2,0c-2,.183-3.929.461-5.786.494a9.8,9.8,0,0,1-2.709-.241,3.8,3.8,0,0,1-2.162-1.371,2.715,2.715,0,0,1-.5-2.318,1.657,1.657,0,0,1,1.734-1.224.942.942,0,0,1,.792.677,1.19,1.19,0,0,1-.2.979,1.217,1.217,0,0,1-.791.514,1.545,1.545,0,0,1-.877-.118,2.084,2.084,0,0,1-1.073-1.122,3.886,3.886,0,0,1-.269-1.281c-.033-.787.041-1.4.041-1.8v-.469a.8.8,0,0,1,0-.159,1.16,1.16,0,0,1,.021.159c0,.106.02.261.025.469,0,.408-.041,1.02,0,1.8a3.766,3.766,0,0,0,.281,1.249,1.965,1.965,0,0,0,1.024,1.052,1.432,1.432,0,0,0,.816.106,1.071,1.071,0,0,0,.7-.469,1.06,1.06,0,0,0,.175-.861.817.817,0,0,0-.677-.567,1.5,1.5,0,0,0-1.558,1.118,2.565,2.565,0,0,0,.489,2.17,3.6,3.6,0,0,0,2.069,1.29,9.489,9.489,0,0,0,2.656.228c1.844-.036,3.766-.318,5.773-.506a32.6,32.6,0,0,1,6.239,0c2.13.192,4.194.489,6.189.727a45.479,45.479,0,0,0,5.773.387,7.611,7.611,0,0,0,2.632-.319,2.034,2.034,0,0,0,.963-.747,1.58,1.58,0,0,0,.281-1.122,1.273,1.273,0,0,0-.657-.881,7.918,7.918,0,0,0-1.061-.461,2.358,2.358,0,0,1-.938-.661,1.3,1.3,0,0,1-.266-.51.875.875,0,0,1,.053-.567,1.465,1.465,0,0,1,.816-.678,3.086,3.086,0,0,1,.967-.22,9.2,9.2,0,0,1,1.783.122,6.639,6.639,0,0,0,1.534.058,2.319,2.319,0,0,0,1.184-.408,1.713,1.713,0,0,0,.685-1.542A1.172,1.172,0,0,0,798.76,3439.509Z" transform="translate(-679.903 -3303.62)"/><path class="f" d="M878.586,3439.4c0,.057-12.142.106-27.117.106s-27.121-.049-27.121-.106,12.122-.1,27.121-.1S878.586,3439.339,878.586,3439.4Z" transform="translate(-717.394 -3303.495)"/></g><g transform="translate(572.305 3024.04)"><path class="l" d="M903.436,3082.1l7.111-1.089a21.785,21.785,0,1,0-5.643-5.39h0Z" transform="translate(-900.673 -3040.99)"/><path class="d" d="M903.33,3082.037l.086-.408.269-1.224c.241-1.1.6-2.73,1.061-4.843a.045.045,0,0,1,.052-.037h0l-.065.061a22.031,22.031,0,0,1-2.387-4.158,22.232,22.232,0,0,1-1.775-9.127,24.6,24.6,0,0,1,.408-3.615,21.762,21.762,0,0,1,27.606-16.847,22.567,22.567,0,0,1,4.827,2.04l1.114.726.563.367c.184.126.351.273.526.408l1.057.856c.347.286.653.617.983.926a20.387,20.387,0,0,1,1.791,1.963l.216.249.192.27.375.542c.249.363.522.71.742,1.085s.429.759.645,1.138c.106.188.216.375.318.567l.262.6.526,1.18c.164.408.277.816.408,1.224a21.82,21.82,0,0,1-13.948,27.527q-.844.276-1.708.483l-.905.2-.449.1-.453.053c-.6.07-1.187.151-1.767.208a29.875,29.875,0,0,1-3.378-.033,21.687,21.687,0,0,1-10.115-3.525h.033l-5.3.78-1.355.2-.453.062.469-.082,1.363-.216,5.276-.816h.029a21.912,21.912,0,0,0,4.3,2.183,21.572,21.572,0,0,0,5.781,1.289,28.467,28.467,0,0,0,3.354.025c.575-.062,1.163-.139,1.758-.212l.449-.053.441-.1.9-.2a21.625,21.625,0,0,0,15.992-26.067q-.208-.869-.488-1.719c-.139-.408-.257-.816-.408-1.224l-.522-1.171-.261-.587c-.1-.188-.208-.372-.314-.563q-.318-.554-.636-1.125c-.221-.372-.49-.714-.735-1.074l-.375-.535-.188-.269-.216-.249a20.418,20.418,0,0,0-1.807-1.947c-.326-.306-.632-.632-.975-.918l-1.04-.816c-.176-.134-.343-.282-.522-.408l-.559-.363-1.106-.718a22.5,22.5,0,0,0-4.774-2.041,21.43,21.43,0,0,0-18.577,3.041,21.719,21.719,0,0,0-5.965,6.3,21.488,21.488,0,0,0-2.856,7.344,24.209,24.209,0,0,0-.408,3.591,21.494,21.494,0,0,0,.18,3.361,21.773,21.773,0,0,0,3.962,9.838.048.048,0,0,1,0,.065.044.044,0,0,1-.053,0h0l.069-.024c-.481,2.1-.853,3.708-1.106,4.806-.126.542-.224.958-.29,1.245A1.732,1.732,0,0,1,903.33,3082.037Z" transform="translate(-900.567 -3040.924)"/><g transform="translate(10.033 5.814)"><path class="m" d="M925.157,3060.866a5.443,5.443,0,0,1,1.646-4.114,5.964,5.964,0,0,1,4.312-1.579,6.061,6.061,0,0,1,4.35,1.56,5.547,5.547,0,0,1,1.646,4.227v1.362a5.374,5.374,0,0,1-1.646,4.1,6.792,6.792,0,0,1-8.652-.009,5.5,5.5,0,0,1-1.655-4.208Zm3.631,1.456a2.548,2.548,0,0,0,.652,1.825,2.246,2.246,0,0,0,1.712.691,2.144,2.144,0,0,0,1.683-.7,2.709,2.709,0,0,0,.624-1.873v-1.4a2.655,2.655,0,0,0-.624-1.835,2.431,2.431,0,0,0-3.4-.009,2.706,2.706,0,0,0-.643,1.919Zm3.442,18.723-2.667-1.437,13.447-21.523,2.666,1.438Zm6.09-4.69a5.374,5.374,0,0,1,1.664-4.113,6.048,6.048,0,0,1,4.312-1.561,6.115,6.115,0,0,1,4.34,1.542,5.518,5.518,0,0,1,1.655,4.246v1.362a5.417,5.417,0,0,1-1.626,4.095,6,6,0,0,1-4.331,1.56,6.065,6.065,0,0,1-4.369-1.57,5.485,5.485,0,0,1-1.646-4.161Zm3.631,1.475a2.528,2.528,0,0,0,.681,1.778,2.22,2.22,0,0,0,1.7.737q2.307,0,2.307-2.553v-1.437a2.574,2.574,0,0,0-.643-1.825,2.444,2.444,0,0,0-3.4,0,2.655,2.655,0,0,0-.643,1.882Z" transform="translate(-925.157 -3055.173)"/></g></g><g transform="translate(352.168 3104.178)"><g transform="translate(10.74 0) rotate(20)"><g transform="translate(0 0)"><g transform="translate(0 0)"><g transform="translate(0 0)"><g transform="translate(0 0)"><path class="h" d="M31.205,13.233A15.7,15.7,0,1,1,13.234.2,15.7,15.7,0,0,1,31.205,13.233Z"/></g></g><g class="n" transform="translate(0 0.198)"><g transform="translate(0 0)"><path class="e" d="M13.234,0A15.7,15.7,0,0,0,.2,17.971s10.972-1.247,12.895-6.051S13.234,0,13.234,0Z"/></g></g><g transform="translate(3.48 3.558)"><g transform="translate(0 0)"><path class="o" d="M23.722,10.06A11.934,11.934,0,1,1,10.06.15,11.934,11.934,0,0,1,23.722,10.06Z"/></g></g><g transform="translate(4.21 4.131)"><g transform="translate(0 0)"><path class="p" d="M23.4,9.925A11.775,11.775,0,1,1,9.926.148,11.774,11.774,0,0,1,23.4,9.925Z"/></g></g><g transform="translate(10.848 8.29)"><g transform="translate(0.564 0)"><g transform="translate(0 0)"><path class="h" d="M4.877,6.536,4.4,3.561l.016,0a6.187,6.187,0,0,1,1.647.16,5,5,0,0,1,.814.349l.026-.1.288-1.144.065-.264-.619-.473L6.4,2.245a5.667,5.667,0,0,0-2.254-.279L3.888.329,3.314,0l.066.41-.7.111.265,1.667C.682,2.775-.2,4.261.038,5.764.364,7.812,2.2,8.064,3.9,8.2l.47,2.948A5.71,5.71,0,0,1,1.246,10.5l-.427,1.6a6.534,6.534,0,0,0,3.806.648l.2,1.235-.573.1.637.3,1.208-.192-.262-1.651c2.277-.6,3.175-2.077,2.935-3.58C8.442,6.9,6.575,6.673,4.877,6.536ZM3.619,6.418c-.9-.114-1.58-.339-1.693-1.046-.1-.648.255-1.249,1.275-1.578ZM4.4,3.558Zm1.173,7.37L5.16,8.318c.924.11,1.627.346,1.741,1.068C7,10.02,6.626,10.594,5.575,10.928Z"/></g></g><g class="i" transform="translate(0.564 0)"><g transform="translate(0 0)"><path class="h" d="M4.877,6.536,4.4,3.561l.016,0a6.187,6.187,0,0,1,1.647.16,5,5,0,0,1,.814.349l.026-.1.288-1.144.065-.264-.619-.473L6.4,2.245a5.667,5.667,0,0,0-2.254-.279L3.888.329,3.314,0l.066.41-.7.111.265,1.667C.682,2.775-.2,4.261.038,5.764.364,7.812,2.2,8.064,3.9,8.2l.47,2.948A5.71,5.71,0,0,1,1.246,10.5l-.427,1.6a6.534,6.534,0,0,0,3.806.648l.2,1.235-.573.1.637.3,1.208-.192-.262-1.651c2.277-.6,3.175-2.077,2.935-3.58C8.442,6.9,6.575,6.673,4.877,6.536ZM3.619,6.418c-.9-.114-1.58-.339-1.693-1.046-.1-.648.255-1.249,1.275-1.578ZM4.4,3.558Zm1.173,7.37L5.16,8.318c.924.11,1.627.346,1.741,1.068C7,10.02,6.626,10.594,5.575,10.928Z"/></g></g><g transform="translate(0 0.003)"><g transform="translate(0 0)"><path class="h" d="M5.831,12.207l.262,1.65-1.208.194-.261-1.636a6.542,6.542,0,0,1-3.806-.65l.425-1.594a5.732,5.732,0,0,0,3.128.65L3.9,7.873C2.2,7.736.365,7.484.038,5.435-.2,3.931.68,2.446,2.945,1.859L2.679.194,3.889,0l.261,1.636a6.387,6.387,0,0,1,3.135.424L6.917,3.645A6.191,6.191,0,0,0,4.4,3.228l.474,2.978c1.7.137,3.565.371,3.892,2.419C9.008,10.129,8.108,11.6,5.831,12.207ZM3.619,6.089,3.2,3.466c-1.02.328-1.378.929-1.275,1.578C2.039,5.752,2.724,5.975,3.619,6.089ZM6.9,9.058C6.787,8.337,6.084,8.1,5.16,7.991L5.575,10.6C6.626,10.266,7,9.692,6.9,9.058Z"/></g></g></g></g><g transform="translate(11.17 11.925)"><g transform="translate(0 0)"><path class="e" d="M.919,2.876a1,1,0,0,1-.4-.287A1.887,1.887,0,0,1,.013,1.529,1.876,1.876,0,0,1,.251.374.99.99,0,0,1,.566,0C.582.014.454.15.324.412a1.974,1.974,0,0,0-.2,1.1A2,2,0,0,0,.583,2.535C.774,2.758.931,2.86.919,2.876Z"/></g></g><g transform="translate(13.83 8.899)"><g transform="translate(0 0)"><path class="e" d="M.173.97A1.086,1.086,0,0,1,.039.494,1.083,1.083,0,0,1,.019,0,1.086,1.086,0,0,1,.155.476,1.071,1.071,0,0,1,.173.97Z"/></g></g></g></g><g transform="translate(38.259 37.285) rotate(180)"><path class="f" d="M8.4,17.161a.738.738,0,0,1-.739-.738V7.246A.739.739,0,0,1,8.4,6.508h1.778L6.253,1.88,2.33,6.508H4.109a.739.739,0,0,1,.738.738v9.177a.738.738,0,1,1-1.476,0V7.984H.738A.738.738,0,0,1,.175,6.769L5.69.262A.736.736,0,0,1,6.253,0h0a.736.736,0,0,1,.563.262l5.514,6.508a.738.738,0,0,1-.564,1.215H9.133v8.439A.738.738,0,0,1,8.4,17.161Z" transform="translate(0)"/></g></g><g transform="translate(491.919 2999.364)"><g transform="translate(10.74 0) rotate(20)"><g transform="translate(0 0)"><g transform="translate(0 0)"><g transform="translate(0 0)"><g transform="translate(0 0)"><path class="h" d="M31.205,13.233A15.7,15.7,0,1,1,13.234.2,15.7,15.7,0,0,1,31.205,13.233Z"/></g></g><g class="n" transform="translate(0 0.198)"><g transform="translate(0 0)"><path class="e" d="M13.234,0A15.7,15.7,0,0,0,.2,17.971s10.972-1.247,12.895-6.051S13.234,0,13.234,0Z"/></g></g><g transform="translate(3.48 3.558)"><g transform="translate(0 0)"><path class="o" d="M23.722,10.06A11.934,11.934,0,1,1,10.06.15,11.934,11.934,0,0,1,23.722,10.06Z"/></g></g><g transform="translate(4.21 4.131)"><g transform="translate(0 0)"><path class="p" d="M23.4,9.925A11.775,11.775,0,1,1,9.926.148,11.774,11.774,0,0,1,23.4,9.925Z"/></g></g><g transform="translate(10.848 8.29)"><g transform="translate(0.564 0)"><g transform="translate(0 0)"><path class="h" d="M4.877,6.536,4.4,3.561l.016,0a6.187,6.187,0,0,1,1.647.16,5,5,0,0,1,.814.349l.026-.1.288-1.144.065-.264-.619-.473L6.4,2.245a5.667,5.667,0,0,0-2.254-.279L3.888.329,3.314,0l.066.41-.7.111.265,1.667C.682,2.775-.2,4.261.038,5.764.364,7.812,2.2,8.064,3.9,8.2l.47,2.948A5.71,5.71,0,0,1,1.246,10.5l-.427,1.6a6.534,6.534,0,0,0,3.806.648l.2,1.235-.573.1.637.3,1.208-.192-.262-1.651c2.277-.6,3.175-2.077,2.935-3.58C8.442,6.9,6.575,6.673,4.877,6.536ZM3.619,6.418c-.9-.114-1.58-.339-1.693-1.046-.1-.648.255-1.249,1.275-1.578ZM4.4,3.558Zm1.173,7.37L5.16,8.318c.924.11,1.627.346,1.741,1.068C7,10.02,6.626,10.594,5.575,10.928Z"/></g></g><g class="i" transform="translate(0.564 0)"><g transform="translate(0 0)"><path class="h" d="M4.877,6.536,4.4,3.561l.016,0a6.187,6.187,0,0,1,1.647.16,5,5,0,0,1,.814.349l.026-.1.288-1.144.065-.264-.619-.473L6.4,2.245a5.667,5.667,0,0,0-2.254-.279L3.888.329,3.314,0l.066.41-.7.111.265,1.667C.682,2.775-.2,4.261.038,5.764.364,7.812,2.2,8.064,3.9,8.2l.47,2.948A5.71,5.71,0,0,1,1.246,10.5l-.427,1.6a6.534,6.534,0,0,0,3.806.648l.2,1.235-.573.1.637.3,1.208-.192-.262-1.651c2.277-.6,3.175-2.077,2.935-3.58C8.442,6.9,6.575,6.673,4.877,6.536ZM3.619,6.418c-.9-.114-1.58-.339-1.693-1.046-.1-.648.255-1.249,1.275-1.578ZM4.4,3.558Zm1.173,7.37L5.16,8.318c.924.11,1.627.346,1.741,1.068C7,10.02,6.626,10.594,5.575,10.928Z"/></g></g><g transform="translate(0 0.003)"><g transform="translate(0 0)"><path class="h" d="M5.831,12.207l.262,1.65-1.208.194-.261-1.636a6.542,6.542,0,0,1-3.806-.65l.425-1.594a5.732,5.732,0,0,0,3.128.65L3.9,7.873C2.2,7.736.365,7.484.038,5.435-.2,3.931.68,2.446,2.945,1.859L2.679.194,3.889,0l.261,1.636a6.387,6.387,0,0,1,3.135.424L6.917,3.645A6.191,6.191,0,0,0,4.4,3.228l.474,2.978c1.7.137,3.565.371,3.892,2.419C9.008,10.129,8.108,11.6,5.831,12.207ZM3.619,6.089,3.2,3.466c-1.02.328-1.378.929-1.275,1.578C2.039,5.752,2.724,5.975,3.619,6.089ZM6.9,9.058C6.787,8.337,6.084,8.1,5.16,7.991L5.575,10.6C6.626,10.266,7,9.692,6.9,9.058Z"/></g></g></g></g><g transform="translate(11.17 11.925)"><g transform="translate(0 0)"><path class="e" d="M.919,2.876a1,1,0,0,1-.4-.287A1.887,1.887,0,0,1,.013,1.529,1.876,1.876,0,0,1,.251.374.99.99,0,0,1,.566,0C.582.014.454.15.324.412a1.974,1.974,0,0,0-.2,1.1A2,2,0,0,0,.583,2.535C.774,2.758.931,2.86.919,2.876Z"/></g></g><g transform="translate(13.83 8.899)"><g transform="translate(0 0)"><path class="e" d="M.173.97A1.086,1.086,0,0,1,.039.494,1.083,1.083,0,0,1,.019,0,1.086,1.086,0,0,1,.155.476,1.071,1.071,0,0,1,.173.97Z"/></g></g></g></g><g transform="translate(25.755 20.124)"><path class="f" d="M384.689,2553.99a.739.739,0,0,1-.739-.738v-9.177a.738.738,0,0,1,.739-.738h1.778l-3.921-4.628-3.923,4.628H380.4a.738.738,0,0,1,.738.738v9.177a.738.738,0,1,1-1.476,0v-8.439h-2.633a.737.737,0,0,1-.563-1.215l5.515-6.508a.737.737,0,0,1,.563-.262h0a.737.737,0,0,1,.563.262l5.513,6.508a.738.738,0,0,1-.564,1.215h-2.632v8.439A.738.738,0,0,1,384.689,2553.99Z" transform="translate(-376.293 -2536.828)"/></g></g></g></svg>