<svg xmlns="http://www.w3.org/2000/svg" width="341.436" height="252.242" viewBox="0 0 341.436 252.242"><defs><style>.a{fill:#ff8b7b;}.b,.d,.e,.f{fill:#d9a171;}.b{opacity:0.2;}.b,.e,.f{isolation:isolate;}.c{fill:#344154;}.e{opacity:0.6;}.f,.k{opacity:0.3;}.g{fill:#ffbf9d;}.h{fill:#ff5652;}.i{fill:none;}.j{fill:#263238;}.l{fill:#aed3f2;}.m{fill:#fff;}.n{fill:#839eb6;}.o{fill:#5e6178;}.p{fill:#dbdbdb;}.q{fill:#c7c7c7;}.r{fill:#12263f;font-size:6px;font-family:Roboto-Regular, Roboto;}.s{fill:#f5f5f5;}.t{fill:#ebebeb;}.u{fill:#e0e0e0;}.v{fill:#e6e6e6;}</style></defs><g transform="translate(-199 -7258.123)"><g transform="translate(-10307.718 9051.762)"><path class="a" d="M10663.148-1570.967l-6.4,4.12-11.6-13.49,6.4-4.12Z"/><path class="b" d="M10651.559-1584.457l-6.41,4.12,5.99,6.96,6.4-4.13Z"/><path class="a" d="M10614.238-1548.967l-7.36.72-7.649-17.5,7.359-.72Z"/><path class="b" d="M10599.238-1565.737l3.939,9.02h7.671l-4.261-9.74Z"/><path class="c" d="M10558.348-1785.217c-3.7.33-3.8-5.95-10.3-3-8.26,3.76-5.47,9.59-11.92,9.35s-10.77,4.79-9.33,8.54,3.67,7.3-.89,8.81-7.66,2.84-7,6.62,3.89,5.3-1.55,7.71-4.891,12.83.439,12.84.22,5.2,5,10.48,12.05,6,15.08,3.4,6.41-4.75,12.11-.75,15.35,5,14.91-1.34-6-10.5-.761-13.8,12-4.93,9.88-11.35c-1.35-4-5.43-7.48-2.14-10.47,5.35-4.86,5.38-15.86-1.18-18.65C10566.888-1778.437,10570.558-1786.317,10558.348-1785.217Z"/><path class="a" d="M10551.228-1735.8c-.18,3-.56,5.67-1,8.48a81.014,81.014,0,0,1-1.81,8.3,61.317,61.317,0,0,1-2.71,8.16c-.54,1.34-1.16,2.67-1.82,4-.33.66-.689,1.31-1.06,1.95-.17.33-.38.65-.57,1l-.29.47a7.084,7.084,0,0,1-.66.89,5.858,5.858,0,0,1-2,1.47,6.364,6.364,0,0,1-2.159.55,8.549,8.549,0,0,1-3.24-.44,19.633,19.633,0,0,1-4.4-2.16,54.341,54.341,0,0,1-6.83-5.29,114.556,114.556,0,0,1-11.47-12.07l2.84-2.73c2,1.76,4,3.55,6.09,5.25s4.13,3.41,6.261,5a52.53,52.53,0,0,0,6.4,4.22,12.874,12.874,0,0,0,3,1.23,1.873,1.873,0,0,0,.78.07h-.2a1.485,1.485,0,0,0-.36.25l-.05.05h0l.221-.41c.14-.27.3-.53.43-.81q.42-.83.81-1.68c.5-1.14,1-2.3,1.4-3.51.84-2.4,1.54-4.88,2.16-7.4s1.09-5.09,1.51-7.68.74-5.24,1-7.7Z"/><path class="d" d="M10557.038-1734.857c-.4,2.42-2.41,7-4,10.4-1.18,2.46-2.14,4.31-2.14,4.31l-1.4-.62-11.59-5.16c.88-6.25,2.31-13,9.2-16.07C10551.408-1743.9,10557.748-1739.217,10557.038-1734.857Z"/><path class="e" d="M10557.038-1734.857c-.4,2.42-2.41,7-4,10.4-1.18,2.46-2.14,4.31-2.14,4.31l-1.4-.62-11.59-5.16c.88-6.25,2.31-13,9.2-16.07C10551.408-1743.9,10557.748-1739.217,10557.038-1734.857Z"/><path class="f" d="M10553.008-1724.457c-1.18,2.46-2.14,4.31-2.14,4.31l-1.4-.62c.19-2.47.681-6.36,2-8.11A10.976,10.976,0,0,1,10553.008-1724.457Z"/><path class="a" d="M10514.488-1720.927l.92-6.73-7.55,2.44s1.2,4.07,3.89,5.74Z"/><path class="a" d="M10511.988-1733.407l-5.271,2.89,1.141,5.34,7.55-2.48Z"/><path class="c" d="M10654.388-1568.867l6.95-5a.61.61,0,0,1,.8.07l4.73,4.93a1.219,1.219,0,0,1-.091,1.723,1.31,1.31,0,0,1-.109.087c-2.45,1.7-3.72,2.39-6.78,4.58-1.88,1.35-5.84,4.61-8.439,6.47s-4.57-.6-3.66-1.61c4.1-4.52,5.189-7.6,5.84-10.14A2,2,0,0,1,10654.388-1568.867Z"/><path class="c" d="M10605.908-1550.517h9a.75.75,0,0,1,.71.55l2,7.14a1.12,1.12,0,0,1-.767,1.387,1.109,1.109,0,0,1-.334.043h-20.8c-3.3,0-4-3.34-2.63-3.64,6.12-1.35,9.65-3.22,11.54-5A1.863,1.863,0,0,1,10605.908-1550.517Z"/><path class="d" d="M10592.168-1707.757l-29.47,9.32c-20.4-40.38-17.49-42.52-17.49-42.52s4.71-2.69,9.61-4.93c.739-.34,1.489-.67,2.229-1a98.458,98.458,0,0,1,13.38-4.24c.67-.18,1.34-.34,2-.5a94.048,94.048,0,0,1,11-1.81c.44,5.59.88,10.32,1.36,14.43.62,5.36,1.29,9.65,2,13.36A116.805,116.805,0,0,0,10592.168-1707.757Z"/><path class="e" d="M10592.168-1707.757l-29.47,9.32c-20.4-40.38-17.49-42.52-17.49-42.52s4.71-2.69,9.61-4.93c.739-.34,1.489-.67,2.229-1a98.458,98.458,0,0,1,13.38-4.24c.67-.18,1.34-.34,2-.5a94.048,94.048,0,0,1,11-1.81c.44,5.59.88,10.32,1.36,14.43.62,5.36,1.29,9.65,2,13.36A116.805,116.805,0,0,0,10592.168-1707.757Z"/><path class="f" d="M10586.868-1725.627c-2.83-4-5.54-13.31-4.84-16.8l2.8,3.44C10585.448-1733.627,10586.118-1729.337,10586.868-1725.627Z"/><path class="g" d="M10563.748-1733.417s7.43-1.61,9.82,1.62c3.279-3.23,2.12-15.85.54-20.35a19.508,19.508,0,0,0-3.67,1l-5.25,8.12Z"/><path class="g" d="M10563.748-1733.417s-5,1.12-5.53,5.21c-7-5.21-6.51-12.84-4.93-17.34a17.719,17.719,0,0,1,3.76-1.32l5.25,5.78Z"/><path class="a" d="M10565.458-1759.627c1,3.68,2.52,7.32,5,8.52,0,0,2.31,6.62-6.69,17.69-9.42-6.71-6.7-13.45-6.7-13.45,4.439-2.67,3.189-6.19,1.3-9.27l2.609-4.19a2.482,2.482,0,0,1,3.429-.742A2.481,2.481,0,0,1,10565.458-1759.627Z"/><path class="b" d="M10565.458-1759.627a2.479,2.479,0,0,0-3.013-1.794,2.48,2.48,0,0,0-1.5,1.094l-.84,1.34h0c.069.89.109,1.62.1,2-.08,2.6,3.57,2.48,6.54,1.23A26.281,26.281,0,0,1,10565.458-1759.627Z"/><path class="a" d="M10547.368-1769.677c2.6,7.09,3.54,10.15,8.3,12.77,7.15,3.95,15.29-.79,14.87-8.52-.38-6.95-4.561-17.39-12.49-18.16a10.311,10.311,0,0,0-11.3,9.219A10.307,10.307,0,0,0,10547.368-1769.677Z"/><path class="c" d="M10565.758-1780.337c-2.439-2.35-5-5.08-9.9-4.55-5.42.59-7.561,3.87-7.561,3.87l-4.66,10.19s2.891,13.12,7.66,7c2.75-3.54,2.82-8.89,1.82-12.89a32.238,32.238,0,0,0,5.52-1.28c2.2.82,4.67.82,6.5-.86.4-.37.69-.66.9-.89l.17-.19C10566.748-1780.627,10566.3-1780.557,10565.758-1780.337Zm-6.3,2.12a52.439,52.439,0,0,1,5.2-1.39A5.129,5.129,0,0,1,10559.458-1778.217Z"/><path class="a" d="M10547.728-1762.467a5.541,5.541,0,0,0,3.391,2.53c1.88.47,2.77-1.22,2.2-3-.511-1.57-2.1-3.71-4-3.41a2.49,2.49,0,0,0-2,2.9A2.489,2.489,0,0,0,10547.728-1762.467Z"/><path class="d" d="M10562.7-1698.427s-1,60.39,6.89,82.21c7.6,20.92,30.271,56.88,30.271,56.88l13.14-.33s-20.88-45.55-24.29-63.55c-5.68-29.87-4.43-82-4.43-82Z"/><path class="f" d="M10574.5-1693.217l3.53-10,6.25-2s-.57,23.73.8,48.34C10579.408-1667.8,10574.5-1687.8,10574.5-1693.217Z"/><path class="c" d="M10598.008-1558.657l16.23-.41-.94-4.99-17.72.84Z"/><path class="d" d="M10569.118-1700.377s20.5,46.89,33.75,73.58c10.7,21.56,44,50.48,44,50.48l9.13-6.33s-25.06-34.26-32.45-48.88c-23.649-46.78-17.82-66.06-31.42-76.23Z"/><path class="c" d="M10647.408-1573.3l10.72-7.63-2.43-4.68-11.78,8.91Z"/><path class="c" d="M10592.118-1709.627l2.16,2.22c.17.17,0,.46-.351.57l-30.91,9.77a.512.512,0,0,1-.59-.13l-1.1-2.56c-.08-.17.1-.4.39-.49l29.851-9.45A.56.56,0,0,1,10592.118-1709.627Z"/><path class="d" d="M10589.118-1705.017l.8-.25c.16,0,.26-.18.21-.27l-1.45-3.31a.31.31,0,0,0-.37-.09l-.8.26c-.16.05-.26.17-.21.27l1.46,3.3C10588.788-1705.007,10588.948-1704.967,10589.118-1705.017Z"/><path class="d" d="M10565.308-1697.487l.8-.25c.159-.05.25-.17.21-.27l-1.46-3.31c0-.1-.21-.13-.37-.08l-.8.25c-.15.05-.25.17-.211.27l1.461,3.31A.318.318,0,0,0,10565.308-1697.487Z"/><path class="d" d="M10577.208-1701.217l.8-.25c.16-.05.26-.17.21-.27l-1.46-3.31c0-.09-.2-.13-.359-.08l-.8.25a.213.213,0,0,0-.21.27l1.45,3.31C10576.888-1701.217,10577.048-1701.217,10577.208-1701.217Z"/><path class="c" d="M10559.808-1771.217c.181.59.631,1,1,.86a1,1,0,0,0,.37-1.27c-.18-.58-.62-1-1-.86S10559.638-1771.827,10559.808-1771.217Z"/><path class="c" d="M10566.458-1773.217c.18.59.63,1,1,.86s.55-.68.38-1.27-.63-1-1-.86S10566.288-1773.807,10566.458-1773.217Z"/><path class="c" d="M10566.678-1774.407l1.29-.83S10567.578-1773.917,10566.678-1774.407Z"/><path class="h" d="M10564.8-1771.687a16.716,16.716,0,0,0,3.22,3.13,2.665,2.665,0,0,1-2,1Z"/><path class="c" d="M10564.038-1764.317a.178.178,0,0,0,.06-.19.19.19,0,0,0-.22-.13,4.819,4.819,0,0,1-4.34-.69.185.185,0,0,0-.26.02.184.184,0,0,0,.02.26,5.176,5.176,0,0,0,4.68.76Z"/><path class="c" d="M10557.3-1772.847a.376.376,0,0,0,.1-.16,2.889,2.889,0,0,1,1.869-1.81.36.36,0,0,0,.321-.4.36.36,0,0,0-.4-.321.379.379,0,0,0-.075.016,3.542,3.542,0,0,0-2.391,2.3.361.361,0,0,0,.2.467l.008,0A.408.408,0,0,0,10557.3-1772.847Z"/><path class="c" d="M10568.488-1776.987a.279.279,0,0,1,0-.07.381.381,0,0,0-.29-.42,3.611,3.611,0,0,0-3.181.86.361.361,0,0,0,.011.51.36.36,0,0,0,.51-.01h0a2.861,2.861,0,0,1,2.52-.65A.371.371,0,0,0,10568.488-1776.987Z"/><path class="a" d="M10587.948-1746.357c1.189.89,2.189,1.72,3.229,2.62s2,1.8,3,2.74c1.95,1.88,3.83,3.84,5.61,5.9a66.652,66.652,0,0,1,5,6.53c.4.56.75,1.17,1.12,1.75s.74,1.17,1.069,1.79.681,1.17,1,1.86l.53,1.11.431,1.12a26.354,26.354,0,0,1,1.279,8.8,48.583,48.583,0,0,1-.89,8.26,73.335,73.335,0,0,1-2,7.84,76.1,76.1,0,0,1-2.82,7.55l-3.62-1.34c.62-2.4,1.21-4.92,1.65-7.41a70.858,70.858,0,0,0,1.07-7.46,48.456,48.456,0,0,0,.17-7.3,29.11,29.11,0,0,0-.42-3.44,19.929,19.929,0,0,0-.91-3.08l-.311-.69-.34-.63c-.27-.46-.64-1-1-1.51s-.66-1-1-1.51-.689-1-1.07-1.48c-1.46-2-3.109-3.82-4.75-5.67s-3.439-3.59-5.27-5.29c-.9-.86-1.83-1.7-2.76-2.52s-1.931-1.64-2.79-2.34Z"/><path class="a" d="M10602.038-1692.217l-5.48,4,7,3.7s2.091-3.7,1.42-6.79Z"/><path class="a" d="M10594.828-1681.727l5.73,1.77,3.05-4.54-7.05-3.7Z"/><path class="d" d="M10583.468-1753.417c3.83-.17,11.36,9.24,11.36,9.24l-7.82,11.06s-8.78-7-9.46-11.87C10576.978-1749.137,10578.588-1753.217,10583.468-1753.417Z"/><path class="e" d="M10583.468-1753.417c3.83-.17,11.36,9.24,11.36,9.24l-7.82,11.06s-8.78-7-9.46-11.87C10576.978-1749.137,10578.588-1753.217,10583.468-1753.417Z"/><path class="d" d="M10651.758-1565.737h-.12a1,1,0,0,1-.8-.61.642.642,0,0,1,0-.62c.49-.84,3.24-1,3.55-1a.189.189,0,0,1,.17.1.178.178,0,0,1,0,.2C10653.888-1566.927,10652.7-1565.737,10651.758-1565.737Zm2.2-1.83c-1.1.08-2.56.34-2.81.78a.239.239,0,0,0,0,.27.667.667,0,0,0,.52.42c.53.06,1.37-.49,2.29-1.47Z"/><path class="d" d="M10654.2-1567.587c-.92,0-2.73-.51-3.07-1.25a.651.651,0,0,1,.2-.76,1,1,0,0,1,.77-.25c1.091.12,2.38,1.89,2.431,2a.167.167,0,0,1,0,.18.19.19,0,0,1-.141.1Zm-2.221-1.9a.571.571,0,0,0-.4.16c-.17.15-.15.27-.12.35.22.48,1.64,1,2.57,1-.46-.57-1.32-1.47-2-1.54Z"/><path class="d" d="M10601.9-1549.027a3,3,0,0,1-1.761-.42,1.136,1.136,0,0,1-.46-.87.542.542,0,0,1,.23-.49c.819-.55,3.89.84,4.5,1.13a.172.172,0,0,1,.1.18.179.179,0,0,1-.14.16A12.378,12.378,0,0,1,10601.9-1549.027Zm-1.431-1.56a.69.69,0,0,0-.359.08.18.18,0,0,0-.07.17.768.768,0,0,0,.32.6c.529.4,1.779.46,3.39.16A11,11,0,0,0,10600.468-1550.587Z"/><path class="d" d="M10604.328-1549.337h-.061c-1-.42-3.079-2.07-3-2.92,0-.18.15-.42.61-.47,1.8-.22,2.561,3,2.59,3.18a.187.187,0,0,1-.06.18A.154.154,0,0,1,10604.328-1549.337Zm-2.21-3.05h-.12c-.19,0-.29.08-.31.17-.061.49,1.359,1.8,2.4,2.37C10603.818-1550.637,10603.168-1552.387,10602.118-1552.387Z"/><path class="c" d="M10560.028-1772.427l1.29-.83S10560.928-1771.937,10560.028-1772.427Z"/></g><g transform="translate(480.158 7382.952)"><g transform="translate(5.31)"><g transform="translate(0.381 0.136)"><path class="d" d="M129.4,196.277a22.113,22.113,0,0,1,5.676,1.5l4.172-3.5,7.166,5.454-2.258,4.953a22.02,22.02,0,0,1,2.957,5.071l5.421.479,1.21,8.923-5.1,1.906a22.05,22.05,0,0,1-1.5,5.676l3.5,4.173-5.453,7.165-4.953-2.257a22.069,22.069,0,0,1-5.072,2.956l-.477,5.421-8.924,1.212-1.906-5.1a22.073,22.073,0,0,1-5.676-1.5l-4.172,3.5-7.166-5.454L109.1,231.9a22.129,22.129,0,0,1-2.957-5.072l-5.419-.477-1.212-8.924,5.1-1.9a21.943,21.943,0,0,1,1.5-5.678l-3.5-4.172,5.453-7.166,4.954,2.258a22.1,22.1,0,0,1,5.072-2.957l.476-5.419,8.924-1.211,1.906,5.1Zm-3.664,12.39a9.661,9.661,0,1,0,10.872,8.274A9.661,9.661,0,0,0,125.738,208.667Z" transform="translate(-99.516 -191.181)"/></g><g transform="translate(17.923 17.42)"><path class="c" d="M120.688,203.691a1.872,1.872,0,0,1,.608-.131,7.525,7.525,0,0,1,1.786-.038,9.615,9.615,0,0,1,5.923,2.723,9.936,9.936,0,0,1-.049,14.235,9.959,9.959,0,0,1-11.764,1.6,9.939,9.939,0,0,1-3.841-13.71,9.61,9.61,0,0,1,4.982-4.2,7.511,7.511,0,0,1,1.732-.44,1.908,1.908,0,0,1,.622-.036c.015.083-.845.167-2.24.758a9.634,9.634,0,0,0-4.617,4.19,9.4,9.4,0,0,0-.074,8.938,9.215,9.215,0,0,0,3.8,3.828,9.259,9.259,0,0,0,10.868-1.475,9.2,9.2,0,0,0,2.643-4.7,9.4,9.4,0,0,0-2.453-8.6,9.637,9.637,0,0,0-5.567-2.81C121.547,203.627,120.695,203.775,120.688,203.691Z" transform="translate(-112.008 -203.489)"/></g><path class="c" d="M129.512,196.316a1.435,1.435,0,0,1-.143-.3l-.389-.952-1.49-3.8.133.08-8.914,1.282.171-.178c-.136,1.646-.286,3.47-.447,5.423l-.011.136-.129.055a21.947,21.947,0,0,0-5,2.948l-.122.1-.142-.065-4.963-2.237.336-.086-5.429,7.183-.01-.382,3.508,4.162.126.149-.074.181a21.78,21.78,0,0,0-1.465,5.595l-.024.2-.192.072L99.748,217.8l.223-.372c.385,2.8.8,5.825,1.226,8.921l-.327-.313,5.419.47.223.02.087.208a21.89,21.89,0,0,0,2.913,4.982l.14.18-.094.208c-.706,1.553-1.477,3.245-2.255,4.956l-.115-.462,7.169,5.449-.483.013,4.171-3.5.181-.152.218.09a21.765,21.765,0,0,0,5.571,1.472h0l.319.251v0l0,.011.007.02.015.039.029.08.06.162.119.32.239.642.479,1.278.948,2.54-.417-.249,8.926-1.208-.333.348q.242-2.736.48-5.421l.021-.23.213-.088a21.753,21.753,0,0,0,4.988-2.9l.181-.14.206.1,4.952,2.262-.451.114q2.8-3.665,5.464-7.158l.01.448q-1.776-2.128-3.488-4.179l-.136-.163.081-.2a21.754,21.754,0,0,0,1.487-5.585l.027-.2.191-.07,5.1-1.893-.208.347c-.417-3.14-.81-6.1-1.184-8.927l.268.257-5.418-.5-.17-.015-.065-.156a21.831,21.831,0,0,0-2.9-5.022l-.1-.125.065-.139c.829-1.795,1.576-3.412,2.281-4.942l.07.278c-2.759-2.126-5.113-3.94-7.132-5.5l.219-.006-4.2,3.459-.059.049-.069-.03a23.334,23.334,0,0,0-4.2-1.323l-1.071-.212a1.524,1.524,0,0,1-.354-.08,2.024,2.024,0,0,1,.364.015c.24.025.6.067,1.086.15a21.033,21.033,0,0,1,4.275,1.218l-.128.02,4.14-3.535.105-.09.112.086c2.039,1.531,4.415,3.317,7.2,5.409l.146.11-.076.17c-.691,1.536-1.423,3.161-2.234,4.963l-.031-.263a22.3,22.3,0,0,1,3.014,5.121l-.233-.171,5.422.459.237.02.032.237c.39,2.821.8,5.783,1.236,8.92l.035.257-.243.091-5.092,1.917.216-.274a22.379,22.379,0,0,1-1.511,5.767l-.055-.357,3.5,4.165.185.219-.174.229-5.443,7.173-.18.237-.271-.124-4.956-2.252.389-.045a22.452,22.452,0,0,1-5.158,3.012l.235-.32q-.234,2.684-.473,5.421l-.027.308-.306.042-8.924,1.213-.308.042-.11-.291q-.474-1.266-.949-2.542l-.479-1.278-.239-.64-.121-.322-.059-.16-.031-.08-.014-.041-.008-.02,0-.01,0-.006c.633.5.176.139.316.25h0a22.492,22.492,0,0,1-5.77-1.525l.4-.062-4.174,3.5-.237.2-.246-.187-7.163-5.459-.243-.185.126-.278c.781-1.709,1.555-3.4,2.264-4.95l.045.388a22.563,22.563,0,0,1-3-5.161l.309.226-5.419-.485-.289-.027-.038-.286c-.416-3.1-.82-6.123-1.2-8.927l-.037-.275.26-.1,5.1-1.893-.216.272a22.362,22.362,0,0,1,1.536-5.758l.051.33-3.485-4.182-.157-.19.149-.194q2.882-3.762,5.477-7.148l.135-.178.2.093c1.736.8,3.4,1.569,4.945,2.278l-.263.031a22.364,22.364,0,0,1,5.141-2.966l-.14.191c.184-1.951.354-3.775.508-5.416l.015-.159.156-.021,8.933-1.137.1-.013.032.093,1.35,3.8c.139.409.25.734.338.992A2.016,2.016,0,0,1,129.512,196.316Z" transform="translate(-99.245 -191.084)"/></g><g transform="translate(0 62.164)"><g transform="translate(0.239 0.086)"><path class="i" d="M114.4,238.612a13.914,13.914,0,0,1,3.564.941l2.62-2.195,4.5,3.425-1.417,3.11a13.91,13.91,0,0,1,1.858,3.185l3.4.3.76,5.6-3.2,1.2a13.869,13.869,0,0,1-.942,3.566l2.2,2.62-3.425,4.5-3.11-1.418a13.872,13.872,0,0,1-3.186,1.858l-.3,3.4-5.606.761-1.2-3.2a13.874,13.874,0,0,1-3.565-.941l-2.62,2.195-4.5-3.425,1.418-3.111A13.966,13.966,0,0,1,99.8,257.8l-3.4-.3-.761-5.6,3.2-1.2a13.883,13.883,0,0,1,.942-3.566l-2.2-2.62,3.425-4.5,3.112,1.418a13.8,13.8,0,0,1,3.185-1.858l.3-3.4,5.6-.76,1.2,3.2Zm-2.3,7.781a6.068,6.068,0,1,0,6.828,5.2A6.07,6.07,0,0,0,112.1,246.394Z" transform="translate(-95.634 -235.412)"/></g><g transform="translate(11.256 10.94)"><path class="j" d="M108.93,243.268a1.181,1.181,0,0,1,.382-.081,4.681,4.681,0,0,1,1.122-.024,6.039,6.039,0,0,1,3.72,1.709,6.242,6.242,0,0,1-.031,8.941,6.252,6.252,0,0,1-7.388,1,6.241,6.241,0,0,1-2.413-8.61,6.037,6.037,0,0,1,3.13-2.639,4.638,4.638,0,0,1,1.087-.275,1.165,1.165,0,0,1,.39-.024c.01.052-.531.105-1.407.476a6.045,6.045,0,0,0-2.9,2.633,5.9,5.9,0,0,0-.048,5.613,5.789,5.789,0,0,0,2.387,2.4,5.817,5.817,0,0,0,6.826-.927,5.8,5.8,0,0,0,1.66-2.953,5.9,5.9,0,0,0-1.542-5.4,6.047,6.047,0,0,0-3.5-1.765C109.471,243.228,108.935,243.322,108.93,243.268Z" transform="translate(-103.479 -243.142)"/></g><path class="j" d="M114.473,238.637a.877.877,0,0,1-.091-.191l-.243-.6q-.335-.849-.937-2.386l.084.05-5.6.806.108-.112c-.086,1.034-.18,2.179-.281,3.405l-.007.086-.081.035a13.8,13.8,0,0,0-3.141,1.851l-.076.06-.09-.041L101,240.2l.211-.053c-1.074,1.421-2.213,2.929-3.41,4.511l-.006-.24c.681.81,1.432,1.7,2.2,2.615l.079.093-.048.115a13.669,13.669,0,0,0-.918,3.514l-.015.126-.121.045-3.2,1.2.139-.235c.243,1.76.5,3.658.771,5.6l-.206-.2,3.4.3.14.011.053.131a13.756,13.756,0,0,0,1.83,3.129l.088.114-.059.131-1.416,3.112-.073-.291,4.5,3.422-.3.007,2.619-2.2.114-.1.138.058a13.659,13.659,0,0,0,3.5.924h0c.088.07-.2-.157.2.157v0l0,.007,0,.013.01.025.018.051.038.1.074.2.15.4.3.8c.2.534.4,1.067.6,1.6l-.261-.157,5.6-.758-.208.219q.152-1.719.3-3.4l.014-.146.133-.055a13.625,13.625,0,0,0,3.133-1.823l.114-.089.131.06,3.109,1.421-.284.07q1.759-2.3,3.432-4.5l.006.282-2.191-2.625-.086-.1.051-.122a13.653,13.653,0,0,0,.935-3.508l.015-.128.121-.045,3.2-1.188-.131.218c-.261-1.972-.508-3.834-.744-5.606l.17.162-3.4-.312-.107-.01-.041-.1a13.749,13.749,0,0,0-1.823-3.154l-.059-.077.039-.088c.521-1.126.99-2.143,1.434-3.1l.044.176c-1.733-1.336-3.21-2.476-4.48-3.453l.138,0-2.64,2.171-.038.031-.044-.018a14.538,14.538,0,0,0-2.639-.83l-.673-.133a.879.879,0,0,1-.222-.051,1.268,1.268,0,0,1,.228.01c.152.016.379.042.682.094a13.25,13.25,0,0,1,2.684.764l-.08.013,2.6-2.219.067-.056.07.053,4.522,3.4.091.069-.048.107-1.4,3.116-.02-.164a14.008,14.008,0,0,1,1.893,3.216l-.146-.107,3.4.288.149.013.021.149c.246,1.771.5,3.632.777,5.6l.021.161-.152.058-3.2,1.2.136-.171a14,14,0,0,1-.949,3.622l-.034-.225,2.2,2.616.115.138-.11.145-3.418,4.505-.112.147-.17-.077-3.112-1.414.243-.028a14.11,14.11,0,0,1-3.238,1.892l.146-.2q-.145,1.685-.3,3.4l-.017.192-.192.027-5.6.763-.194.027-.069-.183c-.2-.531-.4-1.062-.6-1.6l-.3-.8-.15-.4-.076-.2-.038-.1-.018-.051-.01-.025,0-.013,0-.006v0c.4.314.11.087.2.157h0a14.116,14.116,0,0,1-3.624-.958l.25-.039-2.622,2.2-.149.125-.154-.118-4.5-3.428-.153-.117.079-.174c.491-1.073.977-2.136,1.423-3.109l.028.243a14.091,14.091,0,0,1-1.885-3.241l.194.143-3.4-.3-.183-.017-.024-.18c-.261-1.946-.515-3.845-.751-5.606l-.022-.174.163-.06,3.2-1.189-.136.173a14.093,14.093,0,0,1,.965-3.617l.032.208L97.5,244.664l-.1-.119.093-.122q1.809-2.361,3.439-4.488l.086-.112.126.059,3.1,1.43-.166.02a14,14,0,0,1,3.23-1.862l-.088.119.319-3.4.01-.1.1-.013,5.61-.713.063-.008.02.058q.548,1.538.848,2.384l.212.622A1.326,1.326,0,0,1,114.473,238.637Z" transform="translate(-95.464 -235.351)"/></g></g><g transform="matrix(0.995, -0.105, 0.105, 0.995, -9434.55, 9577.738)"><g transform="translate(-273 170.684)"><g transform="translate(10214.34 -1425.771)"><path class="d" d="M10340.529-1421.046l35.246-1.488a11.429,11.429,0,0,1,11.908,11.158l1.244,54.439a11.428,11.428,0,0,1-10.238,11.629h0a3.8,3.8,0,0,0-3.4,3.923l4.428,114.983a14.264,14.264,0,0,1-13.621,14.8l-134.643,5.978a3.8,3.8,0,0,1-3.965-3.68l-5.957-199.6a3.8,3.8,0,0,1,3.525-3.9Z" transform="translate(-10221.529 1422.544)"/></g><g class="k" transform="translate(10220.186 -1425.502)"><path class="d" d="M10228.474-1213.03l.113,3.774,144.944-13.328-2.771-199.641s-35.185,5.332-35.824,5.332S10228.474-1213.03,10228.474-1213.03Z" transform="translate(-10228.474 1422.225)"/></g><g transform="translate(10191.388 -1437.646)"><g transform="translate(0.158 0.093)"><path class="l" d="M10317.9-1433.974l42.063-2.565,4.343,206.924-148.047,15.015-21.8-205.838Z" transform="translate(-10194.452 1436.54)"/></g><path class="c" d="M10317.867-1433.991s-.738.1-2.181.26l-6.4.722-24.589,2.734-90.261,9.961.127-.157c5.854,55.151,13.46,126.791,21.85,205.833l-.208-.168,33.185-3.367,114.863-11.64-.162.183c-1.858-90.473-3.382-164.677-4.249-206.925l.093.085-31.3,1.867-8.043.468c-1.8.1-2.723.143-2.723.143s.915-.072,2.72-.189l8.039-.513,31.3-1.951.092-.005v.091c.906,42.247,2.5,116.451,4.436,206.922l0,.167-.166.017-114.862,11.659-33.184,3.365-.188.019-.021-.188c-8.354-79.046-15.927-150.689-21.756-205.843l-.016-.142.142-.015,90.277-9.835,24.6-2.658,6.4-.682C10317.126-1433.925,10317.867-1433.991,10317.867-1433.991Z" transform="translate(-10194.265 1436.65)"/></g><g transform="translate(10184.188 -1442.944)"><g transform="translate(0 0.17)"><path class="m" d="M10185.713-1428.292l20.042,208.251,155.052-14.606-22.359-208.1Z" transform="translate(-10185.713 1442.742)"/></g><path class="c" d="M10185.713-1428.324l152.72-14.6.152-.015.018.153c6.286,58.418,14.03,130.371,22.395,208.092l.021.192-.192.018-1.1.1-153.954,14.484-.172.016-.016-.172c-11.766-123.307-19.727-206.749-19.871-208.267.147,1.516,8.245,84.947,20.214,208.234l-.188-.155,153.952-14.521,1.1-.1-.171.211c-8.339-77.723-16.059-149.679-22.325-208.1l.169.138Z" transform="translate(-10185.713 1442.944)"/></g><g transform="translate(10303.101 -1293.182)"><path class="n" d="M10326.968-1242.243a22.879,22.879,0,0,1,22.907-22.8,22.88,22.88,0,0,1,22.8,22.908,22.88,22.88,0,0,1-22.908,22.8A22.881,22.881,0,0,1,10326.968-1242.243Zm45.288.106a22.459,22.459,0,0,0-22.382-22.486,22.459,22.459,0,0,0-22.486,22.381,22.46,22.46,0,0,0,22.381,22.487A22.46,22.46,0,0,0,10372.256-1242.137Z" transform="translate(-10326.968 1265.043)"/><g transform="translate(2.606 2.921)"><path class="n" d="M10330.064-1241.688a19.953,19.953,0,0,1,19.979-19.885,19.955,19.955,0,0,1,19.886,19.979,19.955,19.955,0,0,1-19.979,19.885A19.953,19.953,0,0,1,10330.064-1241.688Zm36.923.087a17.01,17.01,0,0,0-16.951-17.032,17.012,17.012,0,0,0-17.032,16.952,17.013,17.013,0,0,0,16.952,17.033A17.01,17.01,0,0,0,10366.987-1241.6Z" transform="translate(-10330.064 1261.573)"/></g><g transform="translate(7.511 16.487)"><path class="n" d="M10335.89-1238.846a14.606,14.606,0,0,1,1.579-6.612l2.624,1.327a11.682,11.682,0,0,0-1.263,5.292,11.818,11.818,0,0,0,11.777,11.833,11.775,11.775,0,0,0,6.179-1.727l1.534,2.508a14.7,14.7,0,0,1-7.72,2.159A14.763,14.763,0,0,1,10335.89-1238.846Z" transform="translate(-10335.89 1245.458)"/></g><g transform="translate(15.452 8.388)"><path class="n" d="M10345.323-1253.418a14.772,14.772,0,0,1,6.839-1.661,14.761,14.761,0,0,1,14.711,14.78,14.7,14.7,0,0,1-2.265,7.822l-2.487-1.569a11.769,11.769,0,0,0,1.812-6.26,11.819,11.819,0,0,0-11.777-11.833,11.682,11.682,0,0,0-5.475,1.328Z" transform="translate(-10345.323 1255.079)"/></g></g><g transform="translate(10201.963 -1390.843)"><path class="c" d="M10267.176-1381.047c.011.1-13.492,1.466-30.154,3.038s-30.185,2.765-30.194,2.659,13.489-1.465,30.158-3.039S10267.167-1381.152,10267.176-1381.047Z" transform="translate(-10206.827 1381.054)"/></g><g transform="translate(10217.706 -1251.844)"><path class="d" d="M10272.95-1215.929c.009.105-10.6,1.092-23.693,2.2s-23.72,1.928-23.729,1.823,10.6-1.091,23.7-2.2S10272.941-1216.033,10272.95-1215.929Z" transform="translate(-10225.528 1215.938)"/></g><g transform="translate(10218.132 -1243.749)"><path class="d" d="M10252.653-1206.306c.008.105-5.944.7-13.293,1.32s-13.317,1.045-13.326.94,5.941-.7,13.293-1.32S10252.644-1206.41,10252.653-1206.306Z" transform="translate(-10226.034 1206.322)"/></g><g transform="translate(10211.798 -1303.464)"><path class="d" d="M10249.829-1277.244c.01.1-6.993.88-15.641,1.732s-15.667,1.458-15.678,1.354,6.991-.88,15.641-1.733S10249.818-1277.349,10249.829-1277.244Z" transform="translate(-10218.511 1277.256)"/></g><g class="k" transform="translate(10200.545 -1270.059)"><path class="d" d="M10205.634-1222.825l14.232-2.751,7.959-12-22.682,7.449Z" transform="translate(-10205.144 1237.575)"/></g><g transform="translate(10176.073 -1274.242)"><path class="d" d="M10176.073-1238.947l38-3.6,9.15,4.183-7.3,8.216-38.6,4.162Z" transform="translate(-10176.073 1242.544)"/></g><g transform="translate(10221.765 -1269.354)"><path class="d" d="M10291.357-1236.737s.045.012.13.043a1.766,1.766,0,0,1,.371.175,5.268,5.268,0,0,1,1.223,1.034,17.508,17.508,0,0,1,3.079,5.31,22.24,22.24,0,0,1,1.6,9.562,14.332,14.332,0,0,1-.519,2.914,19.283,19.283,0,0,1-1.168,2.925,19.609,19.609,0,0,1-4.059,5.482,20.281,20.281,0,0,1-6.278,4.107,17.2,17.2,0,0,1-8.019,1.262,17.593,17.593,0,0,1-14.082-10.057,14.383,14.383,0,0,1-1.273-4.654,10.954,10.954,0,0,1,.513-4.911,7.891,7.891,0,0,1,2.926-4.1,5.677,5.677,0,0,1,2.438-.912,5.837,5.837,0,0,1,2.607.306,7.7,7.7,0,0,1,4.018,3.334,12.359,12.359,0,0,1,1.595,5.077,22.186,22.186,0,0,1-1.564,10.661,20.982,20.982,0,0,1-6.441,8.629,19.33,19.33,0,0,1-9.7,3.9,18.175,18.175,0,0,1-9.952-1.62,17,17,0,0,1-7.078-6.577,16.506,16.506,0,0,1-2.4-8.881,12.039,12.039,0,0,1,.855-4.371,8.663,8.663,0,0,1,2.5-3.516,5.183,5.183,0,0,1,3.973-1.175,5.951,5.951,0,0,1,3.5,1.951,7.466,7.466,0,0,1,1.758,3.438,9.693,9.693,0,0,1-.006,3.695,19.169,19.169,0,0,1-2.606,6.3,30.272,30.272,0,0,1-3.66,4.866,33.1,33.1,0,0,1-3.895,3.59,33.571,33.571,0,0,1-3.707,2.465,28.578,28.578,0,0,1-5.627,2.483c-1.341.427-2.067.574-2.067.574s.176-.062.52-.167.866-.234,1.524-.481a29.646,29.646,0,0,0,5.576-2.539,33.716,33.716,0,0,0,3.669-2.48,33.084,33.084,0,0,0,3.85-3.589,30.083,30.083,0,0,0,3.609-4.846,19,19,0,0,0,2.55-6.227,9.4,9.4,0,0,0-.006-3.59,7.194,7.194,0,0,0-1.7-3.3,5.661,5.661,0,0,0-3.326-1.845,4.865,4.865,0,0,0-3.733,1.12,8.334,8.334,0,0,0-2.4,3.393,11.7,11.7,0,0,0-.821,4.256,16.17,16.17,0,0,0,2.361,8.692,16.649,16.649,0,0,0,6.937,6.429,17.812,17.812,0,0,0,9.751,1.577,18.976,18.976,0,0,0,9.5-3.829,20.613,20.613,0,0,0,6.321-8.473,21.823,21.823,0,0,0,1.54-10.476,11.955,11.955,0,0,0-1.539-4.923,7.322,7.322,0,0,0-3.818-3.175,5.444,5.444,0,0,0-2.44-.29,5.3,5.3,0,0,0-2.276.849,7.531,7.531,0,0,0-2.786,3.91,10.567,10.567,0,0,0-.5,4.757,14.045,14.045,0,0,0,1.237,4.545,17.276,17.276,0,0,0,13.791,9.887,16.921,16.921,0,0,0,7.879-1.219,20.037,20.037,0,0,0,6.2-4.031,19.35,19.35,0,0,0,4.028-5.4,19.074,19.074,0,0,0,1.166-2.881,14.233,14.233,0,0,0,.525-2.866,22.242,22.242,0,0,0-1.522-9.491,17.847,17.847,0,0,0-3-5.313,5.506,5.506,0,0,0-1.186-1.052A5.267,5.267,0,0,0,10291.357-1236.737Z" transform="translate(-10230.35 1236.737)"/></g><g transform="translate(10221.538 -1427.54)"><path class="o" d="M10311.554-1403.97s-.021-.125-.049-.359-.069-.591-.121-1.041c-.1-.926-.253-2.275-.449-4.026-.382-3.516-.938-8.635-1.643-15.11l.127.1-79.1,8.338h-.006l.17-.21c.735,7.051,1.453,13.931,2.143,20.55l-.205-.167,56.454-5.811,16.629-1.684,4.483-.444,1.166-.109c.264-.024.405-.03.405-.03s-.124.021-.379.051l-1.141.131-4.438.488-16.575,1.786-56.565,5.994-.186.019-.02-.186c-.692-6.618-1.412-13.5-2.151-20.549l-.019-.189.188-.02h.006l79.12-8.189.115-.012.012.114c.653,6.511,1.169,11.658,1.522,15.192l.391,4.006c.041.443.072.782.1,1.024S10311.554-1403.97,10311.554-1403.97Z" transform="translate(-10230.08 1424.646)"/></g><g transform="translate(10210.53 -1379.354)"><rect class="g" width="110.452" height="8.496" transform="translate(2.255 26.881) rotate(-5.512)"/><rect class="d" width="110.452" height="8.496" transform="translate(1.439 18.425) rotate(-5.512)"/><rect class="p" width="110.452" height="8.496" transform="translate(3.071 35.329) rotate(-5.512)"/><rect class="g" width="110.452" height="8.496" transform="translate(3.887 43.785) rotate(-5.512)"/><rect class="p" width="110.452" height="8.496" transform="translate(4.702 52.242) rotate(-5.512)"/><rect class="g" width="110.452" height="8.496" transform="translate(5.518 60.689) rotate(-5.512)"/><rect class="p" width="110.452" height="8.496" transform="translate(6.334 69.146) rotate(-5.512)"/><rect class="d" width="77.337" height="8.496" transform="translate(40.112 74.421) rotate(-5.512)"/><rect class="q" width="33.115" height="59.452" transform="translate(1.439 18.425) rotate(-5.512)"/><path class="c" d="M10220.652-1327.432l54.96-5.407,54.981-5.2-54.96,5.416Z" transform="translate(-10217.582 1362.761)"/><path class="c" d="M10221.622-1317.387l54.96-5.407,54.98-5.2-54.96,5.416Z" transform="translate(-10217.735 1361.172)"/><path class="c" d="M10222.592-1307.342l54.959-5.416,54.982-5.194-54.961,5.407Z" transform="translate(-10217.889 1359.584)"/><path class="c" d="M10223.56-1297.307l54.96-5.407,54.981-5.2-54.96,5.416Z" transform="translate(-10218.042 1357.996)"/><path class="c" d="M10224.529-1287.262l54.96-5.407,54.98-5.2-54.96,5.416Z" transform="translate(-10218.195 1356.407)"/><path class="c" d="M10225.5-1277.217l54.959-5.416,54.981-5.194-54.96,5.407Z" transform="translate(-10218.349 1354.819)"/><path class="c" d="M10226.2-1341.579c3.489-.509,7-.866,10.5-1.23s7.02-.678,10.555-.8c-3.5.519-7,.866-10.514,1.231S10229.72-1341.721,10226.2-1341.579Z" transform="translate(-10218.459 1363.642)"/><path class="c" d="M10227.168-1331.421c2.633-.435,5.291-.7,7.938-.982s5.311-.513,7.99-.556c-2.641.436-5.291.7-7.947.982S10229.834-1331.5,10227.168-1331.421Z" transform="translate(-10218.613 1361.957)"/><path class="c" d="M10228.136-1321.469c3.488-.518,7-.865,10.5-1.229s7.021-.678,10.556-.8c-3.5.519-7,.865-10.514,1.231S10231.658-1321.636,10228.136-1321.469Z" transform="translate(-10218.766 1360.462)"/><path class="c" d="M10229.1-1311.366c2.866-.449,5.755-.745,8.642-1.049s5.78-.558,8.691-.623c-2.873.458-5.763.746-8.65,1.05S10232-1311.465,10229.1-1311.366Z" transform="translate(-10218.919 1358.806)"/><path class="c" d="M10230.074-1301.388c3.488-.518,7-.866,10.5-1.23s7.02-.678,10.555-.8c-3.5.519-7,.866-10.514,1.231S10233.6-1301.547,10230.074-1301.388Z" transform="translate(-10219.072 1357.285)"/><path class="c" d="M10231.043-1291.343c3.488-.518,7-.865,10.506-1.23s7.02-.677,10.554-.8c-3.5.518-7,.865-10.513,1.23S10234.564-1291.51,10231.043-1291.343Z" transform="translate(-10219.226 1355.696)"/><path class="c" d="M10232.012-1281.158c2.113-.368,4.256-.618,6.366-.83s4.28-.361,6.417-.4c-2.113.377-4.257.618-6.376.832S10234.156-1281.192,10232.012-1281.158Z" transform="translate(-10219.379 1353.959)"/><path class="c" d="M10267.5-1345.471c2.617-.425,5.258-.7,7.889-.977s5.284-.51,7.938-.551c-2.615.434-5.257.7-7.9.977S10270.174-1345.53,10267.5-1345.471Z" transform="translate(-10224.992 1364.178)"/><path class="c" d="M10268.475-1335.405c2.617-.433,5.258-.7,7.889-.977s5.285-.51,7.938-.551c-2.616.434-5.258.7-7.9.978S10271.143-1335.482,10268.475-1335.405Z" transform="translate(-10225.146 1362.586)"/><path class="c" d="M10269.444-1325.36c2.616-.433,5.258-.7,7.889-.977s5.284-.509,7.938-.55c-2.617.434-5.258.7-7.9.977S10272.112-1325.445,10269.444-1325.36Z" transform="translate(-10225.3 1360.997)"/><path class="c" d="M10270.413-1315.325c2.617-.425,5.258-.7,7.888-.977s5.284-.509,7.938-.55c-2.616.434-5.257.7-7.9.977S10273.081-1315.4,10270.413-1315.325Z" transform="translate(-10225.452 1359.41)"/><path class="c" d="M10271.382-1305.28c2.617-.434,5.258-.7,7.889-.976s5.285-.51,7.938-.551c-2.616.434-5.258.7-7.9.977S10274.05-1305.356,10271.382-1305.28Z" transform="translate(-10225.605 1357.821)"/><path class="c" d="M10272.351-1295.235c2.617-.434,5.259-.7,7.889-.977s5.285-.51,7.939-.551c-2.617.434-5.257.7-7.9.978S10275.019-1295.319,10272.351-1295.235Z" transform="translate(-10225.759 1356.232)"/><path class="c" d="M10273.32-1285.2c2.617-.425,5.258-.7,7.889-.977s5.284-.51,7.938-.551c-2.615.434-5.257.7-7.9.978S10275.988-1285.276,10273.32-1285.2Z" transform="translate(-10225.912 1354.645)"/><path class="c" d="M10294.673-1348.093c2.626-.426,5.258-.7,7.9-.977s5.276-.509,7.931-.55c-2.616.434-5.258.7-7.89.977S10297.334-1348.151,10294.673-1348.093Z" transform="translate(-10229.29 1364.593)"/><path class="c" d="M10306.939-1288.256a15.109,15.109,0,0,1,5.054-.487A15.118,15.118,0,0,1,10306.939-1288.256Z" transform="translate(-10231.23 1354.97)"/><path class="c" d="M10305.971-1298.291a15.115,15.115,0,0,1,5.054-.487A15.111,15.111,0,0,1,10305.971-1298.291Z" transform="translate(-10231.077 1356.557)"/><path class="c" d="M10305-1308.338a14.125,14.125,0,0,1,2.544-.461,13.309,13.309,0,0,1,2.543-.029,15.114,15.114,0,0,1-5.054.487Z" transform="translate(-10230.924 1358.148)"/><path class="c" d="M10304.032-1318.381a15.09,15.09,0,0,1,5.054-.488A15.117,15.117,0,0,1,10304.032-1318.381Z" transform="translate(-10230.771 1359.735)"/><path class="c" d="M10303.064-1328.416a15.09,15.09,0,0,1,5.053-.488A15.109,15.109,0,0,1,10303.064-1328.416Z" transform="translate(-10230.617 1361.322)"/><path class="c" d="M10302.094-1338.464a14.216,14.216,0,0,1,2.545-.461,13.3,13.3,0,0,1,2.543-.029,13.235,13.235,0,0,1-2.5.457A14.045,14.045,0,0,1,10302.094-1338.464Z" transform="translate(-10230.464 1362.913)"/><path class="c" d="M10309.647-1278.441a43.386,43.386,0,0,1,4.441-.645,41.512,41.512,0,0,1,4.492-.218A46.952,46.952,0,0,1,10309.647-1278.441Z" transform="translate(-10231.659 1353.471)"/><path class="c" d="M10321.843-1350.715c2.626-.426,5.258-.7,7.9-.977s5.276-.509,7.93-.55c-2.616.433-5.258.7-7.888.977S10324.5-1350.773,10321.843-1350.715Z" transform="translate(-10233.588 1365.007)"/><path class="c" d="M10322.814-1340.649c2.625-.434,5.258-.7,7.9-.978s5.275-.509,7.932-.55c-2.617.434-5.258.7-7.891.977S10325.475-1340.725,10322.814-1340.649Z" transform="translate(-10233.741 1363.415)"/><path class="c" d="M10323.785-1330.6c2.625-.434,5.256-.7,7.9-.978s5.275-.508,7.93-.549c-2.617.434-5.258.7-7.889.977S10326.443-1330.688,10323.785-1330.6Z" transform="translate(-10233.896 1361.826)"/><path class="c" d="M10324.752-1320.569c2.626-.426,5.258-.7,7.9-.978s5.276-.508,7.931-.549c-2.616.433-5.258.7-7.889.976S10327.411-1320.645,10324.752-1320.569Z" transform="translate(-10234.048 1360.239)"/><path class="c" d="M10325.722-1310.524c2.625-.434,5.257-.7,7.9-.977s5.275-.509,7.931-.55c-2.617.434-5.258.7-7.889.977S10328.381-1310.6,10325.722-1310.524Z" transform="translate(-10234.201 1358.65)"/><path class="c" d="M10326.691-1300.479c2.624-.434,5.256-.7,7.9-.977s5.275-.509,7.931-.55c-2.617.434-5.259.7-7.89.977S10329.349-1300.562,10326.691-1300.479Z" transform="translate(-10234.354 1357.062)"/><path class="c" d="M10327.66-1290.443c2.625-.426,5.257-.7,7.9-.978s5.275-.509,7.93-.55c-2.617.433-5.258.7-7.889.977S10330.319-1290.519,10327.66-1290.443Z" transform="translate(-10234.508 1355.474)"/><path class="c" d="M10328.629-1280.4c2.625-.434,5.257-.7,7.9-.978s5.275-.509,7.929-.55c-2.615.434-5.258.7-7.888.977S10331.288-1280.474,10328.629-1280.4Z" transform="translate(-10234.661 1353.885)"/><path class="c" d="M10217.006-1363.893c3.021-.429,6.043-.782,9.074-1.125s6.07-.586,9.1-.948,6.064-.585,9.105-.809,6.072-.474,9.121-.63c-3.021.43-6.043.782-9.074,1.126s-6.07.586-9.09.946-6.072.586-9.113.811S10220.053-1364.058,10217.006-1363.893Z" transform="translate(-10217.006 1367.406)"/><path class="c" d="M10217.418-1359.371c1.887-.312,3.785-.564,5.68-.8s3.8-.367,5.705-.62,3.8-.367,5.709-.482,3.816-.248,5.736-.3c-1.893.321-3.785.564-5.687.8s-3.8.418-5.7.627-3.8.368-5.719.475S10219.33-1359.426,10217.418-1359.371Z" transform="translate(-10217.07 1366.484)"/><path class="c" d="M10217.831-1355.257c2.638-.384,5.273-.7,7.92-1.006s5.287-.562,7.936-.844,5.3-.512,7.951-.689,5.312-.4,7.967-.527c-2.63.391-5.275.707-7.92,1.014s-5.288.562-7.936.844-5.293.511-7.951.689S10220.494-1355.376,10217.831-1355.257Z" transform="translate(-10217.136 1365.969)"/><path class="c" d="M10227.216-1257.852c1.936-.325,3.872-.573,5.816-.812s3.894-.428,5.832-.641,3.9-.376,5.855-.487,3.9-.264,5.864-.316c-1.937.317-3.88.573-5.815.812s-3.9.419-5.842.633-3.892.375-5.848.487S10229.181-1257.878,10227.216-1257.852Z" transform="translate(-10218.62 1350.434)"/><path class="c" d="M10227.627-1253.662c2.235-.354,4.487-.632,6.73-.9s4.5-.434,6.747-.729,4.5-.434,6.763-.575,4.509-.323,6.779-.4c-2.245.355-4.488.631-6.731.9s-4.5.477-6.748.721-4.506.434-6.762.583S10229.915-1253.736,10227.627-1253.662Z" transform="translate(-10218.685 1349.827)"/></g><text class="r" transform="translate(10268.069 -1372.849) rotate(-5)"><tspan x="0" y="0">Estados financieros</tspan></text></g></g><g transform="translate(269.699 7277.302)"><path class="s" d="M605.39,94.685a24,24,0,1,1-27.2-20.244A23.975,23.975,0,0,1,605.39,94.685Z" transform="translate(-557.635 -74.188)"/><g transform="translate(5.711 5.698)"><path class="t" d="M599.736,95.5a18.29,18.29,0,1,1-20.725-15.428A18.268,18.268,0,0,1,599.736,95.5Z" transform="translate(-563.345 -79.884)"/></g><g transform="translate(5.379 5.004)"><path class="u" d="M599.65,94.939a10.862,10.862,0,0,1-.794-2.108,19.416,19.416,0,0,0-2.894-5.244,18.685,18.685,0,0,0-2.875-2.941,18.333,18.333,0,0,0-4-2.471,17.915,17.915,0,0,0-4.973-1.431,17.882,17.882,0,0,0-2.735-.16,17.868,17.868,0,0,0-5.542.983,17.928,17.928,0,0,0-2.515,1.091,17.969,17.969,0,0,0-4.176,3.056,18.37,18.37,0,0,0-2.9,3.7,18.733,18.733,0,0,0-1.686,3.75,19.393,19.393,0,0,0-.91,5.919,10.733,10.733,0,0,1-.021,2.252,5.383,5.383,0,0,1-.524-2.223,16.9,16.9,0,0,1,.5-6.225,18.317,18.317,0,0,1,4.623-8.078,18.571,18.571,0,0,1,4.443-3.354,18.54,18.54,0,0,1,2.7-1.2,18.756,18.756,0,0,1,5.978-1.061,18.788,18.788,0,0,1,2.952.194,17.972,17.972,0,0,1,2.782.628,17.682,17.682,0,0,1,2.543.992A18.327,18.327,0,0,1,596.76,87a16.946,16.946,0,0,1,2.618,5.672A5.375,5.375,0,0,1,599.65,94.939Z" transform="translate(-563.013 -79.19)"/></g><g transform="translate(15.877 11.191)"><path class="u" d="M585.25,108.632l.5,3.146-2.809.449-.49-3.061a13.489,13.489,0,0,1-7.353-1.127l1-3.674a11.5,11.5,0,0,0,5.769,1.121l-.751-4.691c-3.239-.258-6.888-.739-7.531-4.756-.476-2.978,1.277-5.88,5.634-7.1l-.5-3.119,2.809-.449.49,3.062a12.856,12.856,0,0,1,5.976.8l-.851,3.68a11.645,11.645,0,0,0-4.532-.773l.765,4.776c3.234.23,6.827.722,7.461,4.681C591.3,104.523,589.574,107.393,585.25,108.632Zm-4.8-11.966-.64-3.988c-1.434.575-1.893,1.484-1.745,2.412C578.226,96.072,579.155,96.472,580.454,96.667Zm5.915,6c-.158-.983-1.057-1.385-2.333-1.615l.62,3.876C586.012,104.391,586.513,103.562,586.369,102.662Z" transform="translate(-573.507 -85.375)"/></g></g><g transform="translate(253.308 7344.06)"><g transform="translate(0)"><rect class="v" width="80.789" height="77.784" rx="8.41"/></g><g transform="translate(5.646 8.217)"><g transform="translate(0 45.07)"><rect class="j" width="2.651" height="0.764"/></g><g transform="translate(5.998 49.155)"><rect class="j" width="3.391" height="0.764"/></g><g transform="translate(17.802 49.155)"><rect class="j" width="3.391" height="0.764"/></g><g transform="translate(29.606 49.155)"><rect class="j" width="3.391" height="0.764"/></g><g transform="translate(41.41 49.155)"><rect class="j" width="3.391" height="0.764"/></g><g transform="translate(53.214 49.155)"><rect class="j" width="3.391" height="0.764"/></g><g transform="translate(65.018 49.155)"><rect class="j" width="3.391" height="0.764"/></g><g transform="translate(0 34.865)"><rect class="j" width="2.651" height="0.764"/></g><g transform="translate(0 15.659)"><rect class="j" width="2.651" height="0.764"/></g><g transform="translate(0 6.007)"><rect class="j" width="2.651" height="0.764"/></g><g transform="translate(0.134 25.262)"><rect class="j" width="2.651" height="0.764"/></g><g transform="translate(3.91)"><path class="j" d="M433.487,312.563s-.1.009-.284.013l-.834.013-3.208.023-11.8.04-38.928.037h-9.349v-.124c.017-13.017.032-24.472.042-32.683.016-4.095.029-7.38.037-9.652.009-1.124.016-2,.022-2.6,0-.289.008-.512.011-.673s.012-.228.012-.228.008.077.012.228.006.384.011.673c0,.6.012,1.474.021,2.6.009,2.272.022,5.557.038,9.652.011,8.211.026,19.666.042,32.683l-.124-.124h9.225l38.928.037,11.8.04,3.208.024.834.012C433.391,312.554,433.487,312.563,433.487,312.563Z" transform="translate(-369.084 -266.729)"/></g><g transform="translate(6.599 25.519)"><path class="j" d="M437.116,319.728c0,.069-13.983.126-31.229.126s-31.232-.056-31.232-.126,13.98-.125,31.232-.125S437.116,319.659,437.116,319.728Z" transform="translate(-374.655 -319.603)"/></g><g transform="translate(6.599 15.915)"><path class="j" d="M437.116,299.831c0,.069-13.983.125-31.229.125s-31.232-.056-31.232-.125,13.98-.126,31.232-.126S437.116,299.761,437.116,299.831Z" transform="translate(-374.655 -299.705)"/></g><g transform="translate(6.599 6.264)"><path class="j" d="M437.116,279.832c0,.07-13.983.126-31.229.126s-31.232-.056-31.232-.126,13.98-.125,31.232-.125S437.116,279.763,437.116,279.832Z" transform="translate(-374.655 -279.707)"/></g><g transform="translate(6.599 35.121)"><path class="j" d="M437.116,339.626c0,.069-13.983.125-31.229.125s-31.232-.056-31.232-.125,13.98-.126,31.232-.126S437.116,339.556,437.116,339.626Z" transform="translate(-374.655 -339.5)"/></g><g transform="translate(7.243 0.708)"><path class="l" d="M375.989,311.255v-8.52l5.31-8.244,3.6,2.765,7.4-11.49,4.362,3.072,6.069-10.6,4.931,4.017,7.4-14.06,7.966,15.715,6.448-7.863,7.586-2.171v37.378Z" transform="translate(-375.989 -268.196)"/></g><g transform="translate(7.243 3.294)"><path class="j" d="M437.806,273.624a.657.657,0,0,1-.134.01l-.4.01-1.54.018-5.821.033.055-.027-6.238,8.154-.03.039h-.049l-15.618.022.1-.058-6.567,10.932-6.447,10.715-.094.157-.107-.148-8.46-11.633.169-.005-7.718,12.024-2.153,3.324-.571.868c-.13.195-.2.291-.2.291s.056-.107.178-.308l.546-.884,2.105-3.354,7.644-12.072.081-.127.089.122,8.49,11.612-.2.009,6.439-10.72,6.574-10.927.036-.059h.068l15.618.022-.079.039,6.284-8.118.022-.028h.034l5.821.033,1.54.018.4.009A.767.767,0,0,1,437.806,273.624Z" transform="translate(-375.989 -273.554)"/></g><g transform="translate(19.164 23.678)"><path class="j" d="M401.887,316.367a.6.6,0,1,1-.6-.577A.589.589,0,0,1,401.887,316.367Z" transform="translate(-400.689 -315.79)"/></g><g transform="translate(37.179 13.439)"><path class="j" d="M439.214,295.151a.6.6,0,1,1-.6-.577A.588.588,0,0,1,439.214,295.151Z" transform="translate(-438.016 -294.574)"/></g><g transform="translate(51.184 10.923)"><path class="j" d="M468.232,289.938a.6.6,0,1,1-.6-.577A.588.588,0,0,1,468.232,289.938Z" transform="translate(-467.034 -289.361)"/></g></g><g transform="translate(11.644 63.85)"><ellipse class="m" cx="3.875" cy="3.731" rx="3.875" ry="3.731"/></g><g transform="translate(25.144 65.082)"><rect class="m" width="45.52" height="1.396"/></g><g transform="translate(25.144 68.57)"><rect class="m" width="18.9" height="1.396"/></g></g></g></svg>