<svg xmlns="http://www.w3.org/2000/svg" width="271.126" height="256.963" viewBox="0 0 271.126 256.963"><defs><style>.a{fill:#f5f5f5;}.b{opacity:0.4;}.c{fill:#fff;}.d{fill:#ebebeb;}.e{opacity:0.5;}.f{fill:#e0e0e0;}.g{fill:#263238;}.h{fill:#a66d58;}.i,.r{opacity:0.3;}.j{fill:#455a64;}.k{fill:#d9a171;}.l{fill:#aed3f2;}.m{fill:#ffbe9d;}.n{fill:#eb996e;}.o{opacity:0.6;}.p{fill:#484c69;}.q{fill:#5e6178;}.s{opacity:0.2;}</style></defs><g transform="translate(-19.477 -35.932)"><g transform="translate(23.932 35.932)"><g transform="translate(1.528 92.555)"><g transform="translate(0 0)"><path class="a" d="M58.634,208.031a11.617,11.617,0,0,1-10.578-5.41c-2.669-3.886-8.887-10.649-12.124-9.064l-6.28,8.312a28.449,28.449,0,0,1,8.8,8.565c3.306,5.326,12.6,8.444,12.6,8.444Z" transform="translate(-29.652 -193.32)"/><g transform="translate(9.078 8.481)"><g class="b"><path class="c" d="M46.279,215.619a4.977,4.977,0,0,1,1.141-7.443c2.25-1.294,5.713.509,7.007,2.757a4.7,4.7,0,0,1-1.732,6.418C50.445,218.645,47.946,217.609,46.279,215.619Z" transform="translate(-45.088 -207.742)"/></g><g transform="translate(1.783 2.428)"><path class="d" d="M49.473,216.61l-.6.567-.506-.538.586-.552a3.5,3.5,0,0,1-.83-1.743l.934-.322a2.985,2.985,0,0,0,.6,1.4l.9-.845c-.417-.733-.846-1.587-.076-2.311a1.672,1.672,0,0,1,2.344.175l.6-.562.506.537-.586.552a3.331,3.331,0,0,1,.7,1.4l-.914.354a3.027,3.027,0,0,0-.495-1.086l-.914.86c.422.728.84,1.571.083,2.285A1.668,1.668,0,0,1,49.473,216.61Zm1.869-2.774.763-.719c-.333-.224-.6-.19-.772-.023S51.195,213.529,51.342,213.836Zm-.425,2.144c.188-.178.143-.429.006-.736l-.742.7C50.494,216.155,50.746,216.142,50.918,215.98Z" transform="translate(-48.121 -211.87)"/></g></g><g class="e" transform="translate(1.393 0.838)"><path class="c" d="M32.021,202.285l5.741-7.54.1.014c4.493.66,8.5,6.211,11.145,9.885.456.633.887,1.231,1.271,1.734a8.323,8.323,0,0,0,7.437,3.008l.244.221-6.061,8.235-.1-.02A19.4,19.4,0,0,1,39.1,208.636c-1.8-3.236-6.871-6.227-6.922-6.256Zm5.886-7.183-5.4,7.087c.9.547,5.2,3.261,6.882,6.285a19.068,19.068,0,0,0,12.359,9l5.66-7.69a6.651,6.651,0,0,1-.927.012,8.939,8.939,0,0,1-6.475-3.219c-.386-.507-.818-1.107-1.276-1.741C46.138,201.237,42.223,195.807,37.907,195.1Z" transform="translate(-32.021 -194.745)"/></g></g></g><g transform="translate(203.665 55.427)"><path class="a" d="M426.915,153.161a26.9,26.9,0,1,1-30.485-22.693A26.876,26.876,0,0,1,426.915,153.161Z" transform="translate(-373.384 -130.184)"/><g transform="translate(6.402 6.388)"><path class="d" d="M425.064,158.557a20.5,20.5,0,1,1-23.232-17.294A20.479,20.479,0,0,1,425.064,158.557Z" transform="translate(-384.27 -141.046)"/></g><g transform="translate(6.03 5.61)"><path class="f" d="M424.707,157.376a12.006,12.006,0,0,1-.891-2.362,21.783,21.783,0,0,0-3.244-5.879,21.012,21.012,0,0,0-3.222-3.3,20.527,20.527,0,0,0-4.48-2.769,20.1,20.1,0,0,0-5.574-1.6,19.846,19.846,0,0,0-3.066-.179,20.012,20.012,0,0,0-6.212,1.1,20.035,20.035,0,0,0-2.819,1.223,20.106,20.106,0,0,0-4.681,3.425,20.524,20.524,0,0,0-3.252,4.143,21,21,0,0,0-1.89,4.2,21.763,21.763,0,0,0-1.02,6.635,11.977,11.977,0,0,1-.023,2.523,6.036,6.036,0,0,1-.588-2.491,18.968,18.968,0,0,1,.565-6.979,20.54,20.54,0,0,1,5.182-9.054,19.812,19.812,0,0,1,2.294-2.026,20.039,20.039,0,0,1,2.686-1.734,20.85,20.85,0,0,1,3.031-1.343,21.037,21.037,0,0,1,6.7-1.189,20.964,20.964,0,0,1,3.308.218,20.89,20.89,0,0,1,5.969,1.816,20.546,20.546,0,0,1,7.984,6.717,18.993,18.993,0,0,1,2.935,6.358A6.034,6.034,0,0,1,424.707,157.376Z" transform="translate(-383.638 -139.723)"/></g><g transform="translate(17.797 12.545)"><path class="f" d="M416.81,177.587l.565,3.527-3.149.5-.549-3.431a15.119,15.119,0,0,1-8.243-1.264l1.116-4.119a12.886,12.886,0,0,0,6.467,1.257l-.843-5.258c-3.631-.289-7.721-.83-8.442-5.333-.534-3.338,1.431-6.59,6.315-7.954l-.56-3.5,3.149-.5.549,3.433a14.415,14.415,0,0,1,6.7.9l-.953,4.125a13.072,13.072,0,0,0-5.08-.867l.857,5.353c3.625.259,7.654.809,8.365,5.248C423.6,172.98,421.658,176.2,416.81,177.587Zm-5.376-13.413-.717-4.47c-1.608.645-2.122,1.664-1.957,2.7C408.938,163.508,409.978,163.955,411.434,164.174Zm6.631,6.722c-.177-1.1-1.186-1.554-2.616-1.811l.7,4.346C417.665,172.832,418.227,171.9,418.065,170.9Z" transform="translate(-403.647 -151.516)"/></g></g><g transform="translate(139.973)"><path class="a" d="M289.147,64.928a15.713,15.713,0,1,1,4.88-21.653A15.7,15.7,0,0,1,289.147,64.928Z" transform="translate(-265.076 -35.932)"/><g transform="translate(3.733 3.737)"><path class="d" d="M289.768,64.383a11.974,11.974,0,1,1,3.718-16.5A11.961,11.961,0,0,1,289.768,64.383Z" transform="translate(-271.425 -42.287)"/></g><g transform="translate(8.988 3.382)"><path class="f" d="M293.765,63.932c-.041-.061.376-.384,1.049-1.036a12.7,12.7,0,0,0,2.368-3.126,12.3,12.3,0,0,0,1-2.5,12.018,12.018,0,0,0,.415-3.048,11.709,11.709,0,0,0-.466-3.356,11.587,11.587,0,0,0-.632-1.679,11.7,11.7,0,0,0-2.062-3.054,11.643,11.643,0,0,0-1.322-1.214,11.72,11.72,0,0,0-2.939-1.685,11.957,11.957,0,0,0-2.982-.753,12.32,12.32,0,0,0-2.692-.012,12.716,12.716,0,0,0-3.783,1.03,6.984,6.984,0,0,1-1.352.586c-.031-.044.358-.412,1.19-.9a11.066,11.066,0,0,1,3.858-1.354,12,12,0,0,1,6.062.618,11.554,11.554,0,0,1,1.625.744,11.691,11.691,0,0,1,1.563,1.022,12.2,12.2,0,0,1,1.436,1.3,12.25,12.25,0,0,1,2.224,3.294,12.2,12.2,0,0,1,.669,1.817,12.183,12.183,0,0,1,.448,3.617,12,12,0,0,1-1.691,5.854,11.089,11.089,0,0,1-2.7,3.075A3.53,3.53,0,0,1,293.765,63.932Z" transform="translate(-280.361 -41.682)"/></g><g transform="translate(7.607 9.726)"><path class="f" d="M280.775,63.4l-1.748,1.138-1.016-1.561,1.7-1.107a8.828,8.828,0,0,1-1.281-4.7l2.463-.382a7.53,7.53,0,0,0,.863,3.75l2.607-1.7c-.707-2.006-1.389-4.318.843-5.771,1.655-1.077,3.857-.8,5.742,1.483l1.733-1.128,1.016,1.561L292,56.1a8.426,8.426,0,0,1,1.111,3.788l-2.428.47a7.634,7.634,0,0,0-.743-2.917l-2.653,1.728c.722,2,1.384,4.276-.817,5.709C284.844,65.934,282.667,65.662,280.775,63.4Zm5.883-6.051,2.216-1.443c-.726-.705-1.392-.738-1.907-.4C286.422,55.863,286.43,56.525,286.658,57.353Zm-2.014,5.134c.546-.356.548-1,.346-1.825l-2.154,1.4C283.516,62.732,284.145,62.812,284.644,62.487Z" transform="translate(-278.012 -52.47)"/></g></g><g transform="translate(217.685 177.865)"><path class="a" d="M427.557,348.316a15.713,15.713,0,1,1-20.366-8.826A15.7,15.7,0,0,1,427.557,348.316Z" transform="translate(-397.224 -338.389)"/><g transform="translate(3.739 3.733)"><path class="d" d="M426.7,352.3a11.974,11.974,0,1,1-15.52-6.726A11.96,11.96,0,0,1,426.7,352.3Z" transform="translate(-403.582 -344.736)"/></g><g transform="translate(3.433 3.291)"><path class="f" d="M426.342,351.644c-.066.029-.307-.442-.822-1.224a12.715,12.715,0,0,0-2.63-2.909,12.284,12.284,0,0,0-2.273-1.444,11.982,11.982,0,0,0-2.917-.975,11.051,11.051,0,0,0-1.651-.2,11.2,11.2,0,0,0-1.732.037,11.666,11.666,0,0,0-1.767.309,12.677,12.677,0,0,0-1.75.594,12.873,12.873,0,0,0-1.634.863,11.668,11.668,0,0,0-1.439,1.073,11.719,11.719,0,0,0-2.2,2.573,11.979,11.979,0,0,0-1.295,2.79,12.265,12.265,0,0,0-.513,2.643,12.721,12.721,0,0,0,.307,3.908,7.067,7.067,0,0,1,.325,1.437,3.507,3.507,0,0,1-.667-1.337,11.073,11.073,0,0,1-.612-4.043,12,12,0,0,1,1.735-5.841,12.21,12.21,0,0,1,2.329-2.8,12.176,12.176,0,0,1,1.544-1.169,12.291,12.291,0,0,1,3.651-1.572,12.2,12.2,0,0,1,1.91-.318,12.182,12.182,0,0,1,3.637.234,12,12,0,0,1,5.437,2.751,11.087,11.087,0,0,1,2.518,3.223A3.515,3.515,0,0,1,426.342,351.644Z" transform="translate(-403.061 -343.985)"/></g><g transform="translate(9.982 7.571)"><path class="f" d="M423.806,365.527l.793,1.929-1.723.707-.771-1.877a8.833,8.833,0,0,1-4.855.383l.084-2.491a7.527,7.527,0,0,0,3.845-.149L420,361.152c-2.1.321-4.5.561-5.513-1.9-.75-1.826-.068-3.938,2.527-5.366l-.786-1.913,1.723-.707.771,1.878a8.416,8.416,0,0,1,3.928-.386l.009,2.473a7.629,7.629,0,0,0-3,.186l1.2,2.929c2.1-.338,4.459-.563,5.457,1.865C427.05,362,426.377,364.089,423.806,365.527Zm-4.849-6.907-1-2.446c-.828.582-.984,1.23-.751,1.8C417.449,358.575,418.1,358.691,418.957,358.62Zm4.668,2.935c-.248-.6-.881-.724-1.729-.679l.977,2.377C423.656,362.71,423.852,362.106,423.625,361.555Z" transform="translate(-414.198 -351.263)"/></g></g><g transform="translate(0 159.812)"><path class="a" d="M57.386,317.617A15.713,15.713,0,1,1,37.02,308.79,15.7,15.7,0,0,1,57.386,317.617Z" transform="translate(-27.053 -307.69)"/><g transform="translate(3.739 3.732)"><path class="d" d="M56.526,321.6a11.974,11.974,0,1,1-15.52-6.726A11.96,11.96,0,0,1,56.526,321.6Z" transform="translate(-33.411 -314.037)"/></g><g transform="translate(3.433 3.29)"><path class="f" d="M56.171,320.944c-.066.029-.307-.441-.822-1.224a12.726,12.726,0,0,0-2.63-2.909,12.265,12.265,0,0,0-2.272-1.443,12,12,0,0,0-2.917-.976,11.72,11.72,0,0,0-3.384-.167,11.593,11.593,0,0,0-1.767.308,11.711,11.711,0,0,0-3.384,1.457,11.722,11.722,0,0,0-1.439,1.072,11.753,11.753,0,0,0-2.2,2.573,12,12,0,0,0-1.295,2.79,12.3,12.3,0,0,0-.513,2.643,12.7,12.7,0,0,0,.308,3.908,6.981,6.981,0,0,1,.324,1.438,3.519,3.519,0,0,1-.667-1.337,11.062,11.062,0,0,1-.612-4.044,11.989,11.989,0,0,1,1.736-5.84,11.523,11.523,0,0,1,1.033-1.458,11.755,11.755,0,0,1,1.295-1.345,12.21,12.21,0,0,1,1.544-1.169,12.27,12.27,0,0,1,3.651-1.572,12.2,12.2,0,0,1,1.91-.319,12.21,12.21,0,0,1,3.637.235,12,12,0,0,1,5.437,2.751,11.082,11.082,0,0,1,2.519,3.223A3.516,3.516,0,0,1,56.171,320.944Z" transform="translate(-32.89 -313.286)"/></g><g transform="translate(9.982 7.571)"><path class="f" d="M53.636,334.828l.793,1.929-1.723.707-.771-1.878a8.828,8.828,0,0,1-4.855.384l.084-2.491a7.527,7.527,0,0,0,3.845-.149l-1.182-2.877c-2.1.321-4.5.56-5.513-1.9-.75-1.826-.068-3.938,2.527-5.366l-.786-1.912,1.723-.707.772,1.878a8.429,8.429,0,0,1,3.928-.386l.009,2.473a7.64,7.64,0,0,0-3,.186l1.2,2.929c2.1-.338,4.46-.563,5.457,1.865C56.879,331.3,56.206,333.39,53.636,334.828Zm-4.85-6.907-1.005-2.446c-.828.582-.984,1.23-.751,1.8C47.278,327.876,47.929,327.991,48.786,327.921Zm4.669,2.935c-.248-.6-.882-.725-1.729-.68l.976,2.378C53.486,332.01,53.681,331.407,53.455,330.856Z" transform="translate(-44.027 -320.564)"/></g></g><g transform="translate(41.571 0.758)"><path class="a" d="M131.489,44.817s-6.423,3.414-13.566-1.661c-4.42-3.143-13.813-7.988-16.683-5l-3.5,11.463a32.723,32.723,0,0,1,12.89,5.772c5.678,4.445,16.947,4.14,16.947,4.14Z" transform="translate(-97.744 -37.221)"/><g transform="translate(11.268 6.798)"><g class="b"><path class="c" d="M119.818,58.759a5.725,5.725,0,0,1-1.712-8.491c1.919-2.288,6.373-1.71,8.66.207a5.408,5.408,0,0,1,.667,7.617C125.516,60.38,122.406,60.249,119.818,58.759Z" transform="translate(-116.905 -48.781)"/></g><g transform="translate(2.377 1.776)"><path class="d" d="M123.3,58.467l-.426.85-.759-.38.415-.827a4.023,4.023,0,0,1-1.586-1.555l.882-.717a3.438,3.438,0,0,0,1.2,1.277l.635-1.268c-.74-.627-1.54-1.38-1-2.465a1.925,1.925,0,0,1,2.6-.738l.422-.843.759.38-.415.827a3.85,3.85,0,0,1,1.309,1.235l-.847.744a3.476,3.476,0,0,0-.964-.977l-.647,1.291c.744.619,1.53,1.364.993,2.435A1.918,1.918,0,0,1,123.3,58.467Zm.922-3.736.54-1.078c-.448-.111-.718.03-.843.281S123.945,54.458,124.225,54.731Zm.389,2.484c.133-.266-.015-.52-.284-.8l-.525,1.048C124.227,57.572,124.493,57.458,124.615,57.215Z" transform="translate(-120.947 -51.801)"/></g></g><g class="e" transform="translate(1.437 1.065)"><path class="c" d="M100.188,49.633l3.22-10.416.11-.022c5.114-1.064,11.634,3.35,15.948,6.271.743.5,1.445.979,2.059,1.37a9.571,9.571,0,0,0,9.223.308l.351.142-3.29,11.294-.119.019a22.314,22.314,0,0,1-17.339-4.906c-3.227-2.783-9.885-4.009-9.952-4.02Zm3.518-10.087-3.026,9.79c1.191.235,6.906,1.467,9.92,4.067a21.936,21.936,0,0,0,16.911,4.837l3.072-10.546a7.511,7.511,0,0,1-1,.38,10.28,10.28,0,0,1-8.268-.916c-.617-.4-1.321-.872-2.068-1.377C115.023,42.918,108.647,38.6,103.706,39.545Z" transform="translate(-100.188 -39.032)"/></g></g><g transform="translate(148.267 52.749)"><path class="a" d="M300.981,125.631s-.525,7.255-8.621,10.605c-5.012,2.072-14.111,7.45-13.1,11.471l7.848,9.057a32.725,32.725,0,0,1,11.744-7.846c6.784-2.445,12.518-12.151,12.518-12.151Z" transform="translate(-279.179 -125.631)"/><g transform="translate(10.896 10.898)"><g class="b"><path class="c" d="M305.984,154.715a5.725,5.725,0,0,1-8.1-3.066c-.917-2.841,1.941-6.306,4.781-7.223a5.408,5.408,0,0,1,6.806,3.485C310.387,150.752,308.622,153.316,305.984,154.715Z" transform="translate(-297.708 -144.163)"/></g><g transform="translate(3.051 2.184)"><path class="d" d="M307.789,153.887l.493.813-.726.44-.48-.791a4.027,4.027,0,0,1-2.16.516l-.139-1.128a3.434,3.434,0,0,0,1.721-.339l-.736-1.213c-.924.293-1.988.571-2.618-.467a1.925,1.925,0,0,1,.759-2.6l-.489-.806.726-.44.48.792a3.837,3.837,0,0,1,1.742-.452l.179,1.113a3.483,3.483,0,0,0-1.34.3l.749,1.234c.92-.3,1.969-.569,2.59.455A1.918,1.918,0,0,1,307.789,153.887Zm-2.673-2.768-.626-1.031c-.332.321-.356.624-.211.863S304.735,151.211,305.116,151.119Zm2.311.991c-.155-.254-.449-.264-.827-.184l.608,1C307.522,152.628,307.567,152.342,307.426,152.11Z" transform="translate(-302.897 -147.876)"/></g></g><g class="e" transform="translate(0.959 2.098)"><path class="c" d="M287.918,156.625l-7.108-8.266.039-.1c1.818-4.9,9.024-8.071,13.792-10.172.822-.361,1.6-.7,2.255-1.014a9.573,9.573,0,0,0,5.166-7.647l.308-.222,7.814,8.792-.047.111a22.317,22.317,0,0,1-13.376,12.075c-4.073,1.253-8.652,6.239-8.7,6.289Zm-6.672-8.343,6.682,7.77c.832-.884,4.915-5.069,8.72-6.238a21.935,21.935,0,0,0,13.089-11.749l-7.3-8.211a7.622,7.622,0,0,1-.208,1.046,10.283,10.283,0,0,1-5.172,6.515c-.663.312-1.441.655-2.265,1.019C290.12,140.491,283.073,143.6,281.246,148.282Z" transform="translate(-280.81 -129.199)"/></g></g><g transform="translate(222.6 8.857)"><path class="a" d="M434.564,65.7a11.617,11.617,0,0,1-10.578-5.41c-2.669-3.887-8.888-10.649-12.125-9.065l-6.279,8.312a28.444,28.444,0,0,1,8.8,8.564c3.307,5.326,12.6,8.445,12.6,8.445Z" transform="translate(-405.582 -50.992)"/><g transform="translate(9.077 8.482)"><g class="b"><path class="c" d="M422.209,73.292a4.976,4.976,0,0,1,1.14-7.443c2.25-1.294,5.714.509,7.007,2.757a4.7,4.7,0,0,1-1.731,6.418C426.375,76.318,423.875,75.282,422.209,73.292Z" transform="translate(-421.017 -65.415)"/></g><g transform="translate(1.783 2.427)"><path class="d" d="M425.4,74.282l-.6.567-.506-.537.586-.552a3.5,3.5,0,0,1-.83-1.742l.934-.322a2.986,2.986,0,0,0,.6,1.4l.9-.845c-.416-.733-.845-1.587-.076-2.311a1.674,1.674,0,0,1,2.345.175l.6-.562.506.537-.586.552a3.341,3.341,0,0,1,.7,1.4l-.914.354a3.031,3.031,0,0,0-.495-1.086l-.914.86c.422.728.841,1.571.083,2.285A1.666,1.666,0,0,1,425.4,74.282Zm1.869-2.774.763-.719c-.332-.224-.595-.19-.772-.023S427.124,71.2,427.272,71.508Zm-.425,2.144c.188-.177.143-.429.006-.736l-.742.7C426.424,73.827,426.675,73.814,426.847,73.652Z" transform="translate(-424.05 -69.543)"/></g></g><g class="e" transform="translate(1.393 0.838)"><path class="c" d="M407.95,59.957l5.742-7.54.1.014c4.493.66,8.5,6.211,11.144,9.885.456.633.887,1.231,1.271,1.734a8.322,8.322,0,0,0,7.437,3.007l.245.221-6.061,8.235-.1-.02a19.4,19.4,0,0,1-12.688-9.187c-1.8-3.236-6.87-6.226-6.922-6.256Zm5.887-7.182-5.4,7.087c.9.547,5.2,3.261,6.883,6.285a19.067,19.067,0,0,0,12.358,9l5.66-7.69a6.64,6.64,0,0,1-.926.012,8.936,8.936,0,0,1-6.476-3.218c-.385-.507-.818-1.107-1.276-1.741C422.067,58.909,418.152,53.479,413.837,52.775Z" transform="translate(-407.95 -52.417)"/></g></g></g><g transform="translate(19.477 292.582)"><path class="g" d="M290.6,472.515c0,.085-60.7.153-135.556.153-74.884,0-135.569-.069-135.569-.153s60.686-.153,135.569-.153C229.9,472.362,290.6,472.431,290.6,472.515Z" transform="translate(-19.477 -472.362)"/></g><g transform="translate(38.031 256.304)"><g transform="translate(0 16.157)"><g transform="translate(5.169)"><g transform="translate(0.26 0.153)"><rect class="h" width="36.861" height="6.694"/><g transform="translate(3.458 0.1)"><path class="g" d="M66.294,445.217a35.988,35.988,0,0,1,0-6.64,35.99,35.99,0,0,1,0,6.64Z" transform="translate(-66.141 -438.577)"/></g><g transform="translate(1.442 0.1)"><path class="g" d="M62.866,445.217a35.99,35.99,0,0,1,0-6.64,35.988,35.988,0,0,1,0,6.64Z" transform="translate(-62.713 -438.577)"/></g><g transform="translate(7.888 0.1)"><path class="g" d="M73.826,445.217a35.988,35.988,0,0,1,0-6.64,35.99,35.99,0,0,1,0,6.64Z" transform="translate(-73.673 -438.577)"/></g><g transform="translate(5.871 0.1)"><path class="g" d="M70.4,445.217a35.988,35.988,0,0,1,0-6.64,35.99,35.99,0,0,1,0,6.64Z" transform="translate(-70.244 -438.577)"/></g><g transform="translate(12.316 0.1)"><path class="g" d="M81.358,445.217a35.853,35.853,0,0,1,0-6.64,36.127,36.127,0,0,1,0,6.64Z" transform="translate(-81.204 -438.577)"/></g><g transform="translate(10.301 0.1)"><path class="g" d="M77.929,445.217a35.988,35.988,0,0,1,0-6.64,35.99,35.99,0,0,1,0,6.64Z" transform="translate(-77.776 -438.577)"/></g><g transform="translate(16.746 0.1)"><path class="g" d="M88.889,445.217a35.99,35.99,0,0,1,0-6.64,35.988,35.988,0,0,1,0,6.64Z" transform="translate(-88.736 -438.577)"/></g><g transform="translate(14.73 0.1)"><path class="g" d="M85.461,445.217a36.126,36.126,0,0,1,0-6.64,35.988,35.988,0,0,1,0,6.64Z" transform="translate(-85.308 -438.577)"/></g><g transform="translate(21.175 0.1)"><path class="g" d="M96.421,445.217a35.988,35.988,0,0,1,0-6.64,36.127,36.127,0,0,1,0,6.64Z" transform="translate(-96.268 -438.577)"/></g><g transform="translate(19.159 0.1)"><path class="g" d="M92.992,445.217a35.99,35.99,0,0,1,0-6.64,35.988,35.988,0,0,1,0,6.64Z" transform="translate(-92.839 -438.577)"/></g><g transform="translate(25.604 0.1)"><path class="g" d="M103.952,445.217a35.99,35.99,0,0,1,0-6.64,35.988,35.988,0,0,1,0,6.64Z" transform="translate(-103.799 -438.577)"/></g><g transform="translate(23.588 0.1)"><path class="g" d="M100.524,445.217a35.988,35.988,0,0,1,0-6.64,35.99,35.99,0,0,1,0,6.64Z" transform="translate(-100.371 -438.577)"/></g><g transform="translate(30.033 0.1)"><path class="g" d="M111.484,445.217a35.991,35.991,0,0,1,0-6.64,35.988,35.988,0,0,1,0,6.64Z" transform="translate(-111.331 -438.577)"/></g><g transform="translate(28.017 0.1)"><path class="g" d="M108.055,445.217a35.988,35.988,0,0,1,0-6.64,35.99,35.99,0,0,1,0,6.64Z" transform="translate(-107.902 -438.577)"/></g><g transform="translate(34.462 0.1)"><path class="g" d="M119.015,445.217a35.988,35.988,0,0,1,0-6.64,35.988,35.988,0,0,1,0,6.64Z" transform="translate(-118.862 -438.577)"/></g><g transform="translate(32.446 0.1)"><path class="g" d="M115.587,445.217a35.991,35.991,0,0,1,0-6.64,35.988,35.988,0,0,1,0,6.64Z" transform="translate(-115.434 -438.577)"/></g></g><path class="g" d="M96.939,438.3c0,.085-8.311.153-18.56.153s-18.561-.068-18.561-.153,8.309-.153,18.561-.153S96.939,438.215,96.939,438.3Z" transform="translate(-59.818 -438.147)"/></g><g transform="translate(2.368 6.64)"><g transform="translate(0.171 0.153)"><rect class="h" width="36.861" height="6.694"/><g transform="translate(3.459 0.1)"><path class="g" d="M61.381,456.509a35.99,35.99,0,0,1,0-6.64,35.988,35.988,0,0,1,0,6.64Z" transform="translate(-61.228 -449.869)"/></g><g transform="translate(1.442 0.1)"><path class="g" d="M57.952,456.509a35.99,35.99,0,0,1,0-6.64,35.988,35.988,0,0,1,0,6.64Z" transform="translate(-57.799 -449.869)"/></g><g transform="translate(7.887 0.1)"><path class="g" d="M68.912,456.509a35.988,35.988,0,0,1,0-6.64,35.99,35.99,0,0,1,0,6.64Z" transform="translate(-68.759 -449.869)"/></g><g transform="translate(5.872 0.1)"><path class="g" d="M65.484,456.509a35.99,35.99,0,0,1,0-6.64,35.99,35.99,0,0,1,0,6.64Z" transform="translate(-65.331 -449.869)"/></g><g transform="translate(12.317 0.1)"><path class="g" d="M76.444,456.509a35.988,35.988,0,0,1,0-6.64,35.988,35.988,0,0,1,0,6.64Z" transform="translate(-76.291 -449.869)"/></g><g transform="translate(10.3 0.1)"><path class="g" d="M73.015,456.509a35.988,35.988,0,0,1,0-6.64,35.988,35.988,0,0,1,0,6.64Z" transform="translate(-72.862 -449.869)"/></g><g transform="translate(16.746 0.1)"><path class="g" d="M83.976,456.509a36.126,36.126,0,0,1,0-6.64,35.988,35.988,0,0,1,0,6.64Z" transform="translate(-83.823 -449.869)"/></g><g transform="translate(14.73 0.1)"><path class="g" d="M80.547,456.509a35.988,35.988,0,0,1,0-6.64,35.988,35.988,0,0,1,0,6.64Z" transform="translate(-80.394 -449.869)"/></g><g transform="translate(21.175 0.1)"><path class="g" d="M91.507,456.509a35.988,35.988,0,0,1,0-6.64,35.99,35.99,0,0,1,0,6.64Z" transform="translate(-91.354 -449.869)"/></g><g transform="translate(19.159 0.1)"><path class="g" d="M88.079,456.509a36.128,36.128,0,0,1,0-6.64,35.988,35.988,0,0,1,0,6.64Z" transform="translate(-87.926 -449.869)"/></g><g transform="translate(25.604 0.1)"><path class="g" d="M99.039,456.509a35.988,35.988,0,0,1,0-6.64,36.128,36.128,0,0,1,0,6.64Z" transform="translate(-98.886 -449.869)"/></g><g transform="translate(23.588 0.1)"><path class="g" d="M95.61,456.509a35.988,35.988,0,0,1,0-6.64,35.99,35.99,0,0,1,0,6.64Z" transform="translate(-95.457 -449.869)"/></g><g transform="translate(30.033 0.1)"><path class="g" d="M106.57,456.509a35.99,35.99,0,0,1,0-6.64,35.988,35.988,0,0,1,0,6.64Z" transform="translate(-106.417 -449.869)"/></g><g transform="translate(28.017 0.1)"><path class="g" d="M103.142,456.509a35.988,35.988,0,0,1,0-6.64,35.988,35.988,0,0,1,0,6.64Z" transform="translate(-102.989 -449.869)"/></g><g transform="translate(34.462 0.1)"><path class="g" d="M114.1,456.509a35.988,35.988,0,0,1,0-6.64,35.988,35.988,0,0,1,0,6.64Z" transform="translate(-113.949 -449.869)"/></g><g transform="translate(32.446 0.1)"><path class="g" d="M110.673,456.509a35.988,35.988,0,0,1,0-6.64,35.988,35.988,0,0,1,0,6.64Z" transform="translate(-110.52 -449.869)"/></g></g><path class="g" d="M92.087,449.592c0,.085-8.291.154-18.515.154s-18.517-.069-18.517-.154,8.289-.153,18.517-.153S92.087,449.508,92.087,449.592Z" transform="translate(-55.055 -449.439)"/></g><g transform="translate(0 13.38)"><g transform="translate(0.171 0.153)"><rect class="h" width="36.861" height="6.694"/><g transform="translate(3.459 0.099)"><path class="g" d="M57.354,467.97a35.988,35.988,0,0,1,0-6.64,36.127,36.127,0,0,1,0,6.64Z" transform="translate(-57.201 -461.33)"/></g><g transform="translate(1.442 0.099)"><path class="g" d="M53.925,467.97a35.989,35.989,0,0,1,0-6.64,35.988,35.988,0,0,1,0,6.64Z" transform="translate(-53.772 -461.33)"/></g><g transform="translate(7.888 0.099)"><path class="g" d="M64.885,467.97a35.99,35.99,0,0,1,0-6.64,35.988,35.988,0,0,1,0,6.64Z" transform="translate(-64.732 -461.33)"/></g><g transform="translate(5.872 0.099)"><path class="g" d="M61.457,467.97a35.988,35.988,0,0,1,0-6.64,35.99,35.99,0,0,1,0,6.64Z" transform="translate(-61.304 -461.33)"/></g><g transform="translate(12.317 0.099)"><path class="g" d="M72.417,467.97a35.988,35.988,0,0,1,0-6.64,35.99,35.99,0,0,1,0,6.64Z" transform="translate(-72.264 -461.33)"/></g><g transform="translate(10.3 0.099)"><path class="g" d="M68.988,467.97a35.988,35.988,0,0,1,0-6.64,35.988,35.988,0,0,1,0,6.64Z" transform="translate(-68.835 -461.33)"/></g><g transform="translate(16.746 0.099)"><path class="g" d="M79.948,467.97a35.988,35.988,0,0,1,0-6.64,35.988,35.988,0,0,1,0,6.64Z" transform="translate(-79.795 -461.33)"/></g><g transform="translate(14.73 0.099)"><path class="g" d="M76.52,467.97a35.988,35.988,0,0,1,0-6.64,35.99,35.99,0,0,1,0,6.64Z" transform="translate(-76.367 -461.33)"/></g><g transform="translate(21.175 0.099)"><path class="g" d="M87.48,467.97a35.992,35.992,0,0,1,0-6.64,35.988,35.988,0,0,1,0,6.64Z" transform="translate(-87.327 -461.33)"/></g><g transform="translate(19.158 0.099)"><path class="g" d="M84.051,467.97a35.992,35.992,0,0,1,0-6.64,35.988,35.988,0,0,1,0,6.64Z" transform="translate(-83.898 -461.33)"/></g><g transform="translate(25.604 0.099)"><path class="g" d="M95.011,467.97a35.988,35.988,0,0,1,0-6.64,35.988,35.988,0,0,1,0,6.64Z" transform="translate(-94.858 -461.33)"/></g><g transform="translate(23.588 0.099)"><path class="g" d="M91.583,467.97a35.99,35.99,0,0,1,0-6.64,35.988,35.988,0,0,1,0,6.64Z" transform="translate(-91.43 -461.33)"/></g><g transform="translate(30.033 0.099)"><path class="g" d="M102.543,467.97a35.988,35.988,0,0,1,0-6.64,35.988,35.988,0,0,1,0,6.64Z" transform="translate(-102.39 -461.33)"/></g><g transform="translate(28.017 0.099)"><path class="g" d="M99.115,467.97a36.128,36.128,0,0,1,0-6.64,35.988,35.988,0,0,1,0,6.64Z" transform="translate(-98.962 -461.33)"/></g><g transform="translate(34.462 0.099)"><path class="g" d="M110.075,467.97a35.988,35.988,0,0,1,0-6.64,36.124,36.124,0,0,1,0,6.64Z" transform="translate(-109.922 -461.33)"/></g><g transform="translate(32.446 0.099)"><path class="g" d="M106.646,467.97a35.988,35.988,0,0,1,0-6.64,35.988,35.988,0,0,1,0,6.64Z" transform="translate(-106.493 -461.33)"/></g></g><path class="g" d="M88.06,461.053c0,.085-8.291.153-18.515.153s-18.517-.069-18.517-.153,8.289-.154,18.517-.154S88.06,460.969,88.06,461.053Z" transform="translate(-51.028 -460.9)"/></g><g class="i" transform="translate(7.546 6.861)"><path d="M63.86,449.814a56.319,56.319,0,0,0,17.028,1.238c5.656-.376,11.368-1.208,17.037-1.139Z" transform="translate(-63.86 -449.814)"/></g><g class="i" transform="translate(0.623 13.619)"><path d="M52.087,461.306a56.316,56.316,0,0,0,17.028,1.238c5.656-.376,11.368-1.208,17.037-1.139Z" transform="translate(-52.087 -461.306)"/></g><g transform="translate(5.781 0.398)"><path class="c" d="M61.785,438.977c0,.085-.207.154-.463.154s-.463-.069-.463-.154.207-.153.463-.153S61.785,438.893,61.785,438.977Z" transform="translate(-60.859 -438.824)"/></g><g transform="translate(7.595 0.417)"><path class="c" d="M68.174,439.009a7.425,7.425,0,0,1-2.115.154,7.422,7.422,0,0,1-2.115-.154,7.426,7.426,0,0,1,2.115-.153A7.429,7.429,0,0,1,68.174,439.009Z" transform="translate(-63.943 -438.856)"/></g><g transform="translate(13.443 0.417)"><path class="c" d="M78.119,439.009a7.425,7.425,0,0,1-2.115.154,7.422,7.422,0,0,1-2.115-.154A7.426,7.426,0,0,1,76,438.856,7.429,7.429,0,0,1,78.119,439.009Z" transform="translate(-73.888 -438.856)"/></g></g><g transform="translate(204.792)"><g transform="translate(2.596)"><g transform="translate(0.184 0.165)"><rect class="h" width="39.656" height="7.202"/><g transform="translate(3.721 0.107)"><path class="g" d="M410.495,418.28a38.829,38.829,0,0,1,0-7.144,38.686,38.686,0,0,1,0,7.144Z" transform="translate(-410.33 -411.136)"/></g><g transform="translate(1.552 0.107)"><path class="g" d="M406.806,418.28a38.679,38.679,0,0,1,0-7.144,38.693,38.693,0,0,1,0,7.144Z" transform="translate(-406.641 -411.136)"/></g><g transform="translate(8.486 0.107)"><path class="g" d="M418.6,418.28a38.679,38.679,0,0,1,0-7.144,38.693,38.693,0,0,1,0,7.144Z" transform="translate(-418.432 -411.136)"/></g><g transform="translate(6.317 0.107)"><path class="g" d="M414.909,418.28a38.829,38.829,0,0,1,0-7.144,38.679,38.679,0,0,1,0,7.144Z" transform="translate(-414.744 -411.136)"/></g><g transform="translate(13.251 0.107)"><path class="g" d="M426.7,418.28a38.829,38.829,0,0,1,0-7.144,38.679,38.679,0,0,1,0,7.144Z" transform="translate(-426.535 -411.136)"/></g><g transform="translate(11.081 0.107)"><path class="g" d="M423.011,418.28a38.686,38.686,0,0,1,0-7.144,38.686,38.686,0,0,1,0,7.144Z" transform="translate(-422.846 -411.136)"/></g><g transform="translate(18.015 0.107)"><path class="g" d="M434.8,418.28a38.686,38.686,0,0,1,0-7.144,38.686,38.686,0,0,1,0,7.144Z" transform="translate(-434.637 -411.136)"/></g><g transform="translate(15.846 0.107)"><path class="g" d="M431.114,418.28a38.693,38.693,0,0,1,0-7.144,38.822,38.822,0,0,1,0,7.144Z" transform="translate(-430.949 -411.136)"/></g><g transform="translate(22.78 0.107)"><path class="g" d="M442.905,418.28a38.686,38.686,0,0,1,0-7.144,38.822,38.822,0,0,1,0,7.144Z" transform="translate(-442.74 -411.136)"/></g><g transform="translate(20.611 0.107)"><path class="g" d="M439.216,418.28a38.686,38.686,0,0,1,0-7.144,38.686,38.686,0,0,1,0,7.144Z" transform="translate(-439.051 -411.136)"/></g><g transform="translate(27.545 0.107)"><path class="g" d="M451.008,418.28a38.822,38.822,0,0,1,0-7.144,38.686,38.686,0,0,1,0,7.144Z" transform="translate(-450.843 -411.136)"/></g><g transform="translate(25.376 0.107)"><path class="g" d="M447.319,418.28a38.686,38.686,0,0,1,0-7.144,38.822,38.822,0,0,1,0,7.144Z" transform="translate(-447.154 -411.136)"/></g><g transform="translate(32.31 0.107)"><path class="g" d="M459.11,418.28a38.686,38.686,0,0,1,0-7.144,38.822,38.822,0,0,1,0,7.144Z" transform="translate(-458.945 -411.136)"/></g><g transform="translate(30.141 0.107)"><path class="g" d="M455.422,418.28a38.836,38.836,0,0,1,0-7.144,38.679,38.679,0,0,1,0,7.144Z" transform="translate(-455.257 -411.136)"/></g><g transform="translate(37.075 0.107)"><path class="g" d="M467.213,418.28a38.836,38.836,0,0,1,0-7.144,38.679,38.679,0,0,1,0,7.144Z" transform="translate(-467.048 -411.136)"/></g><g transform="translate(34.906 0.107)"><path class="g" d="M463.524,418.28a38.679,38.679,0,0,1,0-7.144,38.693,38.693,0,0,1,0,7.144Z" transform="translate(-463.359 -411.136)"/></g></g><path class="g" d="M443.529,410.838c0,.092-8.919.165-19.919.165s-19.921-.074-19.921-.165,8.917-.165,19.921-.165S443.529,410.747,443.529,410.838Z" transform="translate(-403.689 -410.673)"/></g><g transform="translate(0 7.315)"><g transform="translate(0.184 0.165)"><rect class="h" width="39.656" height="7.201"/><g transform="translate(3.721 0.107)"><path class="g" d="M406.081,430.718a38.821,38.821,0,0,1,0-7.144,38.7,38.7,0,0,1,0,7.144Z" transform="translate(-405.916 -423.574)"/></g><g transform="translate(1.552 0.107)"><path class="g" d="M402.392,430.718a38.692,38.692,0,0,1,0-7.144,38.835,38.835,0,0,1,0,7.144Z" transform="translate(-402.227 -423.574)"/></g><g transform="translate(8.486 0.107)"><path class="g" d="M414.183,430.718a38.692,38.692,0,0,1,0-7.144,38.835,38.835,0,0,1,0,7.144Z" transform="translate(-414.018 -423.574)"/></g><g transform="translate(6.317 0.107)"><path class="g" d="M410.495,430.718a38.835,38.835,0,0,1,0-7.144,38.692,38.692,0,0,1,0,7.144Z" transform="translate(-410.33 -423.574)"/></g><g transform="translate(13.251 0.107)"><path class="g" d="M422.286,430.718a38.835,38.835,0,0,1,0-7.144,38.692,38.692,0,0,1,0,7.144Z" transform="translate(-422.121 -423.574)"/></g><g transform="translate(11.081 0.107)"><path class="g" d="M418.6,430.718a38.685,38.685,0,0,1,0-7.144,38.7,38.7,0,0,1,0,7.144Z" transform="translate(-418.432 -423.574)"/></g><g transform="translate(18.015 0.107)"><path class="g" d="M430.388,430.718a38.7,38.7,0,0,1,0-7.144,38.692,38.692,0,0,1,0,7.144Z" transform="translate(-430.223 -423.574)"/></g><g transform="translate(15.846 0.107)"><path class="g" d="M426.7,430.718a38.835,38.835,0,0,1,0-7.144,38.685,38.685,0,0,1,0,7.144Z" transform="translate(-426.535 -423.574)"/></g><g transform="translate(22.78 0.107)"><path class="g" d="M438.491,430.718a38.685,38.685,0,0,1,0-7.144,38.842,38.842,0,0,1,0,7.144Z" transform="translate(-438.326 -423.574)"/></g><g transform="translate(20.611 0.107)"><path class="g" d="M434.8,430.718a38.692,38.692,0,0,1,0-7.144,38.692,38.692,0,0,1,0,7.144Z" transform="translate(-434.637 -423.574)"/></g><g transform="translate(27.545 0.107)"><path class="g" d="M446.593,430.718a38.7,38.7,0,0,1,0-7.144,38.7,38.7,0,0,1,0,7.144Z" transform="translate(-446.428 -423.574)"/></g><g transform="translate(25.376 0.107)"><path class="g" d="M442.905,430.718a38.692,38.692,0,0,1,0-7.144,38.828,38.828,0,0,1,0,7.144Z" transform="translate(-442.74 -423.574)"/></g><g transform="translate(32.31 0.107)"><path class="g" d="M454.7,430.718a38.692,38.692,0,0,1,0-7.144,38.828,38.828,0,0,1,0,7.144Z" transform="translate(-454.531 -423.574)"/></g><g transform="translate(30.141 0.107)"><path class="g" d="M451.008,430.718a38.828,38.828,0,0,1,0-7.144,38.692,38.692,0,0,1,0,7.144Z" transform="translate(-450.843 -423.574)"/></g><g transform="translate(37.075 0.107)"><path class="g" d="M462.8,430.718a38.828,38.828,0,0,1,0-7.144,38.692,38.692,0,0,1,0,7.144Z" transform="translate(-462.634 -423.574)"/></g><g transform="translate(34.906 0.107)"><path class="g" d="M459.11,430.718a38.692,38.692,0,0,1,0-7.144,38.828,38.828,0,0,1,0,7.144Z" transform="translate(-458.945 -423.574)"/></g></g><path class="g" d="M439.115,423.277c0,.091-8.919.165-19.919.165s-19.921-.074-19.921-.165,8.917-.165,19.921-.165S439.115,423.186,439.115,423.277Z" transform="translate(-399.275 -423.112)"/></g><g transform="translate(3.146 14.566)"><g transform="translate(0.279 0.165)"><rect class="h" width="39.656" height="7.201"/><g transform="translate(3.721 0.107)"><path class="g" d="M411.591,443.049a38.693,38.693,0,0,1,0-7.144,38.686,38.686,0,0,1,0,7.144Z" transform="translate(-411.426 -435.905)"/></g><g transform="translate(1.552 0.107)"><path class="g" d="M407.9,443.049a38.828,38.828,0,0,1,0-7.144,38.678,38.678,0,0,1,0,7.144Z" transform="translate(-407.738 -435.905)"/></g><g transform="translate(8.486 0.107)"><path class="g" d="M419.694,443.049a38.821,38.821,0,0,1,0-7.144,38.686,38.686,0,0,1,0,7.144Z" transform="translate(-419.529 -435.905)"/></g><g transform="translate(6.316 0.107)"><path class="g" d="M416.005,443.049a38.693,38.693,0,0,1,0-7.144,38.678,38.678,0,0,1,0,7.144Z" transform="translate(-415.84 -435.905)"/></g><g transform="translate(13.25 0.107)"><path class="g" d="M427.8,443.049a38.693,38.693,0,0,1,0-7.144,38.686,38.686,0,0,1,0,7.144Z" transform="translate(-427.631 -435.905)"/></g><g transform="translate(11.082 0.107)"><path class="g" d="M424.108,443.049a38.686,38.686,0,0,1,0-7.144,38.828,38.828,0,0,1,0,7.144Z" transform="translate(-423.943 -435.905)"/></g><g transform="translate(18.015 0.107)"><path class="g" d="M435.9,443.049a38.678,38.678,0,0,1,0-7.144,38.835,38.835,0,0,1,0,7.144Z" transform="translate(-435.734 -435.905)"/></g><g transform="translate(15.846 0.107)"><path class="g" d="M432.21,443.049a38.693,38.693,0,0,1,0-7.144,38.693,38.693,0,0,1,0,7.144Z" transform="translate(-432.045 -435.905)"/></g><g transform="translate(22.78 0.107)"><path class="g" d="M444,443.049a38.686,38.686,0,0,1,0-7.144,38.686,38.686,0,0,1,0,7.144Z" transform="translate(-443.836 -435.905)"/></g><g transform="translate(20.611 0.107)"><path class="g" d="M440.313,443.049a38.693,38.693,0,0,1,0-7.144,38.821,38.821,0,0,1,0,7.144Z" transform="translate(-440.148 -435.905)"/></g><g transform="translate(27.545 0.107)"><path class="g" d="M452.1,443.049a38.693,38.693,0,0,1,0-7.144,38.821,38.821,0,0,1,0,7.144Z" transform="translate(-451.939 -435.905)"/></g><g transform="translate(25.376 0.107)"><path class="g" d="M448.416,443.049a38.821,38.821,0,0,1,0-7.144,38.686,38.686,0,0,1,0,7.144Z" transform="translate(-448.251 -435.905)"/></g><g transform="translate(32.31 0.107)"><path class="g" d="M460.207,443.049a38.821,38.821,0,0,1,0-7.144,38.693,38.693,0,0,1,0,7.144Z" transform="translate(-460.042 -435.905)"/></g><g transform="translate(30.141 0.107)"><path class="g" d="M456.518,443.049a38.693,38.693,0,0,1,0-7.144,38.678,38.678,0,0,1,0,7.144Z" transform="translate(-456.353 -435.905)"/></g><g transform="translate(37.075 0.107)"><path class="g" d="M468.309,443.049a38.693,38.693,0,0,1,0-7.144,38.693,38.693,0,0,1,0,7.144Z" transform="translate(-468.144 -435.905)"/></g><g transform="translate(34.906 0.107)"><path class="g" d="M464.621,443.049a38.828,38.828,0,0,1,0-7.144,38.686,38.686,0,0,1,0,7.144Z" transform="translate(-464.456 -435.905)"/></g></g><path class="g" d="M444.559,435.607c0,.092-8.94.165-19.967.165s-19.968-.074-19.968-.165,8.939-.165,19.968-.165S444.559,435.516,444.559,435.607Z" transform="translate(-404.624 -435.442)"/></g><g transform="translate(0.132 21.71)"><g transform="translate(0.184 0.165)"><rect class="h" width="39.656" height="7.201"/><g transform="translate(3.721 0.107)"><path class="g" d="M406.305,455.2a38.693,38.693,0,0,1,0-7.144,38.821,38.821,0,0,1,0,7.144Z" transform="translate(-406.14 -448.053)"/></g><g transform="translate(1.552 0.107)"><path class="g" d="M402.617,455.2a38.828,38.828,0,0,1,0-7.144,38.686,38.686,0,0,1,0,7.144Z" transform="translate(-402.452 -448.053)"/></g><g transform="translate(8.486 0.107)"><path class="g" d="M414.408,455.2a38.828,38.828,0,0,1,0-7.144,38.686,38.686,0,0,1,0,7.144Z" transform="translate(-414.243 -448.053)"/></g><g transform="translate(6.316 0.107)"><path class="g" d="M410.719,455.2a38.693,38.693,0,0,1,0-7.144,38.686,38.686,0,0,1,0,7.144Z" transform="translate(-410.554 -448.053)"/></g><g transform="translate(13.25 0.107)"><path class="g" d="M422.51,455.2a38.693,38.693,0,0,1,0-7.144,38.686,38.686,0,0,1,0,7.144Z" transform="translate(-422.345 -448.053)"/></g><g transform="translate(11.082 0.107)"><path class="g" d="M418.822,455.2a38.821,38.821,0,0,1,0-7.144,38.693,38.693,0,0,1,0,7.144Z" transform="translate(-418.657 -448.053)"/></g><g transform="translate(18.015 0.107)"><path class="g" d="M430.613,455.2a38.821,38.821,0,0,1,0-7.144,38.693,38.693,0,0,1,0,7.144Z" transform="translate(-430.448 -448.053)"/></g><g transform="translate(15.846 0.107)"><path class="g" d="M426.924,455.2a38.686,38.686,0,0,1,0-7.144,38.686,38.686,0,0,1,0,7.144Z" transform="translate(-426.759 -448.053)"/></g><g transform="translate(22.78 0.107)"><path class="g" d="M438.715,455.2a38.678,38.678,0,0,1,0-7.144,38.693,38.693,0,0,1,0,7.144Z" transform="translate(-438.55 -448.053)"/></g><g transform="translate(20.611 0.107)"><path class="g" d="M435.027,455.2a38.678,38.678,0,0,1,0-7.144,38.828,38.828,0,0,1,0,7.144Z" transform="translate(-434.862 -448.053)"/></g><g transform="translate(27.545 0.107)"><path class="g" d="M446.818,455.2a38.686,38.686,0,0,1,0-7.144,38.828,38.828,0,0,1,0,7.144Z" transform="translate(-446.653 -448.053)"/></g><g transform="translate(25.376 0.107)"><path class="g" d="M443.129,455.2a38.678,38.678,0,0,1,0-7.144,38.693,38.693,0,0,1,0,7.144Z" transform="translate(-442.964 -448.053)"/></g><g transform="translate(32.31 0.107)"><path class="g" d="M454.92,455.2a38.678,38.678,0,0,1,0-7.144,38.693,38.693,0,0,1,0,7.144Z" transform="translate(-454.755 -448.053)"/></g><g transform="translate(30.141 0.107)"><path class="g" d="M451.232,455.2a38.693,38.693,0,0,1,0-7.144,38.821,38.821,0,0,1,0,7.144Z" transform="translate(-451.067 -448.053)"/></g><g transform="translate(37.075 0.107)"><path class="g" d="M463.023,455.2a38.686,38.686,0,0,1,0-7.144,38.828,38.828,0,0,1,0,7.144Z" transform="translate(-462.858 -448.053)"/></g><g transform="translate(34.906 0.107)"><path class="g" d="M459.335,455.2a38.835,38.835,0,0,1,0-7.144,38.678,38.678,0,0,1,0,7.144Z" transform="translate(-459.17 -448.053)"/></g></g><path class="g" d="M439.34,447.755c0,.091-8.919.165-19.919.165s-19.921-.074-19.921-.165,8.917-.165,19.921-.165S439.34,447.664,439.34,447.755Z" transform="translate(-399.5 -447.59)"/></g><g transform="translate(4.106 29.015)"><g transform="translate(0.184 0.165)"><rect class="h" width="39.656" height="7.201"/><g transform="translate(3.721 0.107)"><path class="g" d="M413.063,467.618a38.693,38.693,0,0,1,0-7.144,38.822,38.822,0,0,1,0,7.144Z" transform="translate(-412.898 -460.474)"/></g><g transform="translate(1.552 0.107)"><path class="g" d="M409.375,467.618a38.829,38.829,0,0,1,0-7.144,38.686,38.686,0,0,1,0,7.144Z" transform="translate(-409.21 -460.474)"/></g><g transform="translate(8.486 0.107)"><path class="g" d="M421.166,467.618a38.829,38.829,0,0,1,0-7.144,38.686,38.686,0,0,1,0,7.144Z" transform="translate(-421.001 -460.474)"/></g><g transform="translate(6.316 0.107)"><path class="g" d="M417.477,467.618a38.693,38.693,0,0,1,0-7.144,38.679,38.679,0,0,1,0,7.144Z" transform="translate(-417.312 -460.474)"/></g><g transform="translate(13.25 0.107)"><path class="g" d="M429.268,467.618a38.693,38.693,0,0,1,0-7.144,38.686,38.686,0,0,1,0,7.144Z" transform="translate(-429.103 -460.474)"/></g><g transform="translate(11.082 0.107)"><path class="g" d="M425.58,467.618a38.686,38.686,0,0,1,0-7.144,38.822,38.822,0,0,1,0,7.144Z" transform="translate(-425.415 -460.474)"/></g><g transform="translate(18.015 0.107)"><path class="g" d="M437.371,467.618a38.679,38.679,0,0,1,0-7.144,38.836,38.836,0,0,1,0,7.144Z" transform="translate(-437.206 -460.474)"/></g><g transform="translate(15.846 0.107)"><path class="g" d="M433.682,467.618a38.693,38.693,0,0,1,0-7.144,38.679,38.679,0,0,1,0,7.144Z" transform="translate(-433.517 -460.474)"/></g><g transform="translate(22.78 0.107)"><path class="g" d="M445.473,467.618a38.693,38.693,0,0,1,0-7.144,38.686,38.686,0,0,1,0,7.144Z" transform="translate(-445.308 -460.474)"/></g><g transform="translate(20.611 0.107)"><path class="g" d="M441.785,467.618a38.686,38.686,0,0,1,0-7.144,38.822,38.822,0,0,1,0,7.144Z" transform="translate(-441.62 -460.474)"/></g><g transform="translate(27.545 0.107)"><path class="g" d="M453.576,467.618a38.686,38.686,0,0,1,0-7.144,38.829,38.829,0,0,1,0,7.144Z" transform="translate(-453.411 -460.474)"/></g><g transform="translate(25.376 0.107)"><path class="g" d="M449.887,467.618a38.679,38.679,0,0,1,0-7.144,38.693,38.693,0,0,1,0,7.144Z" transform="translate(-449.722 -460.474)"/></g><g transform="translate(32.31 0.107)"><path class="g" d="M461.679,467.618a38.822,38.822,0,0,1,0-7.144,38.686,38.686,0,0,1,0,7.144Z" transform="translate(-461.514 -460.474)"/></g><g transform="translate(30.141 0.107)"><path class="g" d="M457.99,467.618a38.693,38.693,0,0,1,0-7.144,38.822,38.822,0,0,1,0,7.144Z" transform="translate(-457.825 -460.474)"/></g><g transform="translate(37.075 0.107)"><path class="g" d="M469.781,467.618a38.693,38.693,0,0,1,0-7.144,38.822,38.822,0,0,1,0,7.144Z" transform="translate(-469.616 -460.474)"/></g><g transform="translate(34.906 0.107)"><path class="g" d="M466.093,467.618a38.836,38.836,0,0,1,0-7.144,38.679,38.679,0,0,1,0,7.144Z" transform="translate(-465.928 -460.474)"/></g></g><path class="g" d="M446.1,460.177c0,.091-8.919.165-19.919.165s-19.921-.074-19.921-.165,8.917-.165,19.921-.165S446.1,460.086,446.1,460.177Z" transform="translate(-406.258 -460.012)"/></g><g class="i" transform="translate(3.425 14.731)"><path d="M405.1,435.723a60.583,60.583,0,0,0,18.319,1.332c6.085-.4,12.23-1.3,18.328-1.225Z" transform="translate(-405.099 -435.723)"/></g><g class="i" transform="translate(3.782 7.563)"><path d="M405.707,423.533a60.582,60.582,0,0,0,18.319,1.332c6.085-.4,12.23-1.3,18.328-1.225Z" transform="translate(-405.707 -423.533)"/></g><g class="i" transform="translate(5.702 21.947)"><path d="M408.972,447.994a60.584,60.584,0,0,0,18.319,1.332c6.085-.4,12.23-1.3,18.328-1.225Z" transform="translate(-408.972 -447.994)"/></g><g class="i" transform="translate(4.147 29.136)"><path d="M406.327,460.219a60.583,60.583,0,0,0,18.319,1.332c6.085-.4,12.23-1.3,18.329-1.225Z" transform="translate(-406.327 -460.219)"/></g><g transform="translate(3.342 1.147)"><path class="c" d="M405.123,416.567a11.843,11.843,0,0,1,0-3.943,11.843,11.843,0,0,1,0,3.943Z" transform="translate(-404.958 -412.624)"/></g><g transform="translate(0.842 8.553)"><path class="c" d="M400.871,429.449a13.629,13.629,0,0,1,0-4.232,13.682,13.682,0,0,1,0,4.232Z" transform="translate(-400.706 -425.217)"/></g><g transform="translate(4.4 16.44)"><path class="c" d="M406.922,442.38a10.724,10.724,0,0,1,0-3.751,10.724,10.724,0,0,1,0,3.751Z" transform="translate(-406.757 -438.629)"/></g><g transform="translate(0.745 23.653)"><path class="c" d="M400.707,454.262a8.656,8.656,0,0,1,0-3.367,8.656,8.656,0,0,1,0,3.367Z" transform="translate(-400.542 -450.895)"/></g><g transform="translate(2.353 7.907)"><path class="c" d="M416.357,424.284a129.969,129.969,0,0,1-13.081,0,129.514,129.514,0,0,1,13.081,0Z" transform="translate(-403.276 -424.119)"/></g><g transform="translate(6.489 0.982)"><path class="c" d="M423.486,412.508a131.393,131.393,0,0,1-13.177,0,131.442,131.442,0,0,1,13.177,0Z" transform="translate(-410.309 -412.343)"/></g><g transform="translate(21.686 1.079)"><path class="c" d="M440.479,412.672a14.253,14.253,0,0,1-4.328,0,14.3,14.3,0,0,1,4.328,0Z" transform="translate(-436.151 -412.507)"/></g></g></g><g transform="translate(38.28 61.716)"><g transform="translate(0)"><g transform="translate(22.731 38.676)"><g transform="translate(0 0.472)"><g transform="translate(0.021 0.022)"><path class="j" d="M96.421,153.625l16.713,8.6,24.284-15.836,8.147,9.944L119.71,176.773l-18.219.009-11.35-16.1Z" transform="translate(-90.141 -146.385)"/></g><path class="j" d="M101.468,176.783l0-.007L90.105,160.669l.009-.009,6.289-7.07.011.006,16.7,8.592,24.288-15.84.009.012,8.157,9.957-.014.01L119.7,176.774H119.7Z" transform="translate(-90.105 -146.348)"/></g><g class="i" transform="translate(0.021)"><path class="k" d="M96.421,153.279l16.713,8.6,24.66-16.33,7.77,10.438L119.71,176.427l-18.219.009-11.35-16.1Z" transform="translate(-90.141 -145.546)"/></g></g><g transform="translate(56.908 3.077)"><path class="l" d="M209.324,128.7a31.733,31.733,0,1,1-17.383-41.318A31.7,31.7,0,0,1,209.324,128.7Z" transform="translate(-148.223 -85.009)"/><g transform="translate(7.55 7.537)"><path class="l" d="M207.624,131.124a24.183,24.183,0,1,1-13.246-31.487A24.155,24.155,0,0,1,207.624,131.124Z" transform="translate(-161.061 -97.826)"/></g><g transform="translate(7.301 7.317)"><path class="g" d="M207.45,130.97a2.228,2.228,0,0,1,.106-.379l.356-1.092.269-.8c.085-.3.149-.634.235-.992a17.514,17.514,0,0,0,.468-2.5,23,23,0,0,0-.075-6.929,24.01,24.01,0,0,0-22.785-20.327,24.966,24.966,0,0,0-3.406.086c-.572.06-1.14.173-1.715.258a12.131,12.131,0,0,0-1.713.372,21.874,21.874,0,0,0-6.6,2.776,23.083,23.083,0,0,0-5.662,4.793A23.612,23.612,0,0,0,161.21,120.2a23.114,23.114,0,0,0,.677,7.39,21.875,21.875,0,0,0,2.766,6.61,22.062,22.062,0,0,0,4.374,5.3,24.113,24.113,0,0,0,11.237,5.731,24.124,24.124,0,0,0,19.263-4.258,22.989,22.989,0,0,0,4.909-4.89,17.482,17.482,0,0,0,1.415-2.108c.189-.316.379-.6.527-.872l.37-.759.51-1.029a2.307,2.307,0,0,1,.191-.345,2.21,2.21,0,0,1-.143.365l-.466,1.053-.35.774c-.142.278-.325.567-.509.889A17.094,17.094,0,0,1,204.6,136.2a22.829,22.829,0,0,1-4.9,5,24.339,24.339,0,0,1-19.519,4.444,24.482,24.482,0,0,1-11.465-5.8,22.481,22.481,0,0,1-4.475-5.4,22.324,22.324,0,0,1-2.833-6.741,23.548,23.548,0,0,1-.7-7.545,24.065,24.065,0,0,1,5.834-14.254,23.529,23.529,0,0,1,5.786-4.889,22.349,22.349,0,0,1,6.745-2.821,12.443,12.443,0,0,1,1.748-.375c.587-.085,1.167-.2,1.75-.258a25.3,25.3,0,0,1,3.474-.079,24.481,24.481,0,0,1,12.239,3.9,24.343,24.343,0,0,1,10.807,16.85,22.8,22.8,0,0,1-.011,7,17.076,17.076,0,0,1-.517,2.5c-.094.359-.167.693-.26.991l-.293.8c-.171.455-.306.812-.405,1.078A2.225,2.225,0,0,1,207.45,130.97Z" transform="translate(-160.639 -97.451)"/></g><g class="i" transform="translate(8.938 7.631)"><path d="M208.326,131.352a14.326,14.326,0,0,1,.515-2.932,25.828,25.828,0,0,0,.25-7.906,24.753,24.753,0,0,0-1.27-5.268,24.085,24.085,0,0,0-2.85-5.48,23.383,23.383,0,0,0-4.646-4.946,23.107,23.107,0,0,0-2.977-2.006,23.189,23.189,0,0,0-6.905-2.573,23.142,23.142,0,0,0-3.565-.432,23.4,23.4,0,0,0-6.753.7,24.065,24.065,0,0,0-5.745,2.278,24.814,24.814,0,0,0-4.412,3.15,25.842,25.842,0,0,0-4.99,6.139,14.332,14.332,0,0,1-1.531,2.552c-.1-.036.108-1.1.9-2.882a22.561,22.561,0,0,1,4.737-6.76A24.2,24.2,0,0,1,179.7,98.863,24.287,24.287,0,0,1,186.954,98a24.208,24.208,0,0,1,3.851.438,24.307,24.307,0,0,1,7.448,2.776,24.283,24.283,0,0,1,3.2,2.189,24.3,24.3,0,0,1,4.918,5.4,24.164,24.164,0,0,1,4.015,11.577,22.554,22.554,0,0,1-.847,8.209C208.963,130.452,208.426,131.391,208.326,131.352Z" transform="translate(-163.421 -97.985)"/></g><g class="i" transform="translate(17.641 15.701)"><path d="M189.381,142.071l-1.538,3.922-3.5-1.375,1.5-3.815c-3.384-1.571-6.284-3.96-7.618-6.221l3.6-3.517a15.2,15.2,0,0,0,5.817,5.151l2.294-5.848c-3.516-2.469-7.349-5.468-5.384-10.475,1.456-3.711,5.4-5.839,11.18-4.3l1.525-3.887,3.5,1.374-1.5,3.817a17,17,0,0,1,6.269,4.923l-3.44,3.62a15.426,15.426,0,0,0-4.643-3.923l-2.335,5.952c3.529,2.434,7.292,5.407,5.356,10.343C199.036,141.456,195.139,143.563,189.381,142.071Zm2.571-16.849,1.949-4.972c-2.019-.308-3.153.419-3.607,1.575C189.815,123.051,190.6,124.129,191.952,125.222Zm2.712,10.8c.48-1.227-.273-2.289-1.573-3.406l-1.9,4.832C193.1,137.752,194.224,137.144,194.664,136.024Z" transform="translate(-178.221 -111.708)"/></g></g><g transform="translate(2.959)"><g transform="translate(1.147 4.522)"><g transform="translate(3.404)"><path class="m" d="M64.359,101.186l2.62,25.984c.446,4.419,2,10.819,8.957,9.8h0c5.967-1.343,6.921-7.243,6.5-11.366-.2-1.956-.362-3.587-.369-3.79,0,0,6.552-1.29,6.369-7.885-.088-3.187-.8-9.737-1.521-15.654A12.288,12.288,0,0,0,74.222,87.476l-.636.025C66.744,88.176,63.5,94.365,64.359,101.186Z" transform="translate(-64.223 -87.466)"/><g transform="translate(9.162 32.15)"><path class="n" d="M88.487,144.33a15.939,15.939,0,0,1-8.685-2.194s2.286,4.731,8.84,3.874Z" transform="translate(-79.802 -142.136)"/></g></g><g transform="translate(10.242 10.06)"><g transform="translate(0.956 3.567)"><g transform="translate(0 0.179)"><path class="g" d="M81.512,111.884c-.115.147-.938-.375-2.036-.28-1.1.078-1.854.724-1.985.6-.064-.056.044-.313.372-.6a2.758,2.758,0,0,1,1.575-.646,2.66,2.66,0,0,1,1.635.393C81.434,111.582,81.569,111.819,81.512,111.884Z" transform="translate(-77.474 -110.943)"/></g><g transform="translate(2.488 3.071)"><path class="g" d="M83.481,116.632a.891.891,0,0,1-.823.933.852.852,0,0,1-.95-.766.892.892,0,0,1,.822-.933A.853.853,0,0,1,83.481,116.632Z" transform="translate(-81.706 -115.861)"/></g><g transform="translate(6.832)"><path class="g" d="M89.9,119.061a6.688,6.688,0,0,1,1.634-.363c.258-.037.5-.1.537-.276a1.316,1.316,0,0,0-.2-.76l-.844-1.939a33.782,33.782,0,0,1-1.924-5.083,33.914,33.914,0,0,1,2.329,4.917q.425,1.021.812,1.952a1.5,1.5,0,0,1,.175,1.01.648.648,0,0,1-.41.4,1.749,1.749,0,0,1-.437.079A6.628,6.628,0,0,1,89.9,119.061Z" transform="translate(-89.091 -110.639)"/></g></g><path class="g" d="M79.911,105.2c-.078.255-.975.172-2.018.344-1.046.151-1.879.5-2.027.283-.066-.106.072-.348.4-.6a3.331,3.331,0,0,1,1.487-.606,3.3,3.3,0,0,1,1.595.129C79.742,104.889,79.944,105.078,79.911,105.2Z" transform="translate(-75.849 -104.572)"/><g transform="translate(10.647 0.845)"><path class="g" d="M97.992,106.64c-.092.211-.971.088-2.009.173-1.041.066-1.882.315-2.015.121-.059-.093.092-.29.435-.488a3.642,3.642,0,0,1,1.5-.426,3.763,3.763,0,0,1,1.564.2C97.845,106.367,98.032,106.539,97.992,106.64Z" transform="translate(-93.955 -106.009)"/></g></g><g transform="translate(0 18.426)"><path class="m" d="M62.708,118.953c-.114-.044-4.583-1.158-4.258,3.343s4.776,3.247,4.775,3.117S62.708,118.953,62.708,118.953Z" transform="translate(-58.433 -118.799)"/></g><g transform="translate(1.156 19.931)"><path class="n" d="M62.537,124.86c-.021-.013-.075.061-.2.131a.788.788,0,0,1-.586.054,1.947,1.947,0,0,1-1.023-1.676,2.6,2.6,0,0,1,.139-1.138.908.908,0,0,1,.546-.644.4.4,0,0,1,.478.181c.07.122.048.213.072.219s.092-.082.042-.265a.5.5,0,0,0-.2-.269.594.594,0,0,0-.442-.084,1.106,1.106,0,0,0-.769.757,2.673,2.673,0,0,0-.182,1.274,2.041,2.041,0,0,0,1.284,1.861.842.842,0,0,0,.709-.171C62.537,124.97,62.553,124.867,62.537,124.86Z" transform="translate(-60.399 -121.359)"/></g><g transform="translate(15.446 22.652)"><path class="g" d="M87.387,128.6c.036-.119-.872-.282-1.582-1.036a5.043,5.043,0,0,1-.753-1.1c-.168-.31-.29-.5-.336-.483s-.008.238.1.584a3.319,3.319,0,0,0,.725,1.246,2.7,2.7,0,0,0,1.244.746C87.147,128.662,87.38,128.644,87.387,128.6Z" transform="translate(-84.698 -125.985)"/></g><g transform="translate(21.221 13.087)"><path class="g" d="M98.557,110.661c-.115.147-.938-.375-2.036-.28-1.1.078-1.854.725-1.985.6-.064-.056.044-.313.372-.6a2.754,2.754,0,0,1,1.574-.646,2.657,2.657,0,0,1,1.635.393C98.478,110.359,98.614,110.6,98.557,110.661Z" transform="translate(-94.519 -109.72)"/></g><g transform="translate(22.91 16.145)"><path class="g" d="M99.167,115.691a.891.891,0,0,1-.823.933.853.853,0,0,1-.95-.766.891.891,0,0,1,.822-.933A.853.853,0,0,1,99.167,115.691Z" transform="translate(-97.392 -114.921)"/></g></g><path class="g" d="M87.3,85.912a3.557,3.557,0,0,0-4.567-.9,4.869,4.869,0,0,0-8.808-3.233,1.985,1.985,0,0,0-1.114-1.216,3.922,3.922,0,0,0-1.662-.3,7.738,7.738,0,0,0-6.678,3.86,8.426,8.426,0,0,0-6.8,3.393c-1.84,2.57-1.624,8.018,1.21,12.423l.874,2.865a2.677,2.677,0,0,1,1.881.243c.667.476,1.054,1.469,2.016.966.489-.256.835-1.383.947-1.924a25.66,25.66,0,0,0-.12-10.916A8.251,8.251,0,0,1,66.8,89.067l-.069.079c1.754-.842,3.748-1.7,5.577-1.039,1.419.512,2.366,1.817,3.5,2.816A10.321,10.321,0,0,0,83.5,93.47c.305,1.828.445,4.446.75,6.274l1.213-3.122,0,.015c.1-.23.182-.459.259-.689l.028-.07v-.011c.257-.262.424-.707.84-1.309a3.884,3.884,0,0,0,.186-4.021A3.558,3.558,0,0,0,87.3,85.912Z" transform="translate(-56.483 -79.777)"/><path class="g" d="M106.963,105.283l-.007,0h0Z" transform="translate(-77.275 -90.282)"/><g transform="translate(20.768 6.507)"><path class="j" d="M99.18,90.842s.019.029.044.092a1.351,1.351,0,0,1,.074.285,1.955,1.955,0,0,1-.142,1.079,2.014,2.014,0,0,1-.435.636,1.8,1.8,0,0,1-.777.441A2.033,2.033,0,0,1,96,92.885l.1-.108a1.239,1.239,0,0,1,.415.843,1.633,1.633,0,0,1-.372,1.186,1.848,1.848,0,0,1-1.009.571,2.867,2.867,0,0,1-1.9-.3,6.036,6.036,0,0,1-1.079-.725,2.587,2.587,0,0,1-.353-.318,3.338,3.338,0,0,1,.389.272,7.02,7.02,0,0,0,1.09.676,2.8,2.8,0,0,0,1.823.258,1.718,1.718,0,0,0,.927-.531,1.5,1.5,0,0,0,.336-1.077A1.1,1.1,0,0,0,96,92.889l.1-.108a1.915,1.915,0,0,0,1.808.469,1.767,1.767,0,0,0,1.157-.991,2,2,0,0,0,.178-1.033C99.218,90.977,99.167,90.846,99.18,90.842Z" transform="translate(-91.799 -90.842)"/></g><g transform="translate(18.017 2.232)"><path class="j" d="M91.091,83.573s.036.006.1.032a2.065,2.065,0,0,1,.269.14,2.206,2.206,0,0,1,.775.8,1.73,1.73,0,0,1,.029,1.631,1.334,1.334,0,0,1-.753.653,1.354,1.354,0,0,1-1.067-.084,1.181,1.181,0,0,1-.277-.219l.12-.087a1.259,1.259,0,0,1,.081,1.01,1.381,1.381,0,0,1-.576.742,1.824,1.824,0,0,1-1.527.17,2.452,2.452,0,0,1-.893-.527,1.18,1.18,0,0,1-.252-.28c.008-.008.1.088.289.238a2.606,2.606,0,0,0,.886.472,1.739,1.739,0,0,0,1.424-.185,1.254,1.254,0,0,0,.512-.673,1.123,1.123,0,0,0-.072-.892l-.3-.523.419.436a1.032,1.032,0,0,0,.239.189,1.217,1.217,0,0,0,.948.076,1.2,1.2,0,0,0,.678-.58,1.633,1.633,0,0,0,0-1.517,2.278,2.278,0,0,0-.714-.8C91.218,83.644,91.085,83.586,91.091,83.573Z" transform="translate(-87.121 -83.572)"/></g></g><g transform="translate(39.067 208.001)"><path class="k" d="M118.353,433.481l-.467,22.326,29.387.692c-.1-2.657-15.165-8.342-15.165-8.342l.921-14.293Z" transform="translate(-117.885 -433.481)"/><g class="o" transform="translate(4.283 13.217)"><path class="c" d="M126.053,456a1.134,1.134,0,0,0-.864,1.275,1.154,1.154,0,0,0,1.329.82,1.2,1.2,0,0,0,.907-1.354,1.215,1.215,0,0,0-1.483-.709" transform="translate(-125.168 -455.957)"/></g><g class="o" transform="translate(0 20.077)"><path class="c" d="M117.885,469.871l.14-2.249,28.124,1.5s1.294.569,1.123,1.436Z" transform="translate(-117.885 -467.622)"/></g><g transform="translate(11.984 14.409)"><path class="g" d="M140.982,458.12c-.008.135-.727.18-1.445.6-.729.4-1.108.98-1.239.923-.132-.029.1-.835.982-1.328S141.017,458,140.982,458.12Z" transform="translate(-138.264 -457.984)"/></g><g transform="translate(15.757 15.764)"><path class="g" d="M146.676,460.347c.029.132-.6.348-1.1.91-.52.548-.659,1.166-.8,1.156-.135.018-.213-.779.425-1.466S146.676,460.217,146.676,460.347Z" transform="translate(-144.679 -460.288)"/></g><g transform="translate(19.253 17.036)"><path class="g" d="M150.783,464.765c-.131.026-.313-.656.075-1.39s1.067-1.014,1.125-.9c.078.114-.368.5-.677,1.109C150.982,464.184,150.926,464.755,150.783,464.765Z" transform="translate(-150.624 -462.451)"/></g><g transform="translate(11.471 10.745)"><path class="g" d="M140.45,452.274c-.064.122-.717-.08-1.53-.047-.813.017-1.451.26-1.523.142-.081-.1.549-.587,1.507-.614S140.524,452.169,140.45,452.274Z" transform="translate(-137.391 -451.753)"/></g><g transform="translate(9.491 5.63)"><path class="g" d="M138.45,445.38a2.92,2.92,0,0,1-1.472-.042,6.9,6.9,0,0,1-1.528-.483,7.151,7.151,0,0,1-.834-.444,1.794,1.794,0,0,1-.435-.338.566.566,0,0,1-.047-.723.8.8,0,0,1,.637-.3,1.988,1.988,0,0,1,.55.085,5.461,5.461,0,0,1,.907.318,5.2,5.2,0,0,1,1.335.874c.666.612.886,1.124.836,1.15-.066.043-.386-.389-1.067-.9a5.956,5.956,0,0,0-1.294-.73,5.761,5.761,0,0,0-.839-.266c-.309-.085-.574-.093-.657.036-.03.049-.034.068.029.156a1.449,1.449,0,0,0,.32.247,7.934,7.934,0,0,0,.767.438,8.42,8.42,0,0,0,1.409.549A10.655,10.655,0,0,1,138.45,445.38Z" transform="translate(-134.024 -443.055)"/></g><g transform="translate(13.37 3.758)"><path class="g" d="M140.976,444.258a2.13,2.13,0,0,1-.353-1.353,4.292,4.292,0,0,1,.241-1.518,4.447,4.447,0,0,1,.4-.836,1.208,1.208,0,0,1,.957-.68.686.686,0,0,1,.6.4,1.784,1.784,0,0,1,.138.513,2.94,2.94,0,0,1-.024.937,3.111,3.111,0,0,1-.667,1.422c-.593.706-1.2.854-1.207.808-.046-.069.461-.319.919-1a3.1,3.1,0,0,0,.5-1.3,2.7,2.7,0,0,0-.006-.8c-.038-.3-.149-.537-.266-.51-.146-.005-.4.211-.527.443a4.493,4.493,0,0,0-.385.746,4.755,4.755,0,0,0-.322,1.381C140.915,443.728,141.054,444.24,140.976,444.258Z" transform="translate(-140.621 -439.872)"/></g></g><g transform="translate(0 198.819)"><path class="k" d="M63.463,417.867l-12.011,15.8,20.759,15.865c1.316-1.963-6.537-13.925-6.537-13.925l8.136-9.791Z" transform="translate(-51.452 -417.867)"/><g class="o" transform="translate(7.098 11.909)"><path class="c" d="M64.879,438.2a1.009,1.009,0,0,0-1.287.465,1.027,1.027,0,0,0,.526,1.285,1.064,1.064,0,0,0,1.361-.5,1.08,1.08,0,0,0-.7-1.285" transform="translate(-63.522 -438.119)"/></g><g class="o" transform="translate(0 14.258)"><path class="c" d="M51.452,443.656l1.277-1.543L72.155,457.9s.633,1.086.056,1.62Z" transform="translate(-51.452 -442.113)"/></g><g transform="translate(11.902 17.132)"><path class="g" d="M74.425,447.767c-.076.093-.617-.251-1.352-.325-.734-.093-1.31.125-1.374.015-.079-.09.512-.546,1.4-.441S74.514,447.7,74.425,447.767Z" transform="translate(-71.692 -447.001)"/></g><g transform="translate(13.694 20.031)"><path class="g" d="M77.2,452.31c-.048.11-.612-.063-1.267.079-.66.122-1.083.492-1.181.411-.107-.058.253-.671,1.072-.832S77.272,452.217,77.2,452.31Z" transform="translate(-74.738 -451.929)"/></g><g transform="translate(15.482 22.657)"><path class="g" d="M77.8,457.552c-.108-.05.118-.636.781-.96s1.3-.171,1.279-.058-.527.168-1.067.443S77.912,457.62,77.8,457.552Z" transform="translate(-77.778 -456.395)"/></g><g transform="translate(13.983 13.855)"><path class="g" d="M77.474,443.023c-.109.055-.473-.432-1.074-.834s-1.179-.572-1.168-.695c-.006-.114.7-.135,1.4.347S77.581,442.986,77.474,443.023Z" transform="translate(-75.231 -441.427)"/></g><g transform="translate(15.127 9.008)"><path class="g" d="M79.566,436.928c-.029.04-.476-.207-1.036-.8a6.228,6.228,0,0,1-1.213-1.9,1.562,1.562,0,0,1-.136-.47.5.5,0,0,1,.344-.544.713.713,0,0,1,.612.121,1.79,1.79,0,0,1,.351.349,4.894,4.894,0,0,1,.486.7,4.632,4.632,0,0,1,.5,1.327,2.046,2.046,0,0,1,0,1.263c-.071,0-.075-.482-.3-1.2a5.316,5.316,0,0,0-.549-1.2,5.063,5.063,0,0,0-.463-.63c-.178-.222-.364-.367-.492-.318-.048.019-.061.031-.061.127a1.284,1.284,0,0,0,.1.345,7.16,7.16,0,0,0,.322.716,7.528,7.528,0,0,0,.726,1.131C79.236,436.551,79.607,436.877,79.566,436.928Z" transform="translate(-77.175 -433.186)"/></g><g transform="translate(17.267 10.139)"><path class="g" d="M80.828,437.756c-.048-.013.015-.509.453-1.157a3.841,3.841,0,0,1,.967-.965,3.957,3.957,0,0,1,.722-.393,1.074,1.074,0,0,1,1.044.012.609.609,0,0,1,.224.605,1.579,1.579,0,0,1-.169.441,2.6,2.6,0,0,1-.507.661,2.77,2.77,0,0,1-1.223.673,1.7,1.7,0,0,1-1.29-.051,10.277,10.277,0,0,0,1.183-.238,2.752,2.752,0,0,0,1.037-.67,2.408,2.408,0,0,0,.416-.581c.128-.233.174-.464.075-.506a.737.737,0,0,0-.61.043,4.031,4.031,0,0,0-.666.335,4.235,4.235,0,0,0-.953.825C81.061,437.343,80.894,437.783,80.828,437.756Z" transform="translate(-80.814 -435.108)"/></g></g><g transform="translate(4.329 103.358)"><g transform="translate(11.181)"><path class="g" d="M77.827,262.766l3.57,11.623a18.893,18.893,0,0,0,4.781,7.894c2.3,2.277,5.016,4.978,5.458,5.51l10.846,35.191-2.523,46.924,18.687,1.267s7.351-47.915,6.165-55.327-8.725-56.871-8.725-56.871l-1.982-3.439Z" transform="translate(-77.827 -255.537)"/></g><g transform="translate(0 28.063)"><path class="g" d="M85.563,308.71l-1.894,34.572L58.813,377.067l15.58,10.625,33.528-39.143.331-45.291Z" transform="translate(-58.813 -303.258)"/></g><g transform="translate(24.989 32.255)"><path class="j" d="M101.308,310.386a.76.76,0,0,1,.069.162l.175.486.645,1.885,2.339,7.017,7.794,23.747.009.029,0,.032c-.1,2.019-.213,4.136-.325,6.291-.612,11.4-1.167,21.722-1.57,29.218-.216,3.721-.392,6.739-.515,8.852-.067,1.027-.119,1.833-.157,2.406-.021.259-.037.466-.049.625a.979.979,0,0,1-.029.212,1.011,1.011,0,0,1-.006-.214c0-.16.009-.366.015-.627.022-.573.054-1.381.093-2.409.1-2.114.236-5.134.406-8.857.377-7.5.9-17.819,1.47-29.223.113-2.155.224-4.271.329-6.291l.008.061-7.685-23.781-2.242-7.049-.589-1.9-.145-.5A.734.734,0,0,1,101.308,310.386Z" transform="translate(-101.307 -310.386)"/></g></g><g transform="translate(4.422 41.677)"><path class="k" d="M64.073,150.649s-6.135,9.584-4.95,17.588c.6,4.042,11.056,44.958,11.056,44.958l-.12,14.065L110.1,219l-4.03-14.268L94.181,162.646l-14-11.8Z" transform="translate(-58.971 -150.649)"/><g class="i" transform="translate(9.538 20.632)"><path d="M75.19,185.733s19.4,13.835,26.221,13.667l5.8.166-.889-3.148Z" transform="translate(-75.19 -185.733)"/></g><g transform="translate(2.142 22.733)"><path class="g" d="M74.073,189.309a8.056,8.056,0,0,1-1.508.993,26.649,26.649,0,0,1-8.159,2.986,8.1,8.1,0,0,1-1.792.216,14.97,14.97,0,0,1,1.748-.428,35.266,35.266,0,0,0,8.1-2.966A15.265,15.265,0,0,1,74.073,189.309Z" transform="translate(-62.614 -189.306)"/></g><g transform="translate(7.872 39.313)"><path class="g" d="M107,217.5c.021.082-7.717,2.132-17.281,4.579s-17.337,4.365-17.359,4.282,7.715-2.132,17.283-4.579S106.977,217.421,107,217.5Z" transform="translate(-72.358 -217.501)"/></g><g transform="translate(11.652 58.26)"><path class="g" d="M115.083,249.723a1.779,1.779,0,0,1-.37.091l-1.069.2c-.927.178-2.268.445-3.915.817-3.3.73-7.82,1.887-12.806,3.2s-9.5,2.514-12.789,3.306c-1.642.4-2.979.7-3.9.89l-1.069.208a1.741,1.741,0,0,1-.377.052,1.79,1.79,0,0,1,.364-.112l1.056-.263,3.878-.984,12.763-3.392c4.988-1.311,9.523-2.436,12.838-3.113,1.656-.345,3.005-.582,3.941-.723l1.08-.145A1.747,1.747,0,0,1,115.083,249.723Z" transform="translate(-78.785 -249.719)"/></g></g><g transform="translate(6.144 38.027)"><g transform="translate(72.054)"><path class="m" d="M188.2,153.5a8.075,8.075,0,0,1,1.218-3.279c1.086-1.72,4.016-3.681,4.066-5.031s1.56-.769,1.732.842c.111,1.026-1.123,4.172-1.123,4.172a6.435,6.435,0,0,0,3.815-1.489c1.291-1.371,6.275-4.636,7.089-4.048.922.666-.423,1.385-.933,1.919-.388.406-3.48,3.3-3.48,3.3s7.161-2.426,8.176-2.356c1.1.076.353,1.257-.1,1.413-.283.1.893.583.261,1.665-.429.735-3.2,2.278-4.01,2.536l-1.675.532,5.27-1s1.126.542.025,1.333c-.492.353-15.3,7.247-16.484,7.678-2.039.746-4.982,1.7-4.982,1.7l-2.638-8.6Z" transform="translate(-184.428 -144.442)"/></g><g transform="translate(87.856 4.504)"><path class="n" d="M219.73,152.106a24.517,24.517,0,0,1-4.085,2.321,21.051,21.051,0,0,1-4.346,1.787,6.411,6.411,0,0,1,1.218-.642l2.977-1.451,2.971-1.465A5.972,5.972,0,0,1,219.73,152.106Z" transform="translate(-211.298 -152.101)"/></g><g transform="translate(0 6.033)"><path class="k" d="M65.466,170.543s26.17,15.824,38.363,12.678,36.745-14.233,36.745-14.233l-5.668-13.244-32.651,11.745S78.879,156.564,73.86,155.032C66.484,152.779,56.459,162.5,65.466,170.543Z" transform="translate(-61.9 -154.701)"/></g><g transform="translate(3.565 6.868)"><path class="g" d="M85.583,159.367s.119.035.348.119.569.206,1.009.387c.884.349,2.176.9,3.837,1.625,3.32,1.461,8.105,3.656,14.027,6.471l-.091,0,32.635-11.79.146-.052.061.143,5.673,13.241.066.155-.152.067-4.752,2.1c-4.772,2.077-9.462,4.035-14.022,5.852s-8.991,3.492-13.287,4.881c-1.08.33-2.133.692-3.2.972l-1.581.436a13.93,13.93,0,0,1-1.607.28,22.665,22.665,0,0,1-6.228-.268A57.951,57.951,0,0,1,87.738,180.9,126.257,126.257,0,0,1,73.1,174.085c-1.677-.908-2.963-1.645-3.828-2.154l-.979-.589c-.219-.136-.326-.214-.326-.214s.119.058.343.184l1,.559c.876.49,2.171,1.207,3.856,2.1a131.944,131.944,0,0,0,14.666,6.7A58.15,58.15,0,0,0,98.511,183.7a22.452,22.452,0,0,0,6.146.249,13.754,13.754,0,0,0,1.568-.276l1.572-.438c1.059-.281,2.111-.645,3.186-.975,4.282-1.394,8.7-3.083,13.26-4.893s9.24-3.778,14.009-5.855L143,169.417l-.086.222c-1.947-4.552-3.841-8.983-5.662-13.246l.206.09-32.666,11.7-.046.016-.045-.021c-5.907-2.841-10.676-5.069-13.978-6.565-1.652-.745-2.935-1.311-3.809-1.681l-1-.417C85.695,159.422,85.583,159.367,85.583,159.367Z" transform="translate(-67.963 -156.121)"/></g><g transform="translate(0.984 6.343)"><path class="g" d="M79.136,157.543a4.319,4.319,0,0,1-.741-.3c-.47-.207-1.147-.513-2.005-.83a14.472,14.472,0,0,0-3.092-.8,8.622,8.622,0,0,0-3.841.32,6.114,6.114,0,0,0-3.145,2.24l-.005.009-.006.006a10.957,10.957,0,0,0-2.233,3.728c-.357,1.014-.446,1.644-.487,1.636a1.573,1.573,0,0,1,.036-.452,8.889,8.889,0,0,1,.289-1.237,10.425,10.425,0,0,1,2.186-3.863l-.012.015a6.286,6.286,0,0,1,3.281-2.373,8.686,8.686,0,0,1,3.976-.308,13.669,13.669,0,0,1,3.131.88,21.176,21.176,0,0,1,1.98.924A3.774,3.774,0,0,1,79.136,157.543Z" transform="translate(-63.574 -155.227)"/></g><g transform="translate(19.925 13.414)"><path class="g" d="M103.458,167.253a3.217,3.217,0,0,1-.213.679c-.155.43-.394,1.047-.7,1.806-.611,1.517-1.5,3.593-2.563,5.852s-2.091,4.272-2.868,5.71c-.388.72-.71,1.3-.943,1.692a3.17,3.17,0,0,1-.386.6,3.163,3.163,0,0,1,.281-.654c.231-.467.517-1.047.856-1.735.727-1.463,1.724-3.486,2.783-5.741s1.979-4.313,2.64-5.807l.789-1.767A3.138,3.138,0,0,1,103.458,167.253Z" transform="translate(-95.782 -167.253)"/></g><g transform="translate(40.366 19.332)"><path class="g" d="M132.668,192c-.083.012-.625-3.266-1.209-7.32s-.989-7.353-.906-7.364.625,3.265,1.209,7.321S132.752,191.988,132.668,192Z" transform="translate(-130.542 -177.315)"/></g><g transform="translate(56.242 13.344)"><path class="g" d="M164.224,180.857a2.3,2.3,0,0,1-.317-.514c-.185-.34-.445-.835-.76-1.45-.629-1.23-1.48-2.937-2.4-4.831s-1.742-3.617-2.322-4.87c-.29-.627-.52-1.137-.672-1.492a2.292,2.292,0,0,1-.209-.566,2.3,2.3,0,0,1,.315.512c.185.339.445.834.76,1.448.629,1.23,1.48,2.939,2.4,4.835s1.743,3.619,2.323,4.873c.29.627.519,1.136.672,1.491A2.249,2.249,0,0,1,164.224,180.857Z" transform="translate(-157.539 -167.133)"/></g></g></g></g><g transform="translate(70.826 127.911)"><g transform="translate(0 0)"><path class="p" d="M167.894,413.015l15.873,35.053h7.662l1.1-2.675,1.36,2.675h5.028l-.585-20.462-.248-12.09Z" transform="translate(-131.964 -283.244)"/><path class="p" d="M286.043,419.4l15.482,31.3h7.662l1.1-2.448,1.36,2.448h5.028l-.585-18.731-.248-11.067Z" transform="translate(-180.633 -285.876)"/><g transform="translate(180.249 41.284)"><path class="q" d="M426.528,262.545a.564.564,0,0,1,.144.051l.413.179a6.983,6.983,0,0,1,1.438.961,8.073,8.073,0,0,1,1.74,2.112,7.98,7.98,0,0,1,1.046,3.468,7.18,7.18,0,0,1-1.077,4.242,8.24,8.24,0,0,1-3.82,3.264,6.784,6.784,0,0,1-5.509-.009,4.061,4.061,0,0,1-2.043-2.164,3.179,3.179,0,0,1,.281-3.029,3.612,3.612,0,0,1,2.7-1.438,4.229,4.229,0,0,1,2.829.933,6.113,6.113,0,0,1,2.27,4.991,7.831,7.831,0,0,1-1.747,4.707,7.11,7.11,0,0,1-1.713,1.543,8.26,8.26,0,0,1-1.935.876,8.872,8.872,0,0,1-3.615.269,9.541,9.541,0,0,1-2.639-.726,8.726,8.726,0,0,1-1.512-.837l-.358-.272c-.08-.062-.119-.1-.116-.1a12.33,12.33,0,0,0,2.032,1.1,9.663,9.663,0,0,0,2.612.666,8.782,8.782,0,0,0,3.532-.306,8.075,8.075,0,0,0,1.871-.867,6.888,6.888,0,0,0,1.642-1.5,7.6,7.6,0,0,0,1.663-4.552,5.838,5.838,0,0,0-2.171-4.748,3.934,3.934,0,0,0-2.626-.867,3.313,3.313,0,0,0-2.469,1.311,2.874,2.874,0,0,0-.247,2.74,3.762,3.762,0,0,0,1.892,2.006,6.514,6.514,0,0,0,5.267.017,8.008,8.008,0,0,0,3.712-3.138,6.974,6.974,0,0,0,1.076-4.1,7.863,7.863,0,0,0-.979-3.4,8.129,8.129,0,0,0-1.67-2.106A8.83,8.83,0,0,0,426.528,262.545Z" transform="translate(-413.306 -262.545)"/></g><path class="q" d="M296.788,265.343c2.3,52.014-41.3,77.968-90.66,77.968s-89.374-33.8-89.374-75.485,40.014-75.484,89.374-75.484S294.942,223.695,296.788,265.343Z" transform="translate(-110.897 -192.342)"/><path class="r" d="M258.142,223.858s5.928-1.881,11.474,4.385,13.261,16.95,13.261,16.95a10.2,10.2,0,0,1-6.657,7.8Z" transform="translate(-169.14 -205.215)"/><ellipse class="p" cx="30.604" cy="23.455" rx="30.604" ry="23.455" transform="translate(5.857 82.657)"/><path class="p" d="M217.334,248.631s17.936-27.827,26.15-24.809,15.925,29.167,15.925,29.167" transform="translate(-152.329 -205.215)"/><path class="q" d="M158.912,244.432l-.839-7.535a154.792,154.792,0,0,0-21.289-6.992c-10.058-2.3-12.036,0-12.036,0l15.91,22.292Z" transform="translate(-114.191 -207.395)"/><path class="r" d="M223.55,206.315l5.952,3.534s28.83-7.626,50.963,0l-8.122-6.912S245.5,197.168,223.55,206.315Z" transform="translate(-154.89 -195.967)"/><ellipse class="q" cx="28.67" cy="23.455" rx="28.67" ry="23.455" transform="translate(0.014 82.657)"/><path class="r" d="M3.066,0h0A3.066,3.066,0,0,1,6.132,3.066V18.938A3.066,3.066,0,0,1,3.066,22h0A3.066,3.066,0,0,1,0,18.938V3.066A3.066,3.066,0,0,1,3.066,0Z" transform="translate(14.605 95.11)"/><rect class="r" width="6.132" height="22.004" rx="3.066" transform="translate(31.078 95.11)"/><path class="p" d="M156.406,245.873s-.746-.509-2.005-1.35c-5.936-3.961-23.272-15.286-27.665-15.413-6.035-.175-6.042,5.029-6.035,9.052.006,2.854,2.347,27.659,2.347,27.659" transform="translate(-112.523 -207.486)"/><g transform="translate(65.004 18.225)"><path class="g" d="M259.409,252.883a.847.847,0,0,1-.068-.172l-.172-.512-.66-1.968c-.58-1.707-1.442-4.17-2.62-7.169a92.884,92.884,0,0,0-4.7-10.282,36.1,36.1,0,0,0-3.638-5.568,13.59,13.59,0,0,0-2.49-2.445,4.75,4.75,0,0,0-3.269-1.11,8.425,8.425,0,0,0-3.353,1.167,21.8,21.8,0,0,0-2.89,1.992,49.384,49.384,0,0,0-4.849,4.573,112.915,112.915,0,0,0-7.258,8.676c-1.954,2.563-3.463,4.691-4.5,6.168l-1.184,1.7-.309.443a.941.941,0,0,1-.113.146.774.774,0,0,1,.087-.163l.284-.46c.254-.4.636-.989,1.138-1.738,1.005-1.5,2.489-3.647,4.423-6.231a107.874,107.874,0,0,1,7.224-8.737,48.765,48.765,0,0,1,4.867-4.613,21.9,21.9,0,0,1,2.929-2.025,8.716,8.716,0,0,1,3.479-1.207,4.015,4.015,0,0,1,1.865.265,7.66,7.66,0,0,1,1.607.905,13.839,13.839,0,0,1,2.543,2.5,36.063,36.063,0,0,1,3.654,5.624,89.5,89.5,0,0,1,4.655,10.338c1.154,3.014,1.985,5.491,2.532,7.211.273.86.475,1.531.606,1.988.059.215.107.388.143.521A.822.822,0,0,1,259.409,252.883Z" transform="translate(-217.333 -223.334)"/></g><g transform="translate(68.66 6.969)"><path class="g" d="M272.343,204.194a.787.787,0,0,1,.148.105l.412.334,1.564,1.307,5.715,4.849.38.322-.482-.135a90.565,90.565,0,0,0-10.518-2.291,91.521,91.521,0,0,0-13.1-1.07,93.841,93.841,0,0,0-26.72,3.594l-.039.011-.034-.019-4.525-2.654-1.193-.715-.3-.189a.429.429,0,0,1-.1-.072.448.448,0,0,1,.112.049l.316.168,1.217.672,4.568,2.579-.073-.009a90.569,90.569,0,0,1,11.411-2.59c2.282-.378,4.736-.65,7.31-.874,2.577-.17,5.277-.309,8.054-.258a89.577,89.577,0,0,1,13.139,1.1,87.236,87.236,0,0,1,10.535,2.36l-.1.188-5.651-4.923-1.526-1.35-.392-.358A.816.816,0,0,1,272.343,204.194Z" transform="translate(-223.55 -204.193)"/></g><g class="s" transform="translate(70.606 80.694)"><path class="c" d="M240.555,333.121c-.135.839-1,1.467-2.226,1.891a17.207,17.207,0,0,1-9.181.1c-1.236-.4-2.113-1.006-2.267-1.842s.48-1.732,1.71-2.453a11.439,11.439,0,0,1,10.2-.113C240.037,331.4,240.689,332.291,240.555,333.121Z" transform="translate(-226.859 -329.561)"/></g><g transform="translate(0 82.39)"><path class="g" d="M152.579,337.34a.923.923,0,0,1-.169-.1l-.475-.315-.765-.519c-.313-.188-.687-.385-1.1-.619a25.7,25.7,0,0,0-7.573-2.571,37.245,37.245,0,0,0-5.517-.515,39.6,39.6,0,0,0-6.341.466,32.342,32.342,0,0,0-13.463,5.238,27.381,27.381,0,0,0-2.965,2.409,24.785,24.785,0,0,0-2.49,2.747,23.94,23.94,0,0,0-3.435,6.087,21.235,21.235,0,0,0-.75,11.7,19.888,19.888,0,0,0,1.543,4.288,18.658,18.658,0,0,0,1.878,2.889l.814.963.659.648.4.4a.963.963,0,0,1,.131.145.917.917,0,0,1-.151-.122l-.425-.382-.682-.63-.84-.951a18.107,18.107,0,0,1-1.938-2.886,19.778,19.778,0,0,1-1.6-4.318,21.317,21.317,0,0,1,.7-11.846,22.8,22.8,0,0,1,1.47-3.148,23.613,23.613,0,0,1,1.994-3.025A25,25,0,0,1,114,340.593a27.5,27.5,0,0,1,3-2.438,32.4,32.4,0,0,1,13.595-5.266,39.418,39.418,0,0,1,6.388-.441,36.9,36.9,0,0,1,5.552.556,25.033,25.033,0,0,1,7.592,2.68c.41.243.781.449,1.09.646l.752.546.458.34A.954.954,0,0,1,152.579,337.34Z" transform="translate(-106.795 -332.445)"/></g><g transform="translate(15.723 97.17)"><path class="g" d="M138.373,357.579a5.792,5.792,0,0,1,.066.937c.028.657.064,1.517.108,2.554.091,2.156.267,5.134.349,8.432.019.824.026,1.631.023,2.409a12.463,12.463,0,0,1-.168,2.256,4.265,4.265,0,0,1-2.082,3.144,2.548,2.548,0,0,1-2.526-.132,1.808,1.808,0,0,1-.5-.5.605.605,0,0,1-.108-.221,2.745,2.745,0,0,0,.674.619,2.455,2.455,0,0,0,2.363.041,4.084,4.084,0,0,0,1.9-3,12.623,12.623,0,0,0,.146-2.207c0-.775-.009-1.578-.029-2.4-.081-3.29-.223-6.271-.259-8.432-.021-1.08-.022-1.955-.011-2.559A5.294,5.294,0,0,1,138.373,357.579Z" transform="translate(-133.532 -357.579)"/></g><g transform="translate(31.979 97.17)"><path class="g" d="M166.016,357.579a5.623,5.623,0,0,1,.066.937c.028.657.065,1.517.109,2.554.091,2.156.267,5.134.349,8.432.019.824.026,1.631.023,2.409a12.463,12.463,0,0,1-.168,2.256,4.265,4.265,0,0,1-2.082,3.144,2.548,2.548,0,0,1-2.526-.132,1.808,1.808,0,0,1-.5-.5.628.628,0,0,1-.108-.221,2.772,2.772,0,0,0,.675.619,2.455,2.455,0,0,0,2.363.041,4.084,4.084,0,0,0,1.9-3,12.622,12.622,0,0,0,.146-2.207c0-.775-.009-1.578-.029-2.4-.082-3.29-.223-6.271-.259-8.432-.021-1.08-.022-1.955-.011-2.559A5.416,5.416,0,0,1,166.016,357.579Z" transform="translate(-161.174 -357.579)"/></g><g transform="translate(22.948 111.22)"><path class="g" d="M179.878,381.47a2.2,2.2,0,0,1-.125.4c-.1.258-.212.655-.436,1.133a22.417,22.417,0,0,1-2.149,3.914,28.08,28.08,0,0,1-4.357,4.989,32.508,32.508,0,0,1-3.07,2.436,30.711,30.711,0,0,1-3.624,2.138,32.189,32.189,0,0,1-7.625,2.763,30.568,30.568,0,0,1-6.59.663c-1.887-.01-3.408-.116-4.458-.189l-1.208-.1a2.147,2.147,0,0,1-.42-.055,2.224,2.224,0,0,1,.423-.007l1.211.038c1.051.037,2.573.11,4.45.092a31.5,31.5,0,0,0,6.53-.722,32.7,32.7,0,0,0,7.548-2.762,31.19,31.19,0,0,0,3.591-2.111,32.973,32.973,0,0,0,3.051-2.4,28.811,28.811,0,0,0,4.368-4.9,24.572,24.572,0,0,0,2.219-3.84c.239-.468.368-.856.487-1.107A2.233,2.233,0,0,1,179.878,381.47Z" transform="translate(-145.817 -381.47)"/></g><g transform="translate(14.41 94.95)"><path class="c" d="M137.1,355.369a5.367,5.367,0,0,0-.405-.582,2.385,2.385,0,0,0-1.681-.76,3.263,3.263,0,0,0-2.48,1.106,3.323,3.323,0,0,0-.753,1.448,7.546,7.546,0,0,0-.175,1.8c.021,2.527.031,4.823.019,6.481-.011.78-.021,1.438-.029,1.965a3.294,3.294,0,0,1-.052.721,3.263,3.263,0,0,1-.067-.72c-.019-.527-.042-1.184-.069-1.964-.044-1.66-.089-3.948-.109-6.485a7.617,7.617,0,0,1,.19-1.871,3.573,3.573,0,0,1,.836-1.564,3.444,3.444,0,0,1,2.7-1.133,2.436,2.436,0,0,1,1.76.9,1.874,1.874,0,0,1,.271.473C137.095,355.3,137.11,355.366,137.1,355.369Z" transform="translate(-131.299 -353.803)"/></g><g transform="translate(30.83 97.873)"><path class="c" d="M159.373,358.774c.085,0,.153,3.1.153,6.922s-.069,6.923-.153,6.923-.153-3.1-.153-6.923S159.289,358.774,159.373,358.774Z" transform="translate(-159.22 -358.774)"/></g><g transform="translate(0.818 84.45)"><path class="c" d="M133.417,336.022a1.6,1.6,0,0,1-.362.024c-.236.012-.585,0-1.034.023a25.6,25.6,0,0,0-3.771.409A24.574,24.574,0,0,0,109.682,351.6a25.78,25.78,0,0,0-1.165,3.61c-.118.433-.172.778-.232,1.008a1.639,1.639,0,0,1-.1.349,1.6,1.6,0,0,1,.036-.361c.04-.233.076-.583.176-1.023a22.53,22.53,0,0,1,1.08-3.663,24.19,24.19,0,0,1,18.732-15.251,22.5,22.5,0,0,1,3.807-.315c.451-.009.8.026,1.037.035A1.626,1.626,0,0,1,133.417,336.022Z" transform="translate(-108.185 -335.948)"/></g><g transform="translate(5.83 54.566)"><path class="c" d="M121.552,285.131a1.566,1.566,0,0,1-.108.333l-.363.931c-.165.4-.36.894-.562,1.476s-.463,1.233-.689,1.974c-.241.736-.5,1.543-.736,2.423-.262.873-.477,1.822-.718,2.816A55.746,55.746,0,0,0,117,308.3c.031,1.023.046,2,.123,2.9.048.91.137,1.753.221,2.523.068.772.185,1.463.267,2.074s.168,1.134.246,1.56c.067.4.121.727.164.986a1.485,1.485,0,0,1,.036.349,1.529,1.529,0,0,1-.1-.336l-.221-.976c-.1-.424-.2-.945-.3-1.555s-.231-1.3-.312-2.075c-.1-.772-.2-1.618-.26-2.531-.088-.911-.112-1.889-.152-2.917a52.883,52.883,0,0,1,1.383-13.285c.25-1,.475-1.95.749-2.823.246-.882.52-1.688.776-2.423.239-.74.512-1.39.733-1.966s.43-1.066.612-1.46c.17-.37.308-.672.417-.91A1.466,1.466,0,0,1,121.552,285.131Z" transform="translate(-116.709 -285.131)"/></g><g transform="translate(9.271 23.984)"><path class="c" d="M124.839,233.128c.024.019-.241.318-.593.934a9.125,9.125,0,0,0-.983,2.822,27.321,27.321,0,0,0-.362,4.453c-.045,1.688-.055,3.546-.008,5.494.1,3.9.408,7.418.7,9.957.155,1.233.282,2.247.376,3,.041.326.075.6.1.817a1.054,1.054,0,0,1,.016.289,1.021,1.021,0,0,1-.076-.279l-.161-.809c-.129-.7-.3-1.727-.473-3a90.662,90.662,0,0,1-.8-9.977c-.048-1.954-.029-3.817.032-5.51a25.642,25.642,0,0,1,.433-4.488,8.567,8.567,0,0,1,1.093-2.84,5.032,5.032,0,0,1,.492-.668C124.762,233.192,124.831,233.121,124.839,233.128Z" transform="translate(-122.56 -233.127)"/></g><g transform="translate(33.893 5.558)"><path class="c" d="M199.33,201.795a2.04,2.04,0,0,1-.375.155l-1.093.386-4.031,1.384a134.447,134.447,0,0,0-13.067,5.14,60.86,60.86,0,0,0-11.975,7.256c-1.407,1.116-2.49,2.088-3.218,2.781-.371.339-.641.621-.836.8a2.051,2.051,0,0,1-.3.268,1.915,1.915,0,0,1,.26-.311c.181-.193.438-.49.8-.843a39.485,39.485,0,0,1,3.166-2.865,57.567,57.567,0,0,1,11.981-7.364,118.31,118.31,0,0,1,13.127-5.067c1.711-.562,3.1-1,4.064-1.293l1.111-.332A2.04,2.04,0,0,1,199.33,201.795Z" transform="translate(-164.429 -201.793)"/></g><g transform="translate(66.646 20.14)"><path class="c" d="M242.74,226.591a1.391,1.391,0,0,1-.262.211l-.783.553c-.686.469-1.663,1.173-2.848,2.068s-2.564,2-4.049,3.289-3.05,2.773-4.626,4.4-2.984,3.267-4.225,4.789-2.29,2.948-3.136,4.169-1.517,2.219-1.96,2.923l-.523.8a1.428,1.428,0,0,1-.2.269,1.352,1.352,0,0,1,.148-.3l.475-.833c.412-.724,1.053-1.746,1.883-2.983s1.873-2.676,3.094-4.223,2.65-3.181,4.225-4.825,3.173-3.111,4.662-4.4,2.9-2.378,4.1-3.25,2.2-1.554,2.912-1.993l.815-.506A1.375,1.375,0,0,1,242.74,226.591Z" transform="translate(-220.126 -226.59)"/></g><g transform="translate(179.889 61.053)"><path class="c" d="M412.7,296.162a7.228,7.228,0,0,1,.7,1.484,31.143,31.143,0,0,1,1.941,7.654,7.24,7.24,0,0,1,.095,1.637,10.887,10.887,0,0,1-.309-1.605c-.171-.992-.433-2.357-.81-3.845s-.8-2.812-1.12-3.765A10.8,10.8,0,0,1,412.7,296.162Z" transform="translate(-412.693 -296.161)"/></g><g transform="translate(34.599 128.464)"><path class="g" d="M296.854,410.794s-.095.078-.288.219l-.865.616-1.412.994-.9.631-1.053.683a117.273,117.273,0,0,1-13.036,7.446c-1.424.7-2.937,1.385-4.511,2.106l-2.439,1.033-1.255.529-1.294.5-2.657,1.017-2.776.959c-.935.337-1.9.629-2.877.927s-1.96.628-2.976.889a122.563,122.563,0,0,1-12.835,2.886,107.526,107.526,0,0,1-14.043,1.512,94.261,94.261,0,0,1-14.119-.443l-1.7-.166c-.563-.057-1.118-.152-1.674-.226l-3.3-.468-3.2-.594-1.574-.3-1.543-.352a113.294,113.294,0,0,1-21.163-6.884,89.967,89.967,0,0,1-13.229-7.087c-1.513-.926-2.595-1.785-3.36-2.318l-.857-.626c-.192-.142-.286-.221-.286-.221s.106.062.3.2l.875.6c.777.516,1.868,1.358,3.389,2.268a92.875,92.875,0,0,0,13.251,6.988,114.394,114.394,0,0,0,21.136,6.807l1.54.349,1.571.293,3.2.587,3.288.462c.554.073,1.108.167,1.669.223l1.692.164a94.516,94.516,0,0,0,14.077.436,108.011,108.011,0,0,0,14.006-1.5,123.38,123.38,0,0,0,12.809-2.862c1.014-.259,1.993-.595,2.971-.882s1.939-.585,2.873-.919l2.772-.95,2.654-1.007,1.294-.492,1.254-.525,2.438-1.023c1.573-.714,3.086-1.395,4.511-2.084a122.423,122.423,0,0,0,13.066-7.351l1.06-.671.91-.619,1.428-.969.882-.591C296.747,410.855,296.854,410.794,296.854,410.794Z" transform="translate(-165.63 -410.794)"/></g><path class="q" d="M345.7,409.117l11.819,30.225H365.6l1.76-2.631,2.071,2.631h2.856l1.061-47.9Z" transform="translate(-205.209 -274.358)"/><path class="q" d="M219.449,425.753l9.988,25.97h9.184l1.874-3.008,1.81,3.008h2.281s1-29.3,0-30.131S219.449,425.753,219.449,425.753Z" transform="translate(-153.201 -286.739)"/><g transform="translate(148.701 80.973)"><path class="c" d="M393.9,330.035a.721.721,0,0,1,0,.172c-.011.131-.023.3-.039.5-.044.465-.1,1.114-.182,1.939q-.063.634-.139,1.4c-.065.51-.17,1.06-.265,1.653-.21,1.183-.382,2.544-.764,4.009l-.542,2.312c-.195.8-.473,1.617-.72,2.472-.468,1.719-1.163,3.491-1.854,5.37a70.017,70.017,0,0,1-13.8,21.918c-1.4,1.435-2.693,2.829-4.041,3.994-.664.592-1.277,1.2-1.918,1.718l-1.851,1.488c-1.156.979-2.309,1.722-3.285,2.423-.494.342-.944.674-1.376.953l-1.2.731-1.669,1-.438.253a.72.72,0,0,1-.154.078.7.7,0,0,1,.139-.1l.422-.28,1.637-1.05,1.186-.752c.426-.286.87-.625,1.358-.972.964-.712,2.1-1.465,3.248-2.452l1.832-1.5c.634-.525,1.241-1.131,1.9-1.725,1.336-1.169,2.621-2.563,4.005-4a71.129,71.129,0,0,0,13.745-21.832c.7-1.868,1.4-3.63,1.874-5.339.251-.85.535-1.66.734-2.458s.381-1.567.56-2.3c.4-1.458.581-2.812.806-3.989.1-.59.216-1.138.29-1.645s.115-.974.165-1.395c.1-.821.181-1.467.239-1.93l.07-.5A.744.744,0,0,1,393.9,330.035Z" transform="translate(-359.659 -330.035)"/></g><g transform="translate(142.893 38.333)"><g class="s" transform="translate(0 0.841)"><path class="c" d="M377.05,275.259a29.363,29.363,0,0,0-15.3-15.668,8.732,8.732,0,0,0-11.939,7.637c0,.042,0,.085-.007.127-.211,4.259,1.461,8.389,3.508,12.129s4.505,7.276,6.1,11.23a28.646,28.646,0,0,1,.237,20.579c-1.576,4.186-4.191,8.645-1.824,12.819a8.011,8.011,0,0,0,7.81,3.8c6-.546,9.123-5.967,11.966-10.893a34.983,34.983,0,0,0,4.284-14.779A65.088,65.088,0,0,0,377.05,275.259Z" transform="translate(-349.783 -258.957)"/></g><g class="s" transform="translate(4.777)"><path class="c" d="M357.906,257.527c.152,0,.3.018.452.021l.031-.011Z" transform="translate(-357.906 -257.527)"/></g></g><g transform="translate(69.513 67.637)"><path class="g" d="M234.635,313.981c-.219.061-.565-.817-1.144-2.085a7.036,7.036,0,0,0-1.273-1.925,3.274,3.274,0,0,0-2.209-1.081,3.663,3.663,0,0,0-2.347.9,5.8,5.8,0,0,0-1.385,1.788c-.62,1.213-.855,2.113-1.083,2.076-.185-.022-.353-.968.079-2.482a5.69,5.69,0,0,1,1.441-2.427,4.7,4.7,0,0,1,3.334-1.381,4.013,4.013,0,0,1,1.889.539,4.925,4.925,0,0,1,1.333,1.133,6.428,6.428,0,0,1,1.239,2.5C234.87,313.018,234.822,313.93,234.635,313.981Z" transform="translate(-225.001 -307.358)"/></g><path class="g" d="M159.506,309.55a4.227,4.227,0,1,1-4.227-4.228A4.227,4.227,0,0,1,159.506,309.55Z" transform="translate(-125.025 -238.882)"/><g transform="translate(135.628 9.721)"><path class="c" d="M370.575,234.455a2.292,2.292,0,0,1-.292-.318l-.789-.948c-.336-.416-.752-.922-1.257-1.491s-1.053-1.238-1.71-1.934-1.353-1.479-2.148-2.274c-.774-.816-1.65-1.64-2.559-2.517-1.85-1.722-3.949-3.546-6.254-5.336s-4.612-3.346-6.747-4.7c-1.08-.657-2.1-1.3-3.084-1.838-.971-.568-1.9-1.057-2.744-1.5-.84-.459-1.625-.824-2.3-1.164s-1.273-.617-1.761-.837l-1.117-.523a2.3,2.3,0,0,1-.381-.2,2.214,2.214,0,0,1,.406.145l1.141.47c.5.2,1.1.463,1.785.792s1.482.677,2.33,1.126c.856.433,1.791.912,2.77,1.473.994.534,2.021,1.166,3.108,1.819,2.151,1.345,4.462,2.913,6.786,4.7s4.415,3.633,6.261,5.373c.907.886,1.779,1.719,2.548,2.545.79.806,1.491,1.588,2.126,2.306s1.19,1.385,1.68,1.969.9,1.1,1.218,1.527l.745.984A2.313,2.313,0,0,1,370.575,234.455Z" transform="translate(-337.429 -208.872)"/></g><g transform="translate(78.373 11.49)"><path class="c" d="M286.009,216.693a2.739,2.739,0,0,1-.458-.136l-1.291-.445c-.557-.2-1.241-.44-2.049-.676s-1.713-.552-2.742-.8l-1.606-.425c-.559-.145-1.15-.258-1.757-.4-1.211-.291-2.524-.5-3.9-.747a69.424,69.424,0,0,0-18.147-.522c-1.39.166-2.713.3-3.938.522-.614.1-1.21.182-1.777.3l-1.628.332c-1.042.192-1.965.45-2.783.645s-1.517.388-2.085.557l-1.314.369a2.708,2.708,0,0,1-.465.109,2.849,2.849,0,0,1,.446-.168l1.3-.425c.563-.188,1.257-.4,2.075-.608s1.739-.485,2.781-.69l1.63-.352c.568-.12,1.165-.2,1.78-.314,1.228-.233,2.556-.378,3.95-.552a67.076,67.076,0,0,1,18.222.524c1.382.254,2.7.476,3.911.779.607.144,1.2.263,1.759.416l1.607.445c1.029.266,1.934.591,2.737.849s1.485.507,2.037.727l1.273.5A2.783,2.783,0,0,1,286.009,216.693Z" transform="translate(-240.067 -211.88)"/></g></g></g></g></svg>