<svg xmlns="http://www.w3.org/2000/svg" width="420.702" height="467.495" viewBox="0 0 420.702 467.495"><defs><style>.a{fill:#f5f5f5;}.b{fill:#ebebeb;}.c{fill:#e0e0e0;}.d{fill:#263238;}.e{fill:#455a64;}.f{fill:#fff;}.g{fill:#e8505b;}.h{fill:#d9a171;}.i{fill:#5e6178;}.j{fill:#ffbe9d;}.k{fill:#eb996e;}.l{fill:#fafafa;}.m{fill:#aed3f2;}</style></defs><g transform="translate(-107.4 -20.783)"><g transform="translate(311.142 34.794)"><g transform="translate(83.987 33.514)"><path class="a" d="M594.12,89.848a18.337,18.337,0,1,1-20.777-15.467A18.316,18.316,0,0,1,594.12,89.848Z" transform="translate(-557.635 -74.188)"/><g transform="translate(4.363 4.353)"><path class="b" d="M591.148,91.818a13.974,13.974,0,1,1-15.833-11.787A13.957,13.957,0,0,1,591.148,91.818Z" transform="translate(-563.345 -79.884)"/></g><g transform="translate(4.11 3.823)"><path class="c" d="M591,91.222a8.3,8.3,0,0,1-.607-1.61,14.835,14.835,0,0,0-2.211-4.006,14.276,14.276,0,0,0-2.2-2.247,14.006,14.006,0,0,0-3.053-1.888,13.688,13.688,0,0,0-3.8-1.094,13.661,13.661,0,0,0-2.089-.122,13.651,13.651,0,0,0-4.234.751,13.7,13.7,0,0,0-1.921.834,13.729,13.729,0,0,0-3.191,2.335A14.035,14.035,0,0,0,565.485,87a14.312,14.312,0,0,0-1.288,2.865,14.817,14.817,0,0,0-.7,4.522,8.2,8.2,0,0,1-.016,1.72,4.113,4.113,0,0,1-.4-1.7,12.908,12.908,0,0,1,.385-4.756A13.993,13.993,0,0,1,567,83.481a14.187,14.187,0,0,1,3.395-2.562A14.166,14.166,0,0,1,572.463,80a14.33,14.33,0,0,1,4.567-.811,14.354,14.354,0,0,1,2.255.148,13.732,13.732,0,0,1,2.125.48,13.51,13.51,0,0,1,1.943.758,14,14,0,0,1,5.442,4.578,12.947,12.947,0,0,1,2,4.333A4.106,4.106,0,0,1,591,91.222Z" transform="translate(-563.013 -79.19)"/></g><g transform="translate(12.13 8.55)"><path class="c" d="M582.478,103.143l.385,2.4-2.146.343-.374-2.339a10.305,10.305,0,0,1-5.618-.861l.76-2.807a8.789,8.789,0,0,0,4.407.857l-.574-3.584c-2.475-.2-5.262-.565-5.754-3.634-.364-2.275.976-4.492,4.3-5.421l-.381-2.383,2.146-.343.374,2.339a9.822,9.822,0,0,1,4.566.611l-.65,2.812a8.9,8.9,0,0,0-3.462-.591l.585,3.648c2.471.176,5.216.552,5.7,3.577C587.1,100,585.782,102.2,582.478,103.143ZM578.815,94l-.489-3.047c-1.1.439-1.446,1.134-1.333,1.843C577.113,93.548,577.822,93.853,578.815,94Zm4.519,4.581c-.121-.751-.808-1.058-1.782-1.233l.474,2.961C583.061,99.9,583.443,99.27,583.333,98.582Z" transform="translate(-573.507 -85.375)"/></g></g><g transform="translate(0 25.236)"><path class="a" d="M511.071,90.541A31.83,31.83,0,1,1,475,63.692,31.8,31.8,0,0,1,511.071,90.541Z" transform="translate(-447.738 -63.357)"/><g transform="translate(7.574 7.557)"><path class="b" d="M505.912,93.962A24.256,24.256,0,1,1,478.427,73.5,24.228,24.228,0,0,1,505.912,93.962Z" transform="translate(-457.65 -73.245)"/></g><g transform="translate(7.135 6.637)"><path class="c" d="M505.662,92.927c-.145.026-.4-1.013-1.054-2.795a25.719,25.719,0,0,0-3.839-6.955,24.849,24.849,0,0,0-3.811-3.9,24.334,24.334,0,0,0-5.3-3.276,23.787,23.787,0,0,0-6.594-1.9,23.609,23.609,0,0,0-3.629-.212,23.7,23.7,0,0,0-7.349,1.3,23.758,23.758,0,0,0-3.335,1.447,23.8,23.8,0,0,0-5.538,4.053,24.273,24.273,0,0,0-3.848,4.9,24.881,24.881,0,0,0-2.236,4.974,25.753,25.753,0,0,0-1.207,7.849c0,1.9.118,2.961-.027,2.986-.107.021-.468-1-.7-2.947a22.426,22.426,0,0,1,.668-8.257A24.291,24.291,0,0,1,464,79.489a23.463,23.463,0,0,1,2.714-2.4,23.774,23.774,0,0,1,3.178-2.052,24.726,24.726,0,0,1,3.587-1.589,24.878,24.878,0,0,1,7.927-1.407,24.87,24.87,0,0,1,3.914.258,24.713,24.713,0,0,1,7.063,2.149,24.3,24.3,0,0,1,9.445,7.946,22.471,22.471,0,0,1,3.473,7.522C505.756,91.823,505.769,92.908,505.662,92.927Z" transform="translate(-457.074 -72.041)"/></g><g transform="translate(21.056 14.841)"><path class="c" d="M490.863,113.62l.669,4.172-3.725.6-.65-4.06c-3.724.367-7.447-.22-9.752-1.495l1.32-4.873a15.245,15.245,0,0,0,7.651,1.488l-1-6.222c-4.3-.342-9.135-.981-9.988-6.309-.632-3.949,1.693-7.8,7.471-9.41l-.662-4.135,3.725-.6.65,4.062A17.058,17.058,0,0,1,494.5,87.9l-1.128,4.88a15.474,15.474,0,0,0-6.011-1.026l1.015,6.334c4.289.3,9.055.957,9.9,6.209C498.893,108.171,496.6,111.977,490.863,113.62ZM484.5,97.751l-.848-5.288c-1.9.763-2.51,1.969-2.315,3.2C481.549,96.964,482.78,97.494,484.5,97.751Zm7.845,7.953c-.209-1.3-1.4-1.839-3.094-2.142l.823,5.141C491.874,107.995,492.538,106.9,492.348,105.7Z" transform="translate(-475.29 -82.776)"/></g></g><g transform="translate(180.283 183.459)"><path class="a" d="M151.112,235.932a18.337,18.337,0,1,1-20.777-15.467A18.317,18.317,0,0,1,151.112,235.932Z" transform="translate(-114.627 -220.272)"/><g transform="translate(4.363 4.354)"><path class="b" d="M148.14,237.9a13.974,13.974,0,1,1-15.833-11.787A13.957,13.957,0,0,1,148.14,237.9Z" transform="translate(-120.337 -225.969)"/></g><g transform="translate(4.11 3.824)"><path class="c" d="M147.995,237.306a8.294,8.294,0,0,1-.607-1.609,14.815,14.815,0,0,0-2.211-4.007,14.329,14.329,0,0,0-2.2-2.247,13.969,13.969,0,0,0-3.053-1.887,13.688,13.688,0,0,0-3.8-1.094,13.478,13.478,0,0,0-2.089-.122,13.661,13.661,0,0,0-4.235.751,13.554,13.554,0,0,0-1.921.834,13.731,13.731,0,0,0-3.191,2.335,13.992,13.992,0,0,0-2.216,2.824,14.342,14.342,0,0,0-1.288,2.865,14.834,14.834,0,0,0-.695,4.522,8.185,8.185,0,0,1-.016,1.72,4.108,4.108,0,0,1-.4-1.7,12.91,12.91,0,0,1,.385-4.757,13.992,13.992,0,0,1,3.532-6.171A14.245,14.245,0,0,1,127.389,227a14.253,14.253,0,0,1,2.066-.916,15.624,15.624,0,0,1,2.251-.592,15.442,15.442,0,0,1,2.316-.219,14.251,14.251,0,0,1,2.254.148,14.26,14.26,0,0,1,4.07,1.238,14.012,14.012,0,0,1,5.441,4.577,12.951,12.951,0,0,1,2,4.333A4.1,4.1,0,0,1,147.995,237.306Z" transform="translate(-120.005 -225.275)"/></g><g transform="translate(12.13 8.55)"><path class="c" d="M139.47,249.227l.385,2.4-2.146.343-.374-2.339a10.3,10.3,0,0,1-5.618-.861l.76-2.807a8.772,8.772,0,0,0,4.407.857l-.574-3.583c-2.475-.2-5.262-.566-5.754-3.635-.364-2.274.976-4.491,4.3-5.421l-.381-2.382,2.146-.344L137,233.8a9.831,9.831,0,0,1,4.565.611l-.65,2.812a8.924,8.924,0,0,0-3.462-.591l.585,3.648c2.471.177,5.216.552,5.7,3.577C144.1,246.088,142.774,248.281,139.47,249.227Zm-3.664-9.142-.489-3.046c-1.1.439-1.446,1.134-1.333,1.842C134.1,239.632,134.814,239.937,135.807,240.086Zm4.519,4.582c-.121-.752-.808-1.059-1.782-1.234l.474,2.961C140.053,245.987,140.436,245.354,140.326,244.667Z" transform="translate(-130.499 -231.459)"/></g></g><g transform="translate(167.074 136.735)"><path class="a" d="M115.618,181.148a11.93,11.93,0,1,1,3.7-16.44A11.918,11.918,0,0,1,115.618,181.148Z" transform="translate(-97.343 -159.133)"/><g transform="translate(2.835 2.837)"><path class="b" d="M114.978,179.622a9.091,9.091,0,1,1,2.824-12.528A9.08,9.08,0,0,1,114.978,179.622Z" transform="translate(-101.052 -162.846)"/></g><g transform="translate(6.824 2.567)"><path class="c" d="M116.449,179.385c-.031-.046.286-.291.8-.786a9.662,9.662,0,0,0,1.8-2.374,9.255,9.255,0,0,0,.755-1.9,9.081,9.081,0,0,0,.316-2.314,8.534,8.534,0,0,0-.081-1.26,8.439,8.439,0,0,0-.273-1.287,8.779,8.779,0,0,0-.48-1.275,8.9,8.9,0,0,0-1.565-2.319,8.867,8.867,0,0,0-1-.922,8.876,8.876,0,0,0-2.232-1.28,9.082,9.082,0,0,0-2.264-.572,9.293,9.293,0,0,0-2.044-.008,9.659,9.659,0,0,0-2.872.781,5.307,5.307,0,0,1-1.026.446c-.024-.034.271-.313.9-.687a8.416,8.416,0,0,1,2.929-1.028,9.1,9.1,0,0,1,4.6.469,8.68,8.68,0,0,1,1.234.565,8.916,8.916,0,0,1,1.186.776,9.236,9.236,0,0,1,1.091.987,9.308,9.308,0,0,1,1.688,2.5,9.369,9.369,0,0,1,.508,1.38,9.308,9.308,0,0,1,.339,2.746,9.111,9.111,0,0,1-1.284,4.445,8.422,8.422,0,0,1-2.047,2.335A2.669,2.669,0,0,1,116.449,179.385Z" transform="translate(-106.272 -162.493)"/></g><g transform="translate(5.776 7.384)"><path class="c" d="M107,177.1l-1.327.864-.77-1.185,1.292-.841a6.7,6.7,0,0,1-.973-3.567l1.87-.29a5.7,5.7,0,0,0,.655,2.847l1.979-1.289c-.536-1.523-1.054-3.278.64-4.381,1.256-.818,2.929-.607,4.36,1.126l1.316-.857.771,1.185-1.292.841a6.392,6.392,0,0,1,.843,2.876l-1.843.357a5.784,5.784,0,0,0-.564-2.215l-2.014,1.312c.549,1.515,1.051,3.246-.62,4.334C110.087,179.017,108.434,178.811,107,177.1Zm4.467-4.594,1.682-1.1c-.551-.535-1.056-.56-1.447-.306C111.285,171.371,111.29,171.873,111.465,172.5Zm-1.529,3.9c.415-.27.416-.76.262-1.386l-1.635,1.065C109.078,176.586,109.556,176.647,109.936,176.4Z" transform="translate(-104.9 -168.795)"/></g></g><g transform="translate(52.209 0)"><g transform="translate(0)"><path class="a" d="M534.329,52.35a11.93,11.93,0,1,1,3.705-16.44A11.917,11.917,0,0,1,534.329,52.35Z" transform="translate(-516.054 -30.335)"/><g transform="translate(2.835 2.837)"><path class="b" d="M533.689,50.824A9.091,9.091,0,1,1,536.513,38.3,9.081,9.081,0,0,1,533.689,50.824Z" transform="translate(-519.763 -34.048)"/></g><g transform="translate(6.824 2.567)"><path class="c" d="M535.16,50.587c-.031-.046.285-.291.8-.786a9.619,9.619,0,0,0,1.8-2.374,9.3,9.3,0,0,0,.756-1.9,9.1,9.1,0,0,0,.315-2.314,8.332,8.332,0,0,0-.081-1.26,8.468,8.468,0,0,0-.273-1.287,8.9,8.9,0,0,0-.479-1.275,8.878,8.878,0,0,0-1.566-2.319,8.782,8.782,0,0,0-1-.922,8.885,8.885,0,0,0-2.231-1.28,9.091,9.091,0,0,0-2.265-.572,9.293,9.293,0,0,0-2.044-.008,9.634,9.634,0,0,0-2.872.782,5.282,5.282,0,0,1-1.026.445c-.024-.033.272-.313.9-.687a8.423,8.423,0,0,1,2.929-1.028,9.1,9.1,0,0,1,4.6.469,8.781,8.781,0,0,1,1.234.565,8.874,8.874,0,0,1,1.186.776,9.229,9.229,0,0,1,1.091.987,9.347,9.347,0,0,1,1.689,2.5,9.233,9.233,0,0,1,.507,1.379,9.25,9.25,0,0,1,.339,2.746,9.331,9.331,0,0,1-.4,2.465,9.208,9.208,0,0,1-.882,1.98,8.423,8.423,0,0,1-2.047,2.335A2.675,2.675,0,0,1,535.16,50.587Z" transform="translate(-524.983 -33.695)"/></g></g><g transform="translate(5.776 7.384)"><path class="c" d="M525.709,48.3l-1.327.864-.771-1.185,1.291-.841a6.7,6.7,0,0,1-.973-3.567l1.87-.29a5.718,5.718,0,0,0,.655,2.847l1.979-1.288c-.537-1.523-1.055-3.278.639-4.381,1.257-.818,2.929-.607,4.361,1.126l1.315-.857.772,1.185-1.292.841a6.385,6.385,0,0,1,.843,2.875l-1.844.357a5.8,5.8,0,0,0-.563-2.215l-2.015,1.312c.549,1.515,1.051,3.246-.62,4.334C528.8,50.219,527.146,50.013,525.709,48.3Zm4.467-4.594,1.682-1.1c-.55-.535-1.056-.56-1.447-.306C530,42.573,530,43.075,530.176,43.7Zm-1.529,3.9c.415-.27.416-.76.263-1.386l-1.635,1.065C527.79,47.789,528.267,47.849,528.646,47.6Z" transform="translate(-523.611 -39.997)"/></g></g></g><g transform="translate(120.584 20.783)"><g transform="translate(0 0)"><g transform="translate(59.614 93.727)"><path class="d" d="M576.437,134.644H285.479a9.082,9.082,0,0,0-9.082,9.082v205.51a9.082,9.082,0,0,0,9.082,9.083H397.149s7.1,21.966-14.917,33.33H486.648s-24.862-8.523-18.469-33.33H576.437a9.083,9.083,0,0,0,9.082-9.082V143.726A9.083,9.083,0,0,0,576.437,134.644Z" transform="translate(-276.397 -134.644)"/><g transform="translate(148.818 200.327)"><path class="e" d="M480.754,398.507c3.958,5.656-2.236,11.851-7.895,7.894a1.989,1.989,0,0,1-.486-.488c-3.947-5.655,2.24-11.842,7.894-7.893A1.979,1.979,0,0,1,480.754,398.507Z" transform="translate(-471.126 -396.772)"/></g><g transform="translate(5.01 3.765)"><path class="f" d="M9.7,0H289.405a9.7,9.7,0,0,1,9.7,9.7V182.313a0,0,0,0,1,0,0H0a0,0,0,0,1,0,0V9.7A9.7,9.7,0,0,1,9.7,0Z"/></g></g><g transform="translate(78.763 116.292)"><g transform="translate(11.202 22.357)"><rect class="g" width="9.81" height="109.558"/></g><g transform="translate(30.141 59.567)"><rect class="h" width="9.81" height="72.348"/></g><g transform="translate(49.08 35.975)"><rect class="h" width="9.81" height="96.497"/></g><g transform="translate(68.018 26.588)"><rect class="h" width="9.81" height="105.327"/></g><g transform="translate(86.958 61.795)"><rect class="h" width="9.81" height="70.121"/></g><g transform="translate(105.896 75.546)"><rect class="h" width="9.81" height="56.369"/></g><g transform="translate(124.836 33.602)"><rect class="h" width="9.81" height="98.313"/></g><g transform="translate(143.775 51.327)"><rect class="h" width="9.81" height="80.588"/></g><g transform="translate(162.714 37.163)"><rect class="h" width="9.81" height="94.752"/></g><g transform="translate(181.653 67.362)"><rect class="h" width="9.81" height="64.553"/></g><g transform="translate(219.428 33.602)"><rect class="h" width="9.81" height="98.313"/></g><g transform="translate(259.65 96.855)"><rect class="h" width="9.81" height="33.639"/></g><g transform="translate(240.043 67.362)"><rect class="h" width="9.81" height="64.553"/></g><g transform="translate(200.591 55.079)"><rect class="h" width="9.81" height="76.836"/></g><g transform="translate(16.636 34.062)"><path class="d" d="M578.805,211a5.15,5.15,0,0,1-.861-.138l-2.5-.512a38.767,38.767,0,0,0-4.084-.649,50.719,50.719,0,0,0-5.618-.469,64.921,64.921,0,0,0-15.356,1.32,67.723,67.723,0,0,0-19.051,7.211,77.946,77.946,0,0,0-19.29,15.36c-6.012,6.588-11.08,14.727-16.26,23.341-5.234,8.561-10.558,17.861-18.27,25.823a47.829,47.829,0,0,1-13.463,10.069,28.292,28.292,0,0,1-8.3,2.536,26.82,26.82,0,0,1-8.8-.3,35.893,35.893,0,0,1-15.321-8.036,71.5,71.5,0,0,1-11.349-12.385c-6.584-8.866-11.265-18.423-16.272-27.128-4.941-8.734-10.026-16.9-16.253-23.273a44.153,44.153,0,0,0-10.05-7.9,42.474,42.474,0,0,0-5.43-2.636,43.292,43.292,0,0,0-5.542-1.642,40.221,40.221,0,0,0-20.143.563,45.429,45.429,0,0,0-13.823,6.647,50.526,50.526,0,0,0-7.26,6.509l-1.69,1.9a5.163,5.163,0,0,1-.607.627,5.123,5.123,0,0,1,.519-.7l1.613-1.982a47.174,47.174,0,0,1,7.174-6.706,45.2,45.2,0,0,1,13.907-6.893,40.676,40.676,0,0,1,20.48-.731c7.543,1.5,15.226,5.836,21.5,12.3,6.351,6.448,11.5,14.668,16.481,23.41,5.044,8.717,9.736,18.236,16.257,26.987a70.695,70.695,0,0,0,11.187,12.19,34.882,34.882,0,0,0,14.846,7.8,25.761,25.761,0,0,0,8.42.285,27.224,27.224,0,0,0,7.984-2.439,46.863,46.863,0,0,0,13.158-9.831c7.6-7.82,12.918-17.045,18.176-25.6,5.2-8.6,10.335-16.786,16.452-23.43a78.254,78.254,0,0,1,19.588-15.426,67.727,67.727,0,0,1,19.3-7.133,63.9,63.9,0,0,1,15.5-1.146,48.616,48.616,0,0,1,5.645.572,35.4,35.4,0,0,1,4.084.756l2.478.62A5.076,5.076,0,0,1,578.805,211Z" transform="translate(-323.222 -208.74)"/></g><path class="d" d="M301.858,303.716c-.223,0-.4-31.24-.4-69.769s.18-69.777.4-69.777.4,31.234.4,69.777S302.08,303.716,301.858,303.716Z" transform="translate(-301.454 -164.17)"/><g transform="translate(6.556 139.143)"><path class="d" d="M572.937,346.642c0,.223-58.857.4-131.446.4-72.613,0-131.459-.18-131.459-.4s58.846-.4,131.459-.4C514.08,346.239,572.937,346.419,572.937,346.642Z" transform="translate(-310.033 -346.239)"/></g><g transform="translate(10.634 147.767)"><path class="d" d="M329.929,357.926c0,.223-3.259.4-7.279.4s-7.281-.18-7.281-.4,3.259-.4,7.281-.4S329.929,357.7,329.929,357.926Z" transform="translate(-315.369 -357.523)"/></g><g transform="translate(31.942 148.205)"><path class="d" d="M360.652,358.5c0,.222-3.9.4-8.7.4s-8.7-.18-8.7-.4,3.9-.4,8.7-.4S360.652,358.278,360.652,358.5Z" transform="translate(-343.25 -358.097)"/></g><g transform="translate(52.539 148.205)"><path class="d" d="M387.6,358.5c0,.222-3.9.4-8.7.4s-8.7-.18-8.7-.4,3.895-.4,8.7-.4S387.6,358.278,387.6,358.5Z" transform="translate(-370.202 -358.097)"/></g><g transform="translate(73.136 148.205)"><path class="d" d="M414.554,358.5c0,.222-3.9.4-8.7.4s-8.7-.18-8.7-.4,3.894-.4,8.7-.4S414.554,358.278,414.554,358.5Z" transform="translate(-397.153 -358.097)"/></g><g transform="translate(93.733 148.205)"><path class="d" d="M441.506,358.5c0,.222-3.9.4-8.7.4s-8.7-.18-8.7-.4,3.9-.4,8.7-.4S441.506,358.278,441.506,358.5Z" transform="translate(-424.104 -358.097)"/></g><g transform="translate(114.331 148.205)"><path class="d" d="M468.457,358.5c0,.222-3.9.4-8.7.4s-8.7-.18-8.7-.4,3.895-.4,8.7-.4S468.457,358.278,468.457,358.5Z" transform="translate(-451.056 -358.097)"/></g><g transform="translate(134.927 148.205)"><path class="d" d="M495.408,358.5c0,.222-3.9.4-8.7.4s-8.7-.18-8.7-.4,3.9-.4,8.7-.4S495.408,358.278,495.408,358.5Z" transform="translate(-478.007 -358.097)"/></g><g transform="translate(155.525 148.205)"><path class="d" d="M522.36,358.5c0,.222-3.9.4-8.7.4s-8.7-.18-8.7-.4,3.894-.4,8.7-.4S522.36,358.278,522.36,358.5Z" transform="translate(-504.959 -358.097)"/></g><g transform="translate(176.122 148.205)"><path class="d" d="M549.311,358.5c0,.222-3.9.4-8.7.4s-8.7-.18-8.7-.4,3.9-.4,8.7-.4S549.311,358.278,549.311,358.5Z" transform="translate(-531.91 -358.097)"/></g><g transform="translate(196.719 148.205)"><path class="d" d="M576.263,358.5c0,.222-3.9.4-8.7.4s-8.7-.18-8.7-.4,3.9-.4,8.7-.4S576.263,358.278,576.263,358.5Z" transform="translate(-558.861 -358.097)"/></g><g transform="translate(215.876 148.212)"><path class="d" d="M601.33,358.51c0,.222-3.9.4-8.7.4s-8.7-.18-8.7-.4,3.9-.4,8.7-.4S601.33,358.287,601.33,358.51Z" transform="translate(-583.928 -358.106)"/></g><g transform="translate(235.033 148.22)"><path class="d" d="M626.4,358.519c0,.222-3.9.4-8.7.4s-8.7-.18-8.7-.4,3.895-.4,8.7-.4S626.4,358.3,626.4,358.519Z" transform="translate(-608.996 -358.116)"/></g><g transform="translate(254.19 148.227)"><path class="d" d="M651.464,358.528c0,.222-3.9.4-8.7.4s-8.7-.181-8.7-.4,3.895-.4,8.7-.4S651.464,358.305,651.464,358.528Z" transform="translate(-634.063 -358.125)"/></g><g transform="translate(96.678 72.892)"><path class="d" d="M431.813,260.021c.008-.167,1.2.252,1.587,1.9a4.036,4.036,0,0,1-.3,2.828,2.45,2.45,0,0,1-1.43,1.208,2.6,2.6,0,0,1-1.994-.236,3.335,3.335,0,0,1-1.7-3.126,3.475,3.475,0,0,1,1.366-2.527,2.253,2.253,0,0,1,1.875-.462c.455.137.611.356.579.405-.047.151-1-.3-1.955.653a2.867,2.867,0,0,0-.854,1.973,2.407,2.407,0,0,0,1.216,2.118,1.439,1.439,0,0,0,2.026-.514,3.576,3.576,0,0,0,.415-2.182A4.951,4.951,0,0,0,431.813,260.021Z" transform="translate(-427.958 -259.549)"/></g><g transform="translate(226.159 36.996)"><path class="d" d="M600.869,212.932c0-.061.308-.163.85,0a3.29,3.29,0,0,1,1.751,1.515,4.339,4.339,0,0,1,.433,3.439,3.622,3.622,0,0,1-3.356,2.682,2.891,2.891,0,0,1-2.137-1.115,4.623,4.623,0,0,1-.9-1.908,4.386,4.386,0,0,1,.553-3.412c1.206-1.709,2.7-1.621,2.645-1.5.072.16-1.176.4-1.978,1.891a3.794,3.794,0,0,0-.239,2.775c.259,1.009,1.036,2.161,2.091,2.167a2.693,2.693,0,0,0,2.362-1.9,3.745,3.745,0,0,0-.159-2.764A3.963,3.963,0,0,0,600.869,212.932Z" transform="translate(-597.384 -212.579)"/></g></g><g transform="translate(0.262 0.262)"><rect class="f" width="231.466" height="180.144"/></g><path class="d" d="M430.119,246.926c0-1.8-.085-71.433-.216-180.144l.216.216-231.446.046h-.02l.261-.261c-.009,64.934-.018,126.351-.026,180.143l-.235-.235,231.466.235-231.466.235h-.235v-.236c-.008-53.792-.017-115.209-.027-180.143V66.52h.281l231.446.046h.217v.217C430.206,175.493,430.122,245.129,430.119,246.926Z" transform="translate(-198.392 -66.52)"/><g transform="translate(11.552 23.929)"><rect class="d" width="37.47" height="2.085"/><g transform="translate(0 4.879)"><rect class="d" width="18.516" height="2.085"/></g><g transform="translate(21.363 15.217)"><g transform="translate(0 115.375)"><rect class="d" width="6.787" height="1.956"/></g><g transform="translate(15.355 125.832)"><rect class="d" width="8.68" height="1.956"/></g><g transform="translate(45.572 125.832)"><rect class="d" width="8.68" height="1.956"/></g><g transform="translate(75.789 125.832)"><rect class="d" width="8.68" height="1.956"/></g><g transform="translate(106.005 125.832)"><rect class="d" width="8.68" height="1.956"/></g><g transform="translate(136.222 125.832)"><rect class="d" width="8.68" height="1.956"/></g><g transform="translate(166.438 125.832)"><rect class="d" width="8.68" height="1.956"/></g><g transform="translate(0 89.252)"><rect class="d" width="6.787" height="1.956"/></g><g transform="translate(0 40.086)"><rect class="d" width="6.787" height="1.956"/></g><g transform="translate(0 15.379)"><rect class="d" width="6.787" height="1.956"/></g><g transform="translate(0.344 64.669)"><rect class="d" width="6.787" height="1.956"/></g><g transform="translate(10.096)"><path class="d" d="M411.039,227.419s-.246.016-.727.024l-2.137.023-8.212.044-30.2.075-99.651.068-23.616,0h-.231v-.231c.031-33.328.058-62.655.078-83.666.03-10.491.054-18.9.07-24.706.017-2.886.031-5.122.04-6.651.009-.748.016-1.321.021-1.722s.022-.586.022-.586.014.2.022.586.012.973.022,1.722c.009,1.529.022,3.765.04,6.651.016,5.8.04,14.215.069,24.706.02,21.011.048,50.338.079,83.666l-.231-.23,23.616,0,99.651.068,30.2.075,8.212.044,2.137.023C410.793,227.4,411.039,227.419,411.039,227.419Z" transform="translate(-246.261 -110.088)"/></g><g transform="translate(16.893 65.414)"><path class="d" d="M413.719,183.124c0,.129-35.8.234-79.943.234-44.163,0-79.951-.1-79.951-.234s35.789-.234,79.951-.234C377.923,182.89,413.719,182.994,413.719,183.124Z" transform="translate(-253.825 -182.89)"/></g><g transform="translate(16.893 40.83)"><path class="d" d="M413.719,155.764c0,.129-35.8.234-79.943.234-44.163,0-79.951-.105-79.951-.234s35.789-.234,79.951-.234C377.923,155.53,413.719,155.635,413.719,155.764Z" transform="translate(-253.825 -155.53)"/></g><g transform="translate(16.893 16.123)"><path class="d" d="M413.719,128.266c0,.129-35.8.234-79.943.234-44.163,0-79.951-.1-79.951-.234s35.789-.234,79.951-.234C377.923,128.032,413.719,128.136,413.719,128.266Z" transform="translate(-253.825 -128.032)"/></g><g transform="translate(16.893 89.996)"><path class="d" d="M413.719,210.484c0,.128-35.8.234-79.943.234-44.163,0-79.951-.105-79.951-.234s35.789-.235,79.951-.235C377.923,210.249,413.719,210.354,413.719,210.484Z" transform="translate(-253.825 -210.249)"/></g><g transform="translate(18.542 1.813)"><path class="i" d="M255.66,222.334V200.523l13.594-21.1,9.225,7.078,18.934-29.412,11.167,7.865,15.537-27.133L336.74,148.1l18.934-35.994,20.392,40.229,16.508-20.128,19.42-5.557v95.685Z" transform="translate(-255.66 -112.106)"/></g><g transform="translate(18.542 8.482)"><path class="d" d="M413.905,119.658s-.115.013-.342.018l-1.012.018-3.941.033-14.9.061.1-.05L377.827,140.6l-.056.072h-.092l-39.981.04.192-.11-16.812,27.983-16.5,27.432-.175.291-.2-.275L282.536,166.26l.314-.01-19.731,30.8-5.493,8.52q-.946,1.451-1.453,2.227c-.331.5-.513.752-.513.752s.149-.271.465-.783l1.405-2.256,5.405-8.575,19.594-30.886.15-.235.165.226c6.473,8.858,13.8,18.887,21.722,29.732l-.375.016,16.486-27.441,16.827-27.973.066-.11h.128l39.981.04-.146.072L393.6,119.579l.04-.051h.064l14.9.06,3.941.034,1.012.017C413.79,119.647,413.905,119.658,413.905,119.658Z" transform="translate(-255.66 -119.528)"/></g><g transform="translate(49.058 60.615)"><path class="d" d="M292.691,179.026a1.535,1.535,0,1,1-1.534-1.477A1.506,1.506,0,0,1,292.691,179.026Z" transform="translate(-289.623 -177.549)"/></g><g transform="translate(95.174 34.403)"><path class="d" d="M344.016,149.853a1.535,1.535,0,1,1-1.535-1.476A1.507,1.507,0,0,1,344.016,149.853Z" transform="translate(-340.948 -148.377)"/></g><g transform="translate(131.025 27.962)"><ellipse class="d" cx="1.534" cy="1.477" rx="1.534" ry="1.477"/></g></g></g><g transform="translate(6.37 5.894)"><path class="d" d="M209.045,74.862a1.782,1.782,0,1,1-1.782-1.782A1.782,1.782,0,0,1,209.045,74.862Z" transform="translate(-205.481 -73.08)"/><g transform="translate(5.182)"><path class="d" d="M214.812,74.862a1.782,1.782,0,1,1-1.783-1.782A1.782,1.782,0,0,1,214.812,74.862Z" transform="translate(-211.248 -73.08)"/></g><g transform="translate(10.364)"><path class="d" d="M220.58,74.862A1.782,1.782,0,1,1,218.8,73.08,1.782,1.782,0,0,1,220.58,74.862Z" transform="translate(-217.016 -73.08)"/></g></g><g transform="translate(0.52 14.455)"><g transform="translate(0 0.234)"><line class="d" x2="231.013"/></g><path class="d" d="M429.985,82.843c0,.129-51.718.234-115.5.234-63.805,0-115.513-.1-115.513-.234s51.708-.235,115.513-.235C378.267,82.608,429.985,82.713,429.985,82.843Z" transform="translate(-198.971 -82.608)"/></g></g></g><g transform="translate(178.176 133.886)"><g transform="translate(1.982 331.231)"><path class="e" d="M253.312,462.37l-1.824,7.659S238.962,486.3,235.1,485.5c-2.532-.521.58-4.766,5.344-17.124l1-5.1Z" transform="translate(-234.195 -462.37)"/><g transform="translate(0.394 5.819)"><path class="d" d="M234.567,482.783a1.615,1.615,0,0,0,.668.641,2.319,2.319,0,0,0,2.4-.333,69.951,69.951,0,0,0,6.234-5.908c2.319-2.434,4.268-4.775,5.638-6.5l1.6-2.061.434-.563a1.094,1.094,0,0,1,.163-.187.936.936,0,0,1-.126.214l-.4.588c-.353.506-.878,1.229-1.545,2.108a81.008,81.008,0,0,1-5.6,6.557,61.194,61.194,0,0,1-6.31,5.886,2.965,2.965,0,0,1-1.414.52,2.058,2.058,0,0,1-1.113-.243,1.406,1.406,0,0,1-.527-.489A.7.7,0,0,1,234.567,482.783Z" transform="translate(-234.567 -467.872)"/></g><g transform="translate(2.167 15.377)"><path class="d" d="M236.244,477.033a2.034,2.034,0,0,1,1.03-.113,5.37,5.37,0,0,1,2.361.82,4.32,4.32,0,0,1,1.716,1.814,2.247,2.247,0,0,1,.271,1c-.039.011-.118-.38-.413-.929a4.6,4.6,0,0,0-1.692-1.693,5.954,5.954,0,0,0-2.259-.853C236.64,476.991,236.25,477.072,236.244,477.033Z" transform="translate(-236.244 -476.91)"/></g><g transform="translate(13.562 3.971)"><path class="d" d="M247.482,473.836a1.215,1.215,0,0,1-.15-.366,6.607,6.607,0,0,1-.246-1.05,5.7,5.7,0,0,1,.584-3.484,5.386,5.386,0,0,1,2.532-2.46,4.221,4.221,0,0,1,1.034-.319,1.152,1.152,0,0,1,.4-.024,8.739,8.739,0,0,0-1.361.488,5.53,5.53,0,0,0-2.4,2.419,5.892,5.892,0,0,0-.627,3.361C247.346,473.289,247.523,473.826,247.482,473.836Z" transform="translate(-247.018 -466.124)"/></g><g transform="translate(17.198 1.299)"><path class="d" d="M251.577,463.6c.055.02-.228,1.089-.462,2.443a8.367,8.367,0,0,1-.652,2.409c-.049-.019.2-1.093.43-2.451A8.122,8.122,0,0,1,251.577,463.6Z" transform="translate(-250.456 -463.599)"/></g><g transform="translate(6.025 6.997)"><path class="d" d="M239.892,469.079a3.765,3.765,0,0,1,3.058.705c-.034.058-.661-.277-1.5-.466S239.9,469.147,239.892,469.079Z" transform="translate(-239.892 -468.986)"/></g><g transform="translate(5.768 8.273)"><path class="d" d="M239.649,470.321a2.545,2.545,0,0,1,2.54.6c-.038.055-.538-.272-1.24-.432S239.659,470.388,239.649,470.321Z" transform="translate(-239.649 -470.192)"/></g><g transform="translate(4.767 9.809)"><path class="d" d="M238.7,471.884a2.053,2.053,0,0,1,2.589.588,5.936,5.936,0,0,0-1.236-.549A5.855,5.855,0,0,0,238.7,471.884Z" transform="translate(-238.702 -471.645)"/></g><g transform="translate(6.887 3.388)"><path class="d" d="M240.707,468.726c-.008-.037.579-.156,1.471-.5a11.23,11.23,0,0,0,1.511-.727c.273-.158.554-.335.832-.532.255-.189.535-.466.526-.763s-.382-.46-.668-.386a1.816,1.816,0,0,0-.774.516c-.46.435-.855.849-1.174,1.207-.64.716-1,1.2-1.024,1.174a1.409,1.409,0,0,1,.213-.364c.151-.223.382-.54.69-.915a16.081,16.081,0,0,1,1.152-1.252,1.985,1.985,0,0,1,.868-.582.73.73,0,0,1,.943.589,1.256,1.256,0,0,1-.622.954,9.979,9.979,0,0,1-2.417,1.23,8.665,8.665,0,0,1-1.108.3A1.345,1.345,0,0,1,240.707,468.726Z" transform="translate(-240.707 -465.573)"/></g><g transform="translate(5.241 2.261)"><path class="d" d="M241.455,468.63a14.139,14.139,0,0,1-.23-1.4,5.869,5.869,0,0,0-.426-1.449,3.117,3.117,0,0,0-.468-.737c-.191-.217-.482-.4-.716-.265s-.268.479-.232.764a3.462,3.462,0,0,0,.243.841,4.819,4.819,0,0,0,.819,1.261c.581.644,1.034.953,1.009.986a1.157,1.157,0,0,1-.331-.2,5.822,5.822,0,0,1-.8-.682,4.606,4.606,0,0,1-.89-1.285,3.532,3.532,0,0,1-.274-.9.958.958,0,0,1,.343-.988.831.831,0,0,1,.989.314,3.229,3.229,0,0,1,.493.8,5.471,5.471,0,0,1,.395,1.51c.056.439.073.794.082,1.039A1.238,1.238,0,0,1,241.455,468.63Z" transform="translate(-239.15 -464.508)"/></g></g><g transform="translate(61.534 324.34)"><g transform="translate(0.264)"><path class="e" d="M310.072,466.3l.059-10.215L291,455.855l-.244,14.943,1.186.09c5.277.358,26.852,1.444,30.4.417C326.284,470.159,310.072,466.3,310.072,466.3Z" transform="translate(-290.753 -455.855)"/></g><g transform="translate(0 14.492)"><path class="d" d="M290.5,469.565a1.789,1.789,0,0,0,.329.04l.944.069,3.475.195c2.935.143,6.994.286,11.478.347s8.548.025,11.486-.038l3.48-.1.945-.044a1.865,1.865,0,0,0,.329-.031,1.64,1.64,0,0,0-.33-.016h-.947l-3.48.026c-2.938.022-7,.03-11.48-.03s-8.538-.179-11.475-.279l-3.477-.121-.947-.025A1.911,1.911,0,0,0,290.5,469.565Z" transform="translate(-290.503 -469.558)"/></g><g transform="translate(25.739 12.381)"><path class="d" d="M314.871,470.535a5.049,5.049,0,0,1,1.873-2.968,3.087,3.087,0,0,0-1.873,2.968Z" transform="translate(-314.839 -467.561)"/></g><g transform="translate(20.152 10.836)"><path class="d" d="M309.566,467.683c.054.035.328-.291.613-.727s.472-.819.418-.854-.328.291-.612.727S309.513,467.648,309.566,467.683Z" transform="translate(-309.557 -466.101)"/></g><g transform="translate(18.617 10.515)"><path class="d" d="M308.11,466.862c.042.048.347-.15.681-.442s.569-.568.527-.616-.347.149-.68.441S308.069,466.813,308.11,466.862Z" transform="translate(-308.106 -465.797)"/></g><g transform="translate(17.665 9.667)"><path class="d" d="M307.206,465.089a4.353,4.353,0,1,0,1-.092A2.279,2.279,0,0,0,307.206,465.089Z" transform="translate(-307.206 -464.995)"/></g><g transform="translate(17.345 8.465)"><path class="d" d="M306.9,463.877a2.81,2.81,0,0,0,2.261.2,94.312,94.312,0,0,1-2.261-.2Z" transform="translate(-306.903 -463.859)"/></g><g transform="translate(20.831 9.068)"><path class="d" d="M310.2,466.118a3.53,3.53,0,0,0,1.23.009,7.275,7.275,0,0,0,1.313-.272,3.647,3.647,0,0,0,.753-.3.666.666,0,0,0,.309-.379.483.483,0,0,0-.18-.494,2.254,2.254,0,0,0-2.8.625,2.183,2.183,0,0,0-.411.814.683.683,0,0,0-.036.332,3.442,3.442,0,0,1,.573-1.042,2.215,2.215,0,0,1,1.059-.669,1.911,1.911,0,0,1,1.464.118c.194.147.114.377-.1.5a3.7,3.7,0,0,1-.695.287,8.545,8.545,0,0,1-1.271.314C310.669,466.085,310.2,466.081,310.2,466.118Z" transform="translate(-310.199 -464.429)"/></g><g transform="translate(19.568 8.428)"><path class="d" d="M310.585,466.219a1.208,1.208,0,0,0,.153-.852,2.02,2.02,0,0,0-.325-.9,1.236,1.236,0,0,0-1.015-.64.489.489,0,0,0-.386.563,1.349,1.349,0,0,0,.2.552,3.707,3.707,0,0,0,.571.752,1.79,1.79,0,0,0,.7.507c.022-.029-.242-.224-.576-.618a4.266,4.266,0,0,1-.5-.744c-.166-.261-.276-.73.034-.782.308-.026.618.285.8.532a2.005,2.005,0,0,1,.337.8A4.385,4.385,0,0,1,310.585,466.219Z" transform="translate(-309.005 -463.824)"/></g><g transform="translate(0.458 9.154)"><path class="d" d="M290.936,464.626c0,.043.549-.046,1.412.068a5.993,5.993,0,0,1,4.96,4.058c.281.824.3,1.376.346,1.371a1.072,1.072,0,0,0,.005-.386,5,5,0,0,0-.195-1.034,5.816,5.816,0,0,0-5.1-4.171,5.015,5.015,0,0,0-1.052.014A1.111,1.111,0,0,0,290.936,464.626Z" transform="translate(-290.936 -464.511)"/></g><g transform="translate(2.289 1.334)"><path class="d" d="M292.92,457.116a66.423,66.423,0,0,0-.2,7.861,33.555,33.555,0,0,0,.216-3.928A33.216,33.216,0,0,0,292.92,457.116Z" transform="translate(-292.667 -457.116)"/></g><g transform="translate(9.635 13.021)"><path class="d" d="M299.613,468.187a15.713,15.713,0,0,0,5.591.125c-.005-.068-1.255-.007-2.8-.043S299.621,468.12,299.613,468.187Z" transform="translate(-299.613 -468.167)"/></g><g transform="translate(5.876 12.982)"><path class="d" d="M296.068,468.136c-.048.047.1.267.223.554s.19.544.256.54.1-.3-.043-.634S296.11,468.091,296.068,468.136Z" transform="translate(-296.059 -468.129)"/></g><g transform="translate(4.485 11.203)"><path class="d" d="M294.754,466.457c-.046.044.075.245.27.448s.391.332.438.288-.075-.245-.271-.448S294.8,466.412,294.754,466.457Z" transform="translate(-294.744 -466.448)"/></g><g transform="translate(2.482 10.277)"><path class="d" d="M292.851,465.678c.012.065.267.066.546.169s.481.254.532.211-.106-.309-.455-.431S292.832,465.619,292.851,465.678Z" transform="translate(-292.85 -465.572)"/></g><g transform="translate(1.045 9.943)"><path class="d" d="M291.494,465.3c-.024.059.085.16.243.223s.3.067.329.007-.085-.16-.243-.223S291.518,465.239,291.494,465.3Z" transform="translate(-291.491 -465.256)"/></g></g><g transform="translate(0 139.16)"><path class="d" d="M326.348,280.764,319.009,472.52l-29.795.626,4.948-166.151L260.648,474.415H232.321l36.493-193.262Z" transform="translate(-232.321 -280.764)"/><g transform="translate(61.342 6.976)"><path class="e" d="M297.684,287.36a18.963,18.963,0,0,1-.342,3.161c-.277,1.942-.7,4.618-1.193,7.568a31.753,31.753,0,0,1-.851,4.164,5.894,5.894,0,0,1-1.946,2.927,4.59,4.59,0,0,1-2.163.966,1.738,1.738,0,0,1-.866-.014,5.353,5.353,0,0,0,4.514-4.026,37.038,37.038,0,0,0,.794-4.1c.5-2.951.974-5.617,1.345-7.543A19.137,19.137,0,0,1,297.684,287.36Z" transform="translate(-290.321 -287.36)"/></g><g transform="translate(62.096 7.399)"><path class="e" d="M291.444,288.257c.065.048-.179.355-.038.862a1.008,1.008,0,0,0,.5.64.9.9,0,0,0,1.177-1.033,1.011,1.011,0,0,0-.571-.576c-.483-.205-.821,0-.86-.073-.061-.029.276-.437.972-.281a1.322,1.322,0,0,1,.913.763,1.349,1.349,0,0,1-1.856,1.631,1.32,1.32,0,0,1-.639-1C290.976,288.474,291.424,288.193,291.444,288.257Z" transform="translate(-291.034 -287.76)"/></g><g transform="translate(46.073 5.306)"><path class="e" d="M276.314,291.106a5.616,5.616,0,0,1,.569-5.322c.141.063-.29,1.192-.437,2.644C276.283,289.879,276.466,291.073,276.314,291.106Z" transform="translate(-275.884 -285.781)"/></g><g transform="translate(49.639 4.852)"><path class="e" d="M279.7,290.9a6.52,6.52,0,0,1,.388-5.548,24.267,24.267,0,0,1-.292,2.767A24.327,24.327,0,0,1,279.7,290.9Z" transform="translate(-279.255 -285.352)"/></g><g transform="translate(80.836 5.423)"><path class="e" d="M308.8,291.653a17.484,17.484,0,0,1,.168-2.879,17.417,17.417,0,0,1,.129-2.882,7.907,7.907,0,0,1-.3,5.761Z" transform="translate(-308.753 -285.892)"/></g><g transform="translate(84.746 5.089)"><path class="e" d="M312.478,291.455c-.144-.06.322-1.314.424-2.923.122-1.61-.164-2.915-.015-2.955a6.193,6.193,0,0,1-.409,5.878Z" transform="translate(-312.45 -285.576)"/></g></g><g transform="translate(43.631)"><g transform="translate(5.898 11.23)"><path class="j" d="M282.137,207.957l18.4-1.469c.114-2.147-.039-10.457-.039-10.457s7.654-1.19,7.748-8.842-1.232-25.224-1.232-25.224h0a26.6,26.6,0,0,0-26.723,3.36l-1.134.873Z" transform="translate(-279.152 -159.804)"/><g transform="translate(11.377 33.281)"><path class="k" d="M299.886,194.107a17.794,17.794,0,0,1-9.977-2.835s2.359,5.508,9.995,4.819Z" transform="translate(-289.909 -191.272)"/></g><g transform="translate(9.787 7.656)"><g transform="translate(0.743 4.122)"><g transform="translate(11.56)"><g transform="translate(0.607 1.389)"><path class="d" d="M302.793,173.242a1.093,1.093,0,0,1-1.053,1.1,1.045,1.045,0,0,1-1.126-.986,1.093,1.093,0,0,1,1.052-1.1A1.047,1.047,0,0,1,302.793,173.242Z" transform="translate(-300.612 -172.253)"/></g><path class="d" d="M304.357,172.089c-.135.142-.964-.471-2.14-.467-1.175-.014-2.038.591-2.165.447-.063-.063.075-.321.451-.594a3,3,0,0,1,1.733-.534,2.88,2.88,0,0,1,1.7.549C304.3,171.767,304.424,172.025,304.357,172.089Z" transform="translate(-300.038 -170.94)"/></g><g transform="translate(0 0.219)"><g transform="translate(0.289 1.446)"><path class="d" d="M291.562,173.5a1.093,1.093,0,0,1-1.053,1.1,1.045,1.045,0,0,1-1.126-.986,1.094,1.094,0,0,1,1.052-1.1A1.046,1.046,0,0,1,291.562,173.5Z" transform="translate(-289.381 -172.514)"/></g><path class="d" d="M293.428,172.3c-.136.143-.966-.47-2.141-.466-1.174-.014-2.037.591-2.165.447-.062-.065.074-.322.452-.594a3,3,0,0,1,1.733-.535,2.883,2.883,0,0,1,1.7.55C293.371,171.974,293.494,172.232,293.428,172.3Z" transform="translate(-289.108 -171.147)"/></g><g transform="translate(8.036 0.29)"><path class="d" d="M297.258,181.013a7.84,7.84,0,0,1,1.91-.345c.3-.031.584-.09.635-.3a1.535,1.535,0,0,0-.2-.891l-.888-2.287a39.337,39.337,0,0,1-1.995-5.981,39.263,39.263,0,0,1,2.472,5.806q.444,1.2.85,2.3a1.741,1.741,0,0,1,.156,1.178.752.752,0,0,1-.494.44,2.092,2.092,0,0,1-.51.071A7.682,7.682,0,0,1,297.258,181.013Z" transform="translate(-296.707 -171.214)"/></g><g transform="translate(4.935 10.902)"><path class="d" d="M293.966,181.248c.19-.011.194,1.266,1.286,2.171s2.45.766,2.461.944c.018.08-.3.247-.878.263a3.18,3.18,0,0,1-2.054-.716,2.772,2.772,0,0,1-1-1.82C293.736,181.557,293.879,181.241,293.966,181.248Z" transform="translate(-293.775 -181.248)"/></g></g><path class="d" d="M293.772,167.924c-.116.319-1.29.168-2.671.334-1.382.139-2.495.543-2.678.256-.083-.137.112-.438.562-.748a4.678,4.678,0,0,1,4.075-.449C293.567,167.521,293.822,167.772,293.772,167.924Z" transform="translate(-288.406 -167.042)"/><g transform="translate(12.185 0.649)"><path class="d" d="M303.931,168.874c-.207.267-1.016-.011-1.992-.023-.973-.048-1.8.18-1.988-.1-.084-.135.046-.4.407-.656a2.881,2.881,0,0,1,3.207.1C303.909,168.469,304.022,168.744,303.931,168.874Z" transform="translate(-299.927 -167.656)"/></g></g></g><g transform="translate(1.746 25.308)"><path class="j" d="M280.321,173.356c-.13-.056-5.257-1.555-5.09,3.677s5.384,3.984,5.39,3.834S280.321,173.356,280.321,173.356Z" transform="translate(-275.226 -173.115)"/><g transform="translate(1.332 1.713)"><path class="k" d="M278.886,178.843c-.024-.016-.09.067-.241.143a.916.916,0,0,1-.681.036,2.257,2.257,0,0,1-1.108-1.99,3.01,3.01,0,0,1,.214-1.313,1.054,1.054,0,0,1,.663-.721.463.463,0,0,1,.546.233c.075.144.045.25.073.257s.11-.091.06-.306a.576.576,0,0,0-.216-.322.691.691,0,0,0-.509-.117,1.284,1.284,0,0,0-.925.842,3.1,3.1,0,0,0-.27,1.468,2.369,2.369,0,0,0,1.4,2.217.974.974,0,0,0,.829-.165C278.88,178.97,278.9,178.852,278.886,178.843Z" transform="translate(-276.486 -174.735)"/></g></g><path class="d" d="M310.26,155.966a8.09,8.09,0,0,0-12.568-2.417,7.922,7.922,0,0,0-13.018-1.689c-1.467,1.66-2.226,3.92-3.945,5.319-1.487,1.211-3.5,1.613-5,2.813a5.776,5.776,0,0,0,2.061,10.069,6.205,6.205,0,0,0,3.053,8.427l.763-.316a10.89,10.89,0,0,0,1.584-12.014c.094,0,.182-.009.274-.013a6.115,6.115,0,0,0,7.963-1.82,6.792,6.792,0,0,0,7.291.307,2.817,2.817,0,0,1,1.1-.5,2.593,2.593,0,0,1,1.37.41,6.435,6.435,0,0,0,3.7.748,3.583,3.583,0,0,0,2.782-1.991c.029,0,.057-.005.087-.011a4.117,4.117,0,0,0,3.064-2.968A6.117,6.117,0,0,0,310.26,155.966Z" transform="translate(-273.575 -149.186)"/></g><g transform="translate(16.396 48.204)"><g transform="translate(0.017)"><path class="h" d="M323.358,245.19l.668-34.485c-6.118-6.015-9.386-7.813-17.907-8.819-.9-.107-1.666-.186-2.319-.258l-.73-5.679-20.9-1.184,1.045,6.741h0c-3.031.128-5.543,1.062-8.12,1.556-8.121,1.556-13.966,7.47-15.589,12.932-1.337,4.5-9.917,37.823-9.917,37.823l-1.745,10.06,19.167-6.958-.014,7.243.047,26.609h58.22C325.412,284.427,323.358,245.19,323.358,245.19Z" transform="translate(-247.84 -194.764)"/></g><g transform="translate(0 55.457)"><path class="h" d="M256.6,251.277l28.7-4.078,5.454,9.769L264.073,269a11.511,11.511,0,0,1-4.732,1.017h0a11.515,11.515,0,0,1-10.653-7.144l-.864-2.106Z" transform="translate(-247.824 -247.199)"/></g><g transform="translate(62.995 9.227)"><path class="h" d="M311.8,203.488s8.108,2.762,11.513,10.561c2.222,5.089,5.488,29.582,5.488,29.582l4.118,7.943a13.391,13.391,0,0,1,1.5,6.165v1.211a13.392,13.392,0,0,1-3,8.451h0a13.4,13.4,0,0,1-9.205,4.889c-4.11.368-9.083.529-10.145-.684-1.874-2.142-4.685-7.9-4.685-7.9l11.989-6.368-5.162-9.561Z" transform="translate(-307.387 -203.488)"/></g><g transform="translate(7.951 55.178)"><path class="d" d="M265.641,268.109a2.317,2.317,0,0,1,.463-.26l1.375-.667c1.262-.589,3-1.4,5.15-2.405l17.583-8.026-.118.36-3.367-6.019c-.716-1.284-1.421-2.55-2.091-3.749l.254.132-21.021,2.063-6.248.558-1.688.127a2.8,2.8,0,0,1-.589.012,2.625,2.625,0,0,1,.579-.109l1.678-.218,6.233-.717,21-2.235.17-.019.085.151c.67,1.2,1.377,2.463,2.094,3.747,1.151,2.064,2.274,4.079,3.357,6.024l.137.246-.256.113-17.658,7.861-5.212,2.267-1.411.587A2.229,2.229,0,0,1,265.641,268.109Z" transform="translate(-255.342 -246.936)"/></g><g transform="translate(23.082 33.784)"><path class="d" d="M269.911,249.623c-.145,0-.263-5.13-.263-11.457s.118-11.458.263-11.458.262,5.128.262,11.458S270.056,249.623,269.911,249.623Z" transform="translate(-269.648 -226.707)"/></g><g transform="translate(65.747 64.19)"><path class="d" d="M316.977,255.625a2.629,2.629,0,0,1,.872-.138,7.983,7.983,0,0,1,2.42.146,2.871,2.871,0,0,1,1.519.859,3.965,3.965,0,0,1,.793,1.827,4.247,4.247,0,0,1-.2,2.186,4.074,4.074,0,0,1-1.451,1.862,10.835,10.835,0,0,1-4.157,1.482,18.972,18.972,0,0,1-3.558.347,6.444,6.444,0,0,1-3.229-.564,16.953,16.953,0,0,0,3.222.192,21.516,21.516,0,0,0,3.469-.448,10.955,10.955,0,0,0,3.944-1.433,3.741,3.741,0,0,0,.827-5.174,2.55,2.55,0,0,0-1.281-.778,9.628,9.628,0,0,0-2.317-.3A3.186,3.186,0,0,1,316.977,255.625Z" transform="translate(-309.989 -255.457)"/></g><g transform="translate(65.739 72.665)"><path class="d" d="M321.737,269.036a6.082,6.082,0,0,1-2.061.244,13.087,13.087,0,0,1-4.957-.823,10.7,10.7,0,0,1-2.467-1.312,5.929,5.929,0,0,1-1.525-1.723,4.534,4.534,0,0,1-.735-1.951c.085-.035.355.719,1.048,1.751a6.177,6.177,0,0,0,1.5,1.532,11.7,11.7,0,0,0,2.372,1.214,15.5,15.5,0,0,0,4.772.94A12.473,12.473,0,0,1,321.737,269.036Z" transform="translate(-309.981 -263.47)"/></g><g transform="translate(72.667 53.368)"><path class="d" d="M327.091,245.229a10,10,0,0,1-1.416,1.7c-.922,1.011-2.221,2.384-3.677,3.878s-2.8,2.827-3.785,3.775a9.363,9.363,0,0,1-1.677,1.456,9.374,9.374,0,0,1,1.412-1.717c.92-1.012,2.218-2.387,3.674-3.881A50.711,50.711,0,0,1,327.091,245.229Z" transform="translate(-316.532 -245.225)"/></g><g transform="translate(69.895 34.923)"><path class="d" d="M314.173,240.885a41.126,41.126,0,0,1-.262-6.551,41.107,41.107,0,0,1,.262-6.55,41.109,41.109,0,0,1,.262,6.55A41.128,41.128,0,0,1,314.173,240.885Z" transform="translate(-313.911 -227.784)"/></g><g transform="translate(16.754 13.393)"><path class="l" d="M321.345,207.7c0,.152-12.914.276-28.838.276s-28.841-.124-28.841-.276,12.91-.275,28.841-.275S321.345,207.551,321.345,207.7Z" transform="translate(-263.665 -207.427)"/></g><g transform="translate(35.509 6.725)"><path class="d" d="M301.29,201.459a89.81,89.81,0,0,1-9.947.219,89.77,89.77,0,0,1-9.945-.332,90.266,90.266,0,0,1,9.948-.218A89.962,89.962,0,0,1,301.29,201.459Z" transform="translate(-281.398 -201.122)"/></g><g transform="translate(10.658 25.046)"><path class="l" d="M327.952,218.72c0,.152-15.682.276-35.024.276s-35.026-.124-35.026-.276,15.679-.275,35.026-.275S327.952,218.568,327.952,218.72Z" transform="translate(-257.901 -218.445)"/></g><g transform="translate(7.163 37.025)"><path class="l" d="M330.3,230.048c0,.152-16.949.275-37.852.275s-37.856-.123-37.856-.275,16.945-.276,37.856-.276S330.3,229.9,330.3,230.048Z" transform="translate(-254.597 -229.772)"/></g><g transform="translate(4.334 48.673)"><path class="l" d="M331.816,241.061c0,.151-17.887.275-39.945.275s-39.949-.124-39.949-.275,17.882-.276,39.949-.276S331.816,240.909,331.816,241.061Z" transform="translate(-251.922 -240.785)"/></g><g transform="translate(0.84 67.641)"><path class="l" d="M337.413,259c0,.151-19.879.275-44.4.275s-44.4-.124-44.4-.275,19.875-.276,44.4-.276S337.413,258.844,337.413,259Z" transform="translate(-248.618 -258.72)"/></g><g transform="translate(18.312 80.953)"><path class="l" d="M323.707,271.582c0,.152-13.112.275-29.283.275s-29.286-.123-29.286-.275,13.109-.276,29.286-.276S323.707,271.43,323.707,271.582Z" transform="translate(-265.138 -271.306)"/></g></g><g transform="translate(52.693 93.876)"><g transform="translate(1.401 1.754)"><path class="j" d="M309.093,242.94l-.623-.467a14.33,14.33,0,0,0-11.292-2.61h0a19.647,19.647,0,0,0-8.794,4.129l-4.917,4.047,5.23,9.367,3.558-4.98s3.32,4.506,3.913,4.033a7.655,7.655,0,0,0,1.3-1.9L295.1,251.24l5.691,1.186,8.3-3.794-3.558-4.507,3.558,1.186Z" transform="translate(-283.467 -239.606)"/></g><path class="d" d="M300.405,242.176l-18.263,22.118,1.4,1.517,29.638-4.518,14.7-22.117-1.364-1.228Z" transform="translate(-282.143 -237.948)"/><g transform="translate(9.341 10.066)"><path class="j" d="M319.27,247.465h0a2.819,2.819,0,0,0-2.634,1.8c-.439,1.143-1.082,2.481-1.8,2.869-1.317.719-3.592,1.292-4.789.707s-5.986-4.9-6.825-4.418-1.557,1.557-.718,2.514,5.268,3.832,4.43,4.79-10.178-3.258-11.615-2.886-2.275,1.254-1.436,1.831,7.183,2.971,7.543,3.81c0,0-9.579-2.515-9.939-1.916s-.957,1.557,0,1.916,9.22,2.514,9.939,2.872a17.376,17.376,0,0,0,3.692,1.078,39.491,39.491,0,0,1,3.858,1.224,8.457,8.457,0,0,0,5.958-.159l.97-.4a3.8,3.8,0,0,0,2.361-3.749l-.2-3.266,1.045-2.695Z" transform="translate(-290.974 -247.465)"/></g><g transform="translate(1.515 1.421)"><path class="e" d="M327.851,239.3a2.286,2.286,0,0,1-.547.134l-1.584.281-5.842.938-8.672,1.324-5.117.774a9.786,9.786,0,0,0-4.96,2.009,33.317,33.317,0,0,0-3.614,4.15l-3.242,4.043-5.512,6.826-3.753,4.573-1.041,1.228a2.372,2.372,0,0,1-.391.4,2.281,2.281,0,0,1,.308-.472l.965-1.288,3.621-4.678,5.425-6.9,3.218-4.062a32.615,32.615,0,0,1,3.677-4.232A10.234,10.234,0,0,1,306,242.244l5.133-.746,8.689-1.213,5.866-.773,1.6-.183A2.268,2.268,0,0,1,327.851,239.3Z" transform="translate(-283.575 -239.291)"/></g><g transform="translate(30.927 6.276)"><path class="l" d="M312.385,243.882a2.5,2.5,0,0,0-.822.666.857.857,0,0,0-.035.994.917.917,0,0,0,1.222.02,1.2,1.2,0,0,0,.475-.709.838.838,0,0,0-.254-.792.651.651,0,0,0-.8-.032" transform="translate(-311.385 -243.882)"/></g></g></g><g transform="translate(107.4 127.356)"><g transform="translate(0 0)"><path class="m" d="M218.884,186.151,215,179.315a18.321,18.321,0,1,0-4.387,4.88l-.006.008Z" transform="translate(-181.141 -151.453)"/><g transform="translate(11.916 13.353)"><path class="f" d="M196.733,171.629a2.415,2.415,0,1,1,2.4,2.7A2.426,2.426,0,0,1,196.733,171.629Zm3.413,0c0-1.05-.4-1.554-1.009-1.554s-1.009.518-1.009,1.554.415,1.554,1.009,1.554S200.146,172.679,200.146,171.629Zm4.754-2.591h1.645l-6.605,9.8h-1.645Zm-1.589,7.213a2.415,2.415,0,1,1,2.391,2.7A2.423,2.423,0,0,1,203.311,176.251Zm3.4,0c0-1.037-.4-1.555-1.009-1.555s-1.009.5-1.009,1.555.415,1.554,1.009,1.554S206.71,177.287,206.71,176.251Z" transform="translate(-196.733 -168.926)"/></g></g></g></g></svg>