<svg xmlns="http://www.w3.org/2000/svg" width="248.339" height="218.515" viewBox="0 0 248.339 218.515"><defs><style>.a{fill:#d9a171;}.b{fill:#344154;}.c{fill:none;}.d{fill:#263238;}.e{fill:#12263f;}.f{fill:#fff;}.g{fill:#e8c7aa;}.h{fill:#aed3f2;}.i{fill:#bedcf5;}.j{fill:#ffbf9d;}.k{fill:#6595bf;}.l{fill:#334b60;}.m{fill:#4c708f;}.n{fill:#384c78;}.o{fill:#a37955;}.p{fill:#182f57;}.q{fill:#e1b48d;}.r{fill:#f0b4b4;}.s{fill:#ff9a6c;}.t{fill:#5e6178;}.u{fill:#f2e9e4;}.v{opacity:0.1;}.w{fill:#636363;}.x{fill:#8e8e8e;}.y{opacity:0.3;}.z{fill:#f5f5f5;}.aa{fill:#ebebeb;}.ab{fill:#e0e0e0;}</style></defs><g transform="translate(-1121.321 -6044.302)"><g transform="translate(1309.382 6142)"><g transform="translate(5.31)"><g transform="translate(0.381 0.136)"><path class="a" d="M129.4,196.277a22.113,22.113,0,0,1,5.676,1.5l4.172-3.5,7.166,5.454-2.258,4.953a22.02,22.02,0,0,1,2.957,5.071l5.421.479,1.21,8.923-5.1,1.906a22.05,22.05,0,0,1-1.5,5.676l3.5,4.173-5.453,7.165-4.953-2.257a22.069,22.069,0,0,1-5.072,2.956l-.477,5.421-8.924,1.212-1.906-5.1a22.073,22.073,0,0,1-5.676-1.5l-4.172,3.5-7.166-5.454L109.1,231.9a22.129,22.129,0,0,1-2.957-5.072l-5.419-.477-1.212-8.924,5.1-1.9a21.943,21.943,0,0,1,1.5-5.678l-3.5-4.172,5.453-7.166,4.954,2.258a22.1,22.1,0,0,1,5.072-2.957l.476-5.419,8.924-1.211,1.906,5.1Zm-3.664,12.39a9.661,9.661,0,1,0,10.872,8.274A9.661,9.661,0,0,0,125.738,208.667Z" transform="translate(-99.516 -191.181)"/></g><g transform="translate(17.923 17.42)"><path class="b" d="M120.688,203.691a1.872,1.872,0,0,1,.608-.131,7.525,7.525,0,0,1,1.786-.038,9.615,9.615,0,0,1,5.923,2.723,9.936,9.936,0,0,1-.049,14.235,9.959,9.959,0,0,1-11.764,1.6,9.939,9.939,0,0,1-3.841-13.71,9.61,9.61,0,0,1,4.982-4.2,7.511,7.511,0,0,1,1.732-.44,1.908,1.908,0,0,1,.622-.036c.015.083-.845.167-2.24.758a9.634,9.634,0,0,0-4.617,4.19,9.4,9.4,0,0,0-.074,8.938,9.215,9.215,0,0,0,3.8,3.828,9.259,9.259,0,0,0,10.868-1.475,9.2,9.2,0,0,0,2.643-4.7,9.4,9.4,0,0,0-2.453-8.6,9.637,9.637,0,0,0-5.567-2.81C121.547,203.627,120.695,203.775,120.688,203.691Z" transform="translate(-112.008 -203.489)"/></g><path class="b" d="M129.512,196.316a1.435,1.435,0,0,1-.143-.3l-.389-.952-1.49-3.8.133.08-8.914,1.282.171-.178c-.136,1.646-.286,3.47-.447,5.423l-.011.136-.129.055a21.947,21.947,0,0,0-5,2.948l-.122.1-.142-.065-4.963-2.237.336-.086-5.429,7.183-.01-.382,3.508,4.162.126.149-.074.181a21.78,21.78,0,0,0-1.465,5.595l-.024.2-.192.072L99.748,217.8l.223-.372c.385,2.8.8,5.825,1.226,8.921l-.327-.313,5.419.47.223.02.087.208a21.89,21.89,0,0,0,2.913,4.982l.14.18-.094.208c-.706,1.553-1.477,3.245-2.255,4.956l-.115-.462,7.169,5.449-.483.013,4.171-3.5.181-.152.218.09a21.765,21.765,0,0,0,5.571,1.472h0l.319.251v0l0,.011.007.02.015.039.029.08.06.162.119.32.239.642.479,1.278.948,2.54-.417-.249,8.926-1.208-.333.348q.242-2.736.48-5.421l.021-.23.213-.088a21.753,21.753,0,0,0,4.988-2.9l.181-.14.206.1,4.952,2.262-.451.114q2.8-3.665,5.464-7.158l.01.448q-1.776-2.128-3.488-4.179l-.136-.163.081-.2a21.754,21.754,0,0,0,1.487-5.585l.027-.2.191-.07,5.1-1.893-.208.347c-.417-3.14-.81-6.1-1.184-8.927l.268.257-5.418-.5-.17-.015-.065-.156a21.831,21.831,0,0,0-2.9-5.022l-.1-.125.065-.139c.829-1.795,1.576-3.412,2.281-4.942l.07.278c-2.759-2.126-5.113-3.94-7.132-5.5l.219-.006-4.2,3.459-.059.049-.069-.03a23.334,23.334,0,0,0-4.2-1.323l-1.071-.212a1.524,1.524,0,0,1-.354-.08,2.024,2.024,0,0,1,.364.015c.24.025.6.067,1.086.15a21.033,21.033,0,0,1,4.275,1.218l-.128.02,4.14-3.535.105-.09.112.086c2.039,1.531,4.415,3.317,7.2,5.409l.146.11-.076.17c-.691,1.536-1.423,3.161-2.234,4.963l-.031-.263a22.3,22.3,0,0,1,3.014,5.121l-.233-.171,5.422.459.237.02.032.237c.39,2.821.8,5.783,1.236,8.92l.035.257-.243.091-5.092,1.917.216-.274a22.379,22.379,0,0,1-1.511,5.767l-.055-.357,3.5,4.165.185.219-.174.229-5.443,7.173-.18.237-.271-.124-4.956-2.252.389-.045a22.452,22.452,0,0,1-5.158,3.012l.235-.32q-.234,2.684-.473,5.421l-.027.308-.306.042-8.924,1.213-.308.042-.11-.291q-.474-1.266-.949-2.542l-.479-1.278-.239-.64-.121-.322-.059-.16-.031-.08-.014-.041-.008-.02,0-.01,0-.006c.633.5.176.139.316.25h0a22.492,22.492,0,0,1-5.77-1.525l.4-.062-4.174,3.5-.237.2-.246-.187-7.163-5.459-.243-.185.126-.278c.781-1.709,1.555-3.4,2.264-4.95l.045.388a22.563,22.563,0,0,1-3-5.161l.309.226-5.419-.485-.289-.027-.038-.286c-.416-3.1-.82-6.123-1.2-8.927l-.037-.275.26-.1,5.1-1.893-.216.272a22.362,22.362,0,0,1,1.536-5.758l.051.33-3.485-4.182-.157-.19.149-.194q2.882-3.762,5.477-7.148l.135-.178.2.093c1.736.8,3.4,1.569,4.945,2.278l-.263.031a22.364,22.364,0,0,1,5.141-2.966l-.14.191c.184-1.951.354-3.775.508-5.416l.015-.159.156-.021,8.933-1.137.1-.013.032.093,1.35,3.8c.139.409.25.734.338.992A2.016,2.016,0,0,1,129.512,196.316Z" transform="translate(-99.245 -191.084)"/></g><g transform="translate(0 62.164)"><g transform="translate(0.239 0.086)"><path class="c" d="M114.4,238.612a13.914,13.914,0,0,1,3.564.941l2.62-2.195,4.5,3.425-1.417,3.11a13.91,13.91,0,0,1,1.858,3.185l3.4.3.76,5.6-3.2,1.2a13.869,13.869,0,0,1-.942,3.566l2.2,2.62-3.425,4.5-3.11-1.418a13.872,13.872,0,0,1-3.186,1.858l-.3,3.4-5.606.761-1.2-3.2a13.874,13.874,0,0,1-3.565-.941l-2.62,2.195-4.5-3.425,1.418-3.111A13.966,13.966,0,0,1,99.8,257.8l-3.4-.3-.761-5.6,3.2-1.2a13.883,13.883,0,0,1,.942-3.566l-2.2-2.62,3.425-4.5,3.112,1.418a13.8,13.8,0,0,1,3.185-1.858l.3-3.4,5.6-.76,1.2,3.2Zm-2.3,7.781a6.068,6.068,0,1,0,6.828,5.2A6.07,6.07,0,0,0,112.1,246.394Z" transform="translate(-95.634 -235.412)"/></g><g transform="translate(11.256 10.94)"><path class="d" d="M108.93,243.268a1.181,1.181,0,0,1,.382-.081,4.681,4.681,0,0,1,1.122-.024,6.039,6.039,0,0,1,3.72,1.709,6.242,6.242,0,0,1-.031,8.941,6.252,6.252,0,0,1-7.388,1,6.241,6.241,0,0,1-2.413-8.61,6.037,6.037,0,0,1,3.13-2.639,4.638,4.638,0,0,1,1.087-.275,1.165,1.165,0,0,1,.39-.024c.01.052-.531.105-1.407.476a6.045,6.045,0,0,0-2.9,2.633,5.9,5.9,0,0,0-.048,5.613,5.789,5.789,0,0,0,2.387,2.4,5.817,5.817,0,0,0,6.826-.927,5.8,5.8,0,0,0,1.66-2.953,5.9,5.9,0,0,0-1.542-5.4,6.047,6.047,0,0,0-3.5-1.765C109.471,243.228,108.935,243.322,108.93,243.268Z" transform="translate(-103.479 -243.142)"/></g><path class="d" d="M114.473,238.637a.877.877,0,0,1-.091-.191l-.243-.6q-.335-.849-.937-2.386l.084.05-5.6.806.108-.112c-.086,1.034-.18,2.179-.281,3.405l-.007.086-.081.035a13.8,13.8,0,0,0-3.141,1.851l-.076.06-.09-.041L101,240.2l.211-.053c-1.074,1.421-2.213,2.929-3.41,4.511l-.006-.24c.681.81,1.432,1.7,2.2,2.615l.079.093-.048.115a13.669,13.669,0,0,0-.918,3.514l-.015.126-.121.045-3.2,1.2.139-.235c.243,1.76.5,3.658.771,5.6l-.206-.2,3.4.3.14.011.053.131a13.756,13.756,0,0,0,1.83,3.129l.088.114-.059.131-1.416,3.112-.073-.291,4.5,3.422-.3.007,2.619-2.2.114-.1.138.058a13.659,13.659,0,0,0,3.5.924h0c.088.07-.2-.157.2.157v0l0,.007,0,.013.01.025.018.051.038.1.074.2.15.4.3.8c.2.534.4,1.067.6,1.6l-.261-.157,5.6-.758-.208.219q.152-1.719.3-3.4l.014-.146.133-.055a13.625,13.625,0,0,0,3.133-1.823l.114-.089.131.06,3.109,1.421-.284.07q1.759-2.3,3.432-4.5l.006.282-2.191-2.625-.086-.1.051-.122a13.653,13.653,0,0,0,.935-3.508l.015-.128.121-.045,3.2-1.188-.131.218c-.261-1.972-.508-3.834-.744-5.606l.17.162-3.4-.312-.107-.01-.041-.1a13.749,13.749,0,0,0-1.823-3.154l-.059-.077.039-.088c.521-1.126.99-2.143,1.434-3.1l.044.176c-1.733-1.336-3.21-2.476-4.48-3.453l.138,0-2.64,2.171-.038.031-.044-.018a14.538,14.538,0,0,0-2.639-.83l-.673-.133a.879.879,0,0,1-.222-.051,1.268,1.268,0,0,1,.228.01c.152.016.379.042.682.094a13.25,13.25,0,0,1,2.684.764l-.08.013,2.6-2.219.067-.056.07.053,4.522,3.4.091.069-.048.107-1.4,3.116-.02-.164a14.008,14.008,0,0,1,1.893,3.216l-.146-.107,3.4.288.149.013.021.149c.246,1.771.5,3.632.777,5.6l.021.161-.152.058-3.2,1.2.136-.171a14,14,0,0,1-.949,3.622l-.034-.225,2.2,2.616.115.138-.11.145-3.418,4.505-.112.147-.17-.077-3.112-1.414.243-.028a14.11,14.11,0,0,1-3.238,1.892l.146-.2q-.145,1.685-.3,3.4l-.017.192-.192.027-5.6.763-.194.027-.069-.183c-.2-.531-.4-1.062-.6-1.6l-.3-.8-.15-.4-.076-.2-.038-.1-.018-.051-.01-.025,0-.013,0-.006v0c.4.314.11.087.2.157h0a14.116,14.116,0,0,1-3.624-.958l.25-.039-2.622,2.2-.149.125-.154-.118-4.5-3.428-.153-.117.079-.174c.491-1.073.977-2.136,1.423-3.109l.028.243a14.091,14.091,0,0,1-1.885-3.241l.194.143-3.4-.3-.183-.017-.024-.18c-.261-1.946-.515-3.845-.751-5.606l-.022-.174.163-.06,3.2-1.189-.136.173a14.093,14.093,0,0,1,.965-3.617l.032.208L97.5,244.664l-.1-.119.093-.122q1.809-2.361,3.439-4.488l.086-.112.126.059,3.1,1.43-.166.02a14,14,0,0,1,3.23-1.862l-.088.119.319-3.4.01-.1.1-.013,5.61-.713.063-.008.02.058q.548,1.538.848,2.384l.212.622A1.326,1.326,0,0,1,114.473,238.637Z" transform="translate(-95.464 -235.351)"/></g></g><g transform="translate(927.372 6014.829)"><g transform="translate(261.672 29.473)"><g transform="translate(0)"><g transform="translate(36.634)"><path class="b" d="M508.423,43.054H495.056a13.581,13.581,0,1,0-27.162,0H454.528A3.941,3.941,0,0,0,450.587,47V58.159a1.788,1.788,0,0,0,1.788,1.788h58.2a1.788,1.788,0,0,0,1.788-1.788V47A3.941,3.941,0,0,0,508.423,43.054Zm-26.947-2.622a3.216,3.216,0,1,1,3.216-3.216A3.216,3.216,0,0,1,481.475,40.432Z" transform="translate(-450.587 -29.473)"/></g><g transform="translate(0 18.216)"><path class="e" d="M8.453,0H126.591a8.453,8.453,0,0,1,8.453,8.453v176.1a8.453,8.453,0,0,1-8.453,8.453H8.452A8.452,8.452,0,0,1,0,184.553V8.453A8.453,8.453,0,0,1,8.453,0Z"/></g><g transform="translate(5.986 27.058)"><rect class="f" width="121.426" height="178.114" rx="6.091"/></g><g transform="translate(37.197 17.495)"><path class="b" d="M510.6,62.195v9.778a3.3,3.3,0,0,1-3.3,3.3H456.635a3.3,3.3,0,0,1-3.3-3.3V62.195h-1.693V72.287a4.681,4.681,0,0,0,4.68,4.681H507.61a4.681,4.681,0,0,0,4.681-4.681V62.195Z" transform="translate(-451.641 -62.195)"/></g><g transform="translate(24.997 16.134)"><rect class="b" width="85.05" height="6.374" rx="3.187"/></g></g><g transform="translate(15.952 62.751)"><g transform="translate(5.503 23.354)"><g transform="translate(0 16.519)"><rect class="g" width="5.25" height="5.791"/></g><g transform="translate(9.368 4.88)"><rect class="g" width="5.25" height="17.429"/></g><g transform="translate(18.736 11.418)"><rect class="g" width="5.25" height="10.892"/></g><g transform="translate(28.104)"><rect class="g" width="5.25" height="22.309"/></g></g><path class="e" d="M413.193,194.544v-47.7H411.9v48.99h45.855v-1.289Z" transform="translate(-411.904 -146.843)"/><g transform="translate(4.505 12.828)"><path class="h" d="M453.831,171.707l-2.8-.434-2.8-.434c-.164-.025-.247.164-.15.34l1.16,2.105-5.7,3.065-1.765-1.663-.529-.5-.65.324-8.134,4.055-2.028-1.11-.419-.229-.374.143-9.158,3.508a.237.237,0,0,0,.134.453l1.867-.384,7.281-1.5,2.174,1.19.478.261.488-.243,7.97-3.974,1.783,1.68.546.514.662-.356,6.369-3.427.395.717.772,1.4c.084.152.248.2.334.109a.175.175,0,0,0,.034-.052l1.14-2.586,1.079-2.448.061-.137A.31.31,0,0,0,453.831,171.707Z" transform="translate(-420.33 -170.837)"/></g></g><g transform="translate(75.18 69.477)"><rect class="h" width="6.493" height="6.493" rx="2.73"/><g transform="translate(9.187 1.142)"><path class="h" d="M571.505,162.4H540.286a.418.418,0,0,1-.418-.418h0a.418.418,0,0,1,.418-.418h31.219a.418.418,0,0,1,.418.418h0A.418.418,0,0,1,571.505,162.4Z" transform="translate(-539.868 -161.56)"/><g transform="translate(0 3.373)"><path class="h" d="M548.509,168.7h-8.223a.418.418,0,0,1-.418-.418h0a.418.418,0,0,1,.418-.418h8.223a.418.418,0,0,1,.418.418h0A.418.418,0,0,1,548.509,168.7Z" transform="translate(-539.868 -167.868)"/></g><g transform="translate(11.652 3.373)"><path class="h" d="M577.243,168.7H562.079a.418.418,0,0,1-.418-.418h0a.418.418,0,0,1,.418-.418h15.164a.418.418,0,0,1,.418.418h0A.418.418,0,0,1,577.243,168.7Z" transform="translate(-561.661 -167.868)"/></g></g></g><g transform="translate(75.18 84)"><rect class="h" width="6.493" height="6.493" rx="2.73"/><g transform="translate(9.187 1.142)"><path class="h" d="M571.505,189.558H540.286a.418.418,0,0,1-.418-.418h0a.418.418,0,0,1,.418-.418h31.219a.418.418,0,0,1,.418.418h0A.418.418,0,0,1,571.505,189.558Z" transform="translate(-539.868 -188.722)"/><g transform="translate(0 3.373)"><path class="h" d="M548.509,195.867h-8.223a.418.418,0,0,1-.418-.418h0a.418.418,0,0,1,.418-.418h8.223a.418.418,0,0,1,.418.418h0A.418.418,0,0,1,548.509,195.867Z" transform="translate(-539.868 -195.031)"/></g><g transform="translate(11.652 3.373)"><path class="h" d="M577.243,195.867H562.079a.418.418,0,0,1-.418-.418h0a.418.418,0,0,1,.418-.418h15.164a.418.418,0,0,1,.418.418h0A.418.418,0,0,1,577.243,195.867Z" transform="translate(-561.661 -195.031)"/></g></g></g><g transform="translate(75.18 98.522)"><rect class="h" width="6.493" height="6.493" rx="2.73"/><g transform="translate(9.187 1.142)"><path class="h" d="M571.505,216.721H540.286a.418.418,0,0,1-.418-.418h0a.418.418,0,0,1,.418-.418h31.219a.418.418,0,0,1,.418.418h0A.418.418,0,0,1,571.505,216.721Z" transform="translate(-539.868 -215.885)"/><g transform="translate(0 3.373)"><path class="h" d="M548.509,223.029h-8.223a.418.418,0,0,1-.418-.418h0a.418.418,0,0,1,.418-.418h8.223a.418.418,0,0,1,.418.418h0A.418.418,0,0,1,548.509,223.029Z" transform="translate(-539.868 -222.193)"/></g><g transform="translate(11.652 3.373)"><path class="h" d="M577.243,223.029H562.079a.418.418,0,0,1-.418-.418h0a.418.418,0,0,1,.418-.418h15.164a.418.418,0,0,1,.418.418h0A.418.418,0,0,1,577.243,223.029Z" transform="translate(-561.661 -222.193)"/></g></g></g><g transform="translate(18.752 120.528)"><rect class="h" width="25.338" height="4.121" rx="2.061"/><g transform="translate(52.645)"><rect class="h" width="17.756" height="4.121" rx="2.061"/></g><g transform="translate(76.751)"><rect class="h" width="17.756" height="4.121" rx="2.061"/></g><g transform="translate(31.027)"><rect class="h" width="13.052" height="4.121" rx="2.061"/></g></g><g transform="translate(18.752 128.771)"><rect class="i" width="25.338" height="4.121" rx="2.061"/><g transform="translate(52.645)"><rect class="i" width="17.756" height="4.121" rx="2.061"/></g><g transform="translate(76.751)"><rect class="g" width="17.756" height="4.121" rx="2.061"/></g><g transform="translate(31.027)"><rect class="h" width="13.052" height="4.121" rx="2.061"/></g></g><g transform="translate(18.752 137.014)"><rect class="i" width="25.338" height="4.121" rx="2.061"/><g transform="translate(52.645)"><rect class="h" width="17.756" height="4.121" rx="2.061"/></g><g transform="translate(76.751)"><rect class="g" width="17.756" height="4.121" rx="2.061"/></g><g transform="translate(31.027)"><rect class="g" width="13.052" height="4.121" rx="2.061"/></g></g><g transform="translate(18.752 145.257)"><rect class="h" width="25.338" height="4.121" rx="2.061"/><g transform="translate(52.645)"><rect class="h" width="17.756" height="4.121" rx="2.061"/></g><g transform="translate(76.751)"><rect class="h" width="17.756" height="4.121" rx="2.061"/></g><g transform="translate(31.027)"><rect class="i" width="13.052" height="4.121" rx="2.061"/></g></g><g transform="translate(18.752 153.5)"><rect class="g" width="25.338" height="4.121" rx="2.061"/><g transform="translate(52.645)"><rect class="i" width="17.756" height="4.121" rx="2.061"/></g><g transform="translate(76.751)"><rect class="h" width="17.756" height="4.121" rx="2.061"/></g><g transform="translate(31.027)"><rect class="g" width="13.052" height="4.121" rx="2.061"/></g></g><g transform="translate(18.752 167.03)"><rect class="h" width="12.714" height="11.509" rx="3.361"/><g transform="translate(0 16.486)"><rect class="h" width="12.714" height="11.509" rx="3.361"/></g><g transform="translate(17.741 3.616)"><path class="h" d="M495.709,349.933H450.874a.6.6,0,0,1-.55-.642h0a.6.6,0,0,1,.55-.642h44.835a.6.6,0,0,1,.551.642h0A.6.6,0,0,1,495.709,349.933Z" transform="translate(-450.324 -348.65)"/><g transform="translate(0 4.821)"><path class="h" d="M477.085,358.951h-26.21a.6.6,0,0,1-.55-.642h0a.6.6,0,0,1,.55-.642h26.21a.6.6,0,0,1,.551.642h0A.6.6,0,0,1,477.085,358.951Z" transform="translate(-450.324 -357.668)"/></g><g transform="translate(30.736 4.821)"><path class="h" d="M540.92,358.951H508.362a.6.6,0,0,1-.55-.642h0a.6.6,0,0,1,.55-.642H540.92a.6.6,0,0,1,.551.642h0A.6.6,0,0,1,540.92,358.951Z" transform="translate(-507.812 -357.668)"/></g><g transform="translate(67.373 4.821)"><path class="h" d="M585.181,358.951h-8.292a.6.6,0,0,1-.55-.642h0a.6.6,0,0,1,.55-.642h8.292a.6.6,0,0,1,.551.642h0A.6.6,0,0,1,585.181,358.951Z" transform="translate(-576.339 -357.668)"/></g><g transform="translate(49.165)"><path class="h" d="M569.333,349.933h-26.5a.6.6,0,0,1-.551-.642h0a.6.6,0,0,1,.551-.642h26.5a.6.6,0,0,1,.551.642h0A.6.6,0,0,1,569.333,349.933Z" transform="translate(-542.283 -348.65)"/></g></g><g transform="translate(17.741 19.188)"><path class="h" d="M495.709,379.059H450.874a.6.6,0,0,1-.55-.642h0a.6.6,0,0,1,.55-.642h44.835a.6.6,0,0,1,.551.642h0A.6.6,0,0,1,495.709,379.059Z" transform="translate(-450.324 -377.776)"/><g transform="translate(0 4.821)"><path class="h" d="M477.085,388.077h-26.21a.6.6,0,0,1-.55-.642h0a.6.6,0,0,1,.55-.642h26.21a.6.6,0,0,1,.551.642h0A.6.6,0,0,1,477.085,388.077Z" transform="translate(-450.324 -386.794)"/></g><g transform="translate(30.736 4.821)"><path class="h" d="M540.92,388.077H508.362a.6.6,0,0,1-.55-.642h0a.6.6,0,0,1,.55-.642H540.92a.6.6,0,0,1,.551.642h0A.6.6,0,0,1,540.92,388.077Z" transform="translate(-507.812 -386.794)"/></g><g transform="translate(67.373 4.821)"><path class="h" d="M585.181,388.077h-8.292a.6.6,0,0,1-.55-.642h0a.6.6,0,0,1,.55-.642h8.292a.6.6,0,0,1,.551.642h0A.6.6,0,0,1,585.181,388.077Z" transform="translate(-576.339 -386.794)"/></g><g transform="translate(49.165)"><path class="h" d="M569.333,379.059h-26.5a.6.6,0,0,1-.551-.642h0a.6.6,0,0,1,.551-.642h26.5a.6.6,0,0,1,.551.642h0A.6.6,0,0,1,569.333,379.059Z" transform="translate(-542.283 -377.776)"/></g></g></g><g transform="translate(21.694 170.25)"><path class="f" d="M428.024,347.909l-2.549,3.539-1.763-1.664-1.068,1.352,2.992,1.99,3.837-4.1Z" transform="translate(-422.644 -347.909)"/></g><g transform="translate(21.966 186.661)"><path class="f" d="M428.534,378.6l-2.549,3.54-1.763-1.664-1.068,1.352,2.992,1.99,3.837-4.1Z" transform="translate(-423.153 -378.605)"/></g></g><g transform="translate(193.949 77.596)"><g transform="translate(20.264 68.032)"><path class="j" d="M177.52,300.046a99.106,99.106,0,0,0,5.611,34.7q1.088,3.13,2.412,6.261l-1.012,6.715h19.4l-12.525-7.472c-.286-1.784-.521-3.629-.726-5.5a219.852,219.852,0,0,1-.378-33.04,16.208,16.208,0,0,0-1.043-6.715c-3.373-8.792-12.437-33.182-15.36-48.265H152.6C148.956,270.868,158.787,281.273,177.52,300.046Z" transform="translate(-151.852 -246.73)"/></g><g transform="translate(20.264 68.032)"><path class="k" d="M162.037,283.38c4.078,5.173,9.289,10.466,15.483,16.666-.133,12.391.718,26.46,4.621,37.571l9.7-.5c-1.318-12.694.909-33.9-1.075-41.925-2.259-9.141-13.942-33.375-16.865-48.458H152.6C150.161,262.892,153.759,272.9,162.037,283.38Z" transform="translate(-151.851 -246.73)"/></g><g transform="translate(30.439 84.701)"><path class="l" d="M170.883,297.849l.01.04c4.078,5.173,9.289,10.466,15.483,16.666-.133,12.391.718,26.46,4.621,37.571l2.877-.15c-4.048-10.463-5.175-24.17-4.713-38.143-21.155-17.231-7.112-23.438-13.69-35.925Z" transform="translate(-170.883 -277.909)"/></g><g transform="translate(52.843 161.557)"><path class="b" d="M219.765,421.66c4.668,2.391,12.812,1.729,13.291,7.472H212.887a17.9,17.9,0,0,1,.7-7.472A18.708,18.708,0,0,0,219.765,421.66Z" transform="translate(-212.787 -421.66)"/></g><g transform="translate(0 67.277)"><g transform="translate(0.308 0.003)"><path class="j" d="M116.971,338.718c-.839,1.819-1.63,3.507-2.446,5.277q8.126,1.939,16.25,3.889c-3.278-2.722-6.578-5.391-9.84-8.148,1.249-2.533,2.77-6.106,4.125-8.4,5.429-9.187,11.569-17.324,17.784-25.9a15.09,15.09,0,0,0,2.889-6.672c2.9-16.89,2.532-34.312,5.576-51.235-4.809-.749-9.606-1.472-14.411-2.206-13.391,20.916-10.558,32.071-4.943,54.519-6.665,9.021-10.34,19.212-13.013,30.11C118.391,332.2,117.454,336.215,116.971,338.718Z" transform="translate(-114.525 -245.323)"/></g><g transform="translate(1.847)"><path class="m" d="M147.057,298.784a14.766,14.766,0,0,1-2.918,6.727c-7.044,9.859-12.564,21.078-18.762,31.537-2.677-.609-5.313-1.245-7.974-1.865,3.078-12.2,8.244-25.119,15.888-35.334-5.607-22.463-8.446-33.6,4.937-54.515a.042.042,0,0,1,.009-.017l16.385,2.5c-.076.414-.151.829-.228,1.244,0,.009,0,.028,0,.037C151.483,265.592,149.965,282.307,147.057,298.784Z" transform="translate(-117.403 -245.318)"/></g><g transform="translate(1.842 0.017)"><path class="k" d="M151.3,249.763c-1.754,2.469-.1,7.412-2.026,10.1-4.981,6.964-11.68,1.8-15.992,4.609-7.335,4.774.813,26.538,2.426,32.43.049.178,1.18,4.1,1.925,4.018-3.384.407-2.184-1.978-6.508,5.356-1.95,3.309-12.044,22.627-12.423,28.756-.864.839-.809,0-1.309.171,3.089-12.222,8.245-25.121,15.893-35.343-5.606-22.46-8.449-33.6,4.938-54.513,5.324,1.219,11.976.4,17.175,1.608C156.013,247.1,152.444,248.156,151.3,249.763Z" transform="translate(-117.395 -245.35)"/></g><g transform="translate(0 91.723)"><path class="b" d="M121.514,417.934c4.559,3.191,10.878,4.144,11.3,10.335q-9.43-2.258-18.861-4.515a19.588,19.588,0,0,1,3.077-6.877A4.637,4.637,0,0,0,121.514,417.934Z" transform="translate(-113.949 -416.877)"/></g></g><g transform="translate(38.988 21.237)"><g transform="translate(40.344 1.377)"><path class="j" d="M265.877,170.768s-1.413.741-1.853,1.035c-.811-1.426-.93-2.782-1.692-4.132,0,0,1.995-.534,2.186-.929.629-1.3,1.2-3.707,2.515-4.027,1.338-.324.254,2.895.254,2.895a14.382,14.382,0,0,0,4.989-2.619C277.213,158.4,275.606,168.178,265.877,170.768Z" transform="translate(-262.332 -161.781)"/></g><g transform="translate(0 0)"><path class="a" d="M230.255,170.4c-3.217,2.157-17.059,10.762-22.232,11.166-5.882.462-21.152-5.741-21.152-5.741l.637-16.607c2.831-.426,20.334,13.715,20.334,13.715l20.017-7.622C228.622,166.656,229.444,168.97,230.255,170.4Z" transform="translate(-186.872 -159.205)"/></g><g transform="translate(0.635)"><path class="n" d="M196.882,164.17c-3.934-2.794-7.644-5.132-8.82-4.955l0,.031A56.845,56.845,0,0,1,196.882,164.17Z" transform="translate(-188.06 -159.205)"/></g><g transform="translate(0 9.534)"><path class="o" d="M229.441,177.037c-3.554,2.646-16.629,10.717-21.624,11.393-5.226.709-18.237-3.473-20.943-4.37l0,.06s15.269,6.2,21.152,5.741c5.173-.4,19.015-9.009,22.232-11.166A17.047,17.047,0,0,1,229.441,177.037Z" transform="translate(-186.872 -177.037)"/></g></g><g transform="translate(19.887 21.242)"><path class="j" d="M179.48,179.965l-5.906,26.062h-21.3s-3.525-25.053,1.88-38.178c2.433-5.913,10.423-8.466,10.924-8.624l.022-.01,5.939.342Z" transform="translate(-151.146 -159.215)"/></g><g transform="translate(19.888 21.243)"><path class="f" d="M179.235,181.034,174.256,203a3.854,3.854,0,0,1-3.743,3.026c-3.089,1.422-7.481.934-12.179,0a6.779,6.779,0,0,1-6.718-6.282c-.675-8.295-1.165-22.9,2.544-31.9,1.905-4.624,7.213-7.2,9.667-8.171a6.568,6.568,0,0,1,2.426-.458l4.593.011c.705,0,8.53,19.651,8.53,19.651A6.938,6.938,0,0,1,179.235,181.034Z" transform="translate(-151.147 -159.216)"/></g><g transform="translate(24.722 66.064)"><rect class="p" width="22.601" height="3.354"/></g><g transform="translate(37.865 21.235)"><path class="a" d="M185.328,218.937a3.136,3.136,0,0,0,2.187,2.169,9.693,9.693,0,0,0,4.139.218l.174-.031a17.986,17.986,0,0,0,3.291-.882l.01-32.493s.139-5.973,0-7.957c-.615-8.759.258-19.061-8.07-20.7a1.682,1.682,0,0,0-.576-.045C192.837,186.1,182.312,207.773,185.328,218.937Z" transform="translate(-184.771 -159.202)"/></g><g transform="translate(13.149 21.243)"><path class="a" d="M140.1,222.152c4.47.973,9.47.529,13.315-.016a6.243,6.243,0,0,0,5.29-6.689c-1.338-18.49,3.98-36.6.529-56.231l-.02.01c-.5.156-8.529,2.693-10.925,8.622-4.505,11.147-6.265,35.838-9.7,51.883A2.033,2.033,0,0,0,140.1,222.152Z" transform="translate(-138.544 -159.216)"/></g><g transform="translate(18.181 67.395)"><path class="q" d="M147.954,247.082a26.767,26.767,0,0,0,10.092,0v-1.543a36.909,36.909,0,0,1-10.092,0Z" transform="translate(-147.954 -245.539)"/></g><g transform="translate(23.388 25.165)"><g transform="translate(49.861 30.704)"><path class="j" d="M254.128,231.826a18.166,18.166,0,0,0-3.174,0l.14-5.255s2.4.605,3.034.18c1.033-.7,2.672-2.5,4.441-2.754s-.947,2.879-.947,2.879a15.549,15.549,0,0,0,6.978,0C267.762,225.936,267.09,233.724,254.128,231.826Z" transform="translate(-250.954 -223.982)"/></g><path class="a" d="M209.028,199.6v6.471c-6.36.6-23.216.978-28.97-.971-7.272-2.467-22.364-24.658-22.364-24.658l8-13.893c6.206,7.264,19.278,28.977,19.278,28.977Z" transform="translate(-157.694 -166.552)"/><g transform="translate(0 13.893)"><path class="o" d="M180.988,214.034c-6.608-2.01-23.294-21.5-23.294-21.5s15.092,22.191,22.364,24.658c5.754,1.949,22.61,1.568,28.97.971v-2.325C202.417,216.627,186.686,215.765,180.988,214.034Z" transform="translate(-157.694 -192.537)"/></g></g><g transform="translate(29.624)"><path class="b" d="M175.857,136.581s-5.086-.017-6.306-5.934,3.63-8.021,6.816-7.98a8.392,8.392,0,0,0,6.7-3.184s2.827,3.852,1.2,7.233C182.857,129.647,175.857,136.581,175.857,136.581Z" transform="translate(-169.359 -119.483)"/></g><g transform="translate(33.843 12.466)"><path class="j" d="M183.453,144.635l-.113,1.708-.3,4.582-.046.7c-.092,3.636-5.466,2.13-5.745-.046l.884-3.617.649-2.651.227-.93.385-1.579Z" transform="translate(-177.249 -142.799)"/></g><g transform="translate(34.727 14.045)"><path class="r" d="M184.109,147.718l-.3,4.582c-1.353-.279-3.4-.909-4.444-2.32-.162-.218-.315-.431-.462-.646l.649-2.651.227-.93Z" transform="translate(-178.903 -145.753)"/></g><g transform="translate(32.815 6.331)"><path class="j" d="M184.5,131.521a1.365,1.365,0,0,1,2.054,1.133c.184,3.73.014,9.787-2.906,10.775-4.27,1.445-7.32-4.2-7.32-4.2s-1.83-2.612-.542-3.507,2.507,1.305,2.507,1.305C178.505,132.885,181.946,133.1,184.5,131.521Z" transform="translate(-175.327 -131.324)"/></g><path class="s" d="M191.973,142.613a1.792,1.792,0,0,0,1.482-.274,11.641,11.641,0,0,1-1.586-2.7Z" transform="translate(-150.21 -128.863)"/><path class="b" d="M187.477,138.818c.206,0,.384.292.39.576s-.169.535-.358.543-.356-.259-.391-.573S187.267,138.815,187.477,138.818Z" transform="translate(-147.996 -128.481)"/><path class="b" d="M194.1,138.51c.21,0,.381.256.388.572s-.15.576-.356.571-.379-.259-.387-.575S193.9,138.5,194.1,138.51Z" transform="translate(-151.084 -128.337)"/><path class="b" d="M193.334,135.795a.189.189,0,0,0,.16.071,1.561,1.561,0,0,1,1.3.413.178.178,0,0,0,.251.026l0,0h0a.189.189,0,0,0,.015-.261h0a1.914,1.914,0,0,0-1.626-.515.19.19,0,0,0-.165.206A.249.249,0,0,0,193.334,135.795Z" transform="translate(-150.865 -126.937)"/><path class="b" d="M192.369,148.505a.189.189,0,0,0-.175-.011,1.562,1.562,0,0,1-1.367.06.178.178,0,0,0-.244.062l0,.005h0a.19.19,0,0,0,.075.251h0a1.914,1.914,0,0,0,1.7-.075.189.189,0,0,0,.084-.25A.244.244,0,0,0,192.369,148.505Z" transform="translate(-149.6 -132.976)"/><path class="b" d="M185.814,136.846a.188.188,0,0,0,.168-.042,1.567,1.567,0,0,1,1.278-.482.178.178,0,0,0,.214-.133v-.005h0a.19.19,0,0,0-.151-.215h0a1.9,1.9,0,0,0-1.6.582.186.186,0,0,0,0,.263A.177.177,0,0,0,185.814,136.846Z" transform="translate(-147.323 -127.148)"/></g><g transform="translate(197.74 34.112)"><path class="k" d="M903.436,3082.1l7.111-1.089a21.785,21.785,0,1,0-5.643-5.39h0Z" transform="translate(-900.673 -3040.99)"/><path class="t" d="M903.33,3082.037l.086-.408.269-1.224c.241-1.1.6-2.73,1.061-4.843a.045.045,0,0,1,.052-.037h0l-.065.061a22.031,22.031,0,0,1-2.387-4.158,22.232,22.232,0,0,1-1.775-9.127,24.6,24.6,0,0,1,.408-3.615,21.762,21.762,0,0,1,27.606-16.847,22.567,22.567,0,0,1,4.827,2.04l1.114.726.563.367c.184.126.351.273.526.408l1.057.856c.347.286.653.617.983.926a20.387,20.387,0,0,1,1.791,1.963l.216.249.192.27.375.542c.249.363.522.71.742,1.085s.429.759.645,1.138c.106.188.216.375.318.567l.262.6.526,1.18c.164.408.277.816.408,1.224a21.82,21.82,0,0,1-13.948,27.527q-.844.276-1.708.483l-.905.2-.449.1-.453.053c-.6.07-1.187.151-1.767.208a29.875,29.875,0,0,1-3.378-.033,21.687,21.687,0,0,1-10.115-3.525h.033l-5.3.78-1.355.2-.453.062.469-.082,1.363-.216,5.276-.816h.029a21.912,21.912,0,0,0,4.3,2.183,21.572,21.572,0,0,0,5.781,1.289,28.467,28.467,0,0,0,3.354.025c.575-.062,1.163-.139,1.758-.212l.449-.053.441-.1.9-.2a21.625,21.625,0,0,0,15.992-26.067q-.208-.869-.488-1.719c-.139-.408-.257-.816-.408-1.224l-.522-1.171-.261-.587c-.1-.188-.208-.372-.314-.563q-.318-.554-.636-1.125c-.221-.372-.49-.714-.735-1.074l-.375-.535-.188-.269-.216-.249a20.418,20.418,0,0,0-1.807-1.947c-.326-.306-.632-.632-.975-.918l-1.04-.816c-.176-.134-.343-.282-.522-.408l-.559-.363-1.106-.718a22.5,22.5,0,0,0-4.774-2.041,21.43,21.43,0,0,0-18.577,3.041,21.719,21.719,0,0,0-5.965,6.3,21.488,21.488,0,0,0-2.856,7.344,24.209,24.209,0,0,0-.408,3.591,21.494,21.494,0,0,0,.18,3.361,21.773,21.773,0,0,0,3.962,9.838.048.048,0,0,1,0,.065.044.044,0,0,1-.053,0h0l.069-.024c-.481,2.1-.853,3.708-1.106,4.806-.126.542-.224.958-.29,1.245A1.732,1.732,0,0,1,903.33,3082.037Z" transform="translate(-900.567 -3040.924)"/><g transform="translate(10.033 5.814)"><path class="u" d="M925.157,3060.866a5.443,5.443,0,0,1,1.646-4.114,5.964,5.964,0,0,1,4.312-1.579,6.061,6.061,0,0,1,4.35,1.56,5.547,5.547,0,0,1,1.646,4.227v1.362a5.374,5.374,0,0,1-1.646,4.1,6.792,6.792,0,0,1-8.652-.009,5.5,5.5,0,0,1-1.655-4.208Zm3.631,1.456a2.548,2.548,0,0,0,.652,1.825,2.246,2.246,0,0,0,1.712.691,2.144,2.144,0,0,0,1.683-.7,2.709,2.709,0,0,0,.624-1.873v-1.4a2.655,2.655,0,0,0-.624-1.835,2.431,2.431,0,0,0-3.4-.009,2.706,2.706,0,0,0-.643,1.919Zm3.442,18.723-2.667-1.437,13.447-21.523,2.666,1.438Zm6.09-4.69a5.374,5.374,0,0,1,1.664-4.113,6.048,6.048,0,0,1,4.312-1.561,6.115,6.115,0,0,1,4.34,1.542,5.518,5.518,0,0,1,1.655,4.246v1.362a5.417,5.417,0,0,1-1.626,4.095,6,6,0,0,1-4.331,1.56,6.065,6.065,0,0,1-4.369-1.57,5.485,5.485,0,0,1-1.646-4.161Zm3.631,1.475a2.528,2.528,0,0,0,.681,1.778,2.22,2.22,0,0,0,1.7.737q2.307,0,2.307-2.553v-1.437a2.574,2.574,0,0,0-.643-1.825,2.444,2.444,0,0,0-3.4,0,2.655,2.655,0,0,0-.643,1.882Z" transform="translate(-925.157 -3055.173)"/></g></g><g transform="translate(362.808 53.101)"><g transform="translate(13.166 0) rotate(20)"><g transform="translate(0 0)"><g transform="translate(0 0)"><g transform="translate(0 0)"><g transform="translate(0 0)"><path class="a" d="M38.255,16.222A19.246,19.246,0,1,1,16.224.242,19.246,19.246,0,0,1,38.255,16.222Z"/></g></g><g class="v" transform="translate(0 0.242)"><g transform="translate(0 0)"><path class="f" d="M16.224,0A19.242,19.242,0,0,0,.242,22.031S13.693,20.5,16.05,14.613,16.224,0,16.224,0Z"/></g></g><g transform="translate(4.267 4.362)"><g transform="translate(0 0)"><path class="w" d="M29.081,12.333A14.63,14.63,0,1,1,12.333.184,14.63,14.63,0,0,1,29.081,12.333Z"/></g></g><g transform="translate(5.161 5.065)"><g transform="translate(0 0)"><path class="x" d="M28.692,12.167A14.435,14.435,0,1,1,12.168.182,14.433,14.433,0,0,1,28.692,12.167Z"/></g></g><g transform="translate(13.298 10.163)"><g transform="translate(0.692 0)"><g transform="translate(0 0)"><path class="a" d="M5.978,8.012,5.4,4.365l.019,0a7.584,7.584,0,0,1,2.019.2,6.128,6.128,0,0,1,1,.428l.032-.12.354-1.4.08-.323-.759-.58-.29.191A6.947,6.947,0,0,0,5.086,2.41L4.767.4l-.7-.4.08.5L3.286.639l.325,2.043C.836,3.4-.247,5.223.047,7.066c.4,2.511,2.655,2.819,4.737,2.987l.576,3.614a7,7,0,0,1-3.832-.8L1,14.824a8.01,8.01,0,0,0,4.666.795l.241,1.514-.7.125.781.366,1.481-.236-.321-2.025c2.791-.74,3.892-2.546,3.6-4.389C10.349,8.465,8.061,8.181,5.978,8.012ZM4.436,7.868c-1.1-.14-1.937-.415-2.075-1.283-.127-.794.312-1.531,1.563-1.935ZM5.4,4.361ZM6.834,13.4l-.508-3.2c1.133.135,1.995.424,2.135,1.309C8.585,12.284,8.122,12.987,6.834,13.4Z"/></g></g><g class="y" transform="translate(0.692 0)"><g transform="translate(0 0)"><path class="a" d="M5.978,8.012,5.4,4.365l.019,0a7.584,7.584,0,0,1,2.019.2,6.128,6.128,0,0,1,1,.428l.032-.12.354-1.4.08-.323-.759-.58-.29.191A6.947,6.947,0,0,0,5.086,2.41L4.767.4l-.7-.4.08.5L3.286.639l.325,2.043C.836,3.4-.247,5.223.047,7.066c.4,2.511,2.655,2.819,4.737,2.987l.576,3.614a7,7,0,0,1-3.832-.8L1,14.824a8.01,8.01,0,0,0,4.666.795l.241,1.514-.7.125.781.366,1.481-.236-.321-2.025c2.791-.74,3.892-2.546,3.6-4.389C10.349,8.465,8.061,8.181,5.978,8.012ZM4.436,7.868c-1.1-.14-1.937-.415-2.075-1.283-.127-.794.312-1.531,1.563-1.935ZM5.4,4.361ZM6.834,13.4l-.508-3.2c1.133.135,1.995.424,2.135,1.309C8.585,12.284,8.122,12.987,6.834,13.4Z"/></g></g><g transform="translate(0 0.004)"><g transform="translate(0 0)"><path class="a" d="M7.149,14.965l.322,2.023-1.481.237L5.67,15.219A8.02,8.02,0,0,1,1,14.423l.521-1.954a7.027,7.027,0,0,0,3.834.8L4.784,9.652C2.7,9.484.447,9.175.047,6.663-.247,4.819.834,3,3.61,2.279L3.284.238,4.767,0l.32,2.006a7.829,7.829,0,0,1,3.844.52L8.48,4.468A7.589,7.589,0,0,0,5.4,3.958l.581,3.651c2.084.168,4.371.454,4.771,2.965C11.043,12.417,9.94,14.222,7.149,14.965Zm-2.713-7.5L3.924,4.249c-1.251.4-1.69,1.138-1.563,1.935C2.5,7.051,3.339,7.324,4.436,7.465ZM8.461,11.1c-.14-.884-1-1.174-2.135-1.309l.509,3.2C8.123,12.585,8.586,11.882,8.461,11.1Z"/></g></g></g></g><g transform="translate(13.694 14.619)"><g transform="translate(0 0)"><path class="f" d="M1.126,3.526A1.229,1.229,0,0,1,.64,3.175a2.314,2.314,0,0,1-.624-1.3A2.3,2.3,0,0,1,.307.459,1.214,1.214,0,0,1,.694,0C.713.017.556.184.4.505a2.419,2.419,0,0,0-.239,1.35A2.447,2.447,0,0,0,.715,3.108C.949,3.381,1.141,3.506,1.126,3.526Z"/></g></g><g transform="translate(16.954 10.909)"><g transform="translate(0 0)"><path class="f" d="M.212,1.189A1.331,1.331,0,0,1,.048.606,1.327,1.327,0,0,1,.023,0,1.332,1.332,0,0,1,.19.583,1.313,1.313,0,0,1,.212,1.189Z"/></g></g></g></g><g transform="translate(31.573 24.67)"><path class="b" d="M386.585,2557.866a.905.905,0,0,1-.905-.905v-11.25a.905.905,0,0,1,.905-.9h2.18l-4.807-5.674-4.809,5.674h2.18a.905.905,0,0,1,.9.9v11.25a.9.9,0,1,1-1.809,0v-10.345H377.2a.9.9,0,0,1-.69-1.489l6.761-7.978a.9.9,0,0,1,.69-.321h0a.9.9,0,0,1,.69.321l6.759,7.978a.9.9,0,0,1-.691,1.489H387.49v10.345A.905.905,0,0,1,386.585,2557.866Z" transform="translate(-376.293 -2536.828)"/></g></g><g transform="translate(247.327 29.473)"><path class="z" d="M605.39,94.685a24,24,0,1,1-27.2-20.244A23.975,23.975,0,0,1,605.39,94.685Z" transform="translate(-557.635 -74.188)"/><g transform="translate(5.711 5.698)"><path class="aa" d="M599.736,95.5a18.29,18.29,0,1,1-20.725-15.428A18.268,18.268,0,0,1,599.736,95.5Z" transform="translate(-563.345 -79.884)"/></g><g transform="translate(5.379 5.004)"><path class="ab" d="M599.65,94.939a10.862,10.862,0,0,1-.794-2.108,19.416,19.416,0,0,0-2.894-5.244,18.685,18.685,0,0,0-2.875-2.941,18.333,18.333,0,0,0-4-2.471,17.915,17.915,0,0,0-4.973-1.431,17.882,17.882,0,0,0-2.735-.16,17.868,17.868,0,0,0-5.542.983,17.928,17.928,0,0,0-2.515,1.091,17.969,17.969,0,0,0-4.176,3.056,18.37,18.37,0,0,0-2.9,3.7,18.733,18.733,0,0,0-1.686,3.75,19.393,19.393,0,0,0-.91,5.919,10.733,10.733,0,0,1-.021,2.252,5.383,5.383,0,0,1-.524-2.223,16.9,16.9,0,0,1,.5-6.225,18.317,18.317,0,0,1,4.623-8.078,18.571,18.571,0,0,1,4.443-3.354,18.54,18.54,0,0,1,2.7-1.2,18.756,18.756,0,0,1,5.978-1.061,18.788,18.788,0,0,1,2.952.194,17.972,17.972,0,0,1,2.782.628,17.682,17.682,0,0,1,2.543.992A18.327,18.327,0,0,1,596.76,87a16.946,16.946,0,0,1,2.618,5.672A5.375,5.375,0,0,1,599.65,94.939Z" transform="translate(-563.013 -79.19)"/></g><g transform="translate(15.877 11.191)"><path class="ab" d="M585.25,108.632l.5,3.146-2.809.449-.49-3.061a13.489,13.489,0,0,1-7.353-1.127l1-3.674a11.5,11.5,0,0,0,5.769,1.121l-.751-4.691c-3.239-.258-6.888-.739-7.531-4.756-.476-2.978,1.277-5.88,5.634-7.1l-.5-3.119,2.809-.449.49,3.062a12.856,12.856,0,0,1,5.976.8l-.851,3.68a11.645,11.645,0,0,0-4.532-.773l.765,4.776c3.234.23,6.827.722,7.461,4.681C591.3,104.523,589.574,107.393,585.25,108.632Zm-4.8-11.966-.64-3.988c-1.434.575-1.893,1.484-1.745,2.412C578.226,96.072,579.155,96.472,580.454,96.667Zm5.915,6c-.158-.983-1.057-1.385-2.333-1.615l.62,3.876C586.012,104.391,586.513,103.562,586.369,102.662Z" transform="translate(-573.507 -85.375)"/></g></g></g></g></svg>