<svg xmlns="http://www.w3.org/2000/svg" width="285.917" height="157.409" viewBox="0 0 285.917 157.409"><defs><style>.a{fill:#d3ebfa;}.a,.aa,.ab,.ac,.ad,.ae,.ai,.ao,.ap,.aq,.b,.c,.d,.e,.f,.h,.i,.j,.k,.n,.o,.p,.q,.r,.s,.t,.u,.v,.w,.x,.y,.z{fill-rule:evenodd;}.b{fill:#839eb6;}.c{fill:#89bbe6;}.d{fill:#b6daf4;}.e{fill:#f2e9e4;}.f{fill:#a66d58;}.g,.j{fill:#fff;}.at,.h{fill:#d9a171;}.i{fill:#344154;}.k,.l{fill:#efeef8;}.m,.n{fill:#80bbe7;}.o{fill:#e98daf;}.p{fill:#f3c6d4;}.q{fill:#0e0226;}.r{fill:#1a0f44;}.s{fill:#4c708f;}.t{fill:#428fcd;}.u{fill:#5d6776;}.v{fill:#858d98;}.w{fill:#27313f;}.x{fill:#ed7792;}.y{fill:#6595bf;}.z{fill:#1a212a;}.aa{fill:#674f9b;}.ab{fill:#84aacc;}.ac{fill:#1b7fc2;}.ad{fill:#201049;}.ae{fill:#f2bbc9;}.af,.ao{fill:#f9b532;}.ag,.ap{fill:#f59f3a;}.ah,.aq{fill:#fff2d1;}.ai{fill:#fcc749;}.aj{fill:#f18d3d;}.ak{fill:#ee7e40;}.al{fill:#f2bcc2;}.am{fill:#f2b2a5;}.an{fill:#f39a4c;}.ar{fill:#e6e6e6;}.as{fill:#263238;}</style></defs><g transform="translate(-1029.596 -1535.431)"><g transform="translate(1046.51 1535.431)"><path class="a" d="M937.053,587.326h44.436a5.885,5.885,0,0,1,5.868,5.868v41.4a.655.655,0,0,1-1.118.463l-10-10H937.053a5.886,5.886,0,0,1-5.869-5.868V593.194A5.886,5.886,0,0,1,937.053,587.326Z" transform="translate(-863.873 -585.062)"/><g transform="translate(112.029 37.801)"><path class="b" d="M1035.364,645.606c11.036-3.476,11.43,8.615,5.74,17.509-5.395,8.434-29.082,34.613-34.445,48.077l-2.907-1.548C1005.323,689.553,1021.237,650.056,1035.364,645.606Z" transform="translate(-1003.752 -644.995)"/><path class="c" d="M1005.487,713.151c6.763-29.384,34.442-60.24,34.535-60.346a.466.466,0,0,1,.7.619c-.094.1-27.806,31-34.39,60.174Z" transform="translate(-1004.418 -647.933)"/></g><g transform="translate(110.716 56.536)"><path class="d" d="M1040.68,675.514c10.937-1.391,9.261,10.014,2.418,17.393-5.67,6.114-26.744,22.577-36.842,34.452l-4.634-1.748C1008.387,706.485,1027.769,677.155,1040.68,675.514Z" transform="translate(-1001.622 -675.397)"/><path class="b" d="M1004.369,729.172c12.7-24.527,40.288-45.984,40.388-46.063a.444.444,0,0,1,.547.7c-.1.078-27.513,21.4-40.112,45.674Z" transform="translate(-1002.676 -678.321)"/></g><path class="a" d="M1197.984,720.085Zm2.426-9.238a4.668,4.668,0,1,1-1.367,3.3,4.655,4.655,0,0,1,1.367-3.3Zm1.008-4.626a8.235,8.235,0,0,0-3.433,1.989.286.286,0,0,1-.342.041L1195.474,707l-.012-.007a.542.542,0,0,0-.723.2l-.009.014-1.526,2.643a.543.543,0,0,0,.2.735l.015.009,2.151,1.242a.284.284,0,0,1,.135.316h0a8.145,8.145,0,0,0-.182.986,8.262,8.262,0,0,0,.182,3,.288.288,0,0,1-.152.326l-2.15,1.242h0a.542.542,0,0,0-.2.735l1.535,2.658h0a.54.54,0,0,0,.734.2l.017-.008,2.154-1.244a.289.289,0,0,1,.341.041,8.244,8.244,0,0,0,1.6,1.21,8.159,8.159,0,0,0,1.841.783.287.287,0,0,1,.208.276v2.5a.54.54,0,0,0,.537.537h3.07a.54.54,0,0,0,.536-.537v-2.5a.288.288,0,0,1,.221-.279,8.233,8.233,0,0,0,3.434-1.989.286.286,0,0,1,.356-.032l2.154,1.243a.541.541,0,0,0,.734-.2l.009-.014,1.526-2.644h0a.543.543,0,0,0-.2-.734l-2.167-1.251a.288.288,0,0,1-.136-.317h0a8.109,8.109,0,0,0,.181-.985,8.4,8.4,0,0,0,0-2.011,8.156,8.156,0,0,0-.181-.985.287.287,0,0,1,.152-.325l2.151-1.242a.544.544,0,0,0,.2-.734l-.009-.016-1.526-2.643h0a.541.541,0,0,0-.734-.2h0l-2.168,1.252a.287.287,0,0,1-.348-.047,8.305,8.305,0,0,0-1.6-1.2,8.221,8.221,0,0,0-1.841-.783.287.287,0,0,1-.209-.276v-2.5a.539.539,0,0,0-.536-.536h-3.07a.539.539,0,0,0-.537.536v2.5A.287.287,0,0,1,1201.418,706.221Z" transform="translate(-964.403 -629.418)"/><path class="a" d="M1219.138,648.741a6.942,6.942,0,1,1-1.507,2.256,6.953,6.953,0,0,1,1.507-2.256Zm2.5-.914a6.339,6.339,0,1,0,2.411-.476,6.294,6.294,0,0,0-2.411.476Zm-.768-5.11a11.349,11.349,0,0,0-2.508,1.07,11.425,11.425,0,0,0-2.215,1.67.724.724,0,0,1-.868.105c-1.02-.589-2.092-1.172-3.091-1.785a.42.42,0,0,0-.15-.046.466.466,0,0,0-.171.013.451.451,0,0,0-.156.076.441.441,0,0,0-.112.128c-.744,1.125-1.49,2.578-2.178,3.771a.421.421,0,0,0-.054.16.44.44,0,0,0,.014.176.435.435,0,0,0,.075.156.43.43,0,0,0,.129.113c.917.606,2.1,1.213,3.071,1.775a.729.729,0,0,1,.353.5l.063.021-.072.286q-.083.338-.146.675t-.1.685c-.029.232-.05.463-.063.69s-.021.455-.021.7.007.476.021.7.034.459.063.691.064.467.1.685.091.45.146.675a.723.723,0,0,1-.375.82l-2.719,1.571h0l-.322.186a.43.43,0,0,0-.2.269.436.436,0,0,0-.014.175.421.421,0,0,0,.054.16l2.014,3.489h0l.164.282a.422.422,0,0,0,.112.128.45.45,0,0,0,.156.076.468.468,0,0,0,.175.013.439.439,0,0,0,.159-.054c.974-.613,2.073-1.2,3.079-1.777a.725.725,0,0,1,.865.1h0a11.3,11.3,0,0,0,1.058.9,11.278,11.278,0,0,0,3.7,1.846.727.727,0,0,1,.527.7v3.549a.421.421,0,0,0,.033.167.459.459,0,0,0,.24.24.438.438,0,0,0,.167.033h4.355a.441.441,0,0,0,.168-.033.436.436,0,0,0,.143-.1.463.463,0,0,0,.1-.144.436.436,0,0,0,.033-.167v-3.549a.725.725,0,0,1,.158-.451.733.733,0,0,1,.4-.259,10.914,10.914,0,0,0,1.279-.455,11.119,11.119,0,0,0,1.229-.614,11.467,11.467,0,0,0,2.215-1.669.728.728,0,0,1,.9-.083l3.039,1.754a.423.423,0,0,0,.161.054.46.46,0,0,0,.176-.013.453.453,0,0,0,.156-.076.436.436,0,0,0,.112-.128c.722-1.259,1.455-2.512,2.178-3.771a.426.426,0,0,0,.053-.16.451.451,0,0,0-.013-.174.441.441,0,0,0-.075-.157.413.413,0,0,0-.126-.112l-3.074-1.775a.713.713,0,0,1-.306-.344.6.6,0,0,1-.039-.116l-.081-.017.081-.326c.055-.225.1-.45.146-.675s.074-.447.1-.685.049-.464.063-.692.02-.455.02-.7-.006-.475-.02-.7-.034-.458-.063-.69-.065-.471-.1-.687-.091-.449-.146-.674a.725.725,0,0,1,.046-.481.733.733,0,0,1,.327-.34l3.044-1.757a.426.426,0,0,0,.128-.112.445.445,0,0,0,.075-.156.454.454,0,0,0,.013-.175.432.432,0,0,0-.053-.161c-.743-1.1-1.489-2.582-2.178-3.771a.453.453,0,0,0-.444-.217.426.426,0,0,0-.16.055l-3.076,1.775a.722.722,0,0,1-.461.092.734.734,0,0,1-.416-.205,11.346,11.346,0,0,0-2.207-1.661,11.2,11.2,0,0,0-2.539-1.078.729.729,0,0,1-.528-.7V638.46a.437.437,0,0,0-.033-.166.446.446,0,0,0-.1-.144.437.437,0,0,0-.143-.1.442.442,0,0,0-.168-.033h-4.355a.442.442,0,0,0-.44.44v3.549a.729.729,0,0,1-.561.708Zm-1.531-.134A12.017,12.017,0,0,0,1215.7,645a.085.085,0,0,1-.049.022.086.086,0,0,1-.053-.01q-1.551-.9-3.1-1.792a1.054,1.054,0,0,0-.388-.121,1.076,1.076,0,0,0-.407.03,1.087,1.087,0,0,0-.38.187,1.069,1.069,0,0,0-.277.317c-.75,1.214-1.461,2.528-2.179,3.77a1.092,1.092,0,0,0,.081,1.2,1.06,1.06,0,0,0,.317.278c.989.611,2.062,1.191,3.074,1.775a.09.09,0,0,1,.035.04.085.085,0,0,1,0,.054l-.07.287h0c-.031.139-.06.281-.087.425-.044.245-.082.487-.111.725s-.05.479-.065.728-.023.5-.023.736.007.484.023.735.037.494.065.729.067.479.112.725.1.482.153.713a.087.087,0,0,1,0,.056.09.09,0,0,1-.038.041c-1.13.6-2.276,1.313-3.393,1.958l.039.05-.034.042a1.088,1.088,0,0,0-.08,1.2l2.341,4.053.044-.026c.023.021.047.041.072.06a1.093,1.093,0,0,0,1.192.086c1.024-.544,2.077-1.2,3.087-1.783a.09.09,0,0,1,.053-.009.087.087,0,0,1,.05.023,11.964,11.964,0,0,0,5.023,2.9.086.086,0,0,1,.044.031.079.079,0,0,1,.017.052v3.549a1.091,1.091,0,0,0,.67,1,1.067,1.067,0,0,0,.413.083h4.355a1.073,1.073,0,0,0,.413-.083,1.124,1.124,0,0,0,.352-.235,1.1,1.1,0,0,0,.235-.352,1.08,1.08,0,0,0,.083-.414v-3.549a.089.089,0,0,1,.017-.054.086.086,0,0,1,.048-.03l.014-.005a12.043,12.043,0,0,0,1.368-.486,12.025,12.025,0,0,0,2.522-1.459,11.935,11.935,0,0,0,1.116-.953.087.087,0,0,1,.05-.024.091.091,0,0,1,.056.014l3.074,1.774a1.071,1.071,0,0,0,.4.135,1.115,1.115,0,0,0,.422-.028,1.087,1.087,0,0,0,.653-.494c.807-1.3,1.571-2.721,2.341-4.055l-.041-.024c.007-.035.014-.068.017-.1a1.079,1.079,0,0,0-.214-.8,1.071,1.071,0,0,0-.316-.279l-3.074-1.775a.087.087,0,0,1-.035-.039.1.1,0,0,1,0-.056l.08-.325h0c.027-.126.052-.255.077-.385q.067-.369.112-.726c.028-.235.051-.479.066-.729s.023-.5.023-.735-.008-.484-.023-.735-.037-.494-.066-.731-.066-.477-.112-.725-.1-.481-.153-.711a.089.089,0,0,1,.005-.057.091.091,0,0,1,.039-.04l3.071-1.773a1.06,1.06,0,0,0,.316-.279,1.08,1.08,0,0,0,.214-.8,1.05,1.05,0,0,0-.129-.391c-.731-1.356-1.57-2.722-2.344-4.063l-.044.026c-.024-.021-.048-.041-.073-.06a1.079,1.079,0,0,0-.379-.187,1.112,1.112,0,0,0-.422-.028,1.063,1.063,0,0,0-.4.133l-.228.131v0l-2.851,1.645a.087.087,0,0,1-.055.01.078.078,0,0,1-.048-.024l-.008-.007a12.1,12.1,0,0,0-2.33-1.754,11.9,11.9,0,0,0-2.686-1.141.091.091,0,0,1-.044-.03.082.082,0,0,1-.017-.052V638.46a1.085,1.085,0,0,0-.319-.765,1.11,1.11,0,0,0-.351-.235,1.073,1.073,0,0,0-.413-.083h-4.355a1.067,1.067,0,0,0-.413.083,1.12,1.12,0,0,0-.352.235,1.08,1.08,0,0,0-.318.765v3.549a.093.093,0,0,1-.017.054.085.085,0,0,1-.048.029l-.014,0A12.017,12.017,0,0,0,1219.339,642.584Z" transform="translate(-970.385 -604.27)"/><g transform="translate(70.281 0)"><path class="e" d="M941.872,583.653h44.437a5.885,5.885,0,0,1,5.868,5.869v41.4a.655.655,0,0,1-1.118.464l-10-10H941.872A5.886,5.886,0,0,1,936,615.513V589.522A5.886,5.886,0,0,1,941.872,583.653Z" transform="translate(-936.004 -583.653)"/><g transform="translate(8.639 4.805)"><path class="f" d="M951.934,618.688h23.051a1.915,1.915,0,0,0,1.91-1.909v-17.5a1.915,1.915,0,0,0-1.91-1.909h-.937v-.889a.527.527,0,0,0-.526-.526h-6.965a.527.527,0,0,0-.526.526v.889h-14.1a1.915,1.915,0,0,0-1.91,1.909v17.5A1.915,1.915,0,0,0,951.934,618.688Z" transform="translate(-950.024 -593.18)"/><path class="g" d="M2.525,0H15.153a2.525,2.525,0,0,1,2.525,2.525v12.93a2.524,2.524,0,0,1-2.524,2.524H2.524A2.524,2.524,0,0,1,0,15.454V2.525A2.525,2.525,0,0,1,2.525,0Z" transform="translate(1.874 7.531)"/><path class="h" d="M956.081,620.065h21.284a3.363,3.363,0,0,0,2.76-1.909l6.709-15.061c.468-1.05-.009-1.909-1.059-1.909h-1.118l.421-.945c.171-.383,0-.7-.386-.7h-7.769a1.229,1.229,0,0,0-1.008.7l-.421.945h-11a3.364,3.364,0,0,0-2.76,1.909l-6.709,15.061C954.554,619.206,955.031,620.065,956.081,620.065Z" transform="translate(-951.873 -594.556)"/><g transform="translate(12.833 8.938)"><path class="i" d="M973.021,608.127a7.415,7.415,0,1,1-2.172,5.243,7.392,7.392,0,0,1,2.172-5.243Zm5.243-1.11a6.352,6.352,0,1,0,4.492,1.86A6.333,6.333,0,0,0,978.263,607.017Z" transform="translate(-970.849 -605.955)"/><path class="i" d="M990.074,625.931a.531.531,0,0,1,.75-.75l1.755,1.754a.531.531,0,0,1-.751.751Z" transform="translate(-978.167 -613.273)"/><path class="i" d="M992.941,629.549a1.062,1.062,0,0,1,1.5-1.5l5.656,5.656a1.062,1.062,0,0,1-1.5,1.5Z" transform="translate(-979.208 -614.314)"/><path class="j" d="M982.881,611.668a.351.351,0,0,1,.5-.5,5.868,5.868,0,0,1,1.721,4.16h0a5.9,5.9,0,0,1-.229,1.629.351.351,0,0,1-.675-.192,5.164,5.164,0,0,0,.2-1.437h0a5.161,5.161,0,0,0-1.519-3.664Zm.7,6.464a.35.35,0,1,1,.589.378,5.733,5.733,0,0,1-.369.51,5.861,5.861,0,0,1-.422.471.351.351,0,0,1-.5-.5,5.179,5.179,0,0,0,.373-.413,5.075,5.075,0,0,0,.325-.451Zm-8.026.864a.351.351,0,1,1-.5.5,5.876,5.876,0,0,1-1.723-4.16,5.905,5.905,0,0,1,.394-2.116.349.349,0,0,1,.652.25,5.173,5.173,0,0,0,1.173,5.53Zm-.543-6.692a.349.349,0,1,1-.567-.408c.094-.13.191-.255.293-.374l.017-.018c.106-.123.208-.234.305-.332a.351.351,0,0,1,.5.5q-.155.155-.271.289l-.016.019C975.174,612.085,975.088,612.2,975.009,612.3Z" transform="translate(-971.802 -607.918)"/></g><path class="k" d="M988.984,591.451h16.759a.39.39,0,0,1,.389.389h0a.39.39,0,0,1-.389.389H988.984a.39.39,0,0,1-.389-.389h0A.39.39,0,0,1,988.984,591.451Z" transform="translate(-964.826 -591.451)"/><path class="k" d="M988.984,595.41h16.759a.39.39,0,0,1,.389.388h0a.39.39,0,0,1-.389.389H988.984a.39.39,0,0,1-.389-.389h0A.39.39,0,0,1,988.984,595.41Z" transform="translate(-964.826 -592.97)"/><path class="k" d="M1011.045,599.77h3.164a.39.39,0,0,1,.389.389h0a.39.39,0,0,1-.389.389h-3.164a.39.39,0,0,1-.389-.389h0A.39.39,0,0,1,1011.045,599.77Z" transform="translate(-973.293 -594.643)"/><path class="k" d="M1011.045,604.245h3.164a.39.39,0,0,1,.389.389h0a.39.39,0,0,1-.389.389h-3.164a.39.39,0,0,1-.389-.389h0A.39.39,0,0,1,1011.045,604.245Z" transform="translate(-973.293 -596.361)"/><path class="k" d="M1011.045,608.72h3.164a.39.39,0,0,1,.389.389h0a.39.39,0,0,1-.389.389h-3.164a.39.39,0,0,1-.389-.389h0A.39.39,0,0,1,1011.045,608.72Z" transform="translate(-973.293 -598.078)"/><path class="k" d="M1011.045,613.2h3.164a.39.39,0,0,1,.389.389h0a.389.389,0,0,1-.389.388h-3.164a.389.389,0,0,1-.389-.388h0A.39.39,0,0,1,1011.045,613.2Z" transform="translate(-973.293 -599.796)"/><path class="k" d="M1011.045,617.671h3.164a.39.39,0,0,1,.389.389h0a.389.389,0,0,1-.389.388h-3.164a.389.389,0,0,1-.389-.388h0A.39.39,0,0,1,1011.045,617.671Z" transform="translate(-973.293 -601.513)"/><path class="k" d="M1011.045,622.146h3.164a.39.39,0,0,1,.389.389h0a.39.39,0,0,1-.389.389h-3.164a.39.39,0,0,1-.389-.389h0A.39.39,0,0,1,1011.045,622.146Z" transform="translate(-973.293 -603.231)"/><rect class="l" width="8.804" height="0.778" rx="0.389" transform="translate(32.501 21.673)"/><path class="k" d="M1004.446,622.146h2.369a.39.39,0,0,1,.39.389h0a.39.39,0,0,1-.39.389h-2.369a.39.39,0,0,1-.389-.389h0A.39.39,0,0,1,1004.446,622.146Z" transform="translate(-970.76 -603.231)"/><path class="k" d="M1006.168,617.671h1.194a.39.39,0,0,1,.389.389h0a.389.389,0,0,1-.389.388h-1.194a.389.389,0,0,1-.389-.388h0A.39.39,0,0,1,1006.168,617.671Z" transform="translate(-971.421 -601.513)"/><path class="k" d="M1007.518,613.2h.873a.391.391,0,0,1,.389.389h0a.39.39,0,0,1-.389.388h-.873a.389.389,0,0,1-.389-.388h0A.39.39,0,0,1,1007.518,613.2Z" transform="translate(-971.939 -599.796)"/></g></g><g transform="translate(80.981 48.043)"><path class="m" d="M1.013,0h1.1A1.013,1.013,0,0,1,3.124,1.013v1.1A1.014,1.014,0,0,1,2.111,3.124h-1.1A1.014,1.014,0,0,1,0,2.111v-1.1A1.013,1.013,0,0,1,1.013,0Z"/><path class="g" d="M1.013,0h1.1A1.013,1.013,0,0,1,3.124,1.013v1.1A1.014,1.014,0,0,1,2.11,3.124h-1.1A1.013,1.013,0,0,1,0,2.111v-1.1A1.013,1.013,0,0,1,1.013,0Z" transform="translate(6.405)"/><path class="m" d="M1.013,0h1.1A1.013,1.013,0,0,1,3.124,1.013v1.1A1.014,1.014,0,0,1,2.11,3.124h-1.1A1.014,1.014,0,0,1,0,2.111v-1.1A1.013,1.013,0,0,1,1.013,0Z" transform="translate(12.808)"/><path class="m" d="M1.013,0h1.1A1.013,1.013,0,0,1,3.124,1.013v1.1A1.014,1.014,0,0,1,2.11,3.124h-1.1A1.014,1.014,0,0,1,0,2.111v-1.1A1.013,1.013,0,0,1,1.013,0Z" transform="translate(19.213)"/></g><path class="n" d="M870.9,616.118c-.237,0-.429-.274-.429-.612s.192-.612.429-.612h20.067c.237,0,.428.274.428.612s-.192.612-.428.612Zm-2.721-1.224c.237,0,.428.274.428.612s-.192.612-.428.612H866.5c-.237,0-.428-.274-.428-.612s.192-.612.428-.612Z" transform="translate(-838.886 -595.642)"/><path class="n" d="M911.2,654.09a.259.259,0,0,1,.518,0v1.165a.259.259,0,0,1-.518,0V654.09Zm-1.764.945a.259.259,0,0,1,.366-.366l.823.823a.259.259,0,1,1-.367.366l-.823-.823Zm-.579,1.916a.259.259,0,0,1,0-.518h1.165a.259.259,0,0,1,0,.518Zm.945,1.764a.259.259,0,0,1-.366-.366l.823-.823a.259.259,0,0,1,.367.366l-.823.823Zm1.916.579a.259.259,0,1,1-.518,0V658.13a.259.259,0,0,1,.518,0v1.164Zm1.764-.945a.259.259,0,1,1-.366.366l-.823-.823a.259.259,0,0,1,.365-.366l.823.823Zm.579-1.916a.259.259,0,0,1,0,.518H912.9a.259.259,0,1,1,0-.518Zm-.945-1.764a.259.259,0,0,1,.366.366l-.823.823a.259.259,0,0,1-.365-.366Z" transform="translate(-855.205 -610.585)"/><path class="n" d="M1158.523,603.664a.259.259,0,0,1,.518,0v1.164a.259.259,0,0,1-.518,0v-1.164Zm-1.764.945a.259.259,0,1,1,.366-.366l.823.823a.259.259,0,0,1-.367.366l-.823-.823Zm-.579,1.915a.259.259,0,1,1,0-.517h1.164a.259.259,0,1,1,0,.517Zm.945,1.764a.259.259,0,0,1-.366-.365l.823-.824a.259.259,0,0,1,.367.367l-.823.823Zm1.916.579a.259.259,0,0,1-.518,0V607.7a.259.259,0,0,1,.518,0v1.165Zm1.764-.945a.259.259,0,1,1-.367.365l-.823-.823a.259.259,0,0,1,.367-.367l.823.824Zm.579-1.916a.259.259,0,1,1,0,.517h-1.164a.259.259,0,1,1,0-.517Zm-.945-1.764a.259.259,0,0,1,.367.366l-.823.823a.259.259,0,0,1-.367-.366Z" transform="translate(-950.121 -591.233)"/><path class="n" d="M1190.651,795.522a.259.259,0,1,1,.518,0v1.164a.259.259,0,1,1-.518,0v-1.164Zm-1.764.945a.259.259,0,0,1,.366-.367l.823.823a.259.259,0,0,1-.366.366l-.824-.823Zm-.579,1.915a.259.259,0,1,1,0-.518h1.164a.259.259,0,0,1,0,.518Zm.945,1.764a.259.259,0,0,1-.366-.367l.824-.823a.259.259,0,0,1,.366.366l-.823.823Zm1.916.579a.259.259,0,0,1-.518,0v-1.164a.259.259,0,1,1,.518,0v1.164Zm1.764-.945a.259.259,0,0,1-.366.367l-.823-.823a.259.259,0,0,1,.366-.366l.823.823Zm.579-1.915a.259.259,0,0,1,0,.518h-1.164a.259.259,0,0,1,0-.518Zm-.945-1.764a.259.259,0,0,1,.366.367l-.823.823a.259.259,0,0,1-.366-.366Z" transform="translate(-962.451 -664.862)"/><path class="n" d="M829.871,728.819a.259.259,0,1,1,.518,0v1.164a.259.259,0,1,1-.518,0v-1.164Zm-1.764.945a.259.259,0,0,1,.366-.367l.823.823a.259.259,0,0,1-.366.366l-.823-.823Zm-.579,1.916a.259.259,0,0,1,0-.518h1.164a.259.259,0,1,1,0,.518Zm.945,1.764a.259.259,0,0,1-.366-.366l.823-.823a.259.259,0,0,1,.366.365l-.823.823Zm1.916.579a.259.259,0,0,1-.518,0v-1.165a.259.259,0,0,1,.518,0v1.165Zm1.764-.945a.259.259,0,0,1-.365.366l-.824-.823a.259.259,0,1,1,.366-.365l.823.823Zm.579-1.916a.259.259,0,0,1,0,.518h-1.164a.259.259,0,0,1,0-.518Zm-.945-1.764a.259.259,0,0,1,.365.367l-.823.823a.259.259,0,0,1-.366-.366Z" transform="translate(-823.993 -639.264)"/><path class="n" d="M1244.262,768.4a.259.259,0,1,1,.517,0v1.164a.259.259,0,1,1-.517,0V768.4Zm-1.764.945a.259.259,0,0,1,.365-.366l.824.823a.259.259,0,1,1-.366.367l-.823-.823Zm-.579,1.915a.259.259,0,1,1,0-.518h1.164a.259.259,0,0,1,0,.518Zm.945,1.764a.259.259,0,0,1-.365-.366l.823-.823a.259.259,0,0,1,.366.366l-.824.823Zm1.916.579a.259.259,0,1,1-.517,0v-1.163a.259.259,0,1,1,.517,0v1.163Zm1.764-.945a.259.259,0,0,1-.365.366l-.824-.823a.259.259,0,0,1,.366-.366l.823.823Zm.579-1.916a.259.259,0,0,1,0,.518h-1.164a.259.259,0,1,1,0-.518Zm-.945-1.764a.259.259,0,0,1,.365.366l-.823.823a.259.259,0,0,1-.366-.367Z" transform="translate(-983.025 -654.455)"/><g transform="translate(243.514 12.971)"><rect class="m" width="3.124" height="3.124" rx="1.013"/><rect class="g" width="3.124" height="3.124" rx="1.013" transform="translate(6.404)"/><rect class="m" width="3.124" height="3.124" rx="1.013" transform="translate(12.809)"/><rect class="m" width="3.124" height="3.124" rx="1.013" transform="translate(19.213)"/></g><path class="a" d="M826.8,639.679Zm2.427-9.239a4.666,4.666,0,1,1-1.367,3.3,4.653,4.653,0,0,1,1.367-3.3Zm1.008-4.626A8.23,8.23,0,0,0,826.8,627.8a.287.287,0,0,1-.342.042l-2.168-1.253-.012-.007a.542.542,0,0,0-.722.2l-.009.015-1.526,2.642a.542.542,0,0,0,.2.735l.015.009,2.151,1.242a.286.286,0,0,1,.135.316h0a8.105,8.105,0,0,0-.181.986,8.315,8.315,0,0,0,0,2.011,8.121,8.121,0,0,0,.181.985.287.287,0,0,1-.151.325l-2.151,1.242h0a.541.541,0,0,0-.2.735l1.534,2.658h0a.54.54,0,0,0,.734.2l.016-.009,2.154-1.244a.287.287,0,0,1,.341.041,8.307,8.307,0,0,0,1.6,1.21,8.211,8.211,0,0,0,1.841.782.287.287,0,0,1,.208.276v2.5a.54.54,0,0,0,.537.537h3.069a.541.541,0,0,0,.537-.537v-2.5a.287.287,0,0,1,.22-.279,8.2,8.2,0,0,0,1.83-.779,8.291,8.291,0,0,0,1.6-1.21.287.287,0,0,1,.356-.033l2.154,1.244a.54.54,0,0,0,.734-.2l.009-.015,1.526-2.644h0a.541.541,0,0,0-.2-.734l-2.167-1.252a.285.285,0,0,1-.136-.315h0a8.153,8.153,0,0,0,.181-.986,8.315,8.315,0,0,0,0-2.011,8.105,8.105,0,0,0-.181-.986.288.288,0,0,1,.151-.325l2.151-1.242a.542.542,0,0,0,.2-.734l-.009-.016L841.5,626.79h0a.541.541,0,0,0-.734-.2h0l-2.169,1.253a.287.287,0,0,1-.348-.048,8.308,8.308,0,0,0-1.6-1.2,8.192,8.192,0,0,0-1.841-.782.287.287,0,0,1-.208-.276v-2.5a.54.54,0,0,0-.537-.537H831a.538.538,0,0,0-.537.537v2.5A.286.286,0,0,1,830.239,625.814Z" transform="translate(-821.954 -598.56)"/><g transform="translate(133.745 0.05)"><path class="o" d="M1066.553,703.282c-2.725,2.483-3.151,2.778-3.151,2.778s-1.8,3.418-1.107,3.414a1.932,1.932,0,0,0,1.245-.628s.675.861,1.282.5a8.578,8.578,0,0,1,.925-.494s.7.69,1.269.24,3.314-3.407,3.314-3.407l3.621-2.374-1.444-1.3Z" transform="translate(-1047.875 -629.126)"/><path class="p" d="M1135.873,821.617c-.056.382-.5,2.305-.494,2.353.079.567.218,1.7.218,1.7a4.92,4.92,0,0,1-2.137,1.46c-1.028.185-5.7.394-5.756.139A12.845,12.845,0,0,1,1128.87,825a5.378,5.378,0,0,0,1.5-3.684C1130.551,818.744,1135.873,821.617,1135.873,821.617Z" transform="translate(-1073.037 -674.5)"/><path class="q" d="M1129.589,827.726l.572-.2a3.961,3.961,0,0,0,2.926.126,3.5,3.5,0,0,0,2.072-1.472.308.308,0,0,1,.255-.185h.384a.824.824,0,0,1,.753.484,9.186,9.186,0,0,1,.042,4.376c-.5,1.412-1.2,1.226-1.2,1.226a9.274,9.274,0,0,0-4.664-.159c-1.879.663-3.6,1.353-3.6,1.353S1127.217,829.529,1129.589,827.726Z" transform="translate(-1072.817 -676.704)"/><path class="r" d="M1110.411,832.845l-.206-.608V831.5c0-.277.115-1.108.919-1.108h3.079c.714,0,4.574-1.962,7.54-4.375a.408.408,0,0,1,.521-.066c.311.179,1.257.935,1.353,1.014a.609.609,0,0,1,.051.518c-.057.112-2.8,5.549-2.8,5.549S1112.782,834.09,1110.411,832.845Z" transform="translate(-1066.322 -676.663)"/><path class="q" d="M1110.092,835.3a.508.508,0,0,0-.182.319v.592a1.16,1.16,0,0,0,1.154.754h8.545a7.3,7.3,0,0,0,3.05-.665,17.633,17.633,0,0,1,2.2-.805s.2-.069.2.281v.679c0,.169-.1.631.593.631h4.157c.316,0,.679-.18.679-.827V834.6c0-.4-.245-.722-.508-.722h-3.2a8.913,8.913,0,0,0-4.076,1.114,10.9,10.9,0,0,1-4.926,1.019h-4.781A5.424,5.424,0,0,1,1110.092,835.3Z" transform="translate(-1066.209 -679.731)"/><path class="p" d="M1165.281,821.617c-.056.382-.5,2.305-.494,2.353.079.567.218,1.7.218,1.7a4.919,4.919,0,0,1-2.137,1.46c-1.029.185-5.7.394-5.756.139a12.8,12.8,0,0,1,1.167-2.271,5.378,5.378,0,0,0,1.5-3.684C1159.96,818.744,1165.281,821.617,1165.281,821.617Z" transform="translate(-1084.323 -674.5)"/><path class="q" d="M1159,827.726l.572-.2a3.961,3.961,0,0,0,2.926.126,3.492,3.492,0,0,0,2.071-1.472.31.31,0,0,1,.255-.185h.385a.824.824,0,0,1,.753.484,9.18,9.18,0,0,1,.042,4.376c-.5,1.412-1.2,1.226-1.2,1.226a9.268,9.268,0,0,0-4.663-.159c-1.88.663-3.6,1.353-3.6,1.353S1156.626,829.529,1159,827.726Z" transform="translate(-1084.103 -676.704)"/><path class="r" d="M1139.82,832.845l-.207-.608V831.5c0-.277.116-1.108.919-1.108h3.079c.713,0,4.573-1.962,7.539-4.375a.407.407,0,0,1,.52-.066c.312.179,1.257.935,1.353,1.014a.612.612,0,0,1,.051.518l-2.8,5.549S1142.191,834.09,1139.82,832.845Z" transform="translate(-1077.608 -676.663)"/><path class="q" d="M1139.5,835.3a.509.509,0,0,0-.181.319v.592a1.159,1.159,0,0,0,1.154.754h8.544a7.3,7.3,0,0,0,3.051-.665,17.671,17.671,0,0,1,2.2-.805s.2-.069.2.281v.679c0,.169-.1.631.593.631h4.157c.316,0,.678-.18.678-.827V834.6c0-.4-.244-.722-.507-.722h-3.2a8.917,8.917,0,0,0-4.075,1.114,10.9,10.9,0,0,1-4.925,1.019h-4.782A5.428,5.428,0,0,1,1139.5,835.3Z" transform="translate(-1077.496 -679.731)"/><path class="s" d="M1087.388,634.052s-1.926,3.232-.718,10.581,9.549,35.948,3.884,50.872a1.349,1.349,0,0,0,.624,1.587c.973.564,14.729,2.951,24.786-1.333S1108.359,636.232,1087.388,634.052Z" transform="translate(-1057.137 -603.044)"/><path class="i" d="M1126.537,762.522a8.724,8.724,0,0,0,6.064.541,2.011,2.011,0,0,0,1.187-1.366c.216-1.007,7.337-60.945,8.2-71.586s-5.638-17.137-15.6-23.968-1.624-1.064-2.4-1.5a90.856,90.856,0,0,1-5.369,15.022l-.023,4.507a3.682,3.682,0,0,0,.227.892c3.035,12.063,3.393,21.689,3.849,33.824.019.354-.178-9.109.041,1.06s2.524,39.411,2.668,40.562S1126.033,762.414,1126.537,762.522Z" transform="translate(-1069.544 -614.07)"/><path class="i" d="M1090.641,643.6l2.878,4.672s12.2,20.954,13.889,23.938,8.919,2.56,8.919,2.56l-15.442-44.883a67.339,67.339,0,0,0-7.485-.809c-2.093.044-3.436,3.246-3.436,3.246Z" transform="translate(-1058.555 -601.134)"/><path class="t" d="M1087.388,634.052s-1.926,3.232-.718,10.581c.934,5.679,6.126,24.052,5.822,39h0c2.656-27.2-2.239-44.407-3.948-49.4C1088.162,634.157,1087.776,634.092,1087.388,634.052Z" transform="translate(-1057.137 -603.044)"/><path class="u" d="M1146.175,762.114s2.093,1.17,5.9.344a2.012,2.012,0,0,0,1.186-1.366c.216-1.008,3.066-21.1,3.928-31.744s8.095-50.56-11-63.653-23.206,9.5-23.206,9.5,17.81,7.5,18.241,27.483,3.649,56.275,3.793,57.426S1145.671,762.006,1146.175,762.114Z" transform="translate(-1071.229 -613.621)"/><path class="v" d="M1158.525,773.477a11.043,11.043,0,0,0,4.335-.147,2.011,2.011,0,0,0,1.186-1.365c.216-1.007,3.066-21.1,3.928-31.744.655-8.073,4.973-33-1.319-50.278-.086.06-9.913,6.947-15.569,16.608a31.243,31.243,0,0,1,.927,7c.073,3.373.226,7.21.429,11.265,2.426-2.6,5.65-6.108,7.287-8.073,2.828-3.393,6.01-2.192,7.142-.565s-3.183,42.567-3.748,47.8C1162.725,767.657,1160.066,771.515,1158.525,773.477Z" transform="translate(-1082.011 -624.494)"/><path class="p" d="M1069.97,611.091c.03,0,.113.35.465.942l-1.734,1.824a15.391,15.391,0,0,0,1.077,1.2,3.745,3.745,0,0,0-1.9,1.374s-1.86,5.731-1.32,6.287l-.058.07c-3.351,3.956-5.407,2.646-5.825,2.291s-2.477-2.242-2.7-2.286-1.016.895-1.552.441a56.057,56.057,0,0,1-5.971-8.108c-2.833-4.473-1.234-9.624-1.234-9.624,6.906-5.607,12.644,4.952,13.339,3.18s2.676-1.936,3.774.031C1066.489,608.985,1069.93,610.8,1069.97,611.091Z" transform="translate(-1042.746 -591.451)"/><path class="o" d="M1069.97,611.183c.03,0,.114.35.465.942l-1.733,1.824a15.387,15.387,0,0,0,1.077,1.2,4.312,4.312,0,0,0-.561.237,1.408,1.408,0,0,0-.176-.679c-.471-.543-1.409-1.708-1.409-1.708a1.043,1.043,0,0,1-1.56-.838c-.248-1.449-1.361-2.864-2.528-2.634s-.5,1.748-.5,1.748l2.759,3.98-.459,4.738s-4.314.778-3.429-1.06-1.38-3.254-4-6.223-4.066-2.652-4.738-2.192c-.419.287-2.365,1.592-3.77,2.533a12.746,12.746,0,0,1-.563-5.47,34.156,34.156,0,0,1,5.912-3.5c4.231.93,7.3,5.956,7.8,4.69.694-1.772,2.676-1.936,3.775.031C1066.489,609.077,1069.93,610.889,1069.97,611.183Z" transform="translate(-1042.746 -591.543)"/><path class="p" d="M1081.768,615.595s1.345.089,2.369.134,1.866,6.02,1.866,6.02l-1.745,2.653-.407.619-1.321,2.009-.125-.62s-1.383-1.072-2.254.134-3.051-2.024-3.051-2.024S1076.7,617.436,1081.768,615.595Z" transform="translate(-1053.615 -595.961)"/><path class="o" d="M1082.861,615.595s1.345.089,2.369.134,1.866,6.02,1.866,6.02l-1.745,2.653-.407.619-1.321,2.009-.125-.62s-1.383-1.072-2.254.134a.64.64,0,0,1-.839.194l.6-2.488s.471-4.583,0-5.126c-.287-.331-.746-.892-1.062-1.28A6.074,6.074,0,0,1,1082.861,615.595Z" transform="translate(-1054.708 -595.961)"/><path class="i" d="M1056.407,603.352s-3.156,1.54-5.651-3.195c0,0-3.232,3.425-5.337,4.281a1.339,1.339,0,0,1-.131.044l.131-.044a4.76,4.76,0,0,1-1.887-.4,6.735,6.735,0,0,1-3.847-3.381c-1.838-3.677.354-5.551,2.334-5.3,0,0,2.97-6.47,4.631-8.379s5.551-1.1,5.551-1.1-.566-1.662.106-2.051,4.312.331,5.727,4.55c0,0,2.829-.462,4.315.979s4.781,13.948,4.8,14.014c.072.8-.245,1.6-1.049,1.631a4.108,4.108,0,0,1-3.478-1.625s-1.046-3.733-2.885-3.169c0,0-1.564.015-.832,2.642a8.164,8.164,0,0,0,1.5,1.9,14.959,14.959,0,0,1,4.9,6.2c1.652,3.861-1.839,6.3-2.8,7.432s-2.568,2.013-3.724,1.033-3.766-3.19-4.162-3.523-.487-.7-.391-.811c0,0,1.683-1.786,2.961-3.013s2.276-2.024,2.276-3.427a4.964,4.964,0,0,0-1.321-3.946A6.131,6.131,0,0,0,1056.407,603.352Z" transform="translate(-1038.993 -583.734)"/><path class="w" d="M1050.756,600.158s-3.232,3.425-5.337,4.281a1.339,1.339,0,0,1-.131.044l.131-.044a4.76,4.76,0,0,1-1.887-.4,6.735,6.735,0,0,1-3.847-3.381c-1.838-3.677.354-5.551,2.334-5.3,0,0,2.97-6.47,4.631-8.379s5.551-1.1,5.551-1.1-.566-1.662.106-2.051,4.312.331,5.727,4.55C1058.033,588.375,1058.044,592.59,1050.756,600.158Z" transform="translate(-1038.993 -583.734)"/><path class="i" d="M1039.3,600.184c-1.067-3.068.916-4.611,2.724-4.384,0,0,11.456,2.7,13.011-10.9a6.346,6.346,0,0,1,.528.354C1055.709,590.88,1054.031,601.288,1039.3,600.184Z" transform="translate(-1038.994 -584.182)"/><path class="i" d="M1060.047,625.631h0a.734.734,0,0,1,1.032.086l.616.729a.734.734,0,0,1-.086,1.032h0a.734.734,0,0,1-1.031-.086l-.617-.73A.734.734,0,0,1,1060.047,625.631Z" transform="translate(-1046.974 -599.746)"/><path class="x" d="M1063.588,628.658a1.082,1.082,0,1,1-.127,1.525A1.082,1.082,0,0,1,1063.588,628.658Z" transform="translate(-1048.285 -600.876)"/><path class="i" d="M1059.172,623.139a.222.222,0,1,0-.1-.433,2.752,2.752,0,0,0-1.936,1.585.222.222,0,0,0,.418.152A2.3,2.3,0,0,1,1059.172,623.139Z" transform="translate(-1045.952 -598.688)"/><path class="j" d="M1088.18,696.489s-9.332,3.482-10.309,3.953-2.047-3.418-2.138-4.051.578-1.375,1.843-2.1,8.3-4.8,8.3-4.8Z" transform="translate(-1053.09 -624.319)"/><path class="i" d="M1090.347,680.483c-3.414,1.282-9.33,3.516-10.171,3.922-1.193.575-2.5-4.173-2.612-4.946s.706-1.679,2.252-2.564c.874-.5,4-2.31,6.551-3.787a7.192,7.192,0,0,0,2.62-5.075c.342-3.492,1.544-19.512,1.544-19.512l9.35,4.159,1.659,2.445s-3.506,15.167-4.881,18.693S1093.373,679.343,1090.347,680.483Z" transform="translate(-1053.792 -608.597)"/><path class="y" d="M1143.631,652.231s6.646,11.5,7.9,28.717a.813.813,0,0,1-.557.866c-.666.283-6.231.016-12.771,8.044s-16.992,15.242-22.985,14.3c0,0-.648,0-.728-1.053s-1.336-48.157-20.587-65.18a5.5,5.5,0,0,1-1.8-4.144C1092.171,631.173,1122.264,620.5,1143.631,652.231Z" transform="translate(-1059.375 -601.471)"/><path class="s" d="M1151.99,670.246l-1.394,4.667s-2.97.145-10.671-15.307c0,0-3.065-5.953-11.912-7.772l3.94-5.608s16.817,2.97,16.73,4.405S1151.99,670.246,1151.99,670.246Z" transform="translate(-1073.157 -607.717)"/><path class="i" d="M1102.787,662.8l5.55-3.728a1.467,1.467,0,0,1,1.843.235l9.7,10.719a1.035,1.035,0,0,1-.186,1.6l-5.55,3.727a1.467,1.467,0,0,1-1.843-.234l-9.7-10.72A1.034,1.034,0,0,1,1102.787,662.8Z" transform="translate(-1063.291 -612.559)"/><path class="z" d="M1101.479,663.676l5.551-3.728a1.466,1.466,0,0,1,1.842.235l9.7,10.719a1.036,1.036,0,0,1-.186,1.6l-5.551,3.727a1.468,1.468,0,0,1-1.844-.234l-9.7-10.719A1.035,1.035,0,0,1,1101.479,663.676Z" transform="translate(-1062.79 -612.896)"/><path class="aa" d="M1103.012,667.869l.894-.6a.236.236,0,0,1,.3.038l2.4,2.652a.167.167,0,0,1-.03.258l-.894.6a.236.236,0,0,1-.3-.038l-2.4-2.653A.167.167,0,0,1,1103.012,667.869Z" transform="translate(-1063.532 -615.778)"/><path class="a" d="M1104.152,668.21a.589.589,0,0,1,.76.107.447.447,0,0,1-.091.678.588.588,0,0,1-.759-.107A.446.446,0,0,1,1104.152,668.21Z" transform="translate(-1063.92 -616.117)"/><path class="a" d="M1105.643,669.879a.589.589,0,0,1,.759.107.447.447,0,0,1-.091.678.589.589,0,0,1-.759-.107A.447.447,0,0,1,1105.643,669.879Z" transform="translate(-1064.492 -616.758)"/><path class="j" d="M1105.933,670.18a.335.335,0,0,1,.431.06.254.254,0,0,1-.052.385.334.334,0,0,1-.43-.06A.254.254,0,0,1,1105.933,670.18Z" transform="translate(-1064.638 -616.889)"/><path class="j" d="M1104.42,668.486a.357.357,0,0,1,.458.064.27.27,0,0,1-.055.409.355.355,0,0,1-.457-.065A.27.27,0,0,1,1104.42,668.486Z" transform="translate(-1064.055 -616.238)"/><path class="a" d="M1107.117,671.493a.354.354,0,0,1,.457.065.269.269,0,0,1-.054.408.355.355,0,0,1-.457-.065A.269.269,0,0,1,1107.117,671.493Z" transform="translate(-1065.089 -617.392)"/><path class="i" d="M1090.1,609.16c-.113.065-2.418.663-2.806.837s-.511,1-.6,2.395-1.222,11.774-1.276,12.365a.943.943,0,0,0,.669,1.122c.512.176,6.415,2.3,6.415,2.3Z" transform="translate(-1056.809 -593.492)"/><path class="j" d="M1138.53,656.591s-8.92,5.911-9.946,6.462,1.677,3.938,2.17,4.417,1.56.367,2.99-.276,9.413-4.18,9.413-4.18Z" transform="translate(-1073.287 -611.694)"/><path class="z" d="M1143.042,650.978s-11.665,7.731-13.007,8.452,2.193,5.15,2.838,5.776,2.04.479,3.909-.361,12.313-5.467,12.313-5.467Z" transform="translate(-1073.817 -609.54)"/><path class="ab" d="M1105.265,635.136a77.813,77.813,0,0,0,12.035,1.725c6.53.4,20.089,1.3,20.928,22.956,0,0,.1.115.451-.009s9.792-8.5,11.117-12.521-6.342-18.826-10.547-20.739-12.034-3.471-20.586-12.059-20.318-7.56-20.318-7.56l-2.56,9.478S1096.954,632.684,1105.265,635.136Z" transform="translate(-1060.789 -592.621)"/><path class="y" d="M1144.283,652.278a33.33,33.33,0,0,1,2.381,11.947s.1.115.451-.009,9.792-8.5,11.117-12.521c.531-1.611-.38-4.95-1.933-8.5-.006,2.595-.348,5.469-1.644,6.9-1.819,2.008-7.124,2.24-10.372,2.178Zm4.1-20.908a4.372,4.372,0,0,0-.7-.414c-4.206-1.913-12.034-3.471-20.586-12.059-.177-.178-.356-.351-.536-.52.063.143,5.521,12.507-8.118,15.249,0,0-.884.177-.636.919S1142.884,627.868,1148.383,631.37Z" transform="translate(-1069.224 -597.029)"/><path class="ac" d="M1099.456,606.911c-.317.011-.491.026-.491.026l-1.564,5.789,2.269,15.827,1.992.82a10.162,10.162,0,0,1-.154-2.376c.177-.159,4.349-2.21,4.88-2.493a.755.755,0,0,0,.425-.795C1106.405,622.861,1100.712,609.793,1099.456,606.911Z" transform="translate(-1061.409 -592.628)"/><path class="a" d="M1092.671,606.119a1.3,1.3,0,0,0-.7.839c-.163.62.072,13.582.128,15.025s5.873,8.822,7.316,10.531a7.479,7.479,0,0,0,4.363,2.283.084.084,0,0,0,.076-.072c.008-.067-2.267-1.006-2.959-2.058s-1.894-5.553-2.034-6.21c0,0,4-1.926,4.688-2.316s.8-.707.539-1.155-6.76-15.827-7.229-16.4S1094.688,605.882,1092.671,606.119Z" transform="translate(-1059.303 -592.282)"/><path class="ad" d="M1058.825,586.829a.2.2,0,1,1-.231.327,7.805,7.805,0,0,0-5.718-.921.2.2,0,0,1-.071-.393A8.232,8.232,0,0,1,1058.825,586.829Z" transform="translate(-1044.231 -584.479)"/><path class="ad" d="M1045.343,614.609a.2.2,0,0,1,.177.359c-.012.006-3.755,1.923-6.11-2.456a.2.2,0,0,1,.353-.19C1041.933,616.356,1045.333,614.614,1045.343,614.609Z" transform="translate(-1039.144 -594.664)"/><path class="ae" d="M1121.774,666.356c-.59-.211-1.817-.879-2.142-1.041-.366-.183-3.428-.869-3.428-.869l1.645,1.828a53.481,53.481,0,0,0-6.124,3.062c-1.1.868-.411,1.279.549,1.279h.959s-.183,1.645,1.051,1.691a6.593,6.593,0,0,0,1.324,0s.457,1.371,1.464,1.234a13.524,13.524,0,0,0,4.752-1.691,7.245,7.245,0,0,0,2.162-1.547C1123.325,669.555,1121.568,667.254,1121.774,666.356Z" transform="translate(-1066.69 -614.708)"/><path class="o" d="M1121.774,667.38c-.167-.059-.384-.155-.617-.266-.1,1.81,1.3,3.25-.936,4.444-2.46,1.315-4.073.976-6.873-1.7-.13-.089-.256-.172-.38-.253a9.483,9.483,0,0,0-1.243.752c-1.1.868-.411,1.279.549,1.279h.959s-.183,1.645,1.051,1.691a6.6,6.6,0,0,0,1.324,0s.457,1.371,1.464,1.234a13.526,13.526,0,0,0,4.752-1.691,7.248,7.248,0,0,0,2.162-1.547C1123.325,670.579,1121.568,668.277,1121.774,667.38Z" transform="translate(-1066.69 -615.732)"/></g><g transform="translate(46.493 58.073)"><path class="y" d="M966.668,677.892H903.154c-3.164,0-5.753,2.165-5.753,4.811v94.408h75.021V682.7C972.422,680.057,969.833,677.892,966.668,677.892Z" transform="translate(-897.401 -677.892)"/><path class="n" d="M990.589,677.892H937.381c-2.652,0-4.821,1.814-4.821,4.03v95.188h62.85V681.922C995.41,679.706,993.241,677.892,990.589,677.892Z" transform="translate(-910.894 -677.892)"/><path class="j" d="M992.933,681.921H939.725a.985.985,0,0,0-1.057.884v95.852H993.99V682.8A.984.984,0,0,0,992.933,681.921Z" transform="translate(-913.238 -679.438)"/><path class="z" d="M971.019,681.921h14.507a1.146,1.146,0,0,1,1.231,1.028h0a1.146,1.146,0,0,1-1.231,1.029H971.019a1.147,1.147,0,0,1-1.231-1.029h0A1.147,1.147,0,0,1,971.019,681.921Z" transform="translate(-925.181 -679.438)"/><path class="z" d="M939.725,681.921h53.209a.984.984,0,0,1,1.057.884v.145H938.668V682.8A.985.985,0,0,1,939.725,681.921Z" transform="translate(-913.238 -679.438)"/><path class="z" d="M971.019,800.846h14.507a1.146,1.146,0,0,1,1.231,1.029h0a1.147,1.147,0,0,1-1.231,1.029H971.019a1.147,1.147,0,0,1-1.231-1.029h0A1.147,1.147,0,0,1,971.019,800.846Z" transform="translate(-925.181 -725.078)"/><path class="z" d="M939.725,800.846h53.209a.984.984,0,0,1,1.057.883v.147H938.668v-.147A.985.985,0,0,1,939.725,800.846Z" transform="translate(-913.238 -725.078)"/><g transform="translate(25.43 17.96)"><rect class="af" width="12.611" height="19.816" transform="translate(0)"/><rect class="ag" width="12.611" height="16.883" transform="translate(0 2.933)"/><rect class="g" width="12.611" height="15.097" transform="translate(0 4.72)"/><rect class="ah" width="12.611" height="15.097" transform="translate(0 4.72)"/><path class="ai" d="M951.28,712.63h-9.333a3.717,3.717,0,0,0-3.278,2.387V729H951.28Z" transform="translate(-938.668 -709.183)"/></g><g transform="translate(29.416 17.96)"><rect class="aj" width="8.626" height="17.518"/><rect class="ak" width="8.626" height="14.585" transform="translate(0 2.933)"/><rect class="al" width="8.626" height="12.798" transform="translate(0 4.72)"/><rect class="am" width="8.626" height="12.798" transform="translate(0 4.72)"/><rect class="an" width="8.626" height="14.071" transform="translate(0 3.447)"/></g><g transform="translate(32.685 17.96)"><path class="ao" d="M972.414,707.037H953.139a2.705,2.705,0,0,0-2.7,2.7v17.119h21.972Z" transform="translate(-950.442 -707.037)"/><path class="ap" d="M973.347,711.8H955.571a2.705,2.705,0,0,0-2.7,2.7V728.68h20.473Z" transform="translate(-951.375 -708.863)"/><path class="j" d="M954.738,729.792v-12.9a2.2,2.2,0,0,1,2.2-2.2h17.127v15.1Z" transform="translate(-952.091 -709.976)"/><path class="aq" d="M956.914,729.792l3.431-13.672a3.469,3.469,0,0,1,.767-1.424H974.9v15.1Z" transform="translate(-952.926 -709.976)"/><path class="ai" d="M976.047,712.63h-9.333a3.7,3.7,0,0,0-3.374,2.7L959.908,729h16.139Z" transform="translate(-954.075 -709.183)"/></g><g transform="translate(46.032 17.96)"><rect class="aj" width="8.626" height="17.518"/><rect class="ak" width="8.626" height="14.585" transform="translate(0 2.933)"/><rect class="al" width="8.626" height="12.798" transform="translate(0 4.72)"/><rect class="am" width="8.626" height="12.798" transform="translate(0 4.72)"/><rect class="an" width="8.626" height="14.071" transform="translate(0 3.447)"/></g><g transform="translate(49.301 17.96)"><path class="ao" d="M999.379,707.037H980.1a2.705,2.705,0,0,0-2.7,2.7v17.119h21.973Z" transform="translate(-977.406 -707.037)"/><path class="ap" d="M1000.312,711.8H982.535a2.706,2.706,0,0,0-2.7,2.7V728.68h20.474Z" transform="translate(-978.339 -708.863)"/><path class="j" d="M981.7,729.792v-12.9a2.2,2.2,0,0,1,2.2-2.2h17.127v15.1Z" transform="translate(-979.055 -709.976)"/><path class="aq" d="M983.878,729.792l3.432-13.672a3.457,3.457,0,0,1,.766-1.424h13.786v15.1Z" transform="translate(-979.89 -709.976)"/><path class="ai" d="M1003.012,712.63h-9.333a3.7,3.7,0,0,0-3.374,2.7L986.873,729h16.139Z" transform="translate(-981.039 -709.183)"/></g><g transform="translate(62.648 17.96)"><rect class="aj" width="8.626" height="17.518"/><rect class="ak" width="8.626" height="14.585" transform="translate(0 2.933)"/><rect class="al" width="8.626" height="12.798" transform="translate(0 4.72)"/><rect class="am" width="8.626" height="12.798" transform="translate(0 4.72)"/><rect class="an" width="8.626" height="14.071" transform="translate(0 3.447)"/></g><g transform="translate(65.424 15.962)"><path class="ao" d="M1006.267,735.915h32.571a2.706,2.706,0,0,0,2.7-2.7V708.49a2.7,2.7,0,0,0-2.7-2.7h-1.324v-1.256a.744.744,0,0,0-.742-.743h-9.84a.744.744,0,0,0-.742.743v1.256h-19.921a2.706,2.706,0,0,0-2.7,2.7v24.728A2.706,2.706,0,0,0,1006.267,735.915Z" transform="translate(-1003.569 -703.794)"/><path class="ap" d="M1007.2,737.742h32.571a2.706,2.706,0,0,0,2.7-2.7V710.835a2.674,2.674,0,0,0-1.2-.283h-1.324V709.3a.744.744,0,0,0-.742-.742h-9.841a.744.744,0,0,0-.742.742v1.255H1008.7a2.706,2.706,0,0,0-2.7,2.7v24.209A2.67,2.67,0,0,0,1007.2,737.742Z" transform="translate(-1004.502 -705.621)"/><rect class="g" width="24.978" height="25.403" rx="3.567" transform="translate(2.648 6.718)"/><path class="aq" d="M1030.646,740.1h-20.581a2.2,2.2,0,0,1-2.2-2.2v-2.766l4.772-19.015a3.452,3.452,0,0,1,.767-1.424h17.24a2.205,2.205,0,0,1,2.2,2.2V737.9A2.205,2.205,0,0,1,1030.646,740.1Z" transform="translate(-1005.218 -707.978)"/><path class="ai" d="M1011.906,737.861h30.073a3.705,3.705,0,0,0,3.375-2.7l5.341-21.281a2.04,2.04,0,0,0-2.021-2.7h-1.581l.336-1.336a.745.745,0,0,0-.738-.985h-10.976a1.354,1.354,0,0,0-1.232.985l-.335,1.336H1018.6a3.706,3.706,0,0,0-3.375,2.7l-5.341,21.281A2.04,2.04,0,0,0,1011.906,737.861Z" transform="translate(-1005.961 -705.74)"/><path class="ao" d="M1043.927,715.058l-4.268,17.008a3.707,3.707,0,0,1-3.375,2.7h-26.3l-.1.4a2.04,2.04,0,0,0,2.021,2.7h30.073a3.705,3.705,0,0,0,3.375-2.7l5.341-21.281a2.039,2.039,0,0,0-2.021-2.7h-1.581l.336-1.336a.745.745,0,0,0-.738-.985h-2.017a2.219,2.219,0,0,1,.327,1.921Z" transform="translate(-1005.961 -705.74)"/></g><rect class="ar" width="55.321" height="23.399" transform="translate(62.512 27.94)"/><g transform="translate(25.43 51.339)"><path class="z" d="M971.019,761.2h14.507a1.147,1.147,0,0,1,1.231,1.029h0a1.146,1.146,0,0,1-1.231,1.029H971.019a1.146,1.146,0,0,1-1.231-1.029h0A1.147,1.147,0,0,1,971.019,761.2Z" transform="translate(-950.611 -761.203)"/><path class="z" d="M939.725,761.2h53.209a.984.984,0,0,1,1.057.883v.147H938.668v-.147A.985.985,0,0,1,939.725,761.2Z" transform="translate(-938.668 -761.203)"/></g><path class="z" d="M999.9,721.562h53.209a.984.984,0,0,1,1.056.883v.146h-19.176a1.148,1.148,0,0,1-1.231,1.029h-14.506a1.147,1.147,0,0,1-1.23-1.029H998.844v-.146A.985.985,0,0,1,999.9,721.562Z" transform="translate(-936.332 -694.651)"/><path class="a" d="M975.75,746.631v-23.4H938.668v24.283a.985.985,0,0,1,1.057-.883H975.75Z" transform="translate(-913.238 -695.292)"/></g><path class="ae" d="M1070.47,700.378c-.339.25-.523.413-.523.413s-2.971-.27-3.871.765-2.881,3.556-3.736,3.961.089,1.126,1.89.5a17.213,17.213,0,0,0,3.826-2.161,4.978,4.978,0,0,0,3.33-.435,14.249,14.249,0,0,1-.912-2.848A.8.8,0,0,1,1070.47,700.378Z" transform="translate(-914.085 -628.448)"/></g><g transform="translate(1029.596 1580.617)"><g transform="translate(0 0)"><rect class="ar" width="90.6" height="87.231" rx="8.41"/></g><g transform="translate(6.332 9.214)"><g transform="translate(0 50.544)"><rect class="as" width="2.973" height="0.857"/></g><g transform="translate(6.727 55.125)"><rect class="as" width="3.803" height="0.857"/></g><g transform="translate(19.964 55.125)"><rect class="as" width="3.803" height="0.857"/></g><g transform="translate(33.202 55.125)"><rect class="as" width="3.803" height="0.857"/></g><g transform="translate(46.439 55.125)"><rect class="as" width="3.803" height="0.857"/></g><g transform="translate(59.676 55.125)"><rect class="as" width="3.803" height="0.857"/></g><g transform="translate(72.914 55.125)"><rect class="as" width="3.803" height="0.857"/></g><g transform="translate(0 39.1)"><rect class="as" width="2.973" height="0.857"/></g><g transform="translate(0 17.561)"><rect class="as" width="2.973" height="0.857"/></g><g transform="translate(0 6.737)"><rect class="as" width="2.973" height="0.857"/></g><g transform="translate(0.151 28.33)"><rect class="as" width="2.973" height="0.857"/></g><g transform="translate(4.385)"><path class="as" d="M441.309,318.13s-.108.01-.319.015l-.936.014-3.6.026-13.232.045-43.656.041-10.345,0h-.139v-.139c.019-14.6.036-27.444.048-36.653.018-4.592.032-8.276.042-10.824.01-1.26.018-2.239.024-2.914.005-.324.009-.574.012-.755s.013-.256.013-.256.009.087.013.256.007.43.012.755c.005.675.014,1.654.024,2.914.01,2.548.024,6.232.042,10.824.012,9.209.029,22.055.048,36.653l-.139-.139,10.345,0,43.656.041,13.232.045,3.6.027.936.014C441.2,318.12,441.309,318.13,441.309,318.13Z" transform="translate(-369.084 -266.729)"/></g><g transform="translate(7.401 28.618)"><path class="as" d="M444.7,319.744c0,.078-15.681.141-35.022.141s-35.025-.063-35.025-.141,15.678-.141,35.025-.141S444.7,319.666,444.7,319.744Z" transform="translate(-374.655 -319.603)"/></g><g transform="translate(7.401 17.848)"><path class="as" d="M444.7,299.846c0,.078-15.681.141-35.022.141s-35.025-.063-35.025-.141,15.678-.141,35.025-.141S444.7,299.768,444.7,299.846Z" transform="translate(-374.655 -299.705)"/></g><g transform="translate(7.401 7.024)"><path class="as" d="M444.7,279.848c0,.078-15.681.141-35.022.141s-35.025-.063-35.025-.141,15.678-.141,35.025-.141S444.7,279.77,444.7,279.848Z" transform="translate(-374.655 -279.707)"/></g><g transform="translate(7.401 39.387)"><path class="as" d="M444.7,339.641c0,.077-15.681.141-35.022.141s-35.025-.063-35.025-.141,15.678-.141,35.025-.141S444.7,339.563,444.7,339.641Z" transform="translate(-374.655 -339.5)"/></g><g transform="translate(8.123 0.794)"><path class="at" d="M375.989,316.485V306.93l5.955-9.246,4.041,3.1L394.28,287.9l4.892,3.445,6.806-11.886,5.53,4.5,8.3-15.768,8.933,17.623L435.968,277l8.508-2.434v41.918Z" transform="translate(-375.989 -268.196)"/></g><g transform="translate(8.123 3.694)"><path class="as" d="M445.314,273.633a.737.737,0,0,1-.15.011l-.443.011-1.727.02-6.528.037.062-.03-6.995,9.144-.034.043h-.055l-17.515.024.116-.065-7.364,12.259c-2.508,4.17-4.937,8.205-7.23,12.017l-.106.176-.12-.166-9.487-13.046.189-.006-8.655,13.485-2.414,3.728-.64.973c-.146.219-.229.326-.229.326s.063-.12.2-.345l.612-.991,2.361-3.761,8.572-13.538.09-.142.1.136,9.521,13.022-.226.01,7.221-12.022,7.373-12.254.04-.066h.076l17.515.024-.088.043,7.048-9.1.024-.031h.038l6.528.037,1.727.02.443.01A.859.859,0,0,1,445.314,273.633Z" transform="translate(-375.989 -273.554)"/></g><g transform="translate(21.491 26.554)"><path class="as" d="M402.033,316.437a.672.672,0,1,1-.672-.647A.66.66,0,0,1,402.033,316.437Z" transform="translate(-400.689 -315.79)"/></g><g transform="translate(41.694 15.071)"><path class="as" d="M439.36,295.221a.672.672,0,1,1-.672-.647A.66.66,0,0,1,439.36,295.221Z" transform="translate(-438.016 -294.574)"/></g><g transform="translate(57.4 12.249)"><path class="as" d="M468.378,290.008a.672.672,0,1,1-.672-.647A.66.66,0,0,1,468.378,290.008Z" transform="translate(-467.034 -289.361)"/></g></g><g transform="translate(13.058 71.605)"><ellipse class="g" cx="4.346" cy="4.184" rx="4.346" ry="4.184"/></g><g transform="translate(28.197 72.986)"><rect class="g" width="51.048" height="1.566"/></g><g transform="translate(28.197 76.897)"><rect class="g" width="21.196" height="1.566"/></g></g></g></svg>