<svg xmlns="http://www.w3.org/2000/svg" xmlns:xlink="http://www.w3.org/1999/xlink" width="272.021" height="243.657" viewBox="0 0 272.021 243.657"><defs><style>.a{fill:#ebebeb;}.b{fill:#d9a171;}.c{opacity:0.3;}.d{fill:#263238;}.e{fill:#fff;}.f{fill:#e0e0e0;}.g{fill:url(#a);}.h{fill:#455a64;}.i{fill:#12263f;font-size:14px;font-family:Roboto-Bold, Roboto;font-weight:700;}.j{fill:#ffbe9d;}.k{fill:#eb996e;}.l{fill:#6595bf;}.m{opacity:0.6;}.n{opacity:0.2;}.o{fill:#636363;}.p{fill:#5e6178;}</style><linearGradient id="a" x1="0.5" x2="0.5" y2="1" gradientUnits="objectBoundingBox"><stop offset="0" stop-color="#d9a171"/><stop offset="1" stop-color="#a66d58"/></linearGradient></defs><g transform="translate(-1078.796 -2907.178)"><g transform="translate(1078.631 2858.92)"><g transform="translate(-49.631 58.351)"><g transform="translate(116.661)"><path class="a" d="M365.815,172.247c-.192,0-.438-2.227-.729-6.421a52.708,52.708,0,0,0-.86-7.71,75.475,75.475,0,0,0-2.025-10.361A97.106,97.106,0,0,0,351.441,121.1a99.83,99.83,0,0,0-24.785-28.548,98.624,98.624,0,0,0-41.246-19.232c-16.111-3.1-34.355-2.983-51.841,3.234A92.539,92.539,0,0,0,208.39,89.4c-4.06,2.652-7.628,6.011-11.365,9.228a111.929,111.929,0,0,0-9.887,11.174c-12.468,15.8-19.764,36.3-20.483,57.593-.323,21.312,5.969,42.147,17.655,58.539a111.921,111.921,0,0,0,9.335,11.645c3.577,3.4,6.978,6.925,10.905,9.771a92.543,92.543,0,0,0,24.53,14.055c17.167,7.06,35.387,8.061,51.63,5.746A98.65,98.65,0,0,0,322.84,249.94a99.841,99.841,0,0,0,26.139-27.312,97.1,97.1,0,0,0,12.038-26.1,75.575,75.575,0,0,0,2.525-10.248,52.663,52.663,0,0,0,1.233-7.658c.494-4.174.847-6.381,1.039-6.377s.213,2.222.076,6.475a45.241,45.241,0,0,1-.719,7.831,70.087,70.087,0,0,1-2.072,10.555c-1.8,7.912-5.541,17.264-11.492,27.174A102.378,102.378,0,0,1,281.445,271.7c-16.97,2.635-36.093,1.759-54.226-5.525a97.128,97.128,0,0,1-25.927-14.637c-4.149-2.985-7.764-6.673-11.542-10.247a116.269,116.269,0,0,1-9.9-12.239C167.463,211.8,160.743,189.761,161.1,167.26c.74-22.485,8.523-44.163,21.73-60.785a116.47,116.47,0,0,1,10.481-11.74c3.947-3.386,7.736-6.893,12.024-9.672a97.117,97.117,0,0,1,26.6-13.358c18.461-6.395,37.6-6.343,54.424-2.888a102.377,102.377,0,0,1,67.781,50.761c5.465,10.188,8.751,19.711,10.162,27.7a70.147,70.147,0,0,1,1.557,10.645,45.183,45.183,0,0,1,.338,7.858C366.135,170.037,366.006,172.252,365.815,172.247Z" transform="translate(-161.09 -66.489)"/><g transform="translate(26.002 38.769)"><path class="a" d="M366.576,140.409c.223.312-1.6,1.9-5.116,4.512l-6.5,4.665c-1.288.881-2.635,1.88-4.135,2.819l-4.974,2.6a113.985,113.985,0,0,1-59.373,14.952l-8.988-.4-8.624-1.349c-1.411-.238-2.818-.427-4.192-.7l-4.027-1.073c-2.648-.735-5.269-1.357-7.764-2.157a130.057,130.057,0,0,1-25.191-11.606c-13.534-8.183-20.121-15.628-19.609-16.106.546-.626,7.9,5.606,21.534,12.684a151.793,151.793,0,0,0,24.8,10.147c2.415.7,4.943,1.233,7.491,1.888l3.87.96,4.016.607,8.242,1.213,8.567.345c23.243.8,43.834-6.165,57.491-12.91l5.031-2.185c1.532-.8,2.924-1.66,4.262-2.4l6.892-3.8C364.111,141.083,366.353,140.1,366.576,140.409Z" transform="translate(-208.057 -136.517)"/></g><g transform="translate(22.936 135.846)"><path class="a" d="M202.537,341.469c-.223-.312,1.6-1.9,5.115-4.512l6.5-4.664c1.289-.881,2.636-1.88,4.136-2.82l4.973-2.6a113.985,113.985,0,0,1,59.373-14.952l8.987.4,8.625,1.349c1.41.238,2.817.426,4.191.7l4.027,1.072c2.648.736,5.269,1.358,7.764,2.157a130.085,130.085,0,0,1,25.19,11.606c13.535,8.183,20.122,15.628,19.61,16.106-.546.626-7.9-5.606-21.534-12.684a151.92,151.92,0,0,0-24.8-10.147c-2.415-.7-4.943-1.232-7.491-1.887l-3.87-.961-4.015-.607-8.242-1.212-8.566-.346c-23.245-.8-43.835,6.165-57.492,12.911l-5.031,2.184c-1.532.8-2.924,1.66-4.262,2.4l-6.892,3.8C205,340.795,202.759,341.78,202.537,341.469Z" transform="translate(-202.519 -311.863)"/></g><g transform="translate(2.731 101.948)"><path class="a" d="M367.959,256.789c-.038,1.534-45.276,1.678-101.031.324-55.773-1.354-100.942-3.694-100.905-5.228s45.267-1.677,101.04-.323C322.818,252.917,368,255.258,367.959,256.789Z" transform="translate(-166.023 -250.634)"/></g><g transform="translate(97.791 2.311)"><path class="a" d="M338.98,272.532c-1.533-.037-1.678-45.26-.324-101,1.354-55.756,3.694-100.909,5.227-100.872s1.677,45.251.323,101.007C342.852,227.407,340.512,272.57,338.98,272.532Z" transform="translate(-337.728 -70.664)"/></g><g transform="translate(48.811 2.251)"><path class="a" d="M299.492,272.332c-.381.587-11.507-6.956-24.347-24.035A135.813,135.813,0,0,1,257.1,215.525a121.767,121.767,0,0,1-7.815-45.248,115.831,115.831,0,0,1,10.194-44.793A140.351,140.351,0,0,1,279.2,93.721C292.8,77.287,304.016,70,304.392,70.587c.545.631-9.615,8.9-22.1,25.553a151.268,151.268,0,0,0-18.121,31.376,116.381,116.381,0,0,0-9.338,42.866,122.969,122.969,0,0,0,7.068,43.386,145.645,145.645,0,0,0,16.447,32.258C290.038,263.239,300.054,271.721,299.492,272.332Z" transform="translate(-249.257 -70.554)"/></g><g transform="translate(101.287 2.306)"><path class="a" d="M348.963,70.686c.381-.586,11.506,6.956,24.346,24.036a135.837,135.837,0,0,1,18.049,32.772,121.771,121.771,0,0,1,7.814,45.249,115.835,115.835,0,0,1-10.194,44.792A140.338,140.338,0,0,1,369.255,249.3c-13.6,16.434-24.816,23.719-25.192,23.134-.545-.631,9.615-8.9,22.1-25.553A151.271,151.271,0,0,0,384.284,215.5a116.369,116.369,0,0,0,9.338-42.866,122.972,122.972,0,0,0-7.068-43.386,145.662,145.662,0,0,0-16.447-32.259C358.418,79.78,348.4,71.3,348.963,70.686Z" transform="translate(-344.042 -70.655)"/></g></g></g><g transform="translate(0.165 48.258)"><g transform="translate(28.92 12.979)"><path class="b" d="M182.488,72.834l26.637-1.125a8.637,8.637,0,0,1,9,8.432l.941,41.143a8.638,8.638,0,0,1-7.738,8.789h0a2.87,2.87,0,0,0-2.57,2.965l3.346,86.9a10.78,10.78,0,0,1-10.294,11.184l-101.758,4.518a2.87,2.87,0,0,1-3-2.782l-4.5-150.847a2.87,2.87,0,0,1,2.665-2.948Z" transform="translate(-92.553 -71.701)"/></g><g class="c" transform="translate(33.339 13.181)"><path d="M100.533,230.169l.085,2.852,109.543-10.072L208.068,72.067s-26.591,4.03-27.075,4.03S100.533,230.169,100.533,230.169Z" transform="translate(-100.533 -72.067)"/></g><g transform="translate(11.574 4.004)"><g transform="translate(0.119 0.07)"><path class="a" d="M154.73,57.556l31.79-1.939L189.8,212,77.913,223.351,61.435,67.786Z" transform="translate(-61.435 -55.617)"/></g><path class="d" d="M154.634,57.5s-.557.072-1.648.2l-4.836.546-18.584,2.067L61.352,67.836l.1-.118c4.425,41.68,10.172,95.824,16.514,155.561l-.157-.128,25.079-2.544,86.81-8.8-.122.139c-1.4-68.376-2.556-124.458-3.212-156.387l.07.065-23.658,1.411-6.078.354c-1.364.078-2.058.108-2.058.108s.693-.054,2.056-.143l6.076-.388,23.655-1.474.069,0v.069c.685,31.929,1.887,88.009,3.352,156.384l0,.126-.126.012-86.808,8.812-25.08,2.543-.142.014-.015-.142c-6.314-59.74-12.037-113.885-16.443-155.568l-.011-.107.107-.012,68.228-7.433,18.589-2.01,4.839-.515C154.075,57.549,154.634,57.5,154.634,57.5Z" transform="translate(-61.221 -55.49)"/></g><g transform="translate(6.133)"><g transform="translate(0 0.128)"><path class="e" d="M51.393,59.41,66.54,216.8,183.723,205.76l-16.9-157.271Z" transform="translate(-51.393 -48.489)"/></g><g transform="translate(0)"><path class="d" d="M51.393,59.307l115.42-11.038.116-.011.012.116c4.752,44.15,10.6,98.53,16.925,157.268l.016.146-.145.013-.831.079L66.552,216.825l-.13.012-.012-.13C57.519,123.517,51.5,60.454,51.393,59.307c.111,1.146,6.232,64.2,15.276,157.376l-.142-.117,116.351-10.974.83-.078-.13.159c-6.3-58.74-12.136-113.122-16.872-157.274l.128.1Z" transform="translate(-51.393 -48.258)"/></g></g><g transform="translate(96.002 113.184)"><g transform="translate(0)"><path class="f" d="M213.721,269.931a17.272,17.272,0,1,1,17.232,17.312A17.292,17.292,0,0,1,213.721,269.931Zm34.227.08a16.955,16.955,0,1,0-16.995,16.915A16.974,16.974,0,0,0,247.948,270.011Z" transform="translate(-213.721 -252.699)"/></g><g transform="translate(1.969 2.207)"><path class="f" d="M217.278,271.715a15.064,15.064,0,1,1,15.029,15.1A15.082,15.082,0,0,1,217.278,271.715Zm27.906.066a12.842,12.842,0,1,0-12.872,12.811A12.856,12.856,0,0,0,245.184,271.781Z" transform="translate(-217.278 -256.686)"/></g><g transform="translate(5.676 12.46)"><path class="f" d="M223.974,280.2a11.028,11.028,0,0,1,1.194-5l1.983,1a8.83,8.83,0,0,0-.954,4,8.924,8.924,0,0,0,13.57,7.638l1.16,1.9a11.147,11.147,0,0,1-16.953-9.539Z" transform="translate(-223.974 -275.206)"/></g><g transform="translate(11.678 6.339)"><path class="f" d="M234.814,265.4a11.147,11.147,0,0,1,14.575,15.827l-1.88-1.186a8.925,8.925,0,0,0-11.669-12.67Z" transform="translate(-234.814 -264.149)"/></g></g><g transform="translate(19.987 40.615)"><path class="d" d="M175.218,121.622c.008.08-22.106,2.232-49.385,4.808s-49.41,4.6-49.417,4.521,22.1-2.231,49.39-4.808S175.211,121.543,175.218,121.622Z" transform="translate(-76.416 -121.62)"/></g><g transform="translate(19.566 39.375)"><path class="d" d="M121.266,119.385c.008.08-10.2,1.108-22.79,2.3s-22.812,2.089-22.82,2.01,10.2-1.107,22.793-2.3S121.258,119.306,121.266,119.385Z" transform="translate(-75.656 -119.38)"/></g><g transform="translate(20.417 47.028)"><path class="d" d="M176,133.206c.008.079-22.106,2.232-49.385,4.808s-49.41,4.6-49.417,4.521,22.1-2.232,49.39-4.808S175.989,133.126,176,133.206Z" transform="translate(-77.194 -133.204)"/></g><g transform="translate(20.848 53.441)"><path class="d" d="M176.774,144.789c.008.079-22.106,2.232-49.385,4.808s-49.41,4.6-49.417,4.521,22.1-2.232,49.39-4.808S176.767,144.71,176.774,144.789Z" transform="translate(-77.972 -144.787)"/></g><g transform="translate(21.279 59.854)"><path class="d" d="M177.552,156.372c.008.079-22.106,2.232-49.385,4.808s-49.41,4.6-49.417,4.521,22.1-2.232,49.39-4.808S177.545,156.293,177.552,156.372Z" transform="translate(-78.75 -156.37)"/></g><g transform="translate(21.71 66.266)"><path class="d" d="M178.33,167.955c.008.079-22.106,2.232-49.385,4.808s-49.41,4.6-49.417,4.521,22.1-2.231,49.39-4.808S178.323,167.876,178.33,167.955Z" transform="translate(-79.528 -167.953)"/></g><g transform="translate(22.14 72.679)"><path class="d" d="M179.108,179.538c.008.08-22.106,2.232-49.385,4.808s-49.41,4.6-49.417,4.521,22.1-2.232,49.39-4.808S179.1,179.459,179.108,179.538Z" transform="translate(-80.306 -179.536)"/></g><g transform="translate(23.861 79.092)"><path class="d" d="M180.926,191.122c.008.079-21.817,2.2-48.74,4.747s-48.765,4.539-48.772,4.46,21.812-2.2,48.745-4.747S180.919,191.043,180.926,191.122Z" transform="translate(-83.414 -191.12)"/></g><g transform="translate(24.427 91.425)"><path class="d" d="M143.311,213.4c.007.079-13.168,1.33-29.423,2.794s-29.445,2.587-29.452,2.507,13.165-1.33,29.426-2.794S143.3,213.322,143.311,213.4Z" transform="translate(-84.436 -213.397)"/></g><g transform="translate(31.465 144.426)"><path d="M132.988,309.138c.007.079-8.012.825-17.907,1.665s-17.926,1.457-17.933,1.378,8.009-.825,17.908-1.665S132.981,309.058,132.988,309.138Z" transform="translate(-97.148 -309.131)"/></g><g transform="translate(31.786 150.544)"><path d="M117.846,320.193c.007.079-4.492.526-10.046,1s-10.064.79-10.071.71,4.49-.526,10.047-1S117.839,320.113,117.846,320.193Z" transform="translate(-97.729 -320.181)"/></g><g transform="translate(27 105.414)"><path class="g" d="M112.753,238.673c.008.079-5.285.665-11.82,1.31s-11.842,1.1-11.85,1.023,5.284-.665,11.822-1.31S112.745,238.594,112.753,238.673Z" transform="translate(-89.083 -238.664)"/></g><g class="c" transform="translate(18.495 130.66)"><path d="M74.092,295.412l10.757-2.079,6.015-9.068-17.143,5.63Z" transform="translate(-73.721 -284.265)"/></g><g transform="translate(0 127.498)"><path class="b" d="M40.314,281.273l28.722-2.719,6.916,3.162-5.52,6.209-29.176,3.146Z" transform="translate(-40.314 -278.554)"/><g transform="translate(9.516 4.525)"><path class="e" d="M60.882,286.728l.369,3.683-.853.085-.152-1.51-1.673.168.152,1.51-.853.086-.37-3.684.853-.085.146,1.453,1.673-.168-.145-1.453Z" transform="translate(-57.503 -286.728)"/><path class="e" d="M68.094,289.344l-2.141.215a.759.759,0,0,0,.868.487.965.965,0,0,0,.683-.345l.484.43a1.661,1.661,0,0,1-2.884-.72,1.448,1.448,0,0,1,1.364-1.609,1.408,1.408,0,0,1,1.621,1.32C68.095,289.185,68.093,289.275,68.094,289.344Zm-2.2-.263,1.395-.139a.711.711,0,0,0-1.395.139Z" transform="translate(-60.892 -287.203)"/><path class="e" d="M72.986,287.123l.076.758c-.069,0-.122,0-.185.008a.7.7,0,0,0-.673.865l.134,1.336-.821.082-.283-2.831.783-.079.038.374A1.149,1.149,0,0,1,72.986,287.123Z" transform="translate(-63.632 -286.904)"/><path class="e" d="M78.1,288.34l-2.141.215a.759.759,0,0,0,.868.488.965.965,0,0,0,.683-.345l.484.43a1.661,1.661,0,0,1-2.884-.721,1.448,1.448,0,0,1,1.364-1.609,1.409,1.409,0,0,1,1.621,1.32C78.1,288.18,78.1,288.271,78.1,288.34Zm-2.2-.264,1.394-.139a.71.71,0,0,0-1.394.139Z" transform="translate(-65.36 -286.755)"/></g></g><g transform="translate(40.984 104.714)"><path d="M160.449,237.4s.034.009.1.033a1.387,1.387,0,0,1,.28.132,4,4,0,0,1,.924.782,13.244,13.244,0,0,1,2.327,4.013,16.814,16.814,0,0,1,1.207,7.226,10.929,10.929,0,0,1-.392,2.2,14.7,14.7,0,0,1-3.95,6.355,15.345,15.345,0,0,1-4.745,3.1,13,13,0,0,1-6.061.953,13.3,13.3,0,0,1-10.642-7.6,10.845,10.845,0,0,1-.963-3.518,8.265,8.265,0,0,1,.387-3.712,5.968,5.968,0,0,1,2.211-3.1,4.293,4.293,0,0,1,1.842-.689,4.411,4.411,0,0,1,1.97.231,5.816,5.816,0,0,1,3.037,2.519,9.343,9.343,0,0,1,1.2,3.837A16.763,16.763,0,0,1,148,258.226a15.855,15.855,0,0,1-4.868,6.521,14.616,14.616,0,0,1-7.328,2.948,13.739,13.739,0,0,1-7.522-1.225,12.848,12.848,0,0,1-5.35-4.97,12.47,12.47,0,0,1-1.81-6.712,9.1,9.1,0,0,1,.646-3.3,6.55,6.55,0,0,1,1.892-2.657,3.915,3.915,0,0,1,3-.888,4.5,4.5,0,0,1,2.647,1.474,5.634,5.634,0,0,1,1.328,2.6,7.313,7.313,0,0,1,0,2.793,14.492,14.492,0,0,1-1.97,4.764,22.9,22.9,0,0,1-2.766,3.677,25.037,25.037,0,0,1-2.944,2.713,25.491,25.491,0,0,1-2.8,1.863A21.574,21.574,0,0,1,115.9,269.7c-1.014.323-1.562.435-1.562.435s.132-.048.393-.126.654-.177,1.151-.363a22.365,22.365,0,0,0,4.215-1.919,25.643,25.643,0,0,0,2.773-1.874,25.081,25.081,0,0,0,2.909-2.713,22.807,22.807,0,0,0,2.728-3.663,14.355,14.355,0,0,0,1.927-4.706,7.121,7.121,0,0,0,0-2.713,5.428,5.428,0,0,0-1.284-2.492,4.269,4.269,0,0,0-2.514-1.394,3.677,3.677,0,0,0-2.821.845A6.3,6.3,0,0,0,122,251.578a8.844,8.844,0,0,0-.621,3.217,12.218,12.218,0,0,0,1.785,6.569,12.587,12.587,0,0,0,5.242,4.859,13.462,13.462,0,0,0,7.37,1.192,14.335,14.335,0,0,0,7.183-2.894,15.572,15.572,0,0,0,4.778-6.4A16.489,16.489,0,0,0,148.9,250.2a9.055,9.055,0,0,0-1.163-3.721,5.533,5.533,0,0,0-2.885-2.4,4.12,4.12,0,0,0-1.845-.219,4.013,4.013,0,0,0-1.72.642,5.7,5.7,0,0,0-2.106,2.956,7.993,7.993,0,0,0-.379,3.595,10.594,10.594,0,0,0,.936,3.435,13.055,13.055,0,0,0,10.421,7.472,12.787,12.787,0,0,0,5.955-.921,15.158,15.158,0,0,0,4.688-3.046,14.555,14.555,0,0,0,3.926-6.255,10.759,10.759,0,0,0,.4-2.166,16.794,16.794,0,0,0-1.15-7.173,13.478,13.478,0,0,0-2.266-4.015,4.165,4.165,0,0,0-.9-.8C160.584,237.442,160.443,237.413,160.449,237.4Z" transform="translate(-114.342 -237.399)"/></g><g transform="translate(34.36 11.641)"><path class="h" d="M163.953,84.911s-.016-.094-.038-.271-.051-.447-.091-.787c-.077-.7-.192-1.719-.339-3.043-.289-2.657-.709-6.526-1.241-11.42l.1.078-59.785,6.3h0l.128-.158c.556,5.329,1.1,10.528,1.619,15.531l-.155-.126,42.665-4.392,12.568-1.272,3.388-.336.881-.082c.2-.018.307-.023.307-.023s-.094.016-.287.039l-.862.1-3.354.369-12.527,1.349-42.75,4.53-.14.014-.015-.14c-.524-5-1.067-10.2-1.625-15.53l-.015-.143.143-.015h0l59.8-6.188.087-.009.009.087c.493,4.921.883,8.81,1.151,11.481.128,1.317.227,2.332.295,3.028.031.335.055.591.072.774S163.953,84.911,163.953,84.911Z" transform="translate(-102.378 -69.285)"/></g><text class="i" transform="matrix(0.995, -0.105, 0.105, 0.995, 51.861, 29.36)"><tspan x="0" y="0">NIIF</tspan></text></g><g transform="translate(87.141 83.741)"><g transform="translate(40.258)"><g transform="translate(35.635)"><g transform="translate(0.009 0.11)"><path class="d" d="M334.542,130.953a1.432,1.432,0,0,1,.52-.834,3.544,3.544,0,0,1,2.2-.544,9.351,9.351,0,0,0,.9-2.921,1.865,1.865,0,0,1-1.037-.3,1.037,1.037,0,0,1-.171-.052,1.458,1.458,0,0,1-.346-2.109,4.216,4.216,0,0,1,2.021-1.3,7.014,7.014,0,0,0-1.565.567c-.533.166-1.283-.017-1.346-.572a1.21,1.21,0,0,1,.085-.5q.155-.492.312-.983a1.1,1.1,0,0,1,.433-.686,2.573,2.573,0,0,1,.567-.136c.623-.168.945-.924,1.566-1.1a2.857,2.857,0,0,1,1.391.206c.462.11,1.074.019,1.217-.434a4.442,4.442,0,0,1-1.583-1.338,1.522,1.522,0,0,1,.15-1.915,2.237,2.237,0,0,1,1.566-.321c.609.027,1.366.166,1.527.753a1.584,1.584,0,0,1,1.944,1.243l1.568-.159c-.438-.471-1.06-.758-1.438-1.278s-.308-1.458.321-1.593a4.333,4.333,0,0,0,.7-.061c.158-.063.288-.2.458-.211a.611.611,0,0,1,.338.133l3.313,2.161-.9-2.082c-.276-.64-.489-1.522.084-1.919.554-.383,1.364.17,1.481.834a1.076,1.076,0,0,1,1.309.991,1.092,1.092,0,0,1,1.283,1.666,3.1,3.1,0,0,1,1.576.471.95.95,0,0,1,1.535-.654,1.653,1.653,0,0,1,.243-.944.572.572,0,0,1,.855-.1,1.11,1.11,0,0,1,1.8-1.086l.546-.66a1.46,1.46,0,0,1,1.408.73c.23.512-.155,1.248-.714,1.2.393-.007.3.621.074.939l-.958,1.333a1.228,1.228,0,0,1,1.52-.135.95.95,0,0,1,1.373.011.769.769,0,0,1,1.382.234c.1-.257.45-.272.722-.242a1.787,1.787,0,0,1,1.1.376c.28.277.278.851-.091.987.336-.188.768.182.773.566a1.376,1.376,0,0,1-.551.973,3.213,3.213,0,0,0-.789.831,1.625,1.625,0,0,1,1.108-.234,4.211,4.211,0,0,1,2,.4c.117-.271.495-.283.784-.224a4.692,4.692,0,0,1,2.39,1.3c.3.31.578.775.37,1.157a1.165,1.165,0,0,1-.439.39L369.3,125.1a5.79,5.79,0,0,1,2.907,2.06c.425.247.965.273,1.349.58s.357,1.117-.136,1.117a.9.9,0,0,1,.261,1.046.86.86,0,0,1-.332.366,1.225,1.225,0,0,1-.233.264,1.666,1.666,0,0,1-.571.3,1.111,1.111,0,0,1-.951.438,4.532,4.532,0,0,1,1.011,1.2,1.9,1.9,0,0,1,0,1.951,1.057,1.057,0,0,1-.075.082.927.927,0,0,1-.407.59.784.784,0,0,1,.075.518,2.075,2.075,0,0,1,.467,3.637c-.489.345-1.4.282-1.442-.315a1.615,1.615,0,0,1-1.227.893,1.565,1.565,0,0,1-.819,2.155,1.668,1.668,0,0,1-.524,2.728,1.277,1.277,0,1,1-2.413.838,2.707,2.707,0,0,1-.956,1.2.937.937,0,0,1-1.322-.345,1.754,1.754,0,0,1-2.578.835,1.135,1.135,0,0,1-2.256.2l-2.93-.028a10.437,10.437,0,0,1-1.937-.14,5.249,5.249,0,0,1-2.232-1.033,1.771,1.771,0,0,0-.677-.411,1.825,1.825,0,0,0-.9.138,4.74,4.74,0,0,1-4.5-1.065,2.375,2.375,0,0,0-.594-.474,2.14,2.14,0,0,0-.865-.12,8.548,8.548,0,0,1-2.129-.307,2.263,2.263,0,0,1-1.5-.985c-.28-.55.049-1.4.666-1.389a1.324,1.324,0,0,0-.327-1.113.8.8,0,0,0-1.082-.045.574.574,0,0,0,.264.935,1.183,1.183,0,0,1-1.708-.989,1.584,1.584,0,0,1,1.588-1.478,3.642,3.642,0,0,1-.045-1.772,1.3,1.3,0,0,1-1.775.2,2.243,2.243,0,0,1-1.453,1.045,1.345,1.345,0,0,1-1.485-.811.969.969,0,0,1,.92-1.247,1.158,1.158,0,0,1,1.029-1.675,1.8,1.8,0,0,1,1.1-1.912.948.948,0,0,1-1.349-.52c-.373.588-1.281.444-1.882.092A1.266,1.266,0,0,1,334.542,130.953Z" transform="translate(-334.516 -112.549)"/></g><path class="h" d="M334.534,130.864a.92.92,0,0,0-.034.239,1.038,1.038,0,0,0,.224.675,2.283,2.283,0,0,0,.974.669,1.979,1.979,0,0,0,.76.129.947.947,0,0,0,.772-.408l-.064-.009a.988.988,0,0,0,1.4.547l-.038-.075a1.852,1.852,0,0,0-1.134,1.959l.054-.058a1.118,1.118,0,0,0-1.007.541,1.14,1.14,0,0,0-.074,1.214l.055-.086a.976.976,0,0,0-.982.738,1.069,1.069,0,0,0,.495,1.215,1.546,1.546,0,0,0,1.412.131,2.5,2.5,0,0,0,1.144-.975l-.1.016a1.377,1.377,0,0,0,1.876-.21l-.13-.061a3.73,3.73,0,0,0,.044,1.808l.073-.1a1.779,1.779,0,0,0-1.091.405,1.5,1.5,0,0,0-.574,1.055,1.245,1.245,0,0,0,.578,1.087,1.12,1.12,0,0,0,1.256.066l.187-.128-.224-.024a.465.465,0,0,1-.327-.55.509.509,0,0,1,.555-.4.786.786,0,0,1,.669.406,1.364,1.364,0,0,1,.148.844l.09-.078a.761.761,0,0,0-.583.271,1.127,1.127,0,0,0-.261.579,1.111,1.111,0,0,0,.081.637,1.506,1.506,0,0,0,.393.5,3.039,3.039,0,0,0,1.128.549,8.632,8.632,0,0,0,1.233.255c.828.174,1.785-.163,2.327.605a4.773,4.773,0,0,0,2.365,1.216,4.891,4.891,0,0,0,1.371.081,7,7,0,0,0,1.346-.3.825.825,0,0,1,.6.068,4.816,4.816,0,0,1,.546.4,5.423,5.423,0,0,0,1.249.7,7.515,7.515,0,0,0,2.86.411l2.939.031-.109-.094a1.247,1.247,0,0,0,2.479-.219l-.18.095a1.87,1.87,0,0,0,2.754-.891l-.218,0a.851.851,0,0,0,.625.52,1.217,1.217,0,0,0,.825-.095,2.745,2.745,0,0,0,1.04-1.262l-.214-.016a1.4,1.4,0,1,0,2.636-.915l-.076.152a1.665,1.665,0,0,0,1.064-1.267,1.687,1.687,0,0,0-.5-1.667l-.038.207a1.687,1.687,0,0,0,.885-2.329l-.09.18a1.744,1.744,0,0,0,1.322-.961l-.233-.043a.634.634,0,0,0,.19.405.83.83,0,0,0,.384.2,1.386,1.386,0,0,0,.816-.068,2.068,2.068,0,0,0,1.049-1.218,2.129,2.129,0,0,0-.085-1.634,2.249,2.249,0,0,0-1.214-1.133l.078.141a.912.912,0,0,0-.086-.6l-.046.162a1.055,1.055,0,0,0,.464-.668l-.028.054a1.847,1.847,0,0,0,.237-1.851,4.039,4.039,0,0,0-1.18-1.555l-.094.218a1.24,1.24,0,0,0,1.061-.487l-.063.044a1.568,1.568,0,0,0,.871-.613l-.037.036a.94.94,0,0,0,.458-.765,1.025,1.025,0,0,0-.378-.851l-.078.224a.479.479,0,0,0,.4-.2.728.728,0,0,0,.127-.4.913.913,0,0,0-.312-.744,9.542,9.542,0,0,0-1.362-.589l.038.034a5.928,5.928,0,0,0-2.97-2.1l.029.228.974-.6.739-.457a6.174,6.174,0,0,0,.741-.494.746.746,0,0,0,.236-.448.936.936,0,0,0-.077-.487,2.126,2.126,0,0,0-.552-.722,4.821,4.821,0,0,0-2.325-1.188,1.3,1.3,0,0,0-.472-.007.555.555,0,0,0-.425.31l.178-.059a3.584,3.584,0,0,0-1.612-.4c-.273-.013-.536-.028-.817-.02a1.359,1.359,0,0,0-.827.264l.191.154c.238-.471.817-.72,1.159-1.246a.937.937,0,0,0,.113-.935.813.813,0,0,0-.35-.354.559.559,0,0,0-.526,0l.1.226a.564.564,0,0,0,.334-.36.833.833,0,0,0,.009-.461.8.8,0,0,0-.235-.4,1.185,1.185,0,0,0-.374-.228,3.089,3.089,0,0,0-.8-.162,1.369,1.369,0,0,0-.43.02.514.514,0,0,0-.385.306l.239.03a.892.892,0,0,0-1.617-.273l.2-.027a1.07,1.07,0,0,0-1.559-.012l.166-.017a1.35,1.35,0,0,0-1.678.143l.184.161.813-1.131a1.586,1.586,0,0,0,.338-.653.837.837,0,0,0,0-.4.394.394,0,0,0-.132-.206.379.379,0,0,0-.238-.075l-.009.242a.828.828,0,0,0,.786-.483,1.025,1.025,0,0,0,.036-.911,1.59,1.59,0,0,0-1.51-.776l-.054,0-.035.042-.545.661.169-.016a1.23,1.23,0,0,0-1.99,1.2l.209-.1a.575.575,0,0,0-.565-.187.786.786,0,0,0-.486.3,1.78,1.78,0,0,0-.257,1l.2-.077a1.065,1.065,0,0,0-1.734.74l.178-.1a3.212,3.212,0,0,0-1.636-.487l.09.184a1.206,1.206,0,0,0-1.417-1.841l.156.106a1.187,1.187,0,0,0-1.454-1.1l.142.089a1.329,1.329,0,0,0-.445-.75,1.135,1.135,0,0,0-.819-.3.872.872,0,0,0-.7.521,1.484,1.484,0,0,0-.066.843,7,7,0,0,0,.543,1.494l.611,1.419.158-.133-2.046-1.333-1-.652a2.585,2.585,0,0,0-.54-.309.481.481,0,0,0-.357.056c-.1.053-.172.111-.246.143a1.546,1.546,0,0,1-.539.044.764.764,0,0,0-.579.282,1.267,1.267,0,0,0-.117,1.193,2.2,2.2,0,0,0,.76.887,7.144,7.144,0,0,1,.845.7l.062-.166-1.568.161.106.083a1.678,1.678,0,0,0-2.067-1.319l.118.065a1.08,1.08,0,0,0-.8-.7,3.881,3.881,0,0,0-1.01-.129,2.864,2.864,0,0,0-1,.111,1.233,1.233,0,0,0-.751.667,1.825,1.825,0,0,0,.326,1.845,5.259,5.259,0,0,0,1.442,1.121l-.037-.1a.645.645,0,0,1-.546.4,1.6,1.6,0,0,1-.741-.063,5.277,5.277,0,0,0-.76-.188,1.17,1.17,0,0,0-.778.149c-.453.276-.717.725-1.131.92a6.367,6.367,0,0,1-.683.177.91.91,0,0,0-.463.571l-.411,1.293a.8.8,0,0,0,.051.687.914.914,0,0,0,.565.368,1.487,1.487,0,0,0,.649.01,3.012,3.012,0,0,0,.585-.22,3.114,3.114,0,0,1,1.084-.38l-.027-.119a7.368,7.368,0,0,0-1.285.616,2.387,2.387,0,0,0-.9.962,1.758,1.758,0,0,0-.088,1.209,1.085,1.085,0,0,0,.779.776l-.012-.006a1.888,1.888,0,0,0,1.064.3l-.045-.05a9.332,9.332,0,0,1-.886,2.913l.028-.018a5.506,5.506,0,0,0-1.47.179,2.064,2.064,0,0,0-.89.521,1.4,1.4,0,0,0-.315.518.861.861,0,0,0-.045.193,1.481,1.481,0,0,1,.384-.688,2.049,2.049,0,0,1,.88-.5,5.557,5.557,0,0,1,1.458-.161h.019l.009-.018a9.264,9.264,0,0,0,.916-2.929l.007-.051h-.053a1.8,1.8,0,0,1-1.01-.292l-.008,0h-.005a.985.985,0,0,1-.706-.714,1.653,1.653,0,0,1,.089-1.134,2.284,2.284,0,0,1,.865-.91,7.3,7.3,0,0,1,1.267-.6l.363-.143-.389.023a3.21,3.21,0,0,0-1.131.386,2.874,2.874,0,0,1-.557.208,1.351,1.351,0,0,1-.59-.012.779.779,0,0,1-.482-.31.661.661,0,0,1-.033-.574l.412-1.281a.768.768,0,0,1,.384-.484,5.515,5.515,0,0,0,.691-.177c.467-.226.735-.682,1.144-.921a1.7,1.7,0,0,1,1.416.059,1.761,1.761,0,0,0,.814.069.809.809,0,0,0,.676-.51l.019-.063-.056-.034a5.138,5.138,0,0,1-1.393-1.086,1.654,1.654,0,0,1-.3-1.664,1.053,1.053,0,0,1,.648-.569,2.7,2.7,0,0,1,.937-.1,3.722,3.722,0,0,1,.962.124.9.9,0,0,1,.67.57l.024.094.094-.028a1.49,1.49,0,0,1,1.82,1.166l.015.092.091-.009,1.569-.157.2-.02-.136-.146a7.259,7.259,0,0,0-.866-.72,2.02,2.02,0,0,1-.694-.8,1.074,1.074,0,0,1,.087-.994.557.557,0,0,1,.43-.2,1.633,1.633,0,0,0,.612-.06c.206-.1.335-.233.469-.187a2.706,2.706,0,0,1,.477.283l1,.654,2.044,1.336.3.195-.141-.328-.609-1.419a6.9,6.9,0,0,1-.525-1.445,1.272,1.272,0,0,1,.052-.716.648.648,0,0,1,.52-.389,1.072,1.072,0,0,1,1.023.864l.023.124.119-.035a.966.966,0,0,1,1.165.883v.169l.157-.064a.977.977,0,0,1,1.148,1.491l-.136.18.226,0a2.983,2.983,0,0,1,1.517.454l.188.117-.009-.219a.835.835,0,0,1,1.334-.569l.188.189.013-.266a1.58,1.58,0,0,1,.212-.868c.148-.213.531-.3.675-.1l.328.441-.118-.54a.991.991,0,0,1,1.6-.969l.092.078.077-.093.546-.66-.088.044a1.354,1.354,0,0,1,1.283.641c.216.412-.113,1.09-.582,1.046l-.008.243c.076,0,.106.024.132.1a.612.612,0,0,1-.006.282,1.35,1.35,0,0,1-.3.561l-.813,1.131.183.161a1.107,1.107,0,0,1,1.362-.126l.092.069.074-.086a.828.828,0,0,1,1.187.009l.127.151.079-.178a.65.65,0,0,1,1.148.194l.055.621.184-.591c.049-.157.324-.192.561-.166a2.859,2.859,0,0,1,.736.146.685.685,0,0,1,.458.455c.058.213-.009.466-.188.525l.1.225c.171-.1.43.043.533.252a.693.693,0,0,1-.1.685c-.277.453-.861.695-1.172,1.267l-.295.544.486-.389c.365-.292.948-.2,1.469-.186a3.348,3.348,0,0,1,1.5.364l.128.074.051-.133c.067-.177.37-.205.619-.156a4.571,4.571,0,0,1,2.2,1.125,1.883,1.883,0,0,1,.491.634.544.544,0,0,1-.1.655,6.343,6.343,0,0,1-.7.462l-.738.457-.974.6-.236.146.265.082a5.681,5.681,0,0,1,2.843,2.014l.016.022.022.012c.469.264.99.291,1.332.568a.669.669,0,0,1,.216.536c-.007.2-.11.368-.271.358l-.4-.023.321.248a.781.781,0,0,1,.282.642.684.684,0,0,1-.343.565l-.023.014-.014.022a1.314,1.314,0,0,1-.737.513l-.039.012-.024.032a.991.991,0,0,1-.84.39l-.377-.035.283.253a3.8,3.8,0,0,1,1.113,1.454,1.6,1.6,0,0,1-.189,1.6l-.021.023-.007.031a.806.806,0,0,1-.349.512l-.1.059.053.1a.667.667,0,0,1,.065.437l-.023.1.1.038a2,2,0,0,1,1.077,1.006,1.879,1.879,0,0,1,.076,1.447,1.84,1.84,0,0,1-.908,1.071,1.146,1.146,0,0,1-.668.058.446.446,0,0,1-.388-.385l-.028-.478-.2.435a1.5,1.5,0,0,1-1.132.825l-.18.022.09.159a1.45,1.45,0,0,1-.752,1.981l-.211.066.173.141a1.448,1.448,0,0,1,.418,1.43,1.429,1.429,0,0,1-.9,1.092l-.117.037.041.116a1.159,1.159,0,1,1-2.19.76l-.087-.261-.127.245a2.538,2.538,0,0,1-.938,1.164.82.82,0,0,1-1.128-.3l-.111-.331-.107.334a1.644,1.644,0,0,1-2.4.779l-.187-.138.007.232a1.023,1.023,0,0,1-2.033.18l-.013-.094h-.1l-2.94-.026a7.3,7.3,0,0,1-2.784-.393,5.187,5.187,0,0,1-1.2-.669,4.974,4.974,0,0,0-.575-.42,1.036,1.036,0,0,0-.741-.086,6.836,6.836,0,0,1-1.322.293,4.679,4.679,0,0,1-1.314-.075,4.578,4.578,0,0,1-2.268-1.16,2.515,2.515,0,0,0-.52-.424,1.49,1.49,0,0,0-.662-.153,10.153,10.153,0,0,1-1.256-.075,8.37,8.37,0,0,1-1.206-.246,2.866,2.866,0,0,1-1.06-.509,1.037,1.037,0,0,1-.413-.972.741.741,0,0,1,.661-.7l.081,0,.009-.08a1.54,1.54,0,0,0-.173-.955.967.967,0,0,0-.817-.491.683.683,0,0,0-.728.553.63.63,0,0,0,.473.744l-.037-.153a.955.955,0,0,1-1.067-.064,1.081,1.081,0,0,1-.509-.942,1.528,1.528,0,0,1,1.5-1.316h.1l-.027-.1a3.589,3.589,0,0,1-.048-1.735l.071-.315-.2.254a1.237,1.237,0,0,1-1.673.193l-.059-.049-.043.065a2.369,2.369,0,0,1-1.076.927,1.416,1.416,0,0,1-1.3-.113.945.945,0,0,1-.448-1.074.861.861,0,0,1,.853-.659l.113.014-.059-.1a1.106,1.106,0,0,1,.976-1.594l.064.007-.011-.065a1.763,1.763,0,0,1,1.065-1.864l-.038-.075a.912.912,0,0,1-1.292-.495l-.02-.079-.044.07a.881.881,0,0,1-.716.384,1.936,1.936,0,0,1-.737-.117,2.273,2.273,0,0,1-.964-.641,1.037,1.037,0,0,1-.234-.653C334.519,130.944,334.541,130.865,334.534,130.864Z" transform="translate(-334.5 -112.35)"/><g transform="translate(7.38 11.079)"><path class="j" d="M367.311,142.206a9.34,9.34,0,0,0-9.161-9.841,9.615,9.615,0,0,0-9.742,8.787,95.3,95.3,0,0,0-.55,10.31c.369,4.757,3.326,6.427,4.512,6.909a6.363,6.363,0,0,0,1.3.229h0a.032.032,0,0,1,.029.035l-.724,5.535c-.257,3.612-1.05,15.895,2.625,16.18s9.4-11.868,9.724-15.487Z" transform="translate(-347.83 -132.361)"/></g><g transform="translate(9.15 20.404)"><g transform="translate(0.24 2.284)"><path class="d" d="M351.466,153.959a.76.76,0,0,0,.679.82.74.74,0,0,0,.85-.62.761.761,0,0,0-.678-.821A.739.739,0,0,0,351.466,153.959Z" transform="translate(-351.461 -153.331)"/></g><path class="d" d="M351.037,149.889c.087.106.705-.272,1.534-.206s1.4.521,1.5.428c.048-.041-.034-.226-.283-.436a2.135,2.135,0,0,0-1.19-.465,2.068,2.068,0,0,0-1.231.287C351.095,149.67,350.994,149.842,351.037,149.889Z" transform="translate(-351.028 -149.205)"/></g><g transform="translate(17.13 21.19)"><g transform="translate(0 2.114)"><path class="d" d="M365.445,155.071a.76.76,0,0,0,.679.82.739.739,0,0,0,.85-.62.76.76,0,0,0-.678-.821A.739.739,0,0,0,365.445,155.071Z" transform="translate(-365.44 -154.443)"/></g><g transform="translate(0.149)"><path class="d" d="M365.719,151.309c.087.106.706-.272,1.534-.206s1.4.521,1.5.428c.048-.041-.034-.226-.283-.436a2.134,2.134,0,0,0-1.19-.465,2.064,2.064,0,0,0-1.231.287C365.778,151.089,365.676,151.261,365.719,151.309Z" transform="translate(-365.71 -150.625)"/></g></g><g transform="translate(11.718 20.924)"><path class="d" d="M357.729,156.894a5.578,5.578,0,0,0-1.326-.343c-.209-.038-.406-.095-.43-.239a1.051,1.051,0,0,1,.193-.605l.757-1.533a27.058,27.058,0,0,0,1.748-4.029,27.248,27.248,0,0,0-2.074,3.882l-.731,1.545a1.19,1.19,0,0,0-.177.807.525.525,0,0,0,.323.331,1.471,1.471,0,0,0,.355.077A5.51,5.51,0,0,0,357.729,156.894Z" transform="translate(-355.665 -150.144)"/></g><g transform="translate(13.054 35.776)"><path class="k" d="M358.274,178.516a13.464,13.464,0,0,0,7.373-1.544c-.253.125-1.466,4.8-7.568,3.035Z" transform="translate(-358.079 -176.972)"/></g><g transform="translate(13.871 29.196)"><path class="k" d="M359.652,165.551a1.516,1.516,0,0,1,1.383-.44,1.363,1.363,0,0,1,.9.569.839.839,0,0,1-.014.975,1.021,1.021,0,0,1-1.108.185,3.135,3.135,0,0,1-1.007-.7.9.9,0,0,1-.216-.259.269.269,0,0,1,.026-.3" transform="translate(-359.555 -165.085)"/></g><g transform="translate(13.353 28.426)"><path class="d" d="M361.438,163.695c-.134-.018-.209.865-1.031,1.432s-1.77.4-1.788.518c-.017.055.2.188.6.23a2.279,2.279,0,0,0,1.488-.383,1.925,1.925,0,0,0,.807-1.2C361.582,163.921,361.5,163.695,361.438,163.695Z" transform="translate(-358.618 -163.695)"/></g><g transform="translate(17.312 18.744)"><path class="d" d="M365.773,146.7c.064.228.9.187,1.861.378.966.172,1.727.512,1.872.324.065-.09-.054-.309-.353-.548a3.181,3.181,0,0,0-1.359-.59,3.215,3.215,0,0,0-1.485.055C365.941,146.436,365.747,146.6,365.773,146.7Z" transform="translate(-365.771 -146.208)"/></g><g transform="translate(9.568 18.216)"><path class="d" d="M351.8,145.99c.131.2.717.049,1.4.094.689.02,1.257.223,1.407.04.066-.09-.009-.282-.249-.476a2.066,2.066,0,0,0-2.264-.107C351.836,145.711,351.74,145.9,351.8,145.99Z" transform="translate(-351.781 -145.253)"/></g><g transform="translate(2.62 4.732)"><g transform="translate(3.682 3.894)"><path class="d" d="M346.269,133.433a5.905,5.905,0,0,1,.117-.789,2.4,2.4,0,0,1,.7-.987,8.127,8.127,0,0,1,3.334-2.335c.773-.2,1.576-.125,2.351-.317a13.55,13.55,0,0,0,1.406-.511,11.519,11.519,0,0,1,5.971-.322,9.5,9.5,0,0,1,3.208,1.041,11.494,11.494,0,0,1,2.875,2.616,17.516,17.516,0,0,1,3.2,5.159,8.569,8.569,0,0,1,.461,4.871,4.147,4.147,0,0,1-2.934,3.3l-.489-.667-.782-.988c.13.394,0,.365-.329.553a.672.672,0,0,1-.929-.345c-.282.32-.835-.077-.718-.515-.329.149-.705-.308-.571-.694-.377.109-.544-.5-.7-.909a6.224,6.224,0,0,0-.323-.632,4.1,4.1,0,0,1-.415-2.243,4.017,4.017,0,0,1-.51-2.205l-.056-1.462-.241-.359a.79.79,0,0,1-.584.708,1.686,1.686,0,0,1-.876-.087l-.85-.239-.553.112a2.19,2.19,0,0,1-.276,1.4,1.36,1.36,0,0,1-.564.745.41.41,0,0,1-.534-.484.454.454,0,0,1-.692-.168,1.493,1.493,0,0,1-.122-.907,3.823,3.823,0,0,1,.865-2.041l-1.617,1.285a.707.707,0,0,1-.386.2.4.4,0,0,1-.459.4,1.036,1.036,0,0,1-.525-.422c-.334-.415-.668-1.1-.307-1.506a.327.327,0,0,1-.106-.488l-1.811,1.158c.178-.085.344.195.289.412a.909.909,0,0,1-.4.476,1.335,1.335,0,0,1,.13.825c.329-.251.749.3.613.73a.967.967,0,0,1-.959.63.673.673,0,0,1-.719-.559c-.381.049-.7-.5-.531-.907-.285.159-.483-.347-.468-.716a5.306,5.306,0,0,1,.427-1.876.1.1,0,0,1-.141.028.111.111,0,0,1-.031-.074l-1.079,2.116a5.509,5.509,0,0,0-.686,1.908c-.028.28-.091.66-.328.667a.35.35,0,0,1-.181-.064,3.521,3.521,0,0,1-1.391-1.914,2.678,2.678,0,0,1-.168-.844A11.439,11.439,0,0,1,346.269,133.433Z" transform="translate(-345.883 -127.932)"/></g><g transform="translate(22.845 18.882)"><path class="j" d="M380.975,155.094c.083-.03,3.323-.76,3.016,2.481s-3.5,2.262-3.494,2.169S380.975,155.094,380.975,155.094Z" transform="translate(-380.497 -155.003)"/></g><g transform="translate(23.947 19.98)"><path class="k" d="M382.492,159.5c.016-.009.053.045.144.1a.57.57,0,0,0,.421.049,1.4,1.4,0,0,0,.765-1.192,1.868,1.868,0,0,0-.081-.823.655.655,0,0,0-.383-.473.288.288,0,0,0-.348.123c-.052.086-.038.153-.055.157s-.065-.061-.026-.192a.362.362,0,0,1,.147-.191.428.428,0,0,1,.32-.053.8.8,0,0,1,.541.559,1.924,1.924,0,0,1,.11.922,1.472,1.472,0,0,1-.957,1.321.607.607,0,0,1-.508-.135C382.49,159.575,382.48,159.5,382.492,159.5Z" transform="translate(-382.488 -156.988)"/></g><g transform="translate(11.316 6.001)"><path class="h" d="M359.934,134.394a.809.809,0,0,1-.182-.436.574.574,0,0,1,.188-.476.615.615,0,0,1,.634-.107l.131.057-.047-.136a.643.643,0,0,1,.233-.7.63.63,0,0,1,.8.1l.116-.091a.278.278,0,0,1-.038-.085.363.363,0,0,1,.078-.3.417.417,0,0,1,.278-.144.693.693,0,0,1,.323.043.884.884,0,0,0,.357.112c.158-.015.236-.124.321-.169a1.224,1.224,0,0,1,.264-.134,1.4,1.4,0,0,1,.531-.075,1.424,1.424,0,0,1,.74.247c.154.107.222.192.233.183a.64.64,0,0,0-.2-.229,1.392,1.392,0,0,0-.767-.3,1.459,1.459,0,0,0-.577.063,1.327,1.327,0,0,0-.3.141c-.1.06-.177.142-.257.142a.856.856,0,0,1-.3-.108.828.828,0,0,0-.391-.054.562.562,0,0,0-.374.2.507.507,0,0,0-.107.427.415.415,0,0,0,.06.136l.116-.091a.747.747,0,0,0-1.264.746l.084-.079a.718.718,0,0,0-.752.146.671.671,0,0,0-.041.9C359.888,134.377,359.931,134.4,359.934,134.394Z" transform="translate(-359.673 -131.737)"/></g><g transform="translate(7.539 4.597)"><path class="h" d="M353.186,133.89a1,1,0,0,1-.241-.429.731.731,0,0,1,.08-.546.761.761,0,0,1,.606-.366l.106,0-.064-.086a.909.909,0,0,1-.18-.813.488.488,0,0,1,.319-.3.387.387,0,0,1,.425.094l.376.475-.257-.549a.754.754,0,0,1,.014-.637.7.7,0,0,1,.538-.386.736.736,0,0,1,.481.09l.163.1-.055-.182c-.078-.258.2-.526.456-.537a1.241,1.241,0,0,1,.752.258l.133.087-.031-.155a.535.535,0,0,1,.22-.5.987.987,0,0,1,.516-.179,2.525,2.525,0,0,1,.93.1,4.018,4.018,0,0,1,.758.348.669.669,0,0,0-.172-.142,2.373,2.373,0,0,0-.562-.281,2.489,2.489,0,0,0-.963-.136,1.093,1.093,0,0,0-.582.191.658.658,0,0,0-.275.626l.1-.068a1.354,1.354,0,0,0-.838-.289.681.681,0,0,0-.447.218.522.522,0,0,0-.138.5l.108-.085a.88.88,0,0,0-.577-.11.84.84,0,0,0-.648.468.893.893,0,0,0-.011.761l.119-.075a.524.524,0,0,0-.578-.135.621.621,0,0,0-.4.389,1.018,1.018,0,0,0,.214.925l.042-.09a.852.852,0,0,0-.678.433.806.806,0,0,0,.131.941C353.142,133.873,353.184,133.894,353.186,133.89Z" transform="translate(-352.851 -129.202)"/></g><g transform="translate(0 4.911)"><path class="h" d="M339.241,134.148a.551.551,0,0,1,.223-.383.7.7,0,0,1,.5-.132,2.074,2.074,0,0,1,.679.224l.078.037,0-.087a.631.631,0,0,1,.564-.568,1.831,1.831,0,0,1,1.017.254l.439.208-.364-.322a.518.518,0,0,1,.1-.739,1.174,1.174,0,0,1,.925-.137l.043.008.284.051-.225-.182a.555.555,0,0,1,.137-.87.842.842,0,0,1,.925.17l.278.262-.172-.342a1.259,1.259,0,0,1,.113-1.276,1.174,1.174,0,0,1,.907-.475,1.331,1.331,0,0,1,.678.147c.145.077.211.139.219.131s-.012-.02-.044-.051a.872.872,0,0,0-.153-.118,1.3,1.3,0,0,0-.7-.192,1.255,1.255,0,0,0-1,.489,1.372,1.372,0,0,0-.143,1.4l.107-.08a.975.975,0,0,0-1.085-.2.708.708,0,0,0-.36.5.623.623,0,0,0,.2.61l.059-.131-.046-.008a1.3,1.3,0,0,0-1.041.169.748.748,0,0,0-.261.461.54.54,0,0,0,.156.493l.075-.114a1.926,1.926,0,0,0-1.1-.251.74.74,0,0,0-.647.7l.074-.05a2.109,2.109,0,0,0-.716-.211.756.756,0,0,0-.54.171.528.528,0,0,0-.189.3A.223.223,0,0,0,339.241,134.148Z" transform="translate(-339.233 -129.768)"/></g><g transform="translate(4.739 2.207)"><path class="h" d="M347.793,124.886a.43.43,0,0,0,.187.086,2.479,2.479,0,0,0,.565.078,1.7,1.7,0,0,1,.806.193.519.519,0,0,1,.255.38.377.377,0,0,1-.185.415l.094.08c.046-.185.288-.284.508-.39a2.447,2.447,0,0,1,.709-.235.886.886,0,0,1,.686.167.588.588,0,0,1,.254.565l-.038.178.147-.109a1.631,1.631,0,0,1,.987-.311,1.836,1.836,0,0,1,.807.188,2.341,2.341,0,0,1,.592.455.581.581,0,0,0-.111-.171,1.558,1.558,0,0,0-.442-.359,1.85,1.85,0,0,0-.844-.229,1.718,1.718,0,0,0-1.072.316l.109.07a.724.724,0,0,0-.3-.708,1.024,1.024,0,0,0-.793-.2,2.53,2.53,0,0,0-.752.25,3.08,3.08,0,0,0-.334.177.534.534,0,0,0-.246.311l-.032.136.126-.056a.506.506,0,0,0,.259-.561.642.642,0,0,0-.32-.459,1.7,1.7,0,0,0-.864-.178,3.236,3.236,0,0,1-.558-.038C347.863,124.9,347.8,124.877,347.793,124.886Z" transform="translate(-347.793 -124.884)"/></g><g transform="translate(12.225)"><path class="h" d="M361.314,120.924a1.553,1.553,0,0,1,.379.086.93.93,0,0,1,.346.263.8.8,0,0,1,.191.512v.08l.077-.019a.485.485,0,0,1,.509.347,1.472,1.472,0,0,1-.042.809l-.069.282.2-.22.031-.034a.623.623,0,0,1,.52-.164.7.7,0,0,1,.46.249,1.108,1.108,0,0,1,.22.889,2.064,2.064,0,0,1-.218.618,1.057,1.057,0,0,0-.11.221c.007,0,.069-.059.159-.193a1.805,1.805,0,0,0,.271-.628,1.194,1.194,0,0,0-.218-.994.818.818,0,0,0-1.19-.1l-.04.045.129.063a1.556,1.556,0,0,0,.03-.892.608.608,0,0,0-.67-.418l.077.06a.891.891,0,0,0-.239-.577.953.953,0,0,0-.4-.264.762.762,0,0,0-.3-.043C361.349,120.907,361.313,120.918,361.314,120.924Z" transform="translate(-361.314 -120.898)"/></g><g transform="translate(18.231 1.211)"><path class="h" d="M372.163,126.887a.393.393,0,0,0,.2-.027,1.219,1.219,0,0,0,.468-.274,1.3,1.3,0,0,0,.4-.7.665.665,0,0,1,.131-.39c.092-.1.276-.145.4-.305a.736.736,0,0,0-.1-1l0,.107a2.359,2.359,0,0,0,.7-.815.959.959,0,0,0,.137-.39c-.016-.006-.072.135-.207.35a2.6,2.6,0,0,1-.706.745l-.074.051.071.056a.607.607,0,0,1,.071.806c-.085.12-.249.163-.386.295a.768.768,0,0,0-.163.469,1.252,1.252,0,0,1-.336.654A1.858,1.858,0,0,1,372.163,126.887Z" transform="translate(-372.162 -123.085)"/></g><g transform="translate(20.002 4.554)"><path class="h" d="M375.362,131.03c0,.006.04.017.12.028a1.65,1.65,0,0,0,.35,0,1.955,1.955,0,0,0,1.133-.52l-.095-.01a1.262,1.262,0,0,0,.821.528,1.3,1.3,0,0,0,.551-.018.8.8,0,0,0,.5-.324,1.712,1.712,0,0,0,.076-.206.289.289,0,0,1,.1-.128.908.908,0,0,1,.35-.121,1.173,1.173,0,0,0,.39-.122.418.418,0,0,0,.239-.342l-.1.056a1.294,1.294,0,0,0,.891.1,1.4,1.4,0,0,0,.618-.317,1.169,1.169,0,0,0,.275-.355.4.4,0,0,0,.049-.152,1.83,1.83,0,0,1-.375.446,1.376,1.376,0,0,1-.59.27,1.2,1.2,0,0,1-.8-.107l-.095-.05,0,.106a.285.285,0,0,1-.173.225,1.052,1.052,0,0,1-.348.1,1.028,1.028,0,0,0-.409.143.437.437,0,0,0-.154.191,1.927,1.927,0,0,1-.069.19.678.678,0,0,1-.405.255,1.179,1.179,0,0,1-.489.019,1.147,1.147,0,0,1-.743-.458l-.042-.062-.053.052a1.983,1.983,0,0,1-1.056.538C375.534,131.035,375.363,131.013,375.362,131.03Z" transform="translate(-375.362 -129.123)"/></g><g transform="translate(22.665 7.316)"><path class="h" d="M388.676,138.75s.01-.016.021-.049a.835.835,0,0,0,.038-.151,1.558,1.558,0,0,0-.021-.587,3.448,3.448,0,0,0-.323-.855,3.23,3.23,0,0,0-.285-.491.873.873,0,0,0-.238-.219.39.39,0,0,0-.359-.03l.087.068a.977.977,0,0,0-1.514-.984l.113.068a.673.673,0,0,0-.225-.572.646.646,0,0,0-.618-.13.665.665,0,0,0-.306.193l.128.061a.421.421,0,0,0-.125-.358.576.576,0,0,0-.319-.166,1.328,1.328,0,0,0-.64.106l.087.035a1.05,1.05,0,0,0-.6-.5,1.469,1.469,0,0,0-.718-.061,3.7,3.7,0,0,0-1.15.455l.071.073a.258.258,0,0,0-.008-.257.443.443,0,0,0-.169-.153.751.751,0,0,0-.385-.092,2.105,2.105,0,0,0-.6.126,1.953,1.953,0,0,0-.347.166.4.4,0,0,0-.107.08c.007.013.161-.092.473-.19a2.2,2.2,0,0,1,.581-.1.676.676,0,0,1,.335.091c.107.06.194.173.131.277l-.094.154.166-.082a3.7,3.7,0,0,1,1.12-.422,1.35,1.35,0,0,1,.653.063.915.915,0,0,1,.514.432l.028.056.059-.02a1.209,1.209,0,0,1,.57-.1c.174.025.351.19.322.356l-.045.256.173-.2a.523.523,0,0,1,.237-.149.5.5,0,0,1,.478.1.53.53,0,0,1,.178.446l-.018.158.131-.09a.863.863,0,0,1,.972.011.875.875,0,0,1,.338.83l-.022.12.108-.052c.164-.079.344.065.456.206a3.233,3.233,0,0,1,.285.467,3.6,3.6,0,0,1,.342.824A1.975,1.975,0,0,1,388.676,138.75Z" transform="translate(-380.172 -134.113)"/></g><g transform="translate(23.152 10.138)"><path class="h" d="M387.882,145.242s.032-.027.081-.086a2.352,2.352,0,0,0,.2-.28,1.054,1.054,0,0,0,.163-.526.768.768,0,0,0-.083-.345.552.552,0,0,0-.3-.274l.023.081a.686.686,0,0,0-.64-1.111l.059.11a.552.552,0,0,0,.034-.653.815.815,0,0,0-.6-.345,3.134,3.134,0,0,1-.327-.029.281.281,0,0,1-.188-.193,1.2,1.2,0,0,0-.162-.332.633.633,0,0,0-.329-.22,3.625,3.625,0,0,0-.779-.086.848.848,0,0,1-.616-.238,3.322,3.322,0,0,1-.177-.3.731.731,0,0,0-.276-.254.773.773,0,0,0-.689-.022l.079.1a.584.584,0,0,0-.022-.682.823.823,0,0,0-.525-.318,2.605,2.605,0,0,0-.968.037,3.172,3.172,0,0,0-.593.18.737.737,0,0,0-.2.1,7.326,7.326,0,0,1,.8-.206,2.665,2.665,0,0,1,.931-.008.72.72,0,0,1,.45.282.465.465,0,0,1,.019.535l-.175.216.253-.118a.646.646,0,0,1,.569.026.6.6,0,0,1,.223.208,2.868,2.868,0,0,0,.184.312.762.762,0,0,0,.331.223,1.713,1.713,0,0,0,.384.071,3.652,3.652,0,0,1,.746.08.492.492,0,0,1,.257.171,1.091,1.091,0,0,1,.144.3.427.427,0,0,0,.284.275,2.619,2.619,0,0,0,.347.031.682.682,0,0,1,.5.276.42.42,0,0,1-.013.491l-.128.14.187-.03a.581.581,0,0,1,.6.309.6.6,0,0,1-.064.607l-.046.058.07.024a.56.56,0,0,1,.333.523,1.029,1.029,0,0,1-.131.5C387.972,145.105,387.87,145.235,387.882,145.242Z" transform="translate(-381.051 -139.21)"/></g><g transform="translate(28.637 17.166)"><path class="h" d="M392.761,158.863a.327.327,0,0,0,.146-.034,1.017,1.017,0,0,0,.357-.235,1.048,1.048,0,0,0,.3-.6,1.118,1.118,0,0,0-.23-.843v.079a2.032,2.032,0,0,0,.444-.7.831.831,0,0,0,.006-.471.6.6,0,0,0-.316-.393l0,.13a.854.854,0,0,0,.431-.733.953.953,0,0,0-.11-.491.8.8,0,0,0-.353-.335.278.278,0,0,1-.185-.287,1.166,1.166,0,0,0-.061-.437,1.486,1.486,0,0,0-.5-.631c-.185-.159-.355-.309-.518-.442a2.464,2.464,0,0,0-.858-.5,1.152,1.152,0,0,0-.268-.045c-.062,0-.094,0-.095.007s.13.013.345.092a2.628,2.628,0,0,1,.809.522l.5.453a1.386,1.386,0,0,1,.448.584,1.05,1.05,0,0,1,.049.394.421.421,0,0,0,.06.248.564.564,0,0,0,.192.163.761.761,0,0,1,.038,1.305l-.132.067.135.063a.584.584,0,0,1,.239.693,1.963,1.963,0,0,1-.407.656l-.032.04.032.039a1.025,1.025,0,0,1,.226.753,1,1,0,0,1-.252.562A1.465,1.465,0,0,1,392.761,158.863Z" transform="translate(-390.958 -151.904)"/></g><g transform="translate(18.152 8.857)"><path class="h" d="M372.021,139.235a1.107,1.107,0,0,0,.448-.136,1.24,1.24,0,0,0,.423-.308.809.809,0,0,0,.2-.624.617.617,0,0,0-.046-.158l-.039.1a.7.7,0,0,0,.4-.453.64.64,0,0,0-.053-.483c-.14-.248-.328-.287-.327-.272s.141.091.238.315a.571.571,0,0,1,.017.4.591.591,0,0,1-.331.355l-.068.027.028.071a.478.478,0,0,1,.034.12.705.705,0,0,1-.157.516,1.274,1.274,0,0,1-.366.3A2.228,2.228,0,0,0,372.021,139.235Z" transform="translate(-372.02 -136.896)"/></g><g transform="translate(14.726 7.324)"><path class="h" d="M365.987,136.129a.861.861,0,0,1-.057-.544.609.609,0,0,1,.384-.429.658.658,0,0,1,.69.169l.084.094.035-.122a1.207,1.207,0,0,1,.2-.417.555.555,0,0,1,.388-.23c.237-.012.481.228.4.416l.136.04a1.123,1.123,0,0,1,.465-.7,1.094,1.094,0,0,1,.648-.187,1.72,1.72,0,0,1,.6.163c0-.006-.038-.05-.136-.109a1.106,1.106,0,0,0-.463-.145,1.153,1.153,0,0,0-.721.175,1.224,1.224,0,0,0-.536.769l.136.04a.412.412,0,0,0-.109-.437.585.585,0,0,0-.428-.177.692.692,0,0,0-.5.287,1.314,1.314,0,0,0-.224.471l.119-.028a.776.776,0,0,0-.835-.187.7.7,0,0,0-.427.521.7.7,0,0,0,.048.437C365.939,136.1,365.982,136.133,365.987,136.129Z" transform="translate(-365.832 -134.128)"/></g></g></g><g transform="translate(0 177.382)"><g transform="translate(13.38)"><path class="j" d="M304.89,437l-1.864,9.182-6.139.578-2.586-3.045,2.366-10.963Z" transform="translate(-294.301 -432.75)"/></g><g transform="translate(0 9.943)"><g transform="translate(0.198)"><path class="l" d="M282.45,450.709l-.022.717s-11.751,4.536-11.938,6.841l23.069.572-.132-8.048A12.661,12.661,0,0,1,282.45,450.709Z" transform="translate(-270.49 -450.709)"/></g><g class="m" transform="translate(19.595 2.549)"><path class="e" d="M306.673,455.36a.994.994,0,0,1,.626,1.142.9.9,0,0,1-1.076.659,1.049,1.049,0,0,1-.657-1.213.927.927,0,0,1,1.191-.556" transform="translate(-305.527 -455.314)"/></g><g transform="translate(0 6.195)"><path class="d" d="M293.4,463.834l-.032-1.935-22.1.16a2.1,2.1,0,0,0-1.128,1.9Z" transform="translate(-270.133 -461.899)"/></g><g transform="translate(12.053 0.683)"><path class="d" d="M291.9,452.043c0,.118.563.185,1.109.579s.829.9.935.852c.1-.02-.048-.73-.716-1.194S291.881,451.934,291.9,452.043Z" transform="translate(-291.903 -451.942)"/></g><g transform="translate(9.608 1.727)"><path class="d" d="M287.489,453.873c-.028.114.455.326.827.835s.47,1.039.582,1.037c.105.021.2-.668-.275-1.292S287.494,453.76,287.489,453.873Z" transform="translate(-287.488 -453.828)"/></g><g transform="translate(7.31 2.713)"><path class="d" d="M284.193,457.667c.1.028.272-.558,0-1.211s-.8-.923-.845-.827c-.066.1.269.451.486.991S284.082,457.653,284.193,457.667Z" transform="translate(-283.337 -455.61)"/></g></g></g><g transform="translate(50.315 179.475)"><g transform="translate(0.45 0)"><path class="j" d="M370.721,436.53c.087.3,0,11.748,0,11.748l-3.444,2.14-4.5-2.823-.951-11.064Z" transform="translate(-361.828 -436.53)"/></g><g transform="translate(0.01 10.064)"><path class="l" d="M362.1,454.708s6.127,4.554,9.093.612l.775,1.91,3.485,13.611a1.853,1.853,0,0,1-.98,2.185,1.625,1.625,0,0,1-1.783-.357c-2.52-2.511-11.747-11.8-11.657-13.056l.035-3.342a1.7,1.7,0,0,1,1.033-1.564Z" transform="translate(-361.033 -454.708)"/></g><g transform="translate(0 13.807)"><path class="d" d="M374.165,476.136l-13.144-14.667,0,.73a1.946,1.946,0,0,0,.623,1.611,142.373,142.373,0,0,0,11.042,12.36c.406.408,1.176.051,1.476-.034Z" transform="translate(-361.015 -461.469)"/></g><g class="m" transform="translate(0.45 11.467)"><path class="e" d="M363.309,457.408a1.1,1.1,0,0,1,.285,1.393.954.954,0,0,1-1.317.308,1.162,1.162,0,0,1-.294-1.478.985.985,0,0,1,1.4-.161" transform="translate(-361.827 -457.242)"/></g><g transform="translate(9.344 18.978)"><path class="d" d="M377.909,472.794c.093.047.461-.857,1.437-1.346a4.93,4.93,0,0,1,1.892-.388c.014-.043-.195-.175-.58-.231a2.526,2.526,0,0,0-1.474.28,2.68,2.68,0,0,0-1.1,1.062C377.893,472.525,377.868,472.78,377.909,472.794Z" transform="translate(-377.893 -470.809)"/></g><g transform="translate(10.531 22.031)"><path class="d" d="M380.048,477.557c.078.074.6-.488,1.454-.747a13.2,13.2,0,0,1,1.605-.224,1.8,1.8,0,0,0-1.71-.138C380.43,476.749,379.961,477.511,380.048,477.557Z" transform="translate(-380.038 -476.324)"/></g><g transform="translate(7.162 15.972)"><path class="d" d="M373.957,467.422a16.715,16.715,0,0,1,2.17-1.312,16.1,16.1,0,0,1,2.438-.606,3.578,3.578,0,0,0-2.571.254A3.792,3.792,0,0,0,373.957,467.422Z" transform="translate(-373.952 -465.379)"/></g><g transform="translate(6.874 13.138)"><path class="d" d="M373.433,460.994c.044.1.952-.3,2.134-.348,1.181-.067,2.12.244,2.155.137a3.149,3.149,0,0,0-2.172-.515A3.181,3.181,0,0,0,373.433,460.994Z" transform="translate(-373.431 -460.261)"/></g><g transform="translate(6.965 10.35)"><path class="d" d="M376.314,458.36a1.553,1.553,0,0,0-.092-.645,4.606,4.606,0,0,0-.786-1.582,1.933,1.933,0,0,0-.976-.783.664.664,0,0,0-.723.3,1.2,1.2,0,0,0-.119.815,2.4,2.4,0,0,0,2.458,1.866,2.8,2.8,0,0,0,2.4-2.011,1.044,1.044,0,0,0-.1-.83.646.646,0,0,0-.748-.228,2.382,2.382,0,0,0-.962.789,5.108,5.108,0,0,0-.868,1.532,1.612,1.612,0,0,0-.144.634,8.144,8.144,0,0,1,1.2-1.988,2.214,2.214,0,0,1,.854-.666.345.345,0,0,1,.409.122.718.718,0,0,1,.037.55,2.491,2.491,0,0,1-2.1,1.718,2.079,2.079,0,0,1-2.108-1.553.874.874,0,0,1,.06-.572.36.36,0,0,1,.4-.173,1.743,1.743,0,0,1,.838.648A6.815,6.815,0,0,1,376.314,458.36Z" transform="translate(-373.596 -455.224)"/></g></g><g transform="translate(12.053 84.199)"><path class="d" d="M345.988,265.2a57.528,57.528,0,0,1,4.294,11.581c1.9,7.153,4.024,10.745,3.249,23.93-.4,6.728-5.959,24.99-7.241,31.417-1.055,5.289-4.354,30.146-6.027,36.715h-9.581l-.976-73.575s-15.229,42.936-17.18,47.9-8.707,24.626-8.707,24.626L291.9,364.623s7.28-35.2,9.092-43.956,6.734-33.489,8.825-40.935,4.074-15.3,4.074-15.3Z" transform="translate(-291.903 -264.436)"/><g transform="translate(52.914 13.787)"><path class="h" d="M387.485,289.34a1.057,1.057,0,0,0,.1.365,5.636,5.636,0,0,0,.431.928,7.906,7.906,0,0,0,2.219,2.478,7.5,7.5,0,0,0,3,1.3,5.09,5.09,0,0,0,.981.1c.233,0,.36-.012.36-.032,0-.05-.51-.066-1.3-.257a8.374,8.374,0,0,1-2.883-1.34,8.8,8.8,0,0,1-2.211-2.355C387.723,289.817,387.529,289.32,387.485,289.34Z" transform="translate(-387.481 -289.339)"/></g><g transform="translate(16.94 15.169)"><path class="h" d="M322.5,295.8c0,.019.121.054.35.1a5.217,5.217,0,0,0,.987.107,6.16,6.16,0,0,0,1.47-.147,6.776,6.776,0,0,0,1.7-.649,8.362,8.362,0,0,0,2.5-2.2,4.8,4.8,0,0,0,.741-1.181,13.71,13.71,0,0,0-.884,1.054,9.406,9.406,0,0,1-2.483,2.077,6.858,6.858,0,0,1-3.05.845C323.017,295.839,322.508,295.749,322.5,295.8Z" transform="translate(-322.501 -291.836)"/></g><g transform="translate(37.192 14.98)"><path class="h" d="M359.542,291.494a2.615,2.615,0,0,0-.1.594c-.051.384-.108.942-.164,1.632-.114,1.381-.207,3.3-.189,5.411s.143,4.029.281,5.407c.069.689.135,1.246.192,1.628a2.6,2.6,0,0,0,.114.592,2.677,2.677,0,0,0-.011-.6q-.045-.669-.108-1.634c-.089-1.379-.184-3.285-.2-5.393s.045-4.015.111-5.4c.032-.643.058-1.19.08-1.635A2.624,2.624,0,0,0,359.542,291.494Z" transform="translate(-359.082 -291.494)"/></g></g><g transform="translate(30.365 41.595)"><path class="l" d="M357.136,188.347l8.677,4.138-1.21,15.822s-1.023,1.2-2.686,9.677,3.9,24.978,3.9,24.978l-40.833,1.022s4.792-34.221,5.347-38.75l2.038-17.3,8.209-.449h2.367l2.04,14.749,10.275-14.3Z" transform="translate(-324.98 -187.482)"/></g><g transform="translate(22.751 67.386)"><path class="d" d="M313.258,239.825a2.342,2.342,0,0,0,.127-.932,6.646,6.646,0,0,0-.378-2.241,6.432,6.432,0,0,0-1.1-1.961c-.37-.438-.654-.647-.674-.623a11.251,11.251,0,0,1,1.527,2.68A11.621,11.621,0,0,1,313.258,239.825Z" transform="translate(-311.228 -234.067)"/></g><g transform="translate(3.334 42.041)"><path class="l" d="M281.029,215.467l14.543-.127,5.5-16.245h0a63.293,63.293,0,0,1,2.877-5.728c2.915-5.358,6.616-5.077,6.616-5.077l4.464,6.943-4.74,10.635s-4.536,20.054-9.791,20.935c-8.727,1.463-24.345-4.569-24.345-4.569Z" transform="translate(-276.155 -188.288)"/></g><g class="n" transform="translate(33.708 72.605)"><path d="M331.047,245.088c-.014-.553-.151-1.265.326-1.5a1.612,1.612,0,0,1,1.236.093c12.05,4.272,19.023-.687,31.073,3.585l2.454,12.376c-5.346.044-7.792-1.206-13.05-2.889-5.362-1.716-10.728-3.433-15.988-5.468a14.584,14.584,0,0,1-4.136-2.165A5.256,5.256,0,0,1,331.047,245.088Z" transform="translate(-331.018 -243.494)"/></g><g transform="translate(35.381 53.728)"><path class="d" d="M335.318,209.4a4.218,4.218,0,0,1-.281.82,13.791,13.791,0,0,0-.5,2.008c-.285,1.6-.342,2.925-.424,2.924a8.514,8.514,0,0,1,.14-2.976,8.789,8.789,0,0,1,.6-2.032A1.974,1.974,0,0,1,335.318,209.4Z" transform="translate(-334.041 -209.397)"/></g></g><g transform="translate(0 46.35)"><g transform="translate(0 16.397)"><g transform="translate(150.96 6.85)"><path class="o" d="M0,0H3.128A3.661,3.661,0,0,1,6.789,3.661v0A3.661,3.661,0,0,1,3.128,7.322H0a0,0,0,0,1,0,0V0A0,0,0,0,1,0,0Z" transform="matrix(1, 0.026, -0.026, 1, 0.188, 0)"/></g><g transform="translate(5.096 0.699)"><path class="p" d="M206.762,229.957l29.775-3.005,111.877,2.878a1.973,1.973,0,0,1,1.921,2.023l-.27,10.5a1.973,1.973,0,0,1-2.023,1.921l-112.3-2.89-29.119-5.974Z" transform="translate(-206.621 -226.952)"/></g><g transform="translate(0 5.169)"><path class="d" d="M202.606,235.1l-2.737-.07-2.325.788c-.193.144-.144.328-.014.526l2.339.762,2.682.069Z" transform="translate(-197.416 -235.026)"/></g><g transform="translate(34.64 0.699)"><rect class="d" width="2.322" height="14.449" transform="translate(0.372) rotate(1.474)"/></g><g transform="translate(88.061)"><g transform="translate(0.145 0.142)"><path class="o" d="M417.727,230.021h0a2.573,2.573,0,0,1-2.638,2.505l-55.842-1.437a2.572,2.572,0,0,1-2.506-2.637h0a2.572,2.572,0,0,1,2.638-2.505l55.842,1.437A2.572,2.572,0,0,1,417.727,230.021Z" transform="translate(-356.74 -225.945)"/></g><path class="d" d="M417.61,229.906a2.9,2.9,0,0,0-.316-1.24,2.561,2.561,0,0,0-1.092-1.07,2.522,2.522,0,0,0-.943-.267c-.352-.023-.739-.019-1.142-.03l-13.7-.307L380.1,226.5l-12-.3-6.346-.161L360.14,226a5.909,5.909,0,0,0-1.579.062,2.428,2.428,0,0,0-.124,4.649,5.847,5.847,0,0,0,1.574.145l1.618.042,6.347.166,12,.317,20.318.554,13.7.4c.4.009.789.033,1.141.028a2.515,2.515,0,0,0,.956-.218,2.56,2.56,0,0,0,1.145-1.013,2.908,2.908,0,0,0,.379-1.221,2,2,0,0,1-.018.331,2.459,2.459,0,0,1-.311.92,2.6,2.6,0,0,1-2.147,1.3c-.365.009-.742-.01-1.148-.015l-13.7-.307-20.319-.492-12-.3-6.347-.161L360,231.141l-.813-.021a2.952,2.952,0,0,1-.844-.137,2.715,2.715,0,0,1,.139-5.2,2.956,2.956,0,0,1,.849-.092l.813.021,1.617.042,6.346.166,12,.317,20.315.554,13.7.4c.406.016.783.017,1.147.044a2.6,2.6,0,0,1,2.078,1.409,2.457,2.457,0,0,1,.264.935A1.968,1.968,0,0,1,417.61,229.906Z" transform="translate(-356.478 -225.689)"/></g><g transform="translate(148.534 4.887)"><path class="d" d="M466,234.517l2.868,1.458-.214,8.3-2.948,1.654Z" transform="translate(-465.709 -234.517)"/></g></g><g transform="translate(86.621)"><g transform="translate(18.67)"><path class="l" d="M397.313,223.2l-6.338-9.766h0l-.569-.876h0l-.854-1.321,3.722-15.161a14.211,14.211,0,0,1,4.928,3.9,57.862,57.862,0,0,1,3.883,6.919s6.2,14.184,7.22,16.3,2.666,6.037,0,8.232-20.506,2.268-20.506,2.268l-1.2-8.962Z" transform="translate(-387.6 -196.071)"/><g transform="translate(1.51 2.4)"><path class="d" d="M390.718,211.568c.047-.009-.091-.665-.15-1.735a13.79,13.79,0,0,1,2.035-7.975c.564-.911,1-1.42.962-1.451-.013-.012-.132.106-.335.332a8.889,8.889,0,0,0-.784,1.018,12.521,12.521,0,0,0-2.064,8.09,8.883,8.883,0,0,0,.2,1.269A1.626,1.626,0,0,0,390.718,211.568Z" transform="translate(-390.328 -200.406)"/></g></g><g transform="translate(0 24.97)"><path class="j" d="M370.495,246.511a6.133,6.133,0,0,0-1.607-2.121c-1.168-1.015-3.733-1.8-4.065-2.773s-1.3-.218-1.077.993a12.393,12.393,0,0,0,1.733,2.793,4.893,4.893,0,0,1-3.105-.247c-1.241-.715-5.587-2-6.052-1.393-.525.687.612.916,1.1,1.193.371.211,3.26,1.643,3.26,1.643s-5.749-.2-6.472.078c-.787.3.019.993.381,1.008a9.293,9.293,0,0,1,1.911,1.539,2.609,2.609,0,0,0,1.742.7l1.336.02-4.058.426s-.7.642.275.976c.435.149,11.682,1.166,12.637,1.134,2.164-.073,5.179-.221,5.179-.221l-.528-6.092Z" transform="translate(-353.877 -241.173)"/><g transform="translate(0.612 6.573)"><path class="k" d="M354.982,253.055a12.144,12.144,0,0,0,5.584,1c0-.079-1.267-.151-2.8-.429S355.007,252.981,354.982,253.055Z" transform="translate(-354.981 -253.046)"/></g></g></g><g transform="translate(41.04 23.851)"><g class="c" transform="translate(3.763 0.595)"><path d="M278.343,240.276c1.1-.242,2.172.464,3.083,1.135a13.906,13.906,0,0,1,1.631,1.331c1.4,1.4,2.138,3.322,3.317,4.915l-6.624-1.009Z" transform="translate(-278.343 -240.227)"/></g><path class="j" d="M285.449,247.451l-2.894-.6s-2.6-4.153-3.971-4.655l-.77-.343s-1-2.2-2.37-1.921c-.812-.531-1.539-.319-1.617.491,0,0-.4-1.844-1.911-1.084S274,246.477,274,246.477s1.259,3.27,2.827,2.178a4.287,4.287,0,0,0,2.612-.219s.97,1.365,3.263.324Z" transform="translate(-271.546 -239.152)"/><g transform="translate(7.58 8.162)"><path class="k" d="M285.268,254.253c-.014,0-.047.108-.018.308a1.371,1.371,0,0,0,.4.744,1.891,1.891,0,0,0,1.136.534,3.9,3.9,0,0,0,1.511-.164,9.5,9.5,0,0,0,2.484-1.088,3.3,3.3,0,0,0,.886-.689,17.254,17.254,0,0,1-3.441,1.521,3.939,3.939,0,0,1-1.413.177,1.773,1.773,0,0,1-1.035-.427A1.692,1.692,0,0,1,285.268,254.253Z" transform="translate(-285.238 -253.894)"/></g><g transform="translate(2.111 0.871)"><path class="k" d="M278.087,246.908c.067-.046-.8-1.3-1.546-3.009s-1.091-3.192-1.171-3.174a3.159,3.159,0,0,0,.151.991,13.93,13.93,0,0,0,1.938,4.411A3.141,3.141,0,0,0,278.087,246.908Z" transform="translate(-275.359 -240.725)"/></g><g transform="translate(3.889 0.776)"><path class="k" d="M281.18,246.692c.068-.04-.664-1.343-1.377-3.036s-1.147-3.123-1.223-3.1a16.053,16.053,0,0,0,2.6,6.138Z" transform="translate(-278.571 -240.555)"/></g><g transform="translate(4.249 8.391)"><path class="k" d="M279.247,254.309c-.072,0-.009.531.463.923s1,.367.99.3c.008-.076-.426-.161-.819-.5S279.32,254.288,279.247,254.309Z" transform="translate(-279.222 -254.309)"/></g><g transform="translate(6.351 2.813)"><path class="k" d="M284.966,247.421a45.048,45.048,0,0,0-1.94-3.187,7.8,7.8,0,0,0,1.94,3.187Z" transform="translate(-283.017 -244.233)"/></g></g></g></g></g><g transform="translate(1085 3023.957)"><g transform="translate(0.144 0.144)"><rect class="e" width="45.686" height="71.349" rx="8.427"/></g><path class="d" d="M-8.467,362.628s.049-.008.146-.015.244-.007.433-.04a4.724,4.724,0,0,0,1.612-.525,4.729,4.729,0,0,0,1.9-1.947,4.552,4.552,0,0,0,.5-1.676c.044-.623.008-1.306.017-2.018-.011-5.726-.027-14-.046-24.223s-.019-22.405-.03-35.925a4.581,4.581,0,0,0-2.215-4.2c-1.458-.941-3.311-.562-5.061-.641l-10.831,0-22.776,0a4.539,4.539,0,0,0-2.646.856A4.514,4.514,0,0,0-49.1,294.5a8.575,8.575,0,0,0-.239,2.807q0,1.435,0,2.861,0,5.7,0,11.224c0,7.358-.006,14.456-.008,21.218s-.009,13.187-.013,19.2q0,2.255,0,4.431c.009.72-.023,1.455.019,2.145a4.509,4.509,0,0,0,.645,1.94,4.537,4.537,0,0,0,3.23,2.139,17.217,17.217,0,0,0,1.967.055l1.94,0,24.222.046,6.585.027,1.713.014c.386,0,.584.015.584.015s-.2.01-.584.014l-1.713.014-6.585.027-24.222.046-1.94,0a17.375,17.375,0,0,1-2-.052,4.754,4.754,0,0,1-3.389-2.235,4.735,4.735,0,0,1-.681-2.035c-.046-.732-.014-1.436-.025-2.166q0-2.176,0-4.431c0-6.013-.009-12.439-.013-19.2s-.006-13.86-.008-21.218q0-5.519,0-11.224V297.31l0-1.44a4.891,4.891,0,0,1,.25-1.459,4.8,4.8,0,0,1,1.747-2.365,4.826,4.826,0,0,1,2.815-.911l22.776,0,10.831,0h2.64a4.825,4.825,0,0,1,2.559.683,4.808,4.808,0,0,1,1.8,1.906,5.056,5.056,0,0,1,.442,1.235,6.29,6.29,0,0,1,.1,1.292c-.012,13.52-.022,25.7-.03,35.925s-.035,18.5-.046,24.223c-.013.717.019,1.386-.03,2.028a4.644,4.644,0,0,1-.519,1.707A4.77,4.77,0,0,1-6.248,362.1a4.608,4.608,0,0,1-1.635.5A4.48,4.48,0,0,1-8.467,362.628Z" transform="translate(49.631 -291.134)"/><g transform="translate(4.901 4.86)"><g transform="translate(0 0)"><circle class="f" cx="1.4" cy="1.4" r="1.4"/></g><g transform="translate(3.615)"><path class="f" d="M-31.449,301.313a1.4,1.4,0,0,1-1.4,1.4,1.4,1.4,0,0,1-1.4-1.4,1.4,1.4,0,0,1,1.4-1.4A1.4,1.4,0,0,1-31.449,301.313Z" transform="translate(34.249 -299.913)"/></g><g transform="translate(7.229 0)"><circle class="f" cx="1.4" cy="1.4" r="1.4"/></g></g><g transform="translate(6.825 13.468)"><path class="d" d="M-4.98,315.6c0,.08-7.236.145-16.161.145S-37.3,315.684-37.3,315.6s7.235-.144,16.163-.144S-4.98,315.525-4.98,315.6Z" transform="translate(37.304 -315.46)"/></g><g transform="translate(6.825 16.313)"><path class="d" d="M-4.98,320.743c0,.079-7.236.144-16.161.144s-16.163-.065-16.163-.144,7.235-.145,16.163-.145S-4.98,320.664-4.98,320.743Z" transform="translate(37.304 -320.599)"/></g><g transform="translate(6.825 19.158)"><path class="d" d="M-4.98,325.883c0,.08-7.236.144-16.161.144s-16.163-.064-16.163-.144,7.235-.144,16.163-.144S-4.98,325.8-4.98,325.883Z" transform="translate(37.304 -325.738)"/></g><g transform="translate(6.825 22.003)"><path class="d" d="M-4.98,331.022c0,.08-7.236.144-16.161.144S-37.3,331.1-37.3,331.022s7.235-.144,16.163-.144S-4.98,330.942-4.98,331.022Z" transform="translate(37.304 -330.878)"/></g><g transform="translate(6.825 24.848)"><path class="d" d="M-4.98,336.161c0,.08-7.236.144-16.161.144s-16.163-.065-16.163-.144,7.235-.144,16.163-.144S-4.98,336.082-4.98,336.161Z" transform="translate(37.304 -336.017)"/></g><g transform="translate(6.825 27.694)"><path class="d" d="M-4.98,341.3c0,.079-7.236.144-16.161.144S-37.3,341.38-37.3,341.3s7.235-.144,16.163-.144S-4.98,341.221-4.98,341.3Z" transform="translate(37.304 -341.156)"/></g><g transform="translate(6.825 49.464)"><path class="d" d="M-4.98,380.623c0,.08-7.236.145-16.161.145S-37.3,380.7-37.3,380.623s7.235-.144,16.163-.144S-4.98,380.543-4.98,380.623Z" transform="translate(37.304 -380.479)"/></g><g transform="translate(6.825 52.561)"><path class="d" d="M-4.98,386.218c0,.08-7.236.144-16.161.144S-37.3,386.3-37.3,386.218s7.235-.145,16.163-.145S-4.98,386.138-4.98,386.218Z" transform="translate(37.304 -386.073)"/></g><g transform="translate(6.825 55.658)"><path class="d" d="M-4.98,391.813c0,.079-7.236.144-16.161.144s-16.163-.065-16.163-.144,7.235-.145,16.163-.145S-4.98,391.733-4.98,391.813Z" transform="translate(37.304 -391.668)"/></g><g transform="translate(6.825 58.756)"><path class="d" d="M-4.98,397.407c0,.08-7.236.144-16.161.144s-16.163-.065-16.163-.144,7.235-.144,16.163-.144S-4.98,397.328-4.98,397.407Z" transform="translate(37.304 -397.263)"/></g><g transform="translate(6.825 61.853)"><path class="d" d="M-4.98,403c0,.08-7.236.144-16.161.144S-37.3,403.082-37.3,403s7.235-.144,16.163-.144S-4.98,402.922-4.98,403Z" transform="translate(37.304 -402.858)"/></g><g transform="translate(5.459 31.912)"><g transform="translate(1.371)"><path class="f" d="M-4.137,348.818l-.164,0-.483,0-1.87.007-6.955.013-23.627.014.058-.042c0,1.856,0,3.782,0,5.753,0,2.03,0,4.013,0,5.927l-.058-.042,23.462.014,6.9.013,1.854.007.48,0,.163,0s-.055,0-.163,0l-.48,0-1.854.007-6.9.012-23.462.014h-.058V360.5c0-1.914,0-3.9,0-5.927,0-1.971,0-3.9,0-5.753v-.042h.058l23.627.014,6.955.012,1.87.007.483,0C-4.192,348.815-4.137,348.818-4.137,348.818Z" transform="translate(37.294 -348.776)"/></g><g transform="translate(1.429 1.965)"><path class="f" d="M-4.089,352.369c0,.023-7.41.042-16.548.042s-16.55-.019-16.55-.042,7.409-.043,16.55-.043S-4.089,352.345-4.089,352.369Z" transform="translate(37.188 -352.326)"/></g><g transform="translate(1.429 3.574)"><path class="f" d="M-4.089,355.275c0,.023-7.41.042-16.548.042s-16.55-.019-16.55-.042,7.409-.043,16.55-.043S-4.089,355.251-4.089,355.275Z" transform="translate(37.188 -355.232)"/></g><g transform="translate(1.429 5.183)"><path class="f" d="M-4.089,358.181c0,.023-7.41.042-16.548.042s-16.55-.019-16.55-.042,7.409-.043,16.55-.043S-4.089,358.157-4.089,358.181Z" transform="translate(37.188 -358.138)"/></g><g transform="translate(1.429 6.792)"><path class="f" d="M-4.089,361.087c0,.023-7.41.042-16.548.042s-16.55-.019-16.55-.042,7.409-.043,16.55-.043S-4.089,361.063-4.089,361.087Z" transform="translate(37.188 -361.044)"/></g><g transform="translate(1.429 8.401)"><path class="f" d="M-4.089,363.993c0,.023-7.41.042-16.548.042s-16.55-.019-16.55-.042,7.409-.043,16.55-.043S-4.089,363.969-4.089,363.993Z" transform="translate(37.188 -363.95)"/></g><g transform="translate(1.429 10.01)"><path class="f" d="M-37.188,366.9c0-.024,7.41-.043,16.548-.043s16.55.019,16.55.043-7.408.042-16.55.042S-37.188,366.922-37.188,366.9Z" transform="translate(37.188 -366.856)"/></g><g transform="translate(6.079 0.042)"><path class="f" d="M-28.748,360.709c-.023,0-.042-2.655-.042-5.928s.019-5.929.042-5.929.043,2.654.043,5.929S-28.724,360.709-28.748,360.709Z" transform="translate(28.79 -348.851)"/></g><g transform="translate(10.846 0.042)"><path class="f" d="M-20.137,360.709c-.023,0-.043-2.655-.043-5.928s.019-5.929.043-5.929.042,2.654.042,5.929S-20.114,360.709-20.137,360.709Z" transform="translate(20.18 -348.851)"/></g><g transform="translate(15.613 0.042)"><path class="f" d="M-11.527,360.709c-.023,0-.042-2.655-.042-5.928s.019-5.929.042-5.929.043,2.654.043,5.929S-11.5,360.709-11.527,360.709Z" transform="translate(11.569 -348.851)"/></g><g transform="translate(20.38 0.042)"><g transform="translate(0)"><path class="f" d="M-2.916,360.709c-.023,0-.043-2.655-.043-5.928s.019-5.929.043-5.929.042,2.654.042,5.929S-2.893,360.709-2.916,360.709Z" transform="translate(2.959 -348.851)"/></g></g><g transform="translate(25.147 0.042)"><g transform="translate(0)"><path class="f" d="M5.694,360.709c-.023,0-.042-2.655-.042-5.928s.019-5.929.042-5.929.043,2.654.043,5.929S5.718,360.709,5.694,360.709Z" transform="translate(-5.652 -348.851)"/></g></g><g transform="translate(29.761 0.042)"><g transform="translate(0)"><path class="f" d="M14.03,360.709c-.024,0-.043-2.655-.043-5.928s.019-5.929.043-5.929.042,2.654.042,5.929S14.053,360.709,14.03,360.709Z" transform="translate(-13.987 -348.851)"/></g></g><g transform="translate(34.528 0.042)"><g transform="translate(0)"><path class="f" d="M22.64,360.709c-.023,0-.043-2.655-.043-5.928s.019-5.929.043-5.929.043,2.654.043,5.929S22.663,360.709,22.64,360.709Z" transform="translate(-22.597 -348.851)"/></g></g><g transform="translate(5.831 9.762)"><path class="b" d="M-28.657,366.7a.29.29,0,0,1-.291.29.29.29,0,0,1-.29-.29.29.29,0,0,1,.29-.29A.29.29,0,0,1-28.657,366.7Z" transform="translate(29.238 -366.409)"/></g><g transform="translate(10.598 6.544)"><circle class="b" cx="0.29" cy="0.29" r="0.29"/></g><g transform="translate(15.365 8.126)"><g transform="translate(0)"><path class="b" d="M-11.437,363.743a.29.29,0,0,1-.29.29.29.29,0,0,1-.29-.29.29.29,0,0,1,.29-.29A.29.29,0,0,1-11.437,363.743Z" transform="translate(12.017 -363.453)"/></g></g><g transform="translate(20.18 4.949)"><g transform="translate(0)"><path class="b" d="M-2.816,357.793a.3.3,0,0,1-.425.425h0A.3.3,0,0,1-2.816,357.793Z" transform="translate(3.319 -357.716)"/></g></g><g transform="translate(25.002 4.949)"><g transform="translate(0)"><path class="b" d="M5.893,357.793a.3.3,0,0,1-.425.425h0A.3.3,0,0,1,5.893,357.793Z" transform="translate(-5.39 -357.716)"/></g></g><g transform="translate(29.513 8.108)"><path class="b" d="M14.041,363.5a.3.3,0,0,1-.425.425h0A.3.3,0,0,1,14.041,363.5Z" transform="translate(-13.538 -363.421)"/></g><g transform="translate(10.598 3.326)"><path class="h" d="M-20.047,355.075a.29.29,0,0,1-.29.29.29.29,0,0,1-.29-.29.29.29,0,0,1,.29-.291A.291.291,0,0,1-20.047,355.075Z" transform="translate(20.627 -354.784)"/></g><g transform="translate(5.831 8.153)"><path class="h" d="M-28.657,363.793a.29.29,0,0,1-.291.29.29.29,0,0,1-.29-.29.29.29,0,0,1,.29-.29A.29.29,0,0,1-28.657,363.793Z" transform="translate(29.238 -363.503)"/></g><g transform="translate(29.514 9.762)"><g transform="translate(0)"><path class="h" d="M14.042,366.486a.3.3,0,0,1-.425.425A.3.3,0,0,1,14.042,366.486Z" transform="translate(-13.539 -366.409)"/></g></g><g transform="translate(24.899 6.544)"><g transform="translate(0)"><path class="h" d="M5.784,360.887a.29.29,0,1,1-.29-.29A.29.29,0,0,1,5.784,360.887Z" transform="translate(-5.204 -360.597)"/></g></g><g transform="translate(20.18 6.502)"><g transform="translate(0)"><path class="h" d="M-2.738,360.81a.29.29,0,0,1-.291.29.29.29,0,0,1-.29-.29.29.29,0,0,1,.29-.29A.29.29,0,0,1-2.738,360.81Z" transform="translate(3.319 -360.52)"/></g></g><g transform="translate(3.213 13.011)"><path class="f" d="M-33.049,372.319a1.266,1.266,0,0,1-.459.043,1.266,1.266,0,0,1-.459-.043,1.288,1.288,0,0,1,.459-.042A1.288,1.288,0,0,1-33.049,372.319Z" transform="translate(33.967 -372.277)"/></g><g transform="translate(8.085 13.011)"><path class="f" d="M-24.248,372.319a1.266,1.266,0,0,1-.459.043,1.266,1.266,0,0,1-.459-.043,1.288,1.288,0,0,1,.459-.042A1.288,1.288,0,0,1-24.248,372.319Z" transform="translate(25.166 -372.277)"/></g><g transform="translate(12.958 13.011)"><path class="f" d="M-15.447,372.319a1.268,1.268,0,0,1-.459.043,1.266,1.266,0,0,1-.459-.043,1.288,1.288,0,0,1,.459-.042A1.29,1.29,0,0,1-15.447,372.319Z" transform="translate(16.365 -372.277)"/></g><g transform="translate(17.83 13.011)"><path class="f" d="M-6.647,372.319a1.266,1.266,0,0,1-.459.043,1.266,1.266,0,0,1-.459-.043,1.288,1.288,0,0,1,.459-.042A1.288,1.288,0,0,1-6.647,372.319Z" transform="translate(7.565 -372.277)"/></g><g transform="translate(22.702 13.011)"><g transform="translate(0)"><path class="f" d="M2.154,372.319a1.266,1.266,0,0,1-.459.043,1.266,1.266,0,0,1-.459-.043,1.288,1.288,0,0,1,.459-.042A1.288,1.288,0,0,1,2.154,372.319Z" transform="translate(-1.236 -372.277)"/></g></g><g transform="translate(27.059 13.011)"><path class="f" d="M10.024,372.319a1.266,1.266,0,0,1-.459.043,1.266,1.266,0,0,1-.459-.043,1.288,1.288,0,0,1,.459-.042A1.288,1.288,0,0,1,10.024,372.319Z" transform="translate(-9.106 -372.277)"/></g><g transform="translate(31.416 13.011)"><path class="f" d="M17.894,372.319a1.266,1.266,0,0,1-.459.043,1.266,1.266,0,0,1-.459-.043,1.288,1.288,0,0,1,.459-.042A1.288,1.288,0,0,1,17.894,372.319Z" transform="translate(-16.976 -372.277)"/></g><g transform="translate(0 0.386)"><g transform="translate(0 11.228)"><path class="f" d="M-39.029,369.8a.849.849,0,0,1-.371.043.845.845,0,0,1-.37-.043.846.846,0,0,1,.37-.043A.849.849,0,0,1-39.029,369.8Z" transform="translate(39.77 -369.754)"/></g><g transform="translate(0 9.356)"><path class="f" d="M-39.029,366.417a.849.849,0,0,1-.371.043.845.845,0,0,1-.37-.043.846.846,0,0,1,.37-.043A.849.849,0,0,1-39.029,366.417Z" transform="translate(39.77 -366.374)"/></g><g transform="translate(0 7.485)"><path class="f" d="M-39.029,363.037a.854.854,0,0,1-.371.042.85.85,0,0,1-.37-.042.846.846,0,0,1,.37-.043A.849.849,0,0,1-39.029,363.037Z" transform="translate(39.77 -362.994)"/></g><g transform="translate(0 5.614)"><path class="f" d="M-39.029,359.657a.854.854,0,0,1-.371.042.85.85,0,0,1-.37-.042.845.845,0,0,1,.37-.043A.849.849,0,0,1-39.029,359.657Z" transform="translate(39.77 -359.614)"/></g><g transform="translate(0 3.743)"><path class="f" d="M-39.029,356.277a.854.854,0,0,1-.371.042.85.85,0,0,1-.37-.042.846.846,0,0,1,.37-.043A.849.849,0,0,1-39.029,356.277Z" transform="translate(39.77 -356.234)"/></g><g transform="translate(0 1.871)"><path class="f" d="M-39.029,352.9a.854.854,0,0,1-.371.042.85.85,0,0,1-.37-.042.846.846,0,0,1,.37-.043A.849.849,0,0,1-39.029,352.9Z" transform="translate(39.77 -352.854)"/></g><path class="f" d="M-39.029,349.517a.854.854,0,0,1-.371.042.85.85,0,0,1-.37-.042.846.846,0,0,1,.37-.043A.849.849,0,0,1-39.029,349.517Z" transform="translate(39.77 -349.474)"/></g><g transform="translate(1.345 5.145)"><path class="b" d="M-37.287,364.722l-.053-.151,4.74-1.666,4.791-3.234,4.768,1.581,4.8-3.168,4.81-.014.021.015,4.57,3.229,4.428-2.926.088.133-4.519,2.986-.045-.032-4.594-3.245-4.712.014-4.828,3.184-4.767-1.581-4.753,3.2Z" transform="translate(37.34 -358.07)"/></g><g transform="translate(1.43 1.848)"><path class="h" d="M-8.745,360.352l-4.666-3.172h-4.809L-23.031,354l-4.665-.042-4.767,4.826h-4.725v-.16h4.658l4.767-4.827,4.78.043,4.811,3.175h4.81l4.563,3.1,4.558-8.009.139.079Z" transform="translate(37.188 -352.113)"/></g></g></g></g></svg>