<svg xmlns="http://www.w3.org/2000/svg" width="257.362" height="229.266" viewBox="0 0 257.362 229.266"><defs><style>.a{fill:#ececec;}.b,.f,.l{fill:#fff;}.c{fill:#e1e1e1;}.d{fill:#aed3f2;}.e{opacity:0.2;}.f,.g,.h,.i,.j,.l,.m,.n,.o,.p,.q,.r,.s,.t,.u,.v{stroke:#263238;}.f,.g,.h,.i,.l,.m,.n,.o,.q,.r,.s,.t,.u,.v{stroke-linecap:round;}.g,.i,.j,.m,.o,.p,.s{fill:none;}.g,.l,.m,.n,.q,.r,.s,.t,.u,.v{stroke-linejoin:round;}.h,.n{fill:#d1d1d1;}.k,.t{fill:#344154;}.m,.n,.o,.p{stroke-width:0.5px;}.q,.x{fill:#d9a171;}.r{fill:#ffbf9d;}.s{stroke-width:2px;}.u{fill:#ccc;}.v{fill:#a6a6a6;}.w{fill:#263238;}.y{fill:#e0e0e0;}</style></defs><g transform="translate(1926.181 12424.5)"><path class="a" d="M-480.491,2403.3a29.994,29.994,0,0,1-9.941,41.237,29.994,29.994,0,0,1-41.237-9.941,29.993,29.993,0,0,1,9.941-41.238A29.994,29.994,0,0,1-480.491,2403.3Z" transform="translate(-1192.737 -14663.447)"/><path class="b" d="M-521.728,2394a29.993,29.993,0,0,0-9.941,41.238s18.472-10.19,18.37-20.078S-521.728,2394-521.728,2394Z" transform="translate(-1192.737 -14664.089)"/><path class="c" d="M-486.33,2407.916a22.8,22.8,0,0,1-7.557,31.349,22.8,22.8,0,0,1-31.349-7.557,22.8,22.8,0,0,1,7.557-31.349A22.8,22.8,0,0,1-486.33,2407.916Z" transform="translate(-1193.688 -14664.471)"/><path class="d" d="M-485.05,2408.481a22.5,22.5,0,0,1-7.456,30.928,22.5,22.5,0,0,1-30.928-7.456,22.5,22.5,0,0,1,7.457-30.928A22.5,22.5,0,0,1-485.05,2408.481Z" transform="translate(-1193.923 -14664.561)"/><path class="c" d="M-502.7,2419.535l-3-4.91.024-.015a11.826,11.826,0,0,1,3.025-.916,9.609,9.609,0,0,1,1.694.024l-.028-.192-.324-2.231-.074-.512-1.437-.384-.3.447a10.79,10.79,0,0,0-4.185,1.148l-1.651-2.7-1.255-.164.415.678-1.154.705,1.681,2.749c-3.572,2.685-4.048,5.951-2.53,8.433,2.067,3.381,5.5,2.486,8.6,1.492l2.975,4.865a10.96,10.96,0,0,1-6,1.127l.409,3.125a12.479,12.479,0,0,0,7.195-1.625l1.247,2.039-.939.6,1.344.065,1.995-1.221-1.666-2.725c3.581-2.725,4.1-5.981,2.579-8.462C-496.136,2417.592-499.6,2418.54-502.7,2419.535Zm-2.307.709c-1.664.449-3.037.554-3.751-.614-.655-1.071-.46-2.392,1.1-3.716Zm-.7-5.623Zm7.437,12.163-2.633-4.306c1.713-.48,3.125-.574,3.854.618C-496.408,2424.143-496.657,2425.431-498.27,2426.784Z" transform="translate(-1195.715 -14666.01)"/><path class="a" d="M-498.06,2429.273l1.667,2.725-1.995,1.221-1.652-2.7a12.494,12.494,0,0,1-7.2,1.625l-.408-3.126a10.963,10.963,0,0,0,6-1.127l-2.976-4.866c-3.1,1-6.533,1.889-8.6-1.492-1.517-2.482-1.042-5.748,2.531-8.435l-1.681-2.749,1.995-1.219,1.651,2.7a12.235,12.235,0,0,1,5.848-1.536l.5,3.068a11.8,11.8,0,0,0-4.745,1.1l3,4.916c3.1-1,6.568-1.944,8.636,1.438C-493.962,2423.291-494.479,2426.548-498.06,2429.273Zm-8.364-9.193-2.648-4.331c-1.564,1.323-1.758,2.646-1.1,3.718C-509.461,2420.634-508.087,2420.529-506.423,2420.08Zm7.963,2.853c-.729-1.193-2.142-1.1-3.854-.618l2.633,4.307C-498.068,2425.268-497.821,2423.979-498.46,2422.933Z" transform="translate(-1195.536 -14666.01)"/><path class="b" d="M-520.347,2449.211a1.225,1.225,0,0,1-.24-.125l-.667-.4a12.243,12.243,0,0,1-1.029-.668c-.39-.278-.849-.575-1.313-.961l-.742-.589c-.256-.207-.5-.444-.771-.678-.541-.46-1.067-1.008-1.63-1.572a32.3,32.3,0,0,1-3.244-4.047,32.336,32.336,0,0,1-2.493-4.551c-.305-.738-.609-1.433-.827-2.109-.114-.336-.238-.656-.329-.973l-.259-.91c-.179-.576-.277-1.115-.383-1.582s-.177-.873-.223-1.208c-.045-.313-.081-.569-.11-.768a1.179,1.179,0,0,1-.023-.27,1.33,1.33,0,0,1,.067.263l.151.759c.059.331.137.735.259,1.2s.225.994.413,1.565q.13.433.271.9c.1.313.224.63.34.962.224.67.532,1.358.84,2.088a33.744,33.744,0,0,0,2.491,4.51,33.6,33.6,0,0,0,3.208,4.03c.556.565,1.073,1.114,1.605,1.577.263.235.505.474.758.683l.728.6c.455.392.905.7,1.287.983s.721.517,1,.7l.643.431A1.262,1.262,0,0,1-520.347,2449.211Z" transform="translate(-1192.921 -14668.381)"/><path class="b" d="M-510.218,2423.8a1.877,1.877,0,0,1-.908-.216,3.582,3.582,0,0,1-1.674-1.506,3.582,3.582,0,0,1-.422-2.211,1.9,1.9,0,0,1,.286-.889c.037.012-.091.346-.129.9a3.8,3.8,0,0,0,.459,2.087,3.787,3.787,0,0,0,1.547,1.472C-510.561,2423.7-510.209,2423.762-510.218,2423.8Z" transform="translate(-1195.635 -14667.26)"/><path class="b" d="M-510.161,2412.692c-.053.032-.315-.3-.585-.741s-.446-.826-.394-.858.314.3.585.741S-510.108,2412.659-510.161,2412.692Z" transform="translate(-1195.903 -14666.259)"/><path class="b" d="M-516.193,2399.042a4.751,4.751,0,0,1-.641.358c-.21.106-.465.239-.753.409s-.625.346-.974.581-.744.47-1.142.763c-.409.276-.819.609-1.255.952a25.846,25.846,0,0,0-2.614,2.485,25.743,25.743,0,0,0-2.2,2.858c-.3.47-.585.912-.818,1.347-.251.426-.456.837-.642,1.214s-.338.726-.476,1.029-.247.571-.331.791a4.693,4.693,0,0,1-.289.674,4.472,4.472,0,0,1,.208-.7c.071-.225.165-.5.3-.809s.26-.67.45-1.049.376-.8.622-1.236c.227-.444.513-.892.807-1.37a24.271,24.271,0,0,1,2.21-2.9,24.413,24.413,0,0,1,2.65-2.5c.445-.341.862-.672,1.279-.943.406-.291.8-.531,1.166-.748s.7-.4,1-.556.557-.283.773-.377A4.534,4.534,0,0,1-516.193,2399.042Z" transform="translate(-1193.721 -14664.729)"/><path class="b" d="M-482.966,2448.921a2.652,2.652,0,0,1-.381.4c-.253.251-.64.593-1.135.995a21.817,21.817,0,0,1-4.215,2.649,21.823,21.823,0,0,1-4.708,1.619c-.623.133-1.133.22-1.488.26a2.641,2.641,0,0,1-.552.043,2.6,2.6,0,0,1,.538-.13c.349-.065.851-.175,1.466-.327a24.8,24.8,0,0,0,4.648-1.666,24.9,24.9,0,0,0,4.213-2.573c.5-.383.905-.7,1.174-.935A2.662,2.662,0,0,1-482.966,2448.921Z" transform="translate(-1197.896 -14671.062)"/><path class="a" d="M-480.491,2403.3a29.994,29.994,0,0,1-9.941,41.237,29.994,29.994,0,0,1-41.237-9.941,29.993,29.993,0,0,1,9.941-41.238A29.994,29.994,0,0,1-480.491,2403.3Z" transform="translate(-1244.113 -14786.447)"/><path class="b" d="M-521.728,2394a29.993,29.993,0,0,0-9.941,41.238s18.472-10.19,18.37-20.078S-521.728,2394-521.728,2394Z" transform="translate(-1244.113 -14787.089)"/><path class="c" d="M-486.33,2407.916a22.8,22.8,0,0,1-7.557,31.349,22.8,22.8,0,0,1-31.349-7.557,22.8,22.8,0,0,1,7.557-31.349A22.8,22.8,0,0,1-486.33,2407.916Z" transform="translate(-1245.064 -14787.471)"/><path class="d" d="M-485.05,2408.481a22.5,22.5,0,0,1-7.456,30.928,22.5,22.5,0,0,1-30.928-7.456,22.5,22.5,0,0,1,7.457-30.928A22.5,22.5,0,0,1-485.05,2408.481Z" transform="translate(-1245.299 -14787.561)"/><path class="c" d="M-502.7,2419.535l-3-4.91.024-.015a11.826,11.826,0,0,1,3.025-.916,9.609,9.609,0,0,1,1.694.024l-.028-.192-.324-2.231-.074-.512-1.437-.384-.3.447a10.79,10.79,0,0,0-4.185,1.148l-1.651-2.7-1.255-.164.415.678-1.154.705,1.681,2.749c-3.572,2.685-4.048,5.951-2.53,8.433,2.067,3.381,5.5,2.486,8.6,1.492l2.975,4.865a10.96,10.96,0,0,1-6,1.127l.409,3.125a12.479,12.479,0,0,0,7.195-1.625l1.247,2.039-.939.6,1.344.065,1.995-1.221-1.666-2.725c3.581-2.725,4.1-5.981,2.579-8.462C-496.136,2417.592-499.6,2418.54-502.7,2419.535Zm-2.307.709c-1.664.449-3.037.554-3.751-.614-.655-1.071-.46-2.392,1.1-3.716Zm-.7-5.623Zm7.437,12.163-2.633-4.306c1.713-.48,3.125-.574,3.854.618C-496.408,2424.143-496.657,2425.431-498.27,2426.784Z" transform="translate(-1247.091 -14789.01)"/><path class="a" d="M-498.06,2429.273l1.667,2.725-1.995,1.221-1.652-2.7a12.494,12.494,0,0,1-7.2,1.625l-.408-3.126a10.963,10.963,0,0,0,6-1.127l-2.976-4.866c-3.1,1-6.533,1.889-8.6-1.492-1.517-2.482-1.042-5.748,2.531-8.435l-1.681-2.749,1.995-1.219,1.651,2.7a12.235,12.235,0,0,1,5.848-1.536l.5,3.068a11.8,11.8,0,0,0-4.745,1.1l3,4.916c3.1-1,6.568-1.944,8.636,1.438C-493.962,2423.291-494.479,2426.548-498.06,2429.273Zm-8.364-9.193-2.648-4.331c-1.564,1.323-1.758,2.646-1.1,3.718C-509.461,2420.634-508.087,2420.529-506.423,2420.08Zm7.963,2.853c-.729-1.193-2.142-1.1-3.854-.618l2.633,4.307C-498.068,2425.268-497.821,2423.979-498.46,2422.933Z" transform="translate(-1246.911 -14789.01)"/><path class="b" d="M-520.347,2449.211a1.225,1.225,0,0,1-.24-.125l-.667-.4a12.243,12.243,0,0,1-1.029-.668c-.39-.278-.849-.575-1.313-.961l-.742-.589c-.256-.207-.5-.444-.771-.678-.541-.46-1.067-1.008-1.63-1.572a32.3,32.3,0,0,1-3.244-4.047,32.336,32.336,0,0,1-2.493-4.551c-.305-.738-.609-1.433-.827-2.109-.114-.336-.238-.656-.329-.973l-.259-.91c-.179-.576-.277-1.115-.383-1.582s-.177-.873-.223-1.208c-.045-.313-.081-.569-.11-.768a1.179,1.179,0,0,1-.023-.27,1.33,1.33,0,0,1,.067.263l.151.759c.059.331.137.735.259,1.2s.225.994.413,1.565q.13.433.271.9c.1.313.224.63.34.962.224.67.532,1.358.84,2.088a33.744,33.744,0,0,0,2.491,4.51,33.6,33.6,0,0,0,3.208,4.03c.556.565,1.073,1.114,1.605,1.577.263.235.505.474.758.683l.728.6c.455.392.905.7,1.287.983s.721.517,1,.7l.643.431A1.262,1.262,0,0,1-520.347,2449.211Z" transform="translate(-1244.296 -14791.381)"/><path class="b" d="M-510.218,2423.8a1.877,1.877,0,0,1-.908-.216,3.582,3.582,0,0,1-1.674-1.506,3.582,3.582,0,0,1-.422-2.211,1.9,1.9,0,0,1,.286-.889c.037.012-.091.346-.129.9a3.8,3.8,0,0,0,.459,2.087,3.787,3.787,0,0,0,1.547,1.472C-510.561,2423.7-510.209,2423.762-510.218,2423.8Z" transform="translate(-1247.011 -14790.26)"/><path class="b" d="M-510.161,2412.692c-.053.032-.315-.3-.585-.741s-.446-.826-.394-.858.314.3.585.741S-510.108,2412.659-510.161,2412.692Z" transform="translate(-1247.278 -14789.259)"/><path class="b" d="M-516.193,2399.042a4.751,4.751,0,0,1-.641.358c-.21.106-.465.239-.753.409s-.625.346-.974.581-.744.47-1.142.763c-.409.276-.819.609-1.255.952a25.846,25.846,0,0,0-2.614,2.485,25.743,25.743,0,0,0-2.2,2.858c-.3.47-.585.912-.818,1.347-.251.426-.456.837-.642,1.214s-.338.726-.476,1.029-.247.571-.331.791a4.693,4.693,0,0,1-.289.674,4.472,4.472,0,0,1,.208-.7c.071-.225.165-.5.3-.809s.26-.67.45-1.049.376-.8.622-1.236c.227-.444.513-.892.807-1.37a24.271,24.271,0,0,1,2.21-2.9,24.413,24.413,0,0,1,2.65-2.5c.445-.341.862-.672,1.279-.943.406-.291.8-.531,1.166-.748s.7-.4,1-.556.557-.283.773-.377A4.534,4.534,0,0,1-516.193,2399.042Z" transform="translate(-1245.097 -14787.729)"/><path class="b" d="M-482.966,2448.921a2.652,2.652,0,0,1-.381.4c-.253.251-.64.593-1.135.995a21.817,21.817,0,0,1-4.215,2.649,21.823,21.823,0,0,1-4.708,1.619c-.623.133-1.133.22-1.488.26a2.641,2.641,0,0,1-.552.043,2.6,2.6,0,0,1,.538-.13c.349-.065.851-.175,1.466-.327a24.8,24.8,0,0,0,4.648-1.666,24.9,24.9,0,0,0,4.213-2.573c.5-.383.905-.7,1.174-.935A2.662,2.662,0,0,1-482.966,2448.921Z" transform="translate(-1249.272 -14794.062)"/><path class="e" d="M0,0H114.988V151.421H0Z" transform="translate(-1897.97 -12419.856)"/><path class="f" d="M0,0H114.988V151.421H0Z" transform="translate(-1901.596 -12424)"/><path class="g" d="M1615.255,6731.347h-78.523V6713.7h101.894v17.647h-21.475" transform="translate(-3432.112 -19109.865)"/><path class="g" d="M1543.093,6779.582h-6.361v-9.121h55.619" transform="translate(-3432.112 -19137.227)"/><path class="g" d="M1602.289,6770.461h43.861v9.121h-93.808" transform="translate(-3439.637 -19137.227)"/><path class="g" d="M1622.662,6815.222h-85.93V6806.1h101.894v9.122h-14.068" transform="translate(-3432.112 -19154.406)"/><path class="g" d="M1563.076,6886.992h-26.344v-46.451h101.894v46.451h-72.97" transform="translate(-3432.112 -19171.008)"/><path class="h" d="M0,0H101.894V8.116H0Z" transform="translate(-1895.38 -12330.467)"/><path class="g" d="M1585.167,6748.113v11.426h-48.435v-11.768" transform="translate(-3432.112 -19126.289)"/><path class="h" d="M0,0H101.894V5.123H0Z" transform="translate(-1895.38 -12389.902)"/><path class="i" d="M0,0V5.812" transform="translate(-1827.315 -12395.688)"/><path class="h" d="M0,0H6.941V3.393H0Z" transform="translate(-1821.156 -12394.715)"/><path class="i" d="M0,0V6.159" transform="translate(-1843.532 -12384.619)"/><path class="i" d="M0,0V6.159" transform="translate(-1822.228 -12384.619)"/><path class="i" d="M0,11.685V0" transform="translate(-1876.635 -12378.435)"/><path class="i" d="M0,11.685V0" transform="translate(-1864.774 -12378.435)"/><path class="i" d="M0,0V8.888" transform="translate(-1851.84 -12366.692)"/><path class="i" d="M0,0V27.478" transform="translate(-1827.548 -12366.817)"/><path class="g" d="M1536.732,6788.071v9.349H1604.6" transform="translate(-3432.112 -19145.715)"/><path class="i" d="M0,0V8.992" transform="translate(-1869.819 -12357.576)"/><path class="i" d="M0,0H6.024" transform="translate(-1799.459 -12314.788)"/><path class="i" d="M0,0H93.539" transform="translate(-1895.24 -12314.788)"/><path class="i" d="M0,0H101.805" transform="translate(-1895.24 -12307.453)"/><path class="i" d="M0,0H70.438" transform="translate(-1863.872 -12300.15)"/><path class="i" d="M0,0H28.783" transform="translate(-1895.24 -12300.15)"/><path class="h" d="M0,0H3.444V3.444H0Z" transform="translate(-1879.297 -12312.768)"/><path class="h" d="M0,0H3.444V3.444H0Z" transform="translate(-1859.537 -12312.768)"/><path class="h" d="M0,0H3.444V3.444H0Z" transform="translate(-1873.185 -12305.739)"/><path class="h" d="M0,0H3.444V3.444H0Z" transform="translate(-1854.295 -12305.739)"/><path class="h" d="M0,0H3.444V3.444H0Z" transform="translate(-1836.239 -12305.739)"/><path class="h" d="M0,0H3.444V3.444H0Z" transform="translate(-1817.903 -12305.739)"/><path class="i" d="M0,0V7.308" transform="translate(-1874.781 -12307.392)"/><path class="i" d="M0,0V7.308" transform="translate(-1856.305 -12307.392)"/><path class="i" d="M0,0V7.308" transform="translate(-1837.834 -12307.392)"/><path class="i" d="M0,0V7.308" transform="translate(-1819.364 -12307.392)"/><path class="i" d="M0,0H101.805" transform="translate(-1895.24 -12292.702)"/><path class="h" d="M0,0H3.444V3.444H0Z" transform="translate(-1885.824 -12298.291)"/><path class="h" d="M0,0H3.444V3.444H0Z" transform="translate(-1854.295 -12298.291)"/><path class="h" d="M0,0H3.444V3.444H0Z" transform="translate(-1836.239 -12298.291)"/><path class="h" d="M0,0H3.444V3.444H0Z" transform="translate(-1812.972 -12298.291)"/><path class="i" d="M0,0V7.231" transform="translate(-1887.419 -12299.943)"/><path class="i" d="M0,0V7.231" transform="translate(-1856.305 -12299.943)"/><path class="i" d="M0,0V7.231" transform="translate(-1837.834 -12299.943)"/><path class="i" d="M0,0V7.231" transform="translate(-1814.433 -12299.943)"/><path class="j" d="M0,0H11.219" transform="translate(-1864.39 -12399.102)"/><path class="j" d="M0,0H28.716" transform="translate(-1894.997 -12399.102)"/><path class="j" d="M0,0H24.728" transform="translate(-1844.314 -12399.102)"/><path class="j" d="M0,0H19.538" transform="translate(-1812.869 -12399.102)"/><path class="k" d="M13.279,9.918H9.4V14H8.181V4.758h5.726v1H9.4V8.922h3.878ZM16.459,14H15.285V4.25h1.174Zm6.119-.679a2.494,2.494,0,0,1-2.012.806,2.135,2.135,0,0,1-1.673-.638,2.761,2.761,0,0,1-.581-1.888V7.132h1.174v4.437q0,1.562,1.27,1.562a1.758,1.758,0,0,0,1.79-1v-5h1.174V14H22.6Zm4.139-6.189v7.662q0,1.98-1.8,1.98a2.179,2.179,0,0,1-.717-.114V15.72a2.27,2.27,0,0,0,.533.051.8.8,0,0,0,.6-.213,1.051,1.051,0,0,0,.206-.74V7.132ZM25.422,5.31a.7.7,0,0,1,.175-.479.642.642,0,0,1,.511-.2.666.666,0,0,1,.521.2.694.694,0,0,1,.178.482.671.671,0,0,1-.178.476.678.678,0,0,1-.521.19.657.657,0,0,1-.514-.19A.685.685,0,0,1,25.422,5.31ZM28.3,10.5a4.057,4.057,0,0,1,.4-1.815,2.96,2.96,0,0,1,1.1-1.244A3.007,3.007,0,0,1,31.414,7a2.9,2.9,0,0,1,2.269.971,3.736,3.736,0,0,1,.866,2.583v.083a4.092,4.092,0,0,1-.384,1.8,2.916,2.916,0,0,1-1.1,1.241,3.041,3.041,0,0,1-1.641.444,2.889,2.889,0,0,1-2.263-.971,3.718,3.718,0,0,1-.866-2.571Zm1.181.14a2.938,2.938,0,0,0,.53,1.834,1.8,1.8,0,0,0,2.841-.01,3.213,3.213,0,0,0,.527-1.965,2.933,2.933,0,0,0-.536-1.831,1.705,1.705,0,0,0-1.425-.7,1.686,1.686,0,0,0-1.4.692A3.189,3.189,0,0,0,29.478,10.642Zm10.543,1.536a.865.865,0,0,0-.359-.74,3.452,3.452,0,0,0-1.25-.454A5.912,5.912,0,0,1,37,10.528a2.014,2.014,0,0,1-.774-.635,1.518,1.518,0,0,1-.251-.876,1.782,1.782,0,0,1,.714-1.428A2.789,2.789,0,0,1,38.511,7a2.87,2.87,0,0,1,1.895.6,1.915,1.915,0,0,1,.727,1.542H39.952a1.06,1.06,0,0,0-.409-.832,1.534,1.534,0,0,0-1.031-.349,1.605,1.605,0,0,0-1,.279.879.879,0,0,0-.362.73.712.712,0,0,0,.336.641,4.139,4.139,0,0,0,1.216.413,6.334,6.334,0,0,1,1.425.47,2.079,2.079,0,0,1,.809.657,1.615,1.615,0,0,1,.263.936,1.758,1.758,0,0,1-.736,1.476,3.089,3.089,0,0,1-1.911.555,3.459,3.459,0,0,1-1.46-.292,2.375,2.375,0,0,1-.993-.816,1.966,1.966,0,0,1-.359-1.133h1.174a1.216,1.216,0,0,0,.473.936,1.835,1.835,0,0,0,1.165.346,1.894,1.894,0,0,0,1.07-.27A.829.829,0,0,0,40.021,12.178Zm5.637-1.669a4.023,4.023,0,0,1,.749-2.542,2.548,2.548,0,0,1,3.872-.136V4.25h1.174V14H50.374l-.057-.736a2.391,2.391,0,0,1-1.961.863,2.346,2.346,0,0,1-1.946-.978,4.069,4.069,0,0,1-.752-2.552Zm1.174.133a3.046,3.046,0,0,0,.482,1.828,1.56,1.56,0,0,0,1.333.66,1.713,1.713,0,0,0,1.631-1V8.973A1.726,1.726,0,0,0,48.661,8a1.567,1.567,0,0,0-1.346.667A3.354,3.354,0,0,0,46.832,10.642Zm9.293,3.485a3,3,0,0,1-2.272-.917,3.4,3.4,0,0,1-.876-2.453v-.216a4.121,4.121,0,0,1,.39-1.825,3.045,3.045,0,0,1,1.092-1.257A2.745,2.745,0,0,1,55.979,7a2.572,2.572,0,0,1,2.082.882,3.82,3.82,0,0,1,.743,2.526V10.9H54.151a2.441,2.441,0,0,0,.594,1.641,1.866,1.866,0,0,0,1.444.625,2.045,2.045,0,0,0,1.054-.254A2.648,2.648,0,0,0,58,12.242l.717.559A2.884,2.884,0,0,1,56.125,14.127ZM55.979,7.97a1.566,1.566,0,0,0-1.193.517,2.515,2.515,0,0,0-.6,1.45h3.44V9.849a2.237,2.237,0,0,0-.482-1.387A1.475,1.475,0,0,0,55.979,7.97Zm10.251,6.157a3,3,0,0,1-2.272-.917,3.4,3.4,0,0,1-.876-2.453v-.216a4.121,4.121,0,0,1,.39-1.825,3.045,3.045,0,0,1,1.092-1.257A2.745,2.745,0,0,1,66.085,7a2.572,2.572,0,0,1,2.082.882,3.82,3.82,0,0,1,.743,2.526V10.9H64.257a2.441,2.441,0,0,0,.594,1.641,1.866,1.866,0,0,0,1.444.625,2.045,2.045,0,0,0,1.054-.254,2.648,2.648,0,0,0,.755-.673l.717.559A2.884,2.884,0,0,1,66.231,14.127ZM66.085,7.97a1.566,1.566,0,0,0-1.193.517,2.515,2.515,0,0,0-.6,1.45h3.44V9.849a2.237,2.237,0,0,0-.482-1.387A1.475,1.475,0,0,0,66.085,7.97ZM70.846,14V8.04H69.76V7.132h1.085v-.7a2.339,2.339,0,0,1,.59-1.708,2.23,2.23,0,0,1,1.669-.6,3.082,3.082,0,0,1,.806.108l-.063.952a3.373,3.373,0,0,0-.635-.057,1.148,1.148,0,0,0-.882.333,1.349,1.349,0,0,0-.311.955v.724h1.466V8.04H72.02V14Zm6.786.127a3,3,0,0,1-2.272-.917,3.4,3.4,0,0,1-.876-2.453v-.216a4.121,4.121,0,0,1,.39-1.825,3.045,3.045,0,0,1,1.092-1.257A2.745,2.745,0,0,1,77.485,7a2.572,2.572,0,0,1,2.082.882,3.82,3.82,0,0,1,.743,2.526V10.9H75.657a2.441,2.441,0,0,0,.594,1.641,1.866,1.866,0,0,0,1.444.625,2.045,2.045,0,0,0,1.054-.254,2.648,2.648,0,0,0,.755-.673l.717.559A2.884,2.884,0,0,1,77.631,14.127ZM77.485,7.97a1.566,1.566,0,0,0-1.193.517,2.515,2.515,0,0,0-.6,1.45h3.44V9.849a2.237,2.237,0,0,0-.482-1.387A1.475,1.475,0,0,0,77.485,7.97Zm6.938,5.2a1.691,1.691,0,0,0,1.1-.381,1.34,1.34,0,0,0,.521-.952h1.111a2.13,2.13,0,0,1-.406,1.124,2.676,2.676,0,0,1-1,.851,2.885,2.885,0,0,1-1.323.317,2.829,2.829,0,0,1-2.231-.936,3.729,3.729,0,0,1-.828-2.561v-.2a4.135,4.135,0,0,1,.368-1.784,2.8,2.8,0,0,1,1.057-1.212A3,3,0,0,1,84.417,7a2.755,2.755,0,0,1,1.92.692,2.473,2.473,0,0,1,.816,1.8H86.042a1.618,1.618,0,0,0-.5-1.095,1.57,1.57,0,0,0-1.12-.428,1.644,1.644,0,0,0-1.387.644,3.026,3.026,0,0,0-.492,1.863V10.7a2.966,2.966,0,0,0,.489,1.828A1.651,1.651,0,0,0,84.423,13.168Zm5.643-7.7V7.132h1.282V8.04H90.066V12.3a.951.951,0,0,0,.171.619.722.722,0,0,0,.584.206,2.843,2.843,0,0,0,.559-.076V14a3.4,3.4,0,0,1-.9.127,1.462,1.462,0,0,1-1.187-.476,2.045,2.045,0,0,1-.4-1.352V8.04h-1.25V7.132h1.25V5.469ZM94,14H92.821V7.132H94Zm-1.27-8.69a.7.7,0,0,1,.175-.482.655.655,0,0,1,.517-.2.666.666,0,0,1,.521.2.694.694,0,0,1,.178.482.671.671,0,0,1-.178.476.678.678,0,0,1-.521.19.667.667,0,0,1-.517-.19A.678.678,0,0,1,92.726,5.31Zm5.415,7.1,1.7-5.275h1.2L98.578,14h-.9L95.2,7.132h1.2Zm3.625-1.9a4.057,4.057,0,0,1,.4-1.815,2.96,2.96,0,0,1,1.1-1.244A3.007,3.007,0,0,1,104.882,7a2.9,2.9,0,0,1,2.269.971,3.736,3.736,0,0,1,.866,2.583v.083a4.092,4.092,0,0,1-.384,1.8,2.916,2.916,0,0,1-1.1,1.241,3.041,3.041,0,0,1-1.641.444,2.889,2.889,0,0,1-2.263-.971,3.718,3.718,0,0,1-.866-2.571Zm1.181.14a2.938,2.938,0,0,0,.53,1.834,1.8,1.8,0,0,0,2.841-.01,3.213,3.213,0,0,0,.527-1.965,2.933,2.933,0,0,0-.536-1.831,1.705,1.705,0,0,0-1.425-.7,1.686,1.686,0,0,0-1.4.692A3.189,3.189,0,0,0,102.946,10.642Z" transform="translate(-1900.973 -12417.504)"/><path class="l" d="M1704.672,7044.261l38.443-1.58,20.993,25.515-51.843,4.517Z" transform="translate(-3513.066 -19268.447)"/><path class="m" d="M1719.662,7076.956l41.556-2.9,2.74,3.45-43.141,3.279Z" transform="translate(-3520.292 -19283.572)"/><path class="m" d="M1717.252,7069.317l39.826-2.507,1.269,1.6-40.561,2.673Z" transform="translate(-3519.13 -19280.078)"/><path class="m" d="M1715.3,7063.122l38.412-2.212,1.176,1.481-39.1,2.352Z" transform="translate(-3518.19 -19277.234)"/><path class="m" d="M1710.292,7047.144l34.724-1.513,5.2,6.553-37.78,2.077Z" transform="translate(-3515.775 -19269.869)"/><path class="n" d="M1713.652,7057.869l37.205-1.968.979,1.232-37.78,2.076Z" transform="translate(-3517.394 -19274.82)"/><path class="m" d="M1761.91,7073.314l-1.238-2.191,18.605-1.222,1.709,2.154" transform="translate(-3540.06 -19281.568)"/><path class="n" d="M1720.432,7079.386l42.105-3.025.8,1-42.566,3.139Z" transform="translate(-3520.663 -19284.682)"/><path class="o" d="M.585,1.248,0,0" transform="translate(-1785.09 -12205.28)"/><path class="n" d="M1738.992,7083.434l3.02-.222.321.73-3.04.232Z" transform="translate(-3529.609 -19287.984)"/><path class="o" d="M.679,1.233,0,0" transform="translate(-1779.507 -12208.098)"/><path class="o" d="M.559,1.264,0,0" transform="translate(-1788.323 -12207.486)"/><path class="o" d="M0,0,1.538,2.181" transform="translate(-1767.842 -12211.206)"/><path class="o" d="M0,0,1.43,2.207" transform="translate(-1772.4 -12210.905)"/><path class="o" d="M.958,1.621,0,0" transform="translate(-1778.414 -12212.205)"/><path class="o" d="M2.32,4.936,0,0" transform="translate(-1789.488 -12214.857)"/><path class="m" d="M1769.269,7065.346l-1.248-1.574-25.479,1.533" transform="translate(-3531.32 -19278.613)"/><path class="o" d="M1.046,1.554,0,0" transform="translate(-1772.613 -12214.23)"/><path class="o" d="M36.661,0,0,1.87" transform="translate(-1804.125 -12220.026)"/><path class="o" d="M36.174,0,0,1.777" transform="translate(-1804.473 -12221.073)"/><path class="o" d="M35.7,0,0,1.689" transform="translate(-1804.804 -12222.088)"/><path class="n" d="M1769.782,7052.828l1.176-.057.358.5-1.186.057Z" transform="translate(-3544.451 -19273.311)"/><path class="n" d="M1756.522,7053.483l1.207-.062.316.507-1.212.062Z" transform="translate(-3538.059 -19273.623)"/><path class="n" d="M1764.4,7051.088l1.176-.057.336.487-1.181.057Z" transform="translate(-3541.858 -19272.473)"/><path class="n" d="M1751.812,7051.688l1.2-.057.3.5-1.207.057Z" transform="translate(-3535.789 -19272.762)"/><path class="n" d="M1739.512,7052.278l1.227-.058.254.5-1.233.058Z" transform="translate(-3529.86 -19273.045)"/><path class="n" d="M1726.762,7052.888l1.248-.057.218.507-1.259.063Z" transform="translate(-3523.714 -19273.34)"/><path class="o" d="M.72,1.031,0,0" transform="translate(-1775.953 -12221.772)"/><path class="o" d="M.642,1.046,0,0" transform="translate(-1782.273 -12221.477)"/><path class="o" d="M.554,1.062,0,0" transform="translate(-1788.721 -12221.171)"/><path class="o" d="M.466,1.083,0,0" transform="translate(-1795.315 -12220.86)"/><path class="o" d="M35.232,0,0,1.6" transform="translate(-1805.13 -12223.093)"/><path class="n" d="M1771.232,7048.723l1.145-.052.347.466-1.145.057Z" transform="translate(-3545.15 -19271.334)"/><path class="n" d="M1750.632,7049.668l1.181-.057.29.481-1.191.057Z" transform="translate(-3535.22 -19271.787)"/><path class="n" d="M1738.492,7050.223l1.207-.052.254.487-1.217.057Z" transform="translate(-3529.368 -19272.057)"/><path class="n" d="M1722.482,7050.958l1.243-.057.2.5-1.248.057Z" transform="translate(-3521.651 -19272.41)"/><path class="o" d="M.741.984,0,0" transform="translate(-1772.462 -12222.979)"/><path class="o" d="M.611,1.01,0,0" transform="translate(-1782.894 -12222.502)"/><path class="o" d="M.534,1.02,0,0" transform="translate(-1789.265 -12222.213)"/><path class="o" d="M.425,1.041,0,0" transform="translate(-1797.527 -12221.834)"/><path class="p" d="M17.077,0,0,1.316" transform="translate(-1773.084 -12205.451)"/><path class="p" d="M10.711,0,0,.824" transform="translate(-1787.54 -12203.846)"/><path class="p" d="M8.826,0,0,.679" transform="translate(-1799.345 -12202.789)"/><path class="q" d="M1712.347,6888.512a70.41,70.41,0,0,0-10.706,4.144c-5.7,2.766-16.917,6.909-22.272,8.981s-8.629,7.422-9.665,10.012-5.526,13.637-5.526,13.637-9.494,14.851-11.913,18.477-5.7,8.634-5.869,13.3,2.414,7.252,8.458,7.252,8.634-2.073,11.566-5.18,12.431-18.3,13.814-20.03,5.179-8.287,5.179-8.287,1.9,17.093,1.9,22.443v12.607H1741.7s2.59-18.994,3.108-20.547,4.486-12.777,4.486-12.777,14.332,23.136,16.725,26.244,9.225,9.655,15.917,7.034,5.319-9.8,1.694-18.429-9.991-23.308-9.991-24.008-2.59-10.876-13.12-18.822-20.89-9.841-23.308-11.049S1727.021,6888.512,1712.347,6888.512Z" transform="translate(-3484.97 -19194.131)"/><path class="g" d="M1706.31,6948.511l6.734,10.535s-5.527-5.7-8.982-6.562" transform="translate(-3512.771 -19223.053)"/><path class="g" d="M1711.6,6966.244l-3.973-1.383s-3.626-2.071-6.563-1.207" transform="translate(-3511.326 -19230.25)"/><path class="g" d="M1761.272,6920.181c.388,2.844,1.284,6.376,3.346,8.806" transform="translate(-3540.349 -19209.396)"/><path class="g" d="M1760.726,6911.182s-.036.989.057,2.481" transform="translate(-3540.082 -19205.059)"/><path class="g" d="M1764.382,6941.182a15.617,15.617,0,0,0,1.554,1.388" transform="translate(-3541.848 -19219.52)"/><path class="g" d="M1755.062,6926.182a22.942,22.942,0,0,0,4.108,6.992" transform="translate(-3537.355 -19212.289)"/><path class="g" d="M1817.928,7000.661a20.03,20.03,0,0,1-3.2,4.243" transform="translate(-3566.119 -19248.191)"/><path class="g" d="M1830.5,6967.511s-4.014,9.075-7.769,15.539" transform="translate(-3569.975 -19232.211)"/><path class="g" d="M1802.568,7011.631c-.518.627-.917,1.15-1.165,1.492" transform="translate(-3559.693 -19253.479)"/><path class="g" d="M1811.259,6996.511s-3.18,3.7-5.527,6.563" transform="translate(-3561.78 -19246.191)"/><path class="g" d="M1845.062,6961.3s7.6-12.084,7.945-13.12" transform="translate(-3580.739 -19222.895)"/><path class="g" d="M1856.282,6960.019c2.258-1.828,5.651-4.144,9.038-4.837" transform="translate(-3586.147 -19226.27)"/><path class="g" d="M1851.062,6967.735s.616-.637,1.652-1.554" transform="translate(-3583.631 -19231.57)"/><path class="g" d="M1863.618,6951.511a41.945,41.945,0,0,0-6.216,3.973" transform="translate(-3586.687 -19224.5)"/><path class="g" d="M1875.4,6999.973a9.759,9.759,0,0,1,9.323.518" transform="translate(-3595.364 -19247.404)"/><path class="g" d="M1878.4,6996.266s6.039-1.207,10.53,1.555" transform="translate(-3596.81 -19245.945)"/><path class="g" d="M1659.732,6998.185a9.647,9.647,0,0,1,7.769-2.414" transform="translate(-3491.403 -19245.793)"/><path class="g" d="M1680.372,6996.631a14.666,14.666,0,0,1,1.222.975" transform="translate(-3501.352 -19246.248)"/><path class="g" d="M1671.4,6992.851a8.4,8.4,0,0,1,2.833.881" transform="translate(-3497.028 -19244.426)"/><path class="r" d="M1770.34,6891.513s-1.554,6.562-1.036,11.4,5.869,12.26,10.359,13.985,12.773-3.279,15.71-6.216,3.108-12.26,3.108-12.26-4.475-9.666-13.985-12.431S1770.34,6891.513,1770.34,6891.513Z" transform="translate(-3544.169 -19192.641)"/><path class="r" d="M1833.852,6893.625a8.478,8.478,0,0,1-.834,6.112c-1.735,3.414-5.086,6.3-5.988,6s2.8-12.649,2.8-12.649S1832.293,6891.708,1833.852,6893.625Z" transform="translate(-3571.979 -19196.105)"/><path class="r" d="M1765.625,6875.12a8.5,8.5,0,0,0-1.14,6.065c.565,3.792,2.844,7.578,3.792,7.578s1.326-12.881,1.326-12.881S1767.707,6873.794,1765.625,6875.12Z" transform="translate(-3541.843 -19187.463)"/><path class="r" d="M1771.782,6867.754s-1.326,11.562.186,16.3,4.548,12.125,9.287,14.021,15.539-6.252,17.243-9.474,6.443-16.865,6.443-16.865a12.389,12.389,0,0,0,1.709-11.753c-2.466-6.821-15.731-10.991-21.236-10.8s-10.991,4.74-11.369,8.34A83.712,83.712,0,0,1,1771.782,6867.754Z" transform="translate(-3545.156 -19175.17)"/><path class="s" d="M1788.653,6895.084s-4.17-5.117-7.961-3.408" transform="translate(-3549.71 -19195.488)"/><path class="s" d="M1808.862,6902.64s5.7-1.326,8.339,1.14" transform="translate(-3563.29 -19200.77)"/><path class="g" d="M1781.792,6900.781s1.217,3.625,6.159,3.206" transform="translate(-3550.24 -19200.045)"/><path class="g" d="M1808.132,6910.651s1.14,2.465,6.443,1.518" transform="translate(-3562.937 -19204.803)"/><path class="g" d="M1790.031,6917.312a3.317,3.317,0,0,0,.311,2.263c.616.927,2.16,2.263,3.294,2.263s3.5-.409,4.118-1.035a7.367,7.367,0,0,0,1.036-1.341" transform="translate(-3554.175 -19208.014)"/><path class="g" d="M1785.132,6923.871s2.59,2.983,4.74,3.7,6.174-.518,7.308-.928" transform="translate(-3551.85 -19211.176)"/><path class="t" d="M1810.018,6838.218c-.176-1.243.709-3.02.886-4.082s-1.243-3.02-2.481-4.615a7.138,7.138,0,0,1-1.425-4.434c0-1.067-1.238-1.952-2.3-2.662a19.794,19.794,0,0,1-3.548-3.02c-.71-.886-3.724-.71-4.258-.71s-2.838-1.947-4.258-2.656-4.258.518-4.258.518a24.51,24.51,0,0,0-4.082-1.6,22.612,22.612,0,0,0-3.729,1.244,15.838,15.838,0,0,1-3.108.968,3.309,3.309,0,0,0-.59-.1c-.4-.518-3.947,1.611-3.947,1.611l-3.191.518-1.186,1.922c-1.134.125-3.791.549-3.978,1.849-.238,1.658,0,2.367-.71,3.31s-3.31.709-2.59,2.838,2.362,3.787.233,4.973-3.31,3.31-2.129,4.491,2.129,2.838,1.9,3.786-.477,3.077.471,3.548a16.808,16.808,0,0,1,2.367,1.658l1.181,2.59.71,1.657s1.181-3.786,2.129-4.257,0,1.657,1.9,1.657,3.781-8.992,5.18-9.23,5.7,7.811,9.94,7.811,9.484-3.723,11.618-3.723.471,8.986.471,10.876.471,3.781.471,4.5,2.367-3.315,4.025-4.263c.456-.259,1-.575,1.58-.938a.286.286,0,0,1-.026.13s5.858-3.729,6.568-4.968.176-2.309.176-3.372.709-1.953.886-3.548S1810.194,6839.456,1810.018,6838.218Z" transform="translate(-3539.205 -19158.676)"/><path class="i" d="M228.209,0H0" transform="translate(-1914.027 -12228.309)"/><path class="r" d="M1825.958,7007.478s-6.469-2.377-11.121-.518-15.57,6.277-23,7.671a97,97,0,0,1-21.138,1.393c-6.278-.232-9.764.7-11.157,1.859s-6.506,7.666-6.045,8.366.979.963,3.258.466c.906-.2,3.486-3.019,3.486-3.019l4.662-2.072s-4.879,5.345-4.185,6.039,1.859-.232,2.792-.927,2.787-2.326,2.787-2.326l4.185-1.859s-4.444,3-4.444,4.382,1.083.569,2.926-.167a21.249,21.249,0,0,0,2.491-1.838l3.5-.985a15.365,15.365,0,0,0,7.319,1.741,11.206,11.206,0,0,0,7.251-2.7s16.269,2.325,24.4,1.626,18.357.232,22.542-2.787-1.16-10.924-1.626-11.623" transform="translate(-3536.586 -19250.885)"/><path class="g" d="M1755.6,7037.844a16.062,16.062,0,0,1,1.73-3.574c.865-1.083,4.869-3.678,6.278-4.434a15.792,15.792,0,0,1,1.73-.865" transform="translate(-3537.616 -19261.838)"/><path class="i" d="M0,2.719,4.087,0" transform="translate(-1771.711 -12232.002)"/><path class="i" d="M0,1.916,3.812,0" transform="translate(-1766.133 -12230.271)"/><path class="q" d="M1864.1,7007.632c-3.455-.824-8.334-1.632-11.121-.518-4.144,1.652-13.2,5.314-20.382,7.091a6.412,6.412,0,0,1,1.663,4.076,15.848,15.848,0,0,1-.767,5.594c5.475.616,13.555,1.331,18.559.9,8.132-.7,18.357.233,22.542-2.787s-1.16-10.923-1.626-11.623" transform="translate(-3574.733 -19251.039)"/><path class="q" d="M1651.582,7004.142c.435-1.176,3.626-3.989,7.92-3.237s9.168,5.521,11.955,9.188,5.009,4.662,5.009,4.662l-3.284,10.033s-2.02-.487-5.812-1.45-12.276-2.217-16.176-3.429-5.563-5.407-4.713-9.324a23.359,23.359,0,0,1,2.2-6.246" transform="translate(-3484.911 -19248.248)"/><path class="r" d="M1685.993,7017.662c-.3-.383-.611-.776-.943-1.181a13.441,13.441,0,0,0-7.143,5.9,11.37,11.37,0,0,0-1.326,7.407c2.072.394,3.983.766,5.314,1.1,3.791.963,5.812,1.45,5.812,1.45l3.284-10.032S1688.775,7021.334,1685.993,7017.662Z" transform="translate(-3499.447 -19255.816)"/><path class="r" d="M1692.129,7031.651c-.218,1.554-.694,3.33,1.554,4.314s4.486,3.414,5.9,3.983a21.3,21.3,0,0,0,5.319,1.285,14.4,14.4,0,0,0,6.04-.223c2.823-.788,2.745-1.512,2.745-1.512a7.213,7.213,0,0,0,2.631-.363c.87-.43.259-1.507-.8-1.932s-2.352-.994-2.352-.994,1.606-1.481,1.2-1.849l-.4-.368s1.854.218,2.015-.373-1-3.2-1.471-5.4-1.445-1.9-3.232-2.253-4.221.1-7.433-.585-7.863.466-9.7.953" transform="translate(-3506.925 -19260.006)"/><path class="k" d="M1716.488,7007.715l2.932,10.359,2.341,1.113-3.47-12a.933.933,0,0,0-1.153-.641.826.826,0,0,0-.111.04h0A.937.937,0,0,0,1716.488,7007.715Z" transform="translate(-3518.744 -19251.014)"/><path class="r" d="M1717.992,7027.3s5.128,2.735,5.48,2.875a32.21,32.21,0,0,1,3.253,5.75c.337.839-.041,1.32-.829,1.755l-1.062-.43-6.376-4.014-2.336-1.114" transform="translate(-3518.585 -19261.033)"/><path class="g" d="M1712.822,7044.551s4.993,2.968,6.045,3.512,4.89.792,4.89.792" transform="translate(-3516.994 -19269.348)"/><path class="g" d="M1709.212,7050.182s4.19,2.31,5.014,2.589,2.59.767,2.59.767" transform="translate(-3515.254 -19272.063)"/><path class="u" d="M1625.16,7068.45l19.123-17.59-42.131-2.72Z" transform="translate(-3463.647 -19271.078)"/><path class="t" d="M1643.744,7072.36l8.609-8.158-9.971-.6Z" transform="translate(-3483.04 -19278.531)"/><path class="v" d="M1527.917,6991.981l63.072,2.792-3.631,46.606-63.626-3.072Z" transform="translate(-3425.846 -19244.008)"/><path class="t" d="M1524.272,7035.206c3.729-.549,10.023-2.015,20.651-5.455,25.3-8.189,28.488-31.078,46.327-34.978l-63.072-2.792Z" transform="translate(-3426.106 -19244.008)"/><path class="f" d="M4.838,0C7.51,0,9.676,1.665,9.676,3.719S7.51,7.438,4.838,7.438,0,5.773,0,3.719,2.166,0,4.838,0Z" transform="translate(-1873.74 -12232.116)"/><path class="b" d="M5.887,0H58.111A5.887,5.887,0,0,1,64,5.887v30.43A5.887,5.887,0,0,1,58.111,42.2H5.887A5.887,5.887,0,0,1,0,36.317V5.887A5.887,5.887,0,0,1,5.887,0Z" transform="translate(-1926.009 -12273.121)"/><path class="w" d="M323.269,312.85c0-.012.181-.008.526-.058a3.716,3.716,0,0,0,1.445-.523,3.871,3.871,0,0,0,1.591-1.878,9.652,9.652,0,0,0,.264-3.4c-.013-5.215-.032-12.743-.055-22.043q-.005-3.49-.011-7.3,0-.952,0-1.924a11.785,11.785,0,0,0-.079-1.929A3.772,3.772,0,0,0,324.495,271a5.476,5.476,0,0,0-2-.207l-2.1,0-4.307,0-8.991.007-40.032.013a3.726,3.726,0,0,0-3.642,2.939,5.891,5.891,0,0,0-.084,1.27v3.911q0,5.188,0,10.214c0,6.7-.007,13.156-.01,19.309a4.239,4.239,0,0,0,.393,2.159,3.728,3.728,0,0,0,1.463,1.564,3.819,3.819,0,0,0,2.06.512l2.2,0,8.481.009,15.222.021,22.042.055,5.993.032,1.559.017c.351.005.531.017.531.017s-.18.012-.531.018l-1.559.017-5.993.032-22.042.055-15.222.021-8.481.009-2.2,0a4.126,4.126,0,0,1-2.216-.551,4.04,4.04,0,0,1-1.587-1.692,4.563,4.563,0,0,1-.429-2.3c0-6.153-.007-12.613-.01-19.309q0-5.022,0-10.214v-3.911a6.2,6.2,0,0,1,.092-1.343,4.066,4.066,0,0,1,3.978-3.21l40.032.013,8.991.007,4.307,0,2.1,0a5.747,5.747,0,0,1,2.091.227,4.052,4.052,0,0,1,2.631,3,11.807,11.807,0,0,1,.079,1.984q0,.971,0,1.924-.006,3.81-.011,7.3c-.023,9.3-.042,16.828-.055,22.043q0,.975-.008,1.842a4.089,4.089,0,0,1-.295,1.6,3.928,3.928,0,0,1-1.651,1.9,3.638,3.638,0,0,1-1.476.5A3.028,3.028,0,0,1,323.269,312.85Z" transform="translate(-2189.173 -12543.767)"/><path class="x" d="M0,0H2.456V9.773H0Z" transform="translate(-1897.326 -12248.615)"/><path class="x" d="M0,0H2.456V11.189H0Z" transform="translate(-1917.838 -12250.03)"/><path class="x" d="M0,0H2.456V13.521H0Z" transform="translate(-1912.71 -12252.363)"/><path class="x" d="M0,0H2.456V12.779H0Z" transform="translate(-1907.582 -12251.621)"/><path class="x" d="M0,0H2.456V17.1H0Z" transform="translate(-1902.454 -12255.944)"/><path class="x" d="M0,0H2.456V17.019H0Z" transform="translate(-1892.198 -12255.861)"/><path class="x" d="M0,0H2.456V11.429H0Z" transform="translate(-1887.07 -12250.271)"/><path class="x" d="M0,0H2.456V16.27H0Z" transform="translate(-1881.942 -12255.111)"/><path class="x" d="M0,0H2.456V19.934H0Z" transform="translate(-1876.814 -12258.776)"/><path class="x" d="M0,0H2.456V16.353H0Z" transform="translate(-1871.686 -12255.194)"/><path class="y" d="M274.333,278.726a1.547,1.547,0,1,1-1.547-1.546A1.547,1.547,0,0,1,274.333,278.726Z" transform="translate(-2191.966 -12546.037)"/><path class="y" d="M280.37,278.726a1.547,1.547,0,1,1-1.546-1.546A1.547,1.547,0,0,1,280.37,278.726Z" transform="translate(-2194.01 -12546.037)"/><path class="y" d="M286.408,278.726a1.547,1.547,0,1,1-1.547-1.546A1.547,1.547,0,0,1,286.408,278.726Z" transform="translate(-2196.055 -12546.037)"/></g></svg>