<svg xmlns="http://www.w3.org/2000/svg" width="376.597" height="419.721" viewBox="0 0 376.597 419.721"><defs><style>.a{fill:#ebebeb;}.b{fill:#e6e6e6;}.c{fill:#f0f0f0;}.d{fill:#f5f5f5;}.e,.y{fill:#aed3f2;}.f{fill:#5e6178;}.g{fill:#6595bf;}.h{fill:#ffc3bd;}.i{fill:#344154;}.j,.n{fill:#d9a171;}.k,.w{opacity:0.2;}.k,.l,.n,.u{isolation:isolate;}.l,.p{fill:#fff;}.l,.o{opacity:0.5;}.m{fill:#ed847e;}.n{opacity:0.7;}.q{fill:#ececec;}.r{fill:#e1e1e1;}.s{fill:#a66d58;}.t{fill:#fbcdc8;}.u{mix-blend-mode:multiply;}.v{fill:#f2e9e4;}.x{fill:#fafafa;}.y{stroke:#000;stroke-linecap:round;stroke-linejoin:round;stroke-width:1.5px;}.z{fill:#263238;}</style></defs><g transform="translate(-751.378 -1271.912)"><g transform="translate(758.253 1271.912)"><rect class="a" width="17.126" height="0.287" transform="translate(10.459 394.814)"/><rect class="a" width="9.988" height="0.287" transform="translate(146.873 397.941)"/><rect class="a" width="39.299" height="0.287" transform="translate(32.436 384.148)"/><rect class="a" width="107.678" height="0.287" transform="translate(234.757 386.217)"/><path class="a" d="M881.786,1596.968h221.953a6.574,6.574,0,0,0,6.563-6.563V1278.418a6.576,6.576,0,0,0-6.563-6.506H881.786a6.563,6.563,0,0,0-6.54,6.506V1590.4A6.563,6.563,0,0,0,881.786,1596.968Zm221.953-324.826a6.288,6.288,0,0,1,6.276,6.276V1590.4a6.287,6.287,0,0,1-6.276,6.276H881.786a6.286,6.286,0,0,1-6.276-6.276V1278.418a6.287,6.287,0,0,1,6.276-6.276Z" transform="translate(-875.246 -1271.912)"/><rect class="b" width="21.402" height="146.976" transform="translate(259.654 229.344)"/><path class="c" d="M843.113,1602.943h7.54v-27.931H835.216Z" transform="translate(-569.586 -1226.623)"/><rect class="b" width="21.402" height="146.976" transform="translate(33.31 229.344)"/><rect class="c" width="232.918" height="139.356" transform="translate(48.137 229.333)"/><path class="c" d="M1031.977,1602.943h-7.54v-27.931h15.437Z" transform="translate(-976.299 -1226.623)"/><rect class="b" width="69.046" height="115.275" transform="translate(55.885 240.884)"/><path class="c" d="M1010.862,1485.763H997.2a23.184,23.184,0,0,1-15.689-5.851h45.034A23.144,23.144,0,0,1,1010.862,1485.763Z" transform="translate(-913.621 -1240.833)"/><rect class="b" width="69.046" height="115.275" transform="translate(130.08 240.884)"/><path class="c" d="M945.691,1485.763H932.036a23.184,23.184,0,0,1-15.69-5.851H961.38A23.184,23.184,0,0,1,945.691,1485.763Z" transform="translate(-773.565 -1240.833)"/><rect class="b" width="69.046" height="115.275" transform="translate(204.263 240.884)"/><path class="c" d="M881.141,1485.763H867.486a23.16,23.16,0,0,1-15.69-5.851H896.83A23.184,23.184,0,0,1,881.141,1485.763Z" transform="translate(-634.82 -1240.833)"/><rect class="d" width="44.494" height="129.988" transform="translate(325.228 134.862)"/><rect class="b" width="154.873" height="145.287" transform="translate(53.85 48.023)"/><rect class="d" width="154.873" height="145.287" transform="translate(57.747 48.023)"/><rect class="b" width="167.827" height="8.414" transform="translate(53.85 193.31)"/><rect class="d" width="159.183" height="8.414" transform="translate(66.884 193.31)"/><rect class="e" width="140.861" height="130.172" transform="translate(64.758 55.575)"/><rect class="d" width="7.805" height="130.172" transform="translate(131.286 55.575)"/><rect class="b" width="2.954" height="130.172" transform="translate(202.665 55.586)"/><rect class="b" width="2.954" height="130.172" transform="translate(128.332 55.575)"/><path class="f" d="M916.232,1455.815c2.851-29.517,4.828-77.4,3.287-93.425a1.934,1.934,0,0,0-.793-1.379h0a1.977,1.977,0,0,0-3.138,1.644c.276,7.943.586,27.782-1.149,62-.839,17.034-2.057,28.736-1.218,31.161Z" transform="translate(-728.325 -1258.655)"/><path class="b" d="M881.455,1386.261c8.046-9.011,24.667-15.414,41.552-15.379,6.621,0-20.161,10.471-31.3,22.023-8.655,8.966-18.391,24.057-21.735,32.437C872.122,1407.7,873.341,1395.261,881.455,1386.261Z" transform="translate(-682.928 -1257.124)"/><path class="f" d="M956.077,1388.916c-6.736-9.379-22.287-16.6-39.08-17.413-6.609-.322,18.517,11.494,27.9,23.517,7.287,9.368,14.758,24.9,16.8,33.4C962.135,1410.755,962.813,1398.3,956.077,1388.916Z" transform="translate(-773.63 -1257.032)"/><path class="f" d="M885.081,1357.345c6.9-7.632,20.9-13.057,35.184-13.023,5.621,0-17.069,8.873-26.506,18.644-7.322,7.6-15.586,20.379-18.391,27.471C877.218,1375.517,878.253,1364.965,885.081,1357.345Z" transform="translate(-686.231 -1261.093)"/><path class="f" d="M948.257,1367.38c-5.747-7.943-18.873-14.057-33.115-14.747-5.586-.264,15.69,9.7,23.621,19.92,6.172,7.931,12.494,21.08,14.241,28.287C953.418,1385.874,953.958,1375.322,948.257,1367.38Z" transform="translate(-762.982 -1259.852)"/><path class="g" d="M919.742,1476.832h0a16.781,16.781,0,0,0,16.69-15.8l1.471-25.655H901.466l1.483,25.655A16.769,16.769,0,0,0,919.742,1476.832Z" transform="translate(-732.984 -1247.488)"/><path class="g" d="M899.509,1441.83h41.161l1.172-10.678H898.336Z" transform="translate(-733.326 -1248.118)"/></g><g transform="translate(942.065 1312.777)"><path class="h" d="M863.226,1625.162l9.6,1.08,3.54-21.77-9.6-1.08Z" transform="translate(-811.304 -1263.247)"/><path class="h" d="M901.626,1627.038h9.586l2.379-22.2h-9.586Z" transform="translate(-892.669 -1263.031)"/><path class="i" d="M901.987,1623.182H890.308a.838.838,0,0,0-.816.655l-1.9,8.517a1.4,1.4,0,0,0,1.4,1.7c3.758-.057,6.506-.276,11.241-.276,2.908,0,11.69.3,15.713.3s4.6-3.977,2.9-4.333c-7.379-1.62-12.942-3.85-15.31-5.977A2.3,2.3,0,0,0,901.987,1623.182Z" transform="translate(-882.661 -1260.291)"/><path class="i" d="M864.681,1621.992l-10.345-1.15a.827.827,0,0,0-.885.563l-2.839,8.241a1.391,1.391,0,0,0,.84,1.779,1.346,1.346,0,0,0,.309.071c3.759.368,9.2.759,13.919,1.3,5.517.621,6.437,2.1,12.931,1.943,3.943-.092,4.943-4.092,3.287-4.414-7.54-1.46-8.989-2.6-14.943-7.3A4.4,4.4,0,0,0,864.681,1621.992Z" transform="translate(-803.011 -1260.641)"/><path class="h" d="M794.346,1380.626c3.218,2.655,6.391,4.966,9.667,7.333s6.621,4.6,10.069,6.7,6.977,4.161,10.69,6.012a77.319,77.319,0,0,0,11.793,4.954c1.069.333,2.115.621,3.322.908a31.84,31.84,0,0,0,3.575.575c2.161.241,4.184.333,6.207.437,4.034.184,8.046.172,11.954.15,7.908-.092,15.747-.471,23.632-1.15l.115-7.2c-7.735-.988-15.506-1.85-23.2-2.712-3.839-.425-7.678-.885-11.414-1.379-1.874-.253-3.724-.552-5.425-.874a21.822,21.822,0,0,1-2.184-.505c-.667-.23-1.494-.494-2.3-.8a78.257,78.257,0,0,1-9.552-4.667c-3.184-1.828-6.356-3.793-9.483-5.874s-6.241-4.242-9.333-6.437-6.161-4.529-9.057-6.736Z" transform="translate(-741.136 -1298.216)"/><path class="j" d="M852.131,1373.838c1.379,9.057,20.448,22.908,20.448,22.908l13.69-16.977a227.515,227.515,0,0,0-19.046-18.115C861.073,1356.619,850.636,1363.976,852.131,1373.838Z" transform="translate(-808.288 -1299.611)"/><path class="h" d="M791.4,1396.6l5.437-3.874.6,12.241s-3.011,0-4.172-2.207Z" transform="translate(-649.807 -1294.726)"/><path class="h" d="M791.586,1389.622l1.115,11.988-5.437,3.816-.6-12.241Z" transform="translate(-639.641 -1295.189)"/><path class="k" d="M874.65,1604.483l-1.816,11.218-9.6-1.08,1.816-11.218Z" transform="translate(-809.601 -1263.246)"/><path class="k" d="M902.856,1604.843h9.586l-1.23,11.448h-9.586Z" transform="translate(-891.52 -1263.031)"/><path class="i" d="M865.273,1362.148a5.472,5.472,0,0,0-4.151,6.531c.011.049.023.1.036.147a225.3,225.3,0,0,1,4.69,26.2c.908,7.425,1.448,14.517,1.782,20.942.8,15.057.471,26.54.919,30.437l51.138-3.54c5.2-40.69-.885-66.666-4.31-77.207a9.13,9.13,0,0,0-7.471-6.253c-1.966-.253-4.31-.506-6.793-.655-.862,0-1.747-.081-2.632-.1a190.188,190.188,0,0,0-21.758,1.46c-1.368.161-2.747.368-4.092.575C869.951,1361.148,867.388,1361.677,865.273,1362.148Z" transform="translate(-854.074 -1299.818)"/><path class="h" d="M880.839,1338.522c1.862,6.9,4.126,19.609-.437,24.621,11.851,7.977,19.414,19.2,21.6,16.759,1.149-1.276,1.632-16.092.138-18.276-7.931-1.322-8.138-7.115-7.161-12.644Z" transform="translate(-857.755 -1302.824)"/><path class="j" d="M883.05,1357.452s19.322,8.552,21.839,27.655c-5.31-6.161-17.069-12.862-17.069-12.862l5.184-1.483a53.028,53.028,0,0,0-10.184-2.747c.575-2.644-2.494-7.908-2.494-7.908Z" transform="translate(-859.483 -1299.995)"/><path class="j" d="M875.813,1357.182s-2.563,10.92,4.448,27.965c1.092-6.506,5.678-17.391,5.678-17.391l-4.736,1.276s.241-2.2,4.069-5.126c-1.425-2.736-5.885-5.965-5.885-5.965Z" transform="translate(-834.821 -1300.036)"/><path class="k" d="M887.591,1342.232l8.368,6.184a21.773,21.773,0,0,0-.4,3.908c-3.012-.218-7.333-3.207-7.862-6.31A10.431,10.431,0,0,1,887.591,1342.232Z" transform="translate(-858.76 -1302.27)"/><path class="i" d="M877.222,1321.142c4.678.2,7.253,8.253,2.517,14.943S870.934,1320.878,877.222,1321.142Z" transform="translate(-829.586 -1305.421)"/><path class="h" d="M875.729,1328.92c-.552,9.494-1.356,15.023,2.816,20.425,6.287,8.138,18.448,5.23,21.839-3.908,3.034-8.23,3.448-22.379-5.345-27.23a12.976,12.976,0,0,0-19.31,10.713Z" transform="translate(-851.14 -1306.107)"/><path class="i" d="M881.767,1337.565c7.2-4.6,9.735-10.655,10.287-13.7,2.793.655,16.655,7.034,20.919,0s-1.149-11.172-9.08-6.839c3.529-6.23.322-9.276-10.77-9.552s-9.6,6.161-9.6,6.161-8.391-3.655-11.368,2.781C868.721,1323.818,875.066,1336.45,881.767,1337.565Z" transform="translate(-858.568 -1307.464)"/><path class="i" d="M905.386,1311.841c-.1,0-4.2.989-8.919-3.759.839,4.046,8.172,6.747,8.172,6.747Z" transform="translate(-878.532 -1307.373)"/><path class="i" d="M895.778,1323.471c4.414-1.529,9.77,5.023,7.793,12.931S889.813,1325.529,895.778,1323.471Z" transform="translate(-874.43 -1305.106)"/><path class="h" d="M895.862,1334.835a8.987,8.987,0,0,0,3.678,5.839c2.6,1.816,4.943-.253,5.092-3.253.138-2.7-1.057-6.9-4.08-7.517S895.391,1331.938,895.862,1334.835Z" transform="translate(-877.02 -1304.125)"/><path class="j" d="M869.747,1539.854c-2.3-28.023-19.2-105.62-19.2-105.62l33.621-2.322s12.965,77.011,13.954,106.252c1.034,30.4-11.2,97.953-11.2,97.953l-16.092-1.839S872.069,1568,869.747,1539.854Z" transform="translate(-818.56 -1288.87)"/><path class="l" d="M869.747,1539.854c-2.3-28.023-19.2-105.62-19.2-105.62l33.621-2.322s12.965,77.011,13.954,106.252c1.034,30.4-11.2,97.953-11.2,97.953l-16.092-1.839S872.069,1568,869.747,1539.854Z" transform="translate(-818.56 -1288.87)"/><path class="k" d="M881.484,1456.792c6.782,8.667,6.9,39.08,4.276,61.586-2.494-16.23-6.425-36.781-9.885-54.023Z" transform="translate(-836.826 -1285.152)"/><path class="j" d="M919.434,1432.992s-3.632,82.046-7.678,109.827c-4.425,30.425-15.678,96.976-15.678,96.976H878.526s2.885-62.632,5.207-92.528c2.632-34.046,2.7-111.931,2.7-111.931Z" transform="translate(-871.959 -1288.708)"/><path class="l" d="M919.434,1432.992s-3.632,82.046-7.678,109.827c-4.425,30.425-15.678,96.976-15.678,96.976H878.526s2.885-62.632,5.207-92.528c2.632-34.046,2.7-111.931,2.7-111.931Z" transform="translate(-871.959 -1288.708)"/><path class="j" d="M915.563,1614.057H894.9v-6.173l23.1-.4Z" transform="translate(-889.341 -1262.636)"/><path class="j" d="M876.335,1612.223l-19.219-2.184.7-6.207,21.517,2.1Z" transform="translate(-807.251 -1263.182)"/><path class="i" d="M884.685,1331.259c-.092.77.241,1.448.747,1.505s.977-.517,1.08-1.287-.241-1.437-.747-1.494S884.777,1330.5,884.685,1331.259Z" transform="translate(-846.119 -1304.1)"/><path class="i" d="M877.168,1332.168c-.092.77.241,1.437.747,1.506s.977-.517,1.069-1.287-.241-1.437-.736-1.494S877.283,1331.4,877.168,1332.168Z" transform="translate(-829.946 -1303.964)"/><path class="m" d="M879.53,1332.052a27.665,27.665,0,0,0,2.885,7,4.473,4.473,0,0,1-3.759.241Z" transform="translate(-835.09 -1303.791)"/><path class="i" d="M885.011,1328.664a.448.448,0,0,0,.46-.115,3.633,3.633,0,0,1,3.069-1.149.459.459,0,0,0,.569-.314.484.484,0,0,0,.017-.1.438.438,0,0,0-.331-.522l-.037-.007a4.475,4.475,0,0,0-3.885,1.414.449.449,0,0,0-.01.635l.01.009A.514.514,0,0,0,885.011,1328.664Z" transform="translate(-848.801 -1304.633)"/><path class="i" d="M890.164,1341.595h0a6.961,6.961,0,0,1-4.965-4.08.242.242,0,0,1,.138-.311.254.254,0,0,1,.322.15,6.585,6.585,0,0,0,4.6,3.759.246.246,0,0,1-.092.483Z" transform="translate(-850.62 -1303.023)"/><path class="i" d="M877.6,1330.25a.368.368,0,0,0,.276,0,.46.46,0,0,0,.287-.575,4.532,4.532,0,0,0-2.931-2.931.449.449,0,0,0-.548.32l0,.014a.437.437,0,0,0,.306.537l.016,0h0a3.612,3.612,0,0,1,2.3,2.3A.411.411,0,0,0,877.6,1330.25Z" transform="translate(-826.277 -1304.586)"/><path class="j" d="M900.925,1624.952a2.884,2.884,0,0,0,1.839-.494,1.356,1.356,0,0,0,.471-1.15.7.7,0,0,0-.391-.644c-1.057-.551-4.149,1.357-4.494,1.575a.208.208,0,0,0-.1.23.218.218,0,0,0,.172.184A11.145,11.145,0,0,0,900.925,1624.952Zm1.425-1.988a.669.669,0,0,1,.287.057.279.279,0,0,1,.149.265.931.931,0,0,1-.31.827c-.529.437-1.782.506-3.448.173A9.28,9.28,0,0,1,902.351,1622.964Z" transform="translate(-878.428 -1260.382)"/><path class="j" d="M900.154,1624.9a.2.2,0,0,0,.115,0c.989-.541,2.908-2.644,2.7-3.7a.748.748,0,0,0-.724-.6,1.224,1.224,0,0,0-.966.287c-1.149.908-1.345,3.678-1.345,3.793a.194.194,0,0,0,.1.207A.191.191,0,0,0,900.154,1624.9Zm1.9-3.885h.092c.3,0,.322.172.333.23.126.632-1.149,2.219-2.08,2.965a5.37,5.37,0,0,1,1.149-3A.8.8,0,0,1,902.051,1621.017Z" transform="translate(-880.116 -1260.677)"/><path class="j" d="M860.545,1623.273h0c1.494.483,4.184,1.15,5.333.356a1.244,1.244,0,0,0,.54-1.046.727.727,0,0,0-.3-.644c-1.08-.759-5.138.736-5.586.908a.24.24,0,0,0-.149.219A.216.216,0,0,0,860.545,1623.273Zm5.3-.989h0a.3.3,0,0,1,.115.264.815.815,0,0,1-.356.69c-.644.46-2.218.368-4.287-.218,1.667-.517,3.862-1.081,4.529-.736Z" transform="translate(-798.093 -1260.508)"/><path class="j" d="M862.274,1623.6a.253.253,0,0,0,.184,0c1.207-.379,3.713-2.184,3.655-3.276,0-.264-.149-.6-.758-.724a1.633,1.633,0,0,0-1.3.241c-1.322.862-1.873,3.448-1.9,3.448a.251.251,0,0,0,.069.218Zm3.23-3.448c.149.08.161.172.161.218,0,.655-1.7,2.092-2.954,2.667a5.31,5.31,0,0,1,1.6-2.793,1.155,1.155,0,0,1,.943-.184.81.81,0,0,1,.253.08Z" transform="translate(-799.822 -1260.832)"/><path class="h" d="M871.156,1373.845c.241,3.747.678,7.23,1.149,10.827s1.069,7.126,1.747,10.69a125.906,125.906,0,0,0,5.9,21.356l1.15,2.678.287.666.069.173.115.253.345.713a11.574,11.574,0,0,0,1.586,2.3,13.962,13.962,0,0,0,3.448,2.851,20.443,20.443,0,0,0,3.3,1.6,43.082,43.082,0,0,0,11.793,2.471,98.806,98.806,0,0,0,21.931-.816l-.264-7.2-5.069-.575c-1.7-.2-3.391-.46-5.069-.69-3.356-.494-6.678-1.046-9.85-1.782a37.485,37.485,0,0,1-8.471-2.8,4.684,4.684,0,0,1-1.851-1.414c0-.173.333.552-.092-.6l-.759-2.218a144.764,144.764,0,0,1-4.253-19.379c-.552-3.333-1.011-6.7-1.471-10.08s-.816-6.816-1.149-10.046Z" transform="translate(-868.026 -1297.699)"/><path class="j" d="M899.173,1368.527c-4.69,7.862-.69,32.6-.69,32.6l24.6-4.6s1.333-14.161-3.356-25.035C914.633,1359.7,904.851,1358.987,899.173,1368.527Z" transform="translate(-896.894 -1299.323)"/><path class="i" d="M812.08,1444.322l13.046-60.689a12.276,12.276,0,0,1,11.414-9.391h49.977a12.3,12.3,0,0,0-11.414,9.391l-13.034,60.689a12.3,12.3,0,0,1-11.414,9.391H800.666A12.285,12.285,0,0,0,812.08,1444.322Z" transform="translate(-749.548 -1297.487)"/><path class="n" d="M812.08,1444.322l13.046-60.689a12.276,12.276,0,0,1,11.414-9.391h49.977a12.3,12.3,0,0,0-11.414,9.391l-13.034,60.689a12.3,12.3,0,0,1-11.414,9.391H800.666A12.285,12.285,0,0,0,812.08,1444.322Z" transform="translate(-749.548 -1297.487)"/><rect class="j" width="13.863" height="3.689" transform="translate(155.316 164.111) rotate(-95.143)"/><rect class="j" width="5.677" height="2.225" transform="matrix(-0.092, -0.996, 0.996, -0.092, 157.901, 176.956)"/><path class="j" d="M830.4,1374.242H780.419a10.5,10.5,0,0,1,10.241,9.391l12.966,141.011a10.505,10.505,0,0,0,10.253,9.391h31.2a8.437,8.437,0,0,0,8.593-8.277,8.6,8.6,0,0,0-.053-1.114l-12.965-141.011A10.507,10.507,0,0,0,830.4,1374.242Z" transform="translate(-693.427 -1297.487)"/><path class="i" d="M772.618,1505.092a8.437,8.437,0,0,1-7.427,9.338,8.325,8.325,0,0,1-1.113.053h49.988a8.425,8.425,0,0,0,8.583-8.264,8.609,8.609,0,0,0-.054-1.126Z" transform="translate(-643.627 -1277.935)"/><path class="n" d="M772.618,1505.092a8.437,8.437,0,0,1-7.427,9.338,8.325,8.325,0,0,1-1.113.053h49.988a8.425,8.425,0,0,0,8.583-8.264,8.609,8.609,0,0,0-.054-1.126Z" transform="translate(-643.627 -1277.935)"/><g class="o" transform="translate(103.658 88.468)"><path class="p" d="M798.83,1388.524h33.885a1.838,1.838,0,0,0,1.862-1.815,1.947,1.947,0,0,0-.011-.231h0a2.3,2.3,0,0,0-2.23-2.046H798.508a1.839,1.839,0,0,0-1.862,1.816,1.691,1.691,0,0,0,.012.23h0A2.3,2.3,0,0,0,798.83,1388.524Z" transform="translate(-796.646 -1384.432)"/><path class="p" d="M798.007,1398.144h33.827a1.84,1.84,0,0,0,1.874-1.8,1.909,1.909,0,0,0-.012-.243h0a2.3,2.3,0,0,0-2.23-2.046H797.64a1.84,1.84,0,0,0-1.874,1.8,1.883,1.883,0,0,0,.011.242h0A2.3,2.3,0,0,0,798.007,1398.144Z" transform="translate(-794.766 -1382.995)"/><path class="p" d="M797.126,1407.774h25.552a1.838,1.838,0,0,0,1.862-1.815,1.941,1.941,0,0,0-.011-.231h0a2.3,2.3,0,0,0-2.23-2.046H796.77a1.84,1.84,0,0,0-1.874,1.8,1.872,1.872,0,0,0,.012.242h0A2.3,2.3,0,0,0,797.126,1407.774Z" transform="translate(-784.597 -1381.556)"/><path class="p" d="M796.259,1417.443h8.655a1.84,1.84,0,0,0,1.872-1.8,1.92,1.92,0,0,0-.01-.23h0a2.3,2.3,0,0,0-2.23-2.046h-8.667a1.84,1.84,0,0,0-1.862,1.816,1.7,1.7,0,0,0,.011.23h0A2.3,2.3,0,0,0,796.259,1417.443Z" transform="translate(-765.833 -1380.109)"/><path class="p" d="M795.345,1427.024H829.2a1.838,1.838,0,0,0,1.862-1.815,1.975,1.975,0,0,0-.011-.231h0a2.3,2.3,0,0,0-2.23-2.046H795a1.839,1.839,0,0,0-1.874,1.8,1.86,1.86,0,0,0,.011.242h0A2.3,2.3,0,0,0,795.345,1427.024Z" transform="translate(-789.08 -1378.679)"/><path class="p" d="M794.495,1436.654h20.517a1.839,1.839,0,0,0,1.873-1.8,1.9,1.9,0,0,0-.011-.242h0a2.3,2.3,0,0,0-2.23-2.046H794.138a1.851,1.851,0,0,0-1.872,1.829,1.716,1.716,0,0,0,.01.217h0A2.3,2.3,0,0,0,794.495,1436.654Z" transform="translate(-773.92 -1377.24)"/><path class="p" d="M793.613,1446.274h33.828a1.838,1.838,0,0,0,1.862-1.815,1.979,1.979,0,0,0-.011-.231h0a2.3,2.3,0,0,0-2.23-2.046H793.268a1.851,1.851,0,0,0-1.872,1.828,1.736,1.736,0,0,0,.01.217h0A2.3,2.3,0,0,0,793.613,1446.274Z" transform="translate(-785.337 -1375.803)"/><path class="p" d="M792.757,1455.9h25.529a1.84,1.84,0,0,0,1.874-1.8,1.908,1.908,0,0,0-.011-.242h0a2.3,2.3,0,0,0-2.23-2.046H792.39a1.84,1.84,0,0,0-1.874,1.8,1.9,1.9,0,0,0,.012.241h0A2.3,2.3,0,0,0,792.757,1455.9Z" transform="translate(-775.183 -1374.364)"/><path class="p" d="M791.879,1465.534h8.667a1.85,1.85,0,0,0,1.872-1.827c0-.074,0-.146-.01-.218h0a2.3,2.3,0,0,0-2.241-2.046h-8.655a1.84,1.84,0,0,0-1.874,1.8,1.863,1.863,0,0,0,.011.241h0A2.3,2.3,0,0,0,791.879,1465.534Z" transform="translate(-756.43 -1372.925)"/><path class="p" d="M791.008,1475.154h33.816a1.839,1.839,0,0,0,1.873-1.8,1.889,1.889,0,0,0-.011-.242h0a2.3,2.3,0,0,0-2.23-2.046H790.628a1.839,1.839,0,0,0-1.862,1.816,1.673,1.673,0,0,0,.011.23h0A2.3,2.3,0,0,0,791.008,1475.154Z" transform="translate(-779.708 -1371.488)"/><path class="p" d="M790.127,1484.784h20.506a1.84,1.84,0,0,0,1.874-1.8,1.932,1.932,0,0,0-.011-.242h0a2.3,2.3,0,0,0-2.23-2.046H789.759a1.84,1.84,0,0,0-1.873,1.8,1.873,1.873,0,0,0,.011.241h0A2.3,2.3,0,0,0,790.127,1484.784Z" transform="translate(-764.507 -1370.049)"/><path class="p" d="M789.256,1494.442h33.816a1.839,1.839,0,0,0,1.874-1.8,1.919,1.919,0,0,0-.011-.243h0a2.3,2.3,0,0,0-2.23-2.034H788.877a1.84,1.84,0,0,0-1.861,1.817,1.716,1.716,0,0,0,.01.217h0A2.3,2.3,0,0,0,789.256,1494.442Z" transform="translate(-775.946 -1368.604)"/></g><path class="h" d="M864.586,1417.361l7.345-6.379,3.448,11.747s-7.46,4.046-10.034.333Z" transform="translate(-811.882 -1291.997)"/><path class="h" d="M866.545,1410.582l2.391,9.851-6.943,2.356-3.437-11.747Z" transform="translate(-798.507 -1292.057)"/></g><g transform="translate(770.198 1514.589)"><path class="d" d="M410.415,5178.127a30.611,30.611,0,1,1-34.82-25.637A30.577,30.577,0,0,1,410.415,5178.127Z" transform="translate(-349.533 -5152.144)"/><g transform="translate(7.284 7.268)"><path class="q" d="M404.823,5180.821a23.327,23.327,0,1,1-26.535-19.536A23.3,23.3,0,0,1,404.823,5180.821Z" transform="translate(-358.428 -5161.02)"/></g><g transform="translate(6.856 6.383)"><path class="r" d="M404.614,5179.9a13.675,13.675,0,0,1-1.028-2.681,24.778,24.778,0,0,0-3.726-6.67,23.981,23.981,0,0,0-3.686-3.73,23.351,23.351,0,0,0-5.113-3.124,22.845,22.845,0,0,0-6.351-1.792,22.655,22.655,0,0,0-3.49-.187,22.7,22.7,0,0,0-7.061,1.292,22.7,22.7,0,0,0-3.2,1.409,22.934,22.934,0,0,0-5.305,3.924,23.359,23.359,0,0,0-3.675,4.733,23.89,23.89,0,0,0-2.125,4.8,24.751,24.751,0,0,0-1.121,7.556,13.631,13.631,0,0,1-.011,2.869,6.851,6.851,0,0,1-.684-2.829,21.585,21.585,0,0,1,.6-7.944,23.394,23.394,0,0,1,5.842-10.333,23.819,23.819,0,0,1,5.644-4.309,23.912,23.912,0,0,1,3.441-1.545,23.919,23.919,0,0,1,7.617-1.393,23.726,23.726,0,0,1,3.765.227,23.88,23.88,0,0,1,6.8,2.031,23.418,23.418,0,0,1,9.124,7.595,21.6,21.6,0,0,1,3.377,7.215A6.858,6.858,0,0,1,404.614,5179.9Z" transform="translate(-357.905 -5159.937)"/></g><g transform="translate(20.229 14.274)"><path class="r" d="M389.3,5199.21l.664,4.008-3.58.593-.645-3.9a17.193,17.193,0,0,1-9.386-1.388l1.245-4.693a14.681,14.681,0,0,0,7.364,1.392l-.99-5.979c-4.133-.306-8.789-.9-9.637-6.014-.627-3.793,1.589-7.508,7.138-9.089l-.658-3.973,3.579-.592.646,3.9a16.417,16.417,0,0,1,7.626.979l-1.06,4.7a14.9,14.9,0,0,0-5.785-.954l1.008,6.085c4.126.273,8.712.875,9.548,5.92C396.995,5193.928,394.808,5197.6,389.3,5199.21Zm-6.2-15.228-.843-5.082c-1.825.744-2.4,1.9-2.21,3.086C380.259,5183.24,381.445,5183.743,383.1,5183.982Zm7.584,7.607c-.207-1.253-1.358-1.761-2.986-2.045l.817,4.94C390.244,5193.8,390.878,5192.734,390.688,5191.589Z" transform="translate(-374.233 -5169.573)"/></g></g><g transform="translate(979.371 1617.965)"><path class="j" d="M833.262,1669.373s-4.614-7.76-1.049-13.842.21-12.268-2.831-11.01-4.928,5.977-8.7,6.187-6.5-2.937-9.962-1.259.21,5.034-4.824,6.4,10.7,10.458,10.7,10.458l-.525,6.633Z" transform="translate(-785.098 -1644.357)"/><path class="s" d="M847.441,1690.7s-.315-7.55-6.5-7.445c-3.707.063-8.545,1.67-11.826,2.948a5.68,5.68,0,0,0-2.829,8.248l.081.128Z" transform="translate(-796.865 -1666.633)"/><path class="j" d="M856.993,1747.43H758.567s3.143-37.088,28.588-48.586h0a37.127,37.127,0,0,1,9.718-2.863C807.709,1694.31,837.7,1699.057,856.993,1747.43Z" transform="translate(-758.567 -1673.762)"/><g transform="translate(39.507 35.201)"><path class="t" d="M864.258,1742.33v-6.455a15.5,15.5,0,0,1,5.809,1.975l1.9-4.675a17.2,17.2,0,0,0-7.705-2.316v-4.139h-3.8v4.217c-6,.683-8.924,4.139-8.924,8.162,0,5.431,4.706,6.834,8.924,7.863v6.34a15.407,15.407,0,0,1-7.369-2.695l-2.085,4.633c2.085,1.634,5.693,2.81,9.455,3.036v4.139h3.8v-4.255c5.961-.72,8.845-4.139,8.845-8.083C873.1,1744.72,868.47,1743.317,864.258,1742.33Zm-3.8-.951c-1.67-.531-2.81-1.255-2.81-2.584,0-1.251.8-2.353,2.81-2.81Zm3.8,11.77v-5.242c1.633.573,2.731,1.293,2.731,2.622C866.989,1751.747,866.154,1752.735,864.258,1753.149Z" transform="translate(-851.006 -1726.72)"/></g><g class="u" transform="translate(0 25.082)"><path class="s" d="M821.618,1751.63H758.567s3.143-37.089,28.588-48.586h0S743.722,1746.418,821.618,1751.63Z" transform="translate(-758.567 -1703.044)"/></g></g><g transform="translate(824.596 1476.461) rotate(-43)"><g transform="translate(0 0)"><path class="j" d="M40.669,73.219,3.394,61.161A4.9,4.9,0,0,1,.239,54.988L16.929,3.395A4.9,4.9,0,0,1,23.1.239l23.64,7.647,12.2,24.78-12.1,37.4A4.9,4.9,0,0,1,40.669,73.219Z"/><g transform="translate(41.822 7.887)"><g transform="translate(0 0)"><path class="v" d="M4.92,0,.223,14.52a4.559,4.559,0,0,0,2.934,5.741L17.118,24.78Z"/></g></g><g class="w" transform="translate(41.588 23.742)"><g transform="translate(0 0)"><path d="M.235,0A5.069,5.069,0,0,0,2.547,5.917a4.857,4.857,0,0,0,.426.252C4.69,7.085,16,13.1,16.089,12.826c.1-.3,1.263-3.9,1.263-3.9L3.39,4.408S-.058,3.161.235,0Z"/></g></g></g><g transform="translate(21.865 15.204)"><g transform="translate(0 0)"><path class="x" d="M17.246,5.6c-.061.187-3.97-.911-8.731-2.451S-.06.207,0,.021,3.97.931,8.733,2.472,17.306,5.412,17.246,5.6Z"/></g></g><g transform="translate(19.209 23.422)"><g transform="translate(0 0)"><path class="x" d="M28.383,9.194c-.061.187-6.464-1.717-14.3-4.252S-.06.2,0,.013,6.463,1.73,14.3,4.265,28.443,9.008,28.383,9.194Z"/></g></g><g transform="translate(16.991 30.279)"><g transform="translate(0 0)"><path class="x" d="M30.939,10.019c-.061.187-7.036-1.9-15.578-4.665S-.06.2,0,.012s7.034,1.9,15.58,4.666S31,9.833,30.939,10.019Z"/></g></g><g transform="translate(14.899 36.746)"><g transform="translate(0 0)"><path class="x" d="M30.939,10.02c-.061.187-7.036-1.9-15.578-4.666S-.06.2,0,.012s7.034,1.9,15.58,4.667S31,9.833,30.939,10.02Z"/></g></g><g transform="translate(12.807 43.215)"><g transform="translate(0 0)"><path class="x" d="M30.938,10.019c-.06.187-7.036-1.9-15.577-4.665S-.06.2,0,.012s7.034,1.9,15.58,4.666S31,9.833,30.938,10.019Z"/></g></g><g transform="translate(10.714 49.682)"><g transform="translate(0 0)"><path class="x" d="M30.939,10.02c-.061.187-7.036-1.9-15.578-4.666S-.06.2,0,.012s7.034,1.9,15.58,4.667S31,9.833,30.939,10.02Z"/></g></g></g><g transform="translate(933.466 1566.531) rotate(180)"><path class="y" d="M31.332,24.946,15.525,0,0,24.946H6.373v31.9H24.957v-31.9Z"/></g><g transform="translate(1040.102 1316.93)"><path class="y" d="M130,167.982,114.19,143.036,98.664,167.982h6.373v31.9h18.584v-31.9Z" transform="translate(-98.664 -143.036)"/></g><g transform="translate(751.378 1302.868)"><g transform="translate(0.205 0.206)"><rect class="p" width="181.713" height="141.422"/></g><path class="z" d="M380.31,208.148c0-1.411-.067-56.078-.169-141.422l.169.169-181.7.036H198.6l.205-.205c-.007,50.976-.014,99.192-.02,141.422l-.185-.184,181.713.185-181.713.184h-.184v-.186c-.006-42.23-.013-90.445-.021-141.422V66.52h.221l181.7.036h.17v.17C380.378,152.07,380.312,206.738,380.31,208.148Z" transform="translate(-198.392 -66.52)"/><g transform="translate(9.069 18.786)"><rect class="z" width="29.416" height="1.637"/><g transform="translate(0 3.831)"><rect class="z" width="14.536" height="1.637"/></g><g transform="translate(16.771 11.946)"><g transform="translate(0 90.576)"><rect class="z" width="5.329" height="1.535"/></g><g transform="translate(12.055 98.785)"><rect class="z" width="6.814" height="1.535"/></g><g transform="translate(35.776 98.785)"><rect class="z" width="6.814" height="1.535"/></g><g transform="translate(59.498 98.785)"><rect class="z" width="6.814" height="1.535"/></g><g transform="translate(83.22 98.785)"><rect class="z" width="6.814" height="1.535"/></g><g transform="translate(106.941 98.785)"><rect class="z" width="6.814" height="1.535"/></g><g transform="translate(130.663 98.785)"><rect class="z" width="6.814" height="1.535"/></g><g transform="translate(0 70.068)"><rect class="z" width="5.329" height="1.535"/></g><g transform="translate(0 31.47)"><rect class="z" width="5.329" height="1.535"/></g><g transform="translate(0 12.073)"><rect class="z" width="5.329" height="1.535"/></g><g transform="translate(0.27 50.769)"><rect class="z" width="5.329" height="1.535"/></g><g transform="translate(7.926)"><path class="z" d="M375.621,202.2s-.193.013-.571.019l-1.677.018-6.447.035-23.712.059-78.232.054-18.54,0h-.181V202.2c.025-26.164.046-49.188.061-65.682.023-8.236.042-14.839.055-19.4.013-2.266.024-4.021.031-5.221.007-.588.013-1.037.016-1.352s.017-.46.017-.46.011.156.017.46.009.764.017,1.352c.007,1.2.018,2.956.031,5.221.013,4.557.031,11.16.054,19.4.016,16.495.037,39.518.062,65.682l-.181-.181,18.54,0,78.232.054,23.712.059,6.447.035,1.677.018C375.427,202.187,375.621,202.2,375.621,202.2Z" transform="translate(-246.261 -110.088)"/></g><g transform="translate(13.262 51.353)"><path class="z" d="M379.35,183.073c0,.1-28.1.183-62.759.183s-62.766-.082-62.766-.183,28.1-.183,62.766-.183S379.35,182.972,379.35,183.073Z" transform="translate(-253.825 -182.89)"/></g><g transform="translate(13.262 32.054)"><path class="z" d="M379.35,155.713c0,.1-28.1.184-62.759.184s-62.766-.083-62.766-.184,28.1-.183,62.766-.183S379.35,155.613,379.35,155.713Z" transform="translate(-253.825 -155.53)"/></g><g transform="translate(13.262 12.657)"><path class="z" d="M379.35,128.215c0,.1-28.1.183-62.759.183s-62.766-.082-62.766-.183,28.1-.183,62.766-.183S379.35,128.114,379.35,128.215Z" transform="translate(-253.825 -128.032)"/></g><g transform="translate(13.262 70.652)"><path class="z" d="M379.35,210.433c0,.1-28.1.183-62.759.183s-62.766-.083-62.766-.183,28.1-.184,62.766-.184S379.35,210.332,379.35,210.433Z" transform="translate(-253.825 -210.249)"/></g><g transform="translate(14.556 1.423)"><path class="f" d="M255.66,198.641V181.518l10.672-16.568,7.242,5.556,14.864-23.09,8.766,6.174,12.2-21.3,9.91,8.073,14.864-28.257,16.009,31.582,12.959-15.8,15.245-4.363v75.117Z" transform="translate(-255.66 -112.106)"/></g><g transform="translate(14.556 6.659)"><path class="z" d="M379.891,119.63s-.09.01-.269.014l-.794.014-3.094.026-11.7.048.08-.04-12.548,16.376-.044.056h-.072l-31.387.032.151-.086-13.2,21.968-12.954,21.535-.138.229-.157-.216-17.01-23.373.247-.008-15.49,24.177-4.313,6.688-1.141,1.748c-.26.394-.4.59-.4.59s.117-.213.365-.615l1.1-1.771,4.244-6.732,15.382-24.247.118-.185.13.178,17.053,23.341-.294.013L306.7,157.85l13.21-21.96.052-.086h.1l31.387.032-.115.056,12.617-16.324.031-.04h.05l11.7.047,3.094.027.794.013C379.8,119.621,379.891,119.63,379.891,119.63Z" transform="translate(-255.66 -119.528)"/></g><g transform="translate(38.513 47.586)"><path class="z" d="M292.031,178.709a1.2,1.2,0,1,1-1.2-1.16A1.182,1.182,0,0,1,292.031,178.709Z" transform="translate(-289.623 -177.549)"/></g><g transform="translate(74.717 27.008)"><path class="z" d="M343.357,149.536a1.205,1.205,0,1,1-1.2-1.159A1.183,1.183,0,0,1,343.357,149.536Z" transform="translate(-340.948 -148.377)"/></g><g transform="translate(102.862 21.952)"><ellipse class="z" cx="1.204" cy="1.16" rx="1.204" ry="1.16"/></g></g></g><g transform="translate(5 4.627)"><path class="z" d="M208.279,74.479a1.4,1.4,0,1,1-1.4-1.4A1.4,1.4,0,0,1,208.279,74.479Z" transform="translate(-205.481 -73.08)"/><g transform="translate(4.068)"><path class="z" d="M214.046,74.479a1.4,1.4,0,1,1-1.4-1.4A1.4,1.4,0,0,1,214.046,74.479Z" transform="translate(-211.248 -73.08)"/></g><g transform="translate(8.137)"><path class="z" d="M219.814,74.479a1.4,1.4,0,1,1-1.4-1.4A1.4,1.4,0,0,1,219.814,74.479Z" transform="translate(-217.016 -73.08)"/></g></g><g transform="translate(0.408 11.348)"><g transform="translate(0 0.184)"><line class="z" x2="181.358"/></g><path class="z" d="M380.329,82.792c0,.1-40.6.183-90.674.183-50.09,0-90.684-.082-90.684-.183s40.593-.184,90.684-.184C339.727,82.608,380.329,82.691,380.329,82.792Z" transform="translate(-198.971 -82.608)"/></g></g></g></svg>