<svg xmlns="http://www.w3.org/2000/svg" width="257.362" height="229.266" viewBox="0 0 257.362 229.266"><defs><style>.a{fill:#ececec;}.b{opacity:0.1;}.c,.g{fill:#fff;}.d{fill:#e1e1e1;}.e{fill:#aed3f2;}.f{opacity:0.2;isolation:isolate;}.g,.h,.i,.j,.l,.m,.n,.o,.p,.q,.r,.t,.u{stroke:#263238;}.g,.h,.i,.l,.m,.o,.p,.q,.r,.t,.u{stroke-linecap:round;stroke-linejoin:round;}.h,.j,.l,.n,.q{fill:none;}.i,.m{fill:#d1d1d1;}.j,.n{stroke-miterlimit:10;}.k,.r,.s{fill:#344154;}.k{font-size:13px;font-family:Roboto-Regular, Roboto;}.l,.m,.n{stroke-width:0.5px;}.o,.w{fill:#d9a171;}.p{fill:#ffbf9d;}.q{stroke-width:2px;}.t{fill:#ccc;}.u{fill:#a6a6a6;}.v{fill:#263238;}.x{fill:#e0e0e0;}</style></defs><g transform="translate(-285.748 -812.5)"><g transform="translate(483.112 962.5)"><path class="a" d="M-480.491,2403.3a29.994,29.994,0,0,1-9.941,41.237,29.994,29.994,0,0,1-41.237-9.941,29.993,29.993,0,0,1,9.941-41.238A29.994,29.994,0,0,1-480.491,2403.3Z" transform="translate(536.08 -2388.947)"/><g class="b" transform="translate(0 4.409)"><path class="c" d="M-521.728,2394a29.993,29.993,0,0,0-9.941,41.238s18.472-10.19,18.37-20.078S-521.728,2394-521.728,2394Z" transform="translate(536.08 -2393.998)"/></g><g transform="translate(6.54 7.036)"><path class="d" d="M-486.33,2407.916a22.8,22.8,0,0,1-7.557,31.349,22.8,22.8,0,0,1-31.349-7.557,22.8,22.8,0,0,1,7.557-31.349A22.8,22.8,0,0,1-486.33,2407.916Z" transform="translate(528.588 -2397.007)"/></g><g transform="translate(8.153 7.657)"><path class="e" d="M-485.05,2408.481a22.5,22.5,0,0,1-7.456,30.928,22.5,22.5,0,0,1-30.928-7.456,22.5,22.5,0,0,1,7.457-30.928A22.5,22.5,0,0,1-485.05,2408.481Z" transform="translate(526.741 -2397.718)"/></g><g transform="translate(19.243 17.618)"><g transform="translate(1.235 0.002)"><path class="d" d="M-502.7,2419.535l-3-4.91.024-.015a11.826,11.826,0,0,1,3.025-.916,9.609,9.609,0,0,1,1.694.024l-.028-.192-.324-2.231-.074-.512-1.437-.384-.3.447a10.79,10.79,0,0,0-4.185,1.148l-1.651-2.7-1.255-.164.415.678-1.154.705,1.681,2.749c-3.572,2.685-4.048,5.951-2.53,8.433,2.067,3.381,5.5,2.486,8.6,1.492l2.975,4.865a10.96,10.96,0,0,1-6,1.127l.409,3.125a12.479,12.479,0,0,0,7.195-1.625l1.247,2.039-.939.6,1.344.065,1.995-1.221-1.666-2.725c3.581-2.725,4.1-5.981,2.579-8.462C-496.136,2417.592-499.6,2418.54-502.7,2419.535Zm-2.307.709c-1.664.449-3.037.554-3.751-.614-.655-1.071-.46-2.392,1.1-3.716Zm-.7-5.623Zm7.437,12.163-2.633-4.306c1.713-.48,3.125-.574,3.854.618C-496.408,2424.143-496.657,2425.431-498.27,2426.784Z" transform="translate(512.623 -2409.13)"/></g><path class="a" d="M-498.06,2429.273l1.667,2.725-1.995,1.221-1.652-2.7a12.494,12.494,0,0,1-7.2,1.625l-.408-3.126a10.963,10.963,0,0,0,6-1.127l-2.976-4.866c-3.1,1-6.533,1.889-8.6-1.492-1.517-2.482-1.042-5.748,2.531-8.435l-1.681-2.749,1.995-1.219,1.651,2.7a12.235,12.235,0,0,1,5.848-1.536l.5,3.068a11.8,11.8,0,0,0-4.745,1.1l3,4.916c3.1-1,6.568-1.944,8.636,1.438C-493.962,2423.291-494.479,2426.548-498.06,2429.273Zm-8.364-9.193-2.648-4.331c-1.564,1.323-1.758,2.646-1.1,3.718C-509.461,2420.634-508.087,2420.529-506.423,2420.08Zm7.963,2.853c-.729-1.193-2.142-1.1-3.854-.618l2.633,4.307C-498.068,2425.268-497.821,2423.979-498.46,2422.933Z" transform="translate(514.038 -2409.128)"/></g><g transform="translate(1.263 33.923)"><path class="c" d="M-520.347,2449.211a1.225,1.225,0,0,1-.24-.125l-.667-.4a12.243,12.243,0,0,1-1.029-.668c-.39-.278-.849-.575-1.313-.961l-.742-.589c-.256-.207-.5-.444-.771-.678-.541-.46-1.067-1.008-1.63-1.572a32.3,32.3,0,0,1-3.244-4.047,32.336,32.336,0,0,1-2.493-4.551c-.305-.738-.609-1.433-.827-2.109-.114-.336-.238-.656-.329-.973l-.259-.91c-.179-.576-.277-1.115-.383-1.582s-.177-.873-.223-1.208c-.045-.313-.081-.569-.11-.768a1.179,1.179,0,0,1-.023-.27,1.33,1.33,0,0,1,.067.263l.151.759c.059.331.137.735.259,1.2s.225.994.413,1.565q.13.433.271.9c.1.313.224.63.34.962.224.67.532,1.358.84,2.088a33.744,33.744,0,0,0,2.491,4.51,33.6,33.6,0,0,0,3.208,4.03c.556.565,1.073,1.114,1.605,1.577.263.235.505.474.758.683l.728.6c.455.392.905.7,1.287.983s.721.517,1,.7l.643.431A1.262,1.262,0,0,1-520.347,2449.211Z" transform="translate(534.633 -2427.804)"/></g><g transform="translate(19.928 26.218)"><path class="c" d="M-510.218,2423.8a1.877,1.877,0,0,1-.908-.216,3.582,3.582,0,0,1-1.674-1.506,3.582,3.582,0,0,1-.422-2.211,1.9,1.9,0,0,1,.286-.889c.037.012-.091.346-.129.9a3.8,3.8,0,0,0,.459,2.087,3.787,3.787,0,0,0,1.547,1.472C-510.561,2423.7-510.209,2423.762-510.218,2423.8Z" transform="translate(513.253 -2418.978)"/></g><g transform="translate(21.766 19.332)"><path class="c" d="M-510.161,2412.692c-.053.032-.315-.3-.585-.741s-.446-.826-.394-.858.314.3.585.741S-510.108,2412.659-510.161,2412.692Z" transform="translate(511.149 -2411.091)"/></g><g transform="translate(6.764 8.812)"><path class="c" d="M-516.193,2399.042a4.751,4.751,0,0,1-.641.358c-.21.106-.465.239-.753.409s-.625.346-.974.581-.744.47-1.142.763c-.409.276-.819.609-1.255.952a25.846,25.846,0,0,0-2.614,2.485,25.743,25.743,0,0,0-2.2,2.858c-.3.47-.585.912-.818,1.347-.251.426-.456.837-.642,1.214s-.338.726-.476,1.029-.247.571-.331.791a4.693,4.693,0,0,1-.289.674,4.472,4.472,0,0,1,.208-.7c.071-.225.165-.5.3-.809s.26-.67.45-1.049.376-.8.622-1.236c.227-.444.513-.892.807-1.37a24.271,24.271,0,0,1,2.21-2.9,24.413,24.413,0,0,1,2.65-2.5c.445-.341.862-.672,1.279-.943.406-.291.8-.531,1.166-.748s.7-.4,1-.556.557-.283.773-.377A4.534,4.534,0,0,1-516.193,2399.042Z" transform="translate(528.332 -2399.041)"/></g><g transform="translate(35.476 52.358)"><path class="c" d="M-482.966,2448.921a2.652,2.652,0,0,1-.381.4c-.253.251-.64.593-1.135.995a21.817,21.817,0,0,1-4.215,2.649,21.823,21.823,0,0,1-4.708,1.619c-.623.133-1.133.22-1.488.26a2.641,2.641,0,0,1-.552.043,2.6,2.6,0,0,1,.538-.13c.349-.065.851-.175,1.466-.327a24.8,24.8,0,0,0,4.648-1.666,24.9,24.9,0,0,0,4.213-2.573c.5-.383.905-.7,1.174-.935A2.662,2.662,0,0,1-482.966,2448.921Z" transform="translate(495.444 -2448.92)"/></g></g><g transform="translate(431.736 839.5)"><path class="a" d="M-480.491,2403.3a29.994,29.994,0,0,1-9.941,41.237,29.994,29.994,0,0,1-41.237-9.941,29.993,29.993,0,0,1,9.941-41.238A29.994,29.994,0,0,1-480.491,2403.3Z" transform="translate(536.08 -2388.947)"/><g class="b" transform="translate(0 4.409)"><path class="c" d="M-521.728,2394a29.993,29.993,0,0,0-9.941,41.238s18.472-10.19,18.37-20.078S-521.728,2394-521.728,2394Z" transform="translate(536.08 -2393.998)"/></g><g transform="translate(6.54 7.036)"><path class="d" d="M-486.33,2407.916a22.8,22.8,0,0,1-7.557,31.349,22.8,22.8,0,0,1-31.349-7.557,22.8,22.8,0,0,1,7.557-31.349A22.8,22.8,0,0,1-486.33,2407.916Z" transform="translate(528.588 -2397.007)"/></g><g transform="translate(8.153 7.657)"><path class="e" d="M-485.05,2408.481a22.5,22.5,0,0,1-7.456,30.928,22.5,22.5,0,0,1-30.928-7.456,22.5,22.5,0,0,1,7.457-30.928A22.5,22.5,0,0,1-485.05,2408.481Z" transform="translate(526.741 -2397.718)"/></g><g transform="translate(19.243 17.618)"><g transform="translate(1.235 0.002)"><path class="d" d="M-502.7,2419.535l-3-4.91.024-.015a11.826,11.826,0,0,1,3.025-.916,9.609,9.609,0,0,1,1.694.024l-.028-.192-.324-2.231-.074-.512-1.437-.384-.3.447a10.79,10.79,0,0,0-4.185,1.148l-1.651-2.7-1.255-.164.415.678-1.154.705,1.681,2.749c-3.572,2.685-4.048,5.951-2.53,8.433,2.067,3.381,5.5,2.486,8.6,1.492l2.975,4.865a10.96,10.96,0,0,1-6,1.127l.409,3.125a12.479,12.479,0,0,0,7.195-1.625l1.247,2.039-.939.6,1.344.065,1.995-1.221-1.666-2.725c3.581-2.725,4.1-5.981,2.579-8.462C-496.136,2417.592-499.6,2418.54-502.7,2419.535Zm-2.307.709c-1.664.449-3.037.554-3.751-.614-.655-1.071-.46-2.392,1.1-3.716Zm-.7-5.623Zm7.437,12.163-2.633-4.306c1.713-.48,3.125-.574,3.854.618C-496.408,2424.143-496.657,2425.431-498.27,2426.784Z" transform="translate(512.623 -2409.13)"/></g><path class="a" d="M-498.06,2429.273l1.667,2.725-1.995,1.221-1.652-2.7a12.494,12.494,0,0,1-7.2,1.625l-.408-3.126a10.963,10.963,0,0,0,6-1.127l-2.976-4.866c-3.1,1-6.533,1.889-8.6-1.492-1.517-2.482-1.042-5.748,2.531-8.435l-1.681-2.749,1.995-1.219,1.651,2.7a12.235,12.235,0,0,1,5.848-1.536l.5,3.068a11.8,11.8,0,0,0-4.745,1.1l3,4.916c3.1-1,6.568-1.944,8.636,1.438C-493.962,2423.291-494.479,2426.548-498.06,2429.273Zm-8.364-9.193-2.648-4.331c-1.564,1.323-1.758,2.646-1.1,3.718C-509.461,2420.634-508.087,2420.529-506.423,2420.08Zm7.963,2.853c-.729-1.193-2.142-1.1-3.854-.618l2.633,4.307C-498.068,2425.268-497.821,2423.979-498.46,2422.933Z" transform="translate(514.038 -2409.128)"/></g><g transform="translate(1.263 33.923)"><path class="c" d="M-520.347,2449.211a1.225,1.225,0,0,1-.24-.125l-.667-.4a12.243,12.243,0,0,1-1.029-.668c-.39-.278-.849-.575-1.313-.961l-.742-.589c-.256-.207-.5-.444-.771-.678-.541-.46-1.067-1.008-1.63-1.572a32.3,32.3,0,0,1-3.244-4.047,32.336,32.336,0,0,1-2.493-4.551c-.305-.738-.609-1.433-.827-2.109-.114-.336-.238-.656-.329-.973l-.259-.91c-.179-.576-.277-1.115-.383-1.582s-.177-.873-.223-1.208c-.045-.313-.081-.569-.11-.768a1.179,1.179,0,0,1-.023-.27,1.33,1.33,0,0,1,.067.263l.151.759c.059.331.137.735.259,1.2s.225.994.413,1.565q.13.433.271.9c.1.313.224.63.34.962.224.67.532,1.358.84,2.088a33.744,33.744,0,0,0,2.491,4.51,33.6,33.6,0,0,0,3.208,4.03c.556.565,1.073,1.114,1.605,1.577.263.235.505.474.758.683l.728.6c.455.392.905.7,1.287.983s.721.517,1,.7l.643.431A1.262,1.262,0,0,1-520.347,2449.211Z" transform="translate(534.633 -2427.804)"/></g><g transform="translate(19.928 26.218)"><path class="c" d="M-510.218,2423.8a1.877,1.877,0,0,1-.908-.216,3.582,3.582,0,0,1-1.674-1.506,3.582,3.582,0,0,1-.422-2.211,1.9,1.9,0,0,1,.286-.889c.037.012-.091.346-.129.9a3.8,3.8,0,0,0,.459,2.087,3.787,3.787,0,0,0,1.547,1.472C-510.561,2423.7-510.209,2423.762-510.218,2423.8Z" transform="translate(513.253 -2418.978)"/></g><g transform="translate(21.766 19.332)"><path class="c" d="M-510.161,2412.692c-.053.032-.315-.3-.585-.741s-.446-.826-.394-.858.314.3.585.741S-510.108,2412.659-510.161,2412.692Z" transform="translate(511.149 -2411.091)"/></g><g transform="translate(6.764 8.812)"><path class="c" d="M-516.193,2399.042a4.751,4.751,0,0,1-.641.358c-.21.106-.465.239-.753.409s-.625.346-.974.581-.744.47-1.142.763c-.409.276-.819.609-1.255.952a25.846,25.846,0,0,0-2.614,2.485,25.743,25.743,0,0,0-2.2,2.858c-.3.47-.585.912-.818,1.347-.251.426-.456.837-.642,1.214s-.338.726-.476,1.029-.247.571-.331.791a4.693,4.693,0,0,1-.289.674,4.472,4.472,0,0,1,.208-.7c.071-.225.165-.5.3-.809s.26-.67.45-1.049.376-.8.622-1.236c.227-.444.513-.892.807-1.37a24.271,24.271,0,0,1,2.21-2.9,24.413,24.413,0,0,1,2.65-2.5c.445-.341.862-.672,1.279-.943.406-.291.8-.531,1.166-.748s.7-.4,1-.556.557-.283.773-.377A4.534,4.534,0,0,1-516.193,2399.042Z" transform="translate(528.332 -2399.041)"/></g><g transform="translate(35.476 52.358)"><path class="c" d="M-482.966,2448.921a2.652,2.652,0,0,1-.381.4c-.253.251-.64.593-1.135.995a21.817,21.817,0,0,1-4.215,2.649,21.823,21.823,0,0,1-4.708,1.619c-.623.133-1.133.22-1.488.26a2.641,2.641,0,0,1-.552.043,2.6,2.6,0,0,1,.538-.13c.349-.065.851-.175,1.466-.327a24.8,24.8,0,0,0,4.648-1.666,24.9,24.9,0,0,0,4.213-2.573c.5-.383.905-.7,1.174-.935A2.662,2.662,0,0,1-482.966,2448.921Z" transform="translate(495.444 -2448.92)"/></g></g><g transform="translate(-1198.438 -5846.961)"><g transform="translate(1508.772 6659.961)"><rect class="f" width="114.988" height="151.421" transform="translate(3.626 4.144)"/><rect class="g" width="114.988" height="151.421"/><path class="h" d="M1615.255,6731.347h-78.523V6713.7h101.894v17.647h-21.475" transform="translate(-1530.517 -6685.865)"/><path class="h" d="M1543.093,6779.582h-6.361v-9.121h55.619" transform="translate(-1530.517 -6713.226)"/><path class="h" d="M1602.289,6770.461h43.861v9.121h-93.808" transform="translate(-1538.041 -6713.226)"/><path class="h" d="M1622.662,6815.222h-85.93V6806.1h101.894v9.122h-14.068" transform="translate(-1530.517 -6730.406)"/><path class="h" d="M1563.076,6886.992h-26.344v-46.451h101.894v46.451h-72.97" transform="translate(-1530.517 -6747.008)"/><rect class="i" width="101.894" height="8.116" transform="translate(6.216 93.533)"/><path class="h" d="M1585.167,6748.113v11.426h-48.435v-11.768" transform="translate(-1530.517 -6702.289)"/><rect class="i" width="101.894" height="5.123" transform="translate(6.216 34.097)"/><line class="h" y2="5.812" transform="translate(74.281 28.312)"/><rect class="i" width="6.941" height="3.393" transform="translate(80.44 29.286)"/><line class="h" y2="6.159" transform="translate(58.064 39.381)"/><line class="h" y2="6.159" transform="translate(79.367 39.381)"/><line class="h" y1="11.685" transform="translate(24.961 45.565)"/><line class="h" y1="11.685" transform="translate(36.822 45.565)"/><line class="h" y2="8.888" transform="translate(49.755 57.307)"/><line class="h" y2="27.478" transform="translate(74.048 57.183)"/><path class="h" d="M1536.732,6788.071v9.349H1604.6" transform="translate(-1530.517 -6721.715)"/><line class="h" y2="8.992" transform="translate(31.777 66.423)"/><line class="h" x2="6.024" transform="translate(102.137 109.212)"/><line class="h" x2="93.539" transform="translate(6.355 109.212)"/><line class="h" x2="101.805" transform="translate(6.355 116.547)"/><line class="h" x2="70.438" transform="translate(37.723 123.85)"/><line class="h" x2="28.783" transform="translate(6.355 123.85)"/><rect class="i" width="3.444" height="3.444" transform="translate(22.298 111.232)"/><rect class="i" width="3.444" height="3.444" transform="translate(42.059 111.232)"/><rect class="i" width="3.444" height="3.444" transform="translate(28.41 118.261)"/><rect class="i" width="3.444" height="3.444" transform="translate(47.3 118.261)"/><rect class="i" width="3.444" height="3.444" transform="translate(65.356 118.261)"/><rect class="i" width="3.444" height="3.444" transform="translate(83.692 118.261)"/><line class="h" y2="7.308" transform="translate(26.815 116.609)"/><line class="h" y2="7.308" transform="translate(45.291 116.609)"/><line class="h" y2="7.308" transform="translate(63.761 116.609)"/><line class="h" y2="7.308" transform="translate(82.232 116.609)"/><line class="h" x2="101.805" transform="translate(6.355 131.298)"/><rect class="i" width="3.444" height="3.444" transform="translate(15.772 125.709)"/><rect class="i" width="3.444" height="3.444" transform="translate(47.3 125.709)"/><rect class="i" width="3.444" height="3.444" transform="translate(65.356 125.709)"/><rect class="i" width="3.444" height="3.444" transform="translate(88.623 125.709)"/><line class="h" y2="7.231" transform="translate(14.177 124.057)"/><line class="h" y2="7.231" transform="translate(45.291 124.057)"/><line class="h" y2="7.231" transform="translate(63.761 124.057)"/><line class="h" y2="7.231" transform="translate(87.163 124.057)"/><line class="j" x2="11.219" transform="translate(37.205 24.898)"/><line class="j" x2="28.716" transform="translate(6.599 24.898)"/><line class="j" x2="24.728" transform="translate(57.281 24.898)"/><line class="j" x2="19.538" transform="translate(88.727 24.898)"/><text class="k" transform="translate(0.623 6.497)"><tspan x="7.109" y="14">Flujos de efectivo</tspan></text></g><g transform="translate(1496.34 6740.245)"><path class="g" d="M1704.672,7044.261l38.443-1.58,20.993,25.515-51.843,4.517Z" transform="translate(-1599.039 -6924.731)"/><path class="l" d="M1719.662,7076.956l41.556-2.9,2.74,3.45-43.141,3.279Z" transform="translate(-1606.265 -6939.857)"/><path class="l" d="M1717.252,7069.317l39.826-2.507,1.269,1.6-40.561,2.673Z" transform="translate(-1605.103 -6936.362)"/><path class="l" d="M1715.3,7063.122l38.412-2.212,1.176,1.481-39.1,2.352Z" transform="translate(-1604.163 -6933.518)"/><path class="l" d="M1710.292,7047.144l34.724-1.513,5.2,6.553-37.78,2.077Z" transform="translate(-1601.748 -6926.153)"/><path class="m" d="M1713.652,7057.869l37.205-1.968.979,1.232-37.78,2.076Z" transform="translate(-1603.368 -6931.104)"/><path class="l" d="M1761.91,7073.314l-1.238-2.191,18.605-1.222,1.709,2.154" transform="translate(-1626.033 -6937.852)"/><path class="m" d="M1720.432,7079.386l42.105-3.025.8,1-42.566,3.139Z" transform="translate(-1606.636 -6940.966)"/><line class="l" x1="0.585" y1="1.248" transform="translate(128.936 138.436)"/><path class="m" d="M1738.992,7083.434l3.02-.222.321.73-3.04.232Z" transform="translate(-1615.582 -6944.268)"/><line class="l" x1="0.679" y1="1.233" transform="translate(134.52 135.618)"/><line class="l" x1="0.559" y1="1.264" transform="translate(125.704 136.229)"/><line class="l" x2="1.538" y2="2.181" transform="translate(146.184 132.51)"/><line class="l" x2="1.43" y2="2.207" transform="translate(141.626 132.811)"/><line class="l" x1="0.958" y1="1.621" transform="translate(135.613 131.511)"/><line class="l" x1="2.32" y1="4.936" transform="translate(124.539 128.859)"/><path class="l" d="M1769.269,7065.346l-1.248-1.574-25.479,1.533" transform="translate(-1617.294 -6934.897)"/><line class="l" x1="1.046" y1="1.554" transform="translate(141.414 129.485)"/><line class="l" x1="36.661" y2="1.87" transform="translate(109.901 123.689)"/><line class="l" x1="36.174" y2="1.777" transform="translate(109.554 122.643)"/><line class="l" x1="35.703" y2="1.689" transform="translate(109.223 121.628)"/><path class="m" d="M1769.782,7052.828l1.176-.057.358.5-1.186.057Z" transform="translate(-1630.424 -6929.594)"/><path class="m" d="M1756.522,7053.483l1.207-.062.316.507-1.212.062Z" transform="translate(-1624.032 -6929.908)"/><path class="m" d="M1764.4,7051.088l1.176-.057.336.487-1.181.057Z" transform="translate(-1627.831 -6928.756)"/><path class="m" d="M1751.812,7051.688l1.2-.057.3.5-1.207.057Z" transform="translate(-1621.762 -6929.045)"/><path class="m" d="M1739.512,7052.278l1.227-.058.254.5-1.233.058Z" transform="translate(-1615.833 -6929.329)"/><path class="m" d="M1726.762,7052.888l1.248-.057.218.507-1.259.063Z" transform="translate(-1609.687 -6929.624)"/><line class="l" x1="0.72" y1="1.031" transform="translate(138.073 121.944)"/><line class="l" x1="0.642" y1="1.046" transform="translate(131.754 122.239)"/><line class="l" x1="0.554" y1="1.062" transform="translate(125.305 122.545)"/><line class="l" x1="0.466" y1="1.083" transform="translate(118.712 122.855)"/><line class="l" x1="35.232" y2="1.601" transform="translate(108.896 120.623)"/><path class="m" d="M1771.232,7048.723l1.145-.052.347.466-1.145.057Z" transform="translate(-1631.123 -6927.618)"/><path class="m" d="M1750.632,7049.668l1.181-.057.29.481-1.191.057Z" transform="translate(-1621.194 -6928.071)"/><path class="m" d="M1738.492,7050.223l1.207-.052.254.487-1.217.057Z" transform="translate(-1615.342 -6928.341)"/><path class="m" d="M1722.482,7050.958l1.243-.057.2.5-1.248.057Z" transform="translate(-1607.624 -6928.693)"/><line class="l" x1="0.741" y1="0.984" transform="translate(141.564 120.737)"/><line class="l" x1="0.611" y1="1.01" transform="translate(131.133 121.214)"/><line class="l" x1="0.534" y1="1.02" transform="translate(124.762 121.503)"/><line class="l" x1="0.425" y1="1.041" transform="translate(116.5 121.881)"/><line class="n" x1="17.077" y2="1.316" transform="translate(140.943 138.265)"/><line class="n" x1="10.711" y2="0.824" transform="translate(126.486 139.871)"/><line class="n" x1="8.826" y2="0.679" transform="translate(114.682 140.927)"/><path class="o" d="M1712.347,6888.512a70.41,70.41,0,0,0-10.706,4.144c-5.7,2.766-16.917,6.909-22.272,8.981s-8.629,7.422-9.665,10.012-5.526,13.637-5.526,13.637-9.494,14.851-11.913,18.477-5.7,8.634-5.869,13.3,2.414,7.252,8.458,7.252,8.634-2.073,11.566-5.18,12.431-18.3,13.814-20.03,5.179-8.287,5.179-8.287,1.9,17.093,1.9,22.443v12.607H1741.7s2.59-18.994,3.108-20.547,4.486-12.777,4.486-12.777,14.332,23.136,16.725,26.244,9.225,9.655,15.917,7.034,5.319-9.8,1.694-18.429-9.991-23.308-9.991-24.008-2.59-10.876-13.12-18.822-20.89-9.841-23.308-11.049S1727.021,6888.512,1712.347,6888.512Z" transform="translate(-1570.943 -6850.416)"/><path class="h" d="M1706.31,6948.511l6.734,10.535s-5.527-5.7-8.982-6.562" transform="translate(-1598.745 -6879.337)"/><path class="h" d="M1711.6,6966.244l-3.973-1.383s-3.626-2.071-6.563-1.207" transform="translate(-1597.299 -6886.535)"/><path class="h" d="M1761.272,6920.181c.388,2.844,1.284,6.376,3.346,8.806" transform="translate(-1626.322 -6865.681)"/><path class="h" d="M1760.726,6911.182s-.036.989.057,2.481" transform="translate(-1626.055 -6861.343)"/><path class="h" d="M1764.382,6941.182a15.617,15.617,0,0,0,1.554,1.388" transform="translate(-1627.821 -6875.804)"/><path class="h" d="M1755.062,6926.182a22.942,22.942,0,0,0,4.108,6.992" transform="translate(-1623.329 -6868.574)"/><path class="h" d="M1817.928,7000.661a20.03,20.03,0,0,1-3.2,4.243" transform="translate(-1652.092 -6904.475)"/><path class="h" d="M1830.5,6967.511s-4.014,9.075-7.769,15.539" transform="translate(-1655.948 -6888.496)"/><path class="h" d="M1802.568,7011.631c-.518.627-.917,1.15-1.165,1.492" transform="translate(-1645.667 -6909.763)"/><path class="h" d="M1811.259,6996.511s-3.18,3.7-5.527,6.563" transform="translate(-1647.754 -6902.475)"/><path class="h" d="M1845.062,6961.3s7.6-12.084,7.945-13.12" transform="translate(-1666.712 -6879.179)"/><path class="h" d="M1856.282,6960.019c2.258-1.828,5.651-4.144,9.038-4.837" transform="translate(-1672.121 -6882.553)"/><path class="h" d="M1851.062,6967.735s.616-.637,1.652-1.554" transform="translate(-1669.604 -6887.855)"/><path class="h" d="M1863.618,6951.511a41.945,41.945,0,0,0-6.216,3.973" transform="translate(-1672.66 -6880.784)"/><path class="h" d="M1875.4,6999.973a9.759,9.759,0,0,1,9.323.518" transform="translate(-1681.337 -6903.689)"/><path class="h" d="M1878.4,6996.266s6.039-1.207,10.53,1.555" transform="translate(-1682.783 -6902.23)"/><path class="h" d="M1659.732,6998.185a9.647,9.647,0,0,1,7.769-2.414" transform="translate(-1577.376 -6902.077)"/><path class="h" d="M1680.372,6996.631a14.666,14.666,0,0,1,1.222.975" transform="translate(-1587.325 -6902.533)"/><path class="h" d="M1671.4,6992.851a8.4,8.4,0,0,1,2.833.881" transform="translate(-1583.001 -6900.71)"/><path class="p" d="M1770.34,6891.513s-1.554,6.562-1.036,11.4,5.869,12.26,10.359,13.985,12.773-3.279,15.71-6.216,3.108-12.26,3.108-12.26-4.475-9.666-13.985-12.431S1770.34,6891.513,1770.34,6891.513Z" transform="translate(-1630.143 -6848.925)"/><path class="p" d="M1833.852,6893.625a8.478,8.478,0,0,1-.834,6.112c-1.735,3.414-5.086,6.3-5.988,6s2.8-12.649,2.8-12.649S1832.293,6891.708,1833.852,6893.625Z" transform="translate(-1657.952 -6852.39)"/><path class="p" d="M1765.625,6875.12a8.5,8.5,0,0,0-1.14,6.065c.565,3.792,2.844,7.578,3.792,7.578s1.326-12.881,1.326-12.881S1767.707,6873.794,1765.625,6875.12Z" transform="translate(-1627.816 -6843.747)"/><path class="p" d="M1771.782,6867.754s-1.326,11.562.186,16.3,4.548,12.125,9.287,14.021,15.539-6.252,17.243-9.474,6.443-16.865,6.443-16.865a12.389,12.389,0,0,0,1.709-11.753c-2.466-6.821-15.731-10.991-21.236-10.8s-10.991,4.74-11.369,8.34A83.712,83.712,0,0,1,1771.782,6867.754Z" transform="translate(-1631.129 -6831.455)"/><path class="q" d="M1788.653,6895.084s-4.17-5.117-7.961-3.408" transform="translate(-1635.683 -6851.773)"/><path class="q" d="M1808.862,6902.64s5.7-1.326,8.339,1.14" transform="translate(-1649.263 -6857.054)"/><path class="h" d="M1781.792,6900.781s1.217,3.625,6.159,3.206" transform="translate(-1636.214 -6856.33)"/><path class="h" d="M1808.132,6910.651s1.14,2.465,6.443,1.518" transform="translate(-1648.91 -6861.087)"/><path class="h" d="M1790.031,6917.312a3.317,3.317,0,0,0,.311,2.263c.616.927,2.16,2.263,3.294,2.263s3.5-.409,4.118-1.035a7.367,7.367,0,0,0,1.036-1.341" transform="translate(-1640.148 -6864.298)"/><path class="h" d="M1785.132,6923.871s2.59,2.983,4.74,3.7,6.174-.518,7.308-.928" transform="translate(-1637.824 -6867.459)"/><path class="r" d="M1810.018,6838.218c-.176-1.243.709-3.02.886-4.082s-1.243-3.02-2.481-4.615a7.138,7.138,0,0,1-1.425-4.434c0-1.067-1.238-1.952-2.3-2.662a19.794,19.794,0,0,1-3.548-3.02c-.71-.886-3.724-.71-4.258-.71s-2.838-1.947-4.258-2.656-4.258.518-4.258.518a24.51,24.51,0,0,0-4.082-1.6,22.612,22.612,0,0,0-3.729,1.244,15.838,15.838,0,0,1-3.108.968,3.309,3.309,0,0,0-.59-.1c-.4-.518-3.947,1.611-3.947,1.611l-3.191.518-1.186,1.922c-1.134.125-3.791.549-3.978,1.849-.238,1.658,0,2.367-.71,3.31s-3.31.709-2.59,2.838,2.362,3.787.233,4.973-3.31,3.31-2.129,4.491,2.129,2.838,1.9,3.786-.477,3.077.471,3.548a16.808,16.808,0,0,1,2.367,1.658l1.181,2.59.71,1.657s1.181-3.786,2.129-4.257,0,1.657,1.9,1.657,3.781-8.992,5.18-9.23,5.7,7.811,9.94,7.811,9.484-3.723,11.618-3.723.471,8.986.471,10.876.471,3.781.471,4.5,2.367-3.315,4.025-4.263c.456-.259,1-.575,1.58-.938a.286.286,0,0,1-.026.13s5.858-3.729,6.568-4.968.176-2.309.176-3.372.709-1.953.886-3.548S1810.194,6839.456,1810.018,6838.218Z" transform="translate(-1625.178 -6814.961)"/><line class="h" x1="228.209" transform="translate(0 115.407)"/><path class="p" d="M1825.958,7007.478s-6.469-2.377-11.121-.518-15.57,6.277-23,7.671a97,97,0,0,1-21.138,1.393c-6.278-.232-9.764.7-11.157,1.859s-6.506,7.666-6.045,8.366.979.963,3.258.466c.906-.2,3.486-3.019,3.486-3.019l4.662-2.072s-4.879,5.345-4.185,6.039,1.859-.232,2.792-.927,2.787-2.326,2.787-2.326l4.185-1.859s-4.444,3-4.444,4.382,1.083.569,2.926-.167a21.249,21.249,0,0,0,2.491-1.838l3.5-.985a15.365,15.365,0,0,0,7.319,1.741,11.206,11.206,0,0,0,7.251-2.7s16.269,2.325,24.4,1.626,18.357.232,22.542-2.787-1.16-10.924-1.626-11.623" transform="translate(-1622.559 -6907.169)"/><path class="h" d="M1755.6,7037.844a16.062,16.062,0,0,1,1.73-3.574c.865-1.083,4.869-3.678,6.278-4.434a15.792,15.792,0,0,1,1.73-.865" transform="translate(-1623.589 -6918.123)"/><line class="h" y1="2.719" x2="4.087" transform="translate(142.315 111.714)"/><line class="h" y1="1.916" x2="3.812" transform="translate(147.894 113.444)"/><path class="o" d="M1864.1,7007.632c-3.455-.824-8.334-1.632-11.121-.518-4.144,1.652-13.2,5.314-20.382,7.091a6.412,6.412,0,0,1,1.663,4.076,15.848,15.848,0,0,1-.767,5.594c5.475.616,13.555,1.331,18.559.9,8.132-.7,18.357.233,22.542-2.787s-1.16-10.923-1.626-11.623" transform="translate(-1660.706 -6907.323)"/><path class="o" d="M1651.582,7004.142c.435-1.176,3.626-3.989,7.92-3.237s9.168,5.521,11.955,9.188,5.009,4.662,5.009,4.662l-3.284,10.033s-2.02-.487-5.812-1.45-12.276-2.217-16.176-3.429-5.563-5.407-4.713-9.324a23.359,23.359,0,0,1,2.2-6.246" transform="translate(-1570.884 -6904.532)"/><path class="p" d="M1685.993,7017.662c-.3-.383-.611-.776-.943-1.181a13.441,13.441,0,0,0-7.143,5.9,11.37,11.37,0,0,0-1.326,7.407c2.072.394,3.983.766,5.314,1.1,3.791.963,5.812,1.45,5.812,1.45l3.284-10.032S1688.775,7021.334,1685.993,7017.662Z" transform="translate(-1585.421 -6912.102)"/><path class="p" d="M1692.129,7031.651c-.218,1.554-.694,3.33,1.554,4.314s4.486,3.414,5.9,3.983a21.3,21.3,0,0,0,5.319,1.285,14.4,14.4,0,0,0,6.04-.223c2.823-.788,2.745-1.512,2.745-1.512a7.213,7.213,0,0,0,2.631-.363c.87-.43.259-1.507-.8-1.932s-2.352-.994-2.352-.994,1.606-1.481,1.2-1.849l-.4-.368s1.854.218,2.015-.373-1-3.2-1.471-5.4-1.445-1.9-3.232-2.253-4.221.1-7.433-.585-7.863.466-9.7.953" transform="translate(-1592.898 -6916.291)"/><path class="s" d="M1716.488,7007.715l2.932,10.359,2.341,1.113-3.47-12a.933.933,0,0,0-1.153-.641.826.826,0,0,0-.111.04h0A.937.937,0,0,0,1716.488,7007.715Z" transform="translate(-1604.717 -6907.297)"/><path class="p" d="M1717.992,7027.3s5.128,2.735,5.48,2.875a32.21,32.21,0,0,1,3.253,5.75c.337.839-.041,1.32-.829,1.755l-1.062-.43-6.376-4.014-2.336-1.114" transform="translate(-1604.558 -6917.317)"/><path class="h" d="M1712.822,7044.551s4.993,2.968,6.045,3.512,4.89.792,4.89.792" transform="translate(-1602.967 -6925.632)"/><path class="h" d="M1709.212,7050.182s4.19,2.31,5.014,2.589,2.59.767,2.59.767" transform="translate(-1601.227 -6928.346)"/></g><g transform="translate(1508.254 6831.935)"><path class="t" d="M1625.16,7068.45l19.123-17.59-42.131-2.72Z" transform="translate(-1561.534 -7019.052)"/><path class="r" d="M1643.744,7072.36l8.609-8.158-9.971-.6Z" transform="translate(-1580.926 -7026.505)"/><path class="u" d="M1527.917,6991.981l63.072,2.792-3.631,46.606-63.626-3.072Z" transform="translate(-1523.732 -6991.981)"/><path class="r" d="M1524.272,7035.206c3.729-.549,10.023-2.015,20.651-5.455,25.3-8.189,28.488-31.078,46.327-34.978l-63.072-2.792Z" transform="translate(-1523.992 -6991.981)"/><ellipse class="g" cx="4.838" cy="3.719" rx="4.838" ry="3.719" transform="translate(28.374 19.91)"/></g><g transform="translate(1484.186 6810.668)"><g transform="translate(0.173 0.172)"><rect class="c" width="63.998" height="42.204" rx="5.887"/></g><path class="v" d="M323.269,312.85c0-.012.181-.008.526-.058a3.716,3.716,0,0,0,1.445-.523,3.871,3.871,0,0,0,1.591-1.878,9.652,9.652,0,0,0,.264-3.4c-.013-5.215-.032-12.743-.055-22.043q-.005-3.49-.011-7.3,0-.952,0-1.924a11.785,11.785,0,0,0-.079-1.929A3.772,3.772,0,0,0,324.495,271a5.476,5.476,0,0,0-2-.207l-2.1,0-4.307,0-8.991.007-40.032.013a3.726,3.726,0,0,0-3.642,2.939,5.891,5.891,0,0,0-.084,1.27v3.911q0,5.188,0,10.214c0,6.7-.007,13.156-.01,19.309a4.239,4.239,0,0,0,.393,2.159,3.728,3.728,0,0,0,1.463,1.564,3.819,3.819,0,0,0,2.06.512l2.2,0,8.481.009,15.222.021,22.042.055,5.993.032,1.559.017c.351.005.531.017.531.017s-.18.012-.531.018l-1.559.017-5.993.032-22.042.055-15.222.021-8.481.009-2.2,0a4.126,4.126,0,0,1-2.216-.551,4.04,4.04,0,0,1-1.587-1.692,4.563,4.563,0,0,1-.429-2.3c0-6.153-.007-12.613-.01-19.309q0-5.022,0-10.214v-3.911a6.2,6.2,0,0,1,.092-1.343,4.066,4.066,0,0,1,3.978-3.21l40.032.013,8.991.007,4.307,0,2.1,0a5.747,5.747,0,0,1,2.091.227,4.052,4.052,0,0,1,2.631,3,11.807,11.807,0,0,1,.079,1.984q0,.971,0,1.924-.006,3.81-.011,7.3c-.023,9.3-.042,16.828-.055,22.043q0,.975-.008,1.842a4.089,4.089,0,0,1-.295,1.6,3.928,3.928,0,0,1-1.651,1.9,3.638,3.638,0,0,1-1.476.5A3.028,3.028,0,0,1,323.269,312.85Z" transform="translate(-262.992 -270.474)"/><g transform="translate(8.343 14.516)"><g transform="translate(20.512 10.162)"><rect class="w" width="2.456" height="9.773"/></g><g transform="translate(0 8.746)"><rect class="w" width="2.456" height="11.189"/></g><g transform="translate(5.128 6.414)"><rect class="w" width="2.456" height="13.521"/></g><g transform="translate(10.256 7.155)"><rect class="w" width="2.456" height="12.779"/></g><g transform="translate(15.384 2.832)"><rect class="w" width="2.456" height="17.103"/></g><g transform="translate(25.64 2.915)"><rect class="w" width="2.456" height="17.019"/></g><g transform="translate(30.768 8.505)"><rect class="w" width="2.456" height="11.429"/></g><g transform="translate(35.895 3.665)"><rect class="w" width="2.456" height="16.27"/></g><g transform="translate(41.023)"><rect class="w" width="2.456" height="19.934"/></g><g transform="translate(46.151 3.582)"><rect class="w" width="2.456" height="16.353"/></g></g><g transform="translate(5.455 4.435)"><path class="x" d="M274.333,278.726a1.547,1.547,0,1,1-1.547-1.546A1.547,1.547,0,0,1,274.333,278.726Z" transform="translate(-271.24 -277.18)"/><g transform="translate(3.993)"><path class="x" d="M280.37,278.726a1.547,1.547,0,1,1-1.546-1.546A1.547,1.547,0,0,1,280.37,278.726Z" transform="translate(-277.277 -277.18)"/></g><g transform="translate(7.986)"><path class="x" d="M286.408,278.726a1.547,1.547,0,1,1-1.547-1.546A1.547,1.547,0,0,1,286.408,278.726Z" transform="translate(-283.315 -277.18)"/></g></g></g></g></g></svg>