<svg xmlns="http://www.w3.org/2000/svg" width="306.652" height="310.127" viewBox="0 0 306.652 310.127"><defs><style>.a{fill:#aed3f2;}.b{fill:#d9a171;}.c{fill:#ebebeb;}.d{fill:#fafafa;}.e{fill:#e0e0e0;}.f{fill:#5e6178;}.g{fill:#6595bf;}.h{fill:#484b5d;}.i{fill:#a66d58;}.j{fill:#8e5642;}.k{fill:#f5f5f5;}.l{fill:#263238;}.m{fill:#fff;}.n{opacity:0.3;}.o{fill:#efbc9f;}.p{fill:#7c5142;}.q{fill:#455a64;}</style></defs><g transform="translate(-1103 -5214.999)"><g transform="translate(1103 5215)"><path class="a" d="M.466,103.872c5.2,51.732,84.606,143.1,137.9,137.743s60.3-105.427,55.093-157.153S140.835-4.851,87.542.509-4.737,52.146.466,103.872Z" transform="translate(161.823 0) rotate(42)"/><path class="b" d="M6,242.5C6,301.049,111.38,365,169.514,365S290.107,301.049,290.107,242.5s-24.527-98.193-110.373-53.8C128.018,215.442,6,183.955,6,242.5Z" transform="translate(6.507 -112.274)"/></g><g transform="translate(1123.162 5252.492)"><g transform="translate(30.769 22.797)"><g transform="translate(0 0)"><g transform="translate(50.784 191.68)"><g transform="translate(10.625)"><path class="c" d="M100.332,409.375l-.643.688-19.207,22.9,42.59.026L134.784,409.5Z" transform="translate(-80.482 -409.375)"/></g><g transform="translate(0 1.053)"><g transform="translate(0.205 0.017)"><path class="d" d="M77.048,411.991l-.643.711-21.4,23.672,41.5.026,14.99-24.282Z" transform="translate(-55.007 -411.991)"/></g><path class="e" d="M76.752,411.967s.052,0,.157-.006l.47,0,1.839-.006H86.21L111.2,412h.165l-.087.14L96.3,436.432l-.031.051h-.059l-5.687,0-35.815-.039h-.2l.137-.151,16.019-17.665,4.488-4.928L76.34,412.4c.271-.292.412-.435.412-.435s-.133.161-.394.457l-1.165,1.309-4.451,4.961L54.779,436.411l-.067-.152,35.815.007,5.687,0-.09.05,15-24.275.078.14-24.961-.133-7-.051-1.848-.02-.476-.009C76.808,411.972,76.752,411.967,76.752,411.967Z" transform="translate(-54.507 -411.95)"/></g><g transform="translate(9.287 20.797)"><path class="e" d="M105.989,460.516a1.492,1.492,0,0,1-.292.019l-.839.013-3.084.006L91.6,460.492l-10.175-.124-3.083-.062-.838-.027a.147.147,0,1,1,0-.043l.838-.012,3.084-.006,10.176.061,10.174.124,3.083.062.838.027A1.571,1.571,0,0,1,105.989,460.516Z" transform="translate(-77.212 -460.218)"/></g><g transform="translate(11.22 18.263)"><path class="e" d="M110.016,454.316a1.454,1.454,0,0,1-.286.019l-.819.013-3.009.007-9.926-.059-9.927-.121-3.008-.061-.818-.027a.143.143,0,1,1,0-.043l.818-.013,3.009-.007,9.928.059,9.927.121,3.008.061.818.027A1.438,1.438,0,0,1,110.016,454.316Z" transform="translate(-81.938 -454.023)"/></g><g transform="translate(13.586 15.706)"><path class="e" d="M115.285,448.062a1.388,1.388,0,0,1-.281.019l-.8.013-2.954.007-9.745-.057-9.746-.12-2.953-.061-.8-.027a.141.141,0,1,1,0-.043l.8-.013,2.954-.007,9.747.057,9.745.12,2.953.061.8.027A1.41,1.41,0,0,1,115.285,448.062Z" transform="translate(-87.72 -447.773)"/></g><g transform="translate(16.294 13.337)"><path class="e" d="M121.342,442.265a1.308,1.308,0,0,1-.274.019l-.787.013-2.894.007-9.545-.055-9.547-.118-2.893-.06-.787-.027a.138.138,0,1,1,0-.043l.787-.013,2.893-.007,9.547.056,9.546.118,2.893.06.787.027A1.3,1.3,0,0,1,121.342,442.265Z" transform="translate(-94.342 -441.98)"/></g><g transform="translate(17.876 10.844)"><path class="e" d="M125.209,436.172a1.327,1.327,0,0,1-.275.019l-.787.013-2.894.008-9.545-.056-9.547-.118-2.893-.06-.787-.027a1.309,1.309,0,0,1-.274-.024,1.345,1.345,0,0,1,.274-.019l.787-.013,2.893-.008,9.547.056,9.546.118,2.893.06.787.027A1.363,1.363,0,0,1,125.209,436.172Z" transform="translate(-98.209 -435.887)"/></g><g transform="translate(20.212 8.366)"><path class="e" d="M130.92,430.114a1.317,1.317,0,0,1-.274.019l-.787.013-2.894.007-9.545-.055-9.546-.118-2.893-.06-.786-.027a1.324,1.324,0,0,1-.274-.024,1.343,1.343,0,0,1,.274-.019l.787-.013,2.893-.007,9.547.056,9.545.118,2.893.06.786.027A1.348,1.348,0,0,1,130.92,430.114Z" transform="translate(-103.92 -429.829)"/></g><g transform="translate(21.928 5.839)"><path class="e" d="M135.114,424.043a1.355,1.355,0,0,1-.275.018l-.787.009-2.894-.005-9.545-.1-9.545-.161-2.893-.073-.786-.031a1.317,1.317,0,0,1-.274-.025,1.344,1.344,0,0,1,.274-.018l.787-.009,2.893.005,9.547.1,9.545.16,2.892.073.786.031A1.321,1.321,0,0,1,135.114,424.043Z" transform="translate(-108.115 -423.649)"/></g><g transform="translate(24.565 3.532)"><path class="e" d="M141.562,418.4a1.305,1.305,0,0,1-.275.018l-.787.009-2.894-.005-9.545-.1-9.546-.161-2.892-.073-.787-.031a.138.138,0,1,1,0-.043l.787-.009,2.893.006,9.547.1,9.545.161,2.893.073.786.031A1.331,1.331,0,0,1,141.562,418.4Z" transform="translate(-114.563 -418.011)"/></g></g><g transform="translate(0 57.809)"><path class="f" d="M79.872,224.573c0-2.883,1.736-4.716,4.2-4.716s4.172,1.808,4.172,4.716-1.712,4.717-4.172,4.717S79.872,227.457,79.872,224.573Zm5.956,0c0-1.832-.7-2.713-1.761-2.713-1.037,0-1.76.9-1.76,2.713s.724,2.713,1.76,2.713C85.129,227.286,85.828,226.407,85.828,224.573Zm8.294-4.521h2.87L85.466,237.159H82.6ZM91.35,232.639c0-2.884,1.736-4.717,4.171-4.717,2.459,0,4.2,1.833,4.2,4.717s-1.737,4.716-4.2,4.716C93.086,237.355,91.35,235.522,91.35,232.639Zm5.932,0c0-1.809-.7-2.713-1.76-2.713-1.037,0-1.76.88-1.76,2.713s.723,2.713,1.76,2.713C96.582,235.351,97.282,234.447,97.282,232.639Z" transform="translate(-79.872 -219.857)"/></g><g transform="translate(169.266 39.098)"><path class="f" d="M361.753,45.621a18.75,18.75,0,1,1-21.329-15.7A18.729,18.729,0,0,1,361.753,45.621Z" transform="translate(-324.461 -29.706)"/><g transform="translate(4.462 4.452)"><path class="g" d="M363.787,52.718a14.289,14.289,0,1,1-16.254-11.967A14.272,14.272,0,0,1,363.787,52.718Z" transform="translate(-335.368 -40.589)"/></g><g transform="translate(4.199 3.91)"><path class="h" d="M363.339,51.492a8.406,8.406,0,0,1-.629-1.643,15.173,15.173,0,0,0-2.283-4.085,14.606,14.606,0,0,0-2.258-2.286,14.325,14.325,0,0,0-3.132-1.913,14,14,0,0,0-3.89-1.1,13.881,13.881,0,0,0-2.138-.114,13.96,13.96,0,0,0-4.325.791,13.915,13.915,0,0,0-1.96.863,14.006,14.006,0,0,0-3.25,2.4,14.3,14.3,0,0,0-2.251,2.9,14.661,14.661,0,0,0-1.3,2.937,15.168,15.168,0,0,0-.686,4.627,8.411,8.411,0,0,1-.007,1.758,4.184,4.184,0,0,1-.419-1.734,13.207,13.207,0,0,1,.368-4.866,14.315,14.315,0,0,1,3.578-6.329,13.762,13.762,0,0,1,1.591-1.42,13.919,13.919,0,0,1,1.866-1.219,14.546,14.546,0,0,1,2.108-.947,14.64,14.64,0,0,1,4.666-.853,14.557,14.557,0,0,1,2.306.139,14.557,14.557,0,0,1,4.167,1.243,14.32,14.32,0,0,1,5.589,4.652,13.235,13.235,0,0,1,2.069,4.42A4.2,4.2,0,0,1,363.339,51.492Z" transform="translate(-334.728 -39.263)"/></g><g transform="translate(12.391 8.743)"><path class="f" d="M363.982,69.234l.407,2.455-2.193.362-.4-2.39a10.53,10.53,0,0,1-5.749-.85l.762-2.874a8.981,8.981,0,0,0,4.511.852l-.607-3.662c-2.532-.188-5.384-.55-5.9-3.685-.384-2.324.973-4.6,4.371-5.566l-.4-2.434,2.193-.363.4,2.39a10.047,10.047,0,0,1,4.671.6l-.649,2.878a9.116,9.116,0,0,0-3.544-.585l.617,3.728c2.527.167,5.337.536,5.849,3.627C368.7,66,367.355,68.247,363.982,69.234Zm-3.8-9.328-.516-3.113c-1.118.455-1.473,1.168-1.353,1.891C358.444,59.451,359.171,59.759,360.187,59.906Zm4.645,4.66C364.7,63.8,364,63.487,363,63.314l.5,3.026C364.56,65.917,364.948,65.267,364.832,64.566Z" transform="translate(-354.753 -51.08)"/></g></g><g transform="translate(11.953 0)"><path class="i" d="M424.952,307.081a15.014,15.014,0,1,1-9-19.205A15,15,0,0,1,424.952,307.081Z" transform="translate(-395.827 -286.966)"/><g transform="translate(3.572 3.566)"><path class="b" d="M426.755,311.013a11.441,11.441,0,1,1-6.855-14.636A11.428,11.428,0,0,1,426.755,311.013Z" transform="translate(-404.561 -295.684)"/></g><g transform="translate(4.133 3.141)"><path class="j" d="M427.685,310.061a6.8,6.8,0,0,1,.186-1.4,12.15,12.15,0,0,0-.043-3.746,11.724,11.724,0,0,0-.714-2.471,11.446,11.446,0,0,0-1.471-2.544,11.23,11.23,0,0,0-2.316-2.26,11.1,11.1,0,0,0-1.46-.9,12.158,12.158,0,0,0-1.629-.682,12.319,12.319,0,0,0-1.716-.417,11.166,11.166,0,0,0-1.709-.142,11.23,11.23,0,0,0-3.206.448,11.453,11.453,0,0,0-2.692,1.178,11.726,11.726,0,0,0-2.039,1.568,12.143,12.143,0,0,0-2.253,2.992,6.718,6.718,0,0,1-.677,1.234,3.353,3.353,0,0,1,.369-1.38,10.571,10.571,0,0,1,2.12-3.282,11.465,11.465,0,0,1,4.938-3.083,11.022,11.022,0,0,1,1.662-.39,11.186,11.186,0,0,1,1.778-.144,11.655,11.655,0,0,1,1.845.14,11.724,11.724,0,0,1,3.608,1.184,11.673,11.673,0,0,1,1.569.981,11.65,11.65,0,0,1,2.455,2.469,11.461,11.461,0,0,1,2.152,5.41,10.6,10.6,0,0,1-.236,3.9A3.355,3.355,0,0,1,427.685,310.061Z" transform="translate(-405.93 -294.646)"/></g><g transform="translate(8.483 7.34)"><path class="i" d="M421.982,319.415l-.653,1.883-1.681-.584.636-1.832a8.433,8.433,0,0,1-3.719-2.8l1.636-1.73a7.2,7.2,0,0,0,2.847,2.325l.974-2.808c-1.709-1.1-3.577-2.447-2.743-4.85.619-1.782,2.444-2.862,5.2-2.243l.648-1.866,1.681.583-.636,1.833a8.043,8.043,0,0,1,3.056,2.209l-1.558,1.776a7.292,7.292,0,0,0-2.268-1.767l-.992,2.858c1.714,1.084,3.549,2.419,2.726,4.788C426.535,318.942,424.732,320.011,421.982,319.415Zm.9-8.014.828-2.387c-.96-.108-1.483.258-1.675.812C421.829,310.414,422.222,310.909,422.88,311.4Zm1.485,5.055c.2-.589-.173-1.077-.808-1.581l-.8,2.32C423.657,317.3,424.179,316.994,424.365,316.456Z" transform="translate(-416.565 -304.912)"/></g></g></g><g transform="translate(112.671 188.804)"><g transform="translate(13.062 0.091)"><path class="k" d="M347.854,427.607l-36.491,1.182-28.294-26.254h35.456Z" transform="translate(-283.069 -402.535)"/></g><g transform="translate(0 4.001)"><path class="k" d="M315.92,437.167l-36.491,1.182L251.135,412.1h35.456Z" transform="translate(-251.135 -412.096)"/></g><g transform="translate(6.14 1.399)"><path class="e" d="M330.93,430.805l-36.491,1.182-28.294-26.254H301.6Z" transform="translate(-266.145 -405.734)"/></g><g transform="translate(1.391)"><g transform="translate(0.23 0.091)"><path class="k" d="M290.553,402.535H255.1l28.294,26.254,37.659-1.22Z" transform="translate(-255.098 -402.535)"/></g><path class="l" d="M290.221,402.4s.049.035.145.11l.423.338,1.644,1.332,6.223,5.075,22.122,18.107.192.157-.249.008-36.115,1.183-1.543.05h-.044l-.032-.029L254.7,402.471l-.169-.157h.23l25.746.04,7.181.025,1.886.013c.426,0,.644.013.644.013s-.224.009-.653.014l-1.894.013-7.189.025-25.72.04.061-.156,28.3,26.242-.076-.028,1.543-.05,36.116-1.157-.056.166-22.05-18.152-6.2-5.12-1.633-1.358-.418-.352C290.267,402.449,290.221,402.4,290.221,402.4Z" transform="translate(-254.535 -402.314)"/></g><g transform="translate(22.041 13.19)"><g transform="translate(2.48 2.028)"><path class="l" d="M336.352,439.533c0,.059-5.654.283-12.631.5s-12.638.348-12.639.289,5.653-.283,12.632-.5S336.35,439.475,336.352,439.533Z" transform="translate(-311.081 -439.519)"/></g><g transform="translate(5.094 4.268)"><path class="l" d="M343.144,445.01c0,.058-5.744.282-12.832.5s-12.838.345-12.84.286,5.743-.282,12.833-.5S343.142,444.951,343.144,445.01Z" transform="translate(-317.472 -444.996)"/></g><g transform="translate(8.099 6.514)"><path class="l" d="M350.672,450.5c0,.058-5.784.294-12.922.524s-12.928.371-12.93.312,5.783-.294,12.923-.525S350.67,450.441,350.672,450.5Z" transform="translate(-324.82 -450.486)"/></g><path class="l" d="M331.025,434.574c0,.059-5.819.291-13,.519s-13.006.365-13.007.307,5.817-.292,13-.519S331.023,434.515,331.025,434.574Z" transform="translate(-305.019 -434.561)"/></g><g transform="translate(9.394 2.752)"><g transform="translate(2.501 2.033)"><path class="l" d="M304.342,414.036c0,.058-5.4.21-12.061.338s-12.066.184-12.067.125,5.4-.21,12.063-.338S304.34,413.977,304.342,414.036Z" transform="translate(-280.214 -414.013)"/></g><g transform="translate(4.775 4.274)"><path class="l" d="M310.643,419.513c0,.059-5.565.214-12.432.345s-12.436.191-12.437.132,5.564-.213,12.433-.345S310.642,419.455,310.643,419.513Z" transform="translate(-285.774 -419.491)"/></g><g transform="translate(6.565 6.515)"><path class="l" d="M316.244,424.992c0,.059-5.84.219-13.045.357s-13.049.2-13.05.144,5.839-.219,13.046-.357S316.243,424.933,316.244,424.992Z" transform="translate(-290.15 -424.97)"/></g><g transform="translate(9.581 8.755)"><path class="l" d="M323.616,430.469c0,.059-5.839.218-13.044.357s-13.049.2-13.05.144,5.838-.218,13.045-.357S323.615,430.41,323.616,430.469Z" transform="translate(-297.522 -430.447)"/></g><path class="l" d="M298.984,409.07a1.135,1.135,0,0,1-.252.025l-.725.031-2.666.072-8.8.158-8.8.1-2.667,0-.725-.009a1.121,1.121,0,0,1-.253-.018,1.159,1.159,0,0,1,.253-.025l.725-.03,2.666-.072,8.8-.158,8.8-.1,2.667,0,.725.009A1.126,1.126,0,0,1,298.984,409.07Z" transform="translate(-274.1 -409.043)"/></g></g></g><g transform="translate(0)"><g transform="translate(31.878 94.734)"><g transform="translate(55.212)"><path class="f" d="M222.676,218.639l-7.549,9.379-31.483,8.765,4.7,50.853c1.45,19.933,3.49,24.819,4.9,38.071v10.805h89.42L295.146,233.28l-30.836-7.092-6.634-7.549Z" transform="translate(-183.644 -218.639)"/></g><g transform="translate(92.909 10.573)"><path class="m" d="M241.393,242.424l3.852,50.925,4.118,25.85,30.23-84.363-24.386,28.9Z" transform="translate(-241.393 -234.835)"/></g><g transform="translate(100.44 7.549)"><path class="l" d="M252.931,321.227a1.611,1.611,0,0,1,.119-.247l.379-.71c.347-.636.846-1.546,1.483-2.711l5.511-9.941,18.293-32.734,9.973-17.762.036.2-4.34-3.667-.16-.134.179-.106,6.184-3.646-.063.129c-.676-6.022-1.228-10.938-1.612-14.367-.182-1.693-.324-3.019-.422-3.94-.043-.439-.076-.781-.1-1.029-.021-.232-.022-.353-.022-.353s.027.118.061.348c.033.247.079.588.138,1.025.115.919.281,2.242.493,3.931.412,3.426,1,8.338,1.727,14.354l.01.085-.074.044-6.169,3.674.02-.24,4.352,3.653.1.084-.063.114-9.95,17.775-18.38,32.685-5.605,9.888-1.539,2.68-.407.693A1.644,1.644,0,0,1,252.931,321.227Z" transform="translate(-252.93 -230.204)"/></g><g transform="translate(81.524 9.379)"><path class="l" d="M242.869,322.2a1.524,1.524,0,0,1-.087-.24l-.221-.711-.821-2.744L238.783,308.4c-1.226-4.277-2.746-9.338-4.309-15.02-1.456-5.7-2.846-12.016-4.316-18.64-1.994-9.086-3.8-17.594-5.293-24.8l-.026-.125.12-.042,4.119-1.441-.018.247-5.014-2.657-.094-.05.039-.1,3.73-9.369,1.024-2.528.274-.653a1.346,1.346,0,0,1,.1-.218,1.283,1.283,0,0,1-.072.23l-.243.665c-.228.6-.552,1.455-.967,2.55-.86,2.231-2.1,5.435-3.631,9.408l-.055-.148,5.031,2.627.274.143-.292.1-4.112,1.461.094-.167c1.527,7.193,3.347,15.7,5.34,24.781,1.47,6.622,2.851,12.939,4.288,18.635,1.538,5.66,3.041,10.751,4.237,15.031s2.174,7.728,2.853,10.14c.326,1.185.58,2.112.759,2.762l.189.721A1.375,1.375,0,0,1,242.869,322.2Z" transform="translate(-223.952 -233.007)"/></g><g transform="translate(0 18.145)"><path class="f" d="M154.276,246.435s-6.925,3.369-11.8,18.891c-3.544,11.277-17.96,50.112-17.96,50.112l-15.965-4.657S96.8,325.416,99.456,330.516s22.11,15.648,22.11,15.648h22.775a18.711,18.711,0,0,0,6.511-9.489l13.022-43.854Z" transform="translate(-99.064 -246.435)"/></g><g transform="translate(153.464 14.641)"><path class="f" d="M347.408,241.068a28.052,28.052,0,0,1,10.023,10.295c3.978,7.071,35.719,58.73,38.349,70.98,3.928,18.293-3.92,21.94-3.92,21.94H380.89l-27.149-.153-3.426-21.248,12.07-2.576L340.016,295.5l-1.482,2.529-4.376-35.412Z" transform="translate(-334.158 -241.068)"/></g><g transform="translate(58.082 39.475)"><path class="l" d="M188.049,279.112c.094-.008.9,8.777,1.807,19.619s1.561,19.641,1.467,19.649-.9-8.775-1.806-19.621S187.956,279.119,188.049,279.112Z" transform="translate(-188.04 -279.112)"/></g><g transform="translate(159.186 29.644)"><path class="l" d="M348.853,264.051c.093.012-1.157,10.973-2.793,24.48s-3.037,24.452-3.131,24.441,1.157-10.97,2.793-24.482S348.76,264.04,348.853,264.051Z" transform="translate(-342.925 -264.051)"/></g><g transform="translate(171.926 92.437)"><path class="l" d="M363.891,385.682a4.917,4.917,0,0,1,.307-.39c.2-.258.488-.638.815-1.161a19,19,0,0,0,2.1-4.752,23.18,23.18,0,0,0,.756-3.514,16.46,16.46,0,0,0,.178-4.1,9.661,9.661,0,0,0-1.513-4.206,11.417,11.417,0,0,0-3.441-3.368c-.1-.061-.2-.122-.29-.17l-.363-.2.394-.116a85.354,85.354,0,0,1,16.769-3.129c2.173-.185,3.934-.268,5.151-.306.608-.022,1.081-.025,1.4-.028a2.756,2.756,0,0,1,.489.014,2.6,2.6,0,0,1-.486.054l-1.4.091c-1.214.078-2.97.2-5.135.413a91.044,91.044,0,0,0-16.7,3.218l.031-.314c.105.057.208.117.312.183a11.662,11.662,0,0,1,3.542,3.475,9.919,9.919,0,0,1,1.545,4.353,16.517,16.517,0,0,1-.21,4.173,22.705,22.705,0,0,1-.8,3.543,18.07,18.07,0,0,1-2.221,4.756,10.8,10.8,0,0,1-.873,1.132A1.865,1.865,0,0,1,363.891,385.682Z" transform="translate(-362.441 -360.245)"/></g><g transform="translate(100.35 98.336)"><path class="l" d="M252.962,388.82c-.093,0-.17-4.374-.17-9.768s.076-9.769.17-9.769.17,4.373.17,9.769S253.056,388.82,252.962,388.82Z" transform="translate(-252.792 -369.282)"/></g><g transform="translate(124.242 67.739)"><g transform="translate(0)"><path class="l" d="M316.617,329.212a4.6,4.6,0,0,1-.02-.464c-.006-.32-.014-.753-.024-1.3-.014-1.151-.032-2.789-.056-4.849l.1.1-27.052.069c.076-.076-.17.17.168-.17v1.689q0,.84,0,1.668,0,1.657,0,3.26l-.166-.166,19.256.075,5.7.048,1.546.022.405.011a.873.873,0,0,1,.145.01,3.945,3.945,0,0,1-.508.022l-1.509.022-5.664.048-19.372.076H289.4v-.168q0-1.6,0-3.26,0-.828,0-1.668V322.6c.341-.339.1-.094.172-.17l27.052.069h.1v.1c-.024,2.086-.043,3.744-.056,4.909-.01.54-.018.967-.024,1.281A3.05,3.05,0,0,1,316.617,329.212Z" transform="translate(-289.393 -322.41)"/></g></g><g transform="translate(54.453 19.633)"><path class="l" d="M186.119,265.645c-.091.02-.979-3.755-1.981-8.429s-1.741-8.481-1.649-8.5.979,3.754,1.981,8.429S186.211,265.625,186.119,265.645Z" transform="translate(-182.482 -248.716)"/></g><g class="n" transform="translate(101.94 27.223)"><path d="M255.228,329.017l38.613-59.224-5.572-5.384,3.185-4.068L285.277,264l4.346,3.66Z" transform="translate(-255.228 -260.342)"/></g><g class="n" transform="translate(6.556 97.883)"><path d="M109.108,368.588v3.289l43.827.138v-3.428Z" transform="translate(-109.108 -368.588)"/></g></g><g transform="translate(91.626)"><g transform="translate(0 13.857)"><path class="l" d="M190.811,152.512a6.493,6.493,0,0,0,6.1-2.725c-1.574.242-3.268.465-4.687-.258s-2.221-2.812-1.109-3.952c.867-.889,2.3-.736,3.537-.827a7.651,7.651,0,0,0,6.507-4.994c1.049-3.014.089-6.3-.287-9.47a26.078,26.078,0,0,1,10.918-24.071l19.849-11.474c7.2,9.213,9.443,21.63,7.95,33.226s-6.412,22.5-12.325,32.584a38.709,38.709,0,0,1-5.989,8.241,15.327,15.327,0,0,1-8.92,4.577,9.2,9.2,0,0,1,1.469-8.307,20.032,20.032,0,0,1-14.761-5.287l4.254-3.263A15.537,15.537,0,0,1,190.811,152.512Z" transform="translate(-190.594 -94.742)"/></g><g transform="translate(17.468 14.508)"><path class="o" d="M276.545,120.483a18.6,18.6,0,0,0-13.5-17.519l-24.883-7.111c-10.8-1.479-18.414,11.64-19.433,22.492-1.133,12.057-1.982,24.79-.828,33.848,2.321,18.213,16.141,20.947,16.141,20.947,0-.027-.46,16.414-.6,21.708L246.1,221.314l24.527-33.851L276.6,120.7C276.618,120.4,276.563,120.9,276.545,120.483Z" transform="translate(-217.353 -95.739)"/><g transform="translate(6.156 35.595)"><path class="l" d="M226.788,152.3a2.325,2.325,0,0,0,2.169,2.415,2.225,2.225,0,0,0,2.46-2.022,2.326,2.326,0,0,0-2.167-2.415A2.224,2.224,0,0,0,226.788,152.3Z" transform="translate(-226.784 -150.268)"/></g><g transform="translate(3.863 27.48)"><path class="l" d="M223.3,140.142c.279.312,2.08-.937,4.581-.853,2.5.047,4.3,1.39,4.577,1.093.137-.132-.14-.688-.921-1.294a6.376,6.376,0,0,0-3.652-1.25,6.121,6.121,0,0,0-3.658,1.058C223.444,139.462,223.166,140,223.3,140.142Z" transform="translate(-223.27 -137.836)"/></g><g transform="translate(27.307 35.595)"><path class="l" d="M259.189,152.3a2.324,2.324,0,0,0,2.169,2.414,2.225,2.225,0,0,0,2.46-2.022,2.328,2.328,0,0,0-2.167-2.416A2.225,2.225,0,0,0,259.189,152.3Z" transform="translate(-259.185 -150.268)"/></g><g transform="translate(27.619 28.157)"><path class="l" d="M259.7,141.181c.28.312,2.083-.937,4.583-.853,2.5.048,4.3,1.39,4.576,1.093.137-.131-.136-.687-.921-1.294a6.382,6.382,0,0,0-3.652-1.251,6.134,6.134,0,0,0-3.658,1.058C259.839,140.5,259.56,141.041,259.7,141.181Z" transform="translate(-259.663 -138.874)"/></g><g transform="translate(12.953 29.081)"><path class="l" d="M243.514,161.1c.016-.142-1.53-.458-4.04-.858-.636-.085-1.237-.231-1.331-.67a3.249,3.249,0,0,1,.484-1.881l2.039-4.805c2.836-6.844,4.91-12.48,4.633-12.591s-2.8,5.344-5.636,12.189q-1.025,2.531-1.96,4.836a3.7,3.7,0,0,0-.408,2.5,1.6,1.6,0,0,0,1.022.966,4.322,4.322,0,0,0,1.08.184C241.928,161.178,243.5,161.237,243.514,161.1Z" transform="translate(-237.196 -140.289)"/></g><g transform="translate(16.575 71.638)"><path class="p" d="M267.086,205.482s-6.254,12.282-24.342,10.028l.116-4.264A45.684,45.684,0,0,0,267.086,205.482Z" transform="translate(-242.744 -205.482)"/></g><g transform="translate(28.685 20.664)"><path class="l" d="M261.306,129.127c.226.687,2.733.443,5.656.886,2.934.386,5.273,1.317,5.681.719.183-.287-.21-.939-1.147-1.627a9.952,9.952,0,0,0-8.637-1.223C261.769,128.283,261.21,128.8,261.306,129.127Z" transform="translate(-261.296 -127.395)"/></g><g transform="translate(4.873 19.697)"><path class="l" d="M224.876,128.375c.422.581,2.163.044,4.236.08,2.074-.037,3.815.5,4.237-.082.186-.283-.073-.86-.824-1.422a6.132,6.132,0,0,0-6.827,0C224.949,127.514,224.69,128.091,224.876,128.375Z" transform="translate(-224.818 -125.914)"/></g><g transform="translate(22.215 52.19)"><path class="p" d="M257.824,178.272a3.264,3.264,0,0,0-3.3-2.575,3.412,3.412,0,0,0-2.677,1.791,4.2,4.2,0,0,0-.242,3.261l.046.236a3.717,3.717,0,0,0,4.158,1.009A3.476,3.476,0,0,0,257.824,178.272Z" transform="translate(-251.384 -175.69)"/></g><g transform="translate(20.663 50.552)"><path class="l" d="M249.008,180.114c.008-.38,2.533-.187,4.5-2.208s1.9-4.732,2.251-4.724c.161-.023.443.638.385,1.777a6.31,6.31,0,0,1-1.735,3.954,5.494,5.494,0,0,1-3.758,1.689C249.584,180.616,248.98,180.285,249.008,180.114Z" transform="translate(-249.008 -173.181)"/></g></g><g transform="translate(8.203)"><path class="l" d="M263.251,83.892c-2.8-4.447-9.413-9.091-14.59-10-5.9-1.032-9.458-.02-13.339,3.523,0,0-3.019,2.914-5.85,3.464s-5.2.084-8.574,1.811c-4.612,2.358-6.634,8.526-8.77,13.244-2.656,5.865-6.44,11.261-8.172,17.461s-.81,13.818,4.414,17.579c-.9-4.751-1.642-9.977.315-14.277a12.451,12.451,0,0,0,.316,5.145c.978-2.79,2.009-5.668,4.034-7.822,1.911-2.031,4.552-3.245,6.52-5.221,2.892-2.9,4.223-7.325,7.737-9.431,3.656-2.191,8.279-1.1,12.541-1.078a24.029,24.029,0,0,0,18.682-9l-1.06-.089A29.729,29.729,0,0,0,263.251,83.892Z" transform="translate(-203.16 -73.514)"/></g><g transform="translate(54.313 8.966)"><path class="l" d="M314.435,133c-1.627-5.331-4.483-10.211-6.271-15.49-1.74-5.142-2.46-10.637-4.77-15.549-3.11-6.608-8.921-15.167-17.978-14.7l-.619.544a19.357,19.357,0,0,0-9.127,1.089l-.138,7.059L273.8,97.486c.728,1.4,1.417,2.755,2.084,4.086a44.641,44.641,0,0,0,2.308,7.769,20.157,20.157,0,0,0,4.345,6.607c15.6,37.346,1.451,39.705,8.479,61.11l4.421-12.254a21.85,21.85,0,0,0,8.743-9.418l.779,3.882a22.514,22.514,0,0,0,6.094-13.909l2.027,3.726C316.285,144.529,316.062,138.333,314.435,133Z" transform="translate(-273.796 -87.248)"/></g><g transform="translate(67.899 52.331)"><path class="o" d="M295.045,154.7c.243-.608,11.519-4.316,11.328,7.55-.186,11.529-11.749,8.928-11.763,8.6S295.045,154.7,295.045,154.7Z" transform="translate(-294.61 -153.68)"/><g transform="translate(3.629 3.793)"><path class="p" d="M300.18,168.57c.052-.035.2.145.535.306a2,2,0,0,0,1.5.06c1.227-.424,2.289-2.337,2.385-4.414a6.626,6.626,0,0,0-.507-2.885,2.319,2.319,0,0,0-1.48-1.571,1.021,1.021,0,0,0-1.2.527c-.161.319-.092.551-.153.57-.033.028-.243-.2-.142-.672a1.28,1.28,0,0,1,.467-.713,1.512,1.512,0,0,1,1.116-.272,2.822,2.822,0,0,1,2.064,1.827,6.821,6.821,0,0,1,.634,3.227c-.119,2.321-1.349,4.472-3.025,4.922a2.153,2.153,0,0,1-1.83-.34C300.2,168.849,300.14,168.59,300.18,168.57Z" transform="translate(-300.169 -159.491)"/></g><g transform="translate(2.776 14.835)"><g transform="translate(0.208 0.088)"><path class="m" d="M301.089,176.564a2.269,2.269,0,1,1-.543.155" transform="translate(-299.182 -176.54)"/></g><path class="l" d="M300.435,176.673a3.1,3.1,0,0,0-1.08,1.519,1.953,1.953,0,0,0,.4,1.821,2.016,2.016,0,0,0,3.577-1.027,1.955,1.955,0,0,0-.629-1.755,3.1,3.1,0,0,0-1.723-.713c-.006-.029.18-.114.544-.112a2.352,2.352,0,0,1,1.423.544,2.3,2.3,0,0,1,.866,2.1,2.476,2.476,0,0,1-4.428,1.272,2.308,2.308,0,0,1-.385-2.243,2.355,2.355,0,0,1,.918-1.216C300.223,176.672,300.426,176.646,300.435,176.673Z" transform="translate(-298.863 -176.406)"/></g></g><g transform="translate(55.207 9.167)"><path class="q" d="M275.189,100.483c.229.091,1.295-3.816,4.506-7.442,3.16-3.674,6.887-5.256,6.766-5.47a6.407,6.407,0,0,0-2.432.973,18.7,18.7,0,0,0-8.2,9.4A6.442,6.442,0,0,0,275.189,100.483Z" transform="translate(-275.166 -87.557)"/></g></g><g transform="translate(0 118.719)"><g transform="translate(9.777 26.488)"><path class="o" d="M98.923,346.659l-8.6-10.112s-6.038,0-9.056-2.868-8.6-5.585-6.338-10.716c0,0-2.714-3.169-.527-6.641l.074-.905s-6.791-2.868-4.83-6.339,5.735-1.962,5.735-1.962-7.416-5.011-8.754-6.384c-3.574-3.67.269-6.142,4.244-3.944,6.576,3.636,28.808,14.1,30.318,21.648v3.287s6.188,7.579,6.188,8.032S106.922,341.981,98.923,346.659Z" transform="translate(-65.207 -295.96)"/></g><g transform="translate(0 0.14)"><path class="m" d="M50.232,256.43c-.272-.34,33.762,54.519,33.762,54.519l1.544,18.406h53.111L133.722,308.4s-9.181-24.611-9.078-24.9c.2-.559-17.182-27.908-17.182-27.908Z" transform="translate(-50.231 -255.596)"/></g><g transform="translate(0.001)"><path class="l" d="M50.233,256.355s.357-.018,1.041-.034l3.025-.063,11.527-.2,41.635-.67h.077l.041.065c4.55,7.174,9.553,15.036,14.737,23.53.644,1.065,1.291,2.138,1.915,3.241.155.277.309.553.452.847a1.991,1.991,0,0,1,.1.241.27.27,0,0,1,.018.119c-.013.086,0,.055.008.061s.007,0,.006,0l.016.055.141.446.627,1.806,2.662,7.321,5.617,15.153,0,.01,0,.01c1.495,6.355,3.063,13.022,4.66,19.806.091.384.181.769.27,1.146l.049.209h-.214l-53.111-.014H85.4l-.012-.143q-.8-9.658-1.533-18.408l.021.064L59.4,271.361,52.6,260.29l-1.775-2.921-.448-.753a1.792,1.792,0,0,1-.141-.261L84.116,310.8l.018.029,0,.035q.739,8.737,1.557,18.405l-.155-.143,53.111-.014-.166.209-.27-1.147-4.656-19.807.007.02-5.61-15.157L125.3,285.9q-.315-.91-.628-1.813l-.145-.462-.017-.059a.6.6,0,0,1-.015-.116v-.058c-.119-.052.174.04.1.017a.239.239,0,0,0-.091-.014c-.045,0-.01.027-.02.022l-.008-.021a1.577,1.577,0,0,0-.084-.2c-.134-.277-.288-.554-.441-.828-.618-1.1-1.265-2.17-1.906-3.234-5.172-8.493-10.165-16.364-14.7-23.544l.118.064-41.688.544-11.51.131-3.01.025C50.577,256.363,50.233,256.355,50.233,256.355Z" transform="translate(-50.232 -255.382)"/></g><g transform="translate(23.058 28.581)"><path class="l" d="M132.156,299.995a2.519,2.519,0,0,1-.475.021l-1.358-.006-5-.095c-4.218-.1-10.043-.256-16.477-.36s-12.264-.092-16.477.042c-2.107.057-3.811.145-4.988.211l-1.356.078a2.441,2.441,0,0,1-.475,0,2.6,2.6,0,0,1,.469-.072l1.352-.142c1.176-.108,2.881-.232,4.989-.32,4.218-.2,10.051-.238,16.492-.141s12.264.3,16.479.46l4.992.2,1.357.07A2.454,2.454,0,0,1,132.156,299.995Z" transform="translate(-85.553 -299.166)"/></g><g transform="translate(42.677 49.83)"><path class="l" d="M149.12,335.727c-.011.093-7.523-.727-16.775-1.832s-16.748-2.076-16.737-2.169,7.521.727,16.776,1.832S149.131,335.633,149.12,335.727Z" transform="translate(-115.608 -331.718)"/></g><g transform="translate(27.252 49.549)"><g transform="translate(0 0.004)"><path class="o" d="M91.978,339.29l9.937-.633a4.316,4.316,0,0,0,2.921-.931,2.652,2.652,0,0,0-.68-3.689L92.77,331.293" transform="translate(-91.978 -331.293)"/></g><path class="p" d="M92.77,331.291a5.007,5.007,0,0,1,.88.151l2.4.528,8.141,1.9.023.006.018.01a2.364,2.364,0,0,1,.955,1.1,3.228,3.228,0,0,1,.294,1.451,2.07,2.07,0,0,1-.588,1.458,2.941,2.941,0,0,1-1.335.7,16.323,16.323,0,0,1-2.736.281l-4.6.257-3.1.144a7.3,7.3,0,0,1-1.142.006,7.477,7.477,0,0,1,1.133-.138l3.1-.251,4.6-.329a16.744,16.744,0,0,0,2.671-.29,2.629,2.629,0,0,0,1.185-.624,1.738,1.738,0,0,0,.482-1.227,2.554,2.554,0,0,0-1.07-2.246l.041.016L96,332.182l-2.381-.625A5.118,5.118,0,0,1,92.77,331.291Z" transform="translate(-91.978 -331.287)"/></g><g transform="translate(23.058 45.982)"><g transform="translate(0 0.005)"><path class="o" d="M94.353,325.83a48.94,48.94,0,0,1,8.828,2.488,1.958,1.958,0,0,1,1.3,2.277,1.582,1.582,0,0,1-.653,1.215,3.161,3.161,0,0,1-1.393.385,36.025,36.025,0,0,1-8.447-.514c-2.846-.394-6.79,0-8.439.871" transform="translate(-85.553 -325.83)"/></g><path class="p" d="M85.553,332.55a1.173,1.173,0,0,1,.281-.17,6.487,6.487,0,0,1,.875-.339,16.028,16.028,0,0,1,3.392-.585,20.936,20.936,0,0,1,2.38-.05,26.249,26.249,0,0,1,2.715.279,36.39,36.39,0,0,0,6.176.409,13.494,13.494,0,0,0,1.6-.147,1.506,1.506,0,0,0,1.169-.736,2.031,2.031,0,0,0-.53-2.5,6.533,6.533,0,0,0-1.245-.538l-1.239-.444c-.8-.277-1.556-.518-2.248-.725-1.384-.413-2.52-.69-3.308-.875a10.59,10.59,0,0,1-1.221-.3,1.2,1.2,0,0,1,.326.025c.212.027.523.077.922.148.8.146,1.948.388,3.347.774.7.193,1.462.421,2.272.689l1.251.43a6.554,6.554,0,0,1,1.319.561,1.93,1.93,0,0,1,.84,1.3,2.768,2.768,0,0,1-.189,1.6,1.447,1.447,0,0,1-.6.636,2.683,2.683,0,0,1-.8.283,13.406,13.406,0,0,1-1.653.155A34.835,34.835,0,0,1,95.154,332c-.952-.134-1.841-.275-2.686-.308a22.3,22.3,0,0,0-2.352.008,18.071,18.071,0,0,0-3.372.473C85.964,332.365,85.567,332.577,85.553,332.55Z" transform="translate(-85.553 -325.823)"/></g><g transform="translate(19.221 37.751)"><g transform="translate(0 0.002)"><path class="o" d="M80.911,313.216l7.833,4.37a7.974,7.974,0,0,1,3.125,2.525,2.742,2.742,0,0,1-.486,3.64,3.925,3.925,0,0,1-3.093.1,75.961,75.961,0,0,1-8.615-2.737" transform="translate(-79.676 -313.216)"/></g><path class="p" d="M79.676,321.114a8.029,8.029,0,0,1,1.1.343c.7.236,1.717.579,2.983.969s2.779.826,4.476,1.249a4.83,4.83,0,0,0,2.614.147A1.812,1.812,0,0,0,91.859,323a2.49,2.49,0,0,0,.3-1.349,3.458,3.458,0,0,0-1.259-2.435,12.181,12.181,0,0,0-2.25-1.5l-4.049-2.3-2.716-1.576a7.509,7.509,0,0,1-.973-.619,7.575,7.575,0,0,1,1.037.5l2.768,1.482,4.084,2.236a12.21,12.21,0,0,1,2.321,1.531,4.646,4.646,0,0,1,.952,1.163,3.4,3.4,0,0,1,.423,1.5,2.821,2.821,0,0,1-.345,1.533,2.149,2.149,0,0,1-1.2.971,5.073,5.073,0,0,1-2.8-.159c-1.7-.443-3.213-.9-4.472-1.325s-2.265-.8-2.954-1.073c-.345-.138-.611-.249-.789-.329A1.008,1.008,0,0,1,79.676,321.114Z" transform="translate(-79.676 -313.214)"/></g></g><g transform="translate(187.789 191.189)"><path class="o" d="M356.77,385.961l-3.723-1.053-11.831-1.1-3.308-4.4,2.306-9.491L355,366.4C361.826,371.256,359.982,379.351,356.77,385.961Z" transform="translate(-337.908 -366.4)"/></g><g transform="translate(163.924 184.025)"><g transform="translate(0 2.779)"><g transform="translate(0.155 0.055)"><path class="o" d="M309.755,359.834a10.176,10.176,0,0,0-4.152.326,5.511,5.511,0,0,0-3.289,4.308c-.382,3.044-.5,5.511-.721,8.345a2.67,2.67,0,0,0,.774,2c.93.95,2.622.633,3.583-.287a8.882,8.882,0,0,0,1.856-3.488c.463-1.247.954-4.231,1.676-4.492,2.059-.742,4.863,2.8,6.412,1.064l2.809-6.852C314.35,360.334,314.108,360.261,309.755,359.834Z" transform="translate(-301.586 -359.766)"/></g><path class="p" d="M309.672,359.805a.509.509,0,0,1,.16,0l.465.028,1.784.148,6.55.629.166.016-.063.155c-.809,1.995-1.75,4.319-2.782,6.864l-.009.023-.018.021a1.6,1.6,0,0,1-1.349.527,4.275,4.275,0,0,1-1.39-.42,15.164,15.164,0,0,0-2.635-1.146l-.347-.055-.347,0a2.818,2.818,0,0,0-.334.068c-.12.023-.147.069-.23.153a4.618,4.618,0,0,0-.582,1.34c-.307.976-.5,2.009-.873,3.031a12.382,12.382,0,0,1-1.21,2.662,4.124,4.124,0,0,1-1.008,1.067,3.387,3.387,0,0,1-1.34.562,2.583,2.583,0,0,1-1.437-.124,2.317,2.317,0,0,1-1.06-.943,2.8,2.8,0,0,1-.434-1.31c-.01-.478.055-.87.077-1.3.126-1.685.237-3.291.384-4.79q.109-1.125.24-2.167a5.827,5.827,0,0,1,.513-1.97,5.272,5.272,0,0,1,4.887-3.175,12.39,12.39,0,0,1,1.652.031c.188.017.331.033.427.048a.461.461,0,0,1,.144.031,4.925,4.925,0,0,1-.574-.01,15.475,15.475,0,0,0-1.64.033,5.613,5.613,0,0,0-2.458.659,5.461,5.461,0,0,0-2.218,2.484,5.577,5.577,0,0,0-.471,1.9q-.119,1.039-.219,2.162c-.134,1.5-.234,3.1-.352,4.787-.02.412-.083.871-.07,1.26a2.489,2.489,0,0,0,.39,1.157,1.99,1.99,0,0,0,.91.811,2.26,2.26,0,0,0,1.253.1,3.233,3.233,0,0,0,2.127-1.491,12.179,12.179,0,0,0,1.172-2.591c.356-.979.557-2.02.869-3.013a4.789,4.789,0,0,1,.648-1.456.822.822,0,0,1,.17-.159.555.555,0,0,1,.217-.1,2.932,2.932,0,0,1,.4-.081c.135,0,.271-.007.4,0l.39.063a15.1,15.1,0,0,1,2.7,1.177,4,4,0,0,0,1.278.4,1.281,1.281,0,0,0,1.1-.417l-.027.044,2.837-6.841.1.17c-2.764-.282-5-.559-6.539-.739l-1.778-.213-.462-.063A.561.561,0,0,1,309.672,359.805Z" transform="translate(-301.349 -359.681)"/></g><g transform="translate(4.125)"><g transform="translate(0.139 0.093)"><path class="o" d="M336.885,359.247a4.158,4.158,0,0,0-3.451.988s-.742-3.264-3.348-3.906c-1.892-.466-4.3,1.475-4.3,1.475s-1.633-3.265-5.986-1.9c-3.6,1.125-11.157,23.462-11.806,24.96-.743,1.714,2.311,3.862,4,2.131,1.766-1.813,7.7-11.735,7.7-11.735l-3.946,13.915a2.664,2.664,0,0,0,.039,1.375,2.9,2.9,0,0,0,5.178.407c2.449-3.318,4.945-10.155,4.945-10.155l2.406-5.247s-4.492,13.9-2.859,15.169,3.728.777,5.225-2.488,6.939-13.605,6.939-13.605l2.585-1.36-.952,3.265s-4.951,2.585-3.836,4.9,3.449,1.626,5.741.544,4.288-6.453,5.513-8.662c1.095-1.976,1.2-7.789-3.494-8.01a3.587,3.587,0,0,0-2.688,1.071l-.234.234S339.485,359.709,336.885,359.247Z" transform="translate(-307.882 -355.567)"/></g><path class="p" d="M336.811,359.2s.1.016.311.062a1.872,1.872,0,0,1,.378.115,2.923,2.923,0,0,1,.5.229,5.034,5.034,0,0,1,2.229,2.938l-.089-.024a3.857,3.857,0,0,1,2.407-1.315,4.371,4.371,0,0,1,3.187.977,5.245,5.245,0,0,1,1.55,3.582,8.171,8.171,0,0,1-.138,2.19,5.3,5.3,0,0,1-.346,1.1c-.161.368-.358.687-.527,1.049-.7,1.417-1.364,2.949-2.222,4.483a14.739,14.739,0,0,1-1.5,2.247,5.409,5.409,0,0,1-1.03.968,8.454,8.454,0,0,1-1.291.631,6.3,6.3,0,0,1-2.887.6,2.45,2.45,0,0,1-1.418-.627,3.007,3.007,0,0,1-.5-.611l-.194-.345c-.048-.128-.088-.262-.131-.393a2.23,2.23,0,0,1,.317-1.577,5.527,5.527,0,0,1,1.031-1.239,13.525,13.525,0,0,1,2.667-1.88l-.069.085.948-3.266.205.168-2.583,1.363.061-.061-4,7.72q-1.011,2-2.05,4.067-.5,1.04-1.011,2.1a7.19,7.19,0,0,1-1.366,1.973,3.1,3.1,0,0,1-2.245.973,2.843,2.843,0,0,1-1.217-.35,3.139,3.139,0,0,1-.532-.353,1.151,1.151,0,0,1-.312-.624,8.182,8.182,0,0,1,.047-2.488c.11-.817.262-1.63.432-2.442.7-3.244,1.63-6.491,2.66-9.767l.314.123-2.405,5.247.005-.012c-.548,1.476-1.191,3.034-1.888,4.584-.517,1.142-1.063,2.266-1.665,3.356q-.452.817-.958,1.6a6.324,6.324,0,0,1-1.209,1.45,2.984,2.984,0,0,1-1.779.691,3.213,3.213,0,0,1-1.816-.55,2.7,2.7,0,0,1-1.157-1.5,2.832,2.832,0,0,1-.078-.951,4.618,4.618,0,0,1,.206-.9c1.308-4.607,2.582-9.093,3.813-13.424l.3.127q-2.267,3.76-4.539,7.292c-.764,1.172-1.528,2.325-2.342,3.427a5.022,5.022,0,0,1-1.463,1.48,2.447,2.447,0,0,1-2.063.018,2.957,2.957,0,0,1-1.507-1.373,1.838,1.838,0,0,1-.161-1.039c.093-.366.223-.628.332-.938l1.309-3.567c.865-2.339,1.721-4.594,2.584-6.749s1.727-4.213,2.611-6.156a48.621,48.621,0,0,1,2.817-5.418,8.618,8.618,0,0,1,1.8-2.2,1.984,1.984,0,0,1,.625-.336l.656-.168a6.846,6.846,0,0,1,1.315-.14,4.591,4.591,0,0,1,4.06,2.29l-.131-.029a8.053,8.053,0,0,1,2.849-1.444,3.263,3.263,0,0,1,1.442-.046,3.63,3.63,0,0,1,1.219.527,4.961,4.961,0,0,1,1.536,1.714,7.23,7.23,0,0,1,.7,1.738l-.069-.026a5.083,5.083,0,0,1,2.585-1.03,2.2,2.2,0,0,1,.892.078s-.071-.015-.218-.031a3.2,3.2,0,0,0-.67,0,5.128,5.128,0,0,0-2.537,1.056l-.052.038-.018-.064a7.185,7.185,0,0,0-.706-1.7,4.859,4.859,0,0,0-1.512-1.658,3.5,3.5,0,0,0-1.177-.5,3.114,3.114,0,0,0-1.376.055,7.921,7.921,0,0,0-2.778,1.43l-.08.061-.05-.09a4.413,4.413,0,0,0-3.907-2.168,6.665,6.665,0,0,0-1.273.142l-.638.166a1.776,1.776,0,0,0-.559.306,8.463,8.463,0,0,0-1.735,2.147,48.586,48.586,0,0,0-2.782,5.4c-.876,1.941-1.734,4-2.588,6.152s-1.7,4.41-2.564,6.748l-1.3,3.572c-.105.3-.25.623-.315.887a1.54,1.54,0,0,0,.139.86,2.659,2.659,0,0,0,1.354,1.223,2.146,2.146,0,0,0,1.811-.012,4.815,4.815,0,0,0,1.353-1.392c.8-1.092,1.565-2.244,2.325-3.414,1.514-2.346,3.018-4.784,4.524-7.288l.627-1.043-.331,1.17c-1.227,4.331-2.5,8.816-3.8,13.421a4.368,4.368,0,0,0-.2.847,2.484,2.484,0,0,0,.069.838,2.381,2.381,0,0,0,1.018,1.3,2.874,2.874,0,0,0,1.619.492,2.65,2.65,0,0,0,1.576-.616,6.065,6.065,0,0,0,1.138-1.374q.5-.77.945-1.578c.6-1.078,1.138-2.2,1.652-3.331.693-1.54,1.335-3.1,1.879-4.56l0-.007,0-.006,2.407-5.246.314.122c-1.027,3.263-1.96,6.509-2.656,9.732-.17.806-.321,1.612-.43,2.417a7.98,7.98,0,0,0-.055,2.372.862.862,0,0,0,.207.449,2.823,2.823,0,0,0,.473.313,2.52,2.52,0,0,0,1.075.313,2.784,2.784,0,0,0,2.008-.88c1.11-1.076,1.6-2.618,2.317-3.976l2.058-4.068,4.018-7.716.021-.04.041-.022,2.586-1.358.3-.157-.1.325-.956,3.264-.016.056-.053.029a13.265,13.265,0,0,0-2.611,1.83,5.291,5.291,0,0,0-.985,1.175,1.965,1.965,0,0,0-.29,1.385,2.388,2.388,0,0,0,2.017,1.782,6.082,6.082,0,0,0,2.766-.571,8.264,8.264,0,0,0,1.25-.6,5.231,5.231,0,0,0,.984-.921,14.556,14.556,0,0,0,1.482-2.205c.857-1.518,1.531-3.043,2.236-4.463.166-.355.381-.7.529-1.041a5.143,5.143,0,0,0,.338-1.061,8.027,8.027,0,0,0,.146-2.137,5.083,5.083,0,0,0-1.474-3.478,4.235,4.235,0,0,0-3.067-.962,3.748,3.748,0,0,0-2.347,1.258l-.061.067-.028-.091a4.423,4.423,0,0,0-3.319-3.371Z" transform="translate(-307.668 -355.424)"/><g transform="translate(19.947 9.281)"><path class="p" d="M341.3,369.643A16.091,16.091,0,0,1,340.053,374c-.451,1.167-.9,2.205-1.226,2.954a5.54,5.54,0,0,1-.591,1.189,28.46,28.46,0,0,1,1.5-4.265c.448-1.162.835-2.218,1.1-2.99A6.472,6.472,0,0,1,341.3,369.643Z" transform="translate(-338.226 -369.643)"/></g><g transform="translate(11.832 7.881)"><path class="p" d="M329.256,367.5c.09.044-.74,1.872-1.656,4.166a27.68,27.68,0,0,1-1.8,4.113,5.376,5.376,0,0,1,.375-1.264c.269-.766.645-1.823,1.108-2.975s.933-2.175,1.3-2.9A4.87,4.87,0,0,1,329.256,367.5Z" transform="translate(-325.794 -367.497)"/></g></g></g></g><g transform="translate(113.361 211.601)"><path class="q" d="M293.685,410.6l-9.3-8.52L316.6,400.8l9.468,5.241Z" transform="translate(-284.382 -400.8)"/><g transform="translate(3.643 0.457)"><g transform="translate(0 0.806)"><g transform="translate(0 0.221)"><path class="l" d="M293.4,405.413l1.809,1.551-.008-1.106-1.914-1.43Z" transform="translate(-293.288 -404.429)"/></g><g transform="translate(0 0.11)"><path class="b" d="M295.184,405.77l2.609-.088-2.1-1.524-2.4.111Z" transform="translate(-293.288 -404.158)"/></g><g transform="translate(1.896 1.634)"><path class="l" d="M297.922,407.971l.026,1.035,2.548-.165.035-.958Z" transform="translate(-297.922 -407.883)"/></g><path class="l" d="M297.792,405.522a14.742,14.742,0,0,1-2.1-1.351l-.124-.088.066.019a13.52,13.52,0,0,1-2.346.007,13.522,13.522,0,0,1,2.336-.219l.036,0,.03.021.124.088A14.649,14.649,0,0,1,297.792,405.522Z" transform="translate(-293.288 -403.888)"/><g transform="translate(1.792 1.731)"><path class="q" d="M297.79,409.146c-.058,0-.112-.227-.12-.51s.034-.514.093-.516.113.227.12.511S297.848,409.145,297.79,409.146Z" transform="translate(-297.669 -408.12)"/></g></g><g transform="translate(4.366 0.724)"><g transform="translate(0 0.221)"><path class="l" d="M304.073,405.213l1.809,1.551-.008-1.106-1.914-1.43Z" transform="translate(-303.961 -404.228)"/></g><g transform="translate(0 0.11)"><path class="e" d="M305.857,405.569l2.609-.088-2.1-1.524-2.4.111Z" transform="translate(-303.961 -403.957)"/></g><g transform="translate(1.895 1.634)"><path class="l" d="M308.595,407.771l.026,1.035,2.548-.165.035-.958Z" transform="translate(-308.595 -407.682)"/></g><path class="l" d="M308.465,405.322a14.681,14.681,0,0,1-2.1-1.351l-.124-.087.066.019a13.437,13.437,0,0,1-2.346.007,13.5,13.5,0,0,1,2.336-.219l.036,0,.03.021.124.087A14.729,14.729,0,0,1,308.465,405.322Z" transform="translate(-303.961 -403.688)"/><g transform="translate(1.792 1.731)"><path class="q" d="M308.463,408.946c-.059,0-.113-.227-.12-.51s.034-.514.093-.516.112.227.12.51S308.522,408.945,308.463,408.946Z" transform="translate(-308.342 -407.92)"/></g></g><g transform="translate(8.546 0.668)"><g transform="translate(0 0.221)"><path class="l" d="M314.292,405.078l1.809,1.551-.007-1.106-1.914-1.43Z" transform="translate(-314.18 -404.093)"/></g><g transform="translate(0 0.11)"><path class="q" d="M316.075,405.434l2.609-.088-2.1-1.524-2.4.111Z" transform="translate(-314.18 -403.822)"/></g><g transform="translate(1.895 1.634)"><path class="l" d="M318.814,407.635l.026,1.035,2.548-.165.035-.958Z" transform="translate(-318.814 -407.547)"/></g><g transform="translate(0)"><path class="l" d="M318.684,405.186a14.726,14.726,0,0,1-2.1-1.351l-.124-.088.066.019a13.516,13.516,0,0,1-2.346.007,13.537,13.537,0,0,1,2.336-.219l.036,0,.03.021.124.088A14.755,14.755,0,0,1,318.684,405.186Z" transform="translate(-314.18 -403.552)"/></g><g transform="translate(1.792 1.731)"><path class="q" d="M318.682,408.81c-.059,0-.112-.227-.12-.51s.034-.515.093-.516.112.227.12.511S318.74,408.809,318.682,408.81Z" transform="translate(-318.561 -407.784)"/></g></g><g transform="translate(12.898 0.544)"><g transform="translate(0 0.221)"><path class="l" d="M324.933,404.773l1.809,1.551-.008-1.106-1.914-1.43Z" transform="translate(-324.821 -403.789)"/></g><g transform="translate(0 0.11)"><path class="q" d="M326.716,405.129l2.609-.088-2.1-1.524-2.4.111Z" transform="translate(-324.821 -403.517)"/></g><g transform="translate(1.896 1.634)"><path class="l" d="M329.454,407.331l.026,1.035,2.548-.165.035-.958Z" transform="translate(-329.454 -407.242)"/></g><path class="l" d="M329.324,404.882a14.671,14.671,0,0,1-2.1-1.351l-.124-.087.066.019a13.468,13.468,0,0,1-2.346.007,13.5,13.5,0,0,1,2.336-.219l.036,0,.03.021.124.087A14.737,14.737,0,0,1,329.324,404.882Z" transform="translate(-324.82 -403.248)"/><g transform="translate(1.792 1.731)"><path class="q" d="M329.322,408.506c-.059,0-.112-.227-.12-.51s.034-.514.093-.516.113.227.12.51S329.381,408.5,329.322,408.506Z" transform="translate(-329.201 -407.48)"/></g></g><g transform="translate(17.313 0.435)"><g transform="translate(0 0.221)"><path class="l" d="M335.725,404.506l1.809,1.551-.007-1.106-1.914-1.43Z" transform="translate(-335.613 -403.521)"/></g><g transform="translate(0 0.11)"><path class="q" d="M337.509,404.862l2.609-.089-2.1-1.524-2.4.111Z" transform="translate(-335.613 -403.25)"/></g><g transform="translate(1.895 1.634)"><path class="l" d="M340.247,407.063l.026,1.035,2.548-.165.035-.958Z" transform="translate(-340.247 -406.975)"/></g><path class="l" d="M340.117,404.615a14.719,14.719,0,0,1-2.1-1.352l-.124-.088.066.019a13.544,13.544,0,0,1-2.346.007,13.51,13.51,0,0,1,2.336-.219l.036,0,.03.021.124.087A14.677,14.677,0,0,1,340.117,404.615Z" transform="translate(-335.613 -402.981)"/><g transform="translate(1.792 1.731)"><path class="q" d="M340.115,408.239c-.059,0-.112-.227-.12-.51s.034-.515.093-.516.112.227.12.51S340.173,408.237,340.115,408.239Z" transform="translate(-339.994 -407.213)"/></g></g><g transform="translate(21.528 0.237)"><g transform="translate(0 0.221)"><path class="l" d="M346.031,404.023l1.809,1.551-.008-1.106-1.914-1.43Z" transform="translate(-345.919 -403.039)"/></g><g transform="translate(0 0.11)"><path class="q" d="M347.814,404.38l2.609-.089-2.1-1.524-2.4.111Z" transform="translate(-345.919 -402.767)"/></g><g transform="translate(1.895 1.634)"><path class="l" d="M350.552,406.581l.026,1.035,2.548-.165.035-.958Z" transform="translate(-350.552 -406.493)"/></g><g transform="translate(0)"><path class="l" d="M350.423,404.132a14.738,14.738,0,0,1-2.1-1.351l-.124-.088.066.019a13.524,13.524,0,0,1-2.346.007,13.409,13.409,0,0,1,2.336-.219l.036,0,.03.021.124.087A14.666,14.666,0,0,1,350.423,404.132Z" transform="translate(-345.919 -402.498)"/></g><g transform="translate(1.792 1.731)"><path class="q" d="M350.42,407.756c-.058,0-.112-.227-.12-.51s.034-.514.093-.516.112.227.12.51S350.479,407.755,350.42,407.756Z" transform="translate(-350.299 -406.73)"/></g></g><g transform="translate(25.649)"><g transform="translate(0 0.221)"><path class="l" d="M356.105,403.443l1.809,1.551-.008-1.106-1.914-1.43Z" transform="translate(-355.993 -402.458)"/></g><g transform="translate(0 0.11)"><path class="q" d="M357.889,403.8l2.609-.089-2.1-1.524-2.4.111Z" transform="translate(-355.993 -402.187)"/></g><g transform="translate(1.896 1.634)"><path class="l" d="M360.627,406l.026,1.035,2.548-.165.035-.958Z" transform="translate(-360.627 -405.912)"/></g><path class="l" d="M360.5,403.552a14.724,14.724,0,0,1-2.1-1.351l-.124-.088.066.02a13.549,13.549,0,0,1-2.346.007,13.516,13.516,0,0,1,2.336-.219l.036,0,.03.021.124.087A14.722,14.722,0,0,1,360.5,403.552Z" transform="translate(-355.993 -401.918)"/><g transform="translate(1.792 1.731)"><path class="q" d="M360.495,407.176c-.059,0-.112-.227-.12-.51s.034-.514.093-.516.112.227.12.51S360.553,407.175,360.495,407.176Z" transform="translate(-360.374 -406.15)"/></g></g></g><g transform="translate(6.556 3.37)"><g transform="translate(0 0.806)"><g transform="translate(0 0.221)"><path class="l" d="M300.52,412.533l1.809,1.551-.007-1.106-1.914-1.43Z" transform="translate(-300.408 -411.549)"/></g><g transform="translate(0 0.11)"><path class="q" d="M302.3,412.89l2.609-.088-2.1-1.524-2.4.111Z" transform="translate(-300.408 -411.277)"/></g><g transform="translate(1.896 1.634)"><path class="l" d="M305.042,415.091l.026,1.035,2.548-.165.035-.958Z" transform="translate(-305.042 -415.003)"/></g><path class="l" d="M304.912,412.642a14.665,14.665,0,0,1-2.1-1.351l-.124-.088.066.019a13.532,13.532,0,0,1-2.346.007,13.431,13.431,0,0,1,2.336-.219l.036,0,.03.021.124.087A14.74,14.74,0,0,1,304.912,412.642Z" transform="translate(-300.408 -411.008)"/><g transform="translate(1.792 1.731)"><path class="q" d="M304.91,416.266c-.059,0-.113-.227-.12-.51s.034-.514.093-.516.112.227.12.51S304.969,416.265,304.91,416.266Z" transform="translate(-304.789 -415.24)"/></g></g><g transform="translate(4.366 0.724)"><g transform="translate(0 0.221)"><path class="l" d="M311.193,412.333,313,413.884l-.007-1.106-1.914-1.43Z" transform="translate(-311.081 -411.348)"/></g><g transform="translate(0 0.11)"><path class="q" d="M312.976,412.689l2.609-.088-2.1-1.524-2.4.111Z" transform="translate(-311.081 -411.077)"/></g><g transform="translate(1.895 1.634)"><path class="l" d="M315.715,414.891l.026,1.035,2.548-.165.035-.958Z" transform="translate(-315.715 -414.802)"/></g><path class="l" d="M315.585,412.442a14.65,14.65,0,0,1-2.1-1.351l-.124-.088.066.02a13.455,13.455,0,0,1-2.346.007,13.526,13.526,0,0,1,2.336-.219l.036,0,.03.021.124.087A14.727,14.727,0,0,1,315.585,412.442Z" transform="translate(-311.081 -410.808)"/><g transform="translate(1.792 1.731)"><path class="q" d="M315.583,416.066c-.059,0-.112-.227-.12-.51s.034-.514.093-.516.112.227.119.51S315.642,416.065,315.583,416.066Z" transform="translate(-315.462 -415.04)"/></g></g><g transform="translate(8.546 0.668)"><g transform="translate(0 0.221)"><path class="l" d="M321.412,412.2l1.809,1.551-.007-1.106-1.914-1.43Z" transform="translate(-321.3 -411.213)"/></g><g transform="translate(0 0.11)"><path class="q" d="M323.2,412.554l2.609-.088-2.1-1.524-2.4.111Z" transform="translate(-321.3 -410.941)"/></g><g transform="translate(1.895 1.634)"><path class="l" d="M325.934,414.755l.026,1.035,2.548-.165.035-.958Z" transform="translate(-325.934 -414.667)"/></g><g transform="translate(0)"><path class="l" d="M325.8,412.306a14.771,14.771,0,0,1-2.1-1.352l-.124-.088.067.019a13.516,13.516,0,0,1-2.346.007,13.53,13.53,0,0,1,2.336-.219l.036,0,.03.021.124.087A14.644,14.644,0,0,1,325.8,412.306Z" transform="translate(-321.3 -410.672)"/></g><g transform="translate(1.792 1.731)"><path class="q" d="M325.8,415.93c-.059,0-.112-.227-.12-.511s.034-.514.093-.516.112.227.12.51S325.86,415.929,325.8,415.93Z" transform="translate(-325.681 -414.904)"/></g></g><g transform="translate(12.898 0.544)"><g transform="translate(0 0.221)"><path class="l" d="M332.052,411.893l1.809,1.551-.007-1.106-1.914-1.43Z" transform="translate(-331.94 -410.908)"/></g><g transform="translate(0 0.11)"><path class="q" d="M333.836,412.249l2.609-.088-2.1-1.524-2.4.111Z" transform="translate(-331.94 -410.637)"/></g><g transform="translate(1.896 1.634)"><path class="l" d="M336.574,414.451l.026,1.035,2.548-.165.035-.958Z" transform="translate(-336.574 -414.362)"/></g><path class="l" d="M336.444,412a14.665,14.665,0,0,1-2.1-1.351l-.124-.088.066.019a13.442,13.442,0,0,1-2.346.007,13.547,13.547,0,0,1,2.336-.219h.036l.03.021.124.087A14.74,14.74,0,0,1,336.444,412Z" transform="translate(-331.94 -410.368)"/><g transform="translate(1.792 1.731)"><path class="q" d="M336.442,415.626c-.059,0-.112-.227-.12-.51s.034-.514.093-.516.112.227.12.51S336.5,415.625,336.442,415.626Z" transform="translate(-336.321 -414.6)"/></g></g><g transform="translate(17.313 0.435)"><g transform="translate(0 0.221)"><path class="l" d="M342.845,411.626l1.809,1.551-.007-1.106-1.914-1.43Z" transform="translate(-342.733 -410.641)"/></g><g transform="translate(0 0.11)"><path class="q" d="M344.628,411.982l2.609-.089-2.1-1.524-2.4.111Z" transform="translate(-342.733 -410.37)"/></g><g transform="translate(1.895 1.634)"><path class="l" d="M347.367,414.183l.026,1.035,2.548-.165.035-.958Z" transform="translate(-347.367 -414.095)"/></g><path class="l" d="M347.237,411.735a14.722,14.722,0,0,1-2.1-1.351l-.124-.087.066.019a13.527,13.527,0,0,1-2.346.007,13.515,13.515,0,0,1,2.336-.219l.036,0,.03.021.124.087A14.688,14.688,0,0,1,347.237,411.735Z" transform="translate(-342.733 -410.101)"/><g transform="translate(1.792 1.731)"><path class="q" d="M347.235,415.359c-.059,0-.112-.227-.12-.51s.034-.515.093-.516.112.227.119.51S347.294,415.357,347.235,415.359Z" transform="translate(-347.114 -414.333)"/></g></g><g transform="translate(21.528 0.237)"><g transform="translate(0 0.221)"><path class="l" d="M353.151,411.143l1.809,1.551-.007-1.106-1.914-1.43Z" transform="translate(-353.038 -410.158)"/></g><g transform="translate(0 0.11)"><path class="q" d="M354.934,411.5l2.609-.089-2.1-1.524-2.4.111Z" transform="translate(-353.038 -409.887)"/></g><g transform="translate(1.896 1.634)"><path class="l" d="M357.672,413.7l.026,1.035,2.548-.165.035-.958Z" transform="translate(-357.672 -413.612)"/></g><path class="l" d="M357.542,411.252a14.667,14.667,0,0,1-2.1-1.351l-.124-.088.066.019a13.454,13.454,0,0,1-2.346.007,13.51,13.51,0,0,1,2.336-.219l.036,0,.03.021.124.087A14.738,14.738,0,0,1,357.542,411.252Z" transform="translate(-353.038 -409.618)"/><g transform="translate(1.792 1.731)"><path class="q" d="M357.54,414.876c-.059,0-.113-.227-.12-.51s.034-.514.093-.516.112.227.12.51S357.6,414.875,357.54,414.876Z" transform="translate(-357.419 -413.85)"/></g></g><g transform="translate(25.649)"><g transform="translate(0 0.221)"><path class="l" d="M363.225,410.563l1.809,1.551-.007-1.106-1.914-1.43Z" transform="translate(-363.113 -409.578)"/></g><g transform="translate(0 0.11)"><path class="q" d="M365.009,410.919l2.609-.088-2.1-1.524-2.4.111Z" transform="translate(-363.113 -409.307)"/></g><g transform="translate(1.895 1.634)"><path class="l" d="M367.747,413.12l.026,1.035,2.549-.165.035-.958Z" transform="translate(-367.747 -413.032)"/></g><path class="l" d="M367.617,410.672a14.742,14.742,0,0,1-2.1-1.351l-.124-.088.066.019a13.532,13.532,0,0,1-2.346.007,13.517,13.517,0,0,1,2.336-.219l.036,0,.03.021.124.087A14.722,14.722,0,0,1,367.617,410.672Z" transform="translate(-363.113 -409.038)"/><g transform="translate(1.792 1.731)"><path class="q" d="M367.615,414.3c-.059,0-.113-.227-.12-.51s.034-.515.093-.516.112.227.12.51S367.674,414.294,367.615,414.3Z" transform="translate(-367.494 -413.27)"/></g></g></g><g transform="translate(0 1.278)"><path class="l" d="M335.11,405.545l-36.529,1.988-4.85,4.587-9.349-8.2V406.3l9.684,9.282,5.346-5.2,36.256-2.162Z" transform="translate(-284.382 -403.923)"/><g transform="translate(9.684 4.299)"><path class="l" d="M308.057,421.794l33.005-1.931,8.6-5.43-37.128,1.457Z" transform="translate(-308.057 -414.433)"/></g><g transform="translate(9.684 4.295)"><path class="q" d="M349.658,414.427a.473.473,0,0,1-.113.018l-.33.03-1.272.1-4.681.313-15.447.952-14.408.832.051-.022-3.933,3.776-1.08,1.021-.286.262a.55.55,0,0,1-.1.083.561.561,0,0,1,.086-.1l.27-.278,1.05-1.052,3.884-3.826.021-.021.03,0,14.406-.886,15.451-.89,4.685-.245,1.274-.056.332-.009A.467.467,0,0,1,349.658,414.427Z" transform="translate(-308.057 -414.422)"/></g><g transform="translate(14.187 3.609)"><path class="q" d="M319.908,415.6a10.393,10.393,0,0,1-.831-2.851,10.429,10.429,0,0,1,.831,2.851Z" transform="translate(-319.064 -412.747)"/></g></g></g></g></g></svg>