<svg xmlns="http://www.w3.org/2000/svg" xmlns:xlink="http://www.w3.org/1999/xlink" width="413.383" height="377.669" viewBox="0 0 413.383 377.669"><defs><style>.a,.ab,.m,.n,.w,.z{fill:none;}.aa,.b{fill:#d9a171;}.c,.d,.e,.g,.i,.j,.r{fill:#fff;}.c{opacity:0.85;}.d{opacity:0.7;}.f,.q{fill:#344154;}.g{opacity:0.75;}.h{opacity:0.25;}.i{opacity:0.9;}.aa,.ab,.j,.m,.n,.q,.r,.w{stroke:#263238;}.aa,.ab,.j,.m,.n,.q,.r,.w,.z{stroke-linecap:round;}.j,.m{stroke-miterlimit:10;}.k{clip-path:url(#a);}.l{opacity:0.1;}.aa,.ab,.n,.q,.r,.w,.z{stroke-linejoin:round;}.o{clip-path:url(#b);}.p{clip-path:url(#c);}.s{fill:#ff9a6c;}.t{clip-path:url(#d);}.u{clip-path:url(#e);}.v{fill:#ffbf9d;}.w{stroke-width:0.5px;}.x{clip-path:url(#f);}.y{clip-path:url(#g);}.z{stroke:#fff;}.ab{stroke-width:2px;}</style><clipPath id="a"><path class="a" d="M144.26,418.261s42.118,1.871,75.925-2.954L219.1,398.838l-71.018-6.788Z" transform="translate(-144.26 -392.05)"/></clipPath><clipPath id="b"><path class="a" d="M220.491,387.3s-56.052,24.739-76.211,31.456l3.8-26.242,56.532-23.39Z" transform="translate(-144.28 -369.12)"/></clipPath><clipPath id="c"><path class="a" d="M165.947,389.683l54.263-2.269-10.8-23.574-53.4.286Z" transform="translate(-156.01 -363.84)"/></clipPath><clipPath id="d"><path class="a" d="M276.91,162.657s1.022-5.306,3.261-4.9,2.045,4.488.818,7.35a26.812,26.812,0,0,1-1.636,3.466Z" transform="translate(-276.91 -157.738)"/></clipPath><clipPath id="e"><path class="a" d="M250.415,170.363s-3.261-3.067-3.874,1.227,6.328,5.111,6.328,5.111Z" transform="translate(-246.502 -169.302)"/></clipPath><clipPath id="f"><path class="a" d="M234.123,228.79s-2.842,31.813-14.486,63.637S156,367.135,156,367.135l9.937,25.557s37.211-28.113,54.825-69.587,18.186-93.457,18.186-93.457Z" transform="translate(-156 -228.79)"/></clipPath><clipPath id="g"><path class="a" d="M251,179.022s3.067,0,3.67-.808,4.294-5.111,4.5-5.929,0-1.636-2.249-.818a4.8,4.8,0,0,0-2.862,2.862l-2.852.2Z" transform="translate(-251 -171.129)"/></clipPath></defs><g transform="translate(-47.469 -67.235)"><g transform="translate(47.469 94.686)"><path class="b" d="M427.924,150.093s-26.181-49.223-84.031-56.5-98.221,28.246-140.778,46.442c-22.286,9.548-47.751,5.837-71.406,10.458C56.06,165.243,27.548,257.831,59.127,310.406c27.274,45.563,75.3,69.259,148.415,74.729s124.371,11.879,189.848-32.815S458.48,214.793,427.924,150.093Z" transform="translate(-46.435 -92.622)"/><path class="c" d="M427.924,150.093s-26.181-49.223-84.031-56.5-98.221,28.246-140.778,46.442c-22.286,9.548-47.751,5.837-71.406,10.458C56.06,165.243,27.548,257.831,59.127,310.406c27.274,45.563,75.3,69.259,148.415,74.729s124.371,11.879,189.848-32.815S458.48,214.793,427.924,150.093Z" transform="translate(-46.435 -92.622)"/></g><g transform="translate(84.757 67.235)"><path class="b" d="M103.635,97.318,101.56,81.135,105.3,94.823V71.587l2.484,17.849,2.494-12.042V89.017l1.247-23.247,1.237,23.666,4.57-10.386L115.259,91.92l4.979-5.4-7.054,12.871Z" transform="translate(-82.494 -65.77)"/><path class="d" d="M103.635,97.318,101.56,81.135,105.3,94.823V71.587l2.484,17.849,2.494-12.042V89.017l1.247-23.247,1.237,23.666,4.57-10.386L115.259,91.92l4.979-5.4-7.054,12.871Z" transform="translate(-82.494 -65.77)"/><path class="b" d="M116.859,114.147H103.018L101.29,93.2h17.3Z" transform="translate(-82.5 -65.159)"/><path class="b" d="M166.548,93.69l9.016,20.906H162.448l-4.508-8.608Z" transform="translate(-81.238 -65.148)"/><path class="b" d="M172.331,80.46H148.961L135.14,115.31H158.5Z" transform="translate(-81.746 -65.443)"/><path class="e" d="M167.411,84.87H150.093L139.84,110.693h17.328Z" transform="translate(-81.642 -65.344)"/><rect class="f" width="332.466" height="266.478" transform="translate(7.912 55.939)"/><rect class="g" width="332.466" height="266.478" transform="translate(7.912 55.939)"/><rect class="b" width="15.488" height="47.096" transform="translate(17.195 60.785)"/><rect class="e" width="13.402" height="2.893" transform="translate(18.207 63.555)"/><rect class="e" width="13.402" height="2.893" transform="translate(18.207 101.318)"/><rect class="b" width="15.488" height="47.096" transform="translate(33.674 60.785)"/><rect class="e" width="13.402" height="2.893" transform="translate(34.686 63.555)"/><rect class="e" width="13.402" height="2.893" transform="translate(34.686 101.318)"/><rect class="b" width="15.488" height="47.096" transform="translate(50.153 60.785)"/><rect class="e" width="13.402" height="2.893" transform="translate(51.165 63.555)"/><rect class="e" width="13.402" height="2.893" transform="translate(51.165 101.318)"/><rect class="b" width="15.488" height="47.096" transform="translate(66.632 60.785)"/><rect class="e" width="13.402" height="2.893" transform="translate(67.644 63.555)"/><rect class="e" width="13.402" height="2.893" transform="translate(67.644 101.318)"/><rect class="b" width="15.488" height="47.096" transform="translate(83.101 60.785)"/><rect class="e" width="13.402" height="2.893" transform="translate(84.113 63.555)"/><rect class="e" width="13.402" height="2.893" transform="translate(84.113 101.318)"/><rect class="b" width="15.488" height="47.096" transform="translate(99.58 60.785)"/><rect class="e" width="13.402" height="2.893" transform="translate(100.592 63.555)"/><rect class="e" width="13.402" height="2.893" transform="translate(100.592 101.318)"/><rect class="b" width="15.488" height="47.096" transform="translate(105.857 110.294)"/><rect class="e" width="13.402" height="2.893" transform="translate(106.869 113.054)"/><rect class="e" width="13.402" height="2.893" transform="translate(106.869 150.827)"/><rect class="b" width="15.488" height="47.096" transform="translate(122.326 110.294)"/><rect class="e" width="13.402" height="2.893" transform="translate(123.348 113.054)"/><rect class="e" width="13.402" height="2.893" transform="translate(123.348 150.827)"/><rect class="b" width="15.488" height="47.096" transform="translate(138.805 110.294)"/><rect class="e" width="13.402" height="2.893" transform="translate(139.817 113.054)"/><rect class="e" width="13.402" height="2.893" transform="translate(139.817 150.827)"/><rect class="b" width="15.488" height="47.096" transform="translate(155.284 110.294)"/><rect class="e" width="13.402" height="2.893" transform="translate(156.296 113.054)"/><rect class="e" width="13.402" height="2.893" transform="translate(156.296 150.827)"/><rect class="b" width="15.488" height="47.096" transform="translate(171.764 110.294)"/><rect class="e" width="13.402" height="2.893" transform="translate(172.776 113.054)"/><rect class="e" width="13.402" height="2.893" transform="translate(172.776 150.827)"/><rect class="b" width="15.488" height="47.096" transform="translate(188.232 110.294)"/><rect class="e" width="13.402" height="2.893" transform="translate(189.255 113.054)"/><rect class="e" width="13.402" height="2.893" transform="translate(189.255 150.827)"/><rect class="b" width="15.488" height="47.096" transform="translate(224.759 110.294)"/><rect class="e" width="13.402" height="2.893" transform="translate(225.771 113.054)"/><rect class="e" width="13.402" height="2.893" transform="translate(225.771 150.827)"/><rect class="b" width="15.488" height="47.096" transform="translate(241.238 110.294)"/><rect class="e" width="13.402" height="2.893" transform="translate(242.25 113.054)"/><rect class="e" width="13.402" height="2.893" transform="translate(242.25 150.827)"/><rect class="b" width="15.488" height="47.096" transform="translate(257.707 110.294)"/><rect class="e" width="13.402" height="2.893" transform="translate(258.719 113.054)"/><rect class="e" width="13.402" height="2.893" transform="translate(258.719 150.827)"/><rect class="b" width="15.488" height="47.096" transform="translate(274.186 110.294)"/><rect class="e" width="13.402" height="2.893" transform="translate(275.198 113.054)"/><rect class="e" width="13.402" height="2.893" transform="translate(275.198 150.827)"/><rect class="b" width="15.488" height="47.096" transform="translate(290.665 110.294)"/><rect class="e" width="13.402" height="2.893" transform="translate(291.677 113.054)"/><rect class="e" width="13.402" height="2.893" transform="translate(291.677 150.827)"/><path class="b" d="M397.919,224.823l-14.649-4.662L399.647,175.6l14.659,4.672Z" transform="translate(-76.218 -63.323)"/><path class="e" d="M410.976,185.238,398.3,181.2l1.012-2.74,12.676,4.038Z" transform="translate(-75.883 -63.259)"/><path class="e" d="M398.126,220.187l-12.676-4.038,1.012-2.729,12.676,4.038Z" transform="translate(-76.169 -62.48)"/><path class="b" d="M347.279,364.953l-14.659-4.672L349,315.73l14.66,4.662Z" transform="translate(-77.346 -60.201)"/><path class="e" d="M360.326,325.357l-12.676-4.038,1.012-2.729,12.676,4.028Z" transform="translate(-77.012 -60.137)"/><path class="e" d="M347.476,360.318,334.8,356.28l1.012-2.74,12.676,4.038Z" transform="translate(-77.298 -59.358)"/><rect class="b" width="15.488" height="47.096" transform="translate(116.059 60.785)"/><rect class="e" width="13.402" height="2.893" transform="translate(117.072 63.555)"/><rect class="e" width="13.402" height="2.893" transform="translate(117.072 101.318)"/><rect class="b" width="15.488" height="47.096" transform="translate(15.631 160.764)"/><rect class="e" width="13.402" height="2.893" transform="translate(16.643 163.534)"/><rect class="e" width="13.402" height="2.893" transform="translate(16.643 201.297)"/><rect class="b" width="15.488" height="47.096" transform="translate(32.11 160.764)"/><rect class="e" width="13.402" height="2.893" transform="translate(33.122 163.534)"/><rect class="e" width="13.402" height="2.893" transform="translate(33.122 201.297)"/><rect class="b" width="15.488" height="47.096" transform="translate(48.589 160.764)"/><rect class="e" width="13.402" height="2.893" transform="translate(49.601 163.534)"/><rect class="e" width="13.402" height="2.893" transform="translate(49.601 201.297)"/><rect class="b" width="15.488" height="47.096" transform="translate(65.068 160.764)"/><rect class="e" width="13.402" height="2.893" transform="translate(66.08 163.534)"/><rect class="e" width="13.402" height="2.893" transform="translate(66.08 201.297)"/><rect class="b" width="15.488" height="47.096" transform="translate(81.537 160.764)"/><rect class="e" width="13.402" height="2.893" transform="translate(82.549 163.534)"/><rect class="e" width="13.402" height="2.893" transform="translate(82.549 201.297)"/><rect class="b" width="15.488" height="47.096" transform="translate(66.223 258.8)"/><rect class="e" width="13.402" height="2.893" transform="translate(67.235 261.571)"/><rect class="e" width="13.402" height="2.893" transform="translate(67.235 299.344)"/><rect class="b" width="15.488" height="47.096" transform="translate(82.692 258.8)"/><rect class="e" width="13.402" height="2.893" transform="translate(83.704 261.571)"/><rect class="e" width="13.402" height="2.893" transform="translate(83.704 299.344)"/><rect class="b" width="15.488" height="47.096" transform="translate(99.171 258.8)"/><rect class="e" width="13.402" height="2.893" transform="translate(100.183 261.571)"/><rect class="e" width="13.402" height="2.893" transform="translate(100.183 299.344)"/><rect class="b" width="15.488" height="47.096" transform="translate(115.651 258.8)"/><rect class="e" width="13.402" height="2.893" transform="translate(116.663 261.571)"/><rect class="e" width="13.402" height="2.893" transform="translate(116.663 299.344)"/><rect class="b" width="15.488" height="47.096" transform="translate(132.13 258.8)"/><rect class="e" width="13.402" height="2.893" transform="translate(133.142 261.571)"/><rect class="e" width="13.402" height="2.893" transform="translate(133.142 299.344)"/><rect class="b" width="15.488" height="47.096" transform="translate(98.016 160.764)"/><rect class="e" width="13.402" height="2.893" transform="translate(99.028 163.534)"/><rect class="e" width="13.402" height="2.893" transform="translate(99.028 201.297)"/><rect class="b" width="15.488" height="47.096" transform="translate(114.495 160.764)"/><rect class="e" width="13.402" height="2.893" transform="translate(115.507 163.534)"/><rect class="e" width="13.402" height="2.893" transform="translate(115.507 201.297)"/><rect class="b" width="15.488" height="47.096" transform="translate(130.821 160.764)"/><rect class="e" width="13.402" height="2.893" transform="translate(131.833 163.534)"/><rect class="e" width="13.402" height="2.893" transform="translate(131.833 201.297)"/><rect class="b" width="15.488" height="47.096" transform="translate(147.147 160.764)"/><rect class="e" width="13.402" height="2.893" transform="translate(148.159 163.534)"/><rect class="e" width="13.402" height="2.893" transform="translate(148.159 201.297)"/><path class="b" d="M285.21,267.083l-14.833,4.14-14.537-45.1,14.833-4.14Z" transform="translate(-79.057 -62.29)"/><path class="e" d="M271.349,227.62l-12.84,3.588-.889-2.77,12.83-3.588Z" transform="translate(-79.017 -62.226)"/><path class="e" d="M282.749,263.01l-12.83,3.578-.889-2.77,12.83-3.578Z" transform="translate(-78.763 -61.437)"/><rect class="b" width="15.488" height="47.096" transform="translate(163.473 160.764)"/><rect class="e" width="13.402" height="2.893" transform="translate(164.485 163.534)"/><rect class="e" width="13.402" height="2.893" transform="translate(164.485 201.297)"/><rect class="b" width="15.488" height="47.096" transform="translate(64.659 209.782)"/><rect class="e" width="13.402" height="2.893" transform="translate(65.671 212.553)"/><rect class="e" width="13.402" height="2.893" transform="translate(65.671 250.316)"/><rect class="b" width="15.488" height="47.096" transform="translate(81.128 209.782)"/><rect class="e" width="13.402" height="2.893" transform="translate(82.14 212.553)"/><rect class="e" width="13.402" height="2.893" transform="translate(82.14 250.316)"/><rect class="b" width="15.488" height="47.096" transform="translate(97.607 209.782)"/><rect class="e" width="13.402" height="2.893" transform="translate(98.619 212.553)"/><rect class="e" width="13.402" height="2.893" transform="translate(98.619 250.316)"/><rect class="b" width="15.488" height="47.096" transform="translate(114.086 209.782)"/><rect class="e" width="13.402" height="2.893" transform="translate(115.099 212.553)"/><rect class="e" width="13.402" height="2.893" transform="translate(115.099 250.316)"/><rect class="b" width="15.488" height="47.096" transform="translate(130.566 209.782)"/><rect class="e" width="13.402" height="2.893" transform="translate(131.578 212.553)"/><rect class="e" width="13.402" height="2.893" transform="translate(131.578 250.316)"/><rect class="b" width="15.488" height="47.096" transform="translate(147.035 209.782)"/><rect class="e" width="13.402" height="2.893" transform="translate(148.047 212.553)"/><rect class="e" width="13.402" height="2.893" transform="translate(148.047 250.316)"/><rect class="b" width="15.488" height="47.096" transform="translate(163.514 209.782)"/><rect class="e" width="13.402" height="2.893" transform="translate(164.526 212.553)"/><rect class="e" width="13.402" height="2.893" transform="translate(164.526 250.316)"/><rect class="b" width="15.488" height="47.096" transform="translate(221.109 209.782)"/><rect class="e" width="13.402" height="2.893" transform="translate(222.121 212.553)"/><rect class="e" width="13.402" height="2.893" transform="translate(222.121 250.316)"/><rect class="b" width="15.488" height="47.096" transform="translate(237.578 209.782)"/><rect class="e" width="13.402" height="2.893" transform="translate(238.6 212.553)"/><rect class="e" width="13.402" height="2.893" transform="translate(238.6 250.316)"/><rect class="b" width="15.488" height="47.096" transform="translate(254.057 209.782)"/><rect class="e" width="13.402" height="2.893" transform="translate(255.069 212.553)"/><rect class="e" width="13.402" height="2.893" transform="translate(255.069 250.316)"/><rect class="b" width="15.488" height="47.096" transform="translate(270.536 209.782)"/><rect class="e" width="13.402" height="2.893" transform="translate(271.548 212.553)"/><rect class="e" width="13.402" height="2.893" transform="translate(271.548 250.316)"/><rect class="b" width="15.488" height="47.096" transform="translate(287.015 209.782)"/><rect class="e" width="13.402" height="2.893" transform="translate(288.027 212.553)"/><rect class="e" width="13.402" height="2.893" transform="translate(288.027 250.316)"/><rect class="b" width="15.488" height="47.096" transform="translate(303.484 209.782)"/><rect class="e" width="13.402" height="2.893" transform="translate(304.507 212.553)"/><rect class="e" width="13.402" height="2.893" transform="translate(304.507 250.316)"/><rect class="b" width="15.488" height="47.096" transform="translate(319.964 209.782)"/><rect class="e" width="13.402" height="2.893" transform="translate(320.976 212.553)"/><rect class="e" width="13.402" height="2.893" transform="translate(320.976 250.316)"/><rect class="b" width="15.488" height="47.096" transform="translate(140.226 60.785)"/><rect class="e" width="13.402" height="2.893" transform="translate(141.238 63.555)"/><rect class="e" width="13.402" height="2.893" transform="translate(141.238 101.318)"/><rect class="b" width="15.488" height="47.096" transform="translate(157.799 60.785)"/><rect class="e" width="13.402" height="2.893" transform="translate(158.811 63.555)"/><rect class="e" width="13.402" height="2.893" transform="translate(158.811 101.318)"/><rect class="b" width="15.488" height="47.096" transform="translate(175.372 60.785)"/><rect class="e" width="13.402" height="2.893" transform="translate(176.384 63.555)"/><rect class="e" width="13.402" height="2.893" transform="translate(176.384 101.318)"/><rect class="b" width="15.488" height="47.096" transform="translate(192.945 60.785)"/><rect class="e" width="13.402" height="2.893" transform="translate(193.957 63.555)"/><rect class="e" width="13.402" height="2.893" transform="translate(193.957 101.318)"/><path class="b" d="M166.757,220.076l-6.246,1.554-12.9-44.776,6.246-1.554Z" transform="translate(-81.468 -63.33)"/><path class="e" d="M154.945,180.73l-5.4,1.339-.787-2.75,5.4-1.339Z" transform="translate(-81.443 -63.27)"/><path class="e" d="M165.065,215.85l-5.4,1.349-.787-2.75,5.387-1.349Z" transform="translate(-81.217 -62.487)"/><rect class="b" width="6.461" height="46.36" transform="translate(84.573 111.96)"/><rect class="e" width="5.592" height="2.842" transform="translate(84.992 114.679)"/><rect class="e" width="5.592" height="2.842" transform="translate(84.992 151.86)"/><rect class="b" width="6.461" height="46.36" transform="translate(91.525 111.96)"/><rect class="e" width="5.592" height="2.842" transform="translate(91.944 114.679)"/><rect class="e" width="5.592" height="2.842" transform="translate(91.944 151.86)"/><path class="e" d="M101,204.32a17.706,17.706,0,0,1,0,13.484h44.868s5.541-1.431,5.541-6.737a9.732,9.732,0,0,0-5.4-6.6Z" transform="translate(-82.507 -62.683)"/><path class="h" d="M148.02,205.464c-1.953-1.125-3.742-1.022-5.991-1.022H126.695l-21.468-.072c-.348,0-3.834.307-3.987,0a13.771,13.771,0,0,1,.879,2.76H147v10.223a7.043,7.043,0,0,0,4.457-6.307,5.868,5.868,0,0,0-2.975-5.347Z" transform="translate(-82.502 -62.682)"/><path class="b" d="M144.241,219.706H99.169a1.441,1.441,0,0,1,0-2.873h45.072a5.531,5.531,0,1,0,.48-11.051H99.578a1.431,1.431,0,1,1,0-2.862h44.663a8.393,8.393,0,0,1,0,16.786Z" transform="translate(-82.577 -62.714)"/><path class="e" d="M149.289,188.07a17.8,17.8,0,0,0,0,13.484H104.421s-5.541-1.431-5.541-6.737a9.763,9.763,0,0,1,5.4-6.6Z" transform="translate(-82.554 -63.045)"/><path class="h" d="M102.274,189.214c1.953-1.125,3.742-1.022,5.991-1.022H123.6l21.468-.061c.348,0,3.834.307,3.987,0a14.587,14.587,0,0,0-.889,2.77H103.337v10.284a7.064,7.064,0,0,1-4.457-6.307,5.888,5.888,0,0,1,2.975-5.347Z" transform="translate(-82.554 -63.044)"/><path class="b" d="M106.183,203.456h44.98a1.441,1.441,0,0,0,0-2.873h-44.98a5.52,5.52,0,1,1,0-11.041h44.663a1.441,1.441,0,0,0,0-2.873H106.183a8.393,8.393,0,0,0,0,16.786Z" transform="translate(-82.578 -63.076)"/><path class="e" d="M361.67,253.22a17.8,17.8,0,0,1,0,13.484h44.868s5.561-1.441,5.561-6.737a9.732,9.732,0,0,0-5.4-6.6Z" transform="translate(-76.699 -61.594)"/><path class="h" d="M408.68,254.364c-1.953-1.125-3.742-1.022-5.991-1.022H387.355l-21.468-.061c-.348,0-3.834.3-3.987,0a13.769,13.769,0,0,1,.879,2.76h44.807v10.223a7.043,7.043,0,0,0,4.457-6.307,5.868,5.868,0,0,0-2.975-5.346Z" transform="translate(-76.694 -61.592)"/><path class="b" d="M404.921,268.606H359.859a1.441,1.441,0,0,1,0-2.873h45.072a5.52,5.52,0,1,0,0-11.041H360.257a1.441,1.441,0,0,1,0-2.873h44.663a8.393,8.393,0,1,1,0,16.786Z" transform="translate(-76.769 -61.625)"/><path class="e" d="M409.927,237a17.8,17.8,0,0,0,0,13.484H365.121s-5.541-1.431-5.541-6.737a9.763,9.763,0,0,1,5.4-6.6Z" transform="translate(-76.746 -61.955)"/><path class="h" d="M362.954,238.114c1.953-1.125,3.742-1.022,5.991-1.022h15.334l21.468-.061c.348,0,3.834.307,3.987,0a14.589,14.589,0,0,0-.889,2.77H364.017v10.284a7.064,7.064,0,0,1-4.457-6.307,5.888,5.888,0,0,1,2.975-5.347Z" transform="translate(-76.746 -61.954)"/><path class="b" d="M366.813,252.366h45.072a1.441,1.441,0,0,0,0-2.873H366.813a5.52,5.52,0,1,1,0-11.041h44.663a1.441,1.441,0,0,0,0-2.873H366.813a8.393,8.393,0,0,0,0,16.786Z" transform="translate(-76.772 -61.987)"/><path class="e" d="M360.65,346.75a17.706,17.706,0,0,1,0,13.484h44.868s5.541-1.431,5.541-6.737a9.722,9.722,0,0,0-5.408-6.6Z" transform="translate(-76.722 -59.51)"/><path class="h" d="M407.66,347.894c-1.953-1.125-3.742-1.022-5.991-1.022H386.335l-21.468-.072c-.358,0-3.834.307-3.987,0a13.77,13.77,0,0,1,.879,2.76h44.807v10.294a7.044,7.044,0,0,0,4.529-6.307,5.868,5.868,0,0,0-2.975-5.347Z" transform="translate(-76.717 -59.509)"/><path class="b" d="M403.9,362.136H358.859a1.441,1.441,0,0,1,0-2.873h45.072a5.531,5.531,0,1,0,.48-11.051H359.237a1.431,1.431,0,1,1,0-2.862H403.9a8.393,8.393,0,1,1,0,16.786Z" transform="translate(-76.791 -59.541)"/><path class="e" d="M408.927,330.5a17.8,17.8,0,0,0,0,13.484H364.121s-5.541-1.431-5.541-6.737a9.742,9.742,0,0,1,5.408-6.553Z" transform="translate(-76.768 -59.872)"/><path class="h" d="M361.9,331.644c1.953-1.125,3.742-1.022,5.991-1.022h15.283l21.468-.061c.348,0,3.834.307,3.987,0a14.484,14.484,0,0,0-.889,2.76H363v10.294a7.064,7.064,0,0,1-4.457-6.307,5.888,5.888,0,0,1,2.975-5.347Z" transform="translate(-76.769 -59.87)"/><path class="b" d="M365.793,345.886h45.072a1.441,1.441,0,0,0,0-2.873H365.793a5.52,5.52,0,1,1,0-11.041h44.674a1.441,1.441,0,0,0,0-2.873H365.793a8.393,8.393,0,0,0,0,16.786Z" transform="translate(-76.794 -59.903)"/><path class="e" d="M282.71,346.75a17.706,17.706,0,0,1,0,13.484h44.868s5.541-1.431,5.541-6.737a9.722,9.722,0,0,0-5.408-6.6Z" transform="translate(-78.458 -59.51)"/><path class="h" d="M329.72,347.894c-1.953-1.125-3.742-1.022-5.991-1.022H308.395l-21.468-.072c-.358,0-3.834.307-3.987,0a13.77,13.77,0,0,1,.879,2.76h44.807v10.294a7.044,7.044,0,0,0,4.467-6.307,5.858,5.858,0,0,0-2.985-5.347Z" transform="translate(-78.453 -59.509)"/><path class="b" d="M326.013,362.136H280.859a1.441,1.441,0,0,1,0-2.873h45.072a5.531,5.531,0,1,0,.48-11.051H281.3a1.431,1.431,0,1,1,0-2.862h44.715a8.393,8.393,0,1,1,0,16.786Z" transform="translate(-78.529 -59.541)"/><path class="e" d="M282.71,330.5a17.8,17.8,0,0,1,0,13.484h44.868s5.541-1.431,5.541-6.737a9.743,9.743,0,0,0-5.408-6.553Z" transform="translate(-78.458 -59.872)"/><path class="h" d="M329.72,331.644c-1.953-1.125-3.742-1.022-5.991-1.022H308.395l-21.468-.061c-.358,0-3.834.307-3.987,0a13.77,13.77,0,0,1,.879,2.76h44.807v10.294a7.043,7.043,0,0,0,4.457-6.307,5.858,5.858,0,0,0-2.985-5.347Z" transform="translate(-78.453 -59.87)"/><path class="b" d="M326.013,345.886H280.859a1.441,1.441,0,0,1,0-2.873h45.072a5.52,5.52,0,0,0,0-11.041H281.3a1.441,1.441,0,0,1,0-2.873h44.715a8.393,8.393,0,1,1,0,16.786Z" transform="translate(-78.529 -59.903)"/><path class="e" d="M97.42,346.75a17.706,17.706,0,0,1,0,13.484h44.868s5.541-1.431,5.541-6.737a9.722,9.722,0,0,0-5.408-6.6Z" transform="translate(-82.587 -59.51)"/><path class="h" d="M144.43,347.894c-1.953-1.125-3.742-1.022-5.991-1.022H123.1l-21.468-.072c-.358,0-3.834.307-3.987,0a13.77,13.77,0,0,1,.879,2.76h44.807v10.294a7.044,7.044,0,0,0,4.457-6.307,5.868,5.868,0,0,0-2.975-5.347Z" transform="translate(-82.582 -59.509)"/><path class="b" d="M140.671,362.136H95.6a1.441,1.441,0,0,1,0-2.873h45.072a5.531,5.531,0,1,0,.48-11.051H96.038a1.431,1.431,0,1,1,0-2.862H140.7a8.393,8.393,0,1,1,0,16.786Z" transform="translate(-82.657 -59.541)"/><path class="e" d="M145.719,330.5a17.8,17.8,0,0,0,0,13.484H100.851s-5.541-1.431-5.541-6.737a9.763,9.763,0,0,1,5.4-6.6Z" transform="translate(-82.634 -59.872)"/><path class="h" d="M98.7,331.644c1.953-1.125,3.742-1.022,5.991-1.022h15.334l21.468-.061c.348,0,3.834.307,3.987,0a14.485,14.485,0,0,0-.889,2.76H99.767v10.294a7.064,7.064,0,0,1-4.457-6.307,5.888,5.888,0,0,1,2.975-5.347Z" transform="translate(-82.634 -59.87)"/><path class="b" d="M102.563,345.886h45.072a1.441,1.441,0,0,0,0-2.873H102.563a5.52,5.52,0,1,1,0-11.041h44.674a1.441,1.441,0,0,0,0-2.873H102.563a8.393,8.393,0,1,0,0,16.786Z" transform="translate(-82.659 -59.903)"/><path class="e" d="M307.09,253.22a17.8,17.8,0,0,1,0,13.484h44.888s5.541-1.431,5.541-6.737a9.773,9.773,0,0,0-5.408-6.6Z" transform="translate(-77.915 -61.594)"/><path class="h" d="M354.1,254.364c-1.963-1.125-3.752-1.022-6-1.022H332.815l-21.468-.061c-.348,0-3.823.3-3.977,0a14.455,14.455,0,0,1,.879,2.76h44.807v10.223a7.064,7.064,0,0,0,4.457-6.307,5.9,5.9,0,0,0-2.985-5.347Z" transform="translate(-77.909 -61.592)"/><path class="b" d="M350.341,268.606H305.269a1.441,1.441,0,0,1,0-2.873h45.072a5.52,5.52,0,1,0,0-11.041H305.667a1.441,1.441,0,0,1,0-2.873h44.674a8.393,8.393,0,1,1,0,16.786Z" transform="translate(-77.985 -61.625)"/><path class="e" d="M355.379,237a17.89,17.89,0,0,0,0,13.484H310.511s-5.541-1.431-5.541-6.737a9.773,9.773,0,0,1,5.408-6.6Z" transform="translate(-77.962 -61.955)"/><path class="h" d="M308.364,238.114c1.963-1.125,3.752-1.022,6-1.022h15.283l21.468-.061c.348,0,3.823.307,3.977,0a15.336,15.336,0,0,0-.879,2.77H309.427v10.284a7.064,7.064,0,0,1-4.457-6.307,5.919,5.919,0,0,1,2.985-5.347Z" transform="translate(-77.962 -61.954)"/><path class="b" d="M312.183,252.366h45.072a1.441,1.441,0,0,0,0-2.873H312.183a5.52,5.52,0,0,1,0-11.041h44.674a1.441,1.441,0,0,0,0-2.873H312.183a8.393,8.393,0,0,0,0,16.786Z" transform="translate(-77.989 -61.987)"/><path class="f" d="M428.359,113.69H82.91v12.881h4.672v314.31H95.1v-4.242h323.93v4.242h7.463V126.54h1.871ZM143.593,276.355H419.026v42.69H143.593Zm-48.5-6.44v-42.69h323.93v42.69Zm0-49.131v-42.69h323.93v42.69ZM297.681,126.54v45.113H95.1V126.54ZM95.1,368.176v-42.69h323.93v42.69Z" transform="translate(-82.91 -64.702)"/><path class="i" d="M428.359,113.69H82.91v12.881h4.672v314.31H95.1v-4.242h323.93v4.242h7.463V126.54h1.871ZM143.593,276.355H419.026v42.69H143.593Zm-48.5-6.44v-42.69h323.93v42.69Zm0-49.131v-42.69h323.93v42.69ZM297.681,126.54v45.113H95.1V126.54ZM95.1,368.176v-42.69h323.93v42.69Z" transform="translate(-82.91 -64.702)"/><ellipse class="e" cx="5.142" cy="4.784" rx="5.142" ry="4.784" transform="translate(263.799 78.644)"/><ellipse class="e" cx="5.142" cy="4.784" rx="5.142" ry="4.784" transform="translate(283.632 78.644)"/></g><g transform="translate(147.474 126.368)"><path class="j" d="M220.133,415.275l-1.707,2.556,2.556,1.707-1.7,2.842,2.269,1.983-4.263,2.842,2.269,1.421L219,430.62l2.269,1.135-2.269,3.4H149.4l-1.421-3.4,1.707-1.993-2.556-1.421,3.977-1.135-2.556-1.707,2.832-1.135-3.69-1.421,9.374-2.842-10.509-1.7,3.4-25.853,69.086,11.879Z" transform="translate(-144.209 -117.622)"/><path class="h" d="M217.025,418.26s-32.713,3.517-52.75,1.022l10.223,2.464L155.5,422.768l17.972,2.811-18.984,1.758,15.12,3.169-17.951,1.482h65.048l-14.741-3.537,8.792-1.4-8.1-1.411,14.772-1.4-15.12-.705,14.026-1.452-15.12-.705S208.938,420.039,217.025,418.26Z" transform="translate(-144.095 -117.049)"/><path class="e" d="M144.26,418.261s42.118,1.871,75.925-2.954L219.1,398.838l-71.018-6.788Z" transform="translate(-144.26 -117.633)"/><g class="k" transform="translate(0 274.417)"><path class="l" d="M144.26,418.261s42.118,1.871,75.925-2.954L219.1,398.838l-71.018-6.788Z" transform="translate(-144.26 -392.05)"/></g><path class="m" d="M144.26,418.261s42.118,1.871,75.925-2.954L219.1,398.838l-71.018-6.788Z" transform="translate(-144.26 -117.633)"/><line class="n" x1="1.268" y2="13.423" transform="translate(15.406 278.977)"/><line class="n" x1="0.419" y2="13.852" transform="translate(26.743 279.815)"/><line class="n" x1="0.419" y2="13.433" transform="translate(37.231 281.072)"/><line class="n" y2="10.918" transform="translate(47.311 284.006)"/><line class="n" x2="0.419" y2="8.393" transform="translate(58.638 286.531)"/><line class="n" x2="0.419" y2="6.716" transform="translate(68.718 288.208)"/><path class="e" d="M220.491,387.3s-56.052,24.739-76.211,31.456l3.8-26.242,56.532-23.39Z" transform="translate(-144.26 -118.144)"/><g class="o" transform="translate(0.02 250.976)"><path class="l" d="M173.827,406.883c22.214-7.207,46.146-19.587,46.146-19.587L204.067,369.12,166.6,382.287Z" transform="translate(-143.783 -369.12)"/></g><path class="n" d="M220.491,387.3s-56.052,24.739-76.211,31.456l3.8-26.242,56.532-23.39Z" transform="translate(-144.26 -118.144)"/><path class="e" d="M165.947,389.683l54.263-2.269-10.8-23.574-53.4.286Z" transform="translate(-143.998 -118.261)"/><g class="p" transform="translate(12.012 245.579)"><path class="l" d="M165.947,389.683l54.263-2.269-10.8-23.574-53.4.286Z" transform="translate(-156.01 -363.84)"/></g><path class="n" d="M165.947,389.683l54.263-2.269-10.8-23.574-53.4.286Z" transform="translate(-143.998 -118.261)"/><line class="n" x2="5.04" y2="16.786" transform="translate(26.324 249.596)"/><line class="n" x2="5.04" y2="17.634" transform="translate(35.974 248.748)"/><line class="n" x2="4.61" y2="16.796" transform="translate(45.635 248.329)"/><line class="n" x2="5.04" y2="16.377" transform="translate(55.704 248.329)"/><path class="q" d="M221.584,299.386l16.254,56.634-6.5,2.147L201.69,293.886S212.935,290.216,221.584,299.386Z" transform="translate(-142.98 -119.836)"/><path class="r" d="M237.518,354.69s4.2,7.074,4.2,9.436-7.606,2.1-11.01,2.617-10.8,5.469-13.862,4.161c0,0-1.83-1.022,0-3.149s10.335-6.2,14.21-10.959Z" transform="translate(-142.661 -118.465)"/><path class="f" d="M290.5,153.195c0,1.022-1.186,1.983-1.288,3s.859,2.2.644,3.19-1.564,1.7-1.881,2.658.378,2.331,0,3.261-1.891,1.329-2.392,2.208-.123,2.351-.716,3.179-2.126.9-2.811,1.656-.6,2.28-1.36,2.965-2.259.44-3.067,1.022-1.022,2.106-1.942,2.617-2.3,0-3.23.378-1.472,1.84-2.443,2.157-2.249-.521-3.251-.317-1.82,1.493-2.842,1.6-2.045-1.022-3.067-1.022-2.106,1.084-3.067,1.022-1.861-1.39-2.842-1.6-2.29.624-3.251.307-1.513-1.738-2.443-2.147-2.361.123-3.241-.378-1.114-2.045-1.942-2.617-2.331-.368-3.067-1.022-.675-2.208-1.349-2.965-2.208-.838-2.811-1.656-.2-2.3-.716-3.179-1.983-1.278-2.392-2.208.276-2.29,0-3.261-1.677-1.656-1.881-2.658.746-2.167.644-3.19-1.288-1.963-1.288-3,1.186-2.045,1.288-3-.859-2.208-.644-3.2,1.564-1.687,1.881-2.658-.378-2.331,0-3.251,1.891-1.329,2.392-2.208.123-2.361.716-3.179,2.126-.9,2.811-1.656.6-2.28,1.36-2.965,2.259-.44,3.067-1.022,1.022-2.106,1.942-2.617,2.3,0,3.23-.378,1.472-1.84,2.443-2.157,2.249.521,3.251.307,1.82-1.493,2.842-1.595,2.045,1.022,3.067,1.022,2.106-1.084,3.067-1.022,1.83,1.411,2.852,1.595,2.29-.613,3.251-.307,1.513,1.748,2.443,2.157,2.361-.133,3.241.378,1.114,2.045,1.942,2.617,2.331.358,3.067,1.022.675,2.208,1.349,2.965,2.208.828,2.811,1.656.2,2.3.716,3.179,1.983,1.268,2.392,2.208-.276,2.28,0,3.261,1.677,1.646,1.881,2.658-.746,2.167-.644,3.19S290.5,152.162,290.5,153.195Z" transform="translate(-142.323 -123.614)"/><path class="r" d="M238.158,190.983s-10.223,22.674-15.334,34.931-1.257,22.736,2.045,23.9c3.466,1.227,28.552-7.7,34.512-10.008,5.663-2.2,5.725-2.045,5.725-2.045s.409,18.994.409,21.243-4.089,10.417-3.68,12.871,5.929,7.156,22.265,8.781,25.741-2.249,27.366-4.5,1.636-5.111,1.636-9.6-2.249-30.024-5.51-50.092-11.848-28.624-15.937-30.842-11.03.818-17.972,5.51-10.826,13.893-11.848,16.356-20.63,18.79-22.061,20.221,2.862-35.136,2.862-35.136Z" transform="translate(-142.565 -122.248)"/><line class="n" x2="5.623" y2="1.973" transform="translate(93.896 72.568)"/><path class="r" d="M239.406,226.82a69.079,69.079,0,0,1-1.636,9.8" transform="translate(-142.177 -121.314)"/><line class="n" x1="2.453" y1="16.96" transform="translate(120.108 98.554)"/><path class="r" d="M268.446,191.876s-5.919,14.312-4.692,14.312,3.885-4.5,3.885-4.5l3.466,6.952s.613-16.356.2-16.96S269.264,189.668,268.446,191.876Z" transform="translate(-141.601 -122.119)"/><path class="s" d="M262.35,185.433s6.328,8.781,6.941,11.245,1.227,14.312,1.84,12.267,12.462-22.879,12.666-23.9-3.476-7.555-3.476-7.555-8.178,5.919-12.042,6.941A25.886,25.886,0,0,1,262.35,185.433Z" transform="translate(-141.629 -122.413)"/><path class="n" d="M262.35,185.433s6.328,8.781,6.941,11.245,1.227,14.312,1.84,12.267,12.462-22.879,12.666-23.9-3.476-7.555-3.476-7.555-8.178,5.919-12.042,6.941A25.886,25.886,0,0,1,262.35,185.433Z" transform="translate(-141.629 -122.413)"/><path class="r" d="M271.962,199.04l-1.022,9.4,4.907-6.543Z" transform="translate(-141.438 -121.933)"/><path class="r" d="M271.94,199.454l4.089,5.929,14.3-20.221-5.52-4.7Z" transform="translate(-141.415 -122.347)"/><path class="e" d="M276.91,162.657s1.022-5.306,3.261-4.9,2.045,4.488.818,7.35a26.812,26.812,0,0,1-1.636,3.466Z" transform="translate(-141.305 -122.853)"/><g class="t" transform="translate(135.605 34.885)"><path class="l" d="M276.91,162.657s1.022-5.306,3.261-4.9,2.045,4.488.818,7.35a26.812,26.812,0,0,1-1.636,3.466Z" transform="translate(-276.91 -157.738)"/></g><path class="n" d="M276.91,162.657s1.022-5.306,3.261-4.9,2.045,4.488.818,7.35a26.812,26.812,0,0,1-1.636,3.466Z" transform="translate(-141.305 -122.853)"/><path class="e" d="M250.415,170.363s-3.261-3.067-3.874,1.227,6.328,5.111,6.328,5.111Z" transform="translate(-141.982 -122.596)"/><g class="u" transform="translate(104.52 46.706)"><path class="l" d="M250.415,170.363s-3.261-3.067-3.874,1.227,6.328,5.111,6.328,5.111Z" transform="translate(-246.502 -169.302)"/></g><path class="n" d="M250.415,170.363s-3.261-3.067-3.874,1.227,6.328,5.111,6.328,5.111Z" transform="translate(-141.982 -122.596)"/><path class="v" d="M245.758,158.468s8.986,24.719,12.267,28.4,12.042,5.715,19.2.2,4.9-11.644,3.261-16.551-8.372-21.856-9.395-24.1-5.919-3.476-8.372-1.636-1.431,4.089-5.51,5.111-8.986-.613-11.245,2.453A5.5,5.5,0,0,0,245.758,158.468Z" transform="translate(-142.017 -123.162)"/><path class="n" d="M245.758,158.468s8.986,24.719,12.267,28.4,12.042,5.715,19.2.2,4.9-11.644,3.261-16.551-8.372-21.856-9.395-24.1-5.919-3.476-8.372-1.636-1.431,4.089-5.51,5.111-8.986-.613-11.245,2.453A5.5,5.5,0,0,0,245.758,158.468Z" transform="translate(-142.017 -123.162)"/><path class="r" d="M249.362,165.62l9.742-3.578a1.544,1.544,0,0,1,1.983.92h0l1.022,2.873a3.19,3.19,0,0,1-1.891,4.089l-6.645,2.433a3.179,3.179,0,0,1-4.089-1.891l-1.022-2.883a1.544,1.544,0,0,1,.91-1.983Z" transform="translate(-141.94 -122.759)"/><path class="r" d="M264.842,159.94l9.742-3.578a1.554,1.554,0,0,1,1.983.92h0l1.022,2.883a3.179,3.179,0,0,1-1.891,4.089l-6.645,2.443a3.19,3.19,0,0,1-4.089-1.9l-1.022-2.873a1.544,1.544,0,0,1,.91-1.983h0Z" transform="translate(-141.596 -122.886)"/><line class="w" y1="7.033" x2="2.842" transform="translate(111.081 42.799)"/><line class="w" x1="2.177" y2="5.52" transform="translate(113.923 40.632)"/><line class="w" y1="7.023" x2="2.852" transform="translate(127.141 36.614)"/><line class="w" x1="2.167" y2="5.52" transform="translate(129.993 34.437)"/><line class="n" y1="2.361" x2="6.43" transform="translate(117 36.982)"/><path class="n" d="M260.83,163.126a6.778,6.778,0,0,1,3.22-1.186" transform="translate(-141.663 -122.76)"/><path class="n" d="M264.31,157.763a7.923,7.923,0,0,1,7.964-3.22" transform="translate(-141.585 -122.928)"/><path class="n" d="M258.736,160.452a6.3,6.3,0,0,0-8.536.378" transform="translate(-141.9 -122.826)"/><path class="n" d="M261.83,171.452s.511,2.045.961,2.218c1.564.654,6.655-.634,6.563-2.924a7.157,7.157,0,0,0-.746-2.126" transform="translate(-141.64 -122.611)"/><path class="n" d="M264.47,178.278a7.933,7.933,0,0,0,6.44-2.648" transform="translate(-141.582 -122.455)"/><path class="e" d="M234.123,228.79s-2.842,31.813-14.486,63.637S156,367.135,156,367.135l9.937,25.557s37.211-28.113,54.825-69.587,18.186-93.457,18.186-93.457Z" transform="translate(-143.998 -121.27)"/><g class="x" transform="translate(12.002 107.52)"><path class="l" d="M216.25,297.283,224,311.114c13.167-38.847,13.637-81.466,13.637-81.466l-4.835-.859s-2.842,31.813-14.486,63.637C217.712,294.022,217.017,295.647,216.25,297.283Z" transform="translate(-154.658 -228.79)"/></g><path class="n" d="M234.123,228.79s-2.842,31.813-14.486,63.637S156,367.135,156,367.135l9.937,25.557s37.211-28.113,54.825-69.587,18.186-93.457,18.186-93.457Z" transform="translate(-143.998 -121.27)"/><path class="q" d="M186.893,284.449s-4.457,4.242-2.331,9.773,38.652,66.694,38.652,66.694l8.5-1.912s-16.99-55.653-20.18-62.451-5.735-11.041-7.851-12.533" transform="translate(-143.375 -120.04)"/><path class="r" d="M222.783,359.3s-10.826,7.432-15.508,9.344-3.179,4.253,0,4.253,15.334-1.493,20.446-2.126,7.861-.215,8.076-2.975-4.467-11.041-4.467-11.041Z" transform="translate(-142.922 -118.419)"/><path class="v" d="M242,172.081s0-5.306,1.227-6.328,7.156-3.885,8.372-3.271.2,1.431-.613,2.045-4.651,3.159-4.651,3.159l.572,5.827Z" transform="translate(-142.082 -122.749)"/><path class="n" d="M242,172.081s0-5.306,1.227-6.328,7.156-3.885,8.372-3.271.2,1.431-.613,2.045-4.651,3.159-4.651,3.159l.572,5.827Z" transform="translate(-142.082 -122.749)"/><path class="e" d="M251,179.022s3.067,0,3.67-.808,4.294-5.111,4.5-5.929,0-1.636-2.249-.818a4.8,4.8,0,0,0-2.862,2.862l-2.852.2Z" transform="translate(-141.882 -122.555)"/><g class="y" transform="translate(109.118 48.574)"><path class="l" d="M251,179.022s3.067,0,3.67-.808,4.294-5.111,4.5-5.929,0-1.636-2.249-.818a4.8,4.8,0,0,0-2.862,2.862l-2.852.2Z" transform="translate(-251 -171.129)"/></g><path class="n" d="M251,179.022s3.067,0,3.67-.808,4.294-5.111,4.5-5.929,0-1.636-2.249-.818a4.8,4.8,0,0,0-2.862,2.862l-2.852.2Z" transform="translate(-141.882 -122.555)"/><path class="v" d="M237.77,191.273s2.249-11.644,2.658-14.7,0-4.5,1.636-4.7a52.075,52.075,0,0,1,8.178.613c1.431.2,2.862.2,2.453,2.453s.818,7.156-.613,8.577a5.807,5.807,0,0,1-3.68,1.431s.818,2.045-1.625,3.271a19.82,19.82,0,0,1-3.271,1.431l-1.227,3.261Z" transform="translate(-142.177 -122.538)"/><path class="n" d="M237.77,191.273s2.249-11.644,2.658-14.7,0-4.5,1.636-4.7a52.075,52.075,0,0,1,8.178.613c1.431.2,2.862.2,2.453,2.453s.818,7.156-.613,8.577a5.807,5.807,0,0,1-3.68,1.431s.818,2.045-1.625,3.271a19.82,19.82,0,0,1-3.271,1.431l-1.227,3.261Z" transform="translate(-142.177 -122.538)"/><path class="n" d="M248.237,184.754l-.409-3.885-2.658-.409" transform="translate(-142.012 -122.347)"/><path class="n" d="M245.39,176.81s5.428.276,6.134.7.838,4.58.838,4.58" transform="translate(-142.007 -122.428)"/><line class="n" x2="7.258" y2="0.654" transform="translate(103.25 51.744)"/><path class="q" d="M284.92,278.726c-13.167-1.319-19.3-4.621-21.4-7.156l-1.84,2.31.215,1.7s-25.281-3.823-44.98-1.482-31.691,8.28-32.5,15.508l10.223,4.672c15.079,8.925,48.64,10.836,60.315,11.685s33.991,0,42.486-1.278,12.318-4.887,13.167-11.9c.705-5.786.828-14.751.848-17.706C308.32,277.325,299.335,280.188,284.92,278.726Z" transform="translate(-143.365 -120.317)"/><line class="z" x2="13.167" y2="11.685" transform="translate(119.372 156.334)"/><line class="z" x2="9.558" y2="3.609" transform="translate(121.498 156.978)"/><path class="r" d="M218.5,229.993s-16.356,5.306-21.468,12.267L177,206.756a97.466,97.466,0,0,1,30.229-2.862c15.723,1.227,26.14,12.267,30.433,19.423Z" transform="translate(-143.531 -121.829)"/><line class="n" x2="10.069" y2="18.462" transform="translate(48.988 88.424)"/><line class="n" x2="8.812" y2="16.786" transform="translate(58.638 86.747)"/><line class="n" x2="7.555" y2="14.69" transform="translate(68.299 86.328)"/><path class="r" d="M285.034,205.018s-2.249,5.715-1.84,9.2,1.636,26.354,1.636,26.354-18.585-1.227-25.945-3.885-13.678-5.725-13.678-5.725l-1.636,6.543s13.075,11.644,24.105,16.132,32.263,8.781,34.758,7.759,4.7-23.686,4.5-32.468.2-18.186-3.885-24.719" transform="translate(-142.047 -121.818)"/><line class="n" x1="1.687" y2="7.872" transform="translate(105.98 111.353)"/><path class="r" d="M283.93,239.81s4.9,5.919,7.555,7.555" transform="translate(-141.148 -121.025)"/><path class="v" d="M245.784,230.673a34.072,34.072,0,0,1-6.543-5.51c-2.648-3.067-4.283-3.067-7.964-3.271s-7.555-3.466-8.577-3.261-1.227,2.045-.2,3.067,6.134,3.68,6.134,3.68l-11.02,4.294a5.173,5.173,0,0,0,2.045,1.421c1.431.613,2.862,0,3.476.613s4.294,1.84,6.532,2.658,9.6-.409,9.6-.409l4.907,3.271Z" transform="translate(-142.626 -121.497)"/><path class="n" d="M245.784,230.673a34.072,34.072,0,0,1-6.543-5.51c-2.648-3.067-4.283-3.067-7.964-3.271s-7.555-3.466-8.577-3.261-1.227,2.045-.2,3.067,6.134,3.68,6.134,3.68l-11.02,4.294a5.173,5.173,0,0,0,2.045,1.421c1.431.613,2.862,0,3.476.613s4.294,1.84,6.532,2.658,9.6-.409,9.6-.409l4.907,3.271Z" transform="translate(-142.626 -121.497)"/></g><g transform="translate(233.453 311.663)"><path class="r" d="M235.2,307.69a33.326,33.326,0,0,1,0,26.7h94.305s11.634-2.883,11.634-13.412c0,0-1.993-9.374-11.368-13.065Z" transform="translate(-228.213 -304.807)"/><path class="h" d="M333.971,309.919c-4.089-2.229-7.861-1.993-12.595-2.045h-8.914l-23.216-.072-45.123-.112c-.736,0-8.056.6-8.372,0a26.518,26.518,0,0,1,1.85,5.469h94.172v20.4A14.21,14.21,0,0,0,341.127,321c.388-4.631-2.525-8.25-6.267-10.57A5.04,5.04,0,0,0,333.971,309.919Z" transform="translate(-228.2 -304.807)"/><line class="n" y2="20.987" transform="translate(103.593 5.878)"/><line class="n" x2="14.475" transform="translate(9.553 9.374)"/><line class="n" x2="16.193" transform="translate(14.092 11.368)"/><line class="n" x2="26.988" transform="translate(9.543 21.028)"/><line class="n" x1="12.216" transform="translate(91.07 10.509)"/><line class="n" x1="26.702" transform="translate(76.012 13.923)"/><line class="n" x1="9.088" transform="translate(64.082 13.923)"/><line class="n" x2="16.765" transform="translate(86.521 19.607)"/><line class="n" x2="10.795" transform="translate(8.981 24.719)"/><path class="f" d="M326.131,338.1H231.376a2.842,2.842,0,1,1-.337-5.674H326.11c6.5,0,11.787-4.907,11.787-10.938s-5.285-10.938-11.787-10.938H232.224a2.842,2.842,0,1,1,0-5.684h93.907c9.63,0,17.471,7.463,17.471,16.622S335.74,338.1,326.131,338.1Z" transform="translate(-228.365 -304.87)"/><path class="r" d="M336.709,339.89a33.418,33.418,0,0,0,0,26.7H242.4s-11.644-2.842-11.644-13.351c0,0,1.983-9.374,11.358-13.075Z" transform="translate(-228.312 -304.09)"/><path class="h" d="M237.9,342.149c4.089-2.229,7.872-2.045,12.594-2.045h8.914l23.216-.072,45.154-.133c.736,0,8.056.6,8.383,0a26.347,26.347,0,0,0-1.861,5.469H240.125v20.374a14.2,14.2,0,0,1-9.364-12.451c-.4-4.631,2.515-8.26,6.267-10.581A5.952,5.952,0,0,1,237.9,342.149Z" transform="translate(-228.312 -304.09)"/><line class="n" y2="18.442" transform="translate(11.536 40.298)"/><line class="n" x1="14.486" transform="translate(91.356 42.333)"/><line class="n" x1="16.183" transform="translate(85.11 44.316)"/><line class="n" x1="26.988" transform="translate(78.854 53.976)"/><line class="n" x2="12.216" transform="translate(12.099 43.467)"/><line class="n" x2="26.702" transform="translate(12.671 46.872)"/><line class="n" x2="9.088" transform="translate(42.215 46.872)"/><line class="n" x1="16.765" transform="translate(12.099 52.555)"/><line class="n" x1="10.795" transform="translate(95.619 57.667)"/><path class="aa" d="M246,370.344h94.735a2.842,2.842,0,1,0,0-5.684H246c-6.5,0-11.787-4.907-11.787-10.938S239.5,342.784,246,342.784h93.886a2.842,2.842,0,1,0,.348-5.674H246c-9.63,0-17.471,7.452-17.471,16.612S236.371,370.344,246,370.344Z" transform="translate(-228.361 -304.152)"/><path class="r" d="M235.2,372.27a33.326,33.326,0,0,1,0,26.7h94.305s11.654-2.842,11.654-13.351c0,0-2.045-9.374-11.368-13.075Z" transform="translate(-228.213 -303.368)"/><path class="h" d="M333.971,374.529c-4.089-2.229-7.861-2.045-12.595-2.045h-8.914l-23.216-.061-45.154-.143c-.736,0-8.056.613-8.372,0a26.517,26.517,0,0,1,1.85,5.469h94.172v20.374a14.22,14.22,0,0,0,9.385-12.5c.388-4.631-2.525-8.25-6.267-10.581C334.585,374.856,334.3,374.744,333.971,374.529Z" transform="translate(-228.201 -303.368)"/><line class="n" y2="20.998" transform="translate(103.593 71.928)"/><line class="n" x2="14.475" transform="translate(9.553 75.434)"/><line class="n" x2="16.193" transform="translate(14.092 77.417)"/><line class="n" x2="26.988" transform="translate(9.543 87.078)"/><line class="n" x1="12.216" transform="translate(91.07 76.569)"/><line class="n" x1="26.702" transform="translate(76.012 79.973)"/><line class="n" x1="9.088" transform="translate(64.082 79.973)"/><line class="n" x2="16.765" transform="translate(86.521 85.657)"/><line class="n" x2="10.795" transform="translate(8.981 90.768)"/><path class="f" d="M326.127,402.724H231.372a2.842,2.842,0,1,1,0-5.684h94.755c6.5,0,11.787-4.907,11.787-10.938s-5.285-10.928-11.787-10.928H232.22a2.842,2.842,0,1,1,0-5.684h93.907c9.63,0,17.471,7.452,17.471,16.612S335.737,402.724,326.127,402.724Z" transform="translate(-228.361 -303.43)"/><path class="r" d="M336.709,404.5a33.418,33.418,0,0,0,0,26.7H242.4s-11.644-2.842-11.644-13.351c0,0,1.983-9.374,11.358-13.065Z" transform="translate(-228.312 -302.65)"/><path class="h" d="M237.9,406.739c4.089-2.229,7.872-1.993,12.594-2.045h8.914l23.216-.072,45.154-.133c.736,0,8.056.6,8.383,0a26.579,26.579,0,0,0-1.861,5.469H240.125V430.4a14.21,14.21,0,0,1-9.364-12.5c-.4-4.631,2.515-8.25,6.267-10.581Z" transform="translate(-228.312 -302.65)"/><line class="n" y2="18.442" transform="translate(11.536 106.348)"/><line class="n" x1="14.486" transform="translate(91.356 108.382)"/><line class="n" x1="16.183" transform="translate(85.11 110.376)"/><line class="n" x1="26.988" transform="translate(78.854 120.026)"/><line class="n" x2="12.216" transform="translate(12.099 109.517)"/><line class="n" x2="26.702" transform="translate(12.671 112.931)"/><line class="n" x2="9.088" transform="translate(42.215 112.931)"/><line class="n" x1="16.765" transform="translate(12.099 118.605)"/><line class="n" x1="10.795" transform="translate(95.619 123.727)"/><path class="aa" d="M246,434.954h94.735a2.842,2.842,0,1,0,0-5.684H246c-6.5,0-11.787-4.9-11.787-10.928S239.5,407.4,246,407.4h93.886a2.842,2.842,0,1,0,0-5.684H246c-9.63,0-17.471,7.452-17.471,16.622S236.371,434.954,246,434.954Z" transform="translate(-228.361 -302.712)"/></g><g transform="translate(56.052 443.905)"><line class="ab" x2="403.801"/></g></g></svg>