<svg xmlns="http://www.w3.org/2000/svg" width="100" height="100" viewBox="0 0 100 100"><defs><style>.a{fill:none;}.b{fill:#344154;}</style></defs><g transform="translate(-448.29 -303.914)"><rect class="a" width="100" height="100" transform="translate(448.29 303.914)"/><path class="b" d="M524.114,358.7h-1.84c-.467,0-.557-.091-.56-.554q-.006-1.135,0-2.272c0-.447.112-.553.57-.559.4-.006.793,0,1.28,0-.225-.48-.411-.914-.629-1.332a10.958,10.958,0,0,1-1.344-5.719,9.531,9.531,0,0,1,.4-2.388,4.294,4.294,0,0,1,3.5-3.024,6.855,6.855,0,0,1,3.51.173,4.467,4.467,0,0,1,3.126,3.943,32.757,32.757,0,0,1,.135,3.544c.008.325-.181.465-.5.464h-2.975c-.377,0-.5-.2-.5-.55q.006-1.092-.005-2.19a3.7,3.7,0,0,0-.05-.656,1.081,1.081,0,0,0-1.125-1.034,1.035,1.035,0,0,0-.135.015,1.058,1.058,0,0,0-1.169.936,1.1,1.1,0,0,0-.007.129,9.5,9.5,0,0,0,.709,4.724c.369.919.748,1.834,1.147,2.74a.48.48,0,0,0,.368.211c.95.019,1.9.009,2.85.012.491,0,.612.117.615.6q.008,1.092,0,2.19c0,.485-.1.588-.579.588-.853,0-1.707.01-2.561,0-.258,0-.364.065-.452.336-.242.747-.546,1.476-.833,2.234h4.36c.539,0,.646.114.647.662v2.6c0,.474-.115.588-.588.588h-9.626c-.441,0-.571-.121-.575-.56-.008-.881,0-1.763,0-2.644,0-.3.1-.5.445-.519A2.6,2.6,0,0,0,524.114,358.7Zm7.358-8.543a12.31,12.31,0,0,0-.324-3.947,3.518,3.518,0,0,0-2.716-2.505,8.432,8.432,0,0,0-1.841-.168,3.923,3.923,0,0,0-4.1,3.571,10.2,10.2,0,0,0,1.039,6.25c.336.663.635,1.344.924,2.029.213.512.054.716-.5.717h-1.42v1.807h1.912c.355,0,.534.147.521.523a3.632,3.632,0,0,1-2.648,3.7c-.09.018-.224.142-.226.22-.019.643-.01,1.285-.01,1.932h9.155v-2.222h-.485c-1.556,0-3.112.009-4.668-.011-.186,0-.474-.115-.525-.252a.653.653,0,0,1,.223-.536,4.267,4.267,0,0,0,1.307-2.2c.281-1.15.281-1.15,1.463-1.151h2.108v-1.8h-.477c-.868,0-1.735-.012-2.6,0a.534.534,0,0,1-.6-.426c-.248-.714-.56-1.4-.818-2.115a27.926,27.926,0,0,1-.966-2.845,7.68,7.68,0,0,1-.135-3.48,2.038,2.038,0,0,1,3.878-.135,5.307,5.307,0,0,1,.152,1.223c.024.6.006,1.2.006,1.824Z"/><path class="b" d="M464.764,356.862c-.863-.168-.863-.168-.869-1.06v-.908c.005-.53.065-.588.588-.614.068,0,.135-.01.243-.02v-.84c-.022-.016-.042-.043-.064-.046-.767-.077-.767-.077-.769-.875v-.991c0-.573.063-.639.626-.672a2.016,2.016,0,0,0,.245-.035c0-.3-.007-.583,0-.867a25.18,25.18,0,0,1,.123-3.131c.477-3.033,2.352-4.546,5.433-4.49a5.153,5.153,0,0,1,3.925,1.525,5.586,5.586,0,0,1,1.36,3.512c.058.781.029,1.569.042,2.352a.443.443,0,0,1-.365.51.463.463,0,0,1-.139,0h-3.056c-.336,0-.5-.168-.494-.514.009-.588.007-1.185,0-1.776a4.666,4.666,0,0,0-.062-.657,1.048,1.048,0,0,0-1.065-1.031.877.877,0,0,0-.1.006c-.773-.017-1.2.252-1.276.986-.091.832-.07,1.675-.091,2.514-.01.341,0,.684,0,1.073.175.008.32.021.466.022h3.717c.553,0,.64.1.641.655v1.281c-.005.471-.109.58-.588.582-1.225,0-2.451,0-3.676,0h-.527v.924h4.2c.481,0,.588.1.588.576q.006.682,0,1.363c0,.452-.132.588-.593.588-1.281.006-2.561,0-3.842,0-.108,0-.216.012-.324.018-.022.05-.054.084-.054.121,0,1.1-.021,2.2.023,3.3.039.953.488,1.337,1.386,1.3a1,1,0,0,0,1.086-.9v-.013a13.387,13.387,0,0,0,.089-1.563c.013-.386,0-.771,0-1.157a.41.41,0,0,1,.35-.462.416.416,0,0,1,.106,0h3.14c.252,0,.446.117.447.382a13.026,13.026,0,0,1-.374,4.379,4.491,4.491,0,0,1-3.6,3.148,6.549,6.549,0,0,1-4.123-.4,4.867,4.867,0,0,1-2.716-4.41c-.084-1.081-.045-2.174-.059-3.261C464.762,357.148,464.764,357,464.764,356.862Zm7.636,1.4c0,.208.006.384,0,.558-.022.6-.017,1.212-.084,1.813a1.821,1.821,0,0,1-.924,1.484,2.032,2.032,0,0,1-3.089-1.455c-.15-1.4-.084-2.83-.1-4.246,0-.3.2-.412.5-.41,1.28.008,2.561,0,3.841,0H473v-.924h-4.222c-.439,0-.567-.131-.573-.566q-.01-.7,0-1.4c.007-.44.125-.553.576-.553h4.2v-.919h-4.121c-.577,0-.66-.084-.661-.68,0-.716-.013-1.432,0-2.148a13.348,13.348,0,0,1,.1-1.764,1.756,1.756,0,0,1,1.569-1.574,1.936,1.936,0,0,1,2.389,1.339,2,2,0,0,1,.072.487c.039.354.048.713.057,1.07.009.336,0,.678,0,1.02h2.452a10.258,10.258,0,0,0-.351-3.581,3.634,3.634,0,0,0-2.414-2.418,5.9,5.9,0,0,0-3.54-.042,4.629,4.629,0,0,0-1.452.744,4,4,0,0,0-1.452,3.039c-.089,1.22-.061,2.448-.075,3.673-.01.781,0,.781-.786.854-.022,0-.041.033-.09.075v.549a1.934,1.934,0,0,0,.037.252,1.182,1.182,0,0,0,.168.03c.6.031.665.1.666.678v1.032c0,.761,0,.761-.774.84-.023,0-.044.03-.062.043v.849c.09.009.143.016.2.018.588.021.638.072.639.645,0,.454-.014.91,0,1.363a32.04,32.04,0,0,0,.172,3.249,3.68,3.68,0,0,0,2.184,3.006,5.851,5.851,0,0,0,3.036.4,3.794,3.794,0,0,0,3.478-2.5,4.776,4.776,0,0,0,.329-1.357c.052-.84.015-1.689.015-2.549Z"/><path class="b" d="M543.843,340.851a20.535,20.535,0,0,0-13.028-8.06,23.919,23.919,0,0,0-4.274-.4,21.306,21.306,0,0,0-14.589,5.894,21.207,21.207,0,0,0-14.022-5.87c-.286-.012-.575-.018-.864-.018a21.312,21.312,0,0,0-13.6,4.9,21.242,21.242,0,0,0-13.578-4.909c-.505,0-1.016.018-1.519.054a20.856,20.856,0,0,0-14.549,7.066,21.506,21.506,0,0,0-.5,28.228,20.792,20.792,0,0,0,13.829,7.521,21.282,21.282,0,0,0,16.318-4.74,21.316,21.316,0,0,0,13.591,4.9q.438,0,.878-.018a21.224,21.224,0,0,0,14.017-5.867,21.514,21.514,0,0,0,31.887-28.685Zm-9.554,31.456a19.726,19.726,0,0,1-21.153-3.982l1.411-1.731a17.377,17.377,0,0,0,14.816,4.724,16.941,16.941,0,0,0,10.894-6.114,17.429,17.429,0,0,0-1.028-23.7,17.138,17.138,0,0,0-12.241-5.181l-.281,0h-.05a17.476,17.476,0,0,0-12.109,4.917l-1.4-1.724a19.572,19.572,0,0,1,18.669-4.833,19.875,19.875,0,0,1,2.471,37.624Zm-15.63-32.138a15.951,15.951,0,0,1,23.63,10.047c.076.319.143.643.2.965a15.952,15.952,0,0,1-12.966,18.431,15.549,15.549,0,0,1-14.042-4.436l-.01-.01c4.289-7.5,4.285-15.065.005-22.509A15.352,15.352,0,0,1,518.659,340.169Zm-48.9,29.714a15.909,15.909,0,0,1-11.495-4.939c-.1-.108-.2-.214-.3-.322a15.927,15.927,0,0,1,21.638-23.24c-5.281,8.312-5.279,16.74.006,25.063A15.853,15.853,0,0,1,469.754,369.883Zm10.923-29.808a17.553,17.553,0,0,0-23.47,1.524,17.359,17.359,0,0,0-1.045,23.441,16.972,16.972,0,0,0,11.9,6.379,17.373,17.373,0,0,0,12.611-3.676l1.524,1.628a19.707,19.707,0,0,1-25.9-.88c-.128-.118-.252-.235-.374-.353a19.83,19.83,0,0,1-.446-28.007,19.738,19.738,0,0,1,26.722-1.688Zm36.353,13.686v.157a19.952,19.952,0,0,1-19.84,19.873h-.107a19.883,19.883,0,1,1,19.948-20.029Z"/><path class="b" d="M497.5,336.315l-.3,0h0a17.6,17.6,0,0,0-.295,35.2l.217,0a17.6,17.6,0,0,0,.377-35.2Zm-.289,33.772h0v-.21a15.968,15.968,0,0,1-.262-31.934h.168a15.968,15.968,0,0,1,.337,31.933l-.226,0-.008.21Z"/><path class="b" d="M495.452,364.408a4.16,4.16,0,0,1-3.018-2.609,10.322,10.322,0,0,1-.478-2.2,18.2,18.2,0,0,1-.035-1.9c-.007-.368.168-.53.523-.53h2.85a.45.45,0,0,1,.5.514c0,.509-.006,1.018,0,1.527a3.6,3.6,0,0,0,.067.655c.143.7.512.967,1.27.953a1.073,1.073,0,0,0,1.163-.975l0-.017a3.161,3.161,0,0,0-.728-2.778,23.082,23.082,0,0,0-2.07-1.947,11.048,11.048,0,0,1-2.511-2.657,7.107,7.107,0,0,1-.3-6.8,3.882,3.882,0,0,1,2.449-2.078c.24-.08.332-.186.314-.435-.019-.274,0-.55,0-.826a.412.412,0,0,1,.35-.465.45.45,0,0,1,.1,0q1.26-.008,2.52,0a.417.417,0,0,1,.463.5c-.15.822.185,1.176.95,1.519a4.492,4.492,0,0,1,2.477,3.93c.059.5.049,1.017.07,1.525.015.37-.148.568-.535.567-.95-.005-1.9,0-2.85,0-.316,0-.473-.157-.479-.487a11.258,11.258,0,0,0-.069-1.4,1.043,1.043,0,0,0-1.062-1.023,1.009,1.009,0,0,0-.155.015,1.028,1.028,0,0,0-1.123.921c0,.029,0,.058-.005.087a3.264,3.264,0,0,0,.858,2.94c.742.77,1.565,1.464,2.379,2.162a7.979,7.979,0,0,1,2.772,3.814,7.453,7.453,0,0,1-.175,4.788,4.164,4.164,0,0,1-2.669,2.575c-.3.1-.42.239-.385.555a5.852,5.852,0,0,1,0,.7.42.42,0,0,1-.37.465.394.394,0,0,1-.091,0q-1.259.011-2.519,0c-.322,0-.468-.182-.461-.5C495.459,365.131,495.452,364.775,495.452,364.408Zm.793-21.75c0,.324-.013.624,0,.924a.541.541,0,0,1-.445.625.38.38,0,0,1-.047.006,3.544,3.544,0,0,0-2.693,2.632,6.951,6.951,0,0,0-.048,3.671,6.356,6.356,0,0,0,2.076,3.162c.831.742,1.708,1.433,2.52,2.195a4.356,4.356,0,0,1,1.5,3.881,1.912,1.912,0,0,1-1.957,1.867h-.02a1.857,1.857,0,0,1-2.077-1.611,1.793,1.793,0,0,1-.015-.194,13.392,13.392,0,0,1-.051-1.359c0-.148,0-.3,0-.468h-2.245c0,.623-.045,1.217.008,1.8.168,1.816.924,3.4,3.086,3.877a.464.464,0,0,1,.4.52v.012c-.008.323,0,.646,0,.961H498.1c.012-.27.01-.541-.005-.811-.046-.442.14-.634.569-.735a3.415,3.415,0,0,0,2.432-1.99,6.29,6.29,0,0,0-1.344-7.047c-.831-.782-1.719-1.5-2.578-2.254a4.7,4.7,0,0,1-1.872-4.382,1.831,1.831,0,0,1,1.9-1.76l.068,0a1.848,1.848,0,0,1,1.99,1.694c0,.027,0,.055.005.082.04.353.054.71.084,1.086h2.268c-.032-.443-.045-.854-.094-1.259a3.76,3.76,0,0,0-3.036-3.6.436.436,0,0,1-.384-.482l0-.022c.013-.336,0-.677,0-1.028Z"/></g></svg>