<svg xmlns="http://www.w3.org/2000/svg" width="100" height="101.703" viewBox="0 0 100 101.703"><defs><style>.a,.e{fill:none;}.b{fill:#344154;}.c{isolation:isolate;}.d{fill:#344054;}.e{stroke:#344154;stroke-miterlimit:10;stroke-width:3.405px;}</style></defs><g transform="translate(-772.144 -733.975)"><rect class="a" width="100" height="100" transform="translate(772.144 733.975)"/><path class="b" d="M835.424,787.3a32.71,32.71,0,0,0-4.444-4.161,20.91,20.91,0,0,0-3.722-2.4,1.489,1.489,0,0,1-.908-1.6c.025-8.117-.015-16.231.048-24.349.011-1.216-.367-1.467-1.466-1.407-1.55.087-3.11,0-4.664.028-.746.013-.867-.2-.5-.843q5.246-9.048,10.461-18.115c.39-.681.593-.6.947.018q5.213,9.067,10.46,18.114c.386.666.215.844-.5.83-1.44-.027-2.885.054-4.322-.029-.99-.057-1.182.322-1.178,1.231q.047,15.361.023,30.721v1.816Z"/><path class="b" d="M811.939,750.272c2.091,3.613,4.086,7.048,6.068,10.483,1.611,2.787,3.194,5.588,4.836,8.355.454.76.326.954-.529.932-1.514-.039-3.03.009-4.539-.03-.682-.017-.935.2-.919.908.042,1.893-.005,3.789.03,5.683.012.681-.234.849-.874.742a22.894,22.894,0,0,0-7.239-.163c-1.117.17-1.249-.257-1.211-1.2.066-1.7,0-3.405.029-5.114.013-.642-.212-.863-.849-.853-1.781.03-3.561,0-5.342.017-.541,0-.836-.066-.479-.681C804.556,763.063,808.186,756.77,811.939,750.272Z"/><path class="b" d="M811.563,810.939v-.114c0-1.362.355-2.867-.1-4.055-.47-1.219-2.242-1.046-3.377-1.649a8.285,8.285,0,0,1-4.661-8.808,7.667,7.667,0,0,1,6.705-6.455c1.135-.2,1.7-.547,1.436-1.753-.277-1.255.594-1.027,1.341-1.1.919-.085,1.284.247,1.1,1.135-.26,1.233.353,1.549,1.464,1.749a7.6,7.6,0,0,1,6.109,5.3c.269.754.07,1.011-.7,1.06a27.011,27.011,0,0,0-2.933.341c-.567.1-.787-.051-.981-.594a4.245,4.245,0,0,0-2.27-2.419c-.436-.207-.681-.235-.681.386.016,2.5.01,5,0,7.506,0,.454.17.624.622.755,1.16.34,2.308.726,3.431,1.172a7.073,7.073,0,0,1,4.864,6.392,8.432,8.432,0,0,1-3.512,7.926,9.562,9.562,0,0,1-4.386,1.743c-.813.114-1.161.406-1.022,1.223a1.386,1.386,0,0,1,0,.454c-.066.431.241,1.106-.186,1.248a5.706,5.706,0,0,1-2.018.078c-.284-.014-.227-.341-.234-.556a11.683,11.683,0,0,1,.007-1.362c.065-.624-.183-.8-.794-.908a9.118,9.118,0,0,1-7.9-7.4c-.114-.528-.114-.735.492-.781,1.135-.084,2.262-.227,3.386-.381a.769.769,0,0,1,.958.516.6.6,0,0,1,.025.112,6.469,6.469,0,0,0,3.065,3.655c.533.3.794.315.772-.434C811.537,813.59,811.563,812.266,811.563,810.939Zm2.439.454c0,1.212.024,2.425-.01,3.632-.018.649.113.874.834.674a4.568,4.568,0,0,0,3.537-4.443,4.435,4.435,0,0,0-3.7-4.051c-.532-.114-.675.046-.669.545.021,1.22.01,2.435.01,3.645Zm-2.481-18.011a4.091,4.091,0,0,0-3.482,3.9,4.145,4.145,0,0,0,3.482,3.881Z"/><g class="c"><g class="c"><path class="d" d="M842.808,821.915h5.578v2.405h-5.578v6.32h-2.556v-6.32h-5.578v-2.405h5.578v-5.838h2.556Z"/></g></g><path class="b" d="M825.167,822.215a21.572,21.572,0,0,1-33.86-17.381c0-.079,0-.158,0-.236a21.535,21.535,0,0,1,43.064.17v0c0,.061,0,.121,0,.182a21.408,21.408,0,0,1-1.125,6.539l4.516,0a24.968,24.968,0,0,0,.9-6.494v-.144a25.639,25.639,0,0,0-25.771-25.507c-14.068-.082-25.77,11.272-25.858,25.1a25.625,25.625,0,0,0,25.423,25.757,26.506,26.506,0,0,0,12.709-3.113Q825.164,824.653,825.167,822.215Z"/><rect class="e" width="30.434" height="21.233" rx="2.009" transform="translate(826.824 812.742)"/></g></svg>