<svg xmlns="http://www.w3.org/2000/svg" width="100" height="100" viewBox="0 0 100 100"><defs><style>.a{fill:none;}.b{fill:#344154;}</style></defs><g transform="translate(-467.03 -393.055)"><rect class="a" width="100" height="100" transform="translate(467.03 393.055)"/><path class="b" d="M516.568,426.488a3.253,3.253,0,0,1-3.145,3.358h-.091c-2.591-.015-5.182-.009-7.769,0a1.863,1.863,0,0,0-.752.173c-1.277.6-2.557,1.2-3.812,1.847a14.7,14.7,0,0,1-6.726,1.559c-.989.007-1.977,0-3.036,0v1.191c-.005.735-.3,1.033-1.035,1.034h-6.7c-.747,0-1.038-.288-1.038-1.025V417.5c0-.746.289-1.039,1.024-1.04h6.738c.707,0,1,.3,1.009,1.017v1.207c.505,0,.991-.028,1.472.006a7.472,7.472,0,0,0,3.05-.5,77.179,77.179,0,0,1,9.217-2.723,14.676,14.676,0,0,1,10.731,1.457c2.3,1.3,4.562,2.657,6.864,3.948q4.058,2.276,8.155,4.477a3.446,3.446,0,0,1,1.36,4.378A3.1,3.1,0,0,1,528,431.316h0l-11.039-4.687C516.84,426.584,516.717,426.542,516.568,426.488Zm-25.314,5.27c1.18,0,2.315.022,3.448-.005a12.931,12.931,0,0,0,5.567-1.369q2.018-1.011,4.063-1.963a2.433,2.433,0,0,1,.982-.22c2.669-.018,5.338-.009,8.007-.01a1.558,1.558,0,0,0,1.547-1.359,1.229,1.229,0,0,0-1.021-1.406,1.135,1.135,0,0,0-.233-.015H504.42a3.707,3.707,0,0,1-2.462-.939,2.7,2.7,0,0,1-.932-1.825.834.834,0,0,1,.719-.935.846.846,0,0,1,.928.631,1.672,1.672,0,0,0,1.843,1.414q4.757,0,9.512.005a1.752,1.752,0,0,1,.653.114c1.439.6,2.871,1.206,4.3,1.815q4.772,2.029,9.54,4.065a1.427,1.427,0,0,0,1.366.01,1.6,1.6,0,0,0,.829-1.483,1.651,1.651,0,0,0-.864-1.5c-1.511-.813-3.05-1.576-4.54-2.424-3.073-1.755-6.116-3.555-9.184-5.317a17.94,17.94,0,0,0-4.539-1.932,14.867,14.867,0,0,0-6.791.122A73.688,73.688,0,0,0,495.56,420a5.447,5.447,0,0,1-2.084.349c-.734-.033-1.471-.008-2.223-.008Zm-7.087-13.624v15.839h5.35V418.134Z"/><path class="b" d="M517.486,459.662a3.276,3.276,0,0,1,2.325-3.244,2.193,2.193,0,0,1,.736-.115c2.616-.009,5.232,0,7.847-.015a2.34,2.34,0,0,0,.943-.21c1.161-.539,2.32-1.087,3.454-1.679a15.133,15.133,0,0,1,7.173-1.69h2.86c0-.462,0-.854,0-1.245a.859.859,0,0,1,.722-.977.889.889,0,0,1,.247,0h6.817c.682,0,.984.308.984,1v17.2c0,.688-.3.986-1,.986h-6.777c-.681,0-.989-.308-1-.993-.005-.393,0-.787,0-1.231-.752,0-1.477.018-2.2-.006a4.473,4.473,0,0,0-1.66.279,79.321,79.321,0,0,1-9.508,2.851,16.429,16.429,0,0,1-6.641.286,13.817,13.817,0,0,1-4.152-1.505c-2.911-1.636-5.779-3.343-8.693-4.985-2.2-1.235-4.424-2.417-6.65-3.594a3.433,3.433,0,0,1-1.357-4.346,3.092,3.092,0,0,1,4.061-1.624l.014.006q5.5,2.332,11,4.67C517.177,459.543,517.311,459.591,517.486,459.662Zm25.319-5.28c-1.19,0-2.34-.026-3.483.006a12.433,12.433,0,0,0-5.169,1.2c-1.483.722-2.965,1.447-4.457,2.147a2.223,2.223,0,0,1-.907.2c-2.682.015-5.365.009-8.047.01a1.561,1.561,0,0,0-1.547,1.315,1.228,1.228,0,0,0,1.236,1.465c3.078,0,6.157-.006,9.235,0a3.641,3.641,0,0,1,2.541,1.04,2.71,2.71,0,0,1,.823,1.715.837.837,0,0,1-1.643.307,1.672,1.672,0,0,0-1.844-1.414c-3.158,0-6.317,0-9.474-.008a2.266,2.266,0,0,1-.836-.175c-1.33-.547-2.65-1.119-3.974-1.681q-4.863-2.067-9.726-4.137a1.444,1.444,0,0,0-1.435.031,1.756,1.756,0,0,0,.135,2.972c.924.482,1.865.935,2.77,1.452,3.313,1.892,6.614,3.806,9.92,5.71a24.556,24.556,0,0,0,4.931,2.327,14.425,14.425,0,0,0,7.4.049,75.173,75.173,0,0,0,9.243-2.777,5.454,5.454,0,0,1,2.085-.356c.733.033,1.471.008,2.223.008ZM544.53,468H549.9V452.161h-5.368Z"/><path class="b" d="M517.036,455.345a12.363,12.363,0,0,1-12.225-10.178,11.558,11.558,0,0,1,5.054-12.036,12.455,12.455,0,0,1,15.986,1.369,11.485,11.485,0,0,1,3.118,11.872,11.857,11.857,0,0,1-9.005,8.535A26.826,26.826,0,0,1,517.036,455.345Zm10.28-12.281c-.139-.844-.207-1.707-.427-2.53A10.188,10.188,0,0,0,514.9,433.28a10,10,0,0,0-7.87,11.754,9.9,9.9,0,0,0,.244.974,10.28,10.28,0,0,0,20.039-2.945Z"/><path class="b" d="M518.59,437.546c.5.161.946.292,1.379.444a.674.674,0,0,1,.484.7c0,.278.013.555-.006.831-.028.393-.14.445-.515.293a5.641,5.641,0,0,0-1.22-.451,7.121,7.121,0,0,0-1.72-.039.949.949,0,0,0-.866.807,1.028,1.028,0,0,0,.448,1.142,7.325,7.325,0,0,0,1.124.57c.532.23,1.086.4,1.614.649a2.692,2.692,0,0,1,1.755,3,2.9,2.9,0,0,1-2.069,2.6,15.082,15.082,0,0,1-1.564.418c-.052.5-.118,1.052-.161,1.6a.369.369,0,0,1-.353.385h-.007c-1.033.173-1.235,0-1.152-1.021.027-.328.065-.655.1-1-.432-.119-.854-.213-1.26-.351a1.378,1.378,0,0,1-.984-1.683,1.345,1.345,0,0,1,.094-.255c.128-.335.366-.236.586-.112a4.735,4.735,0,0,0,2.646.681,3.9,3.9,0,0,0,1-.187,1.149,1.149,0,0,0,.813-.983,1.065,1.065,0,0,0-.554-1.14c-.469-.261-.977-.455-1.47-.668-.458-.2-.937-.363-1.378-.6a2.733,2.733,0,0,1-1.5-2.894,2.694,2.694,0,0,1,1.867-2.383,3.322,3.322,0,0,1,.875-.235c.345-.032.436-.187.443-.5a6.071,6.071,0,0,1,.124-1.14c.029-.136.215-.241.334-.353.024-.022.077-.011.116-.014,1.063-.1,1.17.009,1.063,1.056C518.65,436.984,518.62,437.27,518.59,437.546Z"/></g></svg>