<svg xmlns="http://www.w3.org/2000/svg" width="647.926" height="166.155" viewBox="0 0 647.926 166.155"><defs><style>.a{fill:#f1f1f1;}.b{fill:#b50000;}</style></defs><g transform="translate(-987.141 2165.222)"><path class="a" d="M0-89H647.926v45.713H0Z" transform="translate(987.141 -2076.222)"/><path class="a" d="M0-45H647.926V.713H0Z" transform="translate(987.141 -2032.771)"/><path d="M4.731,1.958V.288A6.166,6.166,0,0,1,2.7-.274a3.549,3.549,0,0,1-1.354-1.3,4.664,4.664,0,0,1-.663-2.2l1.679-.315a4.236,4.236,0,0,0,.687,1.976,2.436,2.436,0,0,0,1.688.993V-6.438a6.976,6.976,0,0,1-2.106-.8A3.085,3.085,0,0,1,1.4-8.47a3.669,3.669,0,0,1-.431-1.791,3.651,3.651,0,0,1,1.262-2.885,4.389,4.389,0,0,1,2.5-.909v-.8h.983v.8a4.123,4.123,0,0,1,2.31.854,3.794,3.794,0,0,1,1.317,2.5l-1.726.26A2.857,2.857,0,0,0,7-11.954a2.276,2.276,0,0,0-1.285-.691V-7.83a13.243,13.243,0,0,1,1.67.492A4.125,4.125,0,0,1,8.656-6.5a3.359,3.359,0,0,1,.756,1.169,4,4,0,0,1,.264,1.466,4.033,4.033,0,0,1-1.1,2.895A4.05,4.05,0,0,1,5.715.269V1.958Zm0-14.621a2.475,2.475,0,0,0-1.535.779,2.173,2.173,0,0,0-.561,1.494,2.161,2.161,0,0,0,.478,1.429,3.292,3.292,0,0,0,1.619.918ZM5.715-1.123a2.476,2.476,0,0,0,1.61-.844A2.616,2.616,0,0,0,7.96-3.757a2.241,2.241,0,0,0-.45-1.461,3.883,3.883,0,0,0-1.8-.988ZM17.646,0h-1.67V-10.641a8.631,8.631,0,0,1-1.582,1.15,11.213,11.213,0,0,1-1.758.863v-1.614a10.085,10.085,0,0,0,2.449-1.6,6.277,6.277,0,0,0,1.484-1.818h1.076Zm5.214,0V-1.9h1.9V0ZM27.2-3.562l1.753-.148a3.144,3.144,0,0,0,.9,1.925,2.456,2.456,0,0,0,1.712.645,2.666,2.666,0,0,0,2.041-.909,3.426,3.426,0,0,0,.835-2.412,3.1,3.1,0,0,0-.8-2.254,2.8,2.8,0,0,0-2.1-.826,2.912,2.912,0,0,0-1.457.366,2.828,2.828,0,0,0-1.021.951l-1.568-.2,1.317-6.986h6.763v1.6H30.151l-.733,3.655a4.426,4.426,0,0,1,2.57-.854,4.071,4.071,0,0,1,3.006,1.234,4.312,4.312,0,0,1,1.225,3.173,4.953,4.953,0,0,1-1.076,3.191A4.311,4.311,0,0,1,31.571.232,4.4,4.4,0,0,1,28.542-.807,4.055,4.055,0,0,1,27.2-3.562ZM37.768-6.708a12.446,12.446,0,0,1,.5-3.883,4.829,4.829,0,0,1,1.475-2.268,3.771,3.771,0,0,1,2.463-.8,4.019,4.019,0,0,1,1.92.441,3.671,3.671,0,0,1,1.364,1.271,6.819,6.819,0,0,1,.844,2.022,13.437,13.437,0,0,1,.306,3.215,12.48,12.48,0,0,1-.492,3.864,4.831,4.831,0,0,1-1.47,2.273,3.771,3.771,0,0,1-2.472.8,3.732,3.732,0,0,1-3.089-1.41Q37.768-2.876,37.768-6.708Zm1.716,0q0,3.349.784,4.458A2.31,2.31,0,0,0,42.2-1.141a2.308,2.308,0,0,0,1.934-1.113q.784-1.113.784-4.453,0-3.358-.784-4.462a2.327,2.327,0,0,0-1.953-1.1,2.14,2.14,0,0,0-1.837.974Q39.484-10.057,39.484-6.708Zm8.851,0a12.446,12.446,0,0,1,.5-3.883,4.829,4.829,0,0,1,1.475-2.268,3.771,3.771,0,0,1,2.463-.8,4.019,4.019,0,0,1,1.92.441,3.671,3.671,0,0,1,1.364,1.271A6.819,6.819,0,0,1,56.9-9.922,13.437,13.437,0,0,1,57.2-6.708a12.48,12.48,0,0,1-.492,3.864,4.831,4.831,0,0,1-1.47,2.273,3.771,3.771,0,0,1-2.472.8,3.732,3.732,0,0,1-3.089-1.41Q48.335-2.876,48.335-6.708Zm1.716,0q0,3.349.784,4.458A2.31,2.31,0,0,0,52.77-1.141,2.308,2.308,0,0,0,54.7-2.254q.784-1.113.784-4.453,0-3.358-.784-4.462a2.327,2.327,0,0,0-1.953-1.1,2.14,2.14,0,0,0-1.837.974Q50.051-10.057,50.051-6.708ZM59.839,0V-1.9h1.9V0Zm4.342-6.708a12.446,12.446,0,0,1,.5-3.883,4.829,4.829,0,0,1,1.475-2.268,3.771,3.771,0,0,1,2.463-.8,4.019,4.019,0,0,1,1.92.441A3.671,3.671,0,0,1,71.9-11.945a6.819,6.819,0,0,1,.844,2.022,13.437,13.437,0,0,1,.306,3.215,12.481,12.481,0,0,1-.492,3.864,4.831,4.831,0,0,1-1.47,2.273,3.771,3.771,0,0,1-2.472.8,3.732,3.732,0,0,1-3.089-1.41Q64.181-2.876,64.181-6.708Zm1.716,0q0,3.349.784,4.458a2.31,2.31,0,0,0,1.934,1.109A2.308,2.308,0,0,0,70.55-2.254q.784-1.113.784-4.453,0-3.358-.784-4.462a2.327,2.327,0,0,0-1.953-1.1,2.14,2.14,0,0,0-1.837.974Q65.9-10.057,65.9-6.708Zm8.851,0a12.446,12.446,0,0,1,.5-3.883,4.829,4.829,0,0,1,1.475-2.268,3.771,3.771,0,0,1,2.463-.8,4.019,4.019,0,0,1,1.92.441,3.671,3.671,0,0,1,1.364,1.271,6.819,6.819,0,0,1,.844,2.022,13.437,13.437,0,0,1,.306,3.215,12.481,12.481,0,0,1-.492,3.864,4.831,4.831,0,0,1-1.47,2.273,3.771,3.771,0,0,1-2.472.8,3.732,3.732,0,0,1-3.089-1.41Q74.748-2.876,74.748-6.708Zm1.716,0q0,3.349.784,4.458a2.31,2.31,0,0,0,1.934,1.109,2.308,2.308,0,0,0,1.934-1.113q.784-1.113.784-4.453,0-3.358-.784-4.462a2.327,2.327,0,0,0-1.953-1.1,2.14,2.14,0,0,0-1.837.974Q76.464-10.057,76.464-6.708Zm8.851,0a12.446,12.446,0,0,1,.5-3.883,4.829,4.829,0,0,1,1.475-2.268,3.771,3.771,0,0,1,2.463-.8,4.019,4.019,0,0,1,1.92.441,3.671,3.671,0,0,1,1.364,1.271,6.819,6.819,0,0,1,.844,2.022,13.437,13.437,0,0,1,.306,3.215,12.481,12.481,0,0,1-.492,3.864,4.831,4.831,0,0,1-1.47,2.273,3.771,3.771,0,0,1-2.472.8,3.732,3.732,0,0,1-3.089-1.41Q85.314-2.876,85.314-6.708Zm1.716,0q0,3.349.784,4.458a2.31,2.31,0,0,0,1.934,1.109,2.308,2.308,0,0,0,1.934-1.113q.784-1.113.784-4.453,0-3.358-.784-4.462a2.327,2.327,0,0,0-1.953-1.1,2.14,2.14,0,0,0-1.837.974Q87.031-10.057,87.031-6.708Z" transform="translate(1514.128 -2133.334)"/><path d="M10.01,1.958V.288A6.166,6.166,0,0,1,7.974-.274a3.549,3.549,0,0,1-1.354-1.3,4.664,4.664,0,0,1-.663-2.2l1.679-.315a4.236,4.236,0,0,0,.687,1.976,2.436,2.436,0,0,0,1.688.993V-6.438a6.976,6.976,0,0,1-2.106-.8A3.085,3.085,0,0,1,6.675-8.47a3.669,3.669,0,0,1-.431-1.791,3.651,3.651,0,0,1,1.262-2.885,4.389,4.389,0,0,1,2.5-.909v-.8h.983v.8a4.123,4.123,0,0,1,2.31.854,3.794,3.794,0,0,1,1.317,2.5l-1.726.26a2.857,2.857,0,0,0-.617-1.508,2.276,2.276,0,0,0-1.285-.691V-7.83a13.243,13.243,0,0,1,1.67.492,4.125,4.125,0,0,1,1.271.835,3.359,3.359,0,0,1,.756,1.169,4,4,0,0,1,.264,1.466,4.033,4.033,0,0,1-1.1,2.895A4.05,4.05,0,0,1,10.994.269V1.958Zm0-14.621a2.475,2.475,0,0,0-1.535.779,2.173,2.173,0,0,0-.561,1.494,2.161,2.161,0,0,0,.478,1.429,3.292,3.292,0,0,0,1.619.918Zm.983,11.541a2.476,2.476,0,0,0,1.61-.844,2.616,2.616,0,0,0,.635-1.791,2.241,2.241,0,0,0-.45-1.461,3.883,3.883,0,0,0-1.8-.988Zm5.641-5.585a12.446,12.446,0,0,1,.5-3.883,4.829,4.829,0,0,1,1.475-2.268,3.771,3.771,0,0,1,2.463-.8,4.019,4.019,0,0,1,1.92.441,3.671,3.671,0,0,1,1.364,1.271A6.819,6.819,0,0,1,25.2-9.922,13.437,13.437,0,0,1,25.5-6.708a12.481,12.481,0,0,1-.492,3.864,4.831,4.831,0,0,1-1.47,2.273,3.771,3.771,0,0,1-2.472.8,3.732,3.732,0,0,1-3.089-1.41Q16.634-2.876,16.634-6.708Zm1.716,0q0,3.349.784,4.458a2.31,2.31,0,0,0,1.934,1.109A2.308,2.308,0,0,0,23-2.254q.784-1.113.784-4.453,0-3.358-.784-4.462a2.327,2.327,0,0,0-1.953-1.1,2.14,2.14,0,0,0-1.837.974Q18.351-10.057,18.351-6.708Z" transform="translate(1583.128 -2089.334)"/><path d="M4.731,1.958V.288A6.166,6.166,0,0,1,2.7-.274a3.549,3.549,0,0,1-1.354-1.3,4.664,4.664,0,0,1-.663-2.2l1.679-.315a4.236,4.236,0,0,0,.687,1.976,2.436,2.436,0,0,0,1.688.993V-6.438a6.976,6.976,0,0,1-2.106-.8A3.085,3.085,0,0,1,1.4-8.47a3.669,3.669,0,0,1-.431-1.791,3.651,3.651,0,0,1,1.262-2.885,4.389,4.389,0,0,1,2.5-.909v-.8h.983v.8a4.123,4.123,0,0,1,2.31.854,3.794,3.794,0,0,1,1.317,2.5l-1.726.26A2.857,2.857,0,0,0,7-11.954a2.276,2.276,0,0,0-1.285-.691V-7.83a13.243,13.243,0,0,1,1.67.492A4.125,4.125,0,0,1,8.656-6.5a3.359,3.359,0,0,1,.756,1.169,4,4,0,0,1,.264,1.466,4.033,4.033,0,0,1-1.1,2.895A4.05,4.05,0,0,1,5.715.269V1.958Zm0-14.621a2.475,2.475,0,0,0-1.535.779,2.173,2.173,0,0,0-.561,1.494,2.161,2.161,0,0,0,.478,1.429,3.292,3.292,0,0,0,1.619.918ZM5.715-1.123a2.476,2.476,0,0,0,1.61-.844A2.616,2.616,0,0,0,7.96-3.757a2.241,2.241,0,0,0-.45-1.461,3.883,3.883,0,0,0-1.8-.988ZM17.646,0h-1.67V-10.641a8.631,8.631,0,0,1-1.582,1.15,11.213,11.213,0,0,1-1.758.863v-1.614a10.085,10.085,0,0,0,2.449-1.6,6.277,6.277,0,0,0,1.484-1.818h1.076Zm5.214,0V-1.9h1.9V0ZM27.2-6.708a12.446,12.446,0,0,1,.5-3.883,4.829,4.829,0,0,1,1.475-2.268,3.771,3.771,0,0,1,2.463-.8,4.019,4.019,0,0,1,1.92.441,3.671,3.671,0,0,1,1.364,1.271,6.819,6.819,0,0,1,.844,2.022,13.437,13.437,0,0,1,.306,3.215,12.48,12.48,0,0,1-.492,3.864,4.831,4.831,0,0,1-1.47,2.273,3.771,3.771,0,0,1-2.472.8,3.732,3.732,0,0,1-3.089-1.41Q27.2-2.876,27.2-6.708Zm1.716,0q0,3.349.784,4.458a2.31,2.31,0,0,0,1.934,1.109A2.308,2.308,0,0,0,33.57-2.254q.784-1.113.784-4.453,0-3.358-.784-4.462a2.327,2.327,0,0,0-1.953-1.1,2.14,2.14,0,0,0-1.837.974Q28.917-10.057,28.917-6.708Zm8.851,0a12.446,12.446,0,0,1,.5-3.883,4.829,4.829,0,0,1,1.475-2.268,3.771,3.771,0,0,1,2.463-.8,4.019,4.019,0,0,1,1.92.441,3.671,3.671,0,0,1,1.364,1.271,6.819,6.819,0,0,1,.844,2.022,13.437,13.437,0,0,1,.306,3.215,12.48,12.48,0,0,1-.492,3.864,4.831,4.831,0,0,1-1.47,2.273,3.771,3.771,0,0,1-2.472.8,3.732,3.732,0,0,1-3.089-1.41Q37.768-2.876,37.768-6.708Zm1.716,0q0,3.349.784,4.458A2.31,2.31,0,0,0,42.2-1.141a2.308,2.308,0,0,0,1.934-1.113q.784-1.113.784-4.453,0-3.358-.784-4.462a2.327,2.327,0,0,0-1.953-1.1,2.14,2.14,0,0,0-1.837.974Q39.484-10.057,39.484-6.708Zm8.851,0a12.446,12.446,0,0,1,.5-3.883,4.829,4.829,0,0,1,1.475-2.268,3.771,3.771,0,0,1,2.463-.8,4.019,4.019,0,0,1,1.92.441,3.671,3.671,0,0,1,1.364,1.271A6.819,6.819,0,0,1,56.9-9.922,13.437,13.437,0,0,1,57.2-6.708a12.48,12.48,0,0,1-.492,3.864,4.831,4.831,0,0,1-1.47,2.273,3.771,3.771,0,0,1-2.472.8,3.732,3.732,0,0,1-3.089-1.41Q48.335-2.876,48.335-6.708Zm1.716,0q0,3.349.784,4.458A2.31,2.31,0,0,0,52.77-1.141,2.308,2.308,0,0,0,54.7-2.254q.784-1.113.784-4.453,0-3.358-.784-4.462a2.327,2.327,0,0,0-1.953-1.1,2.14,2.14,0,0,0-1.837.974Q50.051-10.057,50.051-6.708ZM59.839,0V-1.9h1.9V0Zm4.342-6.708a12.446,12.446,0,0,1,.5-3.883,4.829,4.829,0,0,1,1.475-2.268,3.771,3.771,0,0,1,2.463-.8,4.019,4.019,0,0,1,1.92.441A3.671,3.671,0,0,1,71.9-11.945a6.819,6.819,0,0,1,.844,2.022,13.437,13.437,0,0,1,.306,3.215,12.481,12.481,0,0,1-.492,3.864,4.831,4.831,0,0,1-1.47,2.273,3.771,3.771,0,0,1-2.472.8,3.732,3.732,0,0,1-3.089-1.41Q64.181-2.876,64.181-6.708Zm1.716,0q0,3.349.784,4.458a2.31,2.31,0,0,0,1.934,1.109A2.308,2.308,0,0,0,70.55-2.254q.784-1.113.784-4.453,0-3.358-.784-4.462a2.327,2.327,0,0,0-1.953-1.1,2.14,2.14,0,0,0-1.837.974Q65.9-10.057,65.9-6.708Zm8.851,0a12.446,12.446,0,0,1,.5-3.883,4.829,4.829,0,0,1,1.475-2.268,3.771,3.771,0,0,1,2.463-.8,4.019,4.019,0,0,1,1.92.441,3.671,3.671,0,0,1,1.364,1.271,6.819,6.819,0,0,1,.844,2.022,13.437,13.437,0,0,1,.306,3.215,12.481,12.481,0,0,1-.492,3.864,4.831,4.831,0,0,1-1.47,2.273,3.771,3.771,0,0,1-2.472.8,3.732,3.732,0,0,1-3.089-1.41Q74.748-2.876,74.748-6.708Zm1.716,0q0,3.349.784,4.458a2.31,2.31,0,0,0,1.934,1.109,2.308,2.308,0,0,0,1.934-1.113q.784-1.113.784-4.453,0-3.358-.784-4.462a2.327,2.327,0,0,0-1.953-1.1,2.14,2.14,0,0,0-1.837.974Q76.464-10.057,76.464-6.708Zm8.851,0a12.446,12.446,0,0,1,.5-3.883,4.829,4.829,0,0,1,1.475-2.268,3.771,3.771,0,0,1,2.463-.8,4.019,4.019,0,0,1,1.92.441,3.671,3.671,0,0,1,1.364,1.271,6.819,6.819,0,0,1,.844,2.022,13.437,13.437,0,0,1,.306,3.215,12.481,12.481,0,0,1-.492,3.864,4.831,4.831,0,0,1-1.47,2.273,3.771,3.771,0,0,1-2.472.8,3.732,3.732,0,0,1-3.089-1.41Q85.314-2.876,85.314-6.708Zm1.716,0q0,3.349.784,4.458a2.31,2.31,0,0,0,1.934,1.109,2.308,2.308,0,0,0,1.934-1.113q.784-1.113.784-4.453,0-3.358-.784-4.462a2.327,2.327,0,0,0-1.953-1.1,2.14,2.14,0,0,0-1.837.974Q87.031-10.057,87.031-6.708Z" transform="translate(1514.128 -2002.334)"/><path class="b" d="M10.742-1.631.928-5.9V-8.262l9.814-4.248v2.783L3.9-7.109l6.846,2.715Zm5.573-.488V-6.211a5.384,5.384,0,0,1-2.808-1.655,4.151,4.151,0,0,1-.894-2.69,3.806,3.806,0,0,1,1.011-2.69,4.073,4.073,0,0,1,2.69-1.255v-.967h1.416v.967a4.19,4.19,0,0,1,2.471,1.06A4.086,4.086,0,0,1,21.374-11.1l-2.471.322a1.989,1.989,0,0,0-1.172-1.562v3.818A6.3,6.3,0,0,1,20.924-6.88a3.892,3.892,0,0,1,.85,2.593A4.339,4.339,0,0,1,20.7-1.309,4.7,4.7,0,0,1,17.731.176V2H16.315V.225a4.52,4.52,0,0,1-2.744-1.26,5.184,5.184,0,0,1-1.348-2.979l2.549-.273a3.249,3.249,0,0,0,.586,1.348A2.672,2.672,0,0,0,16.315-2.119Zm0-10.254a1.833,1.833,0,0,0-.918.664,1.717,1.717,0,0,0-.342,1.035,1.639,1.639,0,0,0,.313.962,2.168,2.168,0,0,0,.947.718ZM17.731-1.982a1.989,1.989,0,0,0,1.191-.679,1.91,1.91,0,0,0,.459-1.274A1.73,1.73,0,0,0,19-5.063a2.466,2.466,0,0,0-1.265-.728Zm5.68-1.7,2.734-.283a2.346,2.346,0,0,0,.693,1.47,1.881,1.881,0,0,0,1.328.542,1.844,1.844,0,0,0,1.455-.7,3.177,3.177,0,0,0,.6-2.1,2.883,2.883,0,0,0-.591-1.978,1.969,1.969,0,0,0-1.538-.659A2.8,2.8,0,0,0,25.97-6.348L23.743-6.67l1.406-7.451h7.256v2.568H27.23L26.8-9.121a4.149,4.149,0,0,1,1.875-.459,4.12,4.12,0,0,1,3.1,1.328A4.783,4.783,0,0,1,33.04-4.8,5.169,5.169,0,0,1,32.015-1.65,4.546,4.546,0,0,1,28.138.244,4.812,4.812,0,0,1,24.906-.82,4.384,4.384,0,0,1,23.411-3.682ZM38.994-14.375a3.912,3.912,0,0,1,3.252,1.484q1.4,1.758,1.4,5.83t-1.406,5.84A3.905,3.905,0,0,1,38.994.244a4.1,4.1,0,0,1-3.369-1.606Q34.346-2.969,34.346-7.09q0-4.043,1.406-5.82A3.905,3.905,0,0,1,38.994-14.375Zm0,2.275a1.371,1.371,0,0,0-.889.317,2.131,2.131,0,0,0-.605,1.138,15.692,15.692,0,0,0-.283,3.584A15.577,15.577,0,0,0,37.471-3.6a2.434,2.434,0,0,0,.64,1.255,1.365,1.365,0,0,0,.884.313,1.371,1.371,0,0,0,.889-.317,2.131,2.131,0,0,0,.605-1.138,15.554,15.554,0,0,0,.283-3.574,15.577,15.577,0,0,0-.254-3.462,2.468,2.468,0,0,0-.64-1.26A1.352,1.352,0,0,0,38.994-12.1Zm10.983-2.275a3.912,3.912,0,0,1,3.252,1.484q1.4,1.758,1.4,5.83t-1.406,5.84A3.905,3.905,0,0,1,49.977.244a4.1,4.1,0,0,1-3.369-1.606Q45.329-2.969,45.329-7.09q0-4.043,1.406-5.82A3.905,3.905,0,0,1,49.977-14.375Zm0,2.275a1.371,1.371,0,0,0-.889.317,2.131,2.131,0,0,0-.605,1.138A15.692,15.692,0,0,0,48.2-7.061,15.577,15.577,0,0,0,48.454-3.6a2.434,2.434,0,0,0,.64,1.255,1.365,1.365,0,0,0,.884.313,1.371,1.371,0,0,0,.889-.317,2.131,2.131,0,0,0,.605-1.138,15.554,15.554,0,0,0,.283-3.574,15.577,15.577,0,0,0-.254-3.462,2.468,2.468,0,0,0-.64-1.26A1.352,1.352,0,0,0,49.977-12.1ZM56.907,0V-2.744h2.744V0Zm9.469-14.375a3.912,3.912,0,0,1,3.252,1.484q1.4,1.758,1.4,5.83t-1.406,5.84A3.905,3.905,0,0,1,66.377.244a4.1,4.1,0,0,1-3.369-1.606Q61.728-2.969,61.728-7.09q0-4.043,1.406-5.82A3.905,3.905,0,0,1,66.377-14.375Zm0,2.275a1.371,1.371,0,0,0-.889.317,2.131,2.131,0,0,0-.605,1.138A15.692,15.692,0,0,0,64.6-7.061,15.577,15.577,0,0,0,64.853-3.6a2.434,2.434,0,0,0,.64,1.255,1.365,1.365,0,0,0,.884.313,1.371,1.371,0,0,0,.889-.317,2.131,2.131,0,0,0,.605-1.138,15.553,15.553,0,0,0,.283-3.574,15.577,15.577,0,0,0-.254-3.462,2.468,2.468,0,0,0-.64-1.26A1.352,1.352,0,0,0,66.377-12.1ZM77.36-14.375a3.912,3.912,0,0,1,3.252,1.484q1.4,1.758,1.4,5.83T80.6-1.221A3.905,3.905,0,0,1,77.36.244a4.1,4.1,0,0,1-3.369-1.606Q72.711-2.969,72.711-7.09q0-4.043,1.406-5.82A3.905,3.905,0,0,1,77.36-14.375Zm0,2.275a1.371,1.371,0,0,0-.889.317,2.131,2.131,0,0,0-.605,1.138,15.692,15.692,0,0,0-.283,3.584A15.577,15.577,0,0,0,75.836-3.6a2.434,2.434,0,0,0,.64,1.255,1.365,1.365,0,0,0,.884.313,1.371,1.371,0,0,0,.889-.317,2.131,2.131,0,0,0,.605-1.138,15.553,15.553,0,0,0,.283-3.574,15.577,15.577,0,0,0-.254-3.462,2.468,2.468,0,0,0-.64-1.26A1.352,1.352,0,0,0,77.36-12.1Zm10.983-2.275a3.912,3.912,0,0,1,3.252,1.484q1.4,1.758,1.4,5.83t-1.406,5.84A3.905,3.905,0,0,1,88.343.244a4.1,4.1,0,0,1-3.369-1.606Q83.694-2.969,83.694-7.09q0-4.043,1.406-5.82A3.905,3.905,0,0,1,88.343-14.375Zm0,2.275a1.371,1.371,0,0,0-.889.317,2.131,2.131,0,0,0-.605,1.138,15.692,15.692,0,0,0-.283,3.584A15.577,15.577,0,0,0,86.819-3.6a2.434,2.434,0,0,0,.64,1.255,1.365,1.365,0,0,0,.884.313,1.371,1.371,0,0,0,.889-.317,2.131,2.131,0,0,0,.605-1.138,15.553,15.553,0,0,0,.283-3.574,15.577,15.577,0,0,0-.254-3.462,2.468,2.468,0,0,0-.64-1.26A1.352,1.352,0,0,0,88.343-12.1ZM94.765-1.621V-4.385l6.855-2.7L94.765-9.746V-12.49l9.824,4.248V-5.9Z" transform="translate(1508.128 -2046.334)"/><path d="M9.688-6.572H3.525v5.039h7.158V0H1.65V-14.219h8.936v1.543H3.525v4.57H9.688ZM13.117,0V-9.17h-1.67v-1.4h1.67V-11.65a3.6,3.6,0,0,1,.908-2.627,3.431,3.431,0,0,1,2.568-.928,4.741,4.741,0,0,1,1.24.166l-.1,1.465a5.189,5.189,0,0,0-.977-.088,1.766,1.766,0,0,0-1.357.513,2.075,2.075,0,0,0-.479,1.47v1.113H17.18v1.4H14.924V0ZM23.227.2a4.617,4.617,0,0,1-3.5-1.411A5.237,5.237,0,0,1,18.383-4.99v-.332a6.341,6.341,0,0,1,.6-2.808,4.685,4.685,0,0,1,1.68-1.934,4.223,4.223,0,0,1,2.339-.7,3.957,3.957,0,0,1,3.2,1.357,5.877,5.877,0,0,1,1.143,3.887v.752H20.19A3.756,3.756,0,0,0,21.1-2.241a2.87,2.87,0,0,0,2.222.962,3.147,3.147,0,0,0,1.621-.391,4.073,4.073,0,0,0,1.162-1.035l1.1.859A4.437,4.437,0,0,1,23.227.2ZM23-9.277a2.41,2.41,0,0,0-1.836.8,3.868,3.868,0,0,0-.918,2.231h5.293v-.137A3.441,3.441,0,0,0,24.8-8.521,2.269,2.269,0,0,0,23-9.277Zm10.344,8a2.6,2.6,0,0,0,1.689-.586,2.061,2.061,0,0,0,.8-1.465h1.709A3.276,3.276,0,0,1,36.92-1.6,4.116,4.116,0,0,1,35.382-.293,4.438,4.438,0,0,1,33.346.2a4.353,4.353,0,0,1-3.433-1.44,5.737,5.737,0,0,1-1.274-3.94v-.3a6.361,6.361,0,0,1,.566-2.744A4.314,4.314,0,0,1,30.831-10.1a4.619,4.619,0,0,1,2.5-.664A4.238,4.238,0,0,1,36.29-9.7a3.8,3.8,0,0,1,1.255,2.764H35.836a2.49,2.49,0,0,0-.776-1.685,2.415,2.415,0,0,0-1.724-.659,2.529,2.529,0,0,0-2.134.991,4.655,4.655,0,0,0-.757,2.866v.342A4.562,4.562,0,0,0,31.2-2.266,2.541,2.541,0,0,0,33.346-1.279ZM41.7-13.125v2.559H43.67v1.4H41.7v6.553a1.464,1.464,0,0,0,.264.952,1.11,1.11,0,0,0,.9.317,4.374,4.374,0,0,0,.859-.117V0a5.238,5.238,0,0,1-1.387.2,2.25,2.25,0,0,1-1.826-.732,3.147,3.147,0,0,1-.615-2.08V-9.17H37.967v-1.4h1.924v-2.559ZM47.412,0H45.606V-10.566h1.807ZM45.459-13.369a1.078,1.078,0,0,1,.269-.742,1.008,1.008,0,0,1,.8-.3,1.024,1.024,0,0,1,.8.3,1.067,1.067,0,0,1,.273.742,1.032,1.032,0,0,1-.273.732,1.043,1.043,0,0,1-.8.293,1.026,1.026,0,0,1-.8-.293A1.043,1.043,0,0,1,45.459-13.369Zm8,10.918,2.617-8.115h1.846L54.133,0H52.756L48.928-10.566h1.846Zm5.246-2.93a6.241,6.241,0,0,1,.61-2.793,4.553,4.553,0,0,1,1.7-1.914,4.626,4.626,0,0,1,2.485-.674,4.456,4.456,0,0,1,3.491,1.494,5.748,5.748,0,0,1,1.333,3.975v.127A6.3,6.3,0,0,1,67.734-2.4,4.486,4.486,0,0,1,66.044-.488,4.679,4.679,0,0,1,63.52.2,4.445,4.445,0,0,1,60.039-1.3a5.719,5.719,0,0,1-1.333-3.955Zm1.816.215a4.52,4.52,0,0,0,.815,2.822A2.61,2.61,0,0,0,63.52-1.279a2.594,2.594,0,0,0,2.188-1.079,4.943,4.943,0,0,0,.811-3.022A4.513,4.513,0,0,0,65.693-8.2,2.623,2.623,0,0,0,63.5-9.277a2.594,2.594,0,0,0-2.158,1.064A4.906,4.906,0,0,0,60.522-5.166Zm13.93-.205A6.21,6.21,0,0,1,75.594-9.3a3.654,3.654,0,0,1,3.027-1.46,3.635,3.635,0,0,1,3.018,1.367l.088-1.172h1.65V-.254a4.3,4.3,0,0,1-1.216,3.232A4.487,4.487,0,0,1,78.9,4.16a5.435,5.435,0,0,1-2.236-.488,3.85,3.85,0,0,1-1.67-1.338l.938-1.084a3.533,3.533,0,0,0,2.842,1.436,2.768,2.768,0,0,0,2.056-.742,2.837,2.837,0,0,0,.737-2.09v-.908A3.713,3.713,0,0,1,78.6.2a3.609,3.609,0,0,1-3-1.494A6.529,6.529,0,0,1,74.452-5.371Zm1.816.205A4.738,4.738,0,0,0,77-2.358a2.38,2.38,0,0,0,2.051,1.021,2.646,2.646,0,0,0,2.51-1.553V-7.715a2.677,2.677,0,0,0-2.49-1.514A2.4,2.4,0,0,0,77.01-8.2,5.16,5.16,0,0,0,76.268-5.166ZM90.157.2a4.617,4.617,0,0,1-3.5-1.411A5.237,5.237,0,0,1,85.313-4.99v-.332a6.341,6.341,0,0,1,.6-2.808,4.685,4.685,0,0,1,1.68-1.934,4.223,4.223,0,0,1,2.339-.7,3.957,3.957,0,0,1,3.2,1.357,5.877,5.877,0,0,1,1.143,3.887v.752H87.12a3.756,3.756,0,0,0,.913,2.524,2.87,2.87,0,0,0,2.222.962,3.147,3.147,0,0,0,1.621-.391,4.073,4.073,0,0,0,1.162-1.035l1.1.859A4.437,4.437,0,0,1,90.157.2Zm-.225-9.473a2.41,2.41,0,0,0-1.836.8,3.869,3.869,0,0,0-.918,2.231h5.293v-.137a3.441,3.441,0,0,0-.742-2.134A2.269,2.269,0,0,0,89.932-9.277Zm7.815-1.289.059,1.328a3.85,3.85,0,0,1,3.164-1.523q3.35,0,3.379,3.779V0h-1.807V-6.992a2.432,2.432,0,0,0-.522-1.689,2.094,2.094,0,0,0-1.6-.547,2.607,2.607,0,0,0-1.543.469,3.183,3.183,0,0,0-1.035,1.23V0H96.038V-10.566ZM111.128.2a4.617,4.617,0,0,1-3.5-1.411,5.237,5.237,0,0,1-1.348-3.774v-.332a6.341,6.341,0,0,1,.6-2.808,4.685,4.685,0,0,1,1.68-1.934,4.223,4.223,0,0,1,2.339-.7,3.957,3.957,0,0,1,3.2,1.357,5.877,5.877,0,0,1,1.143,3.887v.752h-7.158A3.756,3.756,0,0,0,109-2.241a2.87,2.87,0,0,0,2.222.962,3.147,3.147,0,0,0,1.621-.391,4.073,4.073,0,0,0,1.162-1.035l1.1.859A4.437,4.437,0,0,1,111.128.2ZM110.9-9.277a2.41,2.41,0,0,0-1.836.8,3.869,3.869,0,0,0-.918,2.231h5.293v-.137a3.441,3.441,0,0,0-.742-2.134A2.269,2.269,0,0,0,110.9-9.277Zm11.213.332a5.414,5.414,0,0,0-.889-.068A2.381,2.381,0,0,0,118.815-7.5V0h-1.807V-10.566h1.758l.029,1.221a2.813,2.813,0,0,1,2.52-1.416,1.846,1.846,0,0,1,.8.137ZM129.579,0a3.8,3.8,0,0,1-.254-1.113A4.031,4.031,0,0,1,126.317.2a3.73,3.73,0,0,1-2.563-.884,2.859,2.859,0,0,1-1-2.241,2.987,2.987,0,0,1,1.255-2.563,5.916,5.916,0,0,1,3.53-.913H129.3v-.83a2.029,2.029,0,0,0-.566-1.509,2.276,2.276,0,0,0-1.67-.562,2.634,2.634,0,0,0-1.621.488,1.439,1.439,0,0,0-.654,1.182h-1.816a2.493,2.493,0,0,1,.562-1.528,3.832,3.832,0,0,1,1.523-1.167,5.125,5.125,0,0,1,2.114-.43,4.177,4.177,0,0,1,2.861.913A3.294,3.294,0,0,1,131.1-7.334v4.863a5.946,5.946,0,0,0,.371,2.314V0Zm-3-1.377a3.175,3.175,0,0,0,1.611-.439,2.658,2.658,0,0,0,1.1-1.143V-5.127H127.88q-3.32,0-3.32,1.943a1.645,1.645,0,0,0,.566,1.328A2.177,2.177,0,0,0,126.581-1.377Zm6.584-3.994a6.19,6.19,0,0,1,1.152-3.911,3.644,3.644,0,0,1,3.018-1.479,3.665,3.665,0,0,1,2.939,1.27V-15h1.807V0h-1.66l-.088-1.133A3.679,3.679,0,0,1,137.316.2a3.609,3.609,0,0,1-2.993-1.5,6.26,6.26,0,0,1-1.157-3.926Zm1.807.205a4.687,4.687,0,0,0,.742,2.813,2.4,2.4,0,0,0,2.051,1.016,2.636,2.636,0,0,0,2.51-1.543V-7.734a2.656,2.656,0,0,0-2.49-1.494,2.411,2.411,0,0,0-2.07,1.025A5.16,5.16,0,0,0,134.972-5.166Zm9.1-.215a6.241,6.241,0,0,1,.61-2.793,4.553,4.553,0,0,1,1.7-1.914,4.626,4.626,0,0,1,2.485-.674,4.456,4.456,0,0,1,3.491,1.494,5.748,5.748,0,0,1,1.333,3.975v.127A6.3,6.3,0,0,1,153.1-2.4a4.486,4.486,0,0,1-1.689,1.909A4.679,4.679,0,0,1,148.89.2,4.445,4.445,0,0,1,145.408-1.3a5.719,5.719,0,0,1-1.333-3.955Zm1.816.215a4.52,4.52,0,0,0,.815,2.822,2.61,2.61,0,0,0,2.183,1.064,2.594,2.594,0,0,0,2.188-1.079,4.943,4.943,0,0,0,.811-3.022,4.513,4.513,0,0,0-.825-2.817,2.623,2.623,0,0,0-2.192-1.079,2.594,2.594,0,0,0-2.158,1.064A4.906,4.906,0,0,0,145.892-5.166ZM164.636.2a4.617,4.617,0,0,1-3.5-1.411,5.237,5.237,0,0,1-1.348-3.774v-.332a6.341,6.341,0,0,1,.6-2.808,4.685,4.685,0,0,1,1.68-1.934,4.223,4.223,0,0,1,2.339-.7,3.957,3.957,0,0,1,3.2,1.357,5.877,5.877,0,0,1,1.143,3.887v.752H161.6a3.756,3.756,0,0,0,.913,2.524,2.87,2.87,0,0,0,2.222.962,3.147,3.147,0,0,0,1.621-.391,4.073,4.073,0,0,0,1.162-1.035l1.1.859A4.437,4.437,0,0,1,164.636.2Zm-.225-9.473a2.41,2.41,0,0,0-1.836.8,3.868,3.868,0,0,0-.918,2.231h5.293v-.137a3.441,3.441,0,0,0-.742-2.134A2.269,2.269,0,0,0,164.412-9.277Zm7.815-1.289.059,1.328a3.851,3.851,0,0,1,3.164-1.523q3.35,0,3.379,3.779V0h-1.807V-6.992a2.433,2.433,0,0,0-.522-1.689,2.094,2.094,0,0,0-1.6-.547,2.607,2.607,0,0,0-1.543.469,3.183,3.183,0,0,0-1.035,1.23V0h-1.807V-10.566ZM192.367,0a3.8,3.8,0,0,1-.254-1.113A4.031,4.031,0,0,1,189.105.2a3.73,3.73,0,0,1-2.563-.884,2.859,2.859,0,0,1-1-2.241A2.987,2.987,0,0,1,186.8-5.493a5.916,5.916,0,0,1,3.53-.913h1.758v-.83a2.029,2.029,0,0,0-.566-1.509,2.276,2.276,0,0,0-1.67-.562,2.634,2.634,0,0,0-1.621.488,1.439,1.439,0,0,0-.654,1.182h-1.816a2.493,2.493,0,0,1,.562-1.528,3.832,3.832,0,0,1,1.523-1.167,5.125,5.125,0,0,1,2.114-.43,4.177,4.177,0,0,1,2.861.913,3.294,3.294,0,0,1,1.074,2.515v4.863a5.946,5.946,0,0,0,.371,2.314V0Zm-3-1.377a3.175,3.175,0,0,0,1.611-.439,2.658,2.658,0,0,0,1.1-1.143V-5.127h-1.416q-3.32,0-3.32,1.943a1.645,1.645,0,0,0,.566,1.328A2.177,2.177,0,0,0,189.369-1.377Zm11.262.1a2.6,2.6,0,0,0,1.689-.586,2.061,2.061,0,0,0,.8-1.465h1.709A3.276,3.276,0,0,1,204.2-1.6a4.116,4.116,0,0,1-1.538,1.309A4.438,4.438,0,0,1,200.631.2a4.353,4.353,0,0,1-3.433-1.44,5.737,5.737,0,0,1-1.274-3.94v-.3a6.361,6.361,0,0,1,.566-2.744,4.314,4.314,0,0,1,1.626-1.865,4.619,4.619,0,0,1,2.5-.664A4.238,4.238,0,0,1,203.575-9.7a3.8,3.8,0,0,1,1.255,2.764h-1.709a2.49,2.49,0,0,0-.776-1.685,2.415,2.415,0,0,0-1.724-.659,2.529,2.529,0,0,0-2.134.991,4.655,4.655,0,0,0-.757,2.866v.342a4.562,4.562,0,0,0,.752,2.813A2.541,2.541,0,0,0,200.631-1.279Zm8.352-11.846v2.559h1.973v1.4h-1.973v6.553a1.464,1.464,0,0,0,.264.952,1.11,1.11,0,0,0,.9.317A4.374,4.374,0,0,0,211-1.465V0a5.238,5.238,0,0,1-1.387.2,2.25,2.25,0,0,1-1.826-.732,3.147,3.147,0,0,1-.615-2.08V-9.17h-1.924v-1.4h1.924v-2.559ZM214.7,0h-1.807V-10.566H214.7Zm-1.953-13.369a1.078,1.078,0,0,1,.269-.742,1.008,1.008,0,0,1,.8-.3,1.024,1.024,0,0,1,.8.3,1.067,1.067,0,0,1,.273.742,1.032,1.032,0,0,1-.273.732,1.043,1.043,0,0,1-.8.293,1.026,1.026,0,0,1-.8-.293A1.043,1.043,0,0,1,212.744-13.369Zm8,10.918,2.617-8.115h1.846L221.418,0h-1.377l-3.828-10.566h1.846ZM228.578,0h-1.807V-10.566h1.807Zm-1.953-13.369a1.078,1.078,0,0,1,.269-.742,1.008,1.008,0,0,1,.8-.3,1.024,1.024,0,0,1,.8.3,1.067,1.067,0,0,1,.273.742,1.032,1.032,0,0,1-.273.732,1.043,1.043,0,0,1-.8.293,1.026,1.026,0,0,1-.8-.293A1.043,1.043,0,0,1,226.625-13.369Zm4.074,8a6.19,6.19,0,0,1,1.152-3.911,3.644,3.644,0,0,1,3.018-1.479,3.665,3.665,0,0,1,2.939,1.27V-15h1.807V0h-1.66l-.088-1.133A3.679,3.679,0,0,1,234.85.2a3.609,3.609,0,0,1-2.993-1.5A6.26,6.26,0,0,1,230.7-5.234Zm1.807.205a4.687,4.687,0,0,0,.742,2.813A2.4,2.4,0,0,0,235.3-1.338a2.636,2.636,0,0,0,2.51-1.543V-7.734a2.656,2.656,0,0,0-2.49-1.494,2.411,2.411,0,0,0-2.07,1.025A5.16,5.16,0,0,0,232.506-5.166ZM248.612,0a3.8,3.8,0,0,1-.254-1.113A4.031,4.031,0,0,1,245.35.2a3.73,3.73,0,0,1-2.563-.884,2.859,2.859,0,0,1-1-2.241,2.987,2.987,0,0,1,1.255-2.563,5.916,5.916,0,0,1,3.53-.913h1.758v-.83a2.029,2.029,0,0,0-.566-1.509,2.276,2.276,0,0,0-1.67-.562,2.634,2.634,0,0,0-1.621.488,1.439,1.439,0,0,0-.654,1.182H242a2.493,2.493,0,0,1,.562-1.528,3.832,3.832,0,0,1,1.523-1.167,5.125,5.125,0,0,1,2.114-.43,4.177,4.177,0,0,1,2.861.913,3.294,3.294,0,0,1,1.074,2.515v4.863a5.946,5.946,0,0,0,.371,2.314V0Zm-3-1.377a3.175,3.175,0,0,0,1.611-.439,2.658,2.658,0,0,0,1.1-1.143V-5.127h-1.416q-3.32,0-3.32,1.943a1.645,1.645,0,0,0,.566,1.328A2.177,2.177,0,0,0,245.614-1.377ZM252.2-5.371a6.19,6.19,0,0,1,1.152-3.911,3.644,3.644,0,0,1,3.018-1.479,3.665,3.665,0,0,1,2.939,1.27V-15h1.807V0h-1.66l-.088-1.133A3.679,3.679,0,0,1,256.348.2a3.609,3.609,0,0,1-2.993-1.5A6.26,6.26,0,0,1,252.2-5.234ZM254-5.166a4.687,4.687,0,0,0,.742,2.813A2.4,2.4,0,0,0,256.8-1.338a2.636,2.636,0,0,0,2.51-1.543V-7.734a2.656,2.656,0,0,0-2.49-1.494,2.411,2.411,0,0,0-2.07,1.025A5.16,5.16,0,0,0,254-5.166ZM267.971.2a4.617,4.617,0,0,1-3.5-1.411,5.237,5.237,0,0,1-1.348-3.774v-.332a6.341,6.341,0,0,1,.6-2.808,4.685,4.685,0,0,1,1.68-1.934,4.223,4.223,0,0,1,2.339-.7,3.957,3.957,0,0,1,3.2,1.357,5.877,5.877,0,0,1,1.143,3.887v.752h-7.158a3.756,3.756,0,0,0,.913,2.524,2.87,2.87,0,0,0,2.222.962,3.147,3.147,0,0,0,1.621-.391,4.073,4.073,0,0,0,1.162-1.035l1.1.859A4.437,4.437,0,0,1,267.971.2Zm-.225-9.473a2.41,2.41,0,0,0-1.836.8,3.869,3.869,0,0,0-.918,2.231h5.293v-.137a3.441,3.441,0,0,0-.742-2.134A2.269,2.269,0,0,0,267.746-9.277ZM280-2.8a1.33,1.33,0,0,0-.552-1.138,5.311,5.311,0,0,0-1.924-.7,9.1,9.1,0,0,1-2.178-.7,3.1,3.1,0,0,1-1.191-.977,2.336,2.336,0,0,1-.386-1.348,2.741,2.741,0,0,1,1.1-2.2,4.291,4.291,0,0,1,2.808-.9,4.415,4.415,0,0,1,2.915.928,2.947,2.947,0,0,1,1.118,2.373H279.9a1.631,1.631,0,0,0-.63-1.279,2.36,2.36,0,0,0-1.587-.537,2.47,2.47,0,0,0-1.543.43,1.353,1.353,0,0,0-.557,1.123,1.1,1.1,0,0,0,.518.986,6.368,6.368,0,0,0,1.87.635,9.744,9.744,0,0,1,2.192.723,3.2,3.2,0,0,1,1.245,1.011,2.485,2.485,0,0,1,.405,1.44,2.7,2.7,0,0,1-1.133,2.271A4.752,4.752,0,0,1,277.739.2a5.321,5.321,0,0,1-2.246-.449,3.653,3.653,0,0,1-1.528-1.255,3.025,3.025,0,0,1-.552-1.743h1.807a1.87,1.87,0,0,0,.728,1.44,2.822,2.822,0,0,0,1.792.532,2.914,2.914,0,0,0,1.646-.415A1.275,1.275,0,0,0,280-2.8Zm8.012-2.568a6.19,6.19,0,0,1,1.152-3.911,3.644,3.644,0,0,1,3.018-1.479,3.665,3.665,0,0,1,2.939,1.27V-15h1.807V0h-1.66l-.088-1.133A3.679,3.679,0,0,1,292.167.2a3.609,3.609,0,0,1-2.993-1.5,6.26,6.26,0,0,1-1.157-3.926Zm1.807.205a4.687,4.687,0,0,0,.742,2.813,2.4,2.4,0,0,0,2.051,1.016,2.636,2.636,0,0,0,2.51-1.543V-7.734a2.656,2.656,0,0,0-2.49-1.494,2.411,2.411,0,0,0-2.07,1.025A5.16,5.16,0,0,0,289.823-5.166ZM303.79.2a4.617,4.617,0,0,1-3.5-1.411,5.237,5.237,0,0,1-1.348-3.774v-.332a6.341,6.341,0,0,1,.6-2.808,4.685,4.685,0,0,1,1.68-1.934,4.223,4.223,0,0,1,2.339-.7,3.957,3.957,0,0,1,3.2,1.357,5.877,5.877,0,0,1,1.143,3.887v.752h-7.158a3.756,3.756,0,0,0,.913,2.524,2.87,2.87,0,0,0,2.222.962,3.147,3.147,0,0,0,1.621-.391,4.073,4.073,0,0,0,1.162-1.035l1.1.859A4.437,4.437,0,0,1,303.79.2Zm-.225-9.473a2.41,2.41,0,0,0-1.836.8,3.869,3.869,0,0,0-.918,2.231H306.1v-.137a3.441,3.441,0,0,0-.742-2.134A2.269,2.269,0,0,0,303.565-9.277Zm10.248,3.9a6.241,6.241,0,0,1,.61-2.793,4.553,4.553,0,0,1,1.7-1.914,4.626,4.626,0,0,1,2.485-.674A4.456,4.456,0,0,1,322.1-9.268a5.748,5.748,0,0,1,1.333,3.975v.127a6.3,6.3,0,0,1-.591,2.769,4.486,4.486,0,0,1-1.689,1.909A4.679,4.679,0,0,1,318.628.2,4.445,4.445,0,0,1,315.146-1.3a5.719,5.719,0,0,1-1.333-3.955Zm1.816.215a4.52,4.52,0,0,0,.815,2.822,2.61,2.61,0,0,0,2.183,1.064,2.594,2.594,0,0,0,2.188-1.079,4.943,4.943,0,0,0,.811-3.022A4.512,4.512,0,0,0,320.8-8.2a2.623,2.623,0,0,0-2.192-1.079,2.594,2.594,0,0,0-2.158,1.064A4.906,4.906,0,0,0,315.63-5.166Zm18.664,0a6.327,6.327,0,0,1-1.1,3.887A3.537,3.537,0,0,1,330.2.2a3.875,3.875,0,0,1-3.027-1.221V4.063h-1.807V-10.566h1.65l.088,1.172a3.722,3.722,0,0,1,3.066-1.367,3.6,3.6,0,0,1,3.013,1.436,6.4,6.4,0,0,1,1.108,3.994Zm-1.807-.205a4.669,4.669,0,0,0-.762-2.822,2.454,2.454,0,0,0-2.09-1.035,2.656,2.656,0,0,0-2.461,1.455v5.049a2.661,2.661,0,0,0,2.48,1.445,2.442,2.442,0,0,0,2.065-1.03A5.1,5.1,0,0,0,332.487-5.371ZM340.644.2a4.617,4.617,0,0,1-3.5-1.411A5.237,5.237,0,0,1,335.8-4.99v-.332a6.341,6.341,0,0,1,.6-2.808,4.685,4.685,0,0,1,1.68-1.934,4.223,4.223,0,0,1,2.339-.7,3.957,3.957,0,0,1,3.2,1.357,5.877,5.877,0,0,1,1.143,3.887v.752h-7.158a3.756,3.756,0,0,0,.913,2.524,2.87,2.87,0,0,0,2.222.962,3.147,3.147,0,0,0,1.621-.391,4.073,4.073,0,0,0,1.162-1.035l1.1.859A4.437,4.437,0,0,1,340.644.2Zm-.225-9.473a2.41,2.41,0,0,0-1.836.8,3.869,3.869,0,0,0-.918,2.231h5.293v-.137a3.441,3.441,0,0,0-.742-2.134A2.269,2.269,0,0,0,340.419-9.277Zm11.213.332a5.414,5.414,0,0,0-.889-.068A2.381,2.381,0,0,0,348.331-7.5V0h-1.807V-10.566h1.758l.029,1.221a2.813,2.813,0,0,1,2.52-1.416,1.846,1.846,0,0,1,.8.137ZM359.095,0a3.8,3.8,0,0,1-.254-1.113A4.031,4.031,0,0,1,355.833.2a3.73,3.73,0,0,1-2.563-.884,2.859,2.859,0,0,1-1-2.241,2.987,2.987,0,0,1,1.255-2.563,5.916,5.916,0,0,1,3.53-.913h1.758v-.83a2.029,2.029,0,0,0-.566-1.509,2.276,2.276,0,0,0-1.67-.562,2.634,2.634,0,0,0-1.621.488,1.439,1.439,0,0,0-.654,1.182h-1.816a2.493,2.493,0,0,1,.562-1.528,3.833,3.833,0,0,1,1.523-1.167,5.125,5.125,0,0,1,2.114-.43,4.177,4.177,0,0,1,2.861.913,3.294,3.294,0,0,1,1.074,2.515v4.863a5.946,5.946,0,0,0,.371,2.314V0Zm-3-1.377a3.175,3.175,0,0,0,1.611-.439,2.658,2.658,0,0,0,1.1-1.143V-5.127H357.4q-3.32,0-3.32,1.943a1.645,1.645,0,0,0,.566,1.328A2.177,2.177,0,0,0,356.1-1.377Zm11.262.1a2.6,2.6,0,0,0,1.689-.586,2.061,2.061,0,0,0,.8-1.465h1.709a3.276,3.276,0,0,1-.625,1.729,4.117,4.117,0,0,1-1.538,1.309A4.438,4.438,0,0,1,367.359.2a4.353,4.353,0,0,1-3.433-1.44,5.737,5.737,0,0,1-1.274-3.94v-.3a6.362,6.362,0,0,1,.566-2.744,4.314,4.314,0,0,1,1.626-1.865,4.619,4.619,0,0,1,2.5-.664A4.238,4.238,0,0,1,370.3-9.7a3.8,3.8,0,0,1,1.255,2.764h-1.709a2.49,2.49,0,0,0-.776-1.685,2.415,2.415,0,0,0-1.724-.659,2.529,2.529,0,0,0-2.134.991,4.655,4.655,0,0,0-.757,2.866v.342a4.562,4.562,0,0,0,.752,2.813A2.541,2.541,0,0,0,367.359-1.279ZM375.222,0h-1.807V-10.566h1.807Zm-1.953-13.369a1.078,1.078,0,0,1,.269-.742,1.008,1.008,0,0,1,.8-.3,1.024,1.024,0,0,1,.8.3,1.067,1.067,0,0,1,.273.742,1.032,1.032,0,0,1-.273.732,1.043,1.043,0,0,1-.8.293,1.026,1.026,0,0,1-.8-.293A1.043,1.043,0,0,1,373.269-13.369ZM377.3-5.381a6.241,6.241,0,0,1,.61-2.793,4.553,4.553,0,0,1,1.7-1.914,4.626,4.626,0,0,1,2.485-.674,4.456,4.456,0,0,1,3.491,1.494,5.748,5.748,0,0,1,1.333,3.975v.127a6.3,6.3,0,0,1-.591,2.769,4.486,4.486,0,0,1-1.689,1.909A4.679,4.679,0,0,1,382.119.2,4.445,4.445,0,0,1,378.637-1.3,5.719,5.719,0,0,1,377.3-5.254Zm1.816.215a4.52,4.52,0,0,0,.815,2.822,2.61,2.61,0,0,0,2.183,1.064,2.594,2.594,0,0,0,2.188-1.079,4.943,4.943,0,0,0,.811-3.022,4.512,4.512,0,0,0-.825-2.817A2.623,2.623,0,0,0,382.1-9.277a2.594,2.594,0,0,0-2.158,1.064A4.906,4.906,0,0,0,379.121-5.166Zm3.8-9.834h2.188l-2.617,2.871h-1.455Zm7.649,4.434.059,1.328a3.85,3.85,0,0,1,3.164-1.523q3.35,0,3.379,3.779V0h-1.807V-6.992a2.432,2.432,0,0,0-.522-1.689,2.094,2.094,0,0,0-1.6-.547,2.607,2.607,0,0,0-1.543.469,3.183,3.183,0,0,0-1.035,1.23V0h-1.807V-10.566Z" transform="translate(1004.128 -2134.334)"/><path d="M9.688-6.572H3.525v5.039h7.158V0H1.65V-14.219h8.936v1.543H3.525v4.57H9.688ZM13.117,0V-9.17h-1.67v-1.4h1.67V-11.65a3.6,3.6,0,0,1,.908-2.627,3.431,3.431,0,0,1,2.568-.928,4.741,4.741,0,0,1,1.24.166l-.1,1.465a5.189,5.189,0,0,0-.977-.088,1.766,1.766,0,0,0-1.357.513,2.075,2.075,0,0,0-.479,1.47v1.113H17.18v1.4H14.924V0ZM23.227.2a4.617,4.617,0,0,1-3.5-1.411A5.237,5.237,0,0,1,18.383-4.99v-.332a6.341,6.341,0,0,1,.6-2.808,4.685,4.685,0,0,1,1.68-1.934,4.223,4.223,0,0,1,2.339-.7,3.957,3.957,0,0,1,3.2,1.357,5.877,5.877,0,0,1,1.143,3.887v.752H20.19A3.756,3.756,0,0,0,21.1-2.241a2.87,2.87,0,0,0,2.222.962,3.147,3.147,0,0,0,1.621-.391,4.073,4.073,0,0,0,1.162-1.035l1.1.859A4.437,4.437,0,0,1,23.227.2ZM23-9.277a2.41,2.41,0,0,0-1.836.8,3.868,3.868,0,0,0-.918,2.231h5.293v-.137A3.441,3.441,0,0,0,24.8-8.521,2.269,2.269,0,0,0,23-9.277Zm10.344,8a2.6,2.6,0,0,0,1.689-.586,2.061,2.061,0,0,0,.8-1.465h1.709A3.276,3.276,0,0,1,36.92-1.6,4.116,4.116,0,0,1,35.382-.293,4.438,4.438,0,0,1,33.346.2a4.353,4.353,0,0,1-3.433-1.44,5.737,5.737,0,0,1-1.274-3.94v-.3a6.361,6.361,0,0,1,.566-2.744A4.314,4.314,0,0,1,30.831-10.1a4.619,4.619,0,0,1,2.5-.664A4.238,4.238,0,0,1,36.29-9.7a3.8,3.8,0,0,1,1.255,2.764H35.836a2.49,2.49,0,0,0-.776-1.685,2.415,2.415,0,0,0-1.724-.659,2.529,2.529,0,0,0-2.134.991,4.655,4.655,0,0,0-.757,2.866v.342A4.562,4.562,0,0,0,31.2-2.266,2.541,2.541,0,0,0,33.346-1.279ZM41.7-13.125v2.559H43.67v1.4H41.7v6.553a1.464,1.464,0,0,0,.264.952,1.11,1.11,0,0,0,.9.317,4.374,4.374,0,0,0,.859-.117V0a5.238,5.238,0,0,1-1.387.2,2.25,2.25,0,0,1-1.826-.732,3.147,3.147,0,0,1-.615-2.08V-9.17H37.967v-1.4h1.924v-2.559ZM47.412,0H45.606V-10.566h1.807ZM45.459-13.369a1.078,1.078,0,0,1,.269-.742,1.008,1.008,0,0,1,.8-.3,1.024,1.024,0,0,1,.8.3,1.067,1.067,0,0,1,.273.742,1.032,1.032,0,0,1-.273.732,1.043,1.043,0,0,1-.8.293,1.026,1.026,0,0,1-.8-.293A1.043,1.043,0,0,1,45.459-13.369Zm8,10.918,2.617-8.115h1.846L54.133,0H52.756L48.928-10.566h1.846Zm5.246-2.93a6.241,6.241,0,0,1,.61-2.793,4.553,4.553,0,0,1,1.7-1.914,4.626,4.626,0,0,1,2.485-.674,4.456,4.456,0,0,1,3.491,1.494,5.748,5.748,0,0,1,1.333,3.975v.127A6.3,6.3,0,0,1,67.734-2.4,4.486,4.486,0,0,1,66.044-.488,4.679,4.679,0,0,1,63.52.2,4.445,4.445,0,0,1,60.039-1.3a5.719,5.719,0,0,1-1.333-3.955Zm1.816.215a4.52,4.52,0,0,0,.815,2.822A2.61,2.61,0,0,0,63.52-1.279a2.594,2.594,0,0,0,2.188-1.079,4.943,4.943,0,0,0,.811-3.022A4.513,4.513,0,0,0,65.693-8.2,2.623,2.623,0,0,0,63.5-9.277a2.594,2.594,0,0,0-2.158,1.064A4.906,4.906,0,0,0,60.522-5.166Zm13.93-.205A6.21,6.21,0,0,1,75.594-9.3a3.654,3.654,0,0,1,3.027-1.46,3.635,3.635,0,0,1,3.018,1.367l.088-1.172h1.65V-.254a4.3,4.3,0,0,1-1.216,3.232A4.487,4.487,0,0,1,78.9,4.16a5.435,5.435,0,0,1-2.236-.488,3.85,3.85,0,0,1-1.67-1.338l.938-1.084a3.533,3.533,0,0,0,2.842,1.436,2.768,2.768,0,0,0,2.056-.742,2.837,2.837,0,0,0,.737-2.09v-.908A3.713,3.713,0,0,1,78.6.2a3.609,3.609,0,0,1-3-1.494A6.529,6.529,0,0,1,74.452-5.371Zm1.816.205A4.738,4.738,0,0,0,77-2.358a2.38,2.38,0,0,0,2.051,1.021,2.646,2.646,0,0,0,2.51-1.553V-7.715a2.677,2.677,0,0,0-2.49-1.514A2.4,2.4,0,0,0,77.01-8.2,5.16,5.16,0,0,0,76.268-5.166ZM90.157.2a4.617,4.617,0,0,1-3.5-1.411A5.237,5.237,0,0,1,85.313-4.99v-.332a6.341,6.341,0,0,1,.6-2.808,4.685,4.685,0,0,1,1.68-1.934,4.223,4.223,0,0,1,2.339-.7,3.957,3.957,0,0,1,3.2,1.357,5.877,5.877,0,0,1,1.143,3.887v.752H87.12a3.756,3.756,0,0,0,.913,2.524,2.87,2.87,0,0,0,2.222.962,3.147,3.147,0,0,0,1.621-.391,4.073,4.073,0,0,0,1.162-1.035l1.1.859A4.437,4.437,0,0,1,90.157.2Zm-.225-9.473a2.41,2.41,0,0,0-1.836.8,3.869,3.869,0,0,0-.918,2.231h5.293v-.137a3.441,3.441,0,0,0-.742-2.134A2.269,2.269,0,0,0,89.932-9.277Zm7.815-1.289.059,1.328a3.85,3.85,0,0,1,3.164-1.523q3.35,0,3.379,3.779V0h-1.807V-6.992a2.432,2.432,0,0,0-.522-1.689,2.094,2.094,0,0,0-1.6-.547,2.607,2.607,0,0,0-1.543.469,3.183,3.183,0,0,0-1.035,1.23V0H96.038V-10.566ZM111.128.2a4.617,4.617,0,0,1-3.5-1.411,5.237,5.237,0,0,1-1.348-3.774v-.332a6.341,6.341,0,0,1,.6-2.808,4.685,4.685,0,0,1,1.68-1.934,4.223,4.223,0,0,1,2.339-.7,3.957,3.957,0,0,1,3.2,1.357,5.877,5.877,0,0,1,1.143,3.887v.752h-7.158A3.756,3.756,0,0,0,109-2.241a2.87,2.87,0,0,0,2.222.962,3.147,3.147,0,0,0,1.621-.391,4.073,4.073,0,0,0,1.162-1.035l1.1.859A4.437,4.437,0,0,1,111.128.2ZM110.9-9.277a2.41,2.41,0,0,0-1.836.8,3.869,3.869,0,0,0-.918,2.231h5.293v-.137a3.441,3.441,0,0,0-.742-2.134A2.269,2.269,0,0,0,110.9-9.277Zm11.213.332a5.414,5.414,0,0,0-.889-.068A2.381,2.381,0,0,0,118.815-7.5V0h-1.807V-10.566h1.758l.029,1.221a2.813,2.813,0,0,1,2.52-1.416,1.846,1.846,0,0,1,.8.137ZM129.579,0a3.8,3.8,0,0,1-.254-1.113A4.031,4.031,0,0,1,126.317.2a3.73,3.73,0,0,1-2.563-.884,2.859,2.859,0,0,1-1-2.241,2.987,2.987,0,0,1,1.255-2.563,5.916,5.916,0,0,1,3.53-.913H129.3v-.83a2.029,2.029,0,0,0-.566-1.509,2.276,2.276,0,0,0-1.67-.562,2.634,2.634,0,0,0-1.621.488,1.439,1.439,0,0,0-.654,1.182h-1.816a2.493,2.493,0,0,1,.562-1.528,3.832,3.832,0,0,1,1.523-1.167,5.125,5.125,0,0,1,2.114-.43,4.177,4.177,0,0,1,2.861.913A3.294,3.294,0,0,1,131.1-7.334v4.863a5.946,5.946,0,0,0,.371,2.314V0Zm-3-1.377a3.175,3.175,0,0,0,1.611-.439,2.658,2.658,0,0,0,1.1-1.143V-5.127H127.88q-3.32,0-3.32,1.943a1.645,1.645,0,0,0,.566,1.328A2.177,2.177,0,0,0,126.581-1.377Zm6.584-3.994a6.19,6.19,0,0,1,1.152-3.911,3.644,3.644,0,0,1,3.018-1.479,3.665,3.665,0,0,1,2.939,1.27V-15h1.807V0h-1.66l-.088-1.133A3.679,3.679,0,0,1,137.316.2a3.609,3.609,0,0,1-2.993-1.5,6.26,6.26,0,0,1-1.157-3.926Zm1.807.205a4.687,4.687,0,0,0,.742,2.813,2.4,2.4,0,0,0,2.051,1.016,2.636,2.636,0,0,0,2.51-1.543V-7.734a2.656,2.656,0,0,0-2.49-1.494,2.411,2.411,0,0,0-2.07,1.025A5.16,5.16,0,0,0,134.972-5.166Zm9.1-.215a6.241,6.241,0,0,1,.61-2.793,4.553,4.553,0,0,1,1.7-1.914,4.626,4.626,0,0,1,2.485-.674,4.456,4.456,0,0,1,3.491,1.494,5.748,5.748,0,0,1,1.333,3.975v.127A6.3,6.3,0,0,1,153.1-2.4a4.486,4.486,0,0,1-1.689,1.909A4.679,4.679,0,0,1,148.89.2,4.445,4.445,0,0,1,145.408-1.3a5.719,5.719,0,0,1-1.333-3.955Zm1.816.215a4.52,4.52,0,0,0,.815,2.822,2.61,2.61,0,0,0,2.183,1.064,2.594,2.594,0,0,0,2.188-1.079,4.943,4.943,0,0,0,.811-3.022,4.513,4.513,0,0,0-.825-2.817,2.623,2.623,0,0,0-2.192-1.079,2.594,2.594,0,0,0-2.158,1.064A4.906,4.906,0,0,0,145.892-5.166ZM164.636.2a4.617,4.617,0,0,1-3.5-1.411,5.237,5.237,0,0,1-1.348-3.774v-.332a6.341,6.341,0,0,1,.6-2.808,4.685,4.685,0,0,1,1.68-1.934,4.223,4.223,0,0,1,2.339-.7,3.957,3.957,0,0,1,3.2,1.357,5.877,5.877,0,0,1,1.143,3.887v.752H161.6a3.756,3.756,0,0,0,.913,2.524,2.87,2.87,0,0,0,2.222.962,3.147,3.147,0,0,0,1.621-.391,4.073,4.073,0,0,0,1.162-1.035l1.1.859A4.437,4.437,0,0,1,164.636.2Zm-.225-9.473a2.41,2.41,0,0,0-1.836.8,3.868,3.868,0,0,0-.918,2.231h5.293v-.137a3.441,3.441,0,0,0-.742-2.134A2.269,2.269,0,0,0,164.412-9.277Zm7.815-1.289.059,1.328a3.851,3.851,0,0,1,3.164-1.523q3.35,0,3.379,3.779V0h-1.807V-6.992a2.433,2.433,0,0,0-.522-1.689,2.094,2.094,0,0,0-1.6-.547,2.607,2.607,0,0,0-1.543.469,3.183,3.183,0,0,0-1.035,1.23V0h-1.807V-10.566ZM192.367,0a3.8,3.8,0,0,1-.254-1.113A4.031,4.031,0,0,1,189.105.2a3.73,3.73,0,0,1-2.563-.884,2.859,2.859,0,0,1-1-2.241A2.987,2.987,0,0,1,186.8-5.493a5.916,5.916,0,0,1,3.53-.913h1.758v-.83a2.029,2.029,0,0,0-.566-1.509,2.276,2.276,0,0,0-1.67-.562,2.634,2.634,0,0,0-1.621.488,1.439,1.439,0,0,0-.654,1.182h-1.816a2.493,2.493,0,0,1,.562-1.528,3.832,3.832,0,0,1,1.523-1.167,5.125,5.125,0,0,1,2.114-.43,4.177,4.177,0,0,1,2.861.913,3.294,3.294,0,0,1,1.074,2.515v4.863a5.946,5.946,0,0,0,.371,2.314V0Zm-3-1.377a3.175,3.175,0,0,0,1.611-.439,2.658,2.658,0,0,0,1.1-1.143V-5.127h-1.416q-3.32,0-3.32,1.943a1.645,1.645,0,0,0,.566,1.328A2.177,2.177,0,0,0,189.369-1.377Zm11.262.1a2.6,2.6,0,0,0,1.689-.586,2.061,2.061,0,0,0,.8-1.465h1.709A3.276,3.276,0,0,1,204.2-1.6a4.116,4.116,0,0,1-1.538,1.309A4.438,4.438,0,0,1,200.631.2a4.353,4.353,0,0,1-3.433-1.44,5.737,5.737,0,0,1-1.274-3.94v-.3a6.361,6.361,0,0,1,.566-2.744,4.314,4.314,0,0,1,1.626-1.865,4.619,4.619,0,0,1,2.5-.664A4.238,4.238,0,0,1,203.575-9.7a3.8,3.8,0,0,1,1.255,2.764h-1.709a2.49,2.49,0,0,0-.776-1.685,2.415,2.415,0,0,0-1.724-.659,2.529,2.529,0,0,0-2.134.991,4.655,4.655,0,0,0-.757,2.866v.342a4.562,4.562,0,0,0,.752,2.813A2.541,2.541,0,0,0,200.631-1.279Zm8.352-11.846v2.559h1.973v1.4h-1.973v6.553a1.464,1.464,0,0,0,.264.952,1.11,1.11,0,0,0,.9.317A4.374,4.374,0,0,0,211-1.465V0a5.238,5.238,0,0,1-1.387.2,2.25,2.25,0,0,1-1.826-.732,3.147,3.147,0,0,1-.615-2.08V-9.17h-1.924v-1.4h1.924v-2.559ZM214.7,0h-1.807V-10.566H214.7Zm-1.953-13.369a1.078,1.078,0,0,1,.269-.742,1.008,1.008,0,0,1,.8-.3,1.024,1.024,0,0,1,.8.3,1.067,1.067,0,0,1,.273.742,1.032,1.032,0,0,1-.273.732,1.043,1.043,0,0,1-.8.293,1.026,1.026,0,0,1-.8-.293A1.043,1.043,0,0,1,212.744-13.369Zm8,10.918,2.617-8.115h1.846L221.418,0h-1.377l-3.828-10.566h1.846ZM228.578,0h-1.807V-10.566h1.807Zm-1.953-13.369a1.078,1.078,0,0,1,.269-.742,1.008,1.008,0,0,1,.8-.3,1.024,1.024,0,0,1,.8.3,1.067,1.067,0,0,1,.273.742,1.032,1.032,0,0,1-.273.732,1.043,1.043,0,0,1-.8.293,1.026,1.026,0,0,1-.8-.293A1.043,1.043,0,0,1,226.625-13.369Zm4.074,8a6.19,6.19,0,0,1,1.152-3.911,3.644,3.644,0,0,1,3.018-1.479,3.665,3.665,0,0,1,2.939,1.27V-15h1.807V0h-1.66l-.088-1.133A3.679,3.679,0,0,1,234.85.2a3.609,3.609,0,0,1-2.993-1.5A6.26,6.26,0,0,1,230.7-5.234Zm1.807.205a4.687,4.687,0,0,0,.742,2.813A2.4,2.4,0,0,0,235.3-1.338a2.636,2.636,0,0,0,2.51-1.543V-7.734a2.656,2.656,0,0,0-2.49-1.494,2.411,2.411,0,0,0-2.07,1.025A5.16,5.16,0,0,0,232.506-5.166ZM248.612,0a3.8,3.8,0,0,1-.254-1.113A4.031,4.031,0,0,1,245.35.2a3.73,3.73,0,0,1-2.563-.884,2.859,2.859,0,0,1-1-2.241,2.987,2.987,0,0,1,1.255-2.563,5.916,5.916,0,0,1,3.53-.913h1.758v-.83a2.029,2.029,0,0,0-.566-1.509,2.276,2.276,0,0,0-1.67-.562,2.634,2.634,0,0,0-1.621.488,1.439,1.439,0,0,0-.654,1.182H242a2.493,2.493,0,0,1,.562-1.528,3.832,3.832,0,0,1,1.523-1.167,5.125,5.125,0,0,1,2.114-.43,4.177,4.177,0,0,1,2.861.913,3.294,3.294,0,0,1,1.074,2.515v4.863a5.946,5.946,0,0,0,.371,2.314V0Zm-3-1.377a3.175,3.175,0,0,0,1.611-.439,2.658,2.658,0,0,0,1.1-1.143V-5.127h-1.416q-3.32,0-3.32,1.943a1.645,1.645,0,0,0,.566,1.328A2.177,2.177,0,0,0,245.614-1.377ZM252.2-5.371a6.19,6.19,0,0,1,1.152-3.911,3.644,3.644,0,0,1,3.018-1.479,3.665,3.665,0,0,1,2.939,1.27V-15h1.807V0h-1.66l-.088-1.133A3.679,3.679,0,0,1,256.348.2a3.609,3.609,0,0,1-2.993-1.5A6.26,6.26,0,0,1,252.2-5.234ZM254-5.166a4.687,4.687,0,0,0,.742,2.813A2.4,2.4,0,0,0,256.8-1.338a2.636,2.636,0,0,0,2.51-1.543V-7.734a2.656,2.656,0,0,0-2.49-1.494,2.411,2.411,0,0,0-2.07,1.025A5.16,5.16,0,0,0,254-5.166ZM267.971.2a4.617,4.617,0,0,1-3.5-1.411,5.237,5.237,0,0,1-1.348-3.774v-.332a6.341,6.341,0,0,1,.6-2.808,4.685,4.685,0,0,1,1.68-1.934,4.223,4.223,0,0,1,2.339-.7,3.957,3.957,0,0,1,3.2,1.357,5.877,5.877,0,0,1,1.143,3.887v.752h-7.158a3.756,3.756,0,0,0,.913,2.524,2.87,2.87,0,0,0,2.222.962,3.147,3.147,0,0,0,1.621-.391,4.073,4.073,0,0,0,1.162-1.035l1.1.859A4.437,4.437,0,0,1,267.971.2Zm-.225-9.473a2.41,2.41,0,0,0-1.836.8,3.869,3.869,0,0,0-.918,2.231h5.293v-.137a3.441,3.441,0,0,0-.742-2.134A2.269,2.269,0,0,0,267.746-9.277ZM280-2.8a1.33,1.33,0,0,0-.552-1.138,5.311,5.311,0,0,0-1.924-.7,9.1,9.1,0,0,1-2.178-.7,3.1,3.1,0,0,1-1.191-.977,2.336,2.336,0,0,1-.386-1.348,2.741,2.741,0,0,1,1.1-2.2,4.291,4.291,0,0,1,2.808-.9,4.415,4.415,0,0,1,2.915.928,2.947,2.947,0,0,1,1.118,2.373H279.9a1.631,1.631,0,0,0-.63-1.279,2.36,2.36,0,0,0-1.587-.537,2.47,2.47,0,0,0-1.543.43,1.353,1.353,0,0,0-.557,1.123,1.1,1.1,0,0,0,.518.986,6.368,6.368,0,0,0,1.87.635,9.744,9.744,0,0,1,2.192.723,3.2,3.2,0,0,1,1.245,1.011,2.485,2.485,0,0,1,.405,1.44,2.7,2.7,0,0,1-1.133,2.271A4.752,4.752,0,0,1,277.739.2a5.321,5.321,0,0,1-2.246-.449,3.653,3.653,0,0,1-1.528-1.255,3.025,3.025,0,0,1-.552-1.743h1.807a1.87,1.87,0,0,0,.728,1.44,2.822,2.822,0,0,0,1.792.532,2.914,2.914,0,0,0,1.646-.415A1.275,1.275,0,0,0,280-2.8Zm8.012-2.568a6.19,6.19,0,0,1,1.152-3.911,3.644,3.644,0,0,1,3.018-1.479,3.665,3.665,0,0,1,2.939,1.27V-15h1.807V0h-1.66l-.088-1.133A3.679,3.679,0,0,1,292.167.2a3.609,3.609,0,0,1-2.993-1.5,6.26,6.26,0,0,1-1.157-3.926Zm1.807.205a4.687,4.687,0,0,0,.742,2.813,2.4,2.4,0,0,0,2.051,1.016,2.636,2.636,0,0,0,2.51-1.543V-7.734a2.656,2.656,0,0,0-2.49-1.494,2.411,2.411,0,0,0-2.07,1.025A5.16,5.16,0,0,0,289.823-5.166ZM303.79.2a4.617,4.617,0,0,1-3.5-1.411,5.237,5.237,0,0,1-1.348-3.774v-.332a6.341,6.341,0,0,1,.6-2.808,4.685,4.685,0,0,1,1.68-1.934,4.223,4.223,0,0,1,2.339-.7,3.957,3.957,0,0,1,3.2,1.357,5.877,5.877,0,0,1,1.143,3.887v.752h-7.158a3.756,3.756,0,0,0,.913,2.524,2.87,2.87,0,0,0,2.222.962,3.147,3.147,0,0,0,1.621-.391,4.073,4.073,0,0,0,1.162-1.035l1.1.859A4.437,4.437,0,0,1,303.79.2Zm-.225-9.473a2.41,2.41,0,0,0-1.836.8,3.869,3.869,0,0,0-.918,2.231H306.1v-.137a3.441,3.441,0,0,0-.742-2.134A2.269,2.269,0,0,0,303.565-9.277ZM316.255,0h-1.807V-10.566h1.807ZM314.3-13.369a1.078,1.078,0,0,1,.269-.742,1.008,1.008,0,0,1,.8-.3,1.024,1.024,0,0,1,.8.3,1.067,1.067,0,0,1,.273.742,1.032,1.032,0,0,1-.273.732,1.043,1.043,0,0,1-.8.293,1.026,1.026,0,0,1-.8-.293A1.043,1.043,0,0,1,314.3-13.369Zm6.223,2.8.059,1.328a3.85,3.85,0,0,1,3.164-1.523q3.35,0,3.379,3.779V0h-1.807V-6.992a2.432,2.432,0,0,0-.522-1.689,2.094,2.094,0,0,0-1.6-.547,2.607,2.607,0,0,0-1.543.469,3.183,3.183,0,0,0-1.035,1.23V0h-1.807V-10.566Zm12.482,8.115,2.617-8.115h1.846L333.681,0H332.3l-3.828-10.566h1.846ZM343.263.2a4.617,4.617,0,0,1-3.5-1.411,5.237,5.237,0,0,1-1.348-3.774v-.332a6.341,6.341,0,0,1,.6-2.808,4.685,4.685,0,0,1,1.68-1.934,4.223,4.223,0,0,1,2.339-.7,3.957,3.957,0,0,1,3.2,1.357,5.877,5.877,0,0,1,1.143,3.887v.752h-7.158a3.756,3.756,0,0,0,.913,2.524,2.87,2.87,0,0,0,2.222.962,3.147,3.147,0,0,0,1.621-.391,4.073,4.073,0,0,0,1.162-1.035l1.1.859A4.437,4.437,0,0,1,343.263.2Zm-.225-9.473a2.41,2.41,0,0,0-1.836.8,3.869,3.869,0,0,0-.918,2.231h5.293v-.137a3.441,3.441,0,0,0-.742-2.134A2.269,2.269,0,0,0,343.038-9.277Zm11.213.332a5.414,5.414,0,0,0-.889-.068A2.381,2.381,0,0,0,350.95-7.5V0h-1.807V-10.566H350.9l.029,1.221a2.813,2.813,0,0,1,2.52-1.416,1.846,1.846,0,0,1,.8.137ZM361.734-2.8a1.33,1.33,0,0,0-.552-1.138,5.311,5.311,0,0,0-1.924-.7,9.1,9.1,0,0,1-2.178-.7,3.1,3.1,0,0,1-1.191-.977,2.336,2.336,0,0,1-.386-1.348,2.741,2.741,0,0,1,1.1-2.2,4.291,4.291,0,0,1,2.808-.9,4.415,4.415,0,0,1,2.915.928,2.947,2.947,0,0,1,1.118,2.373h-1.816A1.631,1.631,0,0,0,361-8.74a2.36,2.36,0,0,0-1.587-.537,2.47,2.47,0,0,0-1.543.43,1.353,1.353,0,0,0-.557,1.123,1.1,1.1,0,0,0,.518.986,6.368,6.368,0,0,0,1.87.635,9.744,9.744,0,0,1,2.192.723,3.2,3.2,0,0,1,1.245,1.011,2.485,2.485,0,0,1,.405,1.44,2.7,2.7,0,0,1-1.133,2.271A4.752,4.752,0,0,1,359.468.2a5.321,5.321,0,0,1-2.246-.449,3.653,3.653,0,0,1-1.528-1.255,3.025,3.025,0,0,1-.552-1.743h1.807a1.87,1.87,0,0,0,.728,1.44,2.822,2.822,0,0,0,1.792.532,2.914,2.914,0,0,0,1.646-.415A1.275,1.275,0,0,0,361.734-2.8ZM367.527,0H365.72V-10.566h1.807Zm-1.953-13.369a1.078,1.078,0,0,1,.269-.742,1.008,1.008,0,0,1,.8-.3,1.024,1.024,0,0,1,.8.3,1.067,1.067,0,0,1,.273.742,1.032,1.032,0,0,1-.273.732,1.043,1.043,0,0,1-.8.293,1.026,1.026,0,0,1-.8-.293A1.043,1.043,0,0,1,365.574-13.369Zm4.035,7.988a6.241,6.241,0,0,1,.61-2.793,4.553,4.553,0,0,1,1.7-1.914,4.626,4.626,0,0,1,2.485-.674,4.456,4.456,0,0,1,3.491,1.494,5.748,5.748,0,0,1,1.333,3.975v.127a6.3,6.3,0,0,1-.591,2.769,4.486,4.486,0,0,1-1.689,1.909A4.679,4.679,0,0,1,374.423.2,4.445,4.445,0,0,1,370.942-1.3a5.719,5.719,0,0,1-1.333-3.955Zm1.816.215a4.52,4.52,0,0,0,.815,2.822,2.61,2.61,0,0,0,2.183,1.064,2.594,2.594,0,0,0,2.188-1.079,4.943,4.943,0,0,0,.811-3.022A4.512,4.512,0,0,0,376.6-8.2,2.623,2.623,0,0,0,374.4-9.277a2.594,2.594,0,0,0-2.158,1.064A4.906,4.906,0,0,0,371.425-5.166Zm3.8-9.834h2.188l-2.617,2.871h-1.455Zm7.649,4.434.059,1.328a3.85,3.85,0,0,1,3.164-1.523q3.35,0,3.379,3.779V0h-1.807V-6.992a2.432,2.432,0,0,0-.522-1.689,2.094,2.094,0,0,0-1.6-.547,2.607,2.607,0,0,0-1.543.469,3.183,3.183,0,0,0-1.035,1.23V0h-1.807V-10.566Z" transform="translate(1004.128 -2090.334)"/><path d="M9.688-6.572H3.525v5.039h7.158V0H1.65V-14.219h8.936v1.543H3.525v4.57H9.688ZM13.117,0V-9.17h-1.67v-1.4h1.67V-11.65a3.6,3.6,0,0,1,.908-2.627,3.431,3.431,0,0,1,2.568-.928,4.741,4.741,0,0,1,1.24.166l-.1,1.465a5.189,5.189,0,0,0-.977-.088,1.766,1.766,0,0,0-1.357.513,2.075,2.075,0,0,0-.479,1.47v1.113H17.18v1.4H14.924V0ZM23.227.2a4.617,4.617,0,0,1-3.5-1.411A5.237,5.237,0,0,1,18.383-4.99v-.332a6.341,6.341,0,0,1,.6-2.808,4.685,4.685,0,0,1,1.68-1.934,4.223,4.223,0,0,1,2.339-.7,3.957,3.957,0,0,1,3.2,1.357,5.877,5.877,0,0,1,1.143,3.887v.752H20.19A3.756,3.756,0,0,0,21.1-2.241a2.87,2.87,0,0,0,2.222.962,3.147,3.147,0,0,0,1.621-.391,4.073,4.073,0,0,0,1.162-1.035l1.1.859A4.437,4.437,0,0,1,23.227.2ZM23-9.277a2.41,2.41,0,0,0-1.836.8,3.868,3.868,0,0,0-.918,2.231h5.293v-.137A3.441,3.441,0,0,0,24.8-8.521,2.269,2.269,0,0,0,23-9.277Zm10.344,8a2.6,2.6,0,0,0,1.689-.586,2.061,2.061,0,0,0,.8-1.465h1.709A3.276,3.276,0,0,1,36.92-1.6,4.116,4.116,0,0,1,35.382-.293,4.438,4.438,0,0,1,33.346.2a4.353,4.353,0,0,1-3.433-1.44,5.737,5.737,0,0,1-1.274-3.94v-.3a6.361,6.361,0,0,1,.566-2.744A4.314,4.314,0,0,1,30.831-10.1a4.619,4.619,0,0,1,2.5-.664A4.238,4.238,0,0,1,36.29-9.7a3.8,3.8,0,0,1,1.255,2.764H35.836a2.49,2.49,0,0,0-.776-1.685,2.415,2.415,0,0,0-1.724-.659,2.529,2.529,0,0,0-2.134.991,4.655,4.655,0,0,0-.757,2.866v.342A4.562,4.562,0,0,0,31.2-2.266,2.541,2.541,0,0,0,33.346-1.279ZM41.7-13.125v2.559H43.67v1.4H41.7v6.553a1.464,1.464,0,0,0,.264.952,1.11,1.11,0,0,0,.9.317,4.374,4.374,0,0,0,.859-.117V0a5.238,5.238,0,0,1-1.387.2,2.25,2.25,0,0,1-1.826-.732,3.147,3.147,0,0,1-.615-2.08V-9.17H37.967v-1.4h1.924v-2.559ZM47.412,0H45.606V-10.566h1.807ZM45.459-13.369a1.078,1.078,0,0,1,.269-.742,1.008,1.008,0,0,1,.8-.3,1.024,1.024,0,0,1,.8.3,1.067,1.067,0,0,1,.273.742,1.032,1.032,0,0,1-.273.732,1.043,1.043,0,0,1-.8.293,1.026,1.026,0,0,1-.8-.293A1.043,1.043,0,0,1,45.459-13.369Zm8,10.918,2.617-8.115h1.846L54.133,0H52.756L48.928-10.566h1.846Zm5.246-2.93a6.241,6.241,0,0,1,.61-2.793,4.553,4.553,0,0,1,1.7-1.914,4.626,4.626,0,0,1,2.485-.674,4.456,4.456,0,0,1,3.491,1.494,5.748,5.748,0,0,1,1.333,3.975v.127A6.3,6.3,0,0,1,67.734-2.4,4.486,4.486,0,0,1,66.044-.488,4.679,4.679,0,0,1,63.52.2,4.445,4.445,0,0,1,60.039-1.3a5.719,5.719,0,0,1-1.333-3.955Zm1.816.215a4.52,4.52,0,0,0,.815,2.822A2.61,2.61,0,0,0,63.52-1.279a2.594,2.594,0,0,0,2.188-1.079,4.943,4.943,0,0,0,.811-3.022A4.513,4.513,0,0,0,65.693-8.2,2.623,2.623,0,0,0,63.5-9.277a2.594,2.594,0,0,0-2.158,1.064A4.906,4.906,0,0,0,60.522-5.166Zm13.93-.205A6.21,6.21,0,0,1,75.594-9.3a3.654,3.654,0,0,1,3.027-1.46,3.635,3.635,0,0,1,3.018,1.367l.088-1.172h1.65V-.254a4.3,4.3,0,0,1-1.216,3.232A4.487,4.487,0,0,1,78.9,4.16a5.435,5.435,0,0,1-2.236-.488,3.85,3.85,0,0,1-1.67-1.338l.938-1.084a3.533,3.533,0,0,0,2.842,1.436,2.768,2.768,0,0,0,2.056-.742,2.837,2.837,0,0,0,.737-2.09v-.908A3.713,3.713,0,0,1,78.6.2a3.609,3.609,0,0,1-3-1.494A6.529,6.529,0,0,1,74.452-5.371Zm1.816.205A4.738,4.738,0,0,0,77-2.358a2.38,2.38,0,0,0,2.051,1.021,2.646,2.646,0,0,0,2.51-1.553V-7.715a2.677,2.677,0,0,0-2.49-1.514A2.4,2.4,0,0,0,77.01-8.2,5.16,5.16,0,0,0,76.268-5.166ZM90.157.2a4.617,4.617,0,0,1-3.5-1.411A5.237,5.237,0,0,1,85.313-4.99v-.332a6.341,6.341,0,0,1,.6-2.808,4.685,4.685,0,0,1,1.68-1.934,4.223,4.223,0,0,1,2.339-.7,3.957,3.957,0,0,1,3.2,1.357,5.877,5.877,0,0,1,1.143,3.887v.752H87.12a3.756,3.756,0,0,0,.913,2.524,2.87,2.87,0,0,0,2.222.962,3.147,3.147,0,0,0,1.621-.391,4.073,4.073,0,0,0,1.162-1.035l1.1.859A4.437,4.437,0,0,1,90.157.2Zm-.225-9.473a2.41,2.41,0,0,0-1.836.8,3.869,3.869,0,0,0-.918,2.231h5.293v-.137a3.441,3.441,0,0,0-.742-2.134A2.269,2.269,0,0,0,89.932-9.277Zm7.815-1.289.059,1.328a3.85,3.85,0,0,1,3.164-1.523q3.35,0,3.379,3.779V0h-1.807V-6.992a2.432,2.432,0,0,0-.522-1.689,2.094,2.094,0,0,0-1.6-.547,2.607,2.607,0,0,0-1.543.469,3.183,3.183,0,0,0-1.035,1.23V0H96.038V-10.566ZM111.128.2a4.617,4.617,0,0,1-3.5-1.411,5.237,5.237,0,0,1-1.348-3.774v-.332a6.341,6.341,0,0,1,.6-2.808,4.685,4.685,0,0,1,1.68-1.934,4.223,4.223,0,0,1,2.339-.7,3.957,3.957,0,0,1,3.2,1.357,5.877,5.877,0,0,1,1.143,3.887v.752h-7.158A3.756,3.756,0,0,0,109-2.241a2.87,2.87,0,0,0,2.222.962,3.147,3.147,0,0,0,1.621-.391,4.073,4.073,0,0,0,1.162-1.035l1.1.859A4.437,4.437,0,0,1,111.128.2ZM110.9-9.277a2.41,2.41,0,0,0-1.836.8,3.869,3.869,0,0,0-.918,2.231h5.293v-.137a3.441,3.441,0,0,0-.742-2.134A2.269,2.269,0,0,0,110.9-9.277Zm11.213.332a5.414,5.414,0,0,0-.889-.068A2.381,2.381,0,0,0,118.815-7.5V0h-1.807V-10.566h1.758l.029,1.221a2.813,2.813,0,0,1,2.52-1.416,1.846,1.846,0,0,1,.8.137ZM129.579,0a3.8,3.8,0,0,1-.254-1.113A4.031,4.031,0,0,1,126.317.2a3.73,3.73,0,0,1-2.563-.884,2.859,2.859,0,0,1-1-2.241,2.987,2.987,0,0,1,1.255-2.563,5.916,5.916,0,0,1,3.53-.913H129.3v-.83a2.029,2.029,0,0,0-.566-1.509,2.276,2.276,0,0,0-1.67-.562,2.634,2.634,0,0,0-1.621.488,1.439,1.439,0,0,0-.654,1.182h-1.816a2.493,2.493,0,0,1,.562-1.528,3.832,3.832,0,0,1,1.523-1.167,5.125,5.125,0,0,1,2.114-.43,4.177,4.177,0,0,1,2.861.913A3.294,3.294,0,0,1,131.1-7.334v4.863a5.946,5.946,0,0,0,.371,2.314V0Zm-3-1.377a3.175,3.175,0,0,0,1.611-.439,2.658,2.658,0,0,0,1.1-1.143V-5.127H127.88q-3.32,0-3.32,1.943a1.645,1.645,0,0,0,.566,1.328A2.177,2.177,0,0,0,126.581-1.377Zm6.584-3.994a6.19,6.19,0,0,1,1.152-3.911,3.644,3.644,0,0,1,3.018-1.479,3.665,3.665,0,0,1,2.939,1.27V-15h1.807V0h-1.66l-.088-1.133A3.679,3.679,0,0,1,137.316.2a3.609,3.609,0,0,1-2.993-1.5,6.26,6.26,0,0,1-1.157-3.926Zm1.807.205a4.687,4.687,0,0,0,.742,2.813,2.4,2.4,0,0,0,2.051,1.016,2.636,2.636,0,0,0,2.51-1.543V-7.734a2.656,2.656,0,0,0-2.49-1.494,2.411,2.411,0,0,0-2.07,1.025A5.16,5.16,0,0,0,134.972-5.166Zm9.1-.215a6.241,6.241,0,0,1,.61-2.793,4.553,4.553,0,0,1,1.7-1.914,4.626,4.626,0,0,1,2.485-.674,4.456,4.456,0,0,1,3.491,1.494,5.748,5.748,0,0,1,1.333,3.975v.127A6.3,6.3,0,0,1,153.1-2.4a4.486,4.486,0,0,1-1.689,1.909A4.679,4.679,0,0,1,148.89.2,4.445,4.445,0,0,1,145.408-1.3a5.719,5.719,0,0,1-1.333-3.955Zm1.816.215a4.52,4.52,0,0,0,.815,2.822,2.61,2.61,0,0,0,2.183,1.064,2.594,2.594,0,0,0,2.188-1.079,4.943,4.943,0,0,0,.811-3.022,4.513,4.513,0,0,0-.825-2.817,2.623,2.623,0,0,0-2.192-1.079,2.594,2.594,0,0,0-2.158,1.064A4.906,4.906,0,0,0,145.892-5.166ZM164.636.2a4.617,4.617,0,0,1-3.5-1.411,5.237,5.237,0,0,1-1.348-3.774v-.332a6.341,6.341,0,0,1,.6-2.808,4.685,4.685,0,0,1,1.68-1.934,4.223,4.223,0,0,1,2.339-.7,3.957,3.957,0,0,1,3.2,1.357,5.877,5.877,0,0,1,1.143,3.887v.752H161.6a3.756,3.756,0,0,0,.913,2.524,2.87,2.87,0,0,0,2.222.962,3.147,3.147,0,0,0,1.621-.391,4.073,4.073,0,0,0,1.162-1.035l1.1.859A4.437,4.437,0,0,1,164.636.2Zm-.225-9.473a2.41,2.41,0,0,0-1.836.8,3.868,3.868,0,0,0-.918,2.231h5.293v-.137a3.441,3.441,0,0,0-.742-2.134A2.269,2.269,0,0,0,164.412-9.277Zm7.815-1.289.059,1.328a3.851,3.851,0,0,1,3.164-1.523q3.35,0,3.379,3.779V0h-1.807V-6.992a2.433,2.433,0,0,0-.522-1.689,2.094,2.094,0,0,0-1.6-.547,2.607,2.607,0,0,0-1.543.469,3.183,3.183,0,0,0-1.035,1.23V0h-1.807V-10.566ZM192.367,0a3.8,3.8,0,0,1-.254-1.113A4.031,4.031,0,0,1,189.105.2a3.73,3.73,0,0,1-2.563-.884,2.859,2.859,0,0,1-1-2.241A2.987,2.987,0,0,1,186.8-5.493a5.916,5.916,0,0,1,3.53-.913h1.758v-.83a2.029,2.029,0,0,0-.566-1.509,2.276,2.276,0,0,0-1.67-.562,2.634,2.634,0,0,0-1.621.488,1.439,1.439,0,0,0-.654,1.182h-1.816a2.493,2.493,0,0,1,.562-1.528,3.832,3.832,0,0,1,1.523-1.167,5.125,5.125,0,0,1,2.114-.43,4.177,4.177,0,0,1,2.861.913,3.294,3.294,0,0,1,1.074,2.515v4.863a5.946,5.946,0,0,0,.371,2.314V0Zm-3-1.377a3.175,3.175,0,0,0,1.611-.439,2.658,2.658,0,0,0,1.1-1.143V-5.127h-1.416q-3.32,0-3.32,1.943a1.645,1.645,0,0,0,.566,1.328A2.177,2.177,0,0,0,189.369-1.377Zm11.262.1a2.6,2.6,0,0,0,1.689-.586,2.061,2.061,0,0,0,.8-1.465h1.709A3.276,3.276,0,0,1,204.2-1.6a4.116,4.116,0,0,1-1.538,1.309A4.438,4.438,0,0,1,200.631.2a4.353,4.353,0,0,1-3.433-1.44,5.737,5.737,0,0,1-1.274-3.94v-.3a6.361,6.361,0,0,1,.566-2.744,4.314,4.314,0,0,1,1.626-1.865,4.619,4.619,0,0,1,2.5-.664A4.238,4.238,0,0,1,203.575-9.7a3.8,3.8,0,0,1,1.255,2.764h-1.709a2.49,2.49,0,0,0-.776-1.685,2.415,2.415,0,0,0-1.724-.659,2.529,2.529,0,0,0-2.134.991,4.655,4.655,0,0,0-.757,2.866v.342a4.562,4.562,0,0,0,.752,2.813A2.541,2.541,0,0,0,200.631-1.279Zm8.352-11.846v2.559h1.973v1.4h-1.973v6.553a1.464,1.464,0,0,0,.264.952,1.11,1.11,0,0,0,.9.317A4.374,4.374,0,0,0,211-1.465V0a5.238,5.238,0,0,1-1.387.2,2.25,2.25,0,0,1-1.826-.732,3.147,3.147,0,0,1-.615-2.08V-9.17h-1.924v-1.4h1.924v-2.559ZM214.7,0h-1.807V-10.566H214.7Zm-1.953-13.369a1.078,1.078,0,0,1,.269-.742,1.008,1.008,0,0,1,.8-.3,1.024,1.024,0,0,1,.8.3,1.067,1.067,0,0,1,.273.742,1.032,1.032,0,0,1-.273.732,1.043,1.043,0,0,1-.8.293,1.026,1.026,0,0,1-.8-.293A1.043,1.043,0,0,1,212.744-13.369Zm8,10.918,2.617-8.115h1.846L221.418,0h-1.377l-3.828-10.566h1.846ZM228.578,0h-1.807V-10.566h1.807Zm-1.953-13.369a1.078,1.078,0,0,1,.269-.742,1.008,1.008,0,0,1,.8-.3,1.024,1.024,0,0,1,.8.3,1.067,1.067,0,0,1,.273.742,1.032,1.032,0,0,1-.273.732,1.043,1.043,0,0,1-.8.293,1.026,1.026,0,0,1-.8-.293A1.043,1.043,0,0,1,226.625-13.369Zm4.074,8a6.19,6.19,0,0,1,1.152-3.911,3.644,3.644,0,0,1,3.018-1.479,3.665,3.665,0,0,1,2.939,1.27V-15h1.807V0h-1.66l-.088-1.133A3.679,3.679,0,0,1,234.85.2a3.609,3.609,0,0,1-2.993-1.5A6.26,6.26,0,0,1,230.7-5.234Zm1.807.205a4.687,4.687,0,0,0,.742,2.813A2.4,2.4,0,0,0,235.3-1.338a2.636,2.636,0,0,0,2.51-1.543V-7.734a2.656,2.656,0,0,0-2.49-1.494,2.411,2.411,0,0,0-2.07,1.025A5.16,5.16,0,0,0,232.506-5.166ZM248.612,0a3.8,3.8,0,0,1-.254-1.113A4.031,4.031,0,0,1,245.35.2a3.73,3.73,0,0,1-2.563-.884,2.859,2.859,0,0,1-1-2.241,2.987,2.987,0,0,1,1.255-2.563,5.916,5.916,0,0,1,3.53-.913h1.758v-.83a2.029,2.029,0,0,0-.566-1.509,2.276,2.276,0,0,0-1.67-.562,2.634,2.634,0,0,0-1.621.488,1.439,1.439,0,0,0-.654,1.182H242a2.493,2.493,0,0,1,.562-1.528,3.832,3.832,0,0,1,1.523-1.167,5.125,5.125,0,0,1,2.114-.43,4.177,4.177,0,0,1,2.861.913,3.294,3.294,0,0,1,1.074,2.515v4.863a5.946,5.946,0,0,0,.371,2.314V0Zm-3-1.377a3.175,3.175,0,0,0,1.611-.439,2.658,2.658,0,0,0,1.1-1.143V-5.127h-1.416q-3.32,0-3.32,1.943a1.645,1.645,0,0,0,.566,1.328A2.177,2.177,0,0,0,245.614-1.377ZM252.2-5.371a6.19,6.19,0,0,1,1.152-3.911,3.644,3.644,0,0,1,3.018-1.479,3.665,3.665,0,0,1,2.939,1.27V-15h1.807V0h-1.66l-.088-1.133A3.679,3.679,0,0,1,256.348.2a3.609,3.609,0,0,1-2.993-1.5A6.26,6.26,0,0,1,252.2-5.234ZM254-5.166a4.687,4.687,0,0,0,.742,2.813A2.4,2.4,0,0,0,256.8-1.338a2.636,2.636,0,0,0,2.51-1.543V-7.734a2.656,2.656,0,0,0-2.49-1.494,2.411,2.411,0,0,0-2.07,1.025A5.16,5.16,0,0,0,254-5.166ZM267.971.2a4.617,4.617,0,0,1-3.5-1.411,5.237,5.237,0,0,1-1.348-3.774v-.332a6.341,6.341,0,0,1,.6-2.808,4.685,4.685,0,0,1,1.68-1.934,4.223,4.223,0,0,1,2.339-.7,3.957,3.957,0,0,1,3.2,1.357,5.877,5.877,0,0,1,1.143,3.887v.752h-7.158a3.756,3.756,0,0,0,.913,2.524,2.87,2.87,0,0,0,2.222.962,3.147,3.147,0,0,0,1.621-.391,4.073,4.073,0,0,0,1.162-1.035l1.1.859A4.437,4.437,0,0,1,267.971.2Zm-.225-9.473a2.41,2.41,0,0,0-1.836.8,3.869,3.869,0,0,0-.918,2.231h5.293v-.137a3.441,3.441,0,0,0-.742-2.134A2.269,2.269,0,0,0,267.746-9.277ZM280-2.8a1.33,1.33,0,0,0-.552-1.138,5.311,5.311,0,0,0-1.924-.7,9.1,9.1,0,0,1-2.178-.7,3.1,3.1,0,0,1-1.191-.977,2.336,2.336,0,0,1-.386-1.348,2.741,2.741,0,0,1,1.1-2.2,4.291,4.291,0,0,1,2.808-.9,4.415,4.415,0,0,1,2.915.928,2.947,2.947,0,0,1,1.118,2.373H279.9a1.631,1.631,0,0,0-.63-1.279,2.36,2.36,0,0,0-1.587-.537,2.47,2.47,0,0,0-1.543.43,1.353,1.353,0,0,0-.557,1.123,1.1,1.1,0,0,0,.518.986,6.368,6.368,0,0,0,1.87.635,9.744,9.744,0,0,1,2.192.723,3.2,3.2,0,0,1,1.245,1.011,2.485,2.485,0,0,1,.405,1.44,2.7,2.7,0,0,1-1.133,2.271A4.752,4.752,0,0,1,277.739.2a5.321,5.321,0,0,1-2.246-.449,3.653,3.653,0,0,1-1.528-1.255,3.025,3.025,0,0,1-.552-1.743h1.807a1.87,1.87,0,0,0,.728,1.44,2.822,2.822,0,0,0,1.792.532,2.914,2.914,0,0,0,1.646-.415A1.275,1.275,0,0,0,280-2.8Zm8.012-2.568a6.19,6.19,0,0,1,1.152-3.911,3.644,3.644,0,0,1,3.018-1.479,3.665,3.665,0,0,1,2.939,1.27V-15h1.807V0h-1.66l-.088-1.133A3.679,3.679,0,0,1,292.167.2a3.609,3.609,0,0,1-2.993-1.5,6.26,6.26,0,0,1-1.157-3.926Zm1.807.205a4.687,4.687,0,0,0,.742,2.813,2.4,2.4,0,0,0,2.051,1.016,2.636,2.636,0,0,0,2.51-1.543V-7.734a2.656,2.656,0,0,0-2.49-1.494,2.411,2.411,0,0,0-2.07,1.025A5.16,5.16,0,0,0,289.823-5.166ZM303.79.2a4.617,4.617,0,0,1-3.5-1.411,5.237,5.237,0,0,1-1.348-3.774v-.332a6.341,6.341,0,0,1,.6-2.808,4.685,4.685,0,0,1,1.68-1.934,4.223,4.223,0,0,1,2.339-.7,3.957,3.957,0,0,1,3.2,1.357,5.877,5.877,0,0,1,1.143,3.887v.752h-7.158a3.756,3.756,0,0,0,.913,2.524,2.87,2.87,0,0,0,2.222.962,3.147,3.147,0,0,0,1.621-.391,4.073,4.073,0,0,0,1.162-1.035l1.1.859A4.437,4.437,0,0,1,303.79.2Zm-.225-9.473a2.41,2.41,0,0,0-1.836.8,3.869,3.869,0,0,0-.918,2.231H306.1v-.137a3.441,3.441,0,0,0-.742-2.134A2.269,2.269,0,0,0,303.565-9.277ZM314.9,0V-9.17h-1.67v-1.4h1.67v-.9a3.671,3.671,0,0,1,1.011-2.754,3.919,3.919,0,0,1,2.856-.986,8.6,8.6,0,0,1,2.764.6l-.3,1.523a6.259,6.259,0,0,0-2.324-.488,2.274,2.274,0,0,0-1.675.522,2.154,2.154,0,0,0-.513,1.567v.918h2.158v1.4h-2.158V0Zm7.529,0H320.61V-10.566h1.816Zm4.318-10.566.059,1.328a3.85,3.85,0,0,1,3.164-1.523q3.35,0,3.379,3.779V0H331.54V-6.992a2.432,2.432,0,0,0-.522-1.689,2.094,2.094,0,0,0-1.6-.547,2.607,2.607,0,0,0-1.543.469,3.183,3.183,0,0,0-1.035,1.23V0h-1.807V-10.566ZM342.265,0a3.8,3.8,0,0,1-.254-1.113A4.031,4.031,0,0,1,339,.2a3.73,3.73,0,0,1-2.563-.884,2.859,2.859,0,0,1-1-2.241,2.987,2.987,0,0,1,1.255-2.563,5.916,5.916,0,0,1,3.53-.913h1.758v-.83a2.029,2.029,0,0,0-.566-1.509,2.276,2.276,0,0,0-1.67-.562,2.634,2.634,0,0,0-1.621.488,1.439,1.439,0,0,0-.654,1.182h-1.816a2.493,2.493,0,0,1,.562-1.528,3.833,3.833,0,0,1,1.523-1.167,5.125,5.125,0,0,1,2.114-.43,4.177,4.177,0,0,1,2.861.913,3.294,3.294,0,0,1,1.074,2.515v4.863a5.946,5.946,0,0,0,.371,2.314V0Zm-3-1.377a3.175,3.175,0,0,0,1.611-.439,2.658,2.658,0,0,0,1.1-1.143V-5.127h-1.416q-3.32,0-3.32,1.943a1.645,1.645,0,0,0,.566,1.328A2.177,2.177,0,0,0,339.267-1.377ZM348-10.566l.059,1.328a3.85,3.85,0,0,1,3.164-1.523q3.35,0,3.379,3.779V0h-1.807V-6.992a2.432,2.432,0,0,0-.522-1.689,2.094,2.094,0,0,0-1.6-.547,2.607,2.607,0,0,0-1.543.469,3.183,3.183,0,0,0-1.035,1.23V0H346.29V-10.566Zm13.234,9.287a2.6,2.6,0,0,0,1.689-.586,2.061,2.061,0,0,0,.8-1.465h1.709a3.276,3.276,0,0,1-.625,1.729A4.117,4.117,0,0,1,363.27-.293,4.438,4.438,0,0,1,361.234.2a4.353,4.353,0,0,1-3.433-1.44,5.737,5.737,0,0,1-1.274-3.94v-.3a6.362,6.362,0,0,1,.566-2.744,4.314,4.314,0,0,1,1.626-1.865,4.619,4.619,0,0,1,2.5-.664A4.238,4.238,0,0,1,364.178-9.7a3.8,3.8,0,0,1,1.255,2.764h-1.709a2.49,2.49,0,0,0-.776-1.685,2.415,2.415,0,0,0-1.724-.659,2.529,2.529,0,0,0-2.134.991,4.655,4.655,0,0,0-.757,2.866v.342a4.562,4.562,0,0,0,.752,2.813A2.541,2.541,0,0,0,361.234-1.279ZM369.1,0H367.29V-10.566H369.1Zm-1.953-13.369a1.078,1.078,0,0,1,.269-.742,1.008,1.008,0,0,1,.8-.3,1.024,1.024,0,0,1,.8.3,1.067,1.067,0,0,1,.273.742,1.032,1.032,0,0,1-.273.732,1.043,1.043,0,0,1-.8.293,1.026,1.026,0,0,1-.8-.293A1.043,1.043,0,0,1,367.144-13.369ZM378.181,0a3.8,3.8,0,0,1-.254-1.113A4.031,4.031,0,0,1,374.919.2a3.73,3.73,0,0,1-2.563-.884,2.859,2.859,0,0,1-1-2.241,2.987,2.987,0,0,1,1.255-2.563,5.916,5.916,0,0,1,3.53-.913H377.9v-.83a2.029,2.029,0,0,0-.566-1.509,2.276,2.276,0,0,0-1.67-.562,2.634,2.634,0,0,0-1.621.488,1.439,1.439,0,0,0-.654,1.182H371.57a2.493,2.493,0,0,1,.562-1.528,3.833,3.833,0,0,1,1.523-1.167,5.125,5.125,0,0,1,2.114-.43,4.177,4.177,0,0,1,2.861.913A3.294,3.294,0,0,1,379.7-7.334v4.863a5.946,5.946,0,0,0,.371,2.314V0Zm-3-1.377a3.175,3.175,0,0,0,1.611-.439,2.658,2.658,0,0,0,1.1-1.143V-5.127h-1.416q-3.32,0-3.32,1.943a1.645,1.645,0,0,0,.566,1.328A2.177,2.177,0,0,0,375.183-1.377Zm11.262.1a2.6,2.6,0,0,0,1.689-.586,2.061,2.061,0,0,0,.8-1.465h1.709a3.276,3.276,0,0,1-.625,1.729,4.117,4.117,0,0,1-1.538,1.309A4.438,4.438,0,0,1,386.445.2a4.353,4.353,0,0,1-3.433-1.44,5.737,5.737,0,0,1-1.274-3.94v-.3a6.362,6.362,0,0,1,.566-2.744A4.314,4.314,0,0,1,383.93-10.1a4.619,4.619,0,0,1,2.5-.664A4.238,4.238,0,0,1,389.389-9.7a3.8,3.8,0,0,1,1.255,2.764h-1.709a2.49,2.49,0,0,0-.776-1.685,2.415,2.415,0,0,0-1.724-.659,2.529,2.529,0,0,0-2.134.991,4.655,4.655,0,0,0-.757,2.866v.342a4.562,4.562,0,0,0,.752,2.813A2.541,2.541,0,0,0,386.445-1.279ZM394.308,0H392.5V-10.566h1.807Zm-1.953-13.369a1.078,1.078,0,0,1,.269-.742,1.008,1.008,0,0,1,.8-.3,1.024,1.024,0,0,1,.8.3,1.067,1.067,0,0,1,.273.742,1.032,1.032,0,0,1-.273.732,1.043,1.043,0,0,1-.8.293,1.026,1.026,0,0,1-.8-.293A1.043,1.043,0,0,1,392.355-13.369Zm4.035,7.988A6.241,6.241,0,0,1,397-8.174a4.553,4.553,0,0,1,1.7-1.914,4.626,4.626,0,0,1,2.485-.674,4.456,4.456,0,0,1,3.491,1.494,5.748,5.748,0,0,1,1.333,3.975v.127a6.3,6.3,0,0,1-.591,2.769,4.486,4.486,0,0,1-1.689,1.909A4.679,4.679,0,0,1,401.2.2,4.445,4.445,0,0,1,397.723-1.3a5.719,5.719,0,0,1-1.333-3.955Zm1.816.215a4.52,4.52,0,0,0,.815,2.822A2.61,2.61,0,0,0,401.2-1.279a2.594,2.594,0,0,0,2.188-1.079,4.943,4.943,0,0,0,.811-3.022,4.512,4.512,0,0,0-.825-2.817,2.623,2.623,0,0,0-2.192-1.079,2.594,2.594,0,0,0-2.158,1.064A4.906,4.906,0,0,0,398.207-5.166Zm3.8-9.834h2.188l-2.617,2.871h-1.455Zm7.649,4.434.059,1.328a3.85,3.85,0,0,1,3.164-1.523q3.35,0,3.379,3.779V0h-1.807V-6.992a2.432,2.432,0,0,0-.522-1.689,2.094,2.094,0,0,0-1.6-.547,2.607,2.607,0,0,0-1.543.469,3.183,3.183,0,0,0-1.035,1.23V0h-1.807V-10.566Z" transform="translate(1004.128 -2047.334)"/><path d="M9.492-6.279H3.525V0H1.65V-14.219h8.809v1.543H3.525v4.863H9.492ZM14.055,0H12.248V-15h1.807Zm9.084-1.045A3.837,3.837,0,0,1,20.043.2,3.285,3.285,0,0,1,17.47-.786a4.248,4.248,0,0,1-.894-2.905v-6.875h1.807V-3.74q0,2.4,1.953,2.4A2.7,2.7,0,0,0,23.09-2.881v-7.686H24.9V0H23.178Zm6.037-9.521V1.221q0,3.047-2.764,3.047a3.352,3.352,0,0,1-1.1-.176V2.646a3.493,3.493,0,0,0,.82.078,1.228,1.228,0,0,0,.923-.327,1.617,1.617,0,0,0,.317-1.138V-10.566Zm-1.992-2.8a1.083,1.083,0,0,1,.269-.737.987.987,0,0,1,.786-.308,1.024,1.024,0,0,1,.8.3,1.067,1.067,0,0,1,.273.742,1.032,1.032,0,0,1-.273.732,1.043,1.043,0,0,1-.8.293,1.01,1.01,0,0,1-.791-.293A1.054,1.054,0,0,1,27.184-13.369Zm4.094,7.988a6.241,6.241,0,0,1,.61-2.793,4.553,4.553,0,0,1,1.7-1.914,4.626,4.626,0,0,1,2.485-.674,4.456,4.456,0,0,1,3.491,1.494A5.748,5.748,0,0,1,40.9-5.293v.127A6.3,6.3,0,0,1,40.306-2.4,4.486,4.486,0,0,1,38.617-.488,4.679,4.679,0,0,1,36.092.2,4.445,4.445,0,0,1,32.611-1.3a5.719,5.719,0,0,1-1.333-3.955Zm1.816.215a4.52,4.52,0,0,0,.815,2.822,2.61,2.61,0,0,0,2.183,1.064A2.594,2.594,0,0,0,38.28-2.358a4.943,4.943,0,0,0,.811-3.022A4.513,4.513,0,0,0,38.265-8.2a2.623,2.623,0,0,0-2.192-1.079,2.594,2.594,0,0,0-2.158,1.064A4.906,4.906,0,0,0,33.094-5.166ZM49.9-13.125v2.559h1.973v1.4H49.9v6.553a1.464,1.464,0,0,0,.264.952,1.11,1.11,0,0,0,.9.317,4.374,4.374,0,0,0,.859-.117V0A5.238,5.238,0,0,1,50.54.2a2.25,2.25,0,0,1-1.826-.732,3.147,3.147,0,0,1-.615-2.08V-9.17H46.174v-1.4H48.1v-2.559Zm3.078,7.744a6.241,6.241,0,0,1,.61-2.793,4.553,4.553,0,0,1,1.7-1.914,4.626,4.626,0,0,1,2.485-.674,4.456,4.456,0,0,1,3.491,1.494A5.748,5.748,0,0,1,62.6-5.293v.127A6.3,6.3,0,0,1,62.011-2.4,4.486,4.486,0,0,1,60.322-.488,4.679,4.679,0,0,1,57.8.2,4.445,4.445,0,0,1,54.316-1.3a5.719,5.719,0,0,1-1.333-3.955Zm1.816.215a4.52,4.52,0,0,0,.815,2.822A2.61,2.61,0,0,0,57.8-1.279a2.594,2.594,0,0,0,2.188-1.079A4.943,4.943,0,0,0,60.8-5.381,4.513,4.513,0,0,0,59.97-8.2a2.623,2.623,0,0,0-2.192-1.079A2.594,2.594,0,0,0,55.62-8.213,4.906,4.906,0,0,0,54.8-5.166Zm12.19-7.959v2.559h1.973v1.4H66.989v6.553a1.464,1.464,0,0,0,.264.952,1.11,1.11,0,0,0,.9.317,4.374,4.374,0,0,0,.859-.117V0a5.238,5.238,0,0,1-1.387.2A2.25,2.25,0,0,1,65.8-.537a3.147,3.147,0,0,1-.615-2.08V-9.17H63.258v-1.4h1.924v-2.559ZM77.264,0a3.8,3.8,0,0,1-.254-1.113A4.031,4.031,0,0,1,74,.2a3.73,3.73,0,0,1-2.563-.884,2.859,2.859,0,0,1-1-2.241,2.987,2.987,0,0,1,1.255-2.563,5.916,5.916,0,0,1,3.53-.913h1.758v-.83a2.029,2.029,0,0,0-.566-1.509,2.276,2.276,0,0,0-1.67-.562,2.634,2.634,0,0,0-1.621.488,1.439,1.439,0,0,0-.654,1.182H70.653a2.493,2.493,0,0,1,.562-1.528,3.832,3.832,0,0,1,1.523-1.167,5.125,5.125,0,0,1,2.114-.43,4.177,4.177,0,0,1,2.861.913,3.294,3.294,0,0,1,1.074,2.515v4.863a5.946,5.946,0,0,0,.371,2.314V0Zm-3-1.377a3.175,3.175,0,0,0,1.611-.439,2.658,2.658,0,0,0,1.1-1.143V-5.127H75.565q-3.32,0-3.32,1.943a1.645,1.645,0,0,0,.566,1.328A2.177,2.177,0,0,0,74.266-1.377ZM83.253,0H81.446V-15h1.807ZM90-5.371a6.19,6.19,0,0,1,1.152-3.911,3.644,3.644,0,0,1,3.018-1.479A3.665,3.665,0,0,1,97.1-9.492V-15h1.807V0h-1.66l-.088-1.133A3.679,3.679,0,0,1,94.145.2a3.609,3.609,0,0,1-2.993-1.5A6.26,6.26,0,0,1,90-5.234Zm1.807.205a4.687,4.687,0,0,0,.742,2.813,2.4,2.4,0,0,0,2.051,1.016A2.636,2.636,0,0,0,97.1-2.881V-7.734a2.656,2.656,0,0,0-2.49-1.494A2.411,2.411,0,0,0,92.544-8.2,5.16,5.16,0,0,0,91.8-5.166ZM105.769.2a4.617,4.617,0,0,1-3.5-1.411,5.237,5.237,0,0,1-1.348-3.774v-.332a6.341,6.341,0,0,1,.6-2.808,4.685,4.685,0,0,1,1.68-1.934,4.223,4.223,0,0,1,2.339-.7,3.957,3.957,0,0,1,3.2,1.357,5.877,5.877,0,0,1,1.143,3.887v.752h-7.158a3.756,3.756,0,0,0,.913,2.524,2.87,2.87,0,0,0,2.222.962,3.147,3.147,0,0,0,1.621-.391,4.073,4.073,0,0,0,1.162-1.035l1.1.859A4.437,4.437,0,0,1,105.769.2Zm-.225-9.473a2.41,2.41,0,0,0-1.836.8,3.869,3.869,0,0,0-.918,2.231h5.293v-.137a3.441,3.441,0,0,0-.742-2.134A2.269,2.269,0,0,0,105.544-9.277ZM120.655.2a4.617,4.617,0,0,1-3.5-1.411,5.237,5.237,0,0,1-1.348-3.774v-.332a6.341,6.341,0,0,1,.6-2.808,4.685,4.685,0,0,1,1.68-1.934,4.223,4.223,0,0,1,2.339-.7,3.957,3.957,0,0,1,3.2,1.357,5.877,5.877,0,0,1,1.143,3.887v.752h-7.158a3.756,3.756,0,0,0,.913,2.524,2.87,2.87,0,0,0,2.222.962,3.147,3.147,0,0,0,1.621-.391,4.073,4.073,0,0,0,1.162-1.035l1.1.859A4.437,4.437,0,0,1,120.655.2Zm-.225-9.473a2.41,2.41,0,0,0-1.836.8,3.869,3.869,0,0,0-.918,2.231h5.293v-.137a3.441,3.441,0,0,0-.742-2.134A2.269,2.269,0,0,0,120.431-9.277ZM127.425,0V-9.17h-1.67v-1.4h1.67V-11.65a3.6,3.6,0,0,1,.908-2.627,3.431,3.431,0,0,1,2.568-.928,4.741,4.741,0,0,1,1.24.166l-.1,1.465a5.189,5.189,0,0,0-.977-.088,1.766,1.766,0,0,0-1.357.513,2.075,2.075,0,0,0-.479,1.47v1.113h2.256v1.4h-2.256V0Zm10.109.2a4.617,4.617,0,0,1-3.5-1.411,5.237,5.237,0,0,1-1.348-3.774v-.332a6.341,6.341,0,0,1,.6-2.808,4.685,4.685,0,0,1,1.68-1.934,4.223,4.223,0,0,1,2.339-.7,3.957,3.957,0,0,1,3.2,1.357,5.877,5.877,0,0,1,1.143,3.887v.752H134.5a3.756,3.756,0,0,0,.913,2.524,2.87,2.87,0,0,0,2.222.962,3.147,3.147,0,0,0,1.621-.391,4.073,4.073,0,0,0,1.162-1.035l1.1.859A4.437,4.437,0,0,1,137.535.2Zm-.225-9.473a2.41,2.41,0,0,0-1.836.8,3.868,3.868,0,0,0-.918,2.231h5.293v-.137a3.441,3.441,0,0,0-.742-2.134A2.269,2.269,0,0,0,137.31-9.277Zm10.344,8a2.6,2.6,0,0,0,1.689-.586,2.061,2.061,0,0,0,.8-1.465h1.709a3.276,3.276,0,0,1-.625,1.729A4.116,4.116,0,0,1,149.69-.293,4.438,4.438,0,0,1,147.654.2a4.353,4.353,0,0,1-3.433-1.44,5.737,5.737,0,0,1-1.274-3.94v-.3a6.361,6.361,0,0,1,.566-2.744,4.314,4.314,0,0,1,1.626-1.865,4.619,4.619,0,0,1,2.5-.664A4.238,4.238,0,0,1,150.6-9.7a3.8,3.8,0,0,1,1.255,2.764h-1.709a2.49,2.49,0,0,0-.776-1.685,2.415,2.415,0,0,0-1.724-.659,2.529,2.529,0,0,0-2.134.991,4.655,4.655,0,0,0-.757,2.866v.342a4.562,4.562,0,0,0,.752,2.813A2.541,2.541,0,0,0,147.654-1.279Zm8.352-11.846v2.559h1.973v1.4h-1.973v6.553a1.464,1.464,0,0,0,.264.952,1.11,1.11,0,0,0,.9.317,4.374,4.374,0,0,0,.859-.117V0a5.238,5.238,0,0,1-1.387.2,2.25,2.25,0,0,1-1.826-.732,3.147,3.147,0,0,1-.615-2.08V-9.17h-1.924v-1.4H154.2v-2.559ZM161.72,0h-1.807V-10.566h1.807Zm-1.953-13.369a1.078,1.078,0,0,1,.269-.742,1.008,1.008,0,0,1,.8-.3,1.024,1.024,0,0,1,.8.3,1.067,1.067,0,0,1,.273.742,1.032,1.032,0,0,1-.273.732,1.043,1.043,0,0,1-.8.293,1.026,1.026,0,0,1-.8-.293A1.043,1.043,0,0,1,159.767-13.369Zm8,10.918,2.617-8.115h1.846L168.441,0h-1.377l-3.828-10.566h1.846Zm5.246-2.93a6.241,6.241,0,0,1,.61-2.793,4.553,4.553,0,0,1,1.7-1.914,4.626,4.626,0,0,1,2.485-.674A4.456,4.456,0,0,1,181.3-9.268a5.748,5.748,0,0,1,1.333,3.975v.127a6.3,6.3,0,0,1-.591,2.769,4.486,4.486,0,0,1-1.689,1.909A4.679,4.679,0,0,1,177.828.2,4.445,4.445,0,0,1,174.346-1.3a5.719,5.719,0,0,1-1.333-3.955Zm1.816.215a4.52,4.52,0,0,0,.815,2.822,2.61,2.61,0,0,0,2.183,1.064,2.594,2.594,0,0,0,2.188-1.079,4.943,4.943,0,0,0,.811-3.022A4.513,4.513,0,0,0,180-8.2a2.623,2.623,0,0,0-2.192-1.079,2.594,2.594,0,0,0-2.158,1.064A4.906,4.906,0,0,0,174.83-5.166Zm9.777,4.219a1.131,1.131,0,0,1,.278-.781,1.061,1.061,0,0,1,.835-.312,1.092,1.092,0,0,1,.845.313,1.109,1.109,0,0,1,.288.781,1.048,1.048,0,0,1-.288.752,1.112,1.112,0,0,1-.845.3,1.079,1.079,0,0,1-.835-.3A1.069,1.069,0,0,1,184.607-.947Z" transform="translate(1004.128 -2003.334)"/></g></svg>