<svg xmlns="http://www.w3.org/2000/svg" width="647.926" height="259.46" viewBox="0 0 647.926 259.46"><defs><style>.a{fill:#d79b55;}.b{fill:#f1f1f1;}</style></defs><g transform="translate(-1042.012 3466.3)"><path class="a" d="M0-136H647.926v51.675H0Z" transform="translate(1042.012 -3330.3)"/><path class="b" d="M0-89H647.926v45.713H0Z" transform="translate(1042.012 -3283.888)"/><path class="b" d="M0-45H647.926V.713H0Z" transform="translate(1042.012 -3240.438)"/><path d="M9.3-2.93H4.16L3.184,0H.068L5.361-14.219H8.076L13.4,0H10.283ZM4.951-5.3H8.506L6.719-10.625ZM18.606-2.08a1.851,1.851,0,0,0,1.27-.43,1.506,1.506,0,0,0,.508-1.143h2.646a3.62,3.62,0,0,1-.586,1.968A3.866,3.866,0,0,1,20.866-.3,4.936,4.936,0,0,1,18.654.2a4.587,4.587,0,0,1-3.574-1.44,5.7,5.7,0,0,1-1.309-3.979V-5.41a5.635,5.635,0,0,1,1.3-3.9,4.534,4.534,0,0,1,3.564-1.455,4.444,4.444,0,0,1,3.179,1.128,3.994,3.994,0,0,1,1.216,3H20.383a1.923,1.923,0,0,0-.508-1.333,1.7,1.7,0,0,0-1.289-.513,1.7,1.7,0,0,0-1.489.718,4.155,4.155,0,0,0-.5,2.329v.293a4.207,4.207,0,0,0,.5,2.344A1.722,1.722,0,0,0,18.606-2.08ZM27.69-13.164v2.6H29.5V-8.5H27.69v5.273a1.259,1.259,0,0,0,.225.84,1.128,1.128,0,0,0,.859.254A4.5,4.5,0,0,0,29.6-2.2V-.059A5.81,5.81,0,0,1,27.895.2q-2.969,0-3.027-3V-8.5H23.324v-2.07h1.543v-2.6ZM33.717,0H30.885V-10.566h2.832Zm-3-13.3a1.39,1.39,0,0,1,.425-1.045,1.6,1.6,0,0,1,1.157-.41,1.6,1.6,0,0,1,1.152.41,1.382,1.382,0,0,1,.43,1.045,1.386,1.386,0,0,1-.435,1.055,1.6,1.6,0,0,1-1.147.41,1.6,1.6,0,0,1-1.147-.41A1.386,1.386,0,0,1,30.719-13.3Zm8.947,9.854,1.963-7.119h2.949L41.014,0h-2.7L34.754-10.566H37.7ZM48.467,0H45.635V-10.566h2.832Zm-3-13.3a1.39,1.39,0,0,1,.425-1.045,1.6,1.6,0,0,1,1.157-.41,1.6,1.6,0,0,1,1.152.41,1.382,1.382,0,0,1,.43,1.045,1.386,1.386,0,0,1-.435,1.055,1.6,1.6,0,0,1-1.147.41,1.6,1.6,0,0,1-1.147-.41A1.386,1.386,0,0,1,45.469-13.3Zm4.553,7.939A6.368,6.368,0,0,1,51.13-9.3a3.6,3.6,0,0,1,3.032-1.465,3.236,3.236,0,0,1,2.549,1.152V-15h2.832V0H56.995l-.137-1.123A3.321,3.321,0,0,1,54.143.2a3.587,3.587,0,0,1-2.993-1.47A6.573,6.573,0,0,1,50.022-5.361Zm2.822.205a4.16,4.16,0,0,0,.518,2.275,1.687,1.687,0,0,0,1.5.791,1.889,1.889,0,0,0,1.846-1.1v-4.17a1.862,1.862,0,0,0-1.826-1.1Q52.844-8.467,52.844-5.156ZM67.524,0a3.134,3.134,0,0,1-.283-.947A3.415,3.415,0,0,1,64.575.2,3.752,3.752,0,0,1,62-.7a2.89,2.89,0,0,1-1.021-2.266,2.986,2.986,0,0,1,1.245-2.578,6.144,6.144,0,0,1,3.6-.908h1.3v-.605a1.741,1.741,0,0,0-.376-1.172,1.479,1.479,0,0,0-1.187-.439,1.682,1.682,0,0,0-1.118.342,1.161,1.161,0,0,0-.405.938H61.215a2.835,2.835,0,0,1,.566-1.7,3.744,3.744,0,0,1,1.6-1.226,5.837,5.837,0,0,1,2.324-.444,4.611,4.611,0,0,1,3.1.981,3.433,3.433,0,0,1,1.147,2.759v4.58a5.052,5.052,0,0,0,.42,2.275V0ZM65.19-1.963a2.431,2.431,0,0,0,1.152-.278,1.828,1.828,0,0,0,.781-.747V-4.8H66.069q-2.119,0-2.256,1.465l-.01.166a1.13,1.13,0,0,0,.371.869A1.441,1.441,0,0,0,65.19-1.963Zm6.164-3.4A6.368,6.368,0,0,1,72.463-9.3a3.6,3.6,0,0,1,3.032-1.465,3.236,3.236,0,0,1,2.549,1.152V-15h2.832V0H78.327L78.19-1.123A3.321,3.321,0,0,1,75.475.2a3.587,3.587,0,0,1-2.993-1.47A6.573,6.573,0,0,1,71.354-5.361Zm2.822.205a4.16,4.16,0,0,0,.518,2.275,1.687,1.687,0,0,0,1.5.791,1.889,1.889,0,0,0,1.846-1.1v-4.17a1.862,1.862,0,0,0-1.826-1.1Q74.176-8.467,74.176-5.156ZM87.6.2A5.187,5.187,0,0,1,83.812-1.23a5.068,5.068,0,0,1-1.46-3.8V-5.3a6.383,6.383,0,0,1,.615-2.847,4.515,4.515,0,0,1,1.743-1.934,4.893,4.893,0,0,1,2.573-.679A4.385,4.385,0,0,1,90.7-9.395a5.555,5.555,0,0,1,1.245,3.877v1.152H85.214a2.622,2.622,0,0,0,.825,1.66,2.5,2.5,0,0,0,1.743.625,3.046,3.046,0,0,0,2.549-1.182l1.387,1.553A4.237,4.237,0,0,1,90-.308,5.639,5.639,0,0,1,87.6.2Zm-.322-8.672a1.767,1.767,0,0,0-1.362.566,2.926,2.926,0,0,0-.669,1.621h3.926v-.225a2.086,2.086,0,0,0-.508-1.45A1.824,1.824,0,0,0,87.274-8.477ZM98.936-2.92a.909.909,0,0,0-.513-.815,5.824,5.824,0,0,0-1.646-.532q-3.77-.791-3.77-3.2a2.9,2.9,0,0,1,1.167-2.349,4.707,4.707,0,0,1,3.052-.942,5.067,5.067,0,0,1,3.218.947,2.985,2.985,0,0,1,1.206,2.461H98.829a1.366,1.366,0,0,0-.391-1,1.653,1.653,0,0,0-1.221-.4,1.689,1.689,0,0,0-1.1.322,1.017,1.017,0,0,0-.391.82.87.87,0,0,0,.444.757,4.571,4.571,0,0,0,1.5.5,12.244,12.244,0,0,1,1.777.474,2.92,2.92,0,0,1,2.236,2.842A2.756,2.756,0,0,1,100.44-.7a5.35,5.35,0,0,1-3.2.894,5.588,5.588,0,0,1-2.358-.474,3.957,3.957,0,0,1-1.616-1.3,3.018,3.018,0,0,1-.586-1.782h2.676a1.473,1.473,0,0,0,.557,1.152,2.208,2.208,0,0,0,1.387.4,2.044,2.044,0,0,0,1.226-.308A.957.957,0,0,0,98.936-2.92Zm8.442-2.441A6.368,6.368,0,0,1,108.486-9.3a3.6,3.6,0,0,1,3.032-1.465,3.236,3.236,0,0,1,2.549,1.152V-15H116.9V0h-2.549l-.137-1.123A3.321,3.321,0,0,1,111.5.2a3.587,3.587,0,0,1-2.993-1.47A6.573,6.573,0,0,1,107.378-5.361Zm2.822.205a4.16,4.16,0,0,0,.518,2.275,1.687,1.687,0,0,0,1.5.791,1.889,1.889,0,0,0,1.846-1.1v-4.17a1.862,1.862,0,0,0-1.826-1.1Q110.2-8.467,110.2-5.156ZM123.62.2a5.187,5.187,0,0,1-3.784-1.426,5.068,5.068,0,0,1-1.46-3.8V-5.3a6.383,6.383,0,0,1,.615-2.847,4.515,4.515,0,0,1,1.743-1.934,4.893,4.893,0,0,1,2.573-.679,4.385,4.385,0,0,1,3.413,1.367,5.555,5.555,0,0,1,1.245,3.877v1.152h-6.729a2.622,2.622,0,0,0,.825,1.66,2.5,2.5,0,0,0,1.743.625,3.046,3.046,0,0,0,2.549-1.182l1.387,1.553a4.237,4.237,0,0,1-1.719,1.4A5.639,5.639,0,0,1,123.62.2ZM123.3-8.477a1.767,1.767,0,0,0-1.362.566,2.926,2.926,0,0,0-.669,1.621h3.926v-.225a2.086,2.086,0,0,0-.508-1.45A1.824,1.824,0,0,0,123.3-8.477ZM136.866,0h-2.832V-10.566h2.832Zm-3-13.3a1.39,1.39,0,0,1,.425-1.045,1.6,1.6,0,0,1,1.157-.41,1.6,1.6,0,0,1,1.152.41,1.382,1.382,0,0,1,.43,1.045,1.386,1.386,0,0,1-.435,1.055,1.6,1.6,0,0,1-1.147.41,1.6,1.6,0,0,1-1.147-.41A1.386,1.386,0,0,1,133.868-13.3Zm7.59,2.734.088,1.221a3.689,3.689,0,0,1,3.037-1.416,3.066,3.066,0,0,1,2.5.986,4.6,4.6,0,0,1,.84,2.949V0H145.1V-6.758a1.831,1.831,0,0,0-.391-1.3,1.749,1.749,0,0,0-1.3-.405,1.942,1.942,0,0,0-1.787,1.016V0H138.8V-10.566Zm12.229,7.119,1.963-7.119H158.6L155.035,0h-2.7l-3.564-10.566h2.949ZM164.372.2a5.187,5.187,0,0,1-3.784-1.426,5.068,5.068,0,0,1-1.46-3.8V-5.3a6.383,6.383,0,0,1,.615-2.847,4.515,4.515,0,0,1,1.743-1.934,4.893,4.893,0,0,1,2.573-.679,4.385,4.385,0,0,1,3.413,1.367,5.555,5.555,0,0,1,1.245,3.877v1.152H161.99a2.622,2.622,0,0,0,.825,1.66,2.5,2.5,0,0,0,1.743.625,3.046,3.046,0,0,0,2.549-1.182l1.387,1.553a4.237,4.237,0,0,1-1.719,1.4A5.639,5.639,0,0,1,164.372.2Zm-.322-8.672a1.767,1.767,0,0,0-1.362.566,2.926,2.926,0,0,0-.669,1.621h3.926v-.225a2.086,2.086,0,0,0-.508-1.45A1.824,1.824,0,0,0,164.05-8.477Zm11.877.557A7.667,7.667,0,0,0,174.912-8a2.067,2.067,0,0,0-2.1,1.084V0H169.99V-10.566h2.666l.078,1.26a2.615,2.615,0,0,1,2.354-1.455,2.957,2.957,0,0,1,.879.127Zm6.75,5a.909.909,0,0,0-.513-.815,5.824,5.824,0,0,0-1.646-.532q-3.77-.791-3.77-3.2a2.9,2.9,0,0,1,1.167-2.349,4.707,4.707,0,0,1,3.052-.942,5.067,5.067,0,0,1,3.218.947,2.985,2.985,0,0,1,1.206,2.461H182.57a1.366,1.366,0,0,0-.391-1,1.653,1.653,0,0,0-1.221-.4,1.689,1.689,0,0,0-1.1.322,1.017,1.017,0,0,0-.391.82.87.87,0,0,0,.444.757,4.571,4.571,0,0,0,1.5.5,12.244,12.244,0,0,1,1.777.474,2.92,2.92,0,0,1,2.236,2.842A2.756,2.756,0,0,1,184.181-.7a5.35,5.35,0,0,1-3.2.894,5.588,5.588,0,0,1-2.358-.474A3.957,3.957,0,0,1,177-1.577a3.018,3.018,0,0,1-.586-1.782h2.676a1.473,1.473,0,0,0,.557,1.152,2.208,2.208,0,0,0,1.387.4,2.044,2.044,0,0,0,1.226-.308A.957.957,0,0,0,182.677-2.92ZM189.886,0h-2.832V-10.566h2.832Zm-3-13.3a1.39,1.39,0,0,1,.425-1.045,1.6,1.6,0,0,1,1.157-.41,1.6,1.6,0,0,1,1.152.41,1.382,1.382,0,0,1,.43,1.045,1.386,1.386,0,0,1-.435,1.055,1.6,1.6,0,0,1-1.147.41,1.6,1.6,0,0,1-1.147-.41A1.386,1.386,0,0,1,186.888-13.3Zm4.553,7.92a6.267,6.267,0,0,1,.605-2.8,4.432,4.432,0,0,1,1.743-1.9,5.086,5.086,0,0,1,2.642-.674,4.812,4.812,0,0,1,3.491,1.309A5.252,5.252,0,0,1,201.431-5.9l.02.723a5.523,5.523,0,0,1-1.357,3.9A4.718,4.718,0,0,1,196.451.2,4.742,4.742,0,0,1,192.8-1.27a5.62,5.62,0,0,1-1.362-3.984Zm2.822.205a3.939,3.939,0,0,0,.566,2.3,1.869,1.869,0,0,0,1.621.8,1.874,1.874,0,0,0,1.6-.786,4.31,4.31,0,0,0,.576-2.515,3.9,3.9,0,0,0-.576-2.285,1.874,1.874,0,0,0-1.621-.811,1.843,1.843,0,0,0-1.6.806A4.383,4.383,0,0,0,194.263-5.176ZM196.988-15h3.076l-2.705,3.027h-2.295Zm8.469,4.434.088,1.221a3.689,3.689,0,0,1,3.037-1.416,3.066,3.066,0,0,1,2.5.986,4.6,4.6,0,0,1,.84,2.949V0H209.1V-6.758a1.831,1.831,0,0,0-.391-1.3,1.749,1.749,0,0,0-1.3-.405,1.942,1.942,0,0,0-1.787,1.016V0H202.8V-10.566Z" transform="translate(1145 -3433)"/><path d="M4.731,1.958V.288A6.166,6.166,0,0,1,2.7-.274a3.549,3.549,0,0,1-1.354-1.3,4.664,4.664,0,0,1-.663-2.2l1.679-.315a4.236,4.236,0,0,0,.687,1.976,2.436,2.436,0,0,0,1.688.993V-6.438a6.976,6.976,0,0,1-2.106-.8A3.085,3.085,0,0,1,1.4-8.47a3.669,3.669,0,0,1-.431-1.791,3.651,3.651,0,0,1,1.262-2.885,4.389,4.389,0,0,1,2.5-.909v-.8h.983v.8a4.123,4.123,0,0,1,2.31.854,3.794,3.794,0,0,1,1.317,2.5l-1.726.26A2.857,2.857,0,0,0,7-11.954a2.276,2.276,0,0,0-1.285-.691V-7.83a13.243,13.243,0,0,1,1.67.492A4.125,4.125,0,0,1,8.656-6.5a3.359,3.359,0,0,1,.756,1.169,4,4,0,0,1,.264,1.466,4.033,4.033,0,0,1-1.1,2.895A4.05,4.05,0,0,1,5.715.269V1.958Zm0-14.621a2.475,2.475,0,0,0-1.535.779,2.173,2.173,0,0,0-.561,1.494,2.161,2.161,0,0,0,.478,1.429,3.292,3.292,0,0,0,1.619.918ZM5.715-1.123a2.476,2.476,0,0,0,1.61-.844A2.616,2.616,0,0,0,7.96-3.757a2.241,2.241,0,0,0-.45-1.461,3.883,3.883,0,0,0-1.8-.988Zm5.752-10.7v-1.6h8.8v1.3A18.553,18.553,0,0,0,17.7-8.452a22.375,22.375,0,0,0-1.971,4.713A17.517,17.517,0,0,0,15.085,0H13.369A16.666,16.666,0,0,1,14-3.878a20.363,20.363,0,0,1,1.73-4.384,18.791,18.791,0,0,1,2.4-3.558ZM22.822,0V-1.9h1.9V0a3.376,3.376,0,0,1-.371,1.693,2.419,2.419,0,0,1-1.178,1l-.464-.714a1.585,1.585,0,0,0,.779-.682A2.906,2.906,0,0,0,23.769,0ZM27.2-6.708a12.446,12.446,0,0,1,.5-3.883,4.829,4.829,0,0,1,1.475-2.268,3.771,3.771,0,0,1,2.463-.8,4.019,4.019,0,0,1,1.92.441,3.671,3.671,0,0,1,1.364,1.271,6.819,6.819,0,0,1,.844,2.022,13.437,13.437,0,0,1,.306,3.215,12.48,12.48,0,0,1-.492,3.864,4.831,4.831,0,0,1-1.47,2.273,3.771,3.771,0,0,1-2.472.8,3.732,3.732,0,0,1-3.089-1.41Q27.2-2.876,27.2-6.708Zm1.716,0q0,3.349.784,4.458a2.31,2.31,0,0,0,1.934,1.109A2.308,2.308,0,0,0,33.57-2.254q.784-1.113.784-4.453,0-3.358-.784-4.462a2.327,2.327,0,0,0-1.953-1.1,2.14,2.14,0,0,0-1.837.974Q28.917-10.057,28.917-6.708Zm8.851,0a12.446,12.446,0,0,1,.5-3.883,4.829,4.829,0,0,1,1.475-2.268,3.771,3.771,0,0,1,2.463-.8,4.019,4.019,0,0,1,1.92.441,3.671,3.671,0,0,1,1.364,1.271,6.819,6.819,0,0,1,.844,2.022,13.437,13.437,0,0,1,.306,3.215,12.48,12.48,0,0,1-.492,3.864,4.831,4.831,0,0,1-1.47,2.273,3.771,3.771,0,0,1-2.472.8,3.732,3.732,0,0,1-3.089-1.41Q37.768-2.876,37.768-6.708Zm1.716,0q0,3.349.784,4.458A2.31,2.31,0,0,0,42.2-1.141a2.308,2.308,0,0,0,1.934-1.113q.784-1.113.784-4.453,0-3.358-.784-4.462a2.327,2.327,0,0,0-1.953-1.1,2.14,2.14,0,0,0-1.837.974Q39.484-10.057,39.484-6.708Zm8.851,0a12.446,12.446,0,0,1,.5-3.883,4.829,4.829,0,0,1,1.475-2.268,3.771,3.771,0,0,1,2.463-.8,4.019,4.019,0,0,1,1.92.441,3.671,3.671,0,0,1,1.364,1.271A6.819,6.819,0,0,1,56.9-9.922,13.437,13.437,0,0,1,57.2-6.708a12.48,12.48,0,0,1-.492,3.864,4.831,4.831,0,0,1-1.47,2.273,3.771,3.771,0,0,1-2.472.8,3.732,3.732,0,0,1-3.089-1.41Q48.335-2.876,48.335-6.708Zm1.716,0q0,3.349.784,4.458A2.31,2.31,0,0,0,52.77-1.141,2.308,2.308,0,0,0,54.7-2.254q.784-1.113.784-4.453,0-3.358-.784-4.462a2.327,2.327,0,0,0-1.953-1.1,2.14,2.14,0,0,0-1.837.974Q50.051-10.057,50.051-6.708ZM59.8,0V-1.9h1.9V0a3.376,3.376,0,0,1-.371,1.693,2.419,2.419,0,0,1-1.178,1l-.464-.714a1.585,1.585,0,0,0,.779-.682A2.906,2.906,0,0,0,60.748,0Zm4.379-6.708a12.446,12.446,0,0,1,.5-3.883,4.829,4.829,0,0,1,1.475-2.268,3.771,3.771,0,0,1,2.463-.8,4.019,4.019,0,0,1,1.92.441A3.671,3.671,0,0,1,71.9-11.945a6.819,6.819,0,0,1,.844,2.022,13.437,13.437,0,0,1,.306,3.215,12.481,12.481,0,0,1-.492,3.864,4.831,4.831,0,0,1-1.47,2.273,3.771,3.771,0,0,1-2.472.8,3.732,3.732,0,0,1-3.089-1.41Q64.181-2.876,64.181-6.708Zm1.716,0q0,3.349.784,4.458a2.31,2.31,0,0,0,1.934,1.109A2.308,2.308,0,0,0,70.55-2.254q.784-1.113.784-4.453,0-3.358-.784-4.462a2.327,2.327,0,0,0-1.953-1.1,2.14,2.14,0,0,0-1.837.974Q65.9-10.057,65.9-6.708Zm8.851,0a12.446,12.446,0,0,1,.5-3.883,4.829,4.829,0,0,1,1.475-2.268,3.771,3.771,0,0,1,2.463-.8,4.019,4.019,0,0,1,1.92.441,3.671,3.671,0,0,1,1.364,1.271,6.819,6.819,0,0,1,.844,2.022,13.437,13.437,0,0,1,.306,3.215,12.481,12.481,0,0,1-.492,3.864,4.831,4.831,0,0,1-1.47,2.273,3.771,3.771,0,0,1-2.472.8,3.732,3.732,0,0,1-3.089-1.41Q74.748-2.876,74.748-6.708Zm1.716,0q0,3.349.784,4.458a2.31,2.31,0,0,0,1.934,1.109,2.308,2.308,0,0,0,1.934-1.113q.784-1.113.784-4.453,0-3.358-.784-4.462a2.327,2.327,0,0,0-1.953-1.1,2.14,2.14,0,0,0-1.837.974Q76.464-10.057,76.464-6.708Zm8.851,0a12.446,12.446,0,0,1,.5-3.883,4.829,4.829,0,0,1,1.475-2.268,3.771,3.771,0,0,1,2.463-.8,4.019,4.019,0,0,1,1.92.441,3.671,3.671,0,0,1,1.364,1.271,6.819,6.819,0,0,1,.844,2.022,13.437,13.437,0,0,1,.306,3.215,12.481,12.481,0,0,1-.492,3.864,4.831,4.831,0,0,1-1.47,2.273,3.771,3.771,0,0,1-2.472.8,3.732,3.732,0,0,1-3.089-1.41Q85.314-2.876,85.314-6.708Zm1.716,0q0,3.349.784,4.458a2.31,2.31,0,0,0,1.934,1.109,2.308,2.308,0,0,0,1.934-1.113q.784-1.113.784-4.453,0-3.358-.784-4.462a2.327,2.327,0,0,0-1.953-1.1,2.14,2.14,0,0,0-1.837.974Q87.031-10.057,87.031-6.708Z" transform="translate(1569 -3386)"/><path d="M4.731,1.958V.288A6.166,6.166,0,0,1,2.7-.274a3.549,3.549,0,0,1-1.354-1.3,4.664,4.664,0,0,1-.663-2.2l1.679-.315a4.236,4.236,0,0,0,.687,1.976,2.436,2.436,0,0,0,1.688.993V-6.438a6.976,6.976,0,0,1-2.106-.8A3.085,3.085,0,0,1,1.4-8.47a3.669,3.669,0,0,1-.431-1.791,3.651,3.651,0,0,1,1.262-2.885,4.389,4.389,0,0,1,2.5-.909v-.8h.983v.8a4.123,4.123,0,0,1,2.31.854,3.794,3.794,0,0,1,1.317,2.5l-1.726.26A2.857,2.857,0,0,0,7-11.954a2.276,2.276,0,0,0-1.285-.691V-7.83a13.243,13.243,0,0,1,1.67.492A4.125,4.125,0,0,1,8.656-6.5a3.359,3.359,0,0,1,.756,1.169,4,4,0,0,1,.264,1.466,4.033,4.033,0,0,1-1.1,2.895A4.05,4.05,0,0,1,5.715.269V1.958Zm0-14.621a2.475,2.475,0,0,0-1.535.779,2.173,2.173,0,0,0-.561,1.494,2.161,2.161,0,0,0,.478,1.429,3.292,3.292,0,0,0,1.619.918ZM5.715-1.123a2.476,2.476,0,0,0,1.61-.844A2.616,2.616,0,0,0,7.96-3.757a2.241,2.241,0,0,0-.45-1.461,3.883,3.883,0,0,0-1.8-.988ZM20.132-1.6V0h-8.99a2.954,2.954,0,0,1,.195-1.16,6.135,6.135,0,0,1,1.1-1.809,17.224,17.224,0,0,1,2.185-2.06,18.521,18.521,0,0,0,3-2.881A3.449,3.449,0,0,0,18.4-9.917a2.232,2.232,0,0,0-.71-1.675,2.56,2.56,0,0,0-1.851-.682,2.608,2.608,0,0,0-1.93.724,2.738,2.738,0,0,0-.733,2l-1.716-.176a4.225,4.225,0,0,1,1.327-2.927,4.525,4.525,0,0,1,3.089-1.007,4.311,4.311,0,0,1,3.1,1.085,3.564,3.564,0,0,1,1.141,2.69,4.081,4.081,0,0,1-.334,1.6,6.229,6.229,0,0,1-1.109,1.661A27.009,27.009,0,0,1,16.1-4.221q-1.5,1.262-1.93,1.712a5.491,5.491,0,0,0-.705.9ZM22.822,0V-1.9h1.9V0a3.376,3.376,0,0,1-.371,1.693,2.419,2.419,0,0,1-1.178,1l-.464-.714a1.585,1.585,0,0,0,.779-.682A2.906,2.906,0,0,0,23.769,0ZM27.2-6.708a12.446,12.446,0,0,1,.5-3.883,4.829,4.829,0,0,1,1.475-2.268,3.771,3.771,0,0,1,2.463-.8,4.019,4.019,0,0,1,1.92.441,3.671,3.671,0,0,1,1.364,1.271,6.819,6.819,0,0,1,.844,2.022,13.437,13.437,0,0,1,.306,3.215,12.48,12.48,0,0,1-.492,3.864,4.831,4.831,0,0,1-1.47,2.273,3.771,3.771,0,0,1-2.472.8,3.732,3.732,0,0,1-3.089-1.41Q27.2-2.876,27.2-6.708Zm1.716,0q0,3.349.784,4.458a2.31,2.31,0,0,0,1.934,1.109A2.308,2.308,0,0,0,33.57-2.254q.784-1.113.784-4.453,0-3.358-.784-4.462a2.327,2.327,0,0,0-1.953-1.1,2.14,2.14,0,0,0-1.837.974Q28.917-10.057,28.917-6.708Zm8.851,0a12.446,12.446,0,0,1,.5-3.883,4.829,4.829,0,0,1,1.475-2.268,3.771,3.771,0,0,1,2.463-.8,4.019,4.019,0,0,1,1.92.441,3.671,3.671,0,0,1,1.364,1.271,6.819,6.819,0,0,1,.844,2.022,13.437,13.437,0,0,1,.306,3.215,12.48,12.48,0,0,1-.492,3.864,4.831,4.831,0,0,1-1.47,2.273,3.771,3.771,0,0,1-2.472.8,3.732,3.732,0,0,1-3.089-1.41Q37.768-2.876,37.768-6.708Zm1.716,0q0,3.349.784,4.458A2.31,2.31,0,0,0,42.2-1.141a2.308,2.308,0,0,0,1.934-1.113q.784-1.113.784-4.453,0-3.358-.784-4.462a2.327,2.327,0,0,0-1.953-1.1,2.14,2.14,0,0,0-1.837.974Q39.484-10.057,39.484-6.708Zm8.851,0a12.446,12.446,0,0,1,.5-3.883,4.829,4.829,0,0,1,1.475-2.268,3.771,3.771,0,0,1,2.463-.8,4.019,4.019,0,0,1,1.92.441,3.671,3.671,0,0,1,1.364,1.271A6.819,6.819,0,0,1,56.9-9.922,13.437,13.437,0,0,1,57.2-6.708a12.48,12.48,0,0,1-.492,3.864,4.831,4.831,0,0,1-1.47,2.273,3.771,3.771,0,0,1-2.472.8,3.732,3.732,0,0,1-3.089-1.41Q48.335-2.876,48.335-6.708Zm1.716,0q0,3.349.784,4.458A2.31,2.31,0,0,0,52.77-1.141,2.308,2.308,0,0,0,54.7-2.254q.784-1.113.784-4.453,0-3.358-.784-4.462a2.327,2.327,0,0,0-1.953-1.1,2.14,2.14,0,0,0-1.837.974Q50.051-10.057,50.051-6.708ZM59.8,0V-1.9h1.9V0a3.376,3.376,0,0,1-.371,1.693,2.419,2.419,0,0,1-1.178,1l-.464-.714a1.585,1.585,0,0,0,.779-.682A2.906,2.906,0,0,0,60.748,0Zm4.379-6.708a12.446,12.446,0,0,1,.5-3.883,4.829,4.829,0,0,1,1.475-2.268,3.771,3.771,0,0,1,2.463-.8,4.019,4.019,0,0,1,1.92.441A3.671,3.671,0,0,1,71.9-11.945a6.819,6.819,0,0,1,.844,2.022,13.437,13.437,0,0,1,.306,3.215,12.481,12.481,0,0,1-.492,3.864,4.831,4.831,0,0,1-1.47,2.273,3.771,3.771,0,0,1-2.472.8,3.732,3.732,0,0,1-3.089-1.41Q64.181-2.876,64.181-6.708Zm1.716,0q0,3.349.784,4.458a2.31,2.31,0,0,0,1.934,1.109A2.308,2.308,0,0,0,70.55-2.254q.784-1.113.784-4.453,0-3.358-.784-4.462a2.327,2.327,0,0,0-1.953-1.1,2.14,2.14,0,0,0-1.837.974Q65.9-10.057,65.9-6.708Zm8.851,0a12.446,12.446,0,0,1,.5-3.883,4.829,4.829,0,0,1,1.475-2.268,3.771,3.771,0,0,1,2.463-.8,4.019,4.019,0,0,1,1.92.441,3.671,3.671,0,0,1,1.364,1.271,6.819,6.819,0,0,1,.844,2.022,13.437,13.437,0,0,1,.306,3.215,12.481,12.481,0,0,1-.492,3.864,4.831,4.831,0,0,1-1.47,2.273,3.771,3.771,0,0,1-2.472.8,3.732,3.732,0,0,1-3.089-1.41Q74.748-2.876,74.748-6.708Zm1.716,0q0,3.349.784,4.458a2.31,2.31,0,0,0,1.934,1.109,2.308,2.308,0,0,0,1.934-1.113q.784-1.113.784-4.453,0-3.358-.784-4.462a2.327,2.327,0,0,0-1.953-1.1,2.14,2.14,0,0,0-1.837.974Q76.464-10.057,76.464-6.708Zm8.851,0a12.446,12.446,0,0,1,.5-3.883,4.829,4.829,0,0,1,1.475-2.268,3.771,3.771,0,0,1,2.463-.8,4.019,4.019,0,0,1,1.92.441,3.671,3.671,0,0,1,1.364,1.271,6.819,6.819,0,0,1,.844,2.022,13.437,13.437,0,0,1,.306,3.215,12.481,12.481,0,0,1-.492,3.864,4.831,4.831,0,0,1-1.47,2.273,3.771,3.771,0,0,1-2.472.8,3.732,3.732,0,0,1-3.089-1.41Q85.314-2.876,85.314-6.708Zm1.716,0q0,3.349.784,4.458a2.31,2.31,0,0,0,1.934,1.109,2.308,2.308,0,0,0,1.934-1.113q.784-1.113.784-4.453,0-3.358-.784-4.462a2.327,2.327,0,0,0-1.953-1.1,2.14,2.14,0,0,0-1.837.974Q87.031-10.057,87.031-6.708Z" transform="translate(1569 -3341)"/><path d="M4.731,1.958V.288A6.166,6.166,0,0,1,2.7-.274a3.549,3.549,0,0,1-1.354-1.3,4.664,4.664,0,0,1-.663-2.2l1.679-.315a4.236,4.236,0,0,0,.687,1.976,2.436,2.436,0,0,0,1.688.993V-6.438a6.976,6.976,0,0,1-2.106-.8A3.085,3.085,0,0,1,1.4-8.47a3.669,3.669,0,0,1-.431-1.791,3.651,3.651,0,0,1,1.262-2.885,4.389,4.389,0,0,1,2.5-.909v-.8h.983v.8a4.123,4.123,0,0,1,2.31.854,3.794,3.794,0,0,1,1.317,2.5l-1.726.26A2.857,2.857,0,0,0,7-11.954a2.276,2.276,0,0,0-1.285-.691V-7.83a13.243,13.243,0,0,1,1.67.492A4.125,4.125,0,0,1,8.656-6.5a3.359,3.359,0,0,1,.756,1.169,4,4,0,0,1,.264,1.466,4.033,4.033,0,0,1-1.1,2.895A4.05,4.05,0,0,1,5.715.269V1.958Zm0-14.621a2.475,2.475,0,0,0-1.535.779,2.173,2.173,0,0,0-.561,1.494,2.161,2.161,0,0,0,.478,1.429,3.292,3.292,0,0,0,1.619.918ZM5.715-1.123a2.476,2.476,0,0,0,1.61-.844A2.616,2.616,0,0,0,7.96-3.757a2.241,2.241,0,0,0-.45-1.461,3.883,3.883,0,0,0-1.8-.988Zm8.21-6.253a3.143,3.143,0,0,1-1.54-1.085,2.839,2.839,0,0,1-.5-1.688,3.3,3.3,0,0,1,1.067-2.5,3.957,3.957,0,0,1,2.839-1.011,3.983,3.983,0,0,1,2.867,1.034A3.348,3.348,0,0,1,19.742-10.1a2.774,2.774,0,0,1-.5,1.647,3.13,3.13,0,0,1-1.508,1.081,3.656,3.656,0,0,1,1.906,1.317A3.618,3.618,0,0,1,20.3-3.887,3.907,3.907,0,0,1,19.065-.956,4.486,4.486,0,0,1,15.818.232,4.476,4.476,0,0,1,12.571-.96a3.965,3.965,0,0,1-1.234-2.973,3.594,3.594,0,0,1,.673-2.222A3.368,3.368,0,0,1,13.925-7.375Zm-.334-2.83a2.118,2.118,0,0,0,.622,1.577,2.2,2.2,0,0,0,1.614.612,2.159,2.159,0,0,0,1.582-.608,2.009,2.009,0,0,0,.617-1.489,2.083,2.083,0,0,0-.635-1.545,2.164,2.164,0,0,0-1.582-.626,2.186,2.186,0,0,0-1.586.612A1.971,1.971,0,0,0,13.591-10.205Zm-.538,6.281a3.021,3.021,0,0,0,.339,1.382A2.39,2.39,0,0,0,14.4-1.508a2.943,2.943,0,0,0,1.438.366,2.7,2.7,0,0,0,1.976-.77,2.635,2.635,0,0,0,.779-1.958,2.679,2.679,0,0,0-.8-1.995,2.75,2.75,0,0,0-2.009-.789,2.639,2.639,0,0,0-1.953.779A2.652,2.652,0,0,0,13.053-3.924ZM22.822,0V-1.9h1.9V0a3.376,3.376,0,0,1-.371,1.693,2.419,2.419,0,0,1-1.178,1l-.464-.714a1.585,1.585,0,0,0,.779-.682A2.906,2.906,0,0,0,23.769,0ZM27.2-6.708a12.446,12.446,0,0,1,.5-3.883,4.829,4.829,0,0,1,1.475-2.268,3.771,3.771,0,0,1,2.463-.8,4.019,4.019,0,0,1,1.92.441,3.671,3.671,0,0,1,1.364,1.271,6.819,6.819,0,0,1,.844,2.022,13.437,13.437,0,0,1,.306,3.215,12.48,12.48,0,0,1-.492,3.864,4.831,4.831,0,0,1-1.47,2.273,3.771,3.771,0,0,1-2.472.8,3.732,3.732,0,0,1-3.089-1.41Q27.2-2.876,27.2-6.708Zm1.716,0q0,3.349.784,4.458a2.31,2.31,0,0,0,1.934,1.109A2.308,2.308,0,0,0,33.57-2.254q.784-1.113.784-4.453,0-3.358-.784-4.462a2.327,2.327,0,0,0-1.953-1.1,2.14,2.14,0,0,0-1.837.974Q28.917-10.057,28.917-6.708Zm8.851,0a12.446,12.446,0,0,1,.5-3.883,4.829,4.829,0,0,1,1.475-2.268,3.771,3.771,0,0,1,2.463-.8,4.019,4.019,0,0,1,1.92.441,3.671,3.671,0,0,1,1.364,1.271,6.819,6.819,0,0,1,.844,2.022,13.437,13.437,0,0,1,.306,3.215,12.48,12.48,0,0,1-.492,3.864,4.831,4.831,0,0,1-1.47,2.273,3.771,3.771,0,0,1-2.472.8,3.732,3.732,0,0,1-3.089-1.41Q37.768-2.876,37.768-6.708Zm1.716,0q0,3.349.784,4.458A2.31,2.31,0,0,0,42.2-1.141a2.308,2.308,0,0,0,1.934-1.113q.784-1.113.784-4.453,0-3.358-.784-4.462a2.327,2.327,0,0,0-1.953-1.1,2.14,2.14,0,0,0-1.837.974Q39.484-10.057,39.484-6.708Zm8.851,0a12.446,12.446,0,0,1,.5-3.883,4.829,4.829,0,0,1,1.475-2.268,3.771,3.771,0,0,1,2.463-.8,4.019,4.019,0,0,1,1.92.441,3.671,3.671,0,0,1,1.364,1.271A6.819,6.819,0,0,1,56.9-9.922,13.437,13.437,0,0,1,57.2-6.708a12.48,12.48,0,0,1-.492,3.864,4.831,4.831,0,0,1-1.47,2.273,3.771,3.771,0,0,1-2.472.8,3.732,3.732,0,0,1-3.089-1.41Q48.335-2.876,48.335-6.708Zm1.716,0q0,3.349.784,4.458A2.31,2.31,0,0,0,52.77-1.141,2.308,2.308,0,0,0,54.7-2.254q.784-1.113.784-4.453,0-3.358-.784-4.462a2.327,2.327,0,0,0-1.953-1.1,2.14,2.14,0,0,0-1.837.974Q50.051-10.057,50.051-6.708ZM59.8,0V-1.9h1.9V0a3.376,3.376,0,0,1-.371,1.693,2.419,2.419,0,0,1-1.178,1l-.464-.714a1.585,1.585,0,0,0,.779-.682A2.906,2.906,0,0,0,60.748,0Zm4.379-6.708a12.446,12.446,0,0,1,.5-3.883,4.829,4.829,0,0,1,1.475-2.268,3.771,3.771,0,0,1,2.463-.8,4.019,4.019,0,0,1,1.92.441A3.671,3.671,0,0,1,71.9-11.945a6.819,6.819,0,0,1,.844,2.022,13.437,13.437,0,0,1,.306,3.215,12.481,12.481,0,0,1-.492,3.864,4.831,4.831,0,0,1-1.47,2.273,3.771,3.771,0,0,1-2.472.8,3.732,3.732,0,0,1-3.089-1.41Q64.181-2.876,64.181-6.708Zm1.716,0q0,3.349.784,4.458a2.31,2.31,0,0,0,1.934,1.109A2.308,2.308,0,0,0,70.55-2.254q.784-1.113.784-4.453,0-3.358-.784-4.462a2.327,2.327,0,0,0-1.953-1.1,2.14,2.14,0,0,0-1.837.974Q65.9-10.057,65.9-6.708Zm8.851,0a12.446,12.446,0,0,1,.5-3.883,4.829,4.829,0,0,1,1.475-2.268,3.771,3.771,0,0,1,2.463-.8,4.019,4.019,0,0,1,1.92.441,3.671,3.671,0,0,1,1.364,1.271,6.819,6.819,0,0,1,.844,2.022,13.437,13.437,0,0,1,.306,3.215,12.481,12.481,0,0,1-.492,3.864,4.831,4.831,0,0,1-1.47,2.273,3.771,3.771,0,0,1-2.472.8,3.732,3.732,0,0,1-3.089-1.41Q74.748-2.876,74.748-6.708Zm1.716,0q0,3.349.784,4.458a2.31,2.31,0,0,0,1.934,1.109,2.308,2.308,0,0,0,1.934-1.113q.784-1.113.784-4.453,0-3.358-.784-4.462a2.327,2.327,0,0,0-1.953-1.1,2.14,2.14,0,0,0-1.837.974Q76.464-10.057,76.464-6.708Zm8.851,0a12.446,12.446,0,0,1,.5-3.883,4.829,4.829,0,0,1,1.475-2.268,3.771,3.771,0,0,1,2.463-.8,4.019,4.019,0,0,1,1.92.441,3.671,3.671,0,0,1,1.364,1.271,6.819,6.819,0,0,1,.844,2.022,13.437,13.437,0,0,1,.306,3.215,12.481,12.481,0,0,1-.492,3.864,4.831,4.831,0,0,1-1.47,2.273,3.771,3.771,0,0,1-2.472.8,3.732,3.732,0,0,1-3.089-1.41Q85.314-2.876,85.314-6.708Zm1.716,0q0,3.349.784,4.458a2.31,2.31,0,0,0,1.934,1.109,2.308,2.308,0,0,0,1.934-1.113q.784-1.113.784-4.453,0-3.358-.784-4.462a2.327,2.327,0,0,0-1.953-1.1,2.14,2.14,0,0,0-1.837.974Q87.031-10.057,87.031-6.708Z" transform="translate(1569 -3297)"/><path d="M4.731,1.958V.288A6.166,6.166,0,0,1,2.7-.274a3.549,3.549,0,0,1-1.354-1.3,4.664,4.664,0,0,1-.663-2.2l1.679-.315a4.236,4.236,0,0,0,.687,1.976,2.436,2.436,0,0,0,1.688.993V-6.438a6.976,6.976,0,0,1-2.106-.8A3.085,3.085,0,0,1,1.4-8.47a3.669,3.669,0,0,1-.431-1.791,3.651,3.651,0,0,1,1.262-2.885,4.389,4.389,0,0,1,2.5-.909v-.8h.983v.8a4.123,4.123,0,0,1,2.31.854,3.794,3.794,0,0,1,1.317,2.5l-1.726.26A2.857,2.857,0,0,0,7-11.954a2.276,2.276,0,0,0-1.285-.691V-7.83a13.243,13.243,0,0,1,1.67.492A4.125,4.125,0,0,1,8.656-6.5a3.359,3.359,0,0,1,.756,1.169,4,4,0,0,1,.264,1.466,4.033,4.033,0,0,1-1.1,2.895A4.05,4.05,0,0,1,5.715.269V1.958Zm0-14.621a2.475,2.475,0,0,0-1.535.779,2.173,2.173,0,0,0-.561,1.494,2.161,2.161,0,0,0,.478,1.429,3.292,3.292,0,0,0,1.619.918ZM5.715-1.123a2.476,2.476,0,0,0,1.61-.844A2.616,2.616,0,0,0,7.96-3.757a2.241,2.241,0,0,0-.45-1.461,3.883,3.883,0,0,0-1.8-.988ZM17.646,0h-1.67V-10.641a8.631,8.631,0,0,1-1.582,1.15,11.213,11.213,0,0,1-1.758.863v-1.614a10.085,10.085,0,0,0,2.449-1.6,6.277,6.277,0,0,0,1.484-1.818h1.076Zm5.177,0V-1.9h1.9V0a3.376,3.376,0,0,1-.371,1.693,2.419,2.419,0,0,1-1.178,1l-.464-.714a1.585,1.585,0,0,0,.779-.682A2.906,2.906,0,0,0,23.769,0ZM27.2-6.708a12.446,12.446,0,0,1,.5-3.883,4.829,4.829,0,0,1,1.475-2.268,3.771,3.771,0,0,1,2.463-.8,4.019,4.019,0,0,1,1.92.441,3.671,3.671,0,0,1,1.364,1.271,6.819,6.819,0,0,1,.844,2.022,13.437,13.437,0,0,1,.306,3.215,12.48,12.48,0,0,1-.492,3.864,4.831,4.831,0,0,1-1.47,2.273,3.771,3.771,0,0,1-2.472.8,3.732,3.732,0,0,1-3.089-1.41Q27.2-2.876,27.2-6.708Zm1.716,0q0,3.349.784,4.458a2.31,2.31,0,0,0,1.934,1.109A2.308,2.308,0,0,0,33.57-2.254q.784-1.113.784-4.453,0-3.358-.784-4.462a2.327,2.327,0,0,0-1.953-1.1,2.14,2.14,0,0,0-1.837.974Q28.917-10.057,28.917-6.708Zm8.851,0a12.446,12.446,0,0,1,.5-3.883,4.829,4.829,0,0,1,1.475-2.268,3.771,3.771,0,0,1,2.463-.8,4.019,4.019,0,0,1,1.92.441,3.671,3.671,0,0,1,1.364,1.271,6.819,6.819,0,0,1,.844,2.022,13.437,13.437,0,0,1,.306,3.215,12.48,12.48,0,0,1-.492,3.864,4.831,4.831,0,0,1-1.47,2.273,3.771,3.771,0,0,1-2.472.8,3.732,3.732,0,0,1-3.089-1.41Q37.768-2.876,37.768-6.708Zm1.716,0q0,3.349.784,4.458A2.31,2.31,0,0,0,42.2-1.141a2.308,2.308,0,0,0,1.934-1.113q.784-1.113.784-4.453,0-3.358-.784-4.462a2.327,2.327,0,0,0-1.953-1.1,2.14,2.14,0,0,0-1.837.974Q39.484-10.057,39.484-6.708Zm8.851,0a12.446,12.446,0,0,1,.5-3.883,4.829,4.829,0,0,1,1.475-2.268,3.771,3.771,0,0,1,2.463-.8,4.019,4.019,0,0,1,1.92.441,3.671,3.671,0,0,1,1.364,1.271A6.819,6.819,0,0,1,56.9-9.922,13.437,13.437,0,0,1,57.2-6.708a12.48,12.48,0,0,1-.492,3.864,4.831,4.831,0,0,1-1.47,2.273,3.771,3.771,0,0,1-2.472.8,3.732,3.732,0,0,1-3.089-1.41Q48.335-2.876,48.335-6.708Zm1.716,0q0,3.349.784,4.458A2.31,2.31,0,0,0,52.77-1.141,2.308,2.308,0,0,0,54.7-2.254q.784-1.113.784-4.453,0-3.358-.784-4.462a2.327,2.327,0,0,0-1.953-1.1,2.14,2.14,0,0,0-1.837.974Q50.051-10.057,50.051-6.708ZM59.8,0V-1.9h1.9V0a3.376,3.376,0,0,1-.371,1.693,2.419,2.419,0,0,1-1.178,1l-.464-.714a1.585,1.585,0,0,0,.779-.682A2.906,2.906,0,0,0,60.748,0Zm4.379-6.708a12.446,12.446,0,0,1,.5-3.883,4.829,4.829,0,0,1,1.475-2.268,3.771,3.771,0,0,1,2.463-.8,4.019,4.019,0,0,1,1.92.441A3.671,3.671,0,0,1,71.9-11.945a6.819,6.819,0,0,1,.844,2.022,13.437,13.437,0,0,1,.306,3.215,12.481,12.481,0,0,1-.492,3.864,4.831,4.831,0,0,1-1.47,2.273,3.771,3.771,0,0,1-2.472.8,3.732,3.732,0,0,1-3.089-1.41Q64.181-2.876,64.181-6.708Zm1.716,0q0,3.349.784,4.458a2.31,2.31,0,0,0,1.934,1.109A2.308,2.308,0,0,0,70.55-2.254q.784-1.113.784-4.453,0-3.358-.784-4.462a2.327,2.327,0,0,0-1.953-1.1,2.14,2.14,0,0,0-1.837.974Q65.9-10.057,65.9-6.708Zm8.851,0a12.446,12.446,0,0,1,.5-3.883,4.829,4.829,0,0,1,1.475-2.268,3.771,3.771,0,0,1,2.463-.8,4.019,4.019,0,0,1,1.92.441,3.671,3.671,0,0,1,1.364,1.271,6.819,6.819,0,0,1,.844,2.022,13.437,13.437,0,0,1,.306,3.215,12.481,12.481,0,0,1-.492,3.864,4.831,4.831,0,0,1-1.47,2.273,3.771,3.771,0,0,1-2.472.8,3.732,3.732,0,0,1-3.089-1.41Q74.748-2.876,74.748-6.708Zm1.716,0q0,3.349.784,4.458a2.31,2.31,0,0,0,1.934,1.109,2.308,2.308,0,0,0,1.934-1.113q.784-1.113.784-4.453,0-3.358-.784-4.462a2.327,2.327,0,0,0-1.953-1.1,2.14,2.14,0,0,0-1.837.974Q76.464-10.057,76.464-6.708Zm8.851,0a12.446,12.446,0,0,1,.5-3.883,4.829,4.829,0,0,1,1.475-2.268,3.771,3.771,0,0,1,2.463-.8,4.019,4.019,0,0,1,1.92.441,3.671,3.671,0,0,1,1.364,1.271,6.819,6.819,0,0,1,.844,2.022,13.437,13.437,0,0,1,.306,3.215,12.481,12.481,0,0,1-.492,3.864,4.831,4.831,0,0,1-1.47,2.273,3.771,3.771,0,0,1-2.472.8,3.732,3.732,0,0,1-3.089-1.41Q85.314-2.876,85.314-6.708Zm1.716,0q0,3.349.784,4.458a2.31,2.31,0,0,0,1.934,1.109,2.308,2.308,0,0,0,1.934-1.113q.784-1.113.784-4.453,0-3.358-.784-4.462a2.327,2.327,0,0,0-1.953-1.1,2.14,2.14,0,0,0-1.837.974Q87.031-10.057,87.031-6.708Z" transform="translate(1569 -3254)"/><path d="M4.98,2.061V.3A6.49,6.49,0,0,1,2.837-.288,3.736,3.736,0,0,1,1.411-1.66a4.91,4.91,0,0,1-.7-2.314L2.48-4.307A4.459,4.459,0,0,0,3.2-2.227,2.564,2.564,0,0,0,4.98-1.182v-5.6a7.343,7.343,0,0,1-2.217-.84,3.247,3.247,0,0,1-1.294-1.3A3.862,3.862,0,0,1,1.016-10.8a3.843,3.843,0,0,1,1.328-3.037,4.62,4.62,0,0,1,2.637-.957v-.84H6.016v.84a4.34,4.34,0,0,1,2.432.9A3.993,3.993,0,0,1,9.834-11.27L8.018-11a3.007,3.007,0,0,0-.649-1.587,2.4,2.4,0,0,0-1.353-.728v5.068a13.941,13.941,0,0,1,1.758.518,4.342,4.342,0,0,1,1.338.879,3.536,3.536,0,0,1,.8,1.23,4.206,4.206,0,0,1,.278,1.543A4.246,4.246,0,0,1,9.023-1.025,4.263,4.263,0,0,1,6.016.283V2.061Zm0-15.391a2.606,2.606,0,0,0-1.616.82,2.287,2.287,0,0,0-.591,1.572,2.275,2.275,0,0,0,.5,1.5,3.465,3.465,0,0,0,1.7.967ZM6.016-1.182A2.606,2.606,0,0,0,7.71-2.07a2.754,2.754,0,0,0,.669-1.885,2.359,2.359,0,0,0-.474-1.538,4.088,4.088,0,0,0-1.89-1.04Zm5.8-5.879a13.1,13.1,0,0,1,.522-4.087,5.084,5.084,0,0,1,1.553-2.388,3.97,3.97,0,0,1,2.593-.84,4.23,4.23,0,0,1,2.021.464,3.864,3.864,0,0,1,1.436,1.338,7.177,7.177,0,0,1,.889,2.129,14.144,14.144,0,0,1,.322,3.384,13.137,13.137,0,0,1-.518,4.067A5.085,5.085,0,0,1,19.084-.6a3.97,3.97,0,0,1-2.6.845A3.929,3.929,0,0,1,13.229-1.24Q11.813-3.027,11.813-7.061Zm1.807,0q0,3.525.825,4.692A2.432,2.432,0,0,0,16.481-1.2a2.43,2.43,0,0,0,2.036-1.172q.825-1.172.825-4.687,0-3.535-.825-4.7a2.449,2.449,0,0,0-2.056-1.162,2.252,2.252,0,0,0-1.934,1.025Q13.62-10.586,13.62-7.061Z" transform="translate(1644 -3210)"/><path d="M9.688-6.572H3.525v5.039h7.158V0H1.65V-14.219h8.936v1.543H3.525v4.57H9.688ZM13.117,0V-9.17h-1.67v-1.4h1.67V-11.65a3.6,3.6,0,0,1,.908-2.627,3.431,3.431,0,0,1,2.568-.928,4.741,4.741,0,0,1,1.24.166l-.1,1.465a5.189,5.189,0,0,0-.977-.088,1.766,1.766,0,0,0-1.357.513,2.075,2.075,0,0,0-.479,1.47v1.113H17.18v1.4H14.924V0ZM23.227.2a4.617,4.617,0,0,1-3.5-1.411A5.237,5.237,0,0,1,18.383-4.99v-.332a6.341,6.341,0,0,1,.6-2.808,4.685,4.685,0,0,1,1.68-1.934,4.223,4.223,0,0,1,2.339-.7,3.957,3.957,0,0,1,3.2,1.357,5.877,5.877,0,0,1,1.143,3.887v.752H20.19A3.756,3.756,0,0,0,21.1-2.241a2.87,2.87,0,0,0,2.222.962,3.147,3.147,0,0,0,1.621-.391,4.073,4.073,0,0,0,1.162-1.035l1.1.859A4.437,4.437,0,0,1,23.227.2ZM23-9.277a2.41,2.41,0,0,0-1.836.8,3.868,3.868,0,0,0-.918,2.231h5.293v-.137A3.441,3.441,0,0,0,24.8-8.521,2.269,2.269,0,0,0,23-9.277Zm10.344,8a2.6,2.6,0,0,0,1.689-.586,2.061,2.061,0,0,0,.8-1.465h1.709A3.276,3.276,0,0,1,36.92-1.6,4.116,4.116,0,0,1,35.382-.293,4.438,4.438,0,0,1,33.346.2a4.353,4.353,0,0,1-3.433-1.44,5.737,5.737,0,0,1-1.274-3.94v-.3a6.361,6.361,0,0,1,.566-2.744A4.314,4.314,0,0,1,30.831-10.1a4.619,4.619,0,0,1,2.5-.664A4.238,4.238,0,0,1,36.29-9.7a3.8,3.8,0,0,1,1.255,2.764H35.836a2.49,2.49,0,0,0-.776-1.685,2.415,2.415,0,0,0-1.724-.659,2.529,2.529,0,0,0-2.134.991,4.655,4.655,0,0,0-.757,2.866v.342A4.562,4.562,0,0,0,31.2-2.266,2.541,2.541,0,0,0,33.346-1.279ZM41.7-13.125v2.559H43.67v1.4H41.7v6.553a1.464,1.464,0,0,0,.264.952,1.11,1.11,0,0,0,.9.317,4.374,4.374,0,0,0,.859-.117V0a5.238,5.238,0,0,1-1.387.2,2.25,2.25,0,0,1-1.826-.732,3.147,3.147,0,0,1-.615-2.08V-9.17H37.967v-1.4h1.924v-2.559ZM47.412,0H45.606V-10.566h1.807ZM45.459-13.369a1.078,1.078,0,0,1,.269-.742,1.008,1.008,0,0,1,.8-.3,1.024,1.024,0,0,1,.8.3,1.067,1.067,0,0,1,.273.742,1.032,1.032,0,0,1-.273.732,1.043,1.043,0,0,1-.8.293,1.026,1.026,0,0,1-.8-.293A1.043,1.043,0,0,1,45.459-13.369Zm8,10.918,2.617-8.115h1.846L54.133,0H52.756L48.928-10.566h1.846Zm5.246-2.93a6.241,6.241,0,0,1,.61-2.793,4.553,4.553,0,0,1,1.7-1.914,4.626,4.626,0,0,1,2.485-.674,4.456,4.456,0,0,1,3.491,1.494,5.748,5.748,0,0,1,1.333,3.975v.127A6.3,6.3,0,0,1,67.734-2.4,4.486,4.486,0,0,1,66.044-.488,4.679,4.679,0,0,1,63.52.2,4.445,4.445,0,0,1,60.039-1.3a5.719,5.719,0,0,1-1.333-3.955Zm1.816.215a4.52,4.52,0,0,0,.815,2.822A2.61,2.61,0,0,0,63.52-1.279a2.594,2.594,0,0,0,2.188-1.079,4.943,4.943,0,0,0,.811-3.022A4.513,4.513,0,0,0,65.693-8.2,2.623,2.623,0,0,0,63.5-9.277a2.594,2.594,0,0,0-2.158,1.064A4.906,4.906,0,0,0,60.522-5.166ZM79.989-8.945a5.414,5.414,0,0,0-.889-.068A2.381,2.381,0,0,0,76.688-7.5V0H74.882V-10.566h1.758l.029,1.221a2.813,2.813,0,0,1,2.52-1.416,1.846,1.846,0,0,1,.8.137ZM85.7.2a4.617,4.617,0,0,1-3.5-1.411A5.237,5.237,0,0,1,80.86-4.99v-.332a6.341,6.341,0,0,1,.6-2.808,4.685,4.685,0,0,1,1.68-1.934,4.223,4.223,0,0,1,2.339-.7,3.957,3.957,0,0,1,3.2,1.357,5.877,5.877,0,0,1,1.143,3.887v.752H82.667a3.756,3.756,0,0,0,.913,2.524,2.87,2.87,0,0,0,2.222.962,3.147,3.147,0,0,0,1.621-.391,4.073,4.073,0,0,0,1.162-1.035l1.1.859A4.437,4.437,0,0,1,85.7.2Zm-.225-9.473a2.41,2.41,0,0,0-1.836.8,3.869,3.869,0,0,0-.918,2.231h5.293v-.137a3.441,3.441,0,0,0-.742-2.134A2.269,2.269,0,0,0,85.479-9.277Zm10.344,8a2.6,2.6,0,0,0,1.689-.586,2.061,2.061,0,0,0,.8-1.465h1.709A3.276,3.276,0,0,1,99.4-1.6,4.116,4.116,0,0,1,97.859-.293,4.438,4.438,0,0,1,95.823.2a4.353,4.353,0,0,1-3.433-1.44,5.737,5.737,0,0,1-1.274-3.94v-.3a6.361,6.361,0,0,1,.566-2.744A4.314,4.314,0,0,1,93.308-10.1a4.619,4.619,0,0,1,2.5-.664A4.238,4.238,0,0,1,98.767-9.7a3.8,3.8,0,0,1,1.255,2.764H98.313a2.49,2.49,0,0,0-.776-1.685,2.415,2.415,0,0,0-1.724-.659,2.529,2.529,0,0,0-2.134.991,4.655,4.655,0,0,0-.757,2.866v.342a4.562,4.562,0,0,0,.752,2.813A2.541,2.541,0,0,0,95.823-1.279ZM103.686,0H101.88V-10.566h1.807Zm-1.953-13.369a1.078,1.078,0,0,1,.269-.742,1.008,1.008,0,0,1,.8-.3,1.024,1.024,0,0,1,.8.3,1.067,1.067,0,0,1,.273.742,1.032,1.032,0,0,1-.273.732,1.043,1.043,0,0,1-.8.293,1.026,1.026,0,0,1-.8-.293A1.043,1.043,0,0,1,101.733-13.369Zm13.459,8.2a6.283,6.283,0,0,1-1.113,3.892A3.557,3.557,0,0,1,111.091.2,3.683,3.683,0,0,1,108-1.221L107.907,0h-1.66V-15h1.807v5.6a3.663,3.663,0,0,1,3.018-1.357,3.579,3.579,0,0,1,3.022,1.455,6.471,6.471,0,0,1,1.1,3.984Zm-1.807-.205a4.882,4.882,0,0,0-.713-2.852,2.36,2.36,0,0,0-2.051-1.006,2.652,2.652,0,0,0-2.568,1.66V-3a2.727,2.727,0,0,0,2.588,1.66,2.347,2.347,0,0,0,2.021-1.006A5.192,5.192,0,0,0,113.386-5.371ZM119.1,0h-1.807V-10.566H119.1Zm-1.953-13.369a1.078,1.078,0,0,1,.269-.742,1.008,1.008,0,0,1,.8-.3,1.024,1.024,0,0,1,.8.3,1.067,1.067,0,0,1,.273.742,1.032,1.032,0,0,1-.273.732,1.043,1.043,0,0,1-.8.293,1.026,1.026,0,0,1-.8-.293A1.043,1.043,0,0,1,117.148-13.369Zm4.074,8a6.19,6.19,0,0,1,1.152-3.911,3.644,3.644,0,0,1,3.018-1.479,3.665,3.665,0,0,1,2.939,1.27V-15h1.807V0h-1.66l-.088-1.133A3.679,3.679,0,0,1,125.372.2a3.609,3.609,0,0,1-2.993-1.5,6.26,6.26,0,0,1-1.157-3.926Zm1.807.205a4.687,4.687,0,0,0,.742,2.813,2.4,2.4,0,0,0,2.051,1.016,2.636,2.636,0,0,0,2.51-1.543V-7.734a2.656,2.656,0,0,0-2.49-1.494,2.411,2.411,0,0,0-2.07,1.025A5.16,5.16,0,0,0,123.029-5.166Zm9.1-.215a6.241,6.241,0,0,1,.61-2.793,4.553,4.553,0,0,1,1.7-1.914,4.626,4.626,0,0,1,2.485-.674,4.456,4.456,0,0,1,3.491,1.494,5.748,5.748,0,0,1,1.333,3.975v.127A6.3,6.3,0,0,1,141.16-2.4a4.486,4.486,0,0,1-1.689,1.909A4.679,4.679,0,0,1,136.947.2,4.445,4.445,0,0,1,133.465-1.3a5.719,5.719,0,0,1-1.333-3.955Zm1.816.215a4.52,4.52,0,0,0,.815,2.822,2.61,2.61,0,0,0,2.183,1.064,2.594,2.594,0,0,0,2.188-1.079,4.943,4.943,0,0,0,.811-3.022,4.513,4.513,0,0,0-.825-2.817,2.623,2.623,0,0,0-2.192-1.079,2.594,2.594,0,0,0-2.158,1.064A4.906,4.906,0,0,0,133.949-5.166Zm23.285,0a6.327,6.327,0,0,1-1.1,3.887A3.537,3.537,0,0,1,153.142.2a3.875,3.875,0,0,1-3.027-1.221V4.063h-1.807V-10.566h1.65l.088,1.172a3.722,3.722,0,0,1,3.066-1.367,3.6,3.6,0,0,1,3.013,1.436,6.4,6.4,0,0,1,1.108,3.994Zm-1.807-.205a4.669,4.669,0,0,0-.762-2.822,2.454,2.454,0,0,0-2.09-1.035,2.656,2.656,0,0,0-2.461,1.455v5.049a2.661,2.661,0,0,0,2.48,1.445,2.442,2.442,0,0,0,2.065-1.03A5.1,5.1,0,0,0,155.427-5.371Zm3.293-.01a6.241,6.241,0,0,1,.61-2.793,4.553,4.553,0,0,1,1.7-1.914,4.626,4.626,0,0,1,2.485-.674,4.456,4.456,0,0,1,3.491,1.494,5.748,5.748,0,0,1,1.333,3.975v.127a6.3,6.3,0,0,1-.591,2.769,4.486,4.486,0,0,1-1.689,1.909A4.679,4.679,0,0,1,163.535.2,4.445,4.445,0,0,1,160.053-1.3a5.719,5.719,0,0,1-1.333-3.955Zm1.816.215a4.52,4.52,0,0,0,.815,2.822,2.61,2.61,0,0,0,2.183,1.064,2.594,2.594,0,0,0,2.188-1.079,4.943,4.943,0,0,0,.811-3.022,4.513,4.513,0,0,0-.825-2.817,2.623,2.623,0,0,0-2.192-1.079,2.594,2.594,0,0,0-2.158,1.064A4.906,4.906,0,0,0,160.537-5.166Zm14.846-3.779a5.414,5.414,0,0,0-.889-.068A2.381,2.381,0,0,0,172.082-7.5V0h-1.807V-10.566h1.758l.029,1.221a2.813,2.813,0,0,1,2.52-1.416,1.846,1.846,0,0,1,.8.137Zm9.438,6.494,2.617-8.115h1.846L185.494,0h-1.377l-3.828-10.566h1.846ZM195.076.2a4.617,4.617,0,0,1-3.5-1.411,5.237,5.237,0,0,1-1.348-3.774v-.332a6.341,6.341,0,0,1,.6-2.808,4.685,4.685,0,0,1,1.68-1.934,4.223,4.223,0,0,1,2.339-.7,3.957,3.957,0,0,1,3.2,1.357A5.877,5.877,0,0,1,199.2-5.518v.752h-7.158a3.756,3.756,0,0,0,.913,2.524,2.87,2.87,0,0,0,2.222.962,3.147,3.147,0,0,0,1.621-.391,4.073,4.073,0,0,0,1.162-1.035l1.1.859A4.437,4.437,0,0,1,195.076.2Zm-.225-9.473a2.41,2.41,0,0,0-1.836.8A3.868,3.868,0,0,0,192.1-6.25h5.293v-.137a3.441,3.441,0,0,0-.742-2.134A2.269,2.269,0,0,0,194.851-9.277Zm7.815-1.289.059,1.328a3.851,3.851,0,0,1,3.164-1.523q3.35,0,3.379,3.779V0h-1.807V-6.992a2.433,2.433,0,0,0-.522-1.689,2.094,2.094,0,0,0-1.6-.547,2.607,2.607,0,0,0-1.543.469,3.183,3.183,0,0,0-1.035,1.23V0h-1.807V-10.566Zm11.447-2.559v2.559h1.973v1.4h-1.973v6.553a1.464,1.464,0,0,0,.264.952,1.11,1.11,0,0,0,.9.317,4.374,4.374,0,0,0,.859-.117V0a5.238,5.238,0,0,1-1.387.2,2.25,2.25,0,0,1-1.826-.732,3.147,3.147,0,0,1-.615-2.08V-9.17h-1.924v-1.4h1.924v-2.559ZM224.389,0a3.8,3.8,0,0,1-.254-1.113A4.031,4.031,0,0,1,221.127.2a3.73,3.73,0,0,1-2.563-.884,2.859,2.859,0,0,1-1-2.241,2.987,2.987,0,0,1,1.255-2.563,5.916,5.916,0,0,1,3.53-.913h1.758v-.83a2.029,2.029,0,0,0-.566-1.509,2.276,2.276,0,0,0-1.67-.562,2.634,2.634,0,0,0-1.621.488,1.439,1.439,0,0,0-.654,1.182h-1.816a2.493,2.493,0,0,1,.562-1.528,3.832,3.832,0,0,1,1.523-1.167,5.125,5.125,0,0,1,2.114-.43,4.177,4.177,0,0,1,2.861.913,3.294,3.294,0,0,1,1.074,2.515v4.863a5.946,5.946,0,0,0,.371,2.314V0Zm-3-1.377A3.175,3.175,0,0,0,223-1.816a2.658,2.658,0,0,0,1.1-1.143V-5.127H222.69q-3.32,0-3.32,1.943a1.645,1.645,0,0,0,.566,1.328A2.177,2.177,0,0,0,221.391-1.377ZM232.6-5.371a6.19,6.19,0,0,1,1.152-3.911,3.644,3.644,0,0,1,3.018-1.479,3.665,3.665,0,0,1,2.939,1.27V-15h1.807V0h-1.66l-.088-1.133A3.679,3.679,0,0,1,236.746.2a3.609,3.609,0,0,1-2.993-1.5A6.26,6.26,0,0,1,232.6-5.234Zm1.807.205a4.687,4.687,0,0,0,.742,2.813A2.4,2.4,0,0,0,237.2-1.338a2.636,2.636,0,0,0,2.51-1.543V-7.734a2.656,2.656,0,0,0-2.49-1.494,2.411,2.411,0,0,0-2.07,1.025A5.16,5.16,0,0,0,234.4-5.166ZM248.369.2a4.617,4.617,0,0,1-3.5-1.411,5.237,5.237,0,0,1-1.348-3.774v-.332a6.341,6.341,0,0,1,.6-2.808,4.685,4.685,0,0,1,1.68-1.934,4.223,4.223,0,0,1,2.339-.7,3.957,3.957,0,0,1,3.2,1.357,5.877,5.877,0,0,1,1.143,3.887v.752h-7.158a3.756,3.756,0,0,0,.913,2.524,2.87,2.87,0,0,0,2.222.962,3.147,3.147,0,0,0,1.621-.391,4.073,4.073,0,0,0,1.162-1.035l1.1.859A4.437,4.437,0,0,1,248.369.2Zm-.225-9.473a2.41,2.41,0,0,0-1.836.8,3.868,3.868,0,0,0-.918,2.231h5.293v-.137a3.441,3.441,0,0,0-.742-2.134A2.269,2.269,0,0,0,248.145-9.277ZM260.834,0h-1.807V-10.566h1.807Zm-1.953-13.369a1.078,1.078,0,0,1,.269-.742,1.008,1.008,0,0,1,.8-.3,1.024,1.024,0,0,1,.8.3,1.067,1.067,0,0,1,.273.742,1.032,1.032,0,0,1-.273.732,1.043,1.043,0,0,1-.8.293,1.026,1.026,0,0,1-.8-.293A1.043,1.043,0,0,1,258.881-13.369Zm6.223,2.8.059,1.328a3.85,3.85,0,0,1,3.164-1.523q3.35,0,3.379,3.779V0H269.9V-6.992a2.432,2.432,0,0,0-.522-1.689,2.094,2.094,0,0,0-1.6-.547,2.607,2.607,0,0,0-1.543.469,3.183,3.183,0,0,0-1.035,1.23V0H263.4V-10.566Zm12.482,8.115,2.617-8.115h1.846L278.26,0h-1.377l-3.828-10.566H274.9ZM287.842.2a4.617,4.617,0,0,1-3.5-1.411A5.237,5.237,0,0,1,283-4.99v-.332a6.341,6.341,0,0,1,.6-2.808,4.685,4.685,0,0,1,1.68-1.934,4.223,4.223,0,0,1,2.339-.7,3.957,3.957,0,0,1,3.2,1.357,5.877,5.877,0,0,1,1.143,3.887v.752h-7.158a3.756,3.756,0,0,0,.913,2.524,2.87,2.87,0,0,0,2.222.962,3.147,3.147,0,0,0,1.621-.391,4.073,4.073,0,0,0,1.162-1.035l1.1.859A4.437,4.437,0,0,1,287.842.2Zm-.225-9.473a2.41,2.41,0,0,0-1.836.8,3.869,3.869,0,0,0-.918,2.231h5.293v-.137a3.441,3.441,0,0,0-.742-2.134A2.269,2.269,0,0,0,287.618-9.277Zm11.213.332a5.414,5.414,0,0,0-.889-.068A2.381,2.381,0,0,0,295.53-7.5V0h-1.807V-10.566h1.758l.029,1.221a2.813,2.813,0,0,1,2.52-1.416,1.846,1.846,0,0,1,.8.137ZM306.313-2.8a1.33,1.33,0,0,0-.552-1.138,5.311,5.311,0,0,0-1.924-.7,9.1,9.1,0,0,1-2.178-.7,3.1,3.1,0,0,1-1.191-.977,2.336,2.336,0,0,1-.386-1.348,2.741,2.741,0,0,1,1.1-2.2,4.291,4.291,0,0,1,2.808-.9,4.415,4.415,0,0,1,2.915.928,2.947,2.947,0,0,1,1.118,2.373h-1.816a1.631,1.631,0,0,0-.63-1.279,2.36,2.36,0,0,0-1.587-.537,2.47,2.47,0,0,0-1.543.43,1.353,1.353,0,0,0-.557,1.123,1.1,1.1,0,0,0,.518.986,6.368,6.368,0,0,0,1.87.635,9.744,9.744,0,0,1,2.192.723,3.2,3.2,0,0,1,1.245,1.011,2.485,2.485,0,0,1,.405,1.44,2.7,2.7,0,0,1-1.133,2.271A4.752,4.752,0,0,1,304.048.2,5.321,5.321,0,0,1,301.8-.254a3.653,3.653,0,0,1-1.528-1.255,3.025,3.025,0,0,1-.552-1.743h1.807a1.87,1.87,0,0,0,.728,1.44,2.822,2.822,0,0,0,1.792.532,2.914,2.914,0,0,0,1.646-.415A1.275,1.275,0,0,0,306.313-2.8ZM312.106,0H310.3V-10.566h1.807Zm-1.953-13.369a1.078,1.078,0,0,1,.269-.742,1.008,1.008,0,0,1,.8-.3,1.024,1.024,0,0,1,.8.3,1.067,1.067,0,0,1,.273.742,1.032,1.032,0,0,1-.273.732,1.043,1.043,0,0,1-.8.293,1.026,1.026,0,0,1-.8-.293A1.043,1.043,0,0,1,310.153-13.369Zm4.035,7.988a6.241,6.241,0,0,1,.61-2.793,4.553,4.553,0,0,1,1.7-1.914,4.626,4.626,0,0,1,2.485-.674,4.456,4.456,0,0,1,3.491,1.494,5.748,5.748,0,0,1,1.333,3.975v.127a6.3,6.3,0,0,1-.591,2.769,4.486,4.486,0,0,1-1.689,1.909A4.679,4.679,0,0,1,319,.2,4.445,4.445,0,0,1,315.522-1.3a5.719,5.719,0,0,1-1.333-3.955ZM316-5.166a4.52,4.52,0,0,0,.815,2.822A2.61,2.61,0,0,0,319-1.279a2.594,2.594,0,0,0,2.188-1.079A4.943,4.943,0,0,0,322-5.381a4.512,4.512,0,0,0-.825-2.817,2.623,2.623,0,0,0-2.192-1.079,2.594,2.594,0,0,0-2.158,1.064A4.906,4.906,0,0,0,316-5.166Zm11.447-5.4.059,1.328a3.85,3.85,0,0,1,3.164-1.523q3.35,0,3.379,3.779V0h-1.807V-6.992a2.432,2.432,0,0,0-.522-1.689,2.094,2.094,0,0,0-1.6-.547,2.607,2.607,0,0,0-1.543.469,3.183,3.183,0,0,0-1.035,1.23V0h-1.807V-10.566ZM340.833.2a4.617,4.617,0,0,1-3.5-1.411,5.237,5.237,0,0,1-1.348-3.774v-.332a6.341,6.341,0,0,1,.6-2.808,4.685,4.685,0,0,1,1.68-1.934,4.223,4.223,0,0,1,2.339-.7,3.957,3.957,0,0,1,3.2,1.357,5.877,5.877,0,0,1,1.143,3.887v.752H337.8a3.756,3.756,0,0,0,.913,2.524,2.87,2.87,0,0,0,2.222.962,3.147,3.147,0,0,0,1.621-.391,4.073,4.073,0,0,0,1.162-1.035l1.1.859A4.437,4.437,0,0,1,340.833.2Zm-.225-9.473a2.41,2.41,0,0,0-1.836.8,3.869,3.869,0,0,0-.918,2.231h5.293v-.137a3.441,3.441,0,0,0-.742-2.134A2.269,2.269,0,0,0,340.609-9.277ZM352.866-2.8a1.33,1.33,0,0,0-.552-1.138,5.311,5.311,0,0,0-1.924-.7,9.1,9.1,0,0,1-2.178-.7,3.1,3.1,0,0,1-1.191-.977,2.336,2.336,0,0,1-.386-1.348,2.741,2.741,0,0,1,1.1-2.2,4.291,4.291,0,0,1,2.808-.9,4.415,4.415,0,0,1,2.915.928,2.947,2.947,0,0,1,1.118,2.373h-1.816a1.631,1.631,0,0,0-.63-1.279,2.36,2.36,0,0,0-1.587-.537,2.47,2.47,0,0,0-1.543.43,1.353,1.353,0,0,0-.557,1.123,1.1,1.1,0,0,0,.518.986,6.368,6.368,0,0,0,1.87.635,9.744,9.744,0,0,1,2.192.723,3.2,3.2,0,0,1,1.245,1.011,2.485,2.485,0,0,1,.405,1.44A2.7,2.7,0,0,1,353.54-.659,4.752,4.752,0,0,1,350.6.2a5.321,5.321,0,0,1-2.246-.449,3.653,3.653,0,0,1-1.528-1.255,3.025,3.025,0,0,1-.552-1.743h1.807a1.87,1.87,0,0,0,.728,1.44,2.822,2.822,0,0,0,1.792.532,2.914,2.914,0,0,0,1.646-.415A1.275,1.275,0,0,0,352.866-2.8Z" transform="translate(1059 -3387)"/><path d="M6.543-7.627h3.965v1.709H6.543v4.492H4.727V-5.918H.762V-7.627H4.727v-4.15H6.543ZM25.317-6.572H19.154v5.039h7.158V0H17.279V-14.219h8.936v1.543H19.154v4.57h6.162ZM28.746,0V-9.17h-1.67v-1.4h1.67V-11.65a3.6,3.6,0,0,1,.908-2.627,3.431,3.431,0,0,1,2.568-.928,4.741,4.741,0,0,1,1.24.166l-.1,1.465a5.189,5.189,0,0,0-.977-.088,1.766,1.766,0,0,0-1.357.513,2.075,2.075,0,0,0-.479,1.47v1.113h2.256v1.4H30.553V0ZM38.856.2a4.617,4.617,0,0,1-3.5-1.411A5.237,5.237,0,0,1,34.012-4.99v-.332a6.341,6.341,0,0,1,.6-2.808,4.685,4.685,0,0,1,1.68-1.934,4.223,4.223,0,0,1,2.339-.7,3.957,3.957,0,0,1,3.2,1.357,5.877,5.877,0,0,1,1.143,3.887v.752H35.819a3.756,3.756,0,0,0,.913,2.524,2.87,2.87,0,0,0,2.222.962,3.147,3.147,0,0,0,1.621-.391,4.073,4.073,0,0,0,1.162-1.035l1.1.859A4.437,4.437,0,0,1,38.856.2Zm-.225-9.473a2.41,2.41,0,0,0-1.836.8,3.868,3.868,0,0,0-.918,2.231H41.17v-.137a3.441,3.441,0,0,0-.742-2.134A2.269,2.269,0,0,0,38.631-9.277Zm10.344,8a2.6,2.6,0,0,0,1.689-.586,2.061,2.061,0,0,0,.8-1.465h1.709A3.276,3.276,0,0,1,52.549-1.6,4.116,4.116,0,0,1,51.011-.293,4.438,4.438,0,0,1,48.975.2a4.353,4.353,0,0,1-3.433-1.44,5.737,5.737,0,0,1-1.274-3.94v-.3a6.361,6.361,0,0,1,.566-2.744A4.314,4.314,0,0,1,46.46-10.1a4.619,4.619,0,0,1,2.5-.664A4.238,4.238,0,0,1,51.919-9.7a3.8,3.8,0,0,1,1.255,2.764H51.465a2.49,2.49,0,0,0-.776-1.685,2.415,2.415,0,0,0-1.724-.659,2.529,2.529,0,0,0-2.134.991,4.655,4.655,0,0,0-.757,2.866v.342a4.562,4.562,0,0,0,.752,2.813A2.541,2.541,0,0,0,48.975-1.279Zm8.352-11.846v2.559H59.3v1.4H57.327v6.553a1.464,1.464,0,0,0,.264.952,1.11,1.11,0,0,0,.9.317,4.374,4.374,0,0,0,.859-.117V0a5.238,5.238,0,0,1-1.387.2,2.25,2.25,0,0,1-1.826-.732,3.147,3.147,0,0,1-.615-2.08V-9.17H53.6v-1.4H55.52v-2.559ZM63.042,0H61.235V-10.566h1.807ZM61.088-13.369a1.078,1.078,0,0,1,.269-.742,1.008,1.008,0,0,1,.8-.3,1.024,1.024,0,0,1,.8.3,1.067,1.067,0,0,1,.273.742,1.032,1.032,0,0,1-.273.732,1.043,1.043,0,0,1-.8.293,1.026,1.026,0,0,1-.8-.293A1.043,1.043,0,0,1,61.088-13.369Zm8,10.918,2.617-8.115h1.846L69.762,0H68.385L64.557-10.566H66.4Zm5.246-2.93a6.241,6.241,0,0,1,.61-2.793,4.553,4.553,0,0,1,1.7-1.914,4.626,4.626,0,0,1,2.485-.674,4.456,4.456,0,0,1,3.491,1.494,5.748,5.748,0,0,1,1.333,3.975v.127A6.3,6.3,0,0,1,83.363-2.4,4.486,4.486,0,0,1,81.674-.488,4.679,4.679,0,0,1,79.149.2,4.445,4.445,0,0,1,75.668-1.3a5.719,5.719,0,0,1-1.333-3.955Zm1.816.215a4.52,4.52,0,0,0,.815,2.822,2.61,2.61,0,0,0,2.183,1.064,2.594,2.594,0,0,0,2.188-1.079,4.943,4.943,0,0,0,.811-3.022A4.513,4.513,0,0,0,81.322-8.2,2.623,2.623,0,0,0,79.13-9.277a2.594,2.594,0,0,0-2.158,1.064A4.906,4.906,0,0,0,76.151-5.166ZM95.618-8.945a5.414,5.414,0,0,0-.889-.068A2.381,2.381,0,0,0,92.317-7.5V0H90.511V-10.566h1.758L92.3-9.346a2.813,2.813,0,0,1,2.52-1.416,1.846,1.846,0,0,1,.8.137ZM101.333.2a4.617,4.617,0,0,1-3.5-1.411A5.237,5.237,0,0,1,96.489-4.99v-.332a6.341,6.341,0,0,1,.6-2.808,4.685,4.685,0,0,1,1.68-1.934,4.223,4.223,0,0,1,2.339-.7,3.957,3.957,0,0,1,3.2,1.357,5.877,5.877,0,0,1,1.143,3.887v.752H98.3a3.756,3.756,0,0,0,.913,2.524,2.87,2.87,0,0,0,2.222.962,3.147,3.147,0,0,0,1.621-.391,4.073,4.073,0,0,0,1.162-1.035l1.1.859A4.437,4.437,0,0,1,101.333.2Zm-.225-9.473a2.41,2.41,0,0,0-1.836.8,3.869,3.869,0,0,0-.918,2.231h5.293v-.137a3.441,3.441,0,0,0-.742-2.134A2.269,2.269,0,0,0,101.108-9.277Zm10.344,8a2.6,2.6,0,0,0,1.689-.586,2.061,2.061,0,0,0,.8-1.465h1.709a3.276,3.276,0,0,1-.625,1.729,4.116,4.116,0,0,1-1.538,1.309A4.438,4.438,0,0,1,111.452.2a4.353,4.353,0,0,1-3.433-1.44,5.737,5.737,0,0,1-1.274-3.94v-.3a6.361,6.361,0,0,1,.566-2.744,4.314,4.314,0,0,1,1.626-1.865,4.619,4.619,0,0,1,2.5-.664A4.238,4.238,0,0,1,114.4-9.7a3.8,3.8,0,0,1,1.255,2.764h-1.709a2.49,2.49,0,0,0-.776-1.685,2.415,2.415,0,0,0-1.724-.659,2.529,2.529,0,0,0-2.134.991,4.655,4.655,0,0,0-.757,2.866v.342a4.562,4.562,0,0,0,.752,2.813A2.541,2.541,0,0,0,111.452-1.279ZM119.316,0h-1.807V-10.566h1.807Zm-1.953-13.369a1.078,1.078,0,0,1,.269-.742,1.008,1.008,0,0,1,.8-.3,1.024,1.024,0,0,1,.8.3,1.067,1.067,0,0,1,.273.742,1.032,1.032,0,0,1-.273.732,1.043,1.043,0,0,1-.8.293,1.026,1.026,0,0,1-.8-.293A1.043,1.043,0,0,1,117.362-13.369Zm13.459,8.2a6.283,6.283,0,0,1-1.113,3.892A3.557,3.557,0,0,1,126.72.2a3.683,3.683,0,0,1-3.1-1.416L123.536,0h-1.66V-15h1.807v5.6a3.663,3.663,0,0,1,3.018-1.357,3.579,3.579,0,0,1,3.022,1.455,6.471,6.471,0,0,1,1.1,3.984Zm-1.807-.205a4.882,4.882,0,0,0-.713-2.852,2.36,2.36,0,0,0-2.051-1.006,2.652,2.652,0,0,0-2.568,1.66V-3a2.727,2.727,0,0,0,2.588,1.66,2.347,2.347,0,0,0,2.021-1.006A5.192,5.192,0,0,0,129.015-5.371ZM134.73,0h-1.807V-10.566h1.807Zm-1.953-13.369a1.078,1.078,0,0,1,.269-.742,1.008,1.008,0,0,1,.8-.3,1.024,1.024,0,0,1,.8.3,1.067,1.067,0,0,1,.273.742,1.032,1.032,0,0,1-.273.732,1.043,1.043,0,0,1-.8.293,1.026,1.026,0,0,1-.8-.293A1.043,1.043,0,0,1,132.777-13.369Zm4.074,8A6.19,6.19,0,0,1,138-9.282a3.644,3.644,0,0,1,3.018-1.479,3.665,3.665,0,0,1,2.939,1.27V-15h1.807V0h-1.66l-.088-1.133A3.679,3.679,0,0,1,141,.2a3.609,3.609,0,0,1-2.993-1.5,6.26,6.26,0,0,1-1.157-3.926Zm1.807.205a4.687,4.687,0,0,0,.742,2.813,2.4,2.4,0,0,0,2.051,1.016,2.636,2.636,0,0,0,2.51-1.543V-7.734a2.656,2.656,0,0,0-2.49-1.494A2.411,2.411,0,0,0,139.4-8.2,5.16,5.16,0,0,0,138.658-5.166Zm9.1-.215a6.241,6.241,0,0,1,.61-2.793,4.553,4.553,0,0,1,1.7-1.914,4.626,4.626,0,0,1,2.485-.674,4.456,4.456,0,0,1,3.491,1.494,5.748,5.748,0,0,1,1.333,3.975v.127a6.3,6.3,0,0,1-.591,2.769A4.486,4.486,0,0,1,155.1-.488,4.679,4.679,0,0,1,152.576.2,4.445,4.445,0,0,1,149.094-1.3a5.719,5.719,0,0,1-1.333-3.955Zm1.816.215a4.52,4.52,0,0,0,.815,2.822,2.61,2.61,0,0,0,2.183,1.064,2.594,2.594,0,0,0,2.188-1.079,4.943,4.943,0,0,0,.811-3.022,4.513,4.513,0,0,0-.825-2.817,2.623,2.623,0,0,0-2.192-1.079A2.594,2.594,0,0,0,150.4-8.213,4.906,4.906,0,0,0,149.578-5.166Zm23.285,0a6.327,6.327,0,0,1-1.1,3.887A3.537,3.537,0,0,1,168.771.2a3.875,3.875,0,0,1-3.027-1.221V4.063h-1.807V-10.566h1.65l.088,1.172a3.722,3.722,0,0,1,3.066-1.367,3.6,3.6,0,0,1,3.013,1.436,6.4,6.4,0,0,1,1.108,3.994Zm-1.807-.205a4.669,4.669,0,0,0-.762-2.822,2.454,2.454,0,0,0-2.09-1.035,2.656,2.656,0,0,0-2.461,1.455v5.049a2.661,2.661,0,0,0,2.48,1.445,2.442,2.442,0,0,0,2.065-1.03A5.1,5.1,0,0,0,171.056-5.371Zm3.293-.01a6.241,6.241,0,0,1,.61-2.793,4.553,4.553,0,0,1,1.7-1.914,4.626,4.626,0,0,1,2.485-.674,4.456,4.456,0,0,1,3.491,1.494,5.748,5.748,0,0,1,1.333,3.975v.127a6.3,6.3,0,0,1-.591,2.769,4.486,4.486,0,0,1-1.689,1.909A4.679,4.679,0,0,1,179.164.2,4.445,4.445,0,0,1,175.682-1.3a5.719,5.719,0,0,1-1.333-3.955Zm1.816.215a4.52,4.52,0,0,0,.815,2.822,2.61,2.61,0,0,0,2.183,1.064,2.594,2.594,0,0,0,2.188-1.079,4.943,4.943,0,0,0,.811-3.022,4.513,4.513,0,0,0-.825-2.817,2.623,2.623,0,0,0-2.192-1.079,2.594,2.594,0,0,0-2.158,1.064A4.906,4.906,0,0,0,176.166-5.166Zm14.846-3.779a5.414,5.414,0,0,0-.889-.068A2.381,2.381,0,0,0,187.711-7.5V0H185.9V-10.566h1.758l.029,1.221a2.813,2.813,0,0,1,2.52-1.416,1.846,1.846,0,0,1,.8.137Zm9.438,6.494,2.617-8.115h1.846L201.123,0h-1.377l-3.828-10.566h1.846ZM210.705.2a4.617,4.617,0,0,1-3.5-1.411,5.237,5.237,0,0,1-1.348-3.774v-.332a6.341,6.341,0,0,1,.6-2.808,4.685,4.685,0,0,1,1.68-1.934,4.223,4.223,0,0,1,2.339-.7,3.957,3.957,0,0,1,3.2,1.357,5.877,5.877,0,0,1,1.143,3.887v.752h-7.158a3.756,3.756,0,0,0,.913,2.524,2.87,2.87,0,0,0,2.222.962,3.147,3.147,0,0,0,1.621-.391,4.073,4.073,0,0,0,1.162-1.035l1.1.859A4.437,4.437,0,0,1,210.705.2Zm-.225-9.473a2.41,2.41,0,0,0-1.836.8,3.868,3.868,0,0,0-.918,2.231h5.293v-.137a3.441,3.441,0,0,0-.742-2.134A2.269,2.269,0,0,0,210.48-9.277Zm7.815-1.289.059,1.328a3.851,3.851,0,0,1,3.164-1.523q3.35,0,3.379,3.779V0H223.09V-6.992a2.433,2.433,0,0,0-.522-1.689,2.094,2.094,0,0,0-1.6-.547,2.607,2.607,0,0,0-1.543.469,3.183,3.183,0,0,0-1.035,1.23V0h-1.807V-10.566Zm11.447-2.559v2.559h1.973v1.4h-1.973v6.553a1.464,1.464,0,0,0,.264.952,1.11,1.11,0,0,0,.9.317,4.374,4.374,0,0,0,.859-.117V0a5.238,5.238,0,0,1-1.387.2,2.25,2.25,0,0,1-1.826-.732,3.147,3.147,0,0,1-.615-2.08V-9.17h-1.924v-1.4h1.924v-2.559ZM240.018,0a3.8,3.8,0,0,1-.254-1.113A4.031,4.031,0,0,1,236.756.2a3.73,3.73,0,0,1-2.563-.884,2.859,2.859,0,0,1-1-2.241,2.987,2.987,0,0,1,1.255-2.563,5.916,5.916,0,0,1,3.53-.913h1.758v-.83a2.029,2.029,0,0,0-.566-1.509,2.276,2.276,0,0,0-1.67-.562,2.634,2.634,0,0,0-1.621.488,1.439,1.439,0,0,0-.654,1.182h-1.816a2.493,2.493,0,0,1,.562-1.528,3.832,3.832,0,0,1,1.523-1.167,5.125,5.125,0,0,1,2.114-.43,4.177,4.177,0,0,1,2.861.913,3.294,3.294,0,0,1,1.074,2.515v4.863a5.946,5.946,0,0,0,.371,2.314V0Zm-3-1.377a3.175,3.175,0,0,0,1.611-.439,2.658,2.658,0,0,0,1.1-1.143V-5.127h-1.416q-3.32,0-3.32,1.943a1.645,1.645,0,0,0,.566,1.328A2.177,2.177,0,0,0,237.02-1.377Zm11.205-3.994a6.19,6.19,0,0,1,1.152-3.911,3.644,3.644,0,0,1,3.018-1.479,3.665,3.665,0,0,1,2.939,1.27V-15h1.807V0h-1.66l-.088-1.133A3.679,3.679,0,0,1,252.375.2a3.609,3.609,0,0,1-2.993-1.5,6.26,6.26,0,0,1-1.157-3.926Zm1.807.205a4.687,4.687,0,0,0,.742,2.813,2.4,2.4,0,0,0,2.051,1.016,2.636,2.636,0,0,0,2.51-1.543V-7.734a2.656,2.656,0,0,0-2.49-1.494,2.411,2.411,0,0,0-2.07,1.025A5.16,5.16,0,0,0,250.032-5.166ZM264,.2a4.617,4.617,0,0,1-3.5-1.411,5.237,5.237,0,0,1-1.348-3.774v-.332a6.341,6.341,0,0,1,.6-2.808,4.685,4.685,0,0,1,1.68-1.934,4.223,4.223,0,0,1,2.339-.7,3.957,3.957,0,0,1,3.2,1.357,5.877,5.877,0,0,1,1.143,3.887v.752h-7.158a3.756,3.756,0,0,0,.913,2.524,2.87,2.87,0,0,0,2.222.962,3.147,3.147,0,0,0,1.621-.391,4.073,4.073,0,0,0,1.162-1.035l1.1.859A4.437,4.437,0,0,1,264,.2Zm-.225-9.473a2.41,2.41,0,0,0-1.836.8,3.869,3.869,0,0,0-.918,2.231h5.293v-.137a3.441,3.441,0,0,0-.742-2.134A2.269,2.269,0,0,0,263.774-9.277Zm14.213,6.826,2.617-8.115h1.846L278.661,0h-1.377l-3.828-10.566H275.3ZM288.243.2a4.617,4.617,0,0,1-3.5-1.411A5.237,5.237,0,0,1,283.4-4.99v-.332A6.341,6.341,0,0,1,284-8.13a4.685,4.685,0,0,1,1.68-1.934,4.223,4.223,0,0,1,2.339-.7,3.957,3.957,0,0,1,3.2,1.357,5.877,5.877,0,0,1,1.143,3.887v.752h-7.158a3.756,3.756,0,0,0,.913,2.524,2.87,2.87,0,0,0,2.222.962,3.147,3.147,0,0,0,1.621-.391,4.073,4.073,0,0,0,1.162-1.035l1.1.859A4.437,4.437,0,0,1,288.243.2Zm-.225-9.473a2.41,2.41,0,0,0-1.836.8,3.869,3.869,0,0,0-.918,2.231h5.293v-.137a3.441,3.441,0,0,0-.742-2.134A2.269,2.269,0,0,0,288.018-9.277Zm7.912-.01a3.841,3.841,0,0,1,3.125-1.475q3.35,0,3.379,3.779V0h-1.807V-6.992a2.432,2.432,0,0,0-.522-1.689,2.094,2.094,0,0,0-1.6-.547,2.607,2.607,0,0,0-1.543.469,3.183,3.183,0,0,0-1.035,1.23V0h-1.807V-15h1.807ZM306.772,0h-1.816V-10.566h1.816Zm.02-14.99h2.188l-2.617,2.871h-1.455Zm6.867,13.711a2.6,2.6,0,0,0,1.689-.586,2.061,2.061,0,0,0,.8-1.465h1.709a3.276,3.276,0,0,1-.625,1.729A4.117,4.117,0,0,1,315.7-.293,4.438,4.438,0,0,1,313.659.2a4.353,4.353,0,0,1-3.433-1.44,5.737,5.737,0,0,1-1.274-3.94v-.3a6.362,6.362,0,0,1,.566-2.744,4.314,4.314,0,0,1,1.626-1.865,4.619,4.619,0,0,1,2.5-.664A4.238,4.238,0,0,1,316.6-9.7a3.8,3.8,0,0,1,1.255,2.764h-1.709a2.49,2.49,0,0,0-.776-1.685,2.415,2.415,0,0,0-1.724-.659,2.529,2.529,0,0,0-2.134.991,4.655,4.655,0,0,0-.757,2.866v.342a4.562,4.562,0,0,0,.752,2.813A2.541,2.541,0,0,0,313.659-1.279Zm12.424.234a3.837,3.837,0,0,1-3.1,1.24,3.285,3.285,0,0,1-2.573-.981,4.248,4.248,0,0,1-.894-2.905v-6.875h1.807V-3.74q0,2.4,1.953,2.4a2.7,2.7,0,0,0,2.754-1.543v-7.686h1.807V0h-1.719ZM332.218,0h-1.807V-15h1.807ZM334.3-5.381a6.241,6.241,0,0,1,.61-2.793,4.553,4.553,0,0,1,1.7-1.914,4.626,4.626,0,0,1,2.485-.674,4.456,4.456,0,0,1,3.491,1.494,5.748,5.748,0,0,1,1.333,3.975v.127a6.3,6.3,0,0,1-.591,2.769,4.486,4.486,0,0,1-1.689,1.909A4.679,4.679,0,0,1,339.114.2,4.445,4.445,0,0,1,335.633-1.3,5.719,5.719,0,0,1,334.3-5.254Zm1.816.215a4.52,4.52,0,0,0,.815,2.822,2.61,2.61,0,0,0,2.183,1.064A2.594,2.594,0,0,0,341.3-2.358a4.943,4.943,0,0,0,.811-3.022,4.512,4.512,0,0,0-.825-2.817,2.623,2.623,0,0,0-2.192-1.079,2.594,2.594,0,0,0-2.158,1.064A4.906,4.906,0,0,0,336.116-5.166Z" transform="translate(1059 -3342)"/><path d="M1.3-5.771A15.1,15.1,0,0,1,1.89-10.01,12.312,12.312,0,0,1,3.652-13.7a7.5,7.5,0,0,1,2.432-2.344l.371,1.191a7.778,7.778,0,0,0-2.339,3.34,14.479,14.479,0,0,0-1,5.029l-.01.83A14.554,14.554,0,0,0,4.482.889a7.815,7.815,0,0,0,1.973,2.6l-.371,1.1A7.74,7.74,0,0,1,3.6,2.168,13.574,13.574,0,0,1,1.3-5.771ZM11.633-5.3H6.867V-6.777h4.766Zm5.6-.371A15.106,15.106,0,0,1,16.659-1.5a12.345,12.345,0,0,1-1.748,3.687,7.659,7.659,0,0,1-2.466,2.4l-.381-1.1A7.851,7.851,0,0,0,14.482-.093a15.484,15.484,0,0,0,.933-5.386v-.312a16.076,16.076,0,0,0-.43-3.813,12.87,12.87,0,0,0-1.2-3.159,7.3,7.3,0,0,0-1.724-2.178l.381-1.1A7.629,7.629,0,0,1,14.9-13.662,12.371,12.371,0,0,1,16.65-9.98,15.454,15.454,0,0,1,17.231-5.674Zm9.233.107V0H24.588V-14.219h5.244a5.269,5.269,0,0,1,3.657,1.191,4.039,4.039,0,0,1,1.323,3.154,3.986,3.986,0,0,1-1.294,3.188,5.5,5.5,0,0,1-3.706,1.118Zm0-1.533h3.369a3.372,3.372,0,0,0,2.3-.708,2.586,2.586,0,0,0,.8-2.046,2.672,2.672,0,0,0-.8-2.031,3.159,3.159,0,0,0-2.2-.791H26.463ZM43.008,0a3.8,3.8,0,0,1-.254-1.113A4.031,4.031,0,0,1,39.746.2a3.73,3.73,0,0,1-2.563-.884,2.859,2.859,0,0,1-1-2.241,2.987,2.987,0,0,1,1.255-2.563,5.916,5.916,0,0,1,3.53-.913h1.758v-.83a2.029,2.029,0,0,0-.566-1.509,2.276,2.276,0,0,0-1.67-.562,2.634,2.634,0,0,0-1.621.488,1.439,1.439,0,0,0-.654,1.182H36.4a2.493,2.493,0,0,1,.562-1.528,3.832,3.832,0,0,1,1.523-1.167,5.125,5.125,0,0,1,2.114-.43,4.177,4.177,0,0,1,2.861.913,3.294,3.294,0,0,1,1.074,2.515v4.863A5.946,5.946,0,0,0,44.9-.156V0Zm-3-1.377a3.175,3.175,0,0,0,1.611-.439,2.658,2.658,0,0,0,1.1-1.143V-5.127H41.309q-3.32,0-3.32,1.943a1.645,1.645,0,0,0,.566,1.328A2.177,2.177,0,0,0,40.01-1.377ZM46.6-5.371A6.21,6.21,0,0,1,47.747-9.3a3.654,3.654,0,0,1,3.027-1.46,3.635,3.635,0,0,1,3.018,1.367l.088-1.172h1.65V-.254a4.3,4.3,0,0,1-1.216,3.232A4.487,4.487,0,0,1,51.047,4.16a5.435,5.435,0,0,1-2.236-.488,3.85,3.85,0,0,1-1.67-1.338l.938-1.084A3.533,3.533,0,0,0,50.92,2.686a2.768,2.768,0,0,0,2.056-.742,2.837,2.837,0,0,0,.737-2.09v-.908A3.713,3.713,0,0,1,50.754.2a3.609,3.609,0,0,1-3-1.494A6.529,6.529,0,0,1,46.6-5.371Zm1.816.205a4.738,4.738,0,0,0,.732,2.808A2.38,2.38,0,0,0,51.2-1.338a2.646,2.646,0,0,0,2.51-1.553V-7.715a2.677,2.677,0,0,0-2.49-1.514A2.4,2.4,0,0,0,49.163-8.2,5.16,5.16,0,0,0,48.42-5.166Zm9.025-.215a6.241,6.241,0,0,1,.61-2.793,4.553,4.553,0,0,1,1.7-1.914,4.626,4.626,0,0,1,2.485-.674,4.456,4.456,0,0,1,3.491,1.494,5.748,5.748,0,0,1,1.333,3.975v.127A6.3,6.3,0,0,1,66.474-2.4,4.486,4.486,0,0,1,64.785-.488,4.679,4.679,0,0,1,62.26.2,4.445,4.445,0,0,1,58.779-1.3a5.719,5.719,0,0,1-1.333-3.955Zm1.816.215a4.52,4.52,0,0,0,.815,2.822A2.61,2.61,0,0,0,62.26-1.279a2.594,2.594,0,0,0,2.188-1.079,4.943,4.943,0,0,0,.811-3.022A4.513,4.513,0,0,0,64.433-8.2a2.623,2.623,0,0,0-2.192-1.079,2.594,2.594,0,0,0-2.158,1.064A4.906,4.906,0,0,0,59.262-5.166Zm18.6,3.887a2.6,2.6,0,0,0,1.689-.586,2.061,2.061,0,0,0,.8-1.465h1.709A3.276,3.276,0,0,1,81.434-1.6,4.116,4.116,0,0,1,79.9-.293,4.438,4.438,0,0,1,77.86.2a4.353,4.353,0,0,1-3.433-1.44,5.737,5.737,0,0,1-1.274-3.94v-.3a6.361,6.361,0,0,1,.566-2.744A4.314,4.314,0,0,1,75.345-10.1a4.619,4.619,0,0,1,2.5-.664A4.238,4.238,0,0,1,80.8-9.7a3.8,3.8,0,0,1,1.255,2.764H80.35a2.49,2.49,0,0,0-.776-1.685,2.415,2.415,0,0,0-1.724-.659,2.529,2.529,0,0,0-2.134.991A4.655,4.655,0,0,0,74.96-5.42v.342a4.562,4.562,0,0,0,.752,2.813A2.541,2.541,0,0,0,77.86-1.279Zm5.422-4.1a6.241,6.241,0,0,1,.61-2.793,4.553,4.553,0,0,1,1.7-1.914,4.626,4.626,0,0,1,2.485-.674,4.456,4.456,0,0,1,3.491,1.494A5.748,5.748,0,0,1,92.9-5.293v.127A6.3,6.3,0,0,1,92.31-2.4,4.486,4.486,0,0,1,90.621-.488,4.679,4.679,0,0,1,88.1.2,4.445,4.445,0,0,1,84.615-1.3a5.719,5.719,0,0,1-1.333-3.955Zm1.816.215a4.52,4.52,0,0,0,.815,2.822A2.61,2.61,0,0,0,88.1-1.279a2.594,2.594,0,0,0,2.188-1.079,4.943,4.943,0,0,0,.811-3.022A4.513,4.513,0,0,0,90.269-8.2a2.623,2.623,0,0,0-2.192-1.079,2.594,2.594,0,0,0-2.158,1.064A4.906,4.906,0,0,0,85.1-5.166Zm11.438-5.4.049,1.172a3.9,3.9,0,0,1,3.135-1.367,3.021,3.021,0,0,1,3.018,1.7,4,4,0,0,1,1.372-1.23,4.052,4.052,0,0,1,2-.469q3.477,0,3.535,3.682V0h-1.807V-6.973a2.426,2.426,0,0,0-.518-1.694,2.279,2.279,0,0,0-1.738-.562,2.4,2.4,0,0,0-1.67.6,2.436,2.436,0,0,0-.771,1.616V0h-1.816V-6.924a2.016,2.016,0,0,0-2.256-2.3,2.417,2.417,0,0,0-2.432,1.514V0H94.827V-10.566Zm24.426,5.4a6.327,6.327,0,0,1-1.1,3.887A3.537,3.537,0,0,1,116.87.2a3.875,3.875,0,0,1-3.027-1.221V4.063h-1.807V-10.566h1.65l.088,1.172a3.722,3.722,0,0,1,3.066-1.367,3.6,3.6,0,0,1,3.013,1.436,6.4,6.4,0,0,1,1.108,3.994Zm-1.807-.205a4.669,4.669,0,0,0-.762-2.822,2.454,2.454,0,0,0-2.09-1.035,2.656,2.656,0,0,0-2.461,1.455v5.049a2.661,2.661,0,0,0,2.48,1.445,2.442,2.442,0,0,0,2.065-1.03A5.1,5.1,0,0,0,119.155-5.371Zm8.879-3.574a5.414,5.414,0,0,0-.889-.068A2.381,2.381,0,0,0,124.733-7.5V0h-1.807V-10.566h1.758l.029,1.221a2.813,2.813,0,0,1,2.52-1.416,1.846,1.846,0,0,1,.8.137ZM135.5,0a3.8,3.8,0,0,1-.254-1.113A4.031,4.031,0,0,1,132.235.2a3.73,3.73,0,0,1-2.563-.884,2.859,2.859,0,0,1-1-2.241,2.987,2.987,0,0,1,1.255-2.563,5.916,5.916,0,0,1,3.53-.913h1.758v-.83a2.029,2.029,0,0,0-.566-1.509,2.276,2.276,0,0,0-1.67-.562,2.634,2.634,0,0,0-1.621.488,1.439,1.439,0,0,0-.654,1.182h-1.816a2.493,2.493,0,0,1,.562-1.528,3.832,3.832,0,0,1,1.523-1.167,5.125,5.125,0,0,1,2.114-.43,4.177,4.177,0,0,1,2.861.913,3.294,3.294,0,0,1,1.074,2.515v4.863a5.946,5.946,0,0,0,.371,2.314V0Zm-3-1.377a3.175,3.175,0,0,0,1.611-.439,2.658,2.658,0,0,0,1.1-1.143V-5.127H133.8q-3.32,0-3.32,1.943a1.645,1.645,0,0,0,.566,1.328A2.177,2.177,0,0,0,132.5-1.377ZM148.529.2a4.617,4.617,0,0,1-3.5-1.411,5.237,5.237,0,0,1-1.348-3.774v-.332a6.341,6.341,0,0,1,.6-2.808,4.685,4.685,0,0,1,1.68-1.934,4.223,4.223,0,0,1,2.339-.7,3.957,3.957,0,0,1,3.2,1.357,5.877,5.877,0,0,1,1.143,3.887v.752h-7.158a3.756,3.756,0,0,0,.913,2.524,2.87,2.87,0,0,0,2.222.962,3.147,3.147,0,0,0,1.621-.391,4.073,4.073,0,0,0,1.162-1.035l1.1.859A4.437,4.437,0,0,1,148.529.2ZM148.3-9.277a2.41,2.41,0,0,0-1.836.8,3.868,3.868,0,0,0-.918,2.231h5.293v-.137a3.441,3.441,0,0,0-.742-2.134A2.269,2.269,0,0,0,148.3-9.277Zm5.666,3.906a6.2,6.2,0,0,1,1.143-3.94,3.7,3.7,0,0,1,3.066-1.45,3.7,3.7,0,0,1,2.959,1.26l.078-1.064h1.66V4.063H161.07V-.977A3.792,3.792,0,0,1,158.16.2a3.644,3.644,0,0,1-3.052-1.489,6.34,6.34,0,0,1-1.138-3.95Zm1.807.205a4.7,4.7,0,0,0,.767,2.852,2.438,2.438,0,0,0,2.065,1.035,2.705,2.705,0,0,0,2.461-1.426V-7.881a2.714,2.714,0,0,0-2.441-1.4,2.457,2.457,0,0,0-2.08,1.04A5.118,5.118,0,0,0,155.777-5.166ZM171.97-1.045a3.837,3.837,0,0,1-3.1,1.24A3.285,3.285,0,0,1,166.3-.786a4.248,4.248,0,0,1-.894-2.905v-6.875h1.807V-3.74q0,2.4,1.953,2.4a2.7,2.7,0,0,0,2.754-1.543v-7.686h1.807V0h-1.719ZM178.1,0H176.3V-10.566H178.1Zm-1.953-13.369a1.078,1.078,0,0,1,.269-.742,1.008,1.008,0,0,1,.8-.3,1.024,1.024,0,0,1,.8.3,1.067,1.067,0,0,1,.273.742,1.032,1.032,0,0,1-.273.732,1.043,1.043,0,0,1-.8.293,1.026,1.026,0,0,1-.8-.293A1.043,1.043,0,0,1,176.152-13.369Zm13.44,8.2a6.327,6.327,0,0,1-1.1,3.887A3.537,3.537,0,0,1,185.5.2a3.875,3.875,0,0,1-3.027-1.221V4.063h-1.807V-10.566h1.65l.088,1.172a3.722,3.722,0,0,1,3.066-1.367,3.6,3.6,0,0,1,3.013,1.436,6.4,6.4,0,0,1,1.108,3.994Zm-1.807-.205a4.669,4.669,0,0,0-.762-2.822,2.454,2.454,0,0,0-2.09-1.035,2.656,2.656,0,0,0-2.461,1.455v5.049a2.661,2.661,0,0,0,2.48,1.445,2.442,2.442,0,0,0,2.065-1.03A5.1,5.1,0,0,0,187.785-5.371Zm3.293-.01a6.241,6.241,0,0,1,.61-2.793,4.553,4.553,0,0,1,1.7-1.914,4.626,4.626,0,0,1,2.485-.674,4.456,4.456,0,0,1,3.491,1.494A5.748,5.748,0,0,1,200.7-5.293v.127a6.3,6.3,0,0,1-.591,2.769,4.486,4.486,0,0,1-1.689,1.909A4.679,4.679,0,0,1,195.892.2,4.445,4.445,0,0,1,192.411-1.3a5.719,5.719,0,0,1-1.333-3.955Zm1.816.215a4.52,4.52,0,0,0,.815,2.822,2.61,2.61,0,0,0,2.183,1.064,2.594,2.594,0,0,0,2.188-1.079,4.943,4.943,0,0,0,.811-3.022,4.513,4.513,0,0,0-.825-2.817,2.623,2.623,0,0,0-2.192-1.079,2.594,2.594,0,0,0-2.158,1.064A4.906,4.906,0,0,0,192.894-5.166Zm13.92-.205a6.19,6.19,0,0,1,1.152-3.911,3.644,3.644,0,0,1,3.018-1.479,3.665,3.665,0,0,1,2.939,1.27V-15h1.807V0h-1.66l-.088-1.133A3.679,3.679,0,0,1,210.965.2a3.609,3.609,0,0,1-2.993-1.5,6.26,6.26,0,0,1-1.157-3.926Zm1.807.205a4.687,4.687,0,0,0,.742,2.813,2.4,2.4,0,0,0,2.051,1.016,2.636,2.636,0,0,0,2.51-1.543V-7.734a2.656,2.656,0,0,0-2.49-1.494,2.411,2.411,0,0,0-2.07,1.025A5.16,5.16,0,0,0,208.621-5.166ZM222.588.2a4.617,4.617,0,0,1-3.5-1.411,5.237,5.237,0,0,1-1.348-3.774v-.332a6.341,6.341,0,0,1,.6-2.808,4.685,4.685,0,0,1,1.68-1.934,4.223,4.223,0,0,1,2.339-.7,3.957,3.957,0,0,1,3.2,1.357,5.877,5.877,0,0,1,1.143,3.887v.752h-7.158a3.756,3.756,0,0,0,.913,2.524,2.87,2.87,0,0,0,2.222.962,3.147,3.147,0,0,0,1.621-.391,4.073,4.073,0,0,0,1.162-1.035l1.1.859A4.437,4.437,0,0,1,222.588.2Zm-.225-9.473a2.41,2.41,0,0,0-1.836.8,3.868,3.868,0,0,0-.918,2.231H224.9v-.137a3.441,3.441,0,0,0-.742-2.134A2.269,2.269,0,0,0,222.363-9.277Zm10.248,3.9a6.241,6.241,0,0,1,.61-2.793,4.553,4.553,0,0,1,1.7-1.914,4.626,4.626,0,0,1,2.485-.674A4.456,4.456,0,0,1,240.9-9.268a5.748,5.748,0,0,1,1.333,3.975v.127A6.3,6.3,0,0,1,241.64-2.4,4.486,4.486,0,0,1,239.95-.488,4.679,4.679,0,0,1,237.426.2,4.445,4.445,0,0,1,233.944-1.3a5.719,5.719,0,0,1-1.333-3.955Zm1.816.215a4.52,4.52,0,0,0,.815,2.822,2.61,2.61,0,0,0,2.183,1.064,2.594,2.594,0,0,0,2.188-1.079,4.943,4.943,0,0,0,.811-3.022A4.513,4.513,0,0,0,239.6-8.2a2.623,2.623,0,0,0-2.192-1.079,2.594,2.594,0,0,0-2.158,1.064A4.906,4.906,0,0,0,234.428-5.166ZM244.772,0V-9.17H243.1v-1.4h1.67v-.9a3.671,3.671,0,0,1,1.011-2.754,3.919,3.919,0,0,1,2.856-.986,8.6,8.6,0,0,1,2.764.6l-.3,1.523a6.259,6.259,0,0,0-2.324-.488,2.274,2.274,0,0,0-1.675.522,2.154,2.154,0,0,0-.513,1.567v.918h2.158v1.4h-2.158V0ZM252.3,0h-1.816V-10.566H252.3Zm6.848-1.279a2.6,2.6,0,0,0,1.689-.586,2.061,2.061,0,0,0,.8-1.465h1.709a3.276,3.276,0,0,1-.625,1.729,4.117,4.117,0,0,1-1.538,1.309A4.438,4.438,0,0,1,259.149.2a4.353,4.353,0,0,1-3.433-1.44,5.737,5.737,0,0,1-1.274-3.94v-.3a6.361,6.361,0,0,1,.566-2.744,4.314,4.314,0,0,1,1.626-1.865,4.619,4.619,0,0,1,2.5-.664A4.238,4.238,0,0,1,262.093-9.7a3.8,3.8,0,0,1,1.255,2.764h-1.709a2.49,2.49,0,0,0-.776-1.685,2.415,2.415,0,0,0-1.724-.659,2.529,2.529,0,0,0-2.134.991,4.655,4.655,0,0,0-.757,2.866v.342A4.562,4.562,0,0,0,257-2.266,2.541,2.541,0,0,0,259.149-1.279ZM267.012,0h-1.807V-10.566h1.807Zm-1.953-13.369a1.078,1.078,0,0,1,.269-.742,1.008,1.008,0,0,1,.8-.3,1.024,1.024,0,0,1,.8.3,1.067,1.067,0,0,1,.273.742,1.032,1.032,0,0,1-.273.732,1.043,1.043,0,0,1-.8.293,1.026,1.026,0,0,1-.8-.293A1.043,1.043,0,0,1,265.059-13.369Zm6.223,2.8.059,1.328a3.85,3.85,0,0,1,3.164-1.523q3.35,0,3.379,3.779V0h-1.807V-6.992a2.432,2.432,0,0,0-.522-1.689,2.094,2.094,0,0,0-1.6-.547,2.607,2.607,0,0,0-1.543.469,3.183,3.183,0,0,0-1.035,1.23V0h-1.807V-10.566ZM286.8,0a3.8,3.8,0,0,1-.254-1.113A4.031,4.031,0,0,1,283.54.2a3.73,3.73,0,0,1-2.563-.884,2.859,2.859,0,0,1-1-2.241,2.987,2.987,0,0,1,1.255-2.563,5.916,5.916,0,0,1,3.53-.913h1.758v-.83a2.029,2.029,0,0,0-.566-1.509,2.276,2.276,0,0,0-1.67-.562,2.634,2.634,0,0,0-1.621.488,1.439,1.439,0,0,0-.654,1.182H280.19a2.493,2.493,0,0,1,.562-1.528,3.833,3.833,0,0,1,1.523-1.167,5.125,5.125,0,0,1,2.114-.43,4.177,4.177,0,0,1,2.861.913,3.294,3.294,0,0,1,1.074,2.515v4.863A5.946,5.946,0,0,0,288.7-.156V0Zm-3-1.377a3.175,3.175,0,0,0,1.611-.439,2.658,2.658,0,0,0,1.1-1.143V-5.127H285.1q-3.32,0-3.32,1.943a1.645,1.645,0,0,0,.566,1.328A2.177,2.177,0,0,0,283.8-1.377Z" transform="translate(1059 -3298)"/><path d="M1.3-5.771A15.1,15.1,0,0,1,1.89-10.01,12.312,12.312,0,0,1,3.652-13.7a7.5,7.5,0,0,1,2.432-2.344l.371,1.191a7.778,7.778,0,0,0-2.339,3.34,14.479,14.479,0,0,0-1,5.029l-.01.83A14.554,14.554,0,0,0,4.482.889a7.815,7.815,0,0,0,1.973,2.6l-.371,1.1A7.74,7.74,0,0,1,3.6,2.168,13.574,13.574,0,0,1,1.3-5.771ZM11.633-5.3H6.867V-6.777h4.766Zm5.6-.371A15.106,15.106,0,0,1,16.659-1.5a12.345,12.345,0,0,1-1.748,3.687,7.659,7.659,0,0,1-2.466,2.4l-.381-1.1A7.851,7.851,0,0,0,14.482-.093a15.484,15.484,0,0,0,.933-5.386v-.312a16.076,16.076,0,0,0-.43-3.813,12.87,12.87,0,0,0-1.2-3.159,7.3,7.3,0,0,0-1.724-2.178l.381-1.1A7.629,7.629,0,0,1,14.9-13.662,12.371,12.371,0,0,1,16.65-9.98,15.454,15.454,0,0,1,17.231-5.674Zm9.233.107V0H24.588V-14.219h5.244a5.269,5.269,0,0,1,3.657,1.191,4.039,4.039,0,0,1,1.323,3.154,3.986,3.986,0,0,1-1.294,3.188,5.5,5.5,0,0,1-3.706,1.118Zm0-1.533h3.369a3.372,3.372,0,0,0,2.3-.708,2.586,2.586,0,0,0,.8-2.046,2.672,2.672,0,0,0-.8-2.031,3.159,3.159,0,0,0-2.2-.791H26.463ZM43.008,0a3.8,3.8,0,0,1-.254-1.113A4.031,4.031,0,0,1,39.746.2a3.73,3.73,0,0,1-2.563-.884,2.859,2.859,0,0,1-1-2.241,2.987,2.987,0,0,1,1.255-2.563,5.916,5.916,0,0,1,3.53-.913h1.758v-.83a2.029,2.029,0,0,0-.566-1.509,2.276,2.276,0,0,0-1.67-.562,2.634,2.634,0,0,0-1.621.488,1.439,1.439,0,0,0-.654,1.182H36.4a2.493,2.493,0,0,1,.562-1.528,3.832,3.832,0,0,1,1.523-1.167,5.125,5.125,0,0,1,2.114-.43,4.177,4.177,0,0,1,2.861.913,3.294,3.294,0,0,1,1.074,2.515v4.863A5.946,5.946,0,0,0,44.9-.156V0Zm-3-1.377a3.175,3.175,0,0,0,1.611-.439,2.658,2.658,0,0,0,1.1-1.143V-5.127H41.309q-3.32,0-3.32,1.943a1.645,1.645,0,0,0,.566,1.328A2.177,2.177,0,0,0,40.01-1.377ZM46.6-5.371A6.21,6.21,0,0,1,47.747-9.3a3.654,3.654,0,0,1,3.027-1.46,3.635,3.635,0,0,1,3.018,1.367l.088-1.172h1.65V-.254a4.3,4.3,0,0,1-1.216,3.232A4.487,4.487,0,0,1,51.047,4.16a5.435,5.435,0,0,1-2.236-.488,3.85,3.85,0,0,1-1.67-1.338l.938-1.084A3.533,3.533,0,0,0,50.92,2.686a2.768,2.768,0,0,0,2.056-.742,2.837,2.837,0,0,0,.737-2.09v-.908A3.713,3.713,0,0,1,50.754.2a3.609,3.609,0,0,1-3-1.494A6.529,6.529,0,0,1,46.6-5.371Zm1.816.205a4.738,4.738,0,0,0,.732,2.808A2.38,2.38,0,0,0,51.2-1.338a2.646,2.646,0,0,0,2.51-1.553V-7.715a2.677,2.677,0,0,0-2.49-1.514A2.4,2.4,0,0,0,49.163-8.2,5.16,5.16,0,0,0,48.42-5.166Zm9.025-.215a6.241,6.241,0,0,1,.61-2.793,4.553,4.553,0,0,1,1.7-1.914,4.626,4.626,0,0,1,2.485-.674,4.456,4.456,0,0,1,3.491,1.494,5.748,5.748,0,0,1,1.333,3.975v.127A6.3,6.3,0,0,1,66.474-2.4,4.486,4.486,0,0,1,64.785-.488,4.679,4.679,0,0,1,62.26.2,4.445,4.445,0,0,1,58.779-1.3a5.719,5.719,0,0,1-1.333-3.955Zm1.816.215a4.52,4.52,0,0,0,.815,2.822A2.61,2.61,0,0,0,62.26-1.279a2.594,2.594,0,0,0,2.188-1.079,4.943,4.943,0,0,0,.811-3.022A4.513,4.513,0,0,0,64.433-8.2a2.623,2.623,0,0,0-2.192-1.079,2.594,2.594,0,0,0-2.158,1.064A4.906,4.906,0,0,0,59.262-5.166Zm18.6,3.887a2.6,2.6,0,0,0,1.689-.586,2.061,2.061,0,0,0,.8-1.465h1.709A3.276,3.276,0,0,1,81.434-1.6,4.116,4.116,0,0,1,79.9-.293,4.438,4.438,0,0,1,77.86.2a4.353,4.353,0,0,1-3.433-1.44,5.737,5.737,0,0,1-1.274-3.94v-.3a6.361,6.361,0,0,1,.566-2.744A4.314,4.314,0,0,1,75.345-10.1a4.619,4.619,0,0,1,2.5-.664A4.238,4.238,0,0,1,80.8-9.7a3.8,3.8,0,0,1,1.255,2.764H80.35a2.49,2.49,0,0,0-.776-1.685,2.415,2.415,0,0,0-1.724-.659,2.529,2.529,0,0,0-2.134.991A4.655,4.655,0,0,0,74.96-5.42v.342a4.562,4.562,0,0,0,.752,2.813A2.541,2.541,0,0,0,77.86-1.279Zm5.422-4.1a6.241,6.241,0,0,1,.61-2.793,4.553,4.553,0,0,1,1.7-1.914,4.626,4.626,0,0,1,2.485-.674,4.456,4.456,0,0,1,3.491,1.494A5.748,5.748,0,0,1,92.9-5.293v.127A6.3,6.3,0,0,1,92.31-2.4,4.486,4.486,0,0,1,90.621-.488,4.679,4.679,0,0,1,88.1.2,4.445,4.445,0,0,1,84.615-1.3a5.719,5.719,0,0,1-1.333-3.955Zm1.816.215a4.52,4.52,0,0,0,.815,2.822A2.61,2.61,0,0,0,88.1-1.279a2.594,2.594,0,0,0,2.188-1.079,4.943,4.943,0,0,0,.811-3.022A4.513,4.513,0,0,0,90.269-8.2a2.623,2.623,0,0,0-2.192-1.079,2.594,2.594,0,0,0-2.158,1.064A4.906,4.906,0,0,0,85.1-5.166Zm11.438-5.4.049,1.172a3.9,3.9,0,0,1,3.135-1.367,3.021,3.021,0,0,1,3.018,1.7,4,4,0,0,1,1.372-1.23,4.052,4.052,0,0,1,2-.469q3.477,0,3.535,3.682V0h-1.807V-6.973a2.426,2.426,0,0,0-.518-1.694,2.279,2.279,0,0,0-1.738-.562,2.4,2.4,0,0,0-1.67.6,2.436,2.436,0,0,0-.771,1.616V0h-1.816V-6.924a2.016,2.016,0,0,0-2.256-2.3,2.417,2.417,0,0,0-2.432,1.514V0H94.827V-10.566Zm24.426,5.4a6.327,6.327,0,0,1-1.1,3.887A3.537,3.537,0,0,1,116.87.2a3.875,3.875,0,0,1-3.027-1.221V4.063h-1.807V-10.566h1.65l.088,1.172a3.722,3.722,0,0,1,3.066-1.367,3.6,3.6,0,0,1,3.013,1.436,6.4,6.4,0,0,1,1.108,3.994Zm-1.807-.205a4.669,4.669,0,0,0-.762-2.822,2.454,2.454,0,0,0-2.09-1.035,2.656,2.656,0,0,0-2.461,1.455v5.049a2.661,2.661,0,0,0,2.48,1.445,2.442,2.442,0,0,0,2.065-1.03A5.1,5.1,0,0,0,119.155-5.371Zm8.879-3.574a5.414,5.414,0,0,0-.889-.068A2.381,2.381,0,0,0,124.733-7.5V0h-1.807V-10.566h1.758l.029,1.221a2.813,2.813,0,0,1,2.52-1.416,1.846,1.846,0,0,1,.8.137ZM135.5,0a3.8,3.8,0,0,1-.254-1.113A4.031,4.031,0,0,1,132.235.2a3.73,3.73,0,0,1-2.563-.884,2.859,2.859,0,0,1-1-2.241,2.987,2.987,0,0,1,1.255-2.563,5.916,5.916,0,0,1,3.53-.913h1.758v-.83a2.029,2.029,0,0,0-.566-1.509,2.276,2.276,0,0,0-1.67-.562,2.634,2.634,0,0,0-1.621.488,1.439,1.439,0,0,0-.654,1.182h-1.816a2.493,2.493,0,0,1,.562-1.528,3.832,3.832,0,0,1,1.523-1.167,5.125,5.125,0,0,1,2.114-.43,4.177,4.177,0,0,1,2.861.913,3.294,3.294,0,0,1,1.074,2.515v4.863a5.946,5.946,0,0,0,.371,2.314V0Zm-3-1.377a3.175,3.175,0,0,0,1.611-.439,2.658,2.658,0,0,0,1.1-1.143V-5.127H133.8q-3.32,0-3.32,1.943a1.645,1.645,0,0,0,.566,1.328A2.177,2.177,0,0,0,132.5-1.377ZM143.7-5.371a6.19,6.19,0,0,1,1.152-3.911,3.644,3.644,0,0,1,3.018-1.479,3.665,3.665,0,0,1,2.939,1.27V-15h1.807V0h-1.66l-.088-1.133A3.679,3.679,0,0,1,147.855.2a3.609,3.609,0,0,1-2.993-1.5A6.26,6.26,0,0,1,143.7-5.234Zm1.807.205a4.687,4.687,0,0,0,.742,2.813A2.4,2.4,0,0,0,148.3-1.338a2.636,2.636,0,0,0,2.51-1.543V-7.734a2.656,2.656,0,0,0-2.49-1.494,2.411,2.411,0,0,0-2.07,1.025A5.16,5.16,0,0,0,145.511-5.166ZM159.478.2a4.617,4.617,0,0,1-3.5-1.411,5.237,5.237,0,0,1-1.348-3.774v-.332a6.341,6.341,0,0,1,.6-2.808,4.685,4.685,0,0,1,1.68-1.934,4.223,4.223,0,0,1,2.339-.7,3.957,3.957,0,0,1,3.2,1.357A5.877,5.877,0,0,1,163.6-5.518v.752h-7.158a3.756,3.756,0,0,0,.913,2.524,2.87,2.87,0,0,0,2.222.962A3.147,3.147,0,0,0,161.2-1.67a4.073,4.073,0,0,0,1.162-1.035l1.1.859A4.437,4.437,0,0,1,159.478.2Zm-.225-9.473a2.41,2.41,0,0,0-1.836.8A3.868,3.868,0,0,0,156.5-6.25h5.293v-.137a3.441,3.441,0,0,0-.742-2.134A2.269,2.269,0,0,0,159.253-9.277Zm12.426-1.289.049,1.172a3.9,3.9,0,0,1,3.135-1.367,3.021,3.021,0,0,1,3.018,1.7,4,4,0,0,1,1.372-1.23,4.052,4.052,0,0,1,2-.469q3.477,0,3.535,3.682V0h-1.807V-6.973a2.426,2.426,0,0,0-.518-1.694,2.279,2.279,0,0,0-1.738-.562,2.4,2.4,0,0,0-1.67.6,2.436,2.436,0,0,0-.771,1.616V0h-1.816V-6.924a2.016,2.016,0,0,0-2.256-2.3,2.417,2.417,0,0,0-2.432,1.514V0H169.97V-10.566ZM193.7,0a3.8,3.8,0,0,1-.254-1.113A4.031,4.031,0,0,1,190.441.2a3.73,3.73,0,0,1-2.563-.884,2.859,2.859,0,0,1-1-2.241,2.987,2.987,0,0,1,1.255-2.563,5.916,5.916,0,0,1,3.53-.913h1.758v-.83a2.029,2.029,0,0,0-.566-1.509,2.276,2.276,0,0,0-1.67-.562,2.634,2.634,0,0,0-1.621.488,1.439,1.439,0,0,0-.654,1.182h-1.816a2.493,2.493,0,0,1,.562-1.528,3.832,3.832,0,0,1,1.523-1.167,5.125,5.125,0,0,1,2.114-.43,4.177,4.177,0,0,1,2.861.913,3.294,3.294,0,0,1,1.074,2.515v4.863A5.946,5.946,0,0,0,195.6-.156V0Zm-3-1.377a3.175,3.175,0,0,0,1.611-.439,2.658,2.658,0,0,0,1.1-1.143V-5.127H192q-3.32,0-3.32,1.943a1.645,1.645,0,0,0,.566,1.328A2.177,2.177,0,0,0,190.7-1.377Zm6.584-3.994a6.2,6.2,0,0,1,1.143-3.94,3.7,3.7,0,0,1,3.066-1.45,3.7,3.7,0,0,1,2.959,1.26l.078-1.064h1.66V4.063h-1.807V-.977A3.792,3.792,0,0,1,201.478.2a3.644,3.644,0,0,1-3.052-1.489,6.34,6.34,0,0,1-1.138-3.95Zm1.807.205a4.7,4.7,0,0,0,.767,2.852,2.438,2.438,0,0,0,2.065,1.035,2.705,2.705,0,0,0,2.461-1.426V-7.881a2.714,2.714,0,0,0-2.441-1.4,2.457,2.457,0,0,0-2.08,1.04A5.118,5.118,0,0,0,199.1-5.166Zm16.193,4.121a3.837,3.837,0,0,1-3.1,1.24,3.285,3.285,0,0,1-2.573-.981,4.248,4.248,0,0,1-.894-2.905v-6.875h1.807V-3.74q0,2.4,1.953,2.4a2.7,2.7,0,0,0,2.754-1.543v-7.686h1.807V0h-1.719ZM221.424,0h-1.807V-10.566h1.807Zm-1.953-13.369a1.078,1.078,0,0,1,.269-.742,1.008,1.008,0,0,1,.8-.3,1.024,1.024,0,0,1,.8.3,1.067,1.067,0,0,1,.273.742,1.032,1.032,0,0,1-.273.732,1.043,1.043,0,0,1-.8.293,1.026,1.026,0,0,1-.8-.293A1.043,1.043,0,0,1,219.471-13.369Zm6.223,2.8.059,1.328a3.851,3.851,0,0,1,3.164-1.523q3.35,0,3.379,3.779V0h-1.807V-6.992a2.433,2.433,0,0,0-.522-1.689,2.094,2.094,0,0,0-1.6-.547,2.607,2.607,0,0,0-1.543.469,3.183,3.183,0,0,0-1.035,1.23V0h-1.807V-10.566ZM241.213,0a3.8,3.8,0,0,1-.254-1.113A4.031,4.031,0,0,1,237.951.2a3.73,3.73,0,0,1-2.563-.884,2.859,2.859,0,0,1-1-2.241,2.987,2.987,0,0,1,1.255-2.563,5.916,5.916,0,0,1,3.53-.913h1.758v-.83a2.029,2.029,0,0,0-.566-1.509,2.276,2.276,0,0,0-1.67-.562,2.634,2.634,0,0,0-1.621.488,1.439,1.439,0,0,0-.654,1.182H234.6a2.493,2.493,0,0,1,.562-1.528,3.832,3.832,0,0,1,1.523-1.167,5.125,5.125,0,0,1,2.114-.43,4.177,4.177,0,0,1,2.861.913,3.294,3.294,0,0,1,1.074,2.515v4.863a5.946,5.946,0,0,0,.371,2.314V0Zm-3-1.377a3.175,3.175,0,0,0,1.611-.439,2.658,2.658,0,0,0,1.1-1.143V-5.127h-1.416q-3.32,0-3.32,1.943a1.645,1.645,0,0,0,.566,1.328A2.177,2.177,0,0,0,238.215-1.377Zm12.131-7.568a5.414,5.414,0,0,0-.889-.068A2.381,2.381,0,0,0,247.045-7.5V0h-1.807V-10.566H247l.029,1.221a2.813,2.813,0,0,1,2.52-1.416,1.846,1.846,0,0,1,.8.137ZM253.639,0h-1.807V-10.566h1.807Zm-1.953-13.369a1.078,1.078,0,0,1,.269-.742,1.008,1.008,0,0,1,.8-.3,1.024,1.024,0,0,1,.8.3,1.067,1.067,0,0,1,.273.742,1.032,1.032,0,0,1-.273.732,1.043,1.043,0,0,1-.8.293,1.026,1.026,0,0,1-.8-.293A1.043,1.043,0,0,1,251.686-13.369ZM262.723,0a3.8,3.8,0,0,1-.254-1.113A4.031,4.031,0,0,1,259.461.2,3.73,3.73,0,0,1,256.9-.688a2.859,2.859,0,0,1-1-2.241,2.987,2.987,0,0,1,1.255-2.563,5.916,5.916,0,0,1,3.53-.913h1.758v-.83a2.029,2.029,0,0,0-.566-1.509,2.276,2.276,0,0,0-1.67-.562,2.634,2.634,0,0,0-1.621.488,1.439,1.439,0,0,0-.654,1.182h-1.816a2.493,2.493,0,0,1,.562-1.528,3.833,3.833,0,0,1,1.523-1.167,5.125,5.125,0,0,1,2.114-.43,4.177,4.177,0,0,1,2.861.913,3.294,3.294,0,0,1,1.074,2.515v4.863a5.946,5.946,0,0,0,.371,2.314V0Zm-3-1.377a3.175,3.175,0,0,0,1.611-.439,2.658,2.658,0,0,0,1.1-1.143V-5.127h-1.416q-3.32,0-3.32,1.943a1.645,1.645,0,0,0,.566,1.328A2.177,2.177,0,0,0,259.725-1.377Z" transform="translate(1059 -3255)"/><path d="M9.629-7.949H1.484V-9.521H9.629Zm0,4.053H1.484V-5.459H9.629ZM24.955-6.572H18.793v5.039h7.158V0H16.918V-14.219h8.936v1.543H18.793v4.57h6.162ZM28.385,0V-9.17h-1.67v-1.4h1.67V-11.65a3.6,3.6,0,0,1,.908-2.627,3.431,3.431,0,0,1,2.568-.928,4.741,4.741,0,0,1,1.24.166L33-13.574a5.189,5.189,0,0,0-.977-.088,1.766,1.766,0,0,0-1.357.513,2.075,2.075,0,0,0-.479,1.47v1.113h2.256v1.4H30.192V0ZM38.494.2A4.617,4.617,0,0,1,35-1.216,5.237,5.237,0,0,1,33.651-4.99v-.332a6.341,6.341,0,0,1,.6-2.808,4.685,4.685,0,0,1,1.68-1.934,4.223,4.223,0,0,1,2.339-.7,3.957,3.957,0,0,1,3.2,1.357,5.877,5.877,0,0,1,1.143,3.887v.752H35.457a3.756,3.756,0,0,0,.913,2.524,2.87,2.87,0,0,0,2.222.962,3.147,3.147,0,0,0,1.621-.391,4.073,4.073,0,0,0,1.162-1.035l1.1.859A4.437,4.437,0,0,1,38.494.2ZM38.27-9.277a2.41,2.41,0,0,0-1.836.8,3.868,3.868,0,0,0-.918,2.231h5.293v-.137a3.441,3.441,0,0,0-.742-2.134A2.269,2.269,0,0,0,38.27-9.277Zm10.344,8A2.6,2.6,0,0,0,50.3-1.865a2.061,2.061,0,0,0,.8-1.465h1.709A3.276,3.276,0,0,1,52.188-1.6,4.116,4.116,0,0,1,50.65-.293,4.438,4.438,0,0,1,48.614.2a4.353,4.353,0,0,1-3.433-1.44,5.737,5.737,0,0,1-1.274-3.94v-.3a6.361,6.361,0,0,1,.566-2.744A4.314,4.314,0,0,1,46.1-10.1a4.619,4.619,0,0,1,2.5-.664A4.238,4.238,0,0,1,51.558-9.7a3.8,3.8,0,0,1,1.255,2.764H51.1a2.49,2.49,0,0,0-.776-1.685A2.415,2.415,0,0,0,48.6-9.277a2.529,2.529,0,0,0-2.134.991,4.655,4.655,0,0,0-.757,2.866v.342a4.562,4.562,0,0,0,.752,2.813A2.541,2.541,0,0,0,48.614-1.279Zm8.352-11.846v2.559h1.973v1.4H56.965v6.553a1.464,1.464,0,0,0,.264.952,1.11,1.11,0,0,0,.9.317,4.374,4.374,0,0,0,.859-.117V0A5.238,5.238,0,0,1,57.6.2a2.25,2.25,0,0,1-1.826-.732,3.147,3.147,0,0,1-.615-2.08V-9.17H53.235v-1.4h1.924v-2.559ZM62.68,0H60.874V-10.566H62.68ZM60.727-13.369A1.078,1.078,0,0,1,61-14.111a1.008,1.008,0,0,1,.8-.3,1.024,1.024,0,0,1,.8.3,1.067,1.067,0,0,1,.273.742,1.032,1.032,0,0,1-.273.732,1.043,1.043,0,0,1-.8.293,1.026,1.026,0,0,1-.8-.293A1.043,1.043,0,0,1,60.727-13.369Zm8,10.918,2.617-8.115H73.19L69.4,0H68.024L64.2-10.566h1.846Zm5.246-2.93a6.241,6.241,0,0,1,.61-2.793,4.553,4.553,0,0,1,1.7-1.914,4.626,4.626,0,0,1,2.485-.674,4.456,4.456,0,0,1,3.491,1.494,5.748,5.748,0,0,1,1.333,3.975v.127A6.3,6.3,0,0,1,83-2.4,4.486,4.486,0,0,1,81.312-.488,4.679,4.679,0,0,1,78.788.2,4.445,4.445,0,0,1,75.306-1.3a5.719,5.719,0,0,1-1.333-3.955Zm1.816.215a4.52,4.52,0,0,0,.815,2.822,2.61,2.61,0,0,0,2.183,1.064,2.594,2.594,0,0,0,2.188-1.079,4.943,4.943,0,0,0,.811-3.022A4.513,4.513,0,0,0,80.961-8.2a2.623,2.623,0,0,0-2.192-1.079A2.594,2.594,0,0,0,76.61-8.213,4.906,4.906,0,0,0,75.79-5.166Zm13.93-.205A6.21,6.21,0,0,1,90.862-9.3a3.654,3.654,0,0,1,3.027-1.46,3.635,3.635,0,0,1,3.018,1.367L97-10.566h1.65V-.254A4.3,4.3,0,0,1,97.43,2.979,4.487,4.487,0,0,1,94.163,4.16a5.435,5.435,0,0,1-2.236-.488,3.85,3.85,0,0,1-1.67-1.338l.938-1.084a3.533,3.533,0,0,0,2.842,1.436,2.768,2.768,0,0,0,2.056-.742,2.837,2.837,0,0,0,.737-2.09v-.908A3.713,3.713,0,0,1,93.87.2a3.609,3.609,0,0,1-3-1.494A6.529,6.529,0,0,1,89.72-5.371Zm1.816.205a4.738,4.738,0,0,0,.732,2.808,2.38,2.38,0,0,0,2.051,1.021,2.646,2.646,0,0,0,2.51-1.553V-7.715a2.677,2.677,0,0,0-2.49-1.514A2.4,2.4,0,0,0,92.278-8.2,5.16,5.16,0,0,0,91.536-5.166ZM105.425.2a4.617,4.617,0,0,1-3.5-1.411,5.237,5.237,0,0,1-1.348-3.774v-.332a6.341,6.341,0,0,1,.6-2.808,4.685,4.685,0,0,1,1.68-1.934,4.223,4.223,0,0,1,2.339-.7A3.957,3.957,0,0,1,108.4-9.4a5.877,5.877,0,0,1,1.143,3.887v.752h-7.158a3.756,3.756,0,0,0,.913,2.524,2.87,2.87,0,0,0,2.222.962,3.147,3.147,0,0,0,1.621-.391,4.073,4.073,0,0,0,1.162-1.035l1.1.859A4.437,4.437,0,0,1,105.425.2ZM105.2-9.277a2.41,2.41,0,0,0-1.836.8,3.869,3.869,0,0,0-.918,2.231h5.293v-.137A3.441,3.441,0,0,0,107-8.521,2.269,2.269,0,0,0,105.2-9.277Zm7.815-1.289.059,1.328a3.85,3.85,0,0,1,3.164-1.523q3.35,0,3.379,3.779V0H117.81V-6.992a2.432,2.432,0,0,0-.522-1.689,2.094,2.094,0,0,0-1.6-.547,2.607,2.607,0,0,0-1.543.469,3.183,3.183,0,0,0-1.035,1.23V0h-1.807V-10.566ZM126.4.2a4.617,4.617,0,0,1-3.5-1.411,5.237,5.237,0,0,1-1.348-3.774v-.332a6.341,6.341,0,0,1,.6-2.808,4.685,4.685,0,0,1,1.68-1.934,4.223,4.223,0,0,1,2.339-.7,3.957,3.957,0,0,1,3.2,1.357,5.877,5.877,0,0,1,1.143,3.887v.752h-7.158a3.756,3.756,0,0,0,.913,2.524,2.87,2.87,0,0,0,2.222.962,3.147,3.147,0,0,0,1.621-.391,4.073,4.073,0,0,0,1.162-1.035l1.1.859A4.437,4.437,0,0,1,126.4.2Zm-.225-9.473a2.41,2.41,0,0,0-1.836.8,3.869,3.869,0,0,0-.918,2.231h5.293v-.137a3.441,3.441,0,0,0-.742-2.134A2.269,2.269,0,0,0,126.171-9.277Zm11.213.332a5.414,5.414,0,0,0-.889-.068A2.381,2.381,0,0,0,134.083-7.5V0h-1.807V-10.566h1.758l.029,1.221a2.813,2.813,0,0,1,2.52-1.416,1.846,1.846,0,0,1,.8.137ZM144.847,0a3.8,3.8,0,0,1-.254-1.113A4.031,4.031,0,0,1,141.585.2a3.73,3.73,0,0,1-2.563-.884,2.859,2.859,0,0,1-1-2.241,2.987,2.987,0,0,1,1.255-2.563,5.916,5.916,0,0,1,3.53-.913h1.758v-.83A2.029,2.029,0,0,0,144-8.745a2.276,2.276,0,0,0-1.67-.562,2.634,2.634,0,0,0-1.621.488,1.439,1.439,0,0,0-.654,1.182h-1.816a2.493,2.493,0,0,1,.562-1.528,3.832,3.832,0,0,1,1.523-1.167,5.125,5.125,0,0,1,2.114-.43,4.177,4.177,0,0,1,2.861.913,3.294,3.294,0,0,1,1.074,2.515v4.863a5.946,5.946,0,0,0,.371,2.314V0Zm-3-1.377a3.175,3.175,0,0,0,1.611-.439,2.658,2.658,0,0,0,1.1-1.143V-5.127h-1.416q-3.32,0-3.32,1.943a1.645,1.645,0,0,0,.566,1.328A2.177,2.177,0,0,0,141.849-1.377Zm6.584-3.994a6.19,6.19,0,0,1,1.152-3.911,3.644,3.644,0,0,1,3.018-1.479,3.665,3.665,0,0,1,2.939,1.27V-15h1.807V0h-1.66L155.6-1.133A3.679,3.679,0,0,1,152.583.2a3.609,3.609,0,0,1-2.993-1.5,6.26,6.26,0,0,1-1.157-3.926Zm1.807.205a4.687,4.687,0,0,0,.742,2.813,2.4,2.4,0,0,0,2.051,1.016,2.636,2.636,0,0,0,2.51-1.543V-7.734a2.656,2.656,0,0,0-2.49-1.494,2.411,2.411,0,0,0-2.07,1.025A5.16,5.16,0,0,0,150.24-5.166Zm9.1-.215a6.241,6.241,0,0,1,.61-2.793,4.553,4.553,0,0,1,1.7-1.914,4.626,4.626,0,0,1,2.485-.674,4.456,4.456,0,0,1,3.491,1.494,5.748,5.748,0,0,1,1.333,3.975v.127a6.3,6.3,0,0,1-.591,2.769,4.486,4.486,0,0,1-1.689,1.909A4.679,4.679,0,0,1,164.158.2,4.445,4.445,0,0,1,160.676-1.3a5.719,5.719,0,0,1-1.333-3.955Zm1.816.215a4.52,4.52,0,0,0,.815,2.822,2.61,2.61,0,0,0,2.183,1.064,2.594,2.594,0,0,0,2.188-1.079,4.943,4.943,0,0,0,.811-3.022,4.513,4.513,0,0,0-.825-2.817,2.623,2.623,0,0,0-2.192-1.079,2.594,2.594,0,0,0-2.158,1.064A4.906,4.906,0,0,0,161.16-5.166ZM179.9.2a4.617,4.617,0,0,1-3.5-1.411A5.237,5.237,0,0,1,175.06-4.99v-.332a6.341,6.341,0,0,1,.6-2.808,4.685,4.685,0,0,1,1.68-1.934,4.223,4.223,0,0,1,2.339-.7,3.957,3.957,0,0,1,3.2,1.357,5.877,5.877,0,0,1,1.143,3.887v.752h-7.158a3.756,3.756,0,0,0,.913,2.524A2.87,2.87,0,0,0,180-1.279a3.147,3.147,0,0,0,1.621-.391,4.073,4.073,0,0,0,1.162-1.035l1.1.859A4.437,4.437,0,0,1,179.9.2Zm-.225-9.473a2.41,2.41,0,0,0-1.836.8,3.868,3.868,0,0,0-.918,2.231h5.293v-.137a3.441,3.441,0,0,0-.742-2.134A2.269,2.269,0,0,0,179.679-9.277Zm7.815-1.289.059,1.328a3.851,3.851,0,0,1,3.164-1.523q3.35,0,3.379,3.779V0h-1.807V-6.992a2.433,2.433,0,0,0-.522-1.689,2.094,2.094,0,0,0-1.6-.547,2.607,2.607,0,0,0-1.543.469,3.183,3.183,0,0,0-1.035,1.23V0h-1.807V-10.566ZM207.635,0a3.8,3.8,0,0,1-.254-1.113A4.031,4.031,0,0,1,204.373.2a3.73,3.73,0,0,1-2.563-.884,2.859,2.859,0,0,1-1-2.241,2.987,2.987,0,0,1,1.255-2.563,5.916,5.916,0,0,1,3.53-.913h1.758v-.83a2.029,2.029,0,0,0-.566-1.509,2.276,2.276,0,0,0-1.67-.562,2.634,2.634,0,0,0-1.621.488,1.439,1.439,0,0,0-.654,1.182h-1.816a2.493,2.493,0,0,1,.562-1.528,3.832,3.832,0,0,1,1.523-1.167,5.125,5.125,0,0,1,2.114-.43,4.177,4.177,0,0,1,2.861.913,3.294,3.294,0,0,1,1.074,2.515v4.863a5.946,5.946,0,0,0,.371,2.314V0Zm-3-1.377a3.175,3.175,0,0,0,1.611-.439,2.658,2.658,0,0,0,1.1-1.143V-5.127h-1.416q-3.32,0-3.32,1.943a1.645,1.645,0,0,0,.566,1.328A2.177,2.177,0,0,0,204.637-1.377Zm11.262.1a2.6,2.6,0,0,0,1.689-.586,2.061,2.061,0,0,0,.8-1.465H220.1a3.276,3.276,0,0,1-.625,1.729,4.116,4.116,0,0,1-1.538,1.309A4.438,4.438,0,0,1,215.9.2a4.353,4.353,0,0,1-3.433-1.44,5.737,5.737,0,0,1-1.274-3.94v-.3a6.361,6.361,0,0,1,.566-2.744,4.314,4.314,0,0,1,1.626-1.865,4.619,4.619,0,0,1,2.5-.664A4.238,4.238,0,0,1,218.843-9.7,3.8,3.8,0,0,1,220.1-6.934h-1.709a2.49,2.49,0,0,0-.776-1.685,2.415,2.415,0,0,0-1.724-.659,2.529,2.529,0,0,0-2.134.991A4.655,4.655,0,0,0,213-5.42v.342a4.562,4.562,0,0,0,.752,2.813A2.541,2.541,0,0,0,215.9-1.279Zm8.352-11.846v2.559h1.973v1.4H224.25v6.553a1.464,1.464,0,0,0,.264.952,1.11,1.11,0,0,0,.9.317,4.374,4.374,0,0,0,.859-.117V0a5.238,5.238,0,0,1-1.387.2,2.25,2.25,0,0,1-1.826-.732,3.147,3.147,0,0,1-.615-2.08V-9.17H220.52v-1.4h1.924v-2.559ZM229.965,0h-1.807V-10.566h1.807Zm-1.953-13.369a1.078,1.078,0,0,1,.269-.742,1.008,1.008,0,0,1,.8-.3,1.024,1.024,0,0,1,.8.3,1.067,1.067,0,0,1,.273.742,1.032,1.032,0,0,1-.273.732,1.043,1.043,0,0,1-.8.293,1.026,1.026,0,0,1-.8-.293A1.043,1.043,0,0,1,228.012-13.369Zm8,10.918,2.617-8.115h1.846L236.686,0h-1.377l-3.828-10.566h1.846ZM243.846,0h-1.807V-10.566h1.807Zm-1.953-13.369a1.078,1.078,0,0,1,.269-.742,1.008,1.008,0,0,1,.8-.3,1.024,1.024,0,0,1,.8.3,1.067,1.067,0,0,1,.273.742,1.032,1.032,0,0,1-.273.732,1.043,1.043,0,0,1-.8.293,1.026,1.026,0,0,1-.8-.293A1.043,1.043,0,0,1,241.893-13.369Zm4.074,8a6.19,6.19,0,0,1,1.152-3.911,3.644,3.644,0,0,1,3.018-1.479,3.665,3.665,0,0,1,2.939,1.27V-15h1.807V0h-1.66l-.088-1.133A3.679,3.679,0,0,1,250.117.2a3.609,3.609,0,0,1-2.993-1.5,6.26,6.26,0,0,1-1.157-3.926Zm1.807.205a4.687,4.687,0,0,0,.742,2.813,2.4,2.4,0,0,0,2.051,1.016,2.636,2.636,0,0,0,2.51-1.543V-7.734a2.656,2.656,0,0,0-2.49-1.494,2.411,2.411,0,0,0-2.07,1.025A5.16,5.16,0,0,0,247.774-5.166ZM263.879,0a3.8,3.8,0,0,1-.254-1.113A4.031,4.031,0,0,1,260.618.2a3.73,3.73,0,0,1-2.563-.884,2.859,2.859,0,0,1-1-2.241,2.987,2.987,0,0,1,1.255-2.563,5.916,5.916,0,0,1,3.53-.913H263.6v-.83a2.029,2.029,0,0,0-.566-1.509,2.276,2.276,0,0,0-1.67-.562,2.634,2.634,0,0,0-1.621.488,1.439,1.439,0,0,0-.654,1.182h-1.816a2.493,2.493,0,0,1,.562-1.528,3.833,3.833,0,0,1,1.523-1.167,5.125,5.125,0,0,1,2.114-.43,4.177,4.177,0,0,1,2.861.913A3.294,3.294,0,0,1,265.4-7.334v4.863a5.946,5.946,0,0,0,.371,2.314V0Zm-3-1.377a3.175,3.175,0,0,0,1.611-.439,2.658,2.658,0,0,0,1.1-1.143V-5.127H262.18q-3.32,0-3.32,1.943a1.645,1.645,0,0,0,.566,1.328A2.177,2.177,0,0,0,260.881-1.377Zm6.584-3.994a6.19,6.19,0,0,1,1.152-3.911,3.644,3.644,0,0,1,3.018-1.479,3.665,3.665,0,0,1,2.939,1.27V-15h1.807V0h-1.66l-.088-1.133A3.679,3.679,0,0,1,271.616.2a3.609,3.609,0,0,1-2.993-1.5,6.26,6.26,0,0,1-1.157-3.926Zm1.807.205a4.687,4.687,0,0,0,.742,2.813,2.4,2.4,0,0,0,2.051,1.016,2.636,2.636,0,0,0,2.51-1.543V-7.734a2.656,2.656,0,0,0-2.49-1.494,2.411,2.411,0,0,0-2.07,1.025A5.16,5.16,0,0,0,269.272-5.166ZM283.239.2a4.617,4.617,0,0,1-3.5-1.411A5.237,5.237,0,0,1,278.4-4.99v-.332A6.341,6.341,0,0,1,279-8.13a4.685,4.685,0,0,1,1.68-1.934,4.223,4.223,0,0,1,2.339-.7,3.957,3.957,0,0,1,3.2,1.357,5.877,5.877,0,0,1,1.143,3.887v.752H280.2a3.756,3.756,0,0,0,.913,2.524,2.87,2.87,0,0,0,2.222.962,3.147,3.147,0,0,0,1.621-.391,4.073,4.073,0,0,0,1.162-1.035l1.1.859A4.437,4.437,0,0,1,283.239.2Zm-.225-9.473a2.41,2.41,0,0,0-1.836.8,3.869,3.869,0,0,0-.918,2.231h5.293v-.137a3.441,3.441,0,0,0-.742-2.134A2.269,2.269,0,0,0,283.014-9.277ZM295.272-2.8a1.33,1.33,0,0,0-.552-1.138,5.311,5.311,0,0,0-1.924-.7,9.1,9.1,0,0,1-2.178-.7,3.1,3.1,0,0,1-1.191-.977,2.336,2.336,0,0,1-.386-1.348,2.741,2.741,0,0,1,1.1-2.2,4.291,4.291,0,0,1,2.808-.9,4.415,4.415,0,0,1,2.915.928,2.947,2.947,0,0,1,1.118,2.373h-1.816a1.631,1.631,0,0,0-.63-1.279,2.36,2.36,0,0,0-1.587-.537,2.47,2.47,0,0,0-1.543.43,1.353,1.353,0,0,0-.557,1.123,1.1,1.1,0,0,0,.518.986,6.368,6.368,0,0,0,1.87.635,9.744,9.744,0,0,1,2.192.723,3.2,3.2,0,0,1,1.245,1.011,2.485,2.485,0,0,1,.405,1.44,2.7,2.7,0,0,1-1.133,2.271A4.752,4.752,0,0,1,293.006.2a5.321,5.321,0,0,1-2.246-.449,3.653,3.653,0,0,1-1.528-1.255,3.025,3.025,0,0,1-.552-1.743h1.807a1.87,1.87,0,0,0,.728,1.44,2.822,2.822,0,0,0,1.792.532,2.914,2.914,0,0,0,1.646-.415A1.275,1.275,0,0,0,295.272-2.8Zm8.012-2.568a6.19,6.19,0,0,1,1.152-3.911,3.644,3.644,0,0,1,3.018-1.479,3.665,3.665,0,0,1,2.939,1.27V-15H312.2V0h-1.66l-.088-1.133A3.679,3.679,0,0,1,307.434.2a3.609,3.609,0,0,1-2.993-1.5,6.26,6.26,0,0,1-1.157-3.926Zm1.807.205a4.687,4.687,0,0,0,.742,2.813,2.4,2.4,0,0,0,2.051,1.016,2.636,2.636,0,0,0,2.51-1.543V-7.734a2.656,2.656,0,0,0-2.49-1.494,2.411,2.411,0,0,0-2.07,1.025A5.16,5.16,0,0,0,305.091-5.166ZM319.057.2a4.617,4.617,0,0,1-3.5-1.411,5.237,5.237,0,0,1-1.348-3.774v-.332a6.341,6.341,0,0,1,.6-2.808,4.685,4.685,0,0,1,1.68-1.934,4.223,4.223,0,0,1,2.339-.7,3.957,3.957,0,0,1,3.2,1.357,5.877,5.877,0,0,1,1.143,3.887v.752H316.02a3.756,3.756,0,0,0,.913,2.524,2.87,2.87,0,0,0,2.222.962,3.147,3.147,0,0,0,1.621-.391,4.073,4.073,0,0,0,1.162-1.035l1.1.859A4.437,4.437,0,0,1,319.057.2Zm-.225-9.473a2.41,2.41,0,0,0-1.836.8,3.869,3.869,0,0,0-.918,2.231h5.293v-.137a3.441,3.441,0,0,0-.742-2.134A2.269,2.269,0,0,0,318.833-9.277ZM331.522,0h-1.807V-10.566h1.807Zm-1.953-13.369a1.078,1.078,0,0,1,.269-.742,1.008,1.008,0,0,1,.8-.3,1.024,1.024,0,0,1,.8.3,1.067,1.067,0,0,1,.273.742,1.032,1.032,0,0,1-.273.732,1.043,1.043,0,0,1-.8.293,1.026,1.026,0,0,1-.8-.293A1.043,1.043,0,0,1,329.569-13.369Zm6.223,2.8.059,1.328a3.85,3.85,0,0,1,3.164-1.523q3.35,0,3.379,3.779V0h-1.807V-6.992a2.432,2.432,0,0,0-.522-1.689,2.094,2.094,0,0,0-1.6-.547,2.607,2.607,0,0,0-1.543.469,3.183,3.183,0,0,0-1.035,1.23V0h-1.807V-10.566Zm12.482,8.115,2.617-8.115h1.846L348.948,0h-1.377l-3.828-10.566h1.846ZM358.531.2a4.617,4.617,0,0,1-3.5-1.411,5.237,5.237,0,0,1-1.348-3.774v-.332a6.341,6.341,0,0,1,.6-2.808,4.685,4.685,0,0,1,1.68-1.934,4.223,4.223,0,0,1,2.339-.7,3.957,3.957,0,0,1,3.2,1.357,5.877,5.877,0,0,1,1.143,3.887v.752h-7.158a3.756,3.756,0,0,0,.913,2.524,2.87,2.87,0,0,0,2.222.962,3.147,3.147,0,0,0,1.621-.391,4.073,4.073,0,0,0,1.162-1.035l1.1.859A4.437,4.437,0,0,1,358.531.2Zm-.225-9.473a2.41,2.41,0,0,0-1.836.8,3.869,3.869,0,0,0-.918,2.231h5.293v-.137a3.441,3.441,0,0,0-.742-2.134A2.269,2.269,0,0,0,358.306-9.277Zm11.213.332a5.414,5.414,0,0,0-.889-.068A2.381,2.381,0,0,0,366.218-7.5V0h-1.807V-10.566h1.758l.029,1.221a2.813,2.813,0,0,1,2.52-1.416,1.846,1.846,0,0,1,.8.137ZM377-2.8a1.33,1.33,0,0,0-.552-1.138,5.311,5.311,0,0,0-1.924-.7,9.1,9.1,0,0,1-2.178-.7,3.1,3.1,0,0,1-1.191-.977,2.336,2.336,0,0,1-.386-1.348,2.741,2.741,0,0,1,1.1-2.2,4.291,4.291,0,0,1,2.808-.9,4.415,4.415,0,0,1,2.915.928,2.947,2.947,0,0,1,1.118,2.373h-1.816a1.631,1.631,0,0,0-.63-1.279,2.36,2.36,0,0,0-1.587-.537,2.47,2.47,0,0,0-1.543.43,1.353,1.353,0,0,0-.557,1.123,1.1,1.1,0,0,0,.518.986,6.368,6.368,0,0,0,1.87.635,9.744,9.744,0,0,1,2.192.723A3.2,3.2,0,0,1,378.4-4.37a2.485,2.485,0,0,1,.405,1.44,2.7,2.7,0,0,1-1.133,2.271A4.752,4.752,0,0,1,374.736.2a5.321,5.321,0,0,1-2.246-.449,3.653,3.653,0,0,1-1.528-1.255,3.025,3.025,0,0,1-.552-1.743h1.807a1.87,1.87,0,0,0,.728,1.44,2.822,2.822,0,0,0,1.792.532,2.914,2.914,0,0,0,1.646-.415A1.275,1.275,0,0,0,377-2.8ZM382.794,0h-1.807V-10.566h1.807Zm-1.953-13.369a1.078,1.078,0,0,1,.269-.742,1.008,1.008,0,0,1,.8-.3,1.024,1.024,0,0,1,.8.3,1.067,1.067,0,0,1,.273.742,1.032,1.032,0,0,1-.273.732,1.043,1.043,0,0,1-.8.293,1.026,1.026,0,0,1-.8-.293A1.043,1.043,0,0,1,380.841-13.369Zm4.035,7.988a6.241,6.241,0,0,1,.61-2.793,4.553,4.553,0,0,1,1.7-1.914,4.626,4.626,0,0,1,2.485-.674,4.456,4.456,0,0,1,3.491,1.494A5.748,5.748,0,0,1,394.5-5.293v.127A6.3,6.3,0,0,1,393.9-2.4a4.486,4.486,0,0,1-1.689,1.909A4.679,4.679,0,0,1,389.691.2,4.445,4.445,0,0,1,386.21-1.3a5.719,5.719,0,0,1-1.333-3.955Zm1.816.215a4.52,4.52,0,0,0,.815,2.822,2.61,2.61,0,0,0,2.183,1.064,2.594,2.594,0,0,0,2.188-1.079,4.943,4.943,0,0,0,.811-3.022,4.512,4.512,0,0,0-.825-2.817,2.623,2.623,0,0,0-2.192-1.079,2.594,2.594,0,0,0-2.158,1.064A4.906,4.906,0,0,0,386.693-5.166Zm3.8-9.834h2.188l-2.617,2.871h-1.455Zm7.649,4.434.059,1.328a3.85,3.85,0,0,1,3.164-1.523q3.35,0,3.379,3.779V0h-1.807V-6.992a2.432,2.432,0,0,0-.522-1.689,2.094,2.094,0,0,0-1.6-.547,2.607,2.607,0,0,0-1.543.469,3.183,3.183,0,0,0-1.035,1.23V0h-1.807V-10.566Z" transform="translate(1059 -3211)"/></g></svg>