<svg xmlns="http://www.w3.org/2000/svg" width="269.244" height="233.368" viewBox="0 0 269.244 233.368"><defs><style>.a,.b,.f,.h,.l{fill:none;}.a,.b,.c,.d,.f,.h,.i,.j,.k,.m,.n,.p,.q{stroke:#1a2e35;}.a,.b,.c,.d{stroke-linecap:round;stroke-linejoin:round;}.b{stroke-width:1.001px;}.c,.j,.o{fill:#fff;}.d,.g,.i{fill:#344154;}.e{fill:#d9a171;}.f,.h,.i,.j,.k,.l,.m,.n,.p,.q{stroke-miterlimit:10;}.h{stroke-dasharray:2.95 2.95;}.k{fill:#636363;}.l{stroke:#a3a3a3;}.m{fill:#ffbf9d;}.n{fill:#5e5e5e;}.p{fill:#aed3f2;}.q{fill:#6595bf;}.r{fill:#12263f;font-size:6px;font-family:Roboto-Regular, Roboto;}</style></defs><g transform="translate(-1642.807 10009.124)"><rect class="a" width="50.97" height="67.306" transform="translate(1724.662 -9999.113)"/><rect class="a" width="39.096" height="51.623" transform="translate(1730.602 -9991.272)"/><rect class="a" width="50.97" height="67.306" transform="translate(1648.208 -9964.48)"/><rect class="a" width="39.096" height="51.623" transform="translate(1654.148 -9956.639)"/><circle class="a" cx="29.432" cy="29.432" r="29.432" transform="matrix(0.995, -0.1, 0.1, 0.995, 1816.567, -10002.71)"/><circle class="b" cx="24.419" cy="24.419" r="24.419" transform="translate(1821.477 -9997.409) rotate(-8.616)"/><path class="a" d="M338.56,152.84h15.559v22.446" transform="translate(1494.674 -10129.193)"/><path class="c" d="M321.1,367.32l10.325,16.63a3.182,3.182,0,0,1-2.705,4.862H307.636a3.182,3.182,0,0,0,2.712-4.849l-10-16.271Z" transform="translate(1507.916 -10203.521)"/><path class="d" d="M321.1,367.32l-20.754.372,3.849,6.254h21.022Z" transform="translate(1507.916 -10203.521)"/><rect class="c" width="88.19" height="74.481" rx="2.91" transform="translate(1860.15 -9832.495) rotate(180)"/><rect class="c" width="88.19" height="74.481" rx="2.91" transform="translate(1856.811 -9832.495) rotate(180)"/><path class="d" d="M242.626,259H324.89a2.967,2.967,0,0,1,2.967,2.967v58.158H239.64V261.967A2.96,2.96,0,0,1,242.626,259Z" transform="translate(1528.954 -10165.982)"/><rect class="c" width="80.78" height="54.1" transform="translate(1853.106 -9849.916) rotate(180)"/><rect class="e" width="74.559" height="4.613" transform="translate(1775.684 -9889.496)"/><path class="f" d="M250.86,324.363V297.65h73.834v27.687" transform="translate(1525.066 -10179.377)"/><line class="f" x2="73.35" transform="translate(1776.168 -9872.742)"/><line class="f" y2="27.883" transform="translate(1829.359 -9881.923)"/><rect class="c" width="2.568" height="0.856" transform="translate(1733.602 -9818.433)"/><rect class="c" width="2.568" height="0.856" transform="translate(1737.019 -9818.433)"/><rect class="c" width="2.568" height="0.856" transform="translate(1740.443 -9818.433)"/><rect class="c" width="2.568" height="0.856" transform="translate(1743.861 -9818.433)"/><rect class="c" width="2.568" height="0.856" transform="translate(1747.285 -9818.433)"/><rect class="c" width="2.568" height="0.856" transform="translate(1750.703 -9818.433)"/><rect class="c" width="2.568" height="0.856" transform="translate(1754.127 -9818.433)"/><rect class="c" width="2.568" height="0.856" transform="translate(1757.544 -9818.433)"/><rect class="c" width="2.568" height="0.856" transform="translate(1760.969 -9818.433)"/><rect class="c" width="2.568" height="0.856" transform="translate(1764.386 -9818.433)"/><rect class="c" width="2.568" height="0.856" transform="translate(1767.81 -9818.433)"/><rect class="c" width="2.568" height="0.856" transform="translate(1771.228 -9818.433)"/><rect class="c" width="2.568" height="0.856" transform="translate(1774.652 -9818.433)"/><rect class="c" width="2.568" height="0.856" transform="translate(1778.069 -9818.433)"/><rect class="c" width="2.568" height="0.856" transform="translate(1781.494 -9818.433)"/><rect class="c" width="2.568" height="0.856" transform="translate(1784.911 -9818.433)"/><rect class="c" width="2.568" height="0.856" transform="translate(1788.335 -9818.433)"/><rect class="c" width="2.568" height="0.856" transform="translate(1791.753 -9818.433)"/><rect class="c" width="2.568" height="0.856" transform="translate(1795.177 -9818.433)"/><rect class="c" width="2.568" height="0.856" transform="translate(1798.594 -9818.433)"/><rect class="c" width="2.568" height="0.856" transform="translate(1802.019 -9818.433)"/><rect class="c" width="74.174" height="2.764" transform="translate(1732.275 -9817.453)"/><rect class="d" width="18.094" height="2.764" transform="translate(1788.355 -9817.453)"/><path class="g" d="M401.219,299.57v-9.56h-6.861v9.56H389.79l8,13.853,8-13.853Z" transform="translate(1476.921 -10176.729)"/><line class="f" y1="0.98" transform="translate(1825.295 -9912.204)"/><path class="h" d="M326.41,241.978v-6.894a4.574,4.574,0,0,1,4.574-4.574H371.5a4.574,4.574,0,0,1,4.574,4.574V264.81" transform="translate(1498.885 -10156.109)"/><line class="f" y2="0.98" transform="translate(1874.957 -9890.313)"/><path class="i" d="M363.994,334.51h41.494a4.084,4.084,0,0,1,4.084,4.084V371.6H359.91V338.594a4.084,4.084,0,0,1,4.084-4.084Z" transform="translate(1487.276 -10192.15)"/><rect class="j" width="44.435" height="41.664" transform="translate(1849.799 -9862.215)"/><path class="i" d="M325.27,358.1h77.9a2.5,2.5,0,0,1,2.5,2.5V385.33H325.29V358.1Z" transform="translate(1499.28 -10200.325)"/><path class="k" d="M308.652,358.1h77.271a1.562,1.562,0,0,1,1.562,1.562V385.33H307.11V359.662a1.562,1.562,0,0,1,1.562-1.562Z" transform="translate(1505.573 -10200.325)"/><path class="k" d="M317.66,358.1h66.568v17.826a5.509,5.509,0,0,1-5.509,5.509H323.175a5.509,5.509,0,0,1-5.509-5.509V358.1Z" transform="translate(1501.917 -10200.325)"/><rect class="i" width="41.926" height="27.23" transform="translate(1831.901 -9842.226)"/><path class="j" d="M330.964,379.78s1.431,6.776-1.784,9.279-19.27,1.96-19.27,1.96h52.459s6.424,1.607,6.071-9.991Z" transform="translate(1504.603 -10207.838)"/><path class="e" d="M373.558,394.886H339.97l1.83-1.026h33.078Z" transform="translate(1494.186 -10212.718)"/><path class="l" d="M346.14,383.43c0,4.136-.98,5.665-.98,5.665h32.366s1.418-.876,1.745-5.561" transform="translate(1492.387 -10209.104)"/><line class="l" x2="32.804" transform="translate(1838.089 -9821.968)"/><line class="l" x2="32.915" transform="translate(1838.416 -9824.04)"/><path class="l" d="M378.85,388.984s1.634-1.523,1.523-5.554" transform="translate(1480.712 -10209.104)"/><rect class="k" width="41.926" height="15.624" transform="translate(1831.901 -9842.226)"/><rect class="i" width="45.722" height="1.79" transform="translate(1828.098 -9816.786)"/><path class="i" d="M334.2,358.1h44.958v2.163a4.319,4.319,0,0,1-4.319,4.319H338.519a4.319,4.319,0,0,1-4.319-4.319Z" transform="translate(1496.185 -10200.325)"/><path class="j" d="M424.65,364.795a1.4,1.4,0,1,1-1.4-1.4A1.4,1.4,0,0,1,424.65,364.795Z" transform="translate(1465.814 -10202.158)"/><path class="j" d="M424.65,374.392a1.4,1.4,0,1,1-1.4-1.392A1.4,1.4,0,0,1,424.65,374.392Z" transform="translate(1465.814 -10205.488)"/><path class="i" d="M423.433,395.123h-.849a1.17,1.17,0,0,1-1.163-1.17h0a1.163,1.163,0,0,1,1.163-1.163h.849a1.163,1.163,0,0,1,1.163,1.163h0A1.17,1.17,0,0,1,423.433,395.123Z" transform="translate(1465.96 -10212.347)"/><path class="c" d="M360.787,439.7V411.27H348.26V439.8" transform="translate(1491.313 -10218.751)"/><rect class="d" width="6.267" height="28.785" transform="translate(1845.839 -9807.481)"/><path class="c" d="M446.647,439.7V411.27H434.12V439.8" transform="translate(1461.559 -10218.751)"/><rect class="d" width="6.267" height="28.785" transform="translate(1901.945 -9807.481)"/><rect class="j" width="255.501" height="9.919" transform="translate(1656.05 -9812.35)"/><rect class="i" width="61.477" height="9.919" transform="translate(1850.067 -9812.35)"/><rect class="j" width="255.501" height="3.483" transform="translate(1656.05 -9815.055)"/><rect class="i" width="55.903" height="3.483" transform="translate(1855.648 -9815.055)"/><path class="m" d="M166.262,184.009a28.443,28.443,0,0,1,.157,5.581c-.307,1.549-2.019,2.483-1.862,3.568s4.032,6.665,2.169,8.495a9.149,9.149,0,0,1-3.411,2.326l-1.242,2.79s-7.443,4.809-10.383,6.044-.314,7.136-.314,7.136l-7.6-1.706-1.856,8.841a38.555,38.555,0,0,0-13.494-8.064c-7.757-2.477-10.7-2.176-10.7-2.176a48.674,48.674,0,0,0,2.79-9.58c1.085-5.737,1.706-18.454,1.706-19.382s4.96-15.2,9.305-17.99,22.015.314,31.32,2.614,5.273,8.992,5.273,8.992Z" transform="translate(1571.201 -10134.721)"/><path class="i" d="M189.09,199.023a1.794,1.794,0,0,0-2.483-1.085c-2.013.621-2.483,1.706-1.706,1.706s2.614-.928,3.1,0S188.934,200.107,189.09,199.023Z" transform="translate(1548.047 -10144.775)"/><path class="f" d="M186.488,208.21l-.934.47a2.688,2.688,0,0,1,.778,3.1c-.621,2.169-1.242,4.032-1.242,4.032" transform="translate(1547.858 -10148.382)"/><path class="i" d="M158.712,174.588s1.4,5.881.778,7.136-5.273,2.941-5.737,4.646-1.4,10.86-1.085,12.566,1.085,4.653,1.862,4.653,6.535-4.345,8.678-4.5,1.242,3.725.157,4.966-3.267,1.549-3.1,2.947,2.941,6.2-.157,10.383-6.672,3.267-10.39.314a9.954,9.954,0,0,1-3.267-10.7,61.979,61.979,0,0,0,2.941-13.337c.15-3.254-.614-7.443-2.941-6.535s-.47,10.083-2.176,12.1-8.528,7.757-10.39,7.757-11.939-4.5-12.246-4.966.928-21.244-.314-29.458,1.706-14.115,11.168-16.9,26.668,2.326,26.668,2.326-1.706-2.79,2.019-4.032,12.559,2.169,13.18,7.75-2.614,5.737-2.169,7.6,6.358,5.43,3.267,8.377-8.044,1.1-8.044,1.1l-.621-4.809S163.495,169.935,158.712,174.588Z" transform="translate(1570.048 -10129.488)"/><path class="n" d="M170.079,203.224l-14.729-.464s-3.1.771-3.411,2.477-.653,5.737.307,5.881.928-.915.928-2.32,0-3.568,1.242-4.339a9.1,9.1,0,0,1,3.411-.934l12.559,1.242,11.762.928v-2.013Z" transform="translate(1559.458 -10146.493)"/><path class="m" d="M160.354,209.193s.464-4.96-2.013-6.358-4.189,2.483-4.345,5.881,2.176,7.6,5.117,6.822" transform="translate(1558.636 -10146.418)"/><path class="f" d="M196.817,207.26s.307,3.568-1.085,5.273a7.188,7.188,0,0,1-1.862,1.555" transform="translate(1544.816 -10148.053)"/><path class="j" d="M236.081,249.385l-6.24,21.819-4.679,12.468L220.1,297.107s-14.023-.19-20.257-1.359-17.441-5.156-17.441-5.156a112.982,112.982,0,0,0,12.742-28.425c2.646-9.253,4.7-16.676,4.7-16.676Z" transform="translate(1548.79 -10161.301)"/><path class="l" d="M213.284,266.75s-4.666,16.742-6.574,20.14l22.681,3.391s4.241-7.423,7.417-20.355Z" transform="translate(1540.366 -10168.669)"/><line class="l" x2="23.531" y2="3.176" transform="translate(1752.375 -9898.103)"/><line class="l" x2="22.603" y2="2.999" transform="translate(1751.317 -9892.594)"/><line class="l" x2="22.681" y2="3.182" transform="translate(1749.455 -9886.993)"/><path class="l" d="M230.62,292.85l-4.45,12.193,7.208,1.49,2.548-8.482" transform="translate(1533.622 -10177.713)"/><line class="l" x2="9.325" y2="1.699" transform="translate(1738.385 -9880.512)"/><line class="l" x2="9.331" y2="1.692" transform="translate(1737.745 -9879.237)"/><line class="l" x2="9.331" y2="1.699" transform="translate(1737.111 -9877.97)"/><path class="e" d="M209.12,247.82l-2.81,9.743,32.8,3.934,3.189-9.743Z" transform="translate(1540.505 -10162.108)"/><path class="o" d="M252.764,257.138a2.457,2.457,0,1,1-2.437-2.15A2.307,2.307,0,0,1,252.764,257.138Z" transform="translate(1526.103 -10164.591)"/><path class="m" d="M216.521,330.337s5.848-13.827,6.43-19.284.974-10.521,2.339-12.076,4.476-8.959,5.064-11.109,1.96-4.287,3.5-2.731.974,5.26.392,6.626-1.366,3.5-1.366,3.5l4.091-4.476,2.535-6.038a2.584,2.584,0,0,1,2.529,1.96c.386,1.96,2.731,4.868,2.143,6.62a4.679,4.679,0,0,1-2.339,2.535s.98,4.868.784,6.62a9.919,9.919,0,0,1-3.509,5.881c-1.96,1.555-7.4,6.619-7.4,6.619s2.731,20.649,0,30.778-7.593,13.246-11.109,13.827S210.28,352.4,210.28,352.4,217.494,348.647,216.521,330.337Z" transform="translate(1539.129 -10174.856)"/><line class="f" x1="3.11" y2="3.117" transform="translate(1777.86 -9878.995)"/><line class="f" y1="2.535" x2="3.117" transform="translate(1776.103 -9886.595)"/><path class="p" d="M109.441,236.213s5.443-1.307,13.723,2.183a38,38,0,0,1,15.461,11.54,34.065,34.065,0,0,1,4.359,7.842s-31.582-12.194-35.071-12.194H100.07S104.213,236.644,109.441,236.213Z" transform="translate(1577.321 -10158.003)"/><path class="j" d="M205.875,440.556c-25.269-22.218-64.692-22.218-64.692-22.218L135.3,412.68H65.33v28.2" transform="translate(1589.36 -10219.239)"/><path class="f" d="M173.99,423.34s-3.267,14.16-9.58,20.257" transform="translate(1555.025 -10222.934)"/><path class="f" d="M169.95,421.68A31.967,31.967,0,0,1,158.41,435.4" transform="translate(1557.104 -10222.358)"/><path class="q" d="M85.583,246.519s4.79-1.091,14.154.869,23.093,10.018,29.19,12.631,10.893,2.836,11.978,6.757,13.069,40.946,18.3,45.088c7.711,6.11,15.03,16.827,6.535,25.707-5.005,5.228-11.762,5.665-14.807,4.574s-10.455-8.711-10.455-11.109v-3.052L126.1,311.434s3.045,25.923,4.352,29.406,4.8,8.495,4.8,10.671-5.012,6.535-10.893,10.24-11.762,6.972-25.269,7.626-29.621-1.529-33.1-6.1-7.841-10.017-8.279-17.643-1.96-37.678-1.96-37.678.869-24.4,1.523-32.457,2.4-13.285,6.535-15.029S82.747,246.519,85.583,246.519Z" transform="translate(1592.684 -10161.553)"/><path class="f" d="M111.76,323.54a27.047,27.047,0,0,0,1.96,2.705" transform="translate(1573.27 -10188.349)"/><path class="f" d="M96.74,277s2.339,16.336,8.194,27.589" transform="translate(1578.475 -10172.221)"/><path class="f" d="M99.07,308.34s4.8,15.467,12.2,23.524" transform="translate(1577.668 -10183.081)"/><line class="f" x2="10.893" y2="13.069" transform="translate(1707.888 -9863.194)"/><line class="f" x2="1.699" y2="2.032" transform="translate(1704.621 -9867.115)"/><line class="f" x2="10.233" y2="7.404" transform="translate(1705.059 -9861.234)"/><path class="f" d="M159.426,285s-10.24,9.8-10.017,21.126" transform="translate(1560.225 -10174.993)"/><path class="j" d="M204.138,346.68s3.705,7.188-1.738,12.416-16.99,3.7-16.99,3.7v3.045c0,2.4,7.4,10.017,10.455,11.109s9.8.653,14.807-4.574C219.187,363.5,211.849,352.77,204.138,346.68Z" transform="translate(1547.747 -10196.368)"/><line class="f" x1="11.762" y1="11.109" transform="translate(1711.371 -9831.829)"/><line class="f" x2="11.547" y2="8.279" transform="translate(1704.837 -9838.147)"/><path class="f" d="M116.75,382.18a21.778,21.778,0,0,0,2.614,1.634" transform="translate(1571.541 -10208.67)"/><path class="f" d="M78.07,353s13.115,10.233,21.453,16.336" transform="translate(1584.945 -10198.558)"/><path class="f" d="M82.07,363s9.586,6.972,11.109,7.841" transform="translate(1583.559 -10202.023)"/><path class="i" d="M61.954,370.51h51.623a6.044,6.044,0,0,1,6.044,6.044v44.108a4.411,4.411,0,0,1-4.411,4.411H60.321a4.411,4.411,0,0,1-4.411-4.411V376.554A6.044,6.044,0,0,1,61.954,370.51Z" transform="translate(1592.625 -10204.626)"/><path class="k" d="M53.954,370.51h51.623a6.044,6.044,0,0,1,6.044,6.044v44.108a4.411,4.411,0,0,1-4.411,4.411H52.321a4.411,4.411,0,0,1-4.411-4.411V376.554a6.044,6.044,0,0,1,6.044-6.044Z" transform="translate(1595.397 -10204.626)"/><path class="g" d="M64.331,436.317V393.96a1.96,1.96,0,1,0-3.921,0v42.351Z" transform="translate(1591.065 -10212.073)"/><path class="g" d="M118.831,436.317V393.96a1.96,1.96,0,1,0-3.921,0v42.351Z" transform="translate(1572.179 -10212.073)"/><text class="r" transform="translate(1797 -9894)"><tspan x="0" y="0">Estados financieros</tspan></text></g></svg>