<svg xmlns="http://www.w3.org/2000/svg" width="271.595" height="274.699" viewBox="0 0 271.595 274.699"><defs><style>.a{fill:#e0e0e0;}.b{fill:#f5f5f5;}.c{fill:#d9a171;}.d{opacity:0.8;}.e{fill:#fff;}.f{opacity:0.3;}.g{fill:#ffbe9d;}.h{fill:#eb996e;}.i{opacity:0.6;}.j{fill:#344154;}.k{fill:#455a64;}.l{fill:#fafafa;}</style></defs><g transform="translate(-66.32 -66.15)"><g transform="translate(66.32 66.15)"><path class="a" d="M74.782,276.786a54.209,54.209,0,0,1-.17-6.1,54.237,54.237,0,0,1,.17-6.107,54.246,54.246,0,0,1,.17,6.107,54.219,54.219,0,0,1-.17,6.1Z" transform="translate(-68.476 -117.877)"/><path class="a" d="M78.933,272.732a57.953,57.953,0,0,1-6.306.17,57.891,57.891,0,0,1-6.306-.17,57.891,57.891,0,0,1,6.306-.17,57.937,57.937,0,0,1,6.306.17Z" transform="translate(-66.32 -119.952)"/><path class="a" d="M403.992,361.626a109.589,109.589,0,0,1,0-12.206,109.628,109.628,0,0,1,0,12.206Z" transform="translate(-154.295 -139.994)"/><path class="a" d="M408.15,357.6a112.275,112.275,0,0,1-12.62,0,117.164,117.164,0,0,1,12.62,0Z" transform="translate(-152.139 -142.077)"/><path class="a" d="M353.932,78.356a54.172,54.172,0,0,1-.17-6.1,54.281,54.281,0,0,1,.17-6.107,54.281,54.281,0,0,1,.17,6.107,54.143,54.143,0,0,1-.17,6.1Z" transform="translate(-141.246 -66.15)"/><path class="a" d="M358.07,74.342a117.158,117.158,0,0,1-12.62,0,117.179,117.179,0,0,1,12.62,0Z" transform="translate(-139.084 -68.236)"/><circle class="a" cx="3.726" cy="3.726" r="3.726" transform="translate(9.604 97.849)"/><path class="a" d="M282.977,417.047a3.734,3.734,0,1,1-3.741-3.7h0a3.7,3.7,0,0,1,3.734,3.7Z" transform="translate(-120.852 -156.659)"/><path class="a" d="M329.943,321.7a3.7,3.7,0,1,1-1.1-2.632,3.7,3.7,0,0,1,1.1,2.632Z" transform="translate(-133.115 -131.803)"/><path class="a" d="M180.073,70.557a3.7,3.7,0,1,1-3.7-3.7A3.7,3.7,0,0,1,180.073,70.557Z" transform="translate(-94.046 -66.335)"/><circle class="a" cx="1.87" cy="1.87" r="1.87" transform="translate(99.963 222.963)"/><path class="a" d="M144.411,357.016a1.87,1.87,0,1,1-1.878-1.856h0a1.856,1.856,0,0,1,1.87,1.848Z" transform="translate(-85.702 -141.49)"/><path class="a" d="M206.581,76.34a1.863,1.863,0,1,1-.543-1.322,1.87,1.87,0,0,1,.543,1.322Z" transform="translate(-101.908 -68.319)"/><path class="a" d="M317.681,212.713a1.87,1.87,0,1,1-1.87-1.863,1.87,1.87,0,0,1,1.87,1.863Z" transform="translate(-130.87 -103.871)"/><path class="a" d="M126.081,142.551c-4.362-6.321-11.925-17.692-18.483-27.429S95.17,96.587,90.816,90.222l-5.175-7.5c-.606-.88-1.072-1.567-1.4-2.033-.148-.237-.274-.414-.362-.54a1.6,1.6,0,0,1-.111-.192l.133.177.377.525L85.7,82.681c1.235,1.752,3.009,4.31,5.175,7.474,4.377,6.321,10.35,15.1,16.879,24.848s14.091,21.115,18.424,27.466" transform="translate(-70.869 -69.75)"/><path class="a" d="M90.2,109.3a2.291,2.291,0,0,1,.5.074c.311.059.739.163,1.309.3,1.124.259,2.669.658,4.355,1.153l4.34,1.249,1.309.377a1.745,1.745,0,0,1,.481.155,2.218,2.218,0,0,1-.5-.081c-.318-.059-.739-.163-1.316-.3-1.116-.288-2.654-.739-4.355-1.2L92,109.818l-1.309-.362A2.683,2.683,0,0,1,90.2,109.3Z" transform="translate(-72.545 -77.398)"/><path class="a" d="M107.429,108.05c-.052,0,.658-3.231,1.575-7.208s1.73-7.157,1.782-7.142-.658,3.238-1.575,7.208S107.488,108.058,107.429,108.05Z" transform="translate(-77.036 -73.332)"/><path class="a" d="M120.1,129.845a2.047,2.047,0,0,1,.229-.458l.658-1.22c.577-1.028,1.368-2.447,2.218-4.044s1.479-3.076,1.967-4.14l.584-1.272a2.019,2.019,0,0,1,.237-.451,2.3,2.3,0,0,1-.163.481c-.111.318-.288.739-.518,1.309-.458,1.087-1.131,2.58-1.967,4.185s-1.634,3.016-2.218,4.029c-.311.5-.569.9-.739,1.176A2.737,2.737,0,0,1,120.1,129.845Z" transform="translate(-80.34 -79.734)"/><path class="a" d="M103.78,133.844a2.505,2.505,0,0,1,.473-.044l1.309-.052c1.094,0,2.625-.059,4.258-.074s3.164,0,4.251,0h1.316a1.641,1.641,0,0,1,.466,0,2.483,2.483,0,0,1-.466.044l-1.316.052c-1.094,0-2.617.067-4.258.081s-3.164,0-4.251,0h-1.309A2.026,2.026,0,0,1,103.78,133.844Z" transform="translate(-76.085 -83.748)"/><path class="a" d="M112.64,153.588a3.3,3.3,0,0,1,.606-.052l1.649-.074c1.4-.052,3.32-.1,5.449-.148s4.059-.074,5.456-.089h1.656a4.144,4.144,0,0,1,.606,0,2.412,2.412,0,0,1-.606.059l-1.649.067c-1.4.052-3.327.1-5.456.155s-4.051.074-5.456.081h-1.649a2.773,2.773,0,0,1-.606,0Z" transform="translate(-78.395 -88.846)"/><path class="a" d="M133,147.9a3.5,3.5,0,0,1,.274-.584l.813-1.575c.688-1.309,1.626-3.164,2.625-5.242s1.819-3.933,2.418-5.308l.739-1.627a4.7,4.7,0,0,1,.281-.584,4.347,4.347,0,0,1-.2.621c-.155.392-.37.954-.658,1.649-.562,1.383-1.383,3.275-2.373,5.345s-1.967,3.9-2.654,5.175c-.37.651-.658,1.176-.88,1.538A4,4,0,0,1,133,147.9Z" transform="translate(-83.702 -83.571)"/><path class="b" d="M378.516,219.9c-7.393-6.439-8.081-17-6.757-26.268.214-1.553.222-3.209,1.109-4.5s2.713-2.033,4.029-1.227c1.094.658,1.479,2.07,1.967,3.275a9.167,9.167,0,0,0,3.275,3.874,3.562,3.562,0,0,0,3.164.658c1.427-.591,1.782-2.425,1.937-3.978q.444-4.325.88-8.65a14.483,14.483,0,0,1,.961-4.539,4.806,4.806,0,0,1,3.357-2.913,2.925,2.925,0,0,1,3.393,2.336,14.163,14.163,0,0,1-.17,1.93,1.626,1.626,0,0,0,.791,1.627,1.848,1.848,0,0,0,1.774-.525,20.48,20.48,0,0,0,4.288-5.175,28.492,28.492,0,0,1,4.066-5.367,8.406,8.406,0,0,1,6.011-2.573,5.046,5.046,0,0,1,4.761,3.933c.325,2.2-1.19,4.318-2.758,5.915a34.585,34.585,0,0,1-7.925,6.07,2.958,2.958,0,0,0-1.338,1.168c-.451,1,.414,2.122,1.4,2.573a18.458,18.458,0,0,0,3.564.8,3.507,3.507,0,0,1,2.772,2.129c.466,1.649-1.035,3.164-2.455,4.1a29.765,29.765,0,0,1-9.293,4.111,9.877,9.877,0,0,0-3.416,1.235,2.851,2.851,0,0,0-1.272,3.172,2.926,2.926,0,0,0,3.039,1.56,21.093,21.093,0,0,0,3.534-.932c2.218-.577,4.931-.126,6.1,1.848a4.939,4.939,0,0,1,.052,4.384,11.392,11.392,0,0,1-2.75,3.571,29.92,29.92,0,0,1-13.655,7.548c-5.116,1.183-9.729,1.146-14.417-1.168" transform="translate(-145.801 -92.672)"/><path class="a" d="M385.2,214.862a137.272,137.272,0,0,1,7.12-14.321l2.055-3.66c.658-1.2,1.353-2.381,2.077-3.512a70.73,70.73,0,0,1,4.584-6.21c1.553-1.9,3.083-3.652,4.532-5.279s2.839-3.113,4.155-4.436a56.186,56.186,0,0,1,6.654-5.685c.835-.6,1.479-1.05,1.967-1.346l.517-.34.2-.074a.739.739,0,0,1-.17.133l-.5.362c-.444.311-1.1.776-1.922,1.4a58.572,58.572,0,0,0-6.595,5.737c-1.309,1.309-2.669,2.8-4.111,4.436s-2.957,3.386-4.5,5.294a69.941,69.941,0,0,0-4.532,6.2c-.739,1.116-1.383,2.3-2.063,3.5l-2.055,3.652a145.135,145.135,0,0,0-7.112,14.284" transform="translate(-149.447 -93.222)"/><path class="a" d="M400.358,195.544a3.26,3.26,0,0,1-.081-.651c0-.444-.067-1.072-.089-1.856-.052-1.56-.052-3.7-.044-6.1s0-4.539-.1-6.1c0-.784-.067-1.412-.1-1.841a3.261,3.261,0,0,1,0-.658,2.876,2.876,0,0,1,.126.658c.067.429.133,1.057.192,1.841.126,1.56.192,3.7.177,6.107s0,4.48-.037,6.107v1.841A3.172,3.172,0,0,1,400.358,195.544Z" transform="translate(-153.286 -95.396)"/><path class="a" d="M420.761,199.405a3.607,3.607,0,0,1-.8,0h-2.218c-1.841,0-4.384.1-7.208.318s-5.338.54-7.157.821c-.909.133-1.641.259-2.151.347a4.221,4.221,0,0,1-.8.1,4.027,4.027,0,0,1,.739-.214c.5-.118,1.235-.281,2.151-.444,1.811-.333,4.347-.651,7.157-.9a71.069,71.069,0,0,1,7.208-.229c.924,0,1.671.067,2.218.111a4.279,4.279,0,0,1,.858.089Z" transform="translate(-153.417 -100.832)"/><path class="a" d="M383.015,220.948a.843.843,0,0,1-.111-.251c-.067-.207-.163-.451-.266-.739-.222-.658-.525-1.619-.88-2.809-.739-2.381-1.6-5.7-2.521-9.375s-1.774-7-2.432-9.389c-.325-1.161-.591-2.122-.8-2.832-.081-.311-.148-.569-.207-.739a1.127,1.127,0,0,1-.059-.274.879.879,0,0,1,.111.259l.266.739c.229.658.525,1.619.88,2.809.739,2.381,1.59,5.7,2.514,9.375s1.782,6.994,2.44,9.4c.325,1.153.6,2.114.791,2.824l.222.739a.893.893,0,0,1,.052.266Z" transform="translate(-146.981 -99.619)"/><path class="a" d="M412.9,222.556a1.669,1.669,0,0,1-.274.081l-.791.17-2.957.614c-2.469.518-5.915,1.272-9.611,2.107s-7.179,1.56-9.656,2.026c-1.249.229-2.218.414-2.957.518l-.806.126a.6.6,0,0,1-.281,0l.274-.074.791-.17,2.957-.621c2.469-.518,5.915-1.272,9.611-2.107s7.171-1.56,9.655-2.026c1.249-.237,2.218-.414,2.957-.518l.806-.126A.894.894,0,0,1,412.9,222.556Z" transform="translate(-149.543 -106.919)"/><g transform="translate(40.101 23.544)"><path class="c" d="M190.8,99.37c-24.287,1.76-50.813,4.983-70.235,12.45l6.144,41.557s37.705-13.493,68.357-12.568Z" transform="translate(-120.56 -98.354)"/><g class="d" transform="translate(0 1.016)"><path class="e" d="M190.8,99.37c-24.287,1.76-50.813,4.983-70.235,12.45l6.144,41.557s37.705-13.493,68.357-12.568Z" transform="translate(-120.56 -99.37)"/></g><path class="c" d="M191.141,140.521l-.237.044-.688.1-2.625.325c-1.153.14-2.558.311-4.192.547s-3.49.473-5.537.813a322.4,322.4,0,0,0-31.731,6.55c-4.258,1.1-8.362,2.218-12.117,3.416l-.192.052v-.192c-1.309-9.53-2.58-17.744-3.556-23.584-.5-2.9-.9-5.242-1.176-6.824-.133-.776-.244-1.39-.318-1.819a2.217,2.217,0,0,0-.074-.473.6.6,0,0,1,0-.163.614.614,0,0,1,.044.155,2.74,2.74,0,0,0,.1.466l.377,1.811c.318,1.582.739,3.9,1.264,6.8,1.035,5.818,2.344,14.047,3.7,23.592l-.214-.133c3.763-1.19,7.859-2.336,12.14-3.43a309.635,309.635,0,0,1,31.791-6.439c2.048-.318,3.933-.532,5.552-.739s3.046-.37,4.2-.488l2.662-.266.688-.059A.74.74,0,0,1,191.141,140.521Z" transform="translate(-122.68 -103.552)"/><path class="c" d="M192.879,131.856l-.281-.835a8.916,8.916,0,0,0-1.257-2.144,10.957,10.957,0,0,0-2.957-2.588c-.318-.207-.688-.362-1.05-.554a9.5,9.5,0,0,0-1.19-.429,6.557,6.557,0,0,0-2.706-.259,5.678,5.678,0,0,0-2.75,1.079,9.286,9.286,0,0,0-2.218,2.4,34.559,34.559,0,0,0-3.09,6.587,8.2,8.2,0,0,1-2.284,3.275,4.258,4.258,0,0,1-1.893.909,3.837,3.837,0,0,1-2.137-.244c-2.765-1.094-4-4.288-6.794-5.242a5.463,5.463,0,0,0-4.148.34,5.219,5.219,0,0,0-1.649,1.272,8.931,8.931,0,0,0-1.094,1.752,11.3,11.3,0,0,1-2.144,3.571,3.186,3.186,0,0,1-1.885.85,3.756,3.756,0,0,1-1.967-.421,7.075,7.075,0,0,1-2.713-2.669,22.655,22.655,0,0,1-1.434-3.275,15.569,15.569,0,0,0-1.427-2.957,5.914,5.914,0,0,0-2.166-2.011,5.634,5.634,0,0,0-4.976-.148,8.539,8.539,0,0,0-3.172,2.277,6.232,6.232,0,0,0-1.183,2.174c-.17.54-.192.85-.214.843a3.784,3.784,0,0,1,.148-.865,6,6,0,0,1,1.146-2.218,8.495,8.495,0,0,1,3.194-2.373,5.826,5.826,0,0,1,5.175.111,6.188,6.188,0,0,1,2.284,2.085,15.63,15.63,0,0,1,1.479,3,24.5,24.5,0,0,0,1.434,3.216,6.779,6.779,0,0,0,2.625,2.543,3.453,3.453,0,0,0,1.8.384,2.957,2.957,0,0,0,1.7-.739,11.249,11.249,0,0,0,2.063-3.475,8.872,8.872,0,0,1,1.139-1.833,5.693,5.693,0,0,1,1.752-1.353,5.811,5.811,0,0,1,4.436-.362,9.168,9.168,0,0,1,3.549,2.676,9.892,9.892,0,0,0,3.275,2.617,3.453,3.453,0,0,0,1.915.163,3.874,3.874,0,0,0,1.745-.835,7.889,7.889,0,0,0,2.218-3.142,37.609,37.609,0,0,1,3.142-6.654A9.264,9.264,0,0,1,180.6,125.9a5.959,5.959,0,0,1,2.876-1.109,6.839,6.839,0,0,1,2.787.3,8.877,8.877,0,0,1,1.212.458,11.3,11.3,0,0,1,4.022,3.275,8.532,8.532,0,0,1,1.212,2.218,6.613,6.613,0,0,1,.17.658A.58.58,0,0,1,192.879,131.856Z" transform="translate(-123.568 -104.971)"/><path class="c" d="M126.719,126.975c0,.089-.3.229-.739.3s-.739.067-.739,0,.3-.229.739-.3S126.682,126.864,126.719,126.975Z" transform="translate(-121.78 -105.532)"/><path class="c" d="M128.273,137.2c.044.1-.192.281-.532.436s-.651.214-.651.126.2-.274.532-.429S128.236,137.133,128.273,137.2Z" transform="translate(-122.262 -108.207)"/><path class="c" d="M130.085,148.441c0,.089-.214.251-.554.37s-.651.14-.651.052.214-.251.547-.37S130.048,148.352,130.085,148.441Z" transform="translate(-122.729 -111.132)"/><path class="c" d="M132.2,159.462c0,.1-.259.266-.658.377s-.695.14-.739.052.244-.259.614-.377S132.159,159.381,132.2,159.462Z" transform="translate(-123.228 -114.005)"/><path class="c" d="M194.64,105.957a3.7,3.7,0,0,1,.8-.185l2.255-.34c1.967-.274,4.724-.651,8.036-1.042h.155v.163c.259,2.787.554,6,.872,9.4v.311h-.163l-10.861,1.309h-.148v-.14c-.3-2.854-.554-5.242-.739-6.942-.081-.8-.14-1.434-.192-1.915a6.545,6.545,0,0,1,0-.658c.052.229.089.458.118.695.074.481.155,1.131.266,1.967.214,1.686.51,4.037.872,6.853l-.163-.133L206.6,113.92l-.148.185v-.14c-.3-3.408-.584-6.654-.835-9.411l.17.133Z" transform="translate(-139.871 -99.662)"/><path class="c" d="M205.37,108.712c0,.1-1.863.1-4.148.347s-4.111.651-4.133.525a20.146,20.146,0,0,1,8.28-.872Z" transform="translate(-140.51 -100.761)"/><path class="c" d="M205.718,111.978c0,.1-1.745.163-3.874.377a38.768,38.768,0,0,1-3.874.37,22.6,22.6,0,0,1,7.748-.739Z" transform="translate(-140.739 -101.625)"/><path class="c" d="M203.366,114.9a7.319,7.319,0,0,1-2.218.458,7.911,7.911,0,0,1-2.218.118,7.275,7.275,0,0,1,2.218-.458,7.962,7.962,0,0,1,2.218-.118Z" transform="translate(-140.99 -102.394)"/><path class="c" d="M349.311,111.262c-23.784-7.245-43.849-13.433-70.76-13.263l-4.111,42.341c27.983,2.477,37.343,4.31,63.175,13.663Z" transform="translate(-160.674 -97.995)"/><g class="d" transform="translate(113.766)"><path class="e" d="M349.311,111.262c-23.784-7.245-43.849-13.433-70.76-13.263l-4.111,42.341c27.983,2.477,37.343,4.31,63.175,13.663Z" transform="translate(-274.44 -97.995)"/></g><path class="c" d="M299.071,122.564l1.05-8.983a10.52,10.52,0,0,0-7.327,2.033,11.016,11.016,0,0,0-4.51,8.872,12.89,12.89,0,0,0,0,1.309h0l10.484-1.175Z" transform="translate(-164.279 -102.045)"/><path class="c" d="M314.044,121.194a10.173,10.173,0,0,0-7.474-7.1l-.318-.067-.2-.044-.614-.1h-.052l-1.035,8.946-.251,2.114,9.907,3.615h0a11.223,11.223,0,0,0,.51-2.3,12.258,12.258,0,0,0-.473-5.072Z" transform="translate(-168.406 -102.139)"/><g class="f" transform="translate(135.694 11.751)"><path d="M314.044,121.194a10.173,10.173,0,0,0-7.474-7.1l-.318-.067-.2-.044-.614-.1h-.052l-1.035,8.946-.251,2.114,9.907,3.615h0a11.223,11.223,0,0,0,.51-2.3,12.258,12.258,0,0,0-.473-5.072Z" transform="translate(-304.1 -113.89)"/></g><path class="c" d="M299.393,130.21l-10.483,1.183a10.412,10.412,0,0,0,20.413,2.44l-9.907-3.615" transform="translate(-164.446 -106.393)"/><path class="c" d="M354.722,124.37a5.915,5.915,0,0,1-.924-.37c-.584-.266-1.434-.658-2.5-1.079a75.536,75.536,0,0,0-8.436-2.957A78.54,78.54,0,0,0,334.124,118c-1.131-.185-2.055-.311-2.691-.4a4.983,4.983,0,0,1-.983-.17,5.692,5.692,0,0,1,1.005.044c.658.044,1.567.14,2.706.288a63.382,63.382,0,0,1,17.241,4.916c1.042.473,1.885.88,2.455,1.183A6.374,6.374,0,0,1,354.722,124.37Z" transform="translate(-175.275 -103.06)"/><path class="c" d="M353.752,130.334a6.73,6.73,0,0,1-.924-.377c-.584-.266-1.442-.658-2.5-1.079a74.581,74.581,0,0,0-17.182-4.9c-1.124-.177-2.048-.311-2.684-.4a6.358,6.358,0,0,1-.983-.17,4.585,4.585,0,0,1,1.005.044,23.763,23.763,0,0,1,2.706.288,62.925,62.925,0,0,1,17.233,4.916c1.05.473,1.885.88,2.462,1.183A5.027,5.027,0,0,1,353.752,130.334Z" transform="translate(-175.022 -104.617)"/><path class="c" d="M352.774,136.328a5.273,5.273,0,0,1-.924-.377c-.584-.259-1.434-.651-2.5-1.079a77.141,77.141,0,0,0-8.436-2.957,78.539,78.539,0,0,0-8.739-1.967c-1.131-.177-2.048-.311-2.691-.4a4.82,4.82,0,0,1-.976-.17,6.437,6.437,0,0,1,1,.037c.658.052,1.567.148,2.706.3a63.583,63.583,0,0,1,8.79,1.848,62.382,62.382,0,0,1,8.45,3.076c1.05.473,1.885.88,2.454,1.176a5.471,5.471,0,0,1,.865.518Z" transform="translate(-174.769 -106.175)"/><path class="c" d="M351.075,142.315a6.316,6.316,0,0,1-.895-.37c-.569-.274-1.39-.658-2.41-1.079a70.562,70.562,0,0,0-16.672-4.9c-1.1-.185-1.967-.318-2.617-.407a4.671,4.671,0,0,1-.961-.17,5.4,5.4,0,0,1,.976.044c.621.037,1.523.133,2.625.3a59.262,59.262,0,0,1,8.546,1.848,60.2,60.2,0,0,1,8.169,3.09c1.013.473,1.826.88,2.373,1.175a5.5,5.5,0,0,1,.865.473Z" transform="translate(-174.511 -107.742)"/><path class="c" d="M347.69,147.39a4.718,4.718,0,0,1-.806-.325l-2.166-.961a52.927,52.927,0,0,0-14.949-4.281l-2.351-.325a5.473,5.473,0,0,1-.858-.148,3.387,3.387,0,0,1,.865,0c.569,0,1.375.1,2.366.214a45.712,45.712,0,0,1,15.023,4.281c.917.436,1.634.806,2.129,1.072a4.043,4.043,0,0,1,.747.473Z" transform="translate(-174.261 -109.29)"/><path class="c" d="M336.768,149.443a10.27,10.27,0,0,1-1.693-.347c-1.035-.237-2.469-.554-4.066-.821s-3.061-.481-4.118-.658a10.35,10.35,0,0,1-1.7-.3,7.954,7.954,0,0,1,1.73.052c1.065.1,2.536.251,4.148.532a38.1,38.1,0,0,1,4.066.932,7.482,7.482,0,0,1,1.634.606Z" transform="translate(-173.904 -110.847)"/><path class="c" d="M284.179,104.732h.554l1.634-.052c1.442,0,3.541,0,6.21.14a99.328,99.328,0,0,1,21.817,3.933h.118v.126c-1.634,9.389-3.586,20.546-5.671,32.486-.089.481-.17.968-.259,1.442v.177l-.185-.044a141.315,141.315,0,0,0-14.564-3c-4.695-.739-9.168-1.235-13.352-1.479h-.163V138.3c1.146-10.018,2.114-18.4,2.787-24.309.34-2.957.614-5.242.8-6.809.089-.776.17-1.375.214-1.789a2.919,2.919,0,0,1,.059-.458c0-.118,0-.155,0-.148a.6.6,0,0,1,0,.163,2,2,0,0,1-.044.473c-.037.429-.1,1.035-.185,1.826-.163,1.6-.414,3.926-.739,6.853-.658,5.915-1.545,14.247-2.625,24.242l-.14-.17c4.185.251,8.68.739,13.382,1.479a142.528,142.528,0,0,1,14.631,2.965l-.214.133c.089-.466.17-.954.259-1.442,2.1-11.933,4.066-23.089,5.715-32.471l.1.17a101.647,101.647,0,0,0-21.743-4.022c-2.662-.177-4.769-.222-6.181-.214h-2.218Z" transform="translate(-162.207 -99.738)"/></g><g transform="translate(56.152 6.104)"><path class="c" d="M250.11,218.323l23.192,5.138,3.549-5.138-.569-6.609-3.527-3.223H260.608L249.26,218.707" transform="translate(-170.162 -109.36)"/><g class="f" transform="translate(79.098 99.13)"><path d="M250.11,218.323l23.192,5.138,3.549-5.138-.569-6.609-3.527-3.223H260.608L249.26,218.707" transform="translate(-249.26 -208.49)"/></g><path class="g" d="M296.057,154.342l29.284-3.933,4.584-1.309s10.557-2.321,11.541-2.676c1.139-.407,1.612.044,1.73.473.185.651-.458,1.419-1.427,1.8-.325.126-5.678,1.959-5.678,1.959a14.045,14.045,0,0,1,1.811.525c1.272.436,2.5,2.085,3.112,4.014s.628,2.514-.118,2.787a1.02,1.02,0,0,1-.85-.118,2.033,2.033,0,0,1-.88-1.1c-1.028-3.068-2.957-3.312-2.957-3.312l-.606.17s1.967,1.383,1.967,3.061a1.944,1.944,0,0,1-.155.739,2.543,2.543,0,0,1-2.824,3.342c-.421-.081-.88-.333-.939-.739a1.264,1.264,0,0,1,.14-.658,1.676,1.676,0,0,1,.1-.347l-1.76.244s-3.978.325-5.685.651l-27.414,8.258a7.1,7.1,0,0,1-8.872-4.732.551.551,0,0,1,0-.1h0a7.1,7.1,0,0,1,4.894-8.761,7.949,7.949,0,0,1,1-.237Z" transform="translate(-180.755 -93.139)"/><path class="g" d="M338.77,152.31a1.479,1.479,0,0,0,1.264,1.168c.6.126,1.227.044,1.841.126,1.819.244,3.238,1.907,5.072,2.063.251,0,.584,0,.651-.274s-.118-.444-.3-.6l-4.591-4.044" transform="translate(-193.495 -94.308)"/><path class="h" d="M342.717,150.75a3.462,3.462,0,0,1,.54.392c.325.266.806.651,1.383,1.146l2.018,1.737.577.51c.177.17.481.325.532.739a.51.51,0,0,1-.311.481,1.035,1.035,0,0,1-.5.081,3.646,3.646,0,0,1-.88-.177,24.132,24.132,0,0,1-2.957-1.479,4.266,4.266,0,0,0-1.309-.436c-.429-.067-.843-.052-1.227-.081a2.151,2.151,0,0,1-1.671-.739.806.806,0,0,1-.2-.658,1.663,1.663,0,0,0,1.878,1.116c.421,0,.843,0,1.257.037a4.909,4.909,0,0,1,1.4.429,25.871,25.871,0,0,0,2.9,1.479,3.651,3.651,0,0,0,.791.155c.251,0,.473-.074.444-.2a1.272,1.272,0,0,0-.407-.518l-.577-.51-1.967-1.789-1.309-1.235C342.857,150.935,342.694,150.772,342.717,150.75Z" transform="translate(-193.479 -94.308)"/><path class="h" d="M351.71,156.077a2.344,2.344,0,0,1,1.153,0,1.885,1.885,0,0,1,1.005.651,5,5,0,0,1,.739,1.375,7.488,7.488,0,0,0,.651,1.479,2.506,2.506,0,0,0,.961.924.961.961,0,0,0,.895,0,.6.6,0,0,0,.259-.2s-.111.052-.288.126a1,1,0,0,1-.8-.081,2.6,2.6,0,0,1-.85-.895,8.13,8.13,0,0,1-.658-1.434,4.688,4.688,0,0,0-.739-1.412,2.1,2.1,0,0,0-1.124-.739,1.834,1.834,0,0,0-.895,0,2.129,2.129,0,0,0-.31.207Z" transform="translate(-196.869 -95.629)"/><path class="h" d="M358.071,149.35a6.024,6.024,0,0,0-1.065.362l-2.543.939-2.543.895a5.476,5.476,0,0,0-1.05.4,5.072,5.072,0,0,0,1.1-.251c.658-.185,1.59-.473,2.58-.835s1.893-.739,2.528-1A5.019,5.019,0,0,0,358.071,149.35Z" transform="translate(-196.65 -93.943)"/><path class="h" d="M350.141,158.37s.081.111.229.274a1.027,1.027,0,0,1,.333.806.555.555,0,0,1-.348.429,2.959,2.959,0,0,1-.739.2,1.279,1.279,0,0,0-.791.414,1.1,1.1,0,0,0-.126.969,1.22,1.22,0,0,0,.651.7,1.478,1.478,0,0,0,.88.133,4.894,4.894,0,0,0,1.353-.5,2.957,2.957,0,0,0,.791-.584.74.74,0,0,0,.177-.311,1.987,1.987,0,0,1-.244.244,3.186,3.186,0,0,1-.791.5,5.227,5.227,0,0,1-1.316.451,1.205,1.205,0,0,1-1.309-.7.88.88,0,0,1,.089-.739,1.087,1.087,0,0,1,.665-.34,2.958,2.958,0,0,0,.739-.237.739.739,0,0,0,.421-.577,1.124,1.124,0,0,0-.429-.887A1.648,1.648,0,0,0,350.141,158.37Z" transform="translate(-196.068 -96.295)"/><path class="h" d="M349.6,162.836a.5.5,0,0,0-.288.14.954.954,0,0,0-.325.806,1.286,1.286,0,0,0,.747,1.042,2.092,2.092,0,0,0,1.582,0,2.484,2.484,0,0,0,1.264-.961,2.424,2.424,0,0,0,.429-1.22,2.291,2.291,0,0,0-.1-.865.74.74,0,0,0-.133-.288,4.52,4.52,0,0,1,.074,1.139,2.425,2.425,0,0,1-1.6,1.959,1.907,1.907,0,0,1-1.427,0,1.116,1.116,0,0,1-.739-.865.917.917,0,0,1,.229-.739C349.506,162.895,349.617,162.858,349.6,162.836Z" transform="translate(-196.158 -97.108)"/><path class="h" d="M342.662,158.845a1.064,1.064,0,0,0-.185-.51,2.144,2.144,0,0,0-1.072-.872v.192a5.18,5.18,0,0,0,.658-.362A4.85,4.85,0,0,0,343.9,155.4a12.353,12.353,0,0,1-1.967,1.7c-.222.14-.436.259-.651.37l-.229.118.237.074a2.262,2.262,0,0,1,1.028.739C342.558,158.668,342.632,158.853,342.662,158.845Z" transform="translate(-194.09 -95.52)"/><path class="h" d="M355.413,155.82a1.043,1.043,0,0,0-.414.872c-.037.547.222.924.274.887s-.081-.4-.044-.872S355.472,155.857,355.413,155.82Z" transform="translate(-197.725 -95.63)"/><path class="g" d="M163.348,165.931s-4.273-6.927-5.013-7.511-7.526-3.068-8.132-2.883-8.783,1.575-7.859,2.551,6.654-.081,6.654-.081l.739.384s-4.946.791-5.988,1.39-.651,1.723.281,1.634,5.175-.924,5.456-.739-4.672,1.161-5.175,1.479c-.739.429-.784,1.693.118,1.634.532,0,5.175-1.242,5.175-1.242a42.071,42.071,0,0,0-4.022,1.745.673.673,0,0,0,.658,1.153c.547-.118,3.15-1.36,3.881-1.523,0,0,.658.185,1.309,1.575.288.658,1.612,4.687,4.029,4.636a7.579,7.579,0,0,1,4.251,1.715Z" transform="translate(-142.272 -95.553)"/><path class="h" d="M142.43,158.867a3.644,3.644,0,0,0,1.479.414,8.632,8.632,0,0,0,1.693.074c.651-.074,1.309-.17,2.026-.274l1.538-.222h-.1a21.153,21.153,0,0,0,3.541,1.109,22.8,22.8,0,0,0-3.416-1.479h-.089l-1.523.207-2.011.3a12.157,12.157,0,0,1-1.641,0C143.021,158.963,142.445,158.823,142.43,158.867Z" transform="translate(-142.313 -96.326)"/><path class="g" d="M163.079,166.918a1.634,1.634,0,0,1-1.9,0,19.968,19.968,0,0,1-1.6-1.309c-1.663-1.176-4.066-.895-5.678-2.151-.222-.17-.444-.458-.325-.739s.436-.259.7-.259l6.757.163" transform="translate(-145.211 -97.361)"/><path class="h" d="M160.973,162.622a2.959,2.959,0,0,0-.739-.089c-.473,0-1.153-.074-1.967-.1l-2.957-.118h-.858a1.3,1.3,0,0,0-.991.207.584.584,0,0,0-.111.658,1.146,1.146,0,0,0,.34.436,4.534,4.534,0,0,0,.843.518,26.417,26.417,0,0,0,3.512,1.005,5.375,5.375,0,0,1,1.383.651,13.394,13.394,0,0,1,1.05.865,2.388,2.388,0,0,0,1.9.658.917.917,0,0,0,.658-.37,2.1,2.1,0,0,1-.658.222,2.351,2.351,0,0,1-1.7-.739c-.311-.266-.658-.606-1.05-.917a5.263,5.263,0,0,0-1.479-.739,29.484,29.484,0,0,1-3.438-1.005,3.873,3.873,0,0,1-.739-.466c-.222-.177-.325-.421-.207-.51a1.368,1.368,0,0,1,.739-.1h5.774a2.618,2.618,0,0,0,.695-.059Z" transform="translate(-145.145 -97.316)"/><path class="c" d="M213.4,377.18l-1.56,17.174L206.668,407.6a1.774,1.774,0,0,0,1.013,2.292l.111.037h0a1.767,1.767,0,0,0,1.6-.274c2.9-2.218,13.537-10.4,13.581-11.666.052-1.479,2.854-18.039,2.854-18.039Z" transform="translate(-159.028 -153.335)"/><g class="i" transform="translate(48.786 243.496)"><path class="e" d="M208.26,416.861l15.333-13.1-.081.739a2.647,2.647,0,0,1-.828,1.641c-1.227,1.153-4.709,4.273-12.753,10.483a1.767,1.767,0,0,1-1.649.274Z" transform="translate(-208.26 -403.76)"/></g><g class="i" transform="translate(60.672 237.451)"><path class="e" d="M224.871,395.7a1.072,1.072,0,0,0-.444,1.36,1.02,1.02,0,0,0,1.309.451,1.131,1.131,0,0,0,.473-1.434,1.072,1.072,0,0,0-1.479-.325" transform="translate(-224.336 -395.582)"/></g><path class="j" d="M213.563,411.147c-.111.037-.392-.909-1.36-1.479a5.359,5.359,0,0,0-1.922-.606c0-.037.222-.148.651-.163a2.713,2.713,0,0,1,1.479.451,2.661,2.661,0,0,1,1.028,1.183C213.607,410.9,213.6,411.147,213.563,411.147Z" transform="translate(-160 -161.604)"/><path class="j" d="M211.616,414.339c-.081.066-.577-.554-1.434-.909a14,14,0,0,0-1.641-.407,1.952,1.952,0,0,1,1.8.059C211.3,413.481,211.719,414.3,211.616,414.339Z" transform="translate(-159.547 -162.629)"/><path class="j" d="M216.613,407.44a17.534,17.534,0,0,0-2.122-1.553,19.135,19.135,0,0,0-2.492-.9,3.933,3.933,0,0,1,2.654.555,3.881,3.881,0,0,1,1.959,1.9Z" transform="translate(-160.449 -160.572)"/><path class="j" d="M217.9,400.94c-.059.1-.961-.407-2.218-.591s-2.218,0-2.262-.111A4.436,4.436,0,0,1,217.9,400.94Z" transform="translate(-160.819 -159.262)"/><path class="j" d="M218.621,394.122a5.811,5.811,0,0,0-4.621-.37,1.62,1.62,0,0,1,.614-.407,3.653,3.653,0,0,1,1.752-.281,3.94,3.94,0,0,1,1.7.547C218.488,393.864,218.665,394.085,218.621,394.122Z" transform="translate(-160.97 -157.472)"/><path class="j" d="M216.537,391.177a1.523,1.523,0,0,1,.052-.658,4.635,4.635,0,0,1,.739-1.641,2.085,2.085,0,0,1,.961-.858.739.739,0,0,1,.784.251,1.146,1.146,0,0,1,.177.806,2.484,2.484,0,0,1-2.432,2.048,2.9,2.9,0,0,1-2.662-1.826,1.028,1.028,0,0,1,.044-.835.739.739,0,0,1,.739-.281,2.358,2.358,0,0,1,1.057.739,5.071,5.071,0,0,1,1.028,1.479,1.648,1.648,0,0,1,.192.621,8.184,8.184,0,0,0-1.4-1.9,2.321,2.321,0,0,0-.946-.6.384.384,0,0,0-.421.155.739.739,0,0,0,0,.547,2.573,2.573,0,0,0,2.321,1.56,2.166,2.166,0,0,0,2.1-1.708.821.821,0,0,0-.111-.562.362.362,0,0,0-.421-.148,1.774,1.774,0,0,0-.835.739A6.817,6.817,0,0,0,216.537,391.177Z" transform="translate(-160.993 -156.153)"/><path class="j" d="M230.666,346.551,243.523,244.7l-4.14-23.7-24.242,1.309-3.031,122.335a1.848,1.848,0,0,0,1.479,1.885l14.128,2.181a2.543,2.543,0,0,0,2.891-2.129.126.126,0,0,1,.059-.03Z" transform="translate(-160.477 -112.621)"/><path class="j" d="M250.482,246.307l23.4,23.163-33.661,8.184,2.4,17,45.557-6.2a14.357,14.357,0,0,0,9.7-5.826h0a14.343,14.343,0,0,0,.222-16.457l-35.487-52.1-15.9,5.116Z" transform="translate(-167.805 -110.817)"/><path class="k" d="M252.35,249.71a26.719,26.719,0,0,1,1.294,5.915,13.566,13.566,0,0,1-.813-2.905,14.048,14.048,0,0,1-.481-3.009Z" transform="translate(-170.967 -120.105)"/><path class="k" d="M244.237,288.955l.554-.185,1.641-.51,6.277-1.907,22.838-6.861-.059.214L247.4,249.823l.3-.089c-.562,4.695-1.146,9.611-1.73,14.609-2.9,24.242-5.626,46.207-7.726,62.1-1.042,7.874-1.93,14.313-2.617,18.749-.37,2.218-.651,3.933-.872,5.079-.118.569-.222,1-.281,1.309a2.85,2.85,0,0,1-.111.444,2.091,2.091,0,0,1,.074-.451c.074-.3.148-.739.251-1.309.237-1.153.458-2.876.813-5.087.651-4.436,1.479-10.846,2.528-18.786,2.048-15.873,4.732-37.831,7.622-62.1.6-5.005,1.183-9.914,1.737-14.616l.037-.355.251.259,28.013,29.965.141.155-.2.059-22.874,6.765-6.306,1.841-1.641.466A1.8,1.8,0,0,1,244.237,288.955Z" transform="translate(-166.277 -120.004)"/><path class="k" d="M237.5,354.188c-.089,0,2.58-21.618,5.966-48.277s6.218-48.248,6.306-48.24-2.573,21.625-5.988,48.3S237.6,354.2,237.5,354.188Z" transform="translate(-167.095 -122.18)"/><path class="k" d="M249,235.13a7.461,7.461,0,0,1,.532,1.575c.288.983.658,2.366.983,3.9s.584,2.957.739,3.926a7.835,7.835,0,0,1,.163,1.663,8.786,8.786,0,0,1-.4-1.619c-.244-1.124-.525-2.454-.835-3.933s-.651-2.795-.88-3.933a7.667,7.667,0,0,1-.3-1.582Z" transform="translate(-170.094 -116.305)"/><path class="k" d="M250.823,232.361a.909.909,0,0,1,.946-.111,1.131,1.131,0,0,1,.739.843,1.205,1.205,0,0,1-.532,1.242,1.176,1.176,0,0,1-1.309-.133,1,1,0,0,1-.3-1.057.976.976,0,0,1,.444-.584c.148-.089.244-.089.251-.067a1.331,1.331,0,0,0-.458.7.739.739,0,0,0,.266.739.9.9,0,0,0,.976.081.939.939,0,0,0,.392-.895.9.9,0,0,0-.5-.658A1.708,1.708,0,0,0,250.823,232.361Z" transform="translate(-170.438 -115.532)"/><path class="k" d="M292.661,292.95c-.074.074-1.39-1.139-3.275-2.218s-3.593-1.649-3.556-1.752a12.908,12.908,0,0,1,6.831,3.978Z" transform="translate(-179.695 -130.342)"/><path class="c" d="M221.933,125.543,208.5,132.027l5.8,40.411-2.277,18.135a7.075,7.075,0,0,0,2.366,6.218h0l21.692-.421,15.178-8.332,6.979-1.176-2.861-13.81,1.316-19.577,15.873,8.465a5.508,5.508,0,0,0,3.992.481l29.077-7.556-1.479-11.215L277.8,146.606l-20.065-17.744-14.942-3.357-2.647-4.436H224.832l-1.094.8a3.253,3.253,0,0,0-1.109,1.479Z" transform="translate(-159.536 -86.571)"/><path class="c" d="M196.118,135.89a16.2,16.2,0,0,0-6.048,7.866c-1.53,4.769-5,24.05-5,24.05l-15.26-9.448L161,167.6l20.309,17.943a10.35,10.35,0,0,0,11.326,1.567h0a10.35,10.35,0,0,0,5.759-7.925l2.528-18.283Z" transform="translate(-147.154 -90.434)"/><path class="g" d="M265.962,213.55l-.946-1.39-10.047,1.848-1.848,4.281Z" transform="translate(-171.168 -110.317)"/><path class="c" d="M216.46,212.526c8.975,3.615,18.564,2.284,27.1-2.218,2.588-1.368,4.976-3.068,7.571-4.436a15.894,15.894,0,0,1,8.376-2.137,8.218,8.218,0,0,1,7.023,4.488c1.168,2.676,0,6.321-2.75,7.327l.969.865a8.7,8.7,0,0,0,3.978-11.289c-1.479-3.053-4.673-4.88-6.994-7.393-3.416-3.7-3.771-10.772-3.793-16.3" transform="translate(-161.611 -102.306)"/><path class="j" d="M238.825,134.937a4.777,4.777,0,0,1-.651,0,2.543,2.543,0,0,0-1.6.739,3.778,3.778,0,0,0-.791,2.565,8.74,8.74,0,0,0,.739,3.438l.259.562-.488-.362a27.235,27.235,0,0,1-3.393-2.957,25,25,0,0,1-5.175-7.97,18.965,18.965,0,0,1-.85-2.765,7.283,7.283,0,0,1-.148-1.057,30.167,30.167,0,0,0,1.22,3.734,26.23,26.23,0,0,0,5.242,7.822,27.547,27.547,0,0,0,3.327,2.957l-.244.207a8.133,8.133,0,0,1-.554-1.841,8.586,8.586,0,0,1-.155-1.737,3.9,3.9,0,0,1,.924-2.7,2.521,2.521,0,0,1,1.73-.7A2.714,2.714,0,0,1,238.825,134.937Z" transform="translate(-164.288 -88.151)"/><path class="c" d="M244.17,133.963a3.518,3.518,0,0,1,3.541,1.124c.525.606.821,1.434,1.479,1.826s2.876.7,3.512.214c0,0,.384-1.87.591-2.617a58.515,58.515,0,0,0,1.479-8.968c-2.114-1.028-1.53-2.381-5.338-2.114a9.611,9.611,0,0,1,.14,5.36" transform="translate(-168.835 -87.177)"/><path class="j" d="M249.634,128.71c-.044,0,.133-.5.214-1.434a10.44,10.44,0,0,0-.473-3.881l-.044-.163h.155a6.528,6.528,0,0,1,2.8.251,4.369,4.369,0,0,1,1.316.939,5.175,5.175,0,0,0,1.309.9l.1.052v.111c-.17,1.6-.362,3.327-.651,5.123a32.941,32.941,0,0,1-.739,3.386c-.3,1.079-.5,2.122-.739,3.105v.1a2.055,2.055,0,0,1-1.124.266,6.211,6.211,0,0,1-1.05-.067,6.3,6.3,0,0,1-.983-.214,2.114,2.114,0,0,1-.858-.466,8.458,8.458,0,0,1-1.013-1.39,3.594,3.594,0,0,0-1.035-.939,3.7,3.7,0,0,0-1.885-.584,3.358,3.358,0,0,0-.739.1,1.479,1.479,0,0,1,.739-.207,3.608,3.608,0,0,1,1.967.525,3.7,3.7,0,0,1,1.116.969,8.722,8.722,0,0,0,1.005,1.316,3.223,3.223,0,0,0,1.7.584,6.561,6.561,0,0,0,1.005.059,1.937,1.937,0,0,0,.946-.222l-.059.1c.222-.991.429-2.055.739-3.127a28.327,28.327,0,0,0,.688-3.371c.3-1.782.5-3.512.658-5.094l.089.163a5.553,5.553,0,0,1-1.412-.961,4.066,4.066,0,0,0-1.2-.858,6.565,6.565,0,0,0-2.676-.274l.111-.163a10.187,10.187,0,0,1,.377,3.978,8.5,8.5,0,0,1-.222,1.065,1.419,1.419,0,0,1-.14.318Z" transform="translate(-168.843 -87.121)"/><path class="j" d="M271.721,194.67v-.739a4.585,4.585,0,0,0-.658-2.026,6.78,6.78,0,0,0-2.41-2.321,10.151,10.151,0,0,0-4.3-1.183c-1.664-.148-3.512-.059-5.5-.192a20.7,20.7,0,0,1-6.2-1.316,12.731,12.731,0,0,1-5.589-4.177,9.678,9.678,0,0,1-1.6-3.364,13.018,13.018,0,0,1-.37-3.815,64.785,64.785,0,0,1,1.057-7.438,56.114,56.114,0,0,0-2.144-26.364c-.274-.9-.532-1.582-.695-2.048-.074-.222-.133-.4-.185-.54a1.25,1.25,0,0,1-.052-.177,1.031,1.031,0,0,1,.089.17c.052.118.126.3.214.525.185.458.458,1.131.739,2.026a55.14,55.14,0,0,1,2.329,26.468,67.162,67.162,0,0,0-1.042,7.393,10.639,10.639,0,0,0,1.9,6.972,12.428,12.428,0,0,0,5.434,4.081,20.606,20.606,0,0,0,6.1,1.316c1.967.14,3.815.067,5.508.237a10.35,10.35,0,0,1,4.436,1.279,6.927,6.927,0,0,1,2.425,2.425,4.437,4.437,0,0,1,.6,2.085,2.453,2.453,0,0,1,0,.569A1.019,1.019,0,0,1,271.721,194.67Z" transform="translate(-168.551 -91.237)"/><path class="j" d="M259.765,198.17a5.435,5.435,0,0,1-.739.791c-.244.237-.562.532-.939.858s-.8.7-1.316,1.079a35.053,35.053,0,0,1-3.623,2.506,36.966,36.966,0,0,1-9.929,4.162,36.077,36.077,0,0,1-4.347.828c-.621.1-1.183.133-1.686.17s-.924.067-1.272.074a6.763,6.763,0,0,1-1.094,0,7.771,7.771,0,0,1,1.087-.126,10.353,10.353,0,0,0,1.264-.118c.488-.067,1.05-.1,1.671-.214a40.372,40.372,0,0,0,4.281-.895,42.094,42.094,0,0,0,5.064-1.723,40.734,40.734,0,0,0,4.783-2.4,39.981,39.981,0,0,0,3.645-2.425c.5-.362.939-.739,1.309-1.035s.739-.584.976-.813A8.762,8.762,0,0,1,259.765,198.17Z" transform="translate(-166.397 -106.67)"/><path class="j" d="M255.024,169.11a1.19,1.19,0,0,1-.052.362l-.229,1.02a14.653,14.653,0,0,1-.436,1.6c-.2.614-.384,1.309-.695,2.077-.148.384-.3.784-.458,1.2s-.37.821-.562,1.264c-.384.88-.88,1.774-1.383,2.721a37.889,37.889,0,0,1-8.961,10.691c-.858.651-1.649,1.309-2.454,1.833-.392.266-.739.547-1.146.776l-1.094.658a20.757,20.757,0,0,1-1.93,1.057,16.265,16.265,0,0,1-1.479.7l-.968.407a1.9,1.9,0,0,1-.347.111,1.73,1.73,0,0,1,.325-.177l.939-.458c.407-.192.909-.436,1.479-.739s1.22-.658,1.893-1.087l1.072-.658c.377-.237.739-.518,1.139-.784.784-.532,1.567-1.183,2.4-1.848A44.045,44.045,0,0,0,247,184.924a44.554,44.554,0,0,0,3.97-5.693c.51-.946,1.013-1.826,1.39-2.691.207-.436.414-.85.584-1.257l.473-1.176c.325-.739.532-1.479.739-2.055s.377-1.139.5-1.575l.288-1.005a1.6,1.6,0,0,1,.081-.362Z" transform="translate(-165.879 -99.094)"/><path class="j" d="M224.093,224.812a3.918,3.918,0,0,1-1.2-.887,9.064,9.064,0,0,1-2.728-6.506,4,4,0,0,1,.192-1.479,13.593,13.593,0,0,1,.044,1.479,10.284,10.284,0,0,0,2.669,6.343C223.687,224.42,224.153,224.767,224.093,224.812Z" transform="translate(-162.576 -111.302)"/><path class="j" d="M224.717,221c.1,0-.089.872,0,1.9s.407,1.833.311,1.878A3.933,3.933,0,0,1,224.71,221Z" transform="translate(-163.673 -112.621)"/><path class="j" d="M214.1,178.539a1.063,1.063,0,0,1-.081-.311c-.044-.237-.1-.532-.163-.887-.133-.828-.325-1.967-.547-3.275-.458-2.772-1.116-6.6-1.9-10.809s-1.553-8.029-2.1-10.787c-.274-1.309-.5-2.44-.651-3.275-.074-.355-.126-.658-.17-.887a.947.947,0,0,1-.044-.318,1.086,1.086,0,0,1,.1.3c.067.244.14.532.229.88.2.739.466,1.87.784,3.238.651,2.735,1.434,6.55,2.218,10.757s1.4,8.059,1.8,10.838c.2,1.4.355,2.521.444,3.275.044.362.074.658.1.9a1.183,1.183,0,0,1-.022.362Z" transform="translate(-159.52 -93.589)"/><path class="j" d="M272.8,178.1a1.556,1.556,0,0,1-.037-.318V173.43c0-2.883.163-6.876.5-11.275s.739-8.362,1.109-11.238c.177-1.39.325-2.536.436-3.393l.133-.924a2.339,2.339,0,0,1,.067-.311.8.8,0,0,1,0,.325c0,.251-.044.554-.067.924-.081.858-.192,2-.325,3.408-.281,2.869-.651,6.839-1.013,11.238s-.5,8.369-.591,11.252c0,1.4-.074,2.558-.1,3.423v.932a.948.948,0,0,1-.111.3Z" transform="translate(-176.288 -93.145)"/><path class="j" d="M199.823,188.339c-.111.044-.976-2.344-2.625-4.939a33.721,33.721,0,0,0-3.549-4.31,6.152,6.152,0,0,1,1.309,1.042,18.283,18.283,0,0,1,2.558,3.083,22.075,22.075,0,0,1,1.834,3.549A6.794,6.794,0,0,1,199.823,188.339Z" transform="translate(-155.665 -101.696)"/><path class="j" d="M200.9,185.46a11.356,11.356,0,0,1-.739-1.309,10,10,0,0,0-2.27-2.617,13.938,13.938,0,0,0-2.957-1.826,9.417,9.417,0,0,1-1.309-.658,4.828,4.828,0,0,1,1.419.421,11.3,11.3,0,0,1,3.12,1.789,8.731,8.731,0,0,1,2.262,2.795A4.154,4.154,0,0,1,200.9,185.46Z" transform="translate(-155.66 -101.685)"/><path class="l" d="M208.6,163.432a2.141,2.141,0,0,1-.14.288,2.957,2.957,0,0,1-.591.695,3.963,3.963,0,0,1-3.216.865,6.217,6.217,0,0,1-4.037-2.846,14.488,14.488,0,0,1-1.309-2.625c-.185-.473-.362-.961-.525-1.479a4.156,4.156,0,0,1-.185-1.649,2.218,2.218,0,0,1,.806-1.479,1.87,1.87,0,0,1,1.612-.288,3.179,3.179,0,0,1,2.159,2.041,3.075,3.075,0,0,1-.266,2.676,3.342,3.342,0,0,1-1.87,1.479,2.994,2.994,0,0,1-1.967-.1,3.231,3.231,0,0,1-1.212-.828,2.647,2.647,0,0,1-.51-.739c-.081-.2-.111-.3-.1-.311a4.037,4.037,0,0,0,.7.983,3.231,3.231,0,0,0,1.183.739,2.9,2.9,0,0,0,1.8.044,3.135,3.135,0,0,0,1.693-1.353,2.78,2.78,0,0,0,.222-2.425,2.869,2.869,0,0,0-1.967-1.826,1.53,1.53,0,0,0-1.309.237,1.9,1.9,0,0,0-.658,1.257,7.031,7.031,0,0,0,.658,2.957,12.925,12.925,0,0,0,1.309,2.617,6.04,6.04,0,0,0,3.815,2.795,3.911,3.911,0,0,0,3.083-.739A4.873,4.873,0,0,0,208.6,163.432Z" transform="translate(-156.602 -95.375)"/><path class="l" d="M237.946,171.233l-.177.155c-.133.111-.318.244-.547.421a15.209,15.209,0,0,1-2.255,1.419,7.009,7.009,0,0,1-1.841.614,4.849,4.849,0,0,1-2.3-.155,8.132,8.132,0,0,1-4.148-3.652,13.359,13.359,0,0,1,.118-13.921,7.209,7.209,0,0,1,3.083-2.883,3.977,3.977,0,0,1,2.218-.281,3.016,3.016,0,0,1,1.967,1.116,3.224,3.224,0,0,1,.614,2.218,5.072,5.072,0,0,1-.7,2.218,7.267,7.267,0,0,1-3.645,2.957,9.345,9.345,0,0,1-4.68.488,9.611,9.611,0,0,1-4.214-1.752,14.417,14.417,0,0,1-4.961-6.942,8.413,8.413,0,0,1-.6-3.978,3.859,3.859,0,0,1,.739-1.8,2.691,2.691,0,0,1,1.6-1.042,3.5,3.5,0,0,1,3.275,1.139,3.7,3.7,0,0,1,.791,3.135,4.961,4.961,0,0,1-1.346,2.625,6.484,6.484,0,0,1-2.218,1.479,9.988,9.988,0,0,1-4.162.651,22.1,22.1,0,0,1-2.617-.266l-.688-.111-.229-.044h.237l.688.074c.6.059,1.479.177,2.617.207a10.136,10.136,0,0,0,4.088-.658,6.114,6.114,0,0,0,2.129-1.419,4.732,4.732,0,0,0,1.264-2.536,3.5,3.5,0,0,0-.739-2.957,3.246,3.246,0,0,0-3.039-1.035,3.016,3.016,0,0,0-2.129,2.617,7.9,7.9,0,0,0,.606,3.83,14.165,14.165,0,0,0,4.843,6.78,9.419,9.419,0,0,0,4.081,1.678,8.953,8.953,0,0,0,4.5-.466,6.876,6.876,0,0,0,3.475-2.8,4.857,4.857,0,0,0,.658-2.085,2.832,2.832,0,0,0-.547-2,2.684,2.684,0,0,0-1.767-1.005,3.7,3.7,0,0,0-2.033.251,6.927,6.927,0,0,0-2.957,2.758,12.82,12.82,0,0,0-2,7.267A13.019,13.019,0,0,0,226.8,169.9a8,8,0,0,0,4.007,3.6,5.434,5.434,0,0,0,4.022-.407,15.325,15.325,0,0,0,2.27-1.353l.569-.392a1.285,1.285,0,0,1,.274-.111Z" transform="translate(-160.193 -93.166)"/><path class="l" d="M218.409,130.32a2.123,2.123,0,0,1-.207.584,9.694,9.694,0,0,1-.843,1.479,10.765,10.765,0,0,1-9.715,4.628,8.557,8.557,0,0,1-1.671-.266,1.96,1.96,0,0,1-.584-.207c0-.059.865.185,2.27.244a11.282,11.282,0,0,0,9.508-4.539C218,131.111,218.335,130.283,218.409,130.32Z" transform="translate(-158.726 -88.982)"/><path class="l" d="M235,134.063a4.214,4.214,0,0,0-3.046,2.588c-.037,0-.052-.259.081-.651a3.061,3.061,0,0,1,2.321-1.967C234.753,134,235,134,235,134.063Z" transform="translate(-165.643 -89.945)"/><path class="l" d="M253.454,137.226a1.331,1.331,0,0,1-.562-.251,4.621,4.621,0,0,1-1.227-1.139,4.436,4.436,0,0,1-.909-2.314,2.218,2.218,0,0,1,.407-1.479,1.479,1.479,0,0,1,1.479-.651,1.663,1.663,0,0,1,1.2,1.146,1.575,1.575,0,0,1-.3,1.479,2.114,2.114,0,0,1-2.373.651,2.7,2.7,0,0,1-1.309-1.072,1.36,1.36,0,0,1-.244-.562s.118.185.355.481a2.676,2.676,0,0,0,1.264.924,1.878,1.878,0,0,0,2.048-.591,1.264,1.264,0,0,0,.229-1.212,1.368,1.368,0,0,0-.946-.917,1.19,1.19,0,0,0-1.183.518,2.026,2.026,0,0,0-.355,1.249,4.474,4.474,0,0,0,.8,2.218,6.772,6.772,0,0,0,1.634,1.523Z" transform="translate(-170.253 -89.257)"/><path class="l" d="M256.661,128.251a8.524,8.524,0,0,0-2.166-1.479,8.761,8.761,0,0,0-2.625-.444,1.515,1.515,0,0,1,.791-.192,4.362,4.362,0,0,1,1.967.325,4.554,4.554,0,0,1,1.612,1.131C256.579,127.9,256.705,128.192,256.661,128.251Z" transform="translate(-170.842 -87.889)"/><path class="l" d="M273.975,137.381l-.118.074-.4.214a14.048,14.048,0,0,1-1.575.651,19.14,19.14,0,0,1-6.173,1.161,9.146,9.146,0,0,1-2.1-.2,4.547,4.547,0,0,1-2.063-1.013,3.046,3.046,0,0,1-1.013-2.218,3.8,3.8,0,0,1,.872-2.462,5.049,5.049,0,0,1,5.242-1.309,6.085,6.085,0,0,1,4.177,4.044,6,6,0,0,1-1.249,5.685,9.182,9.182,0,0,1-4.85,2.617,27.43,27.43,0,0,1-4.976.5,27.891,27.891,0,0,0-4.288.421,8.7,8.7,0,0,0-5.271,3.009,6.21,6.21,0,0,0-1.013,2.04.547.547,0,0,1,0-.155,1.656,1.656,0,0,1,.1-.429,5.472,5.472,0,0,1,.776-1.538,8.724,8.724,0,0,1,5.338-3.164,26.611,26.611,0,0,1,4.325-.466,27.475,27.475,0,0,0,4.916-.525,8.872,8.872,0,0,0,4.672-2.528,5.656,5.656,0,0,0,1.176-5.353,5.737,5.737,0,0,0-3.933-3.822,4.754,4.754,0,0,0-4.887,1.22,3.534,3.534,0,0,0-.813,2.255,2.787,2.787,0,0,0,.909,2.041,4.347,4.347,0,0,0,1.967.961,8.51,8.51,0,0,0,2.026.222,20.168,20.168,0,0,0,6.136-1.042c.695-.244,1.227-.458,1.582-.614a3.625,3.625,0,0,1,.5-.281Z" transform="translate(-170.139 -89.426)"/><path class="l" d="M257.411,172.559c-.059,0-.281-.554-.88-1.309a6.735,6.735,0,0,0-6.691-2.528c-.954.185-1.479.458-1.53.407a3.6,3.6,0,0,1,1.479-.651,6.462,6.462,0,0,1,6.942,2.617A3.5,3.5,0,0,1,257.411,172.559Z" transform="translate(-169.914 -98.877)"/><path class="l" d="M267.757,180.769a3.193,3.193,0,0,1-.895,1.309,5.493,5.493,0,0,1-7.208.569,3.253,3.253,0,0,1-1.094-1.168c.044-.044.421.451,1.235.969a5.582,5.582,0,0,0,6.876-.547C267.387,181.272,267.683,180.725,267.757,180.769Z" transform="translate(-172.586 -102.133)"/><path class="l" d="M271.259,162.826c0,.052-.429-.185-1.124-.37a4.813,4.813,0,0,0-5.02,1.6c-.458.555-.651.976-.695.954a2.358,2.358,0,0,1,.51-1.1,4.584,4.584,0,0,1,5.279-1.686A2.38,2.38,0,0,1,271.259,162.826Z" transform="translate(-174.114 -97.232)"/><path class="l" d="M300.223,154.618a3.37,3.37,0,0,1,.118.488,3.24,3.24,0,0,1,.074.6,3.945,3.945,0,0,1,0,.835,8.273,8.273,0,0,1-1.878,4.88,8.606,8.606,0,0,1-2.795,2.336,8.753,8.753,0,0,1-4.088.939,11,11,0,0,1-8.421-4.162,6.655,6.655,0,0,1-1.19-2.27,4.355,4.355,0,0,1,.044-2.5,3.209,3.209,0,0,1,1.53-1.87,3.46,3.46,0,0,1,2.307-.274,3.867,3.867,0,0,1,1.959,1,4.533,4.533,0,0,1,1.072,1.782,5.981,5.981,0,0,1,0,3.652,7.053,7.053,0,0,1-1.545,2.625,7.142,7.142,0,0,1-1.8,1.383,6.653,6.653,0,0,1-1.309.54,2.863,2.863,0,0,1-.5.089,9.28,9.28,0,0,0,1.774-.739,7.06,7.06,0,0,0,3.179-3.926,5.759,5.759,0,0,0,0-3.5,4.111,4.111,0,0,0-1.013-1.649,3.556,3.556,0,0,0-1.8-.939,3.194,3.194,0,0,0-2.092.251,2.839,2.839,0,0,0-1.368,1.693,3.933,3.933,0,0,0,0,2.3,6.247,6.247,0,0,0,1.124,2.151,10.772,10.772,0,0,0,8.132,4.059,8.554,8.554,0,0,0,8.657-7.844A13.364,13.364,0,0,0,300.223,154.618Z" transform="translate(-178.666 -95.034)"/><path class="l" d="M313.057,168.421a1.79,1.79,0,0,1-.4-.451,4.577,4.577,0,0,1-.739-1.479,6.166,6.166,0,0,1-.1-2.44,21.887,21.887,0,0,1,.658-2.9,20.873,20.873,0,0,1,2.344-4.835c.37-.577.651-1.035.9-1.346a2.306,2.306,0,0,1,.377-.473,15.344,15.344,0,0,1-1.072,1.967,24.021,24.021,0,0,0-2.218,4.806,26.9,26.9,0,0,0-.658,2.846,6.211,6.211,0,0,0,0,2.336,8.714,8.714,0,0,0,.9,1.967Z" transform="translate(-186.45 -95.286)"/><path class="l" d="M329.356,152.94a1.4,1.4,0,0,1,.2.473,7.6,7.6,0,0,1,.325,1.346,12,12,0,0,1-1.959,8.754,8.09,8.09,0,0,1-.865,1.087c-.229.237-.355.355-.377.347s.436-.584,1.042-1.56a13.794,13.794,0,0,0,1.686-4.133,13.486,13.486,0,0,0,.214-4.436C329.511,153.65,329.3,152.984,329.356,152.94Z" transform="translate(-190.344 -94.879)"/><path class="l" d="M266.546,193.632a1.476,1.476,0,0,1-.281-.148,8.359,8.359,0,0,0-.8-.436,9.279,9.279,0,0,0-3.2-.895,9.737,9.737,0,0,0-4.806.739,8.132,8.132,0,0,0-2.4,1.6,4.621,4.621,0,0,0-.946,1.161,2.351,2.351,0,0,0-.325,1.479,1.723,1.723,0,0,0,.695,1.235,1.39,1.39,0,0,0,1.309.059,2.344,2.344,0,0,0,1.22-2.3,4.672,4.672,0,0,0-2.432-3.933,4.776,4.776,0,0,0-3.209-.421,10.74,10.74,0,0,0-1.168.377,1.086,1.086,0,0,1,.274-.177,4.013,4.013,0,0,1,.858-.325,4.754,4.754,0,0,1,3.357.34,4.894,4.894,0,0,1,2.625,4.148,3.408,3.408,0,0,1-.288,1.479,2.218,2.218,0,0,1-1.109,1.131,1.73,1.73,0,0,1-1.656-.081,2.07,2.07,0,0,1-.858-1.479,2.617,2.617,0,0,1,.348-1.619,4.945,4.945,0,0,1,1.005-1.242,8.346,8.346,0,0,1,2.514-1.641,9.818,9.818,0,0,1,4.961-.739,8.784,8.784,0,0,1,3.231,1.02,5.683,5.683,0,0,1,.776.488C266.465,193.543,266.561,193.617,266.546,193.632Z" transform="translate(-170.407 -104.926)"/><path class="l" d="M274.86,201.719a4.309,4.309,0,0,1-.791,1.479c-.518.776-1,1.368-1.079,1.309a4.325,4.325,0,0,1,.8-1.479C274.306,202.251,274.779,201.667,274.86,201.719Z" transform="translate(-176.348 -107.594)"/><path class="l" d="M285.469,213.593c-.052,0-.14-.229-.37-.569a3.386,3.386,0,0,0-2.669-1.479,3.694,3.694,0,0,1-.651,0,1.411,1.411,0,0,1,.651-.229,2.957,2.957,0,0,1,2.883,1.612C285.5,213.3,285.514,213.586,285.469,213.593Z" transform="translate(-178.639 -110.094)"/><path class="l" d="M246.948,209.88c0,.044-.784.444-2.048,1.175a17.84,17.84,0,0,0-4.436,3.438,9.53,9.53,0,0,0-2.358,5.005,11.755,11.755,0,0,0,.037,2.336,1.967,1.967,0,0,1-.185-.614,5.761,5.761,0,0,1-.089-1.745,9.168,9.168,0,0,1,2.344-5.175,16.079,16.079,0,0,1,4.584-3.438c.658-.333,1.2-.577,1.567-.739A2.263,2.263,0,0,1,246.948,209.88Z" transform="translate(-167.185 -109.722)"/><path class="l" d="M262.721,211.976a2.381,2.381,0,0,1-.739-.784,4.362,4.362,0,0,1,.414-4.894,1.907,1.907,0,0,1,.828-.658c.037.052-.281.3-.658.806a4.724,4.724,0,0,0-.384,4.636A7.95,7.95,0,0,1,262.721,211.976Z" transform="translate(-173.331 -108.617)"/><path class="l" d="M235.529,197.529a3.584,3.584,0,0,0-.384-.384,2.639,2.639,0,0,0-1.36-.6,3.386,3.386,0,0,0-2.284.466,6.949,6.949,0,0,0-2.174,2.3c-.651.991-1.19,2.218-2.026,3.356a7.149,7.149,0,0,1-3.608,2.7,6.654,6.654,0,0,1-4.961-.288,7.068,7.068,0,0,1-3.645-3.889,4.2,4.2,0,0,1-.111-2.758,3.83,3.83,0,0,1,1.7-2.085,3.948,3.948,0,0,1,2.528-.584,4.155,4.155,0,0,1,2.218,1.072,5.478,5.478,0,0,1,1.774,4.118,6.794,6.794,0,0,1-1.22,3.741,7.637,7.637,0,0,1-2.366,2.218,9.477,9.477,0,0,1-2.218.983,10.833,10.833,0,0,1-1.516.318l-.4.044h-.148a3.408,3.408,0,0,1,.532-.111,12.864,12.864,0,0,0,1.479-.377,9.84,9.84,0,0,0,2.218-1.02,7.475,7.475,0,0,0,2.27-2.218,6.654,6.654,0,0,0,1.139-3.608,5.22,5.22,0,0,0-1.7-3.881,3.866,3.866,0,0,0-2.077-.983,3.652,3.652,0,0,0-2.321.54,3.593,3.593,0,0,0-1.553,1.907,3.948,3.948,0,0,0,.111,2.543,6.817,6.817,0,0,0,3.475,3.7,6.388,6.388,0,0,0,4.717.288,6.831,6.831,0,0,0,3.475-2.573c.821-1.116,1.383-2.321,2.055-3.32a7.142,7.142,0,0,1,2.277-2.329,3.49,3.49,0,0,1,2.4-.436,2.6,2.6,0,0,1,1.39.658A1.479,1.479,0,0,1,235.529,197.529Z" transform="translate(-161.177 -106.036)"/><path class="l" d="M242.084,209.1a3.045,3.045,0,0,1-1.057-.828,7.223,7.223,0,0,1-1.811-6.085,3.068,3.068,0,0,1,.421-1.309c.059,0-.1.5-.185,1.309A8.029,8.029,0,0,0,241.2,208.1C241.721,208.709,242.121,209.027,242.084,209.1Z" transform="translate(-167.517 -107.376)"/><path class="l" d="M238.2,188.794s-.458-.229-1.309-.562a15.725,15.725,0,0,0-9.434-.7,12.567,12.567,0,0,0-3.149,1.176,2.144,2.144,0,0,0-1.042,1.242,1.2,1.2,0,0,0,.658,1.316.7.7,0,0,0,.658-.214,1.648,1.648,0,0,0,.392-.739,6.017,6.017,0,0,0,.148-1.745,7.866,7.866,0,0,0-.835-3.216,7.63,7.63,0,0,0-1.848-2.381,7.439,7.439,0,0,0-2.292-1.309,7.963,7.963,0,0,0-3.793-.377c-.9.14-1.383.347-1.39.31a1.419,1.419,0,0,1,.34-.155,7.245,7.245,0,0,1,4.931,0,7.689,7.689,0,0,1,2.388,1.309,7.8,7.8,0,0,1,1.981,2.469,8.014,8.014,0,0,1,.895,3.349,6.424,6.424,0,0,1-.155,1.841,2.092,2.092,0,0,1-.481.88,1.028,1.028,0,0,1-1.02.3,1.316,1.316,0,0,1-.784-.7,1.686,1.686,0,0,1-.14-1.005,2.44,2.44,0,0,1,1.205-1.479,12.724,12.724,0,0,1,3.238-1.19,15.526,15.526,0,0,1,5.811-.214,14.1,14.1,0,0,1,3.748,1.1,8.639,8.639,0,0,1,.976.5C238.093,188.712,238.2,188.779,238.2,188.794Z" transform="translate(-161.22 -102.195)"/><path class="l" d="M175.3,187.988a12.456,12.456,0,0,0,1.05-.968,9.057,9.057,0,0,0,2.063-3.275,7.142,7.142,0,0,0-.163-5.545,7.023,7.023,0,0,0-2.092-2.58,5.914,5.914,0,0,0-3.275-1.242,3.771,3.771,0,0,0-1.73.362A2.218,2.218,0,0,0,170,175.915a1.678,1.678,0,0,0,.237,1.516,2.447,2.447,0,0,0,1.235.924,3.423,3.423,0,0,0,2.839-.481,4.813,4.813,0,0,0,1.723-1.967,10.01,10.01,0,0,0,.821-3.763,7.391,7.391,0,0,1,.044-1.065,1.234,1.234,0,0,1,0-.37,1.034,1.034,0,0,1,0,.37v1.065a9.471,9.471,0,0,1-.695,3.941,4.953,4.953,0,0,1-1.782,2.077,3.7,3.7,0,0,1-3.083.547,2.721,2.721,0,0,1-1.412-1.035,2.011,2.011,0,0,1-.288-1.811,2.514,2.514,0,0,1,1.316-1.368,4.17,4.17,0,0,1,1.893-.4,6.173,6.173,0,0,1,3.49,1.309,7.393,7.393,0,0,1,2.174,2.721,6.8,6.8,0,0,1,.658,3.076,7.784,7.784,0,0,1-.54,2.684,8.872,8.872,0,0,1-2.218,3.275,5.427,5.427,0,0,1-.821.658A1.572,1.572,0,0,1,175.3,187.988Z" transform="translate(-149.379 -99.511)"/><path class="l" d="M194.612,201.251a2.389,2.389,0,0,1-.51-.547,11.325,11.325,0,0,1-1.131-1.7,12.1,12.1,0,0,1,.85-12.827,10.352,10.352,0,0,1,1.309-1.538,2.958,2.958,0,0,1,.591-.458c.052.052-.739.739-1.715,2.159a12.428,12.428,0,0,0-.828,12.568A26.138,26.138,0,0,0,194.612,201.251Z" transform="translate(-155.111 -103.023)"/><path class="l" d="M208,184.634c-.059,0-.333-.983-1.146-2.432a13.47,13.47,0,0,0-10.35-6.846c-1.649-.185-2.684-.037-2.684-.1a2.609,2.609,0,0,1,.739-.126,12.473,12.473,0,0,1,1.967,0,12.975,12.975,0,0,1,10.55,6.979,10.8,10.8,0,0,1,.739,1.834,2.529,2.529,0,0,1,.185.695Z" transform="translate(-155.709 -100.653)"/><g class="f" transform="translate(69.741 93.526)"><path d="M237.067,209.7c-.651.266-.569,1.264-.044,1.693a2.847,2.847,0,0,0,1.967.421,25.314,25.314,0,0,0,19.414-10.9c-5.915,4.857-13.692,6.7-21.167,8.384" transform="translate(-236.604 -200.91)"/></g><g class="f" transform="translate(68.72 74.74)"><path d="M235.539,196.393a2.651,2.651,0,0,1,.651-3.223,11.023,11.023,0,0,1,3.031-1.8,19.1,19.1,0,0,0,8.827-9.064c1.2-2.58,2.092-5.745,4.732-6.809a25.588,25.588,0,0,1-16.842,20.095" transform="translate(-235.223 -175.5)"/></g><g class="f" transform="translate(48.224 61.661)"><path d="M209.718,157.81a66.634,66.634,0,0,1-1.479,21.44,17.573,17.573,0,0,0-.739,4.51A5.988,5.988,0,0,0,209.674,188c1.087-2.514,1.109-4.931,1.567-7.63.407-2.432,1.1-8.132,1.1-8.192a32.4,32.4,0,0,0-2.957-13.707" transform="translate(-207.5 -157.81)"/></g><g class="f" transform="translate(62.419 40.059)"><path d="M227.062,128.679a26.2,26.2,0,0,0,7.393,13.921c1.479,1.4,3.275,2.706,5.271,2.617a12.354,12.354,0,0,1-.976-7.718,31.252,31.252,0,0,0,5.4,2.957,10.705,10.705,0,0,0,6.025.658l1.249-10.831a2.033,2.033,0,0,0-.118-1.22.695.695,0,0,0-.939-.311.421.421,0,0,0-.1.059,1.035,1.035,0,0,0-.207.481c-.739,3.179-1.146,6.025-1.885,9.212-.532.525-2.166.311-3.238-.089-.939-.347-1.309-1.124-1.915-1.9s-.51-.658-1.427-1.035c-1.693-.739-4.931-.148-5.641,1.368s-.17,3.512.3,5.005A22.7,22.7,0,0,1,226.7,128.59" transform="translate(-226.7 -128.59)"/></g><g class="f" transform="translate(97.138 55.518)"><path d="M275.035,149.5c-.133.266,4.081,14.468,4.081,14.468l-5.456-3.113Z" transform="translate(-273.66 -149.5)"/></g><path class="g" d="M229.65,89.631v22.608a5.493,5.493,0,0,0,1.309,3.534h0a16.486,16.486,0,0,0,4.547,3.756l4.584,2.58,3.778-3.379a5.486,5.486,0,0,0,1.826-3.874c.067-1.649.059-3.275.059-3.275s6.4-.458,7-6.757c.281-2.957.37-9.057.384-14.661a12.258,12.258,0,0,0-11.312-12.324h-.177a11.711,11.711,0,0,0-12,11.43Z" transform="translate(-165.05 -75.3)"/><path class="h" d="M248.534,122.313a15.326,15.326,0,0,1-8.014-3.113s1.656,4.783,8,4.739Z" transform="translate(-167.883 -86.084)"/><path class="j" d="M258.186,99.619a.9.9,0,0,1-.939.835.858.858,0,0,1-.858-.872h0a.9.9,0,0,1,.939-.843.858.858,0,0,1,.858.858Z" transform="translate(-172.02 -80.75)"/><path class="j" d="M257.91,97.5c-.118.1-.739-.458-1.73-.54s-1.723.355-1.819.222.081-.251.414-.458a2.521,2.521,0,0,1,1.479-.318,2.359,2.359,0,0,1,1.368.569C257.887,97.234,257.961,97.449,257.91,97.5Z" transform="translate(-171.485 -80.139)"/><path class="j" d="M245.811,99a.9.9,0,0,1-.939.835.858.858,0,0,1-.872-.872h0a.909.909,0,0,1,.939-.843.865.865,0,0,1,.865.865Z" transform="translate(-168.79 -80.588)"/><path class="j" d="M245,96.674c-.126.1-.739-.458-1.737-.532s-1.715.347-1.819.214.089-.259.414-.458a2.551,2.551,0,0,1,1.479-.34,2.455,2.455,0,0,1,1.368.569C244.967,96.4,245.055,96.622,245,96.674Z" transform="translate(-168.116 -79.918)"/><path class="j" d="M250.21,104.322a6.106,6.106,0,0,1,1.6-.163c.251,0,.5,0,.547-.192a1.286,1.286,0,0,0-.111-.739c-.177-.658-.37-1.272-.569-1.967a36.613,36.613,0,0,1-1.235-5.072,37.278,37.278,0,0,1,1.634,4.961c.192.651.377,1.309.547,1.967a1.4,1.4,0,0,1,.052.983.651.651,0,0,1-.436.325,2.075,2.075,0,0,1-.429,0A6.8,6.8,0,0,1,250.21,104.322Z" transform="translate(-170.409 -80.085)"/><path class="j" d="M246.2,107.77c.163,0,.074,1.065.917,1.878s1.959.806,1.959.946-.259.192-.739.163a2.639,2.639,0,0,1-1.641-.739,2.262,2.262,0,0,1-.695-1.575C246,108.014,246.133,107.755,246.2,107.77Z" transform="translate(-169.312 -83.104)"/><path class="j" d="M245.432,91.674c-.118.259-1.072.052-2.218.1s-2.092.274-2.218,0c-.059-.118.118-.355.51-.577a3.852,3.852,0,0,1,3.393-.1C245.306,91.29,245.5,91.511,245.432,91.674Z" transform="translate(-168.005 -78.667)"/><path class="j" d="M257.831,93.645c-.192.207-.835-.074-1.641-.155s-1.479,0-1.627-.214.067-.333.377-.518a2.388,2.388,0,0,1,2.625.3C257.831,93.305,257.92,93.542,257.831,93.645Z" transform="translate(-171.532 -79.123)"/><path class="j" d="M236.731,83.7h-.037a5.012,5.012,0,0,0-2.114,3.105v.126c-.4,1.774-.5,3.615-.917,5.39s-.333,3.127-2.114,3.527a2.351,2.351,0,0,1-2.477-1,1.641,1.641,0,0,1-.163-.843c0-4.377-.85-6.07-.473-10.609a3.822,3.822,0,0,1,1.848-2.957c1.005-.606,2.218-1.22,3.275-.658s2.218,2.676,2.957,3.593" transform="translate(-164.708 -75.75)"/><path class="g" d="M230.633,97.736c-.1-.052-4.222-1.634-4.436,2.691s4.177,3.652,4.192,3.527S230.633,97.736,230.633,97.736Z" transform="translate(-164.148 -80.404)"/><path class="h" d="M229.5,102.785a1.065,1.065,0,0,1-.207.1.739.739,0,0,1-.562,0,1.856,1.856,0,0,1-.784-1.723,2.44,2.44,0,0,1,.266-1.065.88.88,0,0,1,.6-.554.392.392,0,0,1,.436.229.279.279,0,0,1,0,.222c0,.007.1-.067.074-.244a.458.458,0,0,0-.163-.281.547.547,0,0,0-.407-.133,1.057,1.057,0,0,0-.821.658,2.654,2.654,0,0,0-.325,1.19,1.967,1.967,0,0,0,1.005,1.922.821.821,0,0,0,.695-.074C229.484,102.851,229.514,102.785,229.5,102.785Z" transform="translate(-164.514 -80.906)"/><path class="j" d="M234.956,79.067c-.924-1.819,2.218-4.051,4.377-4.547s4.909.739,6.972,1.656a10.8,10.8,0,0,0,3.992,1.309,9.411,9.411,0,0,0,2.787-.466A7.127,7.127,0,0,1,255.9,76.7a2.61,2.61,0,0,1,2.174,1.656,1.626,1.626,0,0,1-1.057,2.048,1.035,1.035,0,0,1-.251.059A2.129,2.129,0,1,1,257,84.442c.651-.414,1.53.429,1.383,1.19a2.218,2.218,0,0,1-1.6,1.479,8.008,8.008,0,0,1-5.752-.562c-1.826-.784-3.46-1.9-5.242-2.728S241,81.529,239.1,82.039c-1.4.362-2.484,1.93-3.223,1.479a2.625,2.625,0,0,1-1.205-2.018,7.652,7.652,0,0,1,.288-2.455" transform="translate(-166.356 -74.407)"/><path class="k" d="M257.751,80.816a8.952,8.952,0,0,1-.739.739,5.915,5.915,0,0,1-2.529,1.353,5.515,5.515,0,0,1-4.1-.51c-1.4-.739-2.551-2.218-3.9-3.556a8.931,8.931,0,0,0-4.658-2.728,5,5,0,0,0-4.251,1.1,3.763,3.763,0,0,0-1.205,2.706,2.691,2.691,0,0,0,.118.806.739.739,0,0,0,.118.259,6.3,6.3,0,0,1-.074-1.057,3.7,3.7,0,0,1,1.242-2.491,4.776,4.776,0,0,1,3.978-.924,8.79,8.79,0,0,1,4.436,2.625,19.294,19.294,0,0,0,3.955,3.593,5.915,5.915,0,0,0,6.935-1.057,5.572,5.572,0,0,0,.51-.658C257.721,80.905,257.766,80.816,257.751,80.816Z" transform="translate(-166.801 -74.826)"/><path class="k" d="M230.473,93.569a1.168,1.168,0,0,0,.384-.429,2.9,2.9,0,0,0,.347-1.545c0-1.4-1.087-2.957-1.087-4.931a4.34,4.34,0,0,1,.695-2.536,3.275,3.275,0,0,1,1.73-1.264,2.861,2.861,0,0,1,1.479-.081,3.776,3.776,0,0,0,.54.155c0-.037-.14-.17-.488-.311a2.713,2.713,0,0,0-1.59-.059,3.549,3.549,0,0,0-1.967,1.309,4.621,4.621,0,0,0-.8,2.772,8.029,8.029,0,0,0,.614,2.787,8.333,8.333,0,0,1,.6,2.144,3.349,3.349,0,0,1-.458,1.989Z" transform="translate(-165.067 -76.51)"/></g><g transform="translate(30.399 70.472)"><path class="c" d="M221.43,266.49h-.976l-2.861.037c-2.514.044-6.225.14-10.994.37s-10.6.658-17.337,1.442c-3.364.407-6.964.865-10.764,1.479s-7.785,1.36-11.947,2.314-8.517,2.078-12.923,3.527a85.253,85.253,0,0,0-13.382,5.538,43.147,43.147,0,0,0-6.417,4.1,20.479,20.479,0,0,0-5.242,5.752c-.17.288-.34.577-.488.865l-.37.924-.185.466c-.052.163-.081.325-.126.488l-.229.969a9.774,9.774,0,0,0,.192,4.007,14.6,14.6,0,0,0,4.436,6.861c4.1,3.859,9.338,6.55,14.786,8.8a122.834,122.834,0,0,0,17.219,5.441,226.722,226.722,0,0,0,37.557,5.53,298.97,298.97,0,0,0,38,.148,238.736,238.736,0,0,0,35.1-4.584,148,148,0,0,0,15.9-4.288,78.935,78.935,0,0,0,14.158-6.188,38.832,38.832,0,0,0,6-4.266,17.182,17.182,0,0,0,4.34-5.53l.325-.8a4.385,4.385,0,0,0,.274-.813l.2-.821a3.754,3.754,0,0,1,.1-.414v-.429a8.169,8.169,0,0,0-.244-3.275,12.123,12.123,0,0,0-1.383-2.957,18.806,18.806,0,0,0-2.033-2.491,30.606,30.606,0,0,0-4.8-3.933,48.9,48.9,0,0,0-5.079-3.024,88.51,88.51,0,0,0-9.907-4.436,151.9,151.9,0,0,0-16.62-5.123c-4.6-1.153-8.3-1.885-10.735-2.351-1.235-.244-2.181-.4-2.817-.525l-.961-.177s1.309.185,3.785.651,6.114,1.161,10.764,2.3a146.853,146.853,0,0,1,16.642,5.072,87.106,87.106,0,0,1,9.951,4.4,50.744,50.744,0,0,1,5.109,3.031,31.22,31.22,0,0,1,4.842,3.978,17.691,17.691,0,0,1,2.055,2.521,11.827,11.827,0,0,1,1.434,3.024,8.548,8.548,0,0,1,.266,3.408v.429a2.218,2.218,0,0,1-.1.429l-.207.843a4.269,4.269,0,0,1-.281.835l-.325.813a17.626,17.626,0,0,1-4.4,5.626,39.487,39.487,0,0,1-6.04,4.31,79.362,79.362,0,0,1-14.254,6.24,150.077,150.077,0,0,1-15.94,4.318,240.333,240.333,0,0,1-35.14,4.584,298.29,298.29,0,0,1-38.045-.148,226.751,226.751,0,0,1-37.624-5.545,121.777,121.777,0,0,1-17.256-5.464c-5.441-2.27-10.705-4.961-14.86-8.872a15.017,15.017,0,0,1-4.488-7.023,10.21,10.21,0,0,1-.2-4.125l.244-1c.044-.17.074-.34.126-.5l.192-.473.384-.946c.148-.3.325-.6.5-.895a20.8,20.8,0,0,1,5.338-5.826,44.21,44.21,0,0,1,6.469-4.133,86.538,86.538,0,0,1,13.419-5.523c4.436-1.442,8.776-2.565,12.945-3.512s8.177-1.686,11.977-2.284,7.393-1.079,10.772-1.479c6.75-.739,12.568-1.153,17.352-1.383s8.487-.288,11-.311h3.837Z" transform="translate(-112.475 -188.847)"/><path class="c" d="M162.851,197.672s-.377.089-1.1.229-1.819.355-3.238.658c-2.846.591-7.031,1.479-12.347,2.957a127.036,127.036,0,0,0-18.882,6.654c-1.774.813-3.593,1.715-5.412,2.743a52.821,52.821,0,0,0-5.427,3.482,30.134,30.134,0,0,0-5.013,4.591,15.784,15.784,0,0,0-3.4,6.232,11.408,11.408,0,0,0,.54,7.334,18.994,18.994,0,0,0,4.539,6.351,50.859,50.859,0,0,0,14.047,8.953c10.557,4.8,22.6,8.014,35.376,10.41a296.376,296.376,0,0,0,40.625,4.488,350.686,350.686,0,0,0,43.893-.784,254.517,254.517,0,0,0,43.28-7.053,129.736,129.736,0,0,0,19.71-6.765,67.953,67.953,0,0,0,8.872-4.717,34.007,34.007,0,0,0,7.5-6.329,14.035,14.035,0,0,0,3.7-8.6,15.312,15.312,0,0,0-.163-2.329l-.3-1.109a8.019,8.019,0,0,0-.37-1.1,16.78,16.78,0,0,0-2.218-4.022,30.874,30.874,0,0,0-6.654-6.136,61.5,61.5,0,0,0-7.6-4.436,108.86,108.86,0,0,0-15.585-6.114c-5.138-1.6-10.143-2.876-14.949-3.926a287.494,287.494,0,0,0-46.266-5.915c-5.5-.281-9.789-.3-12.687-.362l-3.275-.074-1.124-.044h1.124l3.275.044c2.9.052,7.208.037,12.694.3a284.639,284.639,0,0,1,46.318,5.8c4.813,1.057,9.826,2.321,14.979,3.926a107.3,107.3,0,0,1,15.622,6.122,60.518,60.518,0,0,1,7.659,4.436,31.444,31.444,0,0,1,6.713,6.2,16.761,16.761,0,0,1,2.292,4.1,7.432,7.432,0,0,1,.377,1.124l.273,1.168a9.159,9.159,0,0,1,.126,1.19,8.135,8.135,0,0,1,.044,1.2,12.273,12.273,0,0,1-1.139,4.695,17.456,17.456,0,0,1-2.625,4.1,34.283,34.283,0,0,1-7.571,6.4,68.331,68.331,0,0,1-8.946,4.783,131.188,131.188,0,0,1-19.755,6.794,254.733,254.733,0,0,1-43.331,7.068,349.346,349.346,0,0,1-43.9.739,296.159,296.159,0,0,1-40.618-4.495c-12.812-2.418-24.9-5.648-35.487-10.484-5.242-2.447-10.2-5.279-14.106-9.034a19.178,19.178,0,0,1-4.584-6.439,11.7,11.7,0,0,1-.54-7.5,16.11,16.11,0,0,1,3.453-6.314,30.416,30.416,0,0,1,5.064-4.636,51.411,51.411,0,0,1,5.464-3.49c1.819-1.028,3.645-1.922,5.427-2.735a126.6,126.6,0,0,1,18.956-6.654c5.33-1.434,9.522-2.321,12.369-2.9S162.851,197.672,162.851,197.672Z" transform="translate(-107.437 -169.674)"/><path class="c" d="M196.974,332.295l-3.275.518c-2.144.34-5.294.887-9.323,1.767a118.9,118.9,0,0,0-14.417,4.066,68.462,68.462,0,0,0-8.583,3.734,36.757,36.757,0,0,0-4.347,2.662,22.384,22.384,0,0,0-4.007,3.564,13.056,13.056,0,0,0-1.582,2.277,9.072,9.072,0,0,0-.976,2.625,7.078,7.078,0,0,0-.111.739l-.052.739c0,.481.067.961.111,1.479a11.822,11.822,0,0,0,.377,1.42l.274.688.14.347.185.325a16.177,16.177,0,0,0,3.926,4.628,32.22,32.22,0,0,0,5.286,3.549,70.236,70.236,0,0,0,12.347,5.175,127.617,127.617,0,0,0,13.759,3.519,204.721,204.721,0,0,0,30.312,3.623,245.921,245.921,0,0,0,32.759-.569,175.072,175.072,0,0,0,32.279-5.56,81.747,81.747,0,0,0,14.542-5.545,36.531,36.531,0,0,0,6.329-4.081c.5-.377.924-.835,1.382-1.249s.828-.9,1.249-1.346a12,12,0,0,0,1.863-3.113,8.391,8.391,0,0,0-.288-6.913,16.62,16.62,0,0,0-4.51-5.242,45.956,45.956,0,0,0-11.718-6.476,98.881,98.881,0,0,0-11.918-3.815c-3.889-1.005-7.667-1.8-11.3-2.432a224.02,224.02,0,0,0-34.748-3.179l-12.8-.067s4.554-.059,12.8,0a222.153,222.153,0,0,1,34.748,3.113c3.637.658,7.393,1.419,11.319,2.425a98.6,98.6,0,0,1,11.977,3.844,46.3,46.3,0,0,1,11.763,6.425,16.93,16.93,0,0,1,4.584,5.316,8.532,8.532,0,0,1,.3,7.06,12.371,12.371,0,0,1-1.885,3.164c-.429.451-.813.939-1.272,1.368a17.112,17.112,0,0,1-1.39,1.249,36.746,36.746,0,0,1-6.366,4.118,81.52,81.52,0,0,1-14.572,5.56,174.881,174.881,0,0,1-32.279,5.537,245.346,245.346,0,0,1-32.8.569,205.182,205.182,0,0,1-30.312-3.63,128.19,128.19,0,0,1-13.774-3.541,69.809,69.809,0,0,1-12.384-5.175,32.8,32.8,0,0,1-5.3-3.571,16.265,16.265,0,0,1-3.97-4.687l-.185-.325-.14-.355-.281-.7a14.909,14.909,0,0,1-.384-1.479,5.8,5.8,0,0,1-.1-1.479l.044-.739a4.933,4.933,0,0,1,.118-.739,9.509,9.509,0,0,1,.991-2.691,13.346,13.346,0,0,1,1.6-2.3,22.646,22.646,0,0,1,4.029-3.586,37.707,37.707,0,0,1,4.377-2.662,65.723,65.723,0,0,1,8.532-3.741,116.844,116.844,0,0,1,14.461-4.044c4.029-.865,7.208-1.4,9.33-1.723S196.974,332.295,196.974,332.295Z" transform="translate(-118.589 -205.435)"/><path class="c" d="M290.385,407.975a6.817,6.817,0,0,0-.547-2.388,12.486,12.486,0,0,0-4.8-5.057c-5.175-3.386-13.759-6.232-24.582-7.977a149.121,149.121,0,0,0-17.847-1.745,171.075,171.075,0,0,0-20.6.377c-3.63.281-7.327.7-11.09,1.309a105.166,105.166,0,0,0-11.378,2.41c-1.9.51-3.807,1.1-5.693,1.789a46.325,46.325,0,0,0-5.56,2.425,22.4,22.4,0,0,0-5.035,3.5,6.653,6.653,0,0,0-.007,10.75,22.357,22.357,0,0,0,4.976,3.475,43.706,43.706,0,0,0,5.567,2.425,57.667,57.667,0,0,0,5.693,1.8,104.38,104.38,0,0,0,11.378,2.4c3.756.6,7.452,1.02,11.09,1.316a171.179,171.179,0,0,0,20.612.377,149.843,149.843,0,0,0,17.9-1.752c10.831-1.745,19.437-4.591,24.59-7.977a12.523,12.523,0,0,0,4.791-5.057,6.818,6.818,0,0,0,.547-2.388,4.6,4.6,0,0,1-.044.628,3.3,3.3,0,0,1-.14.739,4.944,4.944,0,0,1-.34,1.013,12.423,12.423,0,0,1-4.791,5.094c-5.175,3.408-13.759,6.269-24.6,8.029a149.476,149.476,0,0,1-17.884,1.767,173,173,0,0,1-20.627-.362c-3.623-.288-7.319-.7-11.09-1.316a102.877,102.877,0,0,1-11.385-2.388c-1.915-.51-3.822-1.109-5.708-1.8a47.312,47.312,0,0,1-5.582-2.425,22.875,22.875,0,0,1-5.072-3.519,10.041,10.041,0,0,1-1.93-2.455,5.915,5.915,0,0,1,0-6.04,10.3,10.3,0,0,1,1.967-2.447,22.6,22.6,0,0,1,5.072-3.49,46.573,46.573,0,0,1,5.574-2.432c1.893-.695,3.8-1.309,5.715-1.8a104.838,104.838,0,0,1,11.385-2.4c3.763-.6,7.467-1.02,11.09-1.309a169.917,169.917,0,0,1,20.627-.37,149.607,149.607,0,0,1,17.884,1.76c10.838,1.76,19.451,4.621,24.6,8.029a12.491,12.491,0,0,1,4.783,5.094,4.54,4.54,0,0,1,.34,1.013,2.958,2.958,0,0,1,.141.739A5.8,5.8,0,0,0,290.385,407.975Z" transform="translate(-126.447 -221.187)"/><path class="c" d="M131.925,275.932a2.092,2.092,0,1,1-2.092-2.092A2.092,2.092,0,0,1,131.925,275.932Z" transform="translate(-112.73 -190.763)"/><circle class="c" cx="2.092" cy="2.092" r="2.092" transform="translate(204.172 84.497)"/><path class="c" d="M272.379,382.1a2.1,2.1,0,1,1-2.114-2.1h0a2.092,2.092,0,0,1,2.092,2.092Z" transform="translate(-149.34 -218.437)"/><path class="c" d="M187.2,309.77a1.043,1.043,0,1,1-.3-.742A1.05,1.05,0,0,1,187.2,309.77Z" transform="translate(-127.683 -199.856)"/><path class="c" d="M363.12,344.042A1.05,1.05,0,1,1,362.077,343h0A1.042,1.042,0,0,1,363.12,344.042Z" transform="translate(-173.542 -208.792)"/><path class="c" d="M251.41,409.472a1.05,1.05,0,1,1-1.05-1.042h0a1.042,1.042,0,0,1,1.05,1.042Z" transform="translate(-144.421 -225.848)"/><circle class="c" cx="0.525" cy="0.525" r="0.525" transform="translate(51.902)"/></g><g transform="translate(23.148 60.994)"><path class="c" d="M277.8,253.388c-25.4,6.72-49.889,6.21-76.571,0l-3.135-48.795c27.577,5.367,55.257,4.687,79.691-1.153Z" transform="translate(-123.818 -162.933)"/><g class="d" transform="translate(74.272 40.507)"><path class="e" d="M277.8,253.388c-25.4,6.72-49.889,6.21-76.571,0l-3.135-48.795c27.577,5.367,55.257,4.687,79.691-1.153Z" transform="translate(-198.09 -203.44)"/></g><path class="c" d="M276.728,261a.673.673,0,0,1-.163.081l-.481.2c-.421.17-1.042.444-1.856.739a71.046,71.046,0,0,1-7.031,2.218,91.674,91.674,0,0,1-24.1,2.75,140.811,140.811,0,0,1-24.146-2.58c-3.061-.584-5.515-1.124-7.208-1.516-.843-.185-1.479-.355-1.967-.466l-.5-.126c-.111,0-.17-.052-.163-.059h.177l.51.1,1.967.4c1.693.355,4.162.858,7.2,1.4a149.119,149.119,0,0,0,24.117,2.484,95.323,95.323,0,0,0,24.035-2.669c3.009-.739,5.4-1.523,7.046-2.1.821-.274,1.479-.525,1.878-.658l.5-.17A.451.451,0,0,1,276.728,261Z" transform="translate(-126.691 -177.937)"/><path class="c" d="M246.634,257.24a16.568,16.568,0,0,1-9.774-.325V239.556a24.443,24.443,0,0,1,9.774,0Z" transform="translate(-133.925 -172.219)"/><path class="c" d="M267.694,252.89v-.51c0-.355,0-.835-.044-1.479,0-1.272-.059-3.105-.1-5.39-.066-4.584-.163-11.053-.274-18.527l.126.155a26.49,26.49,0,0,0-10.121,0l.14-.163v.34c.1,10.262.2,19.533.266,26.15l-.1-.118a23.654,23.654,0,0,0,4.266.525,16.188,16.188,0,0,0,3.216-.266,16.372,16.372,0,0,0,1.967-.518l.488-.17a.738.738,0,0,1,.185-.059l-.155.074-.5.214a12.961,12.961,0,0,1-1.959.584,15.525,15.525,0,0,1-3.246.325,22.835,22.835,0,0,1-4.31-.473h-.1v-.133c-.1-6.654-.229-15.881-.37-26.142v-.488h.14a26.26,26.26,0,0,1,10.247,0h.133v.133c.059,7.511.1,13.988.148,18.616v7.149C267.738,252.876,267.7,252.89,267.694,252.89Z" transform="translate(-139.193 -168.897)"/><path class="c" d="M288.321,249.68c-2.617,1.412-6.062,1.6-9.781,1.39V222.385a20.834,20.834,0,0,1,9.781,0Z" transform="translate(-144.79 -167.72)"/><path class="c" d="M225.732,257.656s0-.266-.037-.739,0-1.176-.037-2c0-1.745-.044-4.162-.074-7.038l.1.14a21.84,21.84,0,0,0-9.419-1.567h0l.163-.17v9.781l-.089-.133A18.128,18.128,0,0,0,220.105,257c1.161.214,2.181.333,3.024.414l1.967.163a4.449,4.449,0,0,1,.695.081,5.455,5.455,0,0,1-.695,0,19.326,19.326,0,0,1-1.967-.081c-.843-.089-1.87-.163-3.039-.347a17.664,17.664,0,0,1-3.852-1.042l-.089-.044V246.108h.17a21.662,21.662,0,0,1,9.552,1.626l.1.037v.1c0,2.913-.059,5.367-.081,7.134,0,.821,0,1.479-.037,1.967a4.237,4.237,0,0,1-.126.68Z" transform="translate(-128.526 -174.046)"/><path class="c" d="M230.722,227.148a9.737,9.737,0,0,1-1.915.118c-1.183,0-2.824,0-4.621-.111s-3.43-.281-4.591-.436a9.609,9.609,0,0,1-1.885-.34,12.646,12.646,0,0,1,1.907.1c1.183.1,2.8.222,4.584.333s3.43.17,4.591.207A12.946,12.946,0,0,1,230.722,227.148Z" transform="translate(-128.933 -168.912)"/><path class="c" d="M229.315,229.987a9.086,9.086,0,0,1-1.678,0c-1.035-.052-2.469-.148-4.044-.266s-3.009-.244-4.037-.355a8.3,8.3,0,0,1-1.656-.251,7.959,7.959,0,0,1,1.678,0c1.042.052,2.462.14,4.037.259s3,.251,4.029.362a8.53,8.53,0,0,1,1.671.251Z" transform="translate(-128.982 -169.614)"/><path class="c" d="M231.744,230.659v-.606c0-.392.037-.983.067-1.693.067-1.479.163-3.563.288-6.129l.126.14a139.678,139.678,0,0,1-18.1-1.005l.185-.163h0v1.065c0,.37-.044.739-.067,1.094-.037.739-.081,1.442-.126,2.144-.081,1.412-.163,2.772-.244,4.074l-.133-.17c5.242.658,9.752.917,12.96,1.042l3.748.111H231.8a2.386,2.386,0,0,1-.325,0h-4.806c-3.216-.067-7.748-.3-13-.924h-.148v-.155c.074-1.309.148-2.669.229-4.074,0-.739.081-1.419.126-2.144l.059-1.094v-1.087h0l.192-.155a153.043,153.043,0,0,0,18.128,1.1h.1v.133c-.177,2.58-.318,4.695-.421,6.188-.052.695-.1,1.249-.133,1.656a2.862,2.862,0,0,1-.059.651Z" transform="translate(-127.841 -167.492)"/><path class="c" d="M240.41,237.764a7.511,7.511,0,0,1-1.264-1.745,6.329,6.329,0,0,1-.976-1.93,7.557,7.557,0,0,1,1.264,1.752A6.21,6.21,0,0,1,240.41,237.764Z" transform="translate(-134.266 -170.923)"/><path class="c" d="M97.63,153.16l8.3,50.274s12.679,23.732,46.355,29.077l-5.434-44.847S115.706,177.994,97.63,153.16Z" transform="translate(-97.63 -149.826)"/><g class="d" transform="translate(0 3.334)"><path class="e" d="M97.63,153.16l8.3,50.274s12.679,23.732,46.355,29.077l-5.434-44.847S115.706,177.994,97.63,153.16Z" transform="translate(-97.63 -153.16)"/></g><path class="c" d="M149.482,233.667l-.207-.052-.658-.177-2.373-.739c-1.028-.333-2.3-.658-3.7-1.249l-2.284-.872c-.821-.3-1.678-.651-2.551-1.042-1.745-.8-3.7-1.626-5.671-2.743s-4.088-2.314-6.24-3.7a62.347,62.347,0,0,1-12.517-10.846,37.107,37.107,0,0,1-4.51-6.292h0l-3.8-24.567c-.458-3.068-.835-5.53-1.087-7.253l-.281-1.959-.059-.51a.74.74,0,0,1,0-.177v.17l.1.51.333,1.967c.288,1.715.658,4.17,1.19,7.2.983,6.173,2.358,14.786,3.933,24.553v-.015a37.662,37.662,0,0,0,4.436,6.225A62.843,62.843,0,0,0,126.06,222.88c2.137,1.375,4.17,2.669,6.188,3.7s3.9,1.967,5.641,2.765c.865.421,1.723.739,2.528,1.065l2.27.895c1.4.591,2.676.946,3.7,1.309l2.351.784.606.214A.739.739,0,0,1,149.482,233.667Z" transform="translate(-99.171 -154.604)"/><path class="c" d="M147.548,223s0,.044-.111.111l-.362.288-1.4,1.087-5.286,4.051-.081.067-.067-.089c-1.782-2.462-3.978-5.5-6.462-8.953h.192l-4.953,3.541-.163.118-.074-.2c-1.959-5.242-4.1-11.134-6.388-17.337l-.924-2.5h.311l-4.037,8.088-.177.347-.126-.37-8.436-24.375h.177c-.532,2.218-.954,4-1.242,5.242-.14.584-.259,1.042-.34,1.375l-.089.355a.347.347,0,0,1-.044.111v-.118a2.063,2.063,0,0,1,.067-.355l.288-1.39c.274-1.242.658-3.009,1.153-5.242l.074-.318.111.311c1.967,5.574,5,14.165,8.569,24.272h-.259l3.992-7.977.177-.355.133.362.917,2.5,6.366,17.359-.237-.074,4.976-3.512.111-.081.089.111,6.4,8.946h-.155l5.353-3.978,1.434-1.05.37-.259Z" transform="translate(-100.195 -158.527)"/><path class="c" d="M154.226,200.629a3.3,3.3,0,0,1-.739-.163c-.444-.118-1.094-.318-1.878-.577a62.9,62.9,0,0,1-6.025-2.373q-2.957-1.338-5.781-2.957a14.735,14.735,0,0,1-1.678-1.028,3.01,3.01,0,0,1-.584-.421,2.817,2.817,0,0,1,.658.31l1.73.932c1.479.739,3.5,1.826,5.8,2.869s4.436,1.878,5.988,2.455c.739.266,1.309.5,1.841.658A2.669,2.669,0,0,1,154.226,200.629Z" transform="translate(-108.034 -160.24)"/><path class="c" d="M158.19,204.768a7.083,7.083,0,0,1-1.627-.288,38.441,38.441,0,0,1-3.822-1.146,37.073,37.073,0,0,1-3.7-1.538,6.653,6.653,0,0,1-1.434-.806,8.8,8.8,0,0,1,1.538.591c.939.384,2.218.909,3.7,1.434s2.795.939,3.771,1.235A8.39,8.39,0,0,1,158.19,204.768Z" transform="translate(-110.659 -162.294)"/><path class="c" d="M143.6,230.969a.68.68,0,0,1-.569.739c-.318,0-.562-.333-.562-.739a.586.586,0,1,1,1.131,0Z" transform="translate(-109.319 -169.917)"/><ellipse class="c" cx="0.562" cy="0.754" rx="0.562" ry="0.754" transform="translate(20.812 44.418)"/><path class="c" d="M110.074,187.069c0,.414-.251.739-.562.739s-.562-.34-.562-.739.244-.739.562-.739S110.074,186.663,110.074,187.069Z" transform="translate(-100.581 -158.473)"/><path class="c" d="M377.273,165.25l-4.162,51.013s-12.169,21.825-45.631,22.653l4.133-51.383S360.816,186.372,377.273,165.25Z" transform="translate(-157.548 -152.977)"/><path class="c" d="M387.8,158.261c-1.087-3.527-3.734-8.569-10.025-9.611L370.38,217.3s13.966-2.787,14.335-10.439c.037-.651,2.824-34.748,3.527-43.243A13.787,13.787,0,0,0,387.8,158.261Z" transform="translate(-168.731 -148.65)"/><g class="d" transform="translate(169.932 12.273)"><path class="e" d="M377.273,165.25l-4.162,51.013s-12.169,21.825-45.631,22.653l4.133-51.383S360.816,186.372,377.273,165.25Z" transform="translate(-327.48 -165.25)"/></g><path class="c" d="M379.294,182.85a30.186,30.186,0,0,0-5.33,16.5,12.937,12.937,0,0,1-.584,5.013c-.651,1.56-2.322,2.876-3.933,2.432s-2.469-2.491-3.963-3.43a4.436,4.436,0,0,0-4.488.1,7.578,7.578,0,0,0-2.957,3.586c-1.212,2.795-1.309,5.915-2.218,8.872s-3.09,5.855-6.144,5.988c-1.109.044-2.218-.288-3.327-.259a6.825,6.825,0,0,0-5.493,3.933,20.1,20.1,0,0,0-1.737,6.809s17.832,1.7,37.846-21.936Z" transform="translate(-160.582 -157.565)"/><path class="c" d="M354.617,224.316c0,.658-.318,1.146-.7,1.146s-.695-.51-.695-1.146.31-1.146.695-1.146S354.617,223.688,354.617,224.316Z" transform="translate(-164.258 -168.076)"/><path class="c" d="M365.964,195.6c0,.651-.318,1.146-.739,1.146s-.7-.518-.7-1.146.311-1.146.7-1.146S365.964,194.982,365.964,195.6Z" transform="translate(-167.206 -160.589)"/><path class="c" d="M379.156,186.18a.975.975,0,0,1-.111.288l-.377.835c-.355.739-.843,1.789-1.479,3.113l-5.316,11.09-.074.155-.14-.1-12.613-7.977.244-.081c-.163.407-.348.85-.525,1.316l-8.132,19.917-.059.14-.126-.074c-3.142-1.767-5.715-3.186-7.5-4.155-.895-.488-1.59-.858-2.07-1.1l-.54-.266-.192-.081a15.206,15.206,0,0,1,2.869,1.309c1.811.932,4.392,2.321,7.556,4.059l-.185.067,8.073-19.962c.177-.436.362-.872.525-1.309l.074-.192.177.111,12.568,8.022-.214.059,5.427-11.023,1.567-3.053.421-.806C379.068,186.357,379.112,186.269,379.156,186.18Z" transform="translate(-160.851 -158.433)"/></g></g></g></svg>