<svg xmlns="http://www.w3.org/2000/svg" width="428.45" height="405.486" viewBox="0 0 428.45 405.486"><defs><style>.a{fill:#aed3f2;}.b{fill:#fafafa;}.c{fill:#839eb6;}.d{fill:#344154;}.e{fill:#5e6178;}.f{fill:#d9a171;}.g{opacity:0.4;}.h{opacity:0.2;}.i{fill:#fff;}.j{opacity:0.3;}.k{fill:#ffbf9d;}.l{fill:#8a503f;}</style></defs><g transform="translate(-31.81 -54.994)"><path class="a" d="M124.5,393.12l-1.58,1.69L75.64,451.17l104.83.06,28.83-57.81Z"/><path class="b" d="M104.24,395.75l-1.58,1.75L49.98,455.77l102.17.06,36.89-59.77Z"/><path class="c" d="M104.24,395.75h23.28l61.53.13h.4l-.21.34L152.37,456l-.08.13H138.15L50,456h-.51l.34-.37,39.43-43.48c4.76-5.23,8.49-9.33,11-12.13l2.92-3.19c.67-.72,1-1.07,1-1.07s-.33.4-1,1.13l-2.87,3.22-11,12.21-39.3,43.61-.16-.37h102.3l-.23.13c13.45-21.76,26.05-42.14,36.93-59.76l.19.35L127.6,396l-17.24-.12h-5.72Z"/><path class="c" d="M143.18,445a3.128,3.128,0,0,1-.72,0H132.8l-25-.15-25-.3-7.59-.15-2.07-.07a3.42,3.42,0,0,1-.72-.06,4.082,4.082,0,0,1,.72,0H82.8l25,.15,25,.3,7.59.16,2.06.06a7.007,7.007,0,0,1,.73.06Z"/><path class="c" d="M146.22,438.79a2.932,2.932,0,0,1-.7,0h-9.41l-24.43-.15-24.44-.3-7.4-.15-2-.07a5.47,5.47,0,0,1-.7-.05,2.93,2.93,0,0,1,.7-.05h9.4l24.44.15,24.44.3,7.4.15,2,.06a6.455,6.455,0,0,1,.7.11Z"/><path class="c" d="M150.78,432.49a3.745,3.745,0,0,1-.69.05h-9.27l-24-.14-24-.29L85.59,432l-2-.07a3.15,3.15,0,0,1-.69-.06,4.67,4.67,0,0,1,.69,0h9.27l24,.14,24,.29,7.27.15,2,.07a3.149,3.149,0,0,1,.65-.03Z"/><path class="c" d="M156.06,426.65a4.762,4.762,0,0,1-.68,0h-9.06l-23.5-.13-23.5-.29-7.12-.15-1.93-.07a3,3,0,0,1-.68-.06,3.218,3.218,0,0,1,.68,0h9.05l23.51.13,23.49.29,7.12.15,1.94.07a3.1,3.1,0,0,1,.68.06Z"/><path class="c" d="M160,420.51a2.832,2.832,0,0,1-.68.05h-9.06l-23.49-.14-23.5-.29L96.1,420H94.16a3.1,3.1,0,0,1-.68-.06,2.832,2.832,0,0,1,.68-.05h9.06l23.5.14,23.5.29,7.12.15,1.93.06A3,3,0,0,1,160,420.51Z"/><path class="c" d="M165.7,414.41a2.738,2.738,0,0,1-.68,0h-9.06l-23.49-.14-23.5-.29-7.12-.15-1.94-.06a2.942,2.942,0,0,1-.67-.06,2.689,2.689,0,0,1,.67-.05h9.06l23.5.14,23.5.29,7.12.15,1.93.06A3,3,0,0,1,165.7,414.41Z"/><path class="c" d="M169.92,408.46a4.425,4.425,0,0,1-.68,0h-9.06l-23.49-.24-23.5-.4-7.12-.18-1.94-.07a3.233,3.233,0,0,1-.67-.07,4.365,4.365,0,0,1,.67,0h9.06l23.5.24,23.5.4,7.12.18,1.93.07a3.281,3.281,0,0,1,.68.07Z"/><path class="c" d="M176.41,402.78a3.218,3.218,0,0,1-.68,0h-9.06l-23.49-.24-23.5-.39-7.12-.18-1.93-.08a3,3,0,0,1-.68-.06,3.557,3.557,0,0,1,.68-.05h9.05l23.51.24,23.49.39,7.12.18,1.94.08a2.941,2.941,0,0,1,.67.11Z"/><path class="d" d="M460.26,383.14c0,.14-95.92.26-214.21.26s-214.24-.12-214.24-.26,95.9-.26,214.24-.26S460.26,383,460.26,383.14Z"/><path class="a" d="M439.09,447.94l-89.83,2.92-69.64-64.63h87.27Z"/><path class="a" d="M406.94,457.57l-89.83,2.91-69.65-64.62h87.28Z"/><path class="c" d="M422.05,451.17l-89.82,2.9-69.65-64.62h87.28Z"/><path class="a" d="M338.73,386.23H251.45l69.65,64.63,92.7-3.01Z"/><path class="d" d="M338.73,386.23s.12.08.36.27l1,.83,4,3.28,15.32,12.49L414,447.67l.47.39h-.61L324.91,451l-3.8.13H321l-.08-.07L251.3,386.39l-.41-.38h.56l63.38.09,17.67.07h-.04l-17.7.06-63.31.1.15-.38,69.68,64.59-.19-.07,3.8-.12,88.9-2.85-.13.41-54.28-44.68-15.26-12.61-4-3.34-1-.87A.88.88,0,0,1,338.73,386.23Z"/><path class="d" d="M370,423.5c0,.15-13.92.7-31.1,1.24s-31.1.85-31.11.71,13.92-.7,31.1-1.24S370,423.36,370,423.5Z"/><path class="d" d="M377.45,429c0,.14-14.14.69-31.59,1.23s-31.6.85-31.6.7,14.13-.69,31.59-1.23S377.45,428.87,377.45,429Z"/><path class="d" d="M385.29,434.54c0,.15-14.24.73-31.81,1.29s-31.82.92-31.82.77,14.23-.72,31.81-1.29S385.29,434.4,385.29,434.54Z"/><path class="d" d="M365.74,418.51c0,.14-14.33.72-32,1.28s-32,.9-32,.75,14.32-.72,32-1.28S365.73,418.36,365.74,418.51Z"/><path class="d" d="M336.14,397.84c0,.15-13.3.52-29.69.84s-29.7.45-29.71.3,13.29-.51,29.7-.83S336.13,397.7,336.14,397.84Z"/><path class="d" d="M343.56,403.36c0,.14-13.7.52-30.6.85s-30.62.47-30.62.32S296,404,313,403.68,343.56,403.21,343.56,403.36Z"/><path class="d" d="M351,408.87c0,.15-14.37.54-32.11.88s-32.12.5-32.12.35,14.37-.53,32.11-.87S351,408.73,351,408.87Z"/><path class="d" d="M358.4,414.39c0,.14-14.37.53-32.11.88s-32.12.49-32.12.35,14.37-.54,32.11-.88S358.4,414.24,358.4,414.39Z"/><path class="d" d="M331.84,392.85a2.5,2.5,0,0,1-.62.06l-1.78.08-6.56.17-21.66.39-21.66.24h-8.34a2.29,2.29,0,0,1-.62,0,3.328,3.328,0,0,1,.62-.06l1.78-.07,6.57-.18,21.65-.39,21.66-.24h8.35a2.691,2.691,0,0,1,.61,0Z"/><path class="e" d="M303.84,408.6l-22.9-20.97,79.3-3.15,23.3,12.9Z"/><path class="d" d="M290.18,390.56l4.46,3.82-.02-2.72-4.71-3.52Z"/><path class="f" d="M294.57,391.83l6.43-.22-5.17-3.75-5.92.28Z"/><path class="d" d="M294.57,391.83l.07,2.55,6.27-.41.09-2.36Z"/><path class="d" d="M301,391.61a36.941,36.941,0,0,1-5.17-3.32l-.3-.22.16.05a34.117,34.117,0,0,1-5.77,0,32.609,32.609,0,0,1,5.75-.54h.09l.07.05.31.22a35.923,35.923,0,0,1,4.86,3.76Z"/><path class="e" d="M294.62,394.38c-.15,0-.28-.56-.3-1.26s.08-1.26.23-1.27.28.56.29,1.26S294.76,394.37,294.62,394.38Z"/><path class="d" d="M300.93,390.36l4.45,3.82-.02-2.73-4.71-3.52Z"/><path class="c" d="M305.32,391.63l6.42-.22-5.17-3.75-5.92.27Z"/><path class="d" d="M305.32,391.63l.06,2.55,6.28-.41.08-2.36Z"/><path class="d" d="M311.74,391.41a36.294,36.294,0,0,1-5.17-3.32l-.3-.22.16.05a33.607,33.607,0,0,1-5.78,0,34,34,0,0,1,5.75-.54h.09l.08.05.3.22a36.28,36.28,0,0,1,4.87,3.76Z"/><path class="e" d="M305.36,394.18c-.14,0-.28-.56-.29-1.26s.08-1.27.23-1.27.27.56.29,1.26S305.51,394.17,305.36,394.18Z"/><path class="d" d="M311.22,390.22l4.45,3.82-.02-2.72-4.71-3.52Z"/><path class="e" d="M315.61,391.49l6.42-.22-5.17-3.75-5.92.28Z"/><path class="d" d="M315.61,391.49l.06,2.55,6.27-.41.09-2.36Z"/><path class="d" d="M322,391.28a38.108,38.108,0,0,1-5.17-3.33l-.31-.22h.17a33.066,33.066,0,0,1-5.78,0,32.759,32.759,0,0,1,5.75-.54h.09l.08.06.3.21a36.8,36.8,0,0,1,4.87,3.82Z"/><path class="e" d="M315.65,394c-.14,0-.28-.56-.29-1.26s.08-1.26.23-1.27.27.56.29,1.26S315.8,394,315.65,394Z"/><path class="d" d="M321.93,389.92l4.46,3.81-.02-2.72-4.71-3.52Z"/><path class="e" d="M326.32,391.19l6.42-.22-5.17-3.75-5.91.27Z"/><path class="d" d="M326.32,391.19l.07,2.54,6.27-.4.08-2.36Z"/><path class="d" d="M332.74,391a36.5,36.5,0,0,1-5.17-3.33l-.3-.21h.16a32.9,32.9,0,0,1-5.77,0,33.788,33.788,0,0,1,5.75-.54h.09l.07.05.31.21a35.469,35.469,0,0,1,4.86,3.82Z"/><path class="e" d="M326.36,393.73c-.14,0-.27-.55-.29-1.25s.08-1.27.23-1.27.28.56.29,1.25S326.51,393.73,326.36,393.73Z"/><path class="d" d="M332.8,389.65l4.45,3.81-.02-2.72-4.71-3.52Z"/><path class="e" d="M337.19,390.92l6.42-.22-5.17-3.75-5.92.27Z"/><path class="d" d="M337.19,390.92l.06,2.54,6.28-.4.08-2.36Z"/><path class="d" d="M343.61,390.7a35.869,35.869,0,0,1-5.17-3.33l-.3-.21h.16a33.069,33.069,0,0,1-5.78,0,34,34,0,0,1,5.75-.54h.09l.08.05.3.21a36.807,36.807,0,0,1,4.87,3.82Z"/><path class="e" d="M337.23,393.46c-.14,0-.28-.55-.29-1.25s.08-1.27.23-1.27.27.56.29,1.26S337.38,393.46,337.23,393.46Z"/><path class="d" d="M343.18,389.16l4.45,3.82-.02-2.72-4.71-3.52Z"/><path class="e" d="M347.57,390.43l6.42-.22-5.17-3.75-5.92.28Z"/><path class="d" d="M347.57,390.43l.06,2.55,6.27-.41.09-2.36Z"/><path class="d" d="M354,390.21a35.663,35.663,0,0,1-5.17-3.32l-.31-.22.17.05a33.069,33.069,0,0,1-5.78,0,32.609,32.609,0,0,1,5.75-.54h.09l.07.05.31.22a37.275,37.275,0,0,1,4.87,3.76Z"/><path class="e" d="M347.61,393c-.15,0-.28-.56-.3-1.26s.09-1.26.23-1.27.28.56.3,1.26S347.75,393,347.61,393Z"/><path class="d" d="M353.32,388.58l4.45,3.81-.02-2.72-4.71-3.52Z"/><path class="e" d="M357.71,389.85l6.42-.22-5.17-3.75-5.92.27Z"/><path class="d" d="M357.71,389.85l.06,2.54,6.28-.4.08-2.36Z"/><path class="d" d="M364.13,389.63A35.87,35.87,0,0,1,359,386.3l-.3-.21h.16a33.069,33.069,0,0,1-5.78,0,34.11,34.11,0,0,1,5.75-.54h.09l.08.05.3.21a36,36,0,0,1,4.83,3.82Z"/><path class="e" d="M357.75,392.39c-.14,0-.27-.55-.29-1.25s.08-1.27.23-1.27.27.56.29,1.25S357.9,392.39,357.75,392.39Z"/><path class="d" d="M297.35,397.73l4.46,3.82-.02-2.72-4.71-3.52Z"/><path class="e" d="M301.74,399l6.42-.22L303,395.03l-5.92.28Z"/><path class="d" d="M301.74,399l.07,2.55,6.27-.41.08-2.36Z"/><path class="d" d="M308.16,398.78a36.936,36.936,0,0,1-5.17-3.32l-.3-.22.16.05a33.424,33.424,0,0,1-5.77,0,34.472,34.472,0,0,1,5.75-.53h.09l.07.05.31.22a35,35,0,0,1,4.86,3.75Z"/><path class="e" d="M301.78,401.55c-.14,0-.27-.56-.29-1.26s.08-1.26.23-1.27.28.56.29,1.26S301.93,401.54,301.78,401.55Z"/><path class="d" d="M308.1,397.53l4.45,3.82-.02-2.73-4.71-3.52Z"/><path class="e" d="M312.49,398.8l6.42-.22-5.17-3.75-5.92.27Z"/><path class="d" d="M312.49,398.8l.06,2.55,6.27-.41.09-2.36Z"/><path class="d" d="M318.91,398.58a35.871,35.871,0,0,1-5.17-3.33l-.31-.21h.17a33.611,33.611,0,0,1-5.78,0,34.005,34.005,0,0,1,5.75-.54h.09l.08.05.3.22a36.278,36.278,0,0,1,4.87,3.81Z"/><path class="e" d="M312.53,401.35c-.14,0-.28-.56-.29-1.26s.08-1.27.22-1.27.28.56.3,1.26S312.68,401.34,312.53,401.35Z"/><path class="d" d="M318.39,397.39l4.45,3.82-.02-2.72-4.71-3.52Z"/><path class="e" d="M322.78,398.66l6.42-.22-5.17-3.75-5.92.28Z"/><path class="d" d="M322.78,398.66l.06,2.55,6.27-.41.09-2.36Z"/><path class="d" d="M329.2,398.44a36.287,36.287,0,0,1-5.17-3.32l-.31-.22.17.05a33.066,33.066,0,0,1-5.78,0,32.6,32.6,0,0,1,5.75-.54H324l.08.05.3.22a37.267,37.267,0,0,1,4.82,3.76Z"/><path class="e" d="M322.82,401.21c-.15,0-.28-.56-.3-1.26s.09-1.26.23-1.27.28.56.3,1.26S323,401.21,322.82,401.21Z"/><path class="d" d="M329.1,397.08l4.46,3.82-.02-2.72-4.71-3.52Z"/><path class="e" d="M333.49,398.36l6.42-.22-5.17-3.75-5.91.27Z"/><path class="d" d="M333.49,398.36l.07,2.54,6.27-.4.08-2.36Z"/><path class="d" d="M339.91,398.14a35.871,35.871,0,0,1-5.17-3.33l-.3-.21h.16a32.9,32.9,0,0,1-5.77,0,32.609,32.609,0,0,1,5.75-.54h.09l.07.05.3.21A35.22,35.22,0,0,1,339.91,398.14Z"/><path class="e" d="M333.53,400.9c-.14,0-.27-.56-.29-1.25s.08-1.27.23-1.27.27.56.29,1.25S333.68,400.9,333.53,400.9Z"/><path class="d" d="M339.97,396.81l4.45,3.82-.02-2.72-4.71-3.52Z"/><path class="e" d="M344.36,398.09l6.42-.22-5.17-3.75-5.92.27Z"/><path class="d" d="M344.36,398.09l.06,2.54,6.27-.4.09-2.36Z"/><path class="d" d="M350.78,397.87a35.865,35.865,0,0,1-5.17-3.33l-.31-.21h.17a33.069,33.069,0,0,1-5.78,0,32.759,32.759,0,0,1,5.75-.54h.17l.3.21A36.8,36.8,0,0,1,350.78,397.87Z"/><path class="e" d="M344.4,400.63c-.14,0-.28-.56-.29-1.25s.08-1.27.22-1.27.28.56.3,1.25S344.55,400.63,344.4,400.63Z"/><path class="d" d="M350.35,396.33l4.45,3.82-.02-2.72-4.71-3.53Z"/><path class="e" d="M354.74,397.6l6.42-.22-5.17-3.75-5.92.27Z"/><path class="d" d="M354.74,397.6l.06,2.55,6.27-.41.09-2.36Z"/><path class="d" d="M361.16,397.38a35.66,35.66,0,0,1-5.17-3.32l-.31-.22.16.05a34.158,34.158,0,0,1-5.77,0,32.607,32.607,0,0,1,5.75-.54h.09l.07.05.31.22a36.28,36.28,0,0,1,4.87,3.76Z"/><path class="e" d="M354.78,400.15c-.15,0-.28-.56-.3-1.26s.09-1.26.23-1.27.28.56.3,1.26S354.92,400.14,354.78,400.15Z"/><path class="d" d="M360.49,395.75l4.45,3.81-.02-2.72-4.71-3.52Z"/><path class="e" d="M364.88,397.02l6.42-.22-5.17-3.75-5.92.27Z"/><path class="d" d="M364.88,397.02l.06,2.54,6.27-.4.09-2.36Z"/><path class="d" d="M371.3,396.8a35.869,35.869,0,0,1-5.17-3.33l-.31-.21h.17a33.066,33.066,0,0,1-5.78,0,32.759,32.759,0,0,1,5.75-.54h.09l.08.05.3.21a36.8,36.8,0,0,1,4.87,3.82Z"/><path class="e" d="M364.92,399.56c-.14,0-.28-.56-.29-1.25s.08-1.27.23-1.27.27.56.29,1.25S365.07,399.56,364.92,399.56Z"/><path class="d" d="M405.81,391.62l-89.92,4.89L303.95,407.8l-23.01-20.17v5.85l23.84,22.85,13.16-12.8,89.24-5.32Z"/><path class="d" d="M304.78,416.33l81.24-4.76,21.16-13.36-91.39,3.58Z"/><path class="e" d="M407.18,398.21a1.14,1.14,0,0,1-.27,0l-.82.08-3.13.23-11.52.77-38,2.35L318,403.73l.12-.06-9.68,9.3-2.66,2.51-.7.64a1.33,1.33,0,0,1-.25.21,2.218,2.218,0,0,1,.21-.25l.66-.68,2.59-2.59,9.56-9.42.05-.05h.08l35.45-2.18,38-2.19,11.53-.6,3.14-.14h.81Z"/><path class="e" d="M317.94,403.53a25.151,25.151,0,0,1-2.05-7A25.419,25.419,0,0,1,317.94,403.53Z"/><path class="e" d="M417.18,253.35l-80.7-15.45a4.55,4.55,0,0,1-3.62-5.32l26-135.68a6.47,6.47,0,0,1,7.57-5.14l76.94,14.73a6.46,6.46,0,0,1,5.13,7.56l-26,135.68a4.55,4.55,0,0,1-5.32,3.62Z"/><g class="g"><path class="f" d="M417.12,253.33l-80.71-15.45a4.55,4.55,0,0,1-3.61-5.33l26-135.68a6.47,6.47,0,0,1,7.56-5.13l76.95,14.73a6.47,6.47,0,0,1,5.13,7.56l-26,135.68A4.55,4.55,0,0,1,417.12,253.33Z"/></g><path class="e" d="M410.15,252l-80.7-15.45a4.53,4.53,0,0,1-3.61-5.32l26-135.68a6.45,6.45,0,0,1,7.56-5.13l76.95,14.72a6.48,6.48,0,0,1,5.13,7.57l-26,135.68a4.55,4.55,0,0,1-5.33,3.61Z"/><rect class="e" width="30.78" height="13.6" rx="2.42" transform="matrix(0.982, 0.188, -0.188, 0.982, 343.535, 205.122)"/><g class="h"><rect class="f" width="30.78" height="13.6" rx="2.42" transform="matrix(0.982, 0.188, -0.188, 0.982, 343.535, 205.122)"/></g><rect class="b" width="30.61" height="78.03" transform="matrix(0.188, -0.982, 0.982, 0.188, 351.528, 135.177)"/><path class="d" d="M428.14,149.84l.09-.54c.07-.36.17-.88.29-1.56.26-1.37.64-3.38,1.12-6l4.16-22,.08.1-76.64-14.63h0l.15-.1c-2,10.51-4,20.67-5.76,30.06l-.1-.15,54.92,10.57,15.95,3.09,4.27.84,1.1.21.38.09-.37-.07-1.09-.2-4.25-.8-15.93-3-55-10.47h-.13v-.13c1.79-9.39,3.73-19.55,5.75-30.06v-.13h.13l76.63,14.71h.09v.09c-1.8,9.33-3.26,16.85-4.27,22-.5,2.58-.89,4.58-1.16,5.94l-.3,1.54Z"/><rect class="e" width="13.26" height="13.26" rx="2.08" transform="matrix(0.982, 0.188, -0.188, 0.982, 353.467, 147.993)"/><g class="h"><rect class="f" width="13.26" height="13.26" rx="2.08" transform="matrix(0.982, 0.188, -0.188, 0.982, 353.467, 147.993)"/></g><rect class="d" width="13.26" height="13.26" rx="2.08" transform="matrix(0.982, 0.188, -0.188, 0.982, 351.464, 147.612)"/><path class="i" d="M358.19,152.75l-1,5.43-1.26-.24.85-4.42-1.09-.21.19-1Z"/><rect class="e" width="13.26" height="13.26" rx="2.08" transform="matrix(0.982, 0.188, -0.188, 0.982, 371.638, 151.478)"/><g class="h"><rect class="f" width="13.26" height="13.26" rx="2.08" transform="matrix(0.982, 0.188, -0.188, 0.982, 371.638, 151.478)"/></g><rect class="d" width="13.237" height="13.237" rx="2.076" transform="matrix(0.982, 0.19, -0.19, 0.982, 368.538, 151.469)"/><path class="i" d="M377.48,161l-.2,1-4.1-.78.16-.82,2.47-1.57c.57-.37.71-.63.76-.9.08-.42-.17-.73-.74-.84a1.36,1.36,0,0,0-1.23.33l-.8-.76a2.54,2.54,0,0,1,2.35-.6c1.2.23,1.89,1,1.7,2a2.2,2.2,0,0,1-1.23,1.54l-1.48.94Z"/><rect class="e" width="13.26" height="13.26" rx="2.08" transform="matrix(0.982, 0.188, -0.188, 0.982, 390.475, 155.076)"/><g class="h"><rect class="f" width="13.26" height="13.26" rx="2.08" transform="matrix(0.982, 0.188, -0.188, 0.982, 390.475, 155.076)"/></g><rect class="d" width="13.26" height="13.26" rx="2.08" transform="matrix(0.982, 0.188, -0.188, 0.982, 388.463, 154.694)"/><path class="i" d="M396.39,164c-.18.91-1.05,1.62-2.59,1.32a3.8,3.8,0,0,1-2-1l.67-.87a2.75,2.75,0,0,0,1.46.79c.63.12,1.07-.06,1.15-.5s-.17-.73-.89-.87l-.57-.11.16-.83,1.36-1-2.31-.44.19-1,3.8.73-.16.82-1.49,1.16a1.57,1.57,0,0,1,1.22,1.8Z"/><rect class="e" width="13.26" height="13.26" rx="2.08" transform="matrix(0.982, 0.188, -0.188, 0.982, 409.3, 158.693)"/><g class="h"><rect class="f" width="13.26" height="13.26" rx="2.08" transform="matrix(0.982, 0.188, -0.188, 0.982, 409.3, 158.693)"/></g><rect class="d" width="13.26" height="13.26" rx="2.08" transform="matrix(0.982, 0.188, -0.188, 0.982, 407.337, 158.311)"/><rect class="i" width="0.51" height="5.92" transform="matrix(0.188, -0.982, 0.982, 0.188, 409.651, 165.515)"/><path class="i" d="M414,163.46a1,1,0,1,1-.76-1.12A1,1,0,0,1,414,163.46Z"/><path class="i" d="M413,168.53a1,1,0,1,1-.809-.894A1,1,0,0,1,413,168.53Z"/><g class="h"><path class="f" d="M359,182.32l-10.31-2a1.38,1.38,0,0,1-1.1-1.61l2-10.32a1.36,1.36,0,0,1,1.61-1.09l10.32,2a1.36,1.36,0,0,1,1.09,1.62l-2,10.31a1.39,1.39,0,0,1-1.61,1.09Z"/></g><rect class="d" width="13.26" height="13.26" rx="2.08" transform="matrix(0.982, 0.188, -0.188, 0.982, 347.811, 166.695)"/><path class="i" d="M355.31,176.43l-.89-.17-.22,1.14-1.22-.24.22-1.14-2.93-.56.16-.84,3.22-3,1.32.26-3,2.81,1.46.28.2-1,1.18.23-.19,1,.88.17Z"/><rect class="e" width="13.26" height="13.26" rx="2.08" transform="matrix(0.982, 0.188, -0.188, 0.982, 367.985, 170.562)"/><g class="h"><rect class="f" width="13.26" height="13.26" rx="2.08" transform="matrix(0.982, 0.188, -0.188, 0.982, 367.985, 170.562)"/></g><rect class="d" width="13.26" height="13.26" rx="2.08" transform="matrix(0.982, 0.188, -0.188, 0.982, 365.982, 170.18)"/><path class="i" d="M373.36,179.29c-.19,1-1.05,1.67-2.6,1.37a3.69,3.69,0,0,1-2-1l.68-.86a2.64,2.64,0,0,0,1.45.78c.62.12,1.06-.07,1.15-.51s-.15-.76-1.13-1l-1.39-.26.86-3,3.32.64-.2,1-2.26-.44-.28,1,.44.08C373,177.49,373.54,178.33,373.36,179.29Z"/><rect class="e" width="13.26" height="13.26" rx="2.08" transform="matrix(0.982, 0.188, -0.188, 0.982, 386.82, 174.169)"/><g class="h"><rect class="f" width="13.26" height="13.26" rx="2.08" transform="matrix(0.982, 0.188, -0.188, 0.982, 386.82, 174.169)"/></g><rect class="d" width="13.26" height="13.26" rx="2.08" transform="matrix(0.982, 0.188, -0.188, 0.982, 384.809, 173.777)"/><path class="i" d="M392.57,183a1.9,1.9,0,0,1-2.4,1.42c-1.5-.29-2.25-1.41-1.91-3.16a2.68,2.68,0,0,1,3.33-2.39,3.05,3.05,0,0,1,1.44.66l-.65.83a1.8,1.8,0,0,0-1-.46,1.46,1.46,0,0,0-1.83,1.28,1.89,1.89,0,0,1,1.43-.23,1.75,1.75,0,0,1,1.59,2.05Zm-1.23-.17a.83.83,0,0,0-.77-1,.86.86,0,0,0-1.09.64c-.09.46.19.87.8,1a.82.82,0,0,0,1.06-.68Z"/><rect class="e" width="13.26" height="13.26" rx="2.08" transform="matrix(0.982, 0.188, -0.188, 0.982, 405.647, 177.776)"/><g class="h"><rect class="f" width="13.26" height="13.26" rx="2.08" transform="matrix(0.982, 0.188, -0.188, 0.982, 405.647, 177.776)"/></g><rect class="d" width="13.26" height="13.26" rx="2.08" transform="matrix(0.982, 0.188, -0.188, 0.982, 403.635, 177.394)"/><rect class="i" width="5.92" height="0.51" transform="matrix(0.836, -0.549, 0.549, 0.836, 406.307, 186.538)"/><rect class="i" width="0.51" height="5.92" transform="matrix(0.827, -0.562, 0.562, 0.827, 407.051, 182.814)"/><rect class="e" width="13.26" height="13.26" rx="2.08" transform="matrix(0.982, 0.188, -0.188, 0.982, 346.198, 186.008)"/><g class="h"><rect class="f" width="13.26" height="13.26" rx="2.08" transform="matrix(0.982, 0.188, -0.188, 0.982, 346.198, 186.008)"/></g><rect class="d" width="13.26" height="13.26" rx="2.08" transform="matrix(0.982, 0.188, -0.188, 0.982, 344.185, 185.627)"/><path class="i" d="M351.78,190.93l-.15.81-2.9,4.23-1.37-.26,2.79-4-1.8-.34-.17.88-1.11-.21.36-1.91Z"/><rect class="e" width="13.26" height="13.26" rx="2.08" transform="matrix(0.982, 0.188, -0.188, 0.982, 364.36, 189.481)"/><g class="h"><rect class="f" width="13.26" height="13.26" rx="2.08" transform="matrix(0.982, 0.188, -0.188, 0.982, 364.36, 189.481)"/></g><rect class="d" width="13.26" height="13.26" rx="2.08" transform="matrix(0.982, 0.188, -0.188, 0.982, 362.349, 189.09)"/><path class="i" d="M370.15,198.44c-.2,1-1.23,1.49-2.61,1.23s-2.16-1.08-2-2.11a1.39,1.39,0,0,1,1.06-1.12,1.28,1.28,0,0,1-.41-1.24c.18-.95,1.15-1.39,2.38-1.15s2,1,1.81,1.95a1.3,1.3,0,0,1-.85,1A1.41,1.41,0,0,1,370.15,198.44Zm-1.26-.28c.09-.49-.25-.86-.88-1s-1.06.11-1.16.59.24.85.86,1,1.08-.11,1.18-.59Zm-1.42-2.66c-.08.41.19.72.71.82s.9-.09,1-.5-.21-.75-.73-.85-.9.1-.98.53Z"/><rect class="e" width="13.26" height="13.26" rx="2.08" transform="matrix(0.982, 0.188, -0.188, 0.982, 383.197, 193.09)"/><g class="h"><rect class="f" width="13.26" height="13.26" rx="2.08" transform="matrix(0.982, 0.188, -0.188, 0.982, 383.197, 193.09)"/></g><rect class="d" width="13.26" height="13.26" rx="2.08" transform="matrix(0.982, 0.188, -0.188, 0.982, 381.174, 192.707)"/><path class="i" d="M389,200.75a2.69,2.69,0,0,1-3.32,2.39,3,3,0,0,1-1.44-.66l.64-.83a1.87,1.87,0,0,0,1,.46,1.47,1.47,0,0,0,1.83-1.29,1.87,1.87,0,0,1-1.44.23A1.75,1.75,0,0,1,384.7,199a1.89,1.89,0,0,1,2.4-1.41C388.61,197.88,389.35,199,389,200.75Zm-1.22-1.22c.09-.46-.19-.87-.79-1a.82.82,0,0,0-1.06.64.83.83,0,0,0,.76,1,.86.86,0,0,0,1.1-.64Z"/><rect class="e" width="13.26" height="13.26" rx="2.08" transform="matrix(0.982, 0.188, -0.188, 0.982, 402.022, 196.697)"/><g class="h"><rect class="f" width="13.26" height="13.26" rx="2.08" transform="matrix(0.982, 0.188, -0.188, 0.982, 402.022, 196.697)"/></g><rect class="d" width="13.26" height="13.26" rx="2.08" transform="matrix(0.982, 0.188, -0.188, 0.982, 400.021, 196.306)"/><rect class="i" width="0.51" height="5.92" transform="translate(402.336 203.737) rotate(-79.17)"/><rect class="e" width="13.26" height="13.26" rx="2.08" transform="matrix(0.982, 0.188, -0.188, 0.982, 379.54, 212.181)"/><g class="h"><rect class="f" width="13.26" height="13.26" rx="2.08" transform="matrix(0.982, 0.188, -0.188, 0.982, 379.54, 212.181)"/></g><rect class="d" width="13.26" height="13.26" rx="2.08" transform="matrix(0.982, 0.188, -0.188, 0.982, 377.529, 211.8)"/><rect class="f" width="13.237" height="13.237" rx="2.076" transform="matrix(0.982, 0.19, -0.19, 0.982, 397.09, 216.086)"/><g class="g"><rect class="f" width="13.237" height="13.237" rx="2.076" transform="matrix(0.982, 0.19, -0.19, 0.982, 397.09, 216.086)"/></g><rect class="f" width="13.26" height="13.26" rx="2.08" transform="matrix(0.982, 0.188, -0.188, 0.982, 396.354, 215.407)"/><rect class="i" width="0.51" height="5.92" transform="translate(398.829 222.108) rotate(-79.17)"/><rect class="i" width="0.51" height="5.92" transform="translate(398.399 224.325) rotate(-79.17)"/><rect class="d" width="32.01" height="13.6" rx="2.5" transform="matrix(0.982, 0.188, -0.188, 0.982, 339.871, 204.412)"/><path class="i" d="M353.19,213.6c.35-1.8,1.53-2.62,2.87-2.37s2.13,1.47,1.79,3.26-1.52,2.62-2.87,2.36S352.85,215.39,353.19,213.6Zm3.39.65c.24-1.24-.1-1.83-.72-1.95s-1.16.31-1.39,1.54.1,1.83.72,1.95,1.16-.31,1.39-1.54Z"/><rect class="i" width="5.92" height="0.51" transform="matrix(0.203, -0.979, 0.979, 0.203, 381.967, 222.379)"/><rect class="i" width="0.51" height="5.92" transform="translate(379.836 219.207) rotate(-79.17)"/><path class="d" d="M385.21,126.19l-1.56,8.11-.38-.07,1.48-7.76-2-.39.07-.36Z"/><path class="d" d="M391.19,135.37l-.07.36-5.5-1,.06-.28,4.15-2.83c1.18-.81,1.5-1.36,1.63-2,.21-1.08-.41-1.92-1.83-2.19a3,3,0,0,0-2.62.51l-.22-.31a3.5,3.5,0,0,1,2.92-.56c1.56.3,2.39,1.29,2.14,2.6-.15.76-.52,1.39-1.79,2.25l-3.78,2.58Z"/><path class="d" d="M397.79,134.68c-.26,1.34-1.39,2.11-3.18,1.77a3.66,3.66,0,0,1-2.6-1.67l.26-.23a3.42,3.42,0,0,0,2.4,1.54c1.55.29,2.51-.32,2.73-1.49s-.41-2.08-2.13-2.41l-.45-.09.05-.28L398,129l-4.48-.85.07-.36,5,1-.05.28-3.18,2.82C397.29,132.21,398.05,133.32,397.79,134.68Z"/><path class="d" d="M405.78,136.11l-1.76-.34-.45,2.35-.38-.08.45-2.34-4.67-.89.06-.28,5.54-4.64.45.09-5.47,4.58,4.15.79.4-2.06.38.07-.39,2.07,1.76.33Z"/><path class="d" d="M407.3,138.47a2.07,2.07,0,0,1-.15.41l-.72,1.48-.3-.06.67-1.53a.39.39,0,0,1-.26-.45A.38.38,0,0,1,407,138a.4.4,0,0,1,.3.47Z"/><path class="d" d="M415.52,138l-1.76-.33-.45,2.34-.38-.07.45-2.35-4.67-.89.06-.28,5.54-4.63.45.08-5.47,4.58,4.15.8.4-2.07.38.08-.4,2.06,1.77.34Z"/><path class="d" d="M421.54,139.18c-.25,1.32-1.36,2.16-3.21,1.81a3.75,3.75,0,0,1-2.59-1.66l.28-.24a3.38,3.38,0,0,0,2.38,1.54c1.59.3,2.53-.38,2.75-1.53s-.36-2.14-2.68-2.58l-1.58-.3,1.16-3.75,4.19.8-.07.36-3.86-.73-.95,3,1.26.24C421.1,136.65,421.82,137.74,421.54,139.18Z"/><path class="f" d="M239.71,201.07l-11.64,14.46-48.56,13.52,7.25,78.44c2.24,30.75,5.39,38.28,7.55,58.73v16.66H332.24L351.5,223.65l-47.57-10.94L293.7,201.07Z"/><path class="i" d="M237.65,229.08l5.94,78.55,6.36,39.87,46.62-130.12-37.61,44.58Z"/><path class="d" d="M249.27,353.11a3.336,3.336,0,0,1,.19-.38l.58-1.1,2.29-4.18,8.5-15.33c7.23-12.94,17.2-30.79,28.22-50.49l15.38-27.4.05.3-6.69-5.65-.25-.21.28-.16,9.54-5.63-.1.2c-1-9.29-1.89-16.87-2.49-22.16-.28-2.61-.5-4.66-.65-6.08-.07-.67-.12-1.2-.15-1.58a2.468,2.468,0,0,1,0-.55,2.285,2.285,0,0,0,.1.54l.21,1.58c.18,1.42.43,3.46.76,6.06.64,5.29,1.55,12.86,2.66,22.14v.13l-.11.07-9.52,5.67v-.37l6.71,5.63.16.13-.1.18L289.5,281.88,261.15,332.3l-8.64,15.25c-1,1.78-1.82,3.17-2.38,4.14l-.63,1.06a2.386,2.386,0,0,1-.23.36Z"/><path class="d" d="M249.27,353.11a2.3,2.3,0,0,1-.13-.37c-.09-.27-.2-.63-.34-1.1-.3-1-.73-2.41-1.27-4.23-1.08-3.71-2.64-9-4.56-15.59s-4.24-14.4-6.65-23.17c-2.24-8.8-4.39-18.53-6.65-28.75-3.08-14-5.86-27.14-8.17-38.25v-.19l.19-.06,6.35-2.23v.38l-7.73-4.1-.15-.07.06-.15c2.43-6.11,4.39-11,5.76-14.45l1.58-3.9.42-1a2.172,2.172,0,0,1,.16-.34,1.692,1.692,0,0,1-.11.36l-.38,1-1.49,3.94c-1.32,3.44-3.23,8.38-5.6,14.51l-.08-.23,7.76,4.05.42.23-.45.16-6.34,2.25.14-.26c2.36,11.1,5.16,24.21,8.24,38.23,2.26,10.21,4.39,19.95,6.61,28.74,2.37,8.73,4.69,16.58,6.54,23.18l4.4,15.65,1.17,4.26c.12.46.22.83.29,1.11a2.22,2.22,0,0,1,.01.39Z"/><path class="f" d="M179.51,229.05s-10.68,5.2-18.21,29.14c-5.46,17.4-27.7,77.3-27.7,77.3L109,328.31s-18.12,22.57-14,30.44,34.1,24.13,34.1,24.13h35.13a28.83,28.83,0,0,0,10-14.63l20.08-67.65Z"/><path class="f" d="M351.5,223.65A43.28,43.28,0,0,1,367,239.53c6.13,10.91,55.09,90.59,59.15,109.48,6.06,28.22-6.05,33.85-6.05,33.85H403.14l-41.88-.24L356,349.85l18.62-4-34.51-38.26-2.28,3.9-6.75-54.62Z"/><path class="d" d="M184,262c.14,0,1.39,13.53,2.79,30.26s2.4,30.29,2.26,30.31-1.39-13.54-2.79-30.27S183.8,262,184,262Z"/><path class="d" d="M349,246.79c.14,0-1.79,16.93-4.31,37.76s-4.68,37.72-4.83,37.7,1.79-16.92,4.31-37.76S348.89,246.77,349,246.79Z"/><path class="d" d="M361.77,382.88s.17-.21.48-.6a21.222,21.222,0,0,0,1.25-1.79,29.382,29.382,0,0,0,3.25-7.33,35.509,35.509,0,0,0,1.16-5.42,25.268,25.268,0,0,0,.28-6.32,14.93,14.93,0,0,0-2.34-6.49,17.43,17.43,0,0,0-5.31-5.19l-.44-.27-.56-.3.6-.18A131.58,131.58,0,0,1,386,344.16c3.35-.28,6.07-.41,7.94-.47h2.16a4.408,4.408,0,0,1,.76,0,3.46,3.46,0,0,1-.75.08l-2.16.14c-1.87.12-4.58.31-7.92.64a140.7,140.7,0,0,0-25.75,5v-.48l.48.28a17.91,17.91,0,0,1,5.46,5.36,15.36,15.36,0,0,1,2.39,6.72,25.451,25.451,0,0,1-.33,6.43,35.652,35.652,0,0,1-1.24,5.47,27.458,27.458,0,0,1-3.43,7.33,16.386,16.386,0,0,1-1.34,1.75,2.668,2.668,0,0,1-.5.47Z"/><path class="d" d="M249.39,382.88c-.14,0-.26-6.74-.26-15.06s.12-15.07.26-15.07.27,6.74.27,15.07S249.54,382.88,249.39,382.88Z"/><path class="d" d="M328,316a6.878,6.878,0,0,1,0-.71c0-.5,0-1.16,0-2,0-1.78-.05-4.3-.09-7.48l.16.15-41.73.11.26-.26h0V316l-.25-.25,29.7.11,8.79.08H328a4.141,4.141,0,0,1-.79,0h-2.32l-8.74.08-29.88.11H286V305.86h0l.26-.26,41.73.1h.15v.16c0,3.22-.06,5.77-.08,7.57v2a5.008,5.008,0,0,1-.06.57Z"/><path class="d" d="M184,257.46c-.14,0-1.51-5.79-3.06-13s-2.68-13.08-2.54-13.11,1.51,5.79,3.06,13S184.09,257.43,184,257.46Z"/><g class="j"><path class="f" d="M251.59,348.99l59.55-91.36-8.59-8.3,4.91-6.27-9.52,5.64,6.7,5.65Z"/></g><g class="j"><path class="f" d="M104.46,352.05v5.07l67.6.22v-5.29Z"/></g><path class="d" d="M186.84,165.42a10,10,0,0,0,9.41-4.2c-2.43.37-5,.72-7.23-.4s-3.42-4.33-1.71-6.09c1.34-1.37,3.54-1.14,5.46-1.28a11.78,11.78,0,0,0,10-7.7c1.62-4.65.14-9.72-.44-14.61A40.24,40.24,0,0,1,219.2,94l30.62-17.69c11.1,14.21,14.56,33.36,12.26,51.25s-9.89,34.7-19,50.26a60.607,60.607,0,0,1-9.24,12.71c-3.75,3.71-8.53,6.51-13.76,7.06a14.2,14.2,0,0,1,2.27-12.82,30.87,30.87,0,0,1-22.77-8.15l6.56-5a23.93,23.93,0,0,1-19.3-6.2Z"/><path class="k" d="M304.75,115.49c-.54-12.8-8.51-23.51-20.82-27l-38.38-11c-16.66-2.28-28.4,18-30,34.69-1.74,18.6-3,38.24-1.27,52.21,3.58,28.09,24.89,32.31,24.89,32.31s-.71,25.32-.93,33.48L257.79,271l37.83-52.22,9.22-103C304.86,115.35,304.78,116.13,304.75,115.49Z"/><path class="d" d="M223,135.36a3.58,3.58,0,0,0,3.35,3.72,3.42,3.42,0,0,0,3.79-3.12,3.58,3.58,0,0,0-3.34-3.72,3.44,3.44,0,0,0-3.8,3.12Z"/><path class="d" d="M219.46,123.26c.43.49,3.21-1.44,7.07-1.31s6.62,2.14,7.05,1.68c.22-.2-.21-1.06-1.42-2a9.81,9.81,0,0,0-5.63-1.93,9.46,9.46,0,0,0-5.64,1.63C219.67,122.22,219.25,123.05,219.46,123.26Z"/><path class="d" d="M255.58,135.36a3.57,3.57,0,0,0,3.34,3.72,3.43,3.43,0,0,0,3.8-3.12,3.6,3.6,0,0,0-3.35-3.72,3.42,3.42,0,0,0-3.79,3.12Z"/><path class="d" d="M256.1,124.31c.43.48,3.21-1.44,7.07-1.31s6.63,2.14,7.06,1.68c.21-.2-.21-1.06-1.42-2a9.83,9.83,0,0,0-5.63-1.92,9.47,9.47,0,0,0-5.65,1.63C256.32,123.26,255.89,124.1,256.1,124.31Z"/><path class="d" d="M243.17,154.27c0-.22-2.36-.71-6.23-1.32-1-.14-1.91-.36-2.05-1a5.769,5.769,0,0,1,.75-2.9l3.14-7.41c4.37-10.56,7.57-19.25,7.15-19.42s-4.32,8.24-8.7,18.8l-3,7.46c-.41,1.11-1.09,2.36-.63,3.85a2.45,2.45,0,0,0,1.58,1.49,7.08,7.08,0,0,0,1.66.29C240.73,154.4,243.15,154.49,243.17,154.27Z"/><path class="l" d="M276.56,187.82s-9.65,18.94-37.55,15.47l.18-6.58a70.43,70.43,0,0,0,37.37-8.89Z"/><path class="d" d="M257.71,111.87c.35,1.06,4.22.68,8.73,1.36s8.13,2,8.76,1.11c.28-.44-.33-1.45-1.77-2.51A15.32,15.32,0,0,0,260.11,110C258.42,110.56,257.56,111.36,257.71,111.87Z"/><path class="d" d="M221.05,111.5c.66.9,3.34.07,6.54.12s5.88.77,6.54-.12c.28-.44-.12-1.33-1.27-2.2a9.45,9.45,0,0,0-10.54,0C221.17,110.17,220.77,111.06,221.05,111.5Z"/><path class="l" d="M257.65,161.8a5,5,0,0,0-5.1-4,5.3,5.3,0,0,0-4.13,2.77,6.51,6.51,0,0,0-.37,5l.07.36a5.75,5.75,0,0,0,6.42,1.56,5.38,5.38,0,0,0,3.11-5.69Z"/><path class="d" d="M245.32,166c0-.59,3.91-.29,6.94-3.41s2.92-7.3,3.47-7.28c.25,0,.68,1,.59,2.74a9.71,9.71,0,0,1-2.67,6.1,8.45,8.45,0,0,1-5.8,2.6C246.21,166.76,245.28,166.25,245.32,166Z"/><path class="d" d="M291.85,71c-4.32-6.86-14.52-14-22.51-15.42-9.1-1.59-14.58,0-20.57,5.44,0,0-4.66,4.49-9,5.34s-8,.13-13.23,2.79c-7.11,3.64-10.23,13.15-13.53,20.43-4.09,9-9.93,17.37-12.6,26.94s-1.25,21.31,6.81,27.11c-1.38-7.33-2.54-15.39.48-22a19.36,19.36,0,0,0,.49,7.94c1.51-4.31,3.1-8.75,6.22-12.07,3-3.13,7-5,10.06-8.05,4.46-4.48,6.52-11.3,11.94-14.55,5.63-3.38,12.77-1.69,19.34-1.66a37.06,37.06,0,0,0,28.82-13.89l-1.64-.13A45.849,45.849,0,0,0,291.85,71Z"/><path class="d" d="M333,139.34c-2.51-8.22-6.92-15.75-9.68-23.89-2.68-7.93-3.79-16.41-7.36-24-4.79-10.2-13.76-23.4-27.73-22.67l-.95.84A29.86,29.86,0,0,0,273.2,71.3L273,82.21l-2.68,2.35c1.12,2.16,2.19,4.25,3.21,6.31a68.206,68.206,0,0,0,3.57,12,31,31,0,0,0,6.7,10.19c24.06,57.61,2.23,61.24,13.08,94.26l6.81-18.9a33.64,33.64,0,0,0,13.49-14.53l1.2,6a34.7,34.7,0,0,0,9.4-21.45l3.13,5.74C335.82,157.12,335.47,147.57,333,139.34Z"/><path class="k" d="M291.91,137.24c.37-.94,17.77-6.66,17.47,11.65-.28,17.78-18.12,13.77-18.14,13.26S291.91,137.24,291.91,137.24Z"/><path class="l" d="M296.85,155.52c.08-.06.31.22.83.47a3.1,3.1,0,0,0,2.31.09c1.89-.65,3.53-3.6,3.68-6.81a10.161,10.161,0,0,0-.78-4.45,3.56,3.56,0,0,0-2.29-2.42,1.58,1.58,0,0,0-1.84.81c-.25.49-.14.85-.24.88s-.37-.3-.22-1A2,2,0,0,1,299,142a2.34,2.34,0,0,1,1.72-.42,4.35,4.35,0,0,1,3.18,2.82,10.58,10.58,0,0,1,1,5c-.18,3.58-2.08,6.9-4.67,7.59a3.32,3.32,0,0,1-2.82-.52C296.88,156,296.79,155.55,296.85,155.52Z"/><path class="i" d="M298.78,158.71a3.51,3.51,0,1,1-.83.24"/><path class="d" d="M298,159a4.84,4.84,0,0,0-1.67,2.35,3,3,0,0,0,.61,2.81,3.11,3.11,0,0,0,5.52-1.59,3,3,0,0,0-1-2.71,4.84,4.84,0,0,0-2.66-1.1,1.729,1.729,0,0,1,.84-.17,3.74,3.74,0,0,1,2.2.84,3.55,3.55,0,0,1,1.33,3.25,3.82,3.82,0,0,1-6.83,2,3.56,3.56,0,0,1-.59-3.46,3.71,3.71,0,0,1,1.41-1.88C297.62,159,297.93,158.91,298,159Z"/><path class="e" d="M271.7,89c.35.14,2-5.89,6.95-11.48s10.62-8.1,10.43-8.44c-.05-.12-1.55.3-3.75,1.51A28.83,28.83,0,0,0,272.68,85.1C271.78,87.44,271.56,89,271.7,89Z"/><path class="k" d="M112.26,357.12,99,341.52s-9.31,0-14-4.42-13.27-8.61-9.77-16.53c0,0-4.19-4.89-.82-10.24l.12-1.4s-10.48-4.42-7.45-9.77,8.84-3,8.84-3-11.43-7.73-13.5-9.85c-5.51-5.66.42-9.47,6.55-6.08,10.14,5.61,44.44,21.75,46.76,33.39v5.07s9.55,11.69,9.55,12.39S124.6,349.91,112.26,357.12Z"/><path class="i" d="M45.18,239.56c-.42-.52,52.07,84.1,52.07,84.1l2.39,28.39h81.92L174,319.73s-14.16-38-14-38.41c.31-.86-26.51-43-26.51-43Z"/><path class="d" d="M45.18,239.56l1.6-.05,4.67-.1,17.78-.31,64.22-1h.12l.06.1c7,11.07,14.74,23.2,22.73,36.3,1,1.64,2,3.3,3,5,.24.42.47.85.69,1.3a2.57,2.57,0,0,1,.16.37.46.46,0,0,1,0,.19c0,.13,0,.08,0,.09h0v.09l.21.69c.32.92.65,1.85,1,2.78l4.11,11.3,8.66,23.37h0c2.31,9.8,4.73,20.09,7.19,30.55.14.59.28,1.19.41,1.77l.08.32H99.4v-.22q-1.25-14.9-2.37-28.39v.09L59.32,262.71l-10.5-17.08-2.73-4.5L45.4,240a2,2,0,0,1-.22-.41c1,1.59,20.87,33.53,52.26,84h0v.05q1.14,13.47,2.4,28.39l-.24-.22h81.92l-.26.32c-.13-.58-.27-1.18-.41-1.77-2.46-10.47-4.88-20.75-7.18-30.55h0q-4.41-11.94-8.65-23.38-2.07-5.73-4.1-11.3c-.32-.94-.64-1.87-1-2.8l-.22-.71v-.09a1.1,1.1,0,0,1,0-.18v-.09c-.18-.08.27.06.16,0a.32.32,0,0,0-.14,0c-.07,0,0,.05,0,0h0a.982.982,0,0,0-.13-.31c-.21-.42-.44-.85-.68-1.27-.95-1.69-1.95-3.35-2.94-5-8-13.1-15.68-25.24-22.68-36.32l.19.1-64.31.84-17.75.2H46.78C45.71,239.58,45.18,239.56,45.18,239.56Z"/><path class="d" d="M152.63,283.43a4.882,4.882,0,0,1-.74,0H149.8l-7.71-.15c-6.5-.14-15.49-.39-25.41-.55s-18.92-.14-25.42.06c-3.25.09-5.88.23-7.69.33l-2.1.12a5.786,5.786,0,0,1-.73,0,3.611,3.611,0,0,1,.72-.12l2.09-.21c1.81-.17,4.44-.36,7.7-.5,6.5-.3,15.5-.36,25.43-.22s18.92.47,25.42.71l7.7.32,2.1.1a3.37,3.37,0,0,1,.73.11Z"/><path class="d" d="M162.69,321.11c0,.14-11.6-1.12-25.87-2.83S111,315.08,111,314.93s11.6,1.13,25.88,2.83S162.71,321,162.69,321.11Z"/><path class="k" d="M87.21,326.83l15.33-1c1.61-.11,3.38-.28,4.5-1.44,1.4-1.45.72-4.72-1-5.69l-17.61-4.2"/><path class="l" d="M88.43,314.5a7.692,7.692,0,0,1,1.36.23l3.71.81,12.56,2.94h.06a3.63,3.63,0,0,1,1.47,1.7,5,5,0,0,1,.46,2.24,3.22,3.22,0,0,1-.91,2.25,4.61,4.61,0,0,1-2.06,1.08,24.563,24.563,0,0,1-4.22.43l-7.1.4-4.79.22a10.8,10.8,0,0,1-1.76,0,12.241,12.241,0,0,1,1.75-.21l4.78-.39,7.09-.51a24.367,24.367,0,0,0,4.12-.45,4,4,0,0,0,1.83-1,2.68,2.68,0,0,0,.74-1.89,3.91,3.91,0,0,0-1.65-3.46h.07l-12.52-3.11-3.67-1a8.49,8.49,0,0,1-1.32-.28Z"/><path class="k" d="M94.32,309a75.841,75.841,0,0,1,13.61,3.83,3,3,0,0,1,2,3.52,2.44,2.44,0,0,1-1,1.87,4.87,4.87,0,0,1-2.15.59c-4.41.42-8.64-.18-13-.79s-10.47,0-13,1.34"/><path class="l" d="M80.74,319.36a2.36,2.36,0,0,1,.43-.26,11.14,11.14,0,0,1,1.35-.52,25,25,0,0,1,5.24-.9,31.1,31.1,0,0,1,3.67-.08,40.833,40.833,0,0,1,4.19.43,55.293,55.293,0,0,0,9.52.63,21.606,21.606,0,0,0,2.47-.22,2.34,2.34,0,0,0,1.81-1.14c.57-1.32.37-3.13-.82-3.85a9.682,9.682,0,0,0-1.92-.83l-1.91-.69c-1.24-.43-2.4-.8-3.47-1.12-2.13-.63-3.89-1.06-5.1-1.35a19.286,19.286,0,0,1-1.88-.46,1.46,1.46,0,0,1,.5,0,10.675,10.675,0,0,1,1.42.22c1.23.23,3,.6,5.16,1.2,1.08.29,2.26.65,3.51,1.06l1.93.66a10.249,10.249,0,0,1,2,.87,3,3,0,0,1,1.3,2,4.33,4.33,0,0,1-.29,2.47,2.26,2.26,0,0,1-.93,1,4.269,4.269,0,0,1-1.24.44,21.782,21.782,0,0,1-2.55.24,54.822,54.822,0,0,1-9.61-.68,41.371,41.371,0,0,0-4.14-.47,33.621,33.621,0,0,0-3.63,0,27.367,27.367,0,0,0-5.2.73C81.37,319.08,80.76,319.41,80.74,319.36Z"/><path class="k" d="M76.73,296.3,88.81,303c1.83,1,3.73,2.12,4.82,3.9s1,4.47-.75,5.61c-1.37.9-3.18.56-4.77.16a116.548,116.548,0,0,1-13.29-4.22"/><path class="l" d="M74.82,308.48a10.768,10.768,0,0,1,1.7.53c1.08.36,2.65.89,4.6,1.49s4.29,1.28,6.91,1.93a7.47,7.47,0,0,0,4,.23,2.83,2.83,0,0,0,1.56-1.27,3.9,3.9,0,0,0,.46-2.09,5.36,5.36,0,0,0-2-3.75,18.271,18.271,0,0,0-3.47-2.32l-6.24-3.55-4.19-2.43a13,13,0,0,1-1.5-.95,9.6,9.6,0,0,1,1.6.77l4.27,2.29,6.3,3.45a18.269,18.269,0,0,1,3.58,2.36A7.14,7.14,0,0,1,94,307a5.31,5.31,0,0,1,.65,2.32,4.35,4.35,0,0,1-.53,2.37,3.36,3.36,0,0,1-1.85,1.49,7.79,7.79,0,0,1-4.31-.24c-2.63-.68-5-1.4-6.9-2s-3.5-1.23-4.56-1.65c-.53-.21-.94-.38-1.22-.51A1.64,1.64,0,0,1,74.82,308.48Z"/><path class="k" d="M363.93,380l-5.74-1.63-18.25-1.7-5.11-6.78,3.56-14.64,22.8-5.42C371.73,357.34,368.88,369.82,363.93,380Z"/><path class="k" d="M310.86,343.27a15.82,15.82,0,0,0-6.4.5,8.52,8.52,0,0,0-5.08,6.65c-.59,4.69-.77,8.5-1.11,12.87a4.13,4.13,0,0,0,1.2,3.09c1.43,1.46,4,1,5.52-.44s2.15-3.46,2.86-5.38,1.48-6.53,2.59-6.93c3.18-1.15,7.5,4.32,9.89,1.64l4.33-10.57C318,344,317.58,343.93,310.86,343.27Z"/><path class="l" d="M310.86,343.27h.97l2.75.23,10.1,1h.26l-.1.24-4.29,10.59h0a2.47,2.47,0,0,1-2.08.81,6.62,6.62,0,0,1-2.15-.65,23.886,23.886,0,0,0-4.06-1.77l-.54-.08h-.53a4.827,4.827,0,0,0-.52.11c-.18,0-.22.1-.35.23a7.09,7.09,0,0,0-.9,2.07c-.47,1.51-.77,3.1-1.35,4.68a19.409,19.409,0,0,1-1.86,4.1,6.281,6.281,0,0,1-1.56,1.65,5.279,5.279,0,0,1-2.06.87,4,4,0,0,1-2.22-.2,3.57,3.57,0,0,1-1.64-1.45,4.44,4.44,0,0,1-.67-2c0-.74.09-1.34.12-2,.2-2.6.37-5.08.6-7.39.11-1.16.23-2.27.36-3.34a8.919,8.919,0,0,1,.8-3,8.13,8.13,0,0,1,7.53-4.9,19.2,19.2,0,0,1,2.55,0l.66.07h.22a8.339,8.339,0,0,1-.88,0,20.9,20.9,0,0,0-2.53.05,8.75,8.75,0,0,0-3.8,1,8.51,8.51,0,0,0-3.42,3.83,8.64,8.64,0,0,0-.72,2.94c-.13,1.06-.24,2.18-.34,3.33-.21,2.31-.36,4.78-.54,7.38,0,.64-.13,1.35-.11,1.95a3.74,3.74,0,0,0,.6,1.78,3,3,0,0,0,1.4,1.25,3.51,3.51,0,0,0,1.93.16,4.93,4.93,0,0,0,3.28-2.3,18.21,18.21,0,0,0,1.81-4c.55-1.51.86-3.11,1.34-4.64a7.5,7.5,0,0,1,1-2.25c.09-.08.14-.18.27-.25a.87.87,0,0,1,.33-.15,4.52,4.52,0,0,1,.62-.12h.63l.6.09a23.529,23.529,0,0,1,4.16,1.82,6,6,0,0,0,2,.61,2,2,0,0,0,1.69-.64v.07c1.62-3.91,3.1-7.49,4.38-10.55l.15.26c-4.26-.44-7.7-.86-10.08-1.14l-2.74-.33-.72-.1A.68.68,0,0,1,310.86,343.27Z"/><path class="k" d="M349.34,344.61s-2.27-.7-5.33,1.53c0,0-1.14-5-5.16-6-2.92-.72-6.63,2.28-6.63,2.28s-2.52-5-9.23-2.94c-5.56,1.73-17.21,36.19-18.21,38.5-1.15,2.64,3.56,6,6.16,3.29s11.88-18.1,11.88-18.1l-6.08,21.46a4,4,0,0,0,.06,2.12c.65,2.18,4.95,4.74,8,.63,3.78-5.12,7.63-15.67,7.63-15.67l3.71-8.09S329.19,385,331.71,387s5.75,1.2,8.06-3.84,10.7-21,10.7-21l4-2.1-1.47,5s-7.64,4-5.92,7.56,5.32,2.5,8.86.84,6.61-10,8.5-13.37c1.69-3,1.85-12-5.39-12.35a5.5,5.5,0,0,0-4.14,1.65l-.36.36S353.35,345.33,349.34,344.61Z"/><path class="l" d="M349.34,344.61l.48.1a3.329,3.329,0,0,1,.58.18,4.219,4.219,0,0,1,.78.35,7.74,7.74,0,0,1,3.43,4.53h-.13a5.91,5.91,0,0,1,3.71-2,6.73,6.73,0,0,1,4.92,1.5,8.17,8.17,0,0,1,2.39,5.53,12.57,12.57,0,0,1-.22,3.38,8.342,8.342,0,0,1-.53,1.7c-.25.57-.55,1.06-.81,1.62-1.08,2.18-2.11,4.55-3.43,6.91a23,23,0,0,1-2.31,3.47,8.671,8.671,0,0,1-1.59,1.49,12.179,12.179,0,0,1-2,1,9.68,9.68,0,0,1-4.46.92,3.71,3.71,0,0,1-2.18-1,4.39,4.39,0,0,1-.78-.94l-.3-.53c-.07-.2-.13-.4-.2-.61a3.41,3.41,0,0,1,.49-2.43,8.549,8.549,0,0,1,1.59-1.91,20.821,20.821,0,0,1,4.11-2.9l-.11.13c.45-1.55,1-3.28,1.47-5l.31.26-4,2.1.09-.09-6.17,11.91-3.16,6.27-1.56,3.23a11.111,11.111,0,0,1-2.11,3.05,4.81,4.81,0,0,1-3.46,1.5,4.58,4.58,0,0,1-1.88-.54,4.7,4.7,0,0,1-.82-.55,1.86,1.86,0,0,1-.48-1,12.65,12.65,0,0,1,.07-3.84c.17-1.26.41-2.51.67-3.77,1.08-5,2.51-10,4.1-15.06l.49.19c-1.18,2.56-2.44,5.31-3.71,8.09h0c-.85,2.28-1.84,4.68-2.92,7.07-.79,1.76-1.64,3.5-2.56,5.18-.47.84-1,1.66-1.48,2.47a9.91,9.91,0,0,1-1.87,2.24,4.57,4.57,0,0,1-2.74,1.06,4.94,4.94,0,0,1-2.8-.85,4.15,4.15,0,0,1-1.79-2.31,4.469,4.469,0,0,1-.12-1.46,7.078,7.078,0,0,1,.32-1.39c2-7.11,4-14,5.88-20.71l.46.2c-2.33,3.86-4.66,7.62-7,11.24-1.18,1.81-2.36,3.59-3.62,5.29a7.64,7.64,0,0,1-2.25,2.28,3.76,3.76,0,0,1-3.18,0,4.55,4.55,0,0,1-2.33-2.12,2.92,2.92,0,0,1-.25-1.6c.15-.56.35-1,.51-1.45.69-1.86,1.36-3.7,2-5.5,1.34-3.61,2.66-7.09,4-10.41s2.66-6.5,4-9.5a75,75,0,0,1,4.34-8.35,13.31,13.31,0,0,1,2.77-3.39,2.93,2.93,0,0,1,1-.52l1-.26a10.757,10.757,0,0,1,2-.21,7.08,7.08,0,0,1,6.26,3.53l-.2-.05a12.4,12.4,0,0,1,4.39-2.22,5,5,0,0,1,2.23-.07,5.58,5.58,0,0,1,1.88.81,7.71,7.71,0,0,1,2.37,2.64,11.24,11.24,0,0,1,1.07,2.68h-.11a7.88,7.88,0,0,1,4-1.59,3.38,3.38,0,0,1,1.38.12h-.34a4.762,4.762,0,0,0-1,0,8,8,0,0,0-3.92,1.63l-.08.06v-.1a11.441,11.441,0,0,0-1.09-2.62,7.39,7.39,0,0,0-2.33-2.56,5.21,5.21,0,0,0-1.82-.77,4.93,4.93,0,0,0-2.12.08,12.34,12.34,0,0,0-4.28,2.21l-.13.09-.08-.13a6.82,6.82,0,0,0-6-3.35,10.244,10.244,0,0,0-2,.22l-1,.26a2.68,2.68,0,0,0-.86.47,13.141,13.141,0,0,0-2.68,3.31,74.5,74.5,0,0,0-4.29,8.33c-1.35,3-2.67,6.17-4,9.49s-2.63,6.8-3.95,10.41l-2,5.51a14.352,14.352,0,0,0-.49,1.37,2.48,2.48,0,0,0,.21,1.33,4.14,4.14,0,0,0,2.09,1.88,3.3,3.3,0,0,0,2.8,0,7.341,7.341,0,0,0,2.08-2.14c1.24-1.69,2.42-3.47,3.59-5.27,2.34-3.62,4.65-7.38,7-11.24l1-1.61-.51,1.8-5.86,20.71a6.549,6.549,0,0,0-.3,1.3,3.75,3.75,0,0,0,.11,1.29,3.57,3.57,0,0,0,1.57,2,4.37,4.37,0,0,0,2.49.76,4,4,0,0,0,2.43-.95,9.121,9.121,0,0,0,1.76-2.12c.51-.79,1-1.6,1.46-2.43.92-1.67,1.75-3.39,2.55-5.14,1.06-2.38,2.05-4.78,2.89-7h0c1.28-2.77,2.54-5.53,3.71-8.09l.49.19c-1.59,5-3,10-4.1,15-.26,1.24-.49,2.49-.66,3.73a12.2,12.2,0,0,0-.09,3.66,1.39,1.39,0,0,0,.32.69,4.6,4.6,0,0,0,.73.48,3.94,3.94,0,0,0,1.66.49,4.32,4.32,0,0,0,3.1-1.36c1.71-1.66,2.46-4,3.57-6.14l3.17-6.27q3.21-6.15,6.2-11.9v-.06h.07l4-2.09.46-.25-.15.51c-.51,1.75-1,3.48-1.47,5v.09h-.08a20.669,20.669,0,0,0-4,2.83,8.168,8.168,0,0,0-1.52,1.81,3,3,0,0,0-.44,2.13,3.66,3.66,0,0,0,3.11,2.75,9.24,9.24,0,0,0,4.26-.88,12.309,12.309,0,0,0,1.93-.93,7.591,7.591,0,0,0,1.52-1.42,22.253,22.253,0,0,0,2.29-3.4c1.32-2.34,2.36-4.69,3.44-6.88.26-.55.59-1.09.82-1.61a7.361,7.361,0,0,0,.52-1.63,12.379,12.379,0,0,0,.23-3.3,7.84,7.84,0,0,0-2.28-5.37,6.53,6.53,0,0,0-4.73-1.48,5.79,5.79,0,0,0-3.62,1.94l-.09.1v-.14a7.79,7.79,0,0,0-3.33-4.5,8.07,8.07,0,0,0-1.86-.87Z"/><path class="l" d="M339.89,353.11c.16,0-.49,3.12-1.92,6.72-.69,1.8-1.38,3.4-1.89,4.55a8.661,8.661,0,0,1-.91,1.84,43.612,43.612,0,0,1,2.31-6.58c.7-1.79,1.29-3.42,1.7-4.61A10.061,10.061,0,0,1,339.89,353.11Z"/><path class="l" d="M328,351c.14.07-1.14,2.89-2.56,6.43a42.932,42.932,0,0,1-2.77,6.34,8.289,8.289,0,0,1,.58-2c.41-1.18,1-2.81,1.71-4.59s1.44-3.35,2-4.47A7.381,7.381,0,0,1,328,351Z"/></g></svg>