<svg xmlns="http://www.w3.org/2000/svg" width="558.692" height="391.03" viewBox="0 0 558.692 391.03"><defs><style>.a{fill:#e1e1e1;}.b,.z{fill:#c1d5e5;}.b,.c,.g,.h{fill-rule:evenodd;}.c,.d{fill:#e0e0e0;}.e{fill:#f5f5f5;}.f,.h{fill:#263238;}.g,.m{fill:#839eb6;}.i{fill:#fafafa;}.j{fill:#fff;}.k{fill:#d9a171;}.l{fill:#aed3f2;}.n{fill:#5e6178;}.o{fill:#966f4e;}.p{opacity:0.6;}.q{fill:#344154;}.r{fill:#b78876;}.s{fill:#aa6550;}.t{opacity:0.3;}.u{fill:#455a64;}.v{fill:#ebebeb;}.w{fill:#ececec;}.x{opacity:0.1;}.y{opacity:0.2;}</style></defs><g transform="translate(10495 12296.432)"><g transform="translate(-10122.653 -12280.643)"><g transform="translate(0)"><path class="a" d="M-115.417,2456.347c-4,0-6.788-2.942-6.788-7.674s2.787-7.675,6.788-7.675,6.827,2.983,6.827,7.675S-111.415,2456.347-115.417,2456.347Zm0-3.261c1.687,0,2.864-1.47,2.864-4.413s-1.177-4.415-2.864-4.415c-1.727,0-2.865,1.433-2.865,4.415S-117.144,2453.086-115.417,2453.086Zm2.393,16.065h-4.669l-18.754-27.835h4.668Zm-21.029.318c-4,0-6.828-2.983-6.828-7.674s2.826-7.674,6.828-7.674c3.963,0,6.787,2.982,6.787,7.674S-130.091,2469.469-134.053,2469.469Zm0-3.261c1.686,0,2.863-1.431,2.863-4.414s-1.177-4.415-2.863-4.415c-1.726,0-2.864,1.471-2.864,4.415S-135.78,2466.209-134.053,2466.209Z" transform="translate(140.881 -2440.998)"/></g></g><path class="b" d="M1230.652,661.3a14.614,14.614,0,1,1-3.172,4.75,14.635,14.635,0,0,1,3.172-4.75Zm5.261-1.924a13.341,13.341,0,1,0,5.075-1,13.252,13.252,0,0,0-5.075,1ZM1234.3,648.62a23.895,23.895,0,0,0-5.28,2.253,24.458,24.458,0,0,0-2.438,1.615,24.2,24.2,0,0,0-2.226,1.9,1.524,1.524,0,0,1-1.827.222c-2.148-1.24-4.4-2.466-6.508-3.757a.9.9,0,0,0-.315-.1.984.984,0,0,0-.359.027.918.918,0,0,0-.566.429c-1.566,2.369-3.135,5.427-4.585,7.939a.886.886,0,0,0-.114.337.993.993,0,0,0,.187.7.9.9,0,0,0,.271.237c1.931,1.277,4.419,2.553,6.465,3.736a1.509,1.509,0,0,1,.645.724,1.487,1.487,0,0,1,.1.319l.134.044-.151.6q-.175.712-.307,1.421-.125.689-.217,1.443c-.06.488-.105.974-.132,1.453s-.044.959-.044,1.47.014,1,.044,1.469.073.966.132,1.456.135.982.217,1.441.192.947.307,1.422a1.522,1.522,0,0,1-.789,1.727l-5.725,3.307h0l-.679.392a.907.907,0,0,0-.429.567.917.917,0,0,0-.029.369.887.887,0,0,0,.114.337l4.24,7.346h0l.344.594a.9.9,0,0,0,.237.269.946.946,0,0,0,.328.161.986.986,0,0,0,.368.027.918.918,0,0,0,.335-.114c2.051-1.29,4.365-2.518,6.481-3.74a1.527,1.527,0,0,1,1.821.219l0,0a23.835,23.835,0,0,0,10.012,5.786,1.52,1.52,0,0,1,.8.55,1.535,1.535,0,0,1,.309.924l0,7.471a.914.914,0,0,0,.274.653.875.875,0,0,0,.3.2.925.925,0,0,0,.352.069h9.169a.93.93,0,0,0,.353-.069.918.918,0,0,0,.3-.2.978.978,0,0,0,.2-.3.909.909,0,0,0,.069-.352v-7.471a1.528,1.528,0,0,1,.332-.948,1.544,1.544,0,0,1,.847-.545,23,23,0,0,0,2.693-.959,23.45,23.45,0,0,0,2.588-1.293,24.175,24.175,0,0,0,4.664-3.515,1.533,1.533,0,0,1,1.9-.174l6.4,3.692a.889.889,0,0,0,.338.114.968.968,0,0,0,.37-.027.956.956,0,0,0,.328-.161.916.916,0,0,0,.236-.269c1.521-2.65,3.063-5.289,4.586-7.94a.9.9,0,0,0,.113-.337.955.955,0,0,0-.027-.367.941.941,0,0,0-.158-.331.87.87,0,0,0-.266-.236l-6.471-3.736a1.5,1.5,0,0,1-.644-.724,1.256,1.256,0,0,1-.082-.245l-.17-.035.17-.686c.117-.474.221-.948.307-1.421s.157-.941.218-1.441.1-.977.132-1.457.043-.957.043-1.469-.013-1-.043-1.468-.073-.964-.132-1.453c-.062-.507-.136-.991-.218-1.446q-.132-.707-.307-1.418a1.528,1.528,0,0,1,.785-1.727l6.409-3.7a.9.9,0,0,0,.269-.236.942.942,0,0,0,.158-.33.963.963,0,0,0,.027-.368.915.915,0,0,0-.113-.339c-1.564-2.326-3.135-5.436-4.586-7.939a.912.912,0,0,0-.564-.429.971.971,0,0,0-.37-.027.9.9,0,0,0-.337.116l-6.475,3.738a1.519,1.519,0,0,1-.972.193,1.545,1.545,0,0,1-.876-.432,23.777,23.777,0,0,0-9.991-5.767,1.537,1.537,0,0,1-1.112-1.475l0-7.473a.913.913,0,0,0-.069-.35.942.942,0,0,0-.2-.3.912.912,0,0,0-.654-.274H1236.4a.931.931,0,0,0-.926.926v7.473a1.533,1.533,0,0,1-1.18,1.491Zm-3.223-.281a25.286,25.286,0,0,0-7.657,5.078.179.179,0,0,1-.1.047.181.181,0,0,1-.112-.021q-3.266-1.886-6.532-3.773a2.218,2.218,0,0,0-.817-.255,2.267,2.267,0,0,0-.858.063,2.3,2.3,0,0,0-.8.393,2.249,2.249,0,0,0-.584.667c-1.579,2.556-3.076,5.323-4.588,7.937a2.3,2.3,0,0,0,.17,2.532,2.238,2.238,0,0,0,.667.585c2.082,1.287,4.341,2.508,6.471,3.738a.189.189,0,0,1,.074.084.18.18,0,0,1,.009.113l-.148.6.009,0c-.066.293-.126.592-.183.9-.093.516-.173,1.026-.234,1.526s-.106,1.008-.137,1.533-.048,1.046-.048,1.549.016,1.02.048,1.548.078,1.039.137,1.535.14,1.009.235,1.527.2,1.014.321,1.5a.183.183,0,0,1-.01.118.191.191,0,0,1-.081.086c-2.379,1.27-4.792,2.765-7.143,4.123l.083.105-.071.089a2.3,2.3,0,0,0-.453,1.688,2.246,2.246,0,0,0,.284.843l4.927,8.533.092-.055c.048.044.1.087.15.127a2.3,2.3,0,0,0,2.509.182c2.155-1.144,4.373-2.525,6.5-3.755a.188.188,0,0,1,.11-.018.183.183,0,0,1,.1.048,25.194,25.194,0,0,0,10.575,6.11.181.181,0,0,1,.093.065.168.168,0,0,1,.036.109v7.471a2.3,2.3,0,0,0,1.411,2.106,2.24,2.24,0,0,0,.869.175h9.169a2.258,2.258,0,0,0,.87-.175,2.365,2.365,0,0,0,.741-.494,2.319,2.319,0,0,0,.494-.741,2.282,2.282,0,0,0,.175-.871v-7.471a.184.184,0,0,1,.036-.113.179.179,0,0,1,.1-.062l.03-.01a25.381,25.381,0,0,0,2.88-1.024,25.3,25.3,0,0,0,5.31-3.072,25.158,25.158,0,0,0,2.349-2.006.182.182,0,0,1,.105-.051.192.192,0,0,1,.118.03l6.471,3.735a2.246,2.246,0,0,0,.841.284,2.343,2.343,0,0,0,.887-.06,2.272,2.272,0,0,0,.8-.393,2.249,2.249,0,0,0,.576-.647c1.7-2.734,3.307-5.729,4.929-8.537l-.087-.051c.014-.073.029-.144.036-.217a2.271,2.271,0,0,0-.451-1.685,2.253,2.253,0,0,0-.666-.586l-6.472-3.736a.184.184,0,0,1-.074-.083.2.2,0,0,1-.009-.118l.168-.684-.009,0c.057-.266.11-.537.161-.811q.142-.776.235-1.528c.06-.5.108-1.008.139-1.535s.048-1.043.048-1.548-.017-1.02-.048-1.546-.079-1.04-.139-1.54-.139-1-.235-1.526-.2-1.013-.322-1.5a.188.188,0,0,1,.011-.119.193.193,0,0,1,.083-.084l6.465-3.732a2.231,2.231,0,0,0,.664-.586,2.274,2.274,0,0,0,.45-1.685,2.205,2.205,0,0,0-.272-.824c-1.54-2.854-3.306-5.73-4.935-8.553l-.094.055c-.049-.044-.1-.087-.153-.127a2.271,2.271,0,0,0-.8-.393,2.34,2.34,0,0,0-.887-.06,2.236,2.236,0,0,0-.839.28l-.479.275v.005l-6,3.464a.181.181,0,0,1-.116.022.165.165,0,0,1-.1-.051l-.016-.016a25.464,25.464,0,0,0-4.905-3.693,25.081,25.081,0,0,0-5.654-2.4.191.191,0,0,1-.094-.064.17.17,0,0,1-.036-.11v-7.473a2.282,2.282,0,0,0-.672-1.61,2.338,2.338,0,0,0-.738-.494,2.258,2.258,0,0,0-.87-.175H1236.4a2.24,2.24,0,0,0-.869.175,2.352,2.352,0,0,0-.742.494,2.274,2.274,0,0,0-.669,1.61v7.473a.2.2,0,0,1-.036.114.178.178,0,0,1-.1.061l-.029.01A25.338,25.338,0,0,0,1231.074,648.338Z" transform="translate(-11446.657 -12933.809)"/><g transform="translate(-10331.75 -12006.826)"><g transform="translate(0)"><path class="c" d="M278.046,364.739a31.461,31.461,0,0,1,8.089,2.136l5.945-4.983,10.213,7.773-3.218,7.058a31.434,31.434,0,0,1,4.216,7.228l7.725.68,1.725,12.718-7.263,2.715a31.417,31.417,0,0,1-2.137,8.09l4.983,5.947-7.772,10.212-7.058-3.217a31.465,31.465,0,0,1-7.23,4.214l-.68,7.725-12.719,1.726L270.15,427.5a31.4,31.4,0,0,1-8.09-2.137l-5.947,4.984L245.9,422.572l3.219-7.059a31.51,31.51,0,0,1-4.215-7.228l-7.724-.681-1.726-12.718,7.263-2.715a31.358,31.358,0,0,1,2.137-8.09l-4.983-5.946,7.772-10.212,7.059,3.218a31.465,31.465,0,0,1,7.229-4.215l.68-7.724,12.717-1.725,2.716,7.263Zm-3.815,17.539a13.77,13.77,0,1,0,13.83,10.532A13.773,13.773,0,0,0,274.231,382.278Z" transform="translate(-235.455 -357.476)"/></g></g><g transform="translate(-10470.305 -12232.804)"><g transform="translate(9.019 9.948)"><path class="d" d="M116.707,134.774V97.815a36.959,36.959,0,1,1-36.949,37.814Z" transform="translate(-79.758 -97.815)"/></g><path class="e" d="M105.875,122.8l-36.958.834a38.982,38.982,0,0,1,10.471-26.61A37.993,37.993,0,0,1,105.3,85.858Z" transform="translate(-68.917 -85.858)"/></g><g transform="translate(-10060.18 -12280.643)"><path class="c" d="M604.466,35.62a31.5,31.5,0,0,1,8.089,2.136l5.945-4.983,10.213,7.774L625.5,47.605a31.437,31.437,0,0,1,4.216,7.228l7.725.681,1.725,12.718L631.9,70.947a31.4,31.4,0,0,1-2.137,8.09l4.983,5.946L626.971,95.2l-7.058-3.217a31.478,31.478,0,0,1-7.23,4.214L612,103.917l-12.72,1.726-2.714-7.265a31.4,31.4,0,0,1-8.09-2.136l-5.947,4.983L572.32,93.453l3.219-7.059a31.509,31.509,0,0,1-4.215-7.228l-7.724-.681-1.725-12.718,7.263-2.714a31.367,31.367,0,0,1,2.137-8.091l-4.983-5.946L574.064,38.8l7.059,3.219a31.471,31.471,0,0,1,7.229-4.216l.681-7.723,12.717-1.726,2.716,7.263Zm-3.815,17.538a13.771,13.771,0,1,0,13.83,10.533A13.774,13.774,0,0,0,600.651,53.158Z" transform="translate(-561.875 -28.357)"/></g><g transform="translate(-10495 -11918.493)"><path class="f" d="M597.927,463.866c0,.12-125.078.217-279.333.217-154.308,0-279.36-.1-279.36-.217s125.051-.216,279.36-.216C472.849,463.65,597.927,463.746,597.927,463.866Z" transform="translate(-39.234 -463.65)"/></g><g transform="translate(-10474.483 -12218.59)"><g transform="translate(0 112.072)"><g transform="translate(21.524)"><path class="g" d="M139.489,247.517a29.421,29.421,0,0,1,6.389,4.5l6.826-2.43,6.416,10.128-5.112,5.135a29.381,29.381,0,0,1,1.341,7.7l6.543,3.107-2.625,11.7-7.243.016a29.334,29.334,0,0,1-4.5,6.39l2.43,6.827L139.826,307l-5.136-5.112a29.337,29.337,0,0,1-7.7,1.339l-3.107,6.544-11.7-2.624-.015-7.244a29.328,29.328,0,0,1-6.389-4.5l-6.828,2.43-6.416-10.128,5.114-5.135a29.4,29.4,0,0,1-1.341-7.7l-6.543-3.107,2.624-11.7,7.243-.016a29.317,29.317,0,0,1,4.5-6.389l-2.43-6.827,10.126-6.416,5.136,5.113a29.4,29.4,0,0,1,7.7-1.34l3.107-6.543,11.7,2.624.018,7.243Zm-10.314,13.765a12.861,12.861,0,1,0,9.734,15.365A12.861,12.861,0,0,0,129.175,261.282Z" transform="translate(-89.766 -237.65)"/></g><g transform="translate(45.642 93.455)"><g transform="translate(21.525 21.176)"><path class="f" d="M159.107,375.83a8.761,8.761,0,0,1,2.75.86,11.576,11.576,0,0,1,5.481,5.548,11.717,11.717,0,0,1,1.119,5.358,11.91,11.91,0,0,1-1.844,6.008,11.919,11.919,0,0,1-5.262,4.522,11.868,11.868,0,0,1-13.8-3.094,11.92,11.92,0,0,1-2.828-6.337,11.91,11.91,0,0,1,.9-6.221,11.723,11.723,0,0,1,3.3-4.367,11.578,11.578,0,0,1,7.325-2.675,8.784,8.784,0,0,1,2.854.4c-.012.082-1.017-.2-2.847-.137a11.6,11.6,0,0,0-7.029,2.777,11.36,11.36,0,0,0-3.894,10.148,11.357,11.357,0,0,0,2.711,5.986,11.269,11.269,0,0,0,13.04,2.924,11.355,11.355,0,0,0,5.007-4.255,11.366,11.366,0,0,0,.814-10.837,11.594,11.594,0,0,0-5.169-5.513C160.113,376.081,159.083,375.909,159.107,375.83Z" transform="translate(-144.628 -375.433)"/></g><path class="f" d="M164.089,359.1a2.4,2.4,0,0,1-.025-.408c-.007-.3-.017-.712-.029-1.24-.016-1.137-.038-2.776-.068-4.9l.083.1-10.594-2.312.19-.092-2.786,5.929-.05.107-.12.005a26.507,26.507,0,0,0-6.907,1.226l-.126.04-.095-.094L138.9,352.85l.295.032-9.146,5.825.106-.31c.685,1.91,1.438,4.014,2.211,6.171l.057.157-.114.123a26.348,26.348,0,0,0-4.018,5.725l-.08.155h-.176l-6.552.023.29-.232c-.741,3.325-1.541,6.91-2.359,10.584l-.171-.349,5.92,2.805.174.082.007.192a26.442,26.442,0,0,0,1.2,6.88l.059.186-.138.139-4.623,4.647.045-.405,5.807,9.157-.391-.135,6.175-2.2.191-.067.148.137a26.273,26.273,0,0,0,5.7,4.017h0c.081.132-.178-.295.181.3v.819l0,.824,0,1.643q0,1.64.007,3.266l-.26-.324,10.582,2.376-.371.181,2.813-5.917.086-.18.2-.008a26.255,26.255,0,0,0,6.88-1.193l.187-.059.139.138q2.354,2.349,4.642,4.628l-.394-.043,9.165-5.794-.126.362q-1.114-3.144-2.191-6.177l-.061-.171.123-.133a26.277,26.277,0,0,0,4.036-5.709l.082-.156h.174l6.552,0-.27.217c.843-3.721,1.639-7.233,2.4-10.577l.14.287-5.912-2.825-.131-.063,0-.144a26.478,26.478,0,0,0-1.183-6.909l-.04-.128.094-.093,4.64-4.629-.027.245-5.764-9.186.176.061-6.188,2.158-.062.022-.047-.044a27.569,27.569,0,0,0-4.208-3.241l-1.127-.679a2.676,2.676,0,0,1-.371-.23,3.47,3.47,0,0,1,.4.181c.259.133.65.334,1.156.634a25.7,25.7,0,0,1,4.3,3.178l-.109-.023,6.161-2.238.111-.041.065.1,5.844,9.135.085.133-.111.112-4.609,4.66.054-.221a26.845,26.845,0,0,1,1.244,7.022l-.137-.207,5.926,2.8.184.087-.044.2c-.744,3.346-1.525,6.862-2.354,10.586l-.047.216h-.223l-6.551.026.255-.156a26.857,26.857,0,0,1-4.109,5.85l.062-.3q1.083,3.031,2.206,6.172l.082.23-.207.132-9.153,5.812-.215.137-.181-.18-4.648-4.621.324.079a26.885,26.885,0,0,1-7.05,1.231l.283-.187q-1.389,2.931-2.807,5.92l-.113.239-.258-.058-10.583-2.37-.26-.058v-.266q0-1.626-.007-3.266l0-1.643,0-.824v-.819c.359.59.1.163.179.295h0l0,0a26.891,26.891,0,0,1-5.846-4.121l.338.07-6.177,2.2-.25.088-.142-.224c-2-3.152-3.963-6.262-5.8-9.163l-.14-.22.185-.185,4.628-4.642-.078.325a27.005,27.005,0,0,1-1.222-7.049l.181.275-5.914-2.817-.225-.107.055-.241c.828-3.673,1.636-7.256,2.385-10.579l.052-.232h.238l6.551,0-.255.155a26.872,26.872,0,0,1,4.126-5.835l-.057.28c-.764-2.16-1.51-4.266-2.186-6.179l-.071-.2.178-.111,9.172-5.782.161-.1.134.134c1.626,1.628,3.188,3.193,4.632,4.638l-.22-.053a26.806,26.806,0,0,1,7.023-1.2l-.169.112,2.834-5.907.059-.123.131.031,10.567,2.434.084.019v.085c-.019,2.108-.034,3.733-.045,4.86-.009.536-.017.949-.022,1.257A3.259,3.259,0,0,1,164.089,359.1Z" transform="translate(-118.755 -349.98)"/></g><g transform="translate(0 73.036)"><path class="c" d="M92.84,331.181a17.149,17.149,0,0,1,3.72,2.62l3.973-1.414,3.735,5.9-2.976,2.989a17.087,17.087,0,0,1,.781,4.483l3.809,1.809-1.528,6.81-4.216.009a17.054,17.054,0,0,1-2.621,3.72l1.415,3.974-5.9,3.735-2.989-2.976a17.086,17.086,0,0,1-4.483.78l-1.809,3.81L76.945,365.9l-.009-4.216a17.1,17.1,0,0,1-3.719-2.621l-3.975,1.415-3.735-5.9,2.977-2.989a17.149,17.149,0,0,1-.78-4.482L63.9,345.3l1.527-6.81,4.216-.009a17.075,17.075,0,0,1,2.621-3.72l-1.414-3.974,5.895-3.735,2.989,2.977a17.092,17.092,0,0,1,4.483-.78l1.808-3.809,6.81,1.527.01,4.216Zm-6,8.014a7.487,7.487,0,1,0,5.667,8.944A7.487,7.487,0,0,0,86.836,339.194Z" transform="translate(-63.895 -325.437)"/></g></g><g transform="translate(437.419 68.001)"><path class="h" d="M618.889,189.662a21.619,21.619,0,0,1,5.552,1.467l4.08-3.419,7.009,5.335-2.209,4.844a21.591,21.591,0,0,1,2.894,4.961l5.3.467,1.183,8.729-4.984,1.863a21.548,21.548,0,0,1-1.467,5.553l3.419,4.081-5.334,7.008-4.844-2.208a21.6,21.6,0,0,1-4.961,2.892l-.467,5.3-8.729,1.185-1.863-4.985a21.546,21.546,0,0,1-5.552-1.467l-4.082,3.42-7.008-5.335,2.209-4.845a21.617,21.617,0,0,1-2.893-4.96l-5.3-.468-1.185-8.728,4.985-1.863a21.547,21.547,0,0,1,1.467-5.553l-3.42-4.081,5.334-7.009,4.845,2.209a21.572,21.572,0,0,1,4.961-2.893l.467-5.3,8.727-1.184,1.864,4.984ZM616.271,201.7a9.45,9.45,0,1,0,9.492,7.228A9.453,9.453,0,0,0,616.271,201.7Z" transform="translate(-589.659 -184.678)"/></g><g transform="translate(469.554 0)"><g transform="translate(21.144 20.575)"><path class="f" d="M663.837,127.86a8.621,8.621,0,0,1,2.822-.147,11.351,11.351,0,0,1,6.932,3.229,11.5,11.5,0,0,1,2.857,4.544,11.683,11.683,0,0,1,.356,6.152,11.687,11.687,0,0,1-3.294,5.953,11.639,11.639,0,0,1-13.737,1.864,11.683,11.683,0,0,1-4.762-4.86,11.673,11.673,0,0,1-1.3-6.024,11.511,11.511,0,0,1,1.544-5.142,11.354,11.354,0,0,1,5.821-4.959,8.607,8.607,0,0,1,2.759-.61c.016.079-1,.161-2.665.846a11.369,11.369,0,0,0-5.513,4.951,11.14,11.14,0,0,0-.116,10.657,11.136,11.136,0,0,0,4.535,4.577,11.053,11.053,0,0,0,12.984-1.762,11.143,11.143,0,0,0,3.151-5.62,11.142,11.142,0,0,0-2.95-10.24,11.364,11.364,0,0,0-6.634-3.3C664.847,127.748,663.841,127.941,663.837,127.86Z" transform="translate(-653.7 -127.673)"/></g><path class="f" d="M663.892,109.075a2.548,2.548,0,0,1-.162-.367l-.45-1.131c-.4-1.04-.983-2.538-1.736-4.483l.112.067-10.528,1.491.142-.15c-.162,1.939-.344,4.095-.538,6.4l-.009.115-.108.046a26.005,26.005,0,0,0-5.931,3.484l-.1.08-.12-.054-5.856-2.65.283-.071-6.419,8.475-.007-.321,4.137,4.918.106.126-.062.151a25.867,25.867,0,0,0-1.741,6.635l-.021.169-.161.061-6.014,2.257.187-.312c.453,3.309.942,6.877,1.443,10.534l-.275-.262,6.4.558.187.016.072.174a25.952,25.952,0,0,0,3.455,5.914l.117.151-.079.175-2.663,5.85-.1-.388,8.464,6.436-.406.01,4.926-4.13.151-.127.183.076a25.764,25.764,0,0,0,6.612,1.746h0c.119.094-.265-.21.268.21l0,.006,0,.013.008.023.018.047.035.095.071.19.141.379.283.756.564,1.51,1.121,3-.35-.21,10.538-1.428-.279.293q.286-3.231.566-6.4l.017-.194.18-.075a25.76,25.76,0,0,0,5.918-3.444l.151-.118.175.08,5.846,2.67-.378.095,6.448-8.454.008.375-4.121-4.931-.115-.136.068-.164a25.815,25.815,0,0,0,1.761-6.625l.022-.171.161-.059,6.02-2.24-.174.292c-.5-3.708-.963-7.208-1.407-10.54l.226.216-6.4-.58-.142-.012-.054-.131a25.956,25.956,0,0,0-3.445-5.947l-.081-.1.055-.118c.975-2.122,1.854-4.033,2.685-5.838l.059.234-8.433-6.477.183,0-4.953,4.1-.049.041-.058-.024a26.971,26.971,0,0,0-4.975-1.543l-1.267-.24a2.741,2.741,0,0,1-.419-.083,3.025,3.025,0,0,1,.428.029c.283.034.711.086,1.28.188a25.181,25.181,0,0,1,5.034,1.455l-.107.017,4.9-4.16.089-.076.094.072,8.49,6.4.122.092-.063.141-2.647,5.857-.026-.221a26.3,26.3,0,0,1,3.539,6.03l-.2-.143,6.4.548.2.017.027.2,1.45,10.534.029.215-.2.077-6.013,2.26.181-.23a26.312,26.312,0,0,1-1.78,6.779l-.047-.3q2.031,2.417,4.134,4.921l.156.185-.146.192-6.43,8.466-.151.2-.227-.1-5.85-2.661.326-.038a26.329,26.329,0,0,1-6.061,3.538l.2-.268q-.277,3.169-.56,6.4l-.022.258-.257.035-10.537,1.433-.259.035-.091-.245-1.122-3-.564-1.509-.283-.757-.141-.379-.071-.19-.035-.095-.018-.047-.008-.023,0-.012,0-.006c.531.419.146.116.265.21H657.3a26.381,26.381,0,0,1-6.78-1.792l.334-.052-4.928,4.127-.2.167-.207-.157-8.459-6.444-.2-.156.106-.233,2.671-5.847.038.325a26.52,26.52,0,0,1-3.529-6.063l.26.191-6.4-.571-.243-.022-.032-.241c-.492-3.659-.973-7.228-1.417-10.539l-.032-.231.219-.082,6.02-2.24-.181.23a26.309,26.309,0,0,1,1.8-6.771l.042.277-4.118-4.934-.133-.159.126-.163,6.458-8.446.114-.148.169.077,5.841,2.683-.221.026a26.272,26.272,0,0,1,6.047-3.5l-.117.16c.212-2.3.41-4.459.589-6.4l.012-.133.131-.017,10.544-1.369.084-.011.028.078,1.617,4.483c.173.5.307.878.408,1.163A3.08,3.08,0,0,1,663.892,109.075Z" transform="translate(-628.285 -102.943)"/></g></g><g transform="translate(-10397.244 -12244.791)"><g transform="translate(0.217 0.216)"><rect class="i" width="382.737" height="264.586"/></g><path class="f" d="M539.688,336.252c0-1.43-.068-103.622-.175-264.586l.175.175-382.706.042h-.031l.216-.216c-.007,94.511-.013,184.283-.019,264.586l-.2-.2,382.737.2-382.737.2h-.2v-.2c-.006-80.3-.012-170.075-.019-264.586V71.45h.248l382.706.042h.175v.175C539.756,232.63,539.689,334.823,539.688,336.252Z" transform="translate(-156.734 -71.45)"/><g transform="translate(0.217 0.216)"><rect class="f" width="382.737" height="15.353"/></g><g transform="translate(6.422 5.244)"><path class="j" d="M169.169,80.111a2.358,2.358,0,1,1-2.358-2.358A2.358,2.358,0,0,1,169.169,80.111Z" transform="translate(-164.453 -77.753)"/></g><g transform="translate(14.926 5.244)"><path class="j" d="M179.39,80.111a2.357,2.357,0,1,1-2.358-2.358A2.358,2.358,0,0,1,179.39,80.111Z" transform="translate(-174.675 -77.753)"/></g><g transform="translate(23.43 5.244)"><path class="j" d="M189.611,80.111a2.357,2.357,0,1,1-2.357-2.358A2.357,2.357,0,0,1,189.611,80.111Z" transform="translate(-184.896 -77.753)"/></g><g transform="translate(15.691 34.493)"><g transform="translate(0 127.522)"><path class="d" d="M529.165,352.344c0-.958-.047-31.586-.128-85.941l.128.128-353.333.089h-.021l.216-.217c0,29.44,0,58.2,0,85.941l-.212-.212,353.354.212-353.354.213H175.6v-.213c0-27.739,0-56.5,0-85.941v-.216h.238l353.333.088h.128v.128C529.212,320.758,529.166,351.387,529.165,352.344Z" transform="translate(-175.594 -266.186)"/></g><g transform="translate(0.786)"><path class="d" d="M347.6,233.432s-.012-.75-.019-2.189-.011-3.575-.019-6.361c-.011-5.576-.026-13.764-.045-24.237-.022-20.929-.053-50.985-.092-87.52l.175.176-170.83.041h-.014l.216-.216c-.007,43.038-.013,83.891-.019,120.307l-.2-.2,123.209.1,35.093.053,9.319.023,2.4.012c.541,0,.821.012.821.012s-.265.008-.8.012l-2.38.012-9.28.023-35.048.053-123.338.1h-.2v-.2c-.006-36.415-.013-77.269-.019-120.307v-.216h.23l170.83.042h.176v.175c-.038,36.581-.07,66.674-.092,87.629-.02,10.455-.035,18.63-.045,24.2-.008,2.772-.015,4.894-.02,6.329S347.6,233.432,347.6,233.432Z" transform="translate(-176.539 -112.909)"/><g transform="translate(18.688 44.721)"><path class="k" d="M199,219.711l12.3-17.8a7.881,7.881,0,0,1,11.066-1.928l1.729,1.236a7.881,7.881,0,0,0,12.041-3.861l5.974-17.479a7.881,7.881,0,0,1,14.914,0l2.89,8.458a7.88,7.88,0,0,0,14.662.644l2.508-5.658a7.88,7.88,0,0,1,13.71-1.255h0a7.88,7.88,0,0,0,13.962-1.9l2.8-8.177a7.88,7.88,0,0,1,15.14.8l10.692,46.919S199.376,219.336,199,219.711Z" transform="translate(-199.001 -166.662)"/></g><g transform="translate(18.342 63.776)"><path class="l" d="M198.585,224.021l10-29.248a7.7,7.7,0,0,1,14.5-.179l4.789,12.959a7.7,7.7,0,0,0,13.218,2.156l3.879-4.824a7.7,7.7,0,0,1,10.543-1.389l9.034,6.607a7.7,7.7,0,0,0,4.544,1.485h11.5a7.7,7.7,0,0,1,4.544,1.484l8.555,6.257a7.7,7.7,0,0,0,10.9-1.869l8.029-11.745q.152-.225.319-.434a7.216,7.216,0,0,1,12.021,1.424l8.591,17.039S198.585,223.469,198.585,224.021Z" transform="translate(-198.585 -189.565)"/></g><g transform="translate(17.972 76.222)"><path class="m" d="M333.428,226.258l-10.446-8.5c-14.328-10.539-21.122,9.521-32.386-5.531l-3.879-4.824a7.7,7.7,0,0,0-10.542-1.389l-4.49,3.284a24.929,24.929,0,0,1-14.719,4.809H251.1a7.7,7.7,0,0,0-4.544,1.484L238,221.844c-3.509,2.566-5.956,2.911-11.572-1.8,0,0-6.1-4.955-6.24-5.131-2.988-3.639-9.233-3.637-11.925,0a31.6,31.6,0,0,1-2.052,2.456l-8.07,8.892S333.428,225.705,333.428,226.258Z" transform="translate(-198.141 -204.525)"/></g><g transform="translate(34.096 30.2)"><path class="f" d="M238.874,149.426c0,.12-4.781.216-10.676.216s-10.677-.1-10.677-.216,4.78-.217,10.677-.217S238.874,149.306,238.874,149.426Z" transform="translate(-217.521 -149.209)"/></g><g transform="translate(28.11 28.59)"><rect class="k" width="3.654" height="3.654"/></g><g transform="translate(74.377 30.2)"><path class="f" d="M287.291,149.426c0,.12-4.78.216-10.676.216s-10.677-.1-10.677-.216,4.78-.217,10.677-.217S287.291,149.306,287.291,149.426Z" transform="translate(-265.938 -149.209)"/></g><g transform="translate(68.391 28.59)"><rect class="l" width="3.654" height="3.654"/></g><g transform="translate(114.658 30.2)"><path class="f" d="M335.708,149.426c0,.12-4.78.216-10.676.216s-10.677-.1-10.677-.216,4.78-.217,10.677-.217S335.708,149.306,335.708,149.426Z" transform="translate(-314.355 -149.209)"/></g><g transform="translate(108.673 28.59)"><rect class="m" width="3.654" height="3.654"/></g></g><g transform="translate(137.328 140.257)"><path class="k" d="M340.658,340.222l8.794-12.539a3.15,3.15,0,0,1,4.478-.706l4.626,3.492a3.151,3.151,0,0,0,4.627-.94l13.343-23.111a3.151,3.151,0,0,1,5.2-.375l8.332,10.564a3.151,3.151,0,0,0,5.132-.26l6.088-9.569a3.15,3.15,0,0,1,5.387.116l5.027,8.707a3.151,3.151,0,0,0,5.385.119l17.188-26.939a3.151,3.151,0,0,1,5.276-.057l28.4,42.479a3.151,3.151,0,0,0,4.951.368l17.253-18.991a3.151,3.151,0,0,1,4.564-.106l13.723,13.773a3.15,3.15,0,0,0,4.96-.649l24.551-42.524a3.151,3.151,0,0,1,5.879,1.576v55.573Z" transform="translate(-340.658 -281.493)"/><g transform="translate(0.536 61.366)"><path class="f" d="M543.414,359.564a1.519,1.519,0,0,1-.015-.245c0-.177-.008-.422-.014-.747-.007-.687-.016-1.707-.028-3.1l.057.057c-11.732.092-52.549.16-101.022.16-48.49,0-89.3-.067-101.032-.16l.056-.057c-.012,1.394-.022,2.414-.027,3.1-.007.325-.012.57-.015.747a1.6,1.6,0,0,1-.014.245,1.505,1.505,0,0,1-.015-.245c0-.177-.008-.422-.014-.747-.007-.686-.016-1.706-.028-3.1v-.057h.057c11.731-.092,52.542-.16,101.032-.16,48.474,0,89.29.067,101.022.16h.057v.057c-.012,1.394-.022,2.414-.027,3.1-.007.325-.012.57-.015.747A1.607,1.607,0,0,1,543.414,359.564Z" transform="translate(-341.302 -355.254)"/></g><g transform="translate(22.827 63.629)"><path class="f" d="M368.312,359.7c-.12,0-.217-.385-.217-.861s.1-.861.217-.861.216.385.216.861S368.431,359.7,368.312,359.7Z" transform="translate(-368.095 -357.974)"/></g><g transform="translate(45.277 63.629)"><path class="f" d="M395.3,359.7c-.12,0-.216-.385-.216-.861s.1-.861.216-.861.217.385.217.861S395.416,359.7,395.3,359.7Z" transform="translate(-395.08 -357.974)"/></g><g transform="translate(67.728 63.629)"><path class="f" d="M422.281,359.7c-.12,0-.216-.385-.216-.861s.1-.861.216-.861.216.385.216.861S422.4,359.7,422.281,359.7Z" transform="translate(-422.065 -357.974)"/></g><g transform="translate(90.178 63.629)"><path class="f" d="M449.266,359.7c-.12,0-.217-.385-.217-.861s.1-.861.217-.861.216.385.216.861S449.386,359.7,449.266,359.7Z" transform="translate(-449.049 -357.974)"/></g><g transform="translate(112.628 63.629)"><path class="f" d="M476.251,359.7c-.12,0-.217-.385-.217-.861s.1-.861.217-.861.216.385.216.861S476.37,359.7,476.251,359.7Z" transform="translate(-476.034 -357.974)"/></g><g transform="translate(135.079 63.629)"><path class="f" d="M503.235,359.7c-.12,0-.216-.385-.216-.861s.1-.861.216-.861.217.385.217.861S503.355,359.7,503.235,359.7Z" transform="translate(-503.019 -357.974)"/></g><g transform="translate(157.53 63.629)"><path class="f" d="M530.22,359.7c-.12,0-.216-.385-.216-.861s.1-.861.216-.861.216.385.216.861S530.34,359.7,530.22,359.7Z" transform="translate(-530.004 -357.974)"/></g><g transform="translate(179.98 63.629)"><path class="f" d="M557.205,359.7c-.12,0-.217-.385-.217-.861s.1-.861.217-.861.216.385.216.861S557.325,359.7,557.205,359.7Z" transform="translate(-556.988 -357.974)"/></g></g><g transform="translate(183.624 11.072)"><path class="d" d="M567.366,208.107s-.011-.5-.017-1.458-.01-2.384-.017-4.245c-.009-3.729-.023-9.216-.04-16.277-.02-14.111-.049-34.511-.085-59.694l.159.159-170.833.057h-.012l.216-.216c0,28.754-.008,56.385-.012,81.673l-.2-.2,122.708.1,35.4.057,9.453.026,2.443.012c.55,0,.837.013.837.013s-.27.008-.812.012l-2.419.012-9.41.026-35.359.056-122.845.1h-.205v-.2c0-25.288-.007-52.918-.012-81.673v-.217h.229l170.833.057h.159v.159c-.036,25.224-.065,45.657-.085,59.79-.018,7.046-.031,12.521-.04,16.242-.007,1.848-.013,3.259-.017,4.216S567.366,208.107,567.366,208.107Z" transform="translate(-396.304 -126.217)"/><g transform="translate(12.745 16.374)"><g transform="translate(0 15.534)"><path class="d" d="M531.272,168.492H413.584a1.961,1.961,0,0,1,0-3.923H531.272a1.961,1.961,0,1,1,0,3.923Z" transform="translate(-411.623 -164.569)"/></g><path class="d" d="M531.272,149.822H413.584a1.962,1.962,0,0,1,0-3.924H531.272a1.962,1.962,0,0,1,0,3.924Z" transform="translate(-411.623 -145.898)"/><g transform="translate(0 15.534)"><path class="m" d="M466.762,168.492H413.584a1.961,1.961,0,0,1,0-3.923h53.178a1.961,1.961,0,1,1,0,3.923Z" transform="translate(-411.623 -164.569)"/></g><g transform="translate(130.522 14.841)"><path class="f" d="M572.554,167.235h-.869v1.125h-.635v-1.125h-2.543v-.458l2.341-2.994h.706l-2.243,2.889h1.759v-.993h.615v.993h.869Z" transform="translate(-568.506 -163.744)"/><path class="f" d="M576.988,166.986c0,.791-.562,1.426-1.732,1.426a2.621,2.621,0,0,1-1.68-.556l.3-.517a2.056,2.056,0,0,0,1.373.491c.693,0,1.086-.32,1.086-.817,0-.517-.327-.837-1.386-.837h-1.04l.242-2.393h2.582v.569H574.7l-.124,1.255h.51C576.452,165.607,576.988,166.176,576.988,166.986Z" transform="translate(-569.358 -163.744)"/><path class="f" d="M578.165,164.985a1.107,1.107,0,0,1,1.065-1.249c.635,0,1.059.5,1.059,1.249s-.424,1.249-1.059,1.249A1.108,1.108,0,0,1,578.165,164.985Zm1.706,0c0-.549-.242-.877-.641-.877s-.641.334-.641.877.249.875.641.875S579.871,165.534,579.871,164.985Zm2.118-1.21h.5l-3.126,4.577h-.5Zm-.921,3.367a1.076,1.076,0,1,1,1.058,1.249A1.1,1.1,0,0,1,581.068,167.142Zm1.7,0c0-.542-.249-.876-.642-.876s-.64.327-.64.876.241.876.64.876S582.768,167.684,582.768,167.142Z" transform="translate(-570.129 -163.736)"/></g></g><g transform="translate(12.745 45.586)"><g transform="translate(0 0.706)"><path class="d" d="M531.272,185.781H413.584a1.961,1.961,0,0,1,0-3.923H531.272a1.961,1.961,0,1,1,0,3.923Z" transform="translate(-411.623 -181.858)"/><path class="m" d="M484.088,185.781H413.705a1.851,1.851,0,0,1-2.082-1.961c0-1.083.62-1.962,1.385-1.962h70.383a2.042,2.042,0,0,1,2.253,1.962A1.974,1.974,0,0,1,484.088,185.781Z" transform="translate(-411.623 -181.858)"/></g><g transform="translate(130.469)"><path class="f" d="M571.895,181.072v.445l-1.849,4.132h-.693l1.81-4.008h-2.092v.817h-.628v-1.386Z" transform="translate(-568.443 -181.02)"/><path class="f" d="M573.127,183.35c0-1.491.8-2.34,1.87-2.34s1.863.849,1.863,2.34-.8,2.34-1.863,2.34S573.127,184.841,573.127,183.35Zm3.079,0c0-1.171-.5-1.759-1.209-1.759s-1.216.588-1.216,1.759.5,1.758,1.216,1.758S576.206,184.52,576.206,183.35Z" transform="translate(-569.23 -181.01)"/><path class="f" d="M578.283,182.274a1.107,1.107,0,0,1,1.065-1.249c.635,0,1.06.5,1.06,1.249s-.425,1.249-1.06,1.249A1.107,1.107,0,0,1,578.283,182.274Zm1.706,0c0-.549-.242-.876-.641-.876s-.64.334-.64.876.248.876.64.876S579.989,182.823,579.989,182.274Zm2.117-1.21h.5l-3.126,4.577h-.5Zm-.921,3.368a1.076,1.076,0,1,1,1.059,1.248A1.1,1.1,0,0,1,581.186,184.432Zm1.7,0c0-.543-.249-.877-.641-.877s-.641.327-.641.877.241.875.641.875S582.885,184.974,582.885,184.432Z" transform="translate(-570.096 -181.012)"/></g></g><g transform="translate(12.745 59.629)"><g transform="translate(0 0.706)"><path class="d" d="M531.272,202.66H413.584a1.961,1.961,0,0,1,0-3.923H531.272a1.961,1.961,0,1,1,0,3.923Z" transform="translate(-411.623 -198.737)"/><path class="m" d="M457.3,202.66H413.584a1.961,1.961,0,0,1,0-3.923H457.3a1.961,1.961,0,0,1,0,3.923Z" transform="translate(-411.623 -198.737)"/></g><g transform="translate(130.384)"><path class="f" d="M571.754,201.155c0,.791-.562,1.425-1.732,1.425a2.621,2.621,0,0,1-1.681-.556l.3-.517a2.054,2.054,0,0,0,1.373.49c.693,0,1.086-.32,1.086-.817,0-.517-.328-.836-1.386-.836h-1.04l.242-2.394H571.5v.569h-2.033l-.124,1.255h.51C571.217,199.775,571.754,200.345,571.754,201.155Z" transform="translate(-568.341 -197.899)"/><path class="f" d="M573.095,200.229c0-1.491.8-2.34,1.87-2.34s1.864.849,1.864,2.34-.8,2.34-1.864,2.34S573.095,201.72,573.095,200.229Zm3.079,0c0-1.171-.5-1.759-1.209-1.759s-1.216.588-1.216,1.759.5,1.758,1.216,1.758S576.174,201.4,576.174,200.229Z" transform="translate(-569.14 -197.889)"/><path class="f" d="M578.252,199.153a1.107,1.107,0,0,1,1.065-1.249c.635,0,1.059.5,1.059,1.249s-.424,1.249-1.059,1.249A1.107,1.107,0,0,1,578.252,199.153Zm1.705,0c0-.549-.242-.876-.641-.876s-.641.334-.641.876.249.876.641.876S579.957,199.7,579.957,199.153Zm2.118-1.21h.5l-3.126,4.577h-.5Zm-.921,3.367a1.076,1.076,0,1,1,1.058,1.249A1.1,1.1,0,0,1,581.155,201.31Zm1.7,0c0-.542-.249-.876-.641-.876s-.64.327-.64.876.241.876.64.876S582.854,201.852,582.854,201.31Z" transform="translate(-570.006 -197.892)"/></g></g><g transform="translate(12.745 15.668)"><g transform="translate(0 0.706)"><path class="k" d="M491.5,149.822H413.584a1.962,1.962,0,0,1,0-3.924H491.5a1.962,1.962,0,1,1,0,3.924Z" transform="translate(-411.623 -145.898)"/></g><g transform="translate(130.587)"><path class="f" d="M572.128,148.286a1.48,1.48,0,0,1-1.621,1.445c-1.229,0-1.922-.824-1.922-2.282a2.111,2.111,0,0,1,2.164-2.4,2.2,2.2,0,0,1,1.137.268l-.249.51a1.59,1.59,0,0,0-.875-.215c-.928,0-1.523.582-1.523,1.725a1.419,1.419,0,0,0,.007.164,1.521,1.521,0,0,1,1.314-.6A1.414,1.414,0,0,1,572.128,148.286Zm-.634.026c0-.536-.406-.883-1.046-.883a.95.95,0,0,0-1.053.889c0,.471.379.883,1.086.883A.906.906,0,0,0,571.494,148.312Z" transform="translate(-568.585 -145.05)"/><path class="f" d="M573.433,147.39c0-1.49.8-2.34,1.87-2.34s1.863.85,1.863,2.34-.8,2.341-1.863,2.341S573.433,148.881,573.433,147.39Zm3.079,0c0-1.171-.5-1.759-1.209-1.759s-1.216.588-1.216,1.759.5,1.759,1.216,1.759S576.512,148.561,576.512,147.39Z" transform="translate(-569.4 -145.05)"/><path class="f" d="M578.589,146.315a1.108,1.108,0,0,1,1.066-1.249c.634,0,1.059.5,1.059,1.249s-.425,1.249-1.059,1.249A1.108,1.108,0,0,1,578.589,146.315Zm1.706,0c0-.549-.242-.876-.641-.876s-.641.333-.641.876.249.876.641.876S580.3,146.864,580.3,146.315Zm2.118-1.21h.5l-3.126,4.577h-.5Zm-.921,3.367a1.076,1.076,0,1,1,1.058,1.249A1.1,1.1,0,0,1,581.493,148.472Zm1.7,0c0-.542-.249-.876-.641-.876s-.64.327-.64.876.241.876.64.876S583.192,149.015,583.192,148.472Z" transform="translate(-570.266 -145.053)"/></g></g></g><g transform="translate(184.605 101.113)"><path class="d" d="M526.152,234.66c0,.12-28.805.216-64.331.216s-64.337-.1-64.337-.216,28.8-.216,64.337-.216S526.152,234.54,526.152,234.66Z" transform="translate(-397.484 -234.444)"/></g><g transform="translate(184.605 108.742)"><path class="d" d="M526.152,243.829c0,.12-28.805.217-64.331.217s-64.337-.1-64.337-.217,28.8-.216,64.337-.216S526.152,243.71,526.152,243.829Z" transform="translate(-397.484 -243.613)"/></g><g transform="translate(184.605 115.642)"><path class="d" d="M526.152,252.123c0,.12-28.805.216-64.331.216s-64.337-.1-64.337-.216,28.8-.216,64.337-.216S526.152,252,526.152,252.123Z" transform="translate(-397.484 -251.907)"/></g><g transform="translate(20.974 145.993)"><g transform="translate(0.448)"><path class="d" d="M203.655,336.4h0a2.312,2.312,0,0,1-2.312-2.312V290.7a2.312,2.312,0,0,1,2.312-2.312h0a2.312,2.312,0,0,1,2.313,2.312v43.386A2.312,2.312,0,0,1,203.655,336.4Z" transform="translate(-201.343 -288.388)"/><g transform="translate(0 15.62)"><path class="l" d="M203.655,339.758h0a2.313,2.313,0,0,1-2.312-2.313V309.476a2.312,2.312,0,0,1,2.312-2.313h0a2.313,2.313,0,0,1,2.313,2.313v27.969A2.313,2.313,0,0,1,203.655,339.758Z" transform="translate(-201.343 -307.163)"/></g></g><g transform="translate(0 49.992)"><path class="f" d="M202.11,348.517v3.857h-.4v-3.5H200.8v-.353Z" transform="translate(-200.804 -348.484)"/><path class="f" d="M203.478,350.439c0-1.229.645-1.962,1.537-1.962s1.543.733,1.543,1.962-.651,1.962-1.543,1.962S203.478,351.668,203.478,350.439Zm2.672,0c0-1.031-.463-1.6-1.136-1.6s-1.135.567-1.135,1.6.463,1.6,1.135,1.6S206.15,351.47,206.15,350.439Z" transform="translate(-201.253 -348.477)"/></g><g transform="translate(8.633)"><g transform="translate(1.059)"><path class="d" d="M214.767,336.4h0a2.313,2.313,0,0,1-2.313-2.312V290.7a2.313,2.313,0,0,1,2.313-2.312h0a2.312,2.312,0,0,1,2.312,2.312v43.386A2.312,2.312,0,0,1,214.767,336.4Z" transform="translate(-212.454 -288.388)"/><g transform="translate(0 6.811)"><path class="l" d="M214.767,337.979h0a2.313,2.313,0,0,1-2.313-2.313V298.887a2.313,2.313,0,0,1,2.313-2.312h0a2.312,2.312,0,0,1,2.312,2.312v36.779A2.313,2.313,0,0,1,214.767,337.979Z" transform="translate(-212.454 -296.575)"/></g></g><g transform="translate(0 49.992)"><path class="f" d="M214,352.015v.353h-2.7v-.281l1.6-1.571c.435-.429.518-.688.518-.953,0-.447-.314-.722-.9-.722a1.307,1.307,0,0,0-1.052.43l-.281-.242a1.732,1.732,0,0,1,1.366-.552c.782,0,1.278.4,1.278,1.042a1.587,1.587,0,0,1-.633,1.206l-1.311,1.29Z" transform="translate(-211.181 -348.477)"/><path class="f" d="M215.138,350.439c0-1.229.645-1.962,1.537-1.962s1.543.733,1.543,1.962-.651,1.962-1.543,1.962S215.138,351.668,215.138,350.439Zm2.672,0c0-1.031-.463-1.6-1.136-1.6s-1.135.567-1.135,1.6.463,1.6,1.135,1.6S217.81,351.47,217.81,350.439Z" transform="translate(-211.846 -348.477)"/></g></g><g transform="translate(17.862)"><g transform="translate(1.076)"><path class="d" d="M225.878,336.4h0a2.312,2.312,0,0,1-2.312-2.312V290.7a2.312,2.312,0,0,1,2.312-2.312h0a2.313,2.313,0,0,1,2.313,2.312v43.386A2.313,2.313,0,0,1,225.878,336.4Z" transform="translate(-223.566 -288.388)"/><g transform="translate(0 22.228)"><path class="l" d="M225.878,341.092h0a2.313,2.313,0,0,1-2.312-2.313V317.417a2.312,2.312,0,0,1,2.312-2.312h0a2.312,2.312,0,0,1,2.313,2.312v21.362A2.313,2.313,0,0,1,225.878,341.092Z" transform="translate(-223.566 -315.105)"/></g></g><g transform="translate(0 49.992)"><path class="f" d="M225.061,351.267c0,.644-.468,1.141-1.4,1.141a2.006,2.006,0,0,1-1.388-.5l.192-.314a1.688,1.688,0,0,0,1.2.446c.64,0,.992-.3.992-.776,0-.463-.324-.766-1.041-.766h-.275v-.292l1.069-1.339h-1.973v-.353h2.48v.281l-1.092,1.371C224.647,350.214,225.061,350.648,225.061,351.267Z" transform="translate(-222.273 -348.484)"/><path class="f" d="M226.289,350.439c0-1.229.645-1.962,1.537-1.962s1.542.733,1.542,1.962-.65,1.962-1.542,1.962S226.289,351.668,226.289,350.439Zm2.672,0c0-1.031-.463-1.6-1.135-1.6s-1.135.567-1.135,1.6.463,1.6,1.135,1.6S228.961,351.47,228.961,350.439Z" transform="translate(-222.948 -348.477)"/></g></g><g transform="translate(27.17)"><g transform="translate(1.012)"><path class="d" d="M236.99,336.4h0a2.313,2.313,0,0,1-2.313-2.312V290.7a2.313,2.313,0,0,1,2.313-2.312h0A2.312,2.312,0,0,1,239.3,290.7v43.386A2.312,2.312,0,0,1,236.99,336.4Z" transform="translate(-234.677 -288.388)"/><g transform="translate(0 6.811)"><path class="l" d="M236.99,337.979h0a2.313,2.313,0,0,1-2.313-2.313V298.887a2.313,2.313,0,0,1,2.313-2.312h0a2.312,2.312,0,0,1,2.312,2.312v36.779A2.313,2.313,0,0,1,236.99,337.979Z" transform="translate(-234.677 -296.575)"/></g></g><g transform="translate(0 49.992)"><path class="f" d="M236.8,351.36h-.771v1.014h-.4V351.36h-2.176v-.286l2.043-2.557h.441l-1.973,2.49h1.675v-.892h.386v.892h.771Z" transform="translate(-233.461 -348.484)"/><path class="f" d="M237.913,350.439c0-1.229.645-1.962,1.538-1.962s1.542.733,1.542,1.962-.65,1.962-1.542,1.962S237.913,351.668,237.913,350.439Zm2.672,0c0-1.031-.463-1.6-1.135-1.6s-1.135.567-1.135,1.6.463,1.6,1.135,1.6S240.585,351.47,240.585,350.439Z" transform="translate(-234.209 -348.477)"/></g></g><g transform="translate(36.751)"><g transform="translate(0.676)"><path class="d" d="M248.1,336.4h0a2.312,2.312,0,0,1-2.312-2.312V290.7a2.312,2.312,0,0,1,2.312-2.312h0a2.312,2.312,0,0,1,2.312,2.312v43.386A2.312,2.312,0,0,1,248.1,336.4Z" transform="translate(-245.789 -288.388)"/><g transform="translate(0 13.859)"><path class="l" d="M248.1,339.4h0a2.313,2.313,0,0,1-2.312-2.313V307.358a2.312,2.312,0,0,1,2.312-2.312h0a2.312,2.312,0,0,1,2.312,2.312v29.731A2.313,2.313,0,0,1,248.1,339.4Z" transform="translate(-245.789 -305.046)"/></g></g><g transform="translate(0 49.992)"><path class="f" d="M247.759,351.238c0,.657-.457,1.169-1.4,1.169a1.992,1.992,0,0,1-1.383-.5l.193-.314a1.665,1.665,0,0,0,1.184.446c.656,0,1-.32,1-.788,0-.5-.308-.8-1.289-.8h-.821l.2-1.934h2.11v.353h-1.763l-.132,1.228h.5C247.318,350.1,247.759,350.555,247.759,351.238Z" transform="translate(-244.977 -348.484)"/><path class="f" d="M248.92,350.439c0-1.229.645-1.962,1.537-1.962s1.543.733,1.543,1.962-.651,1.962-1.543,1.962S248.92,351.668,248.92,350.439Zm2.672,0c0-1.031-.463-1.6-1.135-1.6s-1.135.567-1.135,1.6.463,1.6,1.135,1.6S251.592,351.47,251.592,350.439Z" transform="translate(-245.64 -348.477)"/></g></g><g transform="translate(45.782)"><g transform="translate(0.889)"><path class="d" d="M259.212,336.4h0a2.312,2.312,0,0,1-2.312-2.312V290.7a2.312,2.312,0,0,1,2.312-2.312h0a2.313,2.313,0,0,1,2.313,2.312v43.386A2.313,2.313,0,0,1,259.212,336.4Z" transform="translate(-256.9 -288.388)"/><g transform="translate(0 22.023)"><path class="l" d="M259.212,340.846h0a2.28,2.28,0,0,1-2.312-2.108V317.376a2.365,2.365,0,0,1,2.312-2.517h0a2.313,2.313,0,0,1,2.313,2.313v21.362A2.313,2.313,0,0,1,259.212,340.846Z" transform="translate(-256.9 -314.859)"/></g></g><g transform="translate(0 49.992)"><path class="f" d="M258.73,351.216a1.2,1.2,0,0,1-1.316,1.185c-1.025,0-1.582-.711-1.582-1.929,0-1.311.715-1.994,1.763-1.994a1.766,1.766,0,0,1,.914.21l-.16.319a1.349,1.349,0,0,0-.749-.181c-.832,0-1.367.533-1.367,1.581,0,.088.006.2.017.314a1.232,1.232,0,0,1,1.179-.661A1.168,1.168,0,0,1,258.73,351.216Zm-.391.011c0-.508-.374-.832-.97-.832a.893.893,0,0,0-.992.843c0,.424.353.826,1.019.826A.844.844,0,0,0,258.339,351.227Z" transform="translate(-255.832 -348.477)"/><path class="f" d="M259.861,350.439c0-1.229.645-1.962,1.537-1.962s1.543.733,1.543,1.962-.651,1.962-1.543,1.962S259.861,351.668,259.861,350.439Zm2.672,0c0-1.031-.463-1.6-1.135-1.6s-1.135.567-1.135,1.6.463,1.6,1.135,1.6S262.533,351.47,262.533,350.439Z" transform="translate(-256.509 -348.477)"/></g></g><g transform="translate(54.902)"><g transform="translate(1.012)"><path class="d" d="M270.324,336.4h0a2.313,2.313,0,0,1-2.313-2.312V290.7a2.313,2.313,0,0,1,2.313-2.312h0a2.312,2.312,0,0,1,2.312,2.312v43.386A2.312,2.312,0,0,1,270.324,336.4Z" transform="translate(-268.011 -288.388)"/><g transform="translate(0 4.609)"><path class="l" d="M270.324,337.534h0a2.313,2.313,0,0,1-2.313-2.313V296.24a2.313,2.313,0,0,1,2.313-2.312h0a2.312,2.312,0,0,1,2.312,2.312v38.981A2.313,2.313,0,0,1,270.324,337.534Z" transform="translate(-268.011 -293.928)"/></g></g><g transform="translate(0 49.992)"><path class="f" d="M269.626,348.517v.281l-1.614,3.576h-.43l1.587-3.5h-1.983v.721H266.8v-1.074Z" transform="translate(-266.795 -348.484)"/><path class="f" d="M270.692,350.439c0-1.229.645-1.962,1.538-1.962s1.542.733,1.542,1.962-.651,1.962-1.542,1.962S270.692,351.668,270.692,350.439Zm2.672,0c0-1.031-.463-1.6-1.135-1.6s-1.136.567-1.136,1.6.463,1.6,1.136,1.6S273.364,351.47,273.364,350.439Z" transform="translate(-267.45 -348.477)"/></g></g><g transform="translate(64.025)"><g transform="translate(1.134)"><path class="d" d="M281.435,336.4h0a2.312,2.312,0,0,1-2.312-2.312V290.7a2.312,2.312,0,0,1,2.312-2.312h0a2.313,2.313,0,0,1,2.313,2.312v43.386A2.313,2.313,0,0,1,281.435,336.4Z" transform="translate(-279.123 -288.388)"/><g transform="translate(0 26.632)"><path class="l" d="M281.435,341.982h0a2.313,2.313,0,0,1-2.312-2.313V322.711a2.312,2.312,0,0,1,2.312-2.312h0a2.313,2.313,0,0,1,2.313,2.312v16.958A2.313,2.313,0,0,1,281.435,341.982Z" transform="translate(-279.123 -320.399)"/></g></g><g transform="translate(0 49.992)"><path class="f" d="M280.746,351.293c0,.683-.578,1.107-1.5,1.107s-1.488-.424-1.488-1.107a.963.963,0,0,1,.744-.948.871.871,0,0,1-.606-.849c0-.627.535-1.019,1.35-1.019s1.361.392,1.361,1.019a.873.873,0,0,1-.617.849A.971.971,0,0,1,280.746,351.293Zm-.408-.006c0-.474-.408-.772-1.091-.772s-1.086.3-1.086.772.4.776,1.086.776S280.338,351.767,280.338,351.287Zm-1.091-1.086c.6,0,.958-.27.958-.689s-.38-.7-.958-.7-.953.265-.953.695S278.647,350.2,279.248,350.2Z" transform="translate(-277.76 -348.477)"/><path class="f" d="M282.008,350.439c0-1.229.645-1.962,1.537-1.962s1.542.733,1.542,1.962-.651,1.962-1.542,1.962S282.008,351.668,282.008,350.439Zm2.672,0c0-1.031-.462-1.6-1.135-1.6s-1.136.567-1.136,1.6.463,1.6,1.136,1.6S284.68,351.47,284.68,350.439Z" transform="translate(-278.474 -348.477)"/></g></g><g transform="translate(73.121)"><g transform="translate(1.282)"><path class="d" d="M292.547,336.4h0a2.312,2.312,0,0,1-2.313-2.312V290.7a2.312,2.312,0,0,1,2.313-2.312h0a2.312,2.312,0,0,1,2.312,2.312v43.386A2.312,2.312,0,0,1,292.547,336.4Z" transform="translate(-290.234 -288.388)"/><g transform="translate(0 37.439)"><path class="l" d="M292.547,343.96h0a2.28,2.28,0,0,1-2.313-2.108v-5.946a2.365,2.365,0,0,1,2.313-2.517h0a2.312,2.312,0,0,1,2.312,2.312v5.947A2.312,2.312,0,0,1,292.547,343.96Z" transform="translate(-290.234 -333.389)"/></g></g><g transform="translate(0 49.992)"><path class="f" d="M291.592,350.406c0,1.311-.716,2-1.763,2a1.767,1.767,0,0,1-.914-.21l.159-.319a1.361,1.361,0,0,0,.75.181c.832,0,1.366-.534,1.366-1.582,0-.087,0-.2-.016-.314a1.232,1.232,0,0,1-1.18.661,1.168,1.168,0,0,1-1.3-1.156,1.2,1.2,0,0,1,1.317-1.185C291.035,348.477,291.592,349.188,291.592,350.406Zm-.545-.766c0-.424-.353-.826-1.02-.826a.844.844,0,0,0-.942.838c0,.507.374.832.969.832A.893.893,0,0,0,291.047,349.639Z" transform="translate(-288.693 -348.477)"/><path class="f" d="M292.862,350.439c0-1.229.645-1.962,1.537-1.962s1.543.733,1.543,1.962-.651,1.962-1.543,1.962S292.862,351.668,292.862,350.439Zm2.672,0c0-1.031-.463-1.6-1.135-1.6s-1.135.567-1.135,1.6.463,1.6,1.135,1.6S295.534,351.47,295.534,350.439Z" transform="translate(-289.394 -348.477)"/></g></g><g transform="translate(81.341)"><g transform="translate(2.306)"><path class="d" d="M303.658,336.4h0a2.313,2.313,0,0,1-2.313-2.312V290.7a2.313,2.313,0,0,1,2.313-2.312h0a2.312,2.312,0,0,1,2.312,2.312v43.386A2.312,2.312,0,0,1,303.658,336.4Z" transform="translate(-301.345 -288.388)"/><g transform="translate(0 22.023)"><path class="l" d="M303.658,340.846h0a2.28,2.28,0,0,1-2.313-2.108V317.376a2.366,2.366,0,0,1,2.313-2.517h0a2.313,2.313,0,0,1,2.312,2.313v21.362A2.312,2.312,0,0,1,303.658,340.846Z" transform="translate(-301.345 -314.859)"/></g></g><g transform="translate(0 49.992)"><path class="f" d="M299.879,348.517v3.857h-.4v-3.5h-.909v-.353Z" transform="translate(-298.573 -348.484)"/><path class="f" d="M301.247,350.439c0-1.229.645-1.962,1.537-1.962s1.543.733,1.543,1.962-.651,1.962-1.543,1.962S301.247,351.668,301.247,350.439Zm2.672,0c0-1.031-.463-1.6-1.136-1.6s-1.135.567-1.135,1.6.463,1.6,1.135,1.6S303.919,351.47,303.919,350.439Z" transform="translate(-299.022 -348.477)"/><path class="f" d="M305.627,350.439c0-1.229.645-1.962,1.537-1.962s1.542.733,1.542,1.962-.651,1.962-1.542,1.962S305.627,351.668,305.627,350.439Zm2.672,0c0-1.031-.463-1.6-1.135-1.6s-1.136.567-1.136,1.6.463,1.6,1.136,1.6S308.3,351.47,308.3,350.439Z" transform="translate(-299.758 -348.477)"/></g></g></g><g transform="translate(125.873 139.291)"><path class="d" d="M327.105,344.113c-.12,0-.216-14.279-.216-31.888s.1-31.892.216-31.892.216,14.276.216,31.892S327.225,344.113,327.105,344.113Z" transform="translate(-326.889 -280.333)"/></g><g transform="translate(140.563 143.235)"><path class="f" d="M383.871,285.289c0,.12-8.8.217-19.661.217s-19.663-.1-19.663-.217,8.8-.216,19.663-.216S383.871,285.17,383.871,285.289Z" transform="translate(-344.547 -285.073)"/></g></g></g><g transform="translate(-10440.537 -12083.735)"><path class="n" d="M143.565,342.826a38.895,38.895,0,1,1,38.7-43.029h0a38.9,38.9,0,0,1-38.7,43.029Zm.092-71.969a33.62,33.62,0,0,0-3.577.192,32.944,32.944,0,1,0,3.577-.192Z" transform="translate(-104.698 -265.034)"/><g transform="translate(56.829 64.754)"><path class="n" d="M212.695,391.851a2.905,2.905,0,0,1-2.218-1.023L173.7,347.667a2.912,2.912,0,1,1,4.433-3.778l36.778,43.16a2.912,2.912,0,0,1-2.216,4.8Z" transform="translate(-173.004 -342.866)"/></g></g><g transform="translate(-10230.803 -12204.794)"><g transform="translate(112.645 262.916)"><path class="o" d="M506.82,435.543l.422,15.124s15.514,4.65,15.864,7.438l-29.294,1.87-1.624-23.537Z" transform="translate(-492.187 -435.543)"/><g transform="translate(5.133 14.365)"><path class="d" d="M499.139,452.876a1.2,1.2,0,0,0-.74,1.418,1.153,1.153,0,0,0,1.4.745,1.266,1.266,0,0,0,.776-1.506,1.2,1.2,0,0,0-1.542-.614" transform="translate(-498.356 -452.809)"/></g><g class="p" transform="translate(1.553 21.149)"><path class="j" d="M494.125,464.246l-.071-2.379,28.113-.9s1.34.484,1.252,1.413Z" transform="translate(-494.054 -460.963)"/></g><g transform="translate(12.95 14.837)"><path class="f" d="M510.322,453.483c0,.143-.706.254-1.381.759-.688.487-1.011,1.131-1.146,1.082-.133-.02.025-.889.853-1.485S510.344,453.35,510.322,453.483Z" transform="translate(-507.753 -453.377)"/></g><g transform="translate(16.85 15.969)"><path class="f" d="M514.264,454.787c.042.136-.562.419-1.01,1.055-.466.623-.547,1.285-.69,1.288-.132.032-.285-.8.286-1.581S514.252,454.651,514.264,454.787Z" transform="translate(-512.441 -454.738)"/></g><g transform="translate(20.442 17.047)"><path class="f" d="M516.969,458.57c-.128.039-.373-.663-.056-1.47s.966-1.161,1.034-1.046c.089.112-.319.56-.569,1.226C517.112,457.941,517.11,458.547,516.969,458.57Z" transform="translate(-516.758 -456.033)"/></g><g transform="translate(12.005 11.077)"><path class="f" d="M509.653,449.288c-.052.135-.72-.021-1.526.086-.807.09-1.419.4-1.5.284-.09-.1.491-.667,1.441-.779S509.716,449.171,509.653,449.288Z" transform="translate(-506.617 -448.857)"/></g><g transform="translate(10.334 6.33)"><path class="f" d="M509.174,445.28a2.761,2.761,0,0,1-1.468.086,6.682,6.682,0,0,1-1.565-.373,7.019,7.019,0,0,1-.871-.394,1.81,1.81,0,0,1-.465-.317.624.624,0,0,1-.114-.756.784.784,0,0,1,.606-.368,1.923,1.923,0,0,1,.555.041,5.3,5.3,0,0,1,.932.255,5.208,5.208,0,0,1,1.41.8c.72.586.986,1.106.938,1.136-.062.052-.421-.375-1.146-.851a5.883,5.883,0,0,0-1.356-.653,5.4,5.4,0,0,0-.859-.206c-.315-.062-.58-.047-.651.1-.025.054-.027.075.043.161a1.439,1.439,0,0,0,.342.231,7.749,7.749,0,0,0,.8.394,8.146,8.146,0,0,0,1.453.453A10.179,10.179,0,0,1,509.174,445.28Z" transform="translate(-504.609 -443.152)"/></g><g transform="translate(14.219 3.946)"><path class="f" d="M509.785,445.016a2.345,2.345,0,0,1-.478-1.393,4.749,4.749,0,0,1,.414-2.533,1.214,1.214,0,0,1,.889-.8.686.686,0,0,1,.639.369,1.972,1.972,0,0,1,.185.528,3.272,3.272,0,0,1,.064.988,3.389,3.389,0,0,1-.529,1.556c-.524.8-1.111,1-1.126.957-.052-.069.428-.377.82-1.134a3.389,3.389,0,0,0,.376-1.409,3.029,3.029,0,0,0-.081-.846c-.065-.309-.2-.552-.313-.513-.146.007-.379.257-.483.513a4.926,4.926,0,0,0-.313.818,5.3,5.3,0,0,0-.191,1.483C509.675,444.463,509.862,444.988,509.785,445.016Z" transform="translate(-509.278 -440.287)"/></g></g><g transform="translate(57.554 262.256)"><path class="o" d="M433.7,434.749l-1.765,19.431-5.827,14.966a2,2,0,0,0,1.265,2.633h0a1.988,1.988,0,0,0,1.8-.314c3.282-2.5,15.307-11.757,15.357-13.186.057-1.656,3.222-20.372,3.222-20.372Z" transform="translate(-425.969 -434.749)"/><g class="p" transform="translate(1.402 22.222)"><path class="j" d="M427.655,476.267l17.309-14.808-.093.821a3.011,3.011,0,0,1-.93,1.858c-1.4,1.306-5.329,4.83-14.424,11.823a2,2,0,0,1-1.862.306Z" transform="translate(-427.655 -461.459)"/></g><g class="p" transform="translate(14.834 15.385)"><path class="j" d="M444.411,453.372a1.209,1.209,0,0,0-.507,1.532,1.163,1.163,0,0,0,1.513.517,1.275,1.275,0,0,0,.529-1.626,1.205,1.205,0,0,0-1.634-.363" transform="translate(-443.799 -453.241)"/></g><g transform="translate(3.087 26.497)"><path class="f" d="M433.391,469.165c-.116.042-.438-1.024-1.528-1.7a6.119,6.119,0,0,0-2.183-.681c-.012-.049.251-.172.712-.184a3.187,3.187,0,0,1,2.87,1.843C433.443,468.866,433.441,469.155,433.391,469.165Z" transform="translate(-429.68 -466.598)"/></g><g transform="translate(1.633 29.821)"><path class="f" d="M431.421,472.275c-.1.073-.652-.627-1.622-1.029a16.238,16.238,0,0,0-1.865-.459,2.212,2.212,0,0,1,2.033.066C431.07,471.316,431.528,472.234,431.421,472.275Z" transform="translate(-427.932 -470.593)"/></g><g transform="translate(4.552 23.204)"><path class="f" d="M436.637,465.466a10.277,10.277,0,0,0-5.2-2.756,5.468,5.468,0,0,1,5.2,2.756Z" transform="translate(-431.441 -462.639)"/></g><g transform="translate(5.746 19.006)"><path class="f" d="M437.908,458.756c-.065.111-1.085-.459-2.473-.668-1.385-.228-2.531,0-2.558-.125a4.959,4.959,0,0,1,5.031.793Z" transform="translate(-432.876 -457.593)"/></g><g transform="translate(6.239 13.274)"><path class="f" d="M438.669,451.908a6.351,6.351,0,0,0-5.2-.411c-.027-.044.212-.263.688-.471a4.359,4.359,0,0,1,3.905.309C438.5,451.615,438.7,451.869,438.669,451.908Z" transform="translate(-433.468 -450.704)"/></g><g transform="translate(6.241 9.039)"><path class="f" d="M436.272,449.21a1.671,1.671,0,0,1,.057-.736,5.138,5.138,0,0,1,.8-1.854,2.272,2.272,0,0,1,1.092-.968.8.8,0,0,1,.879.28,1.308,1.308,0,0,1,.207.91,2.826,2.826,0,0,1-2.756,2.317,3.278,3.278,0,0,1-3.005-2.068,1.137,1.137,0,0,1,.054-.946.789.789,0,0,1,.867-.321,2.8,2.8,0,0,1,1.2.809,5.719,5.719,0,0,1,1.151,1.657,1.754,1.754,0,0,1,.221.7,9.115,9.115,0,0,0-1.583-2.142,2.612,2.612,0,0,0-1.064-.68.421.421,0,0,0-.473.172.78.78,0,0,0,0,.624,2.926,2.926,0,0,0,2.626,1.763,2.455,2.455,0,0,0,2.369-1.933.952.952,0,0,0-.118-.641.433.433,0,0,0-.482-.161,2.053,2.053,0,0,0-.939.8A7.591,7.591,0,0,0,436.272,449.21Z" transform="translate(-433.471 -445.614)"/></g></g><g transform="translate(59.703 123.396)"><path class="q" d="M429.709,267.869,428.553,419.4l21.309,1.362,4.487-126.579,25.54,125.865,19.369-2.039-20.6-150.164Z" transform="translate(-428.553 -267.844)"/></g><g transform="translate(72.219)"><g transform="translate(0 0.345)"><path class="r" d="M458.145,119.98a12.914,12.914,0,0,0-13.9,12.092c-.361,6-.689,12.485-.649,15.753.087,7.014,7.1,8.106,7.1,8.106s-.171,2.078-.365,4.657a9.242,9.242,0,0,0,8.789,9.925h0a9.238,9.238,0,0,0,9.653-8.815l1.27-28.26a12.917,12.917,0,0,0-11.9-13.458Z" transform="translate(-443.596 -119.94)"/><g transform="translate(7.078 33.29)"><path class="s" d="M452.12,162.553a16.31,16.31,0,0,0,9.146-2.6S459.1,165,452.1,164.371Z" transform="translate(-452.104 -159.954)"/></g><g transform="translate(25.531 15.687)"><path class="r" d="M474.558,139.016c.12-.052,4.82-1.425,4.666,3.37s-4.936,3.653-4.94,3.515S474.558,139.016,474.558,139.016Z" transform="translate(-474.284 -138.796)"/><g transform="translate(1.518 1.57)"><path class="s" d="M476.114,144.448c.022-.014.082.062.22.131a.835.835,0,0,0,.624.032,2.067,2.067,0,0,0,1.016-1.824,2.766,2.766,0,0,0-.2-1.2.967.967,0,0,0-.608-.661.426.426,0,0,0-.5.213c-.069.132-.042.23-.067.236s-.1-.083-.055-.28a.534.534,0,0,1,.2-.294.631.631,0,0,1,.466-.107,1.175,1.175,0,0,1,.849.772,2.83,2.83,0,0,1,.246,1.345,2.169,2.169,0,0,1-1.285,2.033.9.9,0,0,1-.76-.151C476.118,144.565,476.1,144.457,476.114,144.448Z" transform="translate(-476.109 -140.682)"/></g></g><g transform="translate(2.432 9.799)"><g transform="translate(0 3.779)"><g transform="translate(0 2.109)"><path class="f" d="M446.52,139.7a1,1,0,0,0,.967,1.011.959.959,0,0,0,1.032-.9,1,1,0,0,0-.965-1.012A.96.96,0,0,0,446.52,139.7Z" transform="translate(-446.519 -138.795)"/></g><g transform="translate(0.012)"><path class="f" d="M446.55,137.313c.125.131.884-.431,1.962-.428,1.077-.012,1.868.542,1.985.41.057-.058-.07-.294-.414-.545a2.743,2.743,0,0,0-1.589-.49,2.637,2.637,0,0,0-1.561.5C446.6,137.018,446.489,137.254,446.55,137.313Z" transform="translate(-446.534 -136.26)"/></g><g transform="translate(10.597 0.201)"><g transform="translate(0 1.908)"><path class="f" d="M459.257,139.7a1,1,0,0,0,.966,1.011.958.958,0,0,0,1.032-.9,1,1,0,0,0-.965-1.012A.96.96,0,0,0,459.257,139.7Z" transform="translate(-459.256 -138.795)"/></g><g transform="translate(0.012)"><path class="f" d="M459.287,137.554c.124.131.884-.431,1.961-.428,1.076-.012,1.868.542,1.985.41.057-.059-.068-.295-.413-.545a2.741,2.741,0,0,0-1.589-.49,2.637,2.637,0,0,0-1.561.5C459.338,137.26,459.225,137.5,459.287,137.554Z" transform="translate(-459.271 -136.502)"/></g></g><g transform="translate(3.966 0.266)"><path class="f" d="M454.032,145.562a7.189,7.189,0,0,0-1.75-.315c-.275-.028-.536-.083-.582-.271a1.4,1.4,0,0,1,.184-.816q.388-1,.814-2.1a36.036,36.036,0,0,0,1.829-5.483,36.08,36.08,0,0,0-2.265,5.323q-.408,1.1-.78,2.108a1.594,1.594,0,0,0-.143,1.081.69.69,0,0,0,.453.4,1.865,1.865,0,0,0,.468.066A7,7,0,0,0,454.032,145.562Z" transform="translate(-451.286 -136.58)"/></g><g transform="translate(6.449 9.994)"><path class="f" d="M457.707,148.273c-.176-.01-.178,1.16-1.18,1.99s-2.247.7-2.256.865c-.016.074.278.228.8.242a2.915,2.915,0,0,0,1.884-.656,2.539,2.539,0,0,0,.913-1.669C457.917,148.556,457.787,148.266,457.707,148.273Z" transform="translate(-454.27 -148.273)"/></g></g><g transform="translate(10.34)"><path class="f" d="M458.954,132.527c.107.293,1.183.154,2.448.306,1.268.127,2.288.5,2.455.235.075-.126-.1-.4-.515-.686a4.285,4.285,0,0,0-3.736-.412C459.142,132.157,458.908,132.387,458.954,132.527Z" transform="translate(-458.948 -131.718)"/></g><g transform="translate(0.397 0.595)"><path class="f" d="M447.024,133.55c.19.245.932-.01,1.825-.022.893-.043,1.649.165,1.823-.091.077-.125-.042-.369-.374-.6a2.644,2.644,0,0,0-2.939.091C447.044,133.179,446.94,133.431,447.024,133.55Z" transform="translate(-446.996 -132.434)"/></g></g></g><g transform="translate(5.675)"><path class="f" d="M471.1,135.558a8.149,8.149,0,0,1-.119,2.3,2.51,2.51,0,0,1-1.225,1.75c-1.2.6-2.716-.32-3.256-1.553a8.074,8.074,0,0,1-.266-3.984,19.394,19.394,0,0,0-.082-5.488,7.877,7.877,0,0,0-2.634-4.706,5,5,0,0,0-5.167-.745,28.056,28.056,0,0,0-2.731,2.013,4.214,4.214,0,0,1-2.9.73,2.723,2.723,0,0,1-2.221-1.851,2.965,2.965,0,0,1,1.131-2.944,6.771,6.771,0,0,1,3.064-1.226,16.431,16.431,0,0,1,9.1.709,11.872,11.872,0,0,1,6.6,6.144c1.394,3.282,1.213,5.286.81,8.85" transform="translate(-450.417 -119.526)"/></g></g><g transform="translate(0 52.767)"><path class="r" d="M357.662,182.95l10.229,2.061,14.069,8.96-4.8,9.134s-4.947-1.38-6.392-2.656a5.852,5.852,0,0,0-3.042-1.419s.1,2.26-1.616,1.87-4.571-.877-4.085-3.287a1.863,1.863,0,0,1-1.2-2.033s-1.412-.106-1.03-2.447,2.074-5.362,6.739-4.512c.242.049.563-.414.141-.572l-7.214-1.7S354.943,184.562,357.662,182.95Z" transform="translate(-356.792 -182.95)"/><g transform="translate(3.867 10.062)"><path class="s" d="M363.492,195.055a7.135,7.135,0,0,1,1.714.417,15.409,15.409,0,0,1,1.835.622,1.562,1.562,0,0,1,.829.949,1.268,1.268,0,0,1-.491,1.283,3.037,3.037,0,0,1-2.411.316,15.371,15.371,0,0,1-1.885-.388,4.811,4.811,0,0,1-1.642-.664,14.3,14.3,0,0,1,1.714.366c.527.107,1.158.207,1.866.29a6.7,6.7,0,0,0,1.083.077,1.8,1.8,0,0,0,1-.334.853.853,0,0,0,.351-.843,1.183,1.183,0,0,0-.607-.7c-.59-.3-1.251-.478-1.743-.683A7.171,7.171,0,0,1,363.492,195.055Z" transform="translate(-361.439 -195.044)"/></g><g transform="translate(6.154 8.611)"><path class="s" d="M366.451,193.441c-.013.123-.625.138-1.222.527-.609.371-.887.917-1,.874-.119-.012.023-.774.773-1.24S366.49,193.327,366.451,193.441Z" transform="translate(-364.188 -193.3)"/></g><g transform="translate(5.236 13.23)"><path class="s" d="M367.345,198.857c.019-.018.109.012.236.138.156.13.186.44.221.7a1.366,1.366,0,0,1-.294,1.093,1.408,1.408,0,0,1-1.328.388,14.807,14.807,0,0,1-2.24-.451c-.565-.184-.877-.385-.854-.436s.369.037.929.139,1.352.186,2.22.319a1.06,1.06,0,0,0,.977-.225,1.123,1.123,0,0,0,.286-.8c0-.316.025-.5-.054-.626S367.321,198.879,367.345,198.857Z" transform="translate(-363.085 -198.852)"/></g><g transform="translate(9.417 15.025)"><path class="s" d="M368.111,201.1c-.008-.052.187-.142.5-.053a1.834,1.834,0,0,1,.917.73,1.332,1.332,0,0,1,.109,1.2c-.1.28-.224.419-.277.4s-.04-.2-.023-.463a1.4,1.4,0,0,0-.163-.89,2.6,2.6,0,0,0-.685-.7C368.282,201.2,368.114,201.166,368.111,201.1Z" transform="translate(-368.111 -201.01)"/></g><g transform="translate(6.916 9.444)"><g transform="translate(0.212 0.176)"><path class="r" d="M375.513,194.717l-4.939-.2-5.185,1.011s-.427.942,1.974,1.584a11.563,11.563,0,0,0,4.62.219s2.139,3.119,4.919,3.837" transform="translate(-365.36 -194.513)"/></g><path class="s" d="M376.86,201.128a1.357,1.357,0,0,1-.458-.082,5.851,5.851,0,0,1-1.2-.515,11.273,11.273,0,0,1-3.415-3.132l.193.079a10.832,10.832,0,0,1-5.682-.533,2.748,2.748,0,0,1-.819-.517.979.979,0,0,1-.324-1.027l.033-.1.121-.023,5.191-.973.022,0,.019,0c1.5.082,2.735.158,3.592.224a6.8,6.8,0,0,1,1.339.155,6.657,6.657,0,0,1-1.348.044c-.86-.006-2.1-.031-3.6-.073l.041,0-5.177,1.05.154-.122a.609.609,0,0,0,.234.541,2.377,2.377,0,0,0,.7.433,10.863,10.863,0,0,0,5.434.554l.124-.017.07.1a12.059,12.059,0,0,0,3.216,3.155A16.371,16.371,0,0,0,376.86,201.128Z" transform="translate(-365.105 -194.301)"/></g><g transform="translate(10.011 5.251)"><path class="s" d="M370.069,190.943c-.063.1-.538-.117-.9-.626s-.407-1.027-.294-1.054.333.365.647.8S370.141,190.843,370.069,190.943Z" transform="translate(-368.824 -189.261)"/></g></g><g transform="translate(19.74 38.107)"><g transform="translate(45.717 1.922)"><path class="e" d="M435.469,252.2c8.493,3.667,18.431,4.759,29.646,3.57l8.215-83.661-5.825-4.472-13.421,9.975-4.6-9.613-10.775,15.48Z" transform="translate(-435.469 -167.639)"/></g><g transform="translate(59.013 11.898)"><path class="f" d="M452.254,258.246a.727.727,0,0,1-.047-.2c-.025-.159-.055-.353-.093-.591l-.317-2.281c-.084-1-.146-2.216-.236-3.633-.072-1.418-.069-3.033-.108-4.82-.05-7.145.428-17,1.223-27.865s1.781-20.682,2.573-27.777c.394-3.548.754-6.414,1.027-8.391.129-.989.255-1.755.34-2.274.042-.237.076-.431.1-.589a.708.708,0,0,1,.05-.2.734.734,0,0,1-.006.2c-.017.16-.037.355-.061.595q-.095.836-.26,2.282c-.214,2.022-.517,4.883-.889,8.4-.714,7.1-1.649,16.915-2.445,27.775s-1.321,20.7-1.349,27.834c.02,1.781-.006,3.4.044,4.81s.117,2.62.162,3.627q.15,1.445.235,2.282l.051.6A.719.719,0,0,1,452.254,258.246Z" transform="translate(-451.45 -179.629)"/></g><g transform="translate(67.471 1.922)"><path class="k" d="M465.26,268.556s-6.256-65.4-2.375-72.7c3.005-5.656,7.652-17.47,9.6-22.516a6.076,6.076,0,0,0-.12-4.662l-.463-1.035,5.825,4.472,11.957,6.427-7.217,55.4,8.174,28.11Z" transform="translate(-461.615 -167.639)"/></g><g class="t" transform="translate(68.889 74.545)"><path d="M463.935,264.289c5.085-1.062,2.889,1.891,8.03,1.142,2.777-.4,2.918-2.028,5.2-3.657a15.806,15.806,0,0,1,8.558-2.929l-1.139-3.917-21.268.791Z" transform="translate(-463.32 -254.929)"/></g><g transform="translate(38.085 2.887)"><path class="k" d="M428.415,181.893l2.072,52.244-4.191,29.243,10.475,3.87,4.58-80.8a21.743,21.743,0,0,1,1.976-8.7l4.1-8.954-13.9,4.733Z" transform="translate(-426.295 -168.798)"/></g><g transform="translate(72.921 12.821)"><path class="k" d="M490.782,180.739s6.561,5.677,8.037,13.3c1.077,5.564,4.242,25.087,5.123,35.112a11.832,11.832,0,0,1-10.012,12.763l-.283.04c-9.513,1.3-25.48-.5-25.48-.5l2.785-12.149s14.123-2.04,16.66-3.746l-3.368-22.535S487.009,181.388,490.782,180.739Z" transform="translate(-468.167 -180.739)"/></g><g transform="translate(0 6.163)"><path class="k" d="M386.868,190.5l23.126,14.651s8.33-24.472,13.682-30.226l6.443-2.192-5.875,46.958A9.544,9.544,0,0,1,420,226.152h0a9.545,9.545,0,0,1-11.181-.611l-28.3-22.948Z" transform="translate(-380.518 -172.736)"/></g><g transform="translate(92.209 57.59)"><path class="f" d="M495.73,242.226a9.786,9.786,0,0,1-.141-1.363,8.31,8.31,0,0,0-3.136-5.492c-.659-.512-1.132-.748-1.1-.814a2.9,2.9,0,0,1,1.28.564,7.33,7.33,0,0,1,3.264,5.715A2.91,2.91,0,0,1,495.73,242.226Z" transform="translate(-491.35 -234.55)"/></g><g transform="translate(92.223 57.397)"><path class="f" d="M493.253,243.792a13.477,13.477,0,0,0-1.879-9.473,3.581,3.581,0,0,1,.938,1.146,10.141,10.141,0,0,1,1.37,6.91A3.576,3.576,0,0,1,493.253,243.792Z" transform="translate(-491.367 -234.318)"/></g><g transform="translate(87.727 15.107)"><path class="f" d="M492.159,183.489A18.367,18.367,0,0,0,489.635,186a16.126,16.126,0,0,0-3.086,7.887,33.259,33.259,0,0,0,.305,8.593c.155,1.026.286,1.894.393,2.6a4.2,4.2,0,0,1,.1.963,4.078,4.078,0,0,1-.266-.931c-.142-.606-.333-1.485-.529-2.582a29.792,29.792,0,0,1-.434-8.694,15.564,15.564,0,0,1,3.277-8.027,10.413,10.413,0,0,1,1.929-1.82A3.427,3.427,0,0,1,492.159,183.489Z" transform="translate(-485.963 -183.487)"/></g><g class="t" transform="translate(92.543 57.455)"><path d="M491.752,234.387a7.673,7.673,0,0,1,1.688,4.663,14.361,14.361,0,0,1-.805,4.96,1.085,1.085,0,0,0-.023.905.725.725,0,0,0,1.052.036,2.1,2.1,0,0,0,.522-1.057c-.2.224.09.607.39.587a.987.987,0,0,0,.69-.527,5.45,5.45,0,0,0,.2-4.95,14.087,14.087,0,0,0-3-4.154" transform="translate(-491.752 -234.387)"/></g><g transform="translate(29.475 38.519)"><path class="f" d="M420.666,220.849a25.336,25.336,0,0,1-4.709-9.221c.121-.043.962,2.118,2.265,4.657S420.771,220.777,420.666,220.849Z" transform="translate(-415.946 -211.627)"/></g><g transform="translate(28.864 38.378)"><path class="f" d="M417.3,222.583a5.844,5.844,0,0,1-.58-1.565,40.3,40.3,0,0,1-1.45-7.893,5.849,5.849,0,0,1-.015-1.667c.126-.011.4,2.507.969,5.573S417.421,222.547,417.3,222.583Z" transform="translate(-415.211 -211.458)"/></g><g transform="translate(42.06 22.554)"><path class="f" d="M431.289,192.438c.12,0,.216,10.225.216,22.835s-.1,22.837-.216,22.837-.216-10.222-.216-22.837S431.169,192.438,431.289,192.438Z" transform="translate(-431.073 -192.438)"/></g><g transform="translate(47.668 3.86)"><path class="f" d="M446.505,169.968a2.176,2.176,0,0,1-.277.4L445.4,171.5a50.711,50.711,0,0,0-2.8,4.345,26.549,26.549,0,0,0-2.965,7.052c-.257,1.4-.424,2.953-.658,4.529-.691,1.663.948,2.746,2.283,3.649l.335.225-.373.158a6.857,6.857,0,0,0-1.352.866c-.6.463-1.171.957-1.689,1.432l.068-.175c.26,3.306.829,6.429,1.2,9.257.4,2.816.753,5.345,1.053,7.481.279,2.081.505,3.775.67,5.007.066.554.119,1,.161,1.358a2.065,2.065,0,0,1,.027.475,2.171,2.171,0,0,1-.11-.463c-.061-.351-.141-.8-.237-1.345-.2-1.227-.468-2.915-.8-4.988-.328-2.132-.715-4.657-1.147-7.468-.4-2.832-.979-5.927-1.25-9.281l-.008-.1.077-.07c.531-.487,1.106-.984,1.719-1.459a7.119,7.119,0,0,1,1.46-.925l-.037.384a9.189,9.189,0,0,1-1.992-1.626,2.367,2.367,0,0,1-.6-1.191,1.4,1.4,0,0,1,0-.359l.042-.3.085-.594c.242-1.579.409-3.082.691-4.556a20.025,20.025,0,0,1,1.4-3.932,33.8,33.8,0,0,1,1.695-3.186,41.975,41.975,0,0,1,2.923-4.293c.377-.481.678-.848.894-1.086A2.2,2.2,0,0,1,446.505,169.968Z" transform="translate(-437.813 -169.967)"/></g><g transform="translate(71.138 5.393)"><path class="f" d="M476.884,171.811a1.145,1.145,0,0,1,.115.349,8.537,8.537,0,0,1,.2,1.031,14.883,14.883,0,0,1-.012,3.862,36.362,36.362,0,0,1-1.249,5.582,45.5,45.5,0,0,1-2.374,6.585c-.907,2.044-1.874,3.95-2.76,5.7l-.045.088-.095.019-2.007.4.106-.312,1.3,1.538.084.1-.066.107-2.906,4.666-.829,1.279a2.075,2.075,0,0,1-.322.431,2.1,2.1,0,0,1,.232-.486l.746-1.329,2.776-4.743.017.206-1.319-1.517-.212-.245.319-.067,2-.426-.141.107c.869-1.756,1.825-3.662,2.726-5.692a48.231,48.231,0,0,0,2.388-6.523,39.42,39.42,0,0,0,1.328-5.51,16.633,16.633,0,0,0,.148-3.8C476.958,172.31,476.841,171.82,476.884,171.811Z" transform="translate(-466.024 -171.811)"/></g><g class="t" transform="translate(27.93 37.917)"><path d="M419.356,220.345c-1.033-2.948-2.456-5.92-3.721-8.777l-1.049-.665a12.618,12.618,0,0,0,.4,8.085.847.847,0,0,0,.434.574.6.6,0,0,0,.7-.5,1.735,1.735,0,0,0-.176-.949,25.062,25.062,0,0,0,2.334,3.451.987.987,0,0,0,.5.394.688.688,0,0,0,.744-.582A1.982,1.982,0,0,0,419.356,220.345Z" transform="translate(-414.089 -210.903)"/></g><g class="t" transform="translate(45.717 22.89)"><path d="M440.427,219.8c-1.995-5.646-4-11.341-4.792-17.277a10.146,10.146,0,0,1,.053-3.939,4.07,4.07,0,0,1,2.465-2.9,2.2,2.2,0,0,1-.034-2.849l2.433,2.587a3.026,3.026,0,0,0-2.688,2.284,8.876,8.876,0,0,0-.036,3.755q1.245,9.272,2.489,18.545" transform="translate(-435.469 -192.841)"/></g><g class="t" transform="translate(71.14 17.355)"><path d="M472.113,198.877q1.813-6.345,3.626-12.688-1.524,3.638-3.048,7.276a10.037,10.037,0,0,1-1.6,2.876,3.4,3.4,0,0,1-2.913,1.252l1.893,1.29c-1.359,2.185-2.691,4.583-4.049,6.768l2.918.246,3.2-5.085q-.488-.876-.977-1.753Z" transform="translate(-466.026 -186.189)"/></g><g transform="translate(58.154)"><path class="e" d="M451.483,168.215l.156-2.03,3.758,5.307,1.2,5.735,3.074-5.735,10.6-6.163v5.393l-2.026,5.239-3.951,3.051-4.525,1.983-5.379-1.005-3.251-1.84-.723-3.8Z" transform="translate(-450.417 -165.328)"/></g><g transform="translate(58.042 5.713)"><path class="f" d="M455.11,172.568c.059.025-.221.737-.55,1.933a15.625,15.625,0,0,0-.626,4.79l.037.819-.434-.688-.265-.418a37.533,37.533,0,0,1-2.093-4.835c-.507-1.234-.948-1.935-.892-1.973a6.048,6.048,0,0,1,1.171,1.847c.617,1.206,1.165,3,2.185,4.738l.254.4-.4.131a13.61,13.61,0,0,1,.775-4.9A6.434,6.434,0,0,1,455.11,172.568Z" transform="translate(-450.283 -172.195)"/></g><g transform="translate(67.393 3.507)"><path class="f" d="M472.14,169.544c.015,0,.024.074.028.218a2.6,2.6,0,0,1-.065.626,4.873,4.873,0,0,1-1.125,2.008,13.356,13.356,0,0,1-2.6,2.2,35.515,35.515,0,0,0-3.3,2.429,32.315,32.315,0,0,1-2.993,2.2l-.388.239.082-.45a12.353,12.353,0,0,0,.091-2.721c-.044-.829-.115-1.56-.175-2.165a13.373,13.373,0,0,1-.159-1.929,9.181,9.181,0,0,1,.407,1.9c.095.6.2,1.336.269,2.174a11.773,11.773,0,0,1-.034,2.821l-.306-.211a36.626,36.626,0,0,0,2.937-2.2,31.387,31.387,0,0,1,3.353-2.421,14.3,14.3,0,0,0,2.589-2.069,5.2,5.2,0,0,0,1.19-1.849C472.1,169.843,472.1,169.542,472.14,169.544Z" transform="translate(-461.522 -169.544)"/></g><g transform="translate(72.66 48.104)"><path class="f" d="M486.025,249.55a1.313,1.313,0,0,1-.34.045l-.986.062c-.861.044-2.122.088-3.712.116s-3.512.038-5.7.015c-1.092-.012-2.25-.034-3.466-.073l-1.866-.08-.966-.067-.494-.052c-.085-.013-.166-.021-.255-.041a1,1,0,0,1-.141-.032l-.081-.027a.318.318,0,0,1-.165-.187l0-.047.007-.029,2.359-10.66c.159-.709.315-1.412.469-2.1l.032-.146.147-.022c6.505-.954,12.434-1.929,16.628-3.68l-.095.172c-.405-2.911-.735-5.288-.973-6.99-.1-.793-.18-1.427-.241-1.908a3.7,3.7,0,0,1-.053-.67,3.641,3.641,0,0,1,.146.656q.122.715.326,1.894c.271,1.7.65,4.067,1.114,6.969l.019.122-.115.05c-4.237,1.834-10.182,2.847-16.693,3.811l.18-.166c-.154.691-.31,1.394-.468,2.1-.847,3.772-1.654,7.37-2.391,10.653l-.177-.047c5.2.235,9.749.332,12.913.335l3.71,0h.988A1.333,1.333,0,0,1,486.025,249.55Z" transform="translate(-467.853 -223.148)"/></g></g><g transform="translate(68.299 74.374)"><g transform="translate(3.784 5.784)"><path class="u" d="M484.589,215.872l-7.2,17.462-10.6,1.88-2.843,12.76,7,.405-.052.467-27.468.782,11.622-33.756Z" transform="translate(-443.432 -215.872)"/></g><path class="u" d="M450.417,208.92l3.873,5.784L442.668,248.46l-3.783-6.474Z" transform="translate(-438.885 -208.92)"/><g transform="translate(11.532)"><path class="v" d="M486.154,214.7l-4.242-4.119-29.165-1.665,3.873,5.784Z" transform="translate(-452.746 -208.92)"/></g><g transform="translate(3.78 5.783)"><path class="f" d="M455.053,215.872c.113.039-2.4,7.628-5.606,16.948s-5.9,16.847-6.016,16.808,2.4-7.626,5.607-16.949S454.94,215.834,455.053,215.872Z" transform="translate(-443.428 -215.872)"/></g><g transform="translate(1.08 16.999)"><path class="r" d="M465.855,238.443l-5.032-.434a26.035,26.035,0,0,0-3.23-4.361c-1.28-1.128-7.9-4.295-7.9-4.295a1.827,1.827,0,0,0,0,2.322,28.668,28.668,0,0,0,3.563,2.282h0a1.8,1.8,0,0,1-2.058,2.275c-1.938-.355-4.2-.758-4.493-.758-.331,0-2.266-1.83-3.686-3.219a1.206,1.206,0,0,0-2.033,1.1.6.6,0,0,0,.17.287s-2.041-.072-.22,2.671c0,0-.42,2.533,1.073,3.695,0,0,.645,3.062,1.606,4.117s10.344,3.061,10.344,3.061l9.776.949Z" transform="translate(-440.183 -229.353)"/><g transform="translate(1.083 4.252)"><path class="s" d="M450.58,240a5.667,5.667,0,0,1-1.679.041A8.811,8.811,0,0,1,444.955,239a8.184,8.184,0,0,1-2.748-3.016,5.561,5.561,0,0,1-.716-1.52,7.75,7.75,0,0,1,.976,1.357,9.131,9.131,0,0,0,2.71,2.806,10.005,10.005,0,0,0,3.753,1.1A7.562,7.562,0,0,1,450.58,240Z" transform="translate(-441.485 -234.464)"/></g><g transform="translate(0.743 7.031)"><path class="s" d="M449.545,242.733a3.153,3.153,0,0,1-1.533.12,10.849,10.849,0,0,1-1.655-.24,5.194,5.194,0,0,1-1.934-.789,8.939,8.939,0,0,1-1.438-1.478l-1.032-1.285a5.4,5.4,0,0,1-.872-1.254,5.382,5.382,0,0,1,1.1,1.054c.319.342.7.759,1.1,1.227a10.23,10.23,0,0,0,1.394,1.389,5.274,5.274,0,0,0,1.77.748,15.414,15.414,0,0,0,1.592.324C448.962,242.692,449.536,242.672,449.545,242.733Z" transform="translate(-441.076 -237.804)"/></g><g transform="translate(1.816 10.66)"><path class="s" d="M448.442,245.884c-.028.174-1.706-.18-3.688-.734a1.715,1.715,0,0,1-.726-.439,5.864,5.864,0,0,1-.51-.519,7.094,7.094,0,0,1-.726-.98c-.364-.6-.465-1.027-.413-1.045s.254.345.665.871a10.768,10.768,0,0,0,.767.883c.152.158.318.319.5.47a1.385,1.385,0,0,0,.553.339c1.013.272,1.9.557,2.548.765A4.63,4.63,0,0,1,448.442,245.884Z" transform="translate(-442.366 -242.166)"/></g></g></g></g><g transform="translate(-10407.35 -12276.144) rotate(24)"><path class="w" d="M-482.646,2402.743a28.832,28.832,0,0,1-9.556,39.639,28.832,28.832,0,0,1-39.639-9.556,28.831,28.831,0,0,1,9.556-39.639A28.831,28.831,0,0,1-482.646,2402.743Z" transform="translate(536.08 -2388.947)"/><g class="x" transform="translate(0 4.239)"><path class="j" d="M-522.284,2394a28.831,28.831,0,0,0-9.556,39.639s17.757-9.8,17.658-19.3S-522.284,2394-522.284,2394Z" transform="translate(536.08 -2393.998)"/></g><g transform="translate(6.287 6.764)"><path class="a" d="M-487.968,2407.494a21.916,21.916,0,0,1-7.264,30.134,21.918,21.918,0,0,1-30.134-7.264,21.916,21.916,0,0,1,7.264-30.134A21.917,21.917,0,0,1-487.968,2407.494Z" transform="translate(528.588 -2397.007)"/></g><g transform="translate(7.837 7.361)"><path class="l" d="M-486.666,2408.065a21.623,21.623,0,0,1-7.167,29.729,21.623,21.623,0,0,1-29.729-7.167,21.623,21.623,0,0,1,7.168-29.729A21.622,21.622,0,0,1-486.666,2408.065Z" transform="translate(526.741 -2397.718)"/></g><g transform="translate(18.497 16.936)"><g transform="translate(1.187 0.002)"><path class="a" d="M-503.086,2419.132l-2.887-4.719.024-.014a11.344,11.344,0,0,1,2.908-.88,9.2,9.2,0,0,1,1.629.023l-.027-.185-.311-2.145-.071-.492-1.381-.369-.293.429a10.37,10.37,0,0,0-4.023,1.1l-1.587-2.6-1.207-.157.4.652-1.109.678,1.615,2.643c-3.433,2.581-3.891,5.721-2.432,8.107,1.987,3.25,5.285,2.39,8.267,1.434l2.86,4.677a10.53,10.53,0,0,1-5.764,1.083l.393,3a11.994,11.994,0,0,0,6.916-1.562l1.2,1.96-.9.574,1.292.062,1.918-1.173-1.6-2.619c3.443-2.619,3.938-5.75,2.479-8.135C-496.775,2417.265-500.1,2418.176-503.086,2419.132Zm-2.218.681c-1.6.432-2.92.533-3.606-.59-.629-1.029-.442-2.3,1.061-3.572Zm-.671-5.4Zm7.149,11.692-2.531-4.139c1.646-.461,3-.552,3.705.594C-497.037,2423.561-497.276,2424.8-498.826,2426.1Z" transform="translate(512.623 -2409.13)"/></g><path class="w" d="M-498.679,2428.492l1.6,2.62-1.918,1.173-1.588-2.6a12.009,12.009,0,0,1-6.918,1.562l-.392-3.005a10.54,10.54,0,0,0,5.764-1.083l-2.861-4.678c-2.982.957-6.28,1.816-8.268-1.434-1.459-2.386-1-5.526,2.433-8.108l-1.615-2.643,1.918-1.172,1.587,2.6a11.755,11.755,0,0,1,5.621-1.477l.485,2.949a11.342,11.342,0,0,0-4.561,1.053l2.888,4.725c2.982-.957,6.313-1.868,8.3,1.382C-494.74,2422.743-495.237,2425.873-498.679,2428.492Zm-8.039-8.837-2.545-4.163c-1.5,1.272-1.69,2.543-1.061,3.573C-509.638,2420.188-508.318,2420.087-506.719,2419.656Zm7.654,2.742c-.7-1.146-2.059-1.054-3.705-.594l2.531,4.14C-498.687,2424.643-498.449,2423.4-499.064,2422.4Z" transform="translate(514.038 -2409.128)"/></g><g transform="translate(1.214 32.608)"><path class="j" d="M-520.9,2448.381a1.158,1.158,0,0,1-.231-.121l-.641-.381a11.671,11.671,0,0,1-.989-.643c-.375-.267-.817-.552-1.262-.924l-.713-.566c-.246-.2-.484-.427-.741-.652-.52-.442-1.026-.969-1.567-1.511a31.062,31.062,0,0,1-3.118-3.89,31.094,31.094,0,0,1-2.4-4.374c-.294-.709-.586-1.377-.795-2.028-.109-.323-.228-.63-.316-.934l-.249-.875c-.172-.553-.266-1.072-.369-1.52s-.17-.839-.214-1.161c-.044-.3-.078-.547-.106-.738a1.139,1.139,0,0,1-.022-.259,1.269,1.269,0,0,1,.065.253l.145.729c.056.318.132.706.249,1.15s.216.956.4,1.5q.125.416.261.866c.092.3.215.605.327.925.215.644.511,1.306.807,2.008a32.421,32.421,0,0,0,2.394,4.335,32.289,32.289,0,0,0,3.083,3.874c.535.543,1.031,1.071,1.543,1.516.253.226.486.456.728.657l.7.573c.437.377.87.67,1.237.945s.693.5.966.671l.618.414A1.228,1.228,0,0,1-520.9,2448.381Z" transform="translate(534.633 -2427.804)"/></g><g transform="translate(19.156 25.202)"><path class="j" d="M-510.335,2423.613a1.791,1.791,0,0,1-.873-.207,3.445,3.445,0,0,1-1.609-1.448,3.441,3.441,0,0,1-.405-2.125,1.817,1.817,0,0,1,.275-.854c.035.011-.087.332-.124.869a3.655,3.655,0,0,0,.441,2.006,3.643,3.643,0,0,0,1.487,1.415C-510.665,2423.516-510.327,2423.577-510.335,2423.613Z" transform="translate(513.253 -2418.978)"/></g><g transform="translate(20.922 18.583)"><path class="j" d="M-510.2,2412.63c-.051.03-.3-.288-.562-.713s-.429-.794-.379-.825.3.288.562.712S-510.149,2412.6-510.2,2412.63Z" transform="translate(511.149 -2411.09)"/></g><g transform="translate(6.502 8.47)"><path class="j" d="M-516.664,2399.042a4.555,4.555,0,0,1-.616.344c-.2.1-.447.23-.723.394s-.6.332-.937.559-.715.452-1.1.734c-.394.266-.787.586-1.207.915a24.849,24.849,0,0,0-2.513,2.388,24.75,24.75,0,0,0-2.117,2.747c-.284.452-.562.876-.786,1.295-.241.41-.438.8-.617,1.167s-.325.7-.457.99-.237.549-.318.76a4.525,4.525,0,0,1-.278.648,4.278,4.278,0,0,1,.2-.677c.069-.216.159-.479.284-.777s.25-.645.432-1.008.362-.773.6-1.188c.218-.427.493-.858.776-1.317a23.324,23.324,0,0,1,2.124-2.783,23.453,23.453,0,0,1,2.547-2.4c.428-.328.828-.646,1.229-.907.39-.279.771-.51,1.12-.719s.675-.38.959-.534.535-.272.744-.363A4.269,4.269,0,0,1-516.664,2399.042Z" transform="translate(528.332 -2399.041)"/></g><g transform="translate(34.101 50.329)"><path class="j" d="M-483.449,2448.921a2.537,2.537,0,0,1-.366.387c-.243.241-.615.57-1.091.957a20.974,20.974,0,0,1-4.052,2.547,20.99,20.99,0,0,1-4.526,1.557c-.6.128-1.089.211-1.43.249a2.526,2.526,0,0,1-.53.041,2.505,2.505,0,0,1,.517-.125c.336-.062.818-.168,1.409-.315a23.819,23.819,0,0,0,4.468-1.6,23.9,23.9,0,0,0,4.05-2.473c.485-.368.87-.677,1.129-.9A2.6,2.6,0,0,1-483.449,2448.921Z" transform="translate(495.444 -2448.92)"/></g></g><g transform="translate(-10357.164 -12297) rotate(24)"><g transform="translate(0 0)"><g transform="translate(0)"><ellipse class="w" cx="22.461" cy="22.461" rx="22.461" ry="22.461" transform="translate(0 7.704) rotate(-9.875)"/><g class="x" transform="translate(3.515 3.987)"><path class="j" d="M-463.985,2338.465a22.459,22.459,0,0,0-17.433,26.553s15.6-2.512,18.024-9.507S-463.985,2338.465-463.985,2338.465Z" transform="translate(481.89 -2338.465)"/></g><g transform="translate(8.481 8.625)"><path class="a" d="M-442.174,2357.6a17.075,17.075,0,0,1-13.253,20.187,17.075,17.075,0,0,1-20.186-13.253,17.074,17.074,0,0,1,13.253-20.186A17.074,17.074,0,0,1-442.174,2357.6Z" transform="translate(475.972 -2343.992)"/></g><g transform="translate(9.552 9.407)"><path class="l" d="M-441.353,2358.352a16.846,16.846,0,0,1-13.074,19.916,16.845,16.845,0,0,1-19.915-13.074,16.844,16.844,0,0,1,13.075-19.915A16.845,16.845,0,0,1-441.353,2358.352Z" transform="translate(474.696 -2344.924)"/></g><g transform="translate(18.876 15.455)"><g transform="translate(0.829)"><path class="a" d="M-455.541,2361.365l-.875-4.22.02,0a8.834,8.834,0,0,1,2.365.119,7.264,7.264,0,0,1,1.187.446l.029-.143.336-1.654.077-.381-.916-.634-.328.239a8.052,8.052,0,0,0-3.24-.249l-.481-2.32-.843-.433.121.583-.992.205.49,2.363c-3.2.989-4.359,3.171-3.916,5.3.6,2.906,3.247,3.143,5.685,3.226l.868,4.182a8.205,8.205,0,0,1-4.512-.722l-.5,2.306a9.347,9.347,0,0,0,5.482.674l.363,1.752-.814.183.931.385,1.714-.355-.486-2.342c3.213-1.015,4.4-3.18,3.958-5.313C-450.422,2361.656-453.1,2361.449-455.541,2361.365Zm-1.806-.084c-1.286-.1-2.281-.377-2.489-1.381-.19-.92.281-1.8,1.718-2.34Zm.93-4.14Zm2.168,10.454-.767-3.7c1.328.095,2.348.385,2.56,1.41C-452.27,2366.2-452.771,2367.05-454.25,2367.6Z" transform="translate(462.598 -2352.13)"/></g><g transform="translate(0 0.004)"><path class="w" d="M-454.763,2369.449l.486,2.343-1.715.355-.481-2.321a9.346,9.346,0,0,1-5.483-.674l.5-2.306a8.21,8.21,0,0,0,4.512.721l-.868-4.182c-2.438-.083-5.082-.322-5.686-3.227-.442-2.134.719-4.315,3.917-5.305l-.49-2.363,1.714-.356.482,2.321a9.16,9.16,0,0,1,4.51.4l-.42,2.289a8.862,8.862,0,0,0-3.622-.427l.876,4.224c2.439.084,5.121.291,5.723,3.2C-450.363,2366.269-451.55,2368.434-454.763,2369.449Zm-3.571-8.594-.772-3.723c-1.437.538-1.907,1.421-1.717,2.341C-460.615,2360.477-459.621,2360.751-458.334,2360.855Zm4.891,4.024c-.212-1.025-1.232-1.314-2.56-1.41l.768,3.7C-453.757,2366.624-453.256,2365.779-453.443,2364.879Z" transform="translate(463.586 -2352.135)"/></g></g></g><g transform="translate(4.222 21.482)"><path class="j" d="M-475.879,2378.011a.955.955,0,0,1-.138-.148l-.37-.448c-.162-.194-.354-.436-.556-.732s-.453-.62-.682-1.01l-.374-.6c-.128-.211-.243-.441-.372-.672-.265-.462-.5-.981-.752-1.521a24.27,24.27,0,0,1-1.263-3.673,24.222,24.222,0,0,1-.607-3.838c-.028-.6-.067-1.164-.049-1.7,0-.266,0-.522.013-.768s.032-.482.047-.709c.02-.451.087-.855.13-1.211a8.949,8.949,0,0,1,.148-.907c.047-.233.086-.422.117-.569a1,1,0,0,1,.051-.2.913.913,0,0,1-.019.2c-.022.148-.05.339-.086.574s-.089.552-.119.908-.093.758-.1,1.208l-.037.7c-.011.245,0,.5,0,.764-.012.528.032,1.091.064,1.683a25.33,25.33,0,0,0,.615,3.81,25.331,25.331,0,0,0,1.242,3.652c.249.539.475,1.055.733,1.516.126.233.237.463.362.674l.363.605c.222.391.462.719.659,1.018s.378.546.531.746l.344.466A.884.884,0,0,1-475.879,2378.011Z" transform="translate(481.047 -2359.312)"/></g><g transform="translate(19.338 20.849)"><path class="j" d="M-461.614,2362.644a1.394,1.394,0,0,1-.586-.381,2.685,2.685,0,0,1-.8-1.485,2.687,2.687,0,0,1,.262-1.666,1.411,1.411,0,0,1,.426-.554c.023.018-.152.22-.32.6a2.833,2.833,0,0,0-.2,1.586,2.84,2.84,0,0,0,.718,1.43C-461.831,2362.485-461.6,2362.62-461.614,2362.644Z" transform="translate(463.035 -2358.558)"/></g><g transform="translate(22.857 16.383)"><path class="j" d="M-458.534,2354.612a1.55,1.55,0,0,1-.225-.671,1.556,1.556,0,0,1-.06-.7,1.55,1.55,0,0,1,.225.671A1.543,1.543,0,0,1-458.534,2354.612Z" transform="translate(458.841 -2353.236)"/></g><g transform="translate(11.555 8.236)"><path class="j" d="M-460.35,2343.533a3.391,3.391,0,0,1-.541.091c-.175.021-.388.05-.634.1s-.529.087-.834.163-.643.143-1,.25c-.358.091-.731.223-1.125.354a19.206,19.206,0,0,0-2.471,1.09,19.388,19.388,0,0,0-2.275,1.458c-.327.257-.643.5-.917.743s-.533.475-.759.694-.421.426-.6.6-.318.34-.432.474a3.407,3.407,0,0,1-.375.4,3.37,3.37,0,0,1,.325-.443,6.422,6.422,0,0,1,.414-.5c.169-.187.352-.407.582-.627s.468-.47.751-.714.588-.5.915-.76a18.23,18.23,0,0,1,2.289-1.483,18.32,18.32,0,0,1,2.5-1.089c.4-.127.777-.255,1.141-.342.359-.1.7-.171,1.01-.232s.595-.1.843-.139.464-.06.641-.071A3.3,3.3,0,0,1-460.35,2343.533Z" transform="translate(472.309 -2343.528)"/></g><g transform="translate(22.679 46.279)"><path class="j" d="M-448.75,2388.862a2.014,2.014,0,0,1-.37.188c-.242.113-.6.256-1.051.413a16.293,16.293,0,0,1-3.641.8,16.358,16.358,0,0,1-3.729-.049c-.473-.063-.853-.131-1.114-.193a2.042,2.042,0,0,1-.4-.109,1.92,1.92,0,0,1,.412.044c.263.043.644.092,1.115.14a18.635,18.635,0,0,0,3.7,0,18.709,18.709,0,0,0,3.62-.749c.452-.142.816-.268,1.064-.362A1.918,1.918,0,0,1-448.75,2388.862Z" transform="translate(459.054 -2388.86)"/></g></g></g><g transform="translate(-10046.69 -12036.761)"><g transform="translate(0 0)"><g transform="translate(0)"><ellipse class="k" cx="35.115" cy="35.115" rx="35.115" ry="35.115" transform="matrix(0.252, -0.968, 0.968, 0.252, 0, 67.959)"/><g class="x" transform="translate(8.846 7.713)"><path class="j" d="M-171.335,2339.811a35.113,35.113,0,0,0-42.8,25.179s23.608,7.261,31.848-.869S-171.335,2339.811-171.335,2339.811Z" transform="translate(214.138 -2338.679)"/></g><g transform="translate(15.737 15.458)"><path class="k" d="M-153.386,2381.307a26.693,26.693,0,0,1-32.539,19.142,26.693,26.693,0,0,1-19.141-32.539,26.693,26.693,0,0,1,32.54-19.141A26.692,26.692,0,0,1-153.386,2381.307Z" transform="translate(205.927 -2347.907)"/></g><g class="y" transform="translate(15.737 15.458)"><path d="M-153.386,2381.307a26.693,26.693,0,0,1-32.539,19.142,26.693,26.693,0,0,1-19.141-32.539,26.693,26.693,0,0,1,32.54-19.141A26.692,26.692,0,0,1-153.386,2381.307Z" transform="translate(205.927 -2347.907)"/></g><g transform="translate(16.893 17.172)"><path class="k" d="M-152.714,2382.9a26.335,26.335,0,0,1-32.1,18.884,26.335,26.335,0,0,1-18.884-32.1,26.336,26.336,0,0,1,32.1-18.883A26.335,26.335,0,0,1-152.714,2382.9Z" transform="translate(204.549 -2349.95)"/></g><g class="y" transform="translate(16.893 17.172)"><path class="j" d="M-152.714,2382.9a26.335,26.335,0,0,1-32.1,18.884,26.335,26.335,0,0,1-18.884-32.1,26.336,26.336,0,0,1,32.1-18.883A26.335,26.335,0,0,1-152.714,2382.9Z" transform="translate(204.549 -2349.95)"/></g><g transform="translate(30.667 26.102)"><g transform="translate(0.868 0.671)"><path class="k" d="M-173.813,2376.186l1.691-6.522.032.008a13.818,13.818,0,0,1,3.232,1.8,11.275,11.275,0,0,1,1.359,1.446l.138-.179,1.615-2.087.371-.48-.845-1.522-.625.106a12.58,12.58,0,0,0-4.371-2.589l.93-3.587-.884-1.19-.233.9-1.533-.4-.947,3.651c-5.167-.822-8.3,1.434-9.158,4.73-1.165,4.492,2.38,6.652,5.74,8.455l-1.675,6.463a12.814,12.814,0,0,1-5.827-4.132l-2.3,2.887c1.3,1.89,4.105,3.72,7.221,4.735l-.7,2.709-1.267-.306,1.039,1.184,2.65.687.938-3.62c5.207.8,8.368-1.417,9.223-4.713C-166.835,2380.132-170.451,2377.989-173.813,2376.186Zm-2.474-1.365c-1.732-1.035-2.937-2.107-2.535-3.658.368-1.421,1.64-2.333,4.026-2.094Zm4.167-5.162h0Zm-4.189,16.157,1.483-5.72c1.8,1.052,3.025,2.164,2.615,3.748C-172.571,2385.232-173.858,2386.071-176.309,2385.815Z" transform="translate(187.102 -2361.391)"/></g><g class="t" transform="translate(0.868 0.671)"><path d="M-173.813,2376.186l1.691-6.522.032.008a13.818,13.818,0,0,1,3.232,1.8,11.275,11.275,0,0,1,1.359,1.446l.138-.179,1.615-2.087.371-.48-.845-1.522-.625.106a12.58,12.58,0,0,0-4.371-2.589l.93-3.587-.884-1.19-.233.9-1.533-.4-.947,3.651c-5.167-.822-8.3,1.434-9.158,4.73-1.165,4.492,2.38,6.652,5.74,8.455l-1.675,6.463a12.814,12.814,0,0,1-5.827-4.132l-2.3,2.887c1.3,1.89,4.105,3.72,7.221,4.735l-.7,2.709-1.267-.306,1.039,1.184,2.65.687.938-3.62c5.207.8,8.368-1.417,9.223-4.713C-166.835,2380.132-170.451,2377.989-173.813,2376.186Zm-2.474-1.365c-1.732-1.035-2.937-2.107-2.535-3.658.368-1.421,1.64-2.333,4.026-2.094Zm4.167-5.162h0Zm-4.189,16.157,1.483-5.72c1.8,1.052,3.025,2.164,2.615,3.748C-172.571,2385.232-173.858,2386.071-176.309,2385.815Z" transform="translate(187.102 -2361.391)"/></g><path class="k" d="M-178.254,2388.039l-.939,3.62-2.65-.686.931-3.587c-3.117-1.015-5.92-2.846-7.223-4.737l2.3-2.887a12.826,12.826,0,0,0,5.827,4.132l1.676-6.464c-3.361-1.8-6.906-3.964-5.741-8.456.855-3.3,3.992-5.553,9.16-4.73l.947-3.652,2.65.687-.931,3.588a14.31,14.31,0,0,1,6.051,3.672l-2.172,2.92a13.825,13.825,0,0,0-4.783-3.1l-1.693,6.529c3.361,1.8,6.979,3.948,5.814,8.44C-169.884,2386.623-173.046,2388.838-178.254,2388.039Zm.936-14.52,1.491-5.753c-2.387-.24-3.657.673-4.026,2.094C-180.256,2371.413-179.051,2372.484-177.319,2373.519Zm4.076,9.024c.41-1.583-.819-2.7-2.616-3.748l-1.483,5.721C-174.889,2384.773-173.6,2383.934-173.243,2382.544Z" transform="translate(188.136 -2360.591)"/></g></g><g transform="translate(36.092 17.454)"><path class="q" d="M-181.671,2401.969a1.282,1.282,0,0,1,.216.03c.154.029.361.068.627.116l1.015.2a10.021,10.021,0,0,0,1.392.218l1.757.17a7.2,7.2,0,0,0,1.008.034h1.09c.376-.013.767.023,1.166-.028l1.238-.124c.424-.051.864-.066,1.307-.149l1.36-.271a28.069,28.069,0,0,0,5.869-1.936l1.5-.789c.253-.136.514-.264.767-.41l.739-.483c.492-.331,1.01-.638,1.5-1l1.448-1.157.368-.293c.118-.1.227-.218.342-.327l.686-.666.693-.671a9.744,9.744,0,0,0,.647-.732c.418-.5.864-.994,1.271-1.523l1.151-1.664a28.515,28.515,0,0,0,3.375-7.682,28.541,28.541,0,0,0,.784-8.357q-.1-1.015-.2-2.014c-.1-.66-.251-1.306-.371-1.949-.073-.319-.107-.645-.21-.953s-.187-.618-.279-.925-.185-.612-.276-.915c-.048-.151-.088-.305-.141-.452l-.179-.435q-.356-.868-.7-1.715c-.251-.555-.555-1.076-.824-1.6q-.206-.394-.411-.781c-.149-.251-.316-.489-.471-.73l-.931-1.421a28.023,28.023,0,0,0-4.19-4.543l-1.057-.9c-.347-.288-.724-.516-1.07-.767l-1.021-.709c-.325-.239-.684-.4-1.007-.591s-.646-.36-.952-.531a7.291,7.291,0,0,0-.9-.459l-1.618-.706a10.053,10.053,0,0,0-1.323-.486c-.385-.126-.713-.232-.984-.322l-.6-.2a1.342,1.342,0,0,1-.2-.078,1.539,1.539,0,0,1,.211.052l.611.178.993.3a9.675,9.675,0,0,1,1.335.464l1.635.687a7.209,7.209,0,0,1,.906.453l.963.524a11.74,11.74,0,0,1,1.018.585l1.033.7c.349.249.731.477,1.082.763l1.07.9a28,28,0,0,1,4.245,4.556l.943,1.429c.158.243.326.483.478.735l.417.786c.273.531.582,1.056.837,1.616l.714,1.727.181.439c.054.149.095.3.143.456l.28.922c.094.31.189.62.285.933s.14.641.214.962c.123.649.278,1.3.378,1.967q.1,1.006.2,2.033a28.668,28.668,0,0,1-.787,8.439,28.684,28.684,0,0,1-3.412,7.756l-1.165,1.678c-.411.533-.863,1.028-1.286,1.535a9.848,9.848,0,0,1-.655.736l-.7.678-.693.67c-.117.108-.227.225-.347.329l-.372.3-1.464,1.163c-.494.365-1.019.674-1.516,1.005l-.747.484c-.255.147-.519.274-.775.411l-1.519.789a27.955,27.955,0,0,1-5.923,1.92l-1.371.263c-.446.08-.89.093-1.317.142l-1.245.114c-.4.048-.8.009-1.174.017l-1.1-.01a7.072,7.072,0,0,1-1.012-.045l-1.762-.192a9.829,9.829,0,0,1-1.393-.243l-1.013-.222-.621-.142A1.238,1.238,0,0,1-181.671,2401.969Z" transform="translate(181.671 -2350.285)"/></g><g transform="translate(8.73 21.84)"><path class="j" d="M-213.25,2384.951a1.409,1.409,0,0,1-.091-.3c-.054-.229-.123-.522-.209-.883-.093-.384-.2-.856-.274-1.412s-.207-1.182-.26-1.886c-.034-.352-.07-.721-.107-1.1s-.036-.785-.056-1.2c-.053-.831-.019-1.718,0-2.652a37.879,37.879,0,0,1,.768-6.024,38.013,38.013,0,0,1,1.8-5.8c.373-.857.712-1.679,1.1-2.412.19-.368.359-.733.55-1.068l.556-.96c.34-.619.713-1.139,1.02-1.608s.591-.86.835-1.17l.557-.718a1.391,1.391,0,0,1,.208-.239,1.489,1.489,0,0,1-.166.271l-.517.745c-.231.318-.506.713-.795,1.191s-.655,1-.983,1.622l-.538.961c-.185.335-.348.7-.533,1.069-.383.732-.711,1.552-1.075,2.405a39.506,39.506,0,0,0-1.771,5.766,39.38,39.38,0,0,0-.783,5.979c-.023.928-.065,1.809-.022,2.634.016.413.013.813.042,1.195s.061.747.09,1.1c.04.7.15,1.329.22,1.882s.151,1.028.229,1.414c.066.365.119.66.161.892A1.513,1.513,0,0,1-213.25,2384.951Z" transform="translate(214.276 -2355.512)"/></g><g transform="translate(35.419 31.547)"><path class="j" d="M-181.655,2373.293a2.223,2.223,0,0,1-.557-.939,4.2,4.2,0,0,1-.093-2.635,4.2,4.2,0,0,1,1.519-2.154,2.194,2.194,0,0,1,.98-.482c.019.041-.365.205-.866.627a4.434,4.434,0,0,0-1.382,2.084,4.436,4.436,0,0,0,.018,2.5C-181.849,2372.922-181.616,2373.27-181.655,2373.293Z" transform="translate(182.474 -2367.08)"/></g><g transform="translate(44.546 27.236)"><path class="j" d="M-171.569,2364.067a2.422,2.422,0,0,1,.149-1.1c.153-.587.332-1.047.4-1.03a2.417,2.417,0,0,1-.149,1.1C-171.319,2363.625-171.5,2364.086-171.569,2364.067Z" transform="translate(171.597 -2361.941)"/></g><g transform="translate(30.437 14.288)"><path class="j" d="M-167.2,2348.485a5.583,5.583,0,0,1-.822-.249c-.259-.091-.579-.2-.958-.3s-.8-.245-1.281-.349-1-.243-1.572-.339c-.566-.119-1.18-.193-1.824-.282a30.219,30.219,0,0,0-4.219-.178,30.083,30.083,0,0,0-4.2.47c-.635.134-1.243.25-1.8.407-.562.137-1.076.3-1.544.448s-.885.306-1.254.437-.681.257-.935.365a5.479,5.479,0,0,1-.8.3,5.327,5.327,0,0,1,.762-.4c.248-.124.555-.267.922-.407s.775-.327,1.249-.476.983-.336,1.547-.482c.558-.169,1.169-.294,1.809-.436a28.447,28.447,0,0,1,4.234-.5,28.26,28.26,0,0,1,4.258.2c.648.1,1.266.179,1.834.309.574.106,1.1.243,1.577.374s.9.27,1.279.388.692.237.948.344A5.236,5.236,0,0,1-167.2,2348.485Z" transform="translate(188.409 -2346.513)"/></g><g transform="translate(23.443 70.493)"><path class="j" d="M-181.566,2419.137a3.06,3.06,0,0,1-.649.008c-.418-.008-1.02-.056-1.762-.146a25.519,25.519,0,0,1-5.66-1.392,25.5,25.5,0,0,1-5.193-2.647c-.62-.416-1.107-.774-1.428-1.042a3.078,3.078,0,0,1-.486-.429,3.006,3.006,0,0,1,.547.348c.338.24.839.573,1.468.967a29.088,29.088,0,0,0,5.184,2.557,29.108,29.108,0,0,0,5.594,1.455c.733.114,1.329.188,1.743.228A3.192,3.192,0,0,1-181.566,2419.137Z" transform="translate(196.744 -2413.488)"/></g></g><g transform="translate(7.589 7.603)"><path class="q" d="M-146.4,2382.594s.035-.191.116-.559.225-.91.344-1.635a35.432,35.432,0,0,0,.616-6.383,34.65,34.65,0,0,0-.291-4.625A33.843,33.843,0,0,0-146.74,2364a35.489,35.489,0,0,0-6.125-11.87,34.2,34.2,0,0,0-5.476-5.547,34.1,34.1,0,0,0-7.158-4.479,34.843,34.843,0,0,0-8.614-2.746,35.152,35.152,0,0,0-4.705-.541,37.241,37.241,0,0,0-4.865.118,35.082,35.082,0,0,0-18.81,7.731,34.425,34.425,0,0,0-3.913,3.729,32.663,32.663,0,0,0-3.341,4.36,35.257,35.257,0,0,0-4.5,10.241,35.26,35.26,0,0,0-1.041,11.143c.049.923.172,1.836.285,2.746.154.9.3,1.806.515,2.69a34.417,34.417,0,0,0,1.609,5.163,35.093,35.093,0,0,0,12.686,15.9A37.474,37.474,0,0,0-196,2405.1a34.967,34.967,0,0,0,4.376,1.813,34.846,34.846,0,0,0,8.864,1.786,34.194,34.194,0,0,0,8.433-.438,34.254,34.254,0,0,0,7.481-2.19,35.468,35.468,0,0,0,11.12-7.4,33.9,33.9,0,0,0,3.6-4.165,34.88,34.88,0,0,0,2.5-3.9,35.51,35.51,0,0,0,2.562-5.877c.248-.691.376-1.239.493-1.6s.169-.543.169-.543-.174.752-.613,2.155a34.47,34.47,0,0,1-2.523,5.91,34.646,34.646,0,0,1-2.49,3.926,33.88,33.88,0,0,1-3.6,4.2,35.546,35.546,0,0,1-11.151,7.466,34.483,34.483,0,0,1-7.518,2.218,34.307,34.307,0,0,1-8.483.456,35.06,35.06,0,0,1-8.922-1.784,35.167,35.167,0,0,1-4.408-1.82,37.574,37.574,0,0,1-4.226-2.479,35.311,35.311,0,0,1-12.788-16,34.653,34.653,0,0,1-1.622-5.2c-.218-.89-.364-1.8-.52-2.709-.114-.917-.239-1.837-.288-2.766a35.458,35.458,0,0,1,1.048-11.226,35.451,35.451,0,0,1,4.538-10.316,32.8,32.8,0,0,1,3.368-4.392,34.584,34.584,0,0,1,3.943-3.755,35.311,35.311,0,0,1,18.949-7.772,37.62,37.62,0,0,1,4.9-.114,35.213,35.213,0,0,1,4.736.551,35.063,35.063,0,0,1,8.665,2.775,34.356,34.356,0,0,1,7.194,4.519,34.432,34.432,0,0,1,5.494,5.591,35.538,35.538,0,0,1,6.12,11.944,33.911,33.911,0,0,1,1.11,5.417,34.794,34.794,0,0,1,.269,4.642,34.571,34.571,0,0,1-.666,6.392C-146.183,2381.85-146.4,2382.594-146.4,2382.594Z" transform="translate(215.636 -2338.547)"/></g></g><g transform="translate(-10008.042 -12073.31)"><rect class="z" width="6.577" height="6.576" rx="1.013"/><rect class="z" width="6.577" height="6.576" rx="1.013" transform="translate(13.483)"/><rect class="z" width="6.577" height="6.576" rx="1.013" transform="translate(26.966)"/><rect class="z" width="6.577" height="6.576" rx="1.013" transform="translate(40.449)"/></g></g></svg>