<?xml version="1.0" encoding="utf-8"?>
<!-- Generator: Adobe Illustrator 25.3.1, SVG Export Plug-In . SVG Version: 6.00 Build 0)  -->
<svg version="1.1" id="Layer_1" xmlns="http://www.w3.org/2000/svg" xmlns:xlink="http://www.w3.org/1999/xlink" x="0px" y="0px"
	 viewBox="0 0 470.6 457.4" style="enable-background:new 0 0 470.6 457.4;" xml:space="preserve">
<style type="text/css">
	.st0{fill:#5E6178;}
	.st1{opacity:0.4;}
	.st2{opacity:0.2;}
	.st3{fill:#FAFAFA;}
	.st4{fill:#344154;}
	.st5{fill:#FFFFFF;}
	.st6{fill:#D9A171;}
	.st7{fill:#ECECEC;}
	.st8{fill:#AED3F2;}
	.st9{fill:#E1E1E1;}
	.st10{opacity:0.1;}
	.st11{opacity:0.3;}
	.st12{fill:#FFBF9D;}
	.st13{opacity:0.5;}
	.st14{fill:#EBEBEB;}
	.st15{fill:#636363;}
	.st16{fill:#8E8E8E;}
</style>
<g transform="translate(6.698 1.312)">
	<path class="st0" d="M136.7,154.2l-76.9-14.7c-2.4-0.4-3.9-2.7-3.4-5.1c0,0,0,0,0,0L81,5c0.6-3.3,3.9-5.5,7.2-4.9c0,0,0,0,0,0
		l73.4,14c3.3,0.6,5.5,3.9,4.9,7.2l-24.8,129.4C141.3,153.1,139,154.6,136.7,154.2C136.7,154.2,136.7,154.2,136.7,154.2z"/>
</g>
<g transform="translate(6.637 1.291)" class="st1">
	<path d="M136.7,154.2l-76.9-14.7c-2.4-0.5-3.9-2.7-3.4-5.1L81,5c0.6-3.3,3.9-5.5,7.2-4.9l73.4,14c3.3,0.6,5.5,3.9,4.9,7.2
		l-24.8,129.4C141.3,153.1,139,154.6,136.7,154.2C136.7,154.2,136.7,154.2,136.7,154.2z"/>
</g>
<path class="st0" d="M136.7,154.2l-76.9-14.7c-2.4-0.5-3.9-2.7-3.4-5.1L81,5c0.6-3.3,3.9-5.5,7.2-4.9l0,0l73.4,14
	c3.3,0.6,5.5,3.9,4.9,7.2c0,0,0,0,0,0l-24.8,129.4C141.3,153.1,139,154.6,136.7,154.2C136.7,154.2,136.7,154.2,136.7,154.2z"/>
<g transform="translate(14.526 109.475)">
	<g transform="translate(0 0)">
		<path class="st0" d="M61,0.5l24.1,4.6c1.3,0.3,2.2,1.5,1.9,2.8l-1.5,8c-0.3,1.3-1.5,2.2-2.8,1.9l-24.1-4.6
			c-1.3-0.3-2.2-1.5-1.9-2.8l1.5-8C58.4,1.1,59.7,0.2,61,0.5z"/>
	</g>
</g>
<g transform="translate(14.526 109.475)" class="st2">
	<g transform="translate(0 0)">
		<path d="M61,0.5l24.1,4.6c1.3,0.3,2.2,1.5,1.9,2.8l-1.5,8c-0.3,1.3-1.5,2.2-2.8,1.9l-24.1-4.6c-1.3-0.3-2.2-1.5-1.9-2.8l1.5-8
			C58.4,1.1,59.7,0.2,61,0.5z"/>
	</g>
</g>
<g transform="translate(24.405 13.994)">
	<g transform="translate(0.141 0.147)">
		<g transform="translate(0 0)">
			
				<rect x="80.9" y="-15.9" transform="matrix(0.188 -0.9822 0.9822 0.188 56.5812 111.0883)" class="st3" width="29.2" height="74.4"/>
		</g>
	</g>
	<path class="st4" d="M129.4,42.8c0,0,0-0.2,0.1-0.5s0.2-0.8,0.3-1.5c0.2-1.3,0.6-3.2,1.1-5.7c0.9-4.9,2.3-12.1,4-21l0.1,0.1
		L61.8,0.3h0l0.1-0.1c-1.9,10-3.8,19.7-5.5,28.7l-0.1-0.1l52.4,10.1c6.5,1.3,11.7,2.3,15.2,2.9c1.8,0.3,3.1,0.6,4.1,0.8l1.1,0.2
		C129.3,42.8,129.4,42.8,129.4,42.8c0,0-0.1,0-0.4-0.1l-1-0.2l-4.1-0.8l-15.2-2.9l-52.5-10l-0.1,0l0-0.1c1.7-9,3.6-18.6,5.5-28.7
		l0-0.1l0.1,0l0,0l73.1,14l0.1,0l0,0.1c-1.7,8.9-3.1,16.1-4.1,21c-0.5,2.5-0.9,4.4-1.1,5.7l-0.3,1.5
		C129.4,42.6,129.4,42.8,129.4,42.8z"/>
</g>
<g transform="translate(22.147 54.648)">
	<g transform="translate(1.918 0.367)">
		<g transform="translate(0 0)">
			<path class="st0" d="M60.6,0.4L68.9,2c1.1,0.2,1.9,1.3,1.7,2.4L69,12.8c-0.2,1.1-1.3,1.9-2.4,1.7l-8.3-1.6
				c-1.1-0.2-1.9-1.3-1.7-2.4L58.2,2C58.4,0.9,59.5,0.2,60.6,0.4z"/>
		</g>
	</g>
	<g transform="translate(1.918 0.367)" class="st2">
		<g transform="translate(0 0)">
			<path d="M60.6,0.4L68.9,2c1.1,0.2,1.9,1.3,1.7,2.4L69,12.8c-0.2,1.1-1.3,1.9-2.4,1.7l-8.3-1.6c-1.1-0.2-1.9-1.3-1.7-2.4L58.2,2
				C58.4,0.9,59.5,0.2,60.6,0.4z"/>
		</g>
	</g>
	<g transform="translate(0 0)">
		<g transform="translate(0 0)">
			<path class="st4" d="M60.6,0.4L68.9,2c1.1,0.2,1.9,1.3,1.7,2.4L69,12.8c-0.2,1.1-1.3,1.9-2.4,1.7l-8.3-1.6
				c-1.1-0.2-1.9-1.3-1.7-2.4L58.2,2C58.4,0.9,59.5,0.2,60.6,0.4z"/>
		</g>
	</g>
	<g transform="translate(6.363 4.494)">
		<path class="st5" d="M58.6,0.4l-1,5.2l-1.2-0.2l0.8-4.2l-1-0.2l0.2-1L58.6,0.4z"/>
	</g>
</g>
<g transform="translate(39.466 57.962)">
	<g transform="translate(1.918 0.367)">
		<g transform="translate(0 0)">
			<path class="st0" d="M60.6,0.4L68.9,2c1.1,0.2,1.9,1.3,1.7,2.4L69,12.8c-0.2,1.1-1.3,1.9-2.4,1.7l-8.3-1.6
				c-1.1-0.2-1.9-1.3-1.7-2.4L58.2,2C58.4,0.9,59.5,0.2,60.6,0.4z"/>
		</g>
	</g>
	<g transform="translate(1.918 0.367)" class="st2">
		<g transform="translate(0 0)">
			<path d="M60.6,0.4L68.9,2c1.1,0.2,1.9,1.3,1.7,2.4L69,12.8c-0.2,1.1-1.3,1.9-2.4,1.7l-8.3-1.6c-1.1-0.2-1.9-1.3-1.7-2.4L58.2,2
				C58.4,0.9,59.5,0.2,60.6,0.4z"/>
		</g>
	</g>
	<g transform="translate(0 0)">
		<g transform="translate(0 0)">
			<path class="st4" d="M60.6,0.4L68.9,2c1.1,0.2,1.9,1.3,1.7,2.4L69,12.8c-0.2,1.1-1.3,1.9-2.4,1.7l-8.3-1.6
				c-1.1-0.2-1.9-1.3-1.7-2.4L58.2,2C58.4,0.9,59.5,0.2,60.6,0.4z"/>
		</g>
	</g>
	<g transform="translate(5.75 4.732)">
		<path class="st5" d="M60.3,4.7l-0.2,1L56.2,5l0.1-0.8l2.4-1.5c0.5-0.3,0.7-0.6,0.7-0.9c0.1-0.4-0.2-0.7-0.7-0.8
			c-0.4-0.1-0.9,0-1.2,0.3l-0.8-0.7c0.6-0.6,1.4-0.8,2.2-0.6c1.2,0.2,1.8,1,1.6,1.9c-0.1,0.6-0.6,1.2-1.2,1.5l-1.4,0.9L60.3,4.7z"/>
	</g>
</g>
<g transform="translate(57.421 61.399)">
	<g transform="translate(1.918 0.367)">
		<g transform="translate(0 0)">
			<path class="st0" d="M60.6,0.4L68.9,2c1.1,0.2,1.9,1.3,1.7,2.4L69,12.8c-0.2,1.1-1.3,1.9-2.4,1.7l-8.3-1.6
				c-1.1-0.2-1.9-1.3-1.7-2.4L58.2,2C58.4,0.9,59.5,0.2,60.6,0.4z"/>
		</g>
	</g>
	<g transform="translate(1.918 0.367)" class="st2">
		<g transform="translate(0 0)">
			<path d="M60.6,0.4L68.9,2c1.1,0.2,1.9,1.3,1.7,2.4L69,12.8c-0.2,1.1-1.3,1.9-2.4,1.7l-8.3-1.6c-1.1-0.2-1.9-1.3-1.7-2.4L58.2,2
				C58.4,0.9,59.5,0.2,60.6,0.4z"/>
		</g>
	</g>
	<g transform="translate(0 0)">
		<g transform="translate(0 0)">
			<path class="st4" d="M60.6,0.4L68.9,2c1.1,0.2,1.9,1.3,1.7,2.4L69,12.8c-0.2,1.1-1.3,1.9-2.4,1.7l-8.3-1.6
				c-1.1-0.2-1.9-1.3-1.7-2.4L58.2,2C58.4,0.9,59.5,0.2,60.6,0.4z"/>
		</g>
	</g>
	<g transform="translate(5.588 4.533)">
		<path class="st5" d="M60.5,4.3c-0.2,0.9-1,1.5-2.5,1.3c-0.7-0.1-1.4-0.4-1.9-0.9l0.6-0.8c0.4,0.4,0.9,0.7,1.4,0.8
			c0.6,0.1,1-0.1,1.1-0.5c0.1-0.4-0.2-0.7-0.8-0.8l-0.5-0.1l0.2-0.8l1.3-1L57.2,1l0.2-1L61,0.7l-0.1,0.8l-1.4,1.1
			C60.2,2.8,60.7,3.5,60.5,4.3z"/>
	</g>
</g>
<g transform="translate(75.419 64.839)">
	<g transform="translate(1.874 0.363)">
		<g transform="translate(0 0)">
			<path class="st0" d="M60.6,0.4L68.9,2c1.1,0.2,1.9,1.3,1.7,2.4L69,12.8c-0.2,1.1-1.3,1.9-2.4,1.7l-8.3-1.6
				c-1.1-0.2-1.9-1.3-1.7-2.4L58.2,2C58.4,0.9,59.5,0.2,60.6,0.4z"/>
		</g>
	</g>
	<g transform="translate(1.874 0.363)" class="st2">
		<g transform="translate(0 0)">
			<path d="M60.6,0.4L68.9,2c1.1,0.2,1.9,1.3,1.7,2.4L69,12.8c-0.2,1.1-1.3,1.9-2.4,1.7l-8.3-1.6c-1.1-0.2-1.9-1.3-1.7-2.4L58.2,2
				C58.4,0.9,59.5,0.2,60.6,0.4z"/>
		</g>
	</g>
	<g transform="translate(0 0)">
		<g transform="translate(0 0)">
			<path class="st4" d="M60.6,0.4L68.9,2c1.1,0.2,1.9,1.3,1.7,2.4L69,12.8c-0.2,1.1-1.3,1.9-2.4,1.7l-8.3-1.6
				c-1.1-0.2-1.9-1.3-1.7-2.4L58.2,2C58.4,0.9,59.5,0.2,60.6,0.4z"/>
		</g>
	</g>
	<g transform="translate(4.543 3.854)">
		<g transform="translate(0 2.566)">
			<g transform="translate(0 0)">
				
					<rect x="58.8" y="-2.1" transform="matrix(0.188 -0.9822 0.9822 0.188 47.1657 58.5864)" class="st5" width="0.5" height="5.6"/>
			</g>
		</g>
		<g transform="translate(2.365)">
			<path class="st5" d="M58,1.1c-0.1,0.5-0.6,0.8-1.1,0.7c-0.5-0.1-0.8-0.6-0.7-1.1c0.1-0.5,0.6-0.8,1.1-0.7c0,0,0,0,0,0
				C57.8,0.1,58.1,0.6,58,1.1z"/>
		</g>
		<g transform="translate(1.44 4.836)">
			<path class="st5" d="M58,1.1c-0.1,0.5-0.6,0.8-1.1,0.7c-0.5-0.1-0.8-0.6-0.7-1.1c0.1-0.5,0.6-0.8,1.1-0.7
				C57.8,0.1,58.1,0.6,58,1.1C58,1.1,58,1.1,58,1.1z"/>
		</g>
	</g>
</g>
<g transform="translate(18.665 72.841)">
	<g transform="translate(2.141 0.592)" class="st2">
		<path d="M67.1,14.3l-9.8-1.9c-0.7-0.1-1.2-0.8-1-1.5l0,0l1.9-9.8c0.1-0.7,0.8-1.2,1.5-1c0,0,0,0,0,0l9.8,1.9
			c0.7,0.1,1.2,0.8,1.1,1.5c0,0,0,0,0,0l-1.9,9.8C68.5,14,67.8,14.5,67.1,14.3C67.1,14.3,67.1,14.3,67.1,14.3z"/>
	</g>
	<g transform="translate(0 0)">
		<path class="st4" d="M60.6,0.4L68.9,2c1.1,0.2,1.9,1.3,1.7,2.4L69,12.8c-0.2,1.1-1.3,1.9-2.4,1.7l-8.3-1.6
			c-1.1-0.2-1.9-1.3-1.7-2.4L58.2,2C58.4,0.9,59.5,0.2,60.6,0.4z"/>
	</g>
	<g transform="translate(4.71 4.759)">
		<path class="st5" d="M61,4.5l-0.8-0.2l-0.2,1.1l-1.2-0.2L59,4.2l-2.8-0.5l0.2-0.8L59.4,0l1.3,0.2l-2.9,2.7l1.4,0.3l0.2-1l1.1,0.2
			l-0.2,1l0.8,0.2L61,4.5z"/>
	</g>
</g>
<g transform="translate(35.984 76.157)">
	<g transform="translate(1.918 0.367)">
		<g transform="translate(0 0)">
			<path class="st0" d="M60.6,0.4L68.9,2c1.1,0.2,1.9,1.3,1.7,2.4L69,12.8c-0.2,1.1-1.3,1.9-2.4,1.7l-8.3-1.6
				c-1.1-0.2-1.9-1.3-1.7-2.4L58.2,2C58.4,0.9,59.5,0.2,60.6,0.4z"/>
		</g>
	</g>
	<g transform="translate(1.918 0.367)" class="st2">
		<g transform="translate(0 0)">
			<path d="M60.6,0.4L68.9,2c1.1,0.2,1.9,1.3,1.7,2.4L69,12.8c-0.2,1.1-1.3,1.9-2.4,1.7l-8.3-1.6c-1.1-0.2-1.9-1.3-1.7-2.4L58.2,2
				C58.4,0.9,59.5,0.2,60.6,0.4z"/>
		</g>
	</g>
	<g transform="translate(0 0)">
		<g transform="translate(0 0)">
			<path class="st4" d="M60.6,0.4L68.9,2c1.1,0.2,1.9,1.3,1.7,2.4L69,12.8c-0.2,1.1-1.3,1.9-2.4,1.7l-8.3-1.6
				c-1.1-0.2-1.9-1.3-1.7-2.4L58.2,2C58.4,0.9,59.5,0.2,60.6,0.4z"/>
		</g>
	</g>
	<g transform="translate(5.053 4.505)">
		<path class="st5" d="M60.5,4.2c-0.2,0.9-1,1.6-2.5,1.3c-0.7-0.1-1.3-0.4-1.9-0.9l0.6-0.8c0.4,0.4,0.9,0.7,1.4,0.7
			c0.6,0.1,1-0.1,1.1-0.5s-0.1-0.7-1.1-0.9l-1.3-0.3L57.8,0l3.2,0.6l-0.2,1l-2.2-0.4l-0.3,1l0.4,0.1C60.2,2.5,60.7,3.3,60.5,4.2z"/>
	</g>
</g>
<g transform="translate(53.938 79.593)">
	<g transform="translate(1.918 0.367)">
		<g transform="translate(0 0)">
			<path class="st0" d="M60.6,0.4L68.9,2c1.1,0.2,1.9,1.3,1.7,2.4L69,12.8c-0.2,1.1-1.3,1.9-2.4,1.7l-8.3-1.6
				c-1.1-0.2-1.9-1.3-1.7-2.4L58.2,2C58.4,0.9,59.5,0.2,60.6,0.4z"/>
		</g>
	</g>
	<g transform="translate(1.918 0.367)" class="st2">
		<g transform="translate(0 0)">
			<path d="M60.6,0.4L68.9,2c1.1,0.2,1.9,1.3,1.7,2.4L69,12.8c-0.2,1.1-1.3,1.9-2.4,1.7l-8.3-1.6c-1.1-0.2-1.9-1.3-1.7-2.4L58.2,2
				C58.4,0.9,59.5,0.2,60.6,0.4z"/>
		</g>
	</g>
	<g transform="translate(0 0)">
		<g transform="translate(0 0)">
			<path class="st4" d="M60.6,0.4L68.9,2c1.1,0.2,1.9,1.3,1.7,2.4L69,12.8c-0.2,1.1-1.3,1.9-2.4,1.7l-8.3-1.6
				c-1.1-0.2-1.9-1.3-1.7-2.4L58.2,2C58.4,0.9,59.5,0.2,60.6,0.4z"/>
		</g>
	</g>
	<g transform="translate(5.577 4.777)">
		<path class="st5" d="M60.4,4c-0.2,1-1.2,1.6-2.2,1.4c0,0-0.1,0-0.1,0c-1.4-0.3-2.1-1.3-1.8-3C56.4,0.9,57.6-0.1,59,0
			c0.1,0,0.3,0,0.4,0.1c0.5,0.1,1,0.3,1.4,0.6l-0.6,0.8C60,1.3,59.6,1.1,59.3,1c-0.7-0.2-1.5,0.3-1.7,1c0,0.1,0,0.1,0,0.2
			C58,2,58.4,1.9,58.9,2.1c0.9,0.1,1.6,0.9,1.5,1.8C60.4,3.9,60.4,4,60.4,4z M59.2,3.8C59.3,3.4,59,3,58.6,2.9c0,0-0.1,0-0.1,0
			c-0.4-0.1-0.9,0.1-1,0.6c0,0,0,0,0,0.1c-0.1,0.4,0.2,0.8,0.8,0.9C58.6,4.6,59.1,4.3,59.2,3.8C59.2,3.9,59.2,3.9,59.2,3.8z"/>
	</g>
</g>
<g transform="translate(71.892 83.03)">
	<g transform="translate(1.918 0.367)">
		<g transform="translate(0 0)">
			<path class="st0" d="M60.6,0.4L68.9,2c1.1,0.2,1.9,1.3,1.7,2.4L69,12.8c-0.2,1.1-1.3,1.9-2.4,1.7l-8.3-1.6
				c-1.1-0.2-1.9-1.3-1.7-2.4L58.2,2C58.4,0.9,59.5,0.2,60.6,0.4z"/>
		</g>
	</g>
	<g transform="translate(1.918 0.367)" class="st2">
		<g transform="translate(0 0)">
			<path d="M60.6,0.4L68.9,2c1.1,0.2,1.9,1.3,1.7,2.4L69,12.8c-0.2,1.1-1.3,1.9-2.4,1.7l-8.3-1.6c-1.1-0.2-1.9-1.3-1.7-2.4L58.2,2
				C58.4,0.9,59.5,0.2,60.6,0.4z"/>
		</g>
	</g>
	<g transform="translate(0 0)">
		<g transform="translate(0 0)">
			<path class="st4" d="M60.6,0.4L68.9,2c1.1,0.2,1.9,1.3,1.7,2.4L69,12.8c-0.2,1.1-1.3,1.9-2.4,1.7l-8.3-1.6
				c-1.1-0.2-1.9-1.3-1.7-2.4L58.2,2C58.4,0.9,59.5,0.2,60.6,0.4z"/>
		</g>
	</g>
	<g transform="translate(4.906 4.927)">
		<g transform="translate(0 0.719)">
			<g transform="translate(0 0)">
				
					<rect x="55.9" y="1.5" transform="matrix(0.8359 -0.5489 0.5489 0.8359 8.6709 32.5036)" class="st5" width="5.6" height="0.5"/>
			</g>
		</g>
		<g transform="translate(0.707 0)">
			<g transform="translate(0)">
				
					<rect x="57.7" y="-0.4" transform="matrix(0.8274 -0.5617 0.5617 0.8274 8.6212 32.9926)" class="st5" width="0.5" height="5.6"/>
			</g>
		</g>
	</g>
</g>
<g transform="translate(15.211 90.888)">
	<g transform="translate(1.918 0.367)">
		<g transform="translate(0 0)">
			<path class="st0" d="M60.6,0.4L68.9,2c1.1,0.2,1.9,1.3,1.7,2.4L69,12.8c-0.2,1.1-1.3,1.9-2.4,1.7l-8.3-1.6
				c-1.1-0.2-1.9-1.3-1.7-2.4L58.2,2C58.4,0.9,59.5,0.2,60.6,0.4z"/>
		</g>
	</g>
	<g transform="translate(1.918 0.367)" class="st2">
		<g transform="translate(0 0)">
			<path d="M60.6,0.4L68.9,2c1.1,0.2,1.9,1.3,1.7,2.4L69,12.8c-0.2,1.1-1.3,1.9-2.4,1.7l-8.3-1.6c-1.1-0.2-1.9-1.3-1.7-2.4L58.2,2
				C58.4,0.9,59.5,0.2,60.6,0.4z"/>
		</g>
	</g>
	<g transform="translate(0 0)">
		<g transform="translate(0 0)">
			<path class="st4" d="M60.6,0.4L68.9,2c1.1,0.2,1.9,1.3,1.7,2.4L69,12.8c-0.2,1.1-1.3,1.9-2.4,1.7l-8.3-1.6
				c-1.1-0.2-1.9-1.3-1.7-2.4L58.2,2C58.4,0.9,59.5,0.2,60.6,0.4z"/>
		</g>
	</g>
	<g transform="translate(5.108 4.285)">
		<path class="st5" d="M60.7,0.8l-0.1,0.8l-2.8,4l-1.3-0.2l2.7-3.8l-1.7-0.3L57.3,2l-1.1-0.2L56.6,0L60.7,0.8z"/>
	</g>
</g>
<g transform="translate(32.53 94.203)">
	<g transform="translate(1.918 0.367)">
		<g transform="translate(0 0)">
			<path class="st0" d="M60.6,0.4L68.9,2c1.1,0.2,1.9,1.3,1.7,2.4L69,12.8c-0.2,1.1-1.3,1.9-2.4,1.7l-8.3-1.6
				c-1.1-0.2-1.9-1.3-1.7-2.4L58.2,2C58.4,0.9,59.5,0.2,60.6,0.4z"/>
		</g>
	</g>
	<g transform="translate(1.918 0.367)" class="st2">
		<g transform="translate(0 0)">
			<path d="M60.6,0.4L68.9,2c1.1,0.2,1.9,1.3,1.7,2.4L69,12.8c-0.2,1.1-1.3,1.9-2.4,1.7l-8.3-1.6c-1.1-0.2-1.9-1.3-1.7-2.4L58.2,2
				C58.4,0.9,59.5,0.2,60.6,0.4z"/>
		</g>
	</g>
	<g transform="translate(0 0)">
		<g transform="translate(0 0)">
			<path class="st4" d="M60.6,0.4L68.9,2c1.1,0.2,1.9,1.3,1.7,2.4L69,12.8c-0.2,1.1-1.3,1.9-2.4,1.7l-8.3-1.6
				c-1.1-0.2-1.9-1.3-1.7-2.4L58.2,2C58.4,0.9,59.5,0.2,60.6,0.4z"/>
		</g>
	</g>
	<g transform="translate(5.407 4.682)">
		<path class="st5" d="M60.6,4.2c-0.2,1-1.2,1.4-2.5,1.2s-2.1-1-1.9-2c0.1-0.5,0.5-0.9,1-1.1c-0.3-0.3-0.5-0.7-0.4-1.2
			c0.2-0.9,1.1-1.3,2.3-1.1c1.2,0.2,1.9,1,1.7,1.9c-0.1,0.4-0.4,0.8-0.8,0.9C60.5,3.2,60.7,3.7,60.6,4.2z M59.4,4
			c0.1-0.5-0.2-0.8-0.8-0.9s-1,0.1-1.1,0.6s0.2,0.8,0.8,0.9S59.3,4.4,59.4,4L59.4,4z M58,1.4c-0.1,0.4,0.2,0.7,0.7,0.8
			s0.9-0.1,0.9-0.5S59.4,1,59,0.9S58.1,1,58,1.4z"/>
	</g>
</g>
<g transform="translate(50.484 97.639)">
	<g transform="translate(1.918 0.367)">
		<g transform="translate(0 0)">
			<path class="st0" d="M60.6,0.4L68.9,2c1.1,0.2,1.9,1.3,1.7,2.4L69,12.8c-0.2,1.1-1.3,1.9-2.4,1.7l-8.3-1.6
				c-1.1-0.2-1.9-1.3-1.7-2.4L58.2,2C58.4,0.9,59.5,0.2,60.6,0.4z"/>
		</g>
	</g>
	<g transform="translate(1.918 0.367)" class="st2">
		<g transform="translate(0 0)">
			<path d="M60.6,0.4L68.9,2c1.1,0.2,1.9,1.3,1.7,2.4L69,12.8c-0.2,1.1-1.3,1.9-2.4,1.7l-8.3-1.6c-1.1-0.2-1.9-1.3-1.7-2.4L58.2,2
				C58.4,0.9,59.5,0.2,60.6,0.4z"/>
		</g>
	</g>
	<g transform="translate(0 0)">
		<g transform="translate(0 0)">
			<path class="st4" d="M60.6,0.4L68.9,2c1.1,0.2,1.9,1.3,1.7,2.4L69,12.8c-0.2,1.1-1.3,1.9-2.4,1.7l-8.3-1.6
				c-1.1-0.2-1.9-1.3-1.7-2.4L58.2,2C58.4,0.9,59.5,0.2,60.6,0.4z"/>
		</g>
	</g>
	<g transform="translate(5.288 4.633)">
		<path class="st5" d="M60.7,3.1c-0.1,1.4-1.3,2.5-2.8,2.4c-0.1,0-0.3,0-0.4-0.1c-0.5-0.1-1-0.3-1.4-0.6l0.6-0.8
			c0.3,0.2,0.6,0.4,0.9,0.4c0.7,0.2,1.5-0.3,1.7-1c0-0.1,0-0.1,0-0.2c-0.4,0.3-0.9,0.3-1.4,0.2c-0.9-0.1-1.6-0.9-1.5-1.8
			c0,0,0-0.1,0-0.1c0.2-1,1.2-1.6,2.2-1.4c0,0,0.1,0,0.1,0C60.3,0.3,61.1,1.4,60.7,3.1z M59.6,1.9C59.6,1.5,59.4,1,58.9,1
			c0,0-0.1,0-0.1,0c-0.4-0.1-0.9,0.1-1,0.5c0,0,0,0.1,0,0.1C57.7,2,58,2.4,58.4,2.5c0,0,0.1,0,0.1,0C59,2.6,59.4,2.4,59.6,1.9
			C59.6,1.9,59.6,1.9,59.6,1.9L59.6,1.9z"/>
	</g>
</g>
<g transform="translate(68.438 101.075)">
	<g transform="translate(1.918 0.367)">
		<g transform="translate(0 0)">
			<path class="st0" d="M60.6,0.4L68.9,2c1.1,0.2,1.9,1.3,1.7,2.4L69,12.8c-0.2,1.1-1.3,1.9-2.4,1.7l-8.3-1.6
				c-1.1-0.2-1.9-1.3-1.7-2.4L58.2,2C58.4,0.9,59.5,0.2,60.6,0.4z"/>
		</g>
	</g>
	<g transform="translate(1.918 0.367)" class="st2">
		<g transform="translate(0 0)">
			<path d="M60.6,0.4L68.9,2c1.1,0.2,1.9,1.3,1.7,2.4L69,12.8c-0.2,1.1-1.3,1.9-2.4,1.7l-8.3-1.6c-1.1-0.2-1.9-1.3-1.7-2.4L58.2,2
				C58.4,0.9,59.5,0.2,60.6,0.4z"/>
		</g>
	</g>
	<g transform="translate(0 0)">
		<g transform="translate(0 0)">
			<path class="st4" d="M60.6,0.4L68.9,2c1.1,0.2,1.9,1.3,1.7,2.4L69,12.8c-0.2,1.1-1.3,1.9-2.4,1.7l-8.3-1.6
				c-1.1-0.2-1.9-1.3-1.7-2.4L58.2,2C58.4,0.9,59.5,0.2,60.6,0.4z"/>
		</g>
	</g>
	<g transform="translate(4.58 6.632)">
		<g transform="translate(0 0)">
			<g transform="translate(0)">
				
					<rect x="58.8" y="-2.1" transform="matrix(0.1879 -0.9822 0.9822 0.1879 47.1721 58.5874)" class="st5" width="0.5" height="5.6"/>
			</g>
		</g>
	</g>
</g>
<g transform="translate(47 115.843)">
	<g transform="translate(1.918 0.367)">
		<g transform="translate(0 0)">
			<path class="st0" d="M60.6,0.4L68.9,2c1.1,0.2,1.9,1.3,1.7,2.4L69,12.8c-0.2,1.1-1.3,1.9-2.4,1.7l-8.3-1.6
				c-1.1-0.2-1.9-1.3-1.7-2.4L58.2,2C58.4,0.9,59.5,0.2,60.6,0.4z"/>
		</g>
	</g>
	<g transform="translate(1.918 0.367)" class="st2">
		<g transform="translate(0 0)">
			<path d="M60.6,0.4L68.9,2c1.1,0.2,1.9,1.3,1.7,2.4L69,12.8c-0.2,1.1-1.3,1.9-2.4,1.7l-8.3-1.6c-1.1-0.2-1.9-1.3-1.7-2.4L58.2,2
				C58.4,0.9,59.5,0.2,60.6,0.4z"/>
		</g>
	</g>
	<g transform="translate(0 0)">
		<g transform="translate(0 0)">
			<path class="st4" d="M60.6,0.4L68.9,2c1.1,0.2,1.9,1.3,1.7,2.4L69,12.8c-0.2,1.1-1.3,1.9-2.4,1.7l-8.3-1.6
				c-1.1-0.2-1.9-1.3-1.7-2.4L58.2,2C58.4,0.9,59.5,0.2,60.6,0.4z"/>
		</g>
	</g>
</g>
<g transform="translate(64.954 119.279)">
	<g transform="translate(1.918 0.367)">
		<g transform="translate(0 0)">
			<path class="st6" d="M60.6,0.4L68.9,2c1.1,0.2,1.9,1.3,1.7,2.4L69,12.8c-0.2,1.1-1.3,1.9-2.4,1.7l-8.3-1.6
				c-1.1-0.2-1.9-1.3-1.7-2.4L58.2,2C58.4,0.9,59.5,0.2,60.6,0.4z"/>
		</g>
	</g>
	<g transform="translate(1.918 0.367)" class="st1">
		<g transform="translate(0 0)">
			<path d="M60.6,0.4L68.9,2c1.1,0.2,1.9,1.3,1.7,2.4L69,12.8c-0.2,1.1-1.3,1.9-2.4,1.7l-8.3-1.6c-1.1-0.2-1.9-1.3-1.7-2.4L58.2,2
				C58.4,0.9,59.5,0.2,60.6,0.4z"/>
		</g>
	</g>
	<g transform="translate(0 0)">
		<g transform="translate(0 0)">
			<path class="st6" d="M60.6,0.4L68.9,2c1.1,0.2,1.9,1.3,1.7,2.4L69,12.8c-0.2,1.1-1.3,1.9-2.4,1.7l-8.3-1.6
				c-1.1-0.2-1.9-1.3-1.7-2.4L58.2,2C58.4,0.9,59.5,0.2,60.6,0.4z"/>
		</g>
	</g>
	<g transform="translate(4.307 5.947)">
		<g transform="translate(0.404 0)">
			<g transform="translate(0)">
				<g transform="translate(0)">
					
						<rect x="58.8" y="-2.1" transform="matrix(0.1879 -0.9822 0.9822 0.1879 47.1726 58.5879)" class="st5" width="0.5" height="5.6"/>
				</g>
			</g>
		</g>
		<g transform="translate(0 2.111)">
			<g transform="translate(0 0)">
				<g transform="translate(0)">
					
						<rect x="58.8" y="-2.1" transform="matrix(0.1879 -0.9822 0.9822 0.1879 47.1726 58.5879)" class="st5" width="0.5" height="5.6"/>
				</g>
			</g>
		</g>
	</g>
</g>
<g transform="translate(11.045 108.808)">
	<g transform="translate(0 0)">
		<path class="st4" d="M61.1,0.5l25.1,4.8c1.4,0.3,2.2,1.6,2,2.9L86.6,16c-0.3,1.4-1.6,2.2-2.9,2l-25.1-4.8c-1.4-0.3-2.2-1.6-2-2.9
			l1.5-7.8C58.4,1.1,59.7,0.2,61.1,0.5z"/>
	</g>
</g>
<g transform="translate(26.085 115.286)">
	<path class="st5" d="M56.3,2.3C56.6,0.6,57.7-0.2,59,0s2,1.4,1.7,3.1S59.3,5.6,58,5.4S55.9,4,56.3,2.3z M59.5,2.9
		c0.2-1.2-0.1-1.7-0.7-1.9s-1.1,0.3-1.3,1.5s0.1,1.7,0.7,1.9S59.3,4.1,59.5,2.9z"/>
</g>
<g transform="translate(51.58 120.428)">
	<g transform="translate(2.011 0)">
		<g transform="translate(0)">
			
				<rect x="54.2" y="2.6" transform="matrix(0.2026 -0.9793 0.9793 0.2026 42.6994 58.0665)" class="st5" width="5.6" height="0.5"/>
		</g>
	</g>
	<g transform="translate(0 2.046)">
		<g transform="translate(0 0)">
			
				<rect x="58.8" y="-2.1" transform="matrix(0.1879 -0.9822 0.9822 0.1879 47.1694 58.5874)" class="st5" width="0.5" height="5.6"/>
		</g>
	</g>
</g>
<g transform="translate(54.305 33.801)">
	<path class="st4" d="M58.6,0.4l-1.5,7.7l-0.4-0.1l1.4-7.4l-1.9-0.4L56.3,0L58.6,0.4z"/>
	<g transform="translate(2.774 1.132)">
		<path class="st4" d="M61.5,8.1l-0.1,0.3l-5.2-1l0.1-0.3l4-2.7c1.1-0.8,1.4-1.3,1.6-1.9c0.2-1-0.4-1.8-1.7-2.1
			c-0.9-0.2-1.8-0.1-2.5,0.5l-0.2-0.3c0.8-0.6,1.8-0.8,2.8-0.5c1.5,0.3,2.3,1.2,2,2.5c-0.1,0.7-0.5,1.3-1.7,2.1l-3.6,2.5L61.5,8.1z"
			/>
	</g>
	<g transform="translate(8.862 1.978)">
		<path class="st4" d="M61.7,6.6c-0.2,1.3-1.3,2-3,1.7c-1-0.1-1.9-0.7-2.5-1.6l0.2-0.2c0.5,0.8,1.3,1.3,2.3,1.5
			c1.5,0.3,2.4-0.3,2.6-1.4s-0.4-2-2-2.3l-0.4-0.1l0.1-0.3l3-2.7l-4.3-0.8L57.7,0l4.8,0.9l-0.1,0.3l-3,2.7C61.2,4.2,62,5.3,61.7,6.6
			z"/>
	</g>
	<g transform="translate(15.503 3.975)">
		<path class="st4" d="M62.7,5.9L61,5.6l-0.4,2.2l-0.4-0.1l0.4-2.2l-4.4-0.9l0.1-0.3L61.5,0L62,0.1l-5.2,4.4l4,0.8l0.4-2l0.4,0.1
			l-0.4,2l1.7,0.3L62.7,5.9z"/>
	</g>
	<g transform="translate(22.328 11.711)">
		<path class="st4" d="M57.3,0.4c0,0.1-0.1,0.3-0.1,0.4l-0.7,1.4l-0.3-0.1l0.6-1.5c-0.2-0.1-0.3-0.2-0.3-0.4C56.6,0.1,56.8,0,57,0
			c0,0,0,0,0,0C57.2,0.1,57.3,0.2,57.3,0.4z"/>
	</g>
	<g transform="translate(24.789 5.752)">
		<path class="st4" d="M62.7,5.9L61,5.6l-0.4,2.2l-0.4-0.1l0.4-2.2l-4.4-0.9l0.1-0.3L61.5,0L62,0.1l-5.2,4.4l4,0.8l0.4-2l0.4,0.1
			l-0.4,2l1.7,0.3L62.7,5.9z"/>
	</g>
	<g transform="translate(31.49 6.436)">
		<path class="st4" d="M61.7,6.4c-0.2,1.3-1.3,2.1-3.1,1.7c-1-0.1-1.9-0.7-2.5-1.6l0.3-0.2c0.5,0.8,1.3,1.3,2.3,1.5
			c1.5,0.3,2.4-0.4,2.6-1.5c0.2-1.2-0.3-2-2.6-2.5l-1.5-0.3L58.4,0l4,0.8l-0.1,0.3l-3.7-0.7l-0.9,2.9l1.2,0.2C61.3,4,62,5,61.7,6.4z
			"/>
	</g>
</g>
<g transform="translate(2161.65 4718.601)">
	<g transform="translate(0 24.043)">
		<path class="st7" d="M-1773-4360.2c-0.3,1,10.9,43.5,10.9,43.5l7.7-1.6l-10.6-41.9L-1773-4360.2z"/>
	</g>
	<g transform="translate(44.179 17.961)">
		<path class="st8" d="M-1757.6-4360.2l-15.4,49.6h9l14.7-46.1L-1757.6-4360.2z"/>
	</g>
	<g transform="translate(56.022 10.279)">
		<path class="st7" d="M-1755.4-4360.2l-17.6,57.3h9l17-53.8L-1755.4-4360.2z"/>
	</g>
	<g transform="translate(5.448 64.055)">
		<path class="st9" d="M-1773-4360.2l9,31h45.1l8.3-31H-1773z"/>
	</g>
	<g transform="translate(6.312)">
		<path class="st9" d="M-1750.5-4296.1c0-0.1-0.1-0.2-0.1-0.3l-0.2-0.9c-0.2-0.9-0.5-2.1-0.9-3.7c-0.7-3.2-1.8-7.8-3.1-13.6
			c-2.6-11.5-6.1-27.4-10.1-45.2l0.3,0.2h-7.9l0.3-0.3c4,17.8,7.6,33.7,10.2,45.3c1.3,5.7,2.3,10.4,3,13.6c0.3,1.6,0.6,2.8,0.8,3.7
			c0.1,0.4,0.1,0.7,0.2,1c0,0.1,0,0.2,0,0.3c0-0.1-0.1-0.2-0.1-0.3c-0.1-0.2-0.1-0.6-0.2-0.9c-0.2-0.9-0.5-2.1-0.9-3.7
			c-0.8-3.2-1.8-7.8-3.2-13.6l-10.4-45.2l-0.1-0.3h8.5l0,0.2c3.9,17.8,7.4,33.7,10,45.3c1.2,5.7,2.2,10.4,2.9,13.6
			c0.3,1.6,0.6,2.8,0.8,3.7l0.2,1C-1750.6-4296.3-1750.5-4296.2-1750.5-4296.1z"/>
	</g>
</g>
<g transform="translate(1772.959 4814.718)">
	<g transform="translate(0 0)">
		<path class="st4" d="M-1311.4-4359.9c0,0.2-103.3,0.3-230.8,0.3c-127.5,0-230.8-0.1-230.8-0.3s103.3-0.3,230.8-0.3
			C-1414.8-4360.2-1311.4-4360-1311.4-4359.9z"/>
	</g>
</g>
<g transform="translate(2132.176 4517.545)">
	<g transform="translate(0)">
		<path class="st4" d="M-1700.4-4359.7c-0.2-0.1-0.5-0.2-0.8-0.2c-0.8-0.2-1.6-0.2-2.4,0c-1.3,0.3-2.4,0.9-3.4,1.8
			c-1.4,1.2-2.5,2.5-3.5,4.1c-2.2,3.4-4,8.1-6,13.6c-2.4,6.3-4.4,12.7-6.1,19.2l0,0l0,0c-0.3,0.6-0.8,1.1-1.3,1.6
			c-0.5,0.5-1.3,0.7-2,0.6c-0.7-0.2-1.3-0.5-1.8-1.1c-0.5-0.5-1-1-1.5-1.5c-0.9-1-2-2-3-2.9c-1-1-2.4-1.5-3.8-1.6
			c-1.4,0.2-2.7,1.1-3.5,2.3c-0.8,1.3-1.2,2.8-1.2,4.3c-0.2,3.1,0.7,6.3,1.3,9.5c0.6,3.3,1.2,6.6,1.9,10c0.3,1.7,0.6,3.4,1,5.2
			c0.2,0.9,0.3,1.7,0.5,2.6c0.3,0.9,0.2,1.9-0.3,2.8c-0.3,0.4-0.9,0.6-1.5,0.5c-0.5-0.1-0.9-0.4-1.3-0.7l-2.2-1.7
			c-1.5-1.1-3-2.2-4.6-3.1c-1.6-1-3.3-1.7-5.2-2.1c-0.9-0.2-1.8-0.2-2.7,0c-0.9,0.2-1.7,0.8-2.2,1.5c-1,1.6-1.6,3.5-1.5,5.4
			c0,2,0.2,4,0.6,5.9c0.8,4,1.9,7.9,3.3,11.7c0.4,1,0.7,2,0.9,3c0.1,0.6,0,1.2-0.4,1.7c-0.1,0.1-0.2,0.2-0.3,0.3
			c-0.1,0.1-0.3,0.2-0.4,0.2c-0.3,0.1-0.7,0-0.9-0.2c-0.9-0.6-1.7-1.3-2.5-2l-2.3-2.2c-1.5-1.5-3.2-2.8-4.9-4
			c-0.9-0.6-1.8-1-2.9-1.3c-1-0.3-2-0.2-2.9,0.4c-0.8,0.6-1.4,1.5-1.6,2.5c-0.3,1-0.4,2.1-0.4,3.2c0,2.2,0.3,4.4,0.8,6.5
			c1.1,4.3,2.7,8.5,4.7,12.5c2.1,4.1,4.4,8,7,11.7c1.3,1.9,2.7,3.7,4.2,5.5c1.5,1.8,2.9,3.6,4.4,5.4l0.1,0.1l-0.3-0.1l6.9-1
			c2.3-0.3,4.6-0.7,6.8-1.2c4.5-1,8.8-2.3,13.1-3.9c4.2-1.5,8.2-3.6,11.9-6.1c1.8-1.2,3.5-2.6,5-4.3c0.7-0.8,1.3-1.7,1.9-2.6
			c0.5-0.9,0.7-2,0.5-3c-0.3-1-1-1.8-1.9-2.2c-0.9-0.5-1.9-0.8-3-1c-2.1-0.3-4.2-0.4-6.3-0.4l-3.2,0c-1.1,0-2.1,0-3.2-0.2
			c-0.3,0-0.6-0.2-0.8-0.5c-0.1-0.1-0.1-0.3-0.1-0.5c0-0.1,0-0.3,0-0.4c0.1-0.6,0.4-1.1,0.8-1.5c0.9-0.6,1.8-1.2,2.7-1.6
			c3.6-1.9,7.1-4,10.3-6.5c1.6-1.2,3.1-2.5,4.4-4c1.4-1.4,2.3-3.1,2.6-5c0.1-0.9-0.1-1.8-0.7-2.6c-0.5-0.8-1.2-1.4-2-1.9
			c-1.6-0.9-3.4-1.5-5.3-1.9c-1.8-0.4-3.7-0.6-5.5-0.8l-2.7-0.3c-0.5,0-1-0.2-1.4-0.4c-0.5-0.3-0.8-0.8-0.7-1.4
			c0.2-1,0.8-1.8,1.6-2.3c0.7-0.5,1.4-1.1,2.1-1.6l4.2-3.2l8.1-6.1c2.6-2,5.4-3.8,7.3-6.2c1-1.1,1.7-2.5,2-4c0.3-1.4-0.1-2.9-1-4.1
			c-0.5-0.5-1.1-0.9-1.8-1.1c-0.7-0.2-1.4-0.3-2.1-0.3c-1.4,0-2.8,0-4.2,0.1c-0.7,0.1-1.4,0.1-2.1,0.1c-0.7,0.1-1.4-0.1-2.1-0.4
			c-0.6-0.4-1-1.1-1-1.8c-0.1-0.7,0-1.4,0.1-2v0l0,0c3.1-6,5.9-12.1,8.3-18.3c2.2-5.4,4.1-10.1,4.7-14.1c0.3-1.8,0.4-3.6,0.2-5.3
			c-0.1-1.3-0.6-2.5-1.3-3.6c-0.4-0.7-1-1.2-1.7-1.6c-0.2-0.1-0.5-0.3-0.7-0.4c0.3,0.1,0.5,0.2,0.7,0.3c0.7,0.4,1.3,1,1.7,1.6
			c0.7,1.1,1.2,2.4,1.3,3.7c0.2,1.8,0.1,3.6-0.2,5.4c-0.7,4-2.5,8.7-4.7,14.2c-2.4,6.3-5.2,12.4-8.3,18.4l0,0
			c-0.1,0.6-0.2,1.2-0.1,1.9c0.1,0.6,0.4,1.2,0.9,1.6c0.6,0.3,1.2,0.4,1.9,0.4c0.7,0,1.4-0.1,2.1-0.1c1.4-0.1,2.8-0.2,4.3-0.2
			c0.7,0,1.5,0.1,2.2,0.4c0.7,0.2,1.4,0.6,2,1.2c1,1.2,1.4,2.8,1.1,4.4c-0.3,1.6-1,3-2.1,4.2c-2,2.5-4.8,4.2-7.4,6.3l-8.1,6.2
			l-4.2,3.2c-0.7,0.5-1.4,1.1-2.1,1.6c-0.4,0.2-0.7,0.5-1,0.9c-0.3,0.3-0.4,0.7-0.5,1.1c0,0.4,0.2,0.7,0.5,0.9
			c0.4,0.2,0.8,0.3,1.2,0.3l2.7,0.3c1.9,0.2,3.7,0.4,5.6,0.8c1.9,0.3,3.7,1,5.4,1.9c0.9,0.5,1.6,1.2,2.2,2c0.6,0.9,0.8,1.9,0.7,2.9
			c-0.3,2-1.3,3.9-2.7,5.3c-1.4,1.5-2.8,2.9-4.5,4.1c-3.3,2.4-6.8,4.6-10.4,6.5c-0.9,0.4-1.8,0.9-2.6,1.5c-0.4,0.3-0.6,0.7-0.7,1.1
			c0,0.1,0,0.2,0,0.3c0,0.1,0,0.3,0.1,0.3c0.1,0.1,0.3,0.2,0.5,0.2c1,0.2,2.1,0.2,3.1,0.2l3.2,0c2.2-0.1,4.3,0.1,6.4,0.4
			c1.1,0.2,2.2,0.5,3.2,1c1.1,0.5,1.9,1.4,2.2,2.6c0.2,1.1,0.1,2.3-0.5,3.4c-0.5,1-1.2,1.9-1.9,2.7c-1.5,1.7-3.2,3.1-5.1,4.4
			c-3.8,2.5-7.8,4.6-12,6.1c-4.3,1.6-8.7,3-13.2,4c-2.3,0.5-4.5,0.9-6.9,1.2l-6.9,1l-0.2,0l-0.1-0.1l-0.1-0.1
			c-1.5-1.8-3-3.6-4.4-5.4c-1.5-1.8-2.9-3.6-4.3-5.5c-2.6-3.8-5-7.7-7.1-11.8c-2.1-4-3.7-8.2-4.8-12.6c-0.5-2.2-0.8-4.4-0.8-6.6
			c0-1.1,0.1-2.2,0.4-3.3c0.3-1.1,0.9-2.1,1.9-2.8c1-0.6,2.2-0.8,3.3-0.4c1.1,0.3,2.1,0.8,3,1.4c1.8,1.2,3.5,2.5,5,4l2.3,2.2
			c0.7,0.7,1.5,1.4,2.4,1.9c0.2,0.1,0.3,0.2,0.5,0.2c0,0,0.2-0.1,0.2-0.1c0.1-0.1,0.2-0.1,0.2-0.2c0.3-0.4,0.4-0.8,0.3-1.3
			c-0.2-1-0.5-2-0.9-2.9c-1.4-3.8-2.5-7.8-3.3-11.8c-0.4-2-0.6-4-0.6-6c-0.1-2,0.5-4,1.6-5.7c0.6-0.8,1.5-1.4,2.5-1.7
			c1-0.2,2-0.2,3,0c1.9,0.4,3.7,1.2,5.3,2.2c1.6,1,3.2,2,4.7,3.1l2.2,1.7c0.3,0.3,0.7,0.5,1.1,0.6c0.4,0.1,0.7,0,1-0.3
			c0.2-0.3,0.4-0.7,0.4-1.1c0-0.4,0-0.9-0.1-1.3c-0.2-0.9-0.3-1.8-0.5-2.6c-0.3-1.7-0.6-3.5-1-5.2c-0.6-3.4-1.2-6.7-1.8-10
			c-0.5-3.2-1.4-6.4-1.2-9.6c0-1.6,0.5-3.2,1.3-4.5c0.9-1.3,2.2-2.2,3.8-2.5c0.8-0.1,1.5,0.1,2.2,0.4c0.7,0.3,1.3,0.7,1.9,1.2
			c1.1,0.9,2.1,1.9,3,3c0.5,0.5,0.9,1,1.4,1.5c0.4,0.5,1,0.8,1.6,1c0.6,0.1,1.2-0.1,1.7-0.5c0.5-0.4,0.9-0.9,1.2-1.5l0,0
			c1.7-6.5,3.8-12.9,6.2-19.2c2.1-5.5,3.9-10.2,6.1-13.7c1-1.5,2.2-2.9,3.5-4.1c1-0.8,2.2-1.4,3.5-1.7c0.8-0.2,1.6-0.2,2.4,0
			C-1700.9-4360-1700.6-4359.9-1700.4-4359.7z"/>
	</g>
	<g transform="translate(15.174 15.229)">
		<path class="st4" d="M-1721.2-4360.2c0,0.1-0.1,0.2-0.1,0.4l-0.4,1c-0.4,0.9-0.9,2.2-1.5,3.9c-1.3,3.4-3.2,8.3-5.5,14.4
			c-4.6,12.2-11,29-18.1,47.5c-7,18.6-13.5,35.3-18.2,47.4c-2.4,6.1-4.3,10.9-5.7,14.3l-1.6,3.9l-0.4,1c0,0.1-0.1,0.2-0.2,0.3
			c0-0.1,0.1-0.2,0.1-0.4c0.1-0.3,0.2-0.6,0.4-1c0.4-0.9,0.9-2.2,1.5-3.9c1.3-3.4,3.2-8.3,5.5-14.4c4.6-12.2,11-29,18.1-47.5
			c7-18.6,13.5-35.3,18.2-47.4c2.4-6.1,4.3-10.9,5.7-14.3l1.6-3.9l0.4-1C-1721.4-4360-1721.3-4360.1-1721.2-4360.2z"/>
	</g>
	<g transform="translate(48.449 52.777)">
		<path class="st4" d="M-1753.9-4360.2c-0.9,0.6-1.8,1.2-2.7,1.6l-6.7,3.7c-2.6,1.4-5,2.7-6.7,3.6c-0.9,0.5-1.9,1-2.9,1.3
			c0.9-0.6,1.8-1.1,2.7-1.6l6.6-3.8c2.6-1.4,5-2.7,6.8-3.6C-1755.9-4359.4-1754.9-4359.8-1753.9-4360.2z"/>
	</g>
	<g transform="translate(36.509 40.021)">
		<path class="st4" d="M-1761.9-4337.9c-0.1,0.1-2.7-4.9-5.8-11s-5.4-11.2-5.3-11.3s2.7,4.9,5.8,11S-1761.8-4337.9-1761.9-4337.9z"
			/>
	</g>
	<g transform="translate(23.823 74.505)">
		<path class="st4" d="M-1758.7-4343.4c-0.9-0.6-1.7-1.4-2.4-2.2c-1.4-1.4-3.3-3.4-5.3-5.8s-3.6-4.5-4.8-6.2
			c-0.7-0.8-1.3-1.8-1.8-2.7c0.8,0.8,1.4,1.6,2.1,2.5c1.2,1.6,2.9,3.7,4.9,6s3.8,4.4,5.1,5.8
			C-1760.1-4345-1759.4-4344.2-1758.7-4343.4z"/>
	</g>
	<g transform="translate(38.071 86.626)">
		<path class="st4" d="M-1753.1-4360.1c-0.9,0.4-1.9,0.7-2.9,0.8c-1.8,0.4-4.3,1-7,1.6s-5.2,1.1-7.1,1.5c0.1,0.8-0.5,1.6-1.4,1.6
			c-0.8,0.1-1.6-0.5-1.6-1.4c-0.1-0.8,0.5-1.6,1.4-1.6c0.7-0.1,1.3,0.3,1.5,1c1.8-0.4,4.3-1,7-1.6s5.2-1.1,7-1.5
			C-1755.1-4359.9-1754.1-4360.1-1753.1-4360.1z"/>
	</g>
	<g transform="translate(27.266 113.286)">
		<path class="st4" d="M-1747.4-4360.2c-1.2,0.4-2.4,0.8-3.7,1c-2.3,0.5-5.5,1.2-9,2s-6.7,1.4-9,1.8c-1.2,0.3-2.5,0.5-3.8,0.6
			c1.2-0.4,2.4-0.8,3.7-1c2.3-0.5,5.5-1.2,9-2s6.7-1.4,9-1.8C-1750-4359.8-1748.7-4360-1747.4-4360.2z"/>
	</g>
	<g transform="translate(10.373 96.579)">
		<path class="st4" d="M-1755.5-4338.3c-0.3-0.2-0.6-0.5-0.8-0.7c-0.5-0.5-1.2-1.2-2.1-2.2c-1.7-1.9-4-4.5-6.4-7.5s-4.5-5.8-5.9-7.9
			c-0.7-1-1.3-1.9-1.7-2.5c-0.3,0.1-0.6,0-0.7-0.3s0-0.6,0.3-0.7c0.3-0.1,0.6,0,0.7,0.3c0.1,0.2,0.1,0.4-0.1,0.6l1.8,2.4
			c1.5,2,3.6,4.8,6.1,7.8s4.7,5.7,6.3,7.6C-1757.1-4340.5-1756.3-4339.5-1755.5-4338.3z"/>
	</g>
</g>
<g transform="translate(2129.146 4576.73)">
	<path class="st6" d="M-1753-4228.1c-18.9-15.2-21.6-41.3-19.3-64.4c0.4-3.9,0.2-8,2.3-11.2s6.5-5.3,9.9-3.4c2.8,1.5,3.8,5,5.2,7.8
		c1.9,3.8,4.8,7,8.5,9.3c2.4,1.4,5.4,2.4,7.9,1.3c3.5-1.6,4.2-6.2,4.4-10c0.4-7.2,0.9-14.3,1.3-21.5c0.2-3.8,0.5-7.8,1.9-11.3
		s4.3-6.8,8-7.5s8.1,1.6,8.6,5.5c0.2,1.6-0.2,3.2-0.2,4.8s0.6,3.4,2.1,4c1.5,0.6,3.1-0.4,4.3-1.5c4.2-3.6,7.3-8.4,10.1-13.2
		s5.6-9.7,9.5-13.7s9.1-7,14.6-6.9s11.1,3.9,12.2,9.4c1,5.5-2.5,10.8-6.3,14.9c-5.5,6.2-12,11.5-19,15.8c-1.3,0.8-2.6,1.6-3.2,3
		c-1,2.5,1.2,5.2,3.7,6.2c2.8,1.1,5.9,1.1,8.9,1.6s6.1,2.1,7.1,5c1.3,4-2.3,7.9-5.7,10.4c-6.8,5-14.5,8.7-22.6,11.1
		c-2.9,0.8-5.9,1.5-8.3,3.4s-4,5.2-2.8,8s4.7,3.9,7.7,3.6s5.8-1.8,8.6-2.6c5.4-1.6,12.2-0.8,15.3,4c2,3.1,1.9,7.3,0.6,10.8
		c-1.5,3.4-3.7,6.5-6.5,9.1c-9.1,9.3-20.5,16.6-33.1,20S-1741.1-4222.8-1753-4228.1"/>
	<g class="st10">
		<path class="st6" d="M-1753-4228.1c-18.9-15.2-21.6-41.3-19.3-64.4c0.4-3.9,0.2-8,2.3-11.2s6.5-5.3,9.9-3.4c2.8,1.5,3.8,5,5.2,7.8
			c1.9,3.8,4.8,7,8.5,9.3c2.4,1.4,5.4,2.4,7.9,1.3c3.5-1.6,4.2-6.2,4.4-10c0.4-7.2,0.9-14.3,1.3-21.5c0.2-3.8,0.5-7.8,1.9-11.3
			s4.3-6.8,8-7.5s8.1,1.6,8.6,5.5c0.2,1.6-0.2,3.2-0.2,4.8s0.6,3.4,2.1,4c1.5,0.6,3.1-0.4,4.3-1.5c4.2-3.6,7.3-8.4,10.1-13.2
			s5.6-9.7,9.5-13.7s9.1-7,14.6-6.9s11.1,3.9,12.2,9.4c1,5.5-2.5,10.8-6.3,14.9c-5.5,6.2-12,11.5-19,15.8c-1.3,0.8-2.6,1.6-3.2,3
			c-1,2.5,1.2,5.2,3.7,6.2c2.8,1.1,5.9,1.1,8.9,1.6s6.1,2.1,7.1,5c1.3,4-2.3,7.9-5.7,10.4c-6.8,5-14.5,8.7-22.6,11.1
			c-2.9,0.8-5.9,1.5-8.3,3.4s-4,5.2-2.8,8s4.7,3.9,7.7,3.6s5.8-1.8,8.6-2.6c5.4-1.6,12.2-0.8,15.3,4c2,3.1,1.9,7.3,0.6,10.8
			c-1.5,3.4-3.7,6.5-6.5,9.1c-9.1,9.3-20.5,16.6-33.1,20S-1741.1-4222.8-1753-4228.1"/>
	</g>
	<g transform="translate(18.505 3.711)">
		<path class="st4" d="M-1773-4214.6c1.8-10.7,4.6-21.1,8.4-31.2c4.7-12.3,10.1-24.4,16.2-36.1l4.7-9.2c1.6-3,3.1-6,4.8-8.9
			c3.3-5.5,6.8-10.7,10.7-15.8c3.6-4.9,7.3-9.3,10.7-13.5s6.7-8,9.8-11.3c4.9-5.3,10.3-10.2,16-14.7c2-1.6,3.6-2.8,4.7-3.5l1.3-0.9
			c-0.1-0.1,0-0.3,0.1-0.4s0.3,0,0.4,0.1c0.1,0.1,0,0.3-0.1,0.4c-0.1,0.1-0.2,0-0.3-0.1l-1.2,0.9c-1.1,0.8-2.6,2-4.6,3.6
			c-5.6,4.5-10.9,9.5-15.8,14.8c-3.1,3.4-6.3,7.2-9.8,11.4s-7,8.7-10.6,13.5c-3.8,5.1-7.4,10.3-10.6,15.8c-1.7,2.8-3.2,5.8-4.8,8.9
			s-3.1,6.1-4.7,9.2c-6.1,11.7-11.5,23.7-16.2,36c-3.8,10.1-6.7,20.5-8.6,31.1"/>
	</g>
	<g transform="translate(50.169 21.104)">
		<path class="st4" d="M-1770.2-4317.5c-0.1-0.5-0.2-1.1-0.3-1.7c-0.1-1.1-0.3-2.6-0.4-4.6c-0.3-3.9-0.5-9.2-0.7-15.1
			s-0.5-11.2-0.8-15.1c-0.2-1.9-0.3-3.5-0.4-4.6c-0.1-0.6-0.1-1.1-0.1-1.7c0.2,0.5,0.3,1.1,0.4,1.6c0.2,1.1,0.4,2.6,0.7,4.5
			c0.5,3.8,0.8,9.2,1,15.1c0.2,5.8,0.4,11.1,0.5,15.1c0.1,1.8,0.1,3.3,0.2,4.6C-1770.2-4318.6-1770.2-4318.1-1770.2-4317.5z"/>
	</g>
	<g transform="translate(52.899 57.646)">
		<path class="st4" d="M-1722.9-4359.9c-0.7,0.1-1.3,0.1-2,0.1c-1.3,0-3.1,0.1-5.4,0.2c-4.6,0.2-10.8,0.6-17.8,1.5
			c-6.9,0.8-13.1,1.9-17.6,2.7c-2.2,0.4-4.1,0.8-5.3,1.1c-0.6,0.2-1.3,0.3-2,0.3c0.6-0.3,1.2-0.5,1.9-0.6c1.2-0.3,3-0.8,5.3-1.3
			c4.5-1,10.7-2.1,17.6-2.9c5.9-0.7,11.9-1.1,17.8-1.3c2.3,0,4.1,0,5.4,0.1C-1724.3-4360.1-1723.6-4360-1722.9-4359.9z"/>
	</g>
	<g transform="translate(7.079 52.371)">
		<path class="st4" d="M-1752.4-4295.4c-0.1-0.2-0.2-0.4-0.3-0.6c-0.2-0.5-0.4-1.1-0.7-1.8c-0.6-1.6-1.5-4-2.5-6.9
			c-2-5.8-4.5-13.9-7.1-23s-5.1-17.1-6.9-23c-0.9-2.8-1.7-5.2-2.2-6.9c-0.2-0.8-0.4-1.4-0.6-1.9c-0.1-0.2-0.1-0.4-0.2-0.7
			c0.1,0.2,0.2,0.4,0.3,0.6c0.2,0.5,0.4,1.1,0.7,1.8c0.6,1.6,1.5,3.9,2.4,6.9c2,5.8,4.5,13.9,7.1,23s5.1,17.1,6.9,23
			c0.9,2.8,1.7,5.2,2.2,6.9c0.2,0.8,0.4,1.4,0.6,1.9C-1752.5-4295.8-1752.4-4295.6-1752.4-4295.4z"/>
	</g>
	<g transform="translate(27.622 100.494)">
		<path class="st4" d="M-1705.9-4360.2c-0.2,0.1-0.4,0.2-0.7,0.2c-0.5,0.1-1.2,0.3-1.9,0.5l-7.2,1.8c-6.1,1.5-14.4,3.7-23.6,6.1
			s-17.6,4.6-23.7,5.9c-3,0.7-5.5,1.2-7.2,1.6c-0.8,0.2-1.4,0.3-2,0.4c-0.2,0.1-0.5,0.1-0.7,0.1c0.2-0.1,0.4-0.2,0.7-0.2l1.9-0.5
			l7.2-1.8c6.1-1.5,14.4-3.7,23.6-6.1s17.6-4.6,23.7-5.9c3-0.7,5.5-1.2,7.2-1.6c0.8-0.2,1.4-0.3,2-0.4
			C-1706.4-4360.1-1706.1-4360.2-1705.9-4360.2z"/>
	</g>
</g>
<g transform="translate(1889.614 4379.727)">
	<g transform="translate(0 28.7)">
		<rect x="-1773" y="-4360.2" class="st0" width="263.9" height="361.6"/>
	</g>
	<g transform="translate(21.975 43.316)">
		<path class="st9" d="M-1541.5-4034.7H-1773v-325.5h231.5L-1541.5-4034.7L-1541.5-4034.7z"/>
	</g>
	<g transform="translate(20.404 39.012)">
		<path class="st7" d="M-1543.5-4036.4H-1773v-323.8h229.4L-1543.5-4036.4L-1543.5-4036.4z"/>
	</g>
	<g transform="translate(15.838 39.549)">
		<g transform="translate(0.283 0.284)">
			<path class="st3" d="M-1563.9-4062.4l-26.4,21.5H-1773v-319.3h231.5v279.6L-1563.9-4062.4z"/>
		</g>
		<path class="st4" d="M-1563.6-4062.1c0,0,0.5-0.4,1.4-1.2s2.4-1.9,4.2-3.5l16.8-13.6l0,0.1c0-45.9-0.1-148-0.2-279.6l0.3,0.3
			c-68.9,0-147,0-229.5,0h-2l0.3-0.3c0,120,0,230.8-0.1,319.3l-0.2-0.2l182.6,0.1l-0.1,0l19.8-16.1c2.2-1.8,3.9-3.1,5-4
			C-1564.2-4061.7-1563.6-4062.1-1563.6-4062.1c0,0-0.5,0.5-1.6,1.4l-4.9,4.1c-4.4,3.6-11,9-19.8,16.2l0,0h0
			c-35.2,0-99.3,0.1-182.6,0.1h-0.2v-0.2c0-88.5,0-199.2-0.1-319.3v-0.3h2.3l229.5,0h0.3v0.3c-0.1,131.6-0.1,233.6-0.2,279.6v0l0,0
			c-7.4,6-13,10.5-16.8,13.6l-4.3,3.4C-1563.1-4062.5-1563.6-4062.1-1563.6-4062.1z"/>
	</g>
	<g transform="translate(84.582 17.521)">
		<path class="st6" d="M-1758.2-4360.2h65.8c7.8,0,14.2,6.3,14.2,14.2c0,0,0,0,0,0v18.3l0,0h-94.7l0,0v-17.7
			C-1773-4353.6-1766.4-4360.2-1758.2-4360.2C-1758.2-4360.2-1758.2-4360.2-1758.2-4360.2z"/>
	</g>
	<g transform="translate(104.324 0)">
		<path class="st6" d="M-1769.5-4342.6l-3.5-17.5h54.6l-3,17.5H-1769.5z"/>
	</g>
	<g transform="translate(40.334 90.699)">
		<path class="st6" d="M-1734-4321.2h-39v-39h39V-4321.2z M-1771.9-4322.2h36.8v-36.8h-36.8V-4322.2z"/>
		<g transform="translate(55.557 9.135)">
			<path class="st4" d="M-1651.7-4359.9c0,0.2-27.1,0.3-60.6,0.3s-60.6-0.1-60.6-0.3s27.1-0.3,60.6-0.3S-1651.7-4360-1651.7-4359.9z
				"/>
		</g>
		<g transform="translate(55.557 17.241)">
			<path class="st4" d="M-1651.7-4359.9c0,0.2-27.1,0.3-60.6,0.3s-60.6-0.1-60.6-0.3s27.1-0.3,60.6-0.3S-1651.7-4360-1651.7-4359.9z
				"/>
		</g>
		<g transform="translate(55.557 25.345)">
			<path class="st4" d="M-1651.7-4359.9c0,0.2-27.1,0.3-60.6,0.3s-60.6-0.1-60.6-0.3s27.1-0.3,60.6-0.3S-1651.7-4360-1651.7-4359.9z
				"/>
		</g>
		<g transform="translate(55.557 33.449)">
			<path class="st4" d="M-1651.7-4359.9c0,0.2-27.1,0.3-60.6,0.3s-60.6-0.1-60.6-0.3s27.1-0.3,60.6-0.3S-1651.7-4360-1651.7-4359.9z
				"/>
		</g>
	</g>
	<g transform="translate(40.334 150.807)">
		<path class="st6" d="M-1734-4321.2h-39v-39h39V-4321.2z M-1771.9-4322.3h36.8v-36.8h-36.8L-1771.9-4322.3z"/>
		<g transform="translate(7.756 2.47)">
			<path class="st6" d="M-1773-4342.3l5.2-5.6l8.6,6.9l19.8-19.2l4.7,5.6l-24.9,24.5L-1773-4342.3z"/>
		</g>
		<g transform="translate(55.557 9.135)">
			<path class="st4" d="M-1651.7-4359.9c0,0.2-27.1,0.3-60.6,0.3s-60.6-0.1-60.6-0.3s27.1-0.3,60.6-0.3S-1651.7-4360-1651.7-4359.9z
				"/>
		</g>
		<g transform="translate(55.557 17.24)">
			<path class="st4" d="M-1651.7-4359.9c0,0.2-27.1,0.3-60.6,0.3s-60.6-0.1-60.6-0.3s27.1-0.3,60.6-0.3S-1651.7-4360-1651.7-4359.9z
				"/>
		</g>
		<g transform="translate(55.557 25.344)">
			<path class="st4" d="M-1651.7-4359.9c0,0.2-27.1,0.3-60.6,0.3s-60.6-0.1-60.6-0.3s27.1-0.3,60.6-0.3S-1651.7-4360-1651.7-4359.9z
				"/>
		</g>
		<g transform="translate(55.557 33.449)">
			<path class="st4" d="M-1651.7-4359.9c0,0.2-27.1,0.3-60.6,0.3s-60.6-0.1-60.6-0.3s27.1-0.3,60.6-0.3S-1651.7-4360-1651.7-4359.9z
				"/>
		</g>
	</g>
	<g transform="translate(40.334 208.973)">
		<path class="st6" d="M-1734-4321.2h-39v-39h39V-4321.2z M-1771.9-4322.3h36.8v-36.8h-36.8L-1771.9-4322.3z"/>
		<g transform="translate(7.756 2.47)">
			<path class="st6" d="M-1773-4342.3l5.2-5.6l8.6,6.9l19.8-19.2l4.7,5.6l-24.9,24.5L-1773-4342.3z"/>
		</g>
		<g transform="translate(55.557 9.136)">
			<path class="st4" d="M-1651.7-4359.9c0,0.2-27.1,0.3-60.6,0.3s-60.6-0.1-60.6-0.3s27.1-0.3,60.6-0.3S-1651.7-4360-1651.7-4359.9z
				"/>
		</g>
		<g transform="translate(55.557 17.24)">
			<path class="st4" d="M-1651.7-4359.9c0,0.2-27.1,0.3-60.6,0.3s-60.6-0.1-60.6-0.3s27.1-0.3,60.6-0.3S-1651.7-4360-1651.7-4359.9z
				"/>
		</g>
		<g transform="translate(55.557 25.345)">
			<path class="st4" d="M-1651.7-4359.9c0,0.2-27.1,0.3-60.6,0.3s-60.6-0.1-60.6-0.3s27.1-0.3,60.6-0.3S-1651.7-4360-1651.7-4359.9z
				"/>
		</g>
		<g transform="translate(55.557 33.45)">
			<path class="st4" d="M-1651.7-4359.9c0,0.2-27.1,0.3-60.6,0.3s-60.6-0.1-60.6-0.3s27.1-0.3,60.6-0.3S-1651.7-4360-1651.7-4359.9z
				"/>
		</g>
	</g>
	<g transform="translate(40.334 265.134)">
		<path class="st6" d="M-1734-4321.2h-39v-39h39V-4321.2z M-1771.9-4322.3h36.8v-36.8h-36.8L-1771.9-4322.3z"/>
		<g transform="translate(7.756 2.47)">
			<path class="st6" d="M-1773-4342.3l5.2-5.6l8.6,6.9l19.8-19.2l4.7,5.6l-24.9,24.5L-1773-4342.3z"/>
		</g>
		<g transform="translate(55.557 9.135)">
			<path class="st4" d="M-1651.7-4359.9c0,0.2-27.1,0.3-60.6,0.3s-60.6-0.1-60.6-0.3s27.1-0.3,60.6-0.3S-1651.7-4360-1651.7-4359.9z
				"/>
		</g>
		<g transform="translate(55.557 17.239)">
			<path class="st4" d="M-1651.7-4359.9c0,0.2-27.1,0.3-60.6,0.3s-60.6-0.1-60.6-0.3s27.1-0.3,60.6-0.3S-1651.7-4360-1651.7-4359.9z
				"/>
		</g>
		<g transform="translate(55.557 25.345)">
			<path class="st4" d="M-1651.7-4359.9c0,0.2-27.1,0.3-60.6,0.3s-60.6-0.1-60.6-0.3s27.1-0.3,60.6-0.3S-1651.7-4360-1651.7-4359.9z
				"/>
		</g>
		<g transform="translate(55.557 33.449)">
			<path class="st4" d="M-1651.7-4359.9c0,0.2-27.1,0.3-60.6,0.3s-60.6-0.1-60.6-0.3s27.1-0.3,60.6-0.3S-1651.7-4360-1651.7-4359.9z
				"/>
		</g>
	</g>
	<g transform="translate(180.625 306.247)">
		<path class="st9" d="M-1747.6-4360.2l-25.4,52.6h18.1L-1747.6-4360.2z"/>
	</g>
	<g transform="translate(198.746 306.195)">
		<g transform="translate(0.001 0.348)">
			<path class="st3" d="M-1773-4307.6l7.3-52.6l41.6,12.8L-1773-4307.6z"/>
		</g>
		<path class="st4" d="M-1773-4307.3c1-0.8,5.5-4.5,14-11.5l34.7-28.4l0.1,0.5c-5.2-1.6-10.5-3.3-16.1-5c-9-2.8-17.6-5.5-25.5-7.9
			l0.3-0.2c-2.2,15.3-4,28.3-5.4,37.6C-1772.1-4313.1-1772.8-4308.4-1773-4307.3c0-0.1,0-0.2,0-0.2l0.1-0.7c0.1-0.7,0.2-1.6,0.4-2.9
			c0.3-2.6,0.8-6.2,1.4-10.8c1.3-9.4,3-22.6,5.1-37.9l0-0.3l0.3,0.1c7.9,2.4,16.5,5.1,25.6,7.9c5.5,1.7,10.9,3.4,16.1,5l0.5,0.2
			l-0.4,0.3l-35.1,28.3l-10.3,8.2l-2.7,2.2c-0.3,0.2-0.5,0.4-0.7,0.6C-1772.8-4307.4-1772.9-4307.3-1773-4307.3z"/>
	</g>
	<g transform="translate(152.101 0)" class="st11">
		<path class="st6" d="M-1770-4360.2l-3,17.5h3.7l3-17.5h-4.8"/>
	</g>
</g>
<g transform="translate(26.642 8.746)">
	<g transform="translate(16.847 14.441)">
		<path class="st12" d="M68.5,181.2L68.5,181.2c5.4,0.4,10.1-3.6,10.5-9c0-0.1,0-0.2,0-0.4c0.2-5.3,0.4-10.7,0.4-10.7
			s8.1-0.8,8.7-8.7s0.3-26.4,0.3-26.4l0,0c-9-4.5-19.8-3.9-28.1,1.8l0.5,28.1v15.1C60.8,176,63.4,180.8,68.5,181.2z"/>
	</g>
	<g transform="translate(12.696 7.74)">
		<path class="st4" d="M84.2,149.3c-1.2-1.8-3.6-2.3-5.5-1.2c-1.9,1.3-2.5,3.8-1.5,5.8c0.8,1.5,2.3,2.6,3.9,3
			c1.5,0.3,2.6,1.8,2.4,3.3c-0.3,2.1-1.3,4-2.8,5.6c-2.5,2.5-5.7,4.1-9.3,4.4c-3.4,0.4-7.3-0.3-9.3-3.1c-1.4-2-1.5-4.7-1.6-7.2
			c-0.1-5.9-0.2-11.8-0.4-17.7c-0.1-2.1,0-4.3,0.4-6.3c0.4-2.1,1.6-4,3.3-5.2c1.9-1.3,4.4-1.4,6.6-2.1c2.8-0.9,5.1-2.7,7.7-4.1
			s5.8-2.1,8.4-0.8c1.9,0.9,3.1,2.8,4.9,3.8c2.6,1.5,6.1,1.1,7.4,4.9c0.4,1.3,0.4,2.7,0,4.1c-1.8,5.2-8.2,7.3-12.8,5
			c-0.1,0.9,0.8,2.8-0.2,5.6C85.7,147.9,85.6,149.2,84.2,149.3"/>
	</g>
	<g transform="translate(1.08)">
		<path class="st4" d="M73.8,140.6c1.3-2.5,2.1-5.2,2.6-8c0.4-2.8-0.5-5.7-2.5-7.8c-1.5-1.3-3.3-1.9-5.3-1.9c-3.8,0.2-7,2.8-8,6.4
			c-0.9,3.6,0.3,7.5,3.2,9.8c3,2.3,6.9,2.8,10.4,1.3"/>
	</g>
	<g transform="translate(12.435 14.738)">
		<path class="st6" d="M64,122.9c-0.1,2-1.8,3.6-3.8,3.7c0-0.2,1.2-0.5,2.2-1.5C63.5,124.1,63.9,122.9,64,122.9z"/>
	</g>
	<g transform="translate(4.496 9.425)">
		<path class="st4" d="M69.3,130.2c-0.6,0.7-1.4,1.2-2.2,1.6c-0.9,0.5-1.9,0.8-2.9,0.8c-1.3,0.1-2.5-0.5-3.3-1.5
			c-0.7-1.1-0.9-2.4-0.6-3.6c0.3-1,0.7-1.9,1.3-2.6c0.5-0.7,1.2-1.4,1.9-1.9c-0.5,0.7-1,1.5-1.6,2.1c-0.5,0.8-0.9,1.6-1.2,2.5
			c-0.3,1.1-0.1,2.2,0.5,3.2c0.7,0.9,1.8,1.4,2.9,1.3c0.9,0,1.8-0.2,2.7-0.6C68.4,130.7,69.3,130.1,69.3,130.2z"/>
	</g>
	<g transform="translate(0 17.63)">
		<path class="st4" d="M60.2,131c0.2,0.3,0.3,0.6,0.4,0.9c0.3,0.8,0.7,1.6,1.2,2.3c0.7,1,1.9,1.6,3.1,1.4c1.5-0.4,2.6-1.6,3-3
			c0.4-1.5,0.7-3.1,0.8-4.6c0.2-1.3,0.7-2.6,1.5-3.7c0.6-0.7,1.4-1.2,2.3-1.3c0.3-0.1,0.7-0.1,1,0.1c0,0.1-0.4,0-0.9,0.1
			c-0.8,0.2-1.5,0.7-2.1,1.4c-0.7,1-1.2,2.2-1.3,3.5c-0.1,1.6-0.4,3.2-0.8,4.7c-0.5,1.7-1.8,3-3.5,3.4c-0.7,0.1-1.5,0-2.2-0.4
			c-0.5-0.3-1-0.8-1.4-1.3c-0.5-0.7-0.9-1.6-1.1-2.4C60.3,131.6,60.3,131.3,60.2,131z"/>
	</g>
</g>
<g transform="translate(20.915 101.603)">
	<path class="st12" d="M62,122.9c0,0-4.1,29.8,0,33.6s8,2.5,8,2.5l7.8-6.5l1.5-29.7H62z"/>
</g>
<g transform="translate(87.211 0)">
	<g transform="translate(19.806)">
		<path class="st6" d="M60.2,140.7l5.2-5.6l8.6,6.9l19.8-19.2l4.7,5.6L73.7,153L60.2,140.7z"/>
	</g>
	<g transform="translate(0 19.348)">
		<path class="st12" d="M104.4,122.9l-7.5,4.8c-0.3-3-2.6-5.9-2.5-4.4s0,9.2,0,9.2L81,160.7c-1.8,4.5-5.5,7.3-8.3,7.9l-12.5,3.7
			l4.9,16.5l17.4-5.8c4.5-1.5,8-5,9.5-9.5l12-36.5c0.8-2.4,1.4-4.8,1.9-7.2C106.4,126.9,104.4,122.9,104.4,122.9z"/>
	</g>
</g>
<g transform="translate(53.902 319.161)">
	<g transform="translate(0.083)">
		<path class="st6" d="M76.1,131.3l-0.2-8.4l-15.7,0.3l0.1,12.2l1,0c4.3,0.2,22,0.6,24.9-0.4C89.4,134,76.1,131.3,76.1,131.3z"/>
		<g transform="translate(0.089 7.855)" class="st13">
			<path class="st5" d="M66,127.3c-0.3-1.3-1-2.5-2.1-3.3c-1-0.8-2.4-1.2-3.7-1.1l0.1,4.4L66,127.3z"/>
		</g>
	</g>
	<g transform="translate(0.226 9.947)" class="st1">
		<path class="st5" d="M82.5,122.9c0,0,4.7,1.3,4.1,2s-18.4,1.1-26.3,0.5l0-0.4l20.8-0.1C81.1,124.9,81.5,122.9,82.5,122.9z"/>
	</g>
	<g transform="translate(0 11.725)">
		<path class="st4" d="M60.2,123.3c0.1,0,0.2,0,0.3,0c0.2,0,0.5,0,0.8,0l2.8,0.1c2.4,0,5.7,0.1,9.4,0s7-0.2,9.4-0.3l2.8-0.2l0.8-0.1
			c0.1,0,0.2,0,0.3,0c-0.1,0-0.2,0-0.3,0l-0.8,0l-2.8,0.1c-2.4,0.1-5.7,0.2-9.4,0.2s-7,0-9.4,0l-2.8,0h-0.8
			C60.4,123.3,60.3,123.3,60.2,123.3z"/>
	</g>
	<g transform="translate(21.064 9.752)">
		<path class="st4" d="M60.3,125.4c0.2-1,0.7-1.8,1.5-2.5C60.8,123.3,60.2,124.3,60.3,125.4z"/>
	</g>
	<g transform="translate(16.431 8.638)">
		<path class="st4" d="M60.2,124.2c0,0,0.3-0.2,0.5-0.6s0.4-0.7,0.3-0.7s-0.3,0.2-0.5,0.6S60.2,124.2,60.2,124.2z"/>
	</g>
	<g transform="translate(15.158 8.406)">
		<path class="st4" d="M60.2,123.8c0,0,0.3-0.1,0.5-0.4s0.5-0.5,0.4-0.5s-0.3,0.1-0.5,0.4S60.2,123.8,60.2,123.8z"/>
	</g>
	<g transform="translate(14.338 7.741)">
		<path class="st4" d="M60.2,123c0.5,0.1,1.1,0.1,1.6,0c-0.3-0.1-0.5-0.1-0.8-0.1C60.8,122.9,60.5,122.9,60.2,123z"/>
	</g>
	<g transform="translate(14.047 6.785)">
		<path class="st4" d="M60.2,122.9c0.6,0.3,1.2,0.3,1.9,0.1C61.5,123,60.8,123,60.2,122.9z"/>
	</g>
	<g transform="translate(16.95 7.143)">
		<path class="st4" d="M60.2,124.3c0.3,0.1,0.7,0,1,0c0.4,0,0.7-0.1,1.1-0.3c0.2-0.1,0.4-0.2,0.6-0.3c0.1-0.1,0.2-0.2,0.2-0.3
			c0-0.2,0-0.3-0.2-0.4c-0.8-0.4-1.7-0.1-2.3,0.6c-0.2,0.2-0.3,0.4-0.3,0.7c0,0.2,0,0.3,0,0.3c0.1-0.3,0.2-0.6,0.4-0.9
			c0.2-0.3,0.5-0.5,0.9-0.6c0.4-0.1,0.8-0.1,1.2,0.1c0.2,0.1,0.1,0.3-0.1,0.4c-0.2,0.1-0.4,0.2-0.6,0.2c-0.3,0.1-0.7,0.2-1,0.3
			C60.6,124.3,60.2,124.3,60.2,124.3z"/>
	</g>
	<g transform="translate(15.874 6.694)">
		<path class="st4" d="M61.6,124.8c0.1-0.2,0.2-0.5,0.1-0.7c0-0.3-0.1-0.5-0.3-0.7c-0.2-0.3-0.5-0.5-0.8-0.5c-0.2,0-0.3,0.3-0.3,0.5
			c0,0.2,0.1,0.3,0.2,0.4c0.1,0.2,0.3,0.4,0.5,0.6C61.1,124.6,61.3,124.7,61.6,124.8c-0.1,0-0.3-0.2-0.6-0.5
			c-0.2-0.2-0.3-0.4-0.4-0.6c-0.1-0.2-0.2-0.6,0-0.6c0.3,0,0.5,0.2,0.7,0.4c0.1,0.2,0.2,0.4,0.3,0.6
			C61.6,124.4,61.6,124.6,61.6,124.8z"/>
	</g>
	<g transform="translate(0.254 7.715)">
		<path class="st4" d="M60.2,123c0,0,0.4,0,1.2,0c1.9,0.2,3.5,1.4,4.2,3.2c0.2,0.7,0.3,1.1,0.3,1.1c0-0.1,0-0.2,0-0.3
			c0-0.3-0.1-0.6-0.2-0.8c-0.6-1.9-2.3-3.2-4.3-3.3c-0.3,0-0.6,0-0.9,0C60.4,122.9,60.3,123,60.2,123z"/>
	</g>
	<g transform="translate(1.69 1.294)">
		<path class="st4" d="M60.3,122.9c-0.1,2.1-0.1,4.3,0,6.4C60.5,127.2,60.4,125,60.3,122.9z"/>
	</g>
	<g transform="translate(7.846 10.661)">
		<path class="st4" d="M60.2,122.9c1.5,0.3,3.1,0.3,4.6,0c0-0.1-1,0-2.3,0S60.2,122.9,60.2,122.9z"/>
	</g>
	<g transform="translate(4.772 10.743)">
		<path class="st4" d="M60.2,122.9c0,0,0.1,0.2,0.2,0.4s0.2,0.4,0.2,0.4s0.1-0.2-0.1-0.5S60.3,122.9,60.2,122.9z"/>
	</g>
	<g transform="translate(3.593 9.321)">
		<path class="st4" d="M60.2,122.9c0,0,0.1,0.2,0.2,0.4s0.3,0.3,0.4,0.2s-0.1-0.2-0.2-0.4S60.3,122.9,60.2,122.9z"/>
	</g>
	<g transform="translate(1.934 8.603)">
		<path class="st4" d="M60.2,123c0,0.1,0.2,0,0.5,0.1s0.4,0.2,0.4,0.2s-0.1-0.2-0.4-0.3S60.2,122.9,60.2,123z"/>
	</g>
	<g transform="translate(0.751 8.367)">
		<path class="st4" d="M60.2,122.9c0,0,0.1,0.1,0.2,0.2s0.3,0,0.3,0s-0.1-0.1-0.2-0.2S60.3,122.9,60.2,122.9z"/>
	</g>
</g>
<g transform="translate(0 308.369)">
	<path class="st6" d="M74.8,139.4l5.3-6.5l-12-10l-7.9,9.4l0.7,0.7c3.2,2.9,16.3,14.8,19.1,15.9C83.1,150.2,74.8,139.4,74.8,139.4z"
		/>
	<g transform="translate(0.156 5.842)" class="st13">
		<path class="st5" d="M64.5,130c0.7-1.2,0.9-2.5,0.6-3.8c-0.3-1.3-1-2.4-2.1-3.2l-2.8,3.4L64.5,130z"/>
	</g>
	<g transform="translate(0 9.11)" class="st1">
		<path class="st5" d="M78.7,135.7c0,0,2.7,4,1.8,4.2s-14.7-11.2-20.3-16.8l0.2-0.3l15.9,13.5C76.4,136.4,78,135.2,78.7,135.7z"/>
	</g>
	<g transform="translate(0.061 8.945)">
		<path class="st4" d="M60.2,122.9c0.1,0.1,0.1,0.1,0.2,0.2c0.2,0.2,0.4,0.3,0.6,0.5l2.1,1.9c1.8,1.6,4.3,3.8,7.1,6.1
			s5.4,4.4,7.3,5.9c0.9,0.7,1.6,1.3,2.3,1.7l0.6,0.5c0.1,0.1,0.1,0.1,0.2,0.1c-0.1-0.1-0.1-0.1-0.2-0.2l-0.6-0.5l-2.2-1.8
			c-1.9-1.5-4.5-3.6-7.3-5.9s-5.3-4.5-7.1-6.1c-0.8-0.7-1.6-1.4-2.1-1.9l-0.6-0.5C60.4,123,60.3,122.9,60.2,122.9z"/>
	</g>
	<g transform="translate(15.979 21.754)">
		<path class="st4" d="M60.2,123.9C61,123.3,62,123,63,123C61.9,122.7,60.9,123.1,60.2,123.9z"/>
	</g>
	<g transform="translate(13.936 17.537)">
		<path class="st4" d="M60.2,123.4c0.3,0,0.5,0,0.8-0.1c0.4-0.1,0.7-0.3,0.7-0.3c-0.3,0-0.5,0-0.8,0.1
			C60.5,123.2,60.2,123.3,60.2,123.4z"/>
	</g>
	<g transform="translate(13.391 16.577)">
		<path class="st4" d="M60.2,123c0,0.1,0.3,0.1,0.7,0.1s0.7-0.1,0.7-0.1s-0.3-0.1-0.7-0.1S60.2,123,60.2,123z"/>
	</g>
	<g transform="translate(13.72 15.045)">
		<path class="st4" d="M60.2,122.9c0,0,0.2,0.3,0.6,0.6s0.6,0.5,0.7,0.5s-0.2-0.3-0.6-0.6S60.3,122.9,60.2,122.9z"/>
	</g>
	<g transform="translate(14.173 14.073)">
		<path class="st4" d="M60.2,122.9c0.2,0.6,0.7,1.1,1.3,1.3c0,0-0.3-0.3-0.7-0.6S60.3,122.9,60.2,122.9z"/>
	</g>
	<g transform="translate(15.159 17.079)">
		<path class="st4" d="M60.3,123.1c0.2,0.3,0.5,0.5,0.8,0.6c0.3,0.2,0.6,0.4,1,0.5c0.2,0.1,0.4,0.2,0.6,0.2c0.1,0,0.3,0,0.4-0.1
			c0.1-0.1,0.2-0.3,0.1-0.4c-0.4-0.8-1.2-1.2-2.1-1c-0.2,0.1-0.5,0.2-0.7,0.3c-0.1,0.1-0.2,0.2-0.2,0.2c0.3-0.2,0.6-0.3,0.9-0.4
			c0.3-0.1,0.7,0,1,0.1c0.4,0.1,0.7,0.4,0.9,0.8c0,0.2-0.1,0.3-0.3,0.3c-0.2,0-0.4-0.1-0.6-0.2c-0.3-0.1-0.7-0.3-1-0.5
			C60.6,123.3,60.3,123.1,60.3,123.1z"/>
	</g>
	<g transform="translate(15.137 15.338)">
		<path class="st4" d="M60.5,125.1c0,0,0.3-0.1,0.5-0.5c0.1-0.2,0.2-0.5,0.3-0.7c0.1-0.3-0.1-0.7-0.3-0.9c-0.2-0.1-0.4,0-0.5,0.2
			c-0.1,0.1-0.1,0.3-0.2,0.5c0,0.3,0,0.5,0,0.8C60.2,124.6,60.3,124.8,60.5,125.1c0-0.1-0.1-0.3-0.1-0.8c0-0.2,0-0.5,0.1-0.7
			c0-0.2,0.2-0.6,0.4-0.5c0.2,0.2,0.3,0.5,0.2,0.8c0,0.2-0.1,0.5-0.2,0.7C60.8,124.7,60.6,124.9,60.5,125.1z"/>
	</g>
	<g transform="translate(3.049 5.859)">
		<path class="st4" d="M60.2,122.9c0,0,0.4,0.3,0.9,0.8c1.3,1.4,1.7,3.4,1.1,5.1c-0.2,0.7-0.5,1-0.5,1c0,0,0.1-0.1,0.2-0.2
			c0.2-0.2,0.3-0.5,0.4-0.8c0.8-1.8,0.3-3.9-1.1-5.3c-0.2-0.2-0.4-0.4-0.7-0.5C60.4,123,60.3,122.9,60.2,122.9z"/>
	</g>
	<g transform="translate(4.283 1.896)">
		<path class="st4" d="M64.4,122.9c-0.8,0.8-1.5,1.5-2.2,2.4c-0.7,0.8-1.4,1.6-2,2.5C61.7,126.2,63.1,124.6,64.4,122.9L64.4,122.9z"
			/>
	</g>
	<g transform="translate(6.93 12.989)">
		<path class="st4" d="M60.2,122.9c1,1.2,2.2,2.2,3.5,3c0,0-0.8-0.7-1.8-1.5S60.3,122.9,60.2,122.9z"/>
	</g>
	<g transform="translate(4.306 11.022)">
		<path class="st4" d="M60.5,122.9c-0.1,0-0.1,0.2-0.1,0.5s-0.2,0.4-0.1,0.5s0.2-0.1,0.3-0.4S60.6,122.9,60.5,122.9z"/>
	</g>
	<g transform="translate(4.545 9.176)">
		<path class="st4" d="M60.3,122.9c-0.1,0-0.1,0.2-0.1,0.4s0.1,0.4,0.1,0.4s0.1-0.2,0.1-0.4S60.3,122.9,60.3,122.9z"/>
	</g>
	<g transform="translate(3.758 7.599)">
		<path class="st4" d="M60.2,122.9c0,0,0.1,0.2,0.3,0.4s0.2,0.4,0.2,0.4s0.1-0.2-0.1-0.5S60.3,122.9,60.2,122.9z"/>
	</g>
	<g transform="translate(3.03 6.614)">
		<path class="st4" d="M60.3,122.9c0,0,0,0.1,0,0.3s0.2,0.2,0.2,0.2s0-0.1,0-0.3S60.3,122.9,60.3,122.9z"/>
	</g>
</g>
<g transform="translate(1.318 140.988)">
	<g transform="translate(0 8.014)">
		<path class="st4" d="M106.1,123.9c0,0-5.2,22.1-3.7,26.4s11,6.9,11,6.9l-0.3,60.4l-52.8,65.3l19.5,16c0,0,57.2-65.4,62.2-77.2
			s-3.2-98.6-3.2-98.6L106.1,123.9z"/>
	</g>
	<g transform="translate(28.696)">
		<path class="st4" d="M104.3,122.9l2.6,183.4l-26.9,0.1L66.6,157.1l0,0c-2.8-2.7-6.9-7.4-6.3-17.8l0.7-12.1L104.3,122.9z"/>
	</g>
	<g transform="translate(44.489 37.118)">
		<path class="st0" d="M60.2,198.7c0-0.1,0.1-0.2,0.2-0.3l0.5-0.8c0.5-0.7,1.2-1.6,2-2.8l7.3-10.1l0,0.1c-0.6-6.4-1.3-14.1-2.1-22.4
			c-1-10.9-1.8-20.8-2.2-28c-0.2-3.6-0.4-6.5-0.5-8.5c0-1-0.1-1.7-0.1-2.3c0-0.3,0-0.5,0-0.8c0.1,0.3,0.1,0.5,0.1,0.8
			c0,0.6,0.1,1.3,0.2,2.3c0.2,2.1,0.4,4.9,0.7,8.5c0.6,7.1,1.4,17,2.4,27.9c0.7,8.4,1.5,16.1,2,22.5l0,0.1l-0.1,0.1l-7.4,10
			l-2.1,2.8l-0.6,0.7C60.3,198.6,60.2,198.7,60.2,198.7z"/>
	</g>
	<g transform="translate(38.685 34.145)">
		<path class="st0" d="M74.3,125.9c-4.8-0.4-9.5-1.4-14.1-3C65,123.7,69.6,124.7,74.3,125.9z"/>
	</g>
	<g transform="translate(56.418 97.23)">
		<path class="st0" d="M74.9,125.4c-0.1,0.2-3.1-1.6-7.3-1.9c-4.2-0.4-7.4,0.9-7.5,0.7c0.6-0.4,1.4-0.7,2.1-0.8
			c3.6-0.9,7.3-0.6,10.7,0.8C73.7,124.5,74.4,124.9,74.9,125.4z"/>
	</g>
	<g transform="translate(46.405 108.234)">
		<path class="st0" d="M94.4,122.9c0.1,0.1-7.4,10.2-16.9,22.6s-17.2,22.4-17.3,22.3s7.4-10.2,16.9-22.7S94.3,122.8,94.4,122.9z"/>
	</g>
	<g transform="translate(63.441 12.197)">
		<path class="st0" d="M73.8,124.3c-0.3,0.8-0.8,1.5-1.5,2c-3.1,2.7-7.8,2.4-10.6-0.7c-0.1-0.2-0.3-0.3-0.4-0.5
			c-0.6-0.6-0.9-1.4-1.1-2.3c0.4,0.7,0.9,1.4,1.4,2c2.6,3.1,7.2,3.6,10.4,1.1C72.6,125.5,73.2,124.9,73.8,124.3z"/>
	</g>
</g>
<g transform="translate(34.289 27.576)">
	<path class="st4" d="M67.5,155.6c-9.2-8.7-9.8-23.2-1.3-32.7"/>
</g>
<g transform="translate(0 12.394)">
	<path class="st6" d="M86.7,187.9c0,0-5.8,6.6-7,31.8c0,0,16.6,3.2,16.9,2.2S86.7,187.9,86.7,187.9z"/>
</g>
<g transform="translate(0 12.394)" class="st11">
	<path class="st6" d="M86.7,187.9c0,0-5.8,6.6-7,31.8c0,0,16.6,3.2,16.9,2.2S86.7,187.9,86.7,187.9z"/>
</g>
<g transform="translate(5.22)">
	<g transform="translate(6.525 44.204)">
		<path class="st0" d="M79.7,187.9"/>
	</g>
	<path class="st6" d="M84.2,273.7h51l-0.8-8c0,0-5.8-30.3-5.8-30.7l0.9-1.9c2.4-5.1,2.5-10.9,0.2-16l0,0l25-8.5l-6.1-20.6
		c-11.3,1.9-28.5,4-28.5,4l-2.6,0.2c0,0-17.7,0.9-18.1,1c-7.4,0.9-16,1.5-19.2,9.4c-1.7,4.2-0.1,10.6,2.7,17.1l6.5,20.1
		c2.6,11.1-1.6,10.5-3.8,21.7C85.4,263.1,84.2,272.1,84.2,273.7z"/>
	<g class="st11">
		<path class="st6" d="M84.2,273.7h51l-0.8-8c0,0-5.8-30.3-5.8-30.7l0.9-1.9c2.4-5.1,2.5-10.9,0.2-16l0,0l25-8.5l-6.1-20.6
			c-11.3,1.9-28.5,4-28.5,4l-2.6,0.2c0,0-17.7,0.9-18.1,1c-7.4,0.9-16,1.5-19.2,9.4c-1.7,4.2-0.1,10.6,2.7,17.1l6.5,20.1
			c2.6,11.1-1.6,10.5-3.8,21.7C85.4,263.1,84.2,272.1,84.2,273.7z"/>
	</g>
</g>
<g transform="translate(51.36 20.942)">
	<path class="st4" d="M108.4,187.9c-0.3,0.2-0.7,0.4-1.1,0.5c-0.7,0.3-1.8,0.6-3.1,1.1c-2.6,0.9-6.2,2.1-10.2,3.3s-7.6,2.6-10.1,3.6
		c-1.3,0.5-2.3,1-3,1.3c-0.4,0.2-0.7,0.3-1.1,0.4c0.3-0.3,0.7-0.5,1-0.6c0.7-0.4,1.7-0.9,2.9-1.4c3.3-1.4,6.7-2.7,10.1-3.8
		c4-1.3,7.7-2.4,10.3-3.2c1.3-0.4,2.4-0.7,3.1-0.9C107.6,188,108,187.9,108.4,187.9z"/>
</g>
<g transform="translate(9.692 9.691)">
	<path class="st3" d="M147.1,188.1c0,0.2-15.1,0.3-33.7,0.3s-33.7-0.1-33.7-0.3s15.1-0.3,33.7-0.3S147.1,188,147.1,188.1z"/>
</g>
<g transform="translate(3.645 19.713)">
	<path class="st3" d="M154.7,188.1c0,0.2-16.8,0.3-37.5,0.3s-37.5-0.1-37.5-0.3s16.8-0.3,37.5-0.3S154.7,188,154.7,188.1z"/>
</g>
<g transform="translate(7.82 31.462)">
	<path class="st3" d="M128.7,188.1c0,0.2-11,0.3-24.5,0.3s-24.5-0.1-24.5-0.3s11-0.3,24.5-0.3S128.7,188,128.7,188.1z"/>
</g>
<g transform="translate(11.766 43.212)">
	<path class="st3" d="M123.7,188.1c0,0.2-9.9,0.3-22,0.3s-22-0.1-22-0.3s9.9-0.3,22-0.3S123.7,188,123.7,188.1z"/>
</g>
<g transform="translate(15.568 54.098)">
	<path class="st3" d="M119.6,188.1c0,0.2-8.9,0.3-19.9,0.3s-19.9-0.1-19.9-0.3s8.9-0.3,19.9-0.3S119.6,188,119.6,188.1z"/>
</g>
<g transform="translate(14.531 62.909)">
	<path class="st3" d="M122.4,188.1c0,0.2-9.6,0.3-21.3,0.3s-21.3-0.1-21.3-0.3s9.6-0.3,21.3-0.3S122.4,188,122.4,188.1z"/>
</g>
<g transform="translate(11.42 74.141)">
	<path class="st3" d="M128.2,188.1c0,0.2-10.9,0.3-24.3,0.3s-24.3-0.1-24.3-0.3s10.9-0.3,24.3-0.3S128.2,188,128.2,188.1z"/>
</g>
<g transform="translate(5.783 24.597)">
	<path class="st4" d="M88.7,214.2c-0.2-0.3-0.3-0.6-0.5-1c-0.3-0.8-0.7-1.7-1.1-2.8c-0.9-2.4-2.2-5.6-3.5-9.2s-2.4-6.9-3.1-9.4
		c-0.3-1.2-0.6-2.2-0.7-2.9c-0.1-0.4-0.2-0.7-0.2-1.1c0.5,1.3,0.9,2.6,1.3,3.9c0.8,2.4,1.9,5.7,3.2,9.3s2.5,6.9,3.3,9.3
		c0.4,1.2,0.7,2.2,0.9,2.9C88.6,213.5,88.7,213.8,88.7,214.2z"/>
</g>
<g transform="translate(2156.884 4423.039)">
	<path class="st5" d="M-1700.7-4325.7c0,18.9-15.3,34.3-34.3,34.3c-7.4,0-14.5-2.4-20.4-6.8l-16.8,4.3l7-15.6
		c-8.9-16.7-2.7-37.5,14-46.4c16.7-8.9,37.5-2.7,46.4,14C-1702.1-4336.9-1700.7-4331.4-1700.7-4325.7L-1700.7-4325.7z"/>
	<path class="st4" d="M-1700.7-4325.7c0,6.4-1.8,12.6-5.1,18c-0.8,1.3-1.7,2.6-2.7,3.9c-1,1.2-2.1,2.3-3.3,3.4
		c-0.6,0.5-1.1,1.1-1.8,1.6l-1.9,1.4c-0.6,0.5-1.3,0.9-2,1.3l-1,0.6c-0.3,0.2-0.7,0.4-1,0.5l-2.1,1l-2.2,0.8
		c-0.7,0.3-1.5,0.5-2.3,0.7c-0.8,0.2-1.5,0.5-2.3,0.6c-1.6,0.3-3.1,0.5-4.7,0.6c-1.6,0.1-3.2,0.1-4.8,0c-6.4-0.5-12.5-2.8-17.7-6.6
		l0.3,0.1l-16.8,4.4l-0.9,0.2l0.4-0.9l6.9-15.6v0.4c-2.5-4.6-3.9-9.8-4.1-15.1c-0.7-19.1,14.2-35,33.3-35.7s35,14.2,35.7,33.3
		C-1700.7-4326.4-1700.7-4326.1-1700.7-4325.7L-1700.7-4325.7z M-1700.7-4325.7c-0.1-10.5-4.9-20.5-13.3-26.9
		c-4.1-3.2-8.9-5.3-14-6.4c-5.1-1-10.3-0.9-15.3,0.4c-5,1.3-9.7,3.7-13.6,7c-3.9,3.4-7,7.5-9.1,12.2c-4.2,9.5-3.8,20.4,1.1,29.6
		l0.1,0.2l-0.1,0.2l-7,15.6l-0.5-0.6l16.8-4.2h0.2l0.1,0.1c5,3.8,11,6.1,17.3,6.7c1.6,0.1,3.1,0.2,4.7,0.1c1.6-0.1,3.1-0.2,4.7-0.5
		c0.8-0.1,1.5-0.4,2.3-0.5c0.8-0.2,1.5-0.4,2.3-0.7l2.2-0.8l2.1-1c0.4-0.2,0.7-0.3,1-0.5l1-0.6c0.7-0.4,1.4-0.8,2-1.2l1.9-1.4
		c0.6-0.5,1.2-1,1.8-1.5c1.2-1.1,2.3-2.2,3.3-3.4c1-1.2,1.9-2.5,2.7-3.9C-1702.6-4313.1-1700.8-4319.4-1700.7-4325.7z"/>
	<path class="st6" d="M-1738.7-4307.6l-12.8-12.9l4.3-4.2l7.4,7.5l15.5-24.3l5.1,3.2L-1738.7-4307.6z"/>
</g>
<path class="st14" d="M60.8,180.1c1.4,0,2.6,1.1,2.6,2.5v1.4c3.3,0.4,6.5,1.5,9.3,3.3c1.1,0.5,1.8,1.7,1.8,2.9
	c0,1.8-1.5,3.3-3.3,3.3h-0.1c-0.6,0-1.3-0.2-1.8-0.5c-1.9-1.2-4-2.1-6.2-2.6v11.5c9.1,2.3,13,5.9,13,12.3c0,6.6-5.1,11-12.8,11.7
	v3.6c0,1.4-1.1,2.6-2.5,2.6c0,0,0,0,0,0h0c-1.4,0-2.6-1.1-2.6-2.6l0,0v-3.7c-4.4-0.5-8.7-2.1-12.3-4.7c-1.6-0.9-2.1-2.9-1.2-4.5
	c0.9-1.6,2.9-2.1,4.5-1.2c0.1,0.1,0.2,0.1,0.3,0.2c2.6,2,5.6,3.4,8.9,4v-11.8c-8.8-2.3-12.8-5.6-12.8-12.3c0-6.4,5.1-10.9,12.6-11.5
	v-1.3C58.2,181.3,59.4,180.1,60.8,180.1L60.8,180.1z M58.4,200.6v-10.6c-3.8,0.4-5.8,2.4-5.8,5S53.8,199.1,58.4,200.6L58.4,200.6z
	 M63.2,208.9v10.9c3.8-0.4,5.9-2.3,5.9-5.2C69.1,212,67.8,210.3,63.2,208.9L63.2,208.9z"/>
<path class="st14" d="M314.2,254.3c1.4,0,2.6,1.1,2.6,2.5v1.4c3.3,0.4,6.5,1.5,9.3,3.3c1.1,0.5,1.8,1.7,1.8,2.9
	c0,1.8-1.5,3.3-3.3,3.3h-0.1c-0.6,0-1.3-0.2-1.8-0.5c-1.9-1.2-4-2.1-6.2-2.6V276c9.1,2.3,13,5.9,13,12.3c0,6.6-5.1,11-12.8,11.7v3.6
	c0,1.4-1.1,2.6-2.5,2.6c0,0,0,0,0,0h0c-1.4,0-2.6-1.1-2.6-2.6l0,0v-3.7c-4.4-0.5-8.7-2.1-12.3-4.7c-1.6-0.9-2.1-2.9-1.2-4.5
	c0.9-1.6,2.9-2.1,4.5-1.2c0.1,0.1,0.2,0.1,0.3,0.2c2.6,2,5.6,3.4,8.9,4V282c-8.8-2.3-12.8-5.6-12.8-12.3c0-6.4,5.1-10.9,12.6-11.5
	v-1.3C311.5,255.5,312.7,254.3,314.2,254.3L314.2,254.3z M311.8,274.8v-10.6c-3.8,0.4-5.8,2.4-5.8,5S307.2,273.3,311.8,274.8
	L311.8,274.8z M316.5,283.1V294c3.8-0.4,5.9-2.3,5.9-5.2C322.5,286.2,321.1,284.5,316.5,283.1L316.5,283.1z"/>
<g transform="translate(1972.657 4702.167)">
	<g transform="translate(22.012 0) rotate(20)">
		<g transform="translate(0 0)">
			<g transform="translate(0 0)">
				<g transform="translate(0)">
					<path class="st6" d="M-3093.3-3463.7c2.8,17.5-9.2,34-26.7,36.8s-34-9.2-36.8-26.7c-2.8-17.5,9.2-34,26.7-36.8
						C-3112.6-3493.2-3096.1-3481.3-3093.3-3463.7C-3093.3-3463.7-3093.3-3463.7-3093.3-3463.7z"/>
				</g>
			</g>
			<g transform="translate(0 0.405)" class="st10">
				<g transform="translate(0 0)">
					<path class="st5" d="M-3130.2-3490.8c-17.5,2.8-29.5,19.3-26.7,36.8c0,0,0,0,0,0c0,0,22.5-2.6,26.4-12.4
						C-3126.5-3476.2-3130.2-3490.8-3130.2-3490.8z"/>
				</g>
			</g>
			<g transform="translate(7.133 7.292)">
				<g transform="translate(0 0)">
					<path class="st15" d="M-3108.7-3470.2c2.1,13.3-7,25.9-20.3,28s-25.9-7-28-20.3c-2.1-13.3,7-25.9,20.3-28c0,0,0,0,0,0
						C-3123.3-3492.6-3110.8-3483.6-3108.7-3470.2C-3108.7-3470.2-3108.7-3470.2-3108.7-3470.2z"/>
				</g>
			</g>
			<g transform="translate(8.628 8.468)">
				<g transform="translate(0 0)">
					<path class="st16" d="M-3109.3-3470.5c2.1,13.2-6.9,25.5-20,27.6s-25.5-6.9-27.6-20c-2.1-13.2,6.9-25.5,20-27.6c0,0,0,0,0,0
						C-3123.8-3492.6-3111.4-3483.7-3109.3-3470.5C-3109.3-3470.5-3109.3-3470.5-3109.3-3470.5z"/>
				</g>
			</g>
			<g transform="translate(22.233 16.991)">
				<g transform="translate(1.157 0)">
					<g transform="translate(0)">
						<path class="st6" d="M-3147.3-3477.4l-1-6.1l0,0c1.1,0,2.3,0.1,3.4,0.3c0.6,0.2,1.1,0.4,1.7,0.7l0.1-0.2l0.6-2.3l0.1-0.5
							l-1.3-1l-0.5,0.3c-1.5-0.5-3.1-0.7-4.6-0.6l-0.5-3.4l-1.2-0.7l0.1,0.8l-1.4,0.2l0.5,3.4c-4.6,1.2-6.5,4.2-6,7.3
							c0.7,4.2,4.4,4.7,7.9,5l1,6c-2.2,0.2-4.4-0.3-6.4-1.3l-0.9,3.3c2.4,1.2,5.1,1.7,7.8,1.3l0.4,2.5l-1.2,0.2l1.3,0.6l2.5-0.4
							l-0.5-3.4c4.7-1.2,6.5-4.3,6-7.3C-3140-3476.7-3143.8-3477.2-3147.3-3477.4z M-3149.9-3477.7c-1.8-0.2-3.2-0.7-3.5-2.1
							c-0.2-1.3,0.5-2.6,2.6-3.2L-3149.9-3477.7z M-3145.9-3468.4l-0.8-5.3c1.9,0.2,3.3,0.7,3.6,2.2
							C-3142.9-3470.3-3143.7-3469.1-3145.9-3468.4L-3145.9-3468.4z"/>
					</g>
				</g>
				<g transform="translate(1.157 0)" class="st11">
					<g transform="translate(0)">
						<path class="st6" d="M-3147.3-3477.4l-1-6.1l0,0c1.1,0,2.3,0.1,3.4,0.3c0.6,0.2,1.1,0.4,1.7,0.7l0.1-0.2l0.6-2.3l0.1-0.5
							l-1.3-1l-0.5,0.3c-1.5-0.5-3.1-0.7-4.6-0.6l-0.5-3.4l-1.2-0.7l0.1,0.8l-1.4,0.2l0.5,3.4c-4.6,1.2-6.5,4.2-6,7.3
							c0.7,4.2,4.4,4.7,7.9,5l1,6c-2.2,0.2-4.4-0.3-6.4-1.3l-0.9,3.3c2.4,1.2,5.1,1.7,7.8,1.3l0.4,2.5l-1.2,0.2l1.3,0.6l2.5-0.4
							l-0.5-3.4c4.7-1.2,6.5-4.3,6-7.3C-3140-3476.7-3143.8-3477.2-3147.3-3477.4z M-3149.9-3477.7c-1.8-0.2-3.2-0.7-3.5-2.1
							c-0.2-1.3,0.5-2.6,2.6-3.2L-3149.9-3477.7z M-3145.9-3468.4l-0.8-5.3c1.9,0.2,3.3,0.7,3.6,2.2
							C-3142.9-3470.3-3143.7-3469.1-3145.9-3468.4L-3145.9-3468.4z"/>
					</g>
				</g>
				<g transform="translate(0 0.006)">
					<g transform="translate(0 0)">
						<path class="st6" d="M-3145.3-3465.8l0.5,3.4l-2.5,0.4l-0.5-3.4c-2.7,0.4-5.4-0.1-7.8-1.3l0.9-3.3c2,1,4.2,1.5,6.4,1.3l-1-6
							c-3.5-0.3-7.3-0.8-7.9-5c-0.5-3.1,1.3-6.1,6-7.3l-0.5-3.4l2.5-0.4l0.5,3.4c2.2-0.3,4.4,0,6.4,0.9l-0.8,3.2
							c-1.6-0.6-3.4-0.9-5.2-0.9l1,6.1c3.5,0.3,7.3,0.8,8,5C-3138.8-3470.1-3140.7-3467.1-3145.3-3465.8z M-3149.9-3478.3l-0.9-5.4
							c-2.1,0.7-2.8,1.9-2.6,3.2C-3153.1-3479-3151.7-3478.6-3149.9-3478.3z M-3143.2-3472.3c-0.2-1.5-1.7-2-3.6-2.2l0.9,5.3
							C-3143.7-3469.8-3142.9-3471-3143.2-3472.3z"/>
					</g>
				</g>
			</g>
			<g transform="translate(22.894 24.441)">
				<g transform="translate(0 0)">
					<path class="st5" d="M-3155.4-3484.9c-0.3-0.1-0.6-0.3-0.8-0.6c-0.6-0.6-0.9-1.4-1-2.2c-0.1-0.8,0.1-1.7,0.5-2.4
						c0.1-0.3,0.4-0.6,0.6-0.8c0,0-0.2,0.3-0.5,0.8c-0.3,0.7-0.5,1.5-0.4,2.3c0.1,0.8,0.4,1.5,0.9,2.1
						C-3155.7-3485.2-3155.4-3485-3155.4-3484.9z"/>
				</g>
			</g>
			<g transform="translate(28.344 18.238)">
				<g transform="translate(0 0)">
					<path class="st5" d="M-3156.9-3488.8c-0.2-0.3-0.3-0.6-0.3-1c-0.1-0.3-0.1-0.7,0-1c0.2,0.3,0.3,0.6,0.3,1
						C-3156.9-3489.5-3156.9-3489.2-3156.9-3488.8z"/>
				</g>
			</g>
		</g>
	</g>
	<g transform="translate(52.786 41.245)">
		<path class="st4" d="M-1755.8-4325c-0.8,0-1.5-0.7-1.5-1.5v-18.8c0-0.8,0.7-1.5,1.5-1.5h3.6l-8-9.5l-8,9.5h3.6
			c0.8,0,1.5,0.7,1.5,1.5v18.8c0,0.8-0.7,1.5-1.5,1.5s-1.5-0.7-1.5-1.5c0,0,0,0,0,0v-17.3h-5.4c-0.8,0-1.5-0.7-1.5-1.5
			c0-0.4,0.1-0.7,0.4-1l11.3-13.3c0.3-0.3,0.7-0.5,1.2-0.5l0,0c0.4,0,0.9,0.2,1.2,0.5l11.3,13.3c0.5,0.6,0.5,1.6-0.2,2.1
			c-0.3,0.2-0.6,0.4-1,0.4h-5.4v17.3C-1754.2-4325.7-1754.9-4325-1755.8-4325z"/>
	</g>
</g>
</svg>
