<svg xmlns="http://www.w3.org/2000/svg" xmlns:xlink="http://www.w3.org/1999/xlink" width="183.347" height="183.347" viewBox="0 0 183.347 183.347"><defs><style>.a{fill:#fff;}.b{fill:url(#a);}.c{fill:#eceef0;}.d{fill:none;stroke:#00223d;stroke-miterlimit:10;stroke-width:4px;}.e{fill:#12263f;}</style><radialGradient id="a" cx="0.076" cy="0.019" r="1.465" gradientTransform="translate(0.001)" gradientUnits="objectBoundingBox"><stop offset="0" stop-color="#f6f6f7"/><stop offset="0.477" stop-color="#f9f9fa"/><stop offset="0.715" stop-color="#fff"/></radialGradient></defs><g transform="translate(6070 10849)"><g transform="translate(-0.13 0.038)"><g transform="translate(-6069.87 -10849.038)"><path class="a" d="M377.97,2237.392a91.673,91.673,0,1,1-91.672-91.671A91.672,91.672,0,0,1,377.97,2237.392Z" transform="translate(-194.623 -2145.721)"/></g><path class="b" d="M376.482,2235.77a91.671,91.671,0,1,0-91.672,91.676A91.311,91.311,0,0,0,376.482,2235.77Z" transform="translate(-6263.005 -12993.137)"/><g transform="translate(-6053.629 -10797.57)"><path class="c" d="M358.381,2164.488a91.684,91.684,0,0,1-157.836,91.294,91.393,91.393,0,0,0,157.836-91.294Z" transform="translate(-200.545 -2164.488)"/></g></g><path class="d" d="M341.45,2222.48a69.974,69.974,0,1,0-69.974,69.974A69.714,69.714,0,0,0,341.45,2222.48Z" transform="translate(-6250.788 -12980.953)"/><g transform="translate(-6147.96 -11391.779)"><path class="e" d="M290.771,764.16c-2.035,0-3.684-.046-5.328.019a1.179,1.179,0,0,1-1.419-1.062c-.421-1.748-.942-3.472-1.494-5.466l24.031-2.3-8.149,26.157-6.783-2.258,3.712-8.3-.209-.184-21.992,17.4L262.22,773.443c-3.239,1.522-6.418,3-9.581,4.507-3.671,1.752-3.665,1.765-6.276-1.307-.566-.666-1.13-1.333-1.822-2.15l19.605-12.609,10.919,14.732Z" transform="translate(-87.318 -117.694)"/><path class="e" d="M249.229,637.744h-3.581V603.417H234.833V592.654H197.1v31.224h-3.637V588.85c.566-.026,1.044-.067,1.521-.068,13.687,0,27.375-.015,41.061.042a3.605,3.605,0,0,1,2.264.932c3.447,3.323,6.824,6.721,10.173,10.144a2.818,2.818,0,0,1,.792,1.754c.042,11.878.026,23.757.02,35.635A4.2,4.2,0,0,1,249.229,637.744Zm-6.776-38.212-3.822-4.1v4.1Z" transform="translate(-51.231)"/><path class="e" d="M150.893,746.191l2.55,2.34c.144.132.326.4.43.37,1.813-.48,2.351,1.177,3.252,2.043,3.591,3.456,7.077,7.022,10.6,10.549.236.237.446.5.741.832l-3.649,3.319c-.862-1-1.784-2.191-2.83-3.262-2.867-2.937-5.809-5.8-8.669-8.746-.689-.71-1.507-1.195-1.607-2.6-.07-.993-1.809-1.868-2.894-2.881a16.909,16.909,0,0,1-14.456,3.489,16.367,16.367,0,0,1-10.089-6.555,17,17,0,0,1,24.514-23.185C155.781,727.681,157.254,738.23,150.893,746.191Zm-12.866-24.44a13.279,13.279,0,1,0,13.239,13.3A13.342,13.342,0,0,0,138.027,721.751Z" transform="translate(0 -91.322)"/><path class="e" d="M262.217,657.205v3.545H224.859v-3.545Z" transform="translate(-73.412 -48.347)"/><path class="e" d="M224.7,689.522v-3.555h37.357v3.555Z" transform="translate(-73.297 -68.67)"/><path class="e" d="M140.942,855.835c-.14-.29-.166-.333-.181-.379-.907-2.751.286-4.19,2.734-5.54,6.491-3.582,12.8-7.493,19.183-11.271.334-.2.676-.381.989-.557l4.081,4.208Z" transform="translate(-13.777 -176.154)"/><path class="e" d="M245.24,628.363V631.9H224.8v-3.537Z" transform="translate(-73.369 -27.968)"/><path class="e" d="M224.464,719.2v-3.47h17.7v3.47Z" transform="translate(-73.133 -89.696)"/><path class="e" d="M346.342,743.214a15.068,15.068,0,0,1,1.686,1.7,13.331,13.331,0,0,1,.942,1.97c-1.1.291-1.844.525-2.154-.695-.049-.191-.789-.207-1.21-.3,0,.414-.171,1,.037,1.211.676.689,1.541,1.19,2.243,1.857,1.529,1.453,1.364,2.827-.357,4.067a4.906,4.906,0,0,0-.842,1.168c-1.482.156-3.213-1.764-3.2-3.886l1.287-.116a2.265,2.265,0,0,1,.3.249,13.6,13.6,0,0,0,1.069,1.331c.053.053.513-.3.785-.469a8.449,8.449,0,0,0-.936-1.466c-.467-.485-1.1-.8-1.607-1.256a2.416,2.416,0,0,1,.306-4.039c.331-.231.4-.831.728-1.076A2.016,2.016,0,0,1,346.342,743.214Z" transform="translate(-157.192 -109.119)"/><path class="e" d="M305.3,725.105a10.255,10.255,0,0,0-1.22-.853,4.936,4.936,0,0,0-1.1-.284c.051.378-.034.886.18,1.107.569.589,1.331.992,1.9,1.582a1.828,1.828,0,0,1-.214,3c-.275.23-.422.622-.709.826a2.155,2.155,0,0,1-.942.324c-.548-1.073-2.3-1.425-1.865-3.127.692-.244,1.243-.292,1.493.672.047.182.693.209,1.063.308-.026-.375.094-.886-.106-1.1-.491-.527-1.161-.881-1.7-1.37a1.969,1.969,0,0,1,.14-3.315c.239-.193.342-.58.595-.726.326-.189.973-.421,1.079-.295.7.833,1.3,1.756,1.928,2.651Z" transform="translate(-127.376 -93.999)"/><path class="e" d="M258.814,757.673a10.933,10.933,0,0,0-1.2-.759,5.633,5.633,0,0,0-.95-.234,2.921,2.921,0,0,0,.379.972c.357.388.886.617,1.245,1,.989,1.063.351,3.2-1.058,3.285-.517.03-1.14-.718-1.6-1.217-.214-.232-.153-.717-.216-1.088a5.954,5.954,0,0,1,1.039.169,6.2,6.2,0,0,1,.943.5,3.782,3.782,0,0,0-.406-1.164c-.29-.372-.892-.534-1.1-.926a2.413,2.413,0,0,1-.375-1.721c.263-.638,1.052-1.6,1.452-1.531C257.971,755.15,258.651,756.011,258.814,757.673Z" transform="translate(-95 -117.42)"/><path class="e" d="M433.8,723.37l1.147,1.7-.357.28-1.068-.721-.281.175a2.885,2.885,0,0,0,.418.79c1.718,1.649,1.725,1.642-.111,3.43l-1.458-1.744.327-.381,1.37.721C433.236,726.19,430.769,724.99,433.8,723.37Z" transform="translate(-219.833 -95.097)"/><path class="e" d="M393.972,697.845l.988.844.314-.149a2.69,2.69,0,0,0-.407-.88c-1.639-1.543-1.649-1.558.175-3.385l1.277,1.761-.359.308-1.434-.934c.193.591.2.916.37,1.087,1.7,1.731,1.706,1.724.015,3.572l-1.406-1.874Z" transform="translate(-192.572 -74.54)"/><path class="e" d="M170.205,743.447h-3.48a4.79,4.79,0,0,0-.505-1.784,2.77,2.77,0,0,0-1.735-1.011,1.978,1.978,0,0,0-1.592.915,2.1,2.1,0,0,0,.426,1.8,23.433,23.433,0,0,0,2.565,2.158,28.473,28.473,0,0,1,3.413,2.965c2.467,2.864,1.511,6.523-1.968,7.989-.706.3-.706.3-.991,2.533h-3.506l-.168-2.139c-3.411-1.189-4.268-3.328-3.887-6.527h3.55c.1.589.206,1.2.31,1.8a1.621,1.621,0,0,0,1.821,1.527,2.925,2.925,0,0,0,1.872-1.047c.613-.877-.013-1.693-.74-2.258-1.541-1.2-3.136-2.326-4.691-3.507a5.156,5.156,0,0,1-1.938-5.742,4.592,4.592,0,0,1,1.916-2.734c1.416-.735,2.364-1.406,1.778-3.236h3.707a4.393,4.393,0,0,1,.1,1.006c-.134.973.256,1.431,1.183,1.819C169.6,738.8,170.5,740.855,170.205,743.447Z" transform="translate(-26.661 -103.424)"/></g></g></svg>