<svg xmlns="http://www.w3.org/2000/svg" width="240.665" height="253.359" viewBox="0 0 240.665 253.359"><defs><style>.a{fill:#839eb6;}.b{fill:#aed3f2;}.c{opacity:0.1;}.d{fill:#fff;}.e{fill:#344154;}.f{fill:#d9a171;}.g{opacity:0.2;}.h{opacity:0.3;}.i{fill:none;stroke:#44555b;stroke-miterlimit:10;stroke-width:0.05px;opacity:0;}.j{fill:#ffbf9d;}.k{fill:#5e6178;}.l{fill:#fafafa;}.m{fill:#b78876;}.n{fill:#aa6550;}.o{opacity:0.4;}</style></defs><g transform="translate(1681.652 -2403.715)"><g transform="translate(-1681.651 2403.715)"><g transform="translate(207.276 107.775)"><path class="a" d="M-1301.444,2602.842c-2.724,0-4.621-2-4.621-5.224s1.9-5.224,4.621-5.224,4.646,2.03,4.646,5.224S-1298.721,2602.842-1301.444,2602.842Zm0-2.22c1.147,0,1.949-1,1.949-3s-.8-3-1.949-3c-1.176,0-1.95.975-1.95,3S-1302.62,2600.623-1301.444,2600.623Zm1.629,10.935h-3.178l-12.765-18.947h3.178Zm-14.314.217c-2.724,0-4.647-2.03-4.647-5.224s1.923-5.224,4.647-5.224c2.7,0,4.619,2.03,4.619,5.224S-1311.432,2611.774-1314.13,2611.774Zm0-2.219c1.148,0,1.949-.975,1.949-3s-.8-3-1.949-3c-1.175,0-1.949,1-1.949,3S-1315.3,2609.555-1314.13,2609.555Z" transform="translate(1318.777 -2592.395)"/></g><g transform="translate(0 33.964)"><path class="b" d="M-1645.282,2472.564a19.624,19.624,0,0,1-6.5,26.98,19.624,19.624,0,0,1-26.98-6.5,19.624,19.624,0,0,1,6.5-26.981A19.625,19.625,0,0,1-1645.282,2472.564Z" transform="translate(1681.652 -2463.175)"/><g class="c" transform="translate(0 2.885)"><path class="d" d="M-1672.262,2468.226a19.624,19.624,0,0,0-6.5,26.981s12.087-6.668,12.019-13.136S-1672.262,2468.226-1672.262,2468.226Z" transform="translate(1681.652 -2468.226)"/></g><g transform="translate(4.279 4.603)"><path class="a" d="M-1646.511,2478.372a14.918,14.918,0,0,1-4.944,20.511,14.918,14.918,0,0,1-20.511-4.945,14.919,14.919,0,0,1,4.945-20.511A14.918,14.918,0,0,1-1646.511,2478.372Z" transform="translate(1674.16 -2471.234)"/></g><g transform="translate(5.334 5.01)"><path class="b" d="M-1645.036,2478.988a14.718,14.718,0,0,1-4.878,20.236,14.718,14.718,0,0,1-20.235-4.878,14.718,14.718,0,0,1,4.878-20.236A14.718,14.718,0,0,1-1645.036,2478.988Z" transform="translate(1672.313 -2471.945)"/></g><g transform="translate(12.59 11.527)"><g transform="translate(0.808 0.002)"><path class="a" d="M-1651.7,2490.166l-1.964-3.212.015-.01a7.731,7.731,0,0,1,1.98-.6,6.329,6.329,0,0,1,1.108.015l-.018-.125-.211-1.46-.049-.335-.941-.251-.2.292a7.035,7.035,0,0,0-2.738.751l-1.081-1.767-.822-.107.271.443-.755.461,1.1,1.8c-2.337,1.757-2.649,3.894-1.656,5.517,1.353,2.212,3.6,1.628,5.627.977l1.947,3.183a7.163,7.163,0,0,1-3.923.737l.267,2.046a8.172,8.172,0,0,0,4.708-1.064l.816,1.334-.615.391.88.042,1.3-.8-1.09-1.783c2.343-1.782,2.68-3.913,1.687-5.537C-1647.408,2488.894-1649.674,2489.515-1651.7,2490.166Zm-1.51.464c-1.089.294-1.987.362-2.455-.4-.428-.7-.3-1.566.722-2.432Zm-.456-3.679Zm4.866,7.959-1.723-2.817c1.12-.314,2.044-.376,2.521.4C-1647.586,2493.181-1647.749,2494.023-1648.8,2494.909Z" transform="translate(1658.195 -2483.358)"/></g><path class="b" d="M-1649.156,2496.536l1.09,1.783-1.305.8-1.081-1.767a8.167,8.167,0,0,1-4.708,1.063l-.267-2.045a7.158,7.158,0,0,0,3.924-.737l-1.947-3.184c-2.03.651-4.275,1.236-5.628-.976-.993-1.624-.681-3.761,1.656-5.518l-1.1-1.8,1.305-.8,1.08,1.767a7.993,7.993,0,0,1,3.826-1.005l.33,2.006a7.738,7.738,0,0,0-3.1.718l1.967,3.216c2.03-.651,4.3-1.271,5.65.941C-1646.475,2492.623-1646.812,2494.753-1649.156,2496.536Zm-5.472-6.015-1.732-2.834c-1.023.866-1.15,1.731-.722,2.432C-1656.615,2490.884-1655.716,2490.815-1654.628,2490.521Zm5.21,1.867c-.477-.781-1.4-.718-2.522-.4l1.723,2.818C-1649.162,2493.916-1649,2493.072-1649.418,2492.388Z" transform="translate(1659.61 -2483.355)"/></g><g transform="translate(0.826 22.195)"><path class="d" d="M-1670.859,2516.038a.835.835,0,0,1-.157-.082l-.436-.26a7.974,7.974,0,0,1-.674-.438c-.255-.182-.556-.376-.859-.628l-.485-.385c-.167-.135-.33-.29-.5-.443-.354-.3-.7-.659-1.066-1.029a21.193,21.193,0,0,1-2.123-2.648,21.178,21.178,0,0,1-1.631-2.977c-.2-.483-.4-.938-.54-1.381-.074-.22-.155-.429-.216-.636l-.17-.6c-.117-.378-.181-.729-.251-1.035s-.116-.571-.146-.79-.053-.372-.072-.5a.816.816,0,0,1-.015-.177.817.817,0,0,1,.044.172l.1.5c.038.217.09.48.17.782s.148.651.27,1.024l.178.59c.063.2.146.412.223.629.146.438.347.888.549,1.366a22.094,22.094,0,0,0,1.63,2.951,22.116,22.116,0,0,0,2.1,2.637c.364.369.7.728,1.051,1.031.172.154.331.31.5.447l.476.391c.3.257.592.455.842.643s.472.339.657.457l.421.281A.806.806,0,0,1-1670.859,2516.038Z" transform="translate(1680.205 -2502.032)"/></g><g transform="translate(13.039 17.154)"><path class="d" d="M-1656.839,2496.361a1.241,1.241,0,0,1-.594-.141,2.349,2.349,0,0,1-1.095-.985,2.352,2.352,0,0,1-.276-1.448,1.242,1.242,0,0,1,.187-.581c.024.008-.059.226-.084.592a2.473,2.473,0,0,0,.3,1.364,2.474,2.474,0,0,0,1.012.964C-1657.063,2496.294-1656.833,2496.336-1656.839,2496.361Z" transform="translate(1658.825 -2493.206)"/></g><g transform="translate(14.241 12.648)"><path class="d" d="M-1656.074,2486.366c-.035.021-.206-.2-.383-.486s-.292-.54-.258-.561.206.2.383.486S-1656.04,2486.345-1656.074,2486.366Z" transform="translate(1656.721 -2485.318)"/></g><g transform="translate(4.425 5.765)"><path class="d" d="M-1665.962,2473.269a3.089,3.089,0,0,1-.419.234c-.137.069-.3.156-.492.269s-.409.226-.637.379-.487.308-.747.5-.535.4-.821.623a16.921,16.921,0,0,0-1.71,1.626,16.907,16.907,0,0,0-1.441,1.87c-.193.308-.383.6-.535.882s-.3.548-.42.794-.221.474-.311.674-.162.373-.216.517a3.047,3.047,0,0,1-.19.441,3,3,0,0,1,.136-.46c.047-.147.108-.327.194-.529s.17-.438.294-.687.246-.525.407-.809.336-.584.528-.9a15.83,15.83,0,0,1,1.446-1.894,15.863,15.863,0,0,1,1.734-1.633c.291-.222.563-.439.837-.617s.524-.347.763-.489.459-.259.652-.363a5.581,5.581,0,0,1,.507-.247A2.959,2.959,0,0,1-1665.962,2473.269Z" transform="translate(1673.904 -2473.268)"/></g><g transform="translate(23.211 34.256)"><path class="d" d="M-1632.852,2523.148a1.687,1.687,0,0,1-.249.264c-.165.164-.419.388-.743.651a14.232,14.232,0,0,1-2.758,1.733,14.207,14.207,0,0,1-3.08,1.059c-.408.088-.741.144-.973.17a1.674,1.674,0,0,1-.362.028,1.81,1.81,0,0,1,.352-.084c.228-.043.557-.114.959-.214a16.278,16.278,0,0,0,3.041-1.091,16.219,16.219,0,0,0,2.757-1.683c.33-.251.592-.461.769-.613A1.767,1.767,0,0,1-1632.852,2523.148Z" transform="translate(1641.016 -2523.147)"/></g></g><g transform="translate(28.561 2.414)"><g transform="translate(0 0)"><circle class="b" cx="15.288" cy="15.288" r="15.288" transform="translate(0 5.244) rotate(-9.875)"/><g class="c" transform="translate(2.392 2.714)"><path class="d" d="M-1615.275,2412.692a15.288,15.288,0,0,0-11.865,18.074s10.616-1.71,12.269-6.472S-1615.275,2412.692-1615.275,2412.692Z" transform="translate(1627.462 -2412.692)"/></g><g transform="translate(5.773 5.871)"><path class="a" d="M-1598.539,2427.485a11.622,11.622,0,0,1-9.021,13.74,11.622,11.622,0,0,1-13.74-9.021,11.621,11.621,0,0,1,9.021-13.74A11.622,11.622,0,0,1-1598.539,2427.485Z" transform="translate(1621.544 -2418.22)"/></g><g transform="translate(6.501 6.403)"><path class="b" d="M-1597.573,2428.292a11.466,11.466,0,0,1-8.9,13.555,11.466,11.466,0,0,1-13.555-8.9,11.466,11.466,0,0,1,8.9-13.555A11.466,11.466,0,0,1-1597.573,2428.292Z" transform="translate(1620.268 -2419.151)"/></g><g transform="translate(12.848 10.52)"><g transform="translate(0.564)"><path class="a" d="M-1603.366,2432.644l-.6-2.872.014,0a6,6,0,0,1,1.609.081,4.908,4.908,0,0,1,.809.3l.019-.1.228-1.126.053-.259-.624-.431-.223.161a5.491,5.491,0,0,0-2.205-.169l-.327-1.58-.574-.294.082.4-.675.14.333,1.608c-2.176.674-2.966,2.158-2.665,3.611.41,1.978,2.21,2.139,3.869,2.2l.59,2.846a5.579,5.579,0,0,1-3.071-.491l-.342,1.57a6.362,6.362,0,0,0,3.732.458l.247,1.193-.554.125.633.262,1.167-.242-.33-1.594c2.187-.69,2.994-2.164,2.693-3.616C-1599.882,2432.841-1601.707,2432.7-1603.366,2432.644Zm-1.229-.057c-.876-.071-1.552-.257-1.694-.94-.13-.626.191-1.227,1.169-1.593Zm.633-2.818Zm1.475,7.115-.522-2.519c.9.065,1.6.262,1.743.96C-1601.14,2435.937-1601.481,2436.513-1602.487,2436.885Z" transform="translate(1608.169 -2426.358)"/></g><g transform="translate(0 0.002)"><path class="b" d="M-1603.152,2438.148l.331,1.594-1.167.242-.328-1.58a6.368,6.368,0,0,1-3.732-.459l.342-1.57a5.585,5.585,0,0,0,3.071.491l-.591-2.847c-1.659-.057-3.459-.218-3.869-2.2-.3-1.452.49-2.937,2.665-3.611l-.333-1.609,1.167-.242.327,1.58a6.235,6.235,0,0,1,3.07.269l-.286,1.559a6.02,6.02,0,0,0-2.465-.291l.6,2.875c1.66.057,3.486.2,3.9,2.176C-1600.157,2435.983-1600.965,2437.457-1603.152,2438.148Zm-2.43-5.85-.526-2.533c-.978.366-1.3.967-1.169,1.593C-1607.135,2432.041-1606.458,2432.227-1605.583,2432.3Zm3.329,2.74c-.144-.7-.839-.9-1.743-.96l.523,2.52C-1602.467,2436.224-1602.126,2435.649-1602.253,2435.037Z" transform="translate(1609.157 -2426.362)"/></g></g><g transform="translate(2.874 14.622)"><path class="d" d="M-1623.1,2446.268a.6.6,0,0,1-.094-.1l-.251-.3a6.016,6.016,0,0,1-.379-.5c-.139-.2-.309-.421-.465-.686l-.254-.41c-.088-.143-.166-.3-.254-.458-.181-.313-.338-.667-.512-1.035a16.508,16.508,0,0,1-.86-2.5,16.471,16.471,0,0,1-.413-2.612c-.019-.406-.045-.792-.033-1.154,0-.181,0-.356.009-.523s.022-.328.032-.481c.014-.308.059-.582.089-.825a6.148,6.148,0,0,1,.1-.617l.079-.387a.6.6,0,0,1,.035-.133.72.72,0,0,1-.013.138l-.058.39c-.029.169-.061.376-.081.618s-.063.516-.071.823l-.025.479c-.008.166,0,.34,0,.52-.008.36.022.743.043,1.146a17.171,17.171,0,0,0,.419,2.592,17.11,17.11,0,0,0,.845,2.485c.17.366.323.719.5,1.033.086.158.161.314.246.458l.247.411c.151.267.315.49.448.693s.257.373.361.508l.235.318A.605.605,0,0,1-1623.1,2446.268Z" transform="translate(1626.618 -2433.54)"/></g><g transform="translate(13.162 14.191)"><path class="d" d="M-1607.64,2435.566a.962.962,0,0,1-.4-.259,1.828,1.828,0,0,1-.544-1.011,1.827,1.827,0,0,1,.178-1.134.963.963,0,0,1,.29-.377c.016.012-.1.15-.217.412a1.931,1.931,0,0,0-.139,1.08,1.929,1.929,0,0,0,.488.973C-1607.787,2435.459-1607.63,2435.55-1607.64,2435.566Z" transform="translate(1608.607 -2432.785)"/></g><g transform="translate(15.558 11.151)"><path class="d" d="M-1604.2,2428.4a1.052,1.052,0,0,1-.152-.457,1.046,1.046,0,0,1-.041-.479,1.059,1.059,0,0,1,.153.456A1.049,1.049,0,0,1-1604.2,2428.4Z" transform="translate(1604.412 -2427.464)"/></g><g transform="translate(7.866 5.606)"><path class="d" d="M-1609.74,2417.76a2.443,2.443,0,0,1-.368.061c-.119.015-.264.034-.432.067s-.359.058-.567.111-.438.1-.679.17-.5.152-.766.24a13.221,13.221,0,0,0-1.682.743,13.107,13.107,0,0,0-1.548.991c-.222.175-.438.337-.624.506s-.363.323-.517.472-.287.29-.406.412-.217.231-.294.323a2.524,2.524,0,0,1-.255.274,2.26,2.26,0,0,1,.22-.3c.073-.1.166-.211.282-.337s.24-.277.4-.426.319-.32.511-.486.4-.34.623-.518a12.251,12.251,0,0,1,1.558-1.009,12.349,12.349,0,0,1,1.7-.741c.272-.087.528-.175.776-.233s.476-.116.688-.158.405-.068.574-.094.316-.041.436-.049A2.269,2.269,0,0,1-1609.74,2417.76Z" transform="translate(1617.88 -2417.756)"/></g><g transform="translate(15.436 31.5)"><path class="d" d="M-1597.612,2463.089a1.35,1.35,0,0,1-.252.127c-.165.077-.409.175-.716.282a11.107,11.107,0,0,1-2.478.546,11.11,11.11,0,0,1-2.537-.034c-.323-.043-.582-.09-.759-.132a1.312,1.312,0,0,1-.272-.074,1.423,1.423,0,0,1,.28.031c.179.029.438.062.76.095a12.653,12.653,0,0,0,2.517,0,12.673,12.673,0,0,0,2.464-.509c.308-.1.555-.182.724-.247A1.358,1.358,0,0,1-1597.612,2463.089Z" transform="translate(1604.626 -2463.088)"/></g></g></g><g transform="translate(5.172 246.508)"><path class="e" d="M-1437.1,2835.42c0,.083-52.721.149-117.741.149-65.042,0-117.752-.066-117.752-.149s52.71-.148,117.752-.148C-1489.825,2835.272-1437.1,2835.339-1437.1,2835.42Z" transform="translate(1672.597 -2835.272)"/></g><g transform="translate(177.874 0)"><g transform="translate(0)"><circle class="f" cx="23.901" cy="23.901" r="23.901" transform="translate(0 46.257) rotate(-75.39)"/><g class="c" transform="translate(6.021 5.25)"><path class="d" d="M-1330.576,2413.677a23.9,23.9,0,0,0-29.134,17.138s16.069,4.942,21.677-.591S-1330.576,2413.677-1330.576,2413.677Z" transform="translate(1359.71 -2412.906)"/></g><g transform="translate(10.711 10.521)"><path class="f" d="M-1315.736,2444.869a18.169,18.169,0,0,1-22.148,13.029,18.169,18.169,0,0,1-13.029-22.148,18.17,18.17,0,0,1,22.149-13.029A18.17,18.17,0,0,1-1315.736,2444.869Z" transform="translate(1351.499 -2422.134)"/></g><g class="g" transform="translate(10.711 10.521)"><path class="f" d="M-1315.736,2444.869a18.169,18.169,0,0,1-22.148,13.029,18.169,18.169,0,0,1-13.029-22.148,18.17,18.17,0,0,1,22.149-13.029A18.17,18.17,0,0,1-1315.736,2444.869Z" transform="translate(1351.499 -2422.134)"/></g><g transform="translate(11.498 11.688)"><path class="f" d="M-1314.839,2446.606a17.925,17.925,0,0,1-21.85,12.854,17.926,17.926,0,0,1-12.854-21.851,17.926,17.926,0,0,1,21.851-12.854A17.925,17.925,0,0,1-1314.839,2446.606Z" transform="translate(1350.121 -2424.177)"/></g><g class="g" transform="translate(11.498 11.688)"><path class="d" d="M-1314.839,2446.606a17.925,17.925,0,0,1-21.85,12.854,17.926,17.926,0,0,1-12.854-21.851,17.926,17.926,0,0,1,21.851-12.854A17.925,17.925,0,0,1-1314.839,2446.606Z" transform="translate(1350.121 -2424.177)"/></g><g transform="translate(20.873 17.767)"><g transform="translate(0.591 0.457)"><path class="f" d="M-1323.628,2445.689l1.151-4.439.022.005a9.4,9.4,0,0,1,2.2,1.227,7.693,7.693,0,0,1,.924.983l.094-.122,1.1-1.421.253-.327-.576-1.036-.426.073a8.576,8.576,0,0,0-2.975-1.762l.633-2.442-.6-.809-.159.612-1.044-.27-.644,2.485c-3.516-.56-5.651.976-6.234,3.219-.792,3.058,1.62,4.528,3.907,5.755l-1.14,4.4a8.726,8.726,0,0,1-3.966-2.812l-1.566,1.965a9.949,9.949,0,0,0,4.916,3.223l-.478,1.843-.863-.207.708.805,1.8.468.639-2.464c3.544.543,5.7-.965,6.278-3.208C-1318.879,2448.375-1321.341,2446.915-1323.628,2445.689Zm-1.684-.93c-1.179-.7-2-1.434-1.726-2.489.251-.968,1.116-1.589,2.741-1.426Zm2.836-3.513Zm-2.851,11,1.009-3.893c1.223.716,2.06,1.473,1.78,2.551C-1322.784,2451.846-1323.659,2452.417-1325.328,2452.243Z" transform="translate(1332.674 -2435.619)"/></g><g class="h" transform="translate(0.591 0.457)"><path class="f" d="M-1323.628,2445.689l1.151-4.439.022.005a9.4,9.4,0,0,1,2.2,1.227,7.693,7.693,0,0,1,.924.983l.094-.122,1.1-1.421.253-.327-.576-1.036-.426.073a8.576,8.576,0,0,0-2.975-1.762l.633-2.442-.6-.809-.159.612-1.044-.27-.644,2.485c-3.516-.56-5.651.976-6.234,3.219-.792,3.058,1.62,4.528,3.907,5.755l-1.14,4.4a8.726,8.726,0,0,1-3.966-2.812l-1.566,1.965a9.949,9.949,0,0,0,4.916,3.223l-.478,1.843-.863-.207.708.805,1.8.468.639-2.464c3.544.543,5.7-.965,6.278-3.208C-1318.879,2448.375-1321.341,2446.915-1323.628,2445.689Zm-1.684-.93c-1.179-.7-2-1.434-1.726-2.489.251-.968,1.116-1.589,2.741-1.426Zm2.836-3.513Zm-2.851,11,1.009-3.893c1.223.716,2.06,1.473,1.78,2.551C-1322.784,2451.846-1323.659,2452.417-1325.328,2452.243Z" transform="translate(1332.674 -2435.619)"/></g><path class="f" d="M-1326.982,2453.5l-.638,2.465-1.8-.468.633-2.442a9.952,9.952,0,0,1-4.916-3.223l1.566-1.965a8.724,8.724,0,0,0,3.967,2.812l1.141-4.4c-2.288-1.227-4.7-2.7-3.908-5.755.582-2.245,2.717-3.781,6.235-3.22l.644-2.486,1.8.467-.633,2.442a9.739,9.739,0,0,1,4.118,2.5l-1.478,1.988a9.415,9.415,0,0,0-3.256-2.113l-1.152,4.444c2.288,1.227,4.75,2.687,3.957,5.745C-1321.285,2452.537-1323.437,2454.045-1326.982,2453.5Zm.637-9.883,1.015-3.917c-1.624-.163-2.489.458-2.741,1.427C-1328.344,2442.184-1327.524,2442.914-1326.345,2443.619Zm2.774,6.142c.28-1.078-.557-1.834-1.78-2.551l-1.01,3.893C-1324.692,2451.279-1323.816,2450.707-1323.571,2449.761Z" transform="translate(1333.708 -2434.819)"/></g><g transform="translate(24.567 11.88)"><path class="e" d="M-1327.242,2459.692a.858.858,0,0,1,.147.021l.426.079.691.134a6.8,6.8,0,0,0,.948.148l1.2.116a4.928,4.928,0,0,0,.686.023h.742c.256-.008.522.017.794-.018l.842-.084c.289-.035.588-.045.89-.1l.925-.185a19.014,19.014,0,0,0,3.995-1.317l1.023-.537c.172-.093.35-.18.522-.279l.5-.329c.335-.226.688-.435,1.021-.682l.985-.787.25-.2c.081-.07.155-.148.233-.222l.467-.453.472-.458a6.55,6.55,0,0,0,.44-.5c.284-.343.589-.676.865-1.037l.783-1.132a19.425,19.425,0,0,0,2.3-5.229,19.429,19.429,0,0,0,.534-5.688q-.068-.691-.135-1.371c-.066-.449-.17-.888-.252-1.326a6.542,6.542,0,0,0-.143-.649l-.19-.63q-.095-.312-.188-.623c-.033-.1-.059-.207-.1-.307l-.122-.3-.479-1.167c-.17-.378-.378-.733-.56-1.093-.094-.178-.187-.356-.28-.532s-.215-.332-.321-.5l-.633-.967a19.061,19.061,0,0,0-2.852-3.092l-.719-.611c-.236-.2-.493-.351-.728-.522l-.7-.483c-.221-.162-.466-.27-.685-.4l-.648-.362a4.856,4.856,0,0,0-.611-.313l-1.1-.48a6.8,6.8,0,0,0-.9-.331l-.669-.219-.411-.138a.867.867,0,0,1-.138-.053.957.957,0,0,1,.143.035l.416.122.676.2a6.507,6.507,0,0,1,.909.316l1.113.468a4.967,4.967,0,0,1,.617.307l.655.357c.222.13.469.237.693.4l.7.48c.238.169.5.324.736.519l.729.611a19.05,19.05,0,0,1,2.89,3.1l.642.972c.107.166.222.329.326.5l.284.535c.186.362.4.719.57,1.1l.486,1.176.123.3c.037.1.065.207.1.31l.191.628c.065.211.129.423.194.636a6.685,6.685,0,0,1,.146.654c.084.442.189.885.257,1.339q.068.686.138,1.384a19.532,19.532,0,0,1-.535,5.744,19.517,19.517,0,0,1-2.323,5.279l-.793,1.143c-.279.363-.587.7-.875,1.045a6.7,6.7,0,0,1-.446.5l-.477.461-.472.456c-.079.075-.154.153-.236.224l-.253.2-1,.792c-.337.249-.693.459-1.032.684l-.508.33c-.174.1-.353.187-.527.279l-1.034.538a19.059,19.059,0,0,1-4.032,1.306l-.933.179c-.3.055-.606.064-.9.1l-.848.078c-.274.032-.542.005-.8.011l-.746-.006a4.974,4.974,0,0,1-.689-.031l-1.2-.132a6.568,6.568,0,0,1-.948-.165l-.689-.151-.423-.1A.935.935,0,0,1-1327.242,2459.692Z" transform="translate(1327.242 -2424.512)"/></g><g transform="translate(5.942 14.865)"><path class="d" d="M-1359.15,2449.777a1.027,1.027,0,0,1-.061-.207l-.143-.6c-.063-.261-.133-.583-.186-.96s-.141-.8-.177-1.285q-.035-.36-.073-.751c-.024-.261-.025-.535-.039-.817-.036-.565-.013-1.169,0-1.805a25.788,25.788,0,0,1,.523-4.1,25.809,25.809,0,0,1,1.227-3.948c.254-.583.484-1.142.751-1.641.13-.251.245-.5.374-.727l.379-.653c.231-.422.485-.775.694-1.1s.4-.584.568-.8l.379-.488a1.066,1.066,0,0,1,.141-.163.935.935,0,0,1-.113.185l-.351.507c-.158.216-.345.484-.542.81s-.445.68-.668,1.1l-.367.655c-.126.228-.236.476-.363.727-.26.5-.484,1.057-.732,1.638a26.878,26.878,0,0,0-1.205,3.924,26.8,26.8,0,0,0-.533,4.07c-.016.631-.044,1.231-.014,1.793.01.281.008.552.028.812s.042.509.061.748c.027.478.1.9.15,1.282s.1.7.156.962.081.45.11.608A.978.978,0,0,1-1359.15,2449.777Z" transform="translate(1359.848 -2429.739)"/></g><g transform="translate(24.108 21.473)"><path class="d" d="M-1327.488,2445.536a1.5,1.5,0,0,1-.379-.64,2.857,2.857,0,0,1-.063-1.792,2.858,2.858,0,0,1,1.034-1.467,1.511,1.511,0,0,1,.667-.328c.013.028-.249.14-.59.427a3.019,3.019,0,0,0-.941,1.418,3.019,3.019,0,0,0,.012,1.7C-1327.62,2445.284-1327.462,2445.52-1327.488,2445.536Z" transform="translate(1328.045 -2441.307)"/></g><g transform="translate(30.32 18.538)"><path class="d" d="M-1317.15,2437.616a1.649,1.649,0,0,1,.1-.745c.1-.4.226-.714.274-.7a1.64,1.64,0,0,1-.1.745C-1316.98,2437.315-1317.1,2437.629-1317.15,2437.616Z" transform="translate(1317.169 -2436.169)"/></g><g transform="translate(20.718 9.725)"><path class="d" d="M-1319.546,2422.082a3.633,3.633,0,0,1-.559-.168c-.177-.062-.395-.135-.652-.2s-.544-.167-.872-.237-.681-.166-1.07-.231c-.385-.082-.8-.131-1.241-.192a20.512,20.512,0,0,0-2.872-.121,20.493,20.493,0,0,0-2.857.32c-.433.091-.846.169-1.225.278-.383.092-.733.2-1.052.3s-.6.208-.853.3-.464.175-.636.249a3.675,3.675,0,0,1-.546.207,3.646,3.646,0,0,1,.518-.271c.169-.084.378-.181.628-.278s.528-.222.85-.324.669-.228,1.053-.328c.38-.115.8-.2,1.232-.3a19.364,19.364,0,0,1,2.882-.337,19.343,19.343,0,0,1,2.9.136c.441.066.862.122,1.249.21.391.073.748.166,1.073.254s.616.184.87.265.471.162.646.234A3.706,3.706,0,0,1-1319.546,2422.082Z" transform="translate(1333.98 -2420.741)"/></g><g transform="translate(15.957 47.981)"><path class="d" d="M-1331.985,2491.561a2.135,2.135,0,0,1-.442,0c-.284-.005-.694-.038-1.2-.1a17.342,17.342,0,0,1-3.852-.948,17.394,17.394,0,0,1-3.535-1.8c-.422-.283-.753-.527-.972-.708a2.083,2.083,0,0,1-.331-.292,2.121,2.121,0,0,1,.372.236c.23.164.571.391,1,.659a19.8,19.8,0,0,0,3.528,1.741,19.8,19.8,0,0,0,3.808.99c.5.077.9.129,1.186.155A2.072,2.072,0,0,1-1331.985,2491.561Z" transform="translate(1342.315 -2487.715)"/></g></g><g transform="translate(5.165 5.175)"><path class="e" d="M-1314.08,2442.754s.024-.129.079-.38.153-.619.234-1.112a24.16,24.16,0,0,0,.419-4.344,23.766,23.766,0,0,0-.2-3.148,23.1,23.1,0,0,0-.768-3.671,24.141,24.141,0,0,0-4.169-8.079,23.331,23.331,0,0,0-3.727-3.776,23.256,23.256,0,0,0-4.873-3.049,23.7,23.7,0,0,0-5.863-1.868,23.661,23.661,0,0,0-3.2-.369,25.443,25.443,0,0,0-3.311.08,23.893,23.893,0,0,0-12.8,5.262,23.453,23.453,0,0,0-2.663,2.539,22.212,22.212,0,0,0-2.274,2.968,23.963,23.963,0,0,0-3.066,6.97,23.96,23.96,0,0,0-.709,7.584c.033.628.117,1.25.194,1.869.1.615.2,1.229.351,1.831a23.412,23.412,0,0,0,1.094,3.514,23.883,23.883,0,0,0,8.635,10.822,25.34,25.34,0,0,0,2.855,1.68,23.722,23.722,0,0,0,2.979,1.234,23.749,23.749,0,0,0,6.032,1.215,23.267,23.267,0,0,0,5.74-.3,23.362,23.362,0,0,0,5.092-1.491,24.146,24.146,0,0,0,7.568-5.036,23.054,23.054,0,0,0,2.454-2.835,23.646,23.646,0,0,0,1.7-2.655,24.1,24.1,0,0,0,1.744-4c.169-.471.256-.843.336-1.086s.115-.371.115-.371-.118.513-.417,1.468a23.5,23.5,0,0,1-1.717,4.022,23.711,23.711,0,0,1-1.695,2.672,23.082,23.082,0,0,1-2.452,2.856,24.19,24.19,0,0,1-7.59,5.082,23.379,23.379,0,0,1-5.117,1.51,23.348,23.348,0,0,1-5.774.31,23.846,23.846,0,0,1-6.073-1.215,23.879,23.879,0,0,1-3-1.238,25.521,25.521,0,0,1-2.877-1.688,24.042,24.042,0,0,1-8.7-10.892,23.629,23.629,0,0,1-1.1-3.54c-.149-.607-.248-1.225-.354-1.845-.078-.624-.163-1.25-.2-1.883a24.141,24.141,0,0,1,.713-7.641,24.146,24.146,0,0,1,3.09-7.022,22.4,22.4,0,0,1,2.292-2.99,23.757,23.757,0,0,1,2.684-2.556,24.046,24.046,0,0,1,12.9-5.29,25.662,25.662,0,0,1,3.334-.077,23.86,23.86,0,0,1,3.224.375,23.839,23.839,0,0,1,5.9,1.889,23.341,23.341,0,0,1,4.9,3.076,23.435,23.435,0,0,1,3.74,3.805,24.2,24.2,0,0,1,4.166,8.129,23.039,23.039,0,0,1,.756,3.688,23.6,23.6,0,0,1,.183,3.159,23.432,23.432,0,0,1-.453,4.35C-1313.935,2442.249-1314.08,2442.754-1314.08,2442.754Z" transform="translate(1361.208 -2412.774)"/></g></g><g transform="translate(47.479 14.999)"><g transform="translate(7.211 24.792)"><g transform="translate(0.149 0.149)"><path class="d" d="M-1481.041,2674.153h-104.6V2473.637h140.073V2638.3" transform="translate(1585.646 -2473.637)"/></g><path class="e" d="M-1445.684,2638.187s-.007-.26-.011-.771-.006-1.275-.01-2.279c0-2.013-.011-4.993-.02-8.876-.009-7.77-.021-19.151-.037-33.6-.013-28.9-.031-70.063-.054-119.138l.132.131-140.073.017.149-.148v.178c-.014,77.082-.027,147.474-.037,200.337l-.111-.112,76.471.05,20.853.03,5.43.016c1.224.006,1.851.017,1.851.017s-.628.011-1.851.017l-5.43.016-20.853.03-76.471.05h-.112v-.112c-.01-52.863-.023-123.255-.037-200.337v-.327h.149l140.073.017h.132v.132c-.022,49.076-.04,90.24-.054,119.138-.016,14.446-.029,25.826-.037,33.6-.009,3.883-.015,6.863-.02,8.876,0,1-.008,1.765-.01,2.279S-1445.684,2638.187-1445.684,2638.187Z" transform="translate(1585.906 -2473.377)"/><g transform="translate(129.634 176.823)"><path class="d" d="M-1358.957,2782.938" transform="translate(1358.957 -2782.938)"/><path class="i" d="M-1358.957,2782.938" transform="translate(1358.957 -2782.938)"/></g><g transform="translate(9.006 12.586)"><rect class="f" width="61.179" height="32.98"/></g><g transform="translate(79.931 20.054)"><path class="e" d="M-1396.838,2508.634c0,.082-11,.148-24.566.148s-24.568-.067-24.568-.148,11-.149,24.568-.149S-1396.838,2508.552-1396.838,2508.634Z" transform="translate(1445.972 -2508.485)"/></g><g transform="translate(79.931 25.969)"><path class="e" d="M-1396.838,2518.99c0,.082-11,.149-24.566.149s-24.568-.067-24.568-.149,11-.149,24.568-.149S-1396.838,2518.908-1396.838,2518.99Z" transform="translate(1445.972 -2518.841)"/></g><g transform="translate(79.931 31.885)"><path class="e" d="M-1396.838,2529.346c0,.082-11,.149-24.566.149s-24.568-.067-24.568-.149,11-.149,24.568-.149S-1396.838,2529.264-1396.838,2529.346Z" transform="translate(1445.972 -2529.197)"/></g><g transform="translate(79.931 37.8)"><path class="e" d="M-1416.389,2539.7c0,.082-6.623.149-14.791.149s-14.793-.067-14.793-.149,6.622-.148,14.793-.148S-1416.389,2539.619-1416.389,2539.7Z" transform="translate(1445.972 -2539.553)"/></g><g transform="translate(9.683 52.089)"><path class="e" d="M-1447.7,2564.718c0,.082-27.146.148-60.625.148s-60.631-.066-60.631-.148,27.141-.149,60.631-.149S-1447.7,2564.636-1447.7,2564.718Z" transform="translate(1568.954 -2564.569)"/></g><g transform="translate(11.008 55.734)"><path class="e" d="M-1446.7,2571.1c0,.082-26.849.148-59.963.148s-59.969-.066-59.969-.148,26.844-.149,59.969-.149S-1446.7,2571.016-1446.7,2571.1Z" transform="translate(1566.634 -2570.949)"/></g><g transform="translate(9.683 61.762)"><rect class="a" width="121.256" height="7.036"/></g><g transform="translate(8.378 126.257)"><rect class="a" width="121.256" height="7.036"/></g><g transform="translate(9.683 91.602)"><rect class="a" width="48.36" height="7.036"/></g><g transform="translate(69.173 91.602)"><rect class="a" width="60.461" height="7.036"/></g><g transform="translate(10.237 74.867)"><path class="e" d="M-1498.476,2604.594c0,.082-15.561.148-34.753.148s-34.756-.066-34.756-.148,15.558-.149,34.756-.149S-1498.476,2604.512-1498.476,2604.594Z" transform="translate(1567.984 -2604.445)"/></g><g transform="translate(10.107 80.403)"><path class="e" d="M-1448.056,2614.286c0,.083-26.9.149-60.075.149s-60.081-.067-60.081-.149,26.895-.148,60.081-.148S-1448.056,2614.2-1448.056,2614.286Z" transform="translate(1568.212 -2614.138)"/></g><g transform="translate(10.107 85.648)"><path class="e" d="M-1448.056,2623.468c0,.082-26.9.148-60.075.148s-60.081-.066-60.081-.148,26.895-.149,60.081-.149S-1448.056,2623.386-1448.056,2623.468Z" transform="translate(1568.212 -2623.319)"/></g><g transform="translate(9.302 102.782)"><path class="e" d="M-1521.3,2653.464c0,.083-10.817.148-24.159.148s-24.161-.066-24.161-.148,10.815-.148,24.161-.148S-1521.3,2653.382-1521.3,2653.464Z" transform="translate(1569.622 -2653.316)"/></g><g transform="translate(10.104 108.186)"><path class="e" d="M-1520.7,2662.926c0,.082-10.638.149-23.758.149s-23.76-.067-23.76-.149,10.636-.148,23.76-.148S-1520.7,2662.844-1520.7,2662.926Z" transform="translate(1568.217 -2662.777)"/></g><g transform="translate(9.499 113.679)"><path class="e" d="M-1521.351,2672.542c0,.083-10.729.149-23.962.149s-23.964-.066-23.964-.149,10.727-.149,23.964-.149S-1521.351,2672.46-1521.351,2672.542Z" transform="translate(1569.277 -2672.393)"/></g><g transform="translate(9.499 119.012)"><path class="e" d="M-1521.351,2681.877c0,.083-10.729.148-23.962.148s-23.964-.066-23.964-.148,10.727-.148,23.964-.148S-1521.351,2681.8-1521.351,2681.877Z" transform="translate(1569.277 -2681.729)"/></g><g transform="translate(71.185 102.324)"><g transform="translate(7.471 1.726)"><path class="e" d="M-1398.156,2655.683c0,.082-11.2.149-25.023.149s-25.026-.066-25.026-.149,11.2-.148,25.026-.148S-1398.156,2655.6-1398.156,2655.683Z" transform="translate(1448.204 -2655.535)"/></g><path class="e" d="M-1457.655,2656.111a8.121,8.121,0,0,1-.063-.989c-.024-.607-.053-1.452-.066-2.457l.129.128-3.446.02.149-.148h0v.928c0,.3,0,.6,0,.891-.006.573-.01,1.117-.015,1.625l-.129-.129c1.005.013,1.85.042,2.457.066a8.167,8.167,0,0,1,.989.063,5.523,5.523,0,0,1-.907.063c-.6.024-1.477.053-2.54.066h-.127v-.13c0-.509-.01-1.053-.015-1.625,0-.29,0-.588,0-.891v-.928h0l.149-.149,3.446.02h.13v.128c-.013,1.062-.042,1.94-.066,2.539A5.492,5.492,0,0,1-1457.655,2656.111Z" transform="translate(1461.283 -2652.514)"/></g><g transform="translate(71.185 108.943)"><g transform="translate(7.471 1.725)"><path class="e" d="M-1398.156,2667.272c0,.083-11.2.149-25.023.149s-25.026-.066-25.026-.149,11.2-.149,25.026-.149S-1398.156,2667.19-1398.156,2667.272Z" transform="translate(1448.204 -2667.123)"/></g><path class="e" d="M-1457.655,2667.7a8.107,8.107,0,0,1-.063-.989c-.024-.608-.053-1.452-.066-2.457l.129.128-3.446.021.149-.149h0v.927q0,.455,0,.89c-.006.573-.01,1.117-.015,1.625l-.129-.128c1.005.012,1.85.042,2.457.066a8.4,8.4,0,0,1,.989.063,5.337,5.337,0,0,1-.907.063c-.6.024-1.477.052-2.54.066h-.127v-.13c0-.508-.01-1.052-.015-1.625q0-.435,0-.89v-.927h0l.149-.149,3.446.02h.13v.128c-.013,1.062-.042,1.94-.066,2.54A5.471,5.471,0,0,1-1457.655,2667.7Z" transform="translate(1461.283 -2664.103)"/></g><g transform="translate(71.185 115.563)"><g transform="translate(7.471 1.726)"><path class="e" d="M-1398.156,2678.861c0,.082-11.2.149-25.023.149s-25.026-.067-25.026-.149,11.2-.149,25.026-.149S-1398.156,2678.779-1398.156,2678.861Z" transform="translate(1448.204 -2678.712)"/></g><path class="e" d="M-1457.655,2679.288a8.116,8.116,0,0,1-.063-.989c-.024-.608-.053-1.452-.066-2.457l.129.128-3.446.02.149-.148h0v.929q0,.455,0,.891c-.006.573-.01,1.117-.015,1.625l-.129-.128c1.005.012,1.85.042,2.457.066a8.471,8.471,0,0,1,.989.063,5.452,5.452,0,0,1-.907.063c-.6.024-1.477.053-2.54.066l-.127,0v-.13c0-.508-.01-1.052-.015-1.625q0-.435,0-.891v-.929h0l.149-.149,3.446.02h.13v.128c-.013,1.062-.042,1.94-.066,2.539A5.484,5.484,0,0,1-1457.655,2679.288Z" transform="translate(1461.283 -2675.691)"/></g><g transform="translate(9.159 139.425)"><path class="e" d="M-1450.326,2750.211s-.006-.193-.009-.564-.006-.925-.01-1.647c-.005-1.454-.013-3.6-.022-6.385-.011-5.572-.028-13.709-.05-24l.091.091-119.39.058h-.007l.149-.149c0,11.215,0,22.146,0,32.595l-.145-.145,85.269.066,25.046.041,6.735.019,1.747.009c.394,0,.6.009.6.009s-.193.006-.581.01l-1.729.009-6.7.019-25.012.042-85.37.066h-.146v-.146c0-10.448,0-21.38,0-32.595v-.149h.156l119.39.057h.091v.092c-.022,10.313-.039,18.469-.05,24.052-.01,2.779-.017,4.916-.022,6.365q-.007,1.073-.01,1.632C-1450.32,2750.03-1450.326,2750.211-1450.326,2750.211Z" transform="translate(1569.872 -2717.467)"/><g transform="translate(0.483 8.203)"><path class="e" d="M-1449.964,2731.977c0,.082-26.655.148-59.529.148s-59.534-.066-59.534-.148,26.65-.149,59.534-.149S-1449.964,2731.895-1449.964,2731.977Z" transform="translate(1569.027 -2731.828)"/></g><g transform="translate(0.483 16.298)"><path class="e" d="M-1449.964,2746.148c0,.082-26.655.149-59.529.149s-59.534-.067-59.534-.149,26.65-.149,59.534-.149S-1449.964,2746.065-1449.964,2746.148Z" transform="translate(1569.027 -2745.999)"/></g><g transform="translate(0.483 24.48)"><path class="e" d="M-1449.964,2760.473c0,.082-26.655.148-59.529.148s-59.534-.066-59.534-.148,26.65-.148,59.534-.148S-1449.964,2760.39-1449.964,2760.473Z" transform="translate(1569.027 -2760.324)"/></g><g transform="translate(13.879 0.096)"><path class="e" d="M-1545.427,2750.568c-.082,0-.148-7.373-.148-16.465s.066-16.467.148-16.467.149,7.371.149,16.467S-1545.344,2750.568-1545.427,2750.568Z" transform="translate(1545.575 -2717.635)"/></g><g transform="translate(54.254 0.591)"><path class="e" d="M-1474.742,2749.949c-.082,0-.149-7.04-.149-15.722s.066-15.725.149-15.725.148,7.039.148,15.725S-1474.66,2749.949-1474.742,2749.949Z" transform="translate(1474.891 -2718.502)"/></g><g transform="translate(96.796 1.086)"><path class="e" d="M-1400.264,2751.807c-.082,0-.149-7.262-.149-16.218s.067-16.22.149-16.22.149,7.26.149,16.22S-1400.182,2751.807-1400.264,2751.807Z" transform="translate(1400.413 -2719.369)"/></g></g><g transform="translate(104.617 164.661)"><g transform="translate(0.136 0.149)"><path class="a" d="M-1402.516,2797.761l35.469-35.855h-35.469Z" transform="translate(1402.516 -2761.907)"/></g><path class="e" d="M-1402.618,2797.65c0-1.2-.056-14.822-.135-35.855v-.135h.136l25.021-.014,10.447,0h.352l-.249.25-25.408,25.565-10.165,10.187,10.18-10.378,25.184-25.579.1.249-10.447,0-25.021-.013.135-.135C-1402.562,2782.828-1402.614,2796.452-1402.618,2797.65Z" transform="translate(1402.754 -2761.646)"/></g><g transform="translate(9.875 179.326)"><path class="e" d="M-1475.493,2787.469c0,.083-20.848.149-46.56.149s-46.565-.066-46.565-.149,20.844-.148,46.565-.148S-1475.493,2787.387-1475.493,2787.469Z" transform="translate(1568.618 -2787.321)"/></g><g transform="translate(9.875 184.038)"><path class="e" d="M-1475.493,2795.718c0,.083-20.848.149-46.56.149s-46.565-.067-46.565-.149,20.844-.148,46.565-.148S-1475.493,2795.635-1475.493,2795.718Z" transform="translate(1568.618 -2795.569)"/></g><g transform="translate(9.875 188.749)"><path class="e" d="M-1526.242,2803.965c0,.083-9.487.149-21.187.149s-21.189-.066-21.189-.149,9.485-.148,21.189-.148S-1526.242,2803.883-1526.242,2803.965Z" transform="translate(1568.618 -2803.817)"/></g><g transform="translate(17.699 21.799)"><path class="d" d="M-1549.569,2514.079h-5.352v-2.538h13.7v2.538h-5.353v13.612h-3Z" transform="translate(1554.921 -2511.541)"/><path class="d" d="M-1519.628,2523.953h-8.075l-1.592,3.738h-3.091l7.268-16.15h2.953l7.29,16.15h-3.138Zm-.992-2.353-3.046-7.06-3.022,7.06Z" transform="translate(1545.258 -2511.541)"/><path class="d" d="M-1490.85,2527.691l-4.384-6.137-4.337,6.137h-3.415l6-8.237-5.675-7.913h3.391l4.13,5.745,4.083-5.745h3.253l-5.653,7.8,6.068,8.352Z" transform="translate(1532.651 -2511.541)"/></g><g transform="translate(9.05 6.982)"><path class="a" d="M-1447.057,2485.75c0,.083-27.539.149-61.5.149s-61.506-.066-61.506-.149,27.532-.149,61.506-.149S-1447.057,2485.668-1447.057,2485.75Z" transform="translate(1570.063 -2485.601)"/></g><g transform="translate(9.05 9.219)"><path class="a" d="M-1508.139,2489.666c0,.082-13.863.148-30.96.148s-30.964-.066-30.964-.148,13.86-.148,30.964-.148S-1508.139,2489.583-1508.139,2489.666Z" transform="translate(1570.063 -2489.517)"/></g></g><g transform="translate(0 13.018)"><g transform="translate(0.15 0.149)"><rect class="a" width="153.791" height="218.284" rx="10.877"/></g><path class="e" d="M-1450.8,2671.2s.16-.013.476-.031a6.711,6.711,0,0,0,1.385-.268,6.41,6.41,0,0,0,2.032-1.1,6.248,6.248,0,0,0,1.865-2.57,5.912,5.912,0,0,0,.4-1.878c.036-.678.008-1.4.015-2.153q0-2.261-.007-4.942c0-3.572-.009-7.693-.014-12.333-.011-18.561-.027-45.414-.047-78.6-.006-16.592-.012-34.765-.018-54.275q0-14.632-.007-30.236,0-7.794,0-15.812-.006-4.007-.011-8.066a6.09,6.09,0,0,0-1.371-3.664,6.135,6.135,0,0,0-3.351-2.066,8.569,8.569,0,0,0-2.017-.154h-14.593l-17.039,0-35.142,0-73.9,0a6.085,6.085,0,0,0-4.194,1.674,6.046,6.046,0,0,0-1.873,4.091c-.03,3.131-.008,6.278-.015,9.4q0,9.378,0,18.627,0,18.5,0,36.419c0,23.877-.006,46.908-.009,68.848s-.009,42.788-.013,62.3q0,3.658,0,7.253c.005,1.2-.014,2.4.012,3.573a6.041,6.041,0,0,0,1.1,3.246,6.159,6.159,0,0,0,2.654,2.125,6.521,6.521,0,0,0,1.653.423c.563.05,1.145.038,1.722.04l6.86,0,26.043.009,78.592.047,21.367.028,5.557.015c1.252.005,1.894.015,1.894.015s-.641.01-1.894.016l-5.557.015-21.367.028-78.592.048-26.043.009-6.86,0c-.577,0-1.154.013-1.747-.039a6.781,6.781,0,0,1-1.717-.437,6.4,6.4,0,0,1-2.759-2.206,6.27,6.27,0,0,1-1.148-3.373c-.028-1.2-.009-2.383-.015-3.584q0-3.595,0-7.253c0-19.511-.009-40.36-.014-62.3s-.006-44.971-.009-68.848q0-17.907,0-36.419,0-9.248,0-18.627c.007-3.129-.015-6.255.015-9.415a6.342,6.342,0,0,1,1.965-4.292,6.384,6.384,0,0,1,4.4-1.757l73.9,0,35.142,0,17.039,0h14.593a8.881,8.881,0,0,1,2.078.162,6.406,6.406,0,0,1,3.5,2.161,6.36,6.36,0,0,1,1.431,3.829q0,4.063.008,8.073,0,8.015,0,15.812,0,15.588-.007,30.236c-.007,19.51-.013,37.684-.018,54.275-.02,33.181-.036,60.035-.047,78.6-.005,4.64-.01,8.761-.014,12.333q0,2.678-.007,4.942c-.01.754.016,1.471-.022,2.156a5.975,5.975,0,0,1-.415,1.9,6.277,6.277,0,0,1-1.893,2.583,6.4,6.4,0,0,1-2.051,1.1,6.491,6.491,0,0,1-1.393.255C-1450.643,2671.195-1450.8,2671.2-1450.8,2671.2Z" transform="translate(1598.531 -2452.765)"/><g class="h" transform="translate(13.568 172.364)"><path class="f" d="M-1574.778,2795.657h102.894l24.764-26.847v-14.29l-127.658,19.947Z" transform="translate(1574.778 -2754.521)"/></g><g class="h" transform="translate(115.478 0.595)"><path class="f" d="M-1395.991,2453.806l2.933,8.7v4.262h-3.307Z" transform="translate(1396.365 -2453.806)"/></g><g transform="translate(6.86 8.746)"><g transform="translate(0.149 0.149)"><path class="d" d="M-1481.656,2668.853h-104.6V2468.337h140.073V2633" transform="translate(1586.26 -2468.337)"/></g><path class="e" d="M-1446.3,2632.886s-.008-.259-.011-.77-.006-1.276-.01-2.279c0-2.013-.011-4.994-.021-8.876-.009-7.771-.021-19.151-.037-33.6-.013-28.9-.031-70.062-.054-119.138l.132.132-140.073.017.149-.148v.178c-.014,77.082-.027,147.475-.037,200.337l-.112-.112,76.471.049,20.852.03,5.43.016c1.224,0,1.852.017,1.852.017s-.628.011-1.852.017l-5.43.015-20.852.03-76.471.049h-.112v-.112c-.01-52.863-.022-123.256-.036-200.337v-.327h.148l140.073.017h.132v.132c-.022,49.076-.041,90.24-.054,119.138-.016,14.446-.029,25.826-.037,33.6-.009,3.882-.015,6.863-.02,8.876,0,1-.008,1.765-.011,2.279S-1446.3,2632.886-1446.3,2632.886Z" transform="translate(1586.52 -2468.077)"/><g transform="translate(9.006 12.586)"><rect class="f" width="61.179" height="32.979"/></g><g transform="translate(79.931 20.054)"><path class="e" d="M-1397.452,2503.334c0,.082-11,.149-24.566.149s-24.568-.067-24.568-.149,11-.149,24.568-.149S-1397.452,2503.251-1397.452,2503.334Z" transform="translate(1446.586 -2503.185)"/></g><g transform="translate(79.931 25.969)"><path class="e" d="M-1397.452,2513.69c0,.082-11,.148-24.566.148s-24.568-.066-24.568-.148,11-.149,24.568-.149S-1397.452,2513.607-1397.452,2513.69Z" transform="translate(1446.586 -2513.541)"/></g><g transform="translate(79.931 31.885)"><path class="e" d="M-1397.452,2524.045c0,.083-11,.148-24.566.148s-24.568-.066-24.568-.148,11-.148,24.568-.148S-1397.452,2523.963-1397.452,2524.045Z" transform="translate(1446.586 -2523.897)"/></g><g transform="translate(79.931 37.799)"><path class="e" d="M-1417,2534.4c0,.082-6.623.148-14.791.148s-14.792-.066-14.792-.148,6.621-.149,14.792-.149S-1417,2534.319-1417,2534.4Z" transform="translate(1446.586 -2534.252)"/></g><g transform="translate(9.683 52.089)"><path class="e" d="M-1448.312,2559.418c0,.082-27.146.149-60.625.149s-60.631-.067-60.631-.149,27.14-.149,60.631-.149S-1448.312,2559.336-1448.312,2559.418Z" transform="translate(1569.568 -2559.269)"/></g><g transform="translate(11.008 55.734)"><path class="e" d="M-1447.317,2565.8c0,.082-26.85.149-59.963.149s-59.969-.067-59.969-.149,26.844-.149,59.969-.149S-1447.317,2565.716-1447.317,2565.8Z" transform="translate(1567.248 -2565.649)"/></g><g transform="translate(9.683 61.762)"><rect class="a" width="121.256" height="7.036"/></g><g transform="translate(8.378 126.257)"><rect class="a" width="121.256" height="7.036"/></g><g transform="translate(9.683 91.601)"><rect class="a" width="48.36" height="7.036"/></g><g transform="translate(69.173 91.601)"><rect class="a" width="60.461" height="7.036"/></g><g transform="translate(10.237 74.867)"><path class="e" d="M-1499.09,2599.294c0,.082-15.561.149-34.752.149s-34.756-.067-34.756-.149,15.558-.149,34.756-.149S-1499.09,2599.212-1499.09,2599.294Z" transform="translate(1568.598 -2599.145)"/></g><g transform="translate(10.107 80.403)"><path class="e" d="M-1448.67,2608.987c0,.082-26.9.148-60.075.148s-60.081-.066-60.081-.148,26.894-.149,60.081-.149S-1448.67,2608.9-1448.67,2608.987Z" transform="translate(1568.826 -2608.838)"/></g><g transform="translate(10.107 85.648)"><path class="e" d="M-1448.67,2618.168c0,.082-26.9.149-60.075.149s-60.081-.067-60.081-.149,26.894-.149,60.081-.149S-1448.67,2618.086-1448.67,2618.168Z" transform="translate(1568.826 -2618.019)"/></g><g transform="translate(9.301 102.781)"><path class="e" d="M-1521.916,2648.164c0,.082-10.818.148-24.159.148s-24.162-.066-24.162-.148,10.816-.149,24.162-.149S-1521.916,2648.082-1521.916,2648.164Z" transform="translate(1570.237 -2648.015)"/></g><g transform="translate(10.104 108.186)"><path class="e" d="M-1521.313,2657.625c0,.083-10.638.149-23.758.149s-23.76-.067-23.76-.149,10.636-.148,23.76-.148S-1521.313,2657.543-1521.313,2657.625Z" transform="translate(1568.831 -2657.477)"/></g><g transform="translate(9.499 113.679)"><path class="e" d="M-1521.965,2667.242c0,.082-10.729.149-23.961.149s-23.964-.067-23.964-.149,10.727-.149,23.964-.149S-1521.965,2667.16-1521.965,2667.242Z" transform="translate(1569.891 -2667.093)"/></g><g transform="translate(9.499 119.011)"><path class="e" d="M-1521.965,2676.577c0,.082-10.729.148-23.961.148s-23.964-.067-23.964-.148,10.727-.149,23.964-.149S-1521.965,2676.495-1521.965,2676.577Z" transform="translate(1569.891 -2676.428)"/></g><g transform="translate(71.185 102.324)"><g transform="translate(7.471 1.725)"><path class="e" d="M-1398.77,2650.383c0,.082-11.2.148-25.023.148s-25.025-.067-25.025-.148,11.2-.149,25.025-.149S-1398.77,2650.3-1398.77,2650.383Z" transform="translate(1448.818 -2650.234)"/></g><path class="e" d="M-1458.269,2650.811a8.329,8.329,0,0,1-.063-.989c-.024-.608-.053-1.452-.066-2.457l.128.128-3.446.02.148-.148h0v.466c0,.155,0,.308,0,.461q0,.455,0,.89c-.005.573-.01,1.117-.015,1.626l-.128-.129c1.005.013,1.85.042,2.457.066a8.323,8.323,0,0,1,.989.063,5.349,5.349,0,0,1-.906.063c-.6.024-1.478.052-2.54.065h-.127v-.13c0-.508-.01-1.052-.015-1.626q0-.435,0-.89v-.927h0c-.133.133.18-.182.149-.149l3.446.02h.13l0,.128c-.012,1.062-.041,1.94-.065,2.54A5.349,5.349,0,0,1-1458.269,2650.811Z" transform="translate(1461.897 -2647.214)"/></g><g transform="translate(71.185 108.943)"><g transform="translate(7.471 1.726)"><path class="e" d="M-1398.77,2661.972c0,.082-11.2.149-25.023.149s-25.025-.067-25.025-.149,11.2-.149,25.025-.149S-1398.77,2661.89-1398.77,2661.972Z" transform="translate(1448.818 -2661.823)"/></g><path class="e" d="M-1458.269,2662.4a8.348,8.348,0,0,1-.063-.989c-.024-.608-.053-1.452-.066-2.457l.128.128-3.446.02.148-.148h0v.468c0,.155,0,.309,0,.46q0,.456,0,.891c-.005.573-.01,1.117-.015,1.626l-.128-.129c1.005.013,1.85.042,2.457.066a8.161,8.161,0,0,1,.989.063,5.488,5.488,0,0,1-.906.063c-.6.024-1.478.053-2.54.066l-.127,0v-.13c0-.508-.01-1.052-.015-1.626q0-.435,0-.891v-.928h0c-.133.133.18-.182.149-.15l3.446.021h.13l0,.128c-.012,1.062-.041,1.94-.065,2.539A5.361,5.361,0,0,1-1458.269,2662.4Z" transform="translate(1461.897 -2658.802)"/></g><g transform="translate(71.185 115.563)"><g transform="translate(7.471 1.726)"><path class="e" d="M-1398.77,2673.561c0,.082-11.2.148-25.023.148s-25.025-.066-25.025-.148,11.2-.148,25.025-.148S-1398.77,2673.478-1398.77,2673.561Z" transform="translate(1448.818 -2673.412)"/></g><path class="e" d="M-1458.269,2673.988a8.338,8.338,0,0,1-.063-.989c-.024-.607-.053-1.452-.066-2.457l.128.129-3.446.02c-.033.032.281-.282.148-.148h0v.468c0,.155,0,.309,0,.46q0,.455,0,.891c-.005.573-.01,1.117-.015,1.625l-.128-.129c1.005.013,1.85.042,2.457.066a8.125,8.125,0,0,1,.989.063,5.429,5.429,0,0,1-.906.063c-.6.024-1.478.053-2.54.066l-.127,0v-.13c0-.509-.01-1.053-.015-1.625q0-.435,0-.891v-.928h0c-.133.133.18-.182.149-.149l3.446.02h.13l0,.128c-.012,1.062-.041,1.94-.065,2.539A5.363,5.363,0,0,1-1458.269,2673.988Z" transform="translate(1461.897 -2670.391)"/></g><g transform="translate(9.159 139.425)"><path class="e" d="M-1450.94,2744.91s-.006-.194-.01-.564-.005-.925-.009-1.648c-.005-1.453-.013-3.6-.022-6.385-.012-5.572-.029-13.709-.051-24l.091.091-119.389.057h-.007l.149-.148c0,11.215,0,22.147,0,32.6l-.146-.145,85.269.066,25.046.042,6.735.019,1.747.009c.394,0,.6.01.6.01s-.194.006-.581.009l-1.729.01-6.7.019-25.012.041-85.37.066h-.145v-.145c0-10.448,0-21.38,0-32.6v-.149h.156l119.389.058h.092v.092c-.022,10.312-.039,18.469-.051,24.053-.01,2.778-.017,4.916-.022,6.365q-.006,1.074-.009,1.631C-1450.935,2744.729-1450.94,2744.91-1450.94,2744.91Z" transform="translate(1570.486 -2712.166)"/><g transform="translate(0.483 8.204)"><path class="e" d="M-1450.578,2726.677c0,.082-26.655.149-59.528.149s-59.534-.067-59.534-.149,26.65-.148,59.534-.148S-1450.578,2726.595-1450.578,2726.677Z" transform="translate(1569.641 -2726.528)"/></g><g transform="translate(0.483 16.298)"><path class="e" d="M-1450.578,2740.847c0,.083-26.655.149-59.528.149s-59.534-.066-59.534-.149,26.65-.149,59.534-.149S-1450.578,2740.765-1450.578,2740.847Z" transform="translate(1569.641 -2740.698)"/></g><g transform="translate(0.483 24.48)"><path class="e" d="M-1450.578,2755.172c0,.082-26.655.148-59.528.148s-59.534-.066-59.534-.148,26.65-.149,59.534-.149S-1450.578,2755.09-1450.578,2755.172Z" transform="translate(1569.641 -2755.023)"/></g><g transform="translate(13.878 0.097)"><path class="e" d="M-1546.041,2745.268c-.082,0-.149-7.373-.149-16.465s.067-16.467.149-16.467.149,7.372.149,16.467S-1545.959,2745.268-1546.041,2745.268Z" transform="translate(1546.19 -2712.335)"/></g><g transform="translate(54.253 0.592)"><path class="e" d="M-1475.357,2744.649c-.082,0-.149-7.04-.149-15.723s.067-15.724.149-15.724.148,7.038.148,15.724S-1475.275,2744.649-1475.357,2744.649Z" transform="translate(1475.506 -2713.202)"/></g><g transform="translate(96.796 1.087)"><path class="e" d="M-1400.878,2746.507c-.082,0-.149-7.262-.149-16.218s.067-16.219.149-16.219.149,7.26.149,16.219S-1400.8,2746.507-1400.878,2746.507Z" transform="translate(1401.027 -2714.069)"/></g></g><g transform="translate(104.617 164.661)"><g transform="translate(0.136 0.149)"><path class="a" d="M-1403.13,2792.461l35.469-35.855h-35.469Z" transform="translate(1403.13 -2756.606)"/></g><path class="e" d="M-1403.233,2792.35c0-1.2-.057-14.823-.136-35.854v-.136h.137l25.021-.013,10.448,0h.352l-.248.25-25.408,25.564-10.165,10.188,10.18-10.379,25.184-25.579.1.25-10.448,0-25.021-.013.135-.135C-1403.177,2777.527-1403.229,2791.152-1403.233,2792.35Z" transform="translate(1403.369 -2756.346)"/></g><g transform="translate(9.875 179.326)"><path class="e" d="M-1476.107,2782.169c0,.082-20.848.148-46.56.148s-46.565-.066-46.565-.148,20.844-.149,46.565-.149S-1476.107,2782.087-1476.107,2782.169Z" transform="translate(1569.232 -2782.02)"/></g><g transform="translate(9.875 184.037)"><path class="e" d="M-1476.107,2790.417c0,.082-20.848.148-46.56.148s-46.565-.066-46.565-.148,20.844-.149,46.565-.149S-1476.107,2790.335-1476.107,2790.417Z" transform="translate(1569.232 -2790.268)"/></g><g transform="translate(9.875 188.748)"><path class="e" d="M-1526.855,2798.665c0,.082-9.487.149-21.187.149s-21.189-.066-21.189-.149,9.485-.149,21.189-.149S-1526.855,2798.583-1526.855,2798.665Z" transform="translate(1569.232 -2798.516)"/></g><g transform="translate(9.049 6.982)"><path class="a" d="M-1447.673,2480.45c0,.082-27.538.149-61.5.149s-61.506-.067-61.506-.149,27.532-.149,61.506-.149S-1447.673,2480.367-1447.673,2480.45Z" transform="translate(1570.678 -2480.301)"/></g><g transform="translate(9.049 9.219)"><path class="a" d="M-1508.753,2484.365c0,.082-13.864.148-30.961.148s-30.964-.067-30.964-.148,13.861-.149,30.964-.149S-1508.753,2484.283-1508.753,2484.365Z" transform="translate(1570.678 -2484.216)"/></g><g transform="translate(12.298 18.344)"><path class="j" d="M-1560.418,2505.229h-3.006v2.035h3.528v1.258h-5.094v-7.6h5.083v1.268h-3.518V2504h3.006Z" transform="translate(1564.99 -2500.505)"/><path class="j" d="M-1551.8,2508.348a.486.486,0,0,0-.274-.436,3.108,3.108,0,0,0-.879-.285q-2.015-.422-2.015-1.712a1.551,1.551,0,0,1,.624-1.255,2.515,2.515,0,0,1,1.631-.5,2.706,2.706,0,0,1,1.72.507,1.594,1.594,0,0,1,.644,1.315h-1.508a.728.728,0,0,0-.209-.535.882.882,0,0,0-.652-.212.9.9,0,0,0-.59.172.543.543,0,0,0-.209.438.465.465,0,0,0,.238.4,2.444,2.444,0,0,0,.8.266,6.521,6.521,0,0,1,.95.253,1.561,1.561,0,0,1,1.2,1.519,1.473,1.473,0,0,1-.663,1.25,2.86,2.86,0,0,1-1.712.478,2.987,2.987,0,0,1-1.26-.253,2.116,2.116,0,0,1-.864-.695,1.609,1.609,0,0,1-.313-.952h1.43a.786.786,0,0,0,.3.615,1.178,1.178,0,0,0,.741.214,1.093,1.093,0,0,0,.655-.164A.512.512,0,0,0-1551.8,2508.348Z" transform="translate(1560.767 -2501.892)"/><path class="j" d="M-1543.607,2501.91v1.388h.966v1.106h-.966v2.818a.673.673,0,0,0,.12.449.605.605,0,0,0,.459.135,2.4,2.4,0,0,0,.443-.037v1.143a3.1,3.1,0,0,1-.913.136,1.44,1.44,0,0,1-1.618-1.6V2504.4h-.825V2503.3h.825v-1.388Z" transform="translate(1556.821 -2500.928)"/><path class="j" d="M-1535.59,2509.908a1.656,1.656,0,0,1-.151-.506,1.828,1.828,0,0,1-1.425.61,2,2,0,0,1-1.375-.48,1.544,1.544,0,0,1-.546-1.211,1.6,1.6,0,0,1,.666-1.378,3.285,3.285,0,0,1,1.923-.485h.694v-.324a.929.929,0,0,0-.2-.626.79.79,0,0,0-.634-.235.9.9,0,0,0-.6.182.623.623,0,0,0-.216.5h-1.509a1.516,1.516,0,0,1,.3-.908,2,2,0,0,1,.856-.655,3.118,3.118,0,0,1,1.242-.238,2.463,2.463,0,0,1,1.657.525,1.834,1.834,0,0,1,.614,1.474v2.448a2.706,2.706,0,0,0,.224,1.216v.088Zm-1.248-1.049a1.3,1.3,0,0,0,.616-.149.974.974,0,0,0,.417-.4v-.97h-.564q-1.133,0-1.205.782l-.006.089a.6.6,0,0,0,.2.464A.771.771,0,0,0-1536.838,2508.86Z" transform="translate(1553.883 -2501.892)"/><path class="j" d="M-1529.073,2505.343a3.4,3.4,0,0,1,.592-2.1,1.921,1.921,0,0,1,1.62-.783,1.733,1.733,0,0,1,1.362.616v-2.881h1.513v8.016h-1.362l-.073-.6a1.774,1.774,0,0,1-1.451.7,1.919,1.919,0,0,1-1.6-.785A3.516,3.516,0,0,1-1529.073,2505.343Zm1.508.113a2.23,2.23,0,0,0,.277,1.218.9.9,0,0,0,.8.423,1.01,1.01,0,0,0,.987-.591v-2.232a1,1,0,0,0-.976-.59Q-1527.565,2503.683-1527.565,2505.456Z" transform="translate(1549.589 -2500.192)"/><path class="j" d="M-1518.529,2507.033a3.35,3.35,0,0,1,.323-1.5,2.368,2.368,0,0,1,.932-1.017,2.714,2.714,0,0,1,1.412-.361,2.569,2.569,0,0,1,1.866.7,2.805,2.805,0,0,1,.807,1.9l.01.386a2.954,2.954,0,0,1-.725,2.085,2.524,2.524,0,0,1-1.947.785,2.535,2.535,0,0,1-1.95-.783,3,3,0,0,1-.728-2.129Zm1.508.107a2.11,2.11,0,0,0,.3,1.231,1,1,0,0,0,.867.426,1,1,0,0,0,.856-.421,2.306,2.306,0,0,0,.308-1.346,2.087,2.087,0,0,0-.308-1.223,1,1,0,0,0-.866-.434.985.985,0,0,0-.856.431A2.35,2.35,0,0,0-1517.021,2507.14Z" transform="translate(1545.068 -2501.892)"/><path class="j" d="M-1504.7,2508.348a.486.486,0,0,0-.274-.436,3.118,3.118,0,0,0-.88-.285q-2.014-.422-2.015-1.712a1.551,1.551,0,0,1,.624-1.255,2.515,2.515,0,0,1,1.631-.5,2.706,2.706,0,0,1,1.72.507,1.594,1.594,0,0,1,.644,1.315h-1.508a.728.728,0,0,0-.209-.535.883.883,0,0,0-.652-.212.9.9,0,0,0-.589.172.543.543,0,0,0-.209.438.465.465,0,0,0,.238.4,2.445,2.445,0,0,0,.8.266,6.545,6.545,0,0,1,.95.253,1.561,1.561,0,0,1,1.2,1.519,1.473,1.473,0,0,1-.663,1.25,2.859,2.859,0,0,1-1.711.478,2.99,2.99,0,0,1-1.261-.253,2.114,2.114,0,0,1-.864-.695,1.607,1.607,0,0,1-.313-.952h1.43a.786.786,0,0,0,.3.615,1.178,1.178,0,0,0,.741.214,1.092,1.092,0,0,0,.655-.164A.512.512,0,0,0-1504.7,2508.348Z" transform="translate(1540.57 -2501.892)"/><path class="j" d="M-1560.418,2527.871h-3.006v3.106h-1.566v-7.6h4.948v1.268h-3.382v1.962h3.006Z" transform="translate(1564.99 -2510.134)"/><path class="j" d="M-1554.93,2523.652a.742.742,0,0,1,.227-.558.853.853,0,0,1,.618-.219.856.856,0,0,1,.616.219.738.738,0,0,1,.229.558.742.742,0,0,1-.232.564.857.857,0,0,1-.613.219.858.858,0,0,1-.614-.219A.742.742,0,0,1-1554.93,2523.652Zm1.6,7.109h-1.514v-5.647h1.514Z" transform="translate(1560.676 -2509.918)"/><path class="j" d="M-1548.586,2526.717l.047.652a1.972,1.972,0,0,1,1.623-.757,1.638,1.638,0,0,1,1.336.527,2.457,2.457,0,0,1,.449,1.576v3.648h-1.508v-3.612a.979.979,0,0,0-.209-.7.938.938,0,0,0-.694-.216,1.038,1.038,0,0,0-.955.543v3.982h-1.509v-5.647Z" transform="translate(1558.565 -2511.521)"/><path class="j" d="M-1536.367,2532.364a1.675,1.675,0,0,1-.151-.507,1.825,1.825,0,0,1-1.425.61,2.005,2.005,0,0,1-1.375-.48,1.544,1.544,0,0,1-.545-1.211,1.6,1.6,0,0,1,.666-1.378,3.285,3.285,0,0,1,1.923-.486h.694v-.323a.932.932,0,0,0-.2-.626.792.792,0,0,0-.635-.235.9.9,0,0,0-.6.183.621.621,0,0,0-.216.5h-1.508a1.515,1.515,0,0,1,.3-.908,2,2,0,0,1,.856-.655,3.118,3.118,0,0,1,1.242-.238,2.463,2.463,0,0,1,1.657.524,1.834,1.834,0,0,1,.614,1.474v2.448a2.693,2.693,0,0,0,.225,1.215v.089Zm-1.248-1.049a1.305,1.305,0,0,0,.616-.148.981.981,0,0,0,.417-.4v-.971h-.563q-1.133,0-1.206.783l-.005.088a.6.6,0,0,0,.2.465A.767.767,0,0,0-1537.615,2531.314Z" transform="translate(1554.216 -2511.521)"/><path class="j" d="M-1528.074,2526.717l.047.652a1.972,1.972,0,0,1,1.623-.757,1.64,1.64,0,0,1,1.337.527,2.462,2.462,0,0,1,.448,1.576v3.648h-1.508v-3.612a.979.979,0,0,0-.209-.7.936.936,0,0,0-.694-.216,1.038,1.038,0,0,0-.955.543v3.982h-1.509v-5.647Z" transform="translate(1549.769 -2511.521)"/><path class="j" d="M-1516.786,2531.252a.99.99,0,0,0,.679-.23.807.807,0,0,0,.271-.611h1.414a1.938,1.938,0,0,1-.313,1.052,2.074,2.074,0,0,1-.843.741,2.635,2.635,0,0,1-1.182.263,2.453,2.453,0,0,1-1.91-.769,3.048,3.048,0,0,1-.7-2.126v-.1a3.013,3.013,0,0,1,.694-2.083,2.423,2.423,0,0,1,1.905-.777,2.375,2.375,0,0,1,1.7.6,2.138,2.138,0,0,1,.65,1.6h-1.414a1.04,1.04,0,0,0-.271-.716.9.9,0,0,0-.689-.275.91.91,0,0,0-.8.384,2.229,2.229,0,0,0-.268,1.247v.157a2.256,2.256,0,0,0,.266,1.255A.92.92,0,0,0-1516.786,2531.252Z" transform="translate(1545.428 -2511.521)"/><path class="j" d="M-1509.219,2523.652a.743.743,0,0,1,.227-.558.851.851,0,0,1,.618-.219.855.855,0,0,1,.616.219.738.738,0,0,1,.23.558.742.742,0,0,1-.232.564.858.858,0,0,1-.614.219.857.857,0,0,1-.613-.219A.742.742,0,0,1-1509.219,2523.652Zm1.6,7.109h-1.514v-5.647h1.514Z" transform="translate(1541.076 -2509.918)"/><path class="j" d="M-1501.793,2532.467a2.77,2.77,0,0,1-2.023-.762,2.709,2.709,0,0,1-.78-2.03v-.146a3.41,3.41,0,0,1,.329-1.521,2.408,2.408,0,0,1,.932-1.033,2.614,2.614,0,0,1,1.375-.363,2.344,2.344,0,0,1,1.824.731,2.97,2.97,0,0,1,.665,2.072v.616h-3.6a1.406,1.406,0,0,0,.441.887,1.334,1.334,0,0,0,.932.334,1.629,1.629,0,0,0,1.362-.632l.741.83a2.266,2.266,0,0,1-.918.749A3.009,3.009,0,0,1-1501.793,2532.467Zm-.172-4.639a.94.94,0,0,0-.728.3,1.573,1.573,0,0,0-.358.87h2.1v-.12a1.125,1.125,0,0,0-.271-.779A.972.972,0,0,0-1501.966,2527.828Z" transform="translate(1539.093 -2511.521)"/><path class="j" d="M-1490.952,2528.131a4.094,4.094,0,0,0-.543-.042,1.1,1.1,0,0,0-1.122.579v3.7h-1.508v-5.647h1.425l.042.673a1.4,1.4,0,0,1,1.257-.777,1.593,1.593,0,0,1,.47.068Z" transform="translate(1534.603 -2511.521)"/><path class="j" d="M-1488.04,2529.487a3.349,3.349,0,0,1,.324-1.5,2.371,2.371,0,0,1,.932-1.018,2.717,2.717,0,0,1,1.411-.36,2.572,2.572,0,0,1,1.866.7,2.807,2.807,0,0,1,.806,1.9l.01.386a2.951,2.951,0,0,1-.725,2.085,2.521,2.521,0,0,1-1.947.785,2.533,2.533,0,0,1-1.949-.782,3,3,0,0,1-.728-2.129Zm1.509.107a2.109,2.109,0,0,0,.3,1.231,1,1,0,0,0,.866.426,1,1,0,0,0,.856-.421,2.314,2.314,0,0,0,.308-1.346,2.093,2.093,0,0,0-.308-1.223,1,1,0,0,0-.867-.434.983.983,0,0,0-.856.431A2.346,2.346,0,0,0-1486.531,2529.595Z" transform="translate(1531.994 -2511.521)"/><path class="j" d="M-1474.205,2530.8a.487.487,0,0,0-.274-.436,3.129,3.129,0,0,0-.879-.284q-2.015-.422-2.015-1.712a1.55,1.55,0,0,1,.624-1.255,2.514,2.514,0,0,1,1.631-.5,2.708,2.708,0,0,1,1.72.506,1.6,1.6,0,0,1,.644,1.315h-1.509a.729.729,0,0,0-.208-.535.881.881,0,0,0-.652-.212.9.9,0,0,0-.59.173.544.544,0,0,0-.208.438.463.463,0,0,0,.238.4,2.441,2.441,0,0,0,.8.266,6.523,6.523,0,0,1,.95.253,1.56,1.56,0,0,1,1.2,1.519,1.473,1.473,0,0,1-.663,1.25,2.859,2.859,0,0,1-1.712.477,2.978,2.978,0,0,1-1.26-.253,2.114,2.114,0,0,1-.864-.694,1.614,1.614,0,0,1-.313-.952h1.43a.787.787,0,0,0,.3.615,1.177,1.177,0,0,0,.741.214,1.1,1.1,0,0,0,.655-.164A.513.513,0,0,0-1474.205,2530.8Z" transform="translate(1527.496 -2511.521)"/></g></g></g><g transform="translate(44.979)"><g transform="translate(0 7.731)"><path class="e" d="M6.326,0H64.547a6.326,6.326,0,0,1,6.326,6.326V20.556a0,0,0,0,1,0,0H0a0,0,0,0,1,0,0V6.326A6.326,6.326,0,0,1,6.326,0Z"/></g><g transform="translate(26.417)"><path class="e" d="M-1455.5,2429.974h-18.038l2.108,15.461h13.587Z" transform="translate(1473.538 -2429.974)"/></g><g transform="translate(4.553 7.582)"><path class="k" d="M-1450.049,2443.4c0,.082-13.828.148-30.882.148s-30.885-.066-30.885-.148,13.826-.149,30.885-.149S-1450.049,2443.314-1450.049,2443.4Z" transform="translate(1511.816 -2443.247)"/></g><g transform="translate(1.437 11.982)"><path class="k" d="M-1517.121,2463.939c-.082,0-.149-2.907-.149-6.493s.067-6.495.149-6.495.149,2.907.149,6.495S-1517.039,2463.939-1517.121,2463.939Z" transform="translate(1517.27 -2450.951)"/></g><g transform="translate(68.43 11.64)"><path class="k" d="M-1399.839,2462.145a58.626,58.626,0,0,1-.148-5.9,58.62,58.62,0,0,1,.148-5.9,58.39,58.39,0,0,1,.149,5.9A58.4,58.4,0,0,1-1399.839,2462.145Z" transform="translate(1399.987 -2450.352)"/></g><g transform="translate(1.757 26.018)"><path class="k" d="M-1453.307,2475.672c0,.082-14.194.148-31.7.148s-31.7-.067-31.7-.148,14.191-.149,31.7-.149S-1453.307,2475.59-1453.307,2475.672Z" transform="translate(1516.71 -2475.523)"/></g></g></g><g transform="translate(7.834 83.446)"><path class="e" d="M-1600.452,2712.916l-55.419-.033a12.071,12.071,0,0,1-12.065-12.074l.027-138.936a12.073,12.073,0,0,1,12.079-12.07l55.419.032a12.073,12.073,0,0,1,12.065,12.075l-.027,138.937A12.072,12.072,0,0,1-1600.452,2712.916Z" transform="translate(1667.936 -2549.803)"/><g transform="translate(3.672 4.915)"><path class="d" d="M-1597.713,2558.439l-10.744-.006a2.669,2.669,0,0,0-2.61,2.726v1.949a2.669,2.669,0,0,1-2.609,2.726l-20.944-.012a2.671,2.671,0,0,1-2.609-2.729v-1.949a2.672,2.672,0,0,0-2.609-2.729l-3.779,0-9.4-.005a8.454,8.454,0,0,0-8.459,8.453l-.026,135.612a8.453,8.453,0,0,0,8.449,8.456l55.308.033a8.455,8.455,0,0,0,8.46-8.453l.027-135.613A8.455,8.455,0,0,0-1597.713,2558.439Z" transform="translate(1661.507 -2558.407)"/></g><g transform="translate(3.672 61.055)"><path class="b" d="M0,0H72.244a0,0,0,0,1,0,0V83.683A12.729,12.729,0,0,1,59.514,96.413H12.729A12.729,12.729,0,0,1,0,83.683V0A0,0,0,0,1,0,0Z"/></g><g transform="translate(3.672 60.878)"><rect class="a" width="54.567" height="20.136"/></g><g transform="translate(58.239 61.055)"><path class="f" d="M-1554.735,2753.1a6.434,6.434,0,0,0,6.434-6.433v-89.979h-17.677V2753.1Z" transform="translate(1565.977 -2656.692)"/></g><g transform="translate(2.805 81.043)"><path class="e" d="M-1591.573,2691.832c0,.082-16,.149-35.725.149s-35.728-.067-35.728-.149,15.993-.149,35.728-.149S-1591.573,2691.749-1591.573,2691.832Z" transform="translate(1663.025 -2691.683)"/></g><g transform="translate(2.805 100.633)"><path class="e" d="M-1591.573,2726.128c0,.082-16,.148-35.725.148s-35.728-.066-35.728-.148,15.993-.148,35.728-.148S-1591.573,2726.045-1591.573,2726.128Z" transform="translate(1663.025 -2725.979)"/></g><g transform="translate(2.805 121.376)"><path class="e" d="M-1591.573,2762.443c0,.082-16,.149-35.725.149s-35.728-.067-35.728-.149,15.993-.149,35.728-.149S-1591.573,2762.36-1591.573,2762.443Z" transform="translate(1663.025 -2762.294)"/></g><g transform="translate(2.805 140.965)"><path class="e" d="M-1591.573,2796.738c0,.082-16,.148-35.725.148s-35.728-.066-35.728-.148,15.993-.149,35.728-.149S-1591.573,2796.656-1591.573,2796.738Z" transform="translate(1663.025 -2796.589)"/></g><g transform="translate(21.2 61.333)"><path class="e" d="M-1630.673,2736.959c-.082,0-.149-17.862-.149-39.889s.067-39.893.149-39.893.148,17.857.148,39.893S-1630.591,2736.959-1630.673,2736.959Z" transform="translate(1630.822 -2657.177)"/></g><g transform="translate(39.645 61.333)"><path class="e" d="M-1598.381,2753.35c-.082,0-.149-21.531-.149-48.084s.067-48.088.149-48.088.149,21.526.149,48.088S-1598.3,2753.35-1598.381,2753.35Z" transform="translate(1598.53 -2657.177)"/></g><g transform="translate(58.09 61.333)"><path class="e" d="M-1566.089,2753.313c-.082,0-.149-21.522-.149-48.066s.067-48.07.149-48.07.149,21.518.149,48.07S-1566.007,2753.313-1566.089,2753.313Z" transform="translate(1566.238 -2657.177)"/></g><g transform="translate(9.894 88.318)"><path class="e" d="M-1645.544,2704.42v.653l-2.718,6.07h-1.018l2.661-5.887h-3.074v1.2h-.922v-2.036Z" transform="translate(1650.615 -2704.42)"/></g><g transform="translate(28.127 88.241)"><path class="e" d="M-1613.354,2709.184c0,1.219-1.037,1.979-2.68,1.979s-2.661-.759-2.661-1.979a1.667,1.667,0,0,1,1.182-1.623,1.519,1.519,0,0,1-.941-1.45c0-1.124.97-1.825,2.42-1.825s2.44.7,2.44,1.825a1.528,1.528,0,0,1-.951,1.45A1.673,1.673,0,0,1-1613.354,2709.184Zm-.961-.029c0-.739-.653-1.2-1.719-1.2s-1.7.461-1.7,1.2c0,.759.634,1.23,1.7,1.23S-1614.315,2709.914-1614.315,2709.154Zm-3.189-3.005c0,.663.548,1.075,1.47,1.075s1.5-.413,1.5-1.075-.6-1.086-1.5-1.086S-1617.5,2705.476-1617.5,2706.149Z" transform="translate(1618.695 -2704.285)"/></g><g transform="translate(46.446 88.241)"><path class="e" d="M-1581.427,2707.637c0,2.3-1.3,3.525-3.179,3.525a3.241,3.241,0,0,1-1.671-.394l.365-.75a2.365,2.365,0,0,0,1.3.317c1.364,0,2.228-.855,2.228-2.536v-.24a2.244,2.244,0,0,1-1.94.884,2.069,2.069,0,0,1-2.3-2.036,2.167,2.167,0,0,1,2.373-2.123C-1582.445,2704.285-1581.427,2705.5-1581.427,2707.637Zm-1.181-1.277c0-.691-.557-1.3-1.6-1.3a1.322,1.322,0,0,0-1.479,1.307c0,.787.586,1.3,1.527,1.3A1.4,1.4,0,0,0-1582.608,2706.359Z" transform="translate(1586.623 -2704.285)"/></g><g transform="translate(46.088 68.353)"><path class="e" d="M-1587.25,2671.052a1.43,1.43,0,0,1,1.429-1.584,1.42,1.42,0,0,1,1.421,1.584,1.42,1.42,0,0,1-1.421,1.585A1.43,1.43,0,0,1-1587.25,2671.052Zm2.028,0c0-.616-.238-.912-.6-.912s-.6.3-.6.912.247.912.6.912S-1585.222,2671.668-1585.222,2671.052Zm2.824-1.519h.977l-3.925,5.747h-.977Zm-.944,4.228a1.428,1.428,0,0,1,1.42-1.584,1.43,1.43,0,0,1,1.429,1.584,1.43,1.43,0,0,1-1.429,1.585A1.429,1.429,0,0,1-1583.342,2673.762Zm2.02,0c0-.607-.238-.911-.6-.911s-.6.3-.6.911.246.912.6.912S-1581.322,2674.37-1581.322,2673.762Z" transform="translate(1587.25 -2669.468)"/></g><g transform="translate(10.112 68.322)"><path class="e" d="M-1650.233,2672.369a2.923,2.923,0,0,1,3.062-2.955,2.854,2.854,0,0,1,2.2.9l-.537.52a2.138,2.138,0,0,0-1.626-.685,2.183,2.183,0,0,0-2.27,2.22,2.182,2.182,0,0,0,2.27,2.22,2.148,2.148,0,0,0,1.626-.693l.537.52a2.867,2.867,0,0,1-2.2.908A2.921,2.921,0,0,1-1650.233,2672.369Z" transform="translate(1650.233 -2669.414)"/></g><g transform="translate(9.97 108.581)"><path class="e" d="M-1644.536,2744.966h-1.277v1.652h-.932v-1.652h-3.736v-.672l3.438-4.4h1.037l-3.295,4.246h2.584v-1.46h.9v1.46h1.277Z" transform="translate(1650.481 -2739.895)"/></g><g transform="translate(27.867 108.581)"><path class="e" d="M-1614.135,2744.6c0,1.162-.826,2.094-2.545,2.094a3.853,3.853,0,0,1-2.469-.816l.442-.759a3.019,3.019,0,0,0,2.017.72c1.018,0,1.595-.471,1.595-1.2,0-.758-.48-1.229-2.036-1.229h-1.527l.355-3.516h3.794v.836h-2.987l-.183,1.844h.749C-1614.923,2742.575-1614.135,2743.411-1614.135,2744.6Z" transform="translate(1619.149 -2739.895)"/></g><g transform="translate(46.639 108.505)"><path class="e" d="M-1581.081,2744.515a2.175,2.175,0,0,1-2.382,2.123c-1.806,0-2.823-1.21-2.823-3.353,0-2.3,1.3-3.525,3.179-3.525a3.236,3.236,0,0,1,1.671.394l-.365.75a2.327,2.327,0,0,0-1.287-.317c-1.364,0-2.238.854-2.238,2.536a2.07,2.07,0,0,0,.01.24,2.24,2.24,0,0,1,1.931-.884A2.077,2.077,0,0,1-1581.081,2744.515Zm-.931.038c0-.788-.6-1.3-1.537-1.3a1.394,1.394,0,0,0-1.546,1.306c0,.692.557,1.3,1.594,1.3A1.331,1.331,0,0,0-1582.012,2744.553Z" transform="translate(1586.286 -2739.761)"/></g><g transform="translate(9.682 128.455)"><path class="e" d="M-1648.517,2774.688v6.724h-.95v-5.888h-1.518v-.835Z" transform="translate(1650.986 -2774.688)"/></g><g transform="translate(27.839 128.379)"><path class="e" d="M-1614.147,2780.519v.836h-4.831v-.654l2.737-2.641c.711-.692.845-1.114.845-1.537,0-.691-.49-1.114-1.431-1.114a2.112,2.112,0,0,0-1.719.729l-.653-.567a3.1,3.1,0,0,1,2.459-1.018c1.4,0,2.3.72,2.3,1.873a2.723,2.723,0,0,1-1.1,2.113l-2.056,1.979Z" transform="translate(1619.199 -2774.554)"/></g><g transform="translate(46.225 128.455)"><path class="e" d="M-1582,2779.433c0,1.133-.836,2.056-2.545,2.056a3.813,3.813,0,0,1-2.469-.817l.442-.759a3.028,3.028,0,0,0,2.027.72c1.009,0,1.585-.461,1.585-1.191,0-.71-.509-1.172-1.662-1.172h-.537v-.672l1.691-2.075h-3.237v-.835h4.437v.653l-1.758,2.171C-1582.678,2777.637-1582,2778.4-1582,2779.433Z" transform="translate(1587.01 -2774.688)"/></g><g transform="translate(18.075 145.822)"><path class="e" d="M-1636.293,2808.529c0-2.189,1.172-3.438,2.747-3.438s2.737,1.249,2.737,3.438-1.172,3.439-2.737,3.439S-1636.293,2810.719-1636.293,2808.529Zm4.524,0c0-1.719-.73-2.583-1.777-2.583s-1.787.864-1.787,2.583.73,2.584,1.787,2.584S-1631.769,2810.249-1631.769,2808.529Z" transform="translate(1636.293 -2805.091)"/></g><g transform="translate(48.513 148.906)"><path class="e" d="M-1581.737,2811.144a1.944,1.944,0,0,1-.164.692l-.451,1.335h-.6l.355-1.431a.611.611,0,0,1-.4-.6.628.628,0,0,1,.643-.654A.619.619,0,0,1-1581.737,2811.144Z" transform="translate(1583.005 -2810.49)"/></g><g transform="translate(64.049 147.576)"><rect class="e" width="6.558" height="0.69"/></g><g transform="translate(64.049 149.656)"><rect class="e" width="6.558" height="0.69"/></g><g transform="translate(64.62 128.747)"><g transform="translate(0 2.197)"><g transform="translate(0.253 0.253)"><rect class="e" width="4.911" height="0.517"/></g><path class="e" d="M-1549.39,2780.066h-5.416v-1.022h5.416Zm-4.91-.505,4.405-.012Z" transform="translate(1554.806 -2779.044)"/></g><g transform="translate(2.197)"><g transform="translate(0.253 0.253)"><rect class="e" width="4.911" height="0.517" transform="translate(0 4.911) rotate(-90)"/></g><path class="e" d="M-1549.938,2780.614h-1.022V2775.2h1.022Zm-.516-.505h.011l-.011-4.405Z" transform="translate(1550.96 -2775.198)"/></g></g><g transform="translate(65.052 89.033)"><path class="e" d="M-1549.5,2706.394l-.723-.723-1.553,1.553-1.553-1.553-.723.723,1.553,1.553-1.553,1.554.723.722,1.553-1.553,1.553,1.553.723-.723-1.553-1.553Z" transform="translate(1554.05 -2705.672)"/></g><g transform="translate(64.62 111.499)"><g transform="translate(0.253 0.253)"><rect class="e" width="4.911" height="0.517"/></g><path class="e" d="M-1549.39,2746.026h-5.416V2745h5.416Zm-4.91-.505,4.405-.012Z" transform="translate(1554.806 -2745.003)"/></g><g transform="translate(64.62 71.104)"><g transform="translate(0.253 0.253)"><rect class="e" width="4.911" height="0.517"/></g><path class="e" d="M-1549.39,2675.307h-5.416v-1.023h5.416Zm-4.91-.506,4.405-.012Z" transform="translate(1554.806 -2674.284)"/></g><g transform="translate(66.505 68.09)"><circle class="e" cx="0.824" cy="0.824" r="0.824"/></g><g transform="translate(66.505 73.342)"><path class="e" d="M-1549.86,2679.026a.824.824,0,0,1-.824.824.824.824,0,0,1-.824-.824.824.824,0,0,1,.824-.824A.824.824,0,0,1-1549.86,2679.026Z" transform="translate(1551.507 -2678.202)"/></g><g transform="translate(27.053 68.465)"><g transform="translate(3.302 1.278)"><path class="e" d="M-1612.035,2672.34l-.438-.438-.941.942-.942-.942-.438.438.942.941-.942.941.438.438.942-.942.941.942.438-.438-.942-.941Z" transform="translate(1614.795 -2671.902)"/></g><path class="e" d="M-1613.368,2674.981h-4.71a.838.838,0,0,1-.613-.271l-1.656-1.8a.874.874,0,0,1,0-1.177l1.656-1.8a.835.835,0,0,1,.613-.271h4.71a.851.851,0,0,1,.841.859v3.6A.851.851,0,0,1-1613.368,2674.981Zm-4.71-4.745a.259.259,0,0,0-.192.086l-1.657,1.8a.3.3,0,0,0,0,.4l1.657,1.8a.262.262,0,0,0,.192.087h4.71a.279.279,0,0,0,.269-.288v-3.6a.279.279,0,0,0-.269-.288Z" transform="translate(1620.575 -2669.664)"/></g><g transform="translate(33.268 40.227)"><path class="e" d="M-1605.9,2620.377v11.952h-.871v-11.167h-2.919v-.785Z" transform="translate(1609.694 -2620.292)"/><path class="e" d="M-1589.826,2620.377v.615l-5.139,11.337h-.956l5.088-11.167h-6.71v2.288h-.854v-3.074Z" transform="translate(1604.85 -2620.292)"/><path class="e" d="M-1573.528,2628.966c0,1.981-1.434,3.449-4.183,3.449a5.748,5.748,0,0,1-4.217-1.6l.444-.666a5.1,5.1,0,0,0,3.773,1.468c2.151,0,3.3-1.024,3.3-2.646,0-1.605-1.093-2.647-3.483-2.647h-.751v-.631l3.534-4.525h-6.368v-.785h7.5v.615l-3.585,4.592C-1574.859,2625.653-1573.528,2627.019-1573.528,2628.966Z" transform="translate(1597.788 -2620.292)"/><path class="e" d="M-1555.066,2628.987c0,2.083-1.724,3.364-4.542,3.364s-4.508-1.281-4.508-3.364a3,3,0,0,1,2.544-2.971,2.732,2.732,0,0,1-2.117-2.7c0-1.912,1.6-3.09,4.081-3.09s4.115,1.178,4.115,3.09a2.745,2.745,0,0,1-2.152,2.7A3.026,3.026,0,0,1-1555.066,2628.987Zm-.871,0c0-1.588-1.366-2.6-3.671-2.6s-3.637,1.007-3.637,2.6c0,1.6,1.332,2.612,3.637,2.612S-1555.937,2630.592-1555.937,2628.987Zm-3.671-3.312c2.032,0,3.244-.905,3.244-2.323,0-1.469-1.264-2.373-3.244-2.373s-3.21.9-3.21,2.356C-1562.818,2624.77-1561.64,2625.675-1559.608,2625.675Z" transform="translate(1590.151 -2620.228)"/></g></g></g><g transform="translate(-1574.94 2534.558)"><g transform="translate(27.071 36.377)"><g transform="translate(11.017 21.043)"><rect class="e" width="32.162" height="1.564"/></g><path class="e" d="M-1441.407,2719.074l-6.033-22.607h25.113l5.463,22.607Z" transform="translate(1447.44 -2696.466)"/><g transform="translate(1.414 1.045)"><path class="b" d="M-1417.307,2718.146h-22.435l-5.222-19.851h22.55Z" transform="translate(1444.964 -2698.295)"/></g><g transform="translate(1.414 1.045)"><path class="b" d="M-1444.589,2699.722h22.554l-.379-1.427h-22.55Z" transform="translate(1444.964 -2698.295)"/></g><g transform="translate(2.528 1.512)"><g transform="translate(1.697)"><path class="l" d="M-1440.043,2699.359a.246.246,0,0,0,.246.247.246.246,0,0,0,.247-.247.246.246,0,0,0-.247-.246A.246.246,0,0,0-1440.043,2699.359Z" transform="translate(1440.043 -2699.113)"/></g><g transform="translate(0.848)"><path class="l" d="M-1441.529,2699.359a.247.247,0,0,0,.247.247.246.246,0,0,0,.246-.247.246.246,0,0,0-.246-.246A.247.247,0,0,0-1441.529,2699.359Z" transform="translate(1441.529 -2699.113)"/></g><path class="l" d="M-1443.014,2699.359a.246.246,0,0,0,.246.247.247.247,0,0,0,.247-.247.247.247,0,0,0-.247-.246A.246.246,0,0,0-1443.014,2699.359Z" transform="translate(1443.014 -2699.113)"/></g><g transform="translate(6.425 6.106)"><g transform="translate(8.327 1.462)"><path class="f" d="M-1417.627,2713.318l2.469,2.825a3.489,3.489,0,0,0,1.517-2.841,3.827,3.827,0,0,0-4-3.586,3.827,3.827,0,0,0-3.972,3.617Z" transform="translate(1421.613 -2709.716)"/></g><g transform="translate(7.993 5.454)"><path class="e" d="M-1418.191,2716.767a5.65,5.65,0,0,1,.7.707c.441.473,1.072,1.163,1.826,2.008l.086.1-.106.08a4.272,4.272,0,0,1-4.164.408,4.069,4.069,0,0,1-1.713-1.377,3.513,3.513,0,0,1-.635-1.855l0-.125h.123c1.182-.006,2.16,0,2.838.01a6.067,6.067,0,0,1,1.045.051,7.3,7.3,0,0,1-1.087.084c-.68.032-1.643.067-2.793.1l.119-.126a3.327,3.327,0,0,0,.615,1.71,3.868,3.868,0,0,0,1.6,1.276,4.094,4.094,0,0,0,3.914-.344l-.021.175c-.715-.837-1.305-1.543-1.717-2.046A6.817,6.817,0,0,1-1418.191,2716.767Z" transform="translate(1422.198 -2716.704)"/></g><g transform="translate(10.387 2.708)"><path class="e" d="M-1418.007,2712.12a.224.224,0,0,0,.224.223.224.224,0,0,0,.223-.224.224.224,0,0,0-.224-.223A.224.224,0,0,0-1418.007,2712.12Z" transform="translate(1418.007 -2711.896)"/></g><g transform="translate(5.944 1.163)"><path class="e" d="M-1425.785,2709.343a12.778,12.778,0,0,1,2.668-.151h.414l.041.04a10.536,10.536,0,0,1,1.543,1.728,10.557,10.557,0,0,1-1.74-1.53l.1.04-.356,0A12.778,12.778,0,0,1-1425.785,2709.343Z" transform="translate(1425.785 -2709.192)"/></g><path class="e" d="M-1435.3,2711.3a8.261,8.261,0,0,1-.255-1.042c-.151-.686-.365-1.687-.611-2.914l-.027-.135h.14l5.581-.048.139.115h0v.006l0,.008,0,.017.006.034.013.067.025.133.05.265.1.523.191,1.02c.123.665.24,1.3.351,1.9l.028.152h-.152c-1.676,0-3.088-.024-4.068-.044l-1.132-.03a1.651,1.651,0,0,1-.383-.031,2.492,2.492,0,0,1,.432-.034l1.157-.039c.986-.028,2.366-.059,3.993-.076l-.125.151-.37-1.9q-.1-.5-.2-1.019c-.033-.173-.066-.348-.1-.524l-.05-.264-.026-.133-.013-.066-.006-.034,0-.017,0-.008v-.006h0c-.124-.1.169.139.138.115l-5.582,0,.112-.135c.212,1.187.375,2.173.486,2.873A10.8,10.8,0,0,1-1435.3,2711.3Z" transform="translate(1436.191 -2707.156)"/><g transform="translate(6.223 7.202)"><g transform="translate(3.832)"><path class="e" d="M-1418.588,2719.989a.223.223,0,0,0,.224.223.223.223,0,0,0,.223-.225.223.223,0,0,0-.225-.223A.223.223,0,0,0-1418.588,2719.989Z" transform="translate(1418.588 -2719.765)"/></g><g transform="translate(0 0.091)"><path class="e" d="M-1425.3,2720.073a7.432,7.432,0,0,1,2.027-.148,7.432,7.432,0,0,1,2.028.132,7.445,7.445,0,0,1-2.027.148A7.429,7.429,0,0,1-1425.3,2720.073Z" transform="translate(1425.296 -2719.924)"/></g></g><g transform="translate(0.026 6.096)"><path class="e" d="M-1435.258,2720.936a4.681,4.681,0,0,1-.245-.746c-.147-.5-.359-1.232-.607-2.148l-.035-.129.137,0c1.519-.028,3.542-.049,5.755-.058l.137.106h0v.01l0,.012.006.024.012.048.025.1.049.192.1.38.189.745q.185.732.356,1.414l.042.165h-.169c-1.707,0-3.162-.022-4.178-.043l-1.178-.032a1.633,1.633,0,0,1-.4-.034,2.527,2.527,0,0,1,.451-.037l1.2-.041c1.021-.029,2.444-.061,4.1-.077l-.127.165-.369-1.411-.192-.744-.1-.38-.049-.192-.025-.1-.013-.049-.006-.024,0-.012,0-.006v0h0l.136.1c-2.213.009-4.236,0-5.756-.012l.1-.132c.213.883.377,1.609.489,2.121A6.461,6.461,0,0,1-1435.258,2720.936Z" transform="translate(1436.145 -2717.828)"/></g><g transform="translate(1.335 1.236)"><path class="e" d="M-1433.853,2709.467a6.6,6.6,0,0,1,1.909-.148,6.608,6.608,0,0,1,1.91.133,6.589,6.589,0,0,1-1.909.148A6.605,6.605,0,0,1-1433.853,2709.467Z" transform="translate(1433.853 -2709.319)"/></g><g transform="translate(1.383 1.86)"><path class="e" d="M-1433.77,2710.562a6.682,6.682,0,0,1,1.92-.148,6.69,6.69,0,0,1,1.922.133,6.672,6.672,0,0,1-1.92.148A6.69,6.69,0,0,1-1433.77,2710.562Z" transform="translate(1433.77 -2710.413)"/></g><g transform="translate(1.497 2.464)"><path class="e" d="M-1433.57,2711.617a6.23,6.23,0,0,1,1.853-.148,6.241,6.241,0,0,1,1.854.133,6.231,6.231,0,0,1-1.853.148A6.246,6.246,0,0,1-1433.57,2711.617Z" transform="translate(1433.57 -2711.469)"/></g><g transform="translate(1.449 7.243)"><path class="e" d="M-1433.655,2719.984a6.008,6.008,0,0,1,1.82-.147,6.02,6.02,0,0,1,1.821.133,6.014,6.014,0,0,1-1.819.148A5.994,5.994,0,0,1-1433.655,2719.984Z" transform="translate(1433.655 -2719.837)"/></g><g transform="translate(1.675 7.936)"><path class="e" d="M-1433.259,2721.2a4.394,4.394,0,0,1,1.552-.147,4.409,4.409,0,0,1,1.553.134,4.4,4.4,0,0,1-1.552.147A4.408,4.408,0,0,1-1433.259,2721.2Z" transform="translate(1433.259 -2721.049)"/></g></g></g><g transform="translate(0 58.91)"><path class="e" d="M-1494.833,2735.915v2.965h1.942v60.028h3.984V2738.88h21.144v60.028h3.984V2738.88h91.723v60.013h3.984V2738.88h1.725v-2.965Z" transform="translate(1494.833 -2735.915)"/></g><g transform="translate(86.382 81.169)"><path class="e" d="M-1343.6,2774.992a15.53,15.53,0,0,0,2.59.109,15.526,15.526,0,0,0,2.591-.109,15.546,15.546,0,0,0-2.591-.108A15.55,15.55,0,0,0-1343.6,2774.992Z" transform="translate(1343.605 -2774.883)"/></g><g transform="translate(48.509 81.752)"><ellipse class="k" cx="0.141" cy="0.069" rx="0.141" ry="0.069"/></g><g transform="translate(39.394 0)"><g transform="translate(12.022 5.532)"><path class="m" d="M-1382.2,2665.394l-14.88-15.118-.322-1.637c-.062-.3-.124-.634-.182-1.013a4.017,4.017,0,0,1,.023-1.332,6.062,6.062,0,0,1,.459-1.584c.251-.437-.151-.965-.565-.785a4.221,4.221,0,0,0-1.289,3c-.155,1.633-1.548-.533-2.07-1.314s-2.244-3.119-2.6-3.146c-.527-.041-.661.53-.123,1.3s2,3.182,1.583,3.441l-.016,0a1.947,1.947,0,0,0-2.055,1.02c-.375.721-.794,1.744-.451,2.216a26.788,26.788,0,0,0,2.373,2.513l.5.428s12.874,18.654,15.68,19.26c1.745.377,28.723,2.615,28.723,2.615l2.035-7.433Z" transform="translate(1404.821 -2642.465)"/><g transform="translate(0.01 6.613)"><g transform="translate(0.002 0.001)"><path class="m" d="M-1404.8,2655.09l1.377,1.322a1.644,1.644,0,0,0,.518.381.56.56,0,0,0,.6-.1.556.556,0,0,0,.081-.552,1.637,1.637,0,0,0-.316-.49l-1.338-1.608" transform="translate(1404.8 -2654.045)"/></g><path class="n" d="M-1403.878,2654.045c.03-.025.288.231.681.664l.681.77a2.57,2.57,0,0,1,.379.514.728.728,0,0,1-.038.765.674.674,0,0,1-.753.173,1.529,1.529,0,0,1-.539-.379l-.721-.734a3.236,3.236,0,0,1-.614-.728,3.235,3.235,0,0,1,.752.584l.761.689a1.349,1.349,0,0,0,.45.307.41.41,0,0,0,.443-.086.468.468,0,0,0,.009-.472,2.531,2.531,0,0,0-.329-.467l-.634-.809A3.2,3.2,0,0,1-1403.878,2654.045Z" transform="translate(1404.804 -2654.043)"/></g><g transform="translate(0.987 5.651)"><g transform="translate(0.002 0.002)"><path class="m" d="M-1403.09,2653.406l1.377,1.322a1.633,1.633,0,0,0,.519.38.556.556,0,0,0,.6-.1.552.552,0,0,0,.081-.552,1.632,1.632,0,0,0-.316-.49l-1.338-1.608" transform="translate(1403.09 -2652.361)"/></g><path class="n" d="M-1402.168,2652.36c.03-.025.288.23.682.665l.68.77a2.517,2.517,0,0,1,.379.514.727.727,0,0,1-.038.765.673.673,0,0,1-.753.172,1.518,1.518,0,0,1-.539-.379l-.721-.734a3.229,3.229,0,0,1-.614-.728,3.228,3.228,0,0,1,.752.584l.761.689a1.333,1.333,0,0,0,.45.307.408.408,0,0,0,.443-.086.465.465,0,0,0,.01-.472,2.552,2.552,0,0,0-.33-.466l-.634-.81A3.223,3.223,0,0,1-1402.168,2652.36Z" transform="translate(1403.094 -2652.358)"/></g><g transform="translate(2.059 4.862)"><g transform="translate(0.002 0.002)"><path class="m" d="M-1401.213,2652.025l1.377,1.322a1.631,1.631,0,0,0,.518.381.559.559,0,0,0,.6-.1.557.557,0,0,0,.081-.553,1.634,1.634,0,0,0-.317-.49l-1.338-1.608" transform="translate(1401.213 -2650.98)"/></g><path class="n" d="M-1400.292,2650.979c.03-.025.288.23.682.664l.68.771a2.555,2.555,0,0,1,.38.514.728.728,0,0,1-.038.764.675.675,0,0,1-.753.173,1.515,1.515,0,0,1-.539-.38l-.721-.734a3.229,3.229,0,0,1-.614-.727,3.234,3.234,0,0,1,.752.584l.762.689a1.338,1.338,0,0,0,.45.307.409.409,0,0,0,.443-.087.466.466,0,0,0,.009-.472,2.507,2.507,0,0,0-.33-.467l-.634-.809A3.237,3.237,0,0,1-1400.292,2650.979Z" transform="translate(1401.217 -2650.977)"/></g><g transform="translate(4.237 5.952)"><path class="n" d="M-1397.4,2655.13c0-.045.341-.114.839.04l-.159.135a2.356,2.356,0,0,1-.035-.945,2.408,2.408,0,0,1,.515-1.151c.212-.248.391-.345.413-.319a4.938,4.938,0,0,0-.652,1.514,2.82,2.82,0,0,0-.008.853l.029.216-.187-.08C-1397.079,2655.209-1397.406,2655.185-1397.4,2655.13Z" transform="translate(1397.404 -2652.886)"/></g></g><g transform="translate(38.342)"><g transform="translate(2.338 3.248)"><path class="m" d="M-1341.2,2641.016l.063,20.708-8.075.385-.327-4.963s-3.9.592-4.709-2.339c-.521-1.872-.39-16.34-.39-16.34Z" transform="translate(1354.648 -2638.467)"/></g><path class="e" d="M-1358.4,2638.071c.6,1.237,3.448,3.5,3.448,3.5l1.288,3.45c1.118-.876,2.619-.825,2.9,1.139.206,1.42-1.56,1.707-1.56,1.707a25.743,25.743,0,0,0,3.221,4.827c1.619,1.8,2.527,1.981,4.283,2.011h1.936s3.963-3.312,3.18-12.034-8.625-6.178-10.5-8.357C-1353.24,2630.767-1360.393,2633.94-1358.4,2638.071Z" transform="translate(1358.742 -2632.781)"/><g transform="translate(0.424 3.332)"><path class="k" d="M-1339.818,2652.468a2.783,2.783,0,0,1-.958-.044,4.986,4.986,0,0,1-2.313-1.19,12.579,12.579,0,0,1-2.338-3.093,11.145,11.145,0,0,0-2.968-3.63,11.91,11.91,0,0,0-4.474-1.421,8.435,8.435,0,0,1-3.612-1.374,3.879,3.879,0,0,1-1.447-2.144,2.219,2.219,0,0,1-.039-.958,3.273,3.273,0,0,0,.082.948,3.887,3.887,0,0,0,1.453,2.091,8.447,8.447,0,0,0,3.584,1.336,11.872,11.872,0,0,1,4.517,1.43,11.145,11.145,0,0,1,2.993,3.669,12.692,12.692,0,0,0,2.3,3.087,5.035,5.035,0,0,0,2.269,1.207,3.946,3.946,0,0,0,.7.083C-1339.9,2652.462-1339.818,2652.468-1339.818,2652.468Z" transform="translate(1358 -2638.614)"/></g><g transform="translate(0.526 2.178)"><path class="k" d="M-1339.284,2644.507s-.145-.042-.418-.127a6.247,6.247,0,0,0-1.216-.27,2.725,2.725,0,0,0-1.87.419,1.531,1.531,0,0,0-.65.982,1.365,1.365,0,0,0,.376,1.235,1.044,1.044,0,0,0,.653.259,1.374,1.374,0,0,0,.719-.2,2.2,2.2,0,0,0,.976-1.246,3.092,3.092,0,0,0-.863-3.277,3.108,3.108,0,0,0-1.742-.776,5.419,5.419,0,0,0-2.007.264,14.181,14.181,0,0,1-2.078.5,8.44,8.44,0,0,1-2.2.006,7.282,7.282,0,0,1-2.124-.588,2.567,2.567,0,0,1-1.454-1.533,2,2,0,0,1,.494-1.956,1.726,1.726,0,0,1,1.9-.281,1.451,1.451,0,0,1,.7.662,1.58,1.58,0,0,1,.149.928,2.11,2.11,0,0,1-.945,1.48,3.035,3.035,0,0,1-1.6.444,4.711,4.711,0,0,1-1.513-.233,5.423,5.423,0,0,1-2.223-1.37,5.713,5.713,0,0,1-1.135-1.62,5.774,5.774,0,0,1-.4-1.186c-.048-.282-.067-.431-.067-.431s.035.147.09.427a6.065,6.065,0,0,0,.419,1.172,5.718,5.718,0,0,0,1.14,1.594,5.374,5.374,0,0,0,2.2,1.339,4.636,4.636,0,0,0,1.487.222,2.947,2.947,0,0,0,1.546-.435,2.016,2.016,0,0,0,.9-1.414,1.386,1.386,0,0,0-.8-1.484,1.621,1.621,0,0,0-1.779.263,1.9,1.9,0,0,0-.462,1.849,2.459,2.459,0,0,0,1.4,1.462,7.2,7.2,0,0,0,2.09.578,8.334,8.334,0,0,0,2.173-.005,14.136,14.136,0,0,0,2.063-.494,5.513,5.513,0,0,1,2.047-.264,3.207,3.207,0,0,1,1.8.806,3.189,3.189,0,0,1,.882,3.384,2.293,2.293,0,0,1-1.021,1.292,1.453,1.453,0,0,1-.765.2,1.119,1.119,0,0,1-.7-.283,1.44,1.44,0,0,1-.394-1.307,1.6,1.6,0,0,1,.684-1.021,2.767,2.767,0,0,1,1.912-.411,5.985,5.985,0,0,1,1.217.292C-1339.423,2644.45-1339.284,2644.507-1339.284,2644.507Z" transform="translate(1357.821 -2636.594)"/></g></g><g transform="translate(43.99 108.477)"><path class="f" d="M-1345.7,2831.062l-2.639-3.386,6.311-4.984,3.914,4.913-.372.334c-1.665,1.472-8.57,7.367-10.013,7.934C-1350.111,2836.5-1345.7,2831.062-1345.7,2831.062Z" transform="translate(1348.855 -2822.691)"/><g class="o" transform="translate(0.003 4.78)"><path class="d" d="M-1347.781,2837.4s-1.451,2.027-.972,2.15,7.681-5.57,10.639-8.36l-.122-.133-8.345,6.714S-1347.4,2837.128-1347.781,2837.4Z" transform="translate(1348.85 -2831.06)"/></g><g transform="translate(0.015 4.698)"><path class="e" d="M-1338.131,2830.916a.759.759,0,0,1-.1.1l-.3.265-1.108.956c-.941.8-2.255,1.889-3.733,3.06s-2.84,2.2-3.834,2.933l-1.185.859-.326.228a.753.753,0,0,1-.118.074.7.7,0,0,1,.106-.09l.315-.243,1.165-.883c.984-.747,2.337-1.784,3.815-2.954s2.8-2.25,3.75-3.037l1.127-.932.309-.251A.69.69,0,0,1-1338.131,2830.916Z" transform="translate(1348.829 -2830.916)"/></g><g transform="translate(0.967 11.034)"><path class="e" d="M-1345.778,2842.565a3.313,3.313,0,0,0-.647-.378,3.264,3.264,0,0,0-.738-.13,1.075,1.075,0,0,1,.771.038A1.078,1.078,0,0,1-1345.778,2842.565Z" transform="translate(1347.162 -2842.008)"/></g><g transform="translate(2.717 8.906)"><path class="e" d="M-1343.349,2838.552a.85.85,0,0,1-.39-.085c-.207-.072-.367-.151-.358-.177a.846.846,0,0,1,.39.085C-1343.5,2838.447-1343.34,2838.526-1343.349,2838.552Z" transform="translate(1344.098 -2838.282)"/></g><g transform="translate(3.09 8.427)"><path class="e" d="M-1342.772,2837.518c0,.027-.154.04-.34.028s-.335-.043-.334-.07.154-.04.34-.027S-1342.77,2837.491-1342.772,2837.518Z" transform="translate(1343.445 -2837.444)"/></g><g transform="translate(2.961 7.648)"><path class="e" d="M-1343.017,2836.083c.017.021-.116.156-.3.3s-.34.248-.358.226.115-.156.3-.3S-1343.034,2836.062-1343.017,2836.083Z" transform="translate(1343.672 -2836.08)"/></g><g transform="translate(2.692 7.142)"><path class="e" d="M-1343.439,2835.2a.825.825,0,0,1-.283.4.817.817,0,0,1-.419.249c-.014-.024.163-.144.353-.321S-1343.463,2835.18-1343.439,2835.2Z" transform="translate(1344.142 -2835.194)"/></g><g transform="translate(1.302 8.656)"><path class="e" d="M-1345.06,2837.983a1.478,1.478,0,0,1-.407.318,2.976,2.976,0,0,1-.507.246,1.512,1.512,0,0,1-.328.094.278.278,0,0,1-.2-.047.2.2,0,0,1-.066-.21.947.947,0,0,1,1.091-.51.923.923,0,0,1,.346.166c.071.056.1.1.1.1a1.471,1.471,0,0,0-.458-.2.925.925,0,0,0-.524.049.8.8,0,0,0-.457.415c-.027.1.058.155.163.141a1.514,1.514,0,0,0,.3-.083,3.6,3.6,0,0,0,.5-.221C-1345.225,2838.093-1345.07,2837.971-1345.06,2837.983Z" transform="translate(1346.576 -2837.845)"/></g><g transform="translate(2.335 7.772)"><path class="e" d="M-1344.374,2837.423c0,.009-.144-.048-.27-.244a.851.851,0,0,1-.123-.384.518.518,0,0,1,.174-.473.205.205,0,0,1,.273.088.566.566,0,0,1,.074.236,1.531,1.531,0,0,1,0,.4.737.737,0,0,1-.1.348c-.015,0,.023-.137.034-.353a1.8,1.8,0,0,0-.022-.378c-.013-.13-.1-.313-.212-.251s-.133.253-.131.383a.852.852,0,0,0,.094.354A1.915,1.915,0,0,0-1344.374,2837.423Z" transform="translate(1344.767 -2836.297)"/></g><g transform="translate(7.924 3.073)"><path class="e" d="M-1333.687,2828.071c.01.016-.194.126-.453.385a2.6,2.6,0,0,0-.685,1.223,2.6,2.6,0,0,0,.075,1.4c.118.347.252.536.237.545s-.043-.04-.1-.127a2.143,2.143,0,0,1-.2-.394,2.484,2.484,0,0,1-.105-1.446,2.485,2.485,0,0,1,.733-1.25,2.073,2.073,0,0,1,.354-.266A.475.475,0,0,1-1333.687,2828.071Z" transform="translate(1334.983 -2828.071)"/></g><g transform="translate(6.489 0.965)"><path class="e" d="M-1337.494,2824.381a14.232,14.232,0,0,1,1.079,1.253,14.174,14.174,0,0,1,1,1.314,14.068,14.068,0,0,1-1.08-1.252A13.954,13.954,0,0,1-1337.494,2824.381Z" transform="translate(1337.494 -2824.38)"/></g><g transform="translate(5.301 6.683)"><path class="e" d="M-1337.745,2834.392a4.562,4.562,0,0,1-.849.819,4.551,4.551,0,0,1-.981.656c-.015-.024.417-.324.92-.731S-1337.765,2834.371-1337.745,2834.392Z" transform="translate(1339.575 -2834.391)"/></g><g transform="translate(8.324 5.704)"><path class="e" d="M-1334.241,2832.677c.027,0,.035.114.068.242s.076.229.053.246-.111-.074-.148-.222S-1334.266,2832.672-1334.241,2832.677Z" transform="translate(1334.283 -2832.677)"/></g><g transform="translate(8.296 4.756)"><path class="e" d="M-1334.254,2831.017c.027,0,.038.1.025.218s-.045.211-.072.208-.038-.1-.025-.218S-1334.281,2831.014-1334.254,2831.017Z" transform="translate(1334.332 -2831.017)"/></g><g transform="translate(8.547 3.957)"><path class="e" d="M-1333.608,2829.625c.013.025-.072.09-.139.2s-.094.208-.122.207-.044-.13.041-.26S-1333.617,2829.6-1333.608,2829.625Z" transform="translate(1333.891 -2829.618)"/></g><g transform="translate(9.062 3.46)"><path class="e" d="M-1332.846,2828.752c.023.014.013.075-.023.136s-.085.1-.108.087-.013-.075.024-.136S-1332.869,2828.738-1332.846,2828.752Z" transform="translate(1332.99 -2828.749)"/></g><g class="h" transform="translate(2.102 2.473)"><path class="f" d="M-1338.2,2827.458l-6.385,4.878-.591-.768,6.71-4.549Z" transform="translate(1345.175 -2827.02)"/></g></g><g transform="translate(12.666 115.925)"><g transform="translate(0.024)"><path class="f" d="M-1398.222,2840.052l.012-4.293,8.042-.029.049,6.281-.5.033c-2.219.131-11.29.511-12.775.067C-1405.049,2841.616-1398.222,2840.052-1398.222,2840.052Z" transform="translate(1403.652 -2835.73)"/></g><g class="o" transform="translate(0 5.205)"><path class="d" d="M-1401.575,2844.843s-2.392.7-2.092,1.093,9.482.354,13.531-.017l-.014-.18-10.709.137S-1401.107,2844.861-1401.575,2844.843Z" transform="translate(1403.693 -2844.843)"/></g><g transform="translate(0.023 6.092)"><path class="e" d="M-1390.007,2846.4a.668.668,0,0,1-.138.016l-.4.026-1.462.069c-1.234.049-2.941.1-4.826.1s-3.592-.02-4.827-.057l-1.462-.055-.4-.022a.719.719,0,0,1-.138-.014.869.869,0,0,1,.139,0l.4,0,1.462.023c1.235.02,2.941.038,4.825.028s3.589-.045,4.824-.077l1.462-.038.4-.007A.868.868,0,0,1-1390.007,2846.4Z" transform="translate(1403.653 -2846.395)"/></g><g transform="translate(2.059 5.106)"><path class="e" d="M-1399.312,2845.927a3.294,3.294,0,0,0-.276-.7,3.29,3.29,0,0,0-.5-.557,1.084,1.084,0,0,1,.584.506A1.081,1.081,0,0,1-1399.312,2845.927Z" transform="translate(1400.089 -2844.67)"/></g><g transform="translate(4.773 4.481)"><path class="e" d="M-1394.907,2844.242c-.023.015-.136-.123-.255-.307s-.2-.345-.173-.36.136.123.255.307S-1394.884,2844.228-1394.907,2844.242Z" transform="translate(1395.338 -2843.574)"/></g><g transform="translate(5.348 4.35)"><path class="e" d="M-1393.825,2843.8c-.018.02-.146-.064-.284-.188s-.237-.241-.219-.261.145.064.284.188S-1393.807,2843.778-1393.825,2843.8Z" transform="translate(1394.331 -2843.346)"/></g><g transform="translate(5.422 3.999)"><path class="e" d="M-1393.361,2842.773a.959.959,0,0,1-.42.055.942.942,0,0,1-.421-.042.946.946,0,0,1,.419-.055A.957.957,0,0,1-1393.361,2842.773Z" transform="translate(1394.201 -2842.73)"/></g><g transform="translate(5.45 3.498)"><path class="e" d="M-1393.2,2841.861a.819.819,0,0,1-.468.138.819.819,0,0,1-.484-.062,2.621,2.621,0,0,1,.477-.034A2.538,2.538,0,0,1-1393.2,2841.861Z" transform="translate(1394.153 -2841.853)"/></g><g transform="translate(3.411 3.73)"><path class="e" d="M-1396.205,2842.979a1.5,1.5,0,0,1-.516,0,3.036,3.036,0,0,1-.551-.119,1.471,1.471,0,0,1-.316-.129.276.276,0,0,1-.129-.16.2.2,0,0,1,.078-.207.947.947,0,0,1,1.173.273.921.921,0,0,1,.17.344.288.288,0,0,1,.014.139,1.464,1.464,0,0,0-.238-.44.93.93,0,0,0-.443-.285.8.8,0,0,0-.616.044c-.082.061-.049.157.042.212a1.579,1.579,0,0,0,.291.123,3.6,3.6,0,0,0,.533.136C-1396.4,2842.963-1396.205,2842.962-1396.205,2842.979Z" transform="translate(1397.722 -2842.26)"/></g><g transform="translate(4.729 3.473)"><path class="e" d="M-1395.349,2842.812a.509.509,0,0,1-.061-.359.854.854,0,0,1,.139-.378.52.52,0,0,1,.43-.265.206.206,0,0,1,.16.238.559.559,0,0,1-.087.231,1.57,1.57,0,0,1-.243.314.741.741,0,0,1-.295.21c-.009-.012.1-.093.244-.257a1.8,1.8,0,0,0,.215-.311c.071-.109.118-.306-.011-.329s-.261.118-.339.221a.841.841,0,0,0-.145.336A1.879,1.879,0,0,0-1395.349,2842.812Z" transform="translate(1395.414 -2841.809)"/></g><g transform="translate(10.647 3.844)"><path class="e" d="M-1382.205,2842.511c0,.018-.231-.021-.594.024a2.6,2.6,0,0,0-1.294.54,2.6,2.6,0,0,0-.805,1.148c-.121.345-.132.577-.15.574a.465.465,0,0,1,0-.162,2.133,2.133,0,0,1,.086-.434,2.486,2.486,0,0,1,.809-1.2,2.482,2.482,0,0,1,1.348-.532,2.065,2.065,0,0,1,.442.009A.45.45,0,0,1-1382.205,2842.511Z" transform="translate(1385.054 -2842.459)"/></g><g transform="translate(12.62 0.553)"><path class="e" d="M-1381.572,2836.7a13.807,13.807,0,0,1,.077,1.652,13.927,13.927,0,0,1-.021,1.653,14.072,14.072,0,0,1-.077-1.652A14.133,14.133,0,0,1-1381.572,2836.7Z" transform="translate(1381.6 -2836.698)"/></g><g transform="translate(7.276 5.44)"><path class="e" d="M-1388.606,2845.262a4.617,4.617,0,0,1-1.174.122,4.515,4.515,0,0,1-1.176-.09c0-.028.527,0,1.175-.008S-1388.61,2845.234-1388.606,2845.262Z" transform="translate(1390.956 -2845.253)"/></g><g transform="translate(10.973 5.436)"><path class="e" d="M-1384.254,2845.251c.02.02-.043.111-.1.232s-.082.228-.11.226-.042-.127.021-.266S-1384.272,2845.231-1384.254,2845.251Z" transform="translate(1384.483 -2845.248)"/></g><g transform="translate(11.488 4.694)"><path class="e" d="M-1383.277,2843.951c.019.019-.032.1-.115.188s-.166.138-.185.119.033-.1.115-.187S-1383.3,2843.932-1383.277,2843.951Z" transform="translate(1383.581 -2843.948)"/></g><g transform="translate(12.182 4.311)"><path class="e" d="M-1381.907,2843.323c-.006.027-.113.026-.231.069s-.2.105-.224.087.046-.129.193-.179S-1381.9,2843.3-1381.907,2843.323Z" transform="translate(1382.366 -2843.277)"/></g><g transform="translate(13.003 4.176)"><path class="e" d="M-1380.687,2843.059c.01.025-.036.067-.1.093s-.129.027-.139,0,.036-.067.1-.093S-1380.7,2843.034-1380.687,2843.059Z" transform="translate(1380.93 -2843.041)"/></g><g class="h" transform="translate(5.45 2.56)"><path class="f" d="M-1386.046,2841.225l-8.107.008.009-.969,8.069-.053Z" transform="translate(1394.153 -2840.211)"/></g></g><g transform="translate(0 42.592)"><g transform="translate(10.92)"><path class="m" d="M-1379.7,2710.9l-3.22,9.7c-.87,2.619-3.158,3.067-5.918,3.067h-17.913v-4.019l16.365-2.336,3.9-9.963Z" transform="translate(1406.75 -2707.347)"/></g><g transform="translate(0 7.946)"><path class="m" d="M-1416.916,2724.777l-1.421-.673s-1.531-2.961-1.884-2.843-.454.99.161,2.351l-1.888-.54s-4.094,1.892-3.912,2.146a.945.945,0,0,0,1.408.4c.892-.457,2.06-.991,2.06-.991l2.206.63-2.844.361-2.675,2.434a1.31,1.31,0,0,0,1.636-.041l6.948,1.492,2.176.124v-4.019Z" transform="translate(1425.867 -2721.258)"/><g transform="translate(1.793 5.332)"><path class="n" d="M-1422.725,2732.017c.03.019.159-.187.409-.459a2.128,2.128,0,0,1,.505-.391,2.088,2.088,0,0,1,.751-.2,10.324,10.324,0,0,0,2.085-.355,10.358,10.358,0,0,0-2.112.14,2.042,2.042,0,0,0-.824.239,1.929,1.929,0,0,0-.522.463A1.237,1.237,0,0,0-1422.725,2732.017Z" transform="translate(1422.729 -2730.593)"/></g><g transform="translate(2.857 6.503)"><path class="n" d="M-1420.84,2733.175c.026,0,.048-.144.243-.186s.515-.073.844-.107a6.931,6.931,0,0,0,1.221-.125,2.445,2.445,0,0,0-1.242-.092,3.707,3.707,0,0,0-.875.179.349.349,0,0,0-.211.219C-1420.877,2733.138-1420.853,2733.177-1420.84,2733.175Z" transform="translate(1420.866 -2732.642)"/></g></g></g><g transform="translate(29.368 24.378)"><path class="f" d="M-1364.333,2695.114l-1.378,4.667-8.743-3.958c.314-.976,1.76-5.329,4.528-12.235a11.874,11.874,0,0,1,9.063-7.305,51.84,51.84,0,0,1,8.372-.821c4.9.054,12.12,3.119,13.09,7.925.74,3.669.026,10.146.026,18.015l-.639,15.036-25.124.852Z" transform="translate(1374.454 -2675.459)"/><g class="h" transform="translate(16.427 22.182)"><path class="f" d="M-1327.07,2714.572c-3.057.626-6.2-.005-9.311-.19-1.889-.112-3.984-.316-5.478.845a6.693,6.693,0,0,0-2,3.928,74.906,74.906,0,0,0-1.834,15.011l15.123.917Z" transform="translate(1345.696 -2714.293)"/></g><g transform="translate(9.476 3.33)"><path class="e" d="M-1357.864,2681.294c0,.022.252.038.668.2a3.489,3.489,0,0,1,1.447,1.172,4.872,4.872,0,0,1,.865,2.618,16.478,16.478,0,0,1-.264,3.444,57.581,57.581,0,0,1-1.4,6.159c-.207.754-.378,1.378-.508,1.85a4.426,4.426,0,0,0-.161.686,4.294,4.294,0,0,0,.242-.662c.142-.43.341-1.055.575-1.832a47.8,47.8,0,0,0,1.471-6.167,15.909,15.909,0,0,0,.25-3.493,4.94,4.94,0,0,0-.942-2.7,3.419,3.419,0,0,0-1.54-1.158,2.485,2.485,0,0,0-.514-.117A.577.577,0,0,0-1357.864,2681.294Z" transform="translate(1357.864 -2681.289)"/></g><g transform="translate(0.273 19.169)"><path class="e" d="M-1373.976,2709.021a8.4,8.4,0,0,0,1.232.707c.776.406,1.863.942,3.082,1.493s2.341,1.01,3.16,1.322a8.463,8.463,0,0,0,1.345.456,9.966,9.966,0,0,0-1.286-.6c-.8-.348-1.912-.83-3.129-1.378s-2.311-1.061-3.1-1.432A10.1,10.1,0,0,0-1373.976,2709.021Z" transform="translate(1373.976 -2709.019)"/></g></g><g transform="translate(13.605 65.489)"><g transform="translate(7.363 1.862)"><path class="e" d="M-1384.492,2750.692a8.953,8.953,0,0,0-3.656,11.991l21.868,37.545,10.089-6.094-16.981-33.9,12.307-8.034" transform="translate(1389.16 -2750.692)"/></g><path class="e" d="M-1363.394,2747.432l-30.018,1.063a8.954,8.954,0,0,0-8.636,9.088l1.246,42.873,12.625-.028-.422-40.537,25.2-.663Z" transform="translate(1402.05 -2747.432)"/><g transform="translate(13.427 13.925)"><path class="k" d="M-1378.52,2771.81a2.088,2.088,0,0,1,.037.4c.012.287.028.665.049,1.138.038.988.076,2.418.113,4.186.076,3.535.126,8.42.153,13.814s.052,10.252.071,13.814c.01,1.745.018,3.167.023,4.187,0,.472,0,.851,0,1.139a2.121,2.121,0,0,1-.02.4,2.055,2.055,0,0,1-.037-.4c-.012-.288-.029-.666-.049-1.138-.038-.988-.076-2.418-.113-4.186-.075-3.535-.126-8.42-.153-13.816-.027-5.379-.052-10.25-.071-13.812-.01-1.744-.018-3.167-.023-4.187,0-.473,0-.851,0-1.139A2.144,2.144,0,0,1-1378.52,2771.81Z" transform="translate(1378.544 -2771.81)"/></g></g></g><g transform="translate(66.228 38.281)"><path class="k" d="M-1340.459,2699.8h-9.082a6.62,6.62,0,0,0-6.62,6.62V2738.1H-1374.3a4.584,4.584,0,0,0-4.584,4.584h41.429c0-.009,0-.018,0-.026a3.781,3.781,0,0,0,3.621-3.776v-32.467A6.62,6.62,0,0,0-1340.459,2699.8Z" transform="translate(1378.889 -2699.799)"/><g transform="translate(25.228 1.045)"><path class="e" d="M-1334.582,2701.629c.078,0,.141,9.312.141,20.8s-.063,20.8-.141,20.8-.141-9.309-.141-20.8S-1334.659,2701.629-1334.582,2701.629Z" transform="translate(1334.722 -2701.629)"/></g><g transform="translate(10.066 42.906)"><path class="k" d="M-1347.111,2808.153v-33.239h-2.953v33.239c-1.8,3.553-6.04,5.958-11.2,7.926h26.322C-1340.29,2813.907-1345.114,2812.24-1347.111,2808.153Z" transform="translate(1361.266 -2774.914)"/></g></g></g></g></svg>