<svg xmlns="http://www.w3.org/2000/svg" width="373.153" height="464.777" viewBox="0 0 373.153 464.777"><defs><style>.a{fill:#fafafa;}.b{fill:#ebebeb;}.c{fill:#e0e0e0;}.d{fill:#263238;}.e{fill:#f5f5f5;}.f{fill:#d9a171;}.g{fill:#344154;}.h{fill:#6595bf;}.i{fill:#fff;}.j{fill:#ffbe9d;}.k{fill:#eb996e;}.l{fill:#455a64;}.m{opacity:0.3;}</style></defs><g transform="translate(-259.472 -60.008)"><g transform="translate(343.42 328.044)"><rect class="a" width="197.482" height="116.391"/><g transform="translate(22.06 34.26)"><path class="b" d="M386.58,388.81c13.694-4.945,29.445,8.728,42.869,3.153,7.811-3.245,11.353-11.658,15.18-18.909s10.421-14.9,18.9-14.058c8.55.849,15.462,10.275,23.721,8,5.2-1.432,7.8-6.929,9.109-11.936s2.209-10.542,6.178-14.053,12.238-2.572,12.862,2.552v61.7H360.963S381.842,390.521,386.58,388.81Z" transform="translate(-360.963 -338.915)"/></g><g transform="translate(17.936 100.37)"><path class="c" d="M353.368,400.15c0,.132,37.432.239,83.6.239s83.6-.107,83.6-.239-37.425-.24-83.6-.24S353.368,400.017,353.368,400.15Z" transform="translate(-353.368 -399.91)"/></g><g transform="translate(17.936 73.42)"><path class="c" d="M353.368,375.283c0,.132,37.432.24,83.6.24s83.6-.107,83.6-.24-37.425-.238-83.6-.238S353.368,375.152,353.368,375.283Z" transform="translate(-353.368 -375.045)"/></g><g transform="translate(17.936 46.469)"><path class="c" d="M353.368,350.419c0,.132,37.432.24,83.6.24s83.6-.107,83.6-.24-37.425-.24-83.6-.24S353.368,350.286,353.368,350.419Z" transform="translate(-353.368 -350.179)"/></g><g transform="translate(17.936 20.856)"><path class="c" d="M353.368,326.788c0,.132,37.432.238,83.6.238s83.6-.106,83.6-.238-37.425-.24-83.6-.24S353.368,326.655,353.368,326.788Z" transform="translate(-353.368 -326.548)"/></g></g><g transform="translate(368.471 60.007)"><g transform="translate(1.167 1.573)"><path class="c" d="M470.882,61.459s-17.4.233-9.957,33.044,6.487,39.016,6.487,52a22.693,22.693,0,0,1-12.871,20.655h23.6L495.5,90.567V61.459Z" transform="translate(-454.541 -61.459)"/></g><g transform="translate(12.391 26.692)"><path class="c" d="M271.282,317.837H509.6L507.48,95.806,283.008,84.634Z" transform="translate(-271.282 -84.634)"/></g><g transform="translate(20.571 27.829)"><path class="b" d="M264.094,312.017H502.415L500.293,89.985l-231.4-4.3Z" transform="translate(-264.094 -85.683)"/></g><g transform="translate(25.112 25.166)"><g transform="translate(0.256 0.244)"><path class="a" d="M260.321,306.013H498.16V83.981l-237.983-.53Z" transform="translate(-260.177 -83.451)"/></g><path class="d" d="M260.317,306.032c0-2.075.044-89.067.111-222.562l-.256.244,237.61.567h.373l-.3-.282c.015,81.222.028,157.385.04,222.031l.256-.244-237.838.245,237.838.245h.257v-.246c.011-64.646.025-140.809.04-222.031v-.282h-.669l-237.61-.49h-.257v.244C260.156,216.965,260.313,303.96,260.317,306.032Z" transform="translate(-259.916 -83.226)"/></g><g transform="translate(18.591 0.769)"><path class="e" d="M266.248,84.759c12.286-13.623-1.97-23.707-6.777-23.92l226.466-.122c11.839-.007,20.841,10.157,18.81,21.264a24.052,24.052,0,0,1-.919,3.376" transform="translate(-259.472 -60.717)"/></g><g transform="translate(0 1.354)"><path class="d" d="M484.217,167.171a1.557,1.557,0,0,0-.311-.024l-.914-.024-3.557-.044L466.022,167l.053.336a14.563,14.563,0,0,0,5.471-2.984,17,17,0,0,0,4.084-5.542,35.84,35.84,0,0,0,2.441-7.091c.31-1.264.582-2.56.835-3.885.123-.662.266-1.324.329-2.019a15.932,15.932,0,0,0,.164-2.083,73.563,73.563,0,0,0-.305-8.63c-.228-2.951-.574-5.973-.948-9.06-.776-6.17-1.752-12.6-2.9-19.181-.471-2.815-1.07-5.592-1.558-8.313-.468-2.735-.851-5.445-1.212-8.109q-.505-4-.991-7.856c-.144-1.288-.331-2.555-.362-3.8a21.8,21.8,0,0,1,.217-3.7,21.418,21.418,0,0,1,2.147-6.807,13.727,13.727,0,0,1,4.348-5.165,8.9,8.9,0,0,1,6.191-1.317,11.672,11.672,0,0,1,5.512,2.181,13.08,13.08,0,0,1,3.442,4.056,16.919,16.919,0,0,1,1.671,4.416,11.032,11.032,0,0,1-.9,7.342,24.182,24.182,0,0,1-2.507,4.148l-.765,1.017a2.486,2.486,0,0,0-.25.354,2.346,2.346,0,0,0,.3-.32c.192-.215.463-.546.814-.984a22.55,22.55,0,0,0,2.621-4.125,11.2,11.2,0,0,0,1.019-7.5,17.1,17.1,0,0,0-1.662-4.516,13.385,13.385,0,0,0-3.514-4.2,12.09,12.09,0,0,0-5.71-2.3,9.379,9.379,0,0,0-6.533,1.364,14.174,14.174,0,0,0-4.536,5.329,21.852,21.852,0,0,0-2.221,6.955,22.425,22.425,0,0,0-.233,3.783c.03,1.288.215,2.561.356,3.844q.451,3.858.978,7.866c.357,2.67.739,5.384,1.205,8.131.493,2.753,1.085,5.5,1.556,8.315,1.147,6.577,2.127,12.994,2.913,19.153.38,3.08.731,6.1.966,9.036a73.613,73.613,0,0,1,.33,8.569,15.243,15.243,0,0,1-.152,2.039c-.056.669-.2,1.336-.316,2-.247,1.319-.513,2.61-.814,3.865a35.559,35.559,0,0,1-2.372,7.015,16.648,16.648,0,0,1-3.949,5.437,14.224,14.224,0,0,1-5.3,2.943l-1.114.342,1.167-.007,13.414-.08,3.557-.044.914-.024A1.46,1.46,0,0,0,484.217,167.171Z" transform="translate(-464.855 -61.257)"/></g><g transform="translate(164.629 7.677)"><path class="d" d="M344.519,67.092c-.092.062.585.925,1.26,2.5a13.687,13.687,0,0,1,.854,2.858,15.31,15.31,0,0,1,.181,3.627,15.479,15.479,0,0,1-.759,3.558,13.9,13.9,0,0,1-1.3,2.7c-.918,1.458-1.727,2.212-1.645,2.286.028.028.246-.142.618-.479a9.355,9.355,0,0,0,1.381-1.593,12.444,12.444,0,0,0,1.465-2.743,13.307,13.307,0,0,0,.6-7.452,12.234,12.234,0,0,0-1.007-2.922,9.143,9.143,0,0,0-1.11-1.776C344.738,67.269,344.55,67.069,344.519,67.092Z" transform="translate(-343.1 -67.09)"/></g><g transform="translate(166.788)"><path class="d" d="M340.36,60.009a23.467,23.467,0,0,1,3.008,3.5,14.341,14.341,0,0,1,2.15,10.4,14.883,14.883,0,0,1-5.941,8.962,24.79,24.79,0,0,1-4.129,2.231,4.686,4.686,0,0,0,1.25-.326,13.892,13.892,0,0,0,3.128-1.582,14.751,14.751,0,0,0,6.276-9.18,14.2,14.2,0,0,0-2.38-10.716,13.158,13.158,0,0,0-2.317-2.55A4.471,4.471,0,0,0,340.36,60.009Z" transform="translate(-335.446 -60.007)"/></g><g transform="translate(43.698 77.834)"><path class="d" d="M287.531,227.307s.253.019.746.029l2.185.028,8.407.053,30.916.09,102,.082,43.986-.014h.283v-.269c-.043-27.749-.08-51.616-.106-68.565-.035-8.451-.063-15.177-.082-19.811-.019-2.293-.035-4.066-.046-5.287-.01-.586-.018-1.038-.024-1.363-.008-.306-.025-.462-.025-.462s-.016.156-.024.462c-.006.325-.014.777-.024,1.363-.011,1.222-.026,2.994-.047,5.287-.018,4.634-.047,11.36-.082,19.811-.026,16.949-.063,40.816-.106,68.565l.282-.268-43.986-.014-102,.082-30.916.09-8.407.053-2.185.028C287.784,227.288,287.531,227.307,287.531,227.307Z" transform="translate(-287.531 -131.819)"/></g><g transform="translate(197.621 149.732)"><rect class="f" width="19.014" height="18.107"/></g><g transform="translate(169.745 136.787)"><rect class="f" width="19.014" height="31.051"/></g><g transform="translate(141.758 122.083)"><rect class="f" width="19.014" height="45.756"/></g><g transform="translate(114.627 105.715)"><rect class="g" width="19.014" height="62.124" transform="translate(0 0)"/></g><g transform="translate(86.864 84.756)"><rect class="h" width="19.014" height="83.082"/></g><g transform="translate(59.308 68.773)"><rect class="g" width="19.015" height="98.206"/></g><g transform="translate(74.965 49.867)"><path class="d" d="M442.89,187.316a1.425,1.425,0,0,0-.242-.179l-.741-.486-2.9-1.846-10.9-6.84-37.733-23.484-.436-.272v.5c0,2.564,0,5.309-.007,8.1l.452-.23-14.869-9.495-52.472-33.383L307.11,109.643l-4.35-2.712-1.139-.694a2.567,2.567,0,0,0-.4-.22,2.707,2.707,0,0,0,.365.268l1.107.74,4.288,2.8,15.833,10.212,52.375,33.521,14.876,9.485.452.289v-.519c0-2.8,0-5.54-.008-8.1l-.437.225,37.848,23.315,10.986,6.709,2.948,1.772.767.448A1.441,1.441,0,0,0,442.89,187.316Z" transform="translate(-301.221 -106.016)"/></g><g transform="translate(74.67 49.544)"><path class="d" d="M417.6,113.7a8.932,8.932,0,0,0,.2-2.233c.052-1.386.088-3.312.093-5.472l-.295.281h.726c2.436,0,4.64-.031,6.236-.082a11.807,11.807,0,0,0,2.583-.2,11.808,11.808,0,0,0-2.583-.2c-1.6-.051-3.8-.082-6.236-.082H417.3V106c.007,2.16.042,4.086.094,5.472A8.934,8.934,0,0,0,417.6,113.7Z" transform="translate(-417.304 -105.718)"/></g><g transform="translate(130.374 187.643)"><g transform="translate(45.069)"><path class="d" d="M314.347,233.415c0,.155,5.878.282,13.126.282s13.127-.127,13.127-.282-5.876-.283-13.127-.283S314.347,233.259,314.347,233.415Z" transform="translate(-314.347 -233.132)"/></g><g transform="translate(58.254 2.985)"><path class="d" d="M325.6,241.742a14.579,14.579,0,0,0,0-5.856,14.632,14.632,0,0,0,0,5.856Z" transform="translate(-325.307 -235.886)"/></g><g transform="translate(26.385 11.487)"><path class="d" d="M291.906,244.012c0,.156,15.779.282,35.237.282s35.241-.126,35.241-.282-15.775-.282-35.241-.282S291.906,243.856,291.906,244.012Z" transform="translate(-291.906 -243.73)"/></g><g transform="translate(96.094 11.994)"><path class="d" d="M292.357,252.305a27.812,27.812,0,0,0,0-8.107,27.911,27.911,0,0,0,0,8.107Z" transform="translate(-292.061 -244.198)"/></g><g transform="translate(71.024 12.219)"><path class="d" d="M314.384,251.387a20.736,20.736,0,0,0,0-6.981,20.654,20.654,0,0,0,0,6.981Z" transform="translate(-314.087 -244.406)"/></g><g transform="translate(45.245 11.994)"><path class="d" d="M337.033,251.855a24.919,24.919,0,0,0,0-7.657,24.82,24.82,0,0,0,0,7.657Z" transform="translate(-336.736 -244.198)"/></g><g transform="translate(25.616 11.769)"><path class="d" d="M354.278,251.873a26.3,26.3,0,0,0,0-7.883,26.4,26.4,0,0,0,0,7.883Z" transform="translate(-353.982 -243.99)"/></g><g transform="translate(87.639 22.072)"><path class="d" d="M285.049,253.778a64.468,64.468,0,0,0,8.514.282,64.464,64.464,0,0,0,8.515-.282,64.475,64.475,0,0,0-8.515-.282A64.48,64.48,0,0,0,285.049,253.778Z" transform="translate(-285.049 -253.496)"/></g><g transform="translate(65.882 22.072)"><path class="d" d="M307.7,253.778a37.711,37.711,0,0,0,6.5.282,37.711,37.711,0,0,0,6.5-.282,37.718,37.718,0,0,0-6.5-.282A37.718,37.718,0,0,0,307.7,253.778Z" transform="translate(-307.698 -253.496)"/></g><g transform="translate(38.21 22.747)"><path class="d" d="M331.178,254.4a43.3,43.3,0,0,0,6.977.283,43.289,43.289,0,0,0,6.977-.283,43.513,43.513,0,0,0-6.977-.282A43.522,43.522,0,0,0,331.178,254.4Z" transform="translate(-331.178 -254.119)"/></g><g transform="translate(15.742 21.621)"><path class="d" d="M350.087,253.362a49.324,49.324,0,0,0,7.449.283,49.322,49.322,0,0,0,7.451-.283,49.591,49.591,0,0,0-7.451-.282A49.593,49.593,0,0,0,350.087,253.362Z" transform="translate(-350.087 -253.08)"/></g><g transform="translate(79.67 25.506)"><g transform="translate(16.187)"><path class="d" d="M292.566,261.395a9.6,9.6,0,0,0,0-4.73,9.562,9.562,0,0,0,0,4.73Z" transform="translate(-292.269 -256.665)"/></g><g transform="translate(0.296 4.447)"><path class="d" d="M279.739,261.051c0,.155,6.884.282,15.372.282s15.374-.127,15.374-.282-6.881-.283-15.374-.283S279.739,260.895,279.739,261.051Z" transform="translate(-279.739 -260.768)"/></g><g transform="translate(0 4.73)"><path class="d" d="M306.787,267.785a19.351,19.351,0,0,0,0-6.756,19.426,19.426,0,0,0,0,6.756Z" transform="translate(-306.491 -261.029)"/></g><g transform="translate(30.746 4.73)"><path class="d" d="M279.775,268.236a22.083,22.083,0,0,0,0-7.207,22.088,22.088,0,0,0,0,7.207Z" transform="translate(-279.479 -261.029)"/></g></g><g transform="translate(6.181 25.506)"><g transform="translate(38.434)"><path class="d" d="M337.585,261.395a9.564,9.564,0,0,0,0-4.73,9.6,9.6,0,0,0,0,4.73Z" transform="translate(-337.289 -256.665)"/></g><g transform="translate(1.357 4.447)"><path class="d" d="M324.759,261.051c0,.155,11.627.282,25.964.282s25.968-.127,25.968-.282-11.624-.283-25.968-.283S324.759,260.895,324.759,261.051Z" transform="translate(-324.759 -260.768)"/></g><g transform="translate(22.247 4.73)"><path class="d" d="M351.807,267.785a19.351,19.351,0,0,0,0-6.756,19.424,19.424,0,0,0,0,6.756Z" transform="translate(-351.511 -261.029)"/></g><g transform="translate(0 4.73)"><path class="d" d="M371.354,267.785a19.43,19.43,0,0,0,0-6.756,19.424,19.424,0,0,0,0,6.756Z" transform="translate(-371.058 -261.029)"/></g><g transform="translate(52.992 4.73)"><path class="d" d="M324.8,268.236a22.083,22.083,0,0,0,0-7.207,22,22,0,0,0,0,7.207Z" transform="translate(-324.499 -261.029)"/></g></g><g transform="translate(104.652 41.313)"><path class="d" d="M274.415,271.531a32.783,32.783,0,0,0,6.06.282,32.773,32.773,0,0,0,6.06-.282,32.766,32.766,0,0,0-6.06-.282A32.776,32.776,0,0,0,274.415,271.531Z" transform="translate(-274.415 -271.249)"/></g><g transform="translate(74.543 40.487)"><path class="d" d="M300.01,270.769a38.367,38.367,0,0,0,6.548.282,38.356,38.356,0,0,0,6.548-.282,38.154,38.154,0,0,0-6.548-.283A38.165,38.165,0,0,0,300.01,270.769Z" transform="translate(-300.01 -270.486)"/></g><g transform="translate(52.783 40.487)"><path class="d" d="M320.5,270.769a59.15,59.15,0,0,0,11.533,0,58.915,58.915,0,0,0-11.533,0Z" transform="translate(-320.501 -270.486)"/></g><g transform="translate(23.457 40.487)"><path class="d" d="M345.409,270.769a69.567,69.567,0,0,0,12.51,0,69.291,69.291,0,0,0-12.51,0Z" transform="translate(-345.409 -270.486)"/></g><g transform="translate(0 39.742)"><path class="d" d="M365.846,270.081a71.47,71.47,0,0,0,12.706,0,71.74,71.74,0,0,0-12.706,0Z" transform="translate(-365.846 -269.799)"/></g></g><g transform="translate(43.869 184.715)"><path class="d" d="M382.465,277.776H462.76V230.431H382.465Zm80.237-.055h-80.18V230.485H462.7Z" transform="translate(-382.465 -230.431)"/><g transform="translate(8.992 13.947)"><path class="h" d="M400.392,263.571c5.565-2.008,11.963,3.546,17.418,1.281,3.173-1.318,4.613-4.737,6.168-7.682s4.234-6.053,7.678-5.712c3.474.346,6.282,4.175,9.637,3.252,2.115-.581,3.171-2.815,3.7-4.849s.9-4.283,2.51-5.71,4.973-1.045,5.225,1.037v25.07H389.984S398.467,264.266,400.392,263.571Z" transform="translate(-389.984 -243.299)"/></g><g transform="translate(7.316 40.807)"><path class="c" d="M386.9,268.179c0,.053,15.208.1,33.965.1s33.968-.043,33.968-.1-15.205-.1-33.968-.1S386.9,268.124,386.9,268.179Z" transform="translate(-386.898 -268.081)"/></g><g transform="translate(7.316 29.857)"><path class="d" d="M386.9,258.076c0,.054,15.208.1,33.965.1s33.968-.043,33.968-.1-15.205-.1-33.968-.1S386.9,258.022,386.9,258.076Z" transform="translate(-386.898 -257.978)"/></g><g transform="translate(7.316 18.908)"><path class="d" d="M386.9,247.972c0,.054,15.208.1,33.965.1s33.968-.043,33.968-.1-15.205-.1-33.968-.1S386.9,247.919,386.9,247.972Z" transform="translate(-386.898 -247.876)"/></g><g transform="translate(7.316 8.501)"><path class="d" d="M386.9,238.372c0,.053,15.208.1,33.965.1s33.968-.044,33.968-.1-15.205-.1-33.968-.1S386.9,238.317,386.9,238.372Z" transform="translate(-386.898 -238.274)"/></g></g><g transform="translate(224.924 41.474)"><path class="d" d="M288.621,98.286a.48.48,0,0,0-.11-.007h-.326a7.672,7.672,0,0,0-1.25.107,7.1,7.1,0,0,0-1.891.616,6.187,6.187,0,0,0-2.016,1.649,6.74,6.74,0,0,0-1.327,2.815,6.376,6.376,0,0,0,.467,3.529,10.259,10.259,0,0,0,.92,1.737,18.252,18.252,0,0,1,1.039,1.75,14.832,14.832,0,0,1,1.39,4.02l.017.094.1,0,2.974-.068,3.119-.074.11,0v-.107a8.2,8.2,0,0,1,1.279-3.972c.337-.6.708-1.166,1.055-1.737a16.44,16.44,0,0,0,.987-1.683,5.286,5.286,0,0,0,.324-3.508,7.283,7.283,0,0,0-1.282-2.812,5.766,5.766,0,0,0-2.031-1.6,7.624,7.624,0,0,0-1.877-.609,8.321,8.321,0,0,0-1.237-.143c-.142,0-.25,0-.323,0a.5.5,0,0,0-.109.011.483.483,0,0,0,.109.01l.321.02a9.478,9.478,0,0,1,1.222.18,7.676,7.676,0,0,1,1.839.633,5.657,5.657,0,0,1,1.965,1.59,7.179,7.179,0,0,1,1.228,2.76,5.135,5.135,0,0,1-.334,3.4,16.269,16.269,0,0,1-.986,1.66c-.344.563-.722,1.134-1.063,1.74a8.353,8.353,0,0,0-1.315,4.075l.109-.109-3.119.072-2.974.069.115.093a14.94,14.94,0,0,0-1.418-4.082,18.7,18.7,0,0,0-1.055-1.765,10.162,10.162,0,0,1-.912-1.7,6.238,6.238,0,0,1-.477-3.43,6.64,6.64,0,0,1,1.271-2.757A6.122,6.122,0,0,1,285.1,99.1a7.2,7.2,0,0,1,1.85-.637,8.941,8.941,0,0,1,1.236-.144l.323-.021A.39.39,0,0,0,288.621,98.286Z" transform="translate(-281.621 -98.273)"/><g transform="translate(3.046 5.355)"><path class="d" d="M287.43,113.85s.007-.03.015-.09l.034-.268c.028-.24.069-.585.121-1.03.1-.894.244-2.189.311-3.8.015-.4.026-.824.025-1.264s0-.9-.05-1.37a3.7,3.7,0,0,0-.4-1.421,2.248,2.248,0,0,0-1.2-1.05,1.6,1.6,0,0,0-1.625.36,1.06,1.06,0,0,0-.318.8,1.355,1.355,0,0,0,.343.809,1.952,1.952,0,0,0,.748.529,3.92,3.92,0,0,0,.906.248,11.337,11.337,0,0,0,1.908.139,11.81,11.81,0,0,0,1.908-.161,3.733,3.733,0,0,0,.9-.284,2.353,2.353,0,0,0,.736-.543,1.636,1.636,0,0,0,.4-.784,1.238,1.238,0,0,0-.143-.844,1.2,1.2,0,0,0-.653-.559,1.137,1.137,0,0,0-.855.07,1.609,1.609,0,0,0-.618.542,2.081,2.081,0,0,0-.289.726,8.223,8.223,0,0,0-.09,1.468c-.011.946-.023,1.826-.033,2.631-.017,1.605-.031,2.906-.04,3.809,0,.447-.006.794-.007,1.035,0,.116,0,.206,0,.27s0,.092,0,.092,0-.031.006-.092l.009-.269c.006-.241.014-.589.024-1.036.016-.9.04-2.2.069-3.808.014-.8.028-1.685.044-2.629a8.2,8.2,0,0,1,.093-1.453,1.977,1.977,0,0,1,.28-.7,1.5,1.5,0,0,1,.585-.513,1.043,1.043,0,0,1,.786-.065,1.1,1.1,0,0,1,.6.52,1.162,1.162,0,0,1,.133.789,1.564,1.564,0,0,1-.385.742,2.764,2.764,0,0,1-1.581.8,11.54,11.54,0,0,1-1.889.159,11.245,11.245,0,0,1-1.892-.135,3.871,3.871,0,0,1-.884-.242,1.871,1.871,0,0,1-.715-.5,1.282,1.282,0,0,1-.323-.758.982.982,0,0,1,.293-.736,1.5,1.5,0,0,1,1.532-.34,2.166,2.166,0,0,1,1.151,1.009,3.63,3.63,0,0,1,.395,1.392c.048.468.049.925.055,1.364s-.006.858-.018,1.261c-.058,1.605-.195,2.9-.28,3.8-.046.444-.08.791-.1,1.031l-.025.269C287.43,113.819,287.43,113.85,287.43,113.85Z" transform="translate(-284.346 -103.214)"/></g><g transform="translate(3.857 15.955)"><path class="d" d="M291.184,113.029c-.015.014-.025.358-.038.956q-.014,1.039-.03,2.487l.022-.061c-.576.687-1.228,1.463-1.932,2.3l.1-.047-2.347-.036.1.043-1.224-1.311-.613-.656.034.086c-.023-1.308-.046-2.547-.066-3.676l-.123.12,4.377-.122,1.265-.05a3.533,3.533,0,0,0,.471-.035,2.344,2.344,0,0,0-.419-.022l-1.237-.014-4.462,0h-.124v.121c.013,1.129.026,2.368.04,3.678v.049l.035.037c.2.216.406.435.612.657l1.227,1.308.041.043h.06l2.347.018h.065l.039-.048,1.892-2.33.023-.029v-.033l-.082-2.547A7.374,7.374,0,0,0,291.184,113.029Z" transform="translate(-284.942 -112.993)"/></g><g transform="translate(4.19 18.623)"><path class="d" d="M285.114,116.283a1.431,1.431,0,0,0,.219-.1c.139-.066.341-.157.6-.253a6.2,6.2,0,0,1,4.212-.039c.26.09.464.178.6.242a1.372,1.372,0,0,0,.221.093,1.152,1.152,0,0,0-.2-.125,5.043,5.043,0,0,0-.6-.269,5.891,5.891,0,0,0-4.261.039,5.123,5.123,0,0,0-.591.281A1.03,1.03,0,0,0,285.114,116.283Z" transform="translate(-285.114 -115.455)"/></g><g transform="translate(4.153 17.731)"><path class="d" d="M285.147,115.459a1.326,1.326,0,0,0,.219-.1c.138-.066.34-.157.6-.253a6.215,6.215,0,0,1,4.214-.04c.258.091.463.178.6.242a1.433,1.433,0,0,0,.22.094.97.97,0,0,0-.2-.125,4.847,4.847,0,0,0-.6-.27,5.9,5.9,0,0,0-4.26.04,4.856,4.856,0,0,0-.591.281A1.083,1.083,0,0,0,285.147,115.459Z" transform="translate(-285.147 -114.632)"/></g><g transform="translate(4.173 16.88)"><path class="d" d="M285.13,114.674a1.325,1.325,0,0,0,.219-.1c.138-.066.34-.157.6-.253a6.206,6.206,0,0,1,4.214-.039c.258.09.463.177.6.241a1.431,1.431,0,0,0,.22.094,1.029,1.029,0,0,0-.2-.125,5.02,5.02,0,0,0-.6-.27,5.9,5.9,0,0,0-4.26.04,5.033,5.033,0,0,0-.591.281A1.085,1.085,0,0,0,285.13,114.674Z" transform="translate(-285.13 -113.847)"/></g></g><g transform="translate(177.474 81.879)"><g transform="translate(1.178 0.643)"><path class="b" d="M337.33,136.144s2.3,19.993-.656,30.94l-28.053-1.168s6.012-19.722,2.321-28.459Z" transform="translate(-308.621 -136.144)"/></g><path class="f" d="M339.242,135.551s-.192,21.585-1.344,28.171l-28.431-1.28s2.5-21.22,1.537-26.891Z" transform="translate(-309.467 -135.551)"/><g transform="translate(5.822 9.037)"><path class="i" d="M313.75,143.918c-.007.1,4.26.425,9.527.727s9.545.465,9.552.365-4.259-.425-9.528-.726S313.757,143.819,313.75,143.918Z" transform="translate(-313.75 -143.889)"/></g><g transform="translate(5.814 13.61)"><path class="i" d="M313.757,148.136c-.006.1,4.26.425,9.528.727s9.545.466,9.551.366-4.259-.425-9.528-.727S313.764,148.038,313.757,148.136Z" transform="translate(-313.757 -148.108)"/></g><g transform="translate(10.647 18.079)"><path class="i" d="M316.723,152.28a7.01,7.01,0,0,0,1.584.219c.981.089,2.338.188,3.839.273s2.861.143,3.846.167a7.076,7.076,0,0,0,1.6-.036,7,7,0,0,0-1.583-.219c-.982-.089-2.339-.188-3.84-.273s-2.86-.144-3.846-.167A7.074,7.074,0,0,0,316.723,152.28Z" transform="translate(-316.723 -152.232)"/></g></g><g transform="translate(142.423 46.547)"><path class="d" d="M301.163,103.236c0,.156,16.629.282,37.138.282s37.14-.126,37.14-.282-16.626-.283-37.14-.283S301.163,103.08,301.163,103.236Z" transform="translate(-301.163 -102.953)"/></g><g transform="translate(189.427 52.994)"><path class="d" d="M300.653,109.184c0,.156,6.236.282,13.927.282s13.928-.126,13.928-.282-6.235-.283-13.928-.283S300.653,109.028,300.653,109.184Z" transform="translate(-300.653 -108.901)"/></g><g transform="translate(174.629 52.994)"><path class="d" d="M328.694,109.184a51.273,51.273,0,0,0,10.737,0,51.079,51.079,0,0,0-10.737,0Z" transform="translate(-328.694 -108.901)"/></g><g transform="translate(19.347 25.41)"><path class="d" d="M469.267,179.315a.771.771,0,0,0,.047-.245c.02-.2.044-.435.075-.725q.084-1.029.23-2.79c.178-2.477.429-5.971.738-10.266.569-8.718,1.349-20.676,2.21-33.886.794-13.219,1.514-25.182,2.037-33.9.23-4.3.418-7.8.55-10.277q.075-1.764.12-2.8c.007-.29.011-.529.016-.727a.762.762,0,0,0-.015-.249.809.809,0,0,0-.046.246l-.075.725q-.084,1.029-.23,2.789c-.178,2.477-.429,5.971-.738,10.266-.569,8.719-1.349,20.677-2.212,33.891-.793,13.213-1.513,25.175-2.036,33.9-.23,4.3-.418,7.8-.55,10.278q-.075,1.762-.119,2.8c-.007.29-.013.53-.016.727A.824.824,0,0,0,469.267,179.315Z" transform="translate(-469.253 -83.451)"/></g><g transform="translate(25.368 0.234)"><path class="d" d="M259.829,60.877s.224.02.66.028l1.936.024,7.444.037L297.247,61l90.322-.105,93.507-.286-.048-.005a22.667,22.667,0,0,1,11.888,7.057,20.48,20.48,0,0,1,4.621,9.081,20.778,20.778,0,0,1,.44,6.38c-.069.729-.141,1.283-.207,1.653s-.076.563-.076.563a14.352,14.352,0,0,0,.4-2.2,20.166,20.166,0,0,0-.338-6.433,20.543,20.543,0,0,0-4.593-9.231,22.94,22.94,0,0,0-12.036-7.237l-.024-.005h-.025l-93.507.105-90.322.271-27.377.147-7.444.068-1.936.031C260.053,60.857,259.829,60.877,259.829,60.877Z" transform="translate(-259.829 -60.223)"/></g></g><g transform="translate(259.472 103.229)"><g transform="translate(92.109 375.844)"><path class="f" d="M491.69,446.695l1.847,22.251s23.088,7.065,23.223,11.184l-45.165.565-1.335-34.045Z" transform="translate(-470.26 -446.649)"/><g transform="translate(7.991 19.969)"><path class="b" d="M502.361,465.135a1.664,1.664,0,1,0,.7,3.252,1.675,1.675,0,1,0-.868-3.2" transform="translate(-500.992 -465.073)"/></g><g transform="translate(1.335 30.595)"><path class="b" d="M470.185,478.327l.091-3.45,42.771.249s2.453,1.391,2.387,2.733Z" transform="translate(-470.185 -474.877)"/></g><g transform="translate(19.823 21.883)"><path class="d" d="M494.205,467.055c-.014.21-1.121.273-2.227.918-1.126.618-1.714,1.512-1.914,1.423-.2-.047.166-1.294,1.522-2.053S494.259,466.863,494.205,467.055Z" transform="translate(-490.012 -466.839)"/></g><g transform="translate(25.613 24.009)"><path class="d" d="M488.985,468.893c.044.2-.923.535-1.7,1.4-.8.845-1.024,1.8-1.244,1.786-.208.027-.322-1.208.667-2.27S488.987,468.693,488.985,468.893Z" transform="translate(-485.899 -468.801)"/></g><g transform="translate(30.98 26.003)"><path class="d" d="M482.275,474.219c-.2.039-.476-1.02.126-2.155s1.65-1.563,1.738-1.385c.119.177-.57.775-1.051,1.714C482.586,473.32,482.495,474.2,482.275,474.219Z" transform="translate(-482.034 -470.64)"/></g><g transform="translate(19.072 16.196)"><path class="d" d="M494.921,462.41c-.1.19-1.1-.13-2.353-.085-1.251.021-2.234.391-2.344.208-.123-.156.85-.907,2.323-.94S495.035,462.249,494.921,462.41Z" transform="translate(-490.214 -461.592)"/></g><g transform="translate(17.208 8.91)"><path class="d" d="M496.82,458.5a4.451,4.451,0,0,1-2.263-.076,10.527,10.527,0,0,1-2.347-.761,10.849,10.849,0,0,1-1.279-.694,2.762,2.762,0,0,1-.667-.527.882.882,0,0,1-.066-1.121,1.237,1.237,0,0,1,.982-.453,3.079,3.079,0,0,1,.846.135,8.376,8.376,0,0,1,1.392.5,7.986,7.986,0,0,1,2.046,1.365c1.02.955,1.352,1.75,1.276,1.788-.1.066-.592-.606-1.634-1.4a9.137,9.137,0,0,0-1.985-1.14,8.707,8.707,0,0,0-1.287-.419c-.476-.133-.882-.149-1.012.051-.047.077-.053.106.042.243a2.254,2.254,0,0,0,.492.385,11.953,11.953,0,0,0,1.175.685,12.909,12.909,0,0,0,2.164.862A16.008,16.008,0,0,1,496.82,458.5Z" transform="translate(-490.026 -454.87)"/></g><g transform="translate(23.173 6.045)"><path class="d" d="M488.078,459.015a3.32,3.32,0,0,1-.53-2.1,6.7,6.7,0,0,1,.382-2.351,6.923,6.923,0,0,1,.618-1.293,1.865,1.865,0,0,1,1.478-1.047,1.054,1.054,0,0,1,.927.629,2.819,2.819,0,0,1,.207.8,4.563,4.563,0,0,1-.044,1.452,4.849,4.849,0,0,1-1.037,2.2c-.919,1.089-1.847,1.315-1.863,1.243-.071-.108.711-.492,1.422-1.545a4.82,4.82,0,0,0,.78-2.005,4.238,4.238,0,0,0,0-1.247c-.056-.46-.224-.833-.406-.792-.224-.01-.617.324-.814.684a6.959,6.959,0,0,0-.6,1.152,7.407,7.407,0,0,0-.507,2.138C487.988,458.194,488.2,458.987,488.078,459.015Z" transform="translate(-487.545 -452.226)"/></g></g><g transform="translate(0 372.186)"><g transform="translate(0 0)"><path class="f" d="M576.855,443.274l-5.22,25.986L561.284,488.68a2.659,2.659,0,0,0,1.425,3.722h0a2.951,2.951,0,0,0,2.6-.183c5-2.936,23.339-13.826,23.608-15.748.313-2.225,7.418-27.063,7.418-27.063Z" transform="translate(-560.974 -443.274)"/></g><g transform="translate(1.735 31.451)"><path class="b" d="M567.144,489.969l26.6-17.677-.248,1.1a4.059,4.059,0,0,1-1.577,2.383c-2.16,1.577-8.227,5.806-22.1,14.033a2.969,2.969,0,0,1-2.68.165Z" transform="translate(-567.144 -472.292)"/></g><g transform="translate(23.603 23.704)"><path class="b" d="M569.462,465.264a1.616,1.616,0,0,0-.933,2,1.683,1.683,0,0,0,2.073.9,1.7,1.7,0,0,0,.978-2.123,1.761,1.761,0,0,0-2.265-.707" transform="translate(-568.438 -465.144)"/></g><g transform="translate(5.57 35.225)"><path class="d" d="M587.691,479.647a8.305,8.305,0,0,0-1.928-2.5,8.922,8.922,0,0,0-3-1.21c-.009-.068.38-.2,1.035-.155a4.575,4.575,0,0,1,2.342.909,4.233,4.233,0,0,1,1.467,1.961C587.806,479.249,587.763,479.64,587.691,479.647Z" transform="translate(-582.765 -475.774)"/></g><g transform="translate(3.043 39.52)"><path class="d" d="M589.917,482.382c-.155.086-.837-.933-2.155-1.6a23.953,23.953,0,0,0-2.579-.869,3.292,3.292,0,0,1,2.873.36C589.555,481.041,590.074,482.342,589.917,482.382Z" transform="translate(-585.182 -479.736)"/></g><g transform="translate(8.123 30.93)"><path class="d" d="M585.737,476.278a27.99,27.99,0,0,0-3.151-2.691,29.07,29.07,0,0,0-3.827-1.719,6.541,6.541,0,0,1,4.165,1.236C585.016,474.41,585.884,476.232,585.737,476.278Z" transform="translate(-578.759 -471.811)"/></g><g transform="translate(10.36 25.578)"><path class="d" d="M583.784,468.918c-.108.141-1.473-.764-3.411-1.231-1.93-.492-3.585-.337-3.608-.509a5.762,5.762,0,0,1,3.763-.053C582.608,467.632,583.9,468.816,583.784,468.918Z" transform="translate(-576.764 -466.873)"/></g><g transform="translate(11.802 17.996)"><path class="d" d="M582.552,461.914a14.277,14.277,0,0,0-3.514-1.371,14.558,14.558,0,0,0-3.8.124c-.032-.063.338-.327,1.041-.544a6.409,6.409,0,0,1,2.863-.152,6.253,6.253,0,0,1,2.628,1.089C582.355,461.5,582.606,461.865,582.552,461.914Z" transform="translate(-575.24 -459.877)"/></g><g transform="translate(12.357 12.346)"><path class="d" d="M577.507,459.543a2.2,2.2,0,0,1,.184-.985,6.854,6.854,0,0,1,1.4-2.4A3.228,3.228,0,0,1,580.769,455a1.169,1.169,0,0,1,1.208.5,1.7,1.7,0,0,1,.165,1.255,4.017,4.017,0,0,1-4.23,2.761,4.608,4.608,0,0,1-3.969-3.191,1.478,1.478,0,0,1,.208-1.269,1.16,1.16,0,0,1,1.274-.319,3.942,3.942,0,0,1,1.589,1.253,7.67,7.67,0,0,1,1.4,2.389,2.272,2.272,0,0,1,.215.979,12.232,12.232,0,0,0-1.943-3.1,3.7,3.7,0,0,0-1.414-1.059.619.619,0,0,0-.7.169,1.016,1.016,0,0,0-.085.842,4.119,4.119,0,0,0,3.474,2.729,3.5,3.5,0,0,0,3.628-2.293,1.235,1.235,0,0,0-.077-.881.63.63,0,0,0-.662-.283,2.929,2.929,0,0,0-1.443.958A10.167,10.167,0,0,0,577.507,459.543Z" transform="translate(-573.89 -454.665)"/></g></g><g transform="translate(8.123 163.891)"><path class="g" d="M594.445,258.613c.288-.009,3.749,218.016,3.749,218.016l-27.665-.909-9.576-107.188-2.3-78.689L539.828,362.62l-23.48,114.228-27.627-6.6,35.162-213.05,33.1-6.1Z" transform="translate(-488.721 -251.095)"/></g><g transform="translate(48.01)"><g transform="translate(2.726)"><path class="d" d="M511.345,136.592c-3.31-6.228-4.356-17.406-.557-23.6s11.479-10.66,18.7-12.7a6.526,6.526,0,0,1,3.708-.225c1.193.379,2.162,1.632,1.755,2.766a16.008,16.008,0,0,1,4.508-2.48,5.574,5.574,0,0,1,4.968.668,3.025,3.025,0,0,1,.476,4.4,6.008,6.008,0,0,1,6.123.91,5.331,5.331,0,0,1,1.556,5.712,17.012,17.012,0,0,1-3.684,5.513c-1.431,1.456-1.573,2.868-1.161,4.823" transform="translate(-508.368 -99.885)"/></g><g transform="translate(0 3.518)"><g transform="translate(6.475 1.589)"><path class="j" d="M538.292,187.469c-.2-2.986-.708-30.019-.7-30.142,0,0,10.537-1.242,10.994-11.223.22-4.821-.176-14.785-.643-23.8-.5-9.686-8.737-17.379-18.917-17.681l-1.012-.029c-10.929.283-16.78,9.28-16.181,19.675l1.5,57.846" transform="translate(-511.788 -104.596)"/><g transform="translate(12.274 48.483)"><path class="k" d="M534.929,153.576a26.285,26.285,0,0,1-13.526-4.248s3.147,6.245,13.639,5.657Z" transform="translate(-521.403 -149.328)"/></g><g transform="translate(11.126 15.104)"><g transform="translate(0.847 5.658)"><g transform="translate(15.848 0.183)"><g transform="translate(3.578 2.175)"><path class="d" d="M516.945,127.261a1.464,1.464,0,0,1-1.49,1.4,1.405,1.405,0,0,1-1.5-1.332,1.465,1.465,0,0,1,1.489-1.4A1.406,1.406,0,0,1,516.945,127.261Z" transform="translate(-513.954 -125.928)"/></g><path class="d" d="M520.421,125.509c-.191.18-1.3-.654-2.911-.7-1.608-.065-2.817.689-2.986.5-.083-.086.117-.415.643-.757a4.267,4.267,0,0,1,2.4-.628,4.068,4.068,0,0,1,2.31.787C520.358,125.086,520.516,125.428,520.421,125.509Z" transform="translate(-514.506 -123.921)"/></g><g transform="translate(3.277 2.58)"><path class="d" d="M531.134,127.466a1.464,1.464,0,0,1-1.491,1.395,1.4,1.4,0,0,1-1.5-1.331,1.465,1.465,0,0,1,1.489-1.4A1.408,1.408,0,0,1,531.134,127.466Z" transform="translate(-528.142 -126.133)"/></g><path class="d" d="M534.346,125.34c-.192.18-1.3-.652-2.912-.7-1.608-.066-2.817.688-2.986.5-.083-.086.115-.416.644-.758a4.271,4.271,0,0,1,2.4-.628,4.083,4.083,0,0,1,2.31.787C534.282,124.918,534.439,125.26,534.346,125.34Z" transform="translate(-528.43 -123.752)"/><g transform="translate(11.053 0.333)"><path class="d" d="M520.341,136.867a11.115,11.115,0,0,1,2.632-.373c.413-.028.8-.094.883-.36a1.918,1.918,0,0,0-.237-1.169q-.534-1.439-1.12-3.02c-1.55-4.3-2.66-7.827-2.478-7.885s1.588,3.378,3.139,7.677q.558,1.588,1.068,3.036a2.172,2.172,0,0,1,.163,1.543,1.023,1.023,0,0,1-.7.553,2.9,2.9,0,0,1-.7.073A11.1,11.1,0,0,1,520.341,136.867Z" transform="translate(-520.002 -124.059)"/></g><g transform="translate(6.326 14.061)"><path class="d" d="M523.732,136.725c.263-.007.212,1.659,1.67,2.885s3.327,1.1,3.333,1.332c.021.105-.426.311-1.213.308a4.491,4.491,0,0,1-2.785-1.017,3.554,3.554,0,0,1-1.287-2.416C523.4,137.118,523.612,136.712,523.732,136.725Z" transform="translate(-523.442 -136.725)"/></g></g><path class="d" d="M535.281,119.776c-.173.413-1.776.167-3.672.328-1.9.125-3.443.607-3.682.225-.106-.183.173-.567.8-.953a6.35,6.35,0,0,1,2.75-.827,6.422,6.422,0,0,1,2.852.405C535.017,119.243,535.356,119.581,535.281,119.776Z" transform="translate(-527.905 -118.531)"/><g transform="translate(16.686 1.296)"><path class="d" d="M520.358,121.4c-.295.34-1.392-.054-2.727-.111-1.332-.1-2.472.161-2.72-.211-.108-.18.081-.525.585-.84a3.94,3.94,0,0,1,2.237-.505,3.888,3.888,0,0,1,2.154.765C520.346,120.873,520.489,121.236,520.358,121.4Z" transform="translate(-514.881 -119.727)"/></g></g></g><g transform="translate(0 28.296)"><path class="j" d="M550.646,129.624c-.176-.079-7.138-2.242-7.132,4.59s7.208,5.418,7.221,5.222S550.646,129.624,550.646,129.624Z" transform="translate(-543.514 -129.237)"/><g transform="translate(1.821 2.207)"><path class="k" d="M548.643,136.678c-.031-.022-.124.083-.336.176a1.306,1.306,0,0,1-.935.02,2.914,2.914,0,0,1-1.433-2.641,3.762,3.762,0,0,1,.348-1.7,1.41,1.41,0,0,1,.939-.914.646.646,0,0,1,.739.325c.1.191.05.327.089.339.019.017.154-.115.1-.4a.756.756,0,0,0-.282-.428.982.982,0,0,0-.692-.173,1.737,1.737,0,0,0-1.3,1.06,3.885,3.885,0,0,0-.433,1.905,3.079,3.079,0,0,0,1.827,2.949,1.394,1.394,0,0,0,1.143-.182C548.63,136.843,548.668,136.691,548.643,136.678Z" transform="translate(-545.437 -131.274)"/></g></g><g transform="translate(5.28)"><path class="d" d="M550.272,109.523c.839,8.859-10.619,12.558-15.648,7.6-2.325-2.291-4.354-5.154-7.52-6.186a8.9,8.9,0,0,0-6.54.656l-.06.029c-2.955,1.463-4.7,4.723-5.159,7.864-.639,4.381.1,8.244-1.1,12.266a2.681,2.681,0,0,1-.886,1.55c-.869.6-2.122.073-2.836-.685a8.2,8.2,0,0,1-1.8-4.509,26.787,26.787,0,0,1,.43-11.071,18.965,18.965,0,0,1,5.832-9.486,19.636,19.636,0,0,1,13.5-4.406,24.038,24.038,0,0,1,13.4,5.014,13.193,13.193,0,0,1,4.244,4.959" transform="translate(-508.35 -103.13)"/></g></g><g transform="translate(31.927 5.004)"><path class="l" d="M518.188,104.536a2.205,2.205,0,0,1,.992.039,5.013,5.013,0,0,1,2.371,1.257,5.707,5.707,0,0,1,1.78,3.441,6.334,6.334,0,0,1-1.372,4.5,8.978,8.978,0,0,1-3.883,2.883,12.72,12.72,0,0,1-3.913.827,15.862,15.862,0,0,1-2.686-.077,3.12,3.12,0,0,1-.966-.19c.008-.1,1.4.1,3.621-.1a13.262,13.262,0,0,0,3.746-.9,8.727,8.727,0,0,0,3.635-2.745,6,6,0,0,0,1.314-4.145,5.473,5.473,0,0,0-1.552-3.231,5.187,5.187,0,0,0-2.149-1.319A9.587,9.587,0,0,1,518.188,104.536Z" transform="translate(-510.511 -104.502)"/></g><g transform="translate(26.482 1.882)"><path class="l" d="M525.963,101.648c0-.027.263-.077.684.115a2.171,2.171,0,0,1,1.119,1.458,3.827,3.827,0,0,1-.546,2.616,11.467,11.467,0,0,1-1.966,2.614,12.514,12.514,0,0,1-5.131,3.1,6.181,6.181,0,0,1-2.48.4c-.017-.093.937-.211,2.348-.751a13.69,13.69,0,0,0,4.863-3.11,12.137,12.137,0,0,0,1.916-2.479,3.634,3.634,0,0,0,.614-2.319,2.063,2.063,0,0,0-.846-1.353C526.2,101.719,525.955,101.691,525.963,101.648Z" transform="translate(-517.643 -101.621)"/></g></g><g transform="translate(134.502 80.412)"><path class="j" d="M405.254,184.065l49.345-4.459,7.813-1.786s17.846-3.039,19.521-3.539c1.936-.578,2.694.172,2.868.866.273,1.082-.851,2.239-2.5,2.783-.568.189-9.665,2.813-9.665,2.813a23.226,23.226,0,0,1,3,.947c2.117.774,4.069,3.486,4.974,6.6s.868,4.058-.384,4.448a1.746,1.746,0,0,1-1.419-.242,3.179,3.179,0,0,1-1.4-1.812c-1.52-4.962-4.724-5.468-4.724-5.468l-1.022.233s3.231,2.332,3.063,5a2.926,2.926,0,0,1-.3,1.136,3.988,3.988,0,0,1-.87,3.856,4.481,4.481,0,0,1-4.083,1.284c-.7-.143-1.45-.57-1.523-1.25a2.052,2.052,0,0,1,.271-1.037,3.225,3.225,0,0,0,.2-.541l-2.959.273s-6.682.274-9.577.707l-46.512,11.464c-6.449,1.59-13.013-2.166-14.568-8.334h0C393.1,191.3,398.041,184.716,405.254,184.065Z" transform="translate(-394.462 -174.075)"/><g transform="translate(61.197 4.527)"><g transform="translate(0.028 0.002)"><path class="j" d="M407.217,180.49c.036.983,1.037,1.7,2.038,1.943s2.059.147,3.077.318c3.041.507,5.311,3.245,8.375,3.612.427.051.971-.013,1.114-.4.133-.358-.182-.714-.47-.977l-7.394-6.733" transform="translate(-407.217 -178.254)"/></g><path class="k" d="M413.735,178.254a4.143,4.143,0,0,1,.879.65c.538.444,1.305,1.1,2.244,1.922l3.276,2.9.941.844c.278.289.774.55.84,1.223a.828.828,0,0,1-.558.753,1.843,1.843,0,0,1-.831.1,6.928,6.928,0,0,1-1.466-.334,39.606,39.606,0,0,1-4.813-2.556,7.947,7.947,0,0,0-2.158-.773c-.707-.13-1.406-.134-2.05-.2a3.661,3.661,0,0,1-2.749-1.255c-.43-.609-.315-1.051-.3-1.035a2.779,2.779,0,0,0,.476.9,3.575,3.575,0,0,0,2.6,1c.624.042,1.327.022,2.1.14a8.2,8.2,0,0,1,2.32.773,46.429,46.429,0,0,0,4.761,2.486,6.5,6.5,0,0,0,1.325.307c.422.044.792-.088.763-.3.007-.241-.332-.551-.652-.836l-.928-.858-3.19-2.987c-.9-.856-1.625-1.556-2.116-2.05A3.95,3.95,0,0,1,413.735,178.254Z" transform="translate(-406.967 -178.252)"/></g><g transform="translate(77.113 10.978)"><path class="k" d="M398.036,184.495a4.422,4.422,0,0,1,1.932.049,3.256,3.256,0,0,1,1.637,1.162,7.817,7.817,0,0,1,1.118,2.229,12.307,12.307,0,0,0,1.022,2.373,4.178,4.178,0,0,0,1.544,1.531,1.748,1.748,0,0,0,1.5.089c.327-.151.454-.3.444-.31-.019-.029-.18.08-.5.18a1.647,1.647,0,0,1-1.318-.18,4.115,4.115,0,0,1-1.375-1.475,13.477,13.477,0,0,1-.966-2.325,7.584,7.584,0,0,0-1.2-2.313,3.423,3.423,0,0,0-1.838-1.205,3.179,3.179,0,0,0-1.5-.012C398.2,184.373,398.028,184.476,398.036,184.495Z" transform="translate(-398.035 -184.204)"/></g><g transform="translate(76.193 3.63)"><path class="k" d="M408.417,177.431a10.946,10.946,0,0,0-1.813.511l-4.326,1.333-4.349,1.272a11.054,11.054,0,0,0-1.792.571,8.8,8.8,0,0,0,1.861-.326c1.137-.258,2.693-.666,4.392-1.175s3.219-1.028,4.3-1.437A8.681,8.681,0,0,0,408.417,177.431Z" transform="translate(-396.137 -177.424)"/></g><g transform="translate(73.057 13.824)"><path class="k" d="M406.542,186.831c-.021.02.125.168.369.441a1.626,1.626,0,0,1,.5,1.307.906.906,0,0,1-.608.671,5.181,5.181,0,0,1-1.2.268,2.164,2.164,0,0,0-1.353.626,1.651,1.651,0,0,0-.287,1.529,1.979,1.979,0,0,0,1.057,1.168,2.664,2.664,0,0,0,1.471.264,8.6,8.6,0,0,0,2.311-.724,4.9,4.9,0,0,0,1.35-.882c.267-.274.341-.476.326-.482s-.143.152-.426.38a5.862,5.862,0,0,1-1.362.754,9.226,9.226,0,0,1-2.238.625,2.042,2.042,0,0,1-2.126-1.2,1.328,1.328,0,0,1,.213-1.211,1.848,1.848,0,0,1,1.129-.521,5.2,5.2,0,0,0,1.27-.323,1.17,1.17,0,0,0,.735-.9,1.714,1.714,0,0,0-.657-1.442C406.735,186.925,406.558,186.815,406.542,186.831Z" transform="translate(-403.891 -186.83)"/></g><g transform="translate(73.317 17.701)"><path class="k" d="M404.494,192.319c0-.017-.211-.007-.5.2a1.537,1.537,0,0,0-.6,1.279,2.088,2.088,0,0,0,1.233,1.709,3.75,3.75,0,0,0,2.663.135,4.342,4.342,0,0,0,2.181-1.458,3.834,3.834,0,0,0,.793-1.926,3.574,3.574,0,0,0-.1-1.385c-.092-.315-.187-.474-.207-.467a6.239,6.239,0,0,1,.046,1.817,3.794,3.794,0,0,1-.8,1.761,4.143,4.143,0,0,1-2.017,1.316,3.484,3.484,0,0,1-2.4-.088,1.865,1.865,0,0,1-1.123-1.432,1.452,1.452,0,0,1,.435-1.158C404.322,192.406,404.506,192.348,404.494,192.319Z" transform="translate(-403.394 -190.407)"/></g><g transform="translate(63.863 10.045)"><path class="k" d="M416.006,188.763c.034-.008,0-.337-.282-.822a3.5,3.5,0,0,0-1.731-1.459l.006.316a10.831,10.831,0,0,0,1.147-.55,7.925,7.925,0,0,0,3.2-2.9,20.4,20.4,0,0,1-3.393,2.595c-.376.208-.75.391-1.1.545l-.389.171.4.145a3.7,3.7,0,0,1,1.673,1.256C415.846,188.479,415.959,188.779,416.006,188.763Z" transform="translate(-413.463 -183.343)"/></g><g transform="translate(81.181 11.038)"><path class="k" d="M402.618,184.265c-.068-.069-.61.457-.7,1.318s.311,1.483.394,1.43c.1-.041-.112-.644-.019-1.392C402.367,184.872,402.708,184.325,402.618,184.265Z" transform="translate(-401.9 -184.259)"/></g></g><g transform="translate(35.085 59.729)"><path class="f" d="M544.146,208.637l-32.183-7.074s1.665,56.187,1.659,56.72,2.657,1.413,2.429,5.491l-2.313,4.85-70.572.9-1.9-54.569-6.44-42.313,14.8-8.723,5.211-6.733,20.355,20.447,5.063-17.449-.146-5.193,5.032,5.2,27.141,7.454,35.859,15.921,24.245-1.763,6.3,20.2Z" transform="translate(-434.822 -154.992)"/><g transform="translate(43.179 5.661)"><path class="d" d="M517.4,170.913a3.2,3.2,0,0,1,1.457,1.547,5.989,5.989,0,0,1,.443,2.361,8.515,8.515,0,0,0,.48,3.215l.244.56.254-.559a29.485,29.485,0,0,0,1.591-4.972c.858-3.511,1.407-6.725,1.773-9.056a21.451,21.451,0,0,0,.427-3.793,28.192,28.192,0,0,0-.84,3.727c-.471,2.308-1.085,5.506-1.937,8.993a32.875,32.875,0,0,1-1.51,4.888l.5,0a8.561,8.561,0,0,1-.524-3.028,5.956,5.956,0,0,0-.6-2.47,2.874,2.874,0,0,0-1.163-1.237C517.633,170.905,517.406,170.892,517.4,170.913Z" transform="translate(-517.399 -160.215)"/></g><g transform="translate(17.053 7.786)"><path class="d" d="M530.937,162.177a4.467,4.467,0,0,0,.689.942c.472.582,1.171,1.413,2.045,2.432,1.747,2.038,4.192,4.828,6.92,7.885l4.344,4.828.337.374.124-.475c.617-2.353,1.119-4.345,1.455-5.742.137-.7.549-1.1.945-1.109a.885.885,0,0,1,.546.15c.029.009-.079-.286-.552-.31a1.051,1.051,0,0,0-.748.293,2.079,2.079,0,0,0-.5.9c-.428,1.385-1,3.352-1.664,5.7l.461-.1c-1.3-1.471-2.758-3.12-4.3-4.864-2.728-3.059-5.223-5.807-7.052-7.779-.915-.985-1.663-1.777-2.19-2.316A4.615,4.615,0,0,0,530.937,162.177Z" transform="translate(-530.934 -162.176)"/></g><g transform="translate(41.47 26.245)"><path class="d" d="M525.344,250.495a3.336,3.336,0,0,0,.057-.727c.013-.534.03-1.227.05-2.085.035-1.811.036-4.432,0-7.67-.078-6.477-.4-15.424-1.172-25.282s-1.856-18.756-2.79-25.173c-.466-3.208-.876-5.8-1.194-7.585l-.375-2.055a3.528,3.528,0,0,0-.17-.711,3.3,3.3,0,0,0,.052.728c.067.53.155,1.217.264,2.069.246,1.863.587,4.445,1.006,7.605.826,6.423,1.837,15.314,2.614,25.162s1.158,18.78,1.344,25.25c.08,3.184.146,5.786.192,7.663.025.858.045,1.55.062,2.084A3.416,3.416,0,0,0,525.344,250.495Z" transform="translate(-519.738 -179.206)"/></g><g transform="translate(52.659 101.068)"><path class="d" d="M514.5,257.873c.162.029.617-2.134.526-4.822a16.579,16.579,0,0,0-.586-4.811c-.177.012-.086,2.176-.006,4.824S514.335,257.848,514.5,257.873Z" transform="translate(-514.335 -248.24)"/></g><g transform="translate(23.906 94.924)"><path class="d" d="M497.677,242.577a12.58,12.58,0,0,0,1.817.651c1.18.39,2.9.906,5.049,1.5,4.288,1.191,10.285,2.621,17,3.761s12.866,1.758,17.323,2.045c2.227.146,4.034.228,5.282.248a12.64,12.64,0,0,0,1.942-.016,12.7,12.7,0,0,0-1.929-.2l-5.261-.427c-4.439-.388-10.557-1.074-17.253-2.2s-12.684-2.5-16.991-3.59l-5.095-1.326A12.552,12.552,0,0,0,497.677,242.577Z" transform="translate(-497.677 -242.572)"/></g><g transform="translate(77.121 22.809)"><path class="d" d="M493.294,211.648c.164,0,.266-7.974.23-17.807s-.2-17.807-.362-17.806-.267,7.972-.231,17.808S493.13,211.648,493.294,211.648Z" transform="translate(-492.924 -176.036)"/></g></g><g transform="translate(13.023 76.604)"><path class="f" d="M576.514,170.562s-8.894,7.264-9.476,11.375c-.451,3.181-9.2,33.041-13.138,46.409a18.632,18.632,0,0,0,.744,12.607l11.363,26.774,18.386-10.357L575.2,232.259l7.612-21.305Z" transform="translate(-553.138 -170.562)"/></g><g transform="translate(25.891 78.682)"><path class="d" d="M546.9,267.566a1.707,1.707,0,0,0,.346-.157c.254-.134.577-.3.981-.516l3.717-2.027L565.4,257.4l.16-.09-.061-.169-9.132-25.13,0,.189,3.352-8.568,7.6-19.5-.009.021c2.331-4.66,4.348-9.158,4.909-13.469a18.006,18.006,0,0,0-.189-6.051,17.315,17.315,0,0,0-1.846-4.869,20.452,20.452,0,0,0-4.748-5.708,16.884,16.884,0,0,0-1.6-1.205,4.083,4.083,0,0,0-.59-.363,4.073,4.073,0,0,0,.535.432c.361.271.889.684,1.531,1.263a21.049,21.049,0,0,1,4.571,5.729,17.144,17.144,0,0,1,1.748,4.794,17.77,17.77,0,0,1,.126,5.92c-.585,4.223-2.6,8.656-4.948,13.3l0,.01,0,.012c-2.353,6-4.934,12.589-7.64,19.489-1.145,2.936-2.269,5.815-3.345,8.571l-.036.094.034.094c3.479,9.433,6.647,18.024,9.254,25.09l.1-.259-13.355,7.635-3.655,2.128-.947.569A1.664,1.664,0,0,0,546.9,267.566Z" transform="translate(-546.901 -172.479)"/></g><g class="m" transform="translate(60.05 76.62)"><path d="M540.887,174.483a2.72,2.72,0,0,0-2.734,1.905c-.227,1.167-.057,2.391-.377,3.539a2.543,2.543,0,0,1-2.638,2.026,3.235,3.235,0,0,1-1.745-1.308,40.108,40.108,0,0,1-5.735-10.069c.034.085,6.3,6.892,6.3,6.892a19.223,19.223,0,0,1,1.415-5.014c.212-.518.452-1.4.982-1.633.856-.373,1.987.819,2.554,1.535a14.546,14.546,0,0,0,1.975,2.022" transform="translate(-527.658 -170.576)"/></g><g class="m" transform="translate(75.468 74.243)"><path d="M526.706,168.486a33.664,33.664,0,0,1-2.3,11.145,2.486,2.486,0,0,1-.615.972.981.981,0,0,1-1.106.153,12.288,12.288,0,0,1-1.129-2.306c-.583-1.548-2.942-1.691-2.942-1.691a38.868,38.868,0,0,1,1.541-5.159,1.508,1.508,0,0,1,1.467-.9,2.359,2.359,0,0,1,1.616,1.766c.356,2.782.313,4.058.742,5.027,1.106-2.959,2-6.525,2.734-9.11" transform="translate(-518.618 -168.383)"/></g><g class="m" transform="translate(65.073 151.788)"><path d="M502.439,244.592a2.293,2.293,0,0,1-.544-3.344,3.894,3.894,0,0,1,3.554-1.287,8.215,8.215,0,0,1,3.6,1.546c1.079.741,2.076,1.593,3.21,2.257,2.789,1.633,6.186,2,9.46,2.054s6.583-.177,9.8.417,6.425,2.171,7.975,4.917C539.491,251.152,511.513,249.214,502.439,244.592Z" transform="translate(-501.414 -239.929)"/></g><g transform="translate(28.65 165.931)"><path class="j" d="M555.966,282.642a22.543,22.543,0,0,0,7.33-7.194.269.269,0,0,1-.009-.235.41.41,0,0,1,.279-.16,37.305,37.305,0,0,0,2.145-3.581c-2.284-1.414-5.269-3.555-2.023-4,4-.541,6.851-2.391,7.258-3.4s-.924-1.922-1.977-1.275a15.2,15.2,0,0,1-3.846,1.264,10.055,10.055,0,0,1-3.256.2c-.676-.072-3.058-1.627-5.6-2.766a2.08,2.08,0,0,0-1.16-.146l-.973-.064a3.028,3.028,0,0,1-2.472-1.542l-3.691-6.765-11.154,6.284,8.828,11.669A142.227,142.227,0,0,0,555.966,282.642Z" transform="translate(-536.812 -252.977)"/></g><g transform="translate(45.499 183.449)"><path class="l" d="M541.029,282.509a9.351,9.351,0,0,0,2.572-1.156,23.059,23.059,0,0,0,5.286-4.18,22.109,22.109,0,0,0,3.775-5.469,8.356,8.356,0,0,0,.919-2.562c-.18-.087-1.57,3.9-5.135,7.654C544.928,280.588,540.92,282.348,541.029,282.509Z" transform="translate(-541.027 -269.14)"/></g><g transform="translate(80.644 175.132)"><path class="l" d="M514.307,289.989c.008.017.114-.014.312-.093a3.764,3.764,0,0,0,.791-.479,6.349,6.349,0,0,0,1.821-2.755,43.245,43.245,0,0,0,1.237-4.643c.409-1.754.835-3.685,1.254-5.72.839-4.069,1.478-7.773,1.887-10.461.2-1.344.351-2.434.437-3.19a4.519,4.519,0,0,0,.073-1.181,4.609,4.609,0,0,0-.3,1.148q-.256,1.3-.623,3.16c-.514,2.668-1.218,6.355-2.056,10.417-.427,2.02-.832,3.946-1.206,5.72-.394,1.753-.677,3.352-1.1,4.623a6.588,6.588,0,0,1-1.58,2.722C514.694,289.769,514.281,289.941,514.307,289.989Z" transform="translate(-514.306 -261.466)"/></g><g transform="translate(79.8 178.807)"><path class="l" d="M519.817,265.365c0-.033-.188-.066-.5.035a1.9,1.9,0,0,0-1.039.878,1.78,1.78,0,0,0,.106,1.984,2.353,2.353,0,0,0,2.391.866,2.3,2.3,0,0,0,1.671-1.843,2.034,2.034,0,0,0-.716-1.863c-.944-.774-1.795-.546-1.751-.494a3.608,3.608,0,0,1,1.455.777,1.668,1.668,0,0,1,.474,1.495,1.823,1.823,0,0,1-1.284,1.382,1.842,1.842,0,0,1-1.8-.626,1.4,1.4,0,0,1-.171-1.5C519.071,265.548,519.859,265.448,519.817,265.365Z" transform="translate(-518.022 -264.857)"/></g><g transform="translate(105.496 174.964)"><path class="l" d="M492.415,261.311a6.03,6.03,0,0,0-.3,2.5,12.861,12.861,0,0,0,1.674,5.855A13.591,13.591,0,0,0,498,274.221a6.772,6.772,0,0,0,2.352,1.138c.048-.09-.854-.514-2.1-1.458a15.125,15.125,0,0,1-3.938-4.506,14.378,14.378,0,0,1-1.778-5.612C492.4,262.272,492.521,261.323,492.415,261.311Z" transform="translate(-492.113 -261.311)"/></g><g transform="translate(148.468 88.176)"><path class="d" d="M461.743,191.977a34.647,34.647,0,0,0-.572-5.385,34.631,34.631,0,0,0-.829-5.354,19.617,19.617,0,0,0,.24,5.425A19.732,19.732,0,0,0,461.743,191.977Z" transform="translate(-460.246 -181.238)"/></g><g transform="translate(112.546 86.54)"><path class="d" d="M494.642,179.729a1.476,1.476,0,0,0,.077.382c.08.288.179.647.3,1.09l1.21,4.12c1.094,3.6,2.627,8.639,4.463,14.678l.183-.3c-6.435,1.522-14.19,2.758-22.46,4.21-4.121.729-8.1,1.527-11.761,2.4h.133L443.7,201.325l-6.723-1.4-1.8-.35a3.275,3.275,0,0,0-.632-.09,3.181,3.181,0,0,0,.609.183l1.784.438,6.686,1.551,23.042,5.168.065.014.068-.015c3.652-.852,7.617-1.64,11.732-2.368,8.256-1.449,16.027-2.718,22.473-4.293l.26-.064-.077-.241c-1.919-6.014-3.523-11.039-4.667-14.62-.566-1.718-1.016-3.087-1.345-4.082-.151-.435-.274-.787-.372-1.07A1.44,1.44,0,0,0,494.642,179.729Z" transform="translate(-434.54 -179.729)"/></g></g></g></svg>