<svg xmlns="http://www.w3.org/2000/svg" width="465.949" height="653.249" viewBox="0 0 465.949 653.249"><defs><style>.a{fill:#ebebeb;}.b{fill:#344154;}.c,.i{fill:#d9a171;}.d{fill:#fff;}.e{fill:#dbdbdb;}.f{fill:#c7c7c7;}.g{fill:#dd6a57;}.h{fill:#37474f;}.i{opacity:0.1;isolation:isolate;}.j{fill:#455a64;}.k{fill:#e0e0e0;}.l{opacity:0.6;}.m{fill:#263238;}.n{fill:#b78876;}.o{fill:#aa6550;}.p{fill:#f5f5f5;}.q{fill:#6595bf;}.r{opacity:0.3;}</style></defs><g transform="translate(-232.082 -8355.329)"><g transform="translate(-301.721 4309.782)"><g transform="translate(537.712 4045.547)"><g transform="translate(0 7.841)"><path class="a" d="M647.272,4210.677a4.824,4.824,0,0,1,4.859,4.784v2.578a41.347,41.347,0,0,1,17.523,6.214,6.035,6.035,0,0,1,3.389,5.442,6.215,6.215,0,0,1-6.214,6.217h-.115a6.532,6.532,0,0,1-3.391-1.03,41.513,41.513,0,0,0-11.617-4.973v21.726c17.2,4.3,24.553,11.194,24.553,23.237,0,12.431-9.682,20.7-24.088,22.056v6.777a4.821,4.821,0,0,1-4.764,4.878h-.1a4.919,4.919,0,0,1-4.977-4.859v-7.027a48.842,48.842,0,0,1-23.236-8.812,6.255,6.255,0,1,1,6.895-10.417,40.284,40.284,0,0,0,16.75,7.589v-22.228c-16.517-4.3-24.205-10.518-24.205-23.24,0-12.1,9.682-20.486,23.76-21.609v-2.38a4.917,4.917,0,0,1,4.918-4.921Zm-4.531,38.576v-20.024c-7.242.68-10.863,4.531-10.863,9.509s2.148,7.686,10.863,10.516Zm8.926,15.722v20.6c7.242-.8,11.211-4.418,11.211-9.838,0-4.994-2.5-8.054-11.211-10.765Z" transform="translate(-248.495 -3813.461)"/><path class="a" d="M503.851,4048.752a4.821,4.821,0,0,1,4.859,4.782v2.575a41.372,41.372,0,0,1,17.526,6.215,6.086,6.086,0,0,1,3.389,5.442,6.216,6.216,0,0,1-6.215,6.217h-.117a6.542,6.542,0,0,1-3.389-1.028,41.786,41.786,0,0,0-11.619-4.977V4089.7c17.2,4.3,24.552,11.194,24.552,23.237,0,12.452-9.682,20.7-24.088,22.057v6.856a4.82,4.82,0,0,1-4.783,4.858h-.078a4.916,4.916,0,0,1-4.974-4.858h0v-7.031a48.773,48.773,0,0,1-23.239-8.81,6.241,6.241,0,1,1,6.836-10.418,40.273,40.273,0,0,0,16.75,7.59V4100.9c-16.518-4.3-24.205-10.514-24.205-23.237,0-12.1,9.682-20.469,23.76-21.611v-2.439a4.918,4.918,0,0,1,4.974-4.861Zm-4.531,38.573V4067.3c-7.242.678-10.863,4.531-10.863,9.508S490.6,4084.5,499.32,4087.325Zm8.926,15.721v20.584c7.242-.792,11.213-4.414,11.213-9.836C519.458,4108.819,516.961,4105.758,508.245,4103.046Z" transform="translate(-472.558 -4048.75)"/></g><g transform="translate(110.258 0)"><rect class="a" width="304.748" height="390.085"/><rect class="b" width="304.748" height="22.753" transform="translate(0 21.843)"/><path class="b" d="M517.622,4063.773H683.958L670,4088.229H517.622Z" transform="translate(-517.622 -4019.178)"/><path class="c" d="M517.622,4052.629H683.958l-6.855,9H517.622Z" transform="translate(-517.622 -4035.298)"/><path class="c" d="M517.622,4058.067H606.5l-6.855,9.022H517.622Z" transform="translate(-517.622 -4027.433)"/><rect class="d" width="248.98" height="19.151" transform="translate(27.884 159.365)"/><rect class="c" width="248.98" height="19.151" transform="translate(27.884 140.213)"/><rect class="e" width="248.98" height="19.151" transform="translate(27.884 178.496)"/><rect class="d" width="248.98" height="19.151" transform="translate(27.884 197.647)"/><rect class="e" width="248.98" height="19.151" transform="translate(27.884 216.798)"/><rect class="d" width="248.98" height="19.151" transform="translate(27.884 235.929)"/><rect class="e" width="248.98" height="19.151" transform="translate(27.884 255.08)"/><rect class="c" width="174.333" height="19.151" transform="translate(102.532 274.231)"/><rect class="f" width="74.648" height="134.017" transform="translate(27.884 140.213)"/><path class="b" d="M529.019,4118.637l124.49-.233,124.49.233-124.49.251Z" transform="translate(-501.135 -3940.141)"/><path class="b" d="M529.019,4126.464l124.49-.232,124.49.232-124.49.252Z" transform="translate(-501.135 -3928.818)"/><path class="b" d="M529.019,4134.3l124.49-.251L778,4134.3l-124.49.234Z" transform="translate(-501.135 -3917.505)"/><path class="b" d="M529.019,4142.111l124.49-.231,124.49.231-124.49.251Z" transform="translate(-501.135 -3906.182)"/><path class="b" d="M529.019,4149.938l124.49-.232,124.49.232-124.49.252Z" transform="translate(-501.135 -3894.858)"/><path class="b" d="M529.019,4157.778l124.49-.252,124.49.252-124.49.231Z" transform="translate(-501.135 -3883.547)"/><path class="b" d="M534.472,4107.046c7.94-.39,15.9-.425,23.836-.485s15.9,0,23.858.485c-7.959.406-15.9.424-23.858.481S542.411,4107.491,534.472,4107.046Z" transform="translate(-493.246 -3957.304)"/><path class="b" d="M534.472,4114.886c6-.408,12.026-.425,18.027-.482s12.025,0,18.047.482c-6.021.408-12.026.428-18.047.486S540.474,4115.294,534.472,4114.886Z" transform="translate(-493.246 -3945.957)"/><path class="b" d="M534.472,4122.715c7.94-.406,15.9-.426,23.836-.483s15.9,0,23.858.483c-7.959.4-15.9.424-23.858.484S542.411,4123.1,534.472,4122.715Z" transform="translate(-493.246 -3934.635)"/><path class="b" d="M534.472,4130.532c6.525-.384,13.07-.426,19.615-.483s13.09,0,19.635.483c-6.545.405-13.09.428-19.635.485S541,4130.938,534.472,4130.532Z" transform="translate(-493.246 -3923.321)"/><path class="b" d="M534.472,4138.362c7.94-.408,15.9-.428,23.836-.484s15.9,0,23.858.484c-7.959.406-15.9.427-23.858.483S542.411,4138.768,534.472,4138.362Z" transform="translate(-493.246 -3911.998)"/><path class="b" d="M534.472,4146.189c7.94-.406,15.9-.426,23.836-.485s15.9,0,23.858.485c-7.959.407-15.9.425-23.858.484S542.411,4146.576,534.472,4146.189Z" transform="translate(-493.246 -3900.675)"/><path class="b" d="M534.472,4154c4.82-.367,9.682-.465,14.465-.484s9.682.117,14.484.484c-4.822.387-9.682.464-14.484.485S539.292,4154.384,534.472,4154Z" transform="translate(-493.246 -3889.352)"/><path class="b" d="M566.659,4107.046c5.965-.39,11.947-.425,17.912-.485s11.967,0,17.932.485c-5.965.406-11.947.424-17.932.481S572.663,4107.491,566.659,4107.046Z" transform="translate(-446.682 -3957.304)"/><path class="b" d="M566.659,4114.886c5.965-.408,11.947-.425,17.912-.482s11.967,0,17.932.482c-5.965.408-11.947.428-17.932.486S572.663,4115.294,566.659,4114.886Z" transform="translate(-446.682 -3945.957)"/><path class="b" d="M566.659,4122.715c5.965-.406,11.947-.426,17.912-.483s11.967,0,17.932.483c-5.965.4-11.947.424-17.932.484S572.663,4123.1,566.659,4122.715Z" transform="translate(-446.682 -3934.635)"/><path class="b" d="M566.659,4130.532c5.965-.384,11.947-.426,17.912-.483s11.967,0,17.932.483c-5.965.405-11.947.428-17.932.485S572.663,4130.938,566.659,4130.532Z" transform="translate(-446.682 -3923.321)"/><path class="b" d="M566.659,4138.362c5.965-.408,11.947-.428,17.912-.484s11.967,0,17.932.484c-5.965.406-11.947.427-17.932.483S572.663,4138.768,566.659,4138.362Z" transform="translate(-446.682 -3911.998)"/><path class="b" d="M566.659,4146.189c5.965-.406,11.947-.426,17.912-.485s11.967,0,17.932.485c-5.965.407-11.947.425-17.932.484S572.663,4146.576,566.659,4146.189Z" transform="translate(-446.682 -3900.675)"/><path class="b" d="M566.659,4154.007c5.965-.386,11.947-.425,17.912-.483s11.967,0,17.932.483c-5.965.406-11.947.425-17.932.485S572.663,4154.414,566.659,4154.007Z" transform="translate(-446.682 -3889.363)"/><path class="b" d="M587.83,4107.046c5.985-.39,11.947-.425,17.932-.485s11.947,0,17.912.485c-5.965.406-11.95.424-17.912.481S593.815,4107.491,587.83,4107.046Z" transform="translate(-416.054 -3957.304)"/><path class="b" d="M592.856,4154a34,34,0,0,1,11.443,0A34.027,34.027,0,0,1,592.856,4154Z" transform="translate(-408.783 -3889.352)"/><path class="b" d="M592.856,4146.177a34.129,34.129,0,0,1,11.443,0A34,34,0,0,1,592.856,4146.177Z" transform="translate(-408.783 -3900.664)"/><path class="b" d="M592.856,4138.351a31.538,31.538,0,0,1,5.808-.482,29.719,29.719,0,0,1,5.713.482,34.117,34.117,0,0,1-11.446,0Z" transform="translate(-408.783 -3911.988)"/><path class="b" d="M592.856,4130.522a34.1,34.1,0,0,1,11.443,0A33.951,33.951,0,0,1,592.856,4130.522Z" transform="translate(-408.783 -3923.311)"/><path class="b" d="M592.856,4122.7a34.027,34.027,0,0,1,11.443,0A34,34,0,0,1,592.856,4122.7Z" transform="translate(-408.783 -3934.624)"/><path class="b" d="M592.856,4114.877a31.539,31.539,0,0,1,5.808-.483,29.836,29.836,0,0,1,5.713.483,30.156,30.156,0,0,1-5.713.485A32.015,32.015,0,0,1,592.856,4114.877Z" transform="translate(-408.783 -3945.948)"/><path class="b" d="M594.209,4161.824a97.607,97.607,0,0,1,10.107-.482,92.824,92.824,0,0,1,10.129.482A105.818,105.818,0,0,1,594.209,4161.824Z" transform="translate(-406.825 -3878.028)"/><path class="b" d="M609,4107.046c5.982-.39,11.947-.425,17.932-.485s11.947,0,17.91.485c-5.963.406-11.947.424-17.91.481S614.983,4107.491,609,4107.046Z" transform="translate(-385.426 -3957.304)"/><path class="b" d="M609,4114.886c5.982-.408,11.947-.425,17.932-.482s11.947,0,17.91.482c-5.963.408-11.947.428-17.91.486S614.983,4115.294,609,4114.886Z" transform="translate(-385.426 -3945.957)"/><path class="b" d="M609,4122.715c5.982-.406,11.947-.426,17.932-.483s11.947,0,17.91.483c-5.963.4-11.947.424-17.91.484S614.983,4123.1,609,4122.715Z" transform="translate(-385.426 -3934.635)"/><path class="b" d="M609,4130.532c5.982-.384,11.947-.426,17.932-.483s11.947,0,17.91.483c-5.963.405-11.947.428-17.91.485S614.983,4130.938,609,4130.532Z" transform="translate(-385.426 -3923.321)"/><path class="b" d="M609,4138.362c5.982-.408,11.947-.428,17.932-.484s11.947,0,17.91.484c-5.963.406-11.947.427-17.91.483S614.983,4138.768,609,4138.362Z" transform="translate(-385.426 -3911.998)"/><path class="b" d="M609,4146.189c5.982-.406,11.947-.426,17.932-.485s11.947,0,17.91.485c-5.963.407-11.947.425-17.91.484S614.983,4146.576,609,4146.189Z" transform="translate(-385.426 -3900.675)"/><path class="b" d="M609,4154.007c5.982-.386,11.947-.425,17.932-.483s11.947,0,17.91.483c-5.963.406-11.947.425-17.91.485S614.983,4154.414,609,4154.007Z" transform="translate(-385.426 -3889.363)"/><path class="b" d="M609,4161.834c5.982-.406,11.947-.427,17.932-.484s11.947,0,17.91.484c-5.963.407-11.947.427-17.91.483S614.983,4162.242,609,4161.834Z" transform="translate(-385.426 -3878.038)"/><path class="d" d="M529.019,4070.139c7.377-.386,14.773-.581,22.172-.734s14.773-.157,22.152-.232,14.773,0,22.172.232l11.076.268c3.7.158,7.4.252,11.1.466-3.7.232-7.4.31-11.1.483l-11.076.272c-7.4.153-14.775.134-22.172.212s-14.776,0-22.152-.212S536.4,4070.564,529.019,4070.139Z" transform="translate(-501.135 -4011.409)"/><path class="d" d="M529.019,4066.293c8.385-.4,16.77-.6,25.172-.755s16.769-.135,25.174-.213,16.77,0,25.174.213l12.586.27c4.2.155,8.4.253,12.586.485-4.181.213-8.385.312-12.586.466l-12.586.271c-8.385.155-16.769.155-25.174.213s-16.789,0-25.174-.213S537.4,4066.68,529.019,4066.293Z" transform="translate(-501.135 -4016.974)"/><path class="b" d="M529.019,4089.512c6.873-.308,13.729-.445,20.6-.561s13.748,0,20.621-.156,13.731,0,20.6.156,13.731.253,20.6.561c-6.873.312-13.728.446-20.6.563s-13.748,0-20.6.154-13.748,0-20.621-.154S535.892,4089.8,529.019,4089.512Z" transform="translate(-501.135 -3983.069)"/><path class="b" d="M529.019,4092.845c4.3-.292,8.617-.447,12.916-.561s8.617,0,12.933-.157,8.617,0,12.916.157,8.617.269,12.936.561c-4.318.31-8.617.444-12.936.562s-8.617.115-12.916.174-8.615,0-12.933-.174S533.318,4093.135,529.019,4092.845Z" transform="translate(-501.135 -3978.249)"/><path class="b" d="M529.019,4096.152c6-.292,11.986-.426,17.988-.543s11.986-.115,17.991-.173,12.006,0,17.988.173,12.006.251,17.988.543c-5.982.311-11.984.446-17.988.562s-11.986.115-17.988.174-11.986,0-17.991-.174S535.021,4096.462,529.019,4096.152Z" transform="translate(-501.135 -3973.405)"/><path class="b" d="M529.019,4171.944c4.414-.312,8.811-.446,13.224-.563s8.83-.116,13.227-.174,8.83,0,13.244.174,8.811.251,13.227.563c-4.416.287-8.83.444-13.227.56s-8.83.1-13.244.153-8.811,0-13.227-.173S533.433,4172.31,529.019,4171.944Z" transform="translate(-501.135 -3863.785)"/><path class="b" d="M529.019,4175.289c5.091-.311,10.205-.446,15.3-.563s10.186,0,15.3-.174,10.185,0,15.3.174,10.186.252,15.3.563c-5.111.307-10.205.446-15.3.56s-10.205.1-15.3.157-10.2,0-15.3-.157S534.169,4175.616,529.019,4175.289Z" transform="translate(-501.135 -3859.018)"/><path class="b" d="M529.019,4188.539c8.015-.292,16.033-.425,24.049-.543l24.031-.174,24.051.153c8.015.119,16.033.271,24.048.563-8.015.309-16.033.444-24.048.559l-24.051.176-24.031-.176C545.052,4188.905,537.034,4188.905,529.019,4188.539Z" transform="translate(-501.135 -3839.718)"/><path class="b" d="M529.019,4178.584c3.117-.29,6.215-.446,9.334-.56s6.215-.135,9.332-.155,6.217,0,9.334.155,6.215.271,9.334.56c-3.12.311-6.237.444-9.334.563s-6.234.154-9.334.172-6.234,0-9.332-.172S532.234,4178.9,529.019,4178.584Z" transform="translate(-501.135 -3854.123)"/><path class="b" d="M592.856,4181.887c7.744-.312,15.49-.446,23.236-.562l23.236-.175,23.236.175c7.746.116,15.493.251,23.236.563-7.744.29-15.49.444-23.236.56l-23.236.157-23.236-.157C608.346,4182.331,600.6,4182.177,592.856,4181.887Z" transform="translate(-408.783 -3849.37)"/><path class="b" d="M592.856,4178.594c6.293-.29,12.566-.445,18.859-.561s12.569-.1,18.862-.153,12.586,0,18.859.153,12.588.271,18.861.561c-6.273.311-12.569.443-18.861.563s-12.566.114-18.859.174-12.569,0-18.862-.174S599.051,4178.9,592.856,4178.594Z" transform="translate(-408.783 -3854.134)"/><path class="b" d="M592.856,4185.22c5.906-.29,11.81-.444,17.736-.563s11.813-.095,17.719-.155,11.83,0,17.736.155,11.813.251,17.719.563c-5.906.31-11.813.444-17.719.56s-11.83.118-17.736.174-11.813,0-17.719-.174S598.664,4185.529,592.856,4185.22Z" transform="translate(-408.783 -3844.551)"/><path class="b" d="M592.856,4188.552c4.24-.291,8.48-.425,12.7-.543s8.483-.113,12.723-.174,8.463,0,12.7.154,8.463.272,12.7.563c-4.24.31-8.463.446-12.7.559s-8.48.12-12.7.175-8.48,0-12.723-.175S597,4188.919,592.856,4188.552Z" transform="translate(-408.783 -3839.731)"/><path class="b" d="M530.068,4193.751c2.3-1.587,4.685-3.1,7.125-4.491a34.128,34.128,0,0,1,7.746-3.467A7.286,7.286,0,0,1,546,4185.6a1.125,1.125,0,0,1,1.182.39,4.076,4.076,0,0,1,.484,2.167,25.93,25.93,0,0,1-.445,4.241c-.484,2.769-1.182,5.5-1.938,8.211a126.119,126.119,0,0,1-5.576,15.9,27.335,27.335,0,0,1-1.938,3.87,7.178,7.178,0,0,1-.754.874,1.151,1.151,0,0,1-.736.327.7.7,0,0,1-.5-.194l-.252-.25a4.133,4.133,0,0,1-.6-2.248,28.36,28.36,0,0,1,1.473-8.384,48.034,48.034,0,0,1,3.176-7.841,23.247,23.247,0,0,1,4.937-6.875,7.739,7.739,0,0,1,3.873-1.936,4.442,4.442,0,0,1,2.187.194,3.364,3.364,0,0,1,1.549,1.568,9.193,9.193,0,0,0,1.162,1.686,1.762,1.762,0,0,0,1.7.58,11.1,11.1,0,0,0,3.526-2.071c.56-.426,1.123-.852,1.7-1.258a5.366,5.366,0,0,1,.91-.562c.311-.136.756-.387,1.162,0,.563.677.406,1.415.7,2.033a1.238,1.238,0,0,0,1.434.929,12.593,12.593,0,0,0,3.078-2.691c.949-1.025,1.935-2.092,2.789-3.137,1.837-2.13,3.638-4.277,5.517-6.371.93-1.044,1.938-2.073,2.9-3.059.524-.485,1.047-.95,1.627-1.4a4.766,4.766,0,0,1,.949-.562,1.509,1.509,0,0,1,.619-.133.842.842,0,0,1,.639.347,3.866,3.866,0,0,1,.291,2.226,19.812,19.812,0,0,1-.328,2.112c-.311,1.394-.7,2.75-1.125,4.085a41.8,41.8,0,0,1-3.369,7.747,7.977,7.977,0,0,1-1.316,1.761,1.525,1.525,0,0,1-1.238.485,3.746,3.746,0,0,1-1.123-.311,5.244,5.244,0,0,1-2.924-3.447,1.934,1.934,0,0,1,.154-1.317,1.394,1.394,0,0,1,.543-.521,1.326,1.326,0,0,1,.734-.157,8.183,8.183,0,0,1,2.17.5c1.356.484,2.633,1.043,3.873,1.608s2.554,1.143,3.871,1.647a16.677,16.677,0,0,0,1.938.7,6.868,6.868,0,0,0,.949.215,1.357,1.357,0,0,0,.754-.178c1.067-.52,1.764-1.821,2.828-2.865a3.347,3.347,0,0,1,2.129-1.1,1.151,1.151,0,0,1,.873.291,1.124,1.124,0,0,1,.289.854,5.693,5.693,0,0,1-.213,1.142c-.193.639-.272,1.433-.1,1.451s1.025,0,1.607,0a10.711,10.711,0,0,0,3.543-1.935,20.738,20.738,0,0,1,1.781-1.2,3.563,3.563,0,0,1,2.344-.56,8.755,8.755,0,0,1,3.6,2.613,8.935,8.935,0,0,0,1.49,1.3c.252.154.484.212.543.154a6.7,6.7,0,0,0,.793-.5,37.023,37.023,0,0,0,3.176-2.652,37.775,37.775,0,0,0,5.422-6.257,7.036,7.036,0,0,0,1.356-3.619c0-1.259-1.3-1.937-2.633-2.052a23.092,23.092,0,0,0-8.231.115,20.136,20.136,0,0,0-3.969,1.143,8.046,8.046,0,0,0-1.762.95c-.524.386-.988.93-.835,1.431a2.609,2.609,0,0,0,1.336,1.22,20.254,20.254,0,0,0,1.938.776,39.993,39.993,0,0,0,4.008,1.162,92.163,92.163,0,0,0,16.672,1.606h0a88.805,88.805,0,0,1-16.787-1.239,37.292,37.292,0,0,1-4.066-1.124,17.4,17.4,0,0,1-1.938-.775,3.038,3.038,0,0,1-1.666-1.569,2.072,2.072,0,0,1,1.028-2.07,8.732,8.732,0,0,1,1.935-1.065,20.173,20.173,0,0,1,4.086-1.219,23.589,23.589,0,0,1,8.5-.232,6.247,6.247,0,0,1,2.148.713,2.638,2.638,0,0,1,1.221,2.074,7.948,7.948,0,0,1-1.453,4.184,33.948,33.948,0,0,1-5.537,6.447,35.311,35.311,0,0,1-3.254,2.77,6.872,6.872,0,0,1-.988.6,1.639,1.639,0,0,1-1.451-.212,11.313,11.313,0,0,1-1.686-1.433,8.269,8.269,0,0,0-3.078-2.344c-1.025-.153-2.226.813-3.33,1.609a11.7,11.7,0,0,1-3.873,1.935,3.134,3.134,0,0,1-2.5-.1,1.57,1.57,0,0,1-.484-1.414,6.261,6.261,0,0,1,.232-1.1,5.057,5.057,0,0,0,.174-.911v-.138c0,.04,0,0-.135,0a2.49,2.49,0,0,0-1.492.8c-.947.891-1.605,2.246-3.078,3.038a2.34,2.34,0,0,1-1.277.251,5.761,5.761,0,0,1-1.1-.251,20.706,20.706,0,0,1-2.033-.735c-1.3-.542-2.576-1.122-3.873-1.685s-2.557-1.124-3.873-1.609a7.438,7.438,0,0,0-1.938-.464c-.446,0-.7.37-.58.969a4.445,4.445,0,0,0,2.324,2.865,2.851,2.851,0,0,0,.891.252.681.681,0,0,0,.619-.288,7.741,7.741,0,0,0,1.221-1.571,40.906,40.906,0,0,0,3.369-7.589,36.741,36.741,0,0,0,1.162-4.008,15.3,15.3,0,0,0,.347-1.938,3.291,3.291,0,0,0-.154-1.935c-.193-.367-.988,0-1.492.466a14.43,14.43,0,0,0-1.568,1.335c-1.006.947-1.935,1.937-2.924,3-1.935,2.07-3.7,4.2-5.557,6.312-.93,1.044-1.938,2.088-2.828,3.118a12.919,12.919,0,0,1-3.252,2.75,1.59,1.59,0,0,1-1.8-1.1c-.271-.659-.252-1.492-.621-1.937s-.5,0-.793.117a8.358,8.358,0,0,0-.871.541c-.563.41-1.1.854-1.666,1.28a11.43,11.43,0,0,1-3.66,2.187,2.169,2.169,0,0,1-2.109-.677,10.6,10.6,0,0,1-1.24-1.743c-.387-.562-.754-1.181-1.316-1.375a4.179,4.179,0,0,0-1.935-.137,7.468,7.468,0,0,0-3.584,1.764,23.408,23.408,0,0,0-4.744,6.758,49.418,49.418,0,0,0-3.039,7.744,28.164,28.164,0,0,0-1.355,8.131,3.639,3.639,0,0,0,.445,1.765l.115.115h0a.514.514,0,0,0,.2-.134,4.044,4.044,0,0,0,.6-.716,28.08,28.08,0,0,0,1.935-3.642,121.016,121.016,0,0,0,5.713-15.742,77.87,77.87,0,0,0,1.935-8.133,22.743,22.743,0,0,0,.465-4.1,3.414,3.414,0,0,0-.367-1.938c-.174-.212-.33-.27-.7-.194a6.052,6.052,0,0,0-1.006.175,36.037,36.037,0,0,0-7.746,3.272c-2.459,1.318-4.862,2.751-7.2,4.281Z" transform="translate(-499.646 -3851.613)"/><g transform="translate(172.802 50.289)"><path class="b" d="M603.436,4081.474H591.88v12.16h-3.631V4066.1h17.058v2.969H591.88v9.437h11.556Z" transform="translate(-588.249 -4066.1)"/><path class="b" d="M609.489,4089.677a7.438,7.438,0,0,1-.492-2.156,7.8,7.8,0,0,1-5.823,2.533,7.221,7.221,0,0,1-4.964-1.71,5.541,5.541,0,0,1-1.938-4.341,5.786,5.786,0,0,1,2.43-4.963,11.44,11.44,0,0,1,6.836-1.768h3.4v-1.607a3.93,3.93,0,0,0-1.1-2.923,4.411,4.411,0,0,0-3.234-1.086,5.106,5.106,0,0,0-3.139.944,2.791,2.791,0,0,0-1.267,2.29h-3.516a4.832,4.832,0,0,1,1.086-2.96,7.4,7.4,0,0,1,2.951-2.259,9.917,9.917,0,0,1,4.093-.833,8.08,8.08,0,0,1,5.542,1.77,6.38,6.38,0,0,1,2.08,4.868v9.417a11.5,11.5,0,0,0,.719,4.483v.3Zm-5.8-2.667a6.149,6.149,0,0,0,3.12-.851,5.137,5.137,0,0,0,2.136-2.211v-4.2H606.2q-6.426,0-6.427,3.763a3.182,3.182,0,0,0,1.1,2.572A4.229,4.229,0,0,0,603.686,4087.009Z" transform="translate(-576.642 -4062.142)"/><path class="b" d="M613.866,4087.2a5.028,5.028,0,0,0,3.271-1.136,4,4,0,0,0,1.551-2.835H622a6.354,6.354,0,0,1-1.211,3.347,7.973,7.973,0,0,1-2.978,2.535,8.6,8.6,0,0,1-3.942.944,8.426,8.426,0,0,1-6.648-2.79,11.108,11.108,0,0,1-2.469-7.628v-.588a12.307,12.307,0,0,1,1.1-5.312,8.328,8.328,0,0,1,3.146-3.612,8.942,8.942,0,0,1,4.852-1.288,8.2,8.2,0,0,1,5.72,2.063,7.36,7.36,0,0,1,2.43,5.351h-3.308a4.837,4.837,0,0,0-1.505-3.262,4.675,4.675,0,0,0-3.337-1.276,4.9,4.9,0,0,0-4.132,1.919,9.022,9.022,0,0,0-1.466,5.549v.664a8.835,8.835,0,0,0,1.456,5.446A4.925,4.925,0,0,0,613.866,4087.2Z" transform="translate(-564.377 -4062.142)"/><path class="b" d="M619.619,4066.966v4.954h3.819v2.7h-3.819v12.707a2.834,2.834,0,0,0,.509,1.844,2.144,2.144,0,0,0,1.74.616,8.407,8.407,0,0,0,1.664-.227v2.818a10.1,10.1,0,0,1-2.684.377,4.356,4.356,0,0,1-3.535-1.417,6.1,6.1,0,0,1-1.191-4.03v-12.689h-3.727v-2.7h3.727v-4.954Z" transform="translate(-553.319 -4064.847)"/><path class="b" d="M631.254,4087.429a7.432,7.432,0,0,1-5.994,2.4,6.364,6.364,0,0,1-4.984-1.9,8.217,8.217,0,0,1-1.73-5.624V4068.99h3.5v13.218q0,4.653,3.783,4.652,4.008,0,5.331-2.986V4068.99h3.5v20.463H631.33Z" transform="translate(-544.419 -4061.917)"/><path class="b" d="M637.193,4072.354a10.518,10.518,0,0,0-1.72-.132,4.609,4.609,0,0,0-4.671,2.931v14.524h-3.5v-20.463h3.4l.056,2.364a5.45,5.45,0,0,1,4.879-2.742,3.534,3.534,0,0,1,1.551.267Z" transform="translate(-531.75 -4062.142)"/><path class="b" d="M645.33,4089.677a7.277,7.277,0,0,1-.492-2.156,7.808,7.808,0,0,1-5.825,2.533,7.219,7.219,0,0,1-4.962-1.71,5.536,5.536,0,0,1-1.94-4.341,5.782,5.782,0,0,1,2.432-4.963,11.44,11.44,0,0,1,6.836-1.768h3.4v-1.607a3.933,3.933,0,0,0-1.1-2.923,4.4,4.4,0,0,0-3.232-1.086,5.106,5.106,0,0,0-3.139.944,2.791,2.791,0,0,0-1.267,2.29h-3.518a4.819,4.819,0,0,1,1.089-2.96,7.4,7.4,0,0,1,2.951-2.259,9.916,9.916,0,0,1,4.093-.833,8.077,8.077,0,0,1,5.539,1.77,6.38,6.38,0,0,1,2.082,4.868v9.417a11.5,11.5,0,0,0,.717,4.483v.3Zm-5.806-2.667a6.147,6.147,0,0,0,3.119-.851,5.157,5.157,0,0,0,2.138-2.211v-4.2h-2.743q-6.43,0-6.43,3.763a3.189,3.189,0,0,0,1.1,2.572A4.229,4.229,0,0,0,639.524,4087.009Z" transform="translate(-524.796 -4062.142)"/></g></g><g transform="translate(151.462 454.626)"><path class="g" d="M570.988,4387.95s24.129,3.271,25.02-13.36-23.449-15.976-23.449-15.976Z" transform="translate(-373.691 -4349.474)"/><rect class="b" width="29.375" height="171.234" transform="translate(27.331 29.387) rotate(-86.92)"/><rect class="c" width="34.293" height="6.797" transform="translate(192.311 40.743) rotate(-86.92)"/><rect class="c" width="34.293" height="6.816" transform="translate(184.783 40.324) rotate(-86.92)"/><path class="a" d="M519.2,4354.877l-21.687,9.895-7.164,3.235,6.777,4.064,20.506,12.161,4.414-2.731-4.105-3.135,4.416-2.751-4.106-3.116,4.414-2.693s-4.027-3.116-4.084-3.194l4.414-2.673-4.105-3.195,4.416-2.669Z" transform="translate(-490.349 -4354.877)"/><path class="h" d="M497.514,4358.921l-7.165,3.233,6.777,4.067Z" transform="translate(-490.35 -4349.026)"/></g><g transform="translate(131.907 378.893)"><path class="c" d="M564.442,4348.5l25.076,64.753h-228.9l27.361-64.676Z" transform="translate(-360.618 -4348.499)"/><path class="c" d="M566.262,4350.421l23.256,60.047v10.979h-228.9v-10.979L386,4350.479Z" transform="translate(-360.618 -4345.715)"/><path class="i" d="M564.442,4348.5l25.076,64.753h-228.9l27.361-64.676Z" transform="translate(-360.618 -4348.499)"/><path class="d" d="M414.17,4367.84l-1.433,12.451H384.931l2.672-12.451Z" transform="translate(-325.445 -4320.514)"/><path class="d" d="M414.019,4362.078l-1.452,12.452H386.174l2.692-12.452Z" transform="translate(-323.648 -4328.851)"/><path class="c" d="M413.848,4356.317l-1.433,12.452h-25l2.692-12.452Z" transform="translate(-321.85 -4337.185)"/><path class="c" d="M413.685,4350.556l-1.452,12.43-23.566.021,2.692-12.451Z" transform="translate(-320.041 -4345.521)"/><path class="h" d="M425.792,4367.84l-.019,12.451H397.966l1.259-12.451Z" transform="translate(-306.588 -4320.514)"/><path class="h" d="M424.944,4362.078v12.452H398.551l1.259-12.452Z" transform="translate(-305.741 -4328.851)"/><path class="h" d="M424.128,4356.317v12.433h-25l1.259-12.433Z" transform="translate(-304.905 -4337.185)"/><path class="d" d="M423.352,4350.547V4363H399.786l1.239-12.429Z" transform="translate(-303.954 -4345.533)"/><path class="h" d="M437.5,4367.84l1.414,12.451H411.1l-.174-12.451Z" transform="translate(-287.833 -4320.514)"/><path class="h" d="M436,4362.078l1.414,12.432-26.393.02-.174-12.452Z" transform="translate(-287.948 -4328.851)"/><path class="h" d="M434.511,4356.309l1.414,12.452H410.945l-.174-12.432Z" transform="translate(-288.063 -4337.197)"/><path class="d" d="M433.019,4350.547l1.413,12.45H410.866l-.174-12.45Z" transform="translate(-288.177 -4345.533)"/><path class="h" d="M449.954,4367.84l2.847,12.451H424.974l-1.588-12.451Z" transform="translate(-269.812 -4320.514)"/><path class="h" d="M447.8,4362.071l2.846,12.451H424.25l-1.607-12.432Z" transform="translate(-270.888 -4328.861)"/><path class="h" d="M445.639,4356.309l2.847,12.452H423.506l-1.607-12.452Z" transform="translate(-271.964 -4337.197)"/><path class="d" d="M443.489,4350.539l2.846,12.452-23.585.019-1.588-12.451Z" transform="translate(-273.029 -4345.543)"/><path class="h" d="M462.4,4367.84l4.279,12.432-27.806.019-3.04-12.451Z" transform="translate(-251.802 -4320.514)"/><path class="h" d="M459.589,4362.071l4.279,12.451H437.456l-3.021-12.451Z" transform="translate(-253.828 -4328.861)"/><path class="d" d="M456.766,4356.3l4.279,12.45-24.979.019-3.04-12.45Z" transform="translate(-255.866 -4337.208)"/><path class="d" d="M453.952,4350.539l4.28,12.452H434.666l-3.04-12.452Z" transform="translate(-257.893 -4345.543)"/><path class="h" d="M390.968,4373.443h0c-1.1,0-1.938-.348-1.938-.853s1.086-.851,2.17-.851h0c1.1,0,1.935.328,1.935.851S392.013,4373.443,390.968,4373.443Zm.213-1.239h0c-.638,0-1.182.154-1.24.386s.465.387,1.086.387h0c.639,0,1.179-.154,1.218-.387S391.8,4372.2,391.181,4372.2Zm5.189.639-6.679-2.363a.166.166,0,0,1-.176-.194c.02-.079.232-.193.465-.193h.291l6.7,2.381a.187.187,0,0,1,.176.176c0,.056-.232.212-.484.212a.68.68,0,0,1-.291-.019Zm-.969-1.588h0c-1.1,0-1.935-.35-1.935-.854s1.064-.851,2.129-.851h0c1.086,0,1.938.349,1.938.851s-1.047.854-2.131.854Zm.193-1.26h0c-.639,0-1.179.177-1.219.406s.465.39,1.064.39h0c.639,0,1.182-.157,1.221-.39s-.465-.406-1.067-.406Z" transform="translate(-319.515 -4318.042)"/><path class="h" d="M394.428,4362.051c-2.033,0-3.523-.852-3.33-1.937a1.929,1.929,0,0,1,1.008-1.2,1.047,1.047,0,0,1,.812,0c.232.1.252.289,0,.4a1.294,1.294,0,0,0-.7.834.892.892,0,0,0,.563.93,3.658,3.658,0,0,0,1.722.389,4.347,4.347,0,0,0,1.84-.389,1.425,1.425,0,0,0,.891-.93.877.877,0,0,0-.426-.834c-.154-.113-.1-.307.174-.4a1,1,0,0,1,.8,0,1.3,1.3,0,0,1,.619,1.2C398.264,4361.2,396.481,4362.051,394.428,4362.051Z" transform="translate(-316.548 -4333.546)"/><path class="h" d="M397.827,4359.75h-5.965c-.311,0-.524-.136-.5-.291h0l.311-1.667c0-.154.291-.289.6-.289s.543.135.524.289l-.252,1.394h1.938l.193-1.2c0-.157.308-.29.6-.29s.543.133.524.29l-.193,1.2h1.935l.233-1.394c0-.154.291-.289.6-.289s.524.135.5.289l-.252,1.667h0A.918.918,0,0,1,397.827,4359.75Z" transform="translate(-316.149 -4335.468)"/><path class="h" d="M395.386,4355.667c-1.938,0-3.293-.872-3.117-1.934a1.936,1.936,0,0,1,.967-1.2.946.946,0,0,1,.756,0c.233.117.233.311,0,.426a1.222,1.222,0,0,0-.678.835.985.985,0,0,0,.523.927,3.258,3.258,0,0,0,1.605.369,3.911,3.911,0,0,0,1.725-.369,1.5,1.5,0,0,0,.851-.927.873.873,0,0,0-.406-.835c-.137-.115,0-.309.174-.426a.847.847,0,0,1,.756,0,1.278,1.278,0,0,1,.56,1.2C398.968,4354.8,397.3,4355.667,395.386,4355.667Z" transform="translate(-314.851 -4342.791)"/><path class="d" d="M403.082,4369.921l6.6,1.3c.232,0,.367.134.367.25a.238.238,0,0,1,0,.117,1.116,1.116,0,0,1-.832.154l-5.808-1.123v1.336c0,.156-.311.291-.658.291s-.619-.135-.6-.291l.117-1.782h0l.115-.114h.756Z" transform="translate(-300.532 -4317.504)"/><path class="d" d="M407.54,4364.162c1.414,0,2.537.562,2.5,1.238s-1.2,1.24-2.613,1.24a3.57,3.57,0,0,1-2.111-.563,2.988,2.988,0,0,1-1.064.175c-.969,0-1.745-.387-1.725-.852s.854-.852,1.82-.852a2.867,2.867,0,0,1,1.047.175A3.875,3.875,0,0,1,407.54,4364.162Zm0,.562c-.754,0-1.414.31-1.431.677s.6.659,1.372.677,1.395-.307,1.414-.677-.619-.677-1.375-.677Zm-3.252.967c.347,0,.619-.137.639-.291s-.272-.292-.6-.292-.6.138-.6.292.232.212.543.212Z" transform="translate(-299.994 -4325.839)"/><path class="d" d="M405.307,4360.872c-1.375,0-2.442-.56-2.4-1.257s1.047-1.182,2.285-1.239h.6a12.181,12.181,0,0,1,2.053.173,4.145,4.145,0,0,1,1.705.679,1.077,1.077,0,0,1,.445.772c0,.155-.232.292-.563.292s-.541-.118-.56-.273a.661.661,0,0,0-.272-.482,2.108,2.108,0,0,0-.7-.327h-.252a.735.735,0,0,1,.176.48C407.786,4360.313,406.663,4360.872,405.307,4360.872Zm0-.56c.734,0,1.356-.312,1.375-.7s-.563-.679-1.3-.679-1.336.309-1.355.679.563.7,1.3.7Z" transform="translate(-299.444 -4334.209)"/><path class="h" d="M405.042,4354.865c-.311,0-.563-.138-.563-.292v-1.627c0-.151.291-.309.6-.309s.541.158.541.309v1.627C405.622,4354.727,405.35,4354.865,405.042,4354.865Z" transform="translate(-297.165 -4342.51)"/><path class="d" d="M420.513,4369.819c.347,0,.639.117.639.291H422c.35,0,.621.135.641.291s-.252.29-.6.29h-.851l.115,1.606h0a.2.2,0,0,1-.135.175,1.11,1.11,0,0,1-.871,0l-5.326-1.937h4.92C419.894,4369.936,420.166,4369.819,420.513,4369.819Zm-3.349.911,2.865,1.026v-1.026Z" transform="translate(-282.177 -4317.654)"/><path class="d" d="M417.318,4364.606a4.173,4.173,0,0,1,1.938-.389,4.7,4.7,0,0,1,1.935.389c.543.252.815.579.834.91h0c0,.328-.215.659-.717.911a1.123,1.123,0,0,1-.871,0c-.252-.116-.252-.312,0-.426s.426-.311.406-.485a.716.716,0,0,0-.465-.5,2.522,2.522,0,0,0-1.028-.192,2.367,2.367,0,0,0-1.025.192.578.578,0,0,0-.386.5c0,.174.154.348.445.485s.269.31,0,.426h-.5l-2.809-.157a.8.8,0,0,1-.426-.135h0a.243.243,0,0,1,0-.133v-1.531c0-.175.252-.31.6-.31s.6.134.6.31v1.258h1.064a.618.618,0,0,1-.115-.348C416.565,4365.185,416.8,4364.858,417.318,4364.606Z" transform="translate(-282.469 -4325.838)"/><path class="d" d="M418.823,4358.367c1.355,0,2.5.563,2.537,1.26s-.871,1.182-2.111,1.259h-.6a10.9,10.9,0,0,1-2.092-.2,4.186,4.186,0,0,1-1.781-.657,1.243,1.243,0,0,1-.524-.775c0-.174.213-.289.524-.308s.563.115.6.272a.716.716,0,0,0,.311.5,2.569,2.569,0,0,0,.737.311h.272a.8.8,0,0,1-.232-.505C416.423,4358.93,417.488,4358.367,418.823,4358.367Zm0,.583c-.717,0-1.316.308-1.3.678s.658.678,1.395.678,1.316-.292,1.277-.678-.6-.678-1.336-.678Z" transform="translate(-283.025 -4334.221)"/><path class="h" d="M417.477,4354.9c0,.155-.213.272-.485.272s-.5-.117-.521-.272l-.117-2.091c0-.136.213-.27.484-.27s.484.116.5.27Zm-2.594-1.393h0c.347,0,.658.157.658.349s-.272.367-.621.367h0c-.347,0-.639-.153-.658-.367s.252-.349.6-.349Zm3.871,0h0c.35,0,.641.157.641.349s-.252.367-.6.367h0c-.367,0-.658-.173-.678-.367s.369-.349.717-.349Z" transform="translate(-283.014 -4342.657)"/><path class="d" d="M428.1,4370.159h6.66c.35,0,.641.134.678.288s-.213.292-.56.292h-5.654l.291.193s.115.118.115.156,0,.193-.272.232a1.114,1.114,0,0,1-.871,0l-.93-.64h.485Z" transform="translate(-263.779 -4317.159)"/><path class="d" d="M433.315,4364.145c.347,0,.619.136.658.292l.348,1.835h0a.192.192,0,0,1-.154.213,1.16,1.16,0,0,1-.851,0l-3.156-1.549a2.6,2.6,0,0,0-1.064-.212,2.058,2.058,0,0,0-.891.174c-.291.136-.409.31-.37.5s.174.31.426.445l.33.156c.252.116.252.288,0,.406a1.144,1.144,0,0,1-.834,0l-.328-.154a1.292,1.292,0,0,1-.812-.833,1.015,1.015,0,0,1,.695-.929,4.029,4.029,0,0,1,1.666-.328,4.6,4.6,0,0,1,1.938.424l1.935.97-.213-1.108A.789.789,0,0,1,433.315,4364.145Z" transform="translate(-265.14 -4325.862)"/><path class="d" d="M428.392,4358.762a3.6,3.6,0,0,1,1.666-.328,4.454,4.454,0,0,1,1.837.368c.543.25.854.583.91.91s-.115.659-.56.911a.988.988,0,0,1-.815,0c-.249-.114-.269-.292,0-.406a.526.526,0,0,0,.311-.5.813.813,0,0,0-.5-.483,2.1,2.1,0,0,0-1.006-.212,1.646,1.646,0,0,0-.91.212c-.252.135-.35.309-.33.483s0,.154-.134.212h0a1.062,1.062,0,0,1-.815,0l-1.14-.523.135.835c0,.155-.193.292-.524.292s-.6-.138-.619-.292l-.252-1.528c0-.176.213-.292.523-.292h.426l1.434.659A1.376,1.376,0,0,1,428.392,4358.762Z" transform="translate(-266.549 -4334.151)"/><path class="h" d="M426.217,4352.775l1.666.621,1.453-.621a.874.874,0,0,1,.7,0s.135.117.135.176a.23.23,0,0,1-.154.231l-1.221.521,1.414.5a.3.3,0,0,1,.252.213.523.523,0,0,1,0,.175.788.788,0,0,1-.678,0l-1.705-.62-1.451.62a.875.875,0,0,1-.7,0c-.176-.136-.157-.29,0-.389l1.2-.5-1.375-.521c-.232-.1-.308-.271-.174-.408A.819.819,0,0,1,426.217,4352.775Z" transform="translate(-266.737 -4342.415)"/><path class="d" d="M442.856,4370.522c0-.212.272-.388.734-.388s.893.175.969.388-.272.39-.736.39S442.932,4370.735,442.856,4370.522Z" transform="translate(-241.646 -4317.194)"/><path class="d" d="M442.88,4366.776a9.488,9.488,0,0,1-2.691-.348c-.736-.213-1.336-.563-1.453-.969s.291-.735.91-.95a7.257,7.257,0,0,1,2.461-.347,9.2,9.2,0,0,1,2.652.347c.753.215,1.375.564,1.49.95s-.289.756-.91.969A7.384,7.384,0,0,1,442.88,4366.776Zm-.6-2.035a6.434,6.434,0,0,0-1.938.232c-.406.156-.58.332-.521.485s.308.348.793.5a8.037,8.037,0,0,0,1.938.251,6.423,6.423,0,0,0,1.837-.251c.409-.157.563-.33.5-.5s-.291-.329-.812-.485a7.917,7.917,0,0,0-1.8-.232Z" transform="translate(-247.635 -4325.84)"/><path class="h" d="M439.032,4360.605c-.308,0-.619-.134-.678-.308l-.445-1.589c0-.175.176-.312.484-.312s.619.136.678.312l.465,1.589C439.595,4360.393,439.421,4360.605,439.032,4360.605Zm1.938,0c-.35,0-.658-.134-.7-.308l-.484-1.589c0-.175.193-.312.524-.312s.639.136.678.312l.484,1.589c.017.095-.118.308-.543.308Z" transform="translate(-248.802 -4334.174)"/><path class="h" d="M438.826,4354.151l.233.737c0,.154-.154.271-.445.271s-.58-.117-.619-.271l-.213-.737h-1.26c-.289,0-.58-.136-.619-.289s.154-.311.465-.311h1.316l-.213-.735c0-.156.154-.291.445-.291s.563.135.6.291l.215.735h1.336a.7.7,0,0,1,.639.292c0,.173-.157.309-.465.309Z" transform="translate(-251.713 -4342.668)"/><path class="h" d="M390.973,4363.9c.252,0,.445.1.426.214l-.115.659c1.51.269,5.461.947,6.6,1.1a1.021,1.021,0,0,1,.348.114.157.157,0,0,1,.1.157s0,.135-.213.193-1.512.7-2.053.91a2.029,2.029,0,0,1-1.123.136c-.059-.04,0,0,0-.116s0-.136.174-.2l.524-.232.426-.193.406-.174.426-.193-6.234-1.083h-.157s-.135-.119-.115-.174l.154-.855C390.508,4364.054,390.741,4363.9,390.973,4363.9Z" transform="translate(-317.546 -4326.218)"/><path class="j" d="M410.653,4350.556,395.626,4405.3H366.348l20.8-54.721Z" transform="translate(-352.329 -4345.521)"/><path class="d" d="M374.848,4360.662h10.205c.541,0,.891.213.812.481s-.56.466-1.1.466h-8.5l.272.35a.254.254,0,0,1,0,.25.928.928,0,0,1-.621.407,1.373,1.373,0,0,1-1.258-.173l-.891-1.047h.619Z" transform="translate(-341.6 -4330.898)"/><path class="d" d="M385.9,4358.612c.524,0,.852.214.776.485l-.93,3.059h0a.755.755,0,0,1-.406.347,1.74,1.74,0,0,1-1.336,0l-3.758-2.575a2.7,2.7,0,0,0-1.51-.349,4.7,4.7,0,0,0-1.568.272,1.681,1.681,0,0,0-1.008.834.617.617,0,0,0,.311.754l.387.271c.291.193.154.484-.291.677a1.641,1.641,0,0,1-1.336,0l-.387-.27a1.143,1.143,0,0,1-.56-1.4,3.053,3.053,0,0,1,1.935-1.528,7.762,7.762,0,0,1,2.9-.542,5.075,5.075,0,0,1,2.77.677l2.4,1.646.563-1.841C384.9,4358.827,385.378,4358.612,385.9,4358.612Z" transform="translate(-340.939 -4333.865)"/><path class="d" d="M380.252,4357.173a7.746,7.746,0,0,1,3.1-.623,5.261,5.261,0,0,1,2.711.623,1.317,1.317,0,0,1,.753,1.53,2.874,2.874,0,0,1-1.683,1.508,1.614,1.614,0,0,1-1.336,0c-.311-.194-.215-.5.213-.7a1.538,1.538,0,0,0,.91-.812.723.723,0,0,0-.389-.836,2.933,2.933,0,0,0-1.49-.347,4.137,4.137,0,0,0-1.686.347,1.78,1.78,0,0,0-.947.815c0,.153-.176.272-.409.367h0a1.685,1.685,0,0,1-1.336,0l-1.431-.871-.484,1.4c0,.271-.6.484-1.123.484s-.871-.213-.776-.484l.891-2.557c0-.273.6-.485,1.1-.485a1.481,1.481,0,0,1,.426,0h.213l1.784,1.1A3.71,3.71,0,0,1,380.252,4357.173Z" transform="translate(-340.053 -4336.896)"/><path class="d" d="M384.5,4354.077c.5,0,.815.212.737.484v.1h1.241c.5,0,.812.193.734.464s-.521.485-1.025.485h-1.24l-.851,2.71h0a.539.539,0,0,1-.291.31,1.565,1.565,0,0,1-1.277,0l-6.447-3.2h0v-.1h7.01v-.1C383.634,4354.309,384.023,4354.077,384.5,4354.077Zm-5.383,1.53,3.447,1.72.56-1.72Z" transform="translate(-338.245 -4340.425)"/><path class="d" d="M381.611,4352.7a7.142,7.142,0,0,1,2.983-.637,4.821,4.821,0,0,1,2.557.637,1.274,1.274,0,0,1,.695,1.51h0a2.723,2.723,0,0,1-1.625,1.511,1.474,1.474,0,0,1-1.28,0c-.289-.194-.193-.5.213-.695a1.524,1.524,0,0,0,.891-.834.674.674,0,0,0-.367-.813,2.568,2.568,0,0,0-1.395-.349,3.877,3.877,0,0,0-1.627.349,1.491,1.491,0,0,0-.891.813.681.681,0,0,0,.35.834c.291.193.174.5-.232.695l-.233.1h-.563l-4.066-.252a.887.887,0,0,1-.56-.233h0a.173.173,0,0,1,0-.213l.891-2.556c0-.271.56-.483,1.064-.483s.815.211.717.483l-.736,2.129,1.549.1a1.554,1.554,0,0,1,0-.583A2.894,2.894,0,0,1,381.611,4352.7Z" transform="translate(-337.752 -4343.347)"/></g><g transform="translate(325.757 271.439)"><path class="d" d="M593.22,4168.5a64.636,64.636,0,0,1-103.169,51.917l-31.738,8.074L471.5,4199a64.656,64.656,0,1,1,121.645-30.5Z" transform="translate(-456.937 -4103.496)"/><path class="b" d="M594.033,4168.671a64.955,64.955,0,0,1-9.584,33.945,73.356,73.356,0,0,1-5.131,7.3,72.441,72.441,0,0,1-6.178,6.445c-1.143.968-2.151,2.091-3.369,2.943L566.19,4222c-1.182.888-2.518,1.605-3.758,2.4l-1.935,1.178c-.639.37-1.336.679-1.938,1.01l-4.027,1.934-4.2,1.57a29.852,29.852,0,0,1-4.279,1.3c-1.453.348-2.885.852-4.358,1.065a63.269,63.269,0,0,1-8.908,1.082,55.284,55.284,0,0,1-8.965,0,64.785,64.785,0,0,1-33.324-12.413l.58.118-31.621,8.249-1.705.444.717-1.626,13.109-29.51v.812a64.023,64.023,0,0,1-7.744-28.482,65.12,65.12,0,1,1,130.2-2.461Zm0,0a64.8,64.8,0,0,0-25-50.81,65.635,65.635,0,0,0-26.334-12.1,64.407,64.407,0,0,0-28.893.792,63.578,63.578,0,0,0-25.636,13.247,66.625,66.625,0,0,0-17.156,23.062,63.893,63.893,0,0,0,2.128,55.881l.213.408-.174.408-13.264,29.452-.988-1.163,31.719-7.935h.311l.269.191a63.913,63.913,0,0,0,32.57,12.606,56.134,56.134,0,0,0,8.85.133,64.051,64.051,0,0,0,8.811-.945c1.473-.216,2.885-.678,4.338-1.008a29.478,29.478,0,0,0,4.26-1.241l4.184-1.49,4.008-1.937c.678-.33,1.355-.621,1.935-.969l1.938-1.142c1.258-.8,2.594-1.471,3.775-2.345l3.582-2.651a39.912,39.912,0,0,0,3.369-2.905,73.494,73.494,0,0,0,6.2-6.39,70.469,70.469,0,0,0,5.15-7.262A64.8,64.8,0,0,0,594.033,4168.671Z" transform="translate(-457.75 -4103.668)"/><path class="b" d="M498.4,4181.942,474.331,4157.6l8.094-7.978,14.039,14.214,29.2-45.756,9.566,6.1Z" transform="translate(-433.763 -4082.819)"/></g></g></g><g transform="translate(232.082 8447.14)"><g transform="translate(0)"><g transform="translate(0 493.035)"><g transform="translate(0.008)"><path class="b" d="M522.727,435.543l-.791,28.361s-29.092,8.72-29.749,13.948l54.935,3.507,3.045-44.138Z" transform="translate(-492.187 -435.543)"/></g><g transform="translate(44.088 26.938)"><path class="k" d="M501.163,452.935a2.248,2.248,0,0,1,1.388,2.66,2.162,2.162,0,0,1-2.624,1.4,2.373,2.373,0,0,1-1.456-2.824,2.243,2.243,0,0,1,2.891-1.151" transform="translate(-498.356 -452.809)"/></g><g class="l" transform="translate(0 39.659)"><path class="d" d="M549,467.119l.133-4.46-52.719-1.7s-2.513.908-2.348,2.649Z" transform="translate(-494.054 -460.963)"/></g><g transform="translate(28.884 27.824)"><path class="m" d="M507.754,453.577c-.008.268,1.325.476,2.59,1.423,1.29.914,1.9,2.12,2.15,2.03.25-.037-.047-1.666-1.6-2.785C509.353,453.11,507.711,453.327,507.754,453.577Z" transform="translate(-507.753 -453.377)"/></g><g transform="translate(22.966 29.947)"><path class="m" d="M512.445,454.83c-.078.256,1.055.786,1.894,1.978.874,1.169,1.025,2.41,1.293,2.415.248.059.535-1.5-.536-2.964S512.466,454.574,512.445,454.83Z" transform="translate(-512.441 -454.738)"/></g><g transform="translate(17.399 31.968)"><path class="m" d="M518.616,460.791c.241.073.7-1.243.1-2.757s-1.812-2.178-1.939-1.961c-.167.211.6,1.05,1.067,2.3C518.348,459.612,518.352,460.747,518.616,460.791Z" transform="translate(-516.758 -456.033)"/></g><g transform="translate(29.774 20.772)"><path class="m" d="M506.624,449.665c.1.253,1.351-.039,2.861.161,1.513.169,2.66.753,2.815.532.169-.184-.92-1.251-2.7-1.46C507.819,448.673,506.506,449.447,506.624,449.665Z" transform="translate(-506.617 -448.857)"/></g><g transform="translate(30.047 11.871)"><path class="m" d="M504.609,447.143a5.176,5.176,0,0,0,2.752.162,12.531,12.531,0,0,0,2.935-.7,13.165,13.165,0,0,0,1.633-.738,3.388,3.388,0,0,0,.872-.595,1.171,1.171,0,0,0,.214-1.418,1.47,1.47,0,0,0-1.136-.689,3.608,3.608,0,0,0-1.041.076,9.946,9.946,0,0,0-1.747.477,9.766,9.766,0,0,0-2.644,1.5c-1.35,1.1-1.849,2.073-1.76,2.131.115.1.789-.7,2.148-1.6a11.036,11.036,0,0,1,2.543-1.225,10.106,10.106,0,0,1,1.61-.387c.591-.116,1.087-.089,1.22.181.047.1.051.14-.081.3a2.7,2.7,0,0,1-.641.434,14.558,14.558,0,0,1-1.506.738,15.264,15.264,0,0,1-2.726.85A19.124,19.124,0,0,0,504.609,447.143Z" transform="translate(-504.609 -443.152)"/></g><g transform="translate(27.136 7.401)"><path class="m" d="M512.513,449.155c.092.047.687-.88.9-2.612a8.9,8.9,0,0,0-.777-4.751,2.277,2.277,0,0,0-1.666-1.5,1.286,1.286,0,0,0-1.2.693,3.7,3.7,0,0,0-.346.991,6.14,6.14,0,0,0-.12,1.854,6.352,6.352,0,0,0,.992,2.917c.983,1.491,2.083,1.883,2.111,1.794.1-.13-.8-.707-1.538-2.126a6.359,6.359,0,0,1-.705-2.641,5.675,5.675,0,0,1,.153-1.587c.122-.579.371-1.036.587-.961.273.013.71.482.9.963a9.245,9.245,0,0,1,.587,1.534,9.929,9.929,0,0,1,.357,2.78C512.721,448.119,512.37,449.1,512.513,449.155Z" transform="translate(-509.278 -440.286)"/></g></g><g transform="translate(126.426 491.797)"><path class="b" d="M452.328,434.749l3.309,36.437,10.927,28.066a3.749,3.749,0,0,1-2.373,4.938h0a3.729,3.729,0,0,1-3.381-.588c-6.155-4.688-28.705-22.048-28.8-24.727-.108-3.1-6.042-38.2-6.042-38.2Z" transform="translate(-425.969 -434.749)"/><g class="l" transform="translate(5.763 41.672)"><path class="d" d="M460.114,489.228l-32.459-27.769.175,1.54a5.646,5.646,0,0,0,1.744,3.484c2.616,2.45,9.993,9.057,27.048,22.171a3.746,3.746,0,0,0,3.492.574Z" transform="translate(-427.655 -461.459)"/></g><g class="l" transform="translate(8.77 28.851)"><path class="d" d="M446.916,453.486a2.267,2.267,0,0,1,.952,2.872,2.181,2.181,0,0,1-2.838.97,2.391,2.391,0,0,1-.992-3.048,2.261,2.261,0,0,1,3.064-.68" transform="translate(-443.799 -453.241)"/></g><g transform="translate(28.049 49.689)"><path class="m" d="M429.734,471.413c.217.078.821-1.921,2.866-3.191,2.006-1.331,4.074-1.047,4.094-1.278.022-.092-.471-.323-1.336-.345a5.977,5.977,0,0,0-5.382,3.456C429.637,470.851,429.64,471.394,429.734,471.413Z" transform="translate(-429.68 -466.597)"/></g><g transform="translate(31.218 55.922)"><path class="m" d="M427.96,473.748c.192.137,1.223-1.176,3.042-1.93,1.8-.793,3.465-.629,3.5-.861.084-.2-1.754-.771-3.813.123C428.619,471.949,427.76,473.671,427.96,473.748Z" transform="translate(-427.932 -470.593)"/></g><g transform="translate(22.555 43.513)"><path class="m" d="M431.457,467.94c.19.153,1.768-1.877,4.493-3.3,2.7-1.462,5.27-1.629,5.25-1.872.036-.2-2.723-.4-5.626,1.162C432.656,465.464,431.27,467.858,431.457,467.94Z" transform="translate(-431.441 -462.639)"/></g><g transform="translate(20.634 35.64)"><path class="m" d="M432.882,459.774c.122.208,2.035-.861,4.637-1.253,2.6-.427,4.746,0,4.8-.234.081-.191-2.13-1.013-4.922-.56C434.6,458.156,432.748,459.618,432.882,459.774Z" transform="translate(-432.876 -457.593)"/></g><g transform="translate(19.392 24.892)"><path class="m" d="M433.475,452.961c.136.2,2.017-1.244,4.791-1.432,2.771-.25,4.855.878,4.958.662.051-.083-.4-.493-1.29-.883a8.175,8.175,0,0,0-7.323.58C433.79,452.412,433.411,452.888,433.475,452.961Z" transform="translate(-433.468 -450.704)"/></g><g transform="translate(18.185 16.951)"><path class="m" d="M439.181,452.357a3.13,3.13,0,0,0-.108-1.381,9.63,9.63,0,0,0-1.5-3.478,4.26,4.26,0,0,0-2.047-1.814,1.507,1.507,0,0,0-1.649.526,2.451,2.451,0,0,0-.388,1.707,5.3,5.3,0,0,0,5.169,4.345,6.147,6.147,0,0,0,5.635-3.878,2.133,2.133,0,0,0-.1-1.774,1.479,1.479,0,0,0-1.626-.6,5.26,5.26,0,0,0-2.253,1.518,10.725,10.725,0,0,0-2.159,3.108,3.291,3.291,0,0,0-.415,1.318,17.094,17.094,0,0,1,2.969-4.017,4.9,4.9,0,0,1,2-1.275.79.79,0,0,1,.888.323,1.464,1.464,0,0,1,0,1.17,5.486,5.486,0,0,1-4.924,3.306,4.6,4.6,0,0,1-4.442-3.626,1.784,1.784,0,0,1,.222-1.2.812.812,0,0,1,.9-.3,3.85,3.85,0,0,1,1.762,1.5A14.231,14.231,0,0,1,439.181,452.357Z" transform="translate(-433.471 -445.614)"/></g></g><g transform="translate(24.678 231.399)"><path class="b" d="M558.973,267.891l2.169,284.16L521.181,554.6l-8.414-237.368L464.874,553.264l-36.321-3.824,38.634-281.6Z" transform="translate(-428.553 -267.844)"/></g><g transform="translate(80.746)"><g transform="translate(0 0.647)"><g transform="translate(7.52)"><path class="n" d="M465.94,120.015A24.217,24.217,0,0,1,492,142.69c.677,11.247,1.292,23.413,1.217,29.541-.162,13.154-13.319,15.2-13.319,15.2s.321,3.9.685,8.734A17.33,17.33,0,0,1,464.1,214.777h0a17.324,17.324,0,0,1-18.1-16.53l-2.381-53a24.223,24.223,0,0,1,22.32-25.237Z" transform="translate(-443.596 -119.94)"/><g transform="translate(19.174 62.427)"><path class="o" d="M469.255,164.828a30.586,30.586,0,0,1-17.151-4.874s4.055,9.467,17.18,8.283Z" transform="translate(-452.104 -159.954)"/></g></g><g transform="translate(0 29.417)"><path class="n" d="M483.042,139.21c-.225-.1-9.038-2.672-8.751,6.32s9.256,6.851,9.264,6.592S483.042,139.21,483.042,139.21Z" transform="translate(-474.284 -138.796)"/><g transform="translate(2.29 2.944)"><path class="o" d="M480.233,147.745c-.04-.027-.153.115-.413.245a1.567,1.567,0,0,1-1.17.061c-.961-.318-1.81-1.8-1.9-3.42a5.187,5.187,0,0,1,.367-2.258,1.813,1.813,0,0,1,1.141-1.24.8.8,0,0,1,.938.4c.129.248.078.431.126.443.025.022.187-.156.1-.526a1,1,0,0,0-.371-.552,1.183,1.183,0,0,0-.874-.2,2.2,2.2,0,0,0-1.593,1.448,5.309,5.309,0,0,0-.462,2.523c.115,1.811,1.1,3.478,2.409,3.811a1.678,1.678,0,0,0,1.426-.284C480.225,147.963,480.266,147.76,480.233,147.745Z" transform="translate(-476.109 -140.682)"/></g></g><g transform="translate(23.961 18.375)"><g transform="translate(0)"><g transform="translate(1.278 7.086)"><g transform="translate(0)"><g transform="translate(0)"><g transform="translate(19.87)"><g transform="translate(3.728 3.955)"><path class="m" d="M450.269,140.494a1.88,1.88,0,0,1-1.813,1.9,1.8,1.8,0,0,1-1.936-1.694,1.881,1.881,0,0,1,1.81-1.9A1.8,1.8,0,0,1,450.269,140.494Z" transform="translate(-446.519 -138.795)"/></g><g transform="translate(0)"><path class="m" d="M453.96,138.235c-.234.245-1.657-.808-3.679-.8-2.019-.023-3.5,1.016-3.722.769-.108-.109.131-.552.777-1.022a5.145,5.145,0,0,1,2.98-.919,4.946,4.946,0,0,1,2.927.945C453.863,137.681,454.074,138.124,453.96,138.235Z" transform="translate(-446.534 -136.26)"/></g></g><g transform="translate(0 0.378)"><g transform="translate(3.727 3.578)"><path class="m" d="M463.005,140.494a1.88,1.88,0,0,1-1.812,1.9,1.8,1.8,0,0,1-1.936-1.694,1.879,1.879,0,0,1,1.81-1.9A1.8,1.8,0,0,1,463.005,140.494Z" transform="translate(-459.256 -138.795)"/></g><path class="m" d="M466.7,138.476c-.232.245-1.657-.808-3.677-.8-2.019-.023-3.5,1.016-3.722.769-.108-.111.128-.552.775-1.022a5.141,5.141,0,0,1,2.98-.919,4.945,4.945,0,0,1,2.927.944C466.6,137.923,466.811,138.366,466.7,138.476Z" transform="translate(-459.271 -136.502)"/></g><g transform="translate(13.815 0.5)"><path class="m" d="M452.233,153.423a13.483,13.483,0,0,1,3.283-.591c.516-.053,1-.156,1.092-.509a2.619,2.619,0,0,0-.345-1.531q-.728-1.872-1.526-3.93c-2.12-5.6-3.656-10.2-3.429-10.281s2.128,4.386,4.248,9.982q.765,2.069,1.462,3.953a2.99,2.99,0,0,1,.268,2.027,1.294,1.294,0,0,1-.849.754,3.5,3.5,0,0,1-.877.123A13.13,13.13,0,0,1,452.233,153.423Z" transform="translate(-451.286 -136.58)"/></g><g transform="translate(8.484 18.742)"><path class="m" d="M454.6,148.273c.329-.019.334,2.175,2.212,3.732s4.214,1.317,4.231,1.623c.029.139-.521.427-1.509.454A5.465,5.465,0,0,1,456,152.851a4.761,4.761,0,0,1-1.713-3.13C454.2,148.8,454.448,148.261,454.6,148.273Z" transform="translate(-454.27 -148.273)"/></g></g></g></g><path class="m" d="M468.174,133.234c-.2.549-2.219.289-4.59.574-2.378.239-4.29.933-4.6.44-.14-.236.193-.754.966-1.286a8.036,8.036,0,0,1,7.005-.772C467.821,132.542,468.259,132.972,468.174,133.234Z" transform="translate(-458.948 -131.718)"/><g transform="translate(20.947 1.116)"><path class="m" d="M453.88,134.528c-.356.459-1.747-.019-3.423-.041-1.674-.081-3.092.309-3.418-.172-.144-.234.079-.693.7-1.128a4.958,4.958,0,0,1,5.512.17C453.842,133.831,454.037,134.3,453.88,134.528Z" transform="translate(-446.996 -132.434)"/></g></g></g></g><g transform="translate(6.975)"><path class="m" d="M451.172,149.59a15.283,15.283,0,0,0,.223,4.317,4.707,4.707,0,0,0,2.3,3.283c2.259,1.128,5.094-.6,6.106-2.913s.732-4.958.5-7.472a36.369,36.369,0,0,1,.154-10.292,14.772,14.772,0,0,1,4.939-8.826,9.368,9.368,0,0,1,9.689-1.4c1.907.938,3.342,2.613,5.12,3.776a7.9,7.9,0,0,0,5.435,1.368,5.106,5.106,0,0,0,4.166-3.471,5.561,5.561,0,0,0-2.122-5.52,12.7,12.7,0,0,0-5.746-2.3,30.812,30.812,0,0,0-17.068,1.329A22.262,22.262,0,0,0,452.481,133c-2.615,6.155-2.275,9.913-1.518,16.6" transform="translate(-450.417 -119.526)"/></g></g><g transform="translate(233.366 98.952)"><path class="n" d="M402.357,182.95l-19.182,3.864-26.384,16.8,9,17.129s9.277-2.588,11.987-4.982a10.973,10.973,0,0,1,5.705-2.662s-.181,4.239,3.03,3.507,8.571-1.644,7.66-6.164c0,0,2.389-.649,2.256-3.813,0,0,2.648-.2,1.932-4.588s-3.889-10.055-12.637-8.461c-.454.092-1.056-.775-.264-1.073l13.528-3.189S407.456,185.974,402.357,182.95Z" transform="translate(-356.792 -182.95)"/><g transform="translate(27.823 18.868)"><path class="o" d="M369.715,195.064a13.383,13.383,0,0,0-3.214.782,28.912,28.912,0,0,0-3.442,1.167,2.928,2.928,0,0,0-1.554,1.78,2.378,2.378,0,0,0,.921,2.406c1.487,1.122,3.265.777,4.521.593a28.818,28.818,0,0,0,3.535-.727,9.02,9.02,0,0,0,3.08-1.245,26.812,26.812,0,0,0-3.214.686c-.987.2-2.172.388-3.5.543a12.569,12.569,0,0,1-2.031.143,3.382,3.382,0,0,1-1.881-.626,1.6,1.6,0,0,1-.658-1.58,2.218,2.218,0,0,1,1.139-1.315c1.106-.555,2.346-.9,3.269-1.281A13.449,13.449,0,0,0,369.715,195.064Z" transform="translate(-361.439 -195.044)"/></g><g transform="translate(31.412 16.148)"><path class="o" d="M364.191,193.563c.023.231,1.172.259,2.292.988,1.142.7,1.663,1.719,1.881,1.64.223-.023-.044-1.451-1.449-2.326S364.118,193.351,364.191,193.563Z" transform="translate(-364.188 -193.3)"/></g><g transform="translate(28.5 24.81)"><path class="o" d="M363.976,198.861c-.036-.034-.2.022-.443.259-.293.243-.348.825-.415,1.3a2.562,2.562,0,0,0,.551,2.05,2.641,2.641,0,0,0,2.49.727,27.756,27.756,0,0,0,4.2-.846c1.059-.345,1.645-.722,1.6-.818-.045-.111-.693.07-1.743.261s-2.535.349-4.162.6a1.988,1.988,0,0,1-1.832-.423,2.106,2.106,0,0,1-.537-1.5c.009-.593-.047-.939.1-1.175C363.917,199.053,364.02,198.9,363.976,198.861Z" transform="translate(-363.085 -198.852)"/></g><g transform="translate(26.502 28.176)"><path class="o" d="M371.147,201.18c.016-.1-.351-.267-.935-.1a3.44,3.44,0,0,0-1.719,1.37,2.5,2.5,0,0,0-.2,2.258c.19.526.42.786.519.749s.075-.373.042-.867a2.629,2.629,0,0,1,.306-1.669,4.865,4.865,0,0,1,1.284-1.312C370.826,201.358,371.141,201.3,371.147,201.18Z" transform="translate(-368.111 -201.01)"/></g><g transform="translate(12.184 17.709)"><g transform="translate(0.001 0.331)"><path class="n" d="M367.965,194.9l9.263-.382,9.723,1.9s.8,1.766-3.7,2.97a21.685,21.685,0,0,1-8.663.41s-4.011,5.849-9.225,7.2" transform="translate(-365.36 -194.513)"/></g><path class="o" d="M365.105,207.1a2.544,2.544,0,0,0,.858-.153,10.961,10.961,0,0,0,2.257-.966,21.14,21.14,0,0,0,6.4-5.874l-.362.148a20.313,20.313,0,0,0,10.656-1,5.154,5.154,0,0,0,1.535-.97,1.836,1.836,0,0,0,.608-1.927l-.063-.186-.228-.044c-3.579-.669-6.882-1.289-9.735-1.824L377,194.3l-.036,0c-2.814.153-5.128.3-6.737.42a12.759,12.759,0,0,0-2.512.29,12.482,12.482,0,0,0,2.527.083c1.613-.011,3.932-.058,6.749-.137l-.077-.006,9.707,1.969-.289-.229a1.142,1.142,0,0,1-.438,1.014,4.457,4.457,0,0,1-1.3.811,20.371,20.371,0,0,1-10.189,1.039l-.232-.033-.131.181a22.614,22.614,0,0,1-6.03,5.916A30.709,30.709,0,0,1,365.105,207.1Z" transform="translate(-365.104 -194.301)"/></g><g transform="translate(26.071 9.847)"><path class="o" d="M368.844,192.415c.119.182,1.009-.22,1.682-1.173s.763-1.925.551-1.977-.624.685-1.214,1.507S368.71,192.228,368.844,192.415Z" transform="translate(-368.824 -189.261)"/></g></g><g transform="translate(28.289 71.459)"><g transform="translate(51.213 3.605)"><path class="p" d="M506.468,326.216c-15.926,6.877-34.562,8.924-55.595,6.695l-15.4-156.886,10.923-8.386,25.168,18.706,8.623-18.026,20.206,29.028Z" transform="translate(-435.469 -167.639)"/></g><g transform="translate(88.139 22.311)"><path class="m" d="M459.925,327.056a1.365,1.365,0,0,0,.087-.371c.047-.3.1-.661.175-1.108l.594-4.278c.157-1.866.275-4.155.443-6.813.136-2.658.129-5.688.2-9.038.094-13.4-.8-31.885-2.293-52.254s-3.34-38.784-4.826-52.089c-.738-6.652-1.414-12.027-1.925-15.736-.242-1.855-.479-3.29-.638-4.264-.078-.445-.142-.808-.194-1.1a1.319,1.319,0,0,0-.094-.371,1.38,1.38,0,0,0,.011.384c.031.3.068.666.114,1.116q.178,1.568.487,4.279c.4,3.791.969,9.157,1.668,15.759,1.339,13.313,3.092,31.719,4.585,52.086s2.478,38.821,2.531,52.2c-.038,3.34.011,6.369-.083,9.021-.117,2.633-.22,4.913-.3,6.8q-.281,2.71-.442,4.279l-.1,1.119A1.358,1.358,0,0,0,459.925,327.056Z" transform="translate(-451.45 -179.629)"/></g><g transform="translate(22.971 3.605)"><path class="q" d="M509.2,356.884s11.731-122.64,4.454-136.339c-5.635-10.606-14.349-32.76-18-42.222a11.393,11.393,0,0,1,.225-8.743l.867-1.941-10.922,8.386L463.41,188.077l13.534,103.9-15.328,52.713Z" transform="translate(-461.616 -167.639)"/></g><g class="r" transform="translate(35.009 139.791)"><path d="M504.185,272.481c-9.536-1.992-5.418,3.546-15.058,2.142-5.208-.758-5.472-3.8-9.759-6.857s-10.785-5.6-16.048-5.492l2.136-7.345,39.882,1.484Z" transform="translate(-463.32 -254.929)"/></g><g transform="translate(99.277 5.413)"><path class="q" d="M461.952,193.355l-3.885,97.971,7.86,54.838-19.642,7.258L437.7,201.9a40.774,40.774,0,0,0-3.706-16.307l-7.7-16.792,26.061,8.876Z" transform="translate(-426.295 -168.798)"/></g><g transform="translate(0 24.043)"><path class="q" d="M492.932,180.739s-12.3,10.646-15.071,24.945c-2.02,10.434-7.955,47.045-9.608,65.845a22.187,22.187,0,0,0,18.775,23.934l.531.075c17.839,2.434,47.781-.931,47.781-.931l-5.222-22.783S503.633,268,498.876,264.8l6.315-42.26S500.006,181.956,492.932,180.739Z" transform="translate(-468.167 -180.739)"/></g><g transform="translate(122.245 11.557)"><path class="q" d="M461.624,206.055l-43.367,27.474s-15.62-45.892-25.657-56.682l-12.082-4.111,11.018,88.058A17.9,17.9,0,0,0,399.5,272.9h0a17.9,17.9,0,0,0,20.967-1.147l53.064-43.034Z" transform="translate(-380.518 -172.736)"/></g><g transform="translate(22.474 107.996)"><path class="m" d="M491.667,248.944a18.339,18.339,0,0,0,.264-2.556,15.584,15.584,0,0,1,5.88-10.3c1.236-.96,2.124-1.4,2.067-1.526a5.441,5.441,0,0,0-2.4,1.058,13.745,13.745,0,0,0-6.12,10.717A5.457,5.457,0,0,0,491.667,248.944Z" transform="translate(-491.35 -234.55)"/></g><g transform="translate(26.394 107.634)"><path class="m" d="M492.414,252.085c.261-.039-.922-4.178.116-9.208.961-5.046,3.632-8.42,3.407-8.556a6.713,6.713,0,0,0-1.758,2.148,19.017,19.017,0,0,0-2.57,12.959A6.706,6.706,0,0,0,492.414,252.085Z" transform="translate(-491.367 -234.318)"/></g><g transform="translate(27.785 28.33)"><path class="m" d="M485.967,183.49A34.433,34.433,0,0,1,490.7,188.2a30.241,30.241,0,0,1,5.787,14.79,62.367,62.367,0,0,1-.573,16.115c-.29,1.924-.537,3.551-.736,4.872a7.869,7.869,0,0,0-.189,1.805,7.648,7.648,0,0,0,.5-1.746c.267-1.136.624-2.785.992-4.841a55.866,55.866,0,0,0,.813-16.3,29.186,29.186,0,0,0-6.145-15.052,19.523,19.523,0,0,0-3.618-3.414A6.419,6.419,0,0,0,485.967,183.49Z" transform="translate(-485.963 -183.487)"/></g><g class="r" transform="translate(22.488 107.742)"><path d="M499.641,234.387a14.389,14.389,0,0,0-3.166,8.745,26.929,26.929,0,0,0,1.51,9.3,2.035,2.035,0,0,1,.042,1.7,1.36,1.36,0,0,1-1.974.067,3.931,3.931,0,0,1-.978-1.983c.374.42-.169,1.137-.732,1.1a1.85,1.85,0,0,1-1.293-.988c-1.741-2.71-1.6-6.306-.368-9.283a26.419,26.419,0,0,1,5.618-7.79" transform="translate(-491.752 -234.387)"/></g><g transform="translate(147.91 72.233)"><path class="m" d="M415.957,228.92c.168.125,2.855-3.364,5.308-8.189,2.471-4.818,3.722-9.039,3.523-9.1-.226-.081-1.8,3.972-4.247,8.732C418.118,225.128,415.759,228.785,415.957,228.92Z" transform="translate(-415.946 -211.627)"/></g><g transform="translate(154.118 71.969)"><path class="m" d="M415.239,232.32a10.97,10.97,0,0,0,1.087-2.935,75.572,75.572,0,0,0,2.719-14.8,10.967,10.967,0,0,0,.028-3.127c-.237-.02-.752,4.7-1.818,10.45C416.208,227.657,415.012,232.253,415.239,232.32Z" transform="translate(-415.211 -211.458)"/></g><g transform="translate(131.17 42.295)"><path class="m" d="M431.479,192.438c-.225,0-.406,19.174-.406,42.822s.181,42.825.406,42.825.406-19.17.406-42.825S431.7,192.438,431.479,192.438Z" transform="translate(-431.073 -192.438)"/></g><g transform="translate(104.165 7.238)"><path class="m" d="M437.814,169.968a4.08,4.08,0,0,0,.52.758l1.554,2.12A95.112,95.112,0,0,1,445.132,181a49.786,49.786,0,0,1,5.56,13.224c.482,2.616.8,5.537,1.234,8.494,1.295,3.119-1.777,5.15-4.281,6.843l-.627.423.7.3a12.863,12.863,0,0,1,2.535,1.624c1.12.867,2.2,1.794,3.167,2.685l-.128-.328c-.488,6.2-1.555,12.055-2.257,17.36-.743,5.281-1.412,10.022-1.975,14.029-.523,3.9-.947,7.08-1.256,9.389-.123,1.039-.223,1.882-.3,2.546a3.887,3.887,0,0,0-.051.891,4.06,4.06,0,0,0,.206-.869c.115-.658.263-1.493.445-2.523.37-2.3.878-5.467,1.5-9.353.615-4,1.342-8.734,2.151-14,.746-5.311,1.836-11.115,2.345-17.4l.016-.2-.144-.131c-1-.913-2.073-1.846-3.223-2.737a13.351,13.351,0,0,0-2.738-1.735l.07.719a17.231,17.231,0,0,0,3.736-3.05,4.44,4.44,0,0,0,1.13-2.233,2.633,2.633,0,0,0,0-.674l-.08-.562-.159-1.114c-.454-2.961-.768-5.78-1.3-8.543a37.532,37.532,0,0,0-2.618-7.373,63.407,63.407,0,0,0-3.178-5.975,78.736,78.736,0,0,0-5.481-8.05c-.707-.9-1.271-1.59-1.675-2.036A4.13,4.13,0,0,0,437.814,169.968Z" transform="translate(-437.813 -169.967)"/></g><g transform="translate(52.392 10.114)"><path class="m" d="M466.845,171.811a2.152,2.152,0,0,0-.215.654,16.028,16.028,0,0,0-.384,1.933,27.909,27.909,0,0,0,.022,7.242,68.191,68.191,0,0,0,2.342,10.469,85.32,85.32,0,0,0,4.451,12.349c1.7,3.833,3.515,7.408,5.175,10.687l.084.165.178.036q1.947.393,3.763.757l-.2-.585-2.429,2.883-.157.186.125.2c2.217,3.559,4.069,6.534,5.45,8.749l1.554,2.4a3.884,3.884,0,0,0,.6.808,3.943,3.943,0,0,0-.435-.911l-1.4-2.492c-1.318-2.251-3.088-5.276-5.206-8.894l-.031.385,2.473-2.844.4-.459-.6-.126-3.754-.8.264.2c-1.631-3.294-3.423-6.866-5.111-10.673a90.431,90.431,0,0,1-4.478-12.232,73.927,73.927,0,0,1-2.49-10.333,31.18,31.18,0,0,1-.278-7.131C466.7,172.747,466.925,171.828,466.845,171.811Z" transform="translate(-466.024 -171.811)"/></g><g class="r" transform="translate(149.595 71.103)"><path d="M414.433,228.609c1.938-5.529,4.606-11.1,6.979-16.46l1.967-1.246c1.605,4.914.989,10.291-.741,15.162a1.589,1.589,0,0,1-.814,1.077,1.122,1.122,0,0,1-1.317-.942,3.251,3.251,0,0,1,.331-1.78,47,47,0,0,1-4.376,6.472,1.85,1.85,0,0,1-.938.738,1.29,1.29,0,0,1-1.395-1.092A3.717,3.717,0,0,1,414.433,228.609Z" transform="translate(-414.089 -210.903)"/></g><g class="r" transform="translate(114.991 42.924)"><path d="M435.7,243.4c3.741-10.587,7.506-21.268,8.986-32.4a19.026,19.026,0,0,0-.1-7.386,7.633,7.633,0,0,0-4.623-5.431,4.125,4.125,0,0,0,.064-5.343l-4.563,4.85c2.365-.033,4.35,2.019,5.041,4.283s.381,4.694.067,7.041q-2.335,17.388-4.668,34.777" transform="translate(-435.468 -192.841)"/></g><g class="r" transform="translate(55.492 32.546)"><path d="M472.825,209.983q-3.4-11.9-6.8-23.794,2.857,6.822,5.716,13.645a18.824,18.824,0,0,0,2.992,5.393,6.38,6.38,0,0,0,5.464,2.348L476.647,210c2.548,4.1,5.047,8.595,7.593,12.692l-5.473.462-6-9.536q.915-1.643,1.831-3.287Z" transform="translate(-466.026 -186.189)"/></g><g transform="translate(61.55)"><path class="p" d="M485.654,170.741l-.292-3.808-7.048,9.952-2.249,10.754L470.3,176.885l-19.884-11.557v10.114l3.8,9.824,7.41,5.721,8.486,3.719,10.088-1.885,6.1-3.45,1.355-7.133Z" transform="translate(-450.417 -165.328)"/></g><g transform="translate(91.013 10.712)"><path class="m" d="M450.3,172.894c-.111.047.415,1.382,1.031,3.624A29.3,29.3,0,0,1,452.5,185.5l-.07,1.537.813-1.29.5-.785c1.989-3.395,2.918-6.787,3.925-9.066.95-2.314,1.779-3.629,1.673-3.7a11.341,11.341,0,0,0-2.2,3.464c-1.156,2.262-2.184,5.631-4.1,8.885l-.476.755.743.246a25.524,25.524,0,0,0-1.452-9.191A12.076,12.076,0,0,0,450.3,172.894Z" transform="translate(-450.283 -172.195)"/></g><g transform="translate(61.119 6.577)"><path class="m" d="M461.581,169.544c-.028,0-.045.139-.053.409a4.877,4.877,0,0,0,.122,1.175,9.138,9.138,0,0,0,2.109,3.766,25.045,25.045,0,0,0,4.868,4.117,66.617,66.617,0,0,1,6.2,4.554,60.6,60.6,0,0,0,5.612,4.134l.727.448-.153-.844a23.156,23.156,0,0,1-.17-5.1c.083-1.555.215-2.925.328-4.06a25.112,25.112,0,0,0,.3-3.618,17.187,17.187,0,0,0-.763,3.557c-.178,1.133-.37,2.506-.5,4.077a22.071,22.071,0,0,0,.064,5.29l.574-.4a68.664,68.664,0,0,1-5.508-4.123,58.885,58.885,0,0,0-6.287-4.54,26.81,26.81,0,0,1-4.855-3.88,9.755,9.755,0,0,1-2.233-3.467C461.661,170.106,461.664,169.541,461.581,169.544Z" transform="translate(-461.522 -169.544)"/></g><g transform="translate(30.374 90.207)"><path class="m" d="M471.065,272.658a2.46,2.46,0,0,0,.637.084l1.849.117c1.615.083,3.978.165,6.961.218s6.586.072,10.682.028c2.047-.023,4.219-.064,6.5-.137l3.5-.15,1.812-.125.927-.1c.159-.025.311-.039.479-.076a1.9,1.9,0,0,0,.264-.061l.151-.052a.6.6,0,0,0,.309-.351l.008-.089-.012-.055c-1.362-6.158-2.857-12.91-4.423-19.99-.3-1.329-.591-2.648-.88-3.942l-.061-.273-.276-.04c-12.2-1.79-23.316-3.618-31.181-6.9l.178.323c.76-5.459,1.379-9.916,1.824-13.108.189-1.487.338-2.676.452-3.577a6.91,6.91,0,0,0,.1-1.256,6.838,6.838,0,0,0-.273,1.231q-.229,1.341-.612,3.552c-.509,3.183-1.219,7.626-2.089,13.068l-.036.229.215.094c7.946,3.44,19.093,5.339,31.3,7.147l-.337-.312c.289,1.295.582,2.613.877,3.944,1.588,7.074,3.1,13.821,4.484,19.976l.332-.087c-9.756.442-18.282.623-24.215.629l-6.957,0-1.852,0A2.5,2.5,0,0,0,471.065,272.658Z" transform="translate(-467.853 -223.148)"/></g></g><g transform="translate(60.36 139.47)"><g transform="translate(0)"><g transform="translate(0 10.846)"><path class="j" d="M443.432,215.872l13.5,32.745,19.871,3.526,5.332,23.927-13.127.76.1.875,51.509,1.467-21.794-63.3Z" transform="translate(-443.432 -215.872)"/></g><g transform="translate(55.385)"><path class="j" d="M446.148,208.92l-7.263,10.846,21.794,63.3,7.1-12.14Z" transform="translate(-438.884 -208.92)"/></g><g transform="translate(0)"><path class="a" d="M452.746,219.767l7.956-7.724,54.692-3.122-7.263,10.846Z" transform="translate(-452.746 -208.92)"/></g><g transform="translate(55.379 10.845)"><path class="m" d="M443.434,215.872c-.212.073,4.495,14.305,10.512,31.782s11.069,31.593,11.281,31.52-4.495-14.3-10.514-31.783S443.647,215.8,443.434,215.872Z" transform="translate(-443.428 -215.872)"/></g></g><g transform="translate(34.106 31.878)"><path class="n" d="M440.183,246.4l9.436-.814s3.655-6.064,6.056-8.178,14.809-8.054,14.809-8.054a3.426,3.426,0,0,1,0,4.354c-.815.98-6.682,4.28-6.682,4.28h0a3.383,3.383,0,0,0,3.86,4.267c3.634-.666,7.868-1.421,8.427-1.421.621,0,4.25-3.432,6.913-6.036,1.6-1.562,4.447-.07,3.811,2.072a1.128,1.128,0,0,1-.318.538s3.827-.136.412,5.01c0,0,.788,4.751-2.013,6.929,0,0-1.211,5.741-3.011,7.72s-19.4,5.74-19.4,5.74l-18.333,1.78Z" transform="translate(-440.183 -229.353)"/><g transform="translate(29.055 7.974)"><path class="o" d="M441.485,244.84a10.633,10.633,0,0,0,3.148.076,16.524,16.524,0,0,0,7.4-1.944,15.347,15.347,0,0,0,5.153-5.656,10.43,10.43,0,0,0,1.343-2.85,14.517,14.517,0,0,0-1.83,2.545,17.125,17.125,0,0,1-5.081,5.262,18.765,18.765,0,0,1-7.038,2.072A14.17,14.17,0,0,0,441.485,244.84Z" transform="translate(-441.485 -234.464)"/></g><g transform="translate(30.867 13.185)"><path class="o" d="M441.076,247.048a5.913,5.913,0,0,0,2.875.225,20.337,20.337,0,0,0,3.1-.451,9.742,9.742,0,0,0,3.627-1.479,16.77,16.77,0,0,0,2.7-2.772q1-1.252,1.935-2.41a10.135,10.135,0,0,0,1.635-2.351,10.084,10.084,0,0,0-2.072,1.977c-.6.641-1.31,1.423-2.069,2.3a19.186,19.186,0,0,1-2.613,2.605,9.891,9.891,0,0,1-3.32,1.4,28.916,28.916,0,0,1-2.985.607C442.168,246.97,441.092,246.932,441.076,247.048Z" transform="translate(-441.076 -237.804)"/></g><g transform="translate(33.342 19.99)"><path class="o" d="M442.366,249.138c.053.326,3.2-.337,6.916-1.376a3.215,3.215,0,0,0,1.362-.824,10.974,10.974,0,0,0,.956-.974,13.3,13.3,0,0,0,1.36-1.838c.682-1.119.872-1.925.774-1.96s-.476.647-1.247,1.634a20.213,20.213,0,0,1-1.438,1.655c-.284.3-.6.6-.928.882a2.6,2.6,0,0,1-1.037.636c-1.9.51-3.563,1.044-4.779,1.435A8.683,8.683,0,0,0,442.366,249.138Z" transform="translate(-442.366 -242.166)"/></g></g></g></g></g></g></svg>