<svg xmlns="http://www.w3.org/2000/svg" xmlns:xlink="http://www.w3.org/1999/xlink" width="183.347" height="183.348" viewBox="0 0 183.347 183.348"><defs><style>.a{fill:#fff;}.b{fill:url(#a);}.c{fill:none;stroke:#00223d;stroke-miterlimit:10;stroke-width:4px;}.d{fill:#eceef0;}.e{fill:#12263f;}</style><radialGradient id="a" cx="0.076" cy="0.019" r="1.465" gradientTransform="translate(0.001)" gradientUnits="objectBoundingBox"><stop offset="0" stop-color="#f6f6f7"/><stop offset="0.477" stop-color="#f9f9fa"/><stop offset="0.715" stop-color="#fff"/></radialGradient></defs><g transform="translate(0 0.001)"><g transform="translate(0 0)"><g transform="translate(0 0)"><path class="a" d="M377.97,2237.392a91.673,91.673,0,1,1-91.672-91.671A91.672,91.672,0,0,1,377.97,2237.392Z" transform="translate(-194.623 -2145.721)"/><path class="b" d="M376.482,2235.77a91.671,91.671,0,1,0-91.672,91.676A91.311,91.311,0,0,0,376.482,2235.77Z" transform="translate(-193.135 -2144.099)"/><path class="c" d="M341.45,2222.48a69.974,69.974,0,1,0-69.974,69.974A69.714,69.714,0,0,0,341.45,2222.48Z" transform="translate(-179.525 -2130.503)"/><g transform="translate(16.241 51.468)"><path class="d" d="M358.381,2164.488a91.684,91.684,0,0,1-157.836,91.294,91.393,91.393,0,0,0,157.836-91.294Z" transform="translate(-200.545 -2164.488)"/></g></g></g><g transform="translate(-257.802 68.944)"><path class="e" d="M655.246,49.563c-.385,2.018-.614,4.081-1.181,6.046A29.537,29.537,0,0,1,616.219,75.6c-.646-.213-.917-.474-.886-1.191.063-1.487.02-2.979.023-4.469,0-.1.019-.2.046-.461a23.859,23.859,0,0,0,9.542,2.258v-2.19H626.3v2.2a23.1,23.1,0,0,0,10.83-2.926l-1.066-1.934,1.06-.685,1.21,1.943a23.839,23.839,0,0,0,7.9-7.9L644.3,59.06l.62-1.115,1.964,1.079a23.464,23.464,0,0,0,2.944-10.838h-2.233V46.9h2.227a23.523,23.523,0,0,0-2.928-10.87L644.936,37.1l-.655-1.1,1.936-1.17a23.771,23.771,0,0,0-7.885-7.947l-1.179,1.972-1.108-.654,1.04-1.905a21.485,21.485,0,0,0-10.694-2.929c-.1,1.492-.563,2.935.421,4.429a46.542,46.542,0,0,1,2.489,4.913l-2.339.106c-.022.382-.057.708-.058,1.034,0,4.165-.016,8.329.015,12.494a3.3,3.3,0,0,0,.405,1.519c1.384,2.474,2.819,4.919,4.257,7.409l2.105-1.163c.168,2.776.325,5.38.5,8.219l-6.872-4.541,2.03-1.223c-.159-.309-.3-.6-.456-.88-1.295-2.258-2.631-4.493-3.868-6.782a4.941,4.941,0,0,1-.589-2.2c-.055-4.232-.027-8.465-.027-12.7V32.794h-2.441a43.435,43.435,0,0,1,2.546-5.018c1-1.472.422-2.892.449-4.455a23.333,23.333,0,0,0-9.606,2.316c0-1.9-.021-3.651.026-5.4a.962.962,0,0,1,.563-.663,28.561,28.561,0,0,1,21.616.846,28.982,28.982,0,0,1,16.209,17.965,52.575,52.575,0,0,1,1.3,6.034c.074.357.122.72.183,1.08Z" transform="translate(-250.668 -22.585)"/><path class="e" d="M360.192,24.975q0,13.962,0,27.924a7,7,0,0,1-5.429,7.248,9.458,9.458,0,0,1-2.307.219q-21.934.018-43.869.007c-4.91,0-7.79-2.91-7.79-7.837q0-27.671,0-55.341c0-3.863,1.952-6.564,5.439-7.452a9.468,9.468,0,0,1,2.307-.219q21.934-.018,43.869-.006c4.915,0,7.782,2.9,7.783,7.837Q360.194,11.165,360.192,24.975Zm-4.513-.045q0-13.863,0-27.725c0-2.161-.993-3.142-3.161-3.142q-21.988,0-43.977,0c-2.282,0-3.226.955-3.226,3.281q0,27.624,0,55.247c0,2.308.946,3.241,3.263,3.241h43.774c2.421,0,3.327-.92,3.327-3.381Q355.68,38.691,355.679,24.93Z"/><path class="e" d="M368.062,84.91H386a7.088,7.088,0,0,1,.911.019c.734.1,1.291.558,1.155,1.262-.092.477-.634.922-1.07,1.256-.221.169-.653.075-.989.075q-18.037,0-36.073,0h-.2c-1.249-.011-1.923-.472-1.921-1.314s.648-1.3,1.914-1.3Q358.892,84.908,368.062,84.91Z" transform="translate(-37.469 -76.021)"/><path class="e" d="M368.042,116.67H350.106c-.3,0-.61.015-.912-.012a1.252,1.252,0,0,1-1.3-1.284,1.272,1.272,0,0,1,1.285-1.307,6.558,6.558,0,0,1,.81-.016h36.175q2.019.007,2.023,1.307c0,.874-.661,1.312-2.008,1.312Q377.11,116.672,368.042,116.67Z" transform="translate(-37.538 -99.245)"/><path class="e" d="M367.914,145.89H350.081c-.338,0-.677.012-1.012-.02a1.2,1.2,0,0,1-1.178-1.175,1.168,1.168,0,0,1,1.007-1.317,5.438,5.438,0,0,1,1.1-.088q18.036-.006,36.072,0c.1,0,.2,0,.3,0,1.18.026,1.807.49,1.8,1.328s-.608,1.273-1.82,1.274Q377.135,145.893,367.914,145.89Z" transform="translate(-37.531 -122.546)"/><path class="e" d="M360.544,172.563q5.262,0,10.525,0c.37,0,.834-.1,1.089.081.413.293.946.777.952,1.187s-.516.9-.914,1.221c-.213.172-.65.084-.986.084q-10.677,0-21.353,0h-.1c-1.306-.011-1.921-.414-1.933-1.267-.012-.869.606-1.306,1.893-1.308q4.756-.009,9.513,0Z" transform="translate(-37.481 -145.858)"/><path class="e" d="M358.347,232.83c-2.933,0-5.866,0-8.8,0-1.1,0-1.717-.465-1.731-1.267s.615-1.335,1.687-1.337q8.749-.016,17.5,0c1.126,0,1.7.46,1.709,1.293.014.872-.563,1.31-1.765,1.313Q362.645,232.837,358.347,232.83Z" transform="translate(-37.475 -191.824)"/></g></g></svg>