<svg xmlns="http://www.w3.org/2000/svg" width="500.054" height="410.005" viewBox="0 0 500.054 410.005"><defs><style>.a{fill:#f5f5f5;}.b{fill:#ebebeb;}.c{fill:#e0e0e0;}.d{fill:#fff;}.e{fill:#263238;}.f{fill:#3e4e5c;}.g{opacity:0.3;}.h{fill:#aed3f2;}.i{fill:#d9a171;}.j{fill:#455a64;}.k{fill:#bc7e4a;}.l{fill:#ffbf9d;}.m{fill:#ff9a6c;}.n{fill:#5e6178;}</style></defs><g transform="translate(-56.993 -43.048)"><g transform="translate(111.025 43.048)"><g transform="translate(30.55 13.229)"><path class="a" d="M390.043,76.75a42.945,42.945,0,1,1-48.662-36.224A42.9,42.9,0,0,1,390.043,76.75Z" transform="translate(-304.596 -40.073)"/><g transform="translate(10.219 10.196)"><path class="b" d="M380.162,78.45A32.727,32.727,0,1,1,343.08,50.845,32.69,32.69,0,0,1,380.162,78.45Z" transform="translate(-315.046 -50.5)"/></g><g transform="translate(9.626 8.954)"><path class="c" d="M379.993,77.408c-.195.036-.54-1.365-1.422-3.77a34.733,34.733,0,0,0-5.178-9.384,33.53,33.53,0,0,0-5.143-5.262,32.788,32.788,0,0,0-7.151-4.42,32.1,32.1,0,0,0-8.9-2.561,31.736,31.736,0,0,0-4.9-.286,32.007,32.007,0,0,0-9.916,1.759,31.851,31.851,0,0,0-4.5,1.953,32.072,32.072,0,0,0-7.472,5.467,32.729,32.729,0,0,0-5.191,6.614,33.538,33.538,0,0,0-3.018,6.71,34.755,34.755,0,0,0-1.628,10.591c0,2.56.16,3.995-.036,4.028-.144.028-.633-1.352-.939-3.976a30.271,30.271,0,0,1,.9-11.139,32.79,32.79,0,0,1,8.272-14.453,31.731,31.731,0,0,1,3.661-3.233,32.055,32.055,0,0,1,4.288-2.768,33.286,33.286,0,0,1,4.84-2.145,33.563,33.563,0,0,1,10.7-1.9,33.479,33.479,0,0,1,5.281.348,33.355,33.355,0,0,1,9.53,2.9A32.793,32.793,0,0,1,374.821,63.2,30.3,30.3,0,0,1,379.5,73.351C380.122,75.92,380.138,77.385,379.993,77.408Z" transform="translate(-314.439 -49.23)"/></g><g transform="translate(28.409 20.023)"><path class="c" d="M354.657,102.164l.9,5.63-5.025.8-.877-5.477c-5.024.495-10.048-.3-13.158-2.016l1.782-6.574A20.573,20.573,0,0,0,348.6,96.536l-1.345-8.394c-5.8-.463-12.325-1.324-13.475-8.513-.853-5.327,2.284-10.519,10.08-12.7l-.894-5.579,5.026-.806.877,5.479a23.03,23.03,0,0,1,10.692,1.432l-1.522,6.585a20.886,20.886,0,0,0-8.109-1.384l1.368,8.545c5.787.413,12.218,1.293,13.351,8.378C365.491,94.811,362.394,99.946,354.657,102.164Zm-8.581-21.409-1.144-7.137c-2.567,1.03-3.388,2.657-3.123,4.315C342.09,79.691,343.752,80.406,346.076,80.754ZM356.66,91.483c-.283-1.76-1.892-2.481-4.175-2.89l1.11,6.936C356.021,94.574,356.917,93.092,356.66,91.483Z" transform="translate(-333.646 -60.549)"/></g></g><g transform="translate(283.155 0)"><g transform="translate(0)"><path class="a" d="M490.177,57.677A28.105,28.105,0,1,1,464.1,27.741,28.073,28.073,0,0,1,490.177,57.677Z" transform="translate(-434.034 -27.671)"/><g transform="translate(6.688 6.671)"><path class="b" d="M483.656,57.36a21.418,21.418,0,1,1-19.871-22.814A21.394,21.394,0,0,1,483.656,57.36Z" transform="translate(-440.873 -34.493)"/></g><g transform="translate(6.578 5.859)"><path class="c" d="M483.7,56.672a12.625,12.625,0,0,1-.384-2.609,22.732,22.732,0,0,0-2.006-6.721,21.992,21.992,0,0,0-2.556-4.081,21.449,21.449,0,0,0-3.959-3.822,21,21,0,0,0-5.333-2.876,20.69,20.69,0,0,0-3.09-.863,20.951,20.951,0,0,0-6.586-.255,20.909,20.909,0,0,0-3.149.623,21.009,21.009,0,0,0-5.539,2.457,21.419,21.419,0,0,0-4.24,3.507,21.968,21.968,0,0,0-2.863,3.872,22.752,22.752,0,0,0-2.515,6.546,12.572,12.572,0,0,1-.584,2.57,6.293,6.293,0,0,1-.047-2.673,19.8,19.8,0,0,1,2.127-7,21.455,21.455,0,0,1,7.3-8.091,20.729,20.729,0,0,1,2.792-1.559,20.981,20.981,0,0,1,3.126-1.173,21.846,21.846,0,0,1,3.393-.7,21.913,21.913,0,0,1,7.1.275,22.019,22.019,0,0,1,3.33.956,21.867,21.867,0,0,1,5.689,3.18,21.46,21.46,0,0,1,6.658,8.63,19.826,19.826,0,0,1,1.583,7.142A6.284,6.284,0,0,1,483.7,56.672Z" transform="translate(-440.76 -33.662)"/></g></g><g transform="translate(18.166 13.231)"><path class="c" d="M464.074,68.925l-.206,3.726-3.326-.186.2-3.625a15.79,15.79,0,0,1-8.133-3.12l2.055-3.957a13.465,13.465,0,0,0,6.321,2.721l.308-5.555c-3.642-1.1-7.7-2.562-7.433-7.319.2-3.525,2.925-6.409,8.213-6.715l.205-3.693,3.326.185-.2,3.626a15.057,15.057,0,0,1,6.638,2.4l-1.889,4a13.674,13.674,0,0,0-4.993-2.014l-.314,5.655c3.644,1.069,7.633,2.527,7.372,7.215C472.025,65.731,469.331,68.583,464.074,68.925Zm-2.507-14.886.261-4.722c-1.785.3-2.537,1.227-2.6,2.324C459.166,52.8,460.128,53.493,461.567,54.039Zm5.275,8.334c.065-1.165-.865-1.849-2.268-2.429l-.255,4.59C466,64.261,466.782,63.438,466.842,62.373Z" transform="translate(-452.61 -41.201)"/></g></g><g transform="translate(365.444 129.24)"><path class="b" d="M655.443,150.659l-40.207-19.58a5.6,5.6,0,0,1-2.582-7.481l27.1-55.653a5.6,5.6,0,0,1,7.481-2.582l25.5,12.417,9.831,29.957-19.643,40.34A5.6,5.6,0,0,1,655.443,150.659Z" transform="translate(-612.088 -64.798)"/><g transform="translate(52.494 12.983)"><path class="c" d="M673.923,78.075,666.3,93.738a5.2,5.2,0,0,0,2.4,6.958l15.059,7.336Z" transform="translate(-665.768 -78.075)"/></g><g transform="translate(31.356 17.293)"><path class="d" d="M662.758,91.555c-.1.2-4.343-1.663-9.479-4.165s-9.222-4.693-9.124-4.893,4.341,1.662,9.479,4.165S662.855,91.354,662.758,91.555Z" transform="translate(-644.153 -82.482)"/></g><g transform="translate(27.044 26.153)"><path class="d" d="M670.361,106.461c-.1.2-7.032-2.973-15.485-7.09s-15.229-7.618-15.131-7.819,7.03,2.973,15.486,7.091S670.459,106.259,670.361,106.461Z" transform="translate(-639.744 -91.543)"/></g><g transform="translate(23.444 33.549)"><path class="d" d="M669.436,115.366c-.1.2-7.649-3.274-16.863-7.761s-16.608-8.29-16.51-8.491,7.647,3.274,16.865,7.763S669.534,115.165,669.436,115.366Z" transform="translate(-636.062 -99.106)"/></g><g transform="translate(20.047 40.526)"><path class="d" d="M665.961,122.5c-.1.2-7.648-3.274-16.863-7.761s-16.608-8.29-16.509-8.491,7.647,3.273,16.864,7.762S666.06,122.3,665.961,122.5Z" transform="translate(-632.588 -106.24)"/></g><g transform="translate(16.649 47.504)"><path class="d" d="M662.487,129.635c-.1.2-7.649-3.274-16.863-7.761s-16.608-8.29-16.51-8.49,7.647,3.273,16.865,7.762S662.585,129.434,662.487,129.635Z" transform="translate(-629.113 -113.375)"/></g><g transform="translate(13.251 54.48)"><path class="d" d="M659.013,136.77c-.1.2-7.649-3.274-16.863-7.761s-16.608-8.29-16.51-8.491,7.647,3.273,16.865,7.762S659.111,136.568,659.013,136.77Z" transform="translate(-625.639 -120.509)"/></g></g><g transform="translate(0 87.809)"><g transform="translate(0.039 2.428)"><path class="c" d="M147.994,196.8a4.476,4.476,0,0,1-3.357-5.367l8.733-37.92a3.713,3.713,0,0,1,4.535-2.634l3.566.82a3.852,3.852,0,0,0,3.854-1.249l1.125-1.379a3.854,3.854,0,0,1,3.855-1.25l16.926,3.9a3.882,3.882,0,0,1,2.816,2.456l.528,1.509a3.887,3.887,0,0,0,2.816,2.456l21.577,4.969a3.714,3.714,0,0,1,2.926,4.354l-8.932,38.784A4.477,4.477,0,0,1,203.6,209.6Z" transform="translate(-144.521 -147.716)"/></g><path class="b" d="M191.166,157.6l-13.719-3.192-.7-2.576a4.862,4.862,0,0,0-3.637-3.393L159.7,145.354a4.3,4.3,0,0,0-5.257,3.053l-.36,1.565L144.6,191.148a4.889,4.889,0,0,0,3.853,5.732l54.5,12.552a4.89,4.89,0,0,0,5.972-3.471l8.958-38.9a3.224,3.224,0,0,0-2.418-3.866Z" transform="translate(-144.481 -145.232)"/><g transform="translate(19.973 23.063)"><g transform="translate(0 0)"><rect class="d" width="33.285" height="14.004" transform="translate(3.143 0) rotate(12.969)"/></g></g><g transform="translate(26.884 30.255)"><path class="c" d="M194.259,181.314c-.027.121-5.039-.93-11.193-2.348s-11.122-2.664-11.093-2.785,5.039.931,11.194,2.349S194.288,181.194,194.259,181.314Z" transform="translate(-171.973 -176.171)"/></g><g transform="translate(26.214 33.163)"><path class="c" d="M193.575,184.287c-.028.12-5.04-.931-11.194-2.348s-11.121-2.664-11.093-2.785,5.039.931,11.194,2.348S193.6,184.166,193.575,184.287Z" transform="translate(-171.288 -179.144)"/></g></g></g><g transform="translate(98.909 452.279)"><g transform="translate(0)"><path class="e" d="M480.425,474.171c0,.141-101.105.254-225.8.254-124.733,0-225.817-.113-225.817-.254s101.084-.254,225.817-.254C379.32,473.917,480.425,474.03,480.425,474.171Z" transform="translate(-28.813 -473.917)"/></g></g><g transform="translate(159.645 84.906)"><g transform="translate(0 0)"><g transform="translate(23.578 0.489)"><path class="f" d="M224.44,98.744l-6.13,35.882V465.882H516.538V444.833Z" transform="translate(-218.31 -98.744)"/></g><g transform="translate(29.219)"><path class="f" d="M0,0H286.7a12.2,12.2,0,0,1,12.2,12.2V338.08a12.2,12.2,0,0,1-12.2,12.2H0a0,0,0,0,1,0,0V0A0,0,0,0,1,0,0Z" transform="translate(0.489 0.489)"/><path class="e" d="M511.541,449.5H224.079V98.244H511.541a12.429,12.429,0,0,1,12.415,12.415V437.082A12.429,12.429,0,0,1,511.541,449.5Zm-286.484-.978H511.541a11.451,11.451,0,0,0,11.438-11.438V110.66a11.451,11.451,0,0,0-11.438-11.438H225.057Z" transform="translate(-224.079 -98.244)"/></g><g transform="translate(40.756 10.507)"><path class="c" d="M491.457,108.988,508.016,136.6V438.855L250,436.285l-14.127-14.609Z" transform="translate(-235.877 -108.988)"/></g><g transform="translate(40.502 8.924)"><g transform="translate(0.254 0.255)"><rect class="d" width="255.58" height="314.015"/></g><path class="e" d="M491.452,421.639c0-1.986-.093-127.254-.228-314.014l.227.227-255.552.027h-.027l.254-.254c-.016,116.166-.029,224.2-.042,314.014l-.212-.212,255.58.212-255.58.213h-.212v-.213c-.013-89.815-.026-197.848-.042-314.014v-.255h.282l255.552.027h.228v.228C491.544,294.386,491.453,419.655,491.452,421.639Z" transform="translate(-235.617 -107.37)"/></g><g transform="translate(60.529 108.534)"><path class="e" d="M267.694,215.621c0,3.529-2.6,6.39-5.8,6.39s-5.8-2.86-5.8-6.39,2.6-6.391,5.8-6.391S267.694,212.091,267.694,215.621Z" transform="translate(-256.096 -209.23)"/></g><g class="g" transform="translate(29.708 150.484)"><path d="M224.579,261.649h11.048l-.028-9.521h-11.02Z" transform="translate(-224.579 -252.127)"/></g><g transform="translate(0 83.282)"><g transform="translate(0.156 0.001)"><path class="c" d="M229.219,183.409c-19.222,0-34.86,15.22-34.86,33.928s15.827,33.929,35.049,33.929h5.552l-.08-8.045-5.471.222c-15.307,0-27.949-11.71-27.949-26.106s12.454-26.105,27.761-26.105,27.762,11.71,27.762,26.105a3.567,3.567,0,1,0,7.1,0C264.081,198.629,248.443,183.409,229.219,183.409Z" transform="translate(-194.359 -183.409)"/></g><path class="e" d="M229.216,183.409s.28,0,.826.015l2.425.094c1.061.093,2.368.306,3.91.54a38.971,38.971,0,0,1,5.179,1.482,35.716,35.716,0,0,1,12.458,7.78l1.507,1.606c.252.275.521.54.765.83l.7.908c.461.617.973,1.214,1.412,1.876l1.288,2.052a34.713,34.713,0,0,1,3.786,9.616,34.34,34.34,0,0,1,.708,5.532,8.157,8.157,0,0,1-.113,2.916,4.015,4.015,0,0,1-1.87,2.354,3.474,3.474,0,0,1-3.058.147,3.947,3.947,0,0,1-2.1-2.312,4.771,4.771,0,0,1-.269-1.586q-.043-.769-.086-1.545a22.12,22.12,0,0,0-.4-3.108,25.43,25.43,0,0,0-5.723-11.592,27.51,27.51,0,0,0-5.1-4.523,29.4,29.4,0,0,0-2.979-1.813c-.519-.27-1.065-.492-1.6-.741a12.675,12.675,0,0,0-1.641-.668l-1.688-.581c-.572-.17-1.16-.289-1.742-.437a30.387,30.387,0,0,0-3.568-.614,30.7,30.7,0,0,0-11.008.959c-.6.169-1.19.4-1.788.6l-.895.308-.865.389a27,27,0,0,0-6.522,3.984,25.669,25.669,0,0,0-5.225,5.751,23.724,23.724,0,0,0-3.3,7.161,22.084,22.084,0,0,0-.852,7.95,22.884,22.884,0,0,0,1.818,7.893,26.968,26.968,0,0,0,13.126,13.648,27.647,27.647,0,0,0,8.964,2.652,16.522,16.522,0,0,0,2.3.2,18,18,0,0,0,2.3.032l4.574-.184.255-.011,0,.255q.038,4.092.076,8.045l0,.247-.246,0c-2.062-.014-4.1.026-6.13-.031l-3.038-.155-2.981-.445a36.775,36.775,0,0,1-10.987-4c-.815-.5-1.668-.936-2.438-1.486l-2.287-1.659q-1.058-.924-2.1-1.838a9.119,9.119,0,0,1-.989-.964l-.941-1a34,34,0,0,1-5.89-8.841c-.4-.766-.639-1.6-.962-2.386l-.451-1.19-.329-1.22c-.2-.814-.465-1.608-.608-2.42s-.256-1.624-.383-2.427a32.781,32.781,0,0,1,.194-9.376,31.077,31.077,0,0,1,.983-4.334,18.136,18.136,0,0,1,.712-2.036c.267-.659.467-1.34.783-1.961a33.9,33.9,0,0,1,1.919-3.6l1.049-1.671c.365-.536.779-1.028,1.16-1.534a34.6,34.6,0,0,1,10.179-8.851c.43-.245.841-.509,1.265-.729l1.276-.594a21.384,21.384,0,0,1,2.429-1.044l2.282-.8c.736-.216,1.451-.368,2.119-.54a26.114,26.114,0,0,1,3.593-.657c.524-.067,1-.16,1.446-.187l1.2-.049,1.628-.06c.366-.012.552-.006.552-.006s-.186.024-.551.048l-1.624.1-1.2.068c-.441.034-.918.134-1.438.207a26.463,26.463,0,0,0-3.572.692c-.663.178-1.373.334-2.1.555l-2.264.818a21.4,21.4,0,0,0-2.408,1.054l-1.263.6c-.421.22-.827.485-1.253.731a34.47,34.47,0,0,0-10.056,8.831c-.375.5-.784.993-1.143,1.526l-1.033,1.66a33.567,33.567,0,0,0-1.887,3.575c-.311.616-.506,1.291-.768,1.943a17.915,17.915,0,0,0-.7,2.017,30.769,30.769,0,0,0-.958,4.29,32.454,32.454,0,0,0-.165,9.27l.384,2.4c.144.8.408,1.586.607,2.39l.328,1.2.449,1.174c.322.776.554,1.6.955,2.355a33.589,33.589,0,0,0,5.833,8.718l.931.988a9.072,9.072,0,0,0,.978.951l2.077,1.811,2.261,1.633c.761.544,1.6.969,2.41,1.464a36.342,36.342,0,0,0,10.85,3.933l2.941.436,3,.149c2.015.056,4.065.014,6.124.025l-.243.246q-.041-3.958-.084-8.045l.257.244-4.582.188a18.565,18.565,0,0,1-2.329-.031,16.979,16.979,0,0,1-2.343-.2,28.116,28.116,0,0,1-9.121-2.694,27.467,27.467,0,0,1-13.376-13.906,23.4,23.4,0,0,1-1.855-8.06,22.525,22.525,0,0,1,.871-8.116,24.222,24.222,0,0,1,3.369-7.306,26.191,26.191,0,0,1,5.328-5.857,27.472,27.472,0,0,1,6.64-4.049l.881-.4.91-.314c.608-.2,1.206-.434,1.82-.605a31.115,31.115,0,0,1,11.192-.965,31.008,31.008,0,0,1,3.626.629c.591.151,1.188.273,1.769.447l1.715.592a12.959,12.959,0,0,1,1.667.683c.542.253,1.1.481,1.623.755a29.816,29.816,0,0,1,3.027,1.848,27.952,27.952,0,0,1,5.182,4.607,25.858,25.858,0,0,1,5.8,11.8,22.574,22.574,0,0,1,.4,3.162c.027.527.056,1.05.083,1.572a4.374,4.374,0,0,0,.241,1.449,3.54,3.54,0,0,0,1.882,2.082,3.076,3.076,0,0,0,2.709-.123,3.626,3.626,0,0,0,1.691-2.123,7.883,7.883,0,0,0,.1-2.784,33.975,33.975,0,0,0-.684-5.473,34.452,34.452,0,0,0-3.715-9.531q-.643-1.033-1.266-2.037c-.433-.657-.939-1.251-1.392-1.865l-.691-.9c-.241-.289-.506-.553-.755-.826l-1.486-1.6a35.719,35.719,0,0,0-12.328-7.8,39.73,39.73,0,0,0-5.141-1.52c-1.532-.248-2.832-.477-3.889-.586l-2.417-.145C229.5,183.44,229.216,183.409,229.216,183.409Z" transform="translate(-194.2 -183.408)"/></g><g transform="translate(60.529 200.797)"><path class="e" d="M267.694,309.969c0,3.529-2.6,6.391-5.8,6.391s-5.8-2.861-5.8-6.391,2.6-6.391,5.8-6.391S267.694,306.439,267.694,309.969Z" transform="translate(-256.096 -303.578)"/></g><g transform="translate(80.873 88.382)"><rect class="h" width="196.878" height="8.241"/></g><g transform="translate(80.873 78.28)"><rect class="f" width="114.751" height="8.241"/></g><g transform="translate(80.873 265.556)"><rect class="i" width="114.751" height="8.241" transform="translate(0 0)"/></g><g transform="translate(79.604 60.541)"><g transform="translate(2.122)"><rect class="c" width="197.125" height="12.02"/></g><g transform="translate(0 110.175)"><rect class="c" width="197.125" height="12.02"/></g><g transform="translate(2.122 50.974)"><rect class="c" width="78.618" height="12.02"/></g><g transform="translate(98.834 50.974)"><rect class="c" width="98.291" height="12.02"/></g><g transform="translate(3.024 22.386)"><path class="e" d="M391.691,183.3c0,.141-25.3.254-56.5.254s-56.5-.113-56.5-.254,25.292-.254,56.5-.254S391.691,183.159,391.691,183.3Z" transform="translate(-278.694 -183.045)"/></g><g transform="translate(2.811 31.845)"><path class="e" d="M473.813,192.971c0,.14-43.731.253-97.663.253-53.951,0-97.672-.113-97.672-.253s43.721-.254,97.672-.254C430.082,192.717,473.813,192.83,473.813,192.971Z" transform="translate(-278.477 -192.717)"/></g><g transform="translate(2.811 40.803)"><path class="e" d="M473.813,202.132c0,.141-43.731.254-97.663.254-53.951,0-97.672-.113-97.672-.254s43.721-.254,97.672-.254C430.082,201.878,473.813,201.992,473.813,202.132Z" transform="translate(-278.477 -201.878)"/></g><g transform="translate(1.502 70.073)"><path class="e" d="M355.692,232.063c0,.141-17.587.254-39.276.254s-39.279-.113-39.279-.254,17.583-.254,39.279-.254S355.692,231.923,355.692,232.063Z" transform="translate(-277.138 -231.809)"/></g><g transform="translate(2.806 79.305)"><path class="e" d="M355.722,241.5c0,.141-17.294.254-38.623.254s-38.626-.113-38.626-.254,17.29-.254,38.626-.254S355.722,241.364,355.722,241.5Z" transform="translate(-278.472 -241.25)"/></g><g transform="translate(1.823 88.689)"><path class="e" d="M355.379,251.1c0,.141-17.443.254-38.955.254s-38.958-.113-38.958-.254,17.439-.253,38.958-.253S355.379,250.959,355.379,251.1Z" transform="translate(-277.466 -250.846)"/></g><g transform="translate(1.823 97.798)"><path class="e" d="M355.379,260.414c0,.141-17.443.254-38.955.254s-38.958-.113-38.958-.254,17.439-.253,38.958-.253S355.379,260.274,355.379,260.414Z" transform="translate(-277.466 -260.161)"/></g><g transform="translate(102.105 69.29)"><g transform="translate(12.145 2.948)"><path class="e" d="M473.8,234.277c0,.141-18.215.254-40.68.254s-40.683-.113-40.683-.254,18.211-.253,40.683-.253S473.8,234.137,473.8,234.277Z" transform="translate(-392.434 -234.024)"/></g><path class="e" d="M385.912,237.154a15.154,15.154,0,0,1-.1-1.689c-.039-1.038-.086-2.481-.107-4.2l.208.22-5.6.034c-.054.055.458-.48.242-.253v.8c0,.264,0,.527,0,.786,0,.518,0,1.027-.006,1.523-.009.979-.017,1.908-.024,2.776l-.209-.219c1.635.022,3.008.07,3.995.111a12.889,12.889,0,0,1,1.608.108,8.276,8.276,0,0,1-1.474.109c-.974.041-2.4.09-4.129.111l-.206,0,0-.223c-.008-.868-.016-1.8-.024-2.776,0-.5,0-1-.007-1.523v-1.587l.242-.255,5.6.035h.212l0,.218c-.021,1.814-.067,3.315-.107,4.338A9.722,9.722,0,0,1,385.912,237.154Z" transform="translate(-380.014 -231.009)"/></g><g transform="translate(102.105 80.599)"><g transform="translate(12.145 2.948)"><path class="e" d="M473.8,245.841c0,.14-18.215.254-40.68.254s-40.683-.114-40.683-.254,18.211-.254,40.683-.254S473.8,245.7,473.8,245.841Z" transform="translate(-392.434 -245.587)"/></g><path class="e" d="M385.912,248.718a15.188,15.188,0,0,1-.1-1.69c-.039-1.038-.086-2.48-.107-4.2l.208.22-5.6.034c-.054.055.458-.481.242-.253h0v.8q0,.4,0,.787,0,.777-.006,1.522c-.009.98-.017,1.909-.024,2.777l-.209-.22c1.635.022,3.008.071,3.995.112a12.874,12.874,0,0,1,1.608.108,8.486,8.486,0,0,1-1.474.108c-.974.041-2.4.091-4.129.112l-.206,0,0-.222c-.008-.868-.016-1.8-.024-2.777q0-.744-.007-1.522v-1.586h0c-.216.227.294-.311.242-.255l5.6.034h.212l0,.219c-.021,1.814-.067,3.315-.107,4.338A9.722,9.722,0,0,1,385.912,248.718Z" transform="translate(-380.014 -242.573)"/></g><g transform="translate(102.105 91.906)"><g transform="translate(12.145 2.947)"><path class="e" d="M473.8,257.4c0,.141-18.215.254-40.68.254s-40.683-.113-40.683-.254,18.211-.254,40.683-.254S473.8,257.264,473.8,257.4Z" transform="translate(-392.434 -257.15)"/></g><path class="e" d="M385.912,260.281a15.155,15.155,0,0,1-.1-1.689c-.039-1.038-.086-2.481-.107-4.2l.208.22-5.6.034c-.054.055.458-.48.242-.253v.8c0,.264,0,.527,0,.786,0,.518,0,1.027-.006,1.523-.009.979-.017,1.908-.024,2.776l-.209-.219c1.635.021,3.008.07,3.995.111a12.863,12.863,0,0,1,1.608.108,8.283,8.283,0,0,1-1.474.109c-.974.041-2.4.09-4.129.111l-.206,0,0-.223c-.008-.868-.016-1.8-.024-2.776,0-.5,0-1-.007-1.523V254.4l.242-.255,5.6.035h.212l0,.218c-.021,1.815-.067,3.315-.107,4.338A9.721,9.721,0,0,1,385.912,260.281Z" transform="translate(-380.014 -254.136)"/></g><g transform="translate(1.27 132.671)"><path class="e" d="M471.244,351.757s-.011-.33-.016-.964-.009-1.579-.015-2.814c-.009-2.483-.021-6.146-.037-10.908-.019-9.518-.046-23.419-.081-41l.148.156-194.089.1h-.012l.242-.254c0,19.159,0,37.833-.006,55.682l-.236-.248,138.621.113,40.716.07,10.95.032,2.84.017c.641,0,.975.016.975.016s-.315.011-.945.017l-2.811.016-10.9.032-40.662.07-138.785.113h-.237v-.248c0-17.849,0-36.523,0-55.682v-.254h.253l194.089.1h.15v.156c-.035,17.616-.064,31.55-.082,41.089-.016,4.747-.028,8.4-.036,10.872q-.01,1.835-.016,2.788C471.254,351.447,471.244,351.757,471.244,351.757Z" transform="translate(-276.901 -295.821)"/><g transform="translate(0.784 14.014)"><path class="e" d="M471.262,310.405c0,.141-43.334.254-96.776.254-53.46,0-96.783-.113-96.783-.254s43.323-.253,96.783-.253C427.928,310.152,471.262,310.265,471.262,310.405Z" transform="translate(-277.703 -310.152)"/></g><g transform="translate(0.784 27.841)"><path class="e" d="M471.262,324.545c0,.14-43.334.254-96.776.254-53.46,0-96.783-.115-96.783-.254s43.323-.254,96.783-.254C427.928,324.291,471.262,324.405,471.262,324.545Z" transform="translate(-277.703 -324.291)"/></g><g transform="translate(0.784 41.819)"><path class="e" d="M471.262,338.839c0,.14-43.334.253-96.776.253-53.46,0-96.783-.113-96.783-.253s43.323-.254,96.783-.254C427.928,338.585,471.262,338.7,471.262,338.839Z" transform="translate(-277.703 -338.585)"/></g><g transform="translate(22.561 0.164)"><path class="e" d="M300.214,352.248c-.133,0-.242-12.594-.242-28.127s.109-28.131.242-28.131.243,12.593.243,28.131S300.348,352.248,300.214,352.248Z" transform="translate(-299.972 -295.989)"/></g><g transform="translate(88.198 1.01)"><path class="e" d="M367.333,350.575c-.133,0-.241-12.027-.241-26.859s.108-26.862.241-26.862.242,12.024.242,26.862S367.467,350.575,367.333,350.575Z" transform="translate(-367.092 -296.854)"/></g><g transform="translate(157.359 1.856)"><path class="e" d="M438.058,353.132c-.134,0-.243-12.406-.243-27.705s.109-27.708.243-27.708.242,12.4.242,27.708S438.19,353.132,438.058,353.132Z" transform="translate(-437.815 -297.719)"/></g></g><g transform="translate(2.435 200.832)"><path class="e" d="M467.408,365.777c0,.141-42.383.254-94.653.254-52.289,0-94.662-.113-94.662-.254s42.374-.254,94.662-.254C425.024,365.523,467.408,365.637,467.408,365.777Z" transform="translate(-278.092 -365.523)"/></g><g transform="translate(2.435 208.881)"><path class="e" d="M467.408,374.007c0,.141-42.383.254-94.653.254-52.289,0-94.662-.113-94.662-.254s42.374-.254,94.662-.254C425.024,373.753,467.408,373.867,467.408,374.007Z" transform="translate(-278.092 -373.753)"/></g><g transform="translate(2.435 216.93)"><path class="e" d="M346.982,382.237c0,.141-15.423.254-34.444.254s-34.447-.113-34.447-.254,15.42-.253,34.447-.253S346.982,382.1,346.982,382.237Z" transform="translate(-278.092 -381.984)"/></g></g><g class="g" transform="translate(29.708 239.875)"><path d="M224.579,353.06h11.048l-.028-9.521h-11.02Z" transform="translate(-224.579 -343.539)"/></g><g transform="translate(0 174.84)"><g transform="translate(0.156 0.001)"><path class="c" d="M229.219,277.035c-19.222,0-34.86,15.221-34.86,33.928s15.827,33.93,35.049,33.93h5.552l-.08-8.045-5.471.222c-15.307,0-27.949-11.711-27.949-26.107s12.454-26.105,27.761-26.105,27.762,11.711,27.762,26.105a3.567,3.567,0,1,0,7.1,0C264.081,292.256,248.443,277.035,229.219,277.035Z" transform="translate(-194.359 -277.035)"/></g><path class="e" d="M229.216,277.035s.28,0,.826.015l2.425.095c1.061.093,2.368.305,3.91.54a38.973,38.973,0,0,1,5.179,1.483,35.709,35.709,0,0,1,12.458,7.779l1.507,1.607c.252.275.521.54.765.83l.7.907c.461.618.973,1.215,1.412,1.877q.635,1.011,1.288,2.051a34.72,34.72,0,0,1,3.786,9.617,34.325,34.325,0,0,1,.708,5.532,8.157,8.157,0,0,1-.113,2.916,4.018,4.018,0,0,1-1.87,2.354,3.473,3.473,0,0,1-3.058.146,3.942,3.942,0,0,1-2.1-2.311,4.771,4.771,0,0,1-.269-1.586q-.043-.77-.086-1.546a22.121,22.121,0,0,0-.4-3.108,25.432,25.432,0,0,0-5.723-11.591,27.509,27.509,0,0,0-5.1-4.523,29.4,29.4,0,0,0-2.979-1.814c-.519-.269-1.065-.491-1.6-.74a12.539,12.539,0,0,0-1.641-.669l-1.688-.581c-.572-.169-1.16-.288-1.742-.436a30.174,30.174,0,0,0-3.568-.615,30.718,30.718,0,0,0-11.008.96c-.6.168-1.19.4-1.788.6l-.895.309-.865.389a26.968,26.968,0,0,0-6.522,3.983,25.709,25.709,0,0,0-5.225,5.751,23.716,23.716,0,0,0-3.3,7.162,22.074,22.074,0,0,0-.852,7.949,22.889,22.889,0,0,0,1.818,7.894A26.966,26.966,0,0,0,216.731,333.9a27.649,27.649,0,0,0,8.964,2.653,16.83,16.83,0,0,0,2.3.2,18.173,18.173,0,0,0,2.3.031l4.574-.184.255-.01,0,.254q.038,4.092.076,8.045l0,.248-.246,0c-2.062-.014-4.1.026-6.13-.031l-3.038-.155-2.981-.445a36.775,36.775,0,0,1-10.987-4c-.815-.5-1.668-.936-2.438-1.487s-1.529-1.109-2.287-1.659l-2.1-1.837a9.3,9.3,0,0,1-.989-.964l-.941-1a34.014,34.014,0,0,1-5.89-8.841c-.4-.766-.639-1.6-.962-2.386l-.451-1.191-.329-1.219c-.2-.814-.465-1.608-.608-2.42s-.256-1.625-.383-2.427a32.781,32.781,0,0,1,.194-9.376,31.059,31.059,0,0,1,.983-4.335,18.186,18.186,0,0,1,.712-2.035c.267-.659.467-1.34.783-1.961a33.9,33.9,0,0,1,1.919-3.6l1.049-1.671c.365-.537.779-1.028,1.16-1.534A34.586,34.586,0,0,1,211.42,281.7c.43-.246.841-.51,1.265-.729l1.276-.595a21.2,21.2,0,0,1,2.429-1.043l2.282-.8c.736-.216,1.451-.367,2.119-.539a26.132,26.132,0,0,1,3.593-.657c.524-.066,1-.16,1.446-.188l1.2-.049,1.628-.06c.366-.011.552-.006.552-.006s-.186.023-.551.049l-1.624.1-1.2.069c-.441.033-.918.134-1.438.206a26.491,26.491,0,0,0-3.572.693c-.663.177-1.373.334-2.1.555l-2.264.818a21.219,21.219,0,0,0-2.408,1.054l-1.263.6c-.421.219-.827.484-1.253.732a34.456,34.456,0,0,0-10.056,8.831c-.375.5-.784.992-1.143,1.526q-.511.818-1.033,1.659a33.571,33.571,0,0,0-1.887,3.575c-.311.616-.506,1.29-.768,1.943a17.9,17.9,0,0,0-.7,2.016,30.786,30.786,0,0,0-.958,4.291,32.453,32.453,0,0,0-.165,9.27l.384,2.4c.144.8.408,1.586.607,2.389l.328,1.2.449,1.176c.322.776.554,1.6.955,2.354a33.612,33.612,0,0,0,5.833,8.719l.931.987a8.98,8.98,0,0,0,.978.951l2.077,1.811,2.261,1.634c.761.544,1.6.969,2.41,1.464a36.369,36.369,0,0,0,10.85,3.933l2.941.435,3,.15c2.015.056,4.065.014,6.124.025l-.243.245q-.041-3.958-.084-8.045l.257.244-4.582.188a18.375,18.375,0,0,1-2.329-.03,17.3,17.3,0,0,1-2.343-.2,28.138,28.138,0,0,1-9.121-2.7,27.464,27.464,0,0,1-13.376-13.906,23.4,23.4,0,0,1-1.855-8.06,22.522,22.522,0,0,1,.871-8.115,24.222,24.222,0,0,1,3.369-7.306,26.172,26.172,0,0,1,5.328-5.857,27.441,27.441,0,0,1,6.64-4.05l.881-.4.91-.314c.608-.2,1.206-.435,1.82-.606a31.16,31.16,0,0,1,11.192-.964,30.6,30.6,0,0,1,3.626.629c.591.151,1.188.273,1.769.446l1.715.593a12.95,12.95,0,0,1,1.667.682c.542.254,1.1.481,1.623.756a29.991,29.991,0,0,1,3.027,1.847,27.992,27.992,0,0,1,5.182,4.608,25.857,25.857,0,0,1,5.8,11.8,22.554,22.554,0,0,1,.4,3.162q.041.789.083,1.572a4.374,4.374,0,0,0,.241,1.45,3.543,3.543,0,0,0,1.882,2.082,3.073,3.073,0,0,0,2.709-.124,3.626,3.626,0,0,0,1.691-2.123,7.882,7.882,0,0,0,.1-2.784,33.99,33.99,0,0,0-.684-5.473,34.458,34.458,0,0,0-3.715-9.53l-1.266-2.037c-.433-.658-.939-1.251-1.392-1.865q-.349-.455-.691-.9c-.241-.288-.506-.552-.755-.826l-1.486-1.6a35.729,35.729,0,0,0-12.328-7.8,39.584,39.584,0,0,0-5.141-1.521c-1.532-.248-2.832-.476-3.889-.586l-2.417-.144C229.5,277.066,229.216,277.035,229.216,277.035Z" transform="translate(-194.2 -277.034)"/></g><g class="g" transform="translate(23.578 350.765)"><path d="M224.44,456.934,218.31,473.8H516.538V456.934Z" transform="translate(-218.31 -456.934)"/></g><g transform="translate(48.092 24.981)"><path class="e" d="M243.378,429.588s.441-.014,1.3-.017h3.83l14.764.051,54.608.275L500.7,431l-.255.254c0-7.98,0-16.472,0-25.053.029-77.995.056-148.593.074-199.7.034-25.547.062-46.221.081-60.518.021-7.139.036-12.683.048-16.453.011-1.875.02-3.306.025-4.278s.025-1.458.025-1.458.018.494.026,1.458.014,2.4.025,4.278c.011,3.77.026,9.315.048,16.453.019,14.3.046,34.971.08,60.518.02,51.111.046,121.709.075,199.7,0,8.581,0,17.073,0,25.053v.255l-.255,0-182.818-1.264-54.607-.431-14.764-.141-3.83-.049C243.819,429.607,243.378,429.588,243.378,429.588Z" transform="translate(-243.378 -123.789)"/></g><g transform="translate(43.858 17.869)"><path class="e" d="M239.049,425.278s.44-.015,1.3-.02l3.82-.01,14.729.01,54.489.125,182.547.6-.254.252c.008-8.413.017-17.359.025-26.4.11-78.245.209-149.069.281-200.344.061-25.628.11-46.368.144-60.711.028-7.161.05-12.724.065-16.506.013-1.881.023-3.317.029-4.292s.028-1.463.028-1.463.017.5.024,1.463.012,2.412.021,4.292c.007,3.782.018,9.345.03,16.506,0,14.343.011,35.083.019,60.712-.033,51.274-.079,122.1-.131,200.343-.01,9.045-.02,17.99-.028,26.4v.254h-.254l-182.546-.763-54.489-.282-14.728-.1-3.821-.038C239.489,425.3,239.049,425.278,239.049,425.278Z" transform="translate(-239.049 -116.517)"/></g><g transform="translate(51.89 33.318)"><path class="e" d="M247.262,433.761s.441-.014,1.3-.017h3.827l14.749.049,54.528.273,182.378,1.093-.255.252c.028-7.365.059-15.215.088-23.143.327-77.317.622-147.3.836-197.967.132-25.325.238-45.819.312-59.991.048-7.077.085-12.574.111-16.31.018-1.859.032-3.278.041-4.242s.032-1.444.032-1.444.015.489.02,1.445,0,2.383.009,4.241c0,3.738-.009,9.234-.016,16.31-.035,14.173-.086,34.668-.15,59.993-.175,50.666-.419,120.65-.686,197.967-.03,7.928-.061,15.779-.09,23.143v.254h-.254l-182.378-1.256-54.526-.429-14.749-.14-3.826-.049C247.7,433.781,247.262,433.761,247.262,433.761Z" transform="translate(-247.262 -132.315)"/></g><g transform="translate(301.011 45.549)"><path class="j" d="M502.033,144.822H525.98l8.534,9.585-7.425,11.418H502.011Z" transform="translate(-502.011 -144.822)"/></g></g></g><g transform="translate(56.993 224.637)"><g transform="translate(0 26.456)"><g transform="translate(0 1.133)"><path class="j" d="M19.813,306.586a3.287,3.287,0,0,1-2.786-3.722l4.067-28.287a2.727,2.727,0,0,1,3.158-2.206l2.66.383a2.832,2.832,0,0,0,2.745-1.151l.737-1.078a2.831,2.831,0,0,1,2.745-1.151l12.626,1.816a2.856,2.856,0,0,1,2.212,1.624l.478,1.072a2.852,2.852,0,0,0,2.212,1.625l16.1,2.315a2.726,2.726,0,0,1,2.408,3.006l-4.16,28.93a3.286,3.286,0,0,1-3.722,2.786Z" transform="translate(-16.993 -269.344)"/><g class="g"><path d="M19.813,306.586a3.287,3.287,0,0,1-2.786-3.722l4.067-28.287a2.727,2.727,0,0,1,3.158-2.206l2.66.383a2.832,2.832,0,0,0,2.745-1.151l.737-1.078a2.831,2.831,0,0,1,2.745-1.151l12.626,1.816a2.856,2.856,0,0,1,2.212,1.624l.478,1.072a2.852,2.852,0,0,0,2.212,1.625l16.1,2.315a2.726,2.726,0,0,1,2.408,3.006l-4.16,28.93a3.286,3.286,0,0,1-3.722,2.786Z" transform="translate(-16.993 -269.344)"/></g></g><g transform="translate(0.026)"><path class="j" d="M49.08,275.258l-10.236-1.5-.669-1.842a3.567,3.567,0,0,0-2.869-2.26L25.3,268.221a3.16,3.16,0,0,0-3.659,2.557l-.168,1.167L17.053,302.66a3.59,3.59,0,0,0,3.171,3.959l40.653,5.846a3.59,3.59,0,0,0,4.158-2.905l4.173-29.015a2.369,2.369,0,0,0-2.008-2.681Z" transform="translate(-17.02 -268.185)"/></g><g transform="translate(14.63 16.226)"><g transform="translate(0 0)"><rect class="d" width="24.444" height="10.284" transform="translate(1.464 0) rotate(8.182)"/></g></g><g transform="translate(19.294 21.255)"><path class="e" d="M53.347,292.322c-.014.09-3.745-.372-8.336-1.032s-8.3-1.268-8.289-1.358,3.744.372,8.336,1.032S53.36,292.232,53.347,292.322Z" transform="translate(-36.723 -289.921)"/></g><g transform="translate(18.982 23.423)"><path class="e" d="M53.028,294.54c-.013.09-3.745-.373-8.336-1.033s-8.3-1.268-8.289-1.358,3.744.373,8.336,1.033S53.041,294.45,53.028,294.54Z" transform="translate(-36.404 -292.138)"/></g></g><g transform="translate(49.208)"><g transform="translate(0.361)"><path class="k" d="M72.829,268.288a2.162,2.162,0,0,1-2.448-1.831L67.7,247.865a1.792,1.792,0,0,1,1.582-1.977l1.748-.252a1.859,1.859,0,0,0,1.517-1.235l.266-.817a1.859,1.859,0,0,1,1.518-1.234l8.3-1.2a1.878,1.878,0,0,1,1.7.614l.5.588a1.875,1.875,0,0,0,1.7.614l10.58-1.526a1.793,1.793,0,0,1,2.076,1.449l2.744,19.017a2.162,2.162,0,0,1-1.831,2.448Z" transform="translate(-67.682 -241.131)"/></g><g transform="translate(0 0.252)"><path class="i" d="M85.47,243.124l-6.732.956-.764-1.038a2.345,2.345,0,0,0-2.229-.893l-6.579.949a2.078,2.078,0,0,0-1.834,2.291l.11.768,2.913,20.19a2.36,2.36,0,0,0,2.734,1.908L99.814,264.4a2.361,2.361,0,0,0,2.083-2.6l-2.751-19.072a1.557,1.557,0,0,0-1.763-1.318Z" transform="translate(-67.313 -241.389)"/></g><g transform="translate(9.77 8.431)"><g transform="translate(0 0)"><rect class="d" width="16.069" height="6.761" transform="matrix(0.99, -0.143, 0.143, 0.99, 0, 2.295)"/></g></g><g transform="translate(12.723 11.727)"><path class="e" d="M91.251,253.131c.009.06-2.431.461-5.448.9s-5.471.74-5.48.681,2.431-.46,5.449-.895S91.242,253.072,91.251,253.131Z" transform="translate(-80.323 -253.124)"/></g><g transform="translate(12.929 13.153)"><path class="e" d="M91.461,254.589c.009.059-2.431.46-5.448.895s-5.471.741-5.479.682,2.43-.46,5.448-.9S91.453,254.529,91.461,254.589Z" transform="translate(-80.534 -254.581)"/></g></g></g><g transform="translate(97.038 162.529)"><g transform="translate(0.224 0.229)"><path class="d" d="M104.743,217.112l-7.17-.077a23.05,23.05,0,1,1,4.647-6.828l.008-.01Z" transform="translate(-58.171 -177.854)"/></g><path class="e" d="M104.738,217.107s-.07-.162-.187-.463l-.509-1.328c-.445-1.178-1.087-2.882-1.921-5.087l.186.032-.009.01a.108.108,0,0,1-.153.016.112.112,0,0,1-.03-.129,23.066,23.066,0,0,0,1.847-11.057,23.161,23.161,0,0,0-6.3-13.969,22.754,22.754,0,0,0-35.2,2.849c-.259.391-.529.773-.776,1.168l-.665,1.226-.332.611-.273.639-.54,1.272a23.115,23.115,0,0,0-.12,15.657,22.892,22.892,0,0,0,37.74,8.4.111.111,0,0,1,.077-.031l5.3.122,1.386.039c.315.01.487.022.487.022s-.141.009-.442.013l-1.356.009-5.373.009.077-.032a22.911,22.911,0,0,1-9.661,5.92,23.267,23.267,0,0,1-28.692-14.308,23.554,23.554,0,0,1,.1-16l.551-1.3.279-.652.338-.625.681-1.255c.253-.4.528-.794.793-1.193a23.22,23.22,0,0,1,35.931-2.856,23,23,0,0,1,4.578,7.032,22.73,22.73,0,0,1,1.75,7.207,23.042,23.042,0,0,1-1.983,11.172l-.183-.112.008-.01a.108.108,0,0,1,.152-.017.109.109,0,0,1,.034.048c.79,2.256,1.4,4,1.822,5.2.194.56.343,1,.453,1.315A4.357,4.357,0,0,1,104.738,217.107Z" transform="translate(-57.943 -177.62)"/><g transform="translate(14.569 13.326)"><path class="e" d="M80.332,206.206a7.479,7.479,0,1,1,4.207-1.3A7.477,7.477,0,0,1,80.332,206.206Zm-.02-13a5.525,5.525,0,1,0,4.572,2.409A5.5,5.5,0,0,0,80.312,193.2Z" transform="translate(-72.841 -191.248)"/><g transform="translate(10.168 11.872)"><path class="e" d="M88.516,211.642a.977.977,0,0,1-.809-.426l-4.3-6.3a.978.978,0,1,1,1.615-1.1l4.3,6.3a.977.977,0,0,1-.808,1.529Z" transform="translate(-83.239 -203.388)"/></g></g></g><g transform="translate(64.159 183.826)"><g transform="translate(91.624)"><g transform="translate(28.73 24.293)"><path class="e" d="M160.064,224.24l-12.67,9.376,3.914,11.338A27.436,27.436,0,0,0,160.064,224.24Z" transform="translate(-147.394 -224.24)"/></g><g transform="translate(5.587)"><path class="e" d="M130.036,201.14a16.618,16.618,0,0,1,11.172-1.349,35.2,35.2,0,0,1,10.566,4.368,17.233,17.233,0,0,1,5.05,3.94c2.44,3.069,4.85,8.109,5.086,12.022.19,3.165-1.022,11.087-2.359,13.961-1.227,2.638-6.972,4.646-9.807,5.3l-26.016-30.256A13.167,13.167,0,0,1,130.036,201.14Z" transform="translate(-123.728 -199.398)"/></g><g transform="translate(0 4.707)"><path class="e" d="M125.425,205.327l6.237-1.115c-3.409,8.119-4.333,26.686-6.284,35.273-2.3-3.336-7.637-13.5-7.352-17.537S118.015,204.638,125.425,205.327Z" transform="translate(-118.015 -204.212)"/></g><g transform="translate(3.408 5.822)"><path class="l" d="M155.072,218.867a10.653,10.653,0,0,0-8.014-9.809l-14.363-3.664c-6.207-.67-10.352,6.966-10.758,13.2-.452,6.922-.73,14.225.079,19.392,1.626,10.39,9.584,11.729,9.584,11.729s0,4.941.007,7.975l4.806,19.9,16.023-17.288,2.673-41.3C155.112,218.816,155.088,219.1,155.072,218.867Z" transform="translate(-121.5 -205.352)"/></g><g transform="translate(6.964 25.706)"><path class="e" d="M125.137,226.885a1.332,1.332,0,0,0,1.281,1.347,1.274,1.274,0,0,0,1.376-1.2,1.331,1.331,0,0,0-1.28-1.347A1.274,1.274,0,0,0,125.137,226.885Z" transform="translate(-125.136 -225.685)"/></g><g transform="translate(5.382 21.734)"><path class="e" d="M123.54,223.017c.165.174,1.175-.571,2.609-.564,1.433-.013,2.482.727,2.638.551.076-.077-.091-.391-.549-.726a3.649,3.649,0,0,0-2.111-.656,3.51,3.51,0,0,0-2.077.665C123.609,222.625,123.458,222.939,123.54,223.017Z" transform="translate(-123.519 -221.623)"/></g><g transform="translate(19.459 25.706)"><path class="e" d="M137.914,226.885a1.331,1.331,0,0,0,1.281,1.347,1.274,1.274,0,0,0,1.376-1.2,1.331,1.331,0,0,0-1.28-1.347A1.273,1.273,0,0,0,137.914,226.885Z" transform="translate(-137.913 -225.685)"/></g><g transform="translate(18.995 21.734)"><path class="e" d="M137.46,223.017c.165.174,1.177-.57,2.61-.563,1.431-.014,2.482.726,2.637.551.076-.077-.089-.391-.549-.726a3.649,3.649,0,0,0-2.111-.656,3.512,3.512,0,0,0-2.077.665C137.53,222.625,137.379,222.939,137.46,223.017Z" transform="translate(-137.439 -221.623)"/></g><g transform="translate(10.885 22.444)"><path class="e" d="M132.8,234.29a9.532,9.532,0,0,0-2.327-.424c-.366-.039-.712-.112-.774-.362a1.864,1.864,0,0,1,.247-1.084q.519-1.327,1.088-2.785c1.512-3.964,2.607-7.225,2.447-7.284s-1.516,3.106-3.028,7.07q-.546,1.467-1.042,2.8a2.116,2.116,0,0,0-.194,1.436.921.921,0,0,0,.6.536,2.5,2.5,0,0,0,.622.088A9.282,9.282,0,0,0,132.8,234.29Z" transform="translate(-129.146 -222.349)"/></g><g transform="translate(13.507 46.484)"><path class="m" d="M145.6,246.933s-3.38,7.134-13.773,6.139l0-2.444A26.164,26.164,0,0,0,145.6,246.933Z" transform="translate(-131.827 -246.933)"/></g><g transform="translate(19.458 16.88)"><path class="e" d="M137.92,217.728c.141.39,1.572.209,3.253.416,1.686.172,3.041.668,3.265.319.1-.167-.136-.535-.684-.913a5.7,5.7,0,0,0-4.965-.559C138.171,217.238,137.86,217.543,137.92,217.728Z" transform="translate(-137.913 -216.659)"/></g><g transform="translate(5.834 17.264)"><path class="e" d="M124.017,218.532c.252.327,1.24-.009,2.427-.022,1.187-.055,2.192.223,2.425-.116.1-.165-.057-.492-.495-.8a3.513,3.513,0,0,0-3.909.112C124.046,218.038,123.907,218.373,124.017,218.532Z" transform="translate(-123.981 -217.053)"/></g><g transform="translate(6.479 1.799)"><path class="e" d="M124.827,209.011a4.569,4.569,0,0,1,4.035-2.587,8.865,8.865,0,0,1,4.791,1.4c6.186,3.575,9.365,12.211,15.477,15.91,1.5.91,3.46.077,4.738,1.282s2.108,3.131,1.4,4.74a14.555,14.555,0,0,0,2.121-3.587,4.908,4.908,0,0,0-.172-4.049c-.529-.916-1.462-1.615-1.719-2.642a13.961,13.961,0,0,1,.092-2.777,6.05,6.05,0,0,0-.951-2.649A26.956,26.956,0,0,0,144.71,203.6a17.57,17.57,0,0,0-9.115-2.358,13.439,13.439,0,0,0-8.672,3.442c-1.367,1.274-2.8,2.593-2.1,4.322" transform="translate(-124.64 -201.238)"/></g><g transform="translate(35.557 26.304)"><path class="l" d="M154.375,226.854c.109-.3,5.527-2.253,5.6,3.506.069,5.595-5.576,4.493-5.587,4.333S154.375,226.854,154.375,226.854Z" transform="translate(-154.375 -226.296)"/><g transform="translate(1.713 1.825)"><path class="m" d="M156.132,232.6c.024-.018.1.067.264.141a.974.974,0,0,0,.729.009,2.413,2.413,0,0,0,1.1-2.174,3.222,3.222,0,0,0-.286-1.394,1.126,1.126,0,0,0-.74-.741.5.5,0,0,0-.572.273c-.073.157-.037.268-.066.279s-.121-.093-.078-.325a.619.619,0,0,1,.217-.352.733.733,0,0,1,.537-.148,1.368,1.368,0,0,1,1.027.858,3.313,3.313,0,0,1,.352,1.556,2.532,2.532,0,0,1-1.4,2.43,1.047,1.047,0,0,1-.893-.14C156.144,232.734,156.113,232.609,156.132,232.6Z" transform="translate(-156.127 -228.163)"/></g></g><g transform="translate(7.681 5.133)"><path class="j" d="M155.971,223.5a2.132,2.132,0,0,1-.337-.188c-.214-.136-.545-.318-.939-.6a19.267,19.267,0,0,1-3.02-2.749,53.66,53.66,0,0,1-3.694-4.8,44.051,44.051,0,0,0-4.617-5.748,17.6,17.6,0,0,0-2.98-2.355,14.491,14.491,0,0,0-3.218-1.46,15.917,15.917,0,0,0-5.926-.728,15.284,15.284,0,0,0-3.969.777c-.461.14-.8.294-1.037.384a2.046,2.046,0,0,1-.366.129,2.316,2.316,0,0,1,.345-.176,9.465,9.465,0,0,1,1.024-.431,14.524,14.524,0,0,1,3.99-.864,15.831,15.831,0,0,1,6.01.684,14.63,14.63,0,0,1,3.277,1.471,17.684,17.684,0,0,1,3.029,2.386,42.789,42.789,0,0,1,4.629,5.8,57.523,57.523,0,0,0,3.637,4.814,20.744,20.744,0,0,0,2.943,2.789c.382.289.7.483.907.633A2.265,2.265,0,0,1,155.971,223.5Z" transform="translate(-125.869 -204.648)"/></g><g transform="translate(36.917 33.492)"><g transform="translate(0.1 0.045)"><path class="d" d="M156.763,233.71a1.1,1.1,0,1,1-.261.083" transform="translate(-155.869 -233.693)"/></g><path class="e" d="M156.5,233.792a1.5,1.5,0,0,0-.5.751.948.948,0,0,0,.219.878.978.978,0,0,0,1.72-.548.95.95,0,0,0-.33-.843,1.509,1.509,0,0,0-.845-.322c0-.014.085-.058.262-.062a1.141,1.141,0,0,1,.7.244,1.117,1.117,0,0,1,.449,1.008,1.2,1.2,0,0,1-2.13.679,1.118,1.118,0,0,1-.217-1.083,1.138,1.138,0,0,1,.428-.6C156.4,233.794,156.494,233.779,156.5,233.792Z" transform="translate(-155.766 -233.647)"/></g><g transform="translate(29.086 17.625)"><path class="e" d="M155.047,225.367a8.619,8.619,0,0,1-.548,4.5c-.706,1.357-2.487,2.281-3.815,1.522-1.085-.619-1.408-2.007-1.592-3.242-.531-3.564-.774-7.165-1.335-10.724Z" transform="translate(-147.758 -217.422)"/></g><g transform="translate(8.043 6.651)"><path class="j" d="M126.239,206.46c.007.032.495-.093,1.392-.121a9.578,9.578,0,0,1,3.7.676,12.187,12.187,0,0,1,2.32,1.2,25.109,25.109,0,0,1,2.392,1.827,28.759,28.759,0,0,1,4.685,5.05c.71,1,1.34,2.024,2.022,2.974a14.189,14.189,0,0,0,2.242,2.522,24.873,24.873,0,0,0,4.728,3.163c1.431.757,2.628,1.287,3.453,1.654l.956.408a1.6,1.6,0,0,0,.343.121,1.6,1.6,0,0,0-.317-.179l-.932-.462c-.808-.4-1.989-.959-3.4-1.737a25.785,25.785,0,0,1-4.642-3.185A14.157,14.157,0,0,1,143,217.881c-.67-.94-1.3-1.968-2.016-2.977a28.2,28.2,0,0,0-4.754-5.089,24.485,24.485,0,0,0-2.439-1.825,12.125,12.125,0,0,0-2.383-1.184,9.233,9.233,0,0,0-3.785-.59,6.492,6.492,0,0,0-1.035.144A1.559,1.559,0,0,0,126.239,206.46Z" transform="translate(-126.239 -206.199)"/></g><g transform="translate(36.53 14.936)"><path class="j" d="M155.37,221.851a2.54,2.54,0,0,0,.495.333l1.417.831.477.274a1.489,1.489,0,0,0,.612.2.585.585,0,0,0,.378-.089.486.486,0,0,0,.209-.369,1.25,1.25,0,0,0-.264-.708l-1.645-2.633-.221.206a5.851,5.851,0,0,0,3.8,1.132,1.708,1.708,0,0,0,.508-.087.687.687,0,0,0,.435-.378.613.613,0,0,0-.094-.565,2.35,2.35,0,0,0-.32-.35,11.81,11.81,0,0,1-1.9-2.4,20.141,20.141,0,0,1-1.212-2.577,2.907,2.907,0,0,0,.177.753,10.42,10.42,0,0,0,.843,1.935,11.293,11.293,0,0,0,1.894,2.5c.209.2.416.424.335.6s-.385.263-.679.265a5.645,5.645,0,0,1-3.6-1.072l-.668-.489.446.7c.6.932,1.164,1.811,1.678,2.612a1.055,1.055,0,0,1,.238.546.266.266,0,0,1-.322.239,2.846,2.846,0,0,1-1.005-.415l-1.462-.751A2.454,2.454,0,0,0,155.37,221.851Z" transform="translate(-155.37 -214.672)"/></g><g transform="translate(16.317 35.6)"><path class="m" d="M138.37,237.231a1.871,1.871,0,0,0-1.932-1.42,1.957,1.957,0,0,0-1.5,1.07,2.4,2.4,0,0,0-.085,1.87l.03.135a2.129,2.129,0,0,0,2.4.509A1.99,1.99,0,0,0,138.37,237.231Z" transform="translate(-134.7 -235.803)"/></g><g transform="translate(15.456 34.633)"><path class="e" d="M133.82,238.893c0-.217,1.447-.148,2.539-1.338s1.008-2.74,1.211-2.741c.092-.016.265.358.25,1.011a3.619,3.619,0,0,1-.929,2.292,3.148,3.148,0,0,1-2.124,1.029C134.157,239.172,133.806,238.992,133.82,238.893Z" transform="translate(-133.82 -234.814)"/></g></g><g transform="translate(84.422 55.047)"><path class="a" d="M111.22,350.448c1.3-6.737,5.477-29.417,5.472-34,0-.756-1.176-3.114-1.393-3.838-1.217-4.094-5.465-19.154-4.511-27.092.763-6.345,6.131-14.467,7.741-18.8.758-2.041,6.79-4.146,8.8-4.983l4.275-6.04s-.928,2.807,2.849,5.327a11.479,11.479,0,0,0,6.889,1.826,17.542,17.542,0,0,0,12.58-6.189l.7.545c13.807,4.452,13.657,4.479,16.311,5.6,3.414,1.437-7.4,36.467-7.4,36.467s-6.39,23.654-2.945,30.982c1.939,4.128,8.468,10.946,10.12,14.783,0,0,2.875,4.019,2.931,5.028s-17,8.4-30.467,9.144C118.263,360.578,111.22,350.448,111.22,350.448Z" transform="translate(-110.651 -255.689)"/></g><g transform="translate(82.932 183.854)"><g transform="translate(0 27.448)"><path class="e" d="M3.755,0H105.711a3.756,3.756,0,0,1,3.756,3.756V24.75a3.756,3.756,0,0,1-3.756,3.756H3.755A3.755,3.755,0,0,1,0,24.75V3.755A3.755,3.755,0,0,1,3.755,0Z"/><g transform="translate(49.269 6.804)"><rect class="d" width="48.539" height="16.096" rx="0.708"/></g><g transform="translate(18.154 8.047)"><circle class="e" cx="5.827" cy="5.827" r="5.827" transform="translate(0.978 0.979)"/><path class="c" d="M134.5,437.313a6.805,6.805,0,1,1,6.8-6.805A6.813,6.813,0,0,1,134.5,437.313Zm0-11.655a4.849,4.849,0,1,0,4.848,4.849A4.855,4.855,0,0,0,134.5,425.658Z" transform="translate(-127.691 -423.702)"/></g><g transform="translate(54.094 9.555)"><path class="c" d="M164.7,425.245a57.148,57.148,0,0,1,0,10.79,57.363,57.363,0,0,1,0-10.79Z" transform="translate(-164.443 -425.245)"/></g><g transform="translate(58.816 9.555)"><path class="c" d="M169.526,425.245a57.148,57.148,0,0,1,0,10.79,57.37,57.37,0,0,1,0-10.79Z" transform="translate(-169.272 -425.245)"/></g><g transform="translate(63.538 9.555)"><path class="c" d="M174.355,425.245a57.37,57.37,0,0,1,0,10.79,57.144,57.144,0,0,1,0-10.79Z" transform="translate(-174.1 -425.245)"/></g><g transform="translate(68.26 9.555)"><path class="c" d="M179.184,425.245a57.376,57.376,0,0,1,0,10.79,57.141,57.141,0,0,1,0-10.79Z" transform="translate(-178.929 -425.245)"/></g><g transform="translate(72.982 9.555)"><path class="c" d="M184.012,425.245a57.154,57.154,0,0,1,0,10.79,57.359,57.359,0,0,1,0-10.79Z" transform="translate(-183.758 -425.245)"/></g><g transform="translate(77.704 9.555)"><path class="c" d="M188.841,425.245a57.376,57.376,0,0,1,0,10.79,57.363,57.363,0,0,1,0-10.79Z" transform="translate(-188.587 -425.245)"/></g><g transform="translate(82.426 9.555)"><path class="c" d="M193.67,425.245a57.37,57.37,0,0,1,0,10.79,57.144,57.144,0,0,1,0-10.79Z" transform="translate(-193.415 -425.245)"/></g><g transform="translate(87.148 9.555)"><path class="c" d="M198.5,425.245a57.376,57.376,0,0,1,0,10.79,57.144,57.144,0,0,1,0-10.79Z" transform="translate(-198.244 -425.245)"/></g><g transform="translate(91.87 9.555)"><path class="c" d="M203.327,425.245a57.144,57.144,0,0,1,0,10.79,57.363,57.363,0,0,1,0-10.79Z" transform="translate(-203.073 -425.245)"/></g></g><path class="j" d="M3.755,0H105.711a3.756,3.756,0,0,1,3.756,3.756V24.75a3.756,3.756,0,0,1-3.756,3.756H3.755A3.755,3.755,0,0,1,0,24.75V3.755A3.755,3.755,0,0,1,3.755,0Z"/><g transform="translate(49.269 6.804)"><rect class="d" width="48.539" height="16.096" rx="0.708"/></g><g transform="translate(18.154 8.047)"><circle class="e" cx="5.827" cy="5.827" r="5.827" transform="translate(0.978 0.978)"/><path class="c" d="M134.5,409.244a6.8,6.8,0,1,1,6.8-6.805A6.813,6.813,0,0,1,134.5,409.244Zm0-11.654a4.849,4.849,0,1,0,4.848,4.848A4.855,4.855,0,0,0,134.5,397.591Z" transform="translate(-127.691 -395.635)"/></g><g transform="translate(54.094 9.555)"><path class="c" d="M164.7,397.177a57.148,57.148,0,0,1,0,10.79,57.363,57.363,0,0,1,0-10.79Z" transform="translate(-164.443 -397.177)"/></g><g transform="translate(58.816 9.555)"><path class="c" d="M169.526,397.177a57.148,57.148,0,0,1,0,10.79,57.37,57.37,0,0,1,0-10.79Z" transform="translate(-169.272 -397.177)"/></g><g transform="translate(63.538 9.555)"><path class="c" d="M174.355,397.177a57.37,57.37,0,0,1,0,10.79,57.145,57.145,0,0,1,0-10.79Z" transform="translate(-174.1 -397.177)"/></g><g transform="translate(68.26 9.555)"><path class="c" d="M179.184,397.177a57.377,57.377,0,0,1,0,10.79,57.142,57.142,0,0,1,0-10.79Z" transform="translate(-178.929 -397.177)"/></g><g transform="translate(72.982 9.555)"><path class="c" d="M184.012,397.177a57.155,57.155,0,0,1,0,10.79,57.36,57.36,0,0,1,0-10.79Z" transform="translate(-183.758 -397.177)"/></g><g transform="translate(77.704 9.555)"><path class="c" d="M188.841,397.177a57.377,57.377,0,0,1,0,10.79,57.363,57.363,0,0,1,0-10.79Z" transform="translate(-188.587 -397.177)"/></g><g transform="translate(82.426 9.555)"><path class="c" d="M193.67,397.177a57.37,57.37,0,0,1,0,10.79,57.145,57.145,0,0,1,0-10.79Z" transform="translate(-193.415 -397.177)"/></g><g transform="translate(87.148 9.555)"><path class="c" d="M198.5,397.177a57.377,57.377,0,0,1,0,10.79,57.145,57.145,0,0,1,0-10.79Z" transform="translate(-198.244 -397.177)"/></g><g transform="translate(91.87 9.555)"><path class="c" d="M203.327,397.177a57.145,57.145,0,0,1,0,10.79,57.363,57.363,0,0,1,0-10.79Z" transform="translate(-203.073 -397.177)"/></g><g transform="translate(0 56.106)"><path class="h" d="M3.755,0H105.711a3.756,3.756,0,0,1,3.756,3.756V24.75a3.756,3.756,0,0,1-3.756,3.756H3.755A3.755,3.755,0,0,1,0,24.75V3.755A3.755,3.755,0,0,1,3.755,0Z"/><g transform="translate(49.269 6.804)"><rect class="d" width="48.539" height="16.096" rx="0.708"/></g><g transform="translate(18.154 8.047)"><path class="e" d="M140.345,459.835a5.827,5.827,0,1,0-5.826,5.826A5.827,5.827,0,0,0,140.345,459.835Z" transform="translate(-127.713 -453.03)"/><path class="a" d="M134.5,466.617a6.8,6.8,0,1,1,6.8-6.8A6.812,6.812,0,0,1,134.5,466.617Zm0-11.654a4.849,4.849,0,1,0,4.848,4.849A4.855,4.855,0,0,0,134.5,454.964Z" transform="translate(-127.691 -453.008)"/></g><g transform="translate(54.094 9.555)"><path class="c" d="M164.7,454.55a57.16,57.16,0,0,1,0,10.791,57.375,57.375,0,0,1,0-10.791Z" transform="translate(-164.443 -454.55)"/></g><g transform="translate(58.816 9.555)"><path class="c" d="M169.526,454.55a57.16,57.16,0,0,1,0,10.791,57.382,57.382,0,0,1,0-10.791Z" transform="translate(-169.272 -454.55)"/></g><g transform="translate(63.538 9.555)"><path class="c" d="M174.355,454.55a57.382,57.382,0,0,1,0,10.791,57.156,57.156,0,0,1,0-10.791Z" transform="translate(-174.1 -454.55)"/></g><g transform="translate(68.26 9.555)"><path class="c" d="M179.184,454.55a57.388,57.388,0,0,1,0,10.791,57.153,57.153,0,0,1,0-10.791Z" transform="translate(-178.929 -454.55)"/></g><g transform="translate(72.982 9.555)"><path class="c" d="M184.012,454.55a57.166,57.166,0,0,1,0,10.791,57.371,57.371,0,0,1,0-10.791Z" transform="translate(-183.758 -454.55)"/></g><g transform="translate(77.704 9.555)"><path class="c" d="M188.841,454.55a57.388,57.388,0,0,1,0,10.791,57.375,57.375,0,0,1,0-10.791Z" transform="translate(-188.587 -454.55)"/></g><g transform="translate(82.426 9.555)"><path class="c" d="M193.67,454.55a57.382,57.382,0,0,1,0,10.791,57.156,57.156,0,0,1,0-10.791Z" transform="translate(-193.415 -454.55)"/></g><g transform="translate(87.148 9.555)"><path class="c" d="M198.5,454.55a57.388,57.388,0,0,1,0,10.791,57.156,57.156,0,0,1,0-10.791Z" transform="translate(-198.244 -454.55)"/></g><g transform="translate(91.87 9.555)"><path class="c" d="M203.327,454.55a57.156,57.156,0,0,1,0,10.791,57.375,57.375,0,0,1,0-10.791Z" transform="translate(-203.073 -454.55)"/></g></g></g><g transform="translate(0 137.566)"><g transform="translate(0 73.394)"><g transform="translate(0.257)"><path class="j" d="M54.747,415.124l-8.108,17.5s-20.241-2.677-22.055.411l33.1,17.252,13.751-26.749Z" transform="translate(-24.584 -415.124)"/></g><g transform="translate(30.735 20.889)"><path class="c" d="M58.125,436.836a1.539,1.539,0,0,1,.155,2.048,1.479,1.479,0,0,1-2.029.17,1.622,1.622,0,0,1-.152-2.169,1.535,1.535,0,0,1,2.13.057" transform="translate(-55.75 -436.485)"/></g><g transform="translate(0 16.931)"><path class="e" d="M57.676,450.667l1.1-2.131-32.461-16.1a2.845,2.845,0,0,0-1.99,1.072Z" transform="translate(-24.321 -432.438)"/></g><g transform="translate(21.949 17.412)"><path class="e" d="M46.771,432.972c-.078.167.705.658,1.244,1.6.564.924.62,1.845.8,1.857.168.045.421-1.06-.251-2.184S46.812,432.8,46.771,432.972Z" transform="translate(-46.765 -432.929)"/></g><g transform="translate(17.673 17.098)"><path class="e" d="M42.41,432.633c-.118.14.451.78.655,1.756.234.971-.007,1.793.16,1.869.141.1.742-.8.465-2.009S42.493,432.479,42.41,432.633Z" transform="translate(-42.394 -432.608)"/></g><g transform="translate(13.502 16.852)"><path class="e" d="M38.172,435.829c.131.111.775-.593.811-1.705s-.552-1.86-.69-1.758c-.16.088.093.823.05,1.736C38.322,435.016,38.018,435.732,38.172,435.829Z" transform="translate(-38.128 -432.357)"/></g><g transform="translate(24.26 13.504)"><path class="e" d="M49.129,429.074c-.007.184.861.34,1.756.874.907.515,1.47,1.193,1.627,1.1.155-.071-.242-1.036-1.3-1.65S49.114,428.9,49.129,429.074Z" transform="translate(-49.129 -428.933)"/></g><g transform="translate(25.531 8.69)"><path class="e" d="M50.439,424.959a3.546,3.546,0,0,0,1.688.846,8.523,8.523,0,0,0,2.035.353,8.961,8.961,0,0,0,1.227-.022A2.286,2.286,0,0,0,56.1,426a.8.8,0,0,0,.518-.834,1.006,1.006,0,0,0-.529-.74,2.463,2.463,0,0,0-.675-.234,6.874,6.874,0,0,0-1.228-.172,6.7,6.7,0,0,0-2.069.231c-1.146.327-1.724.8-1.684.865.047.092.687-.229,1.784-.423a7.535,7.535,0,0,1,1.93-.084,7.114,7.114,0,0,1,1.117.193c.4.088.708.239.719.444,0,.077-.006.1-.133.169a1.9,1.9,0,0,1-.52.1,9.9,9.9,0,0,1-1.147.058,10.468,10.468,0,0,1-1.943-.2A13.115,13.115,0,0,0,50.439,424.959Z" transform="translate(-50.429 -424.011)"/></g></g><g transform="translate(43.455 101.142)"><g transform="translate(0.184)"><path class="j" d="M87.219,443.873l1.025,19.259s-19.141,7.106-19.3,10.685l37.323-.243L105.9,443.5Z" transform="translate(-68.946 -443.499)"/></g><g transform="translate(28.957 17.826)"><path class="c" d="M100.187,461.787a1.538,1.538,0,0,1,1.094,1.738,1.479,1.479,0,0,1-1.712,1.1,1.622,1.622,0,0,1-1.149-1.846,1.533,1.533,0,0,1,1.908-.946" transform="translate(-98.37 -461.728)"/></g><g transform="translate(0 27.677)"><path class="e" d="M106.265,474.2l-.029-2.395-36.221.963a2.845,2.845,0,0,0-1.257,1.88Z" transform="translate(-68.758 -471.801)"/></g><g transform="translate(19.143 19.58)"><path class="e" d="M88.335,463.7c.009.184.931.251,1.846.827.93.553,1.411,1.341,1.578,1.265.169-.039-.124-1.134-1.245-1.812S88.292,463.534,88.335,463.7Z" transform="translate(-88.334 -463.521)"/></g><g transform="translate(15.219 21.385)"><path class="e" d="M84.322,465.445c-.039.179.764.478,1.4,1.246.661.748.833,1.587,1.016,1.576.174.025.283-1.054-.529-1.993S84.323,465.269,84.322,465.445Z" transform="translate(-84.321 -465.367)"/></g><g transform="translate(11.531 23.081)"><path class="e" d="M82.076,470.253c.168.036.409-.888-.081-1.887s-1.357-1.386-1.433-1.231c-.1.154.466.685.856,1.511C81.826,469.463,81.893,470.237,82.076,470.253Z" transform="translate(-80.55 -467.101)"/></g><g transform="translate(19.393 14.621)"><path class="e" d="M88.6,459.143c.08.166.919-.1,1.961-.05,1.042.031,1.858.367,1.951.207.1-.135-.7-.8-1.925-.847S88.5,459,88.6,459.143Z" transform="translate(-88.589 -458.45)"/></g><g transform="translate(18.656 8.056)"><path class="e" d="M87.836,454.855a3.542,3.542,0,0,0,1.887-.042,8.487,8.487,0,0,0,1.964-.641,8.915,8.915,0,0,0,1.074-.594,2.333,2.333,0,0,0,.562-.454.8.8,0,0,0,.067-.981,1.012,1.012,0,0,0-.814-.407,2.462,2.462,0,0,0-.706.11,6.76,6.76,0,0,0-1.166.423,6.684,6.684,0,0,0-1.721,1.172c-.86.824-1.146,1.517-1.083,1.552.084.059.5-.524,1.378-1.208a7.524,7.524,0,0,1,1.666-.978,7.1,7.1,0,0,1,1.078-.353c.4-.111.737-.12.843.056.038.067.043.094-.038.212a1.883,1.883,0,0,1-.414.331,9.868,9.868,0,0,1-.987.588,10.451,10.451,0,0,1-1.813.731A12.983,12.983,0,0,0,87.836,454.855Z" transform="translate(-87.836 -451.737)"/></g></g><g transform="translate(25.533)"><path class="f" d="M172.163,349.124s-76.424-9.051-80.828-9.052c-10.346,0-15.2,7.572-16.741,13.657-1.143,4.5-24.163,69.528-24.163,69.528l16.982,8.8,24.973-44.373,12.727-22.142L170.7,375.68Z" transform="translate(-50.431 -340.072)"/><g transform="translate(33.49 21.647)"><path class="f" d="M102.779,363.989s-10.248,0-15.782,8.2c-3.254,4.82-2.11,13.432-2.176,19.933-.089,8.85,2.05,62.773,2.05,62.773l20.963.35,4.392-56.2-.26-10.386,41.856-3.4s3.811-12.688-5.562-22.7C147.054,361.266,102.779,363.989,102.779,363.989Z" transform="translate(-84.678 -362.208)"/></g><g transform="translate(87.611 7.572)"><path class="f" d="M174.117,350.34s6.529,15.076-2.283,27.967c-5.82,8.513-16.984,6.563-16.984,6.563L140.021,366.3l11.831-18.488Z" transform="translate(-140.021 -347.815)"/></g></g><g transform="translate(61.216 44.167)"><path class="j" d="M86.92,455.4a1.831,1.831,0,0,1,.371-.021l1.086-.009,4.175.02,15.335.173-.191.173c.813-11.284,1.9-26.464,3.1-43.132.4-5.427.791-10.7,1.162-15.71v.024q-.1-3.991-.184-7.747l0-.225.223-.018c11.894-.959,22.037-1.815,29.2-2.468,3.582-.327,6.421-.6,8.359-.816.972-.1,1.711-.21,2.216-.268.49-.093.748-.154.756-.139a6.19,6.19,0,0,1-.742.217c-.5.082-1.242.223-2.211.343-1.935.268-4.77.582-8.349.951-7.159.735-17.3,1.656-29.19,2.652l.218-.243q.1,3.752.2,7.747v.024c-.366,5.014-.751,10.284-1.147,15.711-1.251,16.664-2.391,31.842-3.238,43.124l-.013.178-.177,0L92.548,455.6l-4.173-.12-1.085-.045A1.936,1.936,0,0,1,86.92,455.4Z" transform="translate(-86.92 -385.237)"/></g><g transform="translate(59.354 22.752)"><path class="j" d="M153.633,385.213a1.819,1.819,0,0,0-.278-.146l-.835-.389-3.225-1.461-11.893-5.3-17.662-7.81-10.435-4.6c-.914-.384-1.793-.833-2.767-1.165a17.4,17.4,0,0,0-2.978-.761,22.541,22.541,0,0,0-6.25-.055,19.82,19.82,0,0,0-6.015,1.706,10.741,10.741,0,0,0-2.586,1.691,9.7,9.7,0,0,0-1.9,2.375,13.5,13.5,0,0,0-1.75,5.6c-.081.973-.024,1.908-.027,2.839s.02,1.851.029,2.76c.083,7.264.157,13.807.22,19.311.078,5.48.142,9.922.186,13.019.03,1.519.055,2.707.071,3.539l.029.92a1.654,1.654,0,0,0,.024.314,1.762,1.762,0,0,0,.019-.314c0-.228.007-.533.013-.92,0-.833,0-2.021.007-3.54-.013-3.1-.03-7.54-.052-13.019-.037-5.5-.081-12.047-.13-19.311q-.012-1.363-.021-2.759c0-.929-.049-1.879.032-2.8a13.1,13.1,0,0,1,1.705-5.424,9.316,9.316,0,0,1,1.823-2.277,10.3,10.3,0,0,1,2.488-1.621,19.473,19.473,0,0,1,5.888-1.666,22.2,22.2,0,0,1,6.13.051,16.992,16.992,0,0,1,2.9.739c.933.315,1.838.772,2.746,1.152l10.443,4.577,17.7,7.726,11.946,5.177,3.256,1.388.852.351A1.691,1.691,0,0,0,153.633,385.213Z" transform="translate(-85.016 -363.338)"/></g></g><g transform="translate(66.955 51.962)"><g transform="translate(21.885 24.435)"><path class="e" d="M116.481,308.074a6.975,6.975,0,0,0-.165-1.223c-.143-.778-.307-1.913-.463-3.317s-.267-3.085-.293-4.952a48.321,48.321,0,0,1,1.407-12.036c.457-1.81.946-3.422,1.428-4.751s.9-2.4,1.216-3.121a7.1,7.1,0,0,0,.443-1.152,6.855,6.855,0,0,0-.592,1.083,33.414,33.414,0,0,0-1.346,3.087,43.705,43.705,0,0,0-1.525,4.759,44.968,44.968,0,0,0-1.419,12.135,43.474,43.474,0,0,0,.386,4.982,33.388,33.388,0,0,0,.6,3.314A6.926,6.926,0,0,0,116.481,308.074Z" transform="translate(-115.169 -277.521)"/></g><g transform="translate(14.195)"><path class="i" d="M131.532,255.619l-.037-3.085-3.624,5.908-7.383,2.721c-2.322,2.676-9.842,32.789-8.322,37.771l2.627,29.448L107.3,339.638l13.433,1.437s2.886-2.85,2.165-10.392c-1.825-19.1.063-40.891.338-45.716C123.657,277.7,131.532,255.619,131.532,255.619Z" transform="translate(-107.305 -252.534)"/></g><g transform="translate(0 5.908)"><path class="i" d="M127.55,258.575s-12.118,3.962-13.706,6.245c-4.319,6.207-30.328,48.673-17.56,61.339,8.363,8.3,20.108-9.206,20.108-9.206Z" transform="translate(-92.789 -258.575)"/></g><g transform="translate(5.057 53.417)"><path class="e" d="M97.96,310.359a6.536,6.536,0,0,0,1.1-.2l3.02-.648c2.567-.54,6.166-1.3,10.291-1.922l-.22-.129c.4,1.023.813,2.086,1.236,3.172,1.058,2.687,2.059,5.227,2.939,7.459l.029-.187L111.8,323.6l-1.265,1.628a3.516,3.516,0,0,0-.419.6,3.356,3.356,0,0,0,.51-.529l1.348-1.562c1.182-1.414,2.786-3.332,4.677-5.592l.07-.084-.041-.1c-.867-2.236-1.854-4.782-2.9-7.475-.426-1.086-.842-2.147-1.243-3.169l-.061-.155-.16.025c-4.152.64-7.737,1.455-10.294,2.067-1.278.309-2.3.575-3,.77A6.327,6.327,0,0,0,97.96,310.359Z" transform="translate(-97.96 -307.158)"/></g><g transform="translate(15.956 19.968)"><path class="e" d="M110.66,306.2a8.376,8.376,0,0,0-.122-1.355c-.115-.939-.268-2.177-.452-3.675a58.367,58.367,0,0,1-.4-12.148,33.384,33.384,0,0,1,3.356-11.611c.683-1.4,1.3-2.5,1.73-3.264a9.587,9.587,0,0,0,.647-1.2c-.012-.008-.088.087-.223.275s-.328.468-.564.836c-.474.736-1.134,1.822-1.856,3.216a31.779,31.779,0,0,0-3.508,11.7,52.888,52.888,0,0,0,.522,12.226c.219,1.551.433,2.8.585,3.661A8.447,8.447,0,0,0,110.66,306.2Z" transform="translate(-109.105 -272.954)"/></g><g transform="translate(25.903 6.188)"><path class="e" d="M121.807,300.842a2.1,2.1,0,0,0-.007-.487c-.027-.363-.061-.822-.1-1.389-.112-1.26-.266-2.988-.455-5.1-.208-2.168-.455-4.725-.727-7.556-.142-1.423-.29-2.915-.444-4.46a16.052,16.052,0,0,1-.126-2.334,4.286,4.286,0,0,1,.637-2.209,2.519,2.519,0,0,1,2.138-1.242l.766.049-.638-.429-3.187-2.152.061.27,6.222-10.679c.737-1.295,1.334-2.343,1.774-3.118l.459-.842a1.191,1.191,0,0,0,.139-.3,1.2,1.2,0,0,0-.2.268c-.14.217-.309.484-.516.808L125.726,263c-1.6,2.673-3.806,6.352-6.352,10.6l-.1.162.157.108,3.18,2.163.129-.381a2.925,2.925,0,0,0-2.51,1.426,4.674,4.674,0,0,0-.705,2.421,16.272,16.272,0,0,0,.134,2.4c.162,1.544.319,3.035.468,4.457.306,2.828.583,5.382.817,7.548.243,2.105.442,3.829.588,5.085l.18,1.381A2.166,2.166,0,0,0,121.807,300.842Z" transform="translate(-119.277 -258.862)"/></g><g transform="translate(44.914 0.718)"><path class="i" d="M153.218,253.268l3.624,3.887,13.45,4.272a238.981,238.981,0,0,1-3.179,29.45c-2.961,16.589-4.55,33.5-4.636,33.76-.654-1.235,6.758,8.946,10.856,18.943,3.218,7.855,4.983,24.251,4.983,24.251l-33.863,10.374-5.735-61.37,1.493-28.39Z" transform="translate(-138.718 -253.268)"/><g transform="translate(1.497 3.542)"><path class="e" d="M140.251,303.722a2.96,2.96,0,0,0,.254-.506l.657-1.48c.568-1.286,1.394-3.144,2.458-5.419a194.122,194.122,0,0,1,9.2-17.325l.929-1.535.127-.21-.226-.094-3.812-1.574.052.348a10.4,10.4,0,0,1,4.232-2.131l.137-.032.012-.141a46.769,46.769,0,0,1,1.189-6.727c.471-2,.876-3.777,1.113-5.262a25.473,25.473,0,0,0,.345-3.492c.013-.407-.007-.721-.011-.932a1.276,1.276,0,0,0-.028-.321,11.2,11.2,0,0,0-.085,1.247,30.667,30.667,0,0,1-.453,3.457c-.268,1.472-.7,3.227-1.2,5.228a44.975,44.975,0,0,0-1.26,6.771l.149-.172a10.7,10.7,0,0,0-4.405,2.191l-.263.216.315.131,3.809,1.582-.1-.3-.933,1.538a170.311,170.311,0,0,0-9.1,17.416c-1.033,2.294-1.817,4.174-2.339,5.479-.242.624-.436,1.126-.585,1.511A2.849,2.849,0,0,0,140.251,303.722Z" transform="translate(-140.249 -256.89)"/></g><g transform="translate(12.749 92.452)"><path class="e" d="M168.294,347.815a2.767,2.767,0,0,0,.3.42l.9,1.128,3.309,4.052.086-.243-16.082,3.023.21.084-.254-.355-4.488-6.243-.138.313,11.573-1.5,3.359-.467.9-.141a1.517,1.517,0,0,0,.321-.069,1.042,1.042,0,0,0-.3.007l-.884.078-3.345.353L152.089,349.6l-.334.039.2.275,4.47,6.256.254.355.078.11.132-.025,16.059-3.141.254-.05-.168-.194-3.458-4-.943-1.061A2.226,2.226,0,0,0,168.294,347.815Z" transform="translate(-151.755 -347.808)"/></g><g class="g" transform="translate(14.043 95.746)"><path d="M170.877,353.79l1.064,2.077-15.092,3.245-3.771-7.936,3.8,5.3Z" transform="translate(-153.079 -351.177)"/></g></g></g><g transform="translate(31.268 100.248)"><g transform="translate(0)"><g transform="translate(0.006 0.02)"><path class="c" d="M56.333,303.81l8.256,40.533h71.665a1.431,1.431,0,0,0,1.432-1.431h0a1.432,1.432,0,0,0-1.432-1.432H121.828l-7.654-37.7a1.566,1.566,0,0,0-1.517-1.254l-54.772-.6A1.565,1.565,0,0,0,56.333,303.81Z" transform="translate(-56.301 -301.932)"/></g><path class="e" d="M56.333,303.809s-.009-.04-.022-.121a1.435,1.435,0,0,1-.007-.369,1.572,1.572,0,0,1,.758-1.184,1.6,1.6,0,0,1,.473-.188,2.478,2.478,0,0,1,.564-.035l1.29.01,3.224.026,20.71.2,14.437.146,8.088.083,4.242.044,2.168.023c.185,0,.358,0,.554.014a1.639,1.639,0,0,1,.554.159,1.659,1.659,0,0,1,.787.825,2.6,2.6,0,0,1,.15.551l.11.546q.112.546.224,1.1.223,1.1.45,2.213.453,2.227.917,4.509l1.9,9.332c1.292,6.355,2.635,12.966,4.02,19.776l-.1-.078h14.187a2.612,2.612,0,0,1,.558.033,1.531,1.531,0,0,1,.411,2.843,1.564,1.564,0,0,1-.674.182l-.662,0H117.639l-19.4,0-33.648-.018h-.063l-.012-.061c-2.524-12.458-4.577-22.593-6-29.617-.706-3.509-1.256-6.24-1.629-8.1-.183-.925-.324-1.632-.419-2.111s-.136-.723-.136-.723.057.243.157.718.247,1.184.441,2.107c.382,1.856.946,4.584,1.668,8.09,1.438,7.02,3.514,17.15,6.064,29.6l-.073-.061,33.648-.017,19.4,0h18.009l.654,0a1.366,1.366,0,0,0,.587-.158,1.333,1.333,0,0,0-.357-2.475,2.537,2.537,0,0,0-.517-.029H121.747l-.016-.078c-1.382-6.811-2.722-13.423-4.011-19.777q-.967-4.767-1.892-9.334-.462-2.283-.914-4.51-.226-1.113-.448-2.213l-.222-1.1-.111-.545a2.445,2.445,0,0,0-.139-.517,1.48,1.48,0,0,0-1.2-.883c-.167-.015-.36-.009-.539-.013l-2.168-.024-4.242-.049-8.087-.094-14.437-.169-20.71-.256-3.224-.043-1.289-.018a2.437,2.437,0,0,0-.555.029,1.6,1.6,0,0,0-.464.18,1.562,1.562,0,0,0-.758,1.155A2.035,2.035,0,0,0,56.333,303.809Z" transform="translate(-56.295 -301.911)"/></g><g transform="translate(28.328 18.082)"><circle class="d" cx="2.367" cy="2.367" r="2.367"/></g><g transform="translate(0.104 2.214)"><path class="e" d="M56.4,304.188s.084-.007.247-.009l.725,0,2.786,0,10.247.049,33.805.239,4.89.039,1.2.01a3.227,3.227,0,0,1,.614.037,1.713,1.713,0,0,1,1.308,1.222c.089.4.156.772.235,1.156.606,3.053,1.19,6,1.748,8.8l2.946,14.91,1.97,10.056.525,2.735c.058.309.1.546.132.713s.038.243.038.243-.022-.08-.058-.24-.086-.4-.152-.709c-.13-.631-.319-1.548-.562-2.728-.481-2.377-1.174-5.808-2.031-10.043s-1.864-9.294-2.988-14.9c-.56-2.806-1.149-5.75-1.758-8.8-.078-.378-.15-.774-.234-1.142a1.5,1.5,0,0,0-.644-.873,1.525,1.525,0,0,0-.514-.208,2.974,2.974,0,0,0-.576-.033l-1.2-.009-4.889-.038-33.806-.3-10.246-.113-2.785-.041-.725-.016C56.486,304.195,56.4,304.188,56.4,304.188Z" transform="translate(-56.402 -304.175)"/></g></g><g transform="translate(90.444 60.839)"><g transform="translate(0 57.807)"><g transform="translate(14.912 1.769)"><path class="l" d="M132.057,322.534l.023.015Z" transform="translate(-132.057 -322.534)"/></g><g transform="translate(15.051 1.857)"><path class="l" d="M132.2,322.624l.052.032Z" transform="translate(-132.2 -322.624)"/></g><g transform="translate(14.935 1.784)"><path class="l" d="M132.081,322.549l.116.073Z" transform="translate(-132.081 -322.549)"/></g><g transform="translate(14.861 1.737)"><path class="l" d="M132.005,322.5l.051.032Z" transform="translate(-132.005 -322.501)"/></g><path class="l" d="M117.572,332.632c1.33-1.926,10.465-6.339,10.465-6.339l-2.235-.8-2.666.773a6.286,6.286,0,0,1-1.374,2.247c-1.09,1.22-2.511-.343-2.511-.343l1.681-5.014,5.379-2.427a49.65,49.65,0,0,1,5.359,1.737l1.8,2.082c.8.8,3.03,3.831,3.718,4,.213.052,6.554-2.02,6.554-2.02l2.63,11.635-9.684.837-5.888.9a40.236,40.236,0,0,1-4.875,1.054c-1.944.174-3.15-.59-3.076-1.646s1.558-.995,1.558-.995a29.043,29.043,0,0,0,3.858-1.178A6.477,6.477,0,0,0,130.6,335.1l-2.062,0s-4.676,2.488-6.405,3.175-1.858-.965-1.93-1.473,5.489-4.793,5.489-4.793-5.085,2.36-6.025,3-2.23.706-2.442.18S116.242,334.558,117.572,332.632Z" transform="translate(-116.809 -320.725)"/><g transform="translate(15.103 1.889)"><path class="l" d="M132.253,322.657l.045.028Z" transform="translate(-132.253 -322.657)"/></g><g transform="translate(15.174 1.933)"><path class="l" d="M132.325,322.7Z" transform="translate(-132.325 -322.702)"/></g><g transform="translate(15.148 1.918)"><path class="l" d="M132.3,322.686l.025.016Z" transform="translate(-132.299 -322.686)"/></g><g transform="translate(20.373 7.815)"><path class="m" d="M141.359,336.056a1.076,1.076,0,0,0,.065-.331,2,2,0,0,0,.02-.394,2.881,2.881,0,0,0-.032-.524,7.284,7.284,0,0,0-1.063-2.817,15.561,15.561,0,0,0-1.817-2.4,6.24,6.24,0,0,0-.888-.873,9.919,9.919,0,0,0,.78.966,19.979,19.979,0,0,1,1.752,2.411,7.926,7.926,0,0,1,1.094,2.734C141.4,335.576,141.317,336.052,141.359,336.056Z" transform="translate(-137.642 -328.716)"/></g><g transform="translate(11.443 4.842)"><path class="m" d="M128.51,326.265a3.15,3.15,0,0,0,2.789-.583c-.03-.052-.595.272-1.366.428S128.517,326.205,128.51,326.265Z" transform="translate(-128.51 -325.676)"/></g><g transform="translate(9.365 9.639)"><path class="m" d="M126.385,331.834a26.655,26.655,0,0,0,4.454-1.244,26.67,26.67,0,0,0-4.454,1.244Z" transform="translate(-126.385 -330.582)"/></g><g transform="translate(13.576 13.685)"><path class="m" d="M130.692,335.34a5.161,5.161,0,0,0,1.155-.261,5.1,5.1,0,0,0,1.135-.335,4.417,4.417,0,0,0-2.29.6Z" transform="translate(-130.691 -334.719)"/></g><g transform="translate(10.018 11.341)"><path class="m" d="M127.054,332.33a2.79,2.79,0,0,1,1.115,1.892c.024,0,.066-.129.058-.349a1.816,1.816,0,0,0-.84-1.425C127.2,332.335,127.064,332.307,127.054,332.33Z" transform="translate(-127.053 -332.323)"/></g><g transform="translate(8.395 7.964)"><path class="m" d="M125.395,328.877c-.032.049.316.293.509.754a5.675,5.675,0,0,1,.205.886,1.02,1.02,0,0,0-.022-.966C125.863,329.024,125.411,328.824,125.395,328.877Z" transform="translate(-125.393 -328.869)"/></g><g transform="translate(9.508 0.546)"><path class="m" d="M126.762,323.178c.021.014.11-.071.191-.248a1.469,1.469,0,0,0-.173-1.447c-.121-.154-.227-.214-.244-.2a3.882,3.882,0,0,1,.324.921A3.831,3.831,0,0,1,126.762,323.178Z" transform="translate(-126.531 -321.283)"/></g></g><g transform="translate(22.272)"><g transform="translate(0.292)"><path class="i" d="M170.318,261.612a14.259,14.259,0,0,1,8.024,9.448s1.431,4.433,2.5,9.4c2.593,12.066,7.244,32.63,7.468,38.638.4,10.864-7.457,13.952-11.869,14.9s-31.774,4.333-31.774,4.333l-4.784-13.516,27.9-12.145s-5.321-18.268-6.552-23.976" transform="translate(-139.883 -261.612)"/></g><path class="e" d="M161.225,288.7s.049.14.121.418c.076.3.181.709.315,1.236.3,1.106.724,2.7,1.273,4.752,1.136,4.127,2.836,10.1,5.01,17.522l.043.147-.141.061-27.877,12.2.126-.292,4.8,13.511-.263-.162c7.111-.892,14.695-1.854,22.494-2.92,3.15-.446,6.287-.849,9.311-1.428a16.026,16.026,0,0,0,7.938-4.028,12.51,12.51,0,0,0,3.564-7.72c.034-.355.088-.706.108-1.06l.011-1.063a17.748,17.748,0,0,0-.09-2.105c-.152-1.4-.343-2.779-.566-4.139-.89-5.442-1.958-10.582-2.95-15.39l-2.842-13.362q-.66-3.06-1.255-5.822c-.418-1.831-.866-3.545-1.31-5.141s-.882-3.083-1.342-4.411a13.131,13.131,0,0,0-1.85-3.368,14.729,14.729,0,0,0-3.9-3.612c-.516-.329-.928-.552-1.209-.693s-.428-.207-.424-.217a3.01,3.01,0,0,1,.446.17,11.024,11.024,0,0,1,1.241.653,14.385,14.385,0,0,1,4.009,3.58,13.228,13.228,0,0,1,1.918,3.4c.482,1.35.919,2.826,1.39,4.421s.921,3.311,1.352,5.146q.612,2.758,1.29,5.82c.889,4.084,1.861,8.554,2.9,13.351,1.011,4.807,2.095,9.945,3,15.4q.34,2.046.579,4.167a18.132,18.132,0,0,1,.1,2.153l-.009,1.087c-.02.364-.073.727-.109,1.09a13,13,0,0,1-3.7,8.019,16.511,16.511,0,0,1-8.182,4.169c-3.075.591-6.189.99-9.349,1.438-7.8,1.066-15.387,2.023-22.5,2.905l-.2.024-.067-.187-4.771-13.52-.072-.205.2-.087,27.926-12.09-.1.207c-2.131-7.433-3.78-13.426-4.859-17.57-.538-2.073-.939-3.682-1.185-4.777-.13-.547-.21-.967-.269-1.249S161.225,288.7,161.225,288.7Z" transform="translate(-139.584 -261.612)"/></g><g transform="translate(42.487 1.233)"><path class="e" d="M160.52,283.571a3.043,3.043,0,0,1-.155-.876,18.127,18.127,0,0,1-.108-2.423,25.74,25.74,0,0,1,5.1-14.947,18.3,18.3,0,0,1,1.567-1.851c.4-.409.634-.622.66-.6.066.061-.785.993-1.934,2.66a28.748,28.748,0,0,0-5.034,14.75C160.506,282.306,160.61,283.564,160.52,283.571Z" transform="translate(-160.256 -262.873)"/></g></g></g><g transform="translate(241.439 115.609)"><path class="i" d="M1943.06,4543.458h-25.844v-25.843h25.844Zm-25.123-.721h24.4v-24.4h-24.4Z" transform="translate(-1917.216 -4517.615)"/><g transform="translate(5.139 1.637)"><path class="i" d="M1924.343,4531.7l3.431-3.687,5.718,4.575,13.088-12.707,3.136,3.7-16.478,16.253Z" transform="translate(-1924.343 -4519.884)"/></g></g><g transform="translate(283.042 115.609)"><path class="i" d="M1943.06,4543.458h-25.844v-25.843h25.844Zm-25.123-.721h24.4v-24.4h-24.4Z" transform="translate(-1917.216 -4517.615)"/><g transform="translate(5.139 1.637)"><path class="i" d="M1924.343,4531.7l3.431-3.687,5.718,4.575,13.088-12.707,3.136,3.7-16.478,16.253Z" transform="translate(-1924.343 -4519.884)"/></g></g><g transform="translate(324.645 115.609)"><path class="i" d="M1943.06,4543.458h-25.844v-25.843h25.844Zm-25.123-.721h24.4v-24.4h-24.4Z" transform="translate(-1917.216 -4517.615)"/><g transform="translate(5.139 1.637)"><path class="i" d="M1924.343,4531.7l3.431-3.687,5.718,4.575,13.088-12.707,3.136,3.7-16.478,16.253Z" transform="translate(-1924.343 -4519.884)"/></g></g><g transform="translate(366.247 115.609)"><path class="i" d="M1943.06,4543.458h-25.844v-25.843h25.844Zm-25.123-.721h24.4v-24.4h-24.4Z" transform="translate(-1917.216 -4517.615)"/><g transform="translate(5.139 1.637)"><path class="i" d="M1924.343,4531.7l3.431-3.687,5.718,4.575,13.088-12.707,3.136,3.7-16.478,16.253Z" transform="translate(-1924.343 -4519.884)"/></g></g><g transform="translate(407.85 115.609)"><g transform="translate(0)"><path class="i" d="M1943.06,4543.458h-25.844v-25.843h25.844Zm-25.123-.721h24.4v-24.4h-24.4Z" transform="translate(-1917.216 -4517.615)"/></g><g transform="translate(5.139 1.637)"><path class="i" d="M1924.343,4531.7l3.431-3.687,5.718,4.575,13.088-12.707,3.136,3.7-16.478,16.253Z" transform="translate(-1924.343 -4519.884)"/></g></g><g transform="translate(435.185 289.827)"><g transform="translate(34.358 2.171)"><path class="n" d="M102.644,71.6a43.765,43.765,0,1,1,70.074,45.111h0A43.758,43.758,0,0,1,102.644,71.6Zm81.71,21.851a40.807,40.807,0,1,0-13.5,21A40.817,40.817,0,0,0,184.353,93.454Z" transform="translate(-101.161 -39.13)"/></g><g transform="translate(33.42)"><path class="i" d="M101.685,69.381a43.765,43.765,0,1,1,70.074,45.112h0a43.759,43.759,0,0,1-70.074-45.112Zm81.71,21.852a40.808,40.808,0,1,0-13.5,20.995A40.816,40.816,0,0,0,183.394,91.234Z" transform="translate(-100.202 -36.91)"/></g><g transform="translate(0 69.147)"><path class="i" d="M68.206,151.075l-.692-.762c-1.482-1.632-1.931-3.638-1-4.48L108.482,107.7c.207-.188.642-.045.974.319l4.862,5.352c.331.364.431.812.224,1L72.569,152.5C71.642,153.347,69.688,152.707,68.206,151.075Z" transform="translate(-66.027 -107.618)"/></g><g transform="translate(61.771 8.945)"><path class="c" d="M129.194,50.881a6.374,6.374,0,0,1,1.092-.706,13.523,13.523,0,0,1,1.344-.725c.537-.256,1.136-.579,1.839-.844a32.352,32.352,0,0,1,5.009-1.634,33.883,33.883,0,0,1,12.843-.554,32.473,32.473,0,0,1,5.132,1.195c.723.2,1.348.474,1.9.684a13.568,13.568,0,0,1,1.4.605,6.211,6.211,0,0,1,1.149.61c-.042.095-1.707-.723-4.559-1.554a35.806,35.806,0,0,0-5.093-1.076,35.763,35.763,0,0,0-12.672.548,35.916,35.916,0,0,0-4.98,1.51C130.834,50.015,129.245,50.973,129.194,50.881Z" transform="translate(-129.193 -46.056)"/></g><g transform="translate(96.844 14.301)"><path class="c" d="M169.4,54.281a6.7,6.7,0,0,1-2.3-1.15c-1.2-.754-2.109-1.461-2.035-1.58A6.661,6.661,0,0,1,167.37,52.7C168.569,53.454,169.479,54.162,169.4,54.281Z" transform="translate(-165.06 -51.533)"/></g></g></g></svg>