<svg xmlns="http://www.w3.org/2000/svg" width="80" height="80" viewBox="0 0 80 80"><defs><style>.a{fill:#344154;}.b{fill:none;}</style></defs><g transform="translate(9789.267 6247.016)"><g transform="translate(-10954.465 -6741.4)"><path class="a" d="M1203.912,532.1a21.315,21.315,0,0,1,21.425,21.205v.119a21.465,21.465,0,1,1-21.425-21.324Zm17.86,21.135a17.9,17.9,0,0,0-35.8-.141c0,.065,0,.131,0,.2a17.9,17.9,0,0,0,35.8.1c0-.05,0-.1,0-.151Z"/><path class="a" d="M1222.646,538.714a27.3,27.3,0,0,0-3.694-3.459,17.418,17.418,0,0,0-3.095-1.992,1.238,1.238,0,0,1-.755-1.332c.021-6.748-.012-13.493.041-20.242.008-1.011-.306-1.22-1.22-1.17-1.288.072-2.585,0-3.877.023-.62.011-.72-.168-.412-.7q4.36-7.523,8.7-15.06c.325-.566.493-.5.788.015q4.333,7.537,8.7,15.059c.321.553.178.7-.416.69-1.2-.023-2.4.044-3.593-.025-.823-.047-.983.268-.98,1.024q.039,12.771.02,25.539v1.51Z"/><path class="a" d="M1203.122,507.933c1.739,3,3.4,5.859,5.045,8.715,1.339,2.316,2.655,4.645,4.02,6.945.377.633.271.794-.44.775-1.258-.032-2.519.008-3.774-.024-.566-.015-.776.163-.763.754.035,1.574-.005,3.15.024,4.725.011.566-.194.706-.726.617a19.048,19.048,0,0,0-6.018-.136c-.929.142-1.038-.213-1.007-.993.055-1.416,0-2.831.024-4.252.011-.533-.176-.717-.7-.709-1.481.025-2.961,0-4.442.014-.449,0-.694-.054-.4-.566C1196.984,518.566,1200,513.335,1203.122,507.933Z"/><path class="a" d="M1202.809,558.367v-.094c0-1.132.3-2.383-.086-3.371-.39-1.014-1.863-.87-2.807-1.371a6.889,6.889,0,0,1-3.875-7.322,6.375,6.375,0,0,1,5.575-5.367c.943-.166,1.415-.455,1.193-1.457-.23-1.044.494-.854,1.115-.912.764-.07,1.068.206.913.944-.216,1.026.293,1.288,1.217,1.454a6.314,6.314,0,0,1,5.078,4.405c.224.627.059.841-.584.882a22.439,22.439,0,0,0-2.438.283c-.472.081-.655-.043-.816-.494a3.525,3.525,0,0,0-1.887-2.01c-.362-.173-.566-.2-.566.32.014,2.076.008,4.161,0,6.24,0,.378.141.519.517.628.964.283,1.919.6,2.852.974a5.88,5.88,0,0,1,4.044,5.315,7.011,7.011,0,0,1-2.919,6.588,7.962,7.962,0,0,1-3.647,1.45c-.676.094-.965.337-.849,1.016a1.19,1.19,0,0,1,0,.377c-.055.359.2.92-.155,1.038a4.733,4.733,0,0,1-1.678.064c-.236-.011-.188-.283-.194-.461a9.492,9.492,0,0,1,.006-1.132c.053-.519-.152-.666-.661-.755a7.58,7.58,0,0,1-6.568-6.154c-.094-.439-.094-.611.409-.649.943-.07,1.88-.189,2.815-.317a.639.639,0,0,1,.8.429.568.568,0,0,1,.02.093,5.383,5.383,0,0,0,2.548,3.039c.443.247.66.261.642-.362C1202.788,560.572,1202.809,559.47,1202.809,558.367Zm2.028.378c0,1.008.02,2.016-.009,3.019-.015.54.095.727.694.561a3.8,3.8,0,0,0,2.94-3.694,3.686,3.686,0,0,0-3.073-3.368c-.443-.094-.561.039-.556.453.017,1.014.008,2.025.008,3.031Zm-2.063-14.974a3.4,3.4,0,0,0-2.9,3.243,3.448,3.448,0,0,0,2.9,3.226Z"/></g><rect class="b" width="80" height="80" transform="translate(-9789.267 -6247.016)"/></g></svg>