<svg xmlns="http://www.w3.org/2000/svg" width="80" height="80" viewBox="0 0 80 80"><defs><style>.a{fill:#344154;}.b{fill:none;}</style></defs><g transform="translate(9541.688 6242.337)"><g transform="translate(-10954.465 -6741.4)"><path class="a" d="M1441.683,499.065c.39.19.8.35,1.168.577a3.886,3.886,0,0,1,1.939,3.363c.036,1.319.007,2.64.007,4.036h.918c5.418,0,10.836.012,16.246-.008a4.569,4.569,0,0,1,3.429,1.4q4.35,4.375,8.727,8.724a4.393,4.393,0,0,1,1.328,3.294c-.019,6.769-.01,13.538-.01,20.306v.942c1.095.2,2.154.326,3.18.587a18.59,18.59,0,0,1,14.01,15.795,1.451,1.451,0,0,0,.144.348v3.9a2.118,2.118,0,0,0-.148.425A18.59,18.59,0,0,1,1475.5,579a18.306,18.306,0,0,1-16.266-7.383,1.293,1.293,0,0,0-1.159-.562c-8.693.014-17.386-.039-26.077.041a4.33,4.33,0,0,1-4.573-4.071,4.5,4.5,0,0,1,0-.466c.091-7.968.032-15.927.032-23.891v-.956h-.966c-3.2,0-6.4.01-9.6,0a3.943,3.943,0,0,1-4.1-3.785c-.005-.119,0-.239,0-.358V503.214a5.029,5.029,0,0,1,.106-1.08,4.288,4.288,0,0,1,3.013-3.071Zm-11.565,42.653v24.671c0,1.616.366,1.991,1.961,1.991h24.2c.274,0,.549-.024.908-.04-2.579-6-2.443-11.835.83-17.413s8.341-8.512,14.708-9.187v-21.3h-.882c-1.795,0-3.592,0-5.387-.01a4.054,4.054,0,0,1-4.363-4.321c-.015-1.822-.027-3.644.021-5.465.018-.7-.153-.931-.9-.926-5.206.034-10.411.019-15.616.019h-.811v1.036c0,8.8-.049,17.594.032,26.391a4.306,4.306,0,0,1-4,4.589,4.408,4.408,0,0,1-.6,0c-3.323-.127-6.657-.031-10.109-.031Zm59.983,18.74a15.924,15.924,0,1,0,0,.007ZM1415.444,520.3v16.784c0,1.547.409,1.966,1.923,1.966H1440.4c1.208,0,1.7-.488,1.7-1.71q.006-16.866,0-33.732c0-1.477-.425-1.888-1.918-1.888h-22.8c-1.533,0-1.942.412-1.942,1.948q0,8.324,0,16.64Zm49.356-8.457c0,1.579-.026,3.13.012,4.674a1.069,1.069,0,0,0,1.007,1.117c1.594.059,3.2.02,4.756.02Z"/><path class="a" d="M1444.789,548.419c-3.043,0-6.087.007-9.136,0-1.091,0-1.8-.783-1.467-1.67a2.34,2.34,0,0,1,.99-.956,1.924,1.924,0,0,1,.919-.073h17.325c.234,0,.47-.007.7.016a1.291,1.291,0,0,1,1.3,1.276c0,.027,0,.054,0,.081a1.319,1.319,0,0,1-1.318,1.321h-.036c-1.04.033-2.081.01-3.121.01Z"/><path class="a" d="M1458.706,535.087c-2.762,0-5.514.011-8.271,0-1.328-.007-2.057-1.013-1.487-2.01a1.507,1.507,0,0,1,1.462-.708q5.383.006,10.767,0,3,0,6.008.006a1.382,1.382,0,0,1,1.556,1.11c.165.909-.449,1.581-1.527,1.6-1.456.025-2.913.007-4.369.007Z"/><path class="a" d="M1458.766,528.43c-2.81,0-5.62.008-8.429,0-1.218,0-1.917-.983-1.424-1.957a1.382,1.382,0,0,1,1.352-.744h4.058l12.253-.01h.39c1.168.011,1.805.493,1.805,1.361s-.637,1.352-1.805,1.353h-8.195Z"/><path class="a" d="M1458.709,541.725H1450.2a1.3,1.3,0,0,1-1.381-1.015,1.213,1.213,0,0,1,.614-1.458,1.649,1.649,0,0,1,.815-.186q8.507-.018,17.012-.012a1.348,1.348,0,0,1,1.5,1.169,1.377,1.377,0,0,1,.01.145,1.33,1.33,0,0,1-1.306,1.353,1.463,1.463,0,0,1-.175-.008c-2.862.009-5.723,0-8.585,0Z"/><path class="a" d="M1443.447,552.363c2.523,0,5.047-.005,7.57.007a2.614,2.614,0,0,1,.987.157,1.08,1.08,0,0,1,.737,1.3,2.536,2.536,0,0,1-.893,1.137c-.226.174-.65.122-.985.122q-7.375.011-14.75,0c-1.343,0-2.045-.5-2.018-1.409.031-.9.681-1.322,2.011-1.322Z"/><path class="a" d="M1442.771,561.719c-2.417,0-4.834.006-7.251-.005a1.291,1.291,0,0,1-1.4-1.172v0a1.274,1.274,0,0,1,.877-1.4,1.978,1.978,0,0,1,.689-.074q7.094,0,14.188,0c.966,0,1.583.531,1.58,1.332s-.614,1.321-1.594,1.323C1447.5,561.724,1445.135,561.72,1442.771,561.719Z"/><path class="a" d="M1475.459,551.41v7.736a7,7,0,0,1,3.93,2.5,6.662,6.662,0,0,1-3.223,10.424,1.074,1.074,0,0,0-.842.737,1.846,1.846,0,0,1-1.2.892,1.074,1.074,0,0,1-1.264-.842.6.6,0,0,1-.01-.06c-.107-.49-.359-.591-.749-.716a6.624,6.624,0,0,1-4.66-6.172,1.357,1.357,0,0,1,1.167-1.523,1.1,1.1,0,0,1,.128-.011c.79-.02,1.309.531,1.373,1.466a3.731,3.731,0,0,0,2.624,3.5v-7.707a6.7,6.7,0,0,1-.592-12.954c.376-.119.591-.225.69-.67a1.313,1.313,0,0,1,2.53.009c.094.456.324.554.692.671a6.6,6.6,0,0,1,4.7,6.139c.006.956-.448,1.524-1.248,1.571-.827.048-1.366-.514-1.428-1.487A3.811,3.811,0,0,0,1475.459,551.41Zm-.027,10.664v7.289a3.829,3.829,0,0,0,0-7.29Zm-2.7-10.641a3.824,3.824,0,0,0-2.615,3.9,3.67,3.67,0,0,0,2.615,3.32Z"/><path class="a" d="M1428.8,504.39h7.727a2.707,2.707,0,0,1,2.942,2.451,2.654,2.654,0,0,1,0,.446q.016,5.112,0,10.224a2.718,2.718,0,0,1-2.868,2.913q-7.845.028-15.689,0a2.691,2.691,0,0,1-2.82-2.555,2.732,2.732,0,0,1,0-.313q-.008-5.151.006-10.3a2.676,2.676,0,0,1,2.888-2.86C1423.591,504.386,1426.2,504.39,1428.8,504.39Zm7.907,2.726h-15.867v10.525H1436.7Z"/><path class="a" d="M1420.753,525.755c-.439,0-.882.028-1.319-.007a1.362,1.362,0,0,1-1.328-1.354,1.287,1.287,0,0,1,1.254-1.318h.007a23.252,23.252,0,0,1,2.793,0,1.275,1.275,0,0,1,1.279,1.271c0,.034,0,.069,0,.1a1.32,1.32,0,0,1-1.335,1.306h-.025c-.439.028-.88,0-1.321,0Z"/><path class="a" d="M1428.759,525.758c-.414,0-.831.02-1.244,0a1.415,1.415,0,0,1-1.431-1.353,1.34,1.34,0,0,1,1.336-1.345h.005a24.429,24.429,0,0,1,2.719.011,1.329,1.329,0,0,1,1.312,1.343v.021a1.381,1.381,0,0,1-1.376,1.32C1429.642,525.781,1429.2,525.758,1428.759,525.758Z"/><path class="a" d="M1436.723,525.757c-.415,0-.831.022-1.244,0a1.381,1.381,0,0,1-1.381-1.316,1.323,1.323,0,0,1,1.278-1.366h.03a24.184,24.184,0,0,1,2.72,0,1.331,1.331,0,0,1,1.344,1.318v.021a1.409,1.409,0,0,1-1.428,1.357c-.439.024-.881,0-1.322,0Z"/><path class="a" d="M1436.741,531.081c-.414,0-.831.017-1.244,0a1.372,1.372,0,0,1-1.406-1.336v-.025a1.332,1.332,0,0,1,1.348-1.315h.009c.906-.031,1.816-.026,2.721.015a1.318,1.318,0,0,1,1.3,1.292,1.375,1.375,0,0,1-1.324,1.365c-.464.031-.933,0-1.4,0Z"/><path class="a" d="M1436.718,536.4c-.417,0-.834.015-1.25,0a1.348,1.348,0,0,1-1.37-1.314,1.32,1.32,0,0,1,1.3-1.336h.032c.884-.028,1.77-.026,2.656,0a1.338,1.338,0,0,1,1.381,1.294v.009a1.381,1.381,0,0,1-1.41,1.352h-.009C1437.6,536.413,1437.16,536.4,1436.718,536.4Z"/><path class="a" d="M1420.785,531.088c-.44,0-.881.019-1.32,0a1.359,1.359,0,0,1-1.36-1.318,1.283,1.283,0,0,1,1.214-1.348c.029,0,.058,0,.086,0,.9-.041,1.814-.046,2.718-.01a1.273,1.273,0,0,1,1.311,1.236c0,.033,0,.066,0,.1a1.317,1.317,0,0,1-1.3,1.335h-.028c-.439.026-.881,0-1.321,0Z"/><path class="a" d="M1428.717,531.079c-.417,0-.834.02-1.25,0a1.388,1.388,0,0,1-1.381-1.326,1.329,1.329,0,0,1,1.32-1.338h.021c.909-.034,1.823-.034,2.732,0a1.3,1.3,0,0,1,1.292,1.3,1.353,1.353,0,0,1-1.333,1.358C1429.654,531.1,1429.185,531.079,1428.717,531.079Z"/><path class="a" d="M1428.777,536.406c-.441,0-.882.016-1.322,0a1.373,1.373,0,0,1-1.365-1.316,1.332,1.332,0,0,1,1.325-1.339h0q1.359-.045,2.72-.008a1.317,1.317,0,0,1,1.321,1.315v.026a1.346,1.346,0,0,1-1.36,1.315c-.439.019-.88,0-1.32,0Z"/><path class="a" d="M1420.718,536.4c-.416,0-.832.015-1.249,0a1.344,1.344,0,0,1-1.363-1.315,1.291,1.291,0,0,1,1.246-1.334h.082c.909-.028,1.822-.03,2.731,0a1.247,1.247,0,0,1,1.276,1.218c0,.026,0,.053,0,.079a1.3,1.3,0,0,1-1.241,1.347h-.071C1421.657,536.418,1421.187,536.4,1420.718,536.4Z"/></g><rect class="b" width="80" height="80" transform="translate(-9541.688 -6242.337)"/></g></svg>