<svg xmlns="http://www.w3.org/2000/svg" width="80" height="80.001" viewBox="0 0 80 80.001"><defs><style>.a{fill:#344154;}.b{fill:none;}</style></defs><g transform="translate(10551 6250.573)"><g transform="translate(-10954.465 -6741.4)"><path class="a" d="M430.808,570.828c.025-.308.071-.617.071-.926.005-3.514,0-7.027,0-10.615H418v-.968c0-4.87-.009-9.74.012-14.614,0-.564-.133-.792-.73-.921-2.968-.639-5.922-1.343-8.982-2.049.137-.273.249-.52.38-.754,2.517-4.489,5-9,7.587-13.452a4.916,4.916,0,0,0,.634-3.312,26.006,26.006,0,0,1,.484-8.684.809.809,0,0,1,.589-.484c.825-.056,1.655-.023,2.506-.023.112-1.064.211-1.89-.806-2.653a11.538,11.538,0,0,1-3.812-12.148,11.877,11.877,0,0,1,9.449-8.276,11.667,11.667,0,0,1,13.038,8.943c.141.631.218,1.277.353,2.088l2.971-10.342,12.949,5.548-3.893,1.968c.086.239.148.458.242.662.9,1.958,1.828,3.907,2.71,5.875a.825.825,0,0,0,.917.607c.7-.044,1.406.006,2.108-.017a2.522,2.522,0,0,0,2.545-2.5c0-.033,0-.066,0-.1.018-1.661,0-3.323,0-5.073h-2.492v-7.742H464.4v7.714h-2.527c0,1.712.008,3.345,0,4.977a5.167,5.167,0,0,1-2.115,4.313,5.666,5.666,0,0,1-3.368,1.04c-.361.012-.722,0-1.217,0,.784,1.7,1.51,3.3,2.277,4.881.068.141.387.222.6.223,1.667.018,3.333-.021,5,.028.581.016.684-.346.846-.723,2.3-5.373,4.591-10.749,6.917-16.109a3.315,3.315,0,0,1,.982-1.244c2.2-1.7,4.438-3.347,6.774-5.094.029.326.066.539.066.753,0,2.655.014,5.312-.009,7.969a3.3,3.3,0,0,1-.257,1.2q-2.544,6.156-5.123,12.3c-.107.258-.211.516-.387.934.736,0,1.347.015,1.956-.005.406-.012.605.114.665.553.91,6.7,1.094,13.385-.735,19.972a32.624,32.624,0,0,1-12.106,17.7,1.7,1.7,0,0,0-.774,1.538c.034,5.677.024,11.354.027,17.033Zm42.356-54.2H420.5c-.13,0-.3-.051-.387.011-.209.151-.517.338-.543.54a25.484,25.484,0,0,0,.091,7.384,2.539,2.539,0,0,1-.322,1.778c-2.24,3.929-4.44,7.881-6.651,11.825-.133.237-.247.484-.412.813l8.352,1.92V556.65H433.51v11.523h25.743v-.968c0-4.972.009-9.945-.012-14.918a1.4,1.4,0,0,1,.6-1.218,59.2,59.2,0,0,0,5.537-4.9,30.174,30.174,0,0,0,7.646-15.845,64.105,64.105,0,0,0,.372-11.528A21.329,21.329,0,0,0,473.164,516.632Zm-47.446-2.639c0-2.331-.025-4.567.015-6.8a1.474,1.474,0,0,0-.814-1.542,3.637,3.637,0,0,1-1.627-4.116,3.792,3.792,0,0,1,3.519-2.917,3.85,3.85,0,0,1,3.823,2.411,3.54,3.54,0,0,1-1.133,4.335,2.49,2.49,0,0,0-1.2,2.678c.06,1.507.015,3.019.015,4.528V514h2.564c0-.9.026-1.75-.009-2.6a1.074,1.074,0,0,1,.615-1.113,8.684,8.684,0,0,0,4.46-6.608,9,9,0,1,0-13.441,6.551,1.185,1.185,0,0,1,.663,1.239c-.044.826-.012,1.654-.012,2.53Zm40.706.05c1.037,0,1.936-.038,2.833.013a.957.957,0,0,0,1.084-.721c1.632-3.981,3.3-7.948,4.952-11.922.125-.3.227-.609.349-.938l-2.806-1.393ZM448.4,497.373l-5.037-2.154-1.343,4.708,1.112-.511c.131.278.244.507.351.74.852,1.865,1.7,3.732,2.563,5.591.1.21.3.519.467.524,1.487.041,2.977.024,4.576.024l-3.815-8.282Zm-6.511,5.574c-1.031.515-2,.957-2.916,1.479a1.542,1.542,0,0,0-.667.835,11.874,11.874,0,0,1-3.953,6.2,1.916,1.916,0,0,0-.738,2.524h5.057c-.363-3.753.373-6.841,4.742-7.686Zm12.775,11.087c-.8-1.722-1.52-3.291-2.26-4.86a.48.48,0,0,0-.345-.235c-1.491-.016-2.982-.01-4.576-.01.762,1.675,1.463,3.232,2.189,4.777a.634.634,0,0,0,.457.314c1.451.027,2.9.017,4.536.017Zm-7.728,0c-.774-1.7-1.486-3.277-2.212-4.845a.557.557,0,0,0-.338-.255,2.6,2.6,0,0,0-3.069,2.029c-.009.04-.016.08-.022.121a28.575,28.575,0,0,0-.019,2.883,3.252,3.252,0,0,0,.428.064c1.687.009,3.374.008,5.233.008Zm14.877-18.071v-2.455h-2.461v2.455Zm-33.506,6.54a1.294,1.294,0,0,0-1.214-1.286,1.251,1.251,0,0,0-.153,2.5c.027,0,.055,0,.082,0A1.289,1.289,0,0,0,428.307,502.5Zm47.672-4.77v-1.645l-1.3.992Z"/><path class="a" d="M433.507,520.55h2.509a6.185,6.185,0,0,1-5.97,6.394q-.288.011-.576-.007a6.178,6.178,0,0,1-6.259-6.1c0-.1,0-.19,0-.285h2.516c.1,1.209.36,2.436,1.5,3.051a5.549,5.549,0,0,0,2.561.694C432.064,524.279,433.165,523.095,433.507,520.55Z"/></g><rect class="b" width="80" height="80" transform="translate(-10551 -6250.572)"/></g></svg>