<svg xmlns="http://www.w3.org/2000/svg" width="957.5" height="154.5" viewBox="0 0 957.5 154.5"><defs><style>.a{fill:#6595bf;}.b{fill:#fff;stroke:#000;}</style></defs><g transform="translate(5496.5 -251.5)"><rect class="a" width="933" height="148" transform="translate(-5472 258)"/><path class="b" d="M0,0H948.9V146.5H0Z" transform="translate(-5496 252)"/><path d="M-100.888,1.278h7.96v.847h-7.96Zm7.753,0h7.96v.847h-7.96Zm7.753,0h7.96v.847h-7.96Zm7.753,0h7.96v.847h-7.96Zm7.753,0h7.96v.847h-7.96Zm7.753,0h7.96v.847h-7.96Zm7.753,0h7.96v.847h-7.96Zm7.753,0h7.96v.847h-7.96Zm7.753,0h7.96v.847h-7.96Zm7.753,0h7.96v.847h-7.96Zm7.753,0h7.96v.847h-7.96Zm7.753,0h7.96v.847h-7.96Zm7.753,0H.108v.847h-7.96Zm7.753,0h7.96v.847H-.1Zm7.753,0h7.96v.847H7.653Zm7.753,0h7.96v.847h-7.96Zm7.753,0h7.96v.847h-7.96Zm7.753,0h7.96v.847h-7.96Zm7.753,0h7.96v.847h-7.96Zm7.753,0h7.96v.847h-7.96Zm7.753,0h7.96v.847h-7.96Zm7.753,0h7.96v.847h-7.96Zm7.753,0h7.96v.847h-7.96Zm7.753,0h7.96v.847H77.43Zm7.753,0h7.96v.847h-7.96Zm7.753,0h7.96v.847h-7.96ZM-17.95,20V7.831h6.84V9.89h-4.831v2.88h4.175v2.059h-4.175V20ZM-9.459,9.989V7.831h1.917V9.989Zm0,10.011V11.185h1.917V20Zm5.711,0H-5.665V11.185h1.776v1.253a3.76,3.76,0,0,1,.818-1.166,1.3,1.3,0,0,1,.834-.286,2.083,2.083,0,0,1,1.253.44l-.6,2.034a1.459,1.459,0,0,0-.9-.382.976.976,0,0,0-.7.295,1.956,1.956,0,0,0-.436,1.067,19.859,19.859,0,0,0-.133,2.839Zm3.437-8.815h1.76v1.2a3.493,3.493,0,0,1,1.038-1.054,2.28,2.28,0,0,1,1.22-.349,2.089,2.089,0,0,1,1.208.349,2.493,2.493,0,0,1,.834,1.054,3.649,3.649,0,0,1,1.033-1.054,2.162,2.162,0,0,1,1.175-.349,2.263,2.263,0,0,1,1.274.353,2.2,2.2,0,0,1,.813,1.009,5.477,5.477,0,0,1,.278,2.017V20H8.4V14.961a4.317,4.317,0,0,0-.232-1.756.814.814,0,0,0-.78-.436,1.178,1.178,0,0,0-1.029.61,4.922,4.922,0,0,0-.39,2.386V20H4.055V15.169A6.6,6.6,0,0,0,3.9,13.318a.812.812,0,0,0-.838-.548,1.231,1.231,0,0,0-.78.282,1.574,1.574,0,0,0-.515.826,7.418,7.418,0,0,0-.158,1.839V20H-.311Zm13.97,2.689-1.735-.382a3.376,3.376,0,0,1,1.042-1.922,3.257,3.257,0,0,1,2.088-.585,4.026,4.026,0,0,1,1.851.34,2.009,2.009,0,0,1,.913.926,5.636,5.636,0,0,1,.274,2.129L18.075,17.1a11.588,11.588,0,0,0,.091,1.706A5.807,5.807,0,0,0,18.507,20H16.614l-.249-.963a3.492,3.492,0,0,1-1.05.872,2.551,2.551,0,0,1-1.191.291,2.273,2.273,0,0,1-1.727-.71,2.633,2.633,0,0,1-.672-1.888A2.917,2.917,0,0,1,12,16.3a2.229,2.229,0,0,1,.772-.888,5.113,5.113,0,0,1,1.594-.589,9.106,9.106,0,0,0,1.851-.573,2.791,2.791,0,0,0-.1-.959.807.807,0,0,0-.382-.374,1.723,1.723,0,0,0-.784-.145,1.274,1.274,0,0,0-.809.232A1.681,1.681,0,0,0,13.659,13.874Zm2.557,1.893a9.605,9.605,0,0,1-1.137.349,2.66,2.66,0,0,0-1.162.515,1,1,0,0,0-.274.73,1.242,1.242,0,0,0,.3.851.969.969,0,0,0,.76.344,1.4,1.4,0,0,0,.805-.278,1.484,1.484,0,0,0,.552-.66,4.223,4.223,0,0,0,.154-1.386ZM-67.539,40V27.831H-63.3a5.911,5.911,0,0,1,2.324.328A2.578,2.578,0,0,1-59.828,29.3a3.943,3.943,0,0,1,.448,1.938,3.616,3.616,0,0,1-.685,2.3,3.046,3.046,0,0,1-1.947,1.1,5.033,5.033,0,0,1,1.071,1.017,14.382,14.382,0,0,1,1.154,1.98L-58.574,40h-2.4l-1.461-2.648a17.486,17.486,0,0,0-1.071-1.8,1.58,1.58,0,0,0-.6-.5,2.732,2.732,0,0,0-1.013-.137h-.415V40Zm2.009-7.022h1.494a7.475,7.475,0,0,0,1.743-.12,1.113,1.113,0,0,0,.606-.486,1.789,1.789,0,0,0,.232-.971,1.673,1.673,0,0,0-.232-.934,1.184,1.184,0,0,0-.631-.486,7.975,7.975,0,0,0-1.635-.091h-1.577ZM-53.3,37.194l1.9.39a3.765,3.765,0,0,1-1.187,1.971,3.04,3.04,0,0,1-1.959.643,3.008,3.008,0,0,1-2.474-1.071,5.323,5.323,0,0,1-1.029-3.486,5.588,5.588,0,0,1,1.038-3.536,2.762,2.762,0,0,1,2.274-1.121,2.9,2.9,0,0,1,2.432,1.146A6.253,6.253,0,0,1-51.295,36l-.008.266h-4.79a2.626,2.626,0,0,0,.469,1.619,1.352,1.352,0,0,0,1.092.573Q-53.611,38.456-53.3,37.194Zm.108-2.357a2.546,2.546,0,0,0-.44-1.548,1.233,1.233,0,0,0-.988-.519,1.247,1.247,0,0,0-1.021.54,2.41,2.41,0,0,0-.415,1.527Zm3.4-3.652h1.785v1.295a2.906,2.906,0,0,1,.963-1.1,2.276,2.276,0,0,1,1.287-.4,2.615,2.615,0,0,1,2.129,1.179,5.451,5.451,0,0,1,.892,3.345,5.773,5.773,0,0,1-.9,3.482A2.61,2.61,0,0,1-45.775,40.2a2.138,2.138,0,0,1-1.067-.278,3.639,3.639,0,0,1-1.042-1.009v4.441H-49.8Zm1.893,4.258a3.937,3.937,0,0,0,.486,2.2,1.406,1.406,0,0,0,1.175.706,1.312,1.312,0,0,0,1.1-.652,3.863,3.863,0,0,0,.448-2.129,3.7,3.7,0,0,0-.461-2.071,1.342,1.342,0,0,0-1.125-.668,1.384,1.384,0,0,0-1.162.652A3.386,3.386,0,0,0-47.908,35.443ZM-39.391,40h-1.917V31.185h1.776v1.253a3.76,3.76,0,0,1,.818-1.166,1.3,1.3,0,0,1,.834-.286,2.083,2.083,0,0,1,1.253.44l-.6,2.034a1.459,1.459,0,0,0-.9-.382.976.976,0,0,0-.7.295,1.956,1.956,0,0,0-.436,1.067,19.859,19.859,0,0,0-.133,2.839Zm7.778-2.806,1.9.39A3.765,3.765,0,0,1-30.9,39.556a3.04,3.04,0,0,1-1.959.643,3.008,3.008,0,0,1-2.474-1.071,5.323,5.323,0,0,1-1.029-3.486,5.588,5.588,0,0,1,1.038-3.536,2.762,2.762,0,0,1,2.274-1.121,2.9,2.9,0,0,1,2.432,1.146A6.253,6.253,0,0,1-29.6,36l-.008.266H-34.4a2.626,2.626,0,0,0,.469,1.619,1.352,1.352,0,0,0,1.092.573Q-31.921,38.456-31.614,37.194Zm.108-2.357a2.546,2.546,0,0,0-.44-1.548,1.233,1.233,0,0,0-.988-.519,1.247,1.247,0,0,0-1.021.54,2.41,2.41,0,0,0-.415,1.527Zm2.781,2.648,1.917-.357a1.459,1.459,0,0,0,1.544,1.386,1.659,1.659,0,0,0,1.029-.266.834.834,0,0,0,.34-.689.658.658,0,0,0-.149-.457,1.381,1.381,0,0,0-.623-.291,8.49,8.49,0,0,1-3-1.187,2.451,2.451,0,0,1-.8-1.934,2.582,2.582,0,0,1,.78-1.967,3.174,3.174,0,0,1,2.266-.739,3.569,3.569,0,0,1,2.158.552,3.015,3.015,0,0,1,1.038,1.781l-1.8.407a1.254,1.254,0,0,0-1.361-1.062,1.855,1.855,0,0,0-1,.2.614.614,0,0,0-.3.527.569.569,0,0,0,.274.481,7.54,7.54,0,0,0,1.7.6,4.63,4.63,0,0,1,2.175,1.087,2.477,2.477,0,0,1,.564,1.7,2.779,2.779,0,0,1-.876,2.108,3.375,3.375,0,0,1-2.42.83,3.615,3.615,0,0,1-2.291-.693A3.334,3.334,0,0,1-28.725,37.485Zm12.617-.291,1.9.39a3.765,3.765,0,0,1-1.187,1.971,3.04,3.04,0,0,1-1.959.643,3.008,3.008,0,0,1-2.474-1.071,5.323,5.323,0,0,1-1.029-3.486,5.588,5.588,0,0,1,1.038-3.536,2.762,2.762,0,0,1,2.274-1.121,2.9,2.9,0,0,1,2.432,1.146A6.253,6.253,0,0,1-14.1,36l-.008.266H-18.9a2.626,2.626,0,0,0,.469,1.619,1.352,1.352,0,0,0,1.092.573Q-16.415,38.456-16.108,37.194ZM-16,34.837a2.546,2.546,0,0,0-.44-1.548,1.233,1.233,0,0,0-.988-.519,1.247,1.247,0,0,0-1.021.54,2.41,2.41,0,0,0-.415,1.527ZM-5.972,40H-7.89V35.5A9.463,9.463,0,0,0-8,33.7a1.227,1.227,0,0,0-.4-.689,1.028,1.028,0,0,0-.668-.241,1.363,1.363,0,0,0-.872.311,1.645,1.645,0,0,0-.548.859,8.832,8.832,0,0,0-.158,2.067V40h-1.917V31.185h1.776v1.295A3.5,3.5,0,0,1-9.72,31.359,2.42,2.42,0,0,1-8.4,30.985a2.28,2.28,0,0,1,1.415.436,2.227,2.227,0,0,1,.8,1.121,6.826,6.826,0,0,1,.22,1.98Zm5.246-8.815v1.859h-1.3V36.6a7.774,7.774,0,0,0,.058,1.336.459.459,0,0,0,.473.332,2.069,2.069,0,0,0,.764-.224l.166,1.81a3.183,3.183,0,0,1-1.5.349,1.831,1.831,0,0,1-1.17-.349,1.717,1.717,0,0,1-.589-1,10.332,10.332,0,0,1-.116-1.959V33.044h-.88V31.185h.88V29.433l1.917-1.361v3.113Zm2.764,2.689L.3,33.492a3.376,3.376,0,0,1,1.042-1.922,3.257,3.257,0,0,1,2.088-.585,4.026,4.026,0,0,1,1.851.34,2.009,2.009,0,0,1,.913.926A5.636,5.636,0,0,1,6.47,34.38L6.454,37.1a11.588,11.588,0,0,0,.091,1.706A5.807,5.807,0,0,0,6.885,40H4.993l-.249-.963a3.492,3.492,0,0,1-1.05.872A2.551,2.551,0,0,1,2.5,40.2a2.273,2.273,0,0,1-1.727-.71A2.633,2.633,0,0,1,.1,37.6a2.917,2.917,0,0,1,.274-1.3,2.229,2.229,0,0,1,.772-.888,5.113,5.113,0,0,1,1.594-.589,9.106,9.106,0,0,0,1.851-.573,2.791,2.791,0,0,0-.1-.959.807.807,0,0,0-.382-.374,1.723,1.723,0,0,0-.784-.145A1.274,1.274,0,0,0,2.515,33,1.681,1.681,0,0,0,2.038,33.874Zm2.557,1.893a9.605,9.605,0,0,1-1.137.349A2.66,2.66,0,0,0,2.3,36.63a1,1,0,0,0-.274.73,1.242,1.242,0,0,0,.3.851.969.969,0,0,0,.76.344,1.4,1.4,0,0,0,.805-.278,1.484,1.484,0,0,0,.552-.66,4.223,4.223,0,0,0,.154-1.386ZM14.937,40H13.02V35.5a9.463,9.463,0,0,0-.108-1.8,1.227,1.227,0,0,0-.4-.689,1.028,1.028,0,0,0-.668-.241,1.363,1.363,0,0,0-.872.311,1.645,1.645,0,0,0-.548.859,8.832,8.832,0,0,0-.158,2.067V40H8.346V31.185h1.776v1.295a3.5,3.5,0,0,1,1.067-1.121,2.42,2.42,0,0,1,1.316-.374,2.28,2.28,0,0,1,1.415.436,2.227,2.227,0,0,1,.8,1.121,6.826,6.826,0,0,1,.22,1.98Zm5.246-8.815v1.859h-1.3V36.6a7.774,7.774,0,0,0,.058,1.336.459.459,0,0,0,.473.332,2.069,2.069,0,0,0,.764-.224l.166,1.81a3.183,3.183,0,0,1-1.5.349,1.831,1.831,0,0,1-1.17-.349,1.717,1.717,0,0,1-.589-1,10.332,10.332,0,0,1-.116-1.959V33.044h-.88V31.185h.88V29.433l1.917-1.361v3.113Zm5.528,6.01,1.9.39a3.765,3.765,0,0,1-1.187,1.971,3.04,3.04,0,0,1-1.959.643,3.008,3.008,0,0,1-2.474-1.071,5.323,5.323,0,0,1-1.029-3.486A5.588,5.588,0,0,1,22,32.106a2.762,2.762,0,0,1,2.274-1.121,2.9,2.9,0,0,1,2.432,1.146A6.253,6.253,0,0,1,27.72,36l-.008.266h-4.79a2.626,2.626,0,0,0,.469,1.619,1.352,1.352,0,0,0,1.092.573Q25.4,38.456,25.712,37.194Zm.108-2.357a2.546,2.546,0,0,0-.44-1.548,1.233,1.233,0,0,0-.988-.519,1.247,1.247,0,0,0-1.021.54,2.41,2.41,0,0,0-.415,1.527ZM33.216,40V27.931h2.009V37.95h5.014V40Zm12.642-2.806,1.9.39a3.765,3.765,0,0,1-1.187,1.971,3.04,3.04,0,0,1-1.959.643,3.008,3.008,0,0,1-2.474-1.071,5.323,5.323,0,0,1-1.029-3.486,5.588,5.588,0,0,1,1.038-3.536,2.762,2.762,0,0,1,2.274-1.121,2.9,2.9,0,0,1,2.432,1.146A6.253,6.253,0,0,1,47.866,36l-.008.266h-4.79a2.626,2.626,0,0,0,.469,1.619,1.352,1.352,0,0,0,1.092.573Q45.551,38.456,45.858,37.194Zm.108-2.357a2.546,2.546,0,0,0-.44-1.548,1.233,1.233,0,0,0-.988-.519,1.247,1.247,0,0,0-1.021.54,2.41,2.41,0,0,0-.415,1.527Zm3.271,5.744,2.191.324a.965.965,0,0,0,.3.685,1.276,1.276,0,0,0,.8.2,2.173,2.173,0,0,0,1.021-.208.979.979,0,0,0,.423-.5,3.481,3.481,0,0,0,.149-1.229V38.572a3.294,3.294,0,0,1-.971,1.071,2.12,2.12,0,0,1-1.2.357,2.46,2.46,0,0,1-2.025-1.087,5.44,5.44,0,0,1-.946-3.37,5.492,5.492,0,0,1,.892-3.407,2.66,2.66,0,0,1,2.162-1.15,2.208,2.208,0,0,1,1.224.357,3.211,3.211,0,0,1,.984,1.079V31.185h1.793V39.1a7.891,7.891,0,0,1-.349,2.756,2.6,2.6,0,0,1-1.075,1.291,3.917,3.917,0,0,1-2.013.436,4.771,4.771,0,0,1-1.9-.315,2.339,2.339,0,0,1-1.092-.942,2.751,2.751,0,0,1-.378-1.448Zm1.71-5.171a3.659,3.659,0,0,0,.452,2.059,1.312,1.312,0,0,0,1.092.647,1.438,1.438,0,0,0,1.179-.656,3.322,3.322,0,0,0,.49-1.992,3.546,3.546,0,0,0-.469-2.038,1.384,1.384,0,0,0-1.158-.66,1.343,1.343,0,0,0-1.133.647A3.511,3.511,0,0,0,50.946,35.41Zm8.417-1.536-1.735-.382a3.376,3.376,0,0,1,1.042-1.922,3.257,3.257,0,0,1,2.088-.585,4.026,4.026,0,0,1,1.851.34,2.009,2.009,0,0,1,.913.926A5.636,5.636,0,0,1,63.8,34.38L63.779,37.1a11.588,11.588,0,0,0,.091,1.706A5.807,5.807,0,0,0,64.211,40H62.318l-.249-.963a3.492,3.492,0,0,1-1.05.872,2.551,2.551,0,0,1-1.191.291,2.273,2.273,0,0,1-1.727-.71,2.633,2.633,0,0,1-.672-1.888,2.917,2.917,0,0,1,.274-1.3,2.229,2.229,0,0,1,.772-.888,5.113,5.113,0,0,1,1.594-.589,9.106,9.106,0,0,0,1.851-.573,2.791,2.791,0,0,0-.1-.959.807.807,0,0,0-.382-.374,1.723,1.723,0,0,0-.784-.145A1.274,1.274,0,0,0,59.84,33,1.681,1.681,0,0,0,59.363,33.874Zm2.557,1.893a9.605,9.605,0,0,1-1.137.349,2.66,2.66,0,0,0-1.162.515,1,1,0,0,0-.274.73,1.242,1.242,0,0,0,.3.851.969.969,0,0,0,.76.344,1.4,1.4,0,0,0,.805-.278,1.484,1.484,0,0,0,.552-.66,4.223,4.223,0,0,0,.154-1.386ZM65.688,40V27.831h1.917V40Z" transform="translate(-5330.888 316.297)"/><path d="M-100.888,1.278h7.96v.847h-7.96Zm7.753,0h7.96v.847h-7.96Zm7.753,0h7.96v.847h-7.96Zm7.753,0h7.96v.847h-7.96Zm7.753,0h7.96v.847h-7.96Zm7.753,0h7.96v.847h-7.96Zm7.753,0h7.96v.847h-7.96Zm7.753,0h7.96v.847h-7.96Zm7.753,0h7.96v.847h-7.96Zm7.753,0h7.96v.847h-7.96Zm7.753,0h7.96v.847h-7.96Zm7.753,0h7.96v.847h-7.96Zm7.753,0H.108v.847h-7.96Zm7.753,0h7.96v.847H-.1Zm7.753,0h7.96v.847H7.653Zm7.753,0h7.96v.847h-7.96Zm7.753,0h7.96v.847h-7.96Zm7.753,0h7.96v.847h-7.96Zm7.753,0h7.96v.847h-7.96Zm7.753,0h7.96v.847h-7.96Zm7.753,0h7.96v.847h-7.96Zm7.753,0h7.96v.847h-7.96Zm7.753,0h7.96v.847h-7.96Zm7.753,0h7.96v.847H77.43Zm7.753,0h7.96v.847h-7.96Zm7.753,0h7.96v.847h-7.96ZM-77.973,20V7.831h6.84V9.89h-4.831v2.88h4.175v2.059h-4.175V20Zm8.492-10.011V7.831h1.917V9.989Zm0,10.011V11.185h1.917V20Zm5.711,0h-1.917V11.185h1.776v1.253a3.76,3.76,0,0,1,.818-1.166,1.3,1.3,0,0,1,.834-.286,2.083,2.083,0,0,1,1.253.44l-.6,2.034a1.459,1.459,0,0,0-.9-.382.976.976,0,0,0-.7.295,1.956,1.956,0,0,0-.436,1.067,19.859,19.859,0,0,0-.133,2.839Zm3.437-8.815h1.76v1.2a3.493,3.493,0,0,1,1.038-1.054,2.28,2.28,0,0,1,1.22-.349,2.089,2.089,0,0,1,1.208.349,2.493,2.493,0,0,1,.834,1.054,3.65,3.65,0,0,1,1.033-1.054,2.162,2.162,0,0,1,1.175-.349,2.263,2.263,0,0,1,1.274.353,2.2,2.2,0,0,1,.813,1.009,5.477,5.477,0,0,1,.278,2.017V20h-1.917V14.961a4.317,4.317,0,0,0-.232-1.756.814.814,0,0,0-.78-.436,1.178,1.178,0,0,0-1.029.61,4.922,4.922,0,0,0-.39,2.386V20h-1.917V15.169a6.6,6.6,0,0,0-.158-1.851.812.812,0,0,0-.838-.548,1.231,1.231,0,0,0-.78.282,1.574,1.574,0,0,0-.515.826,7.417,7.417,0,0,0-.158,1.839V20h-1.917Zm13.97,2.689-1.735-.382a3.376,3.376,0,0,1,1.042-1.922,3.257,3.257,0,0,1,2.088-.585,4.026,4.026,0,0,1,1.851.34,2.009,2.009,0,0,1,.913.926,5.636,5.636,0,0,1,.274,2.129l-.017,2.723a11.588,11.588,0,0,0,.091,1.706A5.806,5.806,0,0,0-41.516,20h-1.893l-.249-.963a3.492,3.492,0,0,1-1.05.872A2.551,2.551,0,0,1-45.9,20.2a2.273,2.273,0,0,1-1.727-.71A2.633,2.633,0,0,1-48.3,17.6a2.917,2.917,0,0,1,.274-1.3,2.229,2.229,0,0,1,.772-.888,5.113,5.113,0,0,1,1.594-.589,9.106,9.106,0,0,0,1.851-.573,2.791,2.791,0,0,0-.1-.959.807.807,0,0,0-.382-.374,1.723,1.723,0,0,0-.784-.145,1.274,1.274,0,0,0-.809.232A1.681,1.681,0,0,0-46.364,13.874Zm2.557,1.893a9.605,9.605,0,0,1-1.137.349,2.66,2.66,0,0,0-1.162.515,1,1,0,0,0-.274.73,1.242,1.242,0,0,0,.3.851.969.969,0,0,0,.76.344,1.4,1.4,0,0,0,.805-.278,1.484,1.484,0,0,0,.552-.66,4.223,4.223,0,0,0,.154-1.386Zm14.045-.241,1.951.755a5.469,5.469,0,0,1-1.519,2.984,3.8,3.8,0,0,1-2.615.942,3.871,3.871,0,0,1-3.163-1.5A7.261,7.261,0,0,1-36.5,14.023a7.622,7.622,0,0,1,1.4-4.873,3.979,3.979,0,0,1,3.279-1.527,3.781,3.781,0,0,1,2.806,1.146,4.97,4.97,0,0,1,1.179,2.416l-1.992.581a2.694,2.694,0,0,0-.76-1.515,1.907,1.907,0,0,0-1.341-.527,2.133,2.133,0,0,0-1.8.963,5.551,5.551,0,0,0-.7,3.179,5.9,5.9,0,0,0,.681,3.271,2.073,2.073,0,0,0,1.768.971,1.829,1.829,0,0,0,1.378-.618A3.921,3.921,0,0,0-29.762,15.526Zm3.212-.058a5.336,5.336,0,0,1,.515-2.357,3.79,3.79,0,0,1,1.345-1.594,3.391,3.391,0,0,1,1.868-.531,3.206,3.206,0,0,1,2.739,1.365,5.271,5.271,0,0,1,1,3.192A5.671,5.671,0,0,1-19.606,18a3.9,3.9,0,0,1-1.361,1.648,3.3,3.3,0,0,1-1.847.552,3.385,3.385,0,0,1-2.673-1.229A5.2,5.2,0,0,1-26.55,15.468Zm1.959.125a3.3,3.3,0,0,0,.523,2.021,1.547,1.547,0,0,0,1.262.685,1.51,1.51,0,0,0,1.237-.689,3.371,3.371,0,0,0,.515-2.034,3.266,3.266,0,0,0-.523-2,1.538,1.538,0,0,0-1.253-.689,1.521,1.521,0,0,0-1.241.689A3.318,3.318,0,0,0-24.591,15.592ZM-11.011,20h-1.917V15.5a9.463,9.463,0,0,0-.108-1.8,1.227,1.227,0,0,0-.4-.689,1.028,1.028,0,0,0-.668-.241,1.363,1.363,0,0,0-.872.311,1.645,1.645,0,0,0-.548.859,8.832,8.832,0,0,0-.158,2.067V20H-17.6V11.185h1.776v1.295a3.5,3.5,0,0,1,1.067-1.121,2.42,2.42,0,0,1,1.316-.374,2.28,2.28,0,0,1,1.415.436,2.227,2.227,0,0,1,.8,1.121,6.826,6.826,0,0,1,.22,1.98Zm5.246-8.815v1.859h-1.3V16.6a7.774,7.774,0,0,0,.058,1.336.459.459,0,0,0,.473.332,2.069,2.069,0,0,0,.764-.224l.166,1.81a3.183,3.183,0,0,1-1.5.349,1.831,1.831,0,0,1-1.17-.349,1.717,1.717,0,0,1-.589-1,10.332,10.332,0,0,1-.116-1.959V13.044h-.88V11.185h.88V9.433l1.917-1.361v3.113ZM-3,13.874l-1.735-.382a3.376,3.376,0,0,1,1.042-1.922,3.257,3.257,0,0,1,2.088-.585,4.026,4.026,0,0,1,1.851.34,2.009,2.009,0,0,1,.913.926,5.636,5.636,0,0,1,.274,2.129L1.415,17.1a11.588,11.588,0,0,0,.091,1.706A5.807,5.807,0,0,0,1.847,20H-.046l-.249-.963a3.492,3.492,0,0,1-1.05.872,2.551,2.551,0,0,1-1.191.291,2.273,2.273,0,0,1-1.727-.71A2.633,2.633,0,0,1-4.935,17.6a2.917,2.917,0,0,1,.274-1.3,2.229,2.229,0,0,1,.772-.888A5.113,5.113,0,0,1-2.3,14.82a9.106,9.106,0,0,0,1.851-.573,2.791,2.791,0,0,0-.1-.959.807.807,0,0,0-.382-.374,1.723,1.723,0,0,0-.784-.145A1.274,1.274,0,0,0-2.523,13,1.681,1.681,0,0,0-3,13.874Zm2.557,1.893a9.605,9.605,0,0,1-1.137.349,2.66,2.66,0,0,0-1.162.515,1,1,0,0,0-.274.73,1.242,1.242,0,0,0,.3.851.969.969,0,0,0,.76.344,1.4,1.4,0,0,0,.805-.278,1.484,1.484,0,0,0,.552-.66,4.223,4.223,0,0,0,.154-1.386ZM9.957,20H8.172V18.705a3.193,3.193,0,0,1-1.038,1.121,2.29,2.29,0,0,1-1.229.374,2.6,2.6,0,0,1-2.113-1.208,5.689,5.689,0,0,1-.9-3.449,5.55,5.55,0,0,1,.88-3.407,2.641,2.641,0,0,1,2.167-1.15,2.213,2.213,0,0,1,1.133.307,3.184,3.184,0,0,1,.967.921V7.831H9.957Zm-5.1-4.6a5.8,5.8,0,0,0,.2,1.781,1.849,1.849,0,0,0,.581.88,1.348,1.348,0,0,0,.851.295,1.325,1.325,0,0,0,1.1-.681,3.66,3.66,0,0,0,.465-2.05A4.023,4.023,0,0,0,7.6,13.438a1.311,1.311,0,0,0-2.279-.012A3.424,3.424,0,0,0,4.852,15.4Zm6.541.066a5.336,5.336,0,0,1,.515-2.357,3.79,3.79,0,0,1,1.345-1.594,3.391,3.391,0,0,1,1.868-.531,3.206,3.206,0,0,1,2.739,1.365,5.271,5.271,0,0,1,1,3.192A5.671,5.671,0,0,1,18.336,18a3.9,3.9,0,0,1-1.361,1.648,3.3,3.3,0,0,1-1.847.552,3.385,3.385,0,0,1-2.673-1.229A5.2,5.2,0,0,1,11.393,15.468Zm1.959.125a3.3,3.3,0,0,0,.523,2.021,1.547,1.547,0,0,0,1.262.685,1.51,1.51,0,0,0,1.237-.689,3.371,3.371,0,0,0,.515-2.034,3.266,3.266,0,0,0-.523-2,1.538,1.538,0,0,0-1.253-.689,1.521,1.521,0,0,0-1.241.689A3.318,3.318,0,0,0,13.352,15.592ZM22.192,20H20.275V11.185h1.776v1.253a3.76,3.76,0,0,1,.818-1.166,1.3,1.3,0,0,1,.834-.286,2.083,2.083,0,0,1,1.253.44l-.6,2.034a1.459,1.459,0,0,0-.9-.382.976.976,0,0,0-.7.295,1.956,1.956,0,0,0-.436,1.067,19.859,19.859,0,0,0-.133,2.839Zm7.471,0V7.831H32.9a9.9,9.9,0,0,1,2.366.174,2.681,2.681,0,0,1,1.465,1.2,4.411,4.411,0,0,1,.577,2.374,4.487,4.487,0,0,1-.5,2.212,2.892,2.892,0,0,1-1.245,1.253,6.465,6.465,0,0,1-2.573.361h-1.32V20ZM31.672,9.89v3.453h1.112a4.848,4.848,0,0,0,1.523-.158,1.358,1.358,0,0,0,.66-.569,1.864,1.864,0,0,0,.257-1.009,1.856,1.856,0,0,0-.266-1.021,1.311,1.311,0,0,0-.656-.556,6,6,0,0,0-1.652-.141ZM43.7,20V18.68A3.014,3.014,0,0,1,42.654,19.8a2.525,2.525,0,0,1-1.353.4,2.264,2.264,0,0,1-1.278-.374,2.238,2.238,0,0,1-.843-1.062,5.579,5.579,0,0,1-.278-2V11.185h1.917v4.051a16.309,16.309,0,0,0,.087,2.2,1.214,1.214,0,0,0,.386.726,1.069,1.069,0,0,0,.722.257,1.365,1.365,0,0,0,.888-.336,1.573,1.573,0,0,0,.535-.863,12.631,12.631,0,0,0,.129-2.32V11.185h1.909V20Zm-2.474-9.895.938-2.482h2.15l-1.876,2.482ZM47.377,20V7.831h1.917v4.383a3.184,3.184,0,0,1,.967-.921,2.213,2.213,0,0,1,1.133-.307,2.642,2.642,0,0,1,2.162,1.154,5.533,5.533,0,0,1,.884,3.4,5.669,5.669,0,0,1-.9,3.449A2.618,2.618,0,0,1,51.411,20.2a2.282,2.282,0,0,1-1.229-.382,3.137,3.137,0,0,1-1.029-1.112V20Zm1.9-4.6a5.364,5.364,0,0,0,.216,1.735,1.963,1.963,0,0,0,.614.909,1.342,1.342,0,0,0,.838.311,1.292,1.292,0,0,0,1.079-.66,3.791,3.791,0,0,0,.448-2.088,3.983,3.983,0,0,0-.452-2.171,1.347,1.347,0,0,0-1.15-.668,1.36,1.36,0,0,0-1.129.647A3.418,3.418,0,0,0,49.278,15.4ZM55.985,20V7.831H57.9V20ZM59.861,9.989V7.831h1.917V9.989Zm0,10.011V11.185h1.917V20Zm10.177-6.209-1.884.415q-.208-1.386-1.3-1.386a1.339,1.339,0,0,0-1.137.6,3.553,3.553,0,0,0-.432,2.017,4.189,4.189,0,0,0,.432,2.216,1.326,1.326,0,0,0,1.154.647,1.168,1.168,0,0,0,.888-.369,2.5,2.5,0,0,0,.5-1.307l1.884.39Q69.556,20.2,66.792,20.2a2.892,2.892,0,0,1-2.623-1.345,5.908,5.908,0,0,1-.855-3.237,5.337,5.337,0,0,1,.967-3.449,3.4,3.4,0,0,1,4.607-.51A3.863,3.863,0,0,1,70.038,13.791Zm1,1.677a5.336,5.336,0,0,1,.515-2.357A3.79,3.79,0,0,1,72.9,11.517a3.391,3.391,0,0,1,1.868-.531,3.206,3.206,0,0,1,2.739,1.365,5.271,5.271,0,0,1,1,3.192A5.671,5.671,0,0,1,77.986,18a3.9,3.9,0,0,1-1.361,1.648,3.3,3.3,0,0,1-1.847.552A3.385,3.385,0,0,1,72.1,18.971,5.2,5.2,0,0,1,71.042,15.468ZM73,15.592a3.3,3.3,0,0,0,.523,2.021,1.547,1.547,0,0,0,1.262.685,1.51,1.51,0,0,0,1.237-.689,3.371,3.371,0,0,0,.515-2.034,3.266,3.266,0,0,0-.523-2,1.538,1.538,0,0,0-1.253-.689,1.521,1.521,0,0,0-1.241.689A3.318,3.318,0,0,0,73,15.592ZM-48.394,40V29.89h-2.963V27.831h7.927V29.89h-2.955V40Zm6.267,0V27.831h3.237a9.9,9.9,0,0,1,2.366.174,2.681,2.681,0,0,1,1.465,1.2,4.411,4.411,0,0,1,.577,2.374,4.487,4.487,0,0,1-.5,2.212,2.892,2.892,0,0,1-1.245,1.253,6.465,6.465,0,0,1-2.573.361h-1.32V40Zm2.009-10.11v3.453h1.112a4.848,4.848,0,0,0,1.523-.158,1.358,1.358,0,0,0,.66-.569,1.864,1.864,0,0,0,.257-1.009,1.856,1.856,0,0,0-.266-1.021,1.311,1.311,0,0,0-.656-.556,6,6,0,0,0-1.652-.141Zm6.176,11.389h7.96v.847h-7.96Zm7.753,0h7.96v.847h-7.96Zm7.753,0h7.96v.847h-7.96Zm7.753,0h7.96v.847h-7.96Zm7.753,0H5.03v.847H-2.93ZM9.239,36.754V34.422H13v2.333ZM20.578,40V29.89H17.614V27.831h7.927V29.89H22.586V40Zm9.687-4.532a5.336,5.336,0,0,1,.515-2.357,3.79,3.79,0,0,1,1.345-1.594,3.391,3.391,0,0,1,1.868-.531,3.206,3.206,0,0,1,2.739,1.365,5.271,5.271,0,0,1,1,3.192A5.671,5.671,0,0,1,37.208,38a3.9,3.9,0,0,1-1.361,1.648A3.3,3.3,0,0,1,34,40.2a3.385,3.385,0,0,1-2.673-1.229A5.2,5.2,0,0,1,30.265,35.468Zm1.959.125a3.3,3.3,0,0,0,.523,2.021,1.547,1.547,0,0,0,1.262.685,1.51,1.51,0,0,0,1.237-.689,3.371,3.371,0,0,0,.515-2.034,3.266,3.266,0,0,0-.523-2,1.538,1.538,0,0,0-1.253-.689,1.521,1.521,0,0,0-1.241.689A3.318,3.318,0,0,0,32.224,35.592Zm.805-5.487.938-2.482h2.15l-1.876,2.482ZM51.606,40H49.415l-.872-2.764H44.559L43.737,40H41.6L45.48,27.831h2.133ZM47.9,35.186l-1.37-4.516-1.353,4.516Z" transform="translate(-5002.316 316.297)"/><path d="M-100.888,1.278h7.96v.847h-7.96Zm7.753,0h7.96v.847h-7.96Zm7.753,0h7.96v.847h-7.96Zm7.753,0h7.96v.847h-7.96Zm7.753,0h7.96v.847h-7.96Zm7.753,0h7.96v.847h-7.96Zm7.753,0h7.96v.847h-7.96Zm7.753,0h7.96v.847h-7.96Zm7.753,0h7.96v.847h-7.96Zm7.753,0h7.96v.847h-7.96Zm7.753,0h7.96v.847h-7.96Zm7.753,0h7.96v.847h-7.96Zm7.753,0H.108v.847h-7.96Zm7.753,0h7.96v.847H-.1Zm7.753,0h7.96v.847H7.653Zm7.753,0h7.96v.847h-7.96Zm7.753,0h7.96v.847h-7.96Zm7.753,0h7.96v.847h-7.96Zm7.753,0h7.96v.847h-7.96Zm7.753,0h7.96v.847h-7.96Zm7.753,0h7.96v.847h-7.96Zm7.753,0h7.96v.847h-7.96Zm7.753,0h7.96v.847h-7.96Zm7.753,0h7.96v.847H77.43Zm7.753,0h7.96v.847h-7.96Zm7.753,0h7.96v.847h-7.96ZM-67.157,20V7.831h6.84V9.89h-4.831v2.88h4.175v2.059h-4.175V20Zm8.492-10.011V7.831h1.917V9.989Zm0,10.011V11.185h1.917V20Zm5.711,0h-1.917V11.185H-53.1v1.253a3.76,3.76,0,0,1,.818-1.166,1.3,1.3,0,0,1,.834-.286,2.083,2.083,0,0,1,1.253.44l-.6,2.034a1.459,1.459,0,0,0-.9-.382.976.976,0,0,0-.7.295,1.956,1.956,0,0,0-.436,1.067,19.859,19.859,0,0,0-.133,2.839Zm3.437-8.815h1.76v1.2a3.493,3.493,0,0,1,1.038-1.054,2.28,2.28,0,0,1,1.22-.349,2.089,2.089,0,0,1,1.208.349,2.493,2.493,0,0,1,.834,1.054,3.65,3.65,0,0,1,1.033-1.054,2.162,2.162,0,0,1,1.175-.349,2.263,2.263,0,0,1,1.274.353,2.2,2.2,0,0,1,.813,1.009,5.477,5.477,0,0,1,.278,2.017V20H-40.8V14.961a4.317,4.317,0,0,0-.232-1.756.814.814,0,0,0-.78-.436,1.178,1.178,0,0,0-1.029.61,4.922,4.922,0,0,0-.39,2.386V20h-1.917V15.169a6.6,6.6,0,0,0-.158-1.851.812.812,0,0,0-.838-.548,1.231,1.231,0,0,0-.78.282,1.574,1.574,0,0,0-.515.826,7.417,7.417,0,0,0-.158,1.839V20h-1.917Zm13.97,2.689-1.735-.382a3.376,3.376,0,0,1,1.042-1.922,3.257,3.257,0,0,1,2.088-.585,4.026,4.026,0,0,1,1.851.34,2.009,2.009,0,0,1,.913.926,5.636,5.636,0,0,1,.274,2.129l-.017,2.723a11.588,11.588,0,0,0,.091,1.706A5.807,5.807,0,0,0-30.7,20h-1.893l-.249-.963a3.492,3.492,0,0,1-1.05.872,2.551,2.551,0,0,1-1.191.291,2.273,2.273,0,0,1-1.727-.71,2.633,2.633,0,0,1-.672-1.888,2.917,2.917,0,0,1,.274-1.3,2.229,2.229,0,0,1,.772-.888,5.113,5.113,0,0,1,1.594-.589,9.106,9.106,0,0,0,1.851-.573,2.791,2.791,0,0,0-.1-.959.807.807,0,0,0-.382-.374,1.723,1.723,0,0,0-.784-.145,1.274,1.274,0,0,0-.809.232A1.681,1.681,0,0,0-35.548,13.874Zm2.557,1.893a9.605,9.605,0,0,1-1.137.349,2.66,2.66,0,0,0-1.162.515,1,1,0,0,0-.274.73,1.242,1.242,0,0,0,.3.851.969.969,0,0,0,.76.344,1.4,1.4,0,0,0,.805-.278,1.484,1.484,0,0,0,.552-.66,4.223,4.223,0,0,0,.154-1.386ZM-25.33,20V7.831h4.242a5.911,5.911,0,0,1,2.324.328A2.578,2.578,0,0,1-17.618,9.3a3.943,3.943,0,0,1,.448,1.938,3.616,3.616,0,0,1-.685,2.3,3.046,3.046,0,0,1-1.947,1.1,5.033,5.033,0,0,1,1.071,1.017,14.383,14.383,0,0,1,1.154,1.98L-16.365,20h-2.4l-1.461-2.648a17.486,17.486,0,0,0-1.071-1.8,1.58,1.58,0,0,0-.6-.5,2.732,2.732,0,0,0-1.013-.137h-.415V20Zm2.009-7.022h1.494a7.475,7.475,0,0,0,1.743-.12,1.113,1.113,0,0,0,.606-.486,1.789,1.789,0,0,0,.232-.971,1.673,1.673,0,0,0-.232-.934,1.184,1.184,0,0,0-.631-.486,7.975,7.975,0,0,0-1.635-.091h-1.577Zm12.227,4.217,1.9.39a3.765,3.765,0,0,1-1.187,1.971,3.04,3.04,0,0,1-1.959.643,3.008,3.008,0,0,1-2.474-1.071,5.323,5.323,0,0,1-1.029-3.486A5.588,5.588,0,0,1-14.8,12.106a2.762,2.762,0,0,1,2.274-1.121A2.9,2.9,0,0,1-10.1,12.131,6.253,6.253,0,0,1-9.085,16l-.008.266h-4.79a2.626,2.626,0,0,0,.469,1.619,1.352,1.352,0,0,0,1.092.573Q-11.4,18.456-11.094,17.194Zm.108-2.357a2.546,2.546,0,0,0-.44-1.548,1.233,1.233,0,0,0-.988-.519,1.247,1.247,0,0,0-1.021.54,2.41,2.41,0,0,0-.415,1.527ZM-5.549,20l-2.914-8.815h2.009l1.361,4.5.39,1.5.407-1.5,1.378-4.5H-.959L-3.831,20ZM.22,9.989V7.831H2.137V9.989ZM.22,20V11.185H2.137V20Zm3.2-2.515,1.917-.357a1.459,1.459,0,0,0,1.544,1.386,1.659,1.659,0,0,0,1.029-.266.834.834,0,0,0,.34-.689.658.658,0,0,0-.149-.457,1.381,1.381,0,0,0-.623-.291,8.49,8.49,0,0,1-3-1.187,2.451,2.451,0,0,1-.8-1.934,2.582,2.582,0,0,1,.78-1.967,3.174,3.174,0,0,1,2.266-.739,3.569,3.569,0,0,1,2.158.552,3.015,3.015,0,0,1,1.038,1.781l-1.8.407a1.254,1.254,0,0,0-1.361-1.062,1.855,1.855,0,0,0-1,.2.614.614,0,0,0-.3.527.569.569,0,0,0,.274.481,7.54,7.54,0,0,0,1.7.6,4.63,4.63,0,0,1,2.175,1.087,2.477,2.477,0,0,1,.564,1.7,2.779,2.779,0,0,1-.876,2.108,3.375,3.375,0,0,1-2.42.83,3.615,3.615,0,0,1-2.291-.693A3.334,3.334,0,0,1,3.424,17.485ZM11.4,15.468a5.336,5.336,0,0,1,.515-2.357,3.79,3.79,0,0,1,1.345-1.594,3.391,3.391,0,0,1,1.868-.531,3.206,3.206,0,0,1,2.739,1.365,5.271,5.271,0,0,1,1,3.192A5.671,5.671,0,0,1,18.345,18a3.9,3.9,0,0,1-1.361,1.648,3.3,3.3,0,0,1-1.847.552,3.385,3.385,0,0,1-2.673-1.229A5.2,5.2,0,0,1,11.4,15.468Zm1.959.125a3.3,3.3,0,0,0,.523,2.021,1.547,1.547,0,0,0,1.262.685,1.51,1.51,0,0,0,1.237-.689,3.371,3.371,0,0,0,.515-2.034,3.266,3.266,0,0,0-.523-2,1.538,1.538,0,0,0-1.253-.689,1.521,1.521,0,0,0-1.241.689A3.318,3.318,0,0,0,13.36,15.592ZM22.2,20H20.283V11.185h1.776v1.253a3.76,3.76,0,0,1,.818-1.166,1.3,1.3,0,0,1,.834-.286,2.083,2.083,0,0,1,1.253.44l-.6,2.034a1.459,1.459,0,0,0-.9-.382.976.976,0,0,0-.7.295,1.956,1.956,0,0,0-.436,1.067,19.859,19.859,0,0,0-.133,2.839Zm7.487,0V7.831h6.84V9.89H31.7v2.88h4.175v2.059H31.7V20ZM38.179,9.989V7.831H40.1V9.989Zm0,10.011V11.185H40.1V20Zm3.2-2.515,1.917-.357a1.459,1.459,0,0,0,1.544,1.386,1.659,1.659,0,0,0,1.029-.266.834.834,0,0,0,.34-.689.658.658,0,0,0-.149-.457,1.381,1.381,0,0,0-.623-.291,8.49,8.49,0,0,1-3-1.187,2.451,2.451,0,0,1-.8-1.934,2.582,2.582,0,0,1,.78-1.967,3.174,3.174,0,0,1,2.266-.739,3.569,3.569,0,0,1,2.158.552,3.015,3.015,0,0,1,1.038,1.781l-1.8.407a1.254,1.254,0,0,0-1.361-1.062,1.855,1.855,0,0,0-1,.2.614.614,0,0,0-.3.527.569.569,0,0,0,.274.481,7.54,7.54,0,0,0,1.7.6,4.63,4.63,0,0,1,2.175,1.087,2.477,2.477,0,0,1,.564,1.7,2.779,2.779,0,0,1-.876,2.108,3.375,3.375,0,0,1-2.42.83,3.615,3.615,0,0,1-2.291-.693A3.334,3.334,0,0,1,41.384,17.485Zm14.726-3.694-1.884.415q-.208-1.386-1.3-1.386a1.339,1.339,0,0,0-1.137.6,3.553,3.553,0,0,0-.432,2.017,4.189,4.189,0,0,0,.432,2.216,1.326,1.326,0,0,0,1.154.647,1.168,1.168,0,0,0,.888-.369,2.5,2.5,0,0,0,.5-1.307l1.884.39Q55.628,20.2,52.864,20.2a2.892,2.892,0,0,1-2.623-1.345,5.908,5.908,0,0,1-.855-3.237,5.337,5.337,0,0,1,.967-3.449,3.4,3.4,0,0,1,4.607-.51A3.863,3.863,0,0,1,56.109,13.791Zm2.88.083-1.735-.382A3.376,3.376,0,0,1,58.3,11.571a3.257,3.257,0,0,1,2.088-.585,4.026,4.026,0,0,1,1.851.34,2.009,2.009,0,0,1,.913.926,5.636,5.636,0,0,1,.274,2.129L63.406,17.1a11.588,11.588,0,0,0,.091,1.706A5.806,5.806,0,0,0,63.837,20H61.945l-.249-.963a3.492,3.492,0,0,1-1.05.872,2.551,2.551,0,0,1-1.191.291,2.273,2.273,0,0,1-1.727-.71,2.633,2.633,0,0,1-.672-1.888,2.917,2.917,0,0,1,.274-1.3,2.229,2.229,0,0,1,.772-.888A5.113,5.113,0,0,1,59.7,14.82a9.106,9.106,0,0,0,1.851-.573,2.791,2.791,0,0,0-.1-.959.807.807,0,0,0-.382-.374,1.723,1.723,0,0,0-.784-.145,1.274,1.274,0,0,0-.809.232A1.681,1.681,0,0,0,58.99,13.874Zm2.557,1.893a9.605,9.605,0,0,1-1.137.349,2.66,2.66,0,0,0-1.162.515,1,1,0,0,0-.274.73,1.242,1.242,0,0,0,.3.851.969.969,0,0,0,.76.344,1.4,1.4,0,0,0,.805-.278,1.484,1.484,0,0,0,.552-.66,4.223,4.223,0,0,0,.154-1.386ZM65.315,20V7.831h1.917V20ZM-48.394,40V29.89h-2.963V27.831h7.927V29.89h-2.955V40Zm6.267,0V27.831h3.237a9.9,9.9,0,0,1,2.366.174,2.681,2.681,0,0,1,1.465,1.2,4.411,4.411,0,0,1,.577,2.374,4.487,4.487,0,0,1-.5,2.212,2.892,2.892,0,0,1-1.245,1.253,6.465,6.465,0,0,1-2.573.361h-1.32V40Zm2.009-10.11v3.453h1.112a4.848,4.848,0,0,0,1.523-.158,1.358,1.358,0,0,0,.66-.569,1.864,1.864,0,0,0,.257-1.009,1.856,1.856,0,0,0-.266-1.021,1.311,1.311,0,0,0-.656-.556,6,6,0,0,0-1.652-.141Zm6.176,11.389h7.96v.847h-7.96Zm7.753,0h7.96v.847h-7.96Zm7.753,0h7.96v.847h-7.96Zm7.753,0h7.96v.847h-7.96Zm7.753,0H5.03v.847H-2.93ZM9.239,36.754V34.422H13v2.333ZM20.578,40V29.89H17.614V27.831h7.927V29.89H22.586V40Zm9.687-4.532a5.336,5.336,0,0,1,.515-2.357,3.79,3.79,0,0,1,1.345-1.594,3.391,3.391,0,0,1,1.868-.531,3.206,3.206,0,0,1,2.739,1.365,5.271,5.271,0,0,1,1,3.192A5.671,5.671,0,0,1,37.208,38a3.9,3.9,0,0,1-1.361,1.648A3.3,3.3,0,0,1,34,40.2a3.385,3.385,0,0,1-2.673-1.229A5.2,5.2,0,0,1,30.265,35.468Zm1.959.125a3.3,3.3,0,0,0,.523,2.021,1.547,1.547,0,0,0,1.262.685,1.51,1.51,0,0,0,1.237-.689,3.371,3.371,0,0,0,.515-2.034,3.266,3.266,0,0,0-.523-2,1.538,1.538,0,0,0-1.253-.689,1.521,1.521,0,0,0-1.241.689A3.318,3.318,0,0,0,32.224,35.592Zm.805-5.487.938-2.482h2.15l-1.876,2.482ZM51.606,40H49.415l-.872-2.764H44.559L43.737,40H41.6L45.48,27.831h2.133ZM47.9,35.186l-1.37-4.516-1.353,4.516ZM-65.157,63.578h-1.312a17.352,17.352,0,0,1-1.581-3.955,15.806,15.806,0,0,1-.552-4.047,15.436,15.436,0,0,1,.556-4.13,16.263,16.263,0,0,1,1.6-3.823h1.3a28.82,28.82,0,0,0-1.291,4.333,19.44,19.44,0,0,0-.336,3.686,20.6,20.6,0,0,0,.473,4.25A25.034,25.034,0,0,0-65.157,63.578ZM-61.123,60l-3.561-12.169H-62.5l2.523,9.006,2.44-9.006H-55.4L-58.965,60Zm10.168-2.806,1.9.39a3.765,3.765,0,0,1-1.187,1.971A3.04,3.04,0,0,1-52.2,60.2a3.008,3.008,0,0,1-2.474-1.071A5.323,5.323,0,0,1-55.7,55.642a5.588,5.588,0,0,1,1.038-3.536,2.762,2.762,0,0,1,2.274-1.121,2.9,2.9,0,0,1,2.432,1.146A6.253,6.253,0,0,1-48.946,56l-.008.266h-4.79a2.626,2.626,0,0,0,.469,1.619,1.352,1.352,0,0,0,1.092.573Q-51.261,58.456-50.954,57.194Zm.108-2.357a2.546,2.546,0,0,0-.44-1.548,1.233,1.233,0,0,0-.988-.519,1.247,1.247,0,0,0-1.021.54,2.41,2.41,0,0,0-.415,1.527ZM-45.559,60h-1.917V51.185H-45.7v1.253a3.76,3.76,0,0,1,.818-1.166,1.3,1.3,0,0,1,.834-.286,2.083,2.083,0,0,1,1.253.44l-.6,2.034a1.459,1.459,0,0,0-.9-.382.976.976,0,0,0-.7.295,1.956,1.956,0,0,0-.436,1.067,19.859,19.859,0,0,0-.133,2.839Zm7.014-4.532a5.336,5.336,0,0,1,.515-2.357,3.79,3.79,0,0,1,1.345-1.594,3.391,3.391,0,0,1,1.868-.531,3.206,3.206,0,0,1,2.739,1.365,5.271,5.271,0,0,1,1,3.192A5.671,5.671,0,0,1-31.6,58a3.9,3.9,0,0,1-1.361,1.648,3.3,3.3,0,0,1-1.847.552,3.385,3.385,0,0,1-2.673-1.229A5.2,5.2,0,0,1-38.545,55.468Zm1.959.125a3.3,3.3,0,0,0,.523,2.021A1.547,1.547,0,0,0-34.8,58.3a1.51,1.51,0,0,0,1.237-.689,3.371,3.371,0,0,0,.515-2.034,3.266,3.266,0,0,0-.523-2,1.538,1.538,0,0,0-1.253-.689,1.521,1.521,0,0,0-1.241.689A3.318,3.318,0,0,0-36.586,55.592Zm6.948-4.408h1.785v1.295a2.906,2.906,0,0,1,.963-1.1,2.276,2.276,0,0,1,1.287-.4,2.615,2.615,0,0,1,2.129,1.179,5.451,5.451,0,0,1,.892,3.345,5.773,5.773,0,0,1-.9,3.482A2.61,2.61,0,0,1-25.612,60.2a2.138,2.138,0,0,1-1.067-.278,3.639,3.639,0,0,1-1.042-1.009v4.441h-1.917Zm1.893,4.258a3.937,3.937,0,0,0,.486,2.2,1.406,1.406,0,0,0,1.175.706,1.312,1.312,0,0,0,1.1-.652,3.863,3.863,0,0,0,.448-2.129,3.7,3.7,0,0,0-.461-2.071,1.342,1.342,0,0,0-1.125-.668,1.384,1.384,0,0,0-1.162.652A3.386,3.386,0,0,0-27.745,55.443Zm6.682-5.454V47.831h1.917v2.158Zm0,10.011V51.185h1.917V60Zm10.451,0H-12.53V55.5a9.463,9.463,0,0,0-.108-1.8,1.227,1.227,0,0,0-.4-.689,1.028,1.028,0,0,0-.668-.241,1.363,1.363,0,0,0-.872.311,1.645,1.645,0,0,0-.548.859,8.832,8.832,0,0,0-.158,2.067V60H-17.2V51.185h1.776v1.295a3.5,3.5,0,0,1,1.067-1.121,2.42,2.42,0,0,1,1.316-.374,2.28,2.28,0,0,1,1.415.436,2.227,2.227,0,0,1,.8,1.121,6.826,6.826,0,0,1,.22,1.98ZM-8.67,49.989V47.831h1.917v2.158ZM-8.67,60V51.185h1.917V60Zm3.428-4.532a5.336,5.336,0,0,1,.515-2.357,3.79,3.79,0,0,1,1.345-1.594,3.391,3.391,0,0,1,1.868-.531,3.206,3.206,0,0,1,2.739,1.365,5.271,5.271,0,0,1,1,3.192A5.671,5.671,0,0,1,1.7,58,3.9,3.9,0,0,1,.34,59.647a3.3,3.3,0,0,1-1.847.552,3.385,3.385,0,0,1-2.673-1.229A5.2,5.2,0,0,1-5.242,55.468Zm1.959.125a3.3,3.3,0,0,0,.523,2.021A1.547,1.547,0,0,0-1.5,58.3a1.51,1.51,0,0,0,1.237-.689,3.371,3.371,0,0,0,.515-2.034,3.266,3.266,0,0,0-.523-2,1.538,1.538,0,0,0-1.253-.689,1.521,1.521,0,0,0-1.241.689A3.318,3.318,0,0,0-3.283,55.592Zm.805-5.487.938-2.482H.61l-1.876,2.482ZM10.3,60H8.38V55.5a9.463,9.463,0,0,0-.108-1.8,1.227,1.227,0,0,0-.4-.689A1.028,1.028,0,0,0,7.2,52.77a1.363,1.363,0,0,0-.872.311,1.645,1.645,0,0,0-.548.859,8.832,8.832,0,0,0-.158,2.067V60H3.706V51.185H5.483v1.295a3.5,3.5,0,0,1,1.067-1.121,2.42,2.42,0,0,1,1.316-.374,2.28,2.28,0,0,1,1.415.436,2.227,2.227,0,0,1,.8,1.121,6.826,6.826,0,0,1,.22,1.98Zm7.247-6.126-1.735-.382a3.376,3.376,0,0,1,1.042-1.922,3.257,3.257,0,0,1,2.088-.585,4.026,4.026,0,0,1,1.851.34,2.009,2.009,0,0,1,.913.926,5.636,5.636,0,0,1,.274,2.129L21.96,57.1a11.588,11.588,0,0,0,.091,1.706A5.807,5.807,0,0,0,22.391,60H20.5l-.249-.963a3.492,3.492,0,0,1-1.05.872,2.551,2.551,0,0,1-1.191.291,2.273,2.273,0,0,1-1.727-.71A2.633,2.633,0,0,1,15.61,57.6a2.917,2.917,0,0,1,.274-1.3,2.229,2.229,0,0,1,.772-.888,5.113,5.113,0,0,1,1.594-.589,9.106,9.106,0,0,0,1.851-.573,2.791,2.791,0,0,0-.1-.959.807.807,0,0,0-.382-.374,1.723,1.723,0,0,0-.784-.145,1.274,1.274,0,0,0-.809.232A1.681,1.681,0,0,0,17.544,53.874ZM20.1,55.767a9.605,9.605,0,0,1-1.137.349,2.66,2.66,0,0,0-1.162.515,1,1,0,0,0-.274.73,1.242,1.242,0,0,0,.3.851.969.969,0,0,0,.76.344,1.4,1.4,0,0,0,.805-.278,1.484,1.484,0,0,0,.552-.66,4.223,4.223,0,0,0,.154-1.386ZM30.5,60H28.717V58.705a3.193,3.193,0,0,1-1.038,1.121,2.29,2.29,0,0,1-1.229.374,2.6,2.6,0,0,1-2.113-1.208,5.689,5.689,0,0,1-.9-3.449,5.55,5.55,0,0,1,.88-3.407,2.641,2.641,0,0,1,2.167-1.15,2.213,2.213,0,0,1,1.133.307,3.184,3.184,0,0,1,.967.921V47.831H30.5Zm-5.1-4.6a5.8,5.8,0,0,0,.2,1.781,1.849,1.849,0,0,0,.581.88,1.348,1.348,0,0,0,.851.295,1.325,1.325,0,0,0,1.1-.681,3.66,3.66,0,0,0,.465-2.05,4.023,4.023,0,0,0-.452-2.187,1.311,1.311,0,0,0-2.279-.012A3.424,3.424,0,0,0,25.4,55.4Zm6.948-5.412V47.831h1.917v2.158Zm1.917,1.2v8.542a10.044,10.044,0,0,1-.2,2.465,1.859,1.859,0,0,1-.714,1.025,2.156,2.156,0,0,1-1.27.361,4.321,4.321,0,0,1-1.328-.249l.332-1.992a1.839,1.839,0,0,0,.473.075.7.7,0,0,0,.689-.4,5.324,5.324,0,0,0,.1-1.419V51.185ZM41.01,60V58.68A3.014,3.014,0,0,1,39.964,59.8a2.525,2.525,0,0,1-1.353.4,2.264,2.264,0,0,1-1.278-.374,2.238,2.238,0,0,1-.843-1.062,5.579,5.579,0,0,1-.278-2V51.185H38.13v4.051a16.309,16.309,0,0,0,.087,2.2,1.214,1.214,0,0,0,.386.726,1.069,1.069,0,0,0,.722.257,1.365,1.365,0,0,0,.888-.336,1.573,1.573,0,0,0,.535-.863,12.631,12.631,0,0,0,.129-2.32V51.185h1.909V60Zm10.343,0H49.435V55.5a9.463,9.463,0,0,0-.108-1.8,1.227,1.227,0,0,0-.4-.689,1.028,1.028,0,0,0-.668-.241,1.363,1.363,0,0,0-.872.311,1.645,1.645,0,0,0-.548.859,8.832,8.832,0,0,0-.158,2.067V60H44.762V51.185h1.776v1.295A3.5,3.5,0,0,1,47.6,51.359a2.42,2.42,0,0,1,1.316-.374,2.28,2.28,0,0,1,1.415.436,2.227,2.227,0,0,1,.8,1.121,6.826,6.826,0,0,1,.22,1.98ZM56.6,51.185v1.859H55.3V56.6a7.774,7.774,0,0,0,.058,1.336.459.459,0,0,0,.473.332,2.069,2.069,0,0,0,.764-.224l.166,1.81a3.183,3.183,0,0,1-1.5.349,1.831,1.831,0,0,1-1.17-.349,1.717,1.717,0,0,1-.589-1,10.332,10.332,0,0,1-.116-1.959V53.044H52.5V51.185h.88V49.433L55.3,48.072v3.113Zm2.764,2.689-1.735-.382a3.376,3.376,0,0,1,1.042-1.922,3.257,3.257,0,0,1,2.088-.585,4.026,4.026,0,0,1,1.851.34,2.009,2.009,0,0,1,.913.926A5.636,5.636,0,0,1,63.8,54.38L63.779,57.1a11.588,11.588,0,0,0,.091,1.706A5.807,5.807,0,0,0,64.211,60H62.318l-.249-.963a3.492,3.492,0,0,1-1.05.872,2.551,2.551,0,0,1-1.191.291,2.273,2.273,0,0,1-1.727-.71,2.633,2.633,0,0,1-.672-1.888,2.917,2.917,0,0,1,.274-1.3,2.229,2.229,0,0,1,.772-.888,5.113,5.113,0,0,1,1.594-.589,9.106,9.106,0,0,0,1.851-.573,2.791,2.791,0,0,0-.1-.959.807.807,0,0,0-.382-.374,1.723,1.723,0,0,0-.784-.145A1.274,1.274,0,0,0,59.84,53,1.681,1.681,0,0,0,59.363,53.874Zm2.557,1.893a9.605,9.605,0,0,1-1.137.349,2.66,2.66,0,0,0-1.162.515,1,1,0,0,0-.274.73,1.242,1.242,0,0,0,.3.851.969.969,0,0,0,.76.344,1.4,1.4,0,0,0,.805-.278,1.484,1.484,0,0,0,.552-.66,4.223,4.223,0,0,0,.154-1.386Zm3.237,7.811a24.1,24.1,0,0,0,1.129-3.644,20.6,20.6,0,0,0,.481-4.292,19.44,19.44,0,0,0-.336-3.686,28.82,28.82,0,0,0-1.291-4.333h1.3a16.6,16.6,0,0,1,1.615,3.868,15.045,15.045,0,0,1,.544,3.976,16.463,16.463,0,0,1-.54,4.1,17.012,17.012,0,0,1-1.594,4.013Z" transform="translate(-4699.531 316.297)"/></g></svg>