<svg xmlns="http://www.w3.org/2000/svg" width="319.348" height="229.978" viewBox="0 0 319.348 229.978"><defs><style>.a{fill:#d9a171;}.b{fill:#344154;}.c{fill:none;}.d{fill:#263238;}.e{fill:#f5f5f5;}.f{fill:#ebebeb;}.g{fill:#fff;}.h{fill:#e0e0e0;}.i{fill:#5e6178;}.j{fill:#f2e9e4;}.k{opacity:0.2;}.l{fill:#fafafa;}.m{fill:#6595bf;}.n{fill:#455a64;}.o{fill:#936760;}.p{fill:#6f4c47;}.q{opacity:0.6;}.r{opacity:0.3;}.s{fill:#ececec;}.t{fill:#e1e1e1;}</style></defs><g transform="translate(-1034.313 -2107.326)"><g transform="translate(1043.163 2201.374)"><g transform="translate(5.31)"><g transform="translate(0.381 0.136)"><path class="a" d="M129.4,196.277a22.113,22.113,0,0,1,5.676,1.5l4.172-3.5,7.166,5.454-2.258,4.953a22.02,22.02,0,0,1,2.957,5.071l5.421.479,1.21,8.923-5.1,1.906a22.05,22.05,0,0,1-1.5,5.676l3.5,4.173-5.453,7.165-4.953-2.257a22.069,22.069,0,0,1-5.072,2.956l-.477,5.421-8.924,1.212-1.906-5.1a22.073,22.073,0,0,1-5.676-1.5l-4.172,3.5-7.166-5.454L109.1,231.9a22.129,22.129,0,0,1-2.957-5.072l-5.419-.477-1.212-8.924,5.1-1.9a21.943,21.943,0,0,1,1.5-5.678l-3.5-4.172,5.453-7.166,4.954,2.258a22.1,22.1,0,0,1,5.072-2.957l.476-5.419,8.924-1.211,1.906,5.1Zm-3.664,12.39a9.661,9.661,0,1,0,10.872,8.274A9.661,9.661,0,0,0,125.738,208.667Z" transform="translate(-99.516 -191.181)"/></g><g transform="translate(17.923 17.42)"><path class="b" d="M120.688,203.691a1.872,1.872,0,0,1,.608-.131,7.525,7.525,0,0,1,1.786-.038,9.615,9.615,0,0,1,5.923,2.723,9.936,9.936,0,0,1-.049,14.235,9.959,9.959,0,0,1-11.764,1.6,9.939,9.939,0,0,1-3.841-13.71,9.61,9.61,0,0,1,4.982-4.2,7.511,7.511,0,0,1,1.732-.44,1.908,1.908,0,0,1,.622-.036c.015.083-.845.167-2.24.758a9.634,9.634,0,0,0-4.617,4.19,9.4,9.4,0,0,0-.074,8.938,9.215,9.215,0,0,0,3.8,3.828,9.259,9.259,0,0,0,10.868-1.475,9.2,9.2,0,0,0,2.643-4.7,9.4,9.4,0,0,0-2.453-8.6,9.637,9.637,0,0,0-5.567-2.81C121.547,203.627,120.695,203.775,120.688,203.691Z" transform="translate(-112.008 -203.489)"/></g><path class="b" d="M129.512,196.316a1.435,1.435,0,0,1-.143-.3l-.389-.952-1.49-3.8.133.08-8.914,1.282.171-.178c-.136,1.646-.286,3.47-.447,5.423l-.011.136-.129.055a21.947,21.947,0,0,0-5,2.948l-.122.1-.142-.065-4.963-2.237.336-.086-5.429,7.183-.01-.382,3.508,4.162.126.149-.074.181a21.78,21.78,0,0,0-1.465,5.595l-.024.2-.192.072L99.748,217.8l.223-.372c.385,2.8.8,5.825,1.226,8.921l-.327-.313,5.419.47.223.02.087.208a21.89,21.89,0,0,0,2.913,4.982l.14.18-.094.208c-.706,1.553-1.477,3.245-2.255,4.956l-.115-.462,7.169,5.449-.483.013,4.171-3.5.181-.152.218.09a21.765,21.765,0,0,0,5.571,1.472h0l.319.251v0l0,.011.007.02.015.039.029.08.06.162.119.32.239.642.479,1.278.948,2.54-.417-.249,8.926-1.208-.333.348q.242-2.736.48-5.421l.021-.23.213-.088a21.753,21.753,0,0,0,4.988-2.9l.181-.14.206.1,4.952,2.262-.451.114q2.8-3.665,5.464-7.158l.01.448q-1.776-2.128-3.488-4.179l-.136-.163.081-.2a21.754,21.754,0,0,0,1.487-5.585l.027-.2.191-.07,5.1-1.893-.208.347c-.417-3.14-.81-6.1-1.184-8.927l.268.257-5.418-.5-.17-.015-.065-.156a21.831,21.831,0,0,0-2.9-5.022l-.1-.125.065-.139c.829-1.795,1.576-3.412,2.281-4.942l.07.278c-2.759-2.126-5.113-3.94-7.132-5.5l.219-.006-4.2,3.459-.059.049-.069-.03a23.334,23.334,0,0,0-4.2-1.323l-1.071-.212a1.524,1.524,0,0,1-.354-.08,2.024,2.024,0,0,1,.364.015c.24.025.6.067,1.086.15a21.033,21.033,0,0,1,4.275,1.218l-.128.02,4.14-3.535.105-.09.112.086c2.039,1.531,4.415,3.317,7.2,5.409l.146.11-.076.17c-.691,1.536-1.423,3.161-2.234,4.963l-.031-.263a22.3,22.3,0,0,1,3.014,5.121l-.233-.171,5.422.459.237.02.032.237c.39,2.821.8,5.783,1.236,8.92l.035.257-.243.091-5.092,1.917.216-.274a22.379,22.379,0,0,1-1.511,5.767l-.055-.357,3.5,4.165.185.219-.174.229-5.443,7.173-.18.237-.271-.124-4.956-2.252.389-.045a22.452,22.452,0,0,1-5.158,3.012l.235-.32q-.234,2.684-.473,5.421l-.027.308-.306.042-8.924,1.213-.308.042-.11-.291q-.474-1.266-.949-2.542l-.479-1.278-.239-.64-.121-.322-.059-.16-.031-.08-.014-.041-.008-.02,0-.01,0-.006c.633.5.176.139.316.25h0a22.492,22.492,0,0,1-5.77-1.525l.4-.062-4.174,3.5-.237.2-.246-.187-7.163-5.459-.243-.185.126-.278c.781-1.709,1.555-3.4,2.264-4.95l.045.388a22.563,22.563,0,0,1-3-5.161l.309.226-5.419-.485-.289-.027-.038-.286c-.416-3.1-.82-6.123-1.2-8.927l-.037-.275.26-.1,5.1-1.893-.216.272a22.362,22.362,0,0,1,1.536-5.758l.051.33-3.485-4.182-.157-.19.149-.194q2.882-3.762,5.477-7.148l.135-.178.2.093c1.736.8,3.4,1.569,4.945,2.278l-.263.031a22.364,22.364,0,0,1,5.141-2.966l-.14.191c.184-1.951.354-3.775.508-5.416l.015-.159.156-.021,8.933-1.137.1-.013.032.093,1.35,3.8c.139.409.25.734.338.992A2.016,2.016,0,0,1,129.512,196.316Z" transform="translate(-99.245 -191.084)"/></g><g transform="translate(0 62.164)"><g transform="translate(0.239 0.086)"><path class="c" d="M114.4,238.612a13.914,13.914,0,0,1,3.564.941l2.62-2.195,4.5,3.425-1.417,3.11a13.91,13.91,0,0,1,1.858,3.185l3.4.3.76,5.6-3.2,1.2a13.869,13.869,0,0,1-.942,3.566l2.2,2.62-3.425,4.5-3.11-1.418a13.872,13.872,0,0,1-3.186,1.858l-.3,3.4-5.606.761-1.2-3.2a13.874,13.874,0,0,1-3.565-.941l-2.62,2.195-4.5-3.425,1.418-3.111A13.966,13.966,0,0,1,99.8,257.8l-3.4-.3-.761-5.6,3.2-1.2a13.883,13.883,0,0,1,.942-3.566l-2.2-2.62,3.425-4.5,3.112,1.418a13.8,13.8,0,0,1,3.185-1.858l.3-3.4,5.6-.76,1.2,3.2Zm-2.3,7.781a6.068,6.068,0,1,0,6.828,5.2A6.07,6.07,0,0,0,112.1,246.394Z" transform="translate(-95.634 -235.412)"/></g><g transform="translate(11.256 10.94)"><path class="d" d="M108.93,243.268a1.181,1.181,0,0,1,.382-.081,4.681,4.681,0,0,1,1.122-.024,6.039,6.039,0,0,1,3.72,1.709,6.242,6.242,0,0,1-.031,8.941,6.252,6.252,0,0,1-7.388,1,6.241,6.241,0,0,1-2.413-8.61,6.037,6.037,0,0,1,3.13-2.639,4.638,4.638,0,0,1,1.087-.275,1.165,1.165,0,0,1,.39-.024c.01.052-.531.105-1.407.476a6.045,6.045,0,0,0-2.9,2.633,5.9,5.9,0,0,0-.048,5.613,5.789,5.789,0,0,0,2.387,2.4,5.817,5.817,0,0,0,6.826-.927,5.8,5.8,0,0,0,1.66-2.953,5.9,5.9,0,0,0-1.542-5.4,6.047,6.047,0,0,0-3.5-1.765C109.471,243.228,108.935,243.322,108.93,243.268Z" transform="translate(-103.479 -243.142)"/></g><path class="d" d="M114.473,238.637a.877.877,0,0,1-.091-.191l-.243-.6q-.335-.849-.937-2.386l.084.05-5.6.806.108-.112c-.086,1.034-.18,2.179-.281,3.405l-.007.086-.081.035a13.8,13.8,0,0,0-3.141,1.851l-.076.06-.09-.041L101,240.2l.211-.053c-1.074,1.421-2.213,2.929-3.41,4.511l-.006-.24c.681.81,1.432,1.7,2.2,2.615l.079.093-.048.115a13.669,13.669,0,0,0-.918,3.514l-.015.126-.121.045-3.2,1.2.139-.235c.243,1.76.5,3.658.771,5.6l-.206-.2,3.4.3.14.011.053.131a13.756,13.756,0,0,0,1.83,3.129l.088.114-.059.131-1.416,3.112-.073-.291,4.5,3.422-.3.007,2.619-2.2.114-.1.138.058a13.659,13.659,0,0,0,3.5.924h0c.088.07-.2-.157.2.157v0l0,.007,0,.013.01.025.018.051.038.1.074.2.15.4.3.8c.2.534.4,1.067.6,1.6l-.261-.157,5.6-.758-.208.219q.152-1.719.3-3.4l.014-.146.133-.055a13.625,13.625,0,0,0,3.133-1.823l.114-.089.131.06,3.109,1.421-.284.07q1.759-2.3,3.432-4.5l.006.282-2.191-2.625-.086-.1.051-.122a13.653,13.653,0,0,0,.935-3.508l.015-.128.121-.045,3.2-1.188-.131.218c-.261-1.972-.508-3.834-.744-5.606l.17.162-3.4-.312-.107-.01-.041-.1a13.749,13.749,0,0,0-1.823-3.154l-.059-.077.039-.088c.521-1.126.99-2.143,1.434-3.1l.044.176c-1.733-1.336-3.21-2.476-4.48-3.453l.138,0-2.64,2.171-.038.031-.044-.018a14.538,14.538,0,0,0-2.639-.83l-.673-.133a.879.879,0,0,1-.222-.051,1.268,1.268,0,0,1,.228.01c.152.016.379.042.682.094a13.25,13.25,0,0,1,2.684.764l-.08.013,2.6-2.219.067-.056.07.053,4.522,3.4.091.069-.048.107-1.4,3.116-.02-.164a14.008,14.008,0,0,1,1.893,3.216l-.146-.107,3.4.288.149.013.021.149c.246,1.771.5,3.632.777,5.6l.021.161-.152.058-3.2,1.2.136-.171a14,14,0,0,1-.949,3.622l-.034-.225,2.2,2.616.115.138-.11.145-3.418,4.505-.112.147-.17-.077-3.112-1.414.243-.028a14.11,14.11,0,0,1-3.238,1.892l.146-.2q-.145,1.685-.3,3.4l-.017.192-.192.027-5.6.763-.194.027-.069-.183c-.2-.531-.4-1.062-.6-1.6l-.3-.8-.15-.4-.076-.2-.038-.1-.018-.051-.01-.025,0-.013,0-.006v0c.4.314.11.087.2.157h0a14.116,14.116,0,0,1-3.624-.958l.25-.039-2.622,2.2-.149.125-.154-.118-4.5-3.428-.153-.117.079-.174c.491-1.073.977-2.136,1.423-3.109l.028.243a14.091,14.091,0,0,1-1.885-3.241l.194.143-3.4-.3-.183-.017-.024-.18c-.261-1.946-.515-3.845-.751-5.606l-.022-.174.163-.06,3.2-1.189-.136.173a14.093,14.093,0,0,1,.965-3.617l.032.208L97.5,244.664l-.1-.119.093-.122q1.809-2.361,3.439-4.488l.086-.112.126.059,3.1,1.43-.166.02a14,14,0,0,1,3.23-1.862l-.088.119.319-3.4.01-.1.1-.013,5.61-.713.063-.008.02.058q.548,1.538.848,2.384l.212.622A1.326,1.326,0,0,1,114.473,238.637Z" transform="translate(-95.464 -235.351)"/></g></g><g transform="translate(990.411 2091.242)"><g transform="translate(47.595 94.869)"><g transform="translate(283.907)"><path class="e" d="M664.8,215.529l-20.077-6.495a2.64,2.64,0,0,1-1.7-3.324l8.989-27.79a2.64,2.64,0,0,1,3.325-1.7l12.733,4.119,6.57,13.347-6.516,20.142A2.64,2.64,0,0,1,664.8,215.529Z" transform="translate(-642.896 -176.091)"/><g transform="translate(22.526 4.248)"><path class="f" d="M692.462,184.938l-2.53,7.821a2.456,2.456,0,0,0,1.58,3.093l7.52,2.434Z" transform="translate(-689.812 -184.938)"/></g><g transform="translate(11.777 8.189)"><path class="g" d="M676.713,196.163a62.388,62.388,0,0,1-9.288-3,62.341,62.341,0,0,1,9.288,3Z" transform="translate(-667.424 -193.147)"/></g><g transform="translate(10.347 12.615)"><path class="g" d="M679.733,207.318c-.033.1-3.481-.925-7.7-2.291s-7.617-2.554-7.585-2.655,3.481.925,7.7,2.291S679.766,207.217,679.733,207.318Z" transform="translate(-664.445 -202.366)"/></g><g transform="translate(9.152 16.309)"><path class="g" d="M678.622,215.455c-.033.1-3.79-1.025-8.391-2.513s-8.306-2.777-8.273-2.877,3.789,1.025,8.391,2.514S678.654,215.354,678.622,215.455Z" transform="translate(-661.958 -210.058)"/></g><g transform="translate(8.025 19.793)"><path class="g" d="M676.275,222.711c-.032.1-3.789-1.025-8.39-2.513s-8.306-2.777-8.273-2.877,3.789,1.025,8.391,2.514S676.307,222.61,676.275,222.711Z" transform="translate(-659.611 -217.314)"/></g><g transform="translate(6.898 23.276)"><path class="g" d="M673.927,229.966c-.032.1-3.789-1.025-8.39-2.514s-8.306-2.777-8.274-2.877,3.789,1.025,8.391,2.514S673.96,229.865,673.927,229.966Z" transform="translate(-657.263 -224.569)"/></g><g transform="translate(5.771 26.76)"><path class="g" d="M671.58,237.222c-.032.1-3.79-1.025-8.391-2.513s-8.306-2.777-8.274-2.877,3.789,1.025,8.391,2.514S671.613,237.121,671.58,237.222Z" transform="translate(-654.916 -231.825)"/></g></g><g transform="translate(0 46.774)"><path class="e" d="M86.457,301.886,67.176,310.46a2.641,2.641,0,0,1-3.485-1.34L51.824,282.432a2.64,2.64,0,0,1,1.34-3.485l12.228-5.438,13.8,5.547L87.8,298.4A2.64,2.64,0,0,1,86.457,301.886Z" transform="translate(-51.595 -273.509)"/><g transform="translate(13.796)"><path class="f" d="M80.329,273.509l3.34,7.511a2.456,2.456,0,0,0,3.241,1.246l7.223-3.21Z" transform="translate(-80.329 -273.509)"/></g><g transform="translate(6.462 7.916)"><path class="g" d="M73.975,290a31.358,31.358,0,0,1-4.382,2.158,31.271,31.271,0,0,1-4.538,1.809,31.356,31.356,0,0,1,4.383-2.158A31.309,31.309,0,0,1,73.975,290Z" transform="translate(-65.054 -289.996)"/></g><g transform="translate(8.351 9.604)"><path class="g" d="M83.669,293.516c.043.1-3.209,1.636-7.263,3.439s-7.375,3.186-7.419,3.089,3.208-1.636,7.264-3.439S83.626,293.419,83.669,293.516Z" transform="translate(-68.987 -293.511)"/></g><g transform="translate(9.927 12.563)"><path class="g" d="M88.275,299.678c.043.1-3.505,1.768-7.924,3.733s-8.037,3.48-8.08,3.383,3.5-1.767,7.925-3.733S88.232,299.582,88.275,299.678Z" transform="translate(-72.271 -299.674)"/></g><g transform="translate(11.415 15.908)"><path class="g" d="M91.374,306.646c.043.1-3.506,1.768-7.924,3.733s-8.037,3.48-8.08,3.383,3.5-1.767,7.925-3.733S91.33,306.55,91.374,306.646Z" transform="translate(-75.369 -306.642)"/></g><g transform="translate(12.903 19.254)"><path class="g" d="M94.472,313.614c.043.1-3.505,1.768-7.924,3.733s-8.037,3.48-8.08,3.384,3.5-1.768,7.925-3.733S94.429,313.518,94.472,313.614Z" transform="translate(-78.468 -313.61)"/></g><g transform="translate(14.39 22.6)"><path class="g" d="M97.571,320.582c.043.1-3.506,1.768-7.924,3.733s-8.037,3.48-8.08,3.384,3.5-1.767,7.925-3.733S97.527,320.486,97.571,320.582Z" transform="translate(-81.566 -320.578)"/></g></g><g transform="translate(247.846 108.615)"><g transform="translate(2.084 4.515)"><path class="e" d="M572.13,411.711V427.86h49.664V411.711Z" transform="translate(-572.13 -411.711)"/></g><path class="h" d="M567.79,402.307v4.515h53.485v-4.515H567.79Z" transform="translate(-567.79 -402.307)"/><g transform="translate(25.7)"><path class="h" d="M622.359,422.972h25.006V406.822H649.1v-4.515H621.317v4.1Z" transform="translate(-621.317 -402.307)"/></g><g transform="translate(9.03 7.119)"><rect class="h" width="10.072" height="2.431"/></g><g transform="translate(7.734 12.589)"><rect class="g" width="12.933" height="5.133"/></g></g><g transform="translate(255.487 87.972)"><g transform="translate(2.084 4.515)"><path class="e" d="M588.044,368.717v16.149h49.664V368.717Z" transform="translate(-588.044 -368.717)"/></g><path class="h" d="M583.7,359.313v4.515h53.485v-4.515H583.7Z" transform="translate(-583.704 -359.313)"/><g transform="translate(25.7)"><path class="h" d="M638.273,379.978h25.006V363.828h1.737v-4.515H637.23v4.1Z" transform="translate(-637.23 -359.313)"/></g><g transform="translate(9.03 7.119)"><rect class="h" width="10.072" height="2.431"/></g><g transform="translate(7.734 12.589)"><rect class="g" width="12.933" height="5.133"/></g></g></g><g transform="translate(52.424 223.547)"><g transform="translate(0)"><path class="d" d="M364.474,444.218c0,.069-67.794.125-151.4.125-83.638,0-151.418-.056-151.418-.125s67.78-.125,151.418-.125C296.68,444.093,364.474,444.149,364.474,444.218Z" transform="translate(-61.652 -444.093)"/></g></g><g transform="translate(325.228 154.955)"><g transform="translate(11.877 12.363)"><path class="d" d="M669.4,333.363l-14.09-6.333a.531.531,0,0,0-.728.63l4.229,14.8a.531.531,0,0,0,.856.256l2.471-2.121a.53.53,0,0,1,.748.057l5.947,6.927a.531.531,0,0,0,.748.057l3.187-2.736a.531.531,0,0,0,.057-.748l-5.948-6.927a.53.53,0,0,1,.057-.748l2.593-2.226A.531.531,0,0,0,669.4,333.363Z" transform="translate(-654.565 -326.982)"/></g><g transform="translate(0.775 0.658)"><path class="d" d="M639.511,311.638c-.052.046-1.9-1.939-4.127-4.433s-3.992-4.554-3.941-4.6,1.9,1.938,4.127,4.434S639.562,311.591,639.511,311.638Z" transform="translate(-631.442 -302.603)"/></g><g transform="translate(9.687)"><path class="d" d="M650.012,301.234a6.119,6.119,0,0,1,.361,1.151c.219.8.477,1.753.762,2.8s.556,1.994.78,2.8a6.09,6.09,0,0,1,.279,1.173,5.492,5.492,0,0,1-.448-1.121c-.242-.7-.55-1.687-.852-2.783s-.54-2.1-.692-2.826A5.5,5.5,0,0,1,650.012,301.234Z" transform="translate(-650.004 -301.234)"/></g><g transform="translate(0 12.001)"><path class="d" d="M636.671,326.93a47.357,47.357,0,0,1-6.842-.68,47.343,47.343,0,0,1,6.842.68Z" transform="translate(-629.828 -326.228)"/></g><g transform="translate(4.213 15.514)"><path class="d" d="M642.434,333.547a28.9,28.9,0,0,1-3.829,3.773,28.977,28.977,0,0,1,3.829-3.773Z" transform="translate(-638.603 -333.545)"/></g><g transform="translate(14.734 4.525)"><path class="d" d="M663.571,310.659a20.8,20.8,0,0,1-3.054,4.544,54.481,54.481,0,0,1,3.054-4.544Z" transform="translate(-660.514 -310.658)"/></g></g><g transform="translate(43.901 19.852)"><g transform="translate(0 20.775)"><g transform="translate(0 0)"><path class="i" d="M68.994,108.3l-23-7.44a3.024,3.024,0,0,1-1.946-3.808l10.3-31.832a3.024,3.024,0,0,1,3.808-1.947L72.74,67.987l7.526,15.289L72.8,106.35A3.025,3.025,0,0,1,68.994,108.3Z" transform="translate(-43.901 -63.121)"/><g transform="translate(25.803 4.866)"><path class="j" d="M100.678,73.256l-2.9,8.959a2.813,2.813,0,0,0,1.81,3.542l8.614,2.788Z" transform="translate(-97.643 -73.256)"/></g><g class="k" transform="translate(25.659 14.649)"><path d="M97.487,93.631a3.128,3.128,0,0,0,1.426,3.651,3,3,0,0,0,.263.156c1.06.565,8.038,4.277,8.093,4.107s.779-2.407.779-2.407l-8.615-2.787S97.307,95.581,97.487,93.631Z" transform="translate(-97.342 -93.631)"/></g></g><g transform="translate(13.49 9.381)"><path class="l" d="M82.638,86.114A35.854,35.854,0,0,1,77.251,84.6,35.912,35.912,0,0,1,72,82.672a35.853,35.853,0,0,1,5.388,1.512A35.868,35.868,0,0,1,82.638,86.114Z" transform="translate(-71.998 -82.659)"/></g><g transform="translate(11.852 14.451)"><path class="l" d="M86.1,98.891c-.037.115-3.988-1.06-8.823-2.623s-8.726-2.926-8.689-3.041,3.987,1.06,8.824,2.624S86.134,98.777,86.1,98.891Z" transform="translate(-68.585 -93.219)"/></g><g transform="translate(10.483 18.682)"><path class="l" d="M84.825,108.212c-.037.115-4.341-1.174-9.611-2.878s-9.514-3.181-9.477-3.3,4.34,1.173,9.612,2.879S84.862,108.1,84.825,108.212Z" transform="translate(-65.736 -102.03)"/></g><g transform="translate(9.192 22.672)"><path class="l" d="M82.136,116.523c-.037.115-4.341-1.174-9.611-2.879s-9.514-3.181-9.477-3.3,4.34,1.174,9.612,2.879S82.173,116.408,82.136,116.523Z" transform="translate(-63.046 -110.341)"/></g><g transform="translate(7.902 26.663)"><path class="l" d="M79.447,124.835c-.037.115-4.341-1.173-9.611-2.878s-9.515-3.181-9.477-3.3,4.34,1.173,9.612,2.879S79.485,124.72,79.447,124.835Z" transform="translate(-60.358 -118.653)"/></g><g transform="translate(6.611 30.653)"><path class="l" d="M76.759,133.146c-.037.115-4.341-1.174-9.611-2.879s-9.514-3.181-9.477-3.3,4.34,1.174,9.612,2.879S76.8,133.031,76.759,133.146Z" transform="translate(-57.67 -126.964)"/></g></g><g transform="translate(269.388)"><g transform="translate(0 0.081)"><path class="m" d="M639.691,56.694,614.6,61.839a2.253,2.253,0,0,1-2.66-1.754L605.01,26.278a2.253,2.253,0,0,1,1.754-2.66l17.544-3.6,11.7,7.493,5.439,26.52A2.253,2.253,0,0,1,639.691,56.694Z" transform="translate(-604.963 -20.021)"/></g><g transform="translate(19.328)"><path class="j" d="M645.218,19.852,646.6,26.57a3.069,3.069,0,0,0,3.623,2.39l6.714-1.534Z" transform="translate(-645.218 -19.852)"/></g><g transform="translate(8.913 14.217)"><path class="g" d="M644.207,66.092a2.781,2.781,0,0,1-.08-.314l-.2-.89c-.172-.8-.416-1.925-.724-3.35l-2.51-11.883.165.109L623.749,53.3c-.03.042.238-.362.125-.189v0l0,.009,0,.017.007.036.014.071.029.141.058.281.115.56.229,1.115.449,2.2q.444,2.176.868,4.254c.561,2.764,1.092,5.377,1.58,7.781l-.167-.11L639.436,67l3.5-.68.934-.175a3.087,3.087,0,0,1,.333-.052,2.052,2.052,0,0,1-.3.077l-.9.2-3.457.747-12.433,2.623-.138.029-.029-.14c-.5-2.4-1.038-5.013-1.61-7.775l-.876-4.252q-.224-1.088-.452-2.2l-.229-1.114-.115-.561-.058-.281-.029-.141-.014-.071-.007-.036,0-.017,0-.009v0c-.113.17.153-.237.128-.195L640.8,49.49l.138-.028.027.137c.985,4.952,1.807,9.081,2.388,12,.275,1.418.493,2.541.646,3.334.068.365.122.653.162.87A1.922,1.922,0,0,1,644.207,66.092Z" transform="translate(-623.527 -49.462)"/><g transform="translate(8.615 2.148)"><path class="g" d="M644.854,70.4c-.088.018-.915-3.653-1.848-8.2s-1.617-8.248-1.529-8.266.915,3.653,1.848,8.2S644.942,70.384,644.854,70.4Z" transform="translate(-641.469 -53.936)"/></g><g transform="translate(2.606 12.601)"><path class="g" d="M646.135,75.713c.018.088-3.814.948-8.557,1.921s-8.606,1.691-8.624,1.6,3.813-.948,8.558-1.921S646.117,75.625,646.135,75.713Z" transform="translate(-628.954 -75.706)"/></g><g transform="translate(1.94 8.363)"><path class="g" d="M644.749,66.886c.018.088-3.814.948-8.557,1.921s-8.606,1.691-8.624,1.6,3.813-.948,8.558-1.921S644.731,66.8,644.749,66.886Z" transform="translate(-627.568 -66.879)"/></g><g transform="translate(1.079 4.191)"><path class="g" d="M642.826,58.2c.018.088-3.785.942-8.493,1.908s-8.54,1.677-8.558,1.589,3.784-.942,8.493-1.908S642.808,58.111,642.826,58.2Z" transform="translate(-625.775 -58.192)"/></g></g></g></g><g transform="translate(92.491 38.528)"><g transform="translate(0 0)"><path class="n" d="M361.246,58.748h-209.6A6.542,6.542,0,0,0,145.1,65.29V213.338a6.543,6.543,0,0,0,6.542,6.543h80.446s5.117,15.823-10.746,24.011h75.221s-17.91-6.14-13.305-24.011h77.989a6.543,6.543,0,0,0,6.542-6.543V65.291A6.543,6.543,0,0,0,361.246,58.748Z" transform="translate(-145.1 -58.748)"/><g transform="translate(107.207 144.314)"><path class="d" d="M375.319,360.563c2.852,4.075-1.611,8.537-5.687,5.687a1.442,1.442,0,0,1-.35-.351c-2.843-4.074,1.613-8.531,5.687-5.686A1.431,1.431,0,0,1,375.319,360.563Z" transform="translate(-368.383 -359.314)"/></g><g transform="translate(3.609 2.712)"><path class="g" d="M9.7,0H205.774a9.7,9.7,0,0,1,9.7,9.7V131.337a0,0,0,0,1,0,0H0a0,0,0,0,1,0,0V9.7A9.7,9.7,0,0,1,9.7,0Z"/></g><g transform="translate(3.609 2.712)"><path class="f" d="M9.154,0h198.8a7.516,7.516,0,0,1,7.516,7.516v3.4a0,0,0,0,1,0,0H0a0,0,0,0,1,0,0V9.154A9.154,9.154,0,0,1,9.154,0Z"/></g><g transform="translate(8.957 6.884)"><circle class="h" cx="1.514" cy="1.514" r="1.514"/><g transform="translate(4.512)"><circle class="h" cx="1.514" cy="1.514" r="1.514"/></g><g transform="translate(8.803)"><circle class="h" cx="1.514" cy="1.514" r="1.514"/></g></g><g transform="translate(45.443 161.028)"><path class="d" d="M372.975,394.252c0,.07-29.827.126-66.612.126s-66.618-.056-66.618-.126,29.82-.126,66.618-.126S372.975,394.182,372.975,394.252Z" transform="translate(-239.746 -394.126)"/></g></g></g><g transform="translate(85.951 45.942)"><g transform="translate(0 23.866)"><g transform="translate(0.155 0.154)"><rect class="e" width="65.452" height="90.386" rx="8.135"/><path class="h" d="M7.657,0H57.794a7.657,7.657,0,0,1,7.657,7.657v.487a0,0,0,0,1,0,0H0a0,0,0,0,1,0,0V7.657A7.657,7.657,0,0,1,7.657,0Z"/><g transform="translate(2.838 2.771)"><circle class="g" cx="1.301" cy="1.301" r="1.301"/></g><g transform="translate(6.741 2.771)"><path class="g" d="M148.442,131.291a1.3,1.3,0,1,1-1.3-1.3A1.3,1.3,0,0,1,148.442,131.291Z" transform="translate(-145.841 -129.99)"/></g><g transform="translate(10.683 2.771)"><circle class="g" cx="1.301" cy="1.301" r="1.301"/></g></g><g transform="translate(3.108 8.298)"><rect class="g" width="59.546" height="80.444"/></g><g transform="translate(62.654 17.121)"><path class="h" d="M263.446,174.159h0a1.477,1.477,0,0,1-1.477-1.476V161.031a1.477,1.477,0,0,1,1.477-1.476h0a1.477,1.477,0,0,1,1.476,1.476v11.651A1.477,1.477,0,0,1,263.446,174.159Z" transform="translate(-261.969 -159.555)"/></g><path class="d" d="M189.83,214.437a7.686,7.686,0,0,0,2.961-.671,7.295,7.295,0,0,0,3.9-4.4,8.2,8.2,0,0,0,.333-2.65c-.012-7.64-.028-18.687-.048-32.335-.006-6.826-.012-14.3-.019-22.329q0-6.02-.008-12.439,0-3.207,0-6.505a16.9,16.9,0,0,0-.158-3.28,7.267,7.267,0,0,0-1.4-2.953,7.187,7.187,0,0,0-5.9-2.681l-7.01,0-14.458,0-30.4,0c-.649,0-1.307-.008-1.945.008a4.017,4.017,0,0,0-3.843,3.442,17.37,17.37,0,0,0-.048,1.9v5.738q0,7.61,0,14.983c0,9.823-.006,19.3-.009,28.324s-.01,17.6-.014,25.63q0,3.008,0,5.912a4.253,4.253,0,0,0,3.207,4.039,4.87,4.87,0,0,0,1.349.137h1.376l2.708,0,5.24.005,32.333.048,8.79.029,2.286.015c.515.005.779.016.779.016s-.264.011-.779.016l-2.286.015-8.79.029-32.333.049-5.24.005-2.708,0h-1.376a5.1,5.1,0,0,1-1.407-.142,4.494,4.494,0,0,1-3.394-4.264q0-2.905-.009-5.918c0-8.027-.009-16.6-.014-25.63s-.006-18.5-.009-28.324q0-7.368,0-14.983v-5.738a17.255,17.255,0,0,1,.051-1.945,4.324,4.324,0,0,1,4.134-3.7c.66-.016,1.3,0,1.956-.008l30.4,0,14.458,0,7.01,0a7.477,7.477,0,0,1,6.119,2.793,7.553,7.553,0,0,1,1.452,3.071c.049.279.094.56.126.84.012.281.036.567.035.844q0,.83,0,1.654,0,3.3,0,6.505,0,6.413-.008,12.439c-.007,8.026-.013,15.5-.019,22.329-.021,13.648-.037,24.695-.049,32.335a8.289,8.289,0,0,1-.352,2.683,7.348,7.348,0,0,1-3.976,4.422,7.5,7.5,0,0,1-2.207.587C190.094,214.438,189.83,214.437,189.83,214.437Z" transform="translate(-131.479 -123.897)"/><g transform="translate(7.776 15.31)"><g transform="translate(1.663 25.161)"><path class="d" d="M165.766,208.341c0,.085-3.275.154-7.314.154s-7.315-.069-7.315-.154,3.275-.153,7.315-.153S165.766,208.257,165.766,208.341Z" transform="translate(-151.137 -208.188)"/></g><g transform="translate(1.663 29.399)"><path class="d" d="M162.581,217.169a53.6,53.6,0,0,1-5.721.153,53.607,53.607,0,0,1-5.722-.153,53.364,53.364,0,0,1,5.722-.154A53.36,53.36,0,0,1,162.581,217.169Z" transform="translate(-151.137 -217.015)"/></g><g transform="translate(1.663 34.182)"><path class="d" d="M163.89,227.13c0,.085-2.855.154-6.376.154s-6.377-.069-6.377-.154,2.854-.154,6.377-.154S163.89,227.045,163.89,227.13Z" transform="translate(-151.137 -226.976)"/></g><g transform="translate(1.663 38.421)"><path class="d" d="M165.766,235.957c0,.085-3.275.154-7.314.154s-7.315-.069-7.315-.154,3.275-.153,7.315-.153S165.766,235.873,165.766,235.957Z" transform="translate(-151.137 -235.804)"/></g><g transform="translate(1.663 43.203)"><path class="d" d="M162.581,245.918a53.36,53.36,0,0,1-5.721.154,53.364,53.364,0,0,1-5.722-.154,53.607,53.607,0,0,1,5.722-.153A53.6,53.6,0,0,1,162.581,245.918Z" transform="translate(-151.137 -245.765)"/></g><g transform="translate(1.663 47.442)"><path class="d" d="M160.89,254.746a38.8,38.8,0,0,1-4.876.154,38.8,38.8,0,0,1-4.877-.154,38.8,38.8,0,0,1,4.877-.154A38.8,38.8,0,0,1,160.89,254.746Z" transform="translate(-151.137 -254.592)"/></g><g transform="translate(0 19.671)"><path class="d" d="M193.253,196.907c0,.085-10.2.154-22.789.154s-22.791-.069-22.791-.154,10.2-.154,22.791-.154S193.253,196.822,193.253,196.907Z" transform="translate(-147.673 -196.753)"/></g><g transform="translate(25.647 11.438)"><path class="d" d="M201.243,224.121c-.085,0-.154-9.966-.154-22.256s.069-22.258.154-22.258.154,9.963.154,22.258S201.327,224.121,201.243,224.121Z" transform="translate(-201.089 -179.607)"/></g><g transform="translate(35.551 11.438)"><path class="d" d="M221.87,224.121c-.085,0-.154-9.966-.154-22.256s.069-22.258.154-22.258.154,9.963.154,22.258S221.955,224.121,221.87,224.121Z" transform="translate(-221.716 -179.607)"/></g><g transform="translate(45.427 11.438)"><path class="d" d="M242.438,224.121c-.085,0-.153-9.966-.153-22.256s.069-22.258.153-22.258.154,9.963.154,22.258S242.523,224.121,242.438,224.121Z" transform="translate(-242.285 -179.607)"/></g><g transform="translate(1.898 15.17)"><path class="d" d="M168.962,187.533c0,.085-3.881.154-8.668.154s-8.668-.069-8.668-.154,3.88-.154,8.668-.154S168.962,187.448,168.962,187.533Z" transform="translate(-151.626 -187.379)"/></g><g transform="translate(28.31 15.17)"><path class="d" d="M211.52,187.533a19.493,19.493,0,0,1-4.885,0,19.495,19.495,0,0,1,4.885,0Z" transform="translate(-206.635 -187.379)"/></g><g transform="translate(38.554 15.17)"><path class="d" d="M232.855,187.533a19.493,19.493,0,0,1-4.885,0,19.495,19.495,0,0,1,4.885,0Z" transform="translate(-227.97 -187.379)"/></g><g transform="translate(2.534 52.196)"><path class="d" d="M195.7,264.649c0,.084-9.57.154-21.372.154s-21.374-.069-21.374-.154,9.568-.154,21.374-.154S195.7,264.564,195.7,264.649Z" transform="translate(-152.951 -264.495)"/></g><g transform="translate(38.204 54.037)"><path class="d" d="M231.062,268.481a11.957,11.957,0,0,1-3.821,0,12,12,0,0,1,3.821,0Z" transform="translate(-227.241 -268.328)"/></g><g transform="translate(19.661 57.292)"><path class="d" d="M215.091,275.262c0,.085-5.925.153-13.234.153s-13.235-.069-13.235-.153,5.924-.154,13.235-.154S215.091,275.177,215.091,275.262Z" transform="translate(-188.622 -275.108)"/></g><g transform="translate(29.317 61.144)"><path class="d" d="M228.945,286.43s-.116.019-.343.037l-1,.072-3.826.236-13.788.781-.487.028.413-.26a11.229,11.229,0,0,1,8.475-1.4,6.58,6.58,0,0,1,1.51.521,1.956,1.956,0,0,1,1.047,1.288,2.62,2.62,0,0,1-1.536,2.82,7.051,7.051,0,0,1-3.36.55,6.106,6.106,0,0,1-3.32-1.069,4.1,4.1,0,0,1-1.7-3.106,3.446,3.446,0,0,1,1.534-2.836,5.591,5.591,0,0,1,3.042-.957,15.6,15.6,0,0,1,6,1.082,16.419,16.419,0,0,1,2.627,1.3,3.565,3.565,0,0,1,1.142.923.892.892,0,0,1,.164.784.736.736,0,0,1-.643.485,2.734,2.734,0,0,1-1.376-.383,11.062,11.062,0,0,1-1.187-.659,11.18,11.18,0,0,1-2.033-1.661l.217-.131a1.2,1.2,0,0,1-.088.935,1.748,1.748,0,0,1-.624.655,1.945,1.945,0,0,1-1.688.218,3.33,3.33,0,0,1-1.34-.931,10.184,10.184,0,0,1-.933-1.228l.2-.1a1.485,1.485,0,0,1-.659,1.619,1.856,1.856,0,0,1-1.637.285,2.787,2.787,0,0,1-1.286-.882,4.817,4.817,0,0,1-.748-1.233h.163l-1.452,3.475-.064.153-.059-.154-1.181-3.093-.3-.8a1.737,1.737,0,0,1-.089-.274,1.867,1.867,0,0,1,.121.261l.326.785,1.24,3.069H210.3l1.411-3.492.078-.192.085.191a3.373,3.373,0,0,0,1.93,1.99,1.644,1.644,0,0,0,1.455-.266,1.267,1.267,0,0,0,.569-1.374l-.243-.737.445.638a4.863,4.863,0,0,0,2.165,2.055,1.7,1.7,0,0,0,1.474-.2,1.158,1.158,0,0,0,.6-1.295l-.19-.548.407.417a10.953,10.953,0,0,0,1.992,1.613,10.788,10.788,0,0,0,1.16.639,2.519,2.519,0,0,0,1.226.353.451.451,0,0,0,.407-.3.618.618,0,0,0-.131-.532,3.326,3.326,0,0,0-1.058-.838,16.228,16.228,0,0,0-2.584-1.273,15.353,15.353,0,0,0-5.877-1.053,5.292,5.292,0,0,0-2.877.9,3.139,3.139,0,0,0-1.406,2.582,3.8,3.8,0,0,0,1.577,2.866,5.817,5.817,0,0,0,3.154,1.013,6.783,6.783,0,0,0,3.21-.514,2.588,2.588,0,0,0,1.134-1.032,2.093,2.093,0,0,0,.251-1.457,1.663,1.663,0,0,0-.9-1.1,6.333,6.333,0,0,0-1.438-.5,10.816,10.816,0,0,0-2.974-.283,10.936,10.936,0,0,0-5.3,1.62l-.073-.232,13.793-.674,3.829-.168,1.005-.035C228.828,286.423,228.945,286.43,228.945,286.43Z" transform="translate(-208.732 -283.129)"/></g><g transform="translate(1.654 3.186)"><path class="d" d="M196.689,162.574c0,.085-10.2.154-22.785.154s-22.787-.069-22.787-.154,10.2-.154,22.787-.154S196.689,162.489,196.689,162.574Z" transform="translate(-151.117 -162.42)"/></g><g transform="translate(7.167)"><path class="d" d="M194.686,155.938a3.844,3.844,0,0,1,.675-.041v.083c-1.89.065-8.362.112-16.042.112l-11.822-.045L163.914,156l-.974-.029a1.409,1.409,0,0,1-.339-.031,1.407,1.407,0,0,1,.339-.031l.974-.029,3.582-.049,11.822-.045c7.68,0,14.152.048,16.042.112v.083A3.844,3.844,0,0,1,194.686,155.938Z" transform="translate(-162.6 -155.784)"/></g></g></g><g transform="translate(53.509)"><g transform="translate(0.156 0.154)"><rect class="e" width="100.041" height="138.152" rx="14.531"/><path class="h" d="M11.931,0h76.18a11.931,11.931,0,0,1,11.931,11.931v.517a0,0,0,0,1,0,0H0a0,0,0,0,1,0,0v-.517A11.931,11.931,0,0,1,11.931,0Z"/><g transform="translate(4.338 4.235)"><circle class="g" cx="1.988" cy="1.988" r="1.988"/></g><g transform="translate(10.303 4.235)"><circle class="g" cx="1.988" cy="1.988" r="1.988"/></g><g transform="translate(16.328 4.235)"><circle class="g" cx="1.988" cy="1.988" r="1.988"/></g></g><g transform="translate(4.669 12.601)"><rect class="g" width="91.014" height="122.956"/></g><g transform="translate(95.683 26.087)"><path class="h" d="M444.462,150.844h0a2.257,2.257,0,0,1-2.257-2.257V130.779a2.257,2.257,0,0,1,2.257-2.257h0a2.257,2.257,0,0,1,2.257,2.257v17.808A2.256,2.256,0,0,1,444.462,150.844Z" transform="translate(-442.205 -128.522)"/></g><path class="d" d="M335.865,212.5s.1-.011.3-.024a5.88,5.88,0,0,0,.888-.1,7.125,7.125,0,0,0,3.177-1.387A7.216,7.216,0,0,0,343,206.2a12.593,12.593,0,0,0,.067-1.75q0-.912,0-1.888,0-1.951-.007-4.153c-.012-11.742-.028-28.726-.049-49.711-.006-10.494-.012-21.989-.019-34.329q0-9.255-.008-19.124,0-4.93,0-10,0-1.268,0-2.543a12.581,12.581,0,0,0-.144-2.523,7.167,7.167,0,0,0-4.894-5.377,7.99,7.99,0,0,0-2.553-.31h-5.3l-10.777,0-22.228,0-46.742,0a7.12,7.12,0,0,0-6.711,4.763,7.937,7.937,0,0,0-.4,2.873q0,5.931,0,11.782,0,11.7,0,23.035c0,15.1-.006,29.669-.009,43.546s-.01,27.063-.014,39.4q0,2.314,0,4.588a10.6,10.6,0,0,0,.153,2.228,7.436,7.436,0,0,0,.782,2.051,6.946,6.946,0,0,0,1.354,1.7,7.1,7.1,0,0,0,3.826,1.827,14.707,14.707,0,0,0,2.138.082l16.472.01,49.709.049,13.514.029,3.515.015c.792.005,1.2.016,1.2.016s-.406.01-1.2.015l-3.515.015-13.514.029-49.709.049-16.472.01a14.9,14.9,0,0,1-2.171-.082,7.348,7.348,0,0,1-3.958-1.885,7.183,7.183,0,0,1-1.4-1.76,7.669,7.669,0,0,1-.811-2.122,10.827,10.827,0,0,1-.161-2.279q0-2.274,0-4.588c0-12.341-.009-25.527-.014-39.4s-.006-28.443-.009-43.546q0-11.326,0-23.035,0-5.849,0-11.782a8.251,8.251,0,0,1,.42-2.974,7.426,7.426,0,0,1,7-4.969l46.742,0,22.228,0,10.777,0h5.3a8.289,8.289,0,0,1,2.636.323,7.448,7.448,0,0,1,5.085,5.593,12.829,12.829,0,0,1,.148,2.579q0,1.276,0,2.543,0,5.07,0,10,0,9.859-.008,19.124c-.007,12.34-.013,23.834-.019,34.329-.021,20.985-.037,37.969-.049,49.711q0,2.2-.007,4.153,0,.976,0,1.888a12.739,12.739,0,0,1-.075,1.762,7.274,7.274,0,0,1-2.827,4.828,7.091,7.091,0,0,1-3.209,1.369,5.459,5.459,0,0,1-.893.083C335.966,212.5,335.865,212.5,335.865,212.5Z" transform="translate(-242.924 -74.191)"/><g transform="translate(26.191 21.284)"><path class="d" d="M343.649,118.674a.947.947,0,0,1,.235-.021l.736-.02v.082c-2.72.065-12.034.112-23.087.112l-17.015-.045-5.156-.049-1.4-.029a2.961,2.961,0,0,1-.489-.031,2.92,2.92,0,0,1,.489-.031l1.4-.029,5.156-.048,17.015-.045c11.053,0,20.368.048,23.087.112v.082l-.736-.02A.965.965,0,0,1,343.649,118.674Z" transform="translate(-297.472 -118.52)"/></g><g transform="translate(12.419 31.677)"><path class="d" d="M344.3,140.32c0,.085-16.906.153-37.755.153s-37.759-.069-37.759-.153,16.9-.154,37.759-.154S344.3,140.235,344.3,140.32Z" transform="translate(-268.789 -140.166)"/></g><g transform="translate(12.419 37.094)"><path class="d" d="M344.3,151.6c0,.085-16.906.154-37.755.154s-37.759-.069-37.759-.154,16.9-.153,37.759-.153S344.3,151.517,344.3,151.6Z" transform="translate(-268.789 -151.448)"/></g><g transform="translate(12.419 42.511)"><path class="d" d="M344.3,162.883c0,.085-16.906.154-37.755.154s-37.759-.069-37.759-.154,16.9-.154,37.759-.154S344.3,162.8,344.3,162.883Z" transform="translate(-268.789 -162.729)"/></g><g transform="translate(12.419 47.928)"><path class="d" d="M344.3,174.165c0,.085-16.906.154-37.755.154s-37.759-.069-37.759-.154,16.9-.154,37.759-.154S344.3,174.08,344.3,174.165Z" transform="translate(-268.789 -174.011)"/></g><g transform="translate(12.419 53.345)"><path class="d" d="M344.3,185.446c0,.085-16.906.154-37.755.154s-37.759-.069-37.759-.154,16.9-.153,37.759-.153S344.3,185.362,344.3,185.446Z" transform="translate(-268.789 -185.293)"/></g><g transform="translate(12.419 58.762)"><path class="d" d="M344.3,196.728c0,.085-16.906.154-37.755.154s-37.759-.069-37.759-.154,16.9-.153,37.759-.153S344.3,196.644,344.3,196.728Z" transform="translate(-268.789 -196.575)"/></g><g transform="translate(12.419 70.373)"><g transform="translate(0 0)"><path class="d" d="M344.3,220.913c0,.085-16.906.154-37.755.154s-37.759-.069-37.759-.154,16.9-.154,37.759-.154S344.3,220.828,344.3,220.913Z" transform="translate(-268.789 -220.759)"/></g></g><g transform="translate(12.419 75.79)"><g transform="translate(0 0)"><path class="d" d="M344.3,232.195c0,.085-16.906.153-37.755.153s-37.759-.069-37.759-.153,16.9-.154,37.759-.154S344.3,232.11,344.3,232.195Z" transform="translate(-268.789 -232.041)"/></g></g><g transform="translate(12.419 81.207)"><path class="d" d="M344.3,243.476c0,.085-16.906.154-37.755.154s-37.759-.069-37.759-.154,16.9-.153,37.759-.153S344.3,243.392,344.3,243.476Z" transform="translate(-268.789 -243.323)"/></g><g transform="translate(12.419 86.624)"><path class="d" d="M344.3,254.758c0,.085-16.906.154-37.755.154s-37.759-.069-37.759-.154,16.9-.154,37.759-.154S344.3,254.673,344.3,254.758Z" transform="translate(-268.789 -254.604)"/></g><g transform="translate(12.419 92.041)"><g transform="translate(0 0)"><path class="d" d="M344.3,266.04c0,.085-16.906.154-37.755.154s-37.759-.069-37.759-.154,16.9-.154,37.759-.154S344.3,265.955,344.3,266.04Z" transform="translate(-268.789 -265.886)"/></g></g><g transform="translate(12.419 97.458)"><path class="d" d="M344.3,277.322c0,.085-16.906.153-37.755.153s-37.759-.069-37.759-.153,16.9-.154,37.759-.154S344.3,277.237,344.3,277.322Z" transform="translate(-268.789 -277.168)"/></g><g transform="translate(12.419 111.18)"><path class="d" d="M344.3,305.9c0,.085-16.906.153-37.755.153s-37.759-.069-37.759-.153,16.9-.154,37.759-.154S344.3,305.818,344.3,305.9Z" transform="translate(-268.789 -305.749)"/></g><g transform="translate(12.419 116.597)"><path class="d" d="M344.3,317.185c0,.085-16.906.153-37.755.153s-37.759-.069-37.759-.153,16.9-.154,37.759-.154S344.3,317.1,344.3,317.185Z" transform="translate(-268.789 -317.031)"/></g><g transform="translate(12.419 122.014)"><path class="d" d="M344.3,328.466c0,.085-16.906.154-37.755.154s-37.759-.069-37.759-.154,16.9-.153,37.759-.153S344.3,328.382,344.3,328.466Z" transform="translate(-268.789 -328.313)"/></g><g transform="translate(12.419 127.431)"><path class="d" d="M344.3,339.748c0,.084-16.906.154-37.755.154s-37.759-.069-37.759-.154,16.9-.154,37.759-.154S344.3,339.663,344.3,339.748Z" transform="translate(-268.789 -339.594)"/></g></g><g transform="translate(120.079 9.175)"><g transform="translate(0.156 0.154)"><rect class="e" width="100.041" height="138.152" rx="14.531"/><path class="h" d="M11.931,0h76.18a11.931,11.931,0,0,1,11.931,11.931v.517a0,0,0,0,1,0,0H0a0,0,0,0,1,0,0v-.517A11.931,11.931,0,0,1,11.931,0Z"/><g transform="translate(4.338 4.235)"><circle class="g" cx="1.988" cy="1.988" r="1.988"/></g><g transform="translate(10.303 4.235)"><circle class="g" cx="1.988" cy="1.988" r="1.988"/></g><g transform="translate(16.328 4.235)"><circle class="g" cx="1.988" cy="1.988" r="1.988"/></g></g><g transform="translate(4.669 12.601)"><rect class="g" width="91.014" height="122.956"/></g><g transform="translate(95.683 26.087)"><path class="h" d="M583.11,169.954h0a2.257,2.257,0,0,1-2.257-2.257V149.889a2.256,2.256,0,0,1,2.257-2.257h0a2.257,2.257,0,0,1,2.257,2.257V167.7A2.257,2.257,0,0,1,583.11,169.954Z" transform="translate(-580.853 -147.632)"/></g><path class="d" d="M474.512,231.606s.1-.011.3-.023a5.943,5.943,0,0,0,.888-.1,7.13,7.13,0,0,0,3.177-1.388,7.216,7.216,0,0,0,2.774-4.791,12.687,12.687,0,0,0,.067-1.75q0-.912,0-1.887,0-1.952-.007-4.154c-.012-11.742-.028-28.725-.048-49.711-.006-10.494-.012-21.989-.019-34.329q0-9.255-.008-19.124,0-4.93,0-10,0-1.268,0-2.544a12.582,12.582,0,0,0-.144-2.523,7.167,7.167,0,0,0-4.894-5.377,8.016,8.016,0,0,0-2.553-.31h-5.3l-10.777,0-22.228,0-46.742,0a7.119,7.119,0,0,0-6.71,4.763,7.929,7.929,0,0,0-.4,2.873q0,5.932,0,11.782,0,11.7,0,23.035c0,15.1-.006,29.669-.009,43.545s-.01,27.063-.014,39.4q0,2.314,0,4.588a10.6,10.6,0,0,0,.154,2.227,7.444,7.444,0,0,0,.782,2.052,6.945,6.945,0,0,0,1.354,1.7,7.1,7.1,0,0,0,3.826,1.827,14.709,14.709,0,0,0,2.138.082l16.473.01,49.708.048,13.514.029,3.515.015c.792.005,1.2.016,1.2.016s-.406.011-1.2.016l-3.515.015-13.514.029-49.708.049-16.473.01a14.9,14.9,0,0,1-2.171-.082,7.348,7.348,0,0,1-3.958-1.885,7.206,7.206,0,0,1-1.4-1.76,7.688,7.688,0,0,1-.811-2.123,10.82,10.82,0,0,1-.161-2.278q0-2.274,0-4.588c0-12.341-.009-25.527-.014-39.4s-.006-28.443-.009-43.545q0-11.327,0-23.035,0-5.85,0-11.782a8.251,8.251,0,0,1,.42-2.974,7.425,7.425,0,0,1,7-4.968l46.742,0,22.228,0,10.777,0h5.3a8.293,8.293,0,0,1,2.636.324,7.45,7.45,0,0,1,5.085,5.593,12.857,12.857,0,0,1,.148,2.579q0,1.276,0,2.544,0,5.07,0,10,0,9.86-.008,19.124c-.007,12.34-.013,23.834-.019,34.329-.021,20.986-.037,37.969-.049,49.711q0,2.2-.007,4.154,0,.975,0,1.887a12.668,12.668,0,0,1-.075,1.762,7.271,7.271,0,0,1-2.827,4.828,7.086,7.086,0,0,1-3.209,1.369,5.521,5.521,0,0,1-.892.084C474.614,231.606,474.512,231.606,474.512,231.606Z" transform="translate(-381.571 -93.301)"/><g transform="translate(26.191 21.284)"><path class="d" d="M482.3,137.783a.976.976,0,0,1,.235-.021l.736-.02v.083c-2.72.065-12.034.112-23.088.112l-17.015-.045-5.156-.049-1.4-.029a2.9,2.9,0,0,1-.489-.031,2.892,2.892,0,0,1,.489-.031l1.4-.029,5.156-.049,17.015-.045c11.054,0,20.368.048,23.088.112v.083l-.736-.02A.979.979,0,0,1,482.3,137.783Z" transform="translate(-436.119 -137.629)"/></g><g transform="translate(12.419 31.677)"><path class="d" d="M482.951,159.429c0,.085-16.906.154-37.756.154s-37.759-.069-37.759-.154,16.9-.154,37.759-.154S482.951,159.344,482.951,159.429Z" transform="translate(-407.436 -159.275)"/></g><g transform="translate(12.419 37.094)"><path class="d" d="M482.951,170.711c0,.085-16.906.153-37.756.153s-37.759-.069-37.759-.153,16.9-.154,37.759-.154S482.951,170.626,482.951,170.711Z" transform="translate(-407.436 -170.557)"/></g><g transform="translate(12.419 42.511)"><path class="d" d="M482.951,181.992c0,.085-16.906.154-37.756.154s-37.759-.069-37.759-.154,16.9-.153,37.759-.153S482.951,181.908,482.951,181.992Z" transform="translate(-407.436 -181.839)"/></g><g transform="translate(12.419 47.927)"><path class="d" d="M482.951,193.274c0,.085-16.906.154-37.756.154s-37.759-.069-37.759-.154,16.9-.154,37.759-.154S482.951,193.189,482.951,193.274Z" transform="translate(-407.436 -193.12)"/></g><g transform="translate(12.419 53.344)"><path class="d" d="M482.951,204.556c0,.084-16.906.154-37.756.154s-37.759-.069-37.759-.154,16.9-.154,37.759-.154S482.951,204.471,482.951,204.556Z" transform="translate(-407.436 -204.402)"/></g><g transform="translate(12.419 58.761)"><path class="d" d="M482.951,215.838c0,.085-16.906.153-37.756.153s-37.759-.069-37.759-.153,16.9-.154,37.759-.154S482.951,215.753,482.951,215.838Z" transform="translate(-407.436 -215.684)"/></g><g transform="translate(12.419 111.18)"><path class="d" d="M482.951,325.012c0,.085-16.906.154-37.756.154s-37.759-.069-37.759-.154,16.9-.154,37.759-.154S482.951,324.927,482.951,325.012Z" transform="translate(-407.436 -324.858)"/></g><g transform="translate(12.419 116.597)"><path class="d" d="M482.951,336.294c0,.084-16.906.154-37.756.154s-37.759-.069-37.759-.154,16.9-.154,37.759-.154S482.951,336.209,482.951,336.294Z" transform="translate(-407.436 -336.14)"/></g><g transform="translate(12.419 122.014)"><path class="d" d="M482.951,347.575c0,.085-16.906.154-37.756.154s-37.759-.069-37.759-.154,16.9-.153,37.759-.153S482.951,347.491,482.951,347.575Z" transform="translate(-407.436 -347.422)"/></g><g transform="translate(12.419 127.431)"><path class="d" d="M482.951,358.857c0,.085-16.906.154-37.756.154s-37.759-.069-37.759-.154,16.9-.153,37.759-.153S482.951,358.773,482.951,358.857Z" transform="translate(-407.436 -358.704)"/></g><g transform="translate(13.145 62.041)"><g transform="translate(3.048 6.083)"><rect class="a" width="2.669" height="29.807"/></g><g transform="translate(8.2 16.206)"><rect class="a" width="2.669" height="19.684"/></g><g transform="translate(13.353 9.788)"><rect class="a" width="2.669" height="26.254"/></g><g transform="translate(18.506 7.234)"><rect class="a" width="2.669" height="28.656"/></g><g transform="translate(23.658 16.812)"><rect class="a" width="2.669" height="19.078"/></g><g transform="translate(28.811 20.554)"><rect class="a" width="2.669" height="15.336"/></g><g transform="translate(33.964 9.142)"><rect class="a" width="2.669" height="26.748"/></g><g transform="translate(39.116 13.965)"><rect class="a" width="2.669" height="21.925"/></g><g transform="translate(44.269 10.111)"><rect class="a" width="2.669" height="25.779"/></g><g transform="translate(49.422 18.327)"><rect class="a" width="2.669" height="17.563"/></g><g transform="translate(59.699 9.142)"><rect class="a" width="2.669" height="26.748"/></g><g transform="translate(70.643 26.351)"><rect class="m" width="2.669" height="9.152"/></g><g transform="translate(65.308 18.327)"><rect class="a" width="2.669" height="17.563"/></g><g transform="translate(54.575 14.985)"><rect class="a" width="2.669" height="20.905"/></g><g transform="translate(4.526 9.267)"><path class="d" d="M487.912,242.432a1.452,1.452,0,0,1-.234-.038l-.679-.139a10.53,10.53,0,0,0-1.111-.176,13.749,13.749,0,0,0-1.529-.128,17.642,17.642,0,0,0-4.178.359A18.425,18.425,0,0,0,475,244.271a21.214,21.214,0,0,0-5.248,4.179,39.944,39.944,0,0,0-4.424,6.351,38.457,38.457,0,0,1-4.97,7.025,13.012,13.012,0,0,1-3.663,2.739,7.693,7.693,0,0,1-2.257.69,7.3,7.3,0,0,1-2.394-.081,9.766,9.766,0,0,1-4.169-2.186,19.449,19.449,0,0,1-3.088-3.37,71.562,71.562,0,0,1-4.427-7.381,30.466,30.466,0,0,0-4.422-6.332,12.005,12.005,0,0,0-2.734-2.151,11.511,11.511,0,0,0-1.477-.717,11.739,11.739,0,0,0-1.508-.447,10.947,10.947,0,0,0-5.48.153,12.355,12.355,0,0,0-3.761,1.809A13.724,13.724,0,0,0,419,246.325l-.46.518a1.446,1.446,0,0,1-.165.171,1.366,1.366,0,0,1,.141-.19l.439-.539a12.782,12.782,0,0,1,1.952-1.825,12.284,12.284,0,0,1,3.783-1.875,11.063,11.063,0,0,1,5.572-.2,11.506,11.506,0,0,1,5.85,3.347A30.522,30.522,0,0,1,440.6,252.1a72.175,72.175,0,0,0,4.423,7.342,19.238,19.238,0,0,0,3.044,3.317,9.488,9.488,0,0,0,4.039,2.121,7,7,0,0,0,2.291.078,7.418,7.418,0,0,0,2.172-.664,12.746,12.746,0,0,0,3.58-2.675,38.42,38.42,0,0,0,4.945-6.964,39.813,39.813,0,0,1,4.476-6.374,21.286,21.286,0,0,1,5.329-4.2,18.436,18.436,0,0,1,5.251-1.941,17.4,17.4,0,0,1,4.217-.312,13.312,13.312,0,0,1,1.535.156,9.642,9.642,0,0,1,1.112.206l.674.169A1.374,1.374,0,0,1,487.912,242.432Z" transform="translate(-418.376 -241.816)"/></g><path class="d" d="M409.059,260.481c-.06,0-.11-8.5-.11-18.982s.049-18.984.11-18.984.109,8.5.109,18.984S409.119,260.481,409.059,260.481Z" transform="translate(-408.949 -222.515)"/><g transform="translate(1.784 37.857)"><path class="d" d="M484.192,301.469c0,.06-16.013.109-35.762.109s-35.766-.049-35.766-.109,16.01-.109,35.766-.109S484.192,301.409,484.192,301.469Z" transform="translate(-412.664 -301.36)"/></g><g transform="translate(2.893 40.203)"><path class="d" d="M418.936,306.355a17.967,17.967,0,0,1-3.961,0,17.972,17.972,0,0,1,3.961,0Z" transform="translate(-414.975 -306.246)"/></g><g transform="translate(8.691 40.322)"><path class="d" d="M431.783,306.6a25.655,25.655,0,0,1-4.734,0,25.641,25.641,0,0,1,4.734,0Z" transform="translate(-427.049 -306.495)"/></g><g transform="translate(14.294 40.322)"><path class="d" d="M443.454,306.6a25.654,25.654,0,0,1-4.734,0,25.64,25.64,0,0,1,4.734,0Z" transform="translate(-438.72 -306.495)"/></g><g transform="translate(19.898 40.322)"><path class="d" d="M455.125,306.6a25.654,25.654,0,0,1-4.734,0,25.64,25.64,0,0,1,4.734,0Z" transform="translate(-450.391 -306.495)"/></g><g transform="translate(25.502 40.322)"><path class="d" d="M466.8,306.6a25.66,25.66,0,0,1-4.735,0,25.646,25.646,0,0,1,4.735,0Z" transform="translate(-462.062 -306.495)"/></g><g transform="translate(31.106 40.322)"><path class="d" d="M478.468,306.6a25.654,25.654,0,0,1-4.734,0,25.64,25.64,0,0,1,4.734,0Z" transform="translate(-473.734 -306.495)"/></g><g transform="translate(36.71 40.322)"><path class="d" d="M490.139,306.6a25.655,25.655,0,0,1-4.734,0,25.641,25.641,0,0,1,4.734,0Z" transform="translate(-485.405 -306.495)"/></g><g transform="translate(42.313 40.322)"><path class="d" d="M501.81,306.6a25.654,25.654,0,0,1-4.734,0,25.64,25.64,0,0,1,4.734,0Z" transform="translate(-497.076 -306.495)"/></g><g transform="translate(47.917 40.322)"><path class="d" d="M513.481,306.6a25.655,25.655,0,0,1-4.734,0,25.641,25.641,0,0,1,4.734,0Z" transform="translate(-508.747 -306.495)"/></g><g transform="translate(53.521 40.322)"><path class="d" d="M525.153,306.6a25.659,25.659,0,0,1-4.735,0,25.645,25.645,0,0,1,4.735,0Z" transform="translate(-520.418 -306.495)"/></g><g transform="translate(58.733 40.324)"><path class="d" d="M536.008,306.608a25.647,25.647,0,0,1-4.734,0,25.647,25.647,0,0,1,4.734,0Z" transform="translate(-531.274 -306.499)"/></g><g transform="translate(63.945 40.326)"><path class="d" d="M546.863,306.612a25.647,25.647,0,0,1-4.734,0,25.647,25.647,0,0,1,4.734,0Z" transform="translate(-542.129 -306.503)"/></g><g transform="translate(69.157 40.328)"><path class="d" d="M557.718,306.616a25.64,25.64,0,0,1-4.734,0,25.647,25.647,0,0,1,4.734,0Z" transform="translate(-552.984 -306.507)"/></g><g transform="translate(26.303 19.832)"><path class="d" d="M464.78,263.947c0-.046.327.069.432.516a1.1,1.1,0,0,1-.083.769.665.665,0,0,1-.389.328.7.7,0,0,1-.542-.064.907.907,0,0,1-.464-.851.946.946,0,0,1,.372-.687.612.612,0,0,1,.51-.126c.123.037.166.1.157.11-.013.041-.271-.083-.532.177a.78.78,0,0,0-.232.537.654.654,0,0,0,.331.577.391.391,0,0,0,.551-.14A.971.971,0,0,0,465,264.5,1.355,1.355,0,0,0,464.78,263.947Z" transform="translate(-463.731 -263.819)"/></g><g transform="translate(61.531 10.065)"><path class="d" d="M538.049,243.574c0-.016.084-.044.231,0a.9.9,0,0,1,.476.412,1.18,1.18,0,0,1,.118.936.985.985,0,0,1-.913.73.785.785,0,0,1-.581-.3,1.256,1.256,0,0,1-.246-.519,1.193,1.193,0,0,1,.151-.928c.328-.465.735-.441.719-.407.02.044-.32.109-.538.515a1.03,1.03,0,0,0-.065.755c.071.275.282.588.569.59a.733.733,0,0,0,.642-.518,1.018,1.018,0,0,0-.044-.752A1.079,1.079,0,0,0,538.049,243.574Z" transform="translate(-537.101 -243.478)"/></g></g></g></g><g transform="translate(91.106 120.365)"><g transform="translate(14.967)"><g transform="translate(0.119 0.106)"><path class="d" d="M211.343,246.1a1.372,1.372,0,0,0-.547-.767,3.4,3.4,0,0,0-2.136-.389,8.95,8.95,0,0,1-1.035-2.739,1.781,1.781,0,0,0,.974-.344,1.025,1.025,0,0,0,.16-.06,1.4,1.4,0,0,0,.205-2.037,4.04,4.04,0,0,0-2.01-1.121,6.7,6.7,0,0,1,1.53.449c.519.126,1.225-.094,1.252-.627a1.161,1.161,0,0,0-.11-.473l-.357-.921a1.049,1.049,0,0,0-.455-.629,2.458,2.458,0,0,0-.55-.1c-.606-.123-.959-.827-1.563-.956a2.741,2.741,0,0,0-1.318.28c-.435.133-1.026.082-1.19-.342a4.257,4.257,0,0,0,1.434-1.374,1.458,1.458,0,0,0-.258-1.822,2.143,2.143,0,0,0-1.516-.213c-.581.062-1.3.24-1.415.811a1.517,1.517,0,0,0-1.784,1.3l-1.509-.058c.391-.477.969-.788,1.3-1.308s.207-1.412-.4-1.5a4.166,4.166,0,0,1-.672-.017c-.155-.05-.288-.179-.45-.175a.584.584,0,0,0-.316.147l-3.038,2.264.732-2.044c.225-.628.377-1.485-.194-1.829-.553-.334-1.294.243-1.366.885a1.031,1.031,0,0,0-1.193,1.026,1.045,1.045,0,0,0-1.126,1.669,2.97,2.97,0,0,0-1.479.544.909.909,0,0,0-1.506-.534,1.58,1.58,0,0,0-.289-.888.547.547,0,0,0-.822-.04,1.063,1.063,0,0,0-1.783-.931l-.561-.6a1.4,1.4,0,0,0-1.3.782c-.19.5.222,1.184.754,1.1-.376.017-.254.611-.015.9l1,1.217a1.176,1.176,0,0,0-1.462-.038.909.909,0,0,0-1.312.092.737.737,0,0,0-1.307.306c-.109-.24-.446-.233-.705-.189a1.712,1.712,0,0,0-1.024.425c-.252.281-.215.83.146.938-.332-.16-.723.219-.705.587a1.318,1.318,0,0,0,.585.9,3.085,3.085,0,0,1,.8.748,1.553,1.553,0,0,0-1.073-.157,4.034,4.034,0,0,0-1.893.5c-.128-.252-.49-.241-.763-.167a4.492,4.492,0,0,0-2.207,1.385c-.273.314-.507.775-.285,1.128a1.1,1.1,0,0,0,.443.347l2.111,1.131a5.542,5.542,0,0,0-2.656,2.143c-.392.261-.906.318-1.256.635s-.274,1.089.2,1.06a.864.864,0,0,0-.187,1.016.822.822,0,0,0,.339.33,1.18,1.18,0,0,0,.239.238,1.592,1.592,0,0,0,.564.252,1.065,1.065,0,0,0,.935.363,4.34,4.34,0,0,0-.9,1.205,1.818,1.818,0,0,0,.119,1.865,1.033,1.033,0,0,0,.077.074.887.887,0,0,0,.424.539.753.753,0,0,0-.041.5,1.988,1.988,0,0,0-.229,3.506c.488.3,1.351.186,1.359-.387a1.546,1.546,0,0,0,1.226.78,1.5,1.5,0,0,0,.911,2.011,1.6,1.6,0,0,0,.665,2.577,1.223,1.223,0,1,0,2.357.657,2.6,2.6,0,0,0,.986,1.087.9.9,0,0,0,1.243-.409,1.68,1.68,0,0,0,2.514.644,1.087,1.087,0,0,0,2.168.056l2.8-.2a9.977,9.977,0,0,0,1.843-.248,5.023,5.023,0,0,0,2.072-1.121,1.7,1.7,0,0,1,.622-.434,1.743,1.743,0,0,1,.865.078,4.542,4.542,0,0,0,4.241-1.287,2.292,2.292,0,0,1,.539-.488,2.043,2.043,0,0,1,.82-.166,8.233,8.233,0,0,0,2.018-.42A2.169,2.169,0,0,0,206.016,258c.235-.542-.13-1.333-.719-1.287a1.269,1.269,0,0,1,.246-1.084.764.764,0,0,1,1.031-.108.55.55,0,0,1-.2.91,1.133,1.133,0,0,0,1.574-1.048,1.518,1.518,0,0,0-1.607-1.318,3.487,3.487,0,0,0-.062-1.7,1.248,1.248,0,0,0,1.708.087,2.153,2.153,0,0,0,1.452.912,1.289,1.289,0,0,0,1.371-.864.928.928,0,0,0-.954-1.137,1.109,1.109,0,0,0-1.084-1.539,1.726,1.726,0,0,0-1.165-1.762.908.908,0,0,0,1.258-.578c.392.54,1.251.348,1.8-.024A1.212,1.212,0,0,0,211.343,246.1Z" transform="translate(-173.634 -229.414)"/></g><path class="n" d="M211.215,245.986a.868.868,0,0,1,.047.227,1,1,0,0,1-.174.658,2.193,2.193,0,0,1-.892.7,1.881,1.881,0,0,1-.719.169.906.906,0,0,1-.762-.344l.061-.012a.946.946,0,0,1-1.31.606l.031-.074a1.774,1.774,0,0,1,1.2,1.805l-.055-.052a1.07,1.07,0,0,1,.995.457,1.092,1.092,0,0,1,.144,1.156l-.058-.08a.935.935,0,0,1,.982.647,1.024,1.024,0,0,1-.4,1.191,1.481,1.481,0,0,1-1.342.209,2.394,2.394,0,0,1-1.152-.863l.1.009a1.319,1.319,0,0,1-1.806-.089l.12-.066a3.58,3.58,0,0,1,.066,1.731l-.076-.088a1.7,1.7,0,0,1,1.067.322,1.43,1.43,0,0,1,.611.974,1.194,1.194,0,0,1-.487,1.074,1.074,1.074,0,0,1-1.2.138l-.186-.112.212-.036a.444.444,0,0,0,.279-.545.487.487,0,0,0-.555-.354.754.754,0,0,0-.615.429,1.305,1.305,0,0,0-.091.815l-.091-.07a.73.73,0,0,1,.573.225,1.128,1.128,0,0,1,.245,1.151,1.444,1.444,0,0,1-.345.5,2.909,2.909,0,0,1-1.046.592,8.267,8.267,0,0,1-1.163.317c-.78.215-1.716-.05-2.188.717a4.572,4.572,0,0,1-2.188,1.3,4.651,4.651,0,0,1-1.306.159,6.645,6.645,0,0,1-1.3-.2.79.79,0,0,0-.571.1,4.728,4.728,0,0,0-.5.418,5.154,5.154,0,0,1-1.152.742,7.19,7.19,0,0,1-2.709.565l-2.808.2.1-.1a1.194,1.194,0,0,1-2.382-.061l.178.079a1.791,1.791,0,0,1-2.686-.687l.208-.01a.815.815,0,0,1-.567.535,1.171,1.171,0,0,1-.8-.041,2.626,2.626,0,0,1-1.069-1.145l.2-.028a1.336,1.336,0,1,1-2.575-.717l.082.141a1.6,1.6,0,0,1-1.093-1.149,1.615,1.615,0,0,1,.377-1.623l.049.2a1.616,1.616,0,0,1-.986-2.173l.1.167a1.671,1.671,0,0,1-1.321-.84l.219-.055a.607.607,0,0,1-.158.4.8.8,0,0,1-.355.213,1.325,1.325,0,0,1-.785-.016,1.981,1.981,0,0,1-1.076-1.1,2.04,2.04,0,0,1-.016-1.566,2.152,2.152,0,0,1,1.093-1.155l-.066.14a.875.875,0,0,1,.046-.578l.055.152a1.01,1.01,0,0,1-.483-.611l.03.05a1.769,1.769,0,0,1-.337-1.755,3.859,3.859,0,0,1,1.036-1.557l.1.2a1.187,1.187,0,0,1-1.043-.4l.062.038a1.5,1.5,0,0,1-.869-.534l.037.032a.9.9,0,0,1-.484-.7.985.985,0,0,1,.311-.837l.087.21a.458.458,0,0,1-.391-.169.7.7,0,0,1-.145-.374.873.873,0,0,1,.254-.729c.395-.347.907-.4,1.267-.644l-.034.035a5.681,5.681,0,0,1,2.714-2.19l-.014.219-.967-.518-.733-.393a5.929,5.929,0,0,1-.738-.428.719.719,0,0,1-.253-.414.9.9,0,0,1,.045-.47,2.024,2.024,0,0,1,.484-.723,4.62,4.62,0,0,1,1.362-.984,4.564,4.564,0,0,1,.79-.29,1.242,1.242,0,0,1,.45-.036.532.532,0,0,1,.424.272l-.174-.046a3.436,3.436,0,0,1,1.517-.476c.26-.028.51-.059.779-.068a1.3,1.3,0,0,1,.807.2l-.174.158c-.255-.436-.824-.64-1.182-1.122a.9.9,0,0,1-.163-.887.778.778,0,0,1,.314-.359.533.533,0,0,1,.5-.034l-.086.222a.538.538,0,0,1-.341-.325.793.793,0,0,1-.036-.44.764.764,0,0,1,.2-.392,1.128,1.128,0,0,1,.344-.241,2.961,2.961,0,0,1,.759-.2,1.317,1.317,0,0,1,.413-.007.493.493,0,0,1,.387.269l-.227.043a.854.854,0,0,1,1.529-.357l-.2-.013a1.025,1.025,0,0,1,1.49-.1l-.16-.006a1.292,1.292,0,0,1,1.612.037l-.166.165-.845-1.033a1.521,1.521,0,0,1-.363-.6.8.8,0,0,1-.025-.383.347.347,0,0,1,.337-.29l.023.231a.793.793,0,0,1-.78-.415.982.982,0,0,1-.089-.868,1.523,1.523,0,0,1,1.4-.832h.051l.036.038.561.6-.163,0a1.177,1.177,0,0,1,1.974,1.031l-.206-.082a.551.551,0,0,1,.53-.212.753.753,0,0,1,.482.254,1.712,1.712,0,0,1,.306.938l-.2-.062a1.02,1.02,0,0,1,1.7.6l-.176-.086a3.076,3.076,0,0,1,1.535-.564l-.075.182a1.156,1.156,0,0,1,1.245-1.845l-.143.111a1.137,1.137,0,0,1,1.325-1.138l-.13.093a1.272,1.272,0,0,1,.381-.743,1.088,1.088,0,0,1,.765-.333.834.834,0,0,1,.7.456,1.419,1.419,0,0,1,.114.8,6.685,6.685,0,0,1-.43,1.461l-.5,1.393-.159-.118,1.877-1.4.918-.683a2.456,2.456,0,0,1,.5-.327.458.458,0,0,1,.344.032c.1.045.171.1.244.122a1.488,1.488,0,0,0,.518.01.733.733,0,0,1,.57.235,1.214,1.214,0,0,1,.183,1.133,2.105,2.105,0,0,1-.674.894,6.865,6.865,0,0,0-.766.717l-.069-.155,1.509.06-.1.085a1.606,1.606,0,0,1,1.9-1.384l-.109.069a1.035,1.035,0,0,1,.721-.715,3.715,3.715,0,0,1,.958-.183,2.747,2.747,0,0,1,.963.047,1.18,1.18,0,0,1,.758.592,1.747,1.747,0,0,1-.2,1.782,5.038,5.038,0,0,1-1.311,1.158l.029-.094a.619.619,0,0,0,.545.349,1.525,1.525,0,0,0,.7-.1,5.094,5.094,0,0,1,.716-.226,1.12,1.12,0,0,1,.752.1c.449.237.729.65,1.136.811a6.207,6.207,0,0,0,.664.128.87.87,0,0,1,.477.518l.47,1.211a.767.767,0,0,1-.008.66.876.876,0,0,1-.519.386,1.426,1.426,0,0,1-.62.048,2.866,2.866,0,0,1-.572-.175,2.979,2.979,0,0,0-1.059-.3l.018-.116a7.115,7.115,0,0,1,1.266.512,2.287,2.287,0,0,1,.918.866,1.682,1.682,0,0,1,.156,1.151,1.037,1.037,0,0,1-.7.788l.012-.006a1.8,1.8,0,0,1-1,.35l.04-.05a8.949,8.949,0,0,0,1.02,2.732l-.027-.015a5.279,5.279,0,0,1,1.415.083,1.971,1.971,0,0,1,.882.445,1.351,1.351,0,0,1,.332.476.839.839,0,0,1,.055.182,1.411,1.411,0,0,0-.408-.635,1.962,1.962,0,0,0-.871-.423,5.31,5.31,0,0,0-1.4-.067h-.018l-.01-.016a8.878,8.878,0,0,1-1.051-2.745l-.01-.048.05,0a1.723,1.723,0,0,0,.949-.339l.007,0h.005a.944.944,0,0,0,.632-.724,1.586,1.586,0,0,0-.153-1.079,2.184,2.184,0,0,0-.881-.818,6.961,6.961,0,0,0-1.247-.5l-.355-.115h.373a3.075,3.075,0,0,1,1.1.3,2.748,2.748,0,0,0,.545.166,1.3,1.3,0,0,0,.563-.046.75.75,0,0,0,.442-.326.634.634,0,0,0,0-.551l-.471-1.2a.736.736,0,0,0-.4-.44,5.237,5.237,0,0,1-.671-.128c-.459-.189-.743-.607-1.149-.812a1.631,1.631,0,0,0-1.35.141,1.68,1.68,0,0,1-.773.114.775.775,0,0,1-.677-.447l-.022-.059.051-.036a4.894,4.894,0,0,0,1.267-1.122,1.584,1.584,0,0,0,.186-1.608,1.009,1.009,0,0,0-.653-.506,2.584,2.584,0,0,0-.9-.038,3.557,3.557,0,0,0-.912.176.858.858,0,0,0-.607.585l-.018.091-.091-.022a1.428,1.428,0,0,0-1.671,1.223l-.008.089-.088,0-1.509-.057-.191-.007.121-.147a6.925,6.925,0,0,1,.785-.74,1.932,1.932,0,0,0,.615-.807,1.03,1.03,0,0,0-.143-.945.534.534,0,0,0-.423-.169,1.57,1.57,0,0,1-.589-.021c-.2-.084-.335-.2-.46-.15a2.651,2.651,0,0,0-.439.3l-.917.685-1.874,1.4-.274.2.115-.322.5-1.393a6.607,6.607,0,0,0,.416-1.413,1.217,1.217,0,0,0-.092-.681.623.623,0,0,0-.52-.341,1.027,1.027,0,0,0-.926.888l-.014.12-.116-.026a.925.925,0,0,0-1.061.913l.011.162-.154-.052a.936.936,0,0,0-1.008,1.495l.14.164-.216.018a2.854,2.854,0,0,0-1.423.524l-.172.123,0-.21a.8.8,0,0,0-1.31-.463l-.168.192-.029-.254a1.511,1.511,0,0,0-.255-.817c-.154-.194-.526-.253-.651-.06l-.287.441.081-.523a.949.949,0,0,0-1.591-.831l-.084.08-.079-.085-.562-.6.087.036a1.3,1.3,0,0,0-1.188.689c-.181.407.174,1.036.619.965l.023.231c-.073.009-.1.03-.12.108a.578.578,0,0,0,.022.269,1.3,1.3,0,0,0,.319.519l.846,1.032-.166.165a1.061,1.061,0,0,0-1.31-.038l-.084.072-.076-.078a.793.793,0,0,0-1.134.08l-.112.152-.085-.165a.623.623,0,0,0-1.086.254l-.015.6-.212-.554c-.056-.147-.321-.164-.546-.125a2.743,2.743,0,0,0-.694.183.657.657,0,0,0-.411.462c-.043.207.036.445.211.491l-.086.222c-.169-.09-.409.066-.494.273a.663.663,0,0,0,.137.65c.291.416.864.612,1.2,1.141l.314.5-.488-.343c-.366-.258-.918-.132-1.415-.09a3.206,3.206,0,0,0-1.412.438l-.118.079-.057-.124c-.075-.165-.366-.174-.6-.111a4.369,4.369,0,0,0-2.037,1.207,1.8,1.8,0,0,0-.431.636.522.522,0,0,0,.136.62,6.145,6.145,0,0,0,.7.4l.733.393.967.519.234.125-.248.094a5.443,5.443,0,0,0-2.6,2.1l-.014.021-.02.013c-.433.28-.93.337-1.239.622a.638.638,0,0,0-.175.525c.019.194.127.345.281.327l.379-.046-.291.256a.746.746,0,0,0-.231.63.655.655,0,0,0,.362.52l.023.012.014.02a1.259,1.259,0,0,0,.736.447l.037.01.025.029a.95.95,0,0,0,.826.323l.358-.057-.255.259a3.641,3.641,0,0,0-.977,1.456,1.535,1.535,0,0,0,.276,1.52l.021.021.009.03a.771.771,0,0,0,.365.468l.1.05-.045.1a.636.636,0,0,0-.036.422l.028.1-.094.042a1.916,1.916,0,0,0-.97,1.027,1.8,1.8,0,0,0,.014,1.387,1.766,1.766,0,0,0,.932.97,1.092,1.092,0,0,0,.641.015.427.427,0,0,0,.348-.391v-.459l.221.4a1.437,1.437,0,0,0,1.131.721l.173.01-.076.157a1.389,1.389,0,0,0,.837,1.849l.206.051-.157.145a1.387,1.387,0,0,0-.314,1.392,1.369,1.369,0,0,0,.928.99l.114.027-.033.114a1.11,1.11,0,1,0,2.139.6l.068-.255.136.227a2.434,2.434,0,0,0,.966,1.057.786.786,0,0,0,1.061-.351l.086-.322.122.313a1.574,1.574,0,0,0,2.342.6l.17-.143.007.222a.98.98,0,0,0,1.955.05l.007-.09.091-.006,2.808-.2a7,7,0,0,0,2.638-.541,4.981,4.981,0,0,0,1.108-.711,4.776,4.776,0,0,1,.524-.436.994.994,0,0,1,.7-.126,6.566,6.566,0,0,0,1.281.2,4.482,4.482,0,0,0,1.251-.15,4.38,4.38,0,0,0,2.1-1.245,2.441,2.441,0,0,1,.472-.436,1.432,1.432,0,0,1,.623-.186,9.82,9.82,0,0,0,1.2-.147,8.038,8.038,0,0,0,1.138-.307,2.743,2.743,0,0,0,.983-.549.993.993,0,0,0,.337-.954.709.709,0,0,0-.674-.629l-.077.006-.014-.076a1.477,1.477,0,0,1,.109-.923.924.924,0,0,1,.751-.518.654.654,0,0,1,.729.484.6.6,0,0,1-.409.739l.026-.148a.915.915,0,0,0,1.016-.125,1.036,1.036,0,0,0,.431-.931,1.463,1.463,0,0,0-1.517-1.168l-.1.005.021-.094a3.44,3.44,0,0,0-.058-1.661l-.087-.3.207.23a1.185,1.185,0,0,0,1.611.084l.053-.051.045.06a2.275,2.275,0,0,0,1.084.822,1.357,1.357,0,0,0,1.232-.186.9.9,0,0,0,.364-1.053.825.825,0,0,0-.855-.58l-.108.02.05-.1a1.06,1.06,0,0,0-1.028-1.466l-.061.011.006-.063a1.689,1.689,0,0,0-1.129-1.718l.031-.074a.874.874,0,0,0,1.206-.55l.015-.077.046.064a.842.842,0,0,0,.708.324,1.833,1.833,0,0,0,.7-.156,2.171,2.171,0,0,0,.883-.67.991.991,0,0,0,.185-.638C211.234,246.061,211.208,245.987,211.215,245.986Z" transform="translate(-173.387 -229.193)"/><g transform="translate(12.495 9.16)"><path class="o" d="M213.483,277.128c-.139-1.475-.244-2.64-.232-2.641s5-1.04,4.808-6.084c-.094-2.436-.694-7.435-1.29-11.955a9.406,9.406,0,0,0-9.8-8.164l-.486.024c-5.229.573-7.664,5.334-6.947,10.545l1.729,19.132,3.443,7.108c3.183,3.077,9.223-3.56,8.778-7.965Z" transform="translate(-199.41 -248.271)"/><g transform="translate(7.207 24.605)"><path class="p" d="M221.082,301.124a12.194,12.194,0,0,1-6.662-1.608s1.747,3.764,6.755,3.055Z" transform="translate(-214.42 -299.516)"/></g><g transform="translate(14.977 11.929)"><path class="d" d="M232.038,273.732a.721.721,0,0,1-.657.761.689.689,0,0,1-.775-.611.721.721,0,0,1,.656-.762A.69.69,0,0,1,232.038,273.732Z" transform="translate(-230.603 -273.116)"/></g><g transform="translate(13.568 9.628)"><path class="d" d="M230.516,269.011c-.085.1-.651-.278-1.425-.236s-1.323.458-1.411.367c-.044-.04.039-.214.277-.407a1.977,1.977,0,0,1,1.124-.41,1.9,1.9,0,0,1,1.14.3C230.469,268.8,230.558,268.967,230.516,269.011Z" transform="translate(-227.669 -268.324)"/></g><g transform="translate(7.853 12.273)"><path class="d" d="M217.2,274.449a.721.721,0,0,1-.657.762.69.69,0,0,1-.775-.612.721.721,0,0,1,.657-.762A.689.689,0,0,1,217.2,274.449Z" transform="translate(-215.765 -273.833)"/></g><g transform="translate(5.995 10.327)"><path class="d" d="M214.745,270.466c-.085.1-.651-.277-1.426-.236s-1.322.458-1.411.367c-.043-.04.038-.214.278-.407a1.975,1.975,0,0,1,1.124-.41,1.9,1.9,0,0,1,1.14.3C214.7,270.257,214.786,270.422,214.745,270.466Z" transform="translate(-211.897 -269.779)"/></g><g transform="translate(11.235 10.389)"><path class="d" d="M223.5,276.346a5.16,5.16,0,0,1,1.246-.291c.2-.03.382-.079.409-.216a1.01,1.01,0,0,0-.162-.58l-.661-1.476a25.9,25.9,0,0,1-1.514-3.873,25.981,25.981,0,0,1,1.822,3.742l.638,1.487a1.148,1.148,0,0,1,.142.771.5.5,0,0,1-.311.306,1.356,1.356,0,0,1-.334.064A5.022,5.022,0,0,1,223.5,276.346Z" transform="translate(-222.81 -269.909)"/></g><g transform="translate(5.376 7.88)"><path class="d" d="M214.124,265.191c-.065.215-.844.156-1.747.313-.906.139-1.625.444-1.755.262-.059-.088.059-.293.344-.512a3.084,3.084,0,0,1,2.668-.437C213.975,264.932,214.152,265.089,214.124,265.191Z" transform="translate(-210.607 -264.684)"/></g><g transform="translate(13.326 7.019)"><path class="d" d="M229.809,263.6c-.123.185-.669.042-1.311.081-.643.016-1.175.2-1.313.03-.061-.085.011-.267.236-.451a1.9,1.9,0,0,1,2.114-.089C229.775,263.332,229.863,263.508,229.809,263.6Z" transform="translate(-227.164 -262.891)"/></g><g transform="translate(10.326 18.007)"><g transform="translate(0.197 0.147)"><path class="p" d="M223.6,286.7a3.278,3.278,0,0,1-.328.87,1.1,1.1,0,0,1-.727.538.988.988,0,0,1-.88-.36,1.577,1.577,0,0,1-.337-.918c-.02-.3.077-.669.369-.737a.75.75,0,0,1,.368.039l1.624.457" transform="translate(-221.327 -286.08)"/></g><path class="d" d="M222.909,287.887a2.265,2.265,0,0,1-.84-.01,1.193,1.193,0,0,1-.69-.5,1.258,1.258,0,0,1-.134-1.015,1.142,1.142,0,0,1,.11-.247c.054-.072.043-.067.111-.065s.173.047.26.07l.267.075c.348.1.662.181.927.248a2.869,2.869,0,0,0,.875.161,2.835,2.835,0,0,0-.818-.35c-.258-.091-.566-.194-.91-.305l-.264-.085a2.755,2.755,0,0,0-.3-.085.368.368,0,0,0-.23.033.424.424,0,0,0-.156.155,1.359,1.359,0,0,0-.142.314,1.469,1.469,0,0,0,.186,1.238,1.34,1.34,0,0,0,.86.55,1.266,1.266,0,0,0,.677-.049C222.851,287.962,222.917,287.9,222.909,287.887Z" transform="translate(-220.916 -285.775)"/></g></g><g transform="translate(5.058 4.579)"><g transform="translate(3.495 3.879)"><path class="d" d="M213.564,251.416a5.7,5.7,0,0,0-.159-.748,2.3,2.3,0,0,0-.73-.9,7.782,7.782,0,0,0-3.326-2.033c-.751-.145-1.514-.025-2.267-.163a13.017,13.017,0,0,1-1.375-.4,11.029,11.029,0,0,0-5.728.048,9.079,9.079,0,0,0-3,1.186,11.022,11.022,0,0,0-2.593,2.672,16.8,16.8,0,0,0-2.755,5.123,8.212,8.212,0,0,0-.15,4.684,3.972,3.972,0,0,0,3,2.983l.428-.666.689-.992c-.1.385.022.349.348.509a.644.644,0,0,0,.868-.386c.289.289.794-.124.655-.536.324.123.656-.337.5-.7.367.082.49-.509.617-.911a6.008,6.008,0,0,1,.271-.623,3.927,3.927,0,0,0,.263-2.169,3.839,3.839,0,0,0,.356-2.138q-.017-.7-.033-1.4l.209-.357a.756.756,0,0,0,.6.641,1.613,1.613,0,0,0,.833-.135l.8-.28.534.074a2.1,2.1,0,0,0,.347,1.318,1.3,1.3,0,0,0,.584.678.392.392,0,0,0,.481-.495.436.436,0,0,0,.652-.2,1.432,1.432,0,0,0,.062-.875,3.661,3.661,0,0,0-.95-1.9l1.623,1.132a.672.672,0,0,0,.381.164.382.382,0,0,0,.463.359.987.987,0,0,0,.477-.435c.3-.416.573-1.091.2-1.458a.312.312,0,0,0,.072-.473l1.8,1c-.176-.071-.318.207-.252.411a.869.869,0,0,0,.408.432,1.281,1.281,0,0,0-.075.8c-.33-.22-.7.329-.543.735a.926.926,0,0,0,.955.545.644.644,0,0,0,.654-.577c.367.024.64-.516.454-.9.282.135.441-.361.4-.713a5.092,5.092,0,0,0-.52-1.768.1.1,0,0,0,.136.019.109.109,0,0,0,.025-.073l1.158,1.958a5.268,5.268,0,0,1,.77,1.783c.044.266.127.626.354.617a.335.335,0,0,0,.169-.072,3.373,3.373,0,0,0,1.215-1.913,2.543,2.543,0,0,0,.11-.816A10.883,10.883,0,0,0,213.564,251.416Z" transform="translate(-191.201 -246.808)"/></g><g transform="translate(13.766 5.918)"><path class="n" d="M217.462,253.367a.777.777,0,0,0,.148-.428.55.55,0,0,0-.208-.443.588.588,0,0,0-.612-.064l-.121.062.036-.133a.615.615,0,0,0-.264-.659.6.6,0,0,0-.762.141l-.116-.08a.28.28,0,0,0,.031-.084.35.35,0,0,0-.093-.283.4.4,0,0,0-.274-.121.673.673,0,0,0-.307.06.85.85,0,0,1-.335.128c-.151,0-.233-.1-.316-.142a1.169,1.169,0,0,0-.261-.112,1.333,1.333,0,0,0-.512-.039,1.364,1.364,0,0,0-.692.279c-.141.112-.2.2-.212.189a.623.623,0,0,1,.176-.23,1.335,1.335,0,0,1,.715-.337,1.4,1.4,0,0,1,.556.025,1.258,1.258,0,0,1,.291.117c.1.051.178.125.254.12a.835.835,0,0,0,.279-.121.79.79,0,0,1,.371-.075.537.537,0,0,1,.369.164.487.487,0,0,1,.129.4.413.413,0,0,1-.05.133l-.116-.08a.716.716,0,0,1,1.254.637l-.085-.07a.688.688,0,0,1,.728.1.643.643,0,0,1,.093.862C217.5,253.347,217.465,253.37,217.462,253.367Z" transform="translate(-212.592 -251.055)"/></g><g transform="translate(16.188 4.391)"><path class="n" d="M223.661,252.093a.956.956,0,0,0,.205-.425.7.7,0,0,0-.109-.518.731.731,0,0,0-.6-.314l-.1,0,.056-.085a.87.87,0,0,0,.123-.788.466.466,0,0,0-.324-.27.371.371,0,0,0-.4.115l-.331.476.213-.54a.725.725,0,0,0-.051-.608.666.666,0,0,0-.537-.337.706.706,0,0,0-.454.115l-.15.1.041-.177c.059-.251-.223-.491-.468-.486a1.19,1.19,0,0,0-.7.291l-.122.091.021-.15a.513.513,0,0,0-.24-.468.955.955,0,0,0-.5-.14,2.432,2.432,0,0,0-.883.153,3.864,3.864,0,0,0-.7.378.655.655,0,0,1,.156-.146,2.315,2.315,0,0,1,.52-.3,2.4,2.4,0,0,1,.912-.188,1.052,1.052,0,0,1,.568.148.632.632,0,0,1,.3.581l-.1-.059a1.3,1.3,0,0,1,.783-.326.653.653,0,0,1,.44.181.5.5,0,0,1,.162.473l-.109-.074a.847.847,0,0,1,.546-.14.806.806,0,0,1,.648.409.858.858,0,0,1,.055.726l-.118-.064a.5.5,0,0,1,.544-.163.6.6,0,0,1,.405.348.975.975,0,0,1-.149.9l-.045-.084a.815.815,0,0,1,.674.374.771.771,0,0,1-.069.907C223.7,252.073,223.663,252.1,223.661,252.093Z" transform="translate(-217.637 -247.874)"/></g><g transform="translate(22.47 4.34)"><path class="n" d="M237.983,251.573a.521.521,0,0,0-.235-.352.672.672,0,0,0-.484-.1,1.994,1.994,0,0,0-.636.254l-.073.04v-.084a.6.6,0,0,0-.572-.509,1.75,1.75,0,0,0-.957.3l-.407.225.328-.33a.5.5,0,0,0-.143-.7,1.126,1.126,0,0,0-.892-.076l-.041.01-.268.066.2-.187a.533.533,0,0,0-.183-.824.807.807,0,0,0-.874.218l-.251.266.144-.337a1.207,1.207,0,0,0-.184-1.213,1.124,1.124,0,0,0-.9-.4,1.268,1.268,0,0,0-.639.181c-.134.082-.194.145-.2.138s.011-.02.038-.051a.839.839,0,0,1,.14-.122,1.243,1.243,0,0,1,.659-.225,1.2,1.2,0,0,1,.981.409,1.313,1.313,0,0,1,.22,1.334l-.107-.07a.934.934,0,0,1,1.026-.256.676.676,0,0,1,.375.46.6.6,0,0,1-.154.594l-.065-.121.043-.011a1.25,1.25,0,0,1,1.005.1.72.72,0,0,1,.277.425.518.518,0,0,1-.12.481l-.079-.1a1.839,1.839,0,0,1,1.034-.305.708.708,0,0,1,.66.626l-.074-.044a2.012,2.012,0,0,1,.673-.244.72.72,0,0,1,.526.131.5.5,0,0,1,.2.279A.2.2,0,0,1,237.983,251.573Z" transform="translate(-230.721 -247.769)"/></g><g transform="translate(18.799 1.656)"><path class="n" d="M229.063,242.179a.427.427,0,0,1-.173.093,2.394,2.394,0,0,1-.535.109,1.62,1.62,0,0,0-.759.232.5.5,0,0,0-.221.378.361.361,0,0,0,.2.386l-.085.082c-.055-.174-.292-.254-.509-.342a2.336,2.336,0,0,0-.692-.183.849.849,0,0,0-.645.2.562.562,0,0,0-.209.556l.047.167-.146-.095a1.562,1.562,0,0,0-.962-.238,1.764,1.764,0,0,0-.761.228,2.236,2.236,0,0,0-.539.47.553.553,0,0,1,.1-.169,1.493,1.493,0,0,1,.4-.369,1.758,1.758,0,0,1,.793-.269,1.646,1.646,0,0,1,1.043.239l-.1.073a.693.693,0,0,1,.244-.694.982.982,0,0,1,.747-.237,2.431,2.431,0,0,1,.735.194,2.928,2.928,0,0,1,.33.149.514.514,0,0,1,.254.283l.039.128-.124-.047a.484.484,0,0,1-.281-.52.615.615,0,0,1,.278-.458,1.633,1.633,0,0,1,.816-.222,3.046,3.046,0,0,0,.531-.07A1.7,1.7,0,0,1,229.063,242.179Z" transform="translate(-223.075 -242.177)"/></g><g transform="translate(14.846)"><path class="n" d="M217.5,238.746a1.454,1.454,0,0,0-.357.105.9.9,0,0,0-.315.272.768.768,0,0,0-.152.5l0,.076-.074-.014a.464.464,0,0,0-.466.361,1.41,1.41,0,0,0,.088.771l.083.266-.2-.2-.032-.031a.6.6,0,0,0-.507-.126.666.666,0,0,0-.425.266,1.061,1.061,0,0,0-.157.862,1.972,1.972,0,0,0,.245.578,1.09,1.09,0,0,1,.118.205c-.007.005-.07-.052-.164-.174a1.727,1.727,0,0,1-.3-.584,1.144,1.144,0,0,1,.149-.964.784.784,0,0,1,1.132-.166l.041.041-.12.068a1.5,1.5,0,0,1-.082-.851.583.583,0,0,1,.616-.439l-.07.062a.854.854,0,0,1,.194-.567.915.915,0,0,1,.363-.276.741.741,0,0,1,.285-.06C217.463,238.732,217.5,238.741,217.5,238.746Z" transform="translate(-214.843 -238.729)"/></g><g transform="translate(9.61 1.647)"><path class="n" d="M206.383,245.654c0,.008-.069.013-.189-.014a1.171,1.171,0,0,1-.463-.234,1.253,1.253,0,0,1-.422-.65.639.639,0,0,0-.148-.365c-.094-.086-.273-.122-.4-.268a.7.7,0,0,1,.039-.965l.009.1a2.248,2.248,0,0,1-.716-.737.908.908,0,0,1-.154-.365,3.892,3.892,0,0,1,.219.323,2.47,2.47,0,0,0,.72.67l.074.045-.065.058a.581.581,0,0,0-.021.774c.089.109.248.141.387.258a.734.734,0,0,1,.183.439,1.2,1.2,0,0,0,.36.6A1.777,1.777,0,0,0,206.383,245.654Z" transform="translate(-203.936 -242.158)"/></g><g transform="translate(4.341 5.184)"><path class="n" d="M199.073,250.974c0,.006-.038.019-.113.034a1.564,1.564,0,0,1-.335.021,1.874,1.874,0,0,1-1.114-.43l.09-.015a1.211,1.211,0,0,1-.753.554,1.25,1.25,0,0,1-.528.016.77.77,0,0,1-.495-.281,1.649,1.649,0,0,1-.085-.192.278.278,0,0,0-.106-.116.87.87,0,0,0-.342-.094,1.13,1.13,0,0,1-.38-.093.4.4,0,0,1-.249-.314l.1.048a1.242,1.242,0,0,1-.846.146,1.344,1.344,0,0,1-.61-.266,1.1,1.1,0,0,1-.283-.324.372.372,0,0,1-.056-.142,1.754,1.754,0,0,0,.385.4,1.322,1.322,0,0,0,.58.223,1.153,1.153,0,0,0,.763-.15l.087-.053.01.1a.274.274,0,0,0,.179.205,1.016,1.016,0,0,0,.339.077.983.983,0,0,1,.4.112.425.425,0,0,1,.159.174,1.843,1.843,0,0,0,.077.178.652.652,0,0,0,.4.22,1.131,1.131,0,0,0,.469-.011,1.1,1.1,0,0,0,.683-.482l.037-.061.053.046a1.907,1.907,0,0,0,1.042.452C198.909,250.989,199.071,250.958,199.073,250.974Z" transform="translate(-192.964 -249.526)"/></g><g transform="translate(0 7.714)"><path class="n" d="M184.025,259.63s-.011-.014-.023-.046a.785.785,0,0,1-.045-.141,1.488,1.488,0,0,1-.016-.563,3.3,3.3,0,0,1,.257-.837,3.067,3.067,0,0,1,.243-.487.833.833,0,0,1,.215-.223.372.372,0,0,1,.341-.05l-.079.07a.936.936,0,0,1,1.389-1.03l-.1.072a.646.646,0,0,1,.181-.56.62.62,0,0,1,.583-.161.638.638,0,0,1,.3.167l-.119.065a.4.4,0,0,1,.1-.349.552.552,0,0,1,.295-.178,1.275,1.275,0,0,1,.618.064l-.081.039a1,1,0,0,1,.54-.51,1.407,1.407,0,0,1,.683-.1,3.55,3.55,0,0,1,1.127.366l-.064.073a.25.25,0,0,1-.008-.246.427.427,0,0,1,.153-.156.72.72,0,0,1,.363-.111,2.039,2.039,0,0,1,.579.085,1.858,1.858,0,0,1,.341.138.383.383,0,0,1,.108.071c-.006.012-.159-.079-.463-.154a2.118,2.118,0,0,0-.562-.059.645.645,0,0,0-.314.108c-.1.063-.175.177-.109.272l.1.142-.163-.069a3.551,3.551,0,0,0-1.1-.337,1.281,1.281,0,0,0-.62.1.874.874,0,0,0-.466.444l-.024.055-.058-.015a1.159,1.159,0,0,0-.55-.06c-.165.034-.325.2-.287.36l.058.242-.177-.176a.5.5,0,0,0-.236-.128.479.479,0,0,0-.452.123.507.507,0,0,0-.144.436l.027.15-.131-.078a.827.827,0,0,0-.928.069.837.837,0,0,0-.273.814l.027.113-.107-.044c-.162-.066-.325.083-.424.224a3.14,3.14,0,0,0-.244.464,3.469,3.469,0,0,0-.278.809A1.892,1.892,0,0,0,184.025,259.63Z" transform="translate(-183.922 -254.795)"/></g><g transform="translate(1.013 10.415)"><path class="n" d="M186.507,266.517s-.032-.023-.083-.078a2.192,2.192,0,0,1-.205-.255,1,1,0,0,1-.187-.493.725.725,0,0,1,.058-.335.526.526,0,0,1,.27-.279l-.018.079a.657.657,0,0,1,.546-1.1l-.05.108a.528.528,0,0,1-.072-.622.783.783,0,0,1,.553-.365,2.992,2.992,0,0,0,.311-.048.27.27,0,0,0,.168-.2,1.159,1.159,0,0,1,.135-.327.607.607,0,0,1,.3-.229,3.454,3.454,0,0,1,.739-.129.813.813,0,0,0,.575-.264,3.069,3.069,0,0,0,.151-.294.705.705,0,0,1,.249-.259.742.742,0,0,1,.657-.062l-.069.1a.559.559,0,0,1-.02-.652.791.791,0,0,1,.483-.336,2.506,2.506,0,0,1,.927-.023,3.068,3.068,0,0,1,.578.137.693.693,0,0,1,.193.084,7.149,7.149,0,0,0-.779-.149,2.544,2.544,0,0,0-.891.048.686.686,0,0,0-.413.3.444.444,0,0,0,.014.512l.18.2-.249-.1a.618.618,0,0,0-.542.059.575.575,0,0,0-.2.212,2.868,2.868,0,0,1-.158.309.737.737,0,0,1-.3.233,1.652,1.652,0,0,1-.363.09,3.5,3.5,0,0,0-.708.122.47.47,0,0,0-.236.178,1.05,1.05,0,0,0-.119.295.411.411,0,0,1-.256.28,2.518,2.518,0,0,1-.329.05.655.655,0,0,0-.462.294.4.4,0,0,0,.042.469l.131.126-.181-.018a.557.557,0,0,0-.557.331.567.567,0,0,0,.1.577l.047.053-.065.027a.536.536,0,0,0-.288.52.985.985,0,0,0,.155.467C186.413,266.39,186.518,266.509,186.507,266.517Z" transform="translate(-186.031 -260.422)"/></g><g transform="translate(0.205 17.384)"><path class="n" d="M185.672,281.693a.318.318,0,0,1-.142-.024.974.974,0,0,1-.355-.2,1,1,0,0,1-.322-.555,1.072,1.072,0,0,1,.169-.82l.005.075a1.945,1.945,0,0,1-.466-.639.794.794,0,0,1-.034-.45.577.577,0,0,1,.278-.394l0,.125a.817.817,0,0,1-.456-.675.918.918,0,0,1,.075-.476.771.771,0,0,1,.318-.341.264.264,0,0,0,.16-.285,1.12,1.12,0,0,1,.033-.422,1.421,1.421,0,0,1,.435-.633c.168-.163.321-.317.469-.453a2.347,2.347,0,0,1,.791-.526,1.11,1.11,0,0,1,.253-.06c.06,0,.09,0,.091,0s-.123.021-.324.109a2.525,2.525,0,0,0-.742.547l-.454.464a1.322,1.322,0,0,0-.393.585,1,1,0,0,0-.024.379.4.4,0,0,1-.043.241.544.544,0,0,1-.174.167.729.729,0,0,0,.042,1.25l.13.056-.125.069a.559.559,0,0,0-.186.677,1.873,1.873,0,0,0,.428.6l.034.036-.028.039a.98.98,0,0,0-.171.734.956.956,0,0,0,.275.522A1.406,1.406,0,0,0,185.672,281.693Z" transform="translate(-184.35 -274.936)"/></g><g transform="translate(11.047 8.873)"><path class="n" d="M208.385,259.385a1.056,1.056,0,0,1-.437-.1,1.177,1.177,0,0,1-.423-.269.775.775,0,0,1-.226-.585.573.573,0,0,1,.035-.154l.044.092a.673.673,0,0,1-.411-.409.614.614,0,0,1,.022-.465c.119-.245.3-.294.3-.28a1.162,1.162,0,0,0-.208.315.545.545,0,0,0,.008.385.565.565,0,0,0,.338.32l.066.022-.023.07a.471.471,0,0,0-.025.117.676.676,0,0,0,.181.484,1.215,1.215,0,0,0,.368.266A2.174,2.174,0,0,1,208.385,259.385Z" transform="translate(-206.931 -257.209)"/></g><g transform="translate(11.607 7.346)"><path class="n" d="M212.005,255.749a.826.826,0,0,0,.022-.523.583.583,0,0,0-.393-.387.63.63,0,0,0-.65.2l-.075.1-.04-.115a1.163,1.163,0,0,0-.22-.387.53.53,0,0,0-.385-.2c-.227,0-.446.246-.357.421l-.128.046a1.073,1.073,0,0,0-.485-.637,1.049,1.049,0,0,0-.631-.14,1.634,1.634,0,0,0-.568.192c0-.005.034-.051.123-.112a1.061,1.061,0,0,1,.434-.165,1.1,1.1,0,0,1,.7.124,1.173,1.173,0,0,1,.558.7l-.128.046a.4.4,0,0,1,.078-.425.562.562,0,0,1,.4-.195.662.662,0,0,1,.493.245,1.264,1.264,0,0,1,.242.436l-.115-.019a.742.742,0,0,1,.787-.229.664.664,0,0,1,.439.472.679.679,0,0,1-.02.421C212.049,255.714,212.01,255.752,212.005,255.749Z" transform="translate(-208.095 -254.03)"/></g></g><g transform="translate(10 23.343)"><path class="o" d="M197.462,277.918c-.088-.033-3.516-.849-3.231,2.592s3.681,2.445,3.679,2.345S197.462,277.918,197.462,277.918Z" transform="translate(-194.214 -277.811)"/><g transform="translate(0.887 1.158)"><path class="p" d="M197.711,282.893c-.016-.01-.057.047-.154.1a.6.6,0,0,1-.447.046,1.488,1.488,0,0,1-.8-1.274,1.992,1.992,0,0,1,.1-.872.694.694,0,0,1,.413-.5.306.306,0,0,1,.367.135c.054.092.038.163.057.167s.069-.064.029-.2a.38.38,0,0,0-.153-.2.454.454,0,0,0-.339-.061.845.845,0,0,0-.582.585,2.041,2.041,0,0,0-.129.977,1.562,1.562,0,0,0,1,1.414.644.644,0,0,0,.541-.137C197.711,282.977,197.723,282.9,197.711,282.893Z" transform="translate(-196.061 -280.223)"/></g></g></g><g transform="translate(0 81.906)"><g transform="translate(0 1.22)"><path class="d" d="M193.45,405.542l-30.087.41s-8.414-3.521-10.726-3.615-6.9.2-9.023,3.615c-2.194,3.531-2.5,9.761,4.26,14.289,6.584,4.409,36.692,8.483,40.819,8.108l7.608-10.212s.08-8.369,0-8.768-1.355-3.986-1.355-3.986Z" transform="translate(-142.215 -402.322)"/></g><g transform="translate(17.635 18.568)"><path class="m" d="M194.532,438.454l-15.589,5.79,7.105,19.432c1.815-.792,1.866-12.208,1.866-12.208l10.141-3.3Z" transform="translate(-178.943 -438.454)"/><g class="q" transform="translate(6.161 6.36)"><path class="g" d="M193.229,452.039a.845.845,0,0,0-1.106-.217.812.812,0,0,0-.225,1.094.891.891,0,0,0,1.172.225.843.843,0,0,0,.108-1.165" transform="translate(-191.774 -451.701)"/></g><g transform="translate(0 5.206)"><path class="d" d="M178.943,449.881l1.574-.584,6.237,18.888s-.06,1-.705,1.128Z" transform="translate(-178.943 -449.297)"/></g><g transform="translate(7.437 11.882)"><path class="d" d="M196.18,464.613c-.1.032-.313-.427-.788-.783s-.966-.458-.96-.559c-.013-.095.605-.16,1.174.28S196.275,464.6,196.18,464.613Z" transform="translate(-194.432 -463.202)"/></g><g transform="translate(7.161 14.745)"><path class="d" d="M195.784,470.058c-.084.055-.4-.3-.915-.472s-.978-.113-1.008-.209c-.047-.083.484-.352,1.126-.122S195.874,470.023,195.784,470.058Z" transform="translate(-193.858 -469.163)"/></g><g transform="translate(7.067 17.352)"><path class="d" d="M193.665,474.931c-.052-.079.375-.384.983-.33s.978.422.914.491-.443-.1-.943-.141S193.71,475.021,193.665,474.931Z" transform="translate(-193.661 -474.594)"/></g><g transform="translate(10.552 10.299)"><path class="d" d="M201.78,461.889c-.1-.008-.129-.491-.362-1.014s-.555-.88-.491-.958.548.2.814.819S201.872,461.909,201.78,461.889Z" transform="translate(-200.92 -459.903)"/></g><g transform="translate(13.128 7.583)"><path class="d" d="M206.706,457.643a1.939,1.939,0,0,1-.351-.975,4.642,4.642,0,0,1-.06-1.132,4.919,4.919,0,0,1,.092-.667,1.274,1.274,0,0,1,.121-.377.44.44,0,0,1,.489-.228.554.554,0,0,1,.369.336,1.349,1.349,0,0,1,.083.384,3.7,3.7,0,0,1,.014.681,3.638,3.638,0,0,1-.261,1.113c-.252.6-.551.887-.581.861-.047-.032.17-.36.347-.944a4.134,4.134,0,0,0,.172-1.047,3.83,3.83,0,0,0-.032-.622c-.021-.226-.084-.4-.194-.421-.042-.006-.057,0-.1.061a1.035,1.035,0,0,0-.088.277,5.458,5.458,0,0,0-.106.621,5.739,5.739,0,0,0-.016,1.073A7.205,7.205,0,0,1,206.706,457.643Z" transform="translate(-206.284 -454.247)"/></g><g transform="translate(13.366 10.043)"><path class="d" d="M206.782,460.233c-.027-.028.244-.341.846-.6a3.36,3.36,0,0,1,1.114-.257,3.4,3.4,0,0,1,.681.032.856.856,0,0,1,.718.441.484.484,0,0,1-.123.506,1.4,1.4,0,0,1-.32.23,2.294,2.294,0,0,1-.655.24,2.382,2.382,0,0,1-1.158-.048c-.642-.2-.9-.55-.871-.57a8.329,8.329,0,0,0,.93.328,2.379,2.379,0,0,0,1.027-.026,2.128,2.128,0,0,0,.556-.223c.2-.106.334-.244.284-.314-.034-.1-.25-.2-.443-.224a3.463,3.463,0,0,0-.616-.048,3.725,3.725,0,0,0-1.04.167C207.134,460.048,206.816,460.279,206.782,460.233Z" transform="translate(-206.78 -459.371)"/></g></g><g transform="translate(41.809 16.167)"><path class="m" d="M233.565,433.453l15.086,7-8.61,18.813c-1.747-.932-.9-12.317-.9-12.317l-9.85-4.087Z" transform="translate(-229.291 -433.453)"/><g class="q" transform="translate(11.524 7.018)"><path class="g" d="M253.465,448.356a.845.845,0,0,1,1.12-.13.812.812,0,0,1,.139,1.109.891.891,0,0,1-1.187.132.843.843,0,0,1-.016-1.17" transform="translate(-253.292 -448.07)"/></g><g transform="translate(10.136 6.291)"><path class="d" d="M259.625,447.262l-1.523-.706-7.7,18.34s-.019,1,.615,1.18Z" transform="translate(-250.401 -446.556)"/></g><g transform="translate(9.588 12.465)"><path class="d" d="M249.287,460.7c.093.039.345-.4.847-.718s1-.381,1-.482c.021-.093-.591-.207-1.192.187S249.193,460.686,249.287,460.7Z" transform="translate(-249.261 -459.414)"/></g><g transform="translate(9.512 15.308)"><path class="d" d="M249.118,466.13c.079.062.418-.265.949-.4.528-.15.984-.036,1.022-.13.054-.08-.455-.39-1.112-.21S249.031,466.088,249.118,466.13Z" transform="translate(-249.102 -465.336)"/></g><g transform="translate(9.467 17.897)"><path class="d" d="M250.918,471.134c.058-.074-.343-.412-.954-.407s-1.008.344-.949.418.449-.069.951-.066S250.867,471.221,250.918,471.134Z" transform="translate(-249.009 -470.727)"/></g><g transform="translate(7.384 10.659)"><path class="d" d="M244.758,457.569c.1,0,.168-.48.44-.983s.622-.833.565-.917-.563.155-.876.752S244.666,457.581,244.758,457.569Z" transform="translate(-244.669 -455.653)"/></g><g transform="translate(4.846 7.704)"><path class="d" d="M239.983,452.9a1.941,1.941,0,0,0,.426-.944,4.65,4.65,0,0,0,.148-1.124,4.942,4.942,0,0,0-.039-.673,1.28,1.28,0,0,0-.092-.386.441.441,0,0,0-.47-.266.553.553,0,0,0-.394.306,1.362,1.362,0,0,0-.113.375,3.74,3.74,0,0,0-.067.678,3.661,3.661,0,0,0,.173,1.13c.2.621.48.928.511.9.049-.028-.141-.372-.271-.968a4.157,4.157,0,0,1-.089-1.057,3.842,3.842,0,0,1,.081-.617c.039-.223.115-.394.227-.4.042,0,.057,0,.1.069a1.035,1.035,0,0,1,.066.283,5.529,5.529,0,0,1,.057.628,5.748,5.748,0,0,1-.068,1.071A7.1,7.1,0,0,0,239.983,452.9Z" transform="translate(-239.383 -449.498)"/></g><g transform="translate(2.271 10.007)"><path class="d" d="M237.382,455.334c.029-.026-.217-.359-.8-.665a3.346,3.346,0,0,0-1.772-.365.856.856,0,0,0-.751.383.484.484,0,0,0,.083.514,1.415,1.415,0,0,0,.3.255,2.319,2.319,0,0,0,.634.291,2.391,2.391,0,0,0,1.158.043c.656-.145.941-.478.913-.5a8.548,8.548,0,0,1-.953.254,2.385,2.385,0,0,1-1.022-.108,2.119,2.119,0,0,1-.536-.266c-.187-.121-.314-.269-.259-.335a.592.592,0,0,1,.46-.188,3.437,3.437,0,0,1,.617,0,3.708,3.708,0,0,1,1.024.248C237.046,455.122,237.345,455.378,237.382,455.334Z" transform="translate(-234.021 -454.296)"/></g></g><g transform="translate(25.614)"><path class="d" d="M222.679,404.062s12.993-4.852,17.775-4.224c2.674.351,6.855,2.391,7.174,5.819s-.518,8.012-5.141,10.244-23.075,10.512-27.459,11.788-15.315,4.262-15.315,4.262l-4.153-11.834s22.654-7.844,23.85-8.721a26.844,26.844,0,0,1,4.224-2.072Z" transform="translate(-195.561 -399.781)"/></g><g transform="translate(7.566 5.092)"><path class="n" d="M157.973,411.184a.459.459,0,0,0,.09-.024l.261-.079c.23-.069.568-.168,1.011-.273a11.09,11.09,0,0,1,3.815-.281,12.682,12.682,0,0,1,2.6.5,9,9,0,0,1,1.371.535l1.415.69c1.944.929,4.114,1.88,6.427,2.794A76.939,76.939,0,0,0,187.2,418.5c1.59.351,2.875.641,3.76.852l1.02.242.266.06a.047.047,0,1,0,0-.014l-.263-.073c-.231-.062-.572-.157-1.014-.267-.882-.227-2.164-.531-3.752-.9a80.339,80.339,0,0,1-12.212-3.489c-2.309-.912-4.478-1.859-6.422-2.78l-1.415-.684a9.121,9.121,0,0,0-1.392-.536,12.6,12.6,0,0,0-2.625-.483,11.808,11.808,0,0,0-2.2.018,11.578,11.578,0,0,0-1.633.308c-.442.114-.779.222-1.006.3l-.257.093A.441.441,0,0,0,157.973,411.184Z" transform="translate(-157.973 -410.387)"/></g><g transform="translate(8.249 3.831)"><path class="n" d="M159.4,408.106c0,.023.4-.048,1.032-.117a15.564,15.564,0,0,1,4.968.255c.626.133,1.007.244,1.014.222a1.07,1.07,0,0,0-.26-.1c-.17-.06-.42-.134-.732-.214a13.023,13.023,0,0,0-5-.257c-.319.047-.575.095-.75.137A1.091,1.091,0,0,0,159.4,408.106Z" transform="translate(-159.396 -407.761)"/></g><g transform="translate(58.197 5.044)"><path class="n" d="M263.424,412.959c.015.02.375-.259,1-.645a13.23,13.23,0,0,1,5.348-1.887c.727-.091,1.182-.1,1.182-.124a1.4,1.4,0,0,0-.32-.017,8.565,8.565,0,0,0-.872.042,11.817,11.817,0,0,0-5.391,1.9,8.458,8.458,0,0,0-.705.514A1.379,1.379,0,0,0,263.424,412.959Z" transform="translate(-263.423 -410.286)"/></g><g transform="translate(25.656 1.356)"><path class="n" d="M221.67,426.616s-.035.012-.1.039l-.295.124c-.262.106-.64.285-1.148.48-1.012.4-2.508.952-4.425,1.583-3.838,1.254-9.355,2.852-15.956,4.515l.074.04L195.8,422.247l-.039.088,4.974-2.042,27.525-11.328.009,0,.007-.007c1.12-1.186,2.151-2.231,3.118-3.074a21.078,21.078,0,0,1,2.613-1.969,19.325,19.325,0,0,1,1.793-1l.482-.225c.108-.051.162-.08.162-.08s-.057.021-.167.068l-.488.213a17.893,17.893,0,0,0-1.809.981,20.739,20.739,0,0,0-2.635,1.957c-.974.84-2.012,1.883-3.137,3.065l.016-.011-27.541,11.285-4.974,2.043-.062.025.023.063,4.028,11.145.02.054.055-.014c6.6-1.675,12.116-3.29,15.95-4.566,1.915-.641,3.408-1.2,4.416-1.618.507-.2.883-.386,1.141-.5l.291-.133C221.639,426.634,221.67,426.616,221.67,426.616Z" transform="translate(-195.649 -402.605)"/></g></g><g transform="translate(9.194 37.527)"><g transform="translate(9.536)"><path class="m" d="M188.9,309.456l2.933-1.674s2.671,3.124,6.313,2.741a9.153,9.153,0,0,0,5.8-3.171l10.862,2.212h0a5.335,5.335,0,0,1,3.329,2.422l-1.716,17.043v.021l-.812,28.494-28.479-.811L181.224,313S188.608,309.456,188.9,309.456Z" transform="translate(-181.224 -307.352)"/></g><g transform="translate(44.618 9.739)"><path class="d" d="M254.5,327.636c-.04,0-.115,3.531-.166,7.887s-.06,7.89-.02,7.89.115-3.53.166-7.888S254.54,327.636,254.5,327.636Z" transform="translate(-254.289 -327.636)"/></g><g transform="translate(0 5.649)"><path class="m" d="M170.9,319.118s-3.9,2.248-4.693,4.889c-.48,1.6-4.121,22.121-4.7,26.166-.581,4.085.639,7.043,2.364,8.385s6.955,3.13,6.955,3.13l7.358,2.383L180.3,358.7l-7-10.061.677-6.778Z" transform="translate(-161.362 -319.118)"/><g transform="translate(6.088 27.121)"><path class="d" d="M174.043,375.606c0,.015.242.039.672.121a8.255,8.255,0,0,1,1.764.561,11.474,11.474,0,0,1,2.348,1.418,20.528,20.528,0,0,1,2.474,2.287c.815.879,1.558,1.75,2.257,2.522a27.247,27.247,0,0,0,1.94,1.976,13.753,13.753,0,0,0,1.458,1.167c.179.129.328.213.426.276a.82.82,0,0,0,.155.086.8.8,0,0,0-.139-.11c-.092-.071-.236-.162-.409-.3a16.312,16.312,0,0,1-1.421-1.2c-.575-.534-1.219-1.213-1.91-1.99s-1.432-1.649-2.25-2.531a19.9,19.9,0,0,0-2.5-2.3,11.161,11.161,0,0,0-2.389-1.406,7.645,7.645,0,0,0-1.794-.522,4.812,4.812,0,0,0-.5-.058A.838.838,0,0,0,174.043,375.606Z" transform="translate(-174.043 -375.604)"/></g><g transform="translate(5.444 25.19)"><path class="d" d="M172.7,371.585c0,.026.431.086,1.11.274a10.308,10.308,0,0,1,4.664,2.779c.489.507.748.861.77.845a1.242,1.242,0,0,0-.165-.261,6.781,6.781,0,0,0-.529-.654,9.372,9.372,0,0,0-4.714-2.808,6.74,6.74,0,0,0-.827-.154A1.229,1.229,0,0,0,172.7,371.585Z" transform="translate(-172.701 -371.581)"/></g></g><g transform="translate(35.712 3.04)"><path class="m" d="M245.137,313.683s3.9,2.248,4.693,4.89c.48,1.6,4.121,22.121,4.7,26.166.581,4.085-.639,7.043-2.364,8.385s-6.955,3.13-6.955,3.13l-7.358,2.383-2.109-5.367,7-10.061-.678-6.778Z" transform="translate(-235.741 -313.683)"/><g transform="translate(6.944 25.19)"><path class="d" d="M256.749,366.151c0,.026-.431.086-1.11.274a10.308,10.308,0,0,0-4.664,2.779c-.489.507-.748.861-.77.845a1.24,1.24,0,0,1,.165-.261,6.8,6.8,0,0,1,.529-.654,9.367,9.367,0,0,1,4.714-2.808,6.758,6.758,0,0,1,.828-.154A1.229,1.229,0,0,1,256.749,366.151Z" transform="translate(-250.204 -366.147)"/></g></g><g transform="translate(31.066 1.096)"><path class="d" d="M226.065,309.639c-.02.038.314.232.664.545s.583.62.619.6a2.142,2.142,0,0,0-1.282-1.141Z" transform="translate(-226.064 -309.634)"/></g><g transform="translate(28.101 2.821)"><path class="d" d="M219.891,313.229c-.031.031.256.339.486.793s.318.864.362.857a2.1,2.1,0,0,0-.848-1.65Z" transform="translate(-219.889 -313.226)"/></g><g transform="translate(23.017 2.896)"><path class="d" d="M209.313,315.1a22.257,22.257,0,0,0,.617-1.712,3.315,3.315,0,0,0-.617,1.712Z" transform="translate(-209.301 -313.385)"/></g><g transform="translate(19.754 1.16)"><path class="d" d="M202.515,311.674c.044.01.155-.487.476-1.012s.7-.858.676-.892a2.486,2.486,0,0,0-1.152,1.9Z" transform="translate(-202.505 -309.768)"/></g><g transform="translate(10.385 12.293)"><path class="d" d="M182.995,332.955c-.04.005.442,3.9,1.076,8.692s1.182,8.679,1.222,8.674-.442-3.9-1.077-8.693S183.034,332.95,182.995,332.955Z" transform="translate(-182.992 -332.955)"/></g><g transform="translate(35.611 12.753)"><path class="d" d="M237.741,369.153a2.318,2.318,0,0,1-.169-.362l-.44-1.056-1.582-3.917-.018-.044.028-.04,6.716-9.618-.023.066c.029-.463.048-.959.09-1.457.2-2.616.552-5.088.868-7.334s.624-4.264.846-5.964.375-3.078.458-4.032c.049-.477.068-.848.094-1.1a2.241,2.241,0,0,1,.047-.383,2.185,2.185,0,0,1,0,.386c-.01.253-.012.626-.047,1.1-.053.959-.179,2.343-.38,4.047s-.483,3.728-.793,5.974-.648,4.716-.846,7.321c-.042.5-.061.989-.09,1.449l0,.038-.02.028-6.774,9.577.01-.084,1.507,3.946.4,1.074A2.347,2.347,0,0,1,237.741,369.153Z" transform="translate(-235.531 -333.913)"/></g></g><g transform="translate(17.418 62.547)"><g class="r"><path d="M181.275,381.216c-1.208-.584-1.482-2.15-1.606-3.486q-.541-5.871-1.083-11.742c-.17-1.84-.253-3.941,1.046-5.257,1.185-1.2,3.068-1.274,4.756-1.269,10.421.03,19.624.334,30.045.364l-.531,18.229Z" transform="translate(-178.492 -359.462)"/></g><g transform="translate(1.191 1.503)"><g transform="translate(0.067 0.069)"><path class="h" d="M220.287,364.353l-1.11,21.142a1.544,1.544,0,0,1-1.55,1.454l-33.679.059a1.544,1.544,0,0,1-1.549-1.46l-1.285-20.783c-.043-.863.572-2.012,1.446-2.029l36.147,0A1.542,1.542,0,0,1,220.287,364.353Z" transform="translate(-181.112 -362.736)"/></g><path class="d" d="M220.214,364.278s0-.026,0-.079a1.39,1.39,0,0,0-.013-.236,1.518,1.518,0,0,0-.4-.823,1.534,1.534,0,0,0-.563-.383,1.972,1.972,0,0,0-.814-.113l-2.048-.007-13.049-.025-19.353-.017H182.6a1.222,1.222,0,0,0-.7.178,1.735,1.735,0,0,0-.514.5,2.429,2.429,0,0,0-.423,1.364q.042.707.084,1.422.176,2.854.358,5.824c.244,3.956.5,8.051.756,12.246l.048.785c.022.264.019.517.065.792A1.612,1.612,0,0,0,183.3,386.9a1.973,1.973,0,0,0,.79.106h.775l1.541,0,6.046-.012,11.431-.024,10.343-.025,2.387-.006h.583a4.889,4.889,0,0,0,.585-.019,1.61,1.61,0,0,0,1.01-.558,1.633,1.633,0,0,0,.375-1.064q.029-.552.056-1.092.055-1.08.109-2.112c.279-5.5.5-9.952.661-13.031.074-1.536.133-2.73.172-3.543.018-.4.032-.711.041-.922s.009-.314.009-.314-.011.106-.024.314-.031.518-.056.921c-.046.813-.113,2.006-.2,3.542-.167,3.079-.409,7.53-.707,13.029q-.055,1.031-.113,2.112-.029.539-.059,1.091a1.516,1.516,0,0,1-.351,1,1.5,1.5,0,0,1-.94.517,5.027,5.027,0,0,1-.569.016h-.583l-2.387,0-10.343.012-11.431.015-6.046.01-1.541,0h-.774a1.828,1.828,0,0,1-.739-.1,1.467,1.467,0,0,1-.924-1.084c-.042-.24-.041-.514-.062-.772l-.049-.786c-.26-4.195-.513-8.291-.759-12.246q-.184-2.967-.362-5.824-.043-.712-.085-1.417a2.3,2.3,0,0,1,.4-1.282,1.252,1.252,0,0,1,1.1-.624h1.374l19.353-.014,13.049-.022,2.048-.007a1.95,1.95,0,0,1,.8.1,1.536,1.536,0,0,1,.961,1.175A3.063,3.063,0,0,1,220.214,364.278Z" transform="translate(-180.972 -362.592)"/></g><g transform="translate(18.604 11.456)"><g transform="translate(0.008 0.061)"><path class="g" d="M217.258,385.432a1.984,1.984,0,1,0,1.984-1.984A1.984,1.984,0,0,0,217.258,385.432Z" transform="translate(-217.258 -383.448)"/></g><path class="d" d="M217.249,385.366c.016,0,.009-.177.09-.477a1.981,1.981,0,0,1,.725-1.059,1.931,1.931,0,0,1,1.822-.264,1.9,1.9,0,0,1,.887.67,1.908,1.908,0,0,1,0,2.26,1.9,1.9,0,0,1-.887.67,1.926,1.926,0,0,1-1.822-.264,1.981,1.981,0,0,1-.725-1.058c-.081-.3-.073-.478-.09-.477a.431.431,0,0,0-.008.127,1.551,1.551,0,0,0,.043.364,1.974,1.974,0,0,0,.718,1.126,2.006,2.006,0,0,0,.854.39,2.044,2.044,0,0,0,1.076-.082,2.02,2.02,0,0,0,.957-.712,2.039,2.039,0,0,0,0-2.43,2.016,2.016,0,0,0-.956-.711,2.039,2.039,0,0,0-1.076-.082,2.012,2.012,0,0,0-.854.39,1.973,1.973,0,0,0-.718,1.127,1.548,1.548,0,0,0-.043.364A.43.43,0,0,0,217.249,385.366Z" transform="translate(-217.24 -383.321)"/></g><g transform="translate(38.694 5.529)"><path class="d" d="M259.686,370.977c-.04,0-.206,3.552-.371,7.935s-.265,7.94-.225,7.941.206-3.551.371-7.936S259.726,370.978,259.686,370.977Z" transform="translate(-259.082 -370.977)"/></g></g></g><g transform="translate(85.182 16.084)"><path class="e" d="M393.677,5170.983a22.2,22.2,0,1,1-25.247-18.588A22.17,22.17,0,0,1,393.677,5170.983Z" transform="translate(-349.533 -5152.143)"/><g transform="translate(5.282 5.27)"><path class="s" d="M392.068,5175.376a16.914,16.914,0,1,1-19.24-14.165A16.9,16.9,0,0,1,392.068,5175.376Z" transform="translate(-358.428 -5161.019)"/></g><g transform="translate(4.971 4.628)"><path class="t" d="M391.773,5174.412a9.913,9.913,0,0,1-.745-1.944,17.971,17.971,0,0,0-2.7-4.837,17.394,17.394,0,0,0-2.673-2.7,16.914,16.914,0,0,0-3.707-2.265,16.522,16.522,0,0,0-4.605-1.3,16.484,16.484,0,0,0-2.531-.136,16.489,16.489,0,0,0-5.12.937,16.509,16.509,0,0,0-2.319,1.022,16.581,16.581,0,0,0-3.847,2.846,16.932,16.932,0,0,0-2.664,3.432,17.334,17.334,0,0,0-1.541,3.477,17.948,17.948,0,0,0-.813,5.478,9.893,9.893,0,0,1-.008,2.081,4.975,4.975,0,0,1-.5-2.052,15.653,15.653,0,0,1,.435-5.76,16.967,16.967,0,0,1,4.236-7.492,16.414,16.414,0,0,1,1.884-1.681,16.6,16.6,0,0,1,2.208-1.443,17.213,17.213,0,0,1,2.5-1.121,17.317,17.317,0,0,1,5.523-1.01,17.141,17.141,0,0,1,2.73.165,16.5,16.5,0,0,1,2.576.568,16.27,16.27,0,0,1,2.357.9,16.966,16.966,0,0,1,6.616,5.506,15.66,15.66,0,0,1,2.448,5.232A4.973,4.973,0,0,1,391.773,5174.412Z" transform="translate(-357.905 -5159.937)"/></g><g transform="translate(14.667 10.349)"><path class="t" d="M385.158,5191.062l.482,2.906-2.6.43-.468-2.828a12.469,12.469,0,0,1-6.805-1.006l.9-3.4a10.639,10.639,0,0,0,5.34,1.009l-.718-4.335c-3-.222-6.373-.65-6.988-4.361-.455-2.75,1.152-5.444,5.175-6.59l-.477-2.88,2.595-.43.469,2.829a11.892,11.892,0,0,1,5.53.71l-.768,3.407a10.79,10.79,0,0,0-4.195-.692l.731,4.413c2.992.2,6.317.634,6.923,4.292C390.737,5187.232,389.151,5189.895,385.158,5191.062Zm-4.493-11.042-.611-3.685c-1.323.539-1.743,1.381-1.6,2.238C378.6,5179.482,379.462,5179.847,380.665,5180.021Zm5.5,5.516c-.15-.909-.985-1.276-2.165-1.482l.593,3.582C385.842,5187.137,386.3,5186.367,386.164,5185.537Z" transform="translate(-374.233 -5169.573)"/></g></g><g transform="translate(184.182 197.084)"><path class="e" d="M393.677,5170.983a22.2,22.2,0,1,1-25.247-18.588A22.17,22.17,0,0,1,393.677,5170.983Z" transform="translate(-349.533 -5152.143)"/><g transform="translate(5.282 5.27)"><path class="s" d="M392.068,5175.376a16.914,16.914,0,1,1-19.24-14.165A16.9,16.9,0,0,1,392.068,5175.376Z" transform="translate(-358.428 -5161.019)"/></g><g transform="translate(4.971 4.628)"><path class="t" d="M391.773,5174.412a9.913,9.913,0,0,1-.745-1.944,17.971,17.971,0,0,0-2.7-4.837,17.394,17.394,0,0,0-2.673-2.7,16.914,16.914,0,0,0-3.707-2.265,16.522,16.522,0,0,0-4.605-1.3,16.484,16.484,0,0,0-2.531-.136,16.489,16.489,0,0,0-5.12.937,16.509,16.509,0,0,0-2.319,1.022,16.581,16.581,0,0,0-3.847,2.846,16.932,16.932,0,0,0-2.664,3.432,17.334,17.334,0,0,0-1.541,3.477,17.948,17.948,0,0,0-.813,5.478,9.893,9.893,0,0,1-.008,2.081,4.975,4.975,0,0,1-.5-2.052,15.653,15.653,0,0,1,.435-5.76,16.967,16.967,0,0,1,4.236-7.492,16.414,16.414,0,0,1,1.884-1.681,16.6,16.6,0,0,1,2.208-1.443,17.213,17.213,0,0,1,2.5-1.121,17.317,17.317,0,0,1,5.523-1.01,17.141,17.141,0,0,1,2.73.165,16.5,16.5,0,0,1,2.576.568,16.27,16.27,0,0,1,2.357.9,16.966,16.966,0,0,1,6.616,5.506,15.66,15.66,0,0,1,2.448,5.232A4.973,4.973,0,0,1,391.773,5174.412Z" transform="translate(-357.905 -5159.937)"/></g><g transform="translate(14.667 10.349)"><path class="t" d="M385.158,5191.062l.482,2.906-2.6.43-.468-2.828a12.469,12.469,0,0,1-6.805-1.006l.9-3.4a10.639,10.639,0,0,0,5.34,1.009l-.718-4.335c-3-.222-6.373-.65-6.988-4.361-.455-2.75,1.152-5.444,5.175-6.59l-.477-2.88,2.595-.43.469,2.829a11.892,11.892,0,0,1,5.53.71l-.768,3.407a10.79,10.79,0,0,0-4.195-.692l.731,4.413c2.992.2,6.317.634,6.923,4.292C390.737,5187.232,389.151,5189.895,385.158,5191.062Zm-4.493-11.042-.611-3.685c-1.323.539-1.743,1.381-1.6,2.238C378.6,5179.482,379.462,5179.847,380.665,5180.021Zm5.5,5.516c-.15-.909-.985-1.276-2.165-1.482l.593,3.582C385.842,5187.137,386.3,5186.367,386.164,5185.537Z" transform="translate(-374.233 -5169.573)"/></g></g><g transform="translate(283.182 101.084)"><path class="e" d="M393.677,5170.983a22.2,22.2,0,1,1-25.247-18.588A22.17,22.17,0,0,1,393.677,5170.983Z" transform="translate(-349.533 -5152.143)"/><g transform="translate(5.282 5.27)"><path class="s" d="M392.068,5175.376a16.914,16.914,0,1,1-19.24-14.165A16.9,16.9,0,0,1,392.068,5175.376Z" transform="translate(-358.428 -5161.019)"/></g><g transform="translate(4.971 4.628)"><path class="t" d="M391.773,5174.412a9.913,9.913,0,0,1-.745-1.944,17.971,17.971,0,0,0-2.7-4.837,17.394,17.394,0,0,0-2.673-2.7,16.914,16.914,0,0,0-3.707-2.265,16.522,16.522,0,0,0-4.605-1.3,16.484,16.484,0,0,0-2.531-.136,16.489,16.489,0,0,0-5.12.937,16.509,16.509,0,0,0-2.319,1.022,16.581,16.581,0,0,0-3.847,2.846,16.932,16.932,0,0,0-2.664,3.432,17.334,17.334,0,0,0-1.541,3.477,17.948,17.948,0,0,0-.813,5.478,9.893,9.893,0,0,1-.008,2.081,4.975,4.975,0,0,1-.5-2.052,15.653,15.653,0,0,1,.435-5.76,16.967,16.967,0,0,1,4.236-7.492,16.414,16.414,0,0,1,1.884-1.681,16.6,16.6,0,0,1,2.208-1.443,17.213,17.213,0,0,1,2.5-1.121,17.317,17.317,0,0,1,5.523-1.01,17.141,17.141,0,0,1,2.73.165,16.5,16.5,0,0,1,2.576.568,16.27,16.27,0,0,1,2.357.9,16.966,16.966,0,0,1,6.616,5.506,15.66,15.66,0,0,1,2.448,5.232A4.973,4.973,0,0,1,391.773,5174.412Z" transform="translate(-357.905 -5159.937)"/></g><g transform="translate(14.667 10.349)"><path class="t" d="M385.158,5191.062l.482,2.906-2.6.43-.468-2.828a12.469,12.469,0,0,1-6.805-1.006l.9-3.4a10.639,10.639,0,0,0,5.34,1.009l-.718-4.335c-3-.222-6.373-.65-6.988-4.361-.455-2.75,1.152-5.444,5.175-6.59l-.477-2.88,2.595-.43.469,2.829a11.892,11.892,0,0,1,5.53.71l-.768,3.407a10.79,10.79,0,0,0-4.195-.692l.731,4.413c2.992.2,6.317.634,6.923,4.292C390.737,5187.232,389.151,5189.895,385.158,5191.062Zm-4.493-11.042-.611-3.685c-1.323.539-1.743,1.381-1.6,2.238C378.6,5179.482,379.462,5179.847,380.665,5180.021Zm5.5,5.516c-.15-.909-.985-1.276-2.165-1.482l.593,3.582C385.842,5187.137,386.3,5186.367,386.164,5185.537Z" transform="translate(-374.233 -5169.573)"/></g></g></g></g></svg>