<svg xmlns="http://www.w3.org/2000/svg" width="301.743" height="289.975" viewBox="0 0 301.743 289.975"><defs><style>.a{fill:#aed3f2;}.b{fill:#e0e0e0;}.c{fill:#ebebeb;}.d{fill:#f2e9e4;}.e{fill:#6595bf;}.f{fill:#263238;}.g{fill:#455a64;}.h{opacity:0.3;}.i{fill:#344154;}.j,.p{fill:#fff;}.k{opacity:0.4;}.l{fill:#d9a171;}.m{fill:#ffbe9d;}.n{fill:#eb996e;}.o{opacity:0.6;}.p{font-size:12px;font-family:Roboto-Regular, Roboto;}.q{fill:#f5f5f5;}</style></defs><g transform="translate(-183.793 -5841)"><g transform="translate(183.793 5841)"><path class="a" d="M2303.8,5703.128c-1-.866-3.251-3.6-1.52-6.783a6.043,6.043,0,0,1,3.181-2.258,12.934,12.934,0,0,0,3.519-1.826c1.909-1.616,2.43-4.313,3.7-6.478a8.093,8.093,0,0,1,7-4.211c3.277.153,6.013,2.832,7.253,5.886s1.273,6.445,1.311,9.74c0,1.827-.07,3.881-1.406,5.09-1.235,1.139-3.093,1.152-4.766,1.1l-17.923-.553" transform="translate(-2173.05 -5419.675)"/><path class="b" d="M2331.966,5637.995h-47.134l8.494,50.627a5.644,5.644,0,0,0,4.021,4.5l.166.044a4.321,4.321,0,0,0,.42.108,5.755,5.755,0,0,0,.954.114v.044l.229-.038h21a5.8,5.8,0,0,0,1.151-.114,5.663,5.663,0,0,0,4.766-4.944l4.1-34.879.184-1.387h0l1.622-13.82Zm-8.907,32.3h-4.836l.49-14.7h5.605Zm1.724-14.7h4.632l-1.712,14.73h-4.161Zm-13.813,30.98-.3-12.764h6.967l-.426,12.764Zm-7.533-12.764h6.77l.293,12.764h-6.07Zm.522,12.764h-5.676c-.534-3.442-1.272-7.922-2-12.764h6.681Zm-.782-16.25-1.139-14.7h7.762l.337,14.7Zm7.431,0-.343-14.7h7.991l-.483,14.7Zm-.42-18.217-.318-13.609h8.971l-.452,13.609Zm-.471,0h-7.953L2300.7,5638.5h8.7Zm-8.424,0h-8.418c-.3-1.909-.585-3.659-.839-5.262-.878-5.5-1.209-7.572-1.387-8.348h9.588Zm.274,3.519,1.139,14.7h-6.961c-.236-1.5-.471-3-.706-4.512-.547-3.467-1.094-6.935-1.61-10.181Zm-6.267,14.7h-4.549l-2.462-14.7h4.7C2293.676,5660.143,2294.471,5665.188,2295.3,5670.323Zm.554,3.518c.693,4.417,1.374,8.774,2,12.764h-4.4l-2.138-12.764Zm21.868,12.764.426-12.764h4.651l-1.088,12.764Zm1.145-34.5.452-13.609h6.5l-1.164,13.609Zm-28.631-13.609c.184.986,1.043,6.363,2.195,13.609h-4.766l-2.284-13.609Zm35.592,48.107h-3.677l1.094-12.764h4.047Zm4.047-34.5h-4.74l1.157-13.609h5.179Z" transform="translate(-2166.935 -5403.827)"/><rect class="a" width="24.56" height="48.686" transform="translate(181.472 44.99)"/><rect class="a" width="26.538" height="48.686" transform="translate(206.98 44.99)"/><rect class="a" width="26.538" height="47.045" transform="translate(206.98 97.08)"/><path class="a" d="M2471.9,5314.105h27.944v-43.19h.948v43.19h22.74v-44.15H2471.9Z" transform="translate(-2234.98 -5269.955)"/><rect class="a" width="22.746" height="48.686" transform="translate(265.814 44.99)"/><rect class="a" width="22.746" height="47.045" transform="translate(265.814 97.08)"/><rect class="a" width="24.56" height="47.045" transform="translate(181.472 97.08)"/><rect class="a" width="27.951" height="47.045" transform="translate(236.922 97.08)"/><rect class="a" width="24.56" height="42.394" transform="translate(181.472 144.965)"/><rect class="a" width="22.746" height="42.394" transform="translate(265.814 144.965)"/><path class="a" d="M2409.312,5314.105v-43.19h.949v43.19H2436.8v-44.15h-52.046v44.15Z" transform="translate(-2203.281 -5269.955)"/><rect class="a" width="27.951" height="42.394" transform="translate(236.922 144.965)"/><rect class="a" width="26.538" height="42.394" transform="translate(206.98 144.965)"/><rect class="a" width="27.951" height="48.686" transform="translate(236.922 44.99)"/><path class="b" d="M2109.46,5438a2.5,2.5,0,0,1-3.06-1.736l-5.618-21a2.074,2.074,0,0,1,1.54-2.481l1.972-.528a2.145,2.145,0,0,0,1.572-1.623l.191-.974a2.154,2.154,0,0,1,1.571-1.623l9.359-2.5a2.174,2.174,0,0,1,2.03.477l.636.6a2.177,2.177,0,0,0,2.03.471l11.924-3.182a2.069,2.069,0,0,1,2.545,1.381l5.726,21.429a2.493,2.493,0,0,1-1.762,3.054Z" transform="translate(-2099.969 -5318.651)"/><path class="c" d="M2120.084,5407.357l-7.591,2.023-1.031-1.087a2.7,2.7,0,0,0-2.665-.707l-7.413,1.991a2.4,2.4,0,0,0-1.788,2.876l.229.865,6.108,22.752a2.722,2.722,0,0,0,3.4,1.813h0l30.127-8.092a2.717,2.717,0,0,0,2.032-3.261l0-.01-5.777-21.479a1.794,1.794,0,0,0-2.194-1.275l-.008,0Z" transform="translate(-2099.534 -5318.605)"/><path class="b" d="M2273.011,5386.346a3.023,3.023,0,0,1-2.227-3.646l6.159-25.5a2.5,2.5,0,0,1,3.073-1.743l2.4.579a2.594,2.594,0,0,0,2.609-.82l.77-.917a2.6,2.6,0,0,1,2.6-.814l11.383,2.748a2.617,2.617,0,0,1,1.909,1.674l.343,1.025a2.625,2.625,0,0,0,1.909,1.672l14.506,3.506a2.5,2.5,0,0,1,1.941,2.952l-6.3,26.087a3.016,3.016,0,0,1-3.637,2.228h0Z" transform="translate(-2161.794 -5300.31)"/><path class="c" d="M2302.487,5359.258l-9.226-2.252-.452-1.743a3.276,3.276,0,0,0-2.43-2.31l-9.022-2.207a2.9,2.9,0,0,0-3.563,2.022l-.254,1.05-6.687,27.689a3.3,3.3,0,0,0,2.545,3.895l36.648,8.851a3.3,3.3,0,0,0,4.047-2.3l6.318-26.157a2.168,2.168,0,0,0-1.6-2.619l-.006,0Z" transform="translate(-2161.825 -5299.304)"/><path class="b" d="M2158.69,5328.282a3.391,3.391,0,0,1-3.741-3l-3.182-29.267a2.806,2.806,0,0,1,2.58-3.016h0l2.749-.306a2.9,2.9,0,0,0,2.443-1.852l.458-1.272a2.922,2.922,0,0,1,2.443-1.851l13.069-1.437a2.923,2.923,0,0,1,2.621,1.049l.757.948a2.949,2.949,0,0,0,2.621,1.057l16.657-1.833a2.806,2.806,0,0,1,3.181,2.373v.007l3.29,29.936a3.385,3.385,0,0,1-2.987,3.741h-.01Z" transform="translate(-2118.53 -5275.886)"/><path class="d" d="M2179.573,5290.2,2169,5291.337l-1.139-1.661a3.679,3.679,0,0,0-3.448-1.52l-10.384,1.138a3.259,3.259,0,0,0-3,3.494l.134,1.209,3.493,31.813a3.7,3.7,0,0,0,4.161,3.1l42.07-4.625a3.7,3.7,0,0,0,3.4-3.967v0l-3.3-30.024a2.437,2.437,0,0,0-2.688-2.158h0Z" transform="translate(-2118.264 -5276.563)"/><path class="b" d="M2194.462,5316.425a4.109,4.109,0,0,0,2.017-4.046,3.862,3.862,0,1,0-7.724-.034,3.947,3.947,0,0,0,.089.842,4.1,4.1,0,0,0,2.857,3.543c-5.79,1.533-4.823,7.909-4.823,7.909l13.941-1.463S2200.4,5316.666,2194.462,5316.425Z" transform="translate(-2131.282 -5283.975)"/><path class="e" d="M2115.928,5343.965a7.333,7.333,0,0,1,1.833-.554l.56-1.686,2.927.292.216,1.762a7.142,7.142,0,0,1,1.686.91l1.591-.795,1.858,2.271-1.088,1.4a7.307,7.307,0,0,1,.554,1.833l1.679.566-.293,2.92-1.762.223a7.177,7.177,0,0,1-.9,1.687l.8,1.615-2.271,1.864-1.4-1.094a7.3,7.3,0,0,1-1.839.553l-.56,1.687-2.946-.325-.222-1.763a7.482,7.482,0,0,1-1.686-.923l-1.591.789-1.858-2.271,1.094-1.4a7.1,7.1,0,0,1-.554-1.833l-1.686-.566.293-2.919,1.762-.217a7.14,7.14,0,0,1,.9-1.692l-.789-1.585,2.271-1.863Zm1.094,4.065a3.181,3.181,0,1,0,4.475.471l-.021-.025A3.182,3.182,0,0,0,2117.022,5348.03Z" transform="translate(-2103.364 -5296.061)"/><path class="b" d="M2130.62,5520.616a2.133,2.133,0,0,0,.764-.127,1.55,1.55,0,0,0,.713-.579,1.455,1.455,0,0,0,.222-.541c.038-.21.057-.445.089-.686.248-1.974.6-4.792,1.037-8.272l.35-2.736c.057-.477.121-.961.185-1.458l.095-.744a3.719,3.719,0,0,0,.058-.732,1.449,1.449,0,0,0-.776-1.138,1.91,1.91,0,0,0-.732-.185l-.814-.109-3.365-.432-15-1.953a1.434,1.434,0,0,0-1.464.8,1.686,1.686,0,0,0-.127.426l-.064.491c-.044.324-.083.636-.127.973q-.254,1.947-.5,3.817c-.337,2.507-.636,4.925-.961,7.234-.076.573-.152,1.139-.222,1.7a1.424,1.424,0,0,0,.636,1.272,1.448,1.448,0,0,0,.706.249l.8.108,1.565.21,5.726.77,8.271,1.14,2.24.324.579.1a.636.636,0,0,1,.2.045h-.2l-.586-.058-2.252-.267-8.271-1.031-5.726-.731-1.565-.2-.8-.1a1.738,1.738,0,0,1-1.584-1.864c.07-.566.14-1.139.217-1.718.3-2.3.636-4.721.942-7.228q.248-1.909.5-3.818c.038-.324.082-.636.127-.974l.064-.489a1.943,1.943,0,0,1,.152-.522,1.759,1.759,0,0,1,1.813-.986l14.99,1.979,3.366.452.814.108a2.311,2.311,0,0,1,.821.216,1.731,1.731,0,0,1,.923,1.362,3.452,3.452,0,0,1-.063.8,4.937,4.937,0,0,1-.1.751c-.064.5-.127.98-.2,1.457-.127.948-.248,1.858-.369,2.73-.478,3.467-.865,6.28-1.139,8.271-.038.242-.058.464-.1.687a1.634,1.634,0,0,1-.255.573,1.6,1.6,0,0,1-.769.591,1.37,1.37,0,0,1-.585.09A1.042,1.042,0,0,1,2130.62,5520.616Z" transform="translate(-2103.237 -5353.84)"/><path class="b" d="M2131.955,5522.432a1.434,1.434,0,0,1-.191-.242l-.49-.731c-.439-.688-1.031-1.6-1.75-2.712l-1.2-1.909-.324-.508a.472.472,0,0,0-.42-.2c-.172,0-.287.114-.465.268l-.509.439-1.05.9a2.323,2.323,0,0,1-.312.236.743.743,0,0,1-.439.082.71.71,0,0,1-.414-.178.745.745,0,0,1-.152-.166l-.1-.152c-.541-.82-1.094-1.673-1.667-2.545l-.846-1.273-.413-.636a.457.457,0,0,0-.471-.216.425.425,0,0,0-.236.121l-.255.253-.509.5-.986.973-3.411,3.36-2.328,2.265-.636.6a1.259,1.259,0,0,1-.242.19,1.29,1.29,0,0,1,.191-.242l.636-.636,2.246-2.317c.967-.979,2.106-2.131,3.359-3.41l.979-.979.5-.51.26-.254a.751.751,0,0,1,.4-.21.783.783,0,0,1,.8.356l.414.637.846,1.272,1.667,2.545a.522.522,0,0,0,.942.115l1.056-.891.515-.426a2.83,2.83,0,0,1,.267-.217.733.733,0,0,1,.376-.121.745.745,0,0,1,.636.337c.115.178.223.349.324.522l1.164,1.908,1.661,2.768.439.763C2131.911,5522.329,2131.955,5522.425,2131.955,5522.432Z" transform="translate(-2104.12 -5358.206)"/><path class="b" d="M2134.036,5510.226a2.324,2.324,0,0,0-.064-.457,1.907,1.907,0,0,0-.566-1.044,1.783,1.783,0,0,0-1.616-.432,1.738,1.738,0,0,0-.426,3.227,1.777,1.777,0,0,0,1.679,0,1.867,1.867,0,0,0,.814-.86c.121-.267.147-.433.178-.426a.864.864,0,0,1-.064.471,1.848,1.848,0,0,1-.814,1.018,2,2,0,0,1-1.909.076,2.029,2.029,0,0,1,.5-3.817,1.986,1.986,0,0,1,1.845.566,1.865,1.865,0,0,1,.5,1.215A.855.855,0,0,1,2134.036,5510.226Z" transform="translate(-2110.655 -5356.52)"/><path class="e" d="M2288.239,5319.728a2.033,2.033,0,0,0,.75.2,1.575,1.575,0,0,0,.885-.241,1.416,1.416,0,0,0,.426-.4c.121-.172.236-.381.363-.585l4.333-7.113,1.438-2.354c.254-.407.509-.827.77-1.272l.394-.637a3.357,3.357,0,0,0,.35-.636,1.449,1.449,0,0,0-.242-1.362,1.992,1.992,0,0,0-.592-.464l-.7-.427-2.889-1.781-12.891-7.928a1.413,1.413,0,0,0-1.94.477h0l-.261.42-.528.853c-.688,1.106-1.369,2.2-2.03,3.277-1.336,2.151-2.621,4.224-3.818,6.2l-.9,1.457a1.452,1.452,0,0,0,.566,1.966l.687.426,1.336.827,4.855,3.022,7.062,4.453,1.909,1.216.49.317.159.122-.178-.089-.509-.293-1.94-1.164-7.114-4.372-4.88-3-1.349-.82-.687-.426a1.8,1.8,0,0,1-.636-.637,1.712,1.712,0,0,1-.045-1.743c.293-.491.592-.98.9-1.477l3.818-6.209,2.03-3.29.515-.833.254-.42a2.036,2.036,0,0,1,.356-.413,1.769,1.769,0,0,1,2.061-.159l12.859,7.953,2.882,1.794.7.433a2.1,2.1,0,0,1,.636.535,1.709,1.709,0,0,1,.28,1.616,3.152,3.152,0,0,1-.382.7l-.4.636c-.261.426-.522.84-.776,1.272-.5.815-.993,1.6-1.457,2.341l-4.377,7.05c-.14.21-.248.407-.382.592a1.483,1.483,0,0,1-.471.413,1.585,1.585,0,0,1-.942.224,1.442,1.442,0,0,1-.572-.159A.786.786,0,0,1,2288.239,5319.728Z" transform="translate(-2161.784 -5278.76)"/><path class="e" d="M2292.476,5311.51l1.177,2.354a.636.636,0,0,1-.636.96l-2.678-.082-2.6-.077a.668.668,0,0,1-.515-1.03l1.47-2.246,1.483-2.266a.636.636,0,0,1,1.151.07Z" transform="translate(-2167.765 -5284.082)"/><g transform="translate(11.928 289.643)"><path class="f" d="M2393.145,5725.35c0,.1-61.526.165-137.431.165s-137.432-.07-137.432-.165,61.513-.165,137.432-.165S2393.145,5725.261,2393.145,5725.35Z" transform="translate(-2118.282 -5725.185)"/></g><g transform="translate(25.99 63.83)"><rect class="g" width="96.698" height="225.98"/><g class="h"><rect class="i" width="26.436" height="225.98"/></g><path class="j" d="M2222.075,5383.322v-1.814l-.878,1.476h-.426l-.878-1.425v1.763H2219V5379.9h.814l1.2,1.973,1.164-1.973h.795v3.417Z" transform="translate(-2168.98 -5373.778)"/><path class="j" d="M2227.892,5382.094v1.229h-.967v-1.241l-1.272-2.176h1.018l.808,1.355.808-1.355h.935Z" transform="translate(-2171.399 -5373.778)"/><path class="j" d="M2234.8,5380.656v.751h1.508v.745H2234.8v1.171h-.967V5379.9h2.679v.751Z" transform="translate(-2174.374 -5373.778)"/><path class="j" d="M2238.752,5379.9h.973v3.417h-.967Z" transform="translate(-2176.164 -5373.778)"/><path class="j" d="M2241.352,5379.9h.961v2.647h1.629v.77h-2.59Z" transform="translate(-2177.11 -5373.778)"/><path class="j" d="M2248.718,5382.571v.751h-2.736V5379.9h2.672v.751h-1.718v.573h1.514v.719h-1.514v.636Z" transform="translate(-2178.793 -5373.778)"/><path class="j" d="M2250.792,5382.993l.318-.707a2.16,2.16,0,0,0,1.126.331c.395,0,.554-.108.554-.273,0-.541-1.94-.146-1.94-1.413,0-.636.5-1.107,1.514-1.107a2.613,2.613,0,0,1,1.235.292l-.3.72a1.951,1.951,0,0,0-.942-.262c-.407,0-.554.134-.554.306,0,.521,1.909.133,1.909,1.387,0,.6-.5,1.1-1.509,1.1A2.639,2.639,0,0,1,2250.792,5382.993Z" transform="translate(-2180.543 -5373.748)"/><path class="f" d="M2250.8,5439.082v-12.249c0-7.8-.045-18.985-.07-32.583l.133.134-63.078.032h0l.165-.166v44.832l-.146-.153,45.473.077,12.967.039h.064l-12.929.044-45.575.076h-.152v-45.079h.171l63.079.032h.133v.133c-.032,13.629-.057,24.815-.07,32.672,0,3.888,0,6.929-.038,9.009v2.354A1.932,1.932,0,0,1,2250.8,5439.082Z" transform="translate(-2157.577 -5378.936)"/><g class="h" transform="translate(49.431 42.896)"><rect class="i" width="25.679" height="4.346"/></g><g class="k" transform="translate(29.401 63.543)"><rect class="i" width="54.992" height="42.725"/></g><path class="b" d="M2221.288,5471.448h-10.479l-.636-1.051a2.3,2.3,0,0,0-1.979-1.132H2200.5a2.3,2.3,0,0,0-2.3,2.183h-2.742a2.15,2.15,0,0,0-2.151,2.15h0v5.332h30.1V5473.6A2.15,2.15,0,0,0,2221.288,5471.448Z" transform="translate(-2159.635 -5406.282)"/><path class="c" d="M2229.93,5471.448h-10.447l-.636-1.051a2.29,2.29,0,0,0-1.979-1.132h-7.692a2.291,2.291,0,0,0-2.291,2.183h-2.749a2.151,2.151,0,0,0-2.144,2.15v5.332h30.089V5473.6a2.15,2.15,0,0,0-2.151-2.15Z" transform="translate(-2162.792 -5406.282)"/><path class="a" d="M2241.206,5471.448h-10.454l-.636-1.051a2.31,2.31,0,0,0-1.985-1.132h-7.686a2.292,2.292,0,0,0-2.291,2.183h-2.742a2.151,2.151,0,0,0-2.15,2.15h0v5.332h30.089V5473.6A2.151,2.151,0,0,0,2241.206,5471.448Z" transform="translate(-2166.892 -5406.282)"/><path class="l" d="M2219.072,5498.583v-25.622a2.214,2.214,0,0,1,2.31-2.112h2.208a2.329,2.329,0,0,0,2.093-1.234l.477-.941a2.335,2.335,0,0,1,2.094-1.229h10.479a2.357,2.357,0,0,1,1.992,1.043l.515.8a2.362,2.362,0,0,0,1.985,1.043h13.361a2.214,2.214,0,0,1,2.31,2.112v26.144Z" transform="translate(-2169.005 -5405.62)"/><g class="h" transform="translate(50.067 61.824)"><path class="i" d="M2219.072,5498.583v-25.622a2.214,2.214,0,0,1,2.31-2.112h2.208a2.329,2.329,0,0,0,2.093-1.234l.477-.941a2.335,2.335,0,0,1,2.094-1.229h10.479a2.357,2.357,0,0,1,1.992,1.043l.515.8a2.362,2.362,0,0,0,1.985,1.043h13.361a2.214,2.214,0,0,1,2.31,2.112v26.144Z" transform="translate(-2219.072 -5467.444)"/></g><path class="j" d="M2232.222,5470.3v-20.22a3.017,3.017,0,0,1,3.01-3.023h32.239a3.022,3.022,0,0,1,3.022,3.023h0v19.66Z" transform="translate(-2173.789 -5398.203)"/><path class="l" d="M2234.2,5475.064v-25.616a2.22,2.22,0,0,1,2.309-2.119h2.2a2.335,2.335,0,0,0,2.1-1.228l.471-.941a2.341,2.341,0,0,1,2.1-1.235h10.479a2.359,2.359,0,0,1,1.985,1.043l.516.8a2.348,2.348,0,0,0,1.991,1.043h13.362a2.214,2.214,0,0,1,2.31,2.112v26.145Z" transform="translate(-2174.509 -5397.065)"/><path class="f" d="M2234.2,5474.987h2.946l8.189-.039,28.689-.076-.153.152V5449.5a7.094,7.094,0,0,0,0-.917,1.941,1.941,0,0,0-1-1.368,2.3,2.3,0,0,0-.77-.261,6.055,6.055,0,0,0-.852,0H2258.43a2.553,2.553,0,0,1-.865-.134,2.435,2.435,0,0,1-1.349-1.056l-.439-.687a2.137,2.137,0,0,0-.509-.554,2.289,2.289,0,0,0-1.406-.451h-10.746a2.245,2.245,0,0,0-1.228.56c-.675.579-.744,1.75-1.622,2.329a2.538,2.538,0,0,1-1.375.477h-1.381a11.507,11.507,0,0,0-1.323,0,2.2,2.2,0,0,0-1.126.5,1.944,1.944,0,0,0-.636,1.012,6.611,6.611,0,0,0-.057,1.241v4.822c0,6.153-.045,11.135-.063,14.6v.075c0-3.467-.038-8.462-.064-14.633V5450.2a6.621,6.621,0,0,1,.058-1.31,2.2,2.2,0,0,1,.591-1.17,2.542,2.542,0,0,1,1.273-.567,12.663,12.663,0,0,1,1.368-.038h1.368a2.256,2.256,0,0,0,1.221-.427c.777-.49.808-1.577,1.591-2.315a2.557,2.557,0,0,1,1.387-.637c.522-.044.993,0,1.5,0h9.289a2.55,2.55,0,0,1,1.6.509,2.318,2.318,0,0,1,.585.636l.446.687a2.134,2.134,0,0,0,1.177.923,2.173,2.173,0,0,0,.764.114h12.814a5.423,5.423,0,0,1,.9.032,2.61,2.61,0,0,1,.884.3,2.289,2.289,0,0,1,1.158,1.6,7.148,7.148,0,0,1,.032.968v25.634h-.153l-28.784-.076-8.157-.039h-2.7Z" transform="translate(-2174.509 -5396.988)"/><path class="j" d="M2257.984,5447.458a54,54,0,0,1-8.462,0,54,54,0,0,1,8.462,0Z" transform="translate(-2180.081 -5398.281)"/><path class="l" d="M2253.682,5492.006v-25.634a2.406,2.406,0,0,1,2.615-2.114h2.495a2.713,2.713,0,0,0,2.367-1.227l.54-.93a2.71,2.71,0,0,1,2.367-1.228h11.841a2.766,2.766,0,0,1,2.252,1.043l.579.8a2.788,2.788,0,0,0,2.246,1.043h15.073a2.4,2.4,0,0,1,2.609,2.113v26.137Z" transform="translate(-2181.594 -5403.229)"/><path class="f" d="M2253.64,5491.914h3.347l9.289-.045,32.366-.07-.153.152V5465.58a1.908,1.908,0,0,0-.948-1.362,2.989,2.989,0,0,0-1.724-.408h-14.634a3.286,3.286,0,0,1-1.775-.4,2.436,2.436,0,0,1-.718-.585c-.2-.249-.35-.471-.528-.713a2.415,2.415,0,0,0-1.273-1.005,4.357,4.357,0,0,0-1.635-.178h-11.408a2.824,2.824,0,0,0-1.381.439,2.166,2.166,0,0,0-.534.484,5.934,5.934,0,0,0-.382.635c-.127.223-.242.433-.382.637a2.327,2.327,0,0,1-.541.572,2.988,2.988,0,0,1-1.413.572c-1.011.063-1.908,0-2.888,0a2.633,2.633,0,0,0-2.284,1.082,1.91,1.91,0,0,0-.274,1.214v3.856c0,6.611-.051,11.956-.063,15.671,0,1.846,0,3.29-.032,4.276v.052c0-.987,0-2.418-.032-4.258,0-3.722-.038-9.085-.063-15.708v-3.869a2.223,2.223,0,0,1,.305-1.355,2.909,2.909,0,0,1,2.5-1.209c.929,0,1.909,0,2.85-.037a2.7,2.7,0,0,0,1.272-.522,3.172,3.172,0,0,0,.847-1.152,7.011,7.011,0,0,1,.407-.636,2.307,2.307,0,0,1,.6-.541,3.087,3.087,0,0,1,1.521-.5H2275.3a4.457,4.457,0,0,1,1.743.2,2.719,2.719,0,0,1,1.4,1.114c.172.228.344.476.509.692a2.334,2.334,0,0,0,.636.509,3.012,3.012,0,0,0,1.623.356h14.634a3.313,3.313,0,0,1,1.909.452,2.217,2.217,0,0,1,1.094,1.615v26.507h-.153L2266.25,5492l-9.328-.089h-3.283Z" transform="translate(-2181.552 -5403.137)"/><path class="j" d="M2281.415,5464.918a94.63,94.63,0,0,1-11.173,0,94.352,94.352,0,0,1,11.173,0Z" transform="translate(-2187.618 -5404.633)"/><rect class="g" width="40.021" height="34.498" transform="translate(29.401 72.081)"/><g class="h" transform="translate(29.401 72.081)"><rect class="i" width="40.021" height="34.498"/></g><rect class="g" width="63.085" height="44.831" transform="translate(69.422 62.983)"/><path class="f" d="M2312.5,5513.955v-3.2c0-2.087,0-5.141-.032-9.042,0-7.8-.044-18.993-.07-32.583l.134.134-63.079.031h0l.165-.165v44.824l-.153-.146,45.473.071,12.967.044h.064l-12.928.038-45.575.076h-.185V5468.9h63.384v.14c-.032,13.628-.057,24.813-.07,32.665,0,3.888,0,6.928-.038,9.009v2.354A6.135,6.135,0,0,1,2312.5,5513.955Z" transform="translate(-2179.994 -5406.148)"/><g class="h" transform="translate(89.738 92.512)"><rect class="i" width="29.268" height="4.346"/></g><path class="f" d="M2250.8,5592.43v-12.248c0-7.8-.045-18.992-.07-32.583l.133.133-63.078.032h0l.165-.166v44.83l-.146-.152,45.473.077,12.967.038h.064l-12.929.038-45.575.077h-.152v-45.142h.171l63.079.031h.133v.134c-.032,13.629-.057,24.846-.07,32.665,0,3.894,0,6.936-.038,9.017v2.354A2.575,2.575,0,0,1,2250.8,5592.43Z" transform="translate(-2157.577 -5434.69)"/><g class="h" transform="translate(49.431 140.467)"><rect class="i" width="26.685" height="4.346"/></g><path class="f" d="M2250.79,5669.107v-12.248c0-7.8-.044-18.986-.07-32.583l.133.133-63.078.032h0l.166-.165v44.83l-.146-.152,45.473.076,12.967.039h.044l-12.929.038-45.575.076h-.153v-45.148h63.384v.133c-.032,13.629-.057,24.846-.07,32.672,0,3.887,0,6.928-.038,9.009v2.355A3.462,3.462,0,0,1,2250.79,5669.107Z" transform="translate(-2157.565 -5462.579)"/><g class="h" transform="translate(49.431 189.255)"><rect class="i" width="26.685" height="4.346"/></g><g transform="translate(42.305 23.56)"><rect class="j" width="41.859" height="12.572" rx="2.49" transform="translate(0.541)"/><rect class="j" width="41.859" height="12.572" rx="2.49" transform="translate(38.424 52.135)"/><rect class="j" width="41.859" height="12.572" rx="2.49" transform="translate(0 100.013)"/><rect class="j" width="41.859" height="12.572" rx="2.49" transform="translate(0 148.643)"/><g transform="translate(9.52 2.392)"><path class="i" d="M2227.578,5419.32H2222v-1.107l2.634-2.807a6.576,6.576,0,0,0,.8-1.036,1.664,1.664,0,0,0,.259-.838,1.247,1.247,0,0,0-.273-.853.991.991,0,0,0-.783-.311,1.071,1.071,0,0,0-.865.377,1.5,1.5,0,0,0-.315.992h-1.622a2.669,2.669,0,0,1,.355-1.358,2.5,2.5,0,0,1,1-.965,3.054,3.054,0,0,1,1.47-.349,2.892,2.892,0,0,1,1.955.6,2.137,2.137,0,0,1,.7,1.706,2.739,2.739,0,0,1-.313,1.23,6.807,6.807,0,0,1-1.074,1.459l-1.851,1.953h3.5Z" transform="translate(-2221.835 -5411.065)"/><path class="i" d="M2237.885,5415.953a4.119,4.119,0,0,1-.7,2.583,2.793,2.793,0,0,1-4.083.017,4.006,4.006,0,0,1-.721-2.516v-1.5a4.075,4.075,0,0,1,.707-2.588,2.8,2.8,0,0,1,4.074-.008,3.994,3.994,0,0,1,.722,2.514Zm-1.616-1.648a2.989,2.989,0,0,0-.277-1.476.936.936,0,0,0-.864-.461.917.917,0,0,0-.842.44,2.783,2.783,0,0,0-.288,1.374v1.981a3.138,3.138,0,0,0,.271,1.48.925.925,0,0,0,.87.484.907.907,0,0,0,.855-.464,3.059,3.059,0,0,0,.274-1.422Z" transform="translate(-2225.672 -5411.065)"/><path class="i" d="M2248.232,5419.32h-5.581v-1.107l2.634-2.807a6.609,6.609,0,0,0,.8-1.036,1.668,1.668,0,0,0,.26-.838,1.244,1.244,0,0,0-.274-.853.989.989,0,0,0-.783-.311,1.069,1.069,0,0,0-.864.377,1.5,1.5,0,0,0-.315.992h-1.622a2.669,2.669,0,0,1,.355-1.358,2.5,2.5,0,0,1,1-.965,3.057,3.057,0,0,1,1.47-.349,2.888,2.888,0,0,1,1.955.6,2.135,2.135,0,0,1,.7,1.706,2.737,2.737,0,0,1-.313,1.23,6.793,6.793,0,0,1-1.073,1.459l-1.852,1.953h3.5Z" transform="translate(-2229.347 -5411.065)"/><path class="i" d="M2257.214,5419.376H2255.6v-6.229l-1.929.6v-1.314l3.372-1.208h.173Z" transform="translate(-2233.414 -5411.123)"/></g><g transform="translate(47.622 54.892)"><path class="i" d="M2287.463,5501.834h-5.582v-1.107l2.634-2.807a6.6,6.6,0,0,0,.8-1.034,1.668,1.668,0,0,0,.26-.84,1.245,1.245,0,0,0-.274-.852.988.988,0,0,0-.782-.311,1.068,1.068,0,0,0-.864.377,1.5,1.5,0,0,0-.316.992h-1.622a2.666,2.666,0,0,1,.355-1.358,2.5,2.5,0,0,1,1-.965,3.053,3.053,0,0,1,1.471-.35,2.9,2.9,0,0,1,1.954.6,2.139,2.139,0,0,1,.7,1.707,2.741,2.741,0,0,1-.314,1.23,6.855,6.855,0,0,1-1.073,1.46l-1.851,1.95h3.5Z" transform="translate(-2281.719 -5493.58)"/><path class="i" d="M2297.769,5498.468a4.121,4.121,0,0,1-.7,2.582,2.792,2.792,0,0,1-4.082.018,4.009,4.009,0,0,1-.721-2.516v-1.5a4.075,4.075,0,0,1,.707-2.589,2.8,2.8,0,0,1,4.074-.008,4,4,0,0,1,.721,2.513Zm-1.616-1.648a2.985,2.985,0,0,0-.278-1.475.935.935,0,0,0-.864-.461.918.918,0,0,0-.842.439,2.794,2.794,0,0,0-.289,1.374v1.981a3.138,3.138,0,0,0,.271,1.48.925.925,0,0,0,.87.484.908.908,0,0,0,.856-.464,3.064,3.064,0,0,0,.274-1.422Z" transform="translate(-2285.556 -5493.58)"/><path class="i" d="M2308.117,5501.834h-5.581v-1.107l2.634-2.807a6.593,6.593,0,0,0,.8-1.034,1.669,1.669,0,0,0,.26-.84,1.247,1.247,0,0,0-.274-.852.99.99,0,0,0-.783-.311,1.071,1.071,0,0,0-.865.377,1.5,1.5,0,0,0-.316.992h-1.621a2.668,2.668,0,0,1,.355-1.358,2.5,2.5,0,0,1,1-.965,3.053,3.053,0,0,1,1.471-.35,2.9,2.9,0,0,1,1.954.6,2.139,2.139,0,0,1,.7,1.707,2.74,2.74,0,0,1-.313,1.23,6.837,6.837,0,0,1-1.074,1.46l-1.851,1.95h3.5Z" transform="translate(-2289.232 -5493.58)"/><path class="i" d="M2318.423,5498.468a4.114,4.114,0,0,1-.7,2.582,2.792,2.792,0,0,1-4.082.018,4.007,4.007,0,0,1-.721-2.516v-1.5a4.072,4.072,0,0,1,.707-2.589,2.8,2.8,0,0,1,4.074-.008,4,4,0,0,1,.722,2.513Zm-1.616-1.648a2.981,2.981,0,0,0-.277-1.475.935.935,0,0,0-.864-.461.919.919,0,0,0-.842.439,2.794,2.794,0,0,0-.288,1.374v1.981a3.134,3.134,0,0,0,.271,1.48.923.923,0,0,0,.869.484.907.907,0,0,0,.856-.464,3.055,3.055,0,0,0,.274-1.422Z" transform="translate(-2293.068 -5493.58)"/></g><g transform="translate(9.271 102.615)"><path class="i" d="M2227.186,5576.839h-5.58v-1.107l2.633-2.808a6.436,6.436,0,0,0,.8-1.035,1.662,1.662,0,0,0,.26-.839,1.244,1.244,0,0,0-.274-.853.992.992,0,0,0-.782-.311,1.067,1.067,0,0,0-.864.378,1.5,1.5,0,0,0-.316.993h-1.621a2.672,2.672,0,0,1,.354-1.359,2.5,2.5,0,0,1,1-.964,3.042,3.042,0,0,1,1.471-.35,2.888,2.888,0,0,1,1.954.6,2.134,2.134,0,0,1,.7,1.705,2.733,2.733,0,0,1-.313,1.23,6.812,6.812,0,0,1-1.074,1.459l-1.851,1.952h3.5Z" transform="translate(-2221.444 -5568.585)"/><path class="i" d="M2237.493,5573.473a4.121,4.121,0,0,1-.7,2.584,2.793,2.793,0,0,1-4.082.016,4,4,0,0,1-.721-2.517v-1.5a4.067,4.067,0,0,1,.707-2.589,2.8,2.8,0,0,1,4.073-.008,3.99,3.99,0,0,1,.721,2.514Zm-1.616-1.648a2.98,2.98,0,0,0-.277-1.475.935.935,0,0,0-.864-.462.92.92,0,0,0-.842.439,2.8,2.8,0,0,0-.288,1.375v1.981a3.126,3.126,0,0,0,.271,1.48.922.922,0,0,0,.87.484.907.907,0,0,0,.855-.464,3.054,3.054,0,0,0,.274-1.422Z" transform="translate(-2225.281 -5568.585)"/><path class="i" d="M2246.5,5576.9h-1.616v-6.229l-1.929.6v-1.313l3.372-1.208h.174Z" transform="translate(-2229.268 -5568.643)"/><path class="i" d="M2256.418,5573.584a2.038,2.038,0,0,1-1.476.621,2.184,2.184,0,0,1-1.729-.74,2.933,2.933,0,0,1-.648-2,3.123,3.123,0,0,1,.349-1.468,2.57,2.57,0,0,1,.976-1.041,2.7,2.7,0,0,1,1.409-.372,2.59,2.59,0,0,1,1.431.4,2.648,2.648,0,0,1,.973,1.158,4.158,4.158,0,0,1,.352,1.728v.6a4.713,4.713,0,0,1-1.012,3.2,3.828,3.828,0,0,1-2.868,1.241l-.4.006v-1.348l.357-.005A2.066,2.066,0,0,0,2256.418,5573.584Zm-1.079-.614a1.132,1.132,0,0,0,.674-.2,1.347,1.347,0,0,0,.428-.486v-.666a2.221,2.221,0,0,0-.314-1.275.975.975,0,0,0-.839-.453.943.943,0,0,0-.8.445,1.891,1.891,0,0,0-.313,1.115,1.847,1.847,0,0,0,.3,1.094A.993.993,0,0,0,2255.339,5572.97Z" transform="translate(-2232.764 -5568.585)"/></g><g transform="translate(9.261 150.746)"><path class="i" d="M2227.171,5652.485h-5.581v-1.107l2.634-2.808a6.407,6.407,0,0,0,.8-1.035,1.658,1.658,0,0,0,.26-.837,1.243,1.243,0,0,0-.274-.853.983.983,0,0,0-.782-.311,1.069,1.069,0,0,0-.865.378,1.5,1.5,0,0,0-.316.992h-1.621a2.673,2.673,0,0,1,.355-1.359,2.5,2.5,0,0,1,1-.965,3.056,3.056,0,0,1,1.471-.35,2.892,2.892,0,0,1,1.955.6,2.141,2.141,0,0,1,.7,1.707,2.739,2.739,0,0,1-.313,1.23,6.833,6.833,0,0,1-1.074,1.459l-1.851,1.951h3.5Z" transform="translate(-2221.428 -5644.23)"/><path class="i" d="M2237.477,5649.12a4.118,4.118,0,0,1-.7,2.582,2.793,2.793,0,0,1-4.082.017,4,4,0,0,1-.721-2.516v-1.5a4.065,4.065,0,0,1,.708-2.588,2.8,2.8,0,0,1,4.073-.01,3.994,3.994,0,0,1,.722,2.514Zm-1.616-1.648a2.98,2.98,0,0,0-.277-1.476.935.935,0,0,0-.864-.461.915.915,0,0,0-.842.439,2.8,2.8,0,0,0-.289,1.374v1.982a3.141,3.141,0,0,0,.272,1.481.924.924,0,0,0,.869.483.908.908,0,0,0,.856-.465,3.051,3.051,0,0,0,.274-1.421Z" transform="translate(-2225.264 -5644.23)"/><path class="i" d="M2246.48,5652.542h-1.616v-6.229l-1.93.6V5645.6l3.372-1.208h.174Z" transform="translate(-2229.251 -5644.289)"/><path class="i" d="M2257.958,5646.507a1.9,1.9,0,0,1-.3,1.052,2.144,2.144,0,0,1-.816.732,2.358,2.358,0,0,1,.939.786,2.015,2.015,0,0,1,.347,1.177,2.132,2.132,0,0,1-.739,1.713,3.52,3.52,0,0,1-4.02,0,2.128,2.128,0,0,1-.744-1.711,2.026,2.026,0,0,1,.347-1.181,2.313,2.313,0,0,1,.933-.782,2.121,2.121,0,0,1-.813-.732,1.909,1.909,0,0,1-.293-1.052,2.111,2.111,0,0,1,.693-1.658,3.188,3.188,0,0,1,3.767,0A2.1,2.1,0,0,1,2257.958,5646.507Zm-1.449,3.629a1.172,1.172,0,0,0-.307-.85,1.23,1.23,0,0,0-1.65,0,1.326,1.326,0,0,0-.006,1.691,1.261,1.261,0,0,0,1.664.012A1.168,1.168,0,0,0,2256.509,5650.136Zm-.167-3.551a1.119,1.119,0,0,0-.251-.764,1.025,1.025,0,0,0-1.415-.008,1.111,1.111,0,0,0-.251.772,1.171,1.171,0,0,0,.251.783,1,1,0,0,0,1.418,0A1.183,1.183,0,0,0,2256.342,5646.585Z" transform="translate(-2232.777 -5644.23)"/></g></g></g><g transform="translate(207.468 24.436)"><path class="j" d="M2430.087,5357.717a2.112,2.112,0,1,1-2.113-2.113,2.112,2.112,0,0,1,2.113,2.113Z" transform="translate(-2425.702 -5325.545)"/><path class="f" d="M2430,5357.653a4.6,4.6,0,0,0-.127-.5,2.125,2.125,0,0,0-.776-1.088,2,2,0,0,0-1.877-.255,1.967,1.967,0,0,0,0,3.685,2.008,2.008,0,0,0,1.877-.254,2.125,2.125,0,0,0,.776-1.089c.1-.312.1-.5.127-.5a.98.98,0,0,1,0,.535,2.1,2.1,0,0,1-.764,1.273,2.2,2.2,0,0,1-2.119.356,2.258,2.258,0,0,1,0-4.256,2.188,2.188,0,0,1,2.119.356,2.1,2.1,0,0,1,.764,1.272A.758.758,0,0,1,2430,5357.653Z" transform="translate(-2425.61 -5325.482)"/><circle class="j" cx="17.478" cy="17.478" r="17.478" transform="translate(5.225 0.124)"/><path class="f" d="M2468.671,5325.962a1.407,1.407,0,0,1-.032-.28l-.063-.833a6.066,6.066,0,0,0-.039-.636,5.55,5.55,0,0,0-.108-.726,13.144,13.144,0,0,0-.369-1.8,16.807,16.807,0,0,0-1.909-4.625,17.357,17.357,0,0,0-20.837-7.4,18.83,18.83,0,0,0-2.259.992c-.363.2-.712.433-1.075.637a8.625,8.625,0,0,0-1.05.72,19.375,19.375,0,0,0-1.992,1.724,18.985,18.985,0,0,0-1.7,2,16.832,16.832,0,0,0-2.475,4.771,17.208,17.208,0,0,0,0,10.931,16.684,16.684,0,0,0,2.475,4.772,19.15,19.15,0,0,0,1.7,2.005,19.614,19.614,0,0,0,1.96,1.673,8.865,8.865,0,0,0,1.05.719c.363.217.712.452,1.075.635a18.487,18.487,0,0,0,2.259.994,17.317,17.317,0,0,0,20.812-7.394,16.885,16.885,0,0,0,1.909-4.631,13.187,13.187,0,0,0,.369-1.8c.038-.261.089-.5.108-.724s.032-.427.038-.637l.063-.827a1.5,1.5,0,0,1,.031-.287v1.756a6.373,6.373,0,0,1-.095.738,12.1,12.1,0,0,1-.344,1.813,16.434,16.434,0,0,1-1.908,4.689,17.537,17.537,0,0,1-21.1,7.591,18.48,18.48,0,0,1-2.3-1.005c-.375-.2-.732-.439-1.1-.637a9.363,9.363,0,0,1-1.062-.731,19.494,19.494,0,0,1-2-1.7,19.065,19.065,0,0,1-1.73-2.043,16.905,16.905,0,0,1-2.545-4.861,17.494,17.494,0,0,1,0-11.134,17.087,17.087,0,0,1,2.545-4.861,20.758,20.758,0,0,1,1.73-2.042,19.651,19.651,0,0,1,2.017-1.687,9.629,9.629,0,0,1,1.063-.732c.369-.216.732-.451,1.1-.636a19.507,19.507,0,0,1,2.3-1,17.378,17.378,0,0,1,21.1,7.527,16.465,16.465,0,0,1,1.909,4.689,12.1,12.1,0,0,1,.343,1.819c.032.261.077.509.1.731s0,.434,0,.637v.833A.594.594,0,0,0,2468.671,5325.962Z" transform="translate(-2428.484 -5308.361)"/><path class="e" d="M2456.786,5335.663a5.293,5.293,0,1,1,5.294-5.293,5.293,5.293,0,0,1-5.294,5.293Zm0-9.945a4.657,4.657,0,1,0,4.657,4.658v-.006A4.657,4.657,0,0,0,2456.786,5325.718Z" transform="translate(-2435.024 -5314.44)"/><rect class="e" width="0.636" height="5.16" transform="translate(24.261 20.27) rotate(-35.98)"/><path class="j" d="M2455.482,5330.325a3.047,3.047,0,0,0,.522,4.278,2.921,2.921,0,0,0,.387.258" transform="translate(-2436.24 -5316.35)"/><path class="f" d="M2456.3,5334.851a1.692,1.692,0,0,1-.694-.375,2.955,2.955,0,0,1-.731-3.545,1.453,1.453,0,0,1,.5-.636c.031,0-.127.279-.281.713a3.284,3.284,0,0,0-.133,1.736,3.321,3.321,0,0,0,.808,1.546C2456.091,5334.641,2456.339,5334.8,2456.3,5334.851Z" transform="translate(-2436.143 -5316.34)"/></g><g transform="translate(108.996 39.066)"><path class="f" d="M2406.778,5391.908c-.948-17.039-8.564-24.96-10.816-38.277-1.12-6.687-.833-13.534-5.574-18.375a14.213,14.213,0,0,0-7.311-3.817,9.711,9.711,0,0,0-4.587.451c-2.246-.331-3.251-.439-4.835,0a13.04,13.04,0,0,0-5.695,3.468c-3.379,4.123-4.072,9.791-4.13,15.124a88.821,88.821,0,0,0,3.557,25.488,3.579,3.579,0,0,0,1.19,2.094,3.5,3.5,0,0,0,2.545.26,50.848,50.848,0,0,0,9.62-2.507,3.206,3.206,0,0,0,1.221-.636c.859-.878.5-2.329.1-3.493l8.634-7.388c-.573,5.141-2.227,10.1-2.958,15.213a43.07,43.07,0,0,0,1.4,18.3,27.834,27.834,0,0,1,10.18-.229c.808.127,2.125,6.535,2.844,6.134C2403.412,5403.011,2406.861,5393.358,2406.778,5391.908Z" transform="translate(-2304.665 -5331.355)"/><path class="m" d="M2377.792,5337.758l2.45-.274,9.353,3.767a2.615,2.615,0,0,1,2.469,2.545l-.083,30.484a8.54,8.54,0,0,1-1.648,5.5l-1.317,1.736a6.9,6.9,0,0,1-11.529-.731,3.439,3.439,0,0,1-.331-.789,5.31,5.31,0,0,1-.14-.681,21.7,21.7,0,0,1-.292-4.574c-.166-2.7-.223-3.818-.223-3.773s-5.726-.636-7.279-8.017c-.77-3.659-.891-9.716-.827-14.672C2368.451,5343.809,2372.281,5337.751,2377.792,5337.758Z" transform="translate(-2306.321 -5333.584)"/><path class="f" d="M2371.192,5363.024a.969.969,0,0,0,.967.917.91.91,0,0,0,.935-.884v-.027a.953.953,0,0,0-.96-.916.916.916,0,0,0-.941.89Z" transform="translate(-2307.344 -5342.544)"/><path class="f" d="M2386.152,5362.088a.949.949,0,0,0,.967.917.911.911,0,0,0,.935-.884v-.02a.949.949,0,0,0-.961-.916.911.911,0,0,0-.941.877Z" transform="translate(-2312.785 -5342.205)"/><path class="f" d="M2370.632,5358.618c.121.121.814-.452,1.839-.5s1.8.42,1.909.292-.077-.279-.414-.5a2.638,2.638,0,0,0-1.533-.395,2.555,2.555,0,0,0-1.457.554C2370.663,5358.338,2370.568,5358.566,2370.632,5358.618Z" transform="translate(-2307.133 -5340.873)"/><path class="f" d="M2385.891,5357.754c.127.114.8-.471,1.826-.554s1.807.375,1.908.242-.083-.273-.432-.483a2.587,2.587,0,0,0-2.984.248C2385.917,5357.475,2385.827,5357.7,2385.891,5357.754Z" transform="translate(-2312.683 -5340.537)"/><path class="f" d="M2379.827,5366.069a7.084,7.084,0,0,0-1.68-.215c-.261,0-.509-.051-.56-.229a1.28,1.28,0,0,1,.133-.783c.217-.637.44-1.317.675-2.03a33.318,33.318,0,0,0,1.469-5.287,34.957,34.957,0,0,0-1.908,5.16l-.636,2.037a1.5,1.5,0,0,0-.089,1.036.635.635,0,0,0,.452.356,1.609,1.609,0,0,0,.446.039A6.135,6.135,0,0,0,2379.827,5366.069Z" transform="translate(-2309.521 -5340.875)"/><path class="n" d="M2381.182,5388.249a18.919,18.919,0,0,0,9.8-3.145s-2.24,5.256-9.7,4.932Z" transform="translate(-2310.978 -5350.905)"/><path class="n" d="M2382.167,5374.363a1.845,1.845,0,0,1,1.623-.77,1.661,1.661,0,0,1,1.19.566,1.055,1.055,0,0,1,.146,1.215,1.271,1.271,0,0,1-1.324.408,3.824,3.824,0,0,1-1.348-.72,1.012,1.012,0,0,1-.306-.286.336.336,0,0,1,0-.381" transform="translate(-2311.307 -5346.718)"/><path class="f" d="M2384.346,5371.806c-.165,0-.114,1.106-1.024,1.946s-2.1.77-2.1.929.274.2.776.191a2.782,2.782,0,0,0,1.756-.713,2.406,2.406,0,0,0,.782-1.629C2384.556,5372.085,2384.441,5371.806,2384.346,5371.806Z" transform="translate(-2310.992 -5346.069)"/><path class="f" d="M2385.892,5351.861c.153.248,1.005-.1,2.075-.21s1.991,0,2.067-.28c.032-.127-.172-.349-.579-.527a3.176,3.176,0,0,0-1.635-.223,3.1,3.1,0,0,0-1.521.592C2385.962,5351.479,2385.822,5351.74,2385.892,5351.861Z" transform="translate(-2312.684 -5338.354)"/><path class="f" d="M2370.266,5352.486c.191.229.885-.05,1.731-.1s1.571.077,1.73-.177c.064-.122-.063-.344-.388-.554a2.537,2.537,0,0,0-2.787.229C2370.266,5352.138,2370.19,5352.378,2370.266,5352.486Z" transform="translate(-2306.997 -5338.624)"/><path class="m" d="M2403.282,5365.814c0-.546.547-1.909,1.088-2,1.444-.3,4.078-.311,4.288,3.386.286,5.052-4.848,4.295-4.867,4.155S2403.4,5367.723,2403.282,5365.814Z" transform="translate(-2319.016 -5343.119)"/><path class="n" d="M2406.38,5370.263a1.365,1.365,0,0,0,.241.115.854.854,0,0,0,.637,0,2.2,2.2,0,0,0,.9-2.017,2.856,2.856,0,0,0-.318-1.272,1.032,1.032,0,0,0-.7-.636.46.46,0,0,0-.509.273c-.057.146,0,.241-.045.255s-.114-.083-.089-.293a.571.571,0,0,1,.185-.325.64.64,0,0,1,.477-.16,1.278,1.278,0,0,1,.967.732,2.987,2.987,0,0,1,.381,1.394,2.321,2.321,0,0,1-1.157,2.252.928.928,0,0,1-.815-.089C2406.392,5370.4,2406.36,5370.276,2406.38,5370.263Z" transform="translate(-2320.141 -5344.03)"/><path class="f" d="M2392.478,5347.638c.357-2.016-.4-4.841-.922-6.808a7.392,7.392,0,0,0-3.028-3.976,12.322,12.322,0,0,0-7.635-2.3l-1.012.331a4.17,4.17,0,0,0-3.913,1.406h0v-1.356a10.005,10.005,0,0,0-6.674,4.377,23.645,23.645,0,0,0-3.181,7.534,83.092,83.092,0,0,0,9.747-9.817c2.92,3.817,7.247,6.274,11.192,9.13a14.7,14.7,0,0,1,.872,5.8c0,4.963,1.05,9.449,1.438,14.406.223,2.856.2,5.3,3.124,5.051C2392.86,5362.267,2390.907,5356.628,2392.478,5347.638Z" transform="translate(-2305.496 -5332.515)"/><path class="g" d="M2407.388,5353.67a4.772,4.772,0,0,1-1.406.254,13.611,13.611,0,0,1-3.436-.134,16.261,16.261,0,0,1-3.3-.955,5.083,5.083,0,0,1-1.272-.637,47.925,47.925,0,0,0,4.632,1.273A27.1,27.1,0,0,0,2407.388,5353.67Z" transform="translate(-2317.084 -5338.934)"/><path class="g" d="M2400.792,5345.9a4.437,4.437,0,0,1-.808-.051c-.521-.05-1.272-.158-2.182-.331a37.283,37.283,0,0,1-13.419-5.439c-.77-.516-1.387-.96-1.794-1.272a3.5,3.5,0,0,1-.636-.529,4.086,4.086,0,0,1,.687.426c.433.293,1.063.7,1.845,1.19a42.694,42.694,0,0,0,13.336,5.409c.9.2,1.642.343,2.157.433A3.355,3.355,0,0,1,2400.792,5345.9Z" transform="translate(-2311.258 -5333.873)"/><path class="g" d="M2366.887,5351.174a4.93,4.93,0,0,1-1.164,1.356,4.983,4.983,0,0,1-1.394,1.125c-.063-.07.458-.674,1.165-1.362A4.936,4.936,0,0,1,2366.887,5351.174Z" transform="translate(-2304.845 -5338.564)"/><path class="l" d="M2350.84,5401.044c.567-.986.14-5.02.14-5.02l-1.311,2.361a58.189,58.189,0,0,0-7.635,3.359c-1.6,1.12-3.761,5.841-3.761,5.841l-13.361,16.912-24.974-4.377-2.347,12.541,8.436,1.75,14.837,1.909c4.168.9,8.221,1.229,11.453-1.508l.222-.432c-1.177,16.86.445,35.452,1,52.338a9.153,9.153,0,0,0,.706,3.869c.853,1.667,4.009,2.545,5.861,2.3s1.272-1.432,1.66-3.258c.216-1-.719-2.386-.84-3.4q-2.729-22.014-5.452-44.022c-.057-.9-.121-1.744-.184-2.488-.636-7.756-.732-9.849-.388-13.4C2335.437,5420.838,2347.023,5407.706,2350.84,5401.044Z" transform="translate(-2280.573 -5354.878)"/><path class="f" d="M2356.359,5421.134a3.866,3.866,0,0,1-.382.764c-.267.471-.636,1.17-1.05,2.049a34.6,34.6,0,0,0-3.442,14.691c0,.973,0,1.762.032,2.3a3.661,3.661,0,0,1,0,.853,4.852,4.852,0,0,1-.127-.839c-.085-.77-.132-1.543-.14-2.316a31.25,31.25,0,0,1,3.468-14.819,22.675,22.675,0,0,1,1.152-2.017A4.415,4.415,0,0,1,2356.359,5421.134Z" transform="translate(-2300.088 -5364.011)"/><g class="h" transform="translate(49.428 60.043)"><path class="i" d="M2353.626,5425.725a29.464,29.464,0,0,0-4.607,9.181c-.859,3.334-.318,5.225-.394,8.724l2,.451C2350.184,5437.808,2350.394,5433.666,2353.626,5425.725Z" transform="translate(-2348.527 -5425.725)"/></g><path class="f" d="M2355.386,5425.456a1.3,1.3,0,0,1,0-.331c.038-.209.057-.534.153-.935a26.842,26.842,0,0,1,1.024-3.329,97.905,97.905,0,0,1,4.746-10.434c.585-1.132,1.164-2.227,1.737-3.27l.045-.082h.1l2.106-.04-.14.217a2.1,2.1,0,0,0-.821-.922l-.146-.1.115-.127a48.126,48.126,0,0,1,4.517-4.746c.585-.535,1.063-.941,1.393-1.216a.332.332,0,1,1,.064.07l-1.336,1.272a57.72,57.72,0,0,0-4.409,4.8l-.038-.216a2.367,2.367,0,0,1,.942,1.05l.1.209h-.235l-2.105.058.133-.083c-.56,1.036-1.139,2.131-1.724,3.264-2.043,3.977-3.767,7.635-4.823,10.364a31.394,31.394,0,0,0-1.114,3.277A10.949,10.949,0,0,1,2355.386,5425.456Z" transform="translate(-2301.59 -5356.231)"/><path class="l" d="M2394.545,5673.926l8.2,13.2s-10.664,12.776-9.385,15.359l26.176-14.983-11.968-21.1Z" transform="translate(-2315.369 -5453.228)"/><path class="b" d="M2419.335,5689.9a1.228,1.228,0,0,1,1.438.8,1.184,1.184,0,0,1-.776,1.431,1.272,1.272,0,0,1-1.514-.852,1.222,1.222,0,0,1,.973-1.4" transform="translate(-2324.54 -5461.76)"/><g class="o" transform="translate(77.755 232.195)"><path class="j" d="M2419.436,5698.375l-1.273-2.081-24.629,15.149s-.878,1.171-.273,1.909Z" transform="translate(-2393.048 -5696.295)"/></g><path class="f" d="M2407.347,5698.776c.076.126.75-.177,1.609-.127s1.508.394,1.6.274-.522-.745-1.572-.789S2407.251,5698.674,2407.347,5698.776Z" transform="translate(-2320.491 -5464.768)"/><path class="f" d="M2404.05,5703.238c.044.141.719.039,1.463.331s1.2.8,1.323.713-.21-.846-1.139-1.19S2403.986,5703.111,2404.05,5703.238Z" transform="translate(-2319.294 -5466.519)"/><path class="f" d="M2403.267,5709.016c.134-.044-.057-.782-.782-1.272s-1.489-.452-1.482-.312.592.3,1.183.725S2403.134,5709.074,2403.267,5709.016Z" transform="translate(-2318.187 -5468.118)"/><path class="f" d="M2404.919,5693.191c.121.083.636-.426,1.355-.789s1.444-.464,1.451-.636-.8-.293-1.674.146S2404.8,5693.127,2404.919,5693.191Z" transform="translate(-2319.604 -5462.396)"/><path class="l" d="M2388.622,5686.538l.885,15.524s-15.48,6.108-15.595,8.99l30.152-.636-.382-24.242Z" transform="translate(-2308.333 -5460.418)"/><path class="b" d="M2412.214,5708.8a1.272,1.272,0,0,1,.885,1.393,1.189,1.189,0,0,1-1.368.884,1.31,1.31,0,0,1-.928-1.476,1.234,1.234,0,0,1,1.527-.764" transform="translate(-2321.745 -5468.641)"/><g class="o" transform="translate(65.564 247.561)"><path class="j" d="M2404.042,5722.888l-.134-2.443-28.848,1.5s-1.329.636-1.158,1.552Z" transform="translate(-2373.888 -5720.445)"/></g><path class="f" d="M2397.652,5710.827c0,.146.744.2,1.476.636s1.133,1.069,1.272,1.012-.1-.909-1-1.451S2397.613,5710.693,2397.652,5710.827Z" transform="translate(-2316.968 -5469.329)"/><path class="f" d="M2392.721,5713.042c-.031.146.636.381,1.126.992s.668,1.272.815,1.272.223-.846-.426-1.591S2392.721,5712.9,2392.721,5713.042Z" transform="translate(-2315.175 -5470.17)"/><path class="f" d="M2389.321,5717.647c.133.031.324-.713-.07-1.508s-1.094-1.107-1.152-.979.375.541.687,1.2S2389.174,5717.634,2389.321,5717.647Z" transform="translate(-2313.492 -5470.951)"/><path class="f" d="M2397.948,5705c.064.133.731-.089,1.565-.045s1.489.286,1.565.159-.56-.636-1.547-.674S2397.872,5704.89,2397.948,5705Z" transform="translate(-2317.074 -5467.063)"/><path class="f" d="M2361.315,5504.515s-1.387,66.05-.14,70.625,26.773,51.321,26.773,51.321l15.4-7.565-20.424-49.361,4.5-63.466Z" transform="translate(-2303.511 -5394.341)"/><path class="f" d="M2395.544,5498.715s8.857,14.462,7.291,23.135c-.636,3.556-5.491,11.452-5.491,11.452v42.33l3.741,56.525h-17.949l-7.718-49.844a40.718,40.718,0,0,1-3.741-8.519c-1.037-3.945-4.416-50.621-4.416-50.621l-5.37-18.979Z" transform="translate(-2303.961 -5392.231)"/><path class="g" d="M2420.709,5661.525a7.8,7.8,0,0,0,0,1.189c0,.765.076,1.871.153,3.239.153,2.73.427,6.5.745,10.657s.585,7.928.764,10.658c.083,1.317.159,2.4.21,3.232a7.9,7.9,0,0,0,.12,1.183,6.629,6.629,0,0,0,0-1.189c0-.764-.038-1.871-.1-3.239-.108-2.736-.337-6.509-.636-10.67s-.636-7.863-.846-10.651c-.114-1.317-.2-2.4-.28-3.232A7.28,7.28,0,0,0,2420.709,5661.525Z" transform="translate(-2325.347 -5451.453)"/><path class="g" d="M2402.191,5510.333a2.462,2.462,0,0,1-.484.547,10.88,10.88,0,0,1-1.54,1.272,12.277,12.277,0,0,1-12.515.738,10.869,10.869,0,0,1-1.68-1.062,2.712,2.712,0,0,1-.541-.484,25.371,25.371,0,0,0,2.323,1.33,12.653,12.653,0,0,0,12.286-.77A25.183,25.183,0,0,0,2402.191,5510.333Z" transform="translate(-2312.523 -5396.457)"/><path class="g" d="M2370.572,5531.225a1,1,0,0,1,0,.235c0,.171.032.395.057.681.044.636.115,1.508.2,2.64.153,2.31.382,5.618.636,9.7.573,8.184,1.273,19.5,2.386,31.966.153,1.7.324,3.379.515,5.013.108.821.2,1.642.375,2.412a19.008,19.008,0,0,0,.751,2.278c1.107,2.984,2.29,5.8,3.423,8.437v.039c1.2,7.673,2.208,14.169,2.927,18.763l.865,5.326c.108.6.191,1.069.255,1.406s.108.477.1.484a3.236,3.236,0,0,1-.153-.471c-.07-.318-.178-.782-.3-1.4-.241-1.228-.56-3.028-.954-5.313-.782-4.568-1.833-11.058-3.042-18.75v.038c-1.145-2.634-2.335-5.453-3.455-8.443a19.2,19.2,0,0,1-.757-2.3c-.191-.821-.28-1.635-.388-2.457-.2-1.647-.369-3.327-.515-5.027-1.094-12.477-1.775-23.8-2.29-31.983l-.484-9.716c-.057-1.133-.1-2.017-.127-2.642v-.686A1.126,1.126,0,0,1,2370.572,5531.225Z" transform="translate(-2307.118 -5404.056)"/><path class="j" d="M2371.06,5398.493s-.191,2.9,2.163,2.9c3.308,0,10.244-6.363,10.244-6.363l-13.362,31.889v38.6l-11.331,1.158s-1.33-.191-1.6-2.1c-.528-3.734-.452-10.542-.884-13.361-1.349-8.716-4-13.463-3.62-20.359.554-10.264,15-28,15-28Z" transform="translate(-2300.594 -5354.515)"/><path class="l" d="M2388.226,5388.715a86.925,86.925,0,0,1-5.587,9.042c-2.888,4.015-21.187,32.048-21.187,32.048l7.311,56.869.814,4.817a2.4,2.4,0,0,0,2.765,1.98c.037-.006.074-.013.11-.021l32.322-5.682a2.933,2.933,0,0,0,2.3-3.748l-14.43-40.529,9.321-35.994s-.344-5.243-6.019-10.562c-1.082-1.011-5.542-4.708-6.28-5.726Z" transform="translate(-2303.801 -5352.22)"/><g class="h" transform="translate(59.426 91.252)"><path class="i" d="M2364.764,5478.981s14.882,11.8,22.123,11.911,11.007-6.026,11.007-6.026l-14.564.4-19.088-10.493Z" transform="translate(-2364.242 -5474.775)"/></g><path class="l" d="M2347.7,5442.5s13.425,8.869,15.906,10.555,14.195,8.481,15.722,8.972,11,.553,12.725-2.666,2.914-10.091,2.914-10.091l2.284-32.163a12.946,12.946,0,0,0-2.316-8.412c-1.387-1.958-3.219-3.728-5.2-3.429-4.231.637-13.33,10.861-12.891,16.117s.452,19.89.452,19.89l-23.968-7.934Z" transform="translate(-2298.799 -5358.228)"/><path class="f" d="M2394.84,5410.675a7.137,7.137,0,0,1,.439.637,11.618,11.618,0,0,1,1.018,1.954,12.716,12.716,0,0,1,.878,3.436,26.287,26.287,0,0,1-.108,4.791c-.5,7.164-1.209,17.363-2.055,29.567h0q-.363,2.06-.878,4.167a36.037,36.037,0,0,1-1.272,4.231,8.722,8.722,0,0,1-1.018,2.061,5.033,5.033,0,0,1-1.832,1.457,14.281,14.281,0,0,1-4.537,1.349,19.606,19.606,0,0,1-4.854.127,6.629,6.629,0,0,1-2.411-.636c-.744-.369-1.47-.776-2.2-1.178q-4.371-2.443-8.818-5.089c-3.557-2.062-6.859-4.392-10.142-6.535l-9.544-6.362-.127-.083.083-.127,5.643-9.315.064-.1.115.038,23.936,8.106-.14.095c.49-5.974.878-10.733,1.145-14,.14-1.622.248-2.875.324-3.735.038-.413.063-.738.089-.961s.038-.331.038-.331v.331c0,.217-.038.548-.064.967-.063.859-.152,2.119-.267,3.742-.242,3.276-.6,8.029-1.05,14v.14l-.134-.045-23.98-8.048.178-.064-5.637,9.321-.044-.21,9.544,6.331c3.3,2.15,6.579,4.454,10.123,6.521q4.455,2.654,8.812,5.09c.726.4,1.451.8,2.182,1.17a6.361,6.361,0,0,0,2.3.637,19.3,19.3,0,0,0,4.772-.121,14.054,14.054,0,0,0,4.454-1.3,4.855,4.855,0,0,0,1.731-1.368,8.358,8.358,0,0,0,.979-1.985,35.556,35.556,0,0,0,1.272-4.2c.35-1.394.637-2.782.885-4.136h0c.9-12.2,1.642-22.4,2.17-29.561a26.358,26.358,0,0,0,.146-4.765,12.611,12.611,0,0,0-.827-3.417,12.829,12.829,0,0,0-.974-1.96c-.127-.216-.235-.369-.3-.477Z" transform="translate(-2298.683 -5360.207)"/><path class="f" d="M2367.862,5424.914a2.455,2.455,0,0,1,.293-.337c.216-.242.509-.554.865-.941l3.181-3.455,4.778-5.09c1.826-1.909,3.78-4.034,6.089-6.057v.242l-.191-.217-1.616-1.788-.267-.3h.4l2.99.152-.146.083,6.019-10.479,1.782-3.041.49-.808c.115-.184.178-.28.191-.274a1.965,1.965,0,0,1-.14.3c-.115.216-.261.5-.445.833l-1.7,3.094-5.923,10.535-.051.083h-.1l-2.99-.153.134-.273,1.61,1.788.2.216.108.121-.127.114c-2.271,1.992-4.244,4.129-6.083,6.013l-4.823,5.051c-1.374,1.438-2.494,2.6-3.277,3.385-.388.4-.694.7-.91.9A1.89,1.89,0,0,1,2367.862,5424.914Z" transform="translate(-2306.133 -5353.634)"/><g class="h" transform="translate(60.655 51.861)"><path class="i" d="M2366.173,5434.065l18.2-17.16-1.552-1.7h1.552l.407-2.341-1.025,1.807-3-.152,1.769,1.616-15.124,15.989Z" transform="translate(-2366.173 -5412.865)"/></g><path class="f" d="M2384.282,5514.46l.306-.076.928-.2,3.512-.738,12.267-2.494h.108l.058.095,3.378,5.5.127.2-.235.044-.4.076-17.892,3.36h-.089l-.032-.089-1.527-4.206c-.159-.458-.293-.821-.388-1.1a2.671,2.671,0,0,1-.121-.375,3.769,3.769,0,0,1,.178.4c.108.28.261.636.446,1.113l1.616,4.092-.121-.07,17.866-3.467.4-.077-.108.248-3.372-5.51.165.076-12.178,2.316-3.569.636-.967.165A2.312,2.312,0,0,1,2384.282,5514.46Z" transform="translate(-2312.105 -5396.684)"/><g class="h" transform="translate(72.349 118.318)"><path class="i" d="M2384.552,5517.315l1.292,6.674,18.528-3.34-.515-1.546-17.37,3.315Z" transform="translate(-2384.552 -5517.315)"/></g><path class="f" d="M2398.743,5467.491c-.1.044-.865-1.483-2.246-3.042s-2.793-2.545-2.736-2.615A11.181,11.181,0,0,1,2398.743,5467.491Z" transform="translate(-2315.552 -5378.815)"/><path class="m" d="M2287.321,5435.455a50.625,50.625,0,0,1-6.5-4.562s-2.7-.853-3.945.853c0,0-2.863.789-3.245,1.324s-2.787,4.243-2.787,4.243,1.273,4.423,1.394,4.645c.229.484.75.993,1.19.458a.93.93,0,0,0,.2-.636v-.292l.693-.49s.312,1.718,1.241,1.451a16.182,16.182,0,0,0,3.016-1.813,17.336,17.336,0,0,0,4.486,1.844,48.821,48.821,0,0,1,5.09,1.14l1.565-8.4Z" transform="translate(-2270.842 -5367.483)"/><path class="n" d="M2274.386,5443.464a.381.381,0,0,1-.363.07.949.949,0,0,1-.636-.764,13.734,13.734,0,0,1,0-3.232,29.685,29.685,0,0,1,.509-3.181,5.476,5.476,0,0,1,.344-1.272c.115,0-.248,2.017-.522,4.454a18.918,18.918,0,0,0-.115,3.181.8.8,0,0,0,.471.681C2274.253,5443.491,2274.38,5443.439,2274.386,5443.464Z" transform="translate(-2271.733 -5369.086)"/><path class="n" d="M2281.935,5436.854a3.7,3.7,0,0,1-2.195,1.018l.134-.121-.038.166a10.428,10.428,0,0,1-.764,2.456,10.141,10.141,0,0,1,.439-2.545l.044-.16v-.108h.108A16.036,16.036,0,0,0,2281.935,5436.854Z" transform="translate(-2273.836 -5369.73)"/><path class="m" d="M2284.6,5437.4a2.283,2.283,0,0,0-2.545-.521l-.483.636-3.665,3.053a5.643,5.643,0,0,0-1.641,1.851,1.908,1.908,0,0,0,.382,2.278,2.188,2.188,0,0,0,2.6-.343c.732-.592,1.272-1.418,2.023-1.972,1.183-.871,2.9-1.106,3.627-2.379A2.283,2.283,0,0,0,2284.6,5437.4Z" transform="translate(-2272.736 -5369.673)"/><path class="n" d="M2281.771,5435.955a2.023,2.023,0,0,1-.324,1.329,4.9,4.9,0,0,1-.923,1.19,11.961,11.961,0,0,1-1.431,1.113,8.909,8.909,0,0,0-2.424,2.081,7.982,7.982,0,0,0-.636,1.17,2.15,2.15,0,0,1,.426-1.3,5.5,5.5,0,0,1,.98-1.133,15.522,15.522,0,0,1,1.45-1.088,12.678,12.678,0,0,0,1.413-1.069,5.088,5.088,0,0,0,.929-1.075A6.488,6.488,0,0,0,2281.771,5435.955Z" transform="translate(-2272.73 -5369.403)"/><path class="m" d="M2314.022,5453.916s.134-4.556,1.273-5.911,7.9-3.08,7.9-3.08l16.95,3.932-3.938,6.363-1.19-1.119s-5.332,1.6-7.966,1.024a29.9,29.9,0,0,1-4.594-1.369l-2.761.191s-1.991,2.062-2.634,2.062-1.349-.58-1.031-1.223l-.573-.967S2314.283,5454.494,2314.022,5453.916Z" transform="translate(-2286.548 -5372.666)"/><path class="n" d="M2324.051,5454.061a2.837,2.837,0,0,1-1.209.413,20.869,20.869,0,0,0-2.959.579,4.134,4.134,0,0,0-2.125,1.948,7.088,7.088,0,0,1-.636,1.087,3.55,3.55,0,0,1,.432-1.2,5.115,5.115,0,0,1,.77-1.177,3.549,3.549,0,0,1,1.445-.975,14.173,14.173,0,0,1,3.035-.5C2323.586,5454.156,2324.032,5454.016,2324.051,5454.061Z" transform="translate(-2287.676 -5375.986)"/><path class="n" d="M2322.306,5448.8c0,.044-.541.133-1.381.433a14.17,14.17,0,0,0-1.438.579,7.034,7.034,0,0,0-1.6.955,3.7,3.7,0,0,0-.547.77c-.159.274-.305.541-.433.8a7.774,7.774,0,0,0-.554,1.438c-.223.853-.185,1.406-.241,1.413a2.915,2.915,0,0,1,0-1.464,6.758,6.758,0,0,1,.5-1.521c.128-.273.273-.553.433-.833a3.737,3.737,0,0,1,.6-.853,6.828,6.828,0,0,1,1.718-1.018,12.034,12.034,0,0,1,1.5-.528A3.48,3.48,0,0,1,2322.306,5448.8Z" transform="translate(-2287.273 -5374.069)"/></g><text class="p" transform="translate(89.153 113.941)"><tspan x="0" y="13">Ener</tspan></text><g transform="translate(140.262 5.145)"><path class="q" d="M340.85,55.635A18.221,18.221,0,1,1,320.2,40.266,18.2,18.2,0,0,1,340.85,55.635Z" transform="translate(-304.596 -40.073)"/><g transform="translate(4.336 4.326)"><path class="c" d="M342.673,62.359A13.886,13.886,0,1,1,326.94,50.647,13.87,13.87,0,0,1,342.673,62.359Z" transform="translate(-315.046 -50.5)"/></g><g transform="translate(4.084 3.799)"><path class="b" d="M342.252,61.185a8.224,8.224,0,0,1-.6-1.6,14.733,14.733,0,0,0-2.2-3.981,14.224,14.224,0,0,0-2.182-2.233,13.91,13.91,0,0,0-3.034-1.875,13.62,13.62,0,0,0-3.775-1.087,13.466,13.466,0,0,0-2.077-.121,13.58,13.58,0,0,0-4.207.746,13.512,13.512,0,0,0-1.909.829,13.606,13.606,0,0,0-3.17,2.32,13.886,13.886,0,0,0-2.2,2.806,14.233,14.233,0,0,0-1.28,2.847,14.747,14.747,0,0,0-.691,4.494,8.139,8.139,0,0,1-.015,1.709,4.078,4.078,0,0,1-.4-1.687,12.845,12.845,0,0,1,.383-4.726,13.912,13.912,0,0,1,3.51-6.132,13.464,13.464,0,0,1,1.553-1.372,13.6,13.6,0,0,1,1.819-1.175,14.123,14.123,0,0,1,2.053-.91,14.24,14.24,0,0,1,4.538-.805,14.2,14.2,0,0,1,2.241.148,14.152,14.152,0,0,1,4.043,1.23,13.914,13.914,0,0,1,5.407,4.549,12.855,12.855,0,0,1,1.987,4.306A4.072,4.072,0,0,1,342.252,61.185Z" transform="translate(-314.439 -49.23)"/></g><g transform="translate(12.053 8.496)"><path class="b" d="M342.561,78.206l.383,2.389-2.132.341-.372-2.324a10.234,10.234,0,0,1-5.583-.856l.756-2.789a8.729,8.729,0,0,0,4.379.852l-.571-3.562c-2.459-.2-5.23-.562-5.717-3.612-.362-2.26.969-4.463,4.277-5.386l-.379-2.367,2.133-.342.372,2.325a9.771,9.771,0,0,1,4.537.607L344,66.275a8.862,8.862,0,0,0-3.44-.587l.58,3.625c2.455.175,5.184.549,5.665,3.555C347.157,75.086,345.844,77.265,342.561,78.206Zm-3.641-9.084-.485-3.028c-1.089.437-1.438,1.127-1.325,1.831C337.229,68.67,337.934,68.974,338.92,69.122Zm4.491,4.552c-.12-.747-.8-1.053-1.771-1.226l.471,2.943C343.139,74.985,343.52,74.356,343.411,73.674Z" transform="translate(-333.646 -60.549)"/></g></g><g transform="translate(193.967)"><g transform="translate(0)"><path class="q" d="M457.854,40.4a11.925,11.925,0,1,1-11.064-12.7A11.911,11.911,0,0,1,457.854,40.4Z" transform="translate(-434.034 -27.671)"/><g transform="translate(2.838 2.831)"><path class="c" d="M459.025,44.2a9.087,9.087,0,1,1-8.431-9.679A9.077,9.077,0,0,1,459.025,44.2Z" transform="translate(-440.873 -34.493)"/></g><g transform="translate(2.791 2.486)"><path class="b" d="M458.977,43.425a5.355,5.355,0,0,1-.163-1.107,9.644,9.644,0,0,0-.851-2.852,9.331,9.331,0,0,0-1.085-1.731,9.1,9.1,0,0,0-1.68-1.621,8.908,8.908,0,0,0-2.263-1.22,8.779,8.779,0,0,0-1.311-.366,8.889,8.889,0,0,0-2.794-.108,8.872,8.872,0,0,0-1.336.264,8.913,8.913,0,0,0-2.35,1.042,9.087,9.087,0,0,0-1.8,1.488,9.32,9.32,0,0,0-1.215,1.643,9.654,9.654,0,0,0-1.067,2.777,5.329,5.329,0,0,1-.248,1.09,2.67,2.67,0,0,1-.02-1.134,8.4,8.4,0,0,1,.9-2.969,9.1,9.1,0,0,1,3.1-3.433,8.794,8.794,0,0,1,1.185-.661,8.9,8.9,0,0,1,1.326-.5,9.27,9.27,0,0,1,1.44-.3,9.3,9.3,0,0,1,3.014.117,9.342,9.342,0,0,1,1.413.406,9.279,9.279,0,0,1,2.414,1.349,9.106,9.106,0,0,1,2.825,3.662,8.412,8.412,0,0,1,.672,3.03A2.665,2.665,0,0,1,458.977,43.425Z" transform="translate(-440.76 -33.662)"/></g></g><g transform="translate(7.707 5.614)"><path class="b" d="M457.474,52.964l-.088,1.581-1.411-.079.085-1.538A6.7,6.7,0,0,1,452.61,51.6l.872-1.679a5.713,5.713,0,0,0,2.682,1.154l.131-2.357c-1.545-.468-3.266-1.087-3.154-3.105.083-1.5,1.241-2.719,3.485-2.849l.087-1.567,1.411.078-.085,1.538a6.389,6.389,0,0,1,2.816,1.02l-.8,1.7a5.8,5.8,0,0,0-2.119-.854l-.133,2.4c1.546.453,3.238,1.072,3.128,3.061C460.848,51.609,459.7,52.819,457.474,52.964Zm-1.064-6.316.111-2c-.757.128-1.076.521-1.1.986C455.392,46.124,455.8,46.416,456.41,46.648Zm2.238,3.536c.027-.494-.367-.785-.962-1.031l-.108,1.948C458.292,50.985,458.623,50.636,458.648,50.184Z" transform="translate(-452.61 -41.201)"/></g></g><g transform="translate(271.84 77.271)"><path class="c" d="M630.483,101.228l-17.06-8.307a2.374,2.374,0,0,1-1.1-3.174l11.5-23.613a2.374,2.374,0,0,1,3.174-1.1l10.819,5.269,4.171,12.71-8.334,17.116A2.374,2.374,0,0,1,630.483,101.228Z" transform="translate(-612.088 -64.798)"/><g transform="translate(22.273 5.509)"><path class="b" d="M669.228,78.075l-3.236,6.646a2.208,2.208,0,0,0,1.018,2.952l6.389,3.113Z" transform="translate(-665.768 -78.075)"/></g><g transform="translate(13.304 7.337)"><path class="j" d="M652.047,86.331a28.109,28.109,0,0,1-4.022-1.767,28.224,28.224,0,0,1-3.871-2.076,56.108,56.108,0,0,1,7.893,3.843Z" transform="translate(-644.153 -82.482)"/></g><g transform="translate(11.475 11.097)"><path class="j" d="M652.734,97.872c-.042.085-2.984-1.261-6.57-3.008s-6.461-3.232-6.42-3.318,2.983,1.261,6.571,3.009S652.776,97.787,652.734,97.872Z" transform="translate(-639.744 -91.543)"/></g><g transform="translate(9.947 14.234)"><path class="j" d="M650.222,106c-.042.085-3.245-1.389-7.155-3.293s-7.046-3.517-7.005-3.6,3.245,1.389,7.156,3.294S650.264,105.919,650.222,106Z" transform="translate(-636.062 -99.106)"/></g><g transform="translate(8.506 17.195)"><path class="j" d="M646.748,113.139c-.041.085-3.245-1.389-7.155-3.293s-7.047-3.517-7-3.6,3.245,1.389,7.155,3.293S646.79,113.054,646.748,113.139Z" transform="translate(-632.588 -106.24)"/></g><g transform="translate(7.064 20.155)"><path class="j" d="M643.273,120.274c-.042.085-3.245-1.389-7.155-3.293s-7.046-3.517-7-3.6,3.245,1.389,7.156,3.293S643.315,120.189,643.273,120.274Z" transform="translate(-629.113 -113.375)"/></g><g transform="translate(5.622 23.115)"><path class="j" d="M639.8,127.408c-.041.085-3.245-1.389-7.155-3.293s-7.046-3.517-7-3.6,3.245,1.389,7.155,3.293S639.841,127.323,639.8,127.408Z" transform="translate(-625.639 -120.509)"/></g></g><g transform="translate(213.163 176.819)"><g transform="translate(0.017 1.03)"><path class="b" d="M145.994,168.541a1.9,1.9,0,0,1-1.424-2.277l3.705-16.089a1.575,1.575,0,0,1,1.924-1.118l1.513.348a1.634,1.634,0,0,0,1.635-.53l.477-.585a1.635,1.635,0,0,1,1.636-.53l7.181,1.654a1.647,1.647,0,0,1,1.195,1.042l.224.64a1.649,1.649,0,0,0,1.195,1.042l9.155,2.108a1.576,1.576,0,0,1,1.241,1.847l-3.79,16.455a1.9,1.9,0,0,1-2.277,1.425Z" transform="translate(-144.521 -147.716)"/></g><path class="c" d="M164.289,150.482l-5.821-1.354-.3-1.093a2.063,2.063,0,0,0-1.543-1.44l-5.693-1.311a1.826,1.826,0,0,0-2.231,1.3l-.153.664-4.023,17.47a2.074,2.074,0,0,0,1.635,2.432l23.124,5.326A2.075,2.075,0,0,0,171.822,171l3.8-16.5a1.368,1.368,0,0,0-1.026-1.64Z" transform="translate(-144.481 -145.232)"/><g transform="translate(8.474 9.785)"><g transform="translate(0 0)"><rect class="j" width="14.122" height="5.942" transform="translate(1.333 0) rotate(12.969)"/></g></g><g transform="translate(11.407 12.837)"><path class="b" d="M181.429,178.353c-.012.051-2.138-.395-4.749-1s-4.719-1.13-4.707-1.182,2.138.395,4.75,1S181.441,178.3,181.429,178.353Z" transform="translate(-171.973 -176.171)"/></g><g transform="translate(11.122 14.07)"><path class="b" d="M180.744,181.326c-.012.051-2.138-.395-4.749-1s-4.718-1.13-4.707-1.182,2.138.395,4.749,1S180.756,181.275,180.744,181.326Z" transform="translate(-171.288 -179.144)"/></g></g></g><g transform="translate(416.1 6079.965)"><g transform="translate(0 16.547)"><path class="f" d="M3.755,0H62.238a3.756,3.756,0,0,1,3.756,3.756V13.43a3.756,3.756,0,0,1-3.756,3.756H3.755A3.755,3.755,0,0,1,0,13.43V3.755A3.755,3.755,0,0,1,3.755,0Z"/><g transform="translate(29.702 4.102)"><rect class="j" width="29.262" height="9.704" rx="0.708"/></g><g transform="translate(10.944 4.851)"><circle class="f" cx="3.513" cy="3.513" r="3.513" transform="translate(0.59 0.59)"/><path class="b" d="M131.794,431.907a4.1,4.1,0,1,1,4.1-4.1A4.107,4.107,0,0,1,131.794,431.907Zm0-7.026a2.924,2.924,0,1,0,2.923,2.924A2.927,2.927,0,0,0,131.794,424.881Z" transform="translate(-127.691 -423.702)"/></g><g transform="translate(32.611 5.761)"><path class="b" d="M164.6,425.245a34.45,34.45,0,0,1,0,6.505,34.583,34.583,0,0,1,0-6.505Z" transform="translate(-164.443 -425.245)"/></g><g transform="translate(35.458 5.761)"><path class="b" d="M169.425,425.245a34.46,34.46,0,0,1,0,6.505,34.583,34.583,0,0,1,0-6.505Z" transform="translate(-169.272 -425.245)"/></g><g transform="translate(38.305 5.761)"><path class="b" d="M174.254,425.245a34.586,34.586,0,0,1,0,6.505,34.453,34.453,0,0,1,0-6.505Z" transform="translate(-174.1 -425.245)"/></g><g transform="translate(41.152 5.761)"><path class="b" d="M179.083,425.245a34.6,34.6,0,0,1,0,6.505,34.446,34.446,0,0,1,0-6.505Z" transform="translate(-178.929 -425.245)"/></g><g transform="translate(43.998 5.761)"><path class="b" d="M183.911,425.245a34.45,34.45,0,0,1,0,6.505,34.586,34.586,0,0,1,0-6.505Z" transform="translate(-183.758 -425.245)"/></g><g transform="translate(46.845 5.761)"><path class="b" d="M188.74,425.245a34.586,34.586,0,0,1,0,6.505,34.586,34.586,0,0,1,0-6.505Z" transform="translate(-188.587 -425.245)"/></g><g transform="translate(49.692 5.761)"><path class="b" d="M193.569,425.245a34.586,34.586,0,0,1,0,6.505,34.456,34.456,0,0,1,0-6.505Z" transform="translate(-193.415 -425.245)"/></g><g transform="translate(52.539 5.761)"><path class="b" d="M198.4,425.245a34.6,34.6,0,0,1,0,6.505,34.446,34.446,0,0,1,0-6.505Z" transform="translate(-198.244 -425.245)"/></g><g transform="translate(55.386 5.761)"><path class="b" d="M203.226,425.245a34.453,34.453,0,0,1,0,6.505,34.583,34.583,0,0,1,0-6.505Z" transform="translate(-203.073 -425.245)"/></g></g><path class="g" d="M3.755,0H62.238a3.756,3.756,0,0,1,3.756,3.756V13.43a3.756,3.756,0,0,1-3.756,3.756H3.755A3.755,3.755,0,0,1,0,13.43V3.755A3.755,3.755,0,0,1,3.755,0Z"/><g transform="translate(29.702 4.102)"><rect class="j" width="29.262" height="9.703" rx="0.708"/></g><g transform="translate(10.944 4.851)"><circle class="f" cx="3.513" cy="3.513" r="3.513" transform="translate(0.59 0.59)"/><path class="b" d="M131.794,403.84a4.1,4.1,0,1,1,4.1-4.1A4.107,4.107,0,0,1,131.794,403.84Zm0-7.026a2.923,2.923,0,1,0,2.923,2.923A2.927,2.927,0,0,0,131.794,396.814Z" transform="translate(-127.691 -395.635)"/></g><g transform="translate(32.611 5.761)"><path class="b" d="M164.6,397.177a34.45,34.45,0,0,1,0,6.505,34.583,34.583,0,0,1,0-6.505Z" transform="translate(-164.443 -397.177)"/></g><g transform="translate(35.458 5.761)"><path class="b" d="M169.425,397.177a34.46,34.46,0,0,1,0,6.505,34.583,34.583,0,0,1,0-6.505Z" transform="translate(-169.272 -397.177)"/></g><g transform="translate(38.305 5.761)"><path class="b" d="M174.254,397.177a34.586,34.586,0,0,1,0,6.505,34.453,34.453,0,0,1,0-6.505Z" transform="translate(-174.1 -397.177)"/></g><g transform="translate(41.152 5.761)"><path class="b" d="M179.083,397.177a34.6,34.6,0,0,1,0,6.505,34.446,34.446,0,0,1,0-6.505Z" transform="translate(-178.929 -397.177)"/></g><g transform="translate(43.998 5.761)"><path class="b" d="M183.911,397.177a34.45,34.45,0,0,1,0,6.505,34.586,34.586,0,0,1,0-6.505Z" transform="translate(-183.758 -397.177)"/></g><g transform="translate(46.845 5.761)"><path class="b" d="M188.74,397.177a34.586,34.586,0,0,1,0,6.505,34.586,34.586,0,0,1,0-6.505Z" transform="translate(-188.587 -397.177)"/></g><g transform="translate(49.692 5.761)"><path class="b" d="M193.569,397.177a34.586,34.586,0,0,1,0,6.505,34.456,34.456,0,0,1,0-6.505Z" transform="translate(-193.415 -397.177)"/></g><g transform="translate(52.539 5.761)"><path class="b" d="M198.4,397.177a34.6,34.6,0,0,1,0,6.505,34.446,34.446,0,0,1,0-6.505Z" transform="translate(-198.244 -397.177)"/></g><g transform="translate(55.386 5.761)"><path class="b" d="M203.226,397.177a34.453,34.453,0,0,1,0,6.505,34.583,34.583,0,0,1,0-6.505Z" transform="translate(-203.073 -397.177)"/></g><g transform="translate(0 33.824)"><path class="a" d="M3.755,0H62.238a3.756,3.756,0,0,1,3.756,3.756V13.43a3.756,3.756,0,0,1-3.756,3.756H3.755A3.755,3.755,0,0,1,0,13.43V3.755A3.755,3.755,0,0,1,3.755,0Z"/><g transform="translate(29.702 4.102)"><rect class="j" width="29.262" height="9.704" rx="0.708"/></g><g transform="translate(10.944 4.851)"><path class="f" d="M135.717,457.521a3.513,3.513,0,1,0-3.512,3.512A3.513,3.513,0,0,0,135.717,457.521Z" transform="translate(-128.101 -453.418)"/><path class="q" d="M131.794,461.213a4.1,4.1,0,1,1,4.1-4.1A4.107,4.107,0,0,1,131.794,461.213Zm0-7.026a2.923,2.923,0,1,0,2.923,2.924A2.927,2.927,0,0,0,131.794,454.187Z" transform="translate(-127.691 -453.008)"/></g><g transform="translate(32.611 5.76)"><path class="b" d="M164.6,454.55a34.456,34.456,0,0,1,0,6.506,34.589,34.589,0,0,1,0-6.506Z" transform="translate(-164.443 -454.55)"/></g><g transform="translate(35.458 5.76)"><path class="b" d="M169.425,454.55a34.466,34.466,0,0,1,0,6.506,34.589,34.589,0,0,1,0-6.506Z" transform="translate(-169.272 -454.55)"/></g><g transform="translate(38.305 5.76)"><path class="b" d="M174.254,454.55a34.592,34.592,0,0,1,0,6.506,34.459,34.459,0,0,1,0-6.506Z" transform="translate(-174.1 -454.55)"/></g><g transform="translate(41.152 5.76)"><path class="b" d="M179.083,454.55a34.6,34.6,0,0,1,0,6.506,34.452,34.452,0,0,1,0-6.506Z" transform="translate(-178.929 -454.55)"/></g><g transform="translate(43.998 5.76)"><path class="b" d="M183.911,454.55a34.456,34.456,0,0,1,0,6.506,34.592,34.592,0,0,1,0-6.506Z" transform="translate(-183.758 -454.55)"/></g><g transform="translate(46.845 5.76)"><path class="b" d="M188.74,454.55a34.592,34.592,0,0,1,0,6.506,34.592,34.592,0,0,1,0-6.506Z" transform="translate(-188.587 -454.55)"/></g><g transform="translate(49.692 5.76)"><path class="b" d="M193.569,454.55a34.592,34.592,0,0,1,0,6.506,34.463,34.463,0,0,1,0-6.506Z" transform="translate(-193.415 -454.55)"/></g><g transform="translate(52.539 5.76)"><path class="b" d="M198.4,454.55a34.6,34.6,0,0,1,0,6.506,34.452,34.452,0,0,1,0-6.506Z" transform="translate(-198.244 -454.55)"/></g><g transform="translate(55.386 5.76)"><path class="b" d="M203.226,454.55a34.459,34.459,0,0,1,0,6.506,34.589,34.589,0,0,1,0-6.506Z" transform="translate(-203.073 -454.55)"/></g></g></g></g></svg>