<svg xmlns="http://www.w3.org/2000/svg" xmlns:xlink="http://www.w3.org/1999/xlink" width="347.349" height="484.815" viewBox="0 0 347.349 484.815"><defs><style>.a,.e{fill:none;opacity:0;}.b{fill:rgba(52,65,84,0.7);}.ab,.b{opacity:0.2;}.ac,.ad,.b,.d,.v,.w,.y{isolation:isolate;}.c,.v,.y{fill:#ffbf9d;}.ac,.ad,.d,.i,.n,.w{fill:#d9a171;}.d{opacity:0.4;}.e,.n{stroke:#263238;stroke-linecap:round;stroke-linejoin:round;}.f{fill:#fff;}.g{fill:#344154;}.h{fill:#839eb6;}.j,.v{opacity:0.3;}.k{fill:#dbdbdb;}.l{fill:#c7c7c7;}.m{clip-path:url(#a);}.o{clip-path:url(#b);}.p{fill:#c8856a;}.q{fill:#5e6178;}.r{fill:#fafafa;}.s{fill:#6595bf;}.t{fill:#aed3f2;}.u{fill:#af6152;}.w{opacity:0.15;}.x{clip-path:url(#c);}.y{opacity:0.8;}.z{opacity:0.75;}.aa{opacity:0.5;}.ac{opacity:0.25;}.ad{opacity:0.55;}.ae{fill:#874c4c;}</style><clipPath id="a"><path class="a" d="M10852.6-871.247a2.3,2.3,0,0,1-.489.83c-3.54,3.35-18.65,7.07-31.63,9.75-10.75,2.23-20,3.74-20,3.74s-7.12-59.17-7.12-65.39-11.48-106.92-11.48-106.92l27.521-1.19,36.51-1.58s.22,2.69.59,7.39C10848.911-994.677,10857.191-883.057,10852.6-871.247Z"/></clipPath><clipPath id="b"><path class="a" d="M10835.591-1044.677l73.32,19.34s-25.771,78.21-31,87.91l-8.74,68.18s-46.84-2.06-68.38-8.57c0,0,13.62-71,14.35-80.47S10835.591-1044.677,10835.591-1044.677Z"/></clipPath><clipPath id="c"><path class="a" d="M10497.929-679.36l-.049,2.575c0,.2.131.277.294.179l2.738-1.483a.657.657,0,0,0,.309-.521l.074-2.575c0-.188-.131-.269-.3-.18l-2.738,1.492A.653.653,0,0,0,10497.929-679.36Z" transform="translate(-10497.88 681.401)"/></clipPath></defs><g transform="translate(-1005.193 -7664.99)"><g transform="translate(-9573.796 8762.536)"><path class="b" d="M10724.49-939.673s-22.94-25.26-24.521-26.81-2.77-28.49-7.13-40.35-6.47-81.5-6.47-81.5-4.15-5.14-15.851-2.37-23.17-2.38-36.22,5.14,12.26,115.08,12.26,115.08l25.69,81.87Z"/><path class="c" d="M10740.25-939.483s-10.28,65.67-21,74.37c-6.19,5-15.84,7.3-24.4,7-6.2-.22-11.84-1.78-15.159-4.61-7.91-6.73-19-10.29-24.521-14.64s-5.54-19.78-9.1-32.84-8.71-13.45-9.891-26.5-5.939-53-14.54-64.09-8.8-19.78-12.359-31.06-29.6-52.09-29.6-52.09l63.48-13s6.24,25.83,12.92,46.9c3.17,10,6.439,18.94,9.18,23.52a196.774,196.774,0,0,1,13.63,27.69c7.181,7.52,11.11,24.181,12.3,38.771h0l17,9.479C10721.26-947.013,10740.25-939.483,10740.25-939.483Z"/><path class="d" d="M10740.25-939.483s-10.28,65.67-21,74.37c-6.19,5-15.84,7.3-24.4,7-20.3-5-25.76-16.32-28.51-19.06-3.66-3.65-8.47-25.89-5.83-38.83s.74-17.73-1.439-24.05c-4.83-14,9.9-21.54,11.42-26.84s1-34.94-5.63-44.58c-3.521-5.13-12.591-31.57-8.771-38.55,3.17,10,6.44,18.94,9.18,23.52a196.894,196.894,0,0,1,13.631,27.69c7.18,7.52,11.109,24.18,12.3,38.77h0l17,9.48C10721.26-947.013,10740.25-939.483,10740.25-939.483Z"/><path class="e" d="M10662.73-944.1s-3.58,4.21-6.74,4.21"/><path class="e" d="M10670.52-929.873s-3.85,8.18-10,10"/><path class="e" d="M10663.68-881.933s8.71-3.76,10.09-10.09"/><path class="e" d="M10708.21-950.573s-2.18,2.77-2.18,5"/><path class="e" d="M10643.2-1096.943s13.58,56.17,22.1,70.46a196.888,196.888,0,0,1,13.63,27.69c7.181,7.52,11.11,24.19,12.3,38.78h0l17,9.48c13.05,3.56,32,11.08,32,11.08s-10.28,65.67-21,74.37-31.551,9.06-39.551,2.34-19-10.289-24.52-14.64-5.54-19.78-9.1-32.84-8.71-13.449-9.89-26.5-5.939-53-14.54-64.089-8.8-19.78-12.36-31.06-29.59-52.071-29.59-52.071"/><path class="e" d="M10764.3-943.753,10754.6-779l-95.29-3.13,7.521-126.24,2.34-39.2,41.52,1.67Z"/><path class="f" d="M10643.844-941.769l23.807,247.38,184.187-17.35-26.562-247.2Z"/><path class="g" d="M10643.843-941.769l181.415-17.349.182-.017.02.182c7.468,69.394,16.667,154.867,26.6,247.19l.024.229-.228.021-1.307.123-182.882,17.206-.2.019-.019-.2c-13.976-146.476-23.433-245.6-23.6-247.4.175,1.8,9.8,100.908,24.013,247.361l-.224-.185,182.878-17.248,1.306-.123-.2.25c-9.905-92.327-19.075-177.8-26.52-247.2l.2.164Z"/><path class="h" d="M10785.1-754.15a27.179,27.179,0,0,1,27.212-27.085,27.179,27.179,0,0,1,27.084,27.212,27.178,27.178,0,0,1-27.212,27.084A27.179,27.179,0,0,1,10785.1-754.15Zm53.8.126a26.68,26.68,0,0,0-26.587-26.712,26.68,26.68,0,0,0-26.711,26.587,26.678,26.678,0,0,0,26.586,26.711A26.678,26.678,0,0,0,10838.895-754.024Z"/><path class="h" d="M10788.193-754.143a23.7,23.7,0,0,1,23.732-23.622,23.7,23.7,0,0,1,23.622,23.733,23.7,23.7,0,0,1-23.732,23.622A23.7,23.7,0,0,1,10788.193-754.143Zm43.861.1a20.206,20.206,0,0,0-20.137-20.232,20.208,20.208,0,0,0-20.232,20.137,20.208,20.208,0,0,0,20.138,20.232A20.206,20.206,0,0,0,10832.055-754.04Z"/><path class="h" d="M10794.02-753.8a17.36,17.36,0,0,1,1.877-7.854l3.116,1.577a13.883,13.883,0,0,0-1.5,6.286,14.04,14.04,0,0,0,13.99,14.056,14,14,0,0,0,7.34-2.051l1.823,2.979a17.491,17.491,0,0,1-9.171,2.565A17.537,17.537,0,0,1,10794.02-753.8Z"/><path class="h" d="M10803.453-769.3a17.571,17.571,0,0,1,8.124-1.973,17.535,17.535,0,0,1,17.475,17.558,17.463,17.463,0,0,1-2.689,9.291l-2.955-1.863a13.984,13.984,0,0,0,2.152-7.437,14.039,14.039,0,0,0-13.99-14.056,13.86,13.86,0,0,0-6.5,1.578Z"/><path class="g" d="M10736.645-897.238c.013.125-16.027,1.741-35.82,3.61s-35.855,3.283-35.867,3.159,16.024-1.741,35.825-3.61S10736.634-897.362,10736.645-897.238Z"/><path class="i" d="M10739.99-732.118c.011.125-12.592,1.3-28.146,2.617s-28.176,2.291-28.187,2.166,12.59-1.3,28.147-2.617S10739.98-732.243,10739.99-732.118Z"/><path class="i" d="M10715.784-722.494c.01.125-7.061.827-15.79,1.568s-15.82,1.241-15.83,1.117,7.058-.827,15.791-1.569S10715.773-722.619,10715.784-722.494Z"/><path class="i" d="M10713.844-793.434c.013.125-8.307,1.047-18.579,2.059s-18.611,1.732-18.624,1.608,8.306-1.047,18.58-2.059S10713.832-793.558,10713.844-793.434Z"/><g class="j"><path class="i" d="M10663.855-736.245l16.907-3.268,9.455-14.253-26.944,8.849Z"/></g><path class="i" d="M10760.95-752.928a1.629,1.629,0,0,1,.155.051,2.161,2.161,0,0,1,.439.207,6.273,6.273,0,0,1,1.452,1.229,20.793,20.793,0,0,1,3.658,6.308,26.4,26.4,0,0,1,1.9,11.358,17.016,17.016,0,0,1-.617,3.461,22.973,22.973,0,0,1-1.387,3.475,23.291,23.291,0,0,1-4.821,6.513,24.1,24.1,0,0,1-7.458,4.879,20.422,20.422,0,0,1-9.525,1.5,20.9,20.9,0,0,1-16.728-11.946,17.068,17.068,0,0,1-1.513-5.529,12.98,12.98,0,0,1,.609-5.834,9.371,9.371,0,0,1,3.475-4.869,6.747,6.747,0,0,1,2.9-1.083,6.93,6.93,0,0,1,3.1.363,9.143,9.143,0,0,1,4.772,3.959,14.683,14.683,0,0,1,1.894,6.031,26.341,26.341,0,0,1-1.858,12.665,24.922,24.922,0,0,1-7.651,10.25,22.976,22.976,0,0,1-11.519,4.633,21.575,21.575,0,0,1-11.821-1.925,20.188,20.188,0,0,1-8.409-7.812,19.6,19.6,0,0,1-2.846-10.55,14.3,14.3,0,0,1,1.016-5.192,10.292,10.292,0,0,1,2.974-4.177,6.153,6.153,0,0,1,4.719-1.4,7.064,7.064,0,0,1,4.161,2.316,8.853,8.853,0,0,1,2.088,4.084,11.483,11.483,0,0,1-.006,4.39,22.767,22.767,0,0,1-3.1,7.488,36.027,36.027,0,0,1-4.347,5.78,39.421,39.421,0,0,1-4.627,4.263,39.88,39.88,0,0,1-4.4,2.929,33.909,33.909,0,0,1-6.684,2.949c-1.593.508-2.455.683-2.455.683s.208-.075.616-.2,1.028-.278,1.811-.571a35.2,35.2,0,0,0,6.624-3.016,40.041,40.041,0,0,0,4.358-2.946,39.445,39.445,0,0,0,4.573-4.264,35.921,35.921,0,0,0,4.287-5.757,22.557,22.557,0,0,0,3.028-7.4,11.185,11.185,0,0,0-.006-4.264,8.548,8.548,0,0,0-2.019-3.917A6.707,6.707,0,0,0,10707.8-736a5.778,5.778,0,0,0-4.434,1.329,9.915,9.915,0,0,0-2.852,4.03,13.9,13.9,0,0,0-.975,5.057,19.207,19.207,0,0,0,2.8,10.325,19.782,19.782,0,0,0,8.239,7.637,21.163,21.163,0,0,0,11.584,1.873,22.541,22.541,0,0,0,11.29-4.548,24.491,24.491,0,0,0,7.509-10.065,25.911,25.911,0,0,0,1.83-12.445,14.21,14.21,0,0,0-1.828-5.847,8.694,8.694,0,0,0-4.535-3.772,6.489,6.489,0,0,0-2.9-.345,6.307,6.307,0,0,0-2.7,1.009,8.949,8.949,0,0,0-3.31,4.645,12.549,12.549,0,0,0-.6,5.651,16.647,16.647,0,0,0,1.471,5.4,20.519,20.519,0,0,0,16.381,11.745,20.1,20.1,0,0,0,9.359-1.448,23.794,23.794,0,0,0,7.368-4.787,23.038,23.038,0,0,0,4.785-6.41,22.772,22.772,0,0,0,1.385-3.422,16.919,16.919,0,0,0,.624-3.4,26.4,26.4,0,0,0-1.809-11.274,21.158,21.158,0,0,0-3.562-6.311,6.54,6.54,0,0,0-1.408-1.25A6.4,6.4,0,0,0,10760.95-752.928Z"/><rect class="c" width="131.205" height="10.092" transform="translate(10677.814 -851.666) rotate(-5.512)"/><rect class="i" width="131.205" height="10.092" transform="translate(10676.845 -861.711) rotate(-5.512)"/><rect class="k" width="131.205" height="10.092" transform="translate(10678.782 -841.63) rotate(-5.512)"/><rect class="c" width="131.205" height="10.092" transform="translate(10679.752 -831.585) rotate(-5.512)"/><rect class="k" width="131.205" height="10.092" transform="translate(10680.722 -821.54) rotate(-5.512)"/><rect class="c" width="131.205" height="10.092" transform="translate(10681.689 -811.505) rotate(-5.512)"/><rect class="k" width="131.205" height="10.092" transform="translate(10682.659 -801.46) rotate(-5.512)"/><rect class="i" width="91.868" height="10.092" transform="translate(10722.783 -795.193) rotate(-5.512)"/><rect class="l" width="39.337" height="70.623" transform="translate(10676.845 -861.711) rotate(-5.512)"/><path class="g" d="M10678.783-841.63l65.287-6.423,65.311-6.18-65.286,6.434Z"/><path class="g" d="M10679.752-831.585l65.287-6.423,65.312-6.18-65.287,6.434Z"/><path class="g" d="M10680.722-821.54l65.286-6.434,65.312-6.17-65.287,6.423Z"/><path class="g" d="M10681.69-811.5l65.287-6.423,65.311-6.18L10747-817.674Z"/><path class="g" d="M10682.659-801.46l65.287-6.423,65.311-6.18-65.286,6.434Z"/><path class="g" d="M10683.629-791.414l65.286-6.434,65.312-6.17-65.287,6.423Z"/><path class="g" d="M10684.325-857.389c4.145-.605,8.317-1.028,12.479-1.46s8.339-.8,12.538-.954c-4.153.616-8.316,1.028-12.489,1.462S10688.512-857.557,10684.325-857.389Z"/><path class="g" d="M10685.3-847.323c3.128-.517,6.286-.832,9.431-1.167s6.309-.608,9.491-.659c-3.138.518-6.286.832-9.441,1.167S10688.466-847.414,10685.3-847.323Z"/><path class="g" d="M10686.266-837.278c4.145-.615,8.317-1.028,12.479-1.461s8.339-.8,12.538-.953c-4.154.616-8.318,1.028-12.489,1.461S10690.45-837.477,10686.266-837.278Z"/><path class="g" d="M10687.234-827.243c3.4-.533,6.835-.885,10.265-1.247s6.866-.662,10.324-.74c-3.413.545-6.846.886-10.275,1.248S10690.678-827.36,10687.234-827.243Z"/><path class="g" d="M10688.2-817.2c4.144-.615,8.317-1.028,12.479-1.46s8.339-.8,12.537-.954c-4.152.616-8.316,1.028-12.487,1.462S10692.389-817.386,10688.2-817.2Z"/><path class="g" d="M10689.173-807.153c4.145-.615,8.318-1.028,12.479-1.46s8.339-.805,12.538-.954c-4.154.616-8.317,1.028-12.489,1.462S10693.357-807.351,10689.173-807.153Z"/><path class="g" d="M10690.142-797.118c2.511-.437,5.056-.733,7.563-.986s5.085-.429,7.622-.479c-2.509.447-5.055.734-7.573.987S10692.69-797.158,10690.142-797.118Z"/><path class="g" d="M10725.634-861.375c3.108-.505,6.245-.828,9.37-1.161s6.277-.606,9.43-.654c-3.107.516-6.244.829-9.381,1.162S10728.8-861.445,10725.634-861.375Z"/><path class="g" d="M10726.605-851.31c3.107-.515,6.244-.828,9.37-1.16s6.277-.606,9.43-.654c-3.107.515-6.245.828-9.38,1.162S10729.774-851.4,10726.605-851.31Z"/><path class="g" d="M10727.574-841.264c3.107-.516,6.246-.829,9.371-1.161s6.276-.606,9.43-.654c-3.108.515-6.245.828-9.381,1.162S10730.743-841.365,10727.574-841.264Z"/><path class="g" d="M10728.543-831.229c3.108-.505,6.245-.829,9.37-1.161s6.277-.606,9.43-.654c-3.106.515-6.245.829-9.381,1.162S10731.712-831.32,10728.543-831.229Z"/><path class="g" d="M10729.512-821.184c3.108-.515,6.245-.828,9.371-1.161s6.277-.606,9.431-.653c-3.108.515-6.246.828-9.382,1.161S10732.681-821.275,10729.512-821.184Z"/><path class="g" d="M10730.482-811.139c3.106-.515,6.244-.828,9.369-1.161s6.277-.605,9.431-.653c-3.108.515-6.245.828-9.381,1.161S10733.65-811.24,10730.482-811.139Z"/><path class="g" d="M10731.45-801.1c3.108-.505,6.245-.828,9.371-1.161s6.276-.6,9.429-.653c-3.107.515-6.245.828-9.38,1.161S10734.619-801.194,10731.45-801.1Z"/><path class="g" d="M10752.8-864c3.119-.506,6.246-.828,9.381-1.162s6.268-.6,9.42-.652c-3.107.515-6.244.828-9.37,1.16S10755.964-864.066,10752.8-864Z"/><path class="g" d="M10765.069-804.348a17.953,17.953,0,0,1,6-.58A17.926,17.926,0,0,1,10765.069-804.348Z"/><path class="g" d="M10764.1-814.383a17.955,17.955,0,0,1,6-.58A17.95,17.95,0,0,1,10764.1-814.383Z"/><path class="g" d="M10763.132-824.429a16.839,16.839,0,0,1,3.022-.548,15.8,15.8,0,0,1,3.021-.035,17.976,17.976,0,0,1-6,.58Z"/><path class="g" d="M10762.162-834.474a17.953,17.953,0,0,1,6-.579A17.954,17.954,0,0,1,10762.162-834.474Z"/><path class="g" d="M10761.194-844.509a17.95,17.95,0,0,1,6-.579A17.955,17.955,0,0,1,10761.194-844.509Z"/><path class="g" d="M10760.224-854.554a16.78,16.78,0,0,1,3.023-.548,15.8,15.8,0,0,1,3.021-.035,15.857,15.857,0,0,1-2.972.543A16.772,16.772,0,0,1,10760.224-854.554Z"/><path class="g" d="M10767.776-794.471a51.805,51.805,0,0,1,5.276-.765,49.049,49.049,0,0,1,5.337-.259A55.861,55.861,0,0,1,10767.776-794.471Z"/><path class="g" d="M10779.973-866.619c3.119-.506,6.246-.828,9.381-1.162s6.268-.6,9.421-.652c-3.108.515-6.246.828-9.371,1.16S10783.134-866.688,10779.973-866.619Z"/><path class="g" d="M10780.945-856.554c3.116-.516,6.245-.828,9.38-1.161s6.267-.6,9.42-.653c-3.108.515-6.245.828-9.371,1.161S10784.1-856.643,10780.945-856.554Z"/><path class="g" d="M10781.914-846.508c3.118-.517,6.245-.829,9.381-1.162s6.267-.605,9.419-.653c-3.106.515-6.245.829-9.37,1.161S10785.072-846.608,10781.914-846.508Z"/><path class="g" d="M10782.882-836.473c3.119-.506,6.246-.829,9.381-1.162s6.268-.6,9.42-.653c-3.107.516-6.244.829-9.371,1.161S10786.041-836.563,10782.882-836.473Z"/><path class="g" d="M10783.852-826.428c3.118-.516,6.245-.828,9.382-1.162s6.266-.6,9.419-.652c-3.107.515-6.245.828-9.37,1.16S10787.011-826.518,10783.852-826.428Z"/><path class="g" d="M10784.821-816.383c3.118-.516,6.245-.828,9.381-1.161s6.267-.6,9.42-.653c-3.108.515-6.246.828-9.371,1.16S10787.979-816.483,10784.821-816.383Z"/><path class="g" d="M10785.79-806.348c3.118-.506,6.245-.828,9.38-1.161s6.267-.605,9.42-.653c-3.107.515-6.245.828-9.371,1.16S10788.949-806.437,10785.79-806.348Z"/><path class="g" d="M10786.759-796.3c3.118-.516,6.245-.828,9.381-1.161s6.268-.6,9.419-.653c-3.106.515-6.244.828-9.369,1.161S10789.918-796.392,10786.759-796.3Z"/><path class="g" d="M10675.136-879.424c3.59-.511,7.179-.929,10.778-1.338s7.212-.7,10.809-1.125,7.2-.695,10.815-.962,7.214-.563,10.836-.748c-3.59.51-7.179.929-10.779,1.337s-7.211.7-10.8,1.125-7.212.7-10.825.962S10678.756-879.62,10675.136-879.424Z"/><path class="g" d="M10675.548-875.148c2.24-.37,4.5-.67,6.746-.949s4.521-.436,6.777-.736,4.52-.436,6.782-.572,4.534-.294,6.813-.36c-2.249.381-4.5.669-6.756.949s-4.514.5-6.767.745-4.52.436-6.794.563S10677.818-875.214,10675.548-875.148Z"/><path class="g" d="M10675.961-870.872c3.134-.456,6.265-.83,9.408-1.2s6.281-.668,9.427-1,6.3-.608,9.445-.819,6.31-.476,9.463-.627c-3.123.466-6.265.841-9.407,1.206s-6.282.667-9.427,1-6.287.606-9.445.819S10679.125-871.014,10675.961-870.872Z"/><path class="g" d="M10685.346-773.62c2.3-.386,4.6-.679,6.909-.964s4.625-.507,6.928-.76,4.633-.447,6.956-.579,4.635-.314,6.967-.375c-2.3.375-4.609.68-6.909.964s-4.627.5-6.939.751-4.622.446-6.946.578S10687.68-773.65,10685.346-773.62Z"/><path class="g" d="M10685.757-769.364c2.655-.42,5.33-.75,8-1.069s5.343-.515,8.015-.865,5.344-.516,8.033-.683,5.356-.384,8.053-.48c-2.666.421-5.33.75-8,1.069s-5.349.567-8.017.855-5.353.517-8.032.693S10688.475-769.452,10685.757-769.364Z"/><path class="g" d="M10694.114-919.084a5.033,5.033,0,0,1-1.393,3.74,5.945,5.945,0,0,1-3.906,1.644,5.349,5.349,0,0,1-4.438-1.481,7.554,7.554,0,0,1-1.977-4.909l-.071-.866a8.524,8.524,0,0,1,.424-3.66,5.412,5.412,0,0,1,1.862-2.559,5.781,5.781,0,0,1,3.041-1.088,5.8,5.8,0,0,1,4.059.989,5.405,5.405,0,0,1,2.036,3.546l-2.919.24a2.973,2.973,0,0,0-.928-1.927,2.845,2.845,0,0,0-2.052-.454,2.49,2.49,0,0,0-2.1,1.226,5.891,5.891,0,0,0-.478,3.308l.089,1.07a6.3,6.3,0,0,0,.972,3.3,2.444,2.444,0,0,0,2.282.88,2.889,2.889,0,0,0,1.968-.784,2.8,2.8,0,0,0,.607-1.976Z"/><path class="g" d="M10695.355-919.833a6.27,6.27,0,0,1,.373-2.843,4.437,4.437,0,0,1,1.581-2.04,5.1,5.1,0,0,1,2.578-.889,4.815,4.815,0,0,1,3.586,1.018,5.249,5.249,0,0,1,1.8,3.419l.078.719a5.517,5.517,0,0,1-1.032,4,4.717,4.717,0,0,1-3.51,1.764,4.743,4.743,0,0,1-3.756-1.161,5.623,5.623,0,0,1-1.684-3.859Zm2.829-.031a3.943,3.943,0,0,0,.754,2.249,1.868,1.868,0,0,0,1.681.661,1.875,1.875,0,0,0,1.532-.916,4.321,4.321,0,0,0,.366-2.557,3.9,3.9,0,0,0-.762-2.234,1.875,1.875,0,0,0-1.682-.676,1.843,1.843,0,0,0-1.53.936A4.395,4.395,0,0,0,10698.185-919.864Z"/><path class="g" d="M10709.276-926.181l.185,1.17a3.714,3.714,0,0,1,2.914-1.621,2.816,2.816,0,0,1,2.925,1.376,3.631,3.631,0,0,1,3.031-1.866,3.153,3.153,0,0,1,2.632.788,4.6,4.6,0,0,1,1.084,2.933l.554,6.726-2.822.232-.553-6.716a2.01,2.01,0,0,0-.458-1.28,1.563,1.563,0,0,0-1.271-.312,1.762,1.762,0,0,0-1.652,1.351l.605,7.231-2.813.231-.552-6.706a1.992,1.992,0,0,0-.469-1.294,1.574,1.574,0,0,0-1.26-.307,1.828,1.828,0,0,0-1.651,1.135l.613,7.445-2.813.232-.866-10.531Z"/><path class="g" d="M10733.816-922.8a6.341,6.341,0,0,1-.784,3.989,3.556,3.556,0,0,1-2.863,1.71,3.292,3.292,0,0,1-2.67-.9l.408,4.963-2.813.232-1.2-14.58,2.608-.214.182,1.023a3.326,3.326,0,0,1,2.566-1.446,3.583,3.583,0,0,1,3.146,1.192,6.51,6.51,0,0,1,1.406,3.882Zm-2.83.027a4.158,4.158,0,0,0-.707-2.225,1.7,1.7,0,0,0-1.579-.673,1.849,1.849,0,0,0-1.737,1.161l.355,4.312a1.878,1.878,0,0,0,1.925.89Q10731.257-919.474,10730.986-922.774Z"/><path class="g" d="M10741.251-926.156a7.566,7.566,0,0,0-1.018.005,2.069,2.069,0,0,0-2,1.252l.567,6.891-2.812.232-.866-10.531,2.657-.219.181,1.249a2.615,2.615,0,0,1,2.226-1.643,2.982,2.982,0,0,1,.888.055Z"/><path class="g" d="M10742.024-923.672a6.239,6.239,0,0,1,.374-2.843,4.431,4.431,0,0,1,1.58-2.041,5.085,5.085,0,0,1,2.577-.888,4.809,4.809,0,0,1,3.587,1.018,5.253,5.253,0,0,1,1.8,3.419l.078.718a5.525,5.525,0,0,1-1.032,4,4.72,4.72,0,0,1-3.511,1.763,4.741,4.741,0,0,1-3.755-1.161,5.621,5.621,0,0,1-1.685-3.859Zm2.828-.032a3.944,3.944,0,0,0,.755,2.249,1.868,1.868,0,0,0,1.681.662,1.877,1.877,0,0,0,1.531-.917,4.318,4.318,0,0,0,.367-2.557,3.9,3.9,0,0,0-.762-2.233,1.873,1.873,0,0,0-1.682-.677,1.843,1.843,0,0,0-1.53.936A4.394,4.394,0,0,0,10744.853-923.7Z"/><path class="g" d="M10763.238-925.222a6.4,6.4,0,0,1-.756,4.036,3.59,3.59,0,0,1-2.9,1.664,3.3,3.3,0,0,1-2.843-1.089l-.035,1.13-2.53.208-1.229-14.949,2.812-.232.442,5.363a3.211,3.211,0,0,1,2.466-1.349,3.617,3.617,0,0,1,3.138,1.167,6.4,6.4,0,0,1,1.423,3.9Zm-2.83.027a4.2,4.2,0,0,0-.7-2.289,1.717,1.717,0,0,0-1.569-.611,1.862,1.862,0,0,0-1.758,1.252l.342,4.156a1.888,1.888,0,0,0,1.96.956,1.744,1.744,0,0,0,1.681-1.491A6.963,6.963,0,0,0,10760.408-925.2Z"/><path class="g" d="M10771.5-920.7a3.113,3.113,0,0,1-.36-.921,3.415,3.415,0,0,1-2.562,1.357,3.755,3.755,0,0,1-2.64-.684,2.885,2.885,0,0,1-1.2-2.175,2.985,2.985,0,0,1,1.028-2.671,6.145,6.145,0,0,1,3.513-1.2l1.295-.107-.051-.6a1.731,1.731,0,0,0-.471-1.137,1.476,1.476,0,0,0-1.218-.341,1.685,1.685,0,0,0-1.087.432,1.166,1.166,0,0,0-.327.968l-2.813.231a2.84,2.84,0,0,1,.427-1.74,3.741,3.741,0,0,1,1.5-1.352,5.848,5.848,0,0,1,2.279-.634,4.612,4.612,0,0,1,3.171.724,3.434,3.434,0,0,1,1.37,2.655l.375,4.565a5.053,5.053,0,0,0,.605,2.233l.014.166Zm-2.487-1.765a2.431,2.431,0,0,0,1.126-.372,1.823,1.823,0,0,0,.717-.809l-.148-1.81-1.051.086q-2.112.174-2.128,1.645l0,.167a1.121,1.121,0,0,0,.44.835A1.442,1.442,0,0,0,10769.011-922.463Z"/><path class="g" d="M10777.8-931.819l.188,1.209a3.687,3.687,0,0,1,2.911-1.66,3.061,3.061,0,0,1,2.571.778,4.6,4.6,0,0,1,1.079,2.87l.561,6.8-2.813.232-.554-6.735a1.834,1.834,0,0,0-.5-1.268,1.752,1.752,0,0,0-1.328-.3,1.945,1.945,0,0,0-1.7,1.159l.611,7.426-2.812.231-.867-10.531Z"/><path class="g" d="M10789.534-935.391l.213,2.589,1.8-.148.17,2.063-1.8.148.433,5.256a1.258,1.258,0,0,0,.293.819,1.128,1.128,0,0,0,.877.182,4.459,4.459,0,0,0,.821-.136l.176,2.132a5.813,5.813,0,0,1-1.683.393q-2.958.243-3.263-2.74l-.467-5.674-1.537.126-.17-2.063,1.537-.126-.213-2.589Z"/><path class="g" d="M10798.843-922.752a5.184,5.184,0,0,1-3.888-1.111,5.064,5.064,0,0,1-1.766-3.666l-.023-.273a6.387,6.387,0,0,1,.38-2.887,4.5,4.5,0,0,1,1.579-2.07,4.885,4.885,0,0,1,2.509-.888,4.389,4.389,0,0,1,3.514,1.083,5.555,5.555,0,0,1,1.559,3.762l.095,1.148-6.706.552a2.625,2.625,0,0,0,.958,1.587,2.5,2.5,0,0,0,1.789.48,3.045,3.045,0,0,0,2.443-1.387l1.51,1.434a4.251,4.251,0,0,1-1.6,1.538A5.652,5.652,0,0,1,10798.843-922.752Zm-1.033-8.626a1.763,1.763,0,0,0-1.311.679,2.946,2.946,0,0,0-.533,1.677l3.913-.322-.019-.225a2.108,2.108,0,0,0-.625-1.41A1.825,1.825,0,0,0,10797.81-931.378Z"/><path class="g" d="M10713.107-897.192a6.366,6.366,0,0,1,.781-4.014,3.6,3.6,0,0,1,2.9-1.708,3.233,3.233,0,0,1,2.634.939l-.441-5.372,2.822-.232,1.23,14.949-2.54.209-.229-1.108a3.319,3.319,0,0,1-2.6,1.537,3.586,3.586,0,0,1-3.1-1.22A6.566,6.566,0,0,1,10713.107-897.192Zm2.829-.022a4.173,4.173,0,0,0,.7,2.228,1.689,1.689,0,0,0,1.564.667,1.889,1.889,0,0,0,1.749-1.253l-.342-4.163a1.863,1.863,0,0,0-1.911-.951Q10715.665-900.52,10715.937-897.214Z"/><path class="g" d="M10730.079-893.013a5.185,5.185,0,0,1-3.889-1.111,5.067,5.067,0,0,1-1.767-3.666l-.022-.273a6.393,6.393,0,0,1,.38-2.888,4.52,4.52,0,0,1,1.579-2.07,4.9,4.9,0,0,1,2.509-.887,4.389,4.389,0,0,1,3.514,1.083,5.555,5.555,0,0,1,1.559,3.762l.095,1.148-6.706.552a2.617,2.617,0,0,0,.959,1.587,2.5,2.5,0,0,0,1.788.48,3.047,3.047,0,0,0,2.442-1.387l1.511,1.434a4.23,4.23,0,0,1-1.6,1.537A5.641,5.641,0,0,1,10730.079-893.013Zm-1.033-8.626a1.76,1.76,0,0,0-1.311.678,2.942,2.942,0,0,0-.533,1.678l3.912-.322-.019-.225a2.1,2.1,0,0,0-.626-1.41A1.817,1.817,0,0,0,10729.046-901.639Z"/><path class="g" d="M10745.163-896.538a1.848,1.848,0,0,0,1.229-.532,1.5,1.5,0,0,0,.412-1.18l2.639-.217a3.624,3.624,0,0,1-.424,2.009,3.86,3.86,0,0,1-1.458,1.511,4.933,4.933,0,0,1-2.163.673,4.589,4.589,0,0,1-3.681-1.142,5.7,5.7,0,0,1-1.631-3.859l-.015-.185a5.64,5.64,0,0,1,.975-3.99,4.53,4.53,0,0,1,3.434-1.742,4.444,4.444,0,0,1,3.261.863,4,4,0,0,1,1.458,2.893l-2.639.217a1.94,1.94,0,0,0-.615-1.294,1.7,1.7,0,0,0-1.327-.408,1.7,1.7,0,0,0-1.425.839,4.168,4.168,0,0,0-.311,2.366l.024.292a4.213,4.213,0,0,0,.688,2.3A1.721,1.721,0,0,0,10745.163-896.538Z"/><path class="g" d="M10757.451-895.461a3.113,3.113,0,0,1-.36-.921,3.416,3.416,0,0,1-2.563,1.357,3.754,3.754,0,0,1-2.639-.684,2.893,2.893,0,0,1-1.2-2.175,2.99,2.99,0,0,1,1.03-2.671,6.144,6.144,0,0,1,3.512-1.2l1.295-.107-.05-.6a1.741,1.741,0,0,0-.471-1.138,1.482,1.482,0,0,0-1.219-.34,1.68,1.68,0,0,0-1.086.432,1.159,1.159,0,0,0-.327.968l-2.813.231a2.842,2.842,0,0,1,.426-1.74,3.75,3.75,0,0,1,1.5-1.353,5.843,5.843,0,0,1,2.28-.633,4.613,4.613,0,0,1,3.171.724,3.429,3.429,0,0,1,1.369,2.655l.376,4.565a5.04,5.04,0,0,0,.605,2.233l.014.166Zm-2.487-1.765a2.434,2.434,0,0,0,1.125-.372,1.837,1.837,0,0,0,.718-.809l-.148-1.81-1.051.086q-2.114.174-2.13,1.645l0,.166a1.127,1.127,0,0,0,.44.836A1.445,1.445,0,0,0,10754.964-897.226Z"/><path class="g" d="M10764.147-906.614l.912,11.105a3.776,3.776,0,0,1-.7,2.786,3.533,3.533,0,0,1-2.587,1.188,5.75,5.75,0,0,1-1.406-.051l-.184-2.229a5.252,5.252,0,0,0,.894.015q1.274-.105,1.163-1.458l-.915-11.124Zm-3.271-2.475a1.387,1.387,0,0,1,.338-1.076,1.594,1.594,0,0,1,1.119-.5,1.594,1.594,0,0,1,1.187.314,1.385,1.385,0,0,1,.51,1.007,1.379,1.379,0,0,1-.347,1.086,1.6,1.6,0,0,1-1.109.5,1.6,1.6,0,0,1-1.177-.315A1.38,1.38,0,0,1,10760.876-909.089Z"/><path class="g" d="M10773.315-896.767a3.117,3.117,0,0,1-.36-.921,3.413,3.413,0,0,1-2.563,1.358,3.747,3.747,0,0,1-2.638-.685,2.885,2.885,0,0,1-1.2-2.174,2.987,2.987,0,0,1,1.029-2.672,6.151,6.151,0,0,1,3.512-1.2l1.295-.106-.05-.6a1.746,1.746,0,0,0-.471-1.137,1.478,1.478,0,0,0-1.218-.34,1.686,1.686,0,0,0-1.088.432,1.163,1.163,0,0,0-.326.967l-2.812.232a2.828,2.828,0,0,1,.425-1.74,3.743,3.743,0,0,1,1.5-1.353,5.83,5.83,0,0,1,2.28-.633,4.608,4.608,0,0,1,3.171.724,3.43,3.43,0,0,1,1.37,2.655l.375,4.565a5.072,5.072,0,0,0,.6,2.233l.015.165Zm-2.487-1.765a2.431,2.431,0,0,0,1.126-.372,1.822,1.822,0,0,0,.717-.808l-.148-1.81-1.052.086q-2.111.174-2.128,1.645l0,.166a1.127,1.127,0,0,0,.441.836A1.436,1.436,0,0,0,10770.828-898.532Z"/><path class="c" d="M10705.44-885.113a9.366,9.366,0,0,1-8.54.13,12.244,12.244,0,0,1-5.311-5.46c-3.95-7.12-14.64-23.34-16.609-28s-6.33-17.84-10.681-23.37-6.729-13.85-6.729-13.85l-1.58-80.7c2.37,11.67,8.9,24.92,8.9,24.92a37.375,37.375,0,0,1,14,12.66,23.422,23.422,0,0,1,2.73,3.53c6.46,10,9.59,28,9.93,42,.4,15.83,5.54,23,13.851,36.79S10710.84-888.183,10705.44-885.113Z"/><path class="d" d="M10705.44-885.113a9.588,9.588,0,0,1-8.54.13c4.54-1.24,10.5-3.57,9.13-7-2.15-5.48-8.44,2.65-11.6,0s-14.64-17.85-7.35-24.54,5-17.91,0-21.07-1.75-10.69-.17-22.54c1-7.17-2.43-23.41-5.25-35.13,6.46,10,9.59,28,9.93,42,.4,15.83,5.54,23,13.851,36.79S10710.84-887.993,10705.44-885.113Z"/><path class="e" d="M10655.99-1036.413c2.37,11.67,8.9,24.92,8.9,24.92a37.375,37.375,0,0,1,14,12.66c8.311,8.7,12.271,29.67,12.66,45.49s5.54,23,13.851,36.79,6,28.17,0,31.44c-4.181,2.29-9.891,1.79-13.851-5.33s-14.64-23.34-16.609-28-6.33-17.84-10.681-23.37-6.729-13.85-6.729-13.85"/><path class="e" d="M10681.68-919.913s6.46-.58,9.42-3"/><path class="e" d="M10655.2-954.073s-1.26,3,5.34,6"/><path class="b" d="M10830.5-891.967s-3.56,43.08,1.59,53.53,7.73,81.85,5.42,90.83c0,0,16.58,4.18,23.141-1.76s16.649-.22,33.27-6,4.63-134.07,4.63-134.07l.51-46.67-27.409-24.42Z"/><path class="i" d="M10852.6-871.247a2.3,2.3,0,0,1-.489.83c-3.54,3.35-18.65,7.07-31.63,9.75-10.75,2.23-20,3.74-20,3.74s-7.12-59.17-7.12-65.39-11.48-106.92-11.48-106.92l27.521-1.19,36.51-1.58s.22,2.69.59,7.39C10848.911-994.677,10857.191-883.057,10852.6-871.247Z"/><g class="m"><path class="b" d="M10852.6-871.247l-32.119,6.57-12.131,2.49c-3.29-3.23-5.8-3.29-5.8-3.29l-1-9.05-1.569-14.81-13.82-130.3c3-2.07,4.479-6.6,4.479-6.6l18.5-.67,32.051-1.17,5.29,3.42C10848.911-994.677,10857.191-883.057,10852.6-871.247Z"/><path class="e" d="M10852.6-871.247l-32.119,6.57-12.131,2.49c-3.29-3.23-5.8-3.29-5.8-3.29l-1-9.05-1.569-14.81-13.82-130.3c3-2.07,4.479-6.6,4.479-6.6l18.5-.67,32.051-1.17,5.29,3.42C10848.911-994.677,10857.191-883.057,10852.6-871.247Z"/><path class="n" d="M10804.251-909.607l10.72-.02.011,3.35-2.98,1.06-6.87.75Z"/><path class="n" d="M10804.911-902.707l7.88-.27,2.021.96-.1,4.45-9.2.1Z"/><path class="n" d="M10806.171-895.6l9-.65-.1,3.37-4.351,1.54-4.6-.26Z"/><path class="n" d="M10806.711-889.917l7.271.37.66,1.86-1.061,2.05-6.5.42-1.12-3.17Z"/><path class="n" d="M10815.091-883.407l1,2.91a2.178,2.178,0,0,1,0,2,1.647,1.647,0,0,1-1.52.54c-.561-.05-1.11-.24-1.67-.27-1.69-.07-3.24,1.32-4.9,1-.65-1.8-2.29-4.44-.07-5.25C10808.341-882.607,10815.331-882.747,10815.091-883.407Z"/><path class="n" d="M10815.061-875.217a16.435,16.435,0,0,1,.341,2.1,2.678,2.678,0,0,1-.74,2.51,2.978,2.978,0,0,1-1.39.37l-5.78.52a26.445,26.445,0,0,1-.05-3.28c.34-1.3.1-1.19,1.33-1.72C10810.721-875.547,10813.061-874.227,10815.061-875.217Z"/><path class="e" d="M10794.041-1016.677s2.18,21.07,2.28,25.24"/><line class="e" x2="1.02" y2="11.61" transform="translate(10798.741 -1016.447)"/><path class="n" d="M10815.031-1020.837l1.32,13.61,1.85.18-.6-13.66Z"/><path class="b" d="M10852.6-871.247a2.3,2.3,0,0,1-.489.83c-3.54,3.35-18.65,7.07-31.63,9.75v-9l-18.891-4.84-2.85-.73,1.28-14.08,4.89-53.8,4.27-83.75.181-3.56,36.55-1.58s.22,2.69.59,7.39C10848.911-994.677,10857.191-883.057,10852.6-871.247Z"/></g><path class="e" d="M10852.6-871.247a2.3,2.3,0,0,1-.489.83c-3.54,3.35-18.65,7.07-31.63,9.75-10.75,2.23-20,3.74-20,3.74s-7.12-59.17-7.12-65.39-11.48-106.92-11.48-106.92l27.521-1.19,36.51-1.58s.22,2.69.59,7.39C10848.911-994.677,10857.191-883.057,10852.6-871.247Z"/><path class="c" d="M10871.971-736.977c.23-2.11-3.09-32.38-3.149-35.67-.16-9-2.71-20.81-2.71-20.81-3.561-9.1-6.33-30.07-15.83-43.52s-9.49-29.27-11.07-42.7-1.189-12.27-.79-24.19a175.428,175.428,0,0,0-1.189-26.81c-.79-7.92-2.37-21.85,0-28.34s8.569-8,15.359-1.5,9.561,33.15,9.561,36.44,0,13.57,2.38,17.53c0,0,13.45-6.88,13.45-8.78s-.4-18.69,1.579-19.59l-7.909-25.6,15-5.33a39,39,0,0,1,7.239,8.7,46.969,46.969,0,0,1,4.23,8.49c6.33,16.79,16.5,28.5,18.6,33.33s0,43.19,0,50.32-4.6,40-4.479,45.53c.09,4,2.79,18.88,5.479,30.29,1,4.4,7.07,36.28,8,38.81Z"/><path class="d" d="M10883.811-936.607c-.1,2.15,2.471,19.29,2.471,19.29,1.779,4.27-7.94,18.83-7.94,18.83-2.1,1.18-3,8.5-3,8.5-6.58-1.46-21.649-16.61-21.649-16.61s-1.78,6.21-3.78,21.58,10.68,51.88,16.08,77.09,2.83,35.25,2.83,35.25c-.16-9-2.71-20.81-2.71-20.81-3.561-9.1-6.33-30.07-15.83-43.52s-9.49-29.24-11.07-42.67-1.189-12.27-.79-24.19a175.428,175.428,0,0,0-1.189-26.81c-.79-7.92-2.37-21.85,0-28.34s8.569-8,15.359-1.5,9.561,33.15,9.561,36.44,0,13.57,2.38,17.53c0,0,13.45-6.88,13.45-8.78s-.4-18.69,1.579-19.59l-7.909-25.6,15-5.33a39,39,0,0,1,7.239,8.7C10889.041-947.447,10883.911-937.947,10883.811-936.607Z"/><path class="d" d="M10909.031-816.827c.66-6,2.63-20.26,3.88-29.16-1.53,6.95-4,10.47-4,10.47s4.26-51,4.68-54.11,4.72-17.09,3.141-25.75c2.1,4.82,0,43.19,0,50.32s-4.6,40-4.48,45.53c.09,4,4.38,29.49,7.07,40.9C10913.541-787.027,10908.371-810.8,10909.031-816.827Z"/><path class="e" d="M10925.7-750.427c-3.16-9.1-13.311-63.6-13.43-69.1s4.479-38.41,4.479-45.53,2.1-45.5,0-50.32-12.27-16.54-18.6-33.33a43.659,43.659,0,0,0-11.471-17.19l-15,5.33,7.91,25.6c-2,.9-1.58,17.69-1.58,19.59s-13.45,8.78-13.45,8.78c-2.38-4-2.38-14.24-2.38-17.53s-2.77-29.95-9.56-36.44-13-5-15.36,1.5-.79,20.42,0,28.34a175.44,175.44,0,0,1,1.19,26.84c-.4,11.92-.8,10.74.79,24.19s1.58,29.27,11.069,42.72,12.271,34.42,15.83,43.52c0,0,6.721,48.57,5.86,56.48"/><path class="e" d="M10864.531-906.6s2.37,11.07,7.71,16.61"/><path class="e" d="M10865.971-901.547s10,3.06,14.181,3.25"/><path class="e" d="M10877.981-915.377s7.119-3.29,11.67-1.31"/><path class="e" d="M10879.561-934.967s5.54-.51,6.721-3.28"/><path class="e" d="M10852.111-834.157s10.64,13.21,13.8,19.93"/><path class="e" d="M10913.981-891.967c-1.78,10.49-4.16,39.17-4.95,44.31"/><path class="e" d="M10917.381-911.747c.3,9.5-2,14.44-2,14.44"/><path class="i" d="M10835.591-1044.677l73.32,19.34s-25.771,78.21-31,87.91l-8.74,68.18s-46.84-2.06-68.38-8.57c0,0,13.62-71,14.35-80.47S10835.591-1044.677,10835.591-1044.677Z"/><g class="o"><path class="b" d="M10819.821-962.487l16.16-69.09s6.949-3.45,9.64-6.6l52.53,14.94s.159,5.15,3.17,8.45l-26.511,76.39-6.43,56.31s-8.55.68-9.37,7c0,0-27.72,1.5-46.31-3.4,0,0-2.19-6.83-5.54-11.15Z"/><path class="e" d="M10819.821-962.487l16.16-69.09s6.949-3.45,9.64-6.6l52.53,14.94s.159,5.15,3.17,8.45l-26.511,76.39-6.43,56.31s-8.55.68-9.37,7c0,0-27.72,1.5-46.31-3.4,0,0-2.19-6.83-5.54-11.15Z"/><path class="n" d="M10833.271-958.9s4.77-18,21.569-14.77,7.311,25.41,7.311,25.41.1,17.9-13.53,15.43C10836.8-934.967,10830.5-941.457,10833.271-958.9Z"/><path class="e" d="M10842.371-1025.007s-5.08,20.57-6.39,24.53"/><line class="e" x1="2.96" y2="11.28" transform="translate(10843.761 -1023.227)"/><path class="n" d="M10883.812-1015.317l10.109,3.56-1.109,3.17h-3.16l-6.73-1.58Z"/><path class="n" d="M10882.131-1008.587l7.521,2.37,1.58,1.58-1.58,4.16-8.71-2.97Z"/><path class="n" d="M10880.941-1001.467l8.71,2.4-1.23,3.14h-4.609l-4.25-1.78Z"/><path class="n" d="M10879.562-995.927l6.72,2.77v1.97l-1.68,1.59-6.261-1.78v-3.37Z"/><path class="n" d="M10885.291-987v3.08a2.2,2.2,0,0,1-.61,1.88,1.689,1.689,0,0,1-1.62,0c-.51-.24-1-.6-1.479-.81-1.57-.63-3.5.16-5-.68,0-1.91-.67-4.94,1.69-5C10878.661-988.5,10885.291-986.3,10885.291-987Z"/><path class="n" d="M10882.521-979.287a14.312,14.312,0,0,1-.381,2.09c-.22.89-.649,1.88-1.54,2.12a2.906,2.906,0,0,1-1.43-.12l-5.62-1.48a27.823,27.823,0,0,1,1-3.1c.76-1.11.5-1.09,1.83-1.18C10878.541-981.047,10880.3-979.017,10882.521-979.287Z"/><path class="n" d="M10863.541-1021.837l-3.37,13.25,1.681.79,4.06-13.06Z"/><path class="n" d="M10821.312-932.857l10.38,2.69-.84,3.24-3.15.28-6.84-1.01Z"/><path class="n" d="M10820.211-926.007l7.69,1.72,1.72,1.44-1.22,4.28-8.931-2.22Z"/><path class="n" d="M10819.642-918.807l8.88,1.64-.96,3.23-4.591.4-4.39-1.41Z"/><path class="n" d="M10818.731-913.177l6.939,2.19.17,1.97-1.54,1.72-6.39-1.24-.29-3.35Z"/><path class="n" d="M10825.2-904.767l.27,3.07a2.189,2.189,0,0,1-.449,1.93,1.667,1.667,0,0,1-1.61.13c-.53-.19-1-.51-1.55-.67-1.61-.5-3.471.45-5-.26-.181-1.9-1.09-4.86,1.25-5.09C10818.471-905.677,10825.261-904.067,10825.2-904.767Z"/><path class="n" d="M10823.111-896.847a15.087,15.087,0,0,1-.2,2.17c-.15.9-.49,1.93-1.351,2.24a2.9,2.9,0,0,1-1.439,0l-5.72-1a27.182,27.182,0,0,1,.77-3.18c.66-1.17.4-1.13,1.72-1.33C10818.991-898.257,10820.911-896.387,10823.111-896.847Z"/><path class="e" d="M10864.531-887.137s2.38-26.54,2.38-29.21"/><path class="e" d="M10859.781-888.327s1-13.8,1.18-16.2"/><path class="n" d="M10841.231-898.3l-3.21,15.71h3.21l2.33-15.71Z"/><path class="b" d="M10878.081-937.817c-6.94-1.45-13.13-3.58-17.71-6.65,0,0,3.32,9.54,15.09,25.8l-6.33,49.42s-30.57-1.34-53.67-5.29c7.1-20,20-57.9,18.47-65.41-2.069-10.31,5.24-22.48,5.24-22.48,23.11-4.16,45.521-21.63,60.9-36.4C10892.241-975.677,10881.551-944.677,10878.081-937.817Z"/></g><path class="e" d="M10835.591-1044.677l73.32,19.34s-25.771,78.21-31,87.91l-8.74,68.18s-46.84-2.06-68.38-8.57c0,0,13.62-71,14.35-80.47S10835.591-1044.677,10835.591-1044.677Z"/><path class="c" d="M10876.241-888.987l-10.33,74.76c-2.3-4.89-8.57-13.23-11.811-17.4-1.2-1.56-2-2.53-2-2.53l-1.829-2.82c-9.49-13.45-9.49-29.27-11.07-42.72s-1.19-12.27-.79-24.19a175.41,175.41,0,0,0-1.18-26.79c-.79-7.92-2.37-21.85,0-28.34,1.159-3.18,3.25-5.16,5.869-5.58s6,.78,9.49,4.08c6.79,6.49,9.561,33.15,9.561,36.44s0,13.57,2.38,17.53C10864.531-906.6,10870.911-894.527,10876.241-888.987Z"/><path class="d" d="M10849.491-842.307c2.16,2.76,3.63,6.74,4.609,10.68-1.2-1.56-2-2.53-2-2.53l-1.829-2.82c-9.49-13.45-9.49-29.27-11.07-42.72s-1.19-12.27-.79-24.19a175.41,175.41,0,0,0-1.18-26.79c-.79-7.92-2.37-21.85,0-28.34,1.159-3.18,3.25-5.16,5.869-5.58,5,1.42,10,6.51,11.74,15.22,3,14.62-10.53,2.81-13.66,15.2s1.42,15.73,3.29,18.85-.52,10-3.29,19.24S10843.561-849.9,10849.491-842.307Z"/><path class="e" d="M10876.241-888.987c-5.34-5.54-11.71-17.61-11.71-17.61-2.38-4-2.38-14.24-2.38-17.53s-2.771-29.95-9.561-36.44-13-5-15.359,1.5-.79,20.42,0,28.34a175.44,175.44,0,0,1,1.189,26.84c-.4,11.92-.8,10.74.79,24.19s1.58,29.27,11.07,42.72l1.83,2.82s10.64,13.21,13.8,19.93"/><path class="e" d="M10841.231-920.627s9.069-4.69,13.609-4.29"/></g><g transform="translate(-9473.968 8562.485)"><g transform="translate(10479.852 -710.056)"><g transform="translate(27.68 96.272)"><path class="p" d="M10545.471-463.147c-.44-9.739-1.679-44.821-1.679-44.821l-18.58,11.621c1.516,17.227,6.152,30.616,7.465,40.395,0,0,6.519,5.142,10.2,8.483a73.47,73.47,0,0,0,10.063,7.921c2.746,1.7,8.565,2.347,9.445.563a135.147,135.147,0,0,1-13.146-13.137C10545.78-456.367,10545.716-458.4,10545.471-463.147Z" transform="translate(-10476.374 613.784)"/><path class="g" d="M10556.158-433.468c.254,0,.384,2.778-1.059,3.813-1.63,1.19-6.4,2.983-12.322,1.671s-9-3.447-11.229-5.664-5.33-5.354-7.987-6.193c-2.444-.774-5.1-2.16-5.842-3.007s-.318-4.3-.318-4.3Z" transform="translate(-10462.37 613.784)"/><path class="q" d="M10518.1-458.331a1.474,1.474,0,0,0-.6,1.238c.041,1.28.645,2.494.245,4.678a26.3,26.3,0,0,0-.555,6.462c.172,1.809,4.173,3.406,6.707,4.637a33.473,33.473,0,0,1,8.027,6.12,24.811,24.811,0,0,0,12.224,5.827c5.957.619,9.958-.66,11.343-2.7,1.712-2.518.686-4.156-5.883-7.937-1.247-.717-5.566-3.822-7.033-4.938-3.969-3.016-7.8-7.066-9.323-11.914a2.633,2.633,0,0,0-.854-1.524,2.209,2.209,0,0,0-1.32-.237,11.51,11.51,0,0,0-3.391.7c-.961.359-2.868.726-2.949,1.907a5.732,5.732,0,0,0,.317,1.63c.057.253.22,1.125,0,1.247s-.709-.5-.855-.693c-.7-.9-.921-1.45-1.866-1.736s-3.431-.529-4.074-1.548Z" transform="translate(-10462.183 613.784)"/><path class="r" d="M10529.464-439.385c-8.687-.171-11.882,4.89-12.541,8.19a20.419,20.419,0,0,0,6.021,1.826c5.957.619,10.2-.636,11.588-2.673C10536.146-434.414,10535.38-436.516,10529.464-439.385Z" transform="translate(-10440.964 613.784)"/><path class="s" d="M10527.979-440.468a.41.41,0,0,1-.254-.123.416.416,0,0,1-.007-.587l.007-.008a10.171,10.171,0,0,1,8.076-2.387.424.424,0,0,1,.229.554.423.423,0,0,1-.392.261,9.475,9.475,0,0,0-7.334,2.143A.419.419,0,0,1,10527.979-440.468Z" transform="translate(-10452.437 613.784)"/><path class="s" d="M10531.508-442.913a.408.408,0,0,1-.261-.122.415.415,0,0,1-.007-.588l.007-.007a10.168,10.168,0,0,1,8.084-2.388.424.424,0,0,1,.228.554.423.423,0,0,1-.391.261,9.42,9.42,0,0,0-7.334,2.143A.408.408,0,0,1,10531.508-442.913Z" transform="translate(-10459.485 613.784)"/><path class="s" d="M10534.652-445.725a.4.4,0,0,1-.262-.114.431.431,0,0,1,0-.6,10.2,10.2,0,0,1,8.084-2.379.423.423,0,0,1,.334.5.416.416,0,0,1-.487.328l-.01,0a9.426,9.426,0,0,0-7.334,2.151A.4.4,0,0,1,10534.652-445.725Z" transform="translate(-10465.856 613.784)"/><path class="s" d="M10537.16-448.495a.451.451,0,0,1-.261-.114.423.423,0,0,1,0-.6c1.842-1.948,5.7-2.991,8.809-2.372a.425.425,0,0,1,.229.554.425.425,0,0,1-.4.261c-2.795-.554-6.389.4-8.019,2.119A.433.433,0,0,1,10537.16-448.495Z" transform="translate(-10471.519 613.784)"/><path class="p" d="M10607.234-487.024l-18.343-1.8c-.709,12.288.155,26.077-.44,37.592-.114,2.167-1.394,16.827-.937,21.35.691,6.8,8.719,6.52,9.461,2.551s2.371-21.294,2.542-23.054c.514-7.391,3.765-19.452,6.634-32.556C10606.314-483.585,10607.128-486.4,10607.234-487.024Z" transform="translate(-10583.423 613.784)"/><path class="g" d="M10611.228-424.3c-.146,3.945-.709,6.577-2.061,8.916s-3.978,3.121-6.658,2.5-6.153-2.363-6.992-5.753a21.624,21.624,0,0,1-.2-9.388Z" transform="translate(-10594.905 613.784)"/><path class="q" d="M10599.319-452.643c-1.1.106-1.32,5.411-1.842,10.724-.562,5.7-2.208,8.084-2.723,12.753-.586,5.346-.26,7.718,1.671,10.9s8.605,6.2,11.768,1.524c2.575-3.814,2.592-7.987,2.241-13.292a119.34,119.34,0,0,1,.082-13.478c.13-3.993.929-8.035,0-8.459-.058.587-.114,1.336-.181,1.915-.048.44-.122,2.6-.732,2.632a9.26,9.26,0,0,1-.05-1.5,1.747,1.747,0,0,0-.325-1.28,2.055,2.055,0,0,0-1.23-.521c-1.092-.2-3.39-.245-4.49-.318a13.842,13.842,0,0,0-1.63,0,4.257,4.257,0,0,0-1.394.22,1.036,1.036,0,0,0-.587.554,1.674,1.674,0,0,0-.04.611,4.576,4.576,0,0,1-.114,1.1c-.041.155-.147.351-.3.31s-.187-.179-.187-.318c0-.635.058-1.108.065-1.858,0-.342.057-.815.057-1.165S10599.3-452.3,10599.319-452.643Z" transform="translate(-10594.226 613.784)"/><path class="r" d="M10594.933-426.069c-.122,3.309.114,5.566,1.631,8.06,1.931,3.178,9.127,6.2,12.288,1.523,1.572-2.33,1.947-5.052,2.118-7.823C10608.941-427.821,10597.981-429.157,10594.933-426.069Z" transform="translate(-10594.647 613.784)"/><path class="s" d="M10607.578-430.038a.455.455,0,0,1-.138,0,16,16,0,0,0-9.518-.815.414.414,0,0,1-.5-.3.415.415,0,0,1,.293-.5,16.728,16.728,0,0,1,10.063.815.424.424,0,0,1,.2.546A.4.4,0,0,1,10607.578-430.038Z" transform="translate(-10594.206 613.784)"/><path class="s" d="M10597.539-434.829a.421.421,0,0,1-.357-.269.415.415,0,0,1,.243-.522c4.89-1.776,9.845.636,10.049.734a.414.414,0,0,1,.187.554.423.423,0,0,1-.554.179c-.041,0-4.832-2.355-9.4-.7A.312.312,0,0,1,10597.539-434.829Z" transform="translate(-10593.636 613.784)"/><path class="s" d="M10597.2-438.578a.391.391,0,0,1-.351-.261.407.407,0,0,1,.231-.527l0,0a12.662,12.662,0,0,1,10.243.709.406.406,0,0,1,.09.569.406.406,0,0,1-.5.131,12.062,12.062,0,0,0-9.543-.643A.34.34,0,0,1,10597.2-438.578Z" transform="translate(-10593.093 613.784)"/><path class="t" d="M10596.831-442.791a.4.4,0,0,1-.342-.253.406.406,0,0,1,.228-.529h0c5.054-2.013,10.105.7,10.317.815a.409.409,0,0,1,.163.554.409.409,0,0,1-.555.163c-.049,0-4.938-2.641-9.624-.774A.374.374,0,0,1,10596.831-442.791Z" transform="translate(-10592.479 613.784)"/><path class="q" d="M10557.663-613.784c-5.485,8.035-13.74,19.1-13.341,39.621.628,32.311,1.63,47.933,1.63,47.933-1.336,3.545-3.766,6.063-3.748,22.288,0,12.941.741,31.056.741,31.056s8.964,4.222,16.5.962c2.812-10.553,7.017-38.162,10.04-52.285,2.737-12.827,4.823-28.693,4.823-28.693l8.883,30.421a75.407,75.407,0,0,0,.815,20.373c1.548,8.556,7.407,31.985,7.407,31.985s9.648,2.64,16.095-2.347c0,0-1.182-43.712-1.63-54.167-.636-15.671-.489-41.887-3.2-63.286-1.043-8.15-3.936-16.576-5.337-22.06Z" transform="translate(-10538.487 613.784)"/><path class="q" d="M10560.555-523.541c-.357,6.65-.813,14.188,1.418,29.337,1.133,7.889,2.828,17.684,4.075,24.741h-.815c-1.263-7.057-2.941-16.763-4.074-24.6-2.2-15.255-1.784-22.818-1.427-29.516.384-6.927-4.123-40.233-6.608-54.926l.814-.13C10556.424-563.911,10560.93-530.516,10560.555-523.541Z" transform="translate(-10507.944 613.784)"/><path class="q" d="M10584.424-522.432c.2-.636.391-1.206.537-1.761.6-2.2.325-12.916,0-24.26-.2-7.961-.415-16.208-.384-22.89.09-16.942,3.92-30.462,12.013-42.278h.954a65.176,65.176,0,0,0-10.439,24.578c3.528,1.059,8.312-1.084,10.463-6.666,2.355-6.1,6.006-14.547,6.039-14.669l.741.318c0,.082-3.675,8.508-6.022,14.595-2,5.191-6.152,7.611-9.778,7.448a7.049,7.049,0,0,1-1.631-.277,90.869,90.869,0,0,0-1.572,16.877c0,6.666.18,14.9.383,22.867.3,11.9.571,22.173-.057,24.447-.154.562-.343,1.149-.555,1.793-1.148,3.577-3.071,9.559-3.341,26.965-.138,9.152-.187,17.309-.2,23.527l-.813-.245c0-6.193.057-14.261.194-23.3C10581.285-512.759,10583.266-518.814,10584.424-522.432Z" transform="translate(-10573.878 613.784)"/><path class="q" d="M10589.184-475.942c3.153,1.883,13.854,3.179,18.059,1.516l-1.093,4.987s-2.729,1.174-8.564.962-8.149-2.575-8.149-2.575Z" transform="translate(-10585.198 613.784)"/><path class="q" d="M10542.179-474.817c3.479,1.133,13.552-.644,17.276-3.2l.146,5.558s-2.217,2.339-8,3.113-8.093-.766-8.093-.766Z" transform="translate(-10490.554 613.784)"/><path class="g" d="M10553.426-552.926l3.545-25.76s13.577-1.9,18.434-6.764c0,0-6.063,8.964-15.271,10.594l-3.487,18.988,5.614,33.093Z" transform="translate(-10517.603 613.784)"/></g><path class="g" d="M10554.478-690.345c-.815,8.108-1.117,55.479-1.117,55.479h41.268v-55.479Z" transform="translate(-10509.14 710.056)"/><g transform="translate(76.52 12.479)"><path class="p" d="M10524.57-660.813c6.52,0,6.707.391,15.752,5.452s22.752,12.354,22.752,12.354l-4.481,15.247-28.905-14.13Z" transform="translate(-10524.57 697.577)"/><path class="p" d="M10498.243-643.488s-8.394,12.411-1.63,15.728c4.759,2.331,8.247,3.17,12-2.07a37.767,37.767,0,0,0,3.871-8.149c2.143-6,4.335-14.668,6.381-19.721a4.176,4.176,0,0,1,2.746-2.053,9.542,9.542,0,0,0,5.647-2.8c2.1-2.444,4.417-14.57,4.417-14.57s-2.607.489-5.55,1.173c.815-1.98.293-3.585-.31-3.651-.815-.081-2.494,1.72-3.879,2.543-2.314,1.377-5.338,1.931-5.843,2.445-1.459,1.524-2.812,6.226-4.8,9.347C10506.75-658.115,10498.243-643.488,10498.243-643.488Z" transform="translate(-10462.574 697.577)"/><path class="u" d="M10497.491-659.68a6.668,6.668,0,0,1-3.3-2.754,4.646,4.646,0,0,0,3.513-3.847c.366-3.162-.749-3.985,1.264-5.606a13.662,13.662,0,0,0,3.153-3.79l5.2-1.116s-.627,7.122-1.222,9.7S10503.5-660.4,10497.491-659.68Z" transform="translate(-10438.434 697.577)"/><path class="p" d="M10496.526-677.967s3.2-1.2,5.126-.929c.815.114,1.418.514,1.395,2.144a2.99,2.99,0,0,1-1.337,2.175,2.445,2.445,0,0,1,1.312,1.858,3.088,3.088,0,0,1-1.719,2.95,1.9,1.9,0,0,1,.6,1.818,3.3,3.3,0,0,1-1.972,2.078,2.885,2.885,0,0,1,0,2.118c-.489.954-2.812,2.372-4.89,3.016s-2.714-1.215-2.273-2.16a4.43,4.43,0,0,1,1.629-1.8,2.16,2.16,0,0,1-.929-1.727c0-1.109,2.225-2.2,2.225-2.2s-1.63-.529-1.63-1.858,2.445-2.844,2.445-2.844-1.1,0-1.435-.627C10496.087-675.465,10496.738-676.956,10496.526-677.967Z" transform="translate(-10432.613 697.577)"/><g transform="translate(59.635)"><path class="i" d="M10502.774-680.868l.31-15.548a.636.636,0,0,0-.285-.6l-.814-.5.252.578-.236,11.784-.082,3.773a1.939,1.939,0,0,1-.911,1.516l-20.626,11.408-.529.09s.586.383.813.5a.62.62,0,0,0,.579-.073l20.635-11.409A1.941,1.941,0,0,0,10502.774-680.868Z" transform="translate(-10479.5 697.577)"/><path class="q" d="M10480.057-692.48h0l.814.513.09-4.474a.636.636,0,0,0-.286-.6l-.814-.5.253.579Z" transform="translate(-10457.385 697.577)"/><path class="i" d="M10503.439-696.962h0c0-.546-.391-.766-.88-.505l-20.625,11.408a1.929,1.929,0,0,0-.921,1.516l-.311,15.549c0,.562.375.815.856.537h0l20.625-11.408a1.939,1.939,0,0,0,.913-1.516l.081-3.773Z" transform="translate(-10480.703 697.577)"/><path class="v" d="M10503.439-696.962h0c0-.546-.391-.766-.88-.505l-20.625,11.408a1.929,1.929,0,0,0-.921,1.516l-.311,15.549c0,.562.375.815.856.537h0l20.625-11.408a1.939,1.939,0,0,0,.913-1.516l.081-3.773Z" transform="translate(-10480.703 697.577)"/><path class="v" d="M10492.069-694.575l1.108-.187-9.257,20.316-1.369.758Z" transform="translate(-10472.291 697.577)"/><path class="v" d="M10494.238-675.8l5.917-12.973,2.1-1.165,1.173.024-9.322,20.454Z" transform="translate(-10494.1 697.577)"/><path class="v" d="M10480.761-675.962l8.3-18.221-.131,6.34-4.49,9.852Z" transform="translate(-10466.385 697.577)"/><path class="v" d="M10501.214-690.321l.555-.024-9.56,20.984-.733.4Z" transform="translate(-10489.805 697.577)"/><path class="v" d="M10497.018-691.184l2.737.057-8.67,19.028-3.692,2.029Z" transform="translate(-10483.709 697.577)"/><path class="q" d="M10503.1-692.48l.09-4.482h0c0-.546-.393-.766-.88-.505l-20.626,11.408a1.935,1.935,0,0,0-.922,1.516l-.089,4.482Z" transform="translate(-10480.432 697.577)"/><path class="w" d="M10480.311-668.432s.586.383.813.5a.62.62,0,0,0,.579-.073l20.635-11.409a1.938,1.938,0,0,0,.749-.815l-.855-.522a1.868,1.868,0,0,1-.75.864l-20.625,11.409Z" transform="translate(-10479.959 697.577)"/><path class="c" d="M10482.9-683.826l.4-.22a.254.254,0,0,0,.049-.049.14.14,0,0,0,0-.057h-.049l-.131.065v-.652a.175.175,0,0,1,0-.114.236.236,0,0,1,.09-.089h0l.05-.049c.049-.049,0,0,0-.057h-.041a.574.574,0,0,0-.2.179.447.447,0,0,0-.082.228v.66l-.139.074a.09.09,0,0,0-.04,0,.1.1,0,0,0,0,.057h0a.048.048,0,0,0,.051.046A.048.048,0,0,0,10482.9-683.826Z" transform="translate(-10462.727 697.577)"/><path class="c" d="M10483.93-683.744l.27-.147a.093.093,0,0,1,.089,0,.066.066,0,0,1,0,.073v.1h0l-.562.318h-.049a.113.113,0,0,0,0,.057h.041l.668-.367a.231.231,0,0,0,.049-.049.186.186,0,0,0,0-.057v-.2a.144.144,0,0,0-.072-.147.237.237,0,0,0-.188,0l-.269.147a.09.09,0,0,1-.09,0,.064.064,0,0,1,0-.065v-.139a.25.25,0,0,1,0-.114.528.528,0,0,1,.1-.09l.269-.146a.09.09,0,0,1,.09,0,.065.065,0,0,1,.041.065h.05a.142.142,0,0,0,.048-.049.113.113,0,0,0,0-.057.146.146,0,0,0-.073-.139.207.207,0,0,0-.187,0l-.269.147a.661.661,0,0,0-.187.179.472.472,0,0,0-.081.228v.139a.147.147,0,0,0,.072.139.2.2,0,0,0,.23.173Z" transform="translate(-10464.607 697.577)"/><path class="c" d="M10484.542-682.946v.065a.132.132,0,0,0,.082.139.19.19,0,0,0,.18,0l.269-.147a.489.489,0,0,0,.188-.179.39.39,0,0,0,.08-.228v-.041h-.049a.084.084,0,0,0,0,.049.1.1,0,0,0,0,.057.24.24,0,0,1-.041.114.256.256,0,0,1-.1.09l-.261.146a.152.152,0,0,1-.1,0,.08.08,0,0,1,0-.073v-.065a.227.227,0,0,1,.041-.114.2.2,0,0,1,.1-.09h.113a.278.278,0,0,0,0-.057h0a.06.06,0,0,0-.049,0h-.064a.114.114,0,0,1-.1,0v-.138a.25.25,0,0,1,.041-.114.266.266,0,0,1,.1-.09l.261-.147h.1c.024,0,0,0,0,.065h.041a.17.17,0,0,0,.073-.106.14.14,0,0,0-.073-.138.206.206,0,0,0-.187,0l-.27.147a.477.477,0,0,0-.187.179.392.392,0,0,0-.082.228v.082a.182.182,0,0,0,0,.1.129.129,0,0,0,.065.049.654.654,0,0,0-.065.131A.341.341,0,0,0,10484.542-682.946Z" transform="translate(-10466.549 697.577)"/><path class="c" d="M10485.724-682.066h.049a.09.09,0,0,0,.04,0,.113.113,0,0,0,0-.057v-.375a.264.264,0,0,0,.131,0l.269-.146a.588.588,0,0,0,.188-.188.426.426,0,0,0,.081-.228v-.326h-.04a.229.229,0,0,0-.049.049.112.112,0,0,0,0,.057v.326a.205.205,0,0,1,0,.114.343.343,0,0,1-.1.09l-.269.147a.1.1,0,0,1-.089,0s-.041,0-.041-.074V-683h0a.053.053,0,0,0-.049,0,.291.291,0,0,0-.05.049.14.14,0,0,0,0,.057v.921S10485.683-682.074,10485.724-682.066Z" transform="translate(-10468.756 697.577)"/><path class="c" d="M10488.4-681.919h0l-.358.2a.584.584,0,0,0-.2.179.446.446,0,0,0-.081.228v.139a.145.145,0,0,0,.072.138.2.2,0,0,0,.188,0l.269-.146a.654.654,0,0,0,.188-.18.478.478,0,0,0,.081-.228.05.05,0,0,0,0-.041.059.059,0,0,0-.049,0,.136.136,0,0,0-.049.049.065.065,0,0,0,0,.057.386.386,0,0,1-.041.114l-.1.09-.269.147a.092.092,0,0,1-.091,0,.064.064,0,0,1-.039-.065v-.139a.183.183,0,0,1,.039-.114.329.329,0,0,1,.091-.09l.4-.22a.2.2,0,0,0,.1-.089.24.24,0,0,0,.041-.114v-.326a.044.044,0,0,0,0-.041h-.041l-.668.367a.136.136,0,0,0-.05.048.193.193,0,0,0,0,.058h0a.062.062,0,0,0,.05,0l.562-.31h0Z" transform="translate(-10472.924 697.577)"/><path class="c" d="M10489.438-681.226l-.268.146a.485.485,0,0,0-.188.18.385.385,0,0,0-.081.228v.13a.139.139,0,0,0,.081.147.208.208,0,0,0,.188,0l.26-.147a.55.55,0,0,0,.188-.179.407.407,0,0,0,.081-.236v-.522a.146.146,0,0,0-.072-.147.246.246,0,0,0-.188,0l-.268.147a.49.49,0,0,0-.188.179.39.39,0,0,0-.081.229h.048l.05-.041a.14.14,0,0,0,0-.057.218.218,0,0,1,.041-.114.2.2,0,0,1,.1-.09l.261-.147a.117.117,0,0,1,.1,0,.077.077,0,0,1,0,.074v.171A.205.205,0,0,0,10489.438-681.226Zm.123.318a.2.2,0,0,1-.041.114.27.27,0,0,1-.1.1l-.262.147h-.1c-.024,0,0,0,0-.073v-.131a.242.242,0,0,1,.04-.114.272.272,0,0,1,.1-.089l.262-.147h.1c.024,0,0,0,0,.065Z" transform="translate(-10475.16 697.577)"/><path class="c" d="M10490.024-680.33l.284.391h.065a.052.052,0,0,0,.049-.049.072.072,0,0,0,0-.057v-.049a2.691,2.691,0,0,0-.261-.374.071.071,0,0,1,0-.049.1.1,0,0,1,0-.049h0a.175.175,0,0,1,0-.114.225.225,0,0,1,.09-.09l.138-.073h.066l.26-.147a.081.081,0,0,0,.049,0,.082.082,0,0,0,0-.057h-.04l-.269.147h-.065l-.131.073a.572.572,0,0,0-.194.179.445.445,0,0,0-.082.229.226.226,0,0,0,0,.081A.111.111,0,0,0,10490.024-680.33Z" transform="translate(-10477.311 697.577)"/><path class="c" d="M10491.041-679.433v.065a.129.129,0,0,0,.073.146.2.2,0,0,0,.187,0l.262-.146a.439.439,0,0,0,.188-.18.376.376,0,0,0,.081-.228v-.065a.208.208,0,0,0,0-.1.131.131,0,0,0-.064-.049.441.441,0,0,0,.064-.122.637.637,0,0,0,0-.122v-.065a.145.145,0,0,0-.073-.147.227.227,0,0,0-.187,0l-.27.147a.52.52,0,0,0-.187.187.372.372,0,0,0-.081.228v.066a.272.272,0,0,0,0,.089.1.1,0,0,0,.065.057.769.769,0,0,0-.065.122A.3.3,0,0,0,10491.041-679.433Zm.138-.53a.226.226,0,0,1,0-.114.208.208,0,0,1,.1-.09l.261-.147a.119.119,0,0,1,.1,0v.139a.24.24,0,0,1-.041.114.312.312,0,0,1-.09.09l-.269.146a.114.114,0,0,1-.089,0,.07.07,0,0,1,0-.073Zm0,.456a.262.262,0,0,1,.041-.114.212.212,0,0,1,.1-.09l.26-.146a.149.149,0,0,1,.1,0,.075.075,0,0,1,0,.073v.065a.209.209,0,0,1-.04.114.238.238,0,0,1-.09.09l-.269.147a.121.121,0,0,1-.1,0v-.139Z" transform="translate(-10479.428 697.577)"/><path class="c" d="M10493.187-678.081l.261-.146a.483.483,0,0,0,.188-.18.391.391,0,0,0,.081-.228h-.049a.1.1,0,0,0,0,.041.113.113,0,0,0,0,.057.209.209,0,0,1-.04.114.245.245,0,0,1-.09.09l-.27.146a.111.111,0,0,1-.1,0v-.236a.326.326,0,0,0,.139,0l.262-.147a.484.484,0,0,0,.187-.179.392.392,0,0,0,.082-.228v-.179a.147.147,0,0,0-.074-.147.2.2,0,0,0-.187,0l-.27.147a.508.508,0,0,0-.187.187.379.379,0,0,0-.081.228v.522a.137.137,0,0,0,.081.146A.211.211,0,0,0,10493.187-678.081Zm-.123-.709a.2.2,0,0,1,.041-.114.284.284,0,0,1,.1-.1l.261-.146h.1c.025,0,0,0,0,.073v.131a.232.232,0,0,1-.04.114.308.308,0,0,1-.09.089l-.269.147h-.1c-.031,0,0,0,0-.065Z" transform="translate(-10483.439 697.577)"/><path class="c" d="M10494.227-677.527l.4-.22a.249.249,0,0,0,.049-.048.085.085,0,0,0,0-.058h0l-.138.074v-.66a.21.21,0,0,1,.041-.114.229.229,0,0,1,.089-.09h0a.081.081,0,0,0,.041-.049.072.072,0,0,0,0-.057h0m-.049,0h0a.5.5,0,0,0-.187.179.391.391,0,0,0-.082.229v.66l-.13.073a.081.081,0,0,0-.049,0,.113.113,0,0,0,0,.057h0Z" transform="translate(-10485.482 697.577)"/><path class="c" d="M10495.27-677.054l.269-.147a.489.489,0,0,0,.188-.179.39.39,0,0,0,.08-.228v-.53a.12.12,0,0,0-.072-.138.2.2,0,0,0-.188,0l-.26.146a.576.576,0,0,0-.188.18.39.39,0,0,0-.08.228v.53c0,.073,0,.122.072.138A.2.2,0,0,0,10495.27-677.054Zm.269-.277-.261.147h-.065l.474-.88v.513a.262.262,0,0,1-.041.114A.2.2,0,0,1,10495.538-677.331Zm-.252-.644.269-.146h.065l-.473.888v-.538a.24.24,0,0,1,.041-.114A.3.3,0,0,1,10495.286-677.975Z" transform="translate(-10487.389 697.577)"/><path class="c" d="M10496.164-676.508l.4-.22h.049a.113.113,0,0,0,0-.057h0a.047.047,0,0,0-.049,0l-.1-.008v-.652a.164.164,0,0,1,0-.114.229.229,0,0,1,.089-.09h0a.21.21,0,0,0,.049-.049v-.057h0m-.041,0h0a.7.7,0,0,0-.194.188.456.456,0,0,0-.082.228v.652l-.139.073-.041.049a.1.1,0,0,0,0,.057h0Z" transform="translate(-10489.277 697.577)"/><path class="c" d="M10498.011-675.481l.4-.22a.1.1,0,0,0,.041,0,.113.113,0,0,0,0-.057h-.049l-.131.073v-.652a.23.23,0,0,1,.041-.114.2.2,0,0,1,.1-.089h0l.049-.049a.14.14,0,0,0,0-.057h-.049a.515.515,0,0,0-.187.187.372.372,0,0,0-.081.228v.652l-.131.073a.144.144,0,0,0-.049.049.186.186,0,0,0,0,.057h0A.244.244,0,0,1,10498.011-675.481Z" transform="translate(-10492.982 697.577)"/><path class="c" d="M10499.092-675.4l.27-.146h.1c.033,0,0,0,0,.073v.1h0l-.569.309a.139.139,0,0,0-.05.049.14.14,0,0,0,0,.057h0m.05,0,.668-.366h.041a.113.113,0,0,0,0-.057v-.2a.133.133,0,0,0-.074-.147.207.207,0,0,0-.187,0l-.261.147a.112.112,0,0,1-.1,0v-.2a.243.243,0,0,1,.041-.114.2.2,0,0,1,.1-.089l.261-.147a.111.111,0,0,1,.1,0,.08.08,0,0,1,0,.073.039.039,0,0,0,0,.041h.041a.052.052,0,0,0,.049-.049.1.1,0,0,0,0-.057c0-.073,0-.122-.073-.138a.2.2,0,0,0-.188,0l-.269.146a.487.487,0,0,0-.187.18.386.386,0,0,0-.082.228v.13a.148.148,0,0,0,.073.147.2.2,0,0,0,.252.032Z" transform="translate(-10494.928 697.577)"/><path class="c" d="M10499.947-674.454l.4-.22h.049a.113.113,0,0,0,0-.057h-.041l-.138.073v-.66a.2.2,0,0,1,0-.106.34.34,0,0,1,.09-.1h0a.09.09,0,0,0,.04,0,.1.1,0,0,0,0-.057h-.049a.569.569,0,0,0-.187.179.412.412,0,0,0-.082.229v.66l-.13.073a.17.17,0,0,0-.073.106h0S10499.9-674.446,10499.947-674.454Z" transform="translate(-10496.785 697.577)"/><path class="c" d="M10500.617-674.161v.065a.149.149,0,0,0,.074.147.207.207,0,0,0,.188,0l.269-.147a.562.562,0,0,0,.188-.179.428.428,0,0,0,.081-.236h0a.055.055,0,0,0-.05,0l-.049.04a.278.278,0,0,0,0,.057.2.2,0,0,1-.04.115.269.269,0,0,1-.1.1l-.27.147a.09.09,0,0,1-.09,0s-.041,0,0-.073v-.066a.189.189,0,0,1,0-.114.333.333,0,0,1,.09-.089h.065a.052.052,0,0,0,.049-.049.1.1,0,0,0,0-.057h0m-.049,0h-.065a.119.119,0,0,1-.1,0,.082.082,0,0,1,0-.074v-.065a.221.221,0,0,1,.041-.114.24.24,0,0,1,.089-.089l.27-.147a.111.111,0,0,1,.1,0,.08.08,0,0,1,0,.073h0m.049,0h.049a.072.072,0,0,0,0-.057.139.139,0,0,0-.072-.147.246.246,0,0,0-.188,0l-.261.147a.494.494,0,0,0-.187.179.476.476,0,0,0-.09.229v.065a.185.185,0,0,0,0,.1.132.132,0,0,0,.065.048.529.529,0,0,0-.065.123.617.617,0,0,0,.008.073Z" transform="translate(-10498.58 697.577)"/><path class="c" d="M10499.039-672.939l.229-.13h-.081v-.383a.122.122,0,0,1,0-.065.1.1,0,0,1,.057-.049h0a.324.324,0,0,0-.113.106.282.282,0,0,0-.041.13v.383l-.082.049h0Z" transform="translate(-10494.834 697.577)"/><path class="c" d="M10499.759-672.89l.163-.081m.049,0h0v.073h0l-.325.188h0l.383-.212h0v-.123s0-.065-.041-.081a.131.131,0,0,0-.106,0l-.155.09h-.057a.049.049,0,0,1,0-.049v-.074a.106.106,0,0,1,0-.065.443.443,0,0,1,.057-.057l.155-.081a.047.047,0,0,1,.058,0h0a.085.085,0,0,0-.041-.082.151.151,0,0,0-.114,0l-.155.09a.306.306,0,0,0-.1.106.227.227,0,0,0-.05.13v.163a.146.146,0,0,0,.11.175.146.146,0,0,0,.175-.11Z" transform="translate(-10496.059 697.577)"/><path class="c" d="M10500.633-672.376l.155-.082a.049.049,0,0,1,.057,0h0v.074h0l-.334.187h0l.391-.212h0v-.065a.087.087,0,0,0,0-.082.158.158,0,0,0-.113,0l-.155.09h-.049a.049.049,0,0,1,0-.049v-.073a.106.106,0,0,1,0-.065l.057-.057.155-.082a.049.049,0,0,1,.057,0h0a.081.081,0,0,0-.041-.081.132.132,0,0,0-.113,0l-.155.089a.377.377,0,0,0-.114.106.325.325,0,0,0-.041.131v.081a.083.083,0,0,0,.049.082.107.107,0,0,0,.137.063A.109.109,0,0,0,10500.633-672.376Z" transform="translate(-10497.861 697.577)"/><path class="c" d="M10500.968-671.9h0s0,.074.04.082a.106.106,0,0,0,.106,0l.155-.082a.272.272,0,0,0,.113-.106.229.229,0,0,0,.05-.138h0a.122.122,0,0,1,0,.065.1.1,0,0,1-.05.049l-.154.09h-.058a.044.044,0,0,1,0-.041h0a.122.122,0,0,1,0-.065.2.2,0,0,1,.058-.057h-.049a.109.109,0,0,1,0-.066.2.2,0,0,1,.058-.057l.154-.081m.049.041h0a.074.074,0,0,0-.049-.082.122.122,0,0,0-.105,0l-.155.09a.324.324,0,0,0-.113.106.282.282,0,0,0-.041.13h0a.1.1,0,0,0,0,.057.072.072,0,0,0,.041,0,.17.17,0,0,0-.041.065h-.009Z" transform="translate(-10498.971 697.577)"/><path class="c" d="M10500.149-672.384h0a.1.1,0,0,0,0-.057l-.082-.612h0V-673l.074.611S10500.133-672.368,10500.149-672.384Z" transform="translate(-10496.783 697.577)"/><path class="i" d="M10497.929-679.36l-.049,2.575c0,.2.131.277.294.179l2.738-1.483a.657.657,0,0,0,.309-.521l.074-2.575c0-.188-.131-.269-.3-.18l-2.738,1.492A.653.653,0,0,0,10497.929-679.36Z" transform="translate(-10495.736 697.577)"/><g transform="translate(2.144 16.175)"><g class="x"><path class="y" d="M10497.929-679.36l-.049,2.575c0,.2.131.277.294.179l2.738-1.483a.657.657,0,0,0,.309-.521l.074-2.575c0-.188-.131-.269-.3-.18l-2.738,1.492A.653.653,0,0,0,10497.929-679.36Z" transform="translate(-10497.88 681.401)"/><path class="i" d="M10497.913-678.643l.008-.163,3.341-1.825v.155Z" transform="translate(-10497.88 681.401)"/><rect class="i" width="0.139" height="1.312" transform="translate(1.223 3.337) rotate(-178.87)"/><rect class="i" width="0.139" height="1.312" transform="translate(2.212 2.728) rotate(-178.854)"/><path class="i" d="M10497.939-677.331v-.155l3.349-1.834v.163Z" transform="translate(-10497.931 681.401)"/></g></g><path class="q" d="M10483.27-676.263,10494-682.2a.208.208,0,0,1,.334.2v.048a.816.816,0,0,1-.35.579l-10.773,5.941c-.188.1-.342,0-.334-.2v-.057A.757.757,0,0,1,10483.27-676.263Z" transform="translate(-10473.775 697.577)"/><path class="r" d="M10482.128-693.808h-.041l-.171.1h-.041a.186.186,0,0,0,0,.057.515.515,0,0,0,.041.171.225.225,0,0,0,.106.123.377.377,0,0,0,.194,0,.935.935,0,0,0,.277-.106,1.2,1.2,0,0,0,.253-.188,1.137,1.137,0,0,0,.2-.244,1.791,1.791,0,0,0,.123-.277,1.3,1.3,0,0,0,.057-.294,1.76,1.76,0,0,0,0-.2v-.2a.53.53,0,0,0-.049-.236.249.249,0,0,0-.114-.139.274.274,0,0,0-.187,0,.792.792,0,0,0-.252.09,1.2,1.2,0,0,0-.277.2,1.027,1.027,0,0,0-.2.237.829.829,0,0,0-.114.244.55.55,0,0,0-.049.212h0l.163-.089a.1.1,0,0,0,0-.041.072.072,0,0,0,0-.057.64.64,0,0,1,0-.106.905.905,0,0,1,.065-.122l.105-.115.14-.1a.3.3,0,0,1,.146-.049.127.127,0,0,1,.1,0,.141.141,0,0,1,.058.081.329.329,0,0,1,0,.131.814.814,0,0,1,0,.2,1.777,1.777,0,0,1,0,.2.459.459,0,0,1,0,.155.855.855,0,0,1-.065.155,1.477,1.477,0,0,1-.105.13.679.679,0,0,1-.147.106.388.388,0,0,1-.138.057h-.1a.1.1,0,0,1-.065-.049A.134.134,0,0,1,10482.128-693.808Z" transform="translate(-10461.559 697.577)"/><path class="r" d="M10484.116-694.33a1.153,1.153,0,0,0-.4.367.915.915,0,0,0-.147.456.455.455,0,0,0,.066.261.219.219,0,0,0,.2.073l-.3.75h0l.18-.1.064-.057v-.057l.285-.717.286-.147v.554h.04l.172-.089h.04a.186.186,0,0,0,0-.057v-1.549h0Zm.3.587-.3.163a.291.291,0,0,1-.187.057c-.049,0-.073-.049-.073-.139a.331.331,0,0,1,.081-.22.623.623,0,0,1,.188-.155l.3-.163Z" transform="translate(-10464.705 697.577)"/><path class="r" d="M10484.876-691.959a.071.071,0,0,0-.041,0,.061.061,0,0,0,0,.049v.171h.041l.921-.505a.1.1,0,0,0,.041-.041.1.1,0,0,0,0-.057v-1.548h-.009l-.9.5h-.041a.186.186,0,0,0,0,.057v.245h0m.041,0,.676-.375v.383l-.635.35a.093.093,0,0,0-.041,0,.1.1,0,0,0,0,.049v.171h.041l.627-.342v.391Z" transform="translate(-10467.232 697.577)"/><path class="r" d="M10486.816-692.847a1.422,1.422,0,0,0-.276.2,1.03,1.03,0,0,0-.187.236.9.9,0,0,0-.123.269,1.375,1.375,0,0,0-.057.3v.359a.928.928,0,0,0,0,.244.349.349,0,0,0,.114.147.275.275,0,0,0,.188,0,.686.686,0,0,0,.261-.1l.529-.285a.081.081,0,0,0,.041-.049.061.061,0,0,0,0-.049v-1.548a.073.073,0,0,0,0-.041h-.041Zm-.357.815a.459.459,0,0,1,0-.155.673.673,0,0,1,.072-.155.558.558,0,0,1,.106-.13.521.521,0,0,1,.155-.114l.284-.155v1.076l-.293.163a.485.485,0,0,1-.146.057.239.239,0,0,1-.106,0,.133.133,0,0,1-.057-.074.324.324,0,0,1,0-.13,1.148,1.148,0,0,1-.016-.35Z" transform="translate(-10470.037 697.577)"/><path class="r" d="M10487.824-690.647h.041a.138.138,0,0,0,0-.049v-1.548a.073.073,0,0,0,0-.041h-.041l-.171.09a.1.1,0,0,0-.041,0,.186.186,0,0,0,0,.057v1.548h0Z" transform="translate(-10472.039 697.577)"/><path class="r" d="M10488.144-691.462a.1.1,0,0,0,0,.041.082.082,0,0,0,0,.057v.171h.04l.375-.2v1.312h.041l.171-.1v-.041a.1.1,0,0,0,0-.049v-1.32l.384-.2h0a.113.113,0,0,0,0-.057v-.171h0Z" transform="translate(-10473.857 697.577)"/><path class="r" d="M10490.018-689.449h0l-.171.1a.1.1,0,0,0-.041.041.065.065,0,0,0,0,.057.627.627,0,0,0,0,.171.265.265,0,0,0,.114.114.336.336,0,0,0,.188,0,.7.7,0,0,0,.276-.106.976.976,0,0,0,.26-.187,1.417,1.417,0,0,0,.318-.522,1.583,1.583,0,0,0,.057-.293q0-.1,0-.2v-.2a.819.819,0,0,0-.049-.236.293.293,0,0,0-.113-.147.287.287,0,0,0-.187,0,.826.826,0,0,0-.261.09,1.233,1.233,0,0,0-.277.212,1.057,1.057,0,0,0-.2.228,1.133,1.133,0,0,0-.113.245,1.377,1.377,0,0,0-.049.22h.041l.171-.1h0v-.065a.277.277,0,0,1,0-.106.312.312,0,0,1,.064-.114.441.441,0,0,1,.1-.115.735.735,0,0,1,.146-.106.354.354,0,0,1,.139-.048.163.163,0,0,1,.1,0,.141.141,0,0,1,.064.073.324.324,0,0,1,0,.13v.4a1.135,1.135,0,0,1,0,.163.539.539,0,0,1-.064.146.544.544,0,0,1-.106.131.45.45,0,0,1-.138.106.509.509,0,0,1-.147.057.2.2,0,0,1-.1,0,.134.134,0,0,1-.065-.049A.163.163,0,0,1,10490.018-689.449Z" transform="translate(-10477.354 697.577)"/><path class="r" d="M10491.813-689.93l-.049.049v.074l-.546,1.8h0a.042.042,0,0,0,0,.04h.041l.154-.089.058-.049v-.057l.1-.31.66-.367.081.212h0a.092.092,0,0,0,.057,0l.155-.081.041-.041a.186.186,0,0,0,0-.057h0l-.489-1.23v-.041h-.049Zm-.13,1.117.244-.815.212.554Z" transform="translate(-10480.338 697.577)"/><path class="r" d="M10493.357-689.163a1.073,1.073,0,0,0-.4.358.924.924,0,0,0-.146.456.445.445,0,0,0,.065.261.219.219,0,0,0,.2.074l-.3.749h0l.179-.1a.124.124,0,0,0,.058-.057v-.057l.285-.709.277-.154v.554a.048.048,0,0,0,0,.04h.138l.171-.1h.041a.14.14,0,0,0,0-.057v-1.549h0Zm.3.578-.3.171a.452.452,0,0,1-.2.057c-.041,0-.065-.057-.065-.146a.33.33,0,0,1,.073-.22.608.608,0,0,1,.2-.147l.3-.171Z" transform="translate(-10483.268 697.577)"/><path class="r" d="M10494.967-688.381a1.141,1.141,0,0,0-.27.2,1.073,1.073,0,0,0-.2.237,1.66,1.66,0,0,0-.122.277,1.22,1.22,0,0,0-.089.285v.35a.907.907,0,0,0,.048.245.247.247,0,0,0,.114.147.252.252,0,0,0,.18,0,1.032,1.032,0,0,0,.269-.1l.529-.294v-.04a.082.082,0,0,0,0-.057v-1.549h0Zm-.359.815a1.513,1.513,0,0,1,0-.163.583.583,0,0,1,.066-.147.788.788,0,0,1,.105-.138.82.82,0,0,1,.163-.115l.277-.154v1.075l-.286.163a.5.5,0,0,1-.154.057.181.181,0,0,1-.1,0,.165.165,0,0,1-.065-.081.329.329,0,0,1,0-.131,1.364,1.364,0,0,1-.009-.326Z" transform="translate(-10486.287 697.577)"/></g><path class="p" d="M10503.894-674.568c.5-.53,3.513-1.084,5.835-2.445,1.386-.815,3.08-2.632,3.88-2.543.6.074,1.14,1.63.3,3.651a8.422,8.422,0,0,1-3.04,3.993c-2,1.63-.889,2.445-1.255,5.6a4.654,4.654,0,0,1-3.5,3.854l-7.032-2.754C10501.082-668.342,10502.427-673.045,10503.894-674.568Z" transform="translate(-10450.346 697.577)"/></g><g transform="translate(41.1 48.958)"><path class="i" d="M10573.909-661.1s-19.134.815-23.925,2.958c-2.192.97-4.425,5-3.594,18.645a280.97,280.97,0,0,1-.253,30.9c11.58,9.029,45.472,5.908,50.158-.22,0,0-1.369-12.012-1.81-18.23,0,0,3.5-5.753,3.26-9.648-.351-5.705-1.516-7.775-6.683-14.229a106.843,106.843,0,0,0-8.842-9.868Z" transform="translate(-10546.138 661.098)"/></g><g class="z" transform="translate(41.1 48.958)"><path class="c" d="M10573.909-661.1s-19.134.815-23.925,2.958c-2.192.97-4.425,5-3.594,18.645a280.97,280.97,0,0,1-.253,30.9c11.58,9.029,45.472,5.908,50.158-.22,0,0-1.369-12.012-1.81-18.23,0,0,3.5-5.753,3.26-9.648-.351-5.705-1.516-7.775-6.683-14.229a106.843,106.843,0,0,0-8.842-9.868Z" transform="translate(-10546.138 661.098)"/></g><path class="g" d="M10556.389-700.686c-6.177.611-7.782,10.675-6.38,16.379,2.7,11,10.088,12.371,10.325,17.057l11.131-6.373,8.679-4.963c3.26-1.866,7-1.858,9.054-5.549a10.991,10.991,0,0,0,.938-7.636,5.386,5.386,0,0,1,1.874,4.221,12.371,12.371,0,0,0-.97-13.479c-6.315-8.206-15.011-10.17-23.241-8.458C10562.989-708.477,10557.9-705.747,10556.389-700.686Z" transform="translate(-10504.226 710.056)"/><path class="p" d="M10563.776-662.85l-.5-10.178a4.45,4.45,0,0,1-5.452-1.157c-3.007-3.187-3.26-6.626-1.589-8.81,1.866-2.444,5.908-1.45,7.628,1.541,2.633.66,3.748-3.105,1.784-7,0,0,5.428-3.08,4.475-8.76,4.522,2.918,15.133,4.384,17.716-.326,1.451,2.233,3.619,5.428,3.26,16.812-.285,9.673-3.146,12.533-5.81,14.13-1.631,1-4,1.272-6.829,1.247l.113,2.828h0c.041,1.41.375,1.467,1.63,1.548l1.833.123s4.523,5.419-4.254,6.462c-13.111,1.548-20.144-5.02-20.144-5.02s.814-.13,3.063-.44S10563.564-660.951,10563.776-662.85Z" transform="translate(-10507.489 710.056)"/><path class="c" d="M10584.482-675.416a1.328,1.328,0,0,0,1.337,1.32,1.327,1.327,0,0,0,1.319-1.336,1.328,1.328,0,0,0-1.336-1.32h-.009A1.329,1.329,0,0,0,10584.482-675.416Z" transform="translate(-10532.825 710.056)"/><path class="u" d="M10566.452-675.611l4.71,1.58a2.444,2.444,0,0,1-3.039,1.648l-.057-.018A2.59,2.59,0,0,1,10566.452-675.611Z" transform="translate(-10498.571 710.056)"/><path class="t" d="M10568.437-674.511a2.72,2.72,0,0,1,2.688,2.167,2.382,2.382,0,0,1-1.369,0,2.541,2.541,0,0,1-1.686-2.086A2.549,2.549,0,0,1,10568.437-674.511Z" transform="translate(-10500.276 710.056)"/><path class="g" d="M10560.556-687.143l-3.472-1.629a1.841,1.841,0,0,1,2.408-.994l.037.016A2.014,2.014,0,0,1,10560.556-687.143Z" transform="translate(-10478.794 710.056)"/><path class="g" d="M10570.764-686.955l3.415-1.809a1.851,1.851,0,0,0-2.473-.856l-.078.041A2.029,2.029,0,0,0,10570.764-686.955Z" transform="translate(-10505.86 710.056)"/><path class="u" d="M10560.213-686.727l.375,10.04,5.183-2.054Z" transform="translate(-10487.016 710.056)"/><path class="g" d="M10558.227-684.885a1.629,1.629,0,0,0,1.434,1.752,1.532,1.532,0,0,0,1.721-1.317c0-.02.006-.04.008-.06a1.632,1.632,0,0,0-1.436-1.752,1.524,1.524,0,0,0-1.719,1.3C10558.231-684.937,10558.229-684.911,10558.227-684.885Z" transform="translate(-10480.619 710.056)"/><path class="g" d="M10569.75-684.779a1.63,1.63,0,0,0,1.435,1.752,1.533,1.533,0,0,0,1.721-1.317c0-.02,0-.04.007-.06a1.629,1.629,0,0,0-1.475-1.752,1.524,1.524,0,0,0-1.685,1.345Z" transform="translate(-10503.755 710.056)"/><path class="u" d="M10580.9-665.384c-6.039-.7-11.792-2.771-13.1-5.55a5.468,5.468,0,0,0,2.362,4.49c3.407,2.07,10.822,3.195,10.822,3.195Z" transform="translate(-10509.896 710.056)"/><g transform="translate(0 51.387)"><path class="i" d="M10636.229-545.649l-37.1-17.871-8.572,60.687,40.379,20.308Z" transform="translate(-10588.377 658.669)"/><g class="aa" transform="translate(2.176 95.149)"><path class="c" d="M10636.229-545.649l-37.1-17.871-8.572,60.687,40.379,20.308Z" transform="translate(-10590.553 563.52)"/></g><path class="i" d="M10582.6-482.526l13.25-8.54-1.051-58.6-6.9,4.018Z" transform="translate(-10540.045 658.669)"/><path class="i" d="M10595.85-491.066l-7.317-2.371-5.933,10.912Z" transform="translate(-10540.045 658.669)"/><g class="ab" transform="translate(42.555 165.231)"><path class="c" d="M10595.85-491.066l-7.317-2.371-5.933,10.912Z" transform="translate(-10582.6 493.438)"/></g><path class="i" d="M10594.823-493.438l1.026-54.941-1.662,2.73-5.3,63.123Z" transform="translate(-10546.336 658.669)"/><g class="j" transform="translate(42.555 110.29)"><path class="c" d="M10594.823-493.438l1.026-54.941-1.662,2.73-5.3,63.123Z" transform="translate(-10588.891 548.379)"/></g><path class="i" d="M10583.65-563.52l5.158-.986-.929-3.74,39.776,18.58-5.24,1.288-1.662,2.73Z" transform="translate(-10572.902 658.669)"/><g class="ab" transform="translate(10.748 90.422)"><path class="c" d="M10583.65-563.52l5.158-.986-.929-3.74,39.776,18.58-5.24,1.288-1.662,2.73Z" transform="translate(-10583.65 568.247)"/></g><path class="i" d="M10623.206-568.247l-.709,4.05,1.638-.31Z" transform="translate(-10608.229 658.669)"/><g class="aa" transform="translate(14.269 90.422)"><path class="c" d="M10623.206-568.247l-.709,4.05,1.638-.31Z" transform="translate(-10622.497 568.247)"/></g><path class="g" d="M10604.45-547.279c0,.562-.343.815-.815.57a1.946,1.946,0,0,1-.994-1.458c-.041-.563.342-.815.815-.571A1.952,1.952,0,0,1,10604.45-547.279Z" transform="translate(-10568.684 658.669)"/><path class="g" d="M10615.726-552.111c.041.562-.334.814-.814.578a1.954,1.954,0,0,1-.994-1.467c-.04-.562.334-.815.814-.57A1.952,1.952,0,0,1,10615.726-552.111Z" transform="translate(-10591.238 658.669)"/><path class="g" d="M10600.381-552.983c.041.562-.334.814-.814.57a1.968,1.968,0,0,1-.994-1.467c-.041-.562.342-.815.814-.57A1.929,1.929,0,0,1,10600.381-552.983Z" transform="translate(-10560.549 658.669)"/><path class="g" d="M10610.51-557.36c.04.563-.343.815-.815.579a1.945,1.945,0,0,1-.985-1.467c-.041-.562.334-.815.814-.57A1.949,1.949,0,0,1,10610.51-557.36Z" transform="translate(-10580.814 658.669)"/><path class="i" d="M10588.865-549.667l-5.24,1.288-1.026,54.941,7.317,2.371Z" transform="translate(-10534.111 658.669)"/><g class="aa" transform="translate(48.487 109.002)"><path class="c" d="M10588.865-549.667l-5.24,1.288-1.026,54.941,7.317,2.371Z" transform="translate(-10582.599 549.667)"/></g><path class="i" d="M10627.656-564.506l-.439,3.382-4.719-2.4Z" transform="translate(-10611.75 658.669)"/><g class="j" transform="translate(10.748 94.163)"><path class="c" d="M10627.656-564.506l-.439,3.382-4.719-2.4Z" transform="translate(-10622.498 564.506)"/></g><path class="r" d="M10612.643-557.449a.325.325,0,0,1-.35-.2c-1.117-2.616-3.611-8.825-2.6-9.779a.724.724,0,0,1,.863-.073.335.335,0,0,1,.111.459.334.334,0,0,1-.388.144.429.429,0,0,0-.147-.049c-.4.448.864,4.612,2.763,9.086a.326.326,0,0,1-.167.43l0,0Z" transform="translate(-10583.975 658.669)"/><path class="i" d="M10606.045-547.833l-3.513,42.2-10.7,4.123,8.157-45.317-.334-2.306Z" transform="translate(-10559.473 658.669)"/><path class="w" d="M10606.045-547.833l-3.513,42.2-10.7,4.123,8.157-45.317-.334-2.306Z" transform="translate(-10559.473 658.669)"/><path class="ac" d="M10606.046-505.629l-6.413-2.119-4.287,6.242Z" transform="translate(-10562.986 658.669)"/><path class="w" d="M10602.176-507.748l3.87-39.075-8.157,45.317Z" transform="translate(-10565.529 658.669)"/><path class="i" d="M10638.405-546.823l-31.284-14.448-9.232,43.94,32.359,15.826Z" transform="translate(-10597.889 658.669)"/><path class="i" d="M10629.172-547.833l-33.33-14.872,1.026,1.866-5.036-.432,31.284,14.448-.334-2.306Z" transform="translate(-10582.6 658.669)"/><path class="ac" d="M10629.172-547.833l-33.33-14.872,1.026,1.866-5.036-.432,31.284,14.448-.334-2.306Z" transform="translate(-10582.6 658.669)"/><path class="i" d="M10624.682-562.705l-.546,1.728,1.572.138Z" transform="translate(-10611.439 658.669)"/><path class="i" d="M10629.173-560.839l-.5,1.589-4.539-2.021Z" transform="translate(-10614.904 658.669)"/><path class="ad" d="M10629.173-560.839l-.5,1.589-4.539-2.021Z" transform="translate(-10614.904 658.669)"/><path class="g" d="M10607.486-544.427c-.18.538-.628.619-1,.2a1.95,1.95,0,0,1-.334-1.736.54.54,0,0,1,1-.2A1.951,1.951,0,0,1,10607.486-544.427Z" transform="translate(-10575.232 658.669)"/><path class="g" d="M10622.338-552.6c-.187.537-.636.619-1,.195a1.932,1.932,0,0,1-.335-1.727c.18-.538.628-.628,1-.2A1.941,1.941,0,0,1,10622.338-552.6Z" transform="translate(-10604.932 658.669)"/><path class="r" d="M10615.671-553.073a.3.3,0,0,1-.146,0,.342.342,0,0,1-.22-.416c2.4-7.57,4.376-12.851,6.186-14.049a.342.342,0,0,1,.464.1.333.333,0,0,1-.1.456c-1.752,1.149-3.879,7.261-5.917,13.7A.324.324,0,0,1,10615.671-553.073Z" transform="translate(-10598.893 658.669)"/><path class="u" d="M10605.417-560.823c1.923-.3,3.756-2.551,4.074-3.333a6.893,6.893,0,0,0-.692-4.417c-.693-.815-3.847-4.213-4.89-3.944s-2.266,5.8-1.385,7.921A11.244,11.244,0,0,0,10605.417-560.823Z" transform="translate(-10573.432 658.669)"/><path class="p" d="M10616.232-658.669c-4.685.66-12.223,2.721-14.513,11.058-2.4,8.605-6.438,22.149-8.214,31.048s-3.871,27.577-4.482,33.363a52.268,52.268,0,0,0-.538,7.04,57.545,57.545,0,0,0,.88,7.954,3.744,3.744,0,0,0,2.029,2.926,5.349,5.349,0,0,1,.913.4c.521.358.732,1.018,1.157,1.491a2.971,2.971,0,0,0,1.956.856,8.025,8.025,0,0,1,.978.081c1.189.237,2.012,1.337,3.137,1.785a3.554,3.554,0,0,0,2.641.187,7.984,7.984,0,0,0,1.3-.709c.228-.154.814-.709,1.035-.872-1.63.066-2.73-1.32-3.261-2.6a11.752,11.752,0,0,1-.9-4.735,2.558,2.558,0,0,1,.212-1.108c.089-.163.235-.334.423-.318s.343.212.44.4a11.329,11.329,0,0,0,2.444,3.488,2.546,2.546,0,0,0,1.558.742,1.15,1.15,0,0,0,1.214-1.011,1.7,1.7,0,0,0-.18-.676,30.845,30.845,0,0,1-1.63-5.387,20.455,20.455,0,0,0-1.492-4.987c-.813-1.63-2.795-3.928-2.484-5.786.538-3.121,7.546-27.324,7.546-27.324s8.068-21.09,10.022-26.68C10620.764-644.946,10621.106-654.326,10616.232-658.669Z" transform="translate(-10570.158 658.669)"/><path class="ae" d="M10605.157-567.505a6.514,6.514,0,0,0,.089,2.037,2.013,2.013,0,0,1,1.183.22,2.124,2.124,0,0,0-1.3,0l-1.076,1.084.863-1.3S10604.685-567.13,10605.157-567.505Z" transform="translate(-10572.08 658.669)"/><path class="r" d="M10599.521-544.851a.4.4,0,0,1-.138,0,.335.335,0,0,1-.229-.407c3.374-12.558,3.807-18.336,1.451-19.892a.318.318,0,0,1-.122-.4.334.334,0,0,1,.375-.2c3.259.709,6.03,11.368,6.34,12.582a.343.343,0,0,1-.236.4.359.359,0,0,1-.407-.237c-.619-2.444-2.3-7.913-4.132-10.594.766,2.608.269,7.758-2.632,18.515A.341.341,0,0,1,10599.521-544.851Z" transform="translate(-10567.943 658.669)"/></g></g></g></g></svg>