<svg xmlns="http://www.w3.org/2000/svg" width="401.99" height="438.461" viewBox="0 0 401.99 438.461"><defs><style>.a{fill:#f0f0f0;}.b{fill:#e0e0e0;}.c{fill:#ebebeb;}.d{fill:#263238;}.e{fill:#d9a171;}.f{fill:#6595bf;}.g{fill:#455a64;}.h{fill:#a66d58;}.i{fill:#636363;}.j{fill:#ffbe9d;}.k{fill:#fafafa;}.l{fill:#eb996e;}.m,.n{opacity:0.2;}.o{fill:#ececec;}.p{opacity:0.1;}.q{fill:#fff;}.r{fill:#e1e1e1;}.s{fill:#aed3f2;}.t{opacity:0.3;}.u{fill:#344154;}.v{fill:#e6e6e6;}</style></defs><g transform="translate(-200.736 -5370.781)"><g transform="translate(143.643 5352.888)"><g transform="translate(119.361 41.112)"><g transform="translate(9.845)"><path class="a" d="M2.746,0H61.285a2.746,2.746,0,0,1,2.746,2.746V61.285a2.747,2.747,0,0,1-2.747,2.747H2.746A2.746,2.746,0,0,1,0,61.286V2.746A2.746,2.746,0,0,1,2.746,0Z"/><path class="b" d="M177.84,56.488h-.078c-2.169,0-3.928.139-3.928.309a11.028,11.028,0,0,0,3.519.306c-.2.207-.484.511-.847.91-.793.889-1.838,2.061-3.113,3.492L163.146,73.3l-4.326-2.892-2.24-1.491-.228-.151-.177.207c-4.576,5.35-8.623,10.128-11.51,13.582l-3.384,4.092a12.327,12.327,0,0,0-1.173,1.542,12.131,12.131,0,0,0,1.345-1.395l3.528-3.969c2.932-3.338,6.968-7.992,11.483-13.245l2.012,1.343,4.556,3.029.225.15.174-.206,10.262-12.135,2.975-3.611c.382-.474.653-.818.822-1.047h.043a11.133,11.133,0,0,0,.307,3.543c.169,0,.306-1.716.309-3.851v-.309Z" transform="translate(-127.112 -40.687)"/></g><g transform="translate(191.475 3.777)"><path class="a" d="M335.53,83.542h31.325a31.324,31.324,0,1,1-32.048-31.315Z" transform="translate(-304.207 -44.582)"/><path class="c" d="M342.923,76.113l-.707-31.325a33.043,33.043,0,0,1,22.553,8.875,32.2,32.2,0,0,1,9.467,21.963Z" transform="translate(-303.156 -44.788)"/></g><g transform="translate(235.501 169.894)"><path class="c" d="M347.1,208.22c-.18,5.748.151,23.3.151,23.3l5.178-5.178H381.32a1.836,1.836,0,0,0,1.836-1.836V208.272a1.836,1.836,0,0,0-1.836-1.835H348.938A1.837,1.837,0,0,0,347.1,208.22Z" transform="translate(-347.049 -206.437)"/><g transform="translate(12.114 8.628)"><path class="b" d="M361.556,216.193a1.36,1.36,0,1,1-1.359-1.36A1.36,1.36,0,0,1,361.556,216.193Z" transform="translate(-358.837 -214.833)"/><path class="b" d="M366.012,216.193a1.359,1.359,0,1,1-1.359-1.36A1.36,1.36,0,0,1,366.012,216.193Z" transform="translate(-358.714 -214.833)"/><path class="b" d="M370.469,216.193a1.36,1.36,0,1,1-1.36-1.36A1.36,1.36,0,0,1,370.469,216.193Z" transform="translate(-358.591 -214.833)"/></g></g></g><g transform="translate(177.009 73.129)"><g transform="translate(161.016 51.568)"><path class="d" d="M380.695,195.575a3.629,3.629,0,0,0,.617-.123,2.032,2.032,0,0,0,1.258-1.236,3.613,3.613,0,0,0,.114-1.338q-.006-.76-.013-1.656c-.006-1.2-.015-2.581-.024-4.134-.021-6.239-.049-15.234-.086-26.341-.009-5.562-.02-11.652-.032-18.189q-.006-4.9-.013-10.134,0-2.613-.006-5.3c-.013-.876.027-1.84-.032-2.662a1.809,1.809,0,0,0-1.664-1.492l-47.82.014a1.8,1.8,0,0,0-1.791,1.735q0,1.578,0,3.146,0,3.143,0,6.243,0,6.2,0,12.206c-.005,8-.01,15.72-.015,23.074s-.017,14.34-.025,20.88q0,1.225,0,2.431a9.355,9.355,0,0,0,.031,1.158,1.838,1.838,0,0,0,1.377,1.453,5.3,5.3,0,0,0,1.112.054l2.3,0,8.728.017,26.34.085,7.161.05,1.862.027c.42.008.635.027.635.027s-.215.019-.635.028l-1.862.027-7.161.049c-6.239.022-15.233.049-26.34.085l-8.728.017-2.3,0a5.611,5.611,0,0,1-1.211-.063,2.269,2.269,0,0,1-1.7-1.788,9.3,9.3,0,0,1-.042-1.236q0-1.205,0-2.431c-.007-6.54-.016-13.527-.025-20.88s-.01-15.072-.015-23.074q0-6,0-12.206,0-3.1,0-6.243,0-1.575,0-3.161a2.332,2.332,0,0,1,2.326-2.255l47.853.029a2.3,2.3,0,0,1,2.113,1.9c.07.987.017,1.83.032,2.744q0,2.687-.005,5.3-.008,5.224-.013,10.134c-.012,6.537-.023,12.628-.033,18.189-.036,11.108-.065,20.1-.085,26.341-.009,1.553-.017,2.934-.025,4.134q-.006.9-.012,1.656a3.666,3.666,0,0,1-.147,1.376,2.071,2.071,0,0,1-1.342,1.251A1.6,1.6,0,0,1,380.695,195.575Z" transform="translate(-330.664 -122.448)"/><g transform="translate(12.507 14.236)"><path class="d" d="M359.887,136.717c-6.99-1.551-14.66,2.246-16.624,9.448-1.888,6.918,2.678,14.99,9.619,16.872a14.349,14.349,0,0,0,16.786-8.992c2.493-7.39-2.248-15.349-9.394-17.705-.829-.273-1.159,1-.358,1.3,6.092,2.232,10.47,8.809,8.649,15.4-1.732,6.263-9.074,10.459-15.35,8.791-6.03-1.6-9.922-8.075-9.156-14.106.938-7.386,8.76-11.811,15.718-10.6.257.044.372-.339.11-.4Z" transform="translate(-342.835 -136.302)"/></g><g transform="translate(22.324 13.557)"><path class="e" d="M352.675,162.846a14.14,14.14,0,0,0,17.5-9.279c2.181-7.51-2.676-15.621-9.988-17.857-1.687-.515-2.29,1.975-.715,2.592,6.195,2.423,10.3,9.136,7.849,15.724-2.177,5.859-8.6,8.686-14.539,8.011-.476-.054-.535.678-.109.809Z" transform="translate(-352.388 -135.64)"/></g><g transform="translate(12.059 52.78)"><path class="f" d="M370.809,174.076c0,.148-6.36.268-14.2.268s-14.206-.12-14.206-.268,6.359-.267,14.206-.267S370.809,173.929,370.809,174.076Z" transform="translate(-342.399 -173.809)"/></g><g transform="translate(12.059 57.089)"><path class="f" d="M370.809,178.27c0,.148-6.36.267-14.2.267s-14.206-.119-14.206-.267,6.359-.268,14.206-.268S370.809,178.122,370.809,178.27Z" transform="translate(-342.399 -178.002)"/></g></g><g transform="translate(7.833)"><path class="b" d="M181.6,79.392v95.017a3.822,3.822,0,0,0,3.822,3.822H311.987a3.821,3.821,0,0,0,3.821-3.822V76.089a3.82,3.82,0,0,0-3.921-3.82l-126.563,3.3A3.823,3.823,0,0,0,181.6,79.392Z" transform="translate(-181.601 -72.268)"/><g transform="translate(7.673 20.002)"><path class="g" d="M304.3,95.481c-.048.1-1.612-.808-4.683-1.78a30.114,30.114,0,0,0-13.428-1,29.341,29.341,0,0,0-8.856,2.846,41.7,41.7,0,0,0-8.708,6.263c-2.856,2.52-5.69,5.381-8.96,8.026a30.894,30.894,0,0,1-11.436,6.189,17.289,17.289,0,0,1-6.678.4,21.618,21.618,0,0,1-6.186-1.909A108.114,108.114,0,0,1,225,108.359a32.341,32.341,0,0,0-9.748-4.371,28.962,28.962,0,0,0-9.272-.711,29.88,29.88,0,0,0-12.8,4.167c-2.746,1.679-4.042,2.941-4.115,2.853a6.372,6.372,0,0,1,.93-.915,22.271,22.271,0,0,1,2.979-2.266,29.211,29.211,0,0,1,22.47-3.931,32.842,32.842,0,0,1,10.033,4.389,111.026,111.026,0,0,0,10.295,6.061,17.639,17.639,0,0,0,12.211,1.429,30.22,30.22,0,0,0,11.07-5.986c3.218-2.586,6.065-5.428,8.962-7.953a41.931,41.931,0,0,1,8.944-6.312,29.65,29.65,0,0,1,22.778-1.481,23.774,23.774,0,0,1,3.439,1.48A6.453,6.453,0,0,1,304.3,95.481Z" transform="translate(-189.068 -91.732)"/></g><g transform="translate(13.87 26.409)"><rect class="h" width="12.379" height="33.481" transform="translate(16.02 19.662)"/><rect class="h" width="12.379" height="33.481" transform="translate(68.551 19.662)"/><rect class="h" width="12.379" height="53.143" transform="translate(86.061)"/><rect class="h" width="12.379" height="11.268" transform="translate(0 42.603)"/><rect class="h" width="12.38" height="18.362" transform="translate(33.53 34.781)"/><rect class="h" width="12.379" height="22.577" transform="translate(51.041 30.566)"/></g><g transform="translate(13.987 83.001)"><g transform="translate(15.405)"><path class="d" d="M223.579,153.533c0,.274-2.995.5-6.688.5s-6.688-.223-6.688-.5,2.994-.5,6.688-.5S223.579,153.258,223.579,153.533Z" transform="translate(-210.203 -153.036)"/></g><path class="d" d="M208.589,153.533c0,.274-3,.5-6.688.5s-6.689-.223-6.689-.5,2.995-.5,6.689-.5S208.589,153.258,208.589,153.533Z" transform="translate(-195.212 -153.036)"/><g transform="translate(85.642)"><path class="d" d="M293.672,153.533c0,.274-3.385.5-7.56.5s-7.56-.223-7.56-.5,3.384-.5,7.56-.5S293.672,153.258,293.672,153.533Z" transform="translate(-278.551 -153.036)"/></g><g transform="translate(67.251 0)"><ellipse class="d" cx="7.561" cy="0.497" rx="7.561" ry="0.497"/></g><g transform="translate(49.927)"><path class="d" d="M257.173,153.533c0,.275-3,.5-6.689.5s-6.688-.223-6.688-.5,2.993-.5,6.688-.5S257.173,153.259,257.173,153.533Z" transform="translate(-243.796 -153.036)"/></g><g transform="translate(31.834)"><path class="d" d="M239.568,153.533c0,.275-3,.5-6.689.5s-6.689-.223-6.689-.5,3-.5,6.689-.5S239.568,153.259,239.568,153.533Z" transform="translate(-226.19 -153.036)"/></g></g></g><g transform="translate(0 124.976)"><path class="d" d="M281.365,194.137a1.23,1.23,0,0,1,.213,0,1.69,1.69,0,0,1,.606.177,1.769,1.769,0,0,1,.741.729,2.741,2.741,0,0,1,.212,1.418c.012,2.182.03,5.37.051,9.475.012,4.121.028,9.156.046,15q.009,4.389.021,9.372,0,1.244.005,2.525,0,.64,0,1.288a2.421,2.421,0,0,1-.248,1.356,1.908,1.908,0,0,1-1.121.886,6.071,6.071,0,0,1-1.385.078l-2.73,0,.192-.192c.005,2.964.009,6.164.015,9.479v.546l-.363-.408-8.394-9.469.167.075-86.551.045H176.8c-.345,0-.643.01-1.027-.009a1.983,1.983,0,0,1-1.7-1.369,2.048,2.048,0,0,1-.094-.567v-6.448q0-7.886,0-15.528t.007-14.986l0-1.842a1.969,1.969,0,0,1,1.078-1.676,2.022,2.022,0,0,1,.992-.214h2.706l7.1.005,49.7.058,33.507.085,9.109.05,2.37.027c.533.008.807.027.807.027s-.273.018-.807.028l-2.37.027-9.109.049-33.507.085-49.7.058-7.1,0-1.8,0h-.9a1.521,1.521,0,0,0-.762.16,1.458,1.458,0,0,0-.8,1.244l0,1.821q0,7.345.006,14.986t.005,15.528v5.946a2.927,2.927,0,0,0,.07.906,1.454,1.454,0,0,0,1.241,1c.283.013.654,0,.976.006h6.045l86.551.045h.1l.067.076,8.37,9.489-.362.137c.005-3.315.01-6.515.014-9.479v-.192h.191l2.73,0a5.973,5.973,0,0,0,1.282-.059,1.54,1.54,0,0,0,.906-.711,2.069,2.069,0,0,0,.206-1.176q0-.647,0-1.288,0-1.281.005-2.525.011-4.977.021-9.372c.018-5.847.033-10.883.046-15,.022-4.1.039-7.293.05-9.475a2.669,2.669,0,0,0-.176-1.379,1.721,1.721,0,0,0-.693-.718A2.066,2.066,0,0,0,281.365,194.137Z" transform="translate(-173.979 -193.883)"/><path class="f" d="M179.591,228.508c.864-3.011,1.866-6.08,3.874-8.482s5.262-4.016,8.3-3.236c4.792,1.233,7.11,7.617,12.014,8.274,2.711.362,5.352-1.261,7.1-3.366s2.824-4.668,4.161-7.054c2.008-3.58,4.759-6.9,8.449-8.7s8.431-1.807,11.657.732c5.53,4.354,4.759,13.968,10.653,17.816a8.531,8.531,0,0,0,9.5-.283c2.612-1.936,3.956-5.287,6.705-7.024,3.184-2.011,7.61-1.223,10.491,1.2s4.392,6.158,4.94,9.884" transform="translate(-173.824 -193.584)"/><g transform="translate(7.751 15.515)"><path class="d" d="M275.389,211.106a.92.92,0,0,1-.242-.094l-.681-.319a18.057,18.057,0,0,0-2.729-.92,21.87,21.87,0,0,0-10.482.306,40.046,40.046,0,0,0-6.854,2.549c-2.393,1.112-4.874,2.461-7.517,3.836a59.928,59.928,0,0,1-8.563,3.8,25,25,0,0,1-9.964,1.389,33.033,33.033,0,0,1-9.762-2.465c-3.024-1.211-5.812-2.647-8.469-3.981-5.282-2.709-10.228-4.877-14.671-5.541a20.975,20.975,0,0,0-10.445.763,20.062,20.062,0,0,0-3.488,1.715.961.961,0,0,1,.2-.163l.618-.437a14.389,14.389,0,0,1,2.6-1.31,20.724,20.724,0,0,1,10.575-.94c4.518.626,9.534,2.787,14.834,5.472,2.666,1.324,5.445,2.745,8.442,3.936a32.74,32.74,0,0,0,9.607,2.419,24.6,24.6,0,0,0,9.758-1.353,60.49,60.49,0,0,0,8.5-3.738c2.642-1.36,5.14-2.7,7.557-3.8a39.8,39.8,0,0,1,6.949-2.514,21.565,21.565,0,0,1,10.624-.14A12.02,12.02,0,0,1,275.389,211.106Z" transform="translate(-181.522 -208.98)"/></g><g transform="translate(14.878 10.01)"><path class="g" d="M228.3,204.7a1.081,1.081,0,1,1-1.081-1.08A1.081,1.081,0,0,1,228.3,204.7Z" transform="translate(-187.415 -203.623)"/><path class="g" d="M190.618,209.149a1.081,1.081,0,1,1-1.08-1.081A1.08,1.08,0,0,1,190.618,209.149Z" transform="translate(-188.457 -203.5)"/><path class="g" d="M265.593,209.155a1.08,1.08,0,1,1-1.08-1.081A1.08,1.08,0,0,1,265.593,209.155Z" transform="translate(-186.385 -203.5)"/></g></g></g><g transform="translate(196.201 205.672)"><path class="g" d="M338.6,357.7h9.634c4.487,0,14.117-11.813-38.133-10.463-34.345.887-36.6,5.955-34.861,8.917a4.268,4.268,0,0,0,4.019,2.006c.837-.06,1.947-.073,3.263-.067l-.822,3.623h0l-19.12,84.49,3.333-.289,14.116-46.525,26.938-1.033,1.54,49.449h4.226l1.018-49.708.129-.005,2.847-.11,23.879-.916,14.145,50.739h4.054ZM282.041,392.78l9.424-31.066,1.068-3.518h0c3.952,0,8.565-.091,13.184-.091l1.056,33.9Zm35.517-1.113h0l-1.045.032-2.628.083.7-34.084h15.052l9.284,33.3Z" transform="translate(-190.722 -197.214)"/><g transform="translate(48.62)"><g transform="translate(0 233.736)"><path class="i" d="M253.169,439.749V428.828l19.57-.132.162,16.332-1.214.09c-5.4.348-27.472,1.025-31.088-.1C236.566,443.775,253.169,439.749,253.169,439.749Z" transform="translate(-239.967 -428.696)"/><g transform="translate(0.169 14.994)"><path class="d" d="M240.132,443.62c0,.184,7.32.333,16.349.333s16.35-.149,16.35-.333-7.319-.333-16.35-.333S240.132,443.437,240.132,443.62Z" transform="translate(-240.132 -443.287)"/></g><g transform="translate(11.367 11.277)"><path class="d" d="M252.519,441.675c.16-.085.023-.662-.4-1.23s-.93-.875-1.058-.746.138.612.523,1.14S252.355,441.762,252.519,441.675Z" transform="translate(-251.029 -439.67)"/></g><g transform="translate(10.228 11.612)"><path class="d" d="M251.3,442.384c.17-.063.082-.71-.3-1.39s-.892-1.092-1.035-.979.1.671.455,1.305S251.127,442.452,251.3,442.384Z" transform="translate(-249.92 -439.996)"/></g><g transform="translate(26.953 11.42)"><path class="d" d="M266.214,443.643c.077.053.368-.233.791-.714a12.8,12.8,0,0,1,1.716-1.719,4.5,4.5,0,0,1,2.118-.925c.6-.08.986.012,1.018-.084.034-.071-.329-.344-1.034-.386a3.9,3.9,0,0,0-2.508.867,7.141,7.141,0,0,0-1.689,1.97C266.291,443.214,266.14,443.592,266.214,443.643Z" transform="translate(-266.195 -439.809)"/></g><g transform="translate(12.782 11.148)"><path class="d" d="M252.421,439.625c-.1.154.239.533.8.738s1.061.135,1.086-.045-.367-.4-.857-.579S252.518,439.467,252.421,439.625Z" transform="translate(-252.405 -439.544)"/></g><g transform="translate(13.105 9.857)"><path class="d" d="M252.72,438.6c-.018.182.5.34,1.164.347s1.186-.133,1.174-.315-.534-.339-1.165-.348S252.738,438.422,252.72,438.6Z" transform="translate(-252.72 -438.288)"/></g></g><g transform="translate(41.311 233.736)"><path class="i" d="M293.369,439.749V428.828l19.57-.132.161,16.332-1.213.09c-5.4.348-27.472,1.025-31.089-.1C276.766,443.775,293.369,439.749,293.369,439.749Z" transform="translate(-280.167 -428.696)"/><g transform="translate(0.169 14.994)"><path class="d" d="M280.332,443.62c0,.184,7.321.333,16.349.333s16.35-.149,16.35-.333-7.319-.333-16.35-.333S280.332,443.437,280.332,443.62Z" transform="translate(-280.332 -443.287)"/></g><g transform="translate(11.367 11.277)"><path class="d" d="M292.719,441.675c.16-.085.023-.662-.4-1.23s-.931-.875-1.058-.746.137.612.523,1.14S292.556,441.762,292.719,441.675Z" transform="translate(-291.229 -439.67)"/></g><g transform="translate(10.229 11.612)"><path class="d" d="M291.5,442.384c.17-.063.082-.71-.3-1.39s-.892-1.092-1.034-.979.1.671.454,1.305S291.327,442.452,291.5,442.384Z" transform="translate(-290.121 -439.996)"/></g><g transform="translate(26.953 11.42)"><path class="d" d="M306.414,443.643c.077.053.368-.233.791-.714a12.878,12.878,0,0,1,1.717-1.719,4.492,4.492,0,0,1,2.117-.925c.6-.08.986.012,1.018-.084.034-.071-.329-.344-1.034-.386a3.9,3.9,0,0,0-2.507.867,7.147,7.147,0,0,0-1.69,1.97C306.492,443.214,306.34,443.592,306.414,443.643Z" transform="translate(-306.395 -439.809)"/></g><g transform="translate(12.782 11.148)"><path class="d" d="M292.621,439.625c-.1.154.24.533.8.738s1.061.135,1.087-.045-.368-.4-.857-.579S292.718,439.467,292.621,439.625Z" transform="translate(-292.605 -439.544)"/></g><g transform="translate(13.105 9.857)"><path class="d" d="M292.92,438.6c-.017.182.5.34,1.164.347s1.187-.133,1.174-.315-.534-.339-1.165-.348S292.938,438.422,292.92,438.6Z" transform="translate(-292.92 -438.288)"/></g></g><path class="d" d="M348.382,249.758c-.806-.178-1.8-.075-2.285-.746-.438-.611-.132-1.45.123-2.159a10.234,10.234,0,0,0,.071-7.074,7.971,7.971,0,0,0-2.944-3.711,3.316,3.316,0,0,0,.5-.638,4.431,4.431,0,0,0,.555-2.244,4.95,4.95,0,0,0-1.5-3.746,2.38,2.38,0,0,0-3.216-.041,1.636,1.636,0,0,0-.046,2.392,1.491,1.491,0,0,0,1.562.2.729.729,0,0,0,.395-.392,1.843,1.843,0,0,1-.439.294,1.313,1.313,0,0,1-1.258-2.282,2.058,2.058,0,0,1,2.76.123,4.589,4.589,0,0,1,1.3,3.454,3.986,3.986,0,0,1-.515,2.007,2.918,2.918,0,0,1-.5.611,6.686,6.686,0,0,0-1.765-.721c-1.328-.323-2.774-.243-3.986-.871a4.839,4.839,0,0,1-2.161-2.592c-.006-.119-.021-.238-.018-.359a50.9,50.9,0,0,1,.739-5.328,16.347,16.347,0,0,0-.14-5.106,9.581,9.581,0,0,0-4.9-6.885,6.7,6.7,0,0,0-5.708-.1,5.208,5.208,0,0,0-1.32.876c-.1.1-.154.16-.213.224a4.691,4.691,0,0,0-1.568,1.257l-3.171,28.546,23.222,14.192a17.314,17.314,0,0,0,5.293-1.072,5.85,5.85,0,0,0,3.534-3.846A3.587,3.587,0,0,0,348.382,249.758Zm-15.248-29.894a8.955,8.955,0,0,0-4.717-5.129,6.133,6.133,0,0,0-4.7.08,6.058,6.058,0,0,1,1.362-.788,6.586,6.586,0,0,1,5.455.252,9.257,9.257,0,0,1,4.58,6.642,16.071,16.071,0,0,1,.1,4.949c-.127,1.281-.487,2.58-.659,3.962a27.5,27.5,0,0,1-.218-2.94A21.4,21.4,0,0,0,333.134,219.864Z" transform="translate(-237.79 -200.915)"/><g transform="translate(58.276)"><path class="j" d="M326.847,220.146a2.492,2.492,0,0,0-.907-1.377,3.76,3.76,0,0,0-2.779-.124l-.054-6.552-12.81-10.38-6.866,3.565a10.748,10.748,0,0,0-5.8,9.642c.05,5.281.183,12.446.53,16.509.6,6.985,7.669,7.56,7.669,7.56s.3,2.518.516,5.021c0,.014-1.555,20.688,5.724,20.5,5.363-.137,8.967-11.41,10.494-17.34l.8-3.258v-.169l.028-.137-.029,0-.16-19.62.221.225a1.521,1.521,0,0,0,1.691.207,3.134,3.134,0,0,0,1.681-1.791A3.907,3.907,0,0,0,326.847,220.146Z" transform="translate(-296.649 -201.233)"/><g transform="translate(1.733 16.71)"><path class="d" d="M299.245,219.56a.9.9,0,1,0,.873-.918A.9.9,0,0,0,299.245,219.56Z" transform="translate(-298.338 -217.475)"/><path class="d" d="M298.378,218.635c.119.113.767-.464,1.73-.54s1.7.371,1.794.239c.048-.059-.077-.269-.4-.479a2.383,2.383,0,0,0-2.813.24C298.409,218.358,298.322,218.586,298.378,218.635Z" transform="translate(-298.362 -217.507)"/></g><g transform="translate(12.429 16.394)"><path class="d" d="M309.351,219.26a.9.9,0,1,0,.873-.917A.9.9,0,0,0,309.351,219.26Z" transform="translate(-308.755 -217.168)"/><path class="d" d="M308.787,218.329c.118.113.766-.466,1.728-.542s1.7.372,1.794.24c.048-.059-.076-.269-.4-.479a2.383,2.383,0,0,0-2.812.239C308.817,218.051,308.73,218.279,308.787,218.329Z" transform="translate(-308.771 -217.2)"/></g><g transform="translate(6.657 17.394)"><path class="d" d="M305.651,226.584a6.1,6.1,0,0,1-1.586.125,1.632,1.632,0,0,1-.421-.028.61.61,0,0,1-.425-.342,1.566,1.566,0,0,1,.069-1.018q.277-.965.582-2.022a35.3,35.3,0,0,1,1.735-5.126,35.267,35.267,0,0,1-1.336,5.244q-.321,1.054-.612,2.013a1.362,1.362,0,0,0-.119.774c.051.172.287.2.533.211A6.055,6.055,0,0,1,305.651,226.584Z" transform="translate(-303.154 -218.173)"/></g><path class="k" d="M308.955,227.124c.067-.08-2.781,1.717-4.748,1.764a2.666,2.666,0,0,0,3.216.829A2.214,2.214,0,0,0,308.955,227.124Z" transform="translate(-296.468 -200.531)"/><path class="l" d="M305.61,238.076a17.468,17.468,0,0,0,9.191-3.354s-1.976,5.186-9,5.066Z" transform="translate(-296.429 -200.321)"/><path class="d" d="M296.676,215.774c3.045.422,5.293-.411,8.276-1.162s5.813-2.717,6.851-5.611a10.521,10.521,0,0,0,2.549,5.132c.286.312.82.6,1.074.263a.765.765,0,0,0,.031-.642l-.617-2.44A19.735,19.735,0,0,0,318.9,216.4c1.7,1.364,6.887,3.481,6.1,1.446-.2-.511,1.539-16.361-13.524-16.6S296.676,215.774,296.676,215.774Z" transform="translate(-296.676 -201.246)"/><g transform="translate(26.688 18.698)"><path class="l" d="M322.655,219.783c-.042-.044.261-.361.907-.341a1.685,1.685,0,0,1-.006,3.366c-.647.016-.949-.3-.906-.345.037-.075.365.075.862-.031a1.328,1.328,0,0,0,.005-2.613C323.02,219.71,322.691,219.859,322.655,219.783Z" transform="translate(-322.646 -219.441)"/></g></g><g transform="translate(36.67 42.374)"><path class="i" d="M349.015,268.369l2.589-.525s-5.642-25.363-25.247-25.363c-.823,0-1.6,0-2.356.005,0,.007-.011.057-.027.132v.169l-.8,3.258c-1.527,5.931-5.131,17.2-10.494,17.34-6.791.174-5.895-17.8-5.742-20.225a1.69,1.69,0,0,0-.5.132s-21.326,1.187-30.787,19.888l16.44,12.014,4.023-2.43s1.31,26.456-.947,33.654c-2.555,8.145-6.5,17.16-6.5,17.16,18.083-1.41,38.64-.6,60.563,1.422l-14.65-53.7A49.917,49.917,0,0,0,349.015,268.369Z" transform="translate(-275.651 -242.481)"/><g transform="translate(12.227 6.504)"><g transform="translate(27.153 31.473)"><path class="d" d="M330.315,280.035c.024.023-.129.234-.456.571a9.188,9.188,0,0,1-1.555,1.25,10.842,10.842,0,0,1-12.456-.452,9.144,9.144,0,0,1-1.458-1.36c-.3-.36-.44-.582-.414-.6.07-.064.733.739,2.092,1.655a11.228,11.228,0,0,0,12.04.439C329.529,280.718,330.249,279.965,330.315,280.035Z" transform="translate(-313.972 -279.437)"/></g><g transform="translate(42.712 13.727)"><path class="d" d="M339.4,294.618a6.448,6.448,0,0,1-.447-1.265c-.278-.928-.63-2.1-1.048-3.495-.877-2.952-2.1-7.028-3.513-11.505s-2.77-8.514-3.754-11.432c-.461-1.382-.848-2.542-1.155-3.46a6.334,6.334,0,0,1-.362-1.292,6.484,6.484,0,0,1,.558,1.22c.328.8.778,1.962,1.315,3.406,1.077,2.889,2.485,6.911,3.907,11.4s2.585,8.583,3.368,11.565c.393,1.491.694,2.7.885,3.542A6.4,6.4,0,0,1,339.4,294.618Z" transform="translate(-329.112 -262.168)"/></g><g transform="translate(41.672 3.484)"><path class="d" d="M333.059,254.34a9.666,9.666,0,0,1-4.955-2.117,23.818,23.818,0,0,1,4.955,2.117Z" transform="translate(-328.101 -252.2)"/></g><g transform="translate(51.654 8.576)"><path class="d" d="M337.847,263a17.836,17.836,0,0,1,1.941-5.844A17.815,17.815,0,0,1,337.847,263Z" transform="translate(-337.814 -257.155)"/></g><g transform="translate(34.066 15.551)"><path class="d" d="M320.719,269.136a24.421,24.421,0,0,1,2.517-5.192,11.613,11.613,0,0,1-2.517,5.192Z" transform="translate(-320.699 -263.942)"/></g><g transform="translate(26.816 21.803)"><path class="d" d="M317.726,274.54a11.3,11.3,0,0,1-4.068-4.509,38.576,38.576,0,0,1,4.068,4.509Z" transform="translate(-313.644 -270.026)"/></g><g transform="translate(38.165 25.475)"><path class="d" d="M330.191,273.6a9.57,9.57,0,0,1-2.2,2.938,15.4,15.4,0,0,1-2.54,2.2l-.761.465.6-.608c.143-.145.235-.213.267-.191s0,.133-.092.315l-.157-.144c.36-.439,1.27-1.333,2.3-2.406A18.821,18.821,0,0,1,330.191,273.6Z" transform="translate(-324.688 -273.599)"/></g><g transform="translate(41.164 40.715)"><path class="d" d="M332.827,291.531a10.871,10.871,0,0,1-5.215-3.089,43.673,43.673,0,0,1,5.215,3.089Z" transform="translate(-327.607 -288.429)"/></g><g transform="translate(29.988 39.625)"><path class="d" d="M320.259,287.374a18.041,18.041,0,0,1-3.514,5.1,18.1,18.1,0,0,1,3.514-5.1Z" transform="translate(-316.731 -287.369)"/></g><g transform="translate(21.092 37.339)"><path class="d" d="M312.048,288.262a6.158,6.158,0,0,1-2.149-1.341c-1.1-.857-1.909-1.645-1.818-1.762a6.17,6.17,0,0,1,2.148,1.341C311.324,287.357,312.138,288.145,312.048,288.262Z" transform="translate(-308.074 -285.144)"/></g><g transform="translate(16.587 27.971)"><path class="d" d="M307.594,276.046c.086.12-.717.84-1.793,1.607s-2.018,1.292-2.1,1.172.717-.84,1.794-1.608S307.509,275.926,307.594,276.046Z" transform="translate(-303.69 -276.029)"/></g><g transform="translate(15.841 17.784)"><path class="d" d="M305.872,269.938c-.118.089-.86-.693-1.659-1.746s-1.35-1.98-1.233-2.07.861.693,1.66,1.746S305.99,269.848,305.872,269.938Z" transform="translate(-302.965 -266.115)"/></g><g transform="translate(37.046)"><path class="d" d="M323.621,253.56a13.665,13.665,0,0,1,2.541-4.747,13.688,13.688,0,0,1-2.541,4.747Z" transform="translate(-323.599 -248.81)"/></g><g transform="translate(9.187 2.732)"><path class="d" d="M301.475,254.552a16.123,16.123,0,0,1-4.982-3.066,16.175,16.175,0,0,1,4.982,3.066Z" transform="translate(-296.489 -251.469)"/></g><g transform="translate(0 2.739)"><path class="d" d="M289.734,251.48c.126.076-.254.952-.85,1.957s-1.183,1.759-1.31,1.683.254-.951.85-1.957S289.606,251.405,289.734,251.48Z" transform="translate(-287.549 -251.475)"/></g><g transform="translate(9.962 69.009)"><path class="d" d="M301.931,319.109a14.938,14.938,0,0,1-4.683-3.13,14.937,14.937,0,0,1,4.683,3.13Z" transform="translate(-297.243 -315.962)"/></g><g transform="translate(45.246 68.444)"><path class="d" d="M335.334,315.421a7.37,7.37,0,0,1-1.675,2.216c-1.034,1.124-1.961,1.955-2.07,1.854a7.386,7.386,0,0,1,1.676-2.216C334.3,316.151,335.225,315.321,335.334,315.421Z" transform="translate(-331.579 -315.413)"/></g><g transform="translate(25.586 68.186)"><path class="d" d="M312.522,319.277c-.148-.037-.031-.946-.035-2.057s-.113-2.019.035-2.056.5.867.5,2.056S312.659,319.317,312.522,319.277Z" transform="translate(-312.447 -315.162)"/></g><g transform="translate(33.065 69.604)"><path class="d" d="M324.463,319.435a14.436,14.436,0,0,1-4.734-2.875,14.436,14.436,0,0,1,4.734,2.875Z" transform="translate(-319.725 -316.541)"/></g></g><g transform="translate(13.016 79.918)"><path class="d" d="M348.88,322.849a2.554,2.554,0,0,1-.619-.012L346.5,322.7l-6.476-.582c-5.467-.476-13.022-1.148-21.389-1.286-8.372-.159-15.953.049-21.436.262l-6.495.277-1.767.067a2.651,2.651,0,0,1-.619-.012,2.67,2.67,0,0,1,.611-.095l1.76-.167c1.53-.129,3.747-.293,6.49-.448,5.483-.309,13.076-.579,21.464-.419,8.39.139,15.956.874,21.417,1.445,2.73.292,4.937.556,6.461.75l1.752.237A2.869,2.869,0,0,1,348.88,322.849Z" transform="translate(-288.317 -320.25)"/></g><g class="m" transform="translate(54.945 20.231)"><path d="M329.118,262.168l5.141,34.166s4.762-.04,5.628-1.415Z" transform="translate(-329.118 -262.168)"/><path d="M329.118,262.168l5.141,34.166s4.762-.04,5.628-1.415Z" transform="translate(-329.118 -262.168)"/></g></g><g transform="translate(10.836 122.483)"><path class="d" d="M301.453,320.771c-12.094.936-18.7.1-32.006,1.35a19,19,0,0,0-16.5,18.393l-2.332,100.511h24.445l3.861-90.115,7.209.913c-.927,33.747,2.6,89.2,2.6,89.2L315.87,439.7l-1.551-86.548s36.514,2.479,35.6-30.308C349.922,322.844,321.167,319.36,301.453,320.771Z" transform="translate(-250.509 -320.435)"/><g transform="translate(35.4 0.06)"><path class="g" d="M307.815,320.507a13.986,13.986,0,0,1-1.85.315c-1.192.179-2.917.436-5.035.825a31.085,31.085,0,0,0-7.248,1.926,14.513,14.513,0,0,0-3.69,2.358,11.893,11.893,0,0,0-2.8,3.741,20.934,20.934,0,0,0-1.743,8.919c.031,2.839.107,5.419.082,7.578s-.094,3.907-.176,5.113c-.043.6-.082,1.07-.118,1.387a1.669,1.669,0,0,1-.08.481,13.884,13.884,0,0,1-.01-1.876c.019-1.206.04-2.949.006-5.1-.057-2.184-.123-4.747-.2-7.578a21.012,21.012,0,0,1,1.754-9.153,12.3,12.3,0,0,1,2.929-3.9,14.762,14.762,0,0,1,3.837-2.416,29.836,29.836,0,0,1,7.386-1.85c2.134-.342,3.872-.544,5.074-.659.6-.056,1.07-.094,1.387-.11A1.663,1.663,0,0,1,307.815,320.507Z" transform="translate(-284.96 -320.493)"/></g><g transform="translate(26.209 24.175)"><path class="g" d="M276.06,343.96a19.761,19.761,0,0,1,1.327,3.052,7.279,7.279,0,0,1,.829,3.248,20.113,20.113,0,0,1-1.327-3.052A7.28,7.28,0,0,1,276.06,343.96Z" transform="translate(-276.016 -343.96)"/></g><g transform="translate(28.174 22.172)"><path class="g" d="M277.989,342.01a12.459,12.459,0,0,1,.71,4.135,8.945,8.945,0,0,1-.535,4.169c-.156-.031.119-1.87,0-4.144A24.578,24.578,0,0,1,277.989,342.01Z" transform="translate(-277.928 -342.01)"/></g><g transform="translate(61.934 24.046)"><g transform="translate(0 0.014)"><path class="g" d="M310.808,343.848a14.242,14.242,0,0,1,1.187,4.278,26.383,26.383,0,0,1,.662,4.379,14.365,14.365,0,0,1-1.187-4.28A26.654,26.654,0,0,1,310.808,343.848Z" transform="translate(-310.78 -343.847)"/></g><g transform="translate(1.961)"><path class="g" d="M313.2,343.834a16.733,16.733,0,0,1-.473,8.671,40.8,40.8,0,0,1,.274-4.334A40.763,40.763,0,0,1,313.2,343.834Z" transform="translate(-312.688 -343.834)"/></g></g><g transform="translate(0 114.451)"><path class="g" d="M274.43,432.074c0,.148-5.355.267-11.959.267s-11.96-.119-11.96-.267,5.354-.267,11.96-.267S274.43,431.927,274.43,432.074Z" transform="translate(-250.512 -431.807)"/></g><g transform="translate(37.82 114.002)"><path class="g" d="M314.521,431.638c0,.147-6.09.267-13.6.267s-13.6-.12-13.6-.267,6.09-.268,13.6-.268S314.521,431.49,314.521,431.638Z" transform="translate(-287.315 -431.37)"/></g><g transform="translate(54.142 17.212)"><path class="g" d="M345.223,337.426a1.476,1.476,0,0,1-.346.027l-1.016.027c-.927.009-2.237.026-3.906.045l-14.368.07-9.918.033a23.428,23.428,0,0,0-5.423.627,8.575,8.575,0,0,0-4.759,2.948,9.865,9.865,0,0,0-1.748,5.646c-.1,2.073.116,4.207.2,6.4.119,4.363.243,8.88.369,13.506.516,18.51.947,35.267,1.1,47.4.082,6.066.108,10.976.1,14.368-.012,1.67-.021,2.98-.028,3.907-.008.422-.015.759-.021,1.016a1.69,1.69,0,0,1-.026.345,1.605,1.605,0,0,1-.029-.345c-.008-.257-.019-.593-.033-1.016-.016-.927-.041-2.236-.073-3.906-.065-3.425-.158-8.323-.274-14.362-.253-12.129-.745-28.883-1.261-47.392-.122-4.625-.242-9.142-.359-13.5-.075-2.168-.293-4.315-.183-6.441A10.332,10.332,0,0,1,305.1,340.9a9.042,9.042,0,0,1,5.028-3.1,23.8,23.8,0,0,1,5.535-.613l9.926.032,14.368.1,3.907.053,1.015.028A1.669,1.669,0,0,1,345.223,337.426Z" transform="translate(-303.197 -337.184)"/></g><path class="n" d="M282.356,351.138s-.95-12.18,3.621-19.182l-.725,19.549Z" transform="translate(-249.634 -320.116)"/><g transform="translate(17.091 18.425)"><path class="g" d="M284.747,339.378a1.116,1.116,0,0,1-.276-.033l-.8-.146c-.7-.128-1.736-.336-3.078-.485a13.163,13.163,0,0,0-4.857.284,8.316,8.316,0,0,0-2.724,1.28,6.842,6.842,0,0,0-2.112,2.586c-1.047,2.159-1.155,4.862-1.213,7.693-.071,2.855-.147,5.9-.226,9.1-.17,6.416-.357,13.462-.553,20.86-.438,14.784-.833,28.165-1.121,37.9-.169,4.818-.305,8.73-.4,11.483-.058,1.324-.1,2.368-.137,3.122-.02.331-.036.6-.048.812a1.168,1.168,0,0,1-.035.275,1.055,1.055,0,0,1-.021-.277c0-.214,0-.481,0-.812.009-.756.021-1.8.036-3.125.055-2.755.135-6.669.231-11.487.248-9.737.589-23.118.965-37.9.211-7.4.412-14.442.594-20.859.1-3.2.19-6.249.275-9.1.079-2.831.2-5.6,1.317-7.847a7.166,7.166,0,0,1,2.251-2.7,8.549,8.549,0,0,1,2.848-1.294,13.1,13.1,0,0,1,4.958-.2,30.841,30.841,0,0,1,3.076.586l.789.2A1.034,1.034,0,0,1,284.747,339.378Z" transform="translate(-267.143 -338.364)"/></g></g><path class="j" d="M283.319,263.925s-25.811,25.877-30.736,31.669c-4.2,4.94-1.46,14.265,2.057,14.666s60.41-.373,60.41-.373L314.3,298.25s-36.845.165-37.928-.514S297.68,274.42,297.68,274.42Z" transform="translate(-239.677 -199.514)"/><path class="j" d="M350.367,267.215s7.841,23.764,8.79,26.574,5.817,14.69-3.43,15.686-58.889,0-58.889,0l-3.693-12.011s47.98-.121,47.737-2.684-7.288-24.029-7.288-24.029Z" transform="translate(-238.498 -199.423)"/></g><g transform="translate(55.744 59.617)"><path class="d" d="M246.9,260.018l17.832,49.393,82.08-.035-.57-2.414-30.8-1.132L300.283,259.26Z" transform="translate(-246.899 -259.26)"/><path class="k" d="M282.654,281.957a2.9,2.9,0,1,1-3.413-2.809A3.145,3.145,0,0,1,282.654,281.957Z" transform="translate(-246.069 -258.711)"/></g><path class="g" d="M390.762,307.015H192.655v141.8h4.2V315.369h193.9V448.915h49.56v-141.9Z" transform="translate(-192.655 -198.323)"/></g><g transform="translate(64.357 113.258)"><g transform="translate(72.208 326.629)"><g transform="translate(0 0)"><path class="e" d="M153.8,439.9V429.287l-19.02-.126-.157,15.871,1.179.087c5.246.34,26.7,1,30.214-.09C169.936,443.814,153.8,439.9,153.8,439.9Z" transform="translate(-134.623 -429.161)"/></g><g transform="translate(0.064 14.572)"><path class="d" d="M166.463,443.664c0,.179-7.113.325-15.888.325s-15.889-.146-15.889-.325,7.112-.323,15.889-.323S166.463,443.486,166.463,443.664Z" transform="translate(-134.685 -443.341)"/></g><g transform="translate(19.447 10.959)"><path class="d" d="M153.611,441.773c-.156-.082-.023-.643.386-1.2s.9-.85,1.029-.725-.134.6-.508,1.107S153.77,441.859,153.611,441.773Z" transform="translate(-153.547 -439.825)"/></g><g transform="translate(20.644 11.284)"><path class="d" d="M154.791,442.463c-.164-.062-.079-.691.295-1.351s.867-1.062,1.005-.953-.1.653-.442,1.27S154.961,442.529,154.791,442.463Z" transform="translate(-154.711 -440.142)"/></g><g transform="translate(0.307 11.098)"><path class="d" d="M140.409,443.686c-.074.052-.358-.227-.769-.695a12.518,12.518,0,0,0-1.669-1.67,4.353,4.353,0,0,0-2.057-.9c-.578-.077-.958.012-.99-.081-.034-.069.32-.334,1.005-.375a3.782,3.782,0,0,1,2.437.843,6.945,6.945,0,0,1,1.643,1.913C140.334,443.27,140.48,443.637,140.409,443.686Z" transform="translate(-134.922 -439.961)"/></g><g transform="translate(17.735 10.833)"><path class="d" d="M153.714,439.781c.092.151-.233.519-.776.718s-1.031.129-1.056-.045.358-.385.832-.561S153.621,439.628,153.714,439.781Z" transform="translate(-151.881 -439.703)"/></g><g transform="translate(16.997 9.578)"><path class="d" d="M153.435,438.789c.019.178-.489.331-1.131.339s-1.152-.13-1.141-.308.519-.33,1.132-.338S153.419,438.612,153.435,438.789Z" transform="translate(-151.163 -438.482)"/></g></g><path class="j" d="M207,132.085l.176-3.211a27.42,27.42,0,0,0,.406-5.393,7.922,7.922,0,0,0-.474-2.638,12.114,12.114,0,0,0-1.444-3.013,1.037,1.037,0,0,1,.905-1.739c.905.232,2.759,2.381,3.6,5.587s3-1.54,3.818-3.256,3.6-6.9,4.325-7.071c1.067-.244,1.524.853.667,2.548-.868,1.715-3.071,6.956-2.143,7.346a4.92,4.92,0,0,1,2.025-.087.536.536,0,0,1,.42.451,6.22,6.22,0,0,0,.3,1.475s1.276-.408,1.6.134A5.621,5.621,0,0,1,221.59,125s.97-.432,1.481-.1c1.1.718-.084,2.229-.084,2.229a108.209,108.209,0,0,1-8.563,10.779l-7.472-6.013" transform="translate(-60.459 -111.317)"/><g transform="translate(47.358 8.945)"><path class="j" d="M118.053,131.456l-.125,40.989,17.586.839.508-9.97s6.246,1.24,7.857-4.561c1.03-3.706.773-32.342.773-32.342Z" transform="translate(-110.235 -119.845)"/><path class="d" d="M143.849,120.233c-5.349,1.733-6.641,2.31-9.038,2.5-2.3.184-18.688.2-20.175,9.383a6.716,6.716,0,0,1-.462-1.35,23.1,23.1,0,0,1-.2-2.713,3.408,3.408,0,0,0-.321,2.834,4.829,4.829,0,0,0,.176.593c-.106-.11-.21-.221-.331-.326a5.176,5.176,0,0,0-2.078-1.106c-.59-.144-.968-.113-.976-.047a14.1,14.1,0,0,1,2.7,1.557,6.944,6.944,0,0,1,1.382,1.64c0,.042-.008.081-.008.123,0,0-3.505-1.54-2.583,4.813s5.072,11.745,5.58,22.143c0,0,14.526,1.733,17.109-3.852l2.17-6.405s-3.495-.568-3.088-3.379c.562-3.89,3.534-3.989,5.748-2.256L142,137.561s6.457-4.236,6.825-6.931S149.2,118.5,143.849,120.233Z" transform="translate(-110.441 -120.022)"/></g><g transform="translate(3.956 329.437)"><path class="e" d="M70.784,431.893l-2.577,11.466,17.754,2.194.636-11.36Z" transform="translate(-68.206 -431.893)"/><g transform="translate(8.855 0.561)"><path class="d" d="M78.561,432.44a26.393,26.393,0,0,1-.585,5.265,26.5,26.5,0,0,1-1.112,5.178,52.318,52.318,0,0,1,1.7-10.443Z" transform="translate(-76.824 -432.44)"/></g><g transform="translate(0.45 9.221)"><path class="d" d="M86.018,444.057a13.916,13.916,0,0,1-2.571-.324c-1.767-.286-3.854-.624-6.159-1-2.406-.4-4.58-.8-6.142-1.154a11.5,11.5,0,0,1-2.5-.694,13.655,13.655,0,0,1,2.571.322c1.768.288,3.854.626,6.161,1,2.4.4,4.579.806,6.141,1.155A11.289,11.289,0,0,1,86.018,444.057Z" transform="translate(-68.645 -440.867)"/></g></g><g transform="translate(0 146.827)"><path class="d" d="M97.21,256.546,64.357,441.189l28.14,1.6s29.886-159.161,34.274-159.559c1.837-.167,2.575,158.3,4.052,157.963s30.4.514,30.4.514-3.913-187.5-3.844-187.508S97.21,256.546,97.21,256.546Z" transform="translate(-64.357 -254.195)"/><g transform="translate(1.802 25.141)"><g transform="translate(50.726)"><path class="g" d="M137.366,278.674c.031.144-4.846,1.3-10.891,2.587s-10.972,2.209-11,2.065,4.844-1.3,10.891-2.587S137.335,278.53,137.366,278.674Z" transform="translate(-115.473 -278.659)"/></g><g transform="translate(0 151.653)"><path class="g" d="M94.5,427.188c0,.148-6.364.07-14.2-.172s-14.193-.56-14.188-.707,6.363-.071,14.2.173S94.507,427.041,94.5,427.188Z" transform="translate(-66.111 -426.234)"/></g><g transform="translate(64.196 151.636)"><path class="g" d="M159.234,427.2c0,.147-6.871.063-15.334-.19s-15.325-.577-15.32-.725,6.869-.063,15.335.19S159.239,427.056,159.234,427.2Z" transform="translate(-128.58 -426.217)"/></g><g transform="translate(13.472 5.126)"><path class="g" d="M110.838,283.648c.145.032-6.816,32.971-15.545,73.563S79.367,430.7,79.223,430.667,86.038,397.7,94.769,357.1,110.695,283.617,110.838,283.648Z" transform="translate(-79.221 -283.648)"/></g><g transform="translate(77.928 4.335)"><path class="g" d="M143.658,430.708a2.013,2.013,0,0,1-.039-.381c-.015-.278-.036-.648-.062-1.119-.044-1.014-.106-2.459-.186-4.3-.153-3.739-.336-9.148-.531-15.835-.39-13.374-.773-31.853-.873-52.267s.109-38.9.371-52.281c.131-6.687.262-12.1.379-15.839l.144-4.3c.022-.47.038-.84.051-1.119a2.163,2.163,0,0,1,.035-.38,1.936,1.936,0,0,1,.02.381c0,.281,0,.65,0,1.121-.01,1.015-.025,2.46-.044,4.307-.049,3.771-.12,9.176-.209,15.84-.164,13.377-.309,31.857-.214,52.274s.422,38.884.716,52.259c.152,6.663.275,12.067.362,15.838.036,1.846.065,3.29.085,4.308,0,.471.006.841.008,1.12A2.025,2.025,0,0,1,143.658,430.708Z" transform="translate(-141.943 -282.878)"/></g></g></g><g transform="translate(10.749 19.843)"><path class="e" d="M207.706,130.626s-21.786,32.863-23.632,34.709-35.967,5.433-35.968,5.433c-10.475-2.366-44.344-1.585-50.743,3.126h0c-5.534,3.062-12.261,10.23-15.724,27.265-5.908,29.059-11.817,39.767,0,43.829a77.709,77.709,0,0,0,14.547,3.427l-.327,13.154,61.243-3.805L153.968,225.1c-.368-9.17-.54-18.73-.766-27.2,3.83-1.451,39.448-14.933,41.894-15.282,2.585-.369,25.9-43.5,25.9-43.5C221.738,133.948,207.706,130.626,207.706,130.626Z" transform="translate(-74.817 -130.626)"/><g transform="translate(21.007 59.476)"><path class="d" d="M97.295,188.5c.148,0-.181,16.009-.733,35.74s-1.119,35.733-1.267,35.729.18-16,.733-35.743S97.147,188.5,97.295,188.5Z" transform="translate(-95.259 -188.502)"/></g><g transform="translate(109.244 34.706)"><path class="d" d="M184.2,171.8c-.143.08-1.043-1.517-1.784-3.6a26.923,26.923,0,0,1-1.282-3.793,10.674,10.674,0,0,1,1.784,3.606A26.893,26.893,0,0,1,184.2,171.8Z" transform="translate(-181.123 -164.398)"/></g><g transform="translate(109.249 34.702)"><path class="d" d="M186.645,169a18.38,18.38,0,0,1-2.921-2.09,9.255,9.255,0,0,1-2.589-2.512,18.288,18.288,0,0,1,2.92,2.091A9.291,9.291,0,0,1,186.645,169Z" transform="translate(-181.128 -164.395)"/></g><g transform="translate(130.572 3.338)"><path class="d" d="M216.306,141.609a13.068,13.068,0,0,1-2.065-1.241c-1.25-.8-2.993-1.866-4.982-2.932s-3.847-1.924-5.2-2.521a13.221,13.221,0,0,1-2.179-1.03,9.171,9.171,0,0,1,2.32.678,43.331,43.331,0,0,1,10.256,5.492A9.283,9.283,0,0,1,216.306,141.609Z" transform="translate(-201.877 -133.874)"/></g><g transform="translate(14.907 93.741)"><path class="d" d="M96.725,223.479a12.063,12.063,0,0,1-3.788-.388,10.128,10.128,0,0,1-3.613-1.216,21.083,21.083,0,0,1,3.722.692A15.731,15.731,0,0,1,96.725,223.479Z" transform="translate(-89.323 -221.845)"/></g><g transform="translate(66.446 39.632)"><path class="d" d="M151.914,169.236a30.513,30.513,0,0,0-3.284.772,12.73,12.73,0,0,0-8.758,12.277,30.257,30.257,0,0,0,.339,3.356,2.713,2.713,0,0,1-.331-.861,10.981,10.981,0,0,1-.386-2.487,12.5,12.5,0,0,1,9.021-12.646,10.934,10.934,0,0,1,2.478-.443A2.716,2.716,0,0,1,151.914,169.236Z" transform="translate(-139.476 -169.192)"/></g><g transform="translate(21.043 127.118)"><path class="d" d="M156.537,254.344c.009.147-13.694,1.12-30.6,2.17S95.3,258.3,95.294,258.15s13.691-1.119,30.606-2.171S156.528,254.2,156.537,254.344Z" transform="translate(-95.294 -254.325)"/></g><g transform="translate(6.76 39.032)"><path class="d" d="M132.525,168.608a4.192,4.192,0,0,1,.181.761c.045.253.123.563.169.936s.075.816.119,1.295a20.066,20.066,0,0,1-1.326,8.135,19.227,19.227,0,0,1-7.629,9.45,12.321,12.321,0,0,1-1.561.838,14.374,14.374,0,0,1-1.67.693c-1.141.413-2.321.76-3.492,1.177a15.818,15.818,0,0,0-3.392,1.586,12.183,12.183,0,0,0-2.781,2.626,70.787,70.787,0,0,0-4.049,6.564,13.869,13.869,0,0,1-5.03,5.237,11.62,11.62,0,0,1-6.464,1.2,15.47,15.47,0,0,1-5.511-1.574,24.862,24.862,0,0,1-6.64-4.9c-.692-.687-1.2-1.243-1.55-1.622a4.324,4.324,0,0,1-.5-.6,4.114,4.114,0,0,1,.581.525l1.616,1.547a25.941,25.941,0,0,0,6.66,4.706,15.222,15.222,0,0,0,5.384,1.473,11.2,11.2,0,0,0,6.193-1.188,13.456,13.456,0,0,0,4.819-5.077,69.034,69.034,0,0,1,4.074-6.62,12.658,12.658,0,0,1,2.912-2.741,16.17,16.17,0,0,1,3.507-1.635l3.5-1.162a14.146,14.146,0,0,0,1.631-.668,12.082,12.082,0,0,0,1.516-.8,19.022,19.022,0,0,0,7.533-9.167,20.672,20.672,0,0,0,1.471-7.99q-.039-.712-.07-1.285c-.028-.371-.089-.681-.116-.935A4.378,4.378,0,0,1,132.525,168.608Z" transform="translate(-81.395 -168.608)"/></g><g transform="translate(50.561 73.752)"><path class="d" d="M154.539,243.235c-.015.021-.234-.158-.683-.438a6.273,6.273,0,0,0-2.12-.868,30.452,30.452,0,0,0-3.658-.326c-1.427-.116-3.062-.126-4.878-.193a24.03,24.03,0,0,1-5.9-.826,19.834,19.834,0,0,1-6.169-2.968,17.243,17.243,0,0,1-5.043-5.637,16.446,16.446,0,0,1-2.068-7.846,14.221,14.221,0,0,1,7.8-12.878,12.924,12.924,0,0,1,3.373-1.125,20.639,20.639,0,0,1,3.323-.273,48.93,48.93,0,0,0,5.895-.174,8.535,8.535,0,0,0,6.872-4.282,6.5,6.5,0,0,0,.637-2.2c.063-.526.054-.807.081-.807.01,0,.018.069.026.206a4.5,4.5,0,0,1,0,.61,6.14,6.14,0,0,1-.557,2.281,7.3,7.3,0,0,1-2.407,2.827,10.049,10.049,0,0,1-4.6,1.74,47.592,47.592,0,0,1-5.939.243,20.209,20.209,0,0,0-3.247.293,12.482,12.482,0,0,0-3.236,1.1,13.774,13.774,0,0,0-7.49,12.434,16.03,16.03,0,0,0,1.993,7.6,16.835,16.835,0,0,0,4.873,5.49,19.539,19.539,0,0,0,6,2.941,24.043,24.043,0,0,0,5.8.875c1.8.09,3.447.128,4.886.273a27.828,27.828,0,0,1,3.679.421,5.96,5.96,0,0,1,2.132.98,5.075,5.075,0,0,1,.478.38C154.5,243.178,154.545,243.228,154.539,243.235Z" transform="translate(-124.018 -202.394)"/></g><g transform="translate(22.608 90.868)"><path class="d" d="M121.253,257.826a10.588,10.588,0,0,0-.119-2.2,7.71,7.71,0,0,0-3.164-4.87,7.164,7.164,0,0,0-1.751-.854,10.922,10.922,0,0,0-2.1-.388,22.486,22.486,0,0,1-4.814-.652A6.144,6.144,0,0,1,107,247.466a7.477,7.477,0,0,1-1.565-2.324,10.754,10.754,0,0,1-.669-5.746c.572-3.953,2.308-7.357,2.611-10.706a10.545,10.545,0,0,0-.418-4.653,6.7,6.7,0,0,0-2.385-3.224,7.815,7.815,0,0,0-5.634-1.442,11.231,11.231,0,0,0-2.121.6,5.1,5.1,0,0,1,2.089-.8,7.881,7.881,0,0,1,5.887,1.34,7.06,7.06,0,0,1,2.579,3.38,10.89,10.89,0,0,1,.493,4.856c-.3,3.463-2.028,6.9-2.572,10.725a10.3,10.3,0,0,0,.621,5.467,6.969,6.969,0,0,0,1.441,2.166,5.637,5.637,0,0,0,2.108,1.292,22.775,22.775,0,0,0,4.7.678,11.209,11.209,0,0,1,2.179.436,7.46,7.46,0,0,1,1.842.938,7.774,7.774,0,0,1,3.154,5.144,6.294,6.294,0,0,1,.033,1.667A2.39,2.39,0,0,1,121.253,257.826Z" transform="translate(-96.817 -219.05)"/></g><g transform="translate(43.274 72.287)"><path class="d" d="M118.648,201.458c-.014-.022.213-.218.723-.371a3.44,3.44,0,0,1,2.221.148,3.484,3.484,0,0,1,1.294.9,3.123,3.123,0,0,1,.747,1.671,3.6,3.6,0,0,1-1.778,3.593,3.557,3.557,0,0,1-3.958-.618,3.012,3.012,0,0,1-.906-1.593,3.329,3.329,0,0,1,.073-1.579,3.274,3.274,0,0,1,1.28-1.821c.447-.294.746-.334.752-.309.02.044-.249.152-.626.475a3.3,3.3,0,0,0-1.04,1.75,2.72,2.72,0,0,0,.8,2.715,3.1,3.1,0,0,0,3.377.506,3.141,3.141,0,0,0,1.536-3.059,2.848,2.848,0,0,0-1.7-2.287,3.5,3.5,0,0,0-2.024-.292C118.927,201.372,118.669,201.5,118.648,201.458Z" transform="translate(-116.928 -200.968)"/></g><g transform="translate(2.979 87.902)"><path class="d" d="M88.923,244.853c-.114-.024.369-1.807.482-4.746a20.847,20.847,0,0,0-.027-2.4,27.309,27.309,0,0,0-.272-2.74,28.5,28.5,0,0,0-4.553-11.657,27.492,27.492,0,0,0-1.657-2.2,20.972,20.972,0,0,0-1.607-1.783c-2.076-2.084-3.639-3.066-3.571-3.161a5.821,5.821,0,0,1,1.1.669,10.408,10.408,0,0,1,1.218.9,17.342,17.342,0,0,1,1.515,1.32,19.822,19.822,0,0,1,1.681,1.767,26.2,26.2,0,0,1,1.724,2.207A27.422,27.422,0,0,1,89.594,234.9a25.843,25.843,0,0,1,.228,2.791,19.663,19.663,0,0,1-.039,2.439,17.55,17.55,0,0,1-.218,2,10.592,10.592,0,0,1-.285,1.489A5.921,5.921,0,0,1,88.923,244.853Z" transform="translate(-77.716 -216.164)"/></g><g transform="translate(88.766 46.736)"><path class="d" d="M193.244,180.911a11.742,11.742,0,0,1-1.53-.678c-.975-.452-2.392-1.1-4.192-1.755a31.356,31.356,0,0,0-6.5-1.641,21.471,21.471,0,0,0-8.123.4A16.243,16.243,0,0,0,165.767,181a13.714,13.714,0,0,0-3.668,5.477,11.075,11.075,0,0,0-.62,4.423c.078,1.065.247,1.641.19,1.654a1.292,1.292,0,0,1-.146-.411,7.717,7.717,0,0,1-.252-1.224,10.564,10.564,0,0,1,.469-4.564,13.773,13.773,0,0,1,3.688-5.716,16.438,16.438,0,0,1,7.342-3.921,21.414,21.414,0,0,1,8.321-.371,29.919,29.919,0,0,1,6.564,1.776,38.688,38.688,0,0,1,4.151,1.924c.475.258.84.463,1.081.615S193.253,180.895,193.244,180.911Z" transform="translate(-161.196 -176.105)"/></g><g transform="translate(114.581 5.505)"><path class="d" d="M200.963,135.984c.013-.012.109.07.28.24a8.04,8.04,0,0,1,.708.783,11.99,11.99,0,0,1,1.9,3.39,13.751,13.751,0,0,1,.814,5.712,14,14,0,0,1-2.234,6.7,13.609,13.609,0,0,1-5.33,4.628,14.24,14.24,0,0,1-5.575,1.48,12.542,12.542,0,0,1-3.869-.357,7.922,7.922,0,0,1-1.006-.321c-.226-.084-.341-.138-.335-.155a17.7,17.7,0,0,0,5.182.455,14.4,14.4,0,0,0,5.382-1.544,13.412,13.412,0,0,0,5.1-4.484,13.9,13.9,0,0,0,1.511-11.987A16.851,16.851,0,0,0,200.963,135.984Z" transform="translate(-186.317 -135.983)"/></g><g transform="translate(44.277 38.687)"><path class="d" d="M135.758,168.48a74.569,74.569,0,0,1-8.925.337,74.829,74.829,0,0,1-8.93-.2,74.7,74.7,0,0,1,8.926-.336A74.976,74.976,0,0,1,135.758,168.48Z" transform="translate(-117.903 -168.272)"/></g></g></g></g><g transform="translate(200.736 5419.002)"><path class="o" d="M-480.491,2403.3a29.994,29.994,0,0,1-9.941,41.237,29.994,29.994,0,0,1-41.237-9.941,29.993,29.993,0,0,1,9.941-41.238A29.994,29.994,0,0,1-480.491,2403.3Z" transform="translate(536.08 -2388.947)"/><g class="p" transform="translate(0 4.409)"><path class="q" d="M-521.728,2394a29.993,29.993,0,0,0-9.941,41.238s18.472-10.19,18.37-20.078S-521.728,2394-521.728,2394Z" transform="translate(536.08 -2393.998)"/></g><g transform="translate(6.54 7.036)"><path class="r" d="M-486.33,2407.916a22.8,22.8,0,0,1-7.557,31.349,22.8,22.8,0,0,1-31.349-7.557,22.8,22.8,0,0,1,7.557-31.349A22.8,22.8,0,0,1-486.33,2407.916Z" transform="translate(528.588 -2397.007)"/></g><g transform="translate(8.153 7.657)"><path class="s" d="M-485.05,2408.481a22.5,22.5,0,0,1-7.456,30.928,22.5,22.5,0,0,1-30.928-7.456,22.5,22.5,0,0,1,7.457-30.928A22.5,22.5,0,0,1-485.05,2408.481Z" transform="translate(526.741 -2397.718)"/></g><g transform="translate(19.243 17.618)"><g transform="translate(1.235 0.002)"><path class="r" d="M-502.7,2419.535l-3-4.91.024-.015a11.826,11.826,0,0,1,3.025-.916,9.609,9.609,0,0,1,1.694.024l-.028-.192-.324-2.231-.074-.512-1.437-.384-.3.447a10.79,10.79,0,0,0-4.185,1.148l-1.651-2.7-1.255-.164.415.678-1.154.705,1.681,2.749c-3.572,2.685-4.048,5.951-2.53,8.433,2.067,3.381,5.5,2.486,8.6,1.492l2.975,4.865a10.96,10.96,0,0,1-6,1.127l.409,3.125a12.479,12.479,0,0,0,7.195-1.625l1.247,2.039-.939.6,1.344.065,1.995-1.221-1.666-2.725c3.581-2.725,4.1-5.981,2.579-8.462C-496.136,2417.592-499.6,2418.54-502.7,2419.535Zm-2.307.709c-1.664.449-3.037.554-3.751-.614-.655-1.071-.46-2.392,1.1-3.716Zm-.7-5.623Zm7.437,12.163-2.633-4.306c1.713-.48,3.125-.574,3.854.618C-496.408,2424.143-496.657,2425.431-498.27,2426.784Z" transform="translate(512.623 -2409.13)"/></g><path class="o" d="M-498.06,2429.273l1.667,2.725-1.995,1.221-1.652-2.7a12.494,12.494,0,0,1-7.2,1.625l-.408-3.126a10.963,10.963,0,0,0,6-1.127l-2.976-4.866c-3.1,1-6.533,1.889-8.6-1.492-1.517-2.482-1.042-5.748,2.531-8.435l-1.681-2.749,1.995-1.219,1.651,2.7a12.235,12.235,0,0,1,5.848-1.536l.5,3.068a11.8,11.8,0,0,0-4.745,1.1l3,4.916c3.1-1,6.568-1.944,8.636,1.438C-493.962,2423.291-494.479,2426.548-498.06,2429.273Zm-8.364-9.193-2.648-4.331c-1.564,1.323-1.758,2.646-1.1,3.718C-509.461,2420.634-508.087,2420.529-506.423,2420.08Zm7.963,2.853c-.729-1.193-2.142-1.1-3.854-.618l2.633,4.307C-498.068,2425.268-497.821,2423.979-498.46,2422.933Z" transform="translate(514.038 -2409.128)"/></g><g transform="translate(1.263 33.923)"><path class="q" d="M-520.347,2449.211a1.225,1.225,0,0,1-.24-.125l-.667-.4a12.243,12.243,0,0,1-1.029-.668c-.39-.278-.849-.575-1.313-.961l-.742-.589c-.256-.207-.5-.444-.771-.678-.541-.46-1.067-1.008-1.63-1.572a32.3,32.3,0,0,1-3.244-4.047,32.336,32.336,0,0,1-2.493-4.551c-.305-.738-.609-1.433-.827-2.109-.114-.336-.238-.656-.329-.973l-.259-.91c-.179-.576-.277-1.115-.383-1.582s-.177-.873-.223-1.208c-.045-.313-.081-.569-.11-.768a1.179,1.179,0,0,1-.023-.27,1.33,1.33,0,0,1,.067.263l.151.759c.059.331.137.735.259,1.2s.225.994.413,1.565q.13.433.271.9c.1.313.224.63.34.962.224.67.532,1.358.84,2.088a33.744,33.744,0,0,0,2.491,4.51,33.6,33.6,0,0,0,3.208,4.03c.556.565,1.073,1.114,1.605,1.577.263.235.505.474.758.683l.728.6c.455.392.905.7,1.287.983s.721.517,1,.7l.643.431A1.262,1.262,0,0,1-520.347,2449.211Z" transform="translate(534.633 -2427.804)"/></g><g transform="translate(19.928 26.218)"><path class="q" d="M-510.218,2423.8a1.877,1.877,0,0,1-.908-.216,3.582,3.582,0,0,1-1.674-1.506,3.582,3.582,0,0,1-.422-2.211,1.9,1.9,0,0,1,.286-.889c.037.012-.091.346-.129.9a3.8,3.8,0,0,0,.459,2.087,3.787,3.787,0,0,0,1.547,1.472C-510.561,2423.7-510.209,2423.762-510.218,2423.8Z" transform="translate(513.253 -2418.978)"/></g><g transform="translate(21.766 19.332)"><path class="q" d="M-510.161,2412.692c-.053.032-.315-.3-.585-.741s-.446-.826-.394-.858.314.3.585.741S-510.108,2412.659-510.161,2412.692Z" transform="translate(511.149 -2411.091)"/></g><g transform="translate(6.764 8.812)"><path class="q" d="M-516.193,2399.042a4.751,4.751,0,0,1-.641.358c-.21.106-.465.239-.753.409s-.625.346-.974.581-.744.47-1.142.763c-.409.276-.819.609-1.255.952a25.846,25.846,0,0,0-2.614,2.485,25.743,25.743,0,0,0-2.2,2.858c-.3.47-.585.912-.818,1.347-.251.426-.456.837-.642,1.214s-.338.726-.476,1.029-.247.571-.331.791a4.693,4.693,0,0,1-.289.674,4.472,4.472,0,0,1,.208-.7c.071-.225.165-.5.3-.809s.26-.67.45-1.049.376-.8.622-1.236c.227-.444.513-.892.807-1.37a24.271,24.271,0,0,1,2.21-2.9,24.413,24.413,0,0,1,2.65-2.5c.445-.341.862-.672,1.279-.943.406-.291.8-.531,1.166-.748s.7-.4,1-.556.557-.283.773-.377A4.534,4.534,0,0,1-516.193,2399.042Z" transform="translate(528.332 -2399.041)"/></g><g transform="translate(35.476 52.358)"><path class="q" d="M-482.966,2448.921a2.652,2.652,0,0,1-.381.4c-.253.251-.64.593-1.135.995a21.817,21.817,0,0,1-4.215,2.649,21.823,21.823,0,0,1-4.708,1.619c-.623.133-1.133.22-1.488.26a2.641,2.641,0,0,1-.552.043,2.6,2.6,0,0,1,.538-.13c.349-.065.851-.175,1.466-.327a24.8,24.8,0,0,0,4.648-1.666,24.9,24.9,0,0,0,4.213-2.573c.5-.383.905-.7,1.174-.935A2.662,2.662,0,0,1-482.966,2448.921Z" transform="translate(495.444 -2448.92)"/></g></g><g transform="translate(245.389 5370.781)"><g transform="translate(0 0)"><g transform="translate(0)"><circle class="o" cx="23.366" cy="23.366" r="23.366" transform="translate(0 8.015) rotate(-9.875)"/><g class="p" transform="translate(3.656 4.148)"><path class="q" d="M-463.263,2338.465a23.365,23.365,0,0,0-18.135,27.624s16.226-2.614,18.751-9.891S-463.263,2338.465-463.263,2338.465Z" transform="translate(481.89 -2338.465)"/></g><g transform="translate(8.823 8.973)"><path class="r" d="M-440.812,2358.153a17.764,17.764,0,0,1-13.787,21,17.763,17.763,0,0,1-21-13.788,17.763,17.763,0,0,1,13.787-21A17.763,17.763,0,0,1-440.812,2358.153Z" transform="translate(475.972 -2343.992)"/></g><g transform="translate(9.937 9.787)"><path class="s" d="M-440.009,2358.894a17.525,17.525,0,0,1-13.6,20.718,17.524,17.524,0,0,1-20.718-13.6,17.523,17.523,0,0,1,13.6-20.718A17.523,17.523,0,0,1-440.009,2358.894Z" transform="translate(474.696 -2344.924)"/></g><g transform="translate(19.637 16.078)"><g transform="translate(0.863)"><path class="r" d="M-455.257,2361.737l-.911-4.39.021,0a9.2,9.2,0,0,1,2.46.124,7.571,7.571,0,0,1,1.235.463l.031-.148.349-1.72.08-.4-.952-.66-.341.248a8.373,8.373,0,0,0-3.371-.259l-.5-2.414-.877-.451.126.606-1.032.214.51,2.459c-3.326,1.029-4.534,3.3-4.074,5.517.627,3.023,3.378,3.27,5.914,3.357l.9,4.35a8.537,8.537,0,0,1-4.693-.75l-.523,2.4a9.724,9.724,0,0,0,5.7.7l.378,1.823-.847.191.969.4,1.784-.37-.505-2.436c3.343-1.056,4.577-3.308,4.117-5.527C-449.931,2362.04-452.72,2361.824-455.257,2361.737Zm-1.879-.087c-1.338-.108-2.373-.393-2.589-1.437-.2-.957.293-1.875,1.787-2.435Zm.967-4.307Zm2.255,10.876-.8-3.849c1.382.1,2.443.4,2.664,1.467C-451.853,2366.772-452.375,2367.651-453.913,2368.219Z" transform="translate(462.598 -2352.13)"/></g><g transform="translate(0 0.004)"><path class="o" d="M-454.408,2370.147l.505,2.437-1.784.369-.5-2.415a9.72,9.72,0,0,1-5.7-.7l.523-2.4a8.543,8.543,0,0,0,4.694.751l-.9-4.351c-2.536-.087-5.287-.334-5.915-3.357-.46-2.219.748-4.489,4.075-5.519l-.51-2.458,1.784-.37.5,2.415a9.527,9.527,0,0,1,4.692.411l-.436,2.382a9.216,9.216,0,0,0-3.768-.444l.912,4.394c2.537.087,5.327.3,5.954,3.326C-449.83,2366.839-451.065,2369.091-454.408,2370.147Zm-3.715-8.941-.8-3.873c-1.495.56-1.984,1.479-1.786,2.436C-460.5,2360.813-459.461,2361.1-458.123,2361.207Zm5.088,4.187c-.221-1.066-1.282-1.367-2.664-1.467l.8,3.851C-453.361,2367.208-452.84,2366.329-453.034,2365.393Z" transform="translate(463.586 -2352.135)"/></g></g></g><g transform="translate(4.393 22.348)"><path class="q" d="M-475.671,2378.765a.957.957,0,0,1-.143-.154l-.385-.466c-.168-.2-.368-.454-.579-.761s-.471-.645-.71-1.05l-.389-.627c-.134-.219-.252-.459-.387-.7-.276-.48-.517-1.02-.782-1.582a25.274,25.274,0,0,1-1.314-3.821,25.214,25.214,0,0,1-.631-3.992c-.03-.621-.07-1.211-.051-1.764.005-.277,0-.543.014-.8s.033-.5.049-.737c.021-.469.091-.89.135-1.26a9.32,9.32,0,0,1,.154-.943c.049-.242.09-.439.121-.592a1.033,1.033,0,0,1,.053-.2.944.944,0,0,1-.019.21c-.023.154-.052.353-.089.6s-.093.574-.124.945-.1.789-.109,1.257l-.038.732c-.011.254,0,.52,0,.795-.012.549.033,1.135.066,1.751a26.357,26.357,0,0,0,.64,3.963,26.336,26.336,0,0,0,1.292,3.8c.259.561.494,1.1.763,1.578.131.243.246.482.376.7l.377.629c.23.406.48.748.685,1.059s.393.569.553.776l.358.485A.915.915,0,0,1-475.671,2378.765Z" transform="translate(481.047 -2359.312)"/></g><g transform="translate(20.117 21.689)"><path class="q" d="M-461.557,2362.809a1.466,1.466,0,0,1-.609-.4,2.8,2.8,0,0,1-.831-1.544,2.8,2.8,0,0,1,.272-1.733,1.474,1.474,0,0,1,.443-.576c.024.019-.158.229-.333.63a2.948,2.948,0,0,0-.211,1.651,2.955,2.955,0,0,0,.746,1.487C-461.782,2362.644-461.541,2362.784-461.557,2362.809Z" transform="translate(463.035 -2358.557)"/></g><g transform="translate(23.779 17.043)"><path class="q" d="M-458.522,2354.667a1.611,1.611,0,0,1-.234-.7,1.618,1.618,0,0,1-.063-.733,1.609,1.609,0,0,1,.234.7A1.6,1.6,0,0,1-458.522,2354.667Z" transform="translate(458.841 -2353.236)"/></g><g transform="translate(12.021 8.568)"><path class="q" d="M-459.867,2343.533a3.428,3.428,0,0,1-.563.094c-.182.022-.4.052-.66.1s-.55.09-.868.169-.669.15-1.038.26c-.373.095-.76.233-1.171.369a20,20,0,0,0-2.57,1.135,20.239,20.239,0,0,0-2.367,1.516c-.341.267-.669.515-.954.774s-.554.493-.79.722-.438.443-.62.629-.331.353-.45.492a3.5,3.5,0,0,1-.39.418,3.555,3.555,0,0,1,.338-.461c.112-.147.252-.323.43-.515s.367-.423.605-.652.487-.49.781-.743.612-.519.952-.792a18.972,18.972,0,0,1,2.382-1.542,19.057,19.057,0,0,1,2.6-1.133c.416-.132.808-.265,1.187-.355.374-.106.727-.178,1.051-.241s.619-.105.877-.145.483-.062.667-.073A3.474,3.474,0,0,1-459.867,2343.533Z" transform="translate(472.309 -2343.528)"/></g><g transform="translate(23.593 48.144)"><path class="q" d="M-448.334,2388.861a1.965,1.965,0,0,1-.385.2c-.252.118-.625.266-1.094.43a16.93,16.93,0,0,1-3.787.835,16.991,16.991,0,0,1-3.879-.052c-.492-.065-.888-.136-1.159-.2a2.146,2.146,0,0,1-.416-.113,1.99,1.99,0,0,1,.429.046c.273.045.67.1,1.16.146a19.46,19.46,0,0,0,3.847,0,19.466,19.466,0,0,0,3.766-.779c.471-.147.849-.278,1.107-.376A2.022,2.022,0,0,1-448.334,2388.861Z" transform="translate(459.054 -2388.86)"/></g></g></g><g transform="translate(513.599 5621)"><g transform="translate(0 0)"><g transform="translate(0)"><g transform="translate(0)"><g transform="translate(0)"><circle class="e" cx="36.531" cy="36.531" r="36.531" transform="matrix(0.252, -0.968, 0.968, 0.252, 0, 70.699)"/><g class="p" transform="translate(9.203 8.024)"><path class="q" d="M-169.609,2339.857a36.529,36.529,0,0,0-44.529,26.194s24.56,7.553,33.132-.9S-169.609,2339.857-169.609,2339.857Z" transform="translate(214.138 -2338.679)"/></g><g transform="translate(16.371 16.081)"><path class="e" d="M-151.267,2382.654a27.769,27.769,0,0,1-33.851,19.913,27.769,27.769,0,0,1-19.913-33.851,27.769,27.769,0,0,1,33.852-19.913A27.769,27.769,0,0,1-151.267,2382.654Z" transform="translate(205.927 -2347.907)"/></g><g class="m" transform="translate(16.371 16.081)"><path d="M-151.267,2382.654a27.769,27.769,0,0,1-33.851,19.913,27.769,27.769,0,0,1-19.913-33.851,27.769,27.769,0,0,1,33.852-19.913A27.769,27.769,0,0,1-151.267,2382.654Z" transform="translate(205.927 -2347.907)"/></g><g transform="translate(17.574 17.865)"><path class="e" d="M-150.624,2384.23a27.4,27.4,0,0,1-33.4,19.645,27.4,27.4,0,0,1-19.646-33.4,27.4,27.4,0,0,1,33.4-19.645A27.4,27.4,0,0,1-150.624,2384.23Z" transform="translate(204.549 -2349.95)"/></g><g class="m" transform="translate(17.574 17.865)"><path class="q" d="M-150.624,2384.23a27.4,27.4,0,0,1-33.4,19.645,27.4,27.4,0,0,1-19.646-33.4,27.4,27.4,0,0,1,33.4-19.645A27.4,27.4,0,0,1-150.624,2384.23Z" transform="translate(204.549 -2349.95)"/></g></g></g><g transform="translate(31.903 27.155)"><g transform="translate(0.903 0.698)"><path class="e" d="M-173.277,2376.782l1.759-6.785.033.009a14.411,14.411,0,0,1,3.362,1.874,11.749,11.749,0,0,1,1.413,1.5l.144-.187,1.681-2.171.386-.5-.879-1.584-.65.111a13.091,13.091,0,0,0-4.547-2.693l.967-3.731-.919-1.238-.243.937-1.6-.414-.985,3.8c-5.375-.855-8.639,1.492-9.527,4.921-1.212,4.673,2.476,6.92,5.972,8.8l-1.743,6.723a13.328,13.328,0,0,1-6.061-4.3l-2.393,3c1.356,1.966,4.271,3.87,7.512,4.926l-.73,2.818-1.318-.318,1.081,1.231,2.757.715.976-3.765c5.417.83,8.706-1.473,9.595-4.9C-166.018,2380.887-169.78,2378.657-173.277,2376.782Zm-2.574-1.42c-1.8-1.077-3.056-2.191-2.637-3.806.383-1.478,1.706-2.427,4.189-2.178Zm4.335-5.37h0Zm-4.358,16.809,1.543-5.951c1.869,1.1,3.147,2.251,2.72,3.9C-171.985,2386.193-173.324,2387.066-175.874,2386.8Z" transform="translate(187.102 -2361.391)"/></g><g class="t" transform="translate(0.903 0.698)"><path d="M-173.277,2376.782l1.759-6.785.033.009a14.411,14.411,0,0,1,3.362,1.874,11.749,11.749,0,0,1,1.413,1.5l.144-.187,1.681-2.171.386-.5-.879-1.584-.65.111a13.091,13.091,0,0,0-4.547-2.693l.967-3.731-.919-1.238-.243.937-1.6-.414-.985,3.8c-5.375-.855-8.639,1.492-9.527,4.921-1.212,4.673,2.476,6.92,5.972,8.8l-1.743,6.723a13.328,13.328,0,0,1-6.061-4.3l-2.393,3c1.356,1.966,4.271,3.87,7.512,4.926l-.73,2.818-1.318-.318,1.081,1.231,2.757.715.976-3.765c5.417.83,8.706-1.473,9.595-4.9C-166.018,2380.887-169.78,2378.657-173.277,2376.782Zm-2.574-1.42c-1.8-1.077-3.056-2.191-2.637-3.806.383-1.478,1.706-2.427,4.189-2.178Zm4.335-5.37h0Zm-4.358,16.809,1.543-5.951c1.869,1.1,3.147,2.251,2.72,3.9C-171.985,2386.193-173.324,2387.066-175.874,2386.8Z" transform="translate(187.102 -2361.391)"/></g><path class="e" d="M-177.856,2389.145l-.977,3.766-2.757-.714.968-3.732c-3.242-1.056-6.158-2.961-7.514-4.927l2.393-3a13.343,13.343,0,0,0,6.062,4.3l1.743-6.724c-3.5-1.875-7.184-4.124-5.972-8.8.89-3.429,4.153-5.777,9.529-4.921l.985-3.8,2.757.715-.968,3.732a14.893,14.893,0,0,1,6.295,3.82l-2.259,3.038a14.382,14.382,0,0,0-4.975-3.228l-1.761,6.792c3.5,1.876,7.26,4.107,6.048,8.78C-169.148,2387.672-172.438,2389.976-177.856,2389.145Zm.973-15.1,1.551-5.985c-2.483-.249-3.8.7-4.189,2.178C-179.938,2371.849-178.685,2372.963-176.883,2374.041Zm4.24,9.388c.427-1.647-.852-2.8-2.721-3.9l-1.543,5.952C-174.355,2385.747-173.017,2384.875-172.642,2383.429Z" transform="translate(188.136 -2360.591)"/></g></g><g transform="translate(37.547 18.157)"><path class="u" d="M-181.671,2404.052a1.527,1.527,0,0,1,.224.032l.652.121,1.056.205a10.375,10.375,0,0,0,1.448.227l1.828.177a7.478,7.478,0,0,0,1.048.035h1.134c.391-.013.8.024,1.214-.028l1.288-.129c.441-.053.9-.069,1.36-.156l1.414-.281a29.194,29.194,0,0,0,6.106-2.013q.769-.4,1.564-.821c.264-.142.535-.274.8-.426s.511-.333.768-.5c.512-.344,1.051-.663,1.56-1.041q.742-.6,1.506-1.2l.382-.305c.123-.108.237-.227.356-.34l.713-.693.721-.7a10.139,10.139,0,0,0,.673-.761c.435-.524.9-1.034,1.322-1.584q.593-.858,1.2-1.731a29.668,29.668,0,0,0,3.511-7.992,29.693,29.693,0,0,0,.815-8.694q-.1-1.057-.206-2.1c-.1-.687-.261-1.358-.386-2.028-.076-.331-.111-.671-.218-.992s-.195-.643-.291-.962-.192-.636-.287-.952c-.05-.157-.092-.317-.147-.47l-.186-.453q-.371-.9-.732-1.784c-.261-.577-.577-1.119-.857-1.669q-.215-.409-.428-.812c-.155-.261-.328-.508-.49-.76l-.968-1.478a29.191,29.191,0,0,0-4.359-4.727l-1.1-.933c-.361-.3-.753-.536-1.113-.8l-1.063-.738c-.338-.248-.712-.414-1.048-.615s-.672-.374-.99-.552a7.653,7.653,0,0,0-.934-.478l-1.683-.734a10.466,10.466,0,0,0-1.376-.506q-.6-.2-1.023-.334l-.628-.21a1.448,1.448,0,0,1-.211-.081,1.533,1.533,0,0,1,.219.054l.636.185,1.033.31a10.074,10.074,0,0,1,1.389.483l1.7.715a7.439,7.439,0,0,1,.943.471l1,.545c.34.2.717.362,1.059.609l1.075.733c.363.259.76.5,1.125.794l1.113.933a29.106,29.106,0,0,1,4.417,4.74l.981,1.486c.164.253.339.5.5.765l.434.818c.284.553.605,1.1.87,1.681l.743,1.8.189.457c.056.154.1.315.149.474l.292.96q.147.483.3.971c.108.323.146.666.223,1,.127.676.289,1.354.393,2.047q.1,1.047.211,2.115a29.826,29.826,0,0,1-.819,8.78,29.834,29.834,0,0,1-3.55,8.068l-1.212,1.746c-.428.555-.9,1.069-1.338,1.6-.23.255-.429.536-.681.766l-.73.706-.721.7c-.121.113-.236.234-.361.342l-.387.307-1.523,1.21c-.514.38-1.06.7-1.577,1.046l-.777.5c-.265.153-.54.285-.806.427l-1.58.821a29.085,29.085,0,0,1-6.162,2l-1.427.274c-.464.084-.925.1-1.37.148l-1.3.118c-.419.05-.829.009-1.221.018l-1.14-.01a7.315,7.315,0,0,1-1.053-.047l-1.833-.2a10.142,10.142,0,0,1-1.449-.253l-1.054-.23-.646-.147A1.213,1.213,0,0,1-181.671,2404.052Z" transform="translate(181.671 -2350.285)"/></g><g transform="translate(9.082 22.72)"><path class="q" d="M-213.209,2386.138a1.448,1.448,0,0,1-.094-.316c-.056-.238-.128-.543-.217-.919a14.925,14.925,0,0,1-.285-1.469c-.087-.576-.216-1.229-.271-1.962-.035-.367-.072-.75-.112-1.148s-.038-.817-.059-1.248c-.055-.864-.02-1.787,0-2.759a39.408,39.408,0,0,1,.8-6.267,39.521,39.521,0,0,1,1.875-6.034c.389-.892.74-1.746,1.149-2.51.2-.383.374-.763.572-1.111l.579-1c.354-.644.742-1.185,1.061-1.673s.615-.895.869-1.217l.58-.746a1.442,1.442,0,0,1,.216-.248,1.546,1.546,0,0,1-.173.282l-.538.774c-.24.331-.526.741-.827,1.239s-.681,1.04-1.022,1.687l-.56,1c-.193.349-.362.729-.554,1.112-.4.762-.739,1.614-1.118,2.5a41.081,41.081,0,0,0-1.842,6,40.958,40.958,0,0,0-.815,6.22c-.024.965-.067,1.882-.023,2.74.017.43.013.845.044,1.242s.064.778.093,1.143c.042.731.156,1.382.229,1.958s.157,1.069.238,1.471c.069.38.124.687.168.928A1.574,1.574,0,0,1-213.209,2386.138Z" transform="translate(214.276 -2355.512)"/></g><g transform="translate(36.847 32.819)"><path class="q" d="M-181.622,2373.544a2.315,2.315,0,0,1-.58-.978,4.365,4.365,0,0,1-.1-2.741,4.367,4.367,0,0,1,1.58-2.24,2.278,2.278,0,0,1,1.02-.5c.02.042-.38.214-.9.652a4.613,4.613,0,0,0-1.438,2.168,4.615,4.615,0,0,0,.018,2.6C-181.824,2373.157-181.582,2373.519-181.622,2373.544Z" transform="translate(182.474 -2367.079)"/></g><g transform="translate(46.342 28.334)"><path class="q" d="M-171.568,2364.153a2.52,2.52,0,0,1,.155-1.14c.159-.611.346-1.09.419-1.072a2.517,2.517,0,0,1-.155,1.141A2.515,2.515,0,0,1-171.568,2364.153Z" transform="translate(171.597 -2361.941)"/></g><g transform="translate(31.665 14.864)"><path class="q" d="M-166.347,2348.564a5.692,5.692,0,0,1-.856-.259c-.27-.094-.6-.206-1-.312s-.832-.255-1.332-.364-1.042-.253-1.635-.353c-.589-.124-1.227-.2-1.9-.294a31.514,31.514,0,0,0-4.389-.186,31.286,31.286,0,0,0-4.367.489c-.661.14-1.293.26-1.872.424-.585.142-1.119.31-1.606.466s-.921.318-1.3.454-.709.267-.973.38a5.639,5.639,0,0,1-.836.317,5.565,5.565,0,0,1,.793-.414c.258-.128.577-.277.959-.424s.807-.34,1.3-.5,1.022-.35,1.61-.5c.581-.176,1.216-.305,1.882-.453a29.563,29.563,0,0,1,4.4-.515,29.423,29.423,0,0,1,4.43.209c.674.1,1.317.186,1.908.322.6.11,1.143.253,1.64.388s.94.28,1.331.4.72.247.987.358A5.493,5.493,0,0,1-166.347,2348.564Z" transform="translate(188.409 -2346.513)"/></g><g transform="translate(24.388 73.335)"><path class="q" d="M-180.954,2419.365a3.18,3.18,0,0,1-.675.008c-.435-.009-1.062-.057-1.833-.152a26.545,26.545,0,0,1-5.888-1.448,26.549,26.549,0,0,1-5.4-2.754c-.645-.433-1.152-.806-1.486-1.084a3.208,3.208,0,0,1-.506-.446,3.183,3.183,0,0,1,.569.362c.352.25.873.6,1.527,1.006a30.3,30.3,0,0,0,5.393,2.66,30.283,30.283,0,0,0,5.82,1.514c.762.118,1.383.2,1.813.236A3.36,3.36,0,0,1-180.954,2419.365Z" transform="translate(196.744 -2413.487)"/></g></g><g transform="translate(7.895 7.909)"><path class="u" d="M-143.606,2384.369s.037-.2.121-.581.234-.947.358-1.7a36.857,36.857,0,0,0,.641-6.64,36.04,36.04,0,0,0-.3-4.811,35.2,35.2,0,0,0-1.172-5.611,36.917,36.917,0,0,0-6.372-12.348,35.578,35.578,0,0,0-5.7-5.771,35.505,35.505,0,0,0-7.447-4.66,36.267,36.267,0,0,0-8.961-2.856,36.533,36.533,0,0,0-4.9-.563,38.708,38.708,0,0,0-5.061.123,36.5,36.5,0,0,0-19.568,8.042,35.844,35.844,0,0,0-4.071,3.879,33.979,33.979,0,0,0-3.476,4.536,36.677,36.677,0,0,0-4.686,10.654,36.682,36.682,0,0,0-1.083,11.592c.051.96.179,1.909.3,2.857.161.94.312,1.878.536,2.8a35.817,35.817,0,0,0,1.674,5.371,36.508,36.508,0,0,0,13.2,16.541,38.976,38.976,0,0,0,4.363,2.566,36.435,36.435,0,0,0,4.553,1.885,36.276,36.276,0,0,0,9.221,1.858,35.552,35.552,0,0,0,8.773-.456,35.64,35.64,0,0,0,7.783-2.278,36.908,36.908,0,0,0,11.569-7.7,35.286,35.286,0,0,0,3.75-4.333,36.243,36.243,0,0,0,2.6-4.058,36.951,36.951,0,0,0,2.665-6.114c.258-.719.391-1.289.513-1.66s.176-.566.176-.566-.181.783-.637,2.242a35.854,35.854,0,0,1-2.625,6.149,36.017,36.017,0,0,1-2.59,4.084,35.237,35.237,0,0,1-3.747,4.365,36.974,36.974,0,0,1-11.6,7.768,35.868,35.868,0,0,1-7.821,2.307,35.692,35.692,0,0,1-8.825.474,36.465,36.465,0,0,1-9.281-1.856,36.574,36.574,0,0,1-4.586-1.894,39.088,39.088,0,0,1-4.4-2.579,36.733,36.733,0,0,1-13.3-16.649,36.072,36.072,0,0,1-1.688-5.41c-.227-.927-.379-1.873-.541-2.819-.119-.955-.249-1.911-.3-2.878a36.885,36.885,0,0,1,1.09-11.678,36.881,36.881,0,0,1,4.721-10.732,34.12,34.12,0,0,1,3.5-4.569,36,36,0,0,1,4.1-3.907,36.735,36.735,0,0,1,19.713-8.085,39.151,39.151,0,0,1,5.1-.119,36.652,36.652,0,0,1,4.927.573,36.483,36.483,0,0,1,9.014,2.887,35.729,35.729,0,0,1,7.484,4.7,35.808,35.808,0,0,1,5.716,5.816,36.978,36.978,0,0,1,6.367,12.425,35.276,35.276,0,0,1,1.155,5.635,36.194,36.194,0,0,1,.28,4.829,35.971,35.971,0,0,1-.693,6.65C-143.383,2383.6-143.606,2384.369-143.606,2384.369Z" transform="translate(215.636 -2338.547)"/></g></g><g transform="translate(285.736 5620.336)"><g transform="translate(0)"><rect class="v" width="87.023" height="83.786" rx="8.41"/></g><g transform="translate(6.082 8.851)"><g transform="translate(0 48.548)"><rect class="d" width="2.856" height="0.823"/></g><g transform="translate(6.461 52.948)"><rect class="d" width="3.652" height="0.823"/></g><g transform="translate(19.176 52.948)"><rect class="d" width="3.652" height="0.823"/></g><g transform="translate(31.891 52.948)"><rect class="d" width="3.652" height="0.823"/></g><g transform="translate(44.605 52.948)"><rect class="d" width="3.652" height="0.823"/></g><g transform="translate(57.32 52.948)"><rect class="d" width="3.652" height="0.823"/></g><g transform="translate(70.035 52.948)"><rect class="d" width="3.652" height="0.823"/></g><g transform="translate(0 37.556)"><rect class="d" width="2.856" height="0.823"/></g><g transform="translate(0 16.867)"><rect class="d" width="2.856" height="0.823"/></g><g transform="translate(0 6.471)"><rect class="d" width="2.856" height="0.823"/></g><g transform="translate(0.145 27.211)"><rect class="d" width="2.856" height="0.823"/></g><g transform="translate(4.212)"><path class="d" d="M438.457,316.1s-.1.009-.306.014l-.9.013-3.456.025-12.709.043-41.932.04-9.937,0h-.134V316.1c.018-14.021.034-26.36.046-35.205.017-4.411.031-7.949.04-10.4.01-1.21.018-2.15.023-2.8.005-.311.009-.552.012-.725s.012-.246.012-.246.008.083.012.246.007.413.012.725c.005.648.013,1.588.023,2.8.01,2.447.023,5.986.041,10.4.011,8.845.028,21.184.046,35.205l-.134-.134,9.937,0,41.932.04,12.709.043,3.456.025.9.013C438.353,316.09,438.457,316.1,438.457,316.1Z" transform="translate(-369.084 -266.729)"/></g><g transform="translate(7.108 27.488)"><path class="d" d="M441.936,319.738c0,.075-15.062.136-33.639.136s-33.642-.061-33.642-.136,15.059-.135,33.642-.135S441.936,319.663,441.936,319.738Z" transform="translate(-374.655 -319.603)"/></g><g transform="translate(7.108 17.143)"><path class="d" d="M441.936,299.841c0,.075-15.062.135-33.639.135s-33.642-.06-33.642-.135,15.059-.136,33.642-.136S441.936,299.766,441.936,299.841Z" transform="translate(-374.655 -299.705)"/></g><g transform="translate(7.108 6.747)"><path class="d" d="M441.936,279.842c0,.075-15.062.136-33.639.136s-33.642-.061-33.642-.136,15.059-.135,33.642-.135S441.936,279.768,441.936,279.842Z" transform="translate(-374.655 -279.707)"/></g><g transform="translate(7.108 37.832)"><path class="d" d="M441.936,339.636c0,.074-15.062.135-33.639.135s-33.642-.061-33.642-.135,15.059-.136,33.642-.136S441.936,339.561,441.936,339.636Z" transform="translate(-374.655 -339.5)"/></g><g transform="translate(7.802 0.763)"><path class="s" d="M375.989,314.578V305.4l5.72-8.88,3.882,2.978,7.967-12.376,4.7,3.309,6.537-11.417,5.312,4.327,7.968-15.145,8.58,16.928,6.946-8.47,8.172-2.338v40.262Z" transform="translate(-375.989 -268.196)"/></g><g transform="translate(7.802 3.548)"><path class="d" d="M442.576,273.629a.71.71,0,0,1-.144.01l-.426.01-1.658.019-6.271.035.06-.029-6.719,8.783-.032.042h-.053l-16.824.023.112-.063-7.073,11.775c-2.409,4.005-4.742,7.881-6.944,11.542l-.1.169-.115-.16-9.113-12.531.182-.006L379.143,306.2l-2.319,3.58-.615.935c-.14.21-.22.314-.22.314s.06-.115.191-.332l.588-.952,2.268-3.613,8.234-13,.087-.137.1.131,9.145,12.508-.217.009,6.936-11.547,7.082-11.77.038-.063h.073l16.824.023-.085.042,6.769-8.744.023-.03h.036l6.271.035,1.658.019.426.01A.824.824,0,0,1,442.576,273.629Z" transform="translate(-375.989 -273.554)"/></g><g transform="translate(20.643 25.505)"><path class="d" d="M401.98,316.411a.646.646,0,1,1-.646-.621A.634.634,0,0,1,401.98,316.411Z" transform="translate(-400.689 -315.79)"/></g><g transform="translate(40.048 14.476)"><path class="d" d="M439.307,295.2a.646.646,0,1,1-.646-.621A.634.634,0,0,1,439.307,295.2Z" transform="translate(-438.016 -294.574)"/></g><g transform="translate(55.134 11.766)"><path class="d" d="M468.325,289.983a.646.646,0,1,1-.646-.622A.634.634,0,0,1,468.325,289.983Z" transform="translate(-467.034 -289.361)"/></g></g><g transform="translate(12.543 68.777)"><ellipse class="q" cx="4.174" cy="4.019" rx="4.174" ry="4.019"/></g><g transform="translate(27.084 70.104)"><rect class="q" width="49.032" height="1.504"/></g><g transform="translate(27.084 73.86)"><rect class="q" width="20.359" height="1.504"/></g></g></g></svg>