<svg xmlns="http://www.w3.org/2000/svg" width="228.657" height="180.604" viewBox="0 0 228.657 180.604"><defs><style>.a{fill:#f5f5f5;}.b{fill:#e0e0e0;}.c{fill:#fafafa;}.d{fill:#ebebeb;}.e{fill:#fff;}.f{fill:#263238;}.g{fill:#d9a171;}.h{fill:#6595bf;}.i{fill:#a66d58;}.j{fill:#455a64;}.k{fill:#5e6178;}.l{fill:#f2e9e4;}.m{opacity:0.2;}.n{fill:#aed3f2;}.o{fill:#344154;}.p{fill:#ffbf9d;}.q{fill:#ff9a6c;}.r{fill:#ececec;}</style></defs><g transform="translate(-238.416 -2433.654)"><g transform="translate(220.951 2408.486)"><g transform="translate(26.661 25.168)"><g transform="translate(0 8.516)"><rect class="a" width="44.663" height="46.426" rx="3.956"/><g transform="translate(10.389 10.474)"><path class="b" d="M61.168,62.781a12.35,12.35,0,1,0,12.349,12.35A12.349,12.349,0,0,0,61.168,62.781Zm.186,19.749a7.586,7.586,0,1,1,7.586-7.586A7.586,7.586,0,0,1,61.355,82.53Z" transform="translate(-48.819 -62.781)"/><g transform="translate(0 0.005)"><g transform="translate(12.538)"><path class="c" d="M73.653,62.791c0,1.314,0,3.086,0,4.572a7.589,7.589,0,0,1,7.228,9.886l4.476,1.214a12.346,12.346,0,0,0-11.7-15.673Z" transform="translate(-73.652 -62.791)"/></g><g transform="translate(0 0.964)"><path class="d" d="M53.769,75.895a7.586,7.586,0,0,1,4.5-6.928l-1.9-4.266a12.353,12.353,0,0,0-7.547,11.381c0,.174.006.346.013.518H53.8C53.781,76.367,53.769,76.132,53.769,75.895Z" transform="translate(-48.819 -64.7)"/></g><g transform="translate(10.097 14.458)"><path class="d" d="M71.256,96.714a7.6,7.6,0,0,1-1.6-.172c-.191,1.1-.551,3.233-.835,4.912a12.338,12.338,0,0,0,14.145-8.813l-4.476-1.214A7.589,7.589,0,0,1,71.256,96.714Z" transform="translate(-68.817 -91.428)"/></g></g><g transform="translate(8.295 10.512)"><g transform="translate(0 0.048)"><path class="b" d="M67.851,85.915h-.457V86.5h-.633v-.589H65.249v-.437l1.323-1.78h.682l-1.227,1.688h.754v-.525h.613v.525h.457Z" transform="translate(-65.249 -83.698)"/></g><g transform="translate(2.794)"><path class="b" d="M70.782,85.054c0-.926.513-1.452,1.2-1.452s1.2.526,1.2,1.452-.509,1.452-1.2,1.452S70.782,85.979,70.782,85.054Zm1.752,0c0-.638-.224-.9-.549-.9s-.545.265-.545.9.224.9.545.9S72.534,85.691,72.534,85.054Z" transform="translate(-70.782 -83.602)"/></g><g transform="translate(5.467 0.016)"><path class="b" d="M76.078,84.408a.7.7,0,1,1,.7.774A.7.7,0,0,1,76.078,84.408Zm.99,0c0-.3-.116-.445-.293-.445s-.292.148-.292.445.12.445.292.445S77.068,84.708,77.068,84.408Zm1.379-.742h.477l-1.917,2.806h-.477Zm-.461,2.064a.7.7,0,1,1,.693.774A.7.7,0,0,1,77.986,85.731Zm.986,0c0-.3-.116-.445-.293-.445s-.292.144-.292.445.12.445.292.445S78.972,86.028,78.972,85.731Z" transform="translate(-76.078 -83.634)"/></g></g><g transform="translate(2.131 27.698)"><path class="b" d="M73.477,117.758c0,.065-4.575.117-10.218.117s-10.219-.053-10.219-.117,4.575-.117,10.219-.117S73.477,117.694,73.477,117.758Z" transform="translate(-53.039 -117.641)"/><g transform="translate(4.552 1.877)"><path class="b" d="M73.389,121.475c0,.065-2.538.117-5.667.117s-5.668-.053-5.668-.117,2.537-.117,5.668-.117S73.389,121.411,73.389,121.475Z" transform="translate(-62.054 -121.358)"/></g></g></g><g transform="translate(3.328 2.826)"><circle class="b" cx="1.124" cy="1.124" r="1.124"/><g transform="translate(2.902)"><circle class="b" cx="1.124" cy="1.124" r="1.124"/></g><g transform="translate(5.803 0)"><path class="b" d="M48.575,48.757a1.124,1.124,0,1,1-1.124-1.124A1.124,1.124,0,0,1,48.575,48.757Z" transform="translate(-46.327 -47.633)"/></g></g></g><g transform="translate(154.727)"><path class="d" d="M382.985,50.11a6.753,6.753,0,0,1-.172-1.515,12.4,12.4,0,0,0-.2-1.818,17.793,17.793,0,0,0-.478-2.444,22.91,22.91,0,0,0-2.538-6.286,23.546,23.546,0,0,0-5.845-6.733A23.29,23.29,0,0,0,351.8,27.542a21.815,21.815,0,0,0-5.938,3.029,21.215,21.215,0,0,0-5.012,4.812,23.1,23.1,0,0,0-.666,27.388,26.329,26.329,0,0,0,2.2,2.747,26.253,26.253,0,0,0,2.572,2.3,21.816,21.816,0,0,0,5.785,3.315,23.467,23.467,0,0,0,28.277-9.145,22.9,22.9,0,0,0,2.839-6.155,17.843,17.843,0,0,0,.6-2.417,12.434,12.434,0,0,0,.291-1.806,6.716,6.716,0,0,1,.245-1.5A6.635,6.635,0,0,1,383,51.636a10.688,10.688,0,0,1-.17,1.847,16.561,16.561,0,0,1-.489,2.49,22.412,22.412,0,0,1-2.71,6.408,24.143,24.143,0,0,1-16.547,11.182,24.362,24.362,0,0,1-12.789-1.3,22.923,22.923,0,0,1-6.115-3.452,27.324,27.324,0,0,1-2.722-2.417,27.447,27.447,0,0,1-2.335-2.886,24.278,24.278,0,0,1,.7-28.907,22.34,22.34,0,0,1,5.307-5.05,22.906,22.906,0,0,1,6.274-3.15,24.362,24.362,0,0,1,12.835-.681,24.147,24.147,0,0,1,15.986,11.971,22.438,22.438,0,0,1,2.4,6.533A16.505,16.505,0,0,1,383,46.732a10.616,10.616,0,0,1,.08,1.853A6.645,6.645,0,0,1,382.985,50.11Z" transform="translate(-334.703 -25.168)"/><g transform="translate(6.133 9.143)"><path class="d" d="M384.234,44.2c.053.073-.377.447-1.207,1.064l-1.533,1.1c-.3.208-.621.443-.975.665l-1.173.613a26.888,26.888,0,0,1-14,3.526l-2.119-.094-2.034-.318c-.332-.056-.664-.1-.988-.166l-.95-.253c-.625-.173-1.243-.32-1.831-.508a30.7,30.7,0,0,1-5.941-2.737c-3.192-1.93-4.745-3.686-4.625-3.8.129-.148,1.864,1.322,5.079,2.991a35.782,35.782,0,0,0,5.848,2.393c.57.166,1.166.291,1.767.445l.913.226.947.143,1.944.286,2.02.082a28.993,28.993,0,0,0,13.559-3.045l1.186-.515c.361-.189.689-.391,1-.566l1.626-.9C383.652,44.354,384.181,44.122,384.234,44.2Z" transform="translate(-346.849 -43.278)"/></g><g transform="translate(5.409 32.037)"><path class="d" d="M345.421,95.606c-.052-.074.377-.447,1.207-1.064l1.533-1.1c.3-.208.622-.443.975-.664l1.173-.613a26.885,26.885,0,0,1,14-3.526l2.119.094,2.034.318c.332.056.664.1.989.166l.95.253c.625.173,1.243.32,1.831.509a30.655,30.655,0,0,1,5.941,2.737c3.192,1.93,4.745,3.686,4.625,3.8-.129.148-1.864-1.322-5.079-2.991a35.807,35.807,0,0,0-5.848-2.393c-.57-.166-1.166-.291-1.767-.445l-.913-.226-.947-.143-1.944-.286-2.02-.082a28.993,28.993,0,0,0-13.559,3.045l-1.186.515c-.361.189-.689.392-1,.566l-1.626.9C346,95.447,345.473,95.679,345.421,95.606Z" transform="translate(-345.416 -88.623)"/></g><g transform="translate(0.644 24.043)"><path class="d" d="M383.6,74.241c-.009.362-10.678.4-23.827.077s-23.806-.871-23.8-1.233,10.676-.4,23.829-.076S383.612,73.88,383.6,74.241Z" transform="translate(-335.979 -72.789)"/></g><g transform="translate(23.063 0.545)"><path class="d" d="M380.678,73.855c-.361-.009-.4-10.674-.077-23.819s.871-23.8,1.233-23.789.4,10.672.076,23.821S381.04,73.864,380.678,73.855Z" transform="translate(-380.383 -26.247)"/></g><g transform="translate(11.512 0.531)"><path class="d" d="M369.351,73.806c-.089.138-2.713-1.641-5.742-5.669a32.03,32.03,0,0,1-4.257-7.729,28.726,28.726,0,0,1-1.843-10.671,27.324,27.324,0,0,1,2.4-10.564,33.114,33.114,0,0,1,4.651-7.491c3.208-3.875,5.853-5.594,5.941-5.456.129.149-2.267,2.1-5.212,6.026a35.68,35.68,0,0,0-4.273,7.4,27.438,27.438,0,0,0-2.2,10.11,29,29,0,0,0,1.667,10.232,34.37,34.37,0,0,0,3.879,7.608C367.121,71.661,369.484,73.662,369.351,73.806Z" transform="translate(-357.503 -26.219)"/></g><g transform="translate(23.888 0.544)"><path class="d" d="M383.177,26.253c.089-.138,2.713,1.64,5.742,5.668a32.032,32.032,0,0,1,4.257,7.729,28.713,28.713,0,0,1,1.843,10.671,27.324,27.324,0,0,1-2.4,10.564,33.1,33.1,0,0,1-4.652,7.491c-3.207,3.876-5.853,5.594-5.941,5.456-.129-.148,2.267-2.1,5.212-6.026a35.676,35.676,0,0,0,4.273-7.4,27.435,27.435,0,0,0,2.2-10.109,29,29,0,0,0-1.667-10.232,34.37,34.37,0,0,0-3.879-7.608C385.406,28.4,383.044,26.4,383.177,26.253Z" transform="translate(-382.016 -26.245)"/></g></g><g transform="translate(7.012 74.859)"><g transform="translate(3.333 3.676)"><path class="d" d="M308.5,402.345V388.689a13.655,13.655,0,1,1-13.651,13.971Z" transform="translate(-294.852 -388.689)"/></g><path class="a" d="M301.906,395.059l-13.655.309a14.4,14.4,0,0,1,3.869-9.832,14.038,14.038,0,0,1,9.575-4.127Z" transform="translate(-288.251 -381.409)"/></g></g><g transform="translate(71.847 41.331)"><g transform="translate(0)"><g transform="translate(7.108)"><g transform="translate(0.132 0.133)"><path class="e" d="M7.85,0h98.222a8.76,8.76,0,0,1,8.76,8.76V84.915A12.581,12.581,0,0,1,102.252,97.5H12.581A12.581,12.581,0,0,1,0,84.915V7.85A7.85,7.85,0,0,1,7.85,0Z"/><path class="b" d="M6.191,0H107.571a7.1,7.1,0,0,1,7.1,7.1v4.639a0,0,0,0,1,0,0H0a0,0,0,0,1,0,0V6.191A6.191,6.191,0,0,1,6.191,0Z"/><g transform="translate(0.161 11.608)"><path class="f" d="M246.908,80.568c0,.073-25.636.132-57.253.132s-57.258-.059-57.258-.132,25.63-.131,57.258-.131S246.908,80.5,246.908,80.568Z" transform="translate(-132.398 -80.437)"/></g><g transform="translate(4.1 5.042)"><path class="f" d="M142.364,68.514a1.082,1.082,0,1,1-1.082-1.081A1.082,1.082,0,0,1,142.364,68.514Z" transform="translate(-140.2 -67.433)"/><g transform="translate(3.454)"><path class="f" d="M149.206,68.514a1.082,1.082,0,1,1-1.082-1.081A1.082,1.082,0,0,1,149.206,68.514Z" transform="translate(-147.042 -67.433)"/></g><g transform="translate(6.977)"><path class="f" d="M156.184,68.514a1.082,1.082,0,1,1-1.082-1.081A1.082,1.082,0,0,1,156.184,68.514Z" transform="translate(-154.02 -67.433)"/></g></g><g transform="translate(39.461 20.359)"><path class="f" d="M247.227,97.9c0,.073-8.281.132-18.493.132s-18.5-.059-18.5-.132,8.279-.131,18.5-.131S247.227,97.83,247.227,97.9Z" transform="translate(-210.238 -97.771)"/></g><g transform="translate(15.049 28.161)"><path class="f" d="M206.143,113.355c0,.073-9.908.132-22.128.132s-22.13-.059-22.13-.132,9.906-.131,22.13-.131S206.143,113.283,206.143,113.355Z" transform="translate(-161.885 -113.224)"/><g transform="translate(0 4.185)"><path class="f" d="M206.143,121.645c0,.073-9.908.132-22.128.132s-22.13-.059-22.13-.132,9.906-.131,22.13-.131S206.143,121.573,206.143,121.645Z" transform="translate(-161.885 -121.514)"/></g><g transform="translate(0 8.371)"><path class="f" d="M206.143,129.936c0,.073-9.908.131-22.128.131s-22.13-.059-22.13-.131,9.906-.132,22.13-.132S206.143,129.863,206.143,129.936Z" transform="translate(-161.885 -129.804)"/></g><g transform="translate(0 12.557)"><path class="f" d="M206.143,138.226c0,.073-9.908.131-22.128.131s-22.13-.059-22.13-.131,9.906-.131,22.13-.131S206.143,138.154,206.143,138.226Z" transform="translate(-161.885 -138.095)"/></g><g transform="translate(0 16.742)"><path class="f" d="M206.143,146.516c0,.073-9.908.132-22.128.132s-22.13-.059-22.13-.132,9.906-.131,22.13-.131S206.143,146.444,206.143,146.516Z" transform="translate(-161.885 -146.385)"/></g><g transform="translate(0 28.373)"><path class="f" d="M206.143,169.554c0,.073-9.908.131-22.128.131s-22.13-.059-22.13-.131,9.906-.132,22.13-.132S206.143,169.481,206.143,169.554Z" transform="translate(-161.885 -169.422)"/></g><g transform="translate(0 24.158)"><path class="f" d="M206.143,161.2c0,.073-9.908.132-22.128.132s-22.13-.059-22.13-.132,9.906-.131,22.13-.131S206.143,161.131,206.143,161.2Z" transform="translate(-161.885 -161.072)"/></g></g><g transform="translate(75.669 27.435)"><path class="g" d="M293.906,111.785a11.953,11.953,0,1,0,11.953,11.954A11.953,11.953,0,0,0,293.906,111.785Zm.18,19.116a7.343,7.343,0,1,1,7.343-7.342A7.343,7.343,0,0,1,294.086,130.9Z" transform="translate(-281.953 -111.785)"/><g transform="translate(0 0.938)"><path class="b" d="M286.744,124.478a7.343,7.343,0,0,1,4.353-6.706l-1.839-4.129a11.957,11.957,0,0,0-7.3,11.015c0,.168.006.335.013.5h4.81C286.756,124.935,286.744,124.708,286.744,124.478Z" transform="translate(-281.953 -113.643)"/></g><g transform="translate(2.062 26.809)"><path class="f" d="M305.82,165c0,.063-4.429.114-9.891.114s-9.891-.051-9.891-.114,4.428-.113,9.891-.113S305.82,164.935,305.82,165Z" transform="translate(-286.038 -164.885)"/><g transform="translate(4.405 1.816)"><path class="f" d="M305.735,168.6c0,.063-2.456.114-5.486.114s-5.486-.05-5.486-.114,2.456-.113,5.486-.113S305.735,168.532,305.735,168.6Z" transform="translate(-294.763 -168.482)"/></g></g><g transform="translate(8.808 10.19)"><g transform="translate(0 0.035)"><path class="f" d="M301.68,132.038v.488l-.972,2.267h-.85l.928-2.137h-.724v.425H299.4v-1.043Z" transform="translate(-299.398 -132.038)"/></g><g transform="translate(2.363 0.035)"><path class="f" d="M306.344,133.908c0,.492-.37.94-1.2.94a2.082,2.082,0,0,1-1.066-.271l.279-.587a1.4,1.4,0,0,0,.764.228c.263,0,.44-.106.44-.291,0-.169-.114-.28-.535-.28h-.748l.138-1.61h1.755v.6h-1.11l-.035.4h.185C306.026,133.042,306.344,133.419,306.344,133.908Z" transform="translate(-304.078 -132.038)"/></g><g transform="translate(4.765)"><path class="f" d="M308.836,132.731a.709.709,0,1,1,.7.764A.694.694,0,0,1,308.836,132.731ZM311.17,132h.567l-1.881,2.755h-.567Zm-1.4.728c0-.279-.1-.389-.232-.389s-.232.11-.232.389.106.39.232.39S309.773,133.011,309.773,132.731Zm1.008,1.3a.708.708,0,1,1,.7.763A.692.692,0,0,1,310.78,134.03Zm.937,0c0-.28-.1-.39-.232-.39s-.233.11-.233.39.1.389.233.389S311.717,134.31,311.717,134.03Z" transform="translate(-308.836 -131.968)"/></g></g></g><g transform="translate(14.16 61.545)"><g transform="translate(5.653)"><g transform="translate(0 19.327)"><rect class="d" width="3.412" height="7.863"/></g><g transform="translate(11.577 19.327)"><rect class="d" width="3.412" height="7.863"/></g><g transform="translate(5.789 12.169)"><rect class="a" width="3.412" height="15.021"/></g><g transform="translate(17.366 12.169)"><rect class="a" width="3.412" height="15.021"/></g><g transform="translate(23.155 12.599)"><rect class="d" width="3.412" height="14.591"/></g><g transform="translate(34.732 12.599)"><rect class="d" width="3.412" height="14.591"/></g><g transform="translate(46.309 12.599)"><rect class="d" width="3.412" height="14.591"/></g><g transform="translate(28.943 4.942)"><rect class="a" width="3.412" height="22.248"/></g><g transform="translate(40.52 7.119)"><rect class="a" width="3.412" height="20.071"/></g><g transform="translate(63.409 12.599)"><rect class="d" width="3.412" height="14.591"/></g><g transform="translate(57.621 15.399)"><rect class="a" width="3.412" height="11.791"/></g><g transform="translate(75.517 4.813)"><rect class="d" width="3.412" height="22.377"/></g><g transform="translate(69.728 15.399)"><rect class="a" width="3.412" height="11.791"/></g><g transform="translate(81.312 15.399)"><rect class="a" width="3.412" height="11.791"/></g><g transform="translate(52.098 10.194)"><rect class="d" width="3.412" height="16.996"/></g><g transform="translate(29.491 4.065)"><circle class="h" cx="0.877" cy="0.877" r="0.877"/></g><g transform="translate(28.774 3.349)"><path class="h" d="M229.906,189.167a1.594,1.594,0,1,1,1.594-1.594A1.6,1.6,0,0,1,229.906,189.167Zm0-3.06a1.465,1.465,0,1,0,1.466,1.466A1.467,1.467,0,0,0,229.906,186.107Z" transform="translate(-228.312 -185.979)"/></g><g transform="translate(29.843)"><path class="d" d="M231.654,182.052l-.045-1.727.431.007-.806-.985-.806.994.447,0,.044,1.7Z" transform="translate(-230.429 -179.347)"/></g><g transform="translate(0.923 14.856)"><path class="h" d="M174.9,209.649a.877.877,0,1,1-.877-.877A.877.877,0,0,1,174.9,209.649Z" transform="translate(-173.147 -208.772)"/></g><g transform="translate(0.206 14.173)"><path class="h" d="M173.321,210.606a1.594,1.594,0,1,1,1.594-1.594A1.6,1.6,0,0,1,173.321,210.606Zm0-3.059a1.465,1.465,0,1,0,1.466,1.465A1.467,1.467,0,0,0,173.321,207.547Z" transform="translate(-171.728 -207.418)"/></g><g transform="translate(0.868 10.292)"><path class="d" d="M173.441,199.732l.047,1.8-.449-.007.838,1.024.838-1.033-.464,0-.046-1.772Z" transform="translate(-173.039 -199.732)"/></g><g transform="translate(47.303 6.536)"><path class="d" d="M265.414,192.293l.047,1.8-.449-.007.838,1.024.838-1.033-.465,0-.046-1.772Z" transform="translate(-265.012 -192.293)"/></g></g><g transform="translate(0 4.594)"><path class="h" d="M224.05,206.3l-10.277-9.64c-6.51-3.144-16.564-7.777-17.736-7.712-1.313.077-26.234,9.905-35.726,13.685l-.187-.469c1.4-.556,34.22-13.623,35.884-13.72h.036c1.824,0,16.325,6.977,17.984,7.778l.063.043,10.043,9.42c1.9-1.006,12.826-6.768,13.012-6.85.065-.028.238-.1,15.256-.1v.5c-5.761,0-14.42.013-15.078.068-.57.289-8.766,4.611-13.114,6.906Z" transform="translate(-160.124 -188.445)"/></g><g transform="translate(52.916 11.506)"><path class="h" d="M266.688,203.014a.877.877,0,1,1-.878-.877A.877.877,0,0,1,266.688,203.014Z" transform="translate(-264.933 -202.137)"/></g><g transform="translate(52.2 10.823)"><path class="h" d="M265.108,203.971a1.594,1.594,0,1,1,1.594-1.594A1.6,1.6,0,0,1,265.108,203.971Zm0-3.059a1.465,1.465,0,1,0,1.466,1.465A1.467,1.467,0,0,0,265.108,200.912Z" transform="translate(-263.514 -200.784)"/></g><g transform="translate(76.246 14.123)"><path class="h" d="M312.9,208.2a.877.877,0,1,1-.877-.877A.877.877,0,0,1,312.9,208.2Z" transform="translate(-311.141 -207.32)"/></g><g transform="translate(75.529 13.44)"><path class="h" d="M311.316,209.154a1.594,1.594,0,1,1,1.594-1.594A1.6,1.6,0,0,1,311.316,209.154Zm0-3.059a1.465,1.465,0,1,0,1.466,1.465A1.467,1.467,0,0,0,311.316,206.095Z" transform="translate(-309.722 -205.966)"/></g><g transform="translate(76.249 9.787)"><path class="d" d="M311.549,198.731l.047,1.8-.449-.007.838,1.024.838-1.033-.465,0-.046-1.772Z" transform="translate(-311.147 -198.731)"/></g></g></g><path class="f" d="M240.716,154.811s.09-.009.27-.021l.335-.02.461-.072a6.438,6.438,0,0,0,1.262-.373,6.549,6.549,0,0,0,1.547-.95,5.984,5.984,0,0,0,1.445-1.787,6.107,6.107,0,0,0,.7-2.672c0-2.027,0-4.364,0-7-.01-10.531-.024-25.764-.042-44.586-.005-9.413-.01-19.722-.016-30.789q0-2.076,0-4.186a6.929,6.929,0,0,0-.173-2.07,4.06,4.06,0,0,0-1.079-1.749,3.972,3.972,0,0,0-1.816-.993,9.174,9.174,0,0,0-2.132-.119l-4.389,0-18.185.006-80.971.01c-.892.009-1.809-.02-2.675.021a3.555,3.555,0,0,0-3.169,3.5l0,2.663q0,5.32,0,10.567,0,10.493,0,20.66c0,13.545-.006,26.61-.008,39.057q0,4.667,0,9.216,0,2.273,0,4.517a11.568,11.568,0,0,0,.106,2.207,5.973,5.973,0,0,0,4.116,4.591,6.666,6.666,0,0,0,2.112.257h2.153l8.441,0,30.79.016,44.584.042,12.121.024,3.152.013c.71,0,1.074.014,1.074.014s-.364.009-1.074.014l-3.152.013-12.121.025-44.584.042-30.79.016-8.441,0H138.4a6.869,6.869,0,0,1-2.178-.266,6.205,6.205,0,0,1-4.278-4.767,11.751,11.751,0,0,1-.111-2.25q0-2.242,0-4.517,0-4.548,0-9.216c0-12.446,0-25.512-.008-39.057q0-10.159,0-20.66,0-5.246,0-10.567l0-2.665a3.819,3.819,0,0,1,3.4-3.755c.921-.043,1.8-.012,2.7-.022l80.971.01,18.185.006,4.389,0h1.086a4.465,4.465,0,0,1,1.1.127,4.2,4.2,0,0,1,1.917,1.051,4.278,4.278,0,0,1,1.138,1.847,7.124,7.124,0,0,1,.181,2.134q0,2.111,0,4.186c-.006,11.067-.011,21.377-.016,30.789-.018,18.822-.032,34.055-.041,44.586-.008,2.632-.015,4.97-.021,7a6.162,6.162,0,0,1-.717,2.7,6.015,6.015,0,0,1-1.469,1.8,6.538,6.538,0,0,1-1.566.947,6.376,6.376,0,0,1-1.273.363l-.463.066-.336.014C240.807,154.811,240.716,154.811,240.716,154.811Z" transform="translate(-131.818 -57.182)"/></g><g transform="translate(116.35 43.372)"><circle class="a" cx="5.307" cy="5.307" r="5.307" transform="matrix(0.229, -0.973, 0.973, 0.229, 0, 10.332)"/><g transform="translate(1.061 0.966)"><path class="f" d="M350.3,150.413a11.421,11.421,0,0,0,.216,1.283,5.292,5.292,0,0,0,1.937,2.861,5.2,5.2,0,0,0,4.921.725,5.2,5.2,0,0,0,2.4-1.809,5.16,5.16,0,0,0,0-6.121,5.2,5.2,0,0,0-2.4-1.81,5.2,5.2,0,0,0-4.921.726,5.288,5.288,0,0,0-1.937,2.861,11.4,11.4,0,0,0-.216,1.283,4.1,4.1,0,0,1,.116-1.308,5.286,5.286,0,0,1,1.923-2.984,5.339,5.339,0,0,1,2.268-1.028,5.418,5.418,0,0,1,2.849.222,5.421,5.421,0,0,1,2.529,1.886,5.4,5.4,0,0,1,0,6.426,5.427,5.427,0,0,1-2.528,1.885,5.422,5.422,0,0,1-2.848.222,5.353,5.353,0,0,1-4.191-4.012A4.094,4.094,0,0,1,350.3,150.413Z" transform="translate(-350.292 -144.999)"/></g><g transform="translate(5.308 4.875)"><path class="f" d="M358.972,155.752a.252.252,0,0,1-.155-.451l1.364-1.064L358.8,153.2a.252.252,0,1,1,.3-.4l1.639,1.238a.252.252,0,0,1,0,.4l-1.622,1.266A.251.251,0,0,1,358.972,155.752Z" transform="translate(-358.704 -152.743)"/></g></g><g transform="translate(0 43.692)"><circle class="a" cx="5.307" cy="5.307" r="5.307" transform="matrix(0.229, -0.973, 0.973, 0.229, 0, 10.332)"/><g transform="translate(0.941 0.966)"><path class="f" d="M130.349,151.048a11.423,11.423,0,0,0-.216-1.283A5.29,5.29,0,0,0,128.2,146.9a5.2,5.2,0,0,0-4.921-.726,5.2,5.2,0,0,0-2.4,1.81,5.16,5.16,0,0,0,0,6.121,5.2,5.2,0,0,0,2.4,1.81,5.2,5.2,0,0,0,4.921-.726,5.29,5.29,0,0,0,1.937-2.861,11.561,11.561,0,0,0,.216-1.283,4.093,4.093,0,0,1-.117,1.308,5.283,5.283,0,0,1-1.923,2.984,5.346,5.346,0,0,1-2.268,1.028,5.419,5.419,0,0,1-2.849-.222,5.416,5.416,0,0,1-2.529-1.885,5.395,5.395,0,0,1,0-6.426,5.427,5.427,0,0,1,2.528-1.885,5.416,5.416,0,0,1,2.848-.222,5.337,5.337,0,0,1,2.268,1.027,5.281,5.281,0,0,1,1.923,2.984A4.093,4.093,0,0,1,130.349,151.048Z" transform="translate(-119.604 -145.634)"/></g><g transform="translate(5.309 4.875)"><path class="f" d="M130.144,156.386a.251.251,0,0,1-.152-.051l-1.638-1.238a.253.253,0,0,1,0-.4l1.622-1.266a.252.252,0,0,1,.311.4l-1.363,1.064,1.376,1.04a.252.252,0,0,1-.152.454Z" transform="translate(-128.254 -153.377)"/></g></g></g><g transform="translate(73.335 107.687)"><g transform="translate(0.132 0.131)"><rect class="e" width="48.854" height="32.218" rx="5.887"/></g><path class="f" d="M309.006,302.823c0-.009.138-.006.4-.044a2.837,2.837,0,0,0,1.1-.4,2.955,2.955,0,0,0,1.214-1.434,7.368,7.368,0,0,0,.2-2.6c-.01-3.981-.024-9.728-.042-16.827q0-2.664-.009-5.576,0-.727,0-1.469a9,9,0,0,0-.06-1.473,2.879,2.879,0,0,0-1.873-2.129,4.181,4.181,0,0,0-1.525-.158l-1.606,0-3.288,0-6.863.006-30.559.01a2.844,2.844,0,0,0-2.78,2.243,4.5,4.5,0,0,0-.064.97v2.986q0,3.96,0,7.8c0,5.112-.005,10.043-.008,14.74a3.236,3.236,0,0,0,.3,1.648,2.846,2.846,0,0,0,1.117,1.194,2.915,2.915,0,0,0,1.572.391h1.681l6.474.007,11.62.016,16.826.042,4.575.025,1.19.013c.268,0,.405.013.405.013s-.137.009-.405.014l-1.19.013-4.575.024-16.826.042-11.62.016-6.474.007-1.681,0a3.15,3.15,0,0,1-1.692-.421,3.084,3.084,0,0,1-1.212-1.291,3.483,3.483,0,0,1-.328-1.755c0-4.7-.005-9.628-.008-14.74q0-3.834,0-7.8V273.95a4.737,4.737,0,0,1,.07-1.025,3.1,3.1,0,0,1,3.037-2.451l30.559.01,6.863.006,3.288,0,1.606,0a4.387,4.387,0,0,1,1.6.173,3.093,3.093,0,0,1,2.008,2.293,9.013,9.013,0,0,1,.06,1.515q0,.741,0,1.469,0,2.908-.008,5.576c-.018,7.1-.032,12.846-.042,16.827q0,.744-.006,1.406a3.121,3.121,0,0,1-.225,1.221,3,3,0,0,1-1.26,1.45,2.777,2.777,0,0,1-1.126.381A2.311,2.311,0,0,1,309.006,302.823Z" transform="translate(-262.992 -270.474)"/><g transform="translate(6.369 11.081)"><g transform="translate(15.658 7.757)"><rect class="g" width="1.875" height="7.46"/></g><g transform="translate(0 6.676)"><rect class="g" width="1.875" height="8.541"/></g><g transform="translate(3.915 4.896)"><rect class="g" width="1.875" height="10.321"/></g><g transform="translate(7.829 5.462)"><rect class="g" width="1.875" height="9.755"/></g><g transform="translate(11.744 2.162)"><rect class="g" width="1.875" height="13.056"/></g><g transform="translate(19.573 2.225)"><rect class="g" width="1.875" height="12.992"/></g><g transform="translate(23.487 6.492)"><rect class="g" width="1.875" height="8.725"/></g><g transform="translate(27.402 2.798)"><rect class="g" width="1.875" height="12.42"/></g><g transform="translate(31.316)"><rect class="g" width="1.875" height="15.217"/></g><g transform="translate(35.231 2.734)"><rect class="g" width="1.875" height="12.483"/></g></g><g transform="translate(4.164 3.386)"><path class="b" d="M273.6,278.36a1.181,1.181,0,1,1-1.181-1.18A1.181,1.181,0,0,1,273.6,278.36Z" transform="translate(-271.24 -277.18)"/><g transform="translate(3.048)"><path class="b" d="M279.638,278.36a1.181,1.181,0,1,1-1.18-1.18A1.181,1.181,0,0,1,279.638,278.36Z" transform="translate(-277.277 -277.18)"/></g><g transform="translate(6.096)"><path class="b" d="M285.676,278.36a1.181,1.181,0,1,1-1.181-1.18A1.181,1.181,0,0,1,285.676,278.36Z" transform="translate(-283.315 -277.18)"/></g></g></g><g transform="translate(132.358 38.158)"><g transform="translate(0.131 0.132)"><rect class="e" width="41.663" height="65.067" rx="8.427"/></g><path class="f" d="M417.436,197.96s.045-.007.134-.014.222-.006.4-.036a4.229,4.229,0,0,0,3.206-2.254,4.151,4.151,0,0,0,.453-1.529c.041-.568.008-1.191.016-1.841-.01-5.222-.024-12.767-.042-22.09s-.018-20.433-.028-32.762a4.176,4.176,0,0,0-2.02-3.831c-1.33-.858-3.019-.513-4.615-.585l-9.877,0-20.771,0a4.134,4.134,0,0,0-3.91,2.809,7.834,7.834,0,0,0-.218,2.56V141q0,5.2,0,10.235c0,6.711-.006,13.184-.008,19.351s-.009,12.026-.012,17.51q0,2.056,0,4.041c.008.657-.021,1.327.018,1.956a4.16,4.16,0,0,0,3.534,3.72,15.951,15.951,0,0,0,1.794.05l1.77,0,22.089.042,6.006.024,1.562.013c.352,0,.532.014.532.014s-.18.009-.532.013l-1.562.013-6.006.025-22.089.042-1.77,0a15.841,15.841,0,0,1-1.822-.047,4.36,4.36,0,0,1-3.712-3.894c-.042-.667-.013-1.31-.023-1.975q0-1.984,0-4.041c0-5.484-.008-11.344-.012-17.51s-.005-12.64-.008-19.351q0-5.032,0-10.235v-2.609l0-1.313a4.477,4.477,0,0,1,.228-1.331,4.4,4.4,0,0,1,4.159-2.988l20.771,0,9.877,0h2.408a4.4,4.4,0,0,1,3.975,2.36,4.643,4.643,0,0,1,.4,1.127,5.769,5.769,0,0,1,.091,1.178c-.011,12.33-.02,23.434-.028,32.762s-.032,16.868-.042,22.09c-.012.654.018,1.264-.027,1.849a4.226,4.226,0,0,1-.474,1.557,4.347,4.347,0,0,1-1.781,1.786,4.2,4.2,0,0,1-1.491.459A4.087,4.087,0,0,1,417.436,197.96Z" transform="translate(-379.897 -132.761)"/><g transform="translate(4.469 4.432)"><g transform="translate(0 0)"><circle class="b" cx="1.277" cy="1.277" r="1.277"/></g><g transform="translate(3.296)"><path class="b" d="M397.832,142.817a1.277,1.277,0,1,1-1.277-1.277A1.277,1.277,0,0,1,397.832,142.817Z" transform="translate(-395.278 -141.54)"/></g><g transform="translate(6.593 0)"><circle class="b" cx="1.277" cy="1.277" r="1.277"/></g></g><g transform="translate(6.224 12.282)"><path class="f" d="M421.7,157.218c0,.073-6.6.132-14.738.132s-14.74-.059-14.74-.132,6.6-.131,14.74-.131S421.7,157.146,421.7,157.218Z" transform="translate(-392.224 -157.087)"/></g><g transform="translate(6.224 14.876)"><path class="f" d="M421.7,162.357c0,.073-6.6.132-14.738.132s-14.74-.059-14.74-.132,6.6-.131,14.74-.131S421.7,162.285,421.7,162.357Z" transform="translate(-392.224 -162.226)"/></g><g transform="translate(6.224 17.471)"><path class="f" d="M421.7,167.5c0,.073-6.6.131-14.738.131s-14.74-.059-14.74-.131,6.6-.132,14.74-.132S421.7,167.424,421.7,167.5Z" transform="translate(-392.224 -167.365)"/></g><g transform="translate(6.224 20.066)"><path class="f" d="M421.7,172.636c0,.073-6.6.131-14.738.131s-14.74-.059-14.74-.131,6.6-.131,14.74-.131S421.7,172.564,421.7,172.636Z" transform="translate(-392.224 -172.505)"/></g><g transform="translate(6.224 22.661)"><path class="f" d="M421.7,177.775c0,.073-6.6.132-14.738.132s-14.74-.059-14.74-.132,6.6-.131,14.74-.131S421.7,177.7,421.7,177.775Z" transform="translate(-392.224 -177.644)"/></g><g transform="translate(6.224 25.255)"><path class="f" d="M421.7,182.915c0,.072-6.6.131-14.738.131s-14.74-.059-14.74-.131,6.6-.132,14.74-.132S421.7,182.842,421.7,182.915Z" transform="translate(-392.224 -182.783)"/></g><g transform="translate(6.224 45.109)"><path class="f" d="M421.7,222.237c0,.073-6.6.132-14.738.132s-14.74-.059-14.74-.132,6.6-.131,14.74-.131S421.7,222.165,421.7,222.237Z" transform="translate(-392.224 -222.106)"/></g><g transform="translate(6.224 47.933)"><path class="f" d="M421.7,227.832c0,.073-6.6.131-14.738.131s-14.74-.059-14.74-.131,6.6-.132,14.74-.132S421.7,227.759,421.7,227.832Z" transform="translate(-392.224 -227.7)"/></g><g transform="translate(6.224 50.758)"><path class="f" d="M421.7,233.427c0,.072-6.6.131-14.738.131s-14.74-.059-14.74-.131,6.6-.132,14.74-.132S421.7,233.354,421.7,233.427Z" transform="translate(-392.224 -233.295)"/></g><g transform="translate(6.224 53.583)"><path class="f" d="M421.7,239.021c0,.073-6.6.132-14.738.132s-14.74-.059-14.74-.132,6.6-.131,14.74-.131S421.7,238.949,421.7,239.021Z" transform="translate(-392.224 -238.89)"/></g><g transform="translate(6.224 56.407)"><path class="f" d="M421.7,244.616c0,.073-6.6.131-14.738.131s-14.74-.059-14.74-.131,6.6-.131,14.74-.131S421.7,244.544,421.7,244.616Z" transform="translate(-392.224 -244.485)"/></g><g transform="translate(4.978 29.102)"><g transform="translate(1.25)"><path class="b" d="M422.471,190.441l-.15,0-.441,0-1.705.007-6.342.012-21.546.013.053-.038c0,1.693,0,3.449,0,5.246,0,1.851,0,3.659,0,5.405l-.053-.038,21.4.013,6.292.012,1.691.007.437,0,.149,0s-.051,0-.149,0l-.437,0-1.691.007-6.292.011-21.4.013h-.053v-.038c0-1.746,0-3.554,0-5.405,0-1.8,0-3.553,0-5.246V190.4h.053l21.546.013,6.342.011,1.705.007.441,0C422.421,190.438,422.471,190.441,422.471,190.441Z" transform="translate(-392.233 -190.403)"/></g><g transform="translate(1.304 1.792)"><path class="b" d="M422.524,193.992c0,.021-6.757.038-15.091.038s-15.093-.017-15.093-.038,6.756-.039,15.093-.039S422.524,193.97,422.524,193.992Z" transform="translate(-392.34 -193.953)"/></g><g transform="translate(1.304 3.26)"><path class="b" d="M422.524,196.9c0,.021-6.757.038-15.091.038s-15.093-.017-15.093-.038,6.756-.039,15.093-.039S422.524,196.876,422.524,196.9Z" transform="translate(-392.34 -196.859)"/></g><g transform="translate(1.304 4.727)"><path class="b" d="M422.524,199.8c0,.021-6.757.038-15.091.038s-15.093-.017-15.093-.038,6.756-.039,15.093-.039S422.524,199.782,422.524,199.8Z" transform="translate(-392.34 -199.765)"/></g><g transform="translate(1.304 6.194)"><path class="b" d="M422.524,202.71c0,.021-6.757.038-15.091.038s-15.093-.017-15.093-.038,6.756-.039,15.093-.039S422.524,202.688,422.524,202.71Z" transform="translate(-392.34 -202.671)"/></g><g transform="translate(1.304 7.661)"><path class="b" d="M422.524,205.616c0,.021-6.757.038-15.091.038s-15.093-.017-15.093-.038,6.756-.039,15.093-.039S422.524,205.594,422.524,205.616Z" transform="translate(-392.34 -205.577)"/></g><g transform="translate(1.304 9.128)"><path class="b" d="M392.34,208.522c0-.022,6.757-.039,15.091-.039s15.093.017,15.093.039-6.756.038-15.093.038S392.34,208.543,392.34,208.522Z" transform="translate(-392.34 -208.483)"/></g><g transform="translate(5.544 0.038)"><path class="b" d="M400.776,201.292c-.021,0-.038-2.421-.038-5.406s.017-5.407.038-5.407.039,2.42.039,5.407S400.8,201.292,400.776,201.292Z" transform="translate(-400.738 -190.478)"/></g><g transform="translate(9.891 0.038)"><path class="b" d="M409.387,201.292c-.022,0-.039-2.421-.039-5.406s.017-5.407.039-5.407.038,2.42.038,5.407S409.408,201.292,409.387,201.292Z" transform="translate(-409.348 -190.478)"/></g><g transform="translate(14.238 0.038)"><path class="b" d="M418,201.292c-.021,0-.039-2.421-.039-5.406s.018-5.407.039-5.407.039,2.42.039,5.407S418.018,201.292,418,201.292Z" transform="translate(-417.958 -190.478)"/></g><g transform="translate(18.586 0.038)"><path class="b" d="M426.607,201.292c-.021,0-.038-2.421-.038-5.406s.017-5.407.038-5.407.039,2.42.039,5.407S426.629,201.292,426.607,201.292Z" transform="translate(-426.569 -190.478)"/></g><g transform="translate(22.933 0.038)"><path class="b" d="M435.218,201.292c-.021,0-.039-2.421-.039-5.406s.018-5.407.039-5.407.039,2.42.039,5.407S435.239,201.292,435.218,201.292Z" transform="translate(-435.179 -190.478)"/></g><g transform="translate(27.141 0.038)"><path class="b" d="M443.553,201.292c-.021,0-.038-2.421-.038-5.406s.017-5.407.038-5.407.039,2.42.039,5.407S443.575,201.292,443.553,201.292Z" transform="translate(-443.515 -190.478)"/></g><g transform="translate(31.488 0.038)"><path class="b" d="M452.164,201.292c-.022,0-.039-2.421-.039-5.406s.017-5.407.039-5.407.038,2.42.038,5.407S452.185,201.292,452.164,201.292Z" transform="translate(-452.125 -190.478)"/></g><g transform="translate(5.318 8.902)"><path class="i" d="M400.819,208.3a.265.265,0,1,1-.265-.265A.265.265,0,0,1,400.819,208.3Z" transform="translate(-400.29 -208.035)"/></g><g transform="translate(9.665 5.968)"><circle class="i" cx="0.265" cy="0.265" r="0.265"/></g><g transform="translate(14.012 7.41)"><path class="i" d="M418.04,205.345a.265.265,0,1,1-.265-.265A.264.264,0,0,1,418.04,205.345Z" transform="translate(-417.511 -205.08)"/></g><g transform="translate(18.404 4.514)"><path class="i" d="M426.667,199.414a.274.274,0,0,1-.388.388h0A.274.274,0,0,1,426.667,199.414Z" transform="translate(-426.209 -199.343)"/></g><g transform="translate(22.801 4.514)"><path class="i" d="M435.376,199.414a.274.274,0,0,1-.388.388h0A.274.274,0,0,1,435.376,199.414Z" transform="translate(-434.918 -199.343)"/></g><g transform="translate(26.915 7.394)"><path class="i" d="M443.524,205.119a.274.274,0,0,1-.388.388h0A.274.274,0,0,1,443.524,205.119Z" transform="translate(-443.066 -205.048)"/></g><g transform="translate(9.665 3.033)"><path class="j" d="M409.43,196.676a.265.265,0,1,1-.265-.265A.265.265,0,0,1,409.43,196.676Z" transform="translate(-408.9 -196.411)"/></g><g transform="translate(5.318 7.435)"><path class="j" d="M400.819,205.395a.265.265,0,1,1-.265-.265A.265.265,0,0,1,400.819,205.395Z" transform="translate(-400.29 -205.13)"/></g><g transform="translate(26.915 8.902)"><path class="j" d="M443.525,208.106a.274.274,0,0,1-.388.388A.274.274,0,0,1,443.525,208.106Z" transform="translate(-443.067 -208.036)"/></g><g transform="translate(22.707 5.968)"><path class="j" d="M435.261,202.489a.265.265,0,1,1-.265-.265A.265.265,0,0,1,435.261,202.489Z" transform="translate(-434.732 -202.224)"/></g><g transform="translate(18.404 5.929)"><path class="j" d="M426.738,202.412a.265.265,0,1,1-.265-.265A.264.264,0,0,1,426.738,202.412Z" transform="translate(-426.209 -202.147)"/></g><g transform="translate(2.93 11.865)"><path class="b" d="M396.4,213.942a2.271,2.271,0,0,1-.837,0,2.3,2.3,0,0,1,.837,0Z" transform="translate(-395.561 -213.904)"/></g><g transform="translate(7.373 11.865)"><path class="b" d="M405.2,213.942a2.274,2.274,0,0,1-.838,0,2.305,2.305,0,0,1,.838,0Z" transform="translate(-404.361 -213.904)"/></g><g transform="translate(11.817 11.865)"><path class="b" d="M414,213.942a2.271,2.271,0,0,1-.837,0,2.3,2.3,0,0,1,.837,0Z" transform="translate(-413.162 -213.904)"/></g><g transform="translate(16.26 11.865)"><path class="b" d="M422.8,213.942a2.271,2.271,0,0,1-.837,0,2.3,2.3,0,0,1,.837,0Z" transform="translate(-421.963 -213.904)"/></g><g transform="translate(20.704 11.865)"><path class="b" d="M431.6,213.942a2.271,2.271,0,0,1-.837,0,2.3,2.3,0,0,1,.837,0Z" transform="translate(-430.764 -213.904)"/></g><g transform="translate(24.677 11.865)"><path class="b" d="M439.471,213.942a2.271,2.271,0,0,1-.837,0,2.3,2.3,0,0,1,.837,0Z" transform="translate(-438.634 -213.904)"/></g><g transform="translate(28.65 11.865)"><path class="b" d="M447.341,213.942a2.274,2.274,0,0,1-.838,0,2.305,2.305,0,0,1,.838,0Z" transform="translate(-446.503 -213.904)"/></g><g transform="translate(0 0.352)"><g transform="translate(0 10.239)"><path class="b" d="M390.433,211.42a1.489,1.489,0,1,1-.338-.039A.771.771,0,0,1,390.433,211.42Z" transform="translate(-389.757 -211.381)"/></g><g transform="translate(0 8.532)"><path class="b" d="M390.433,208.04A1.489,1.489,0,1,1,390.1,208,.771.771,0,0,1,390.433,208.04Z" transform="translate(-389.757 -208.001)"/></g><g transform="translate(0 6.826)"><path class="b" d="M390.433,204.66a1.489,1.489,0,1,1-.338-.039A.775.775,0,0,1,390.433,204.66Z" transform="translate(-389.757 -204.621)"/></g><g transform="translate(0 5.119)"><path class="b" d="M390.433,201.28a1.489,1.489,0,1,1-.338-.039A.775.775,0,0,1,390.433,201.28Z" transform="translate(-389.757 -201.241)"/></g><g transform="translate(0 3.413)"><path class="b" d="M390.433,197.9a1.489,1.489,0,1,1-.338-.039A.775.775,0,0,1,390.433,197.9Z" transform="translate(-389.757 -197.861)"/></g><g transform="translate(0 1.707)"><path class="b" d="M390.433,194.52a1.489,1.489,0,1,1-.338-.039A.775.775,0,0,1,390.433,194.52Z" transform="translate(-389.757 -194.481)"/></g><path class="b" d="M390.433,191.14a1.489,1.489,0,1,1-.338-.039A.776.776,0,0,1,390.433,191.14Z" transform="translate(-389.757 -191.101)"/></g><g transform="translate(1.227 4.692)"><path class="i" d="M392.236,205.763l-.048-.138,4.322-1.519,4.369-2.949,4.348,1.442,4.38-2.889,4.387-.013.019.013,4.168,2.944,4.038-2.668.08.122-4.121,2.723-.041-.029-4.189-2.96-4.3.013-4.4,2.9-4.347-1.442-4.334,2.923Z" transform="translate(-392.187 -199.697)"/></g><g transform="translate(1.304 1.685)"><path class="j" d="M418.279,201.253l-4.255-2.893h-4.385l-4.388-2.9L401,195.427l-4.347,4.4H392.34v-.146h4.248l4.348-4.4,4.359.039,4.387,2.9h4.386l4.161,2.829,4.156-7.3.127.072Z" transform="translate(-392.34 -193.74)"/></g></g></g></g></g><g transform="translate(207.188 2450.842)"><g transform="translate(79 80.545)"><g transform="translate(0 0)"><path class="k" d="M63.884,99.1,45.569,93.173a2.408,2.408,0,0,1-1.55-3.033l8.2-25.35a2.409,2.409,0,0,1,3.033-1.551L66.868,67l5.994,12.176L66.917,97.547A2.409,2.409,0,0,1,63.884,99.1Z" transform="translate(-43.901 -63.121)"/><g transform="translate(20.549 3.875)"><path class="l" d="M100.06,73.256l-2.308,7.135a2.24,2.24,0,0,0,1.442,2.821l6.86,2.22Z" transform="translate(-97.643 -73.256)"/></g><g class="m" transform="translate(20.434 11.666)"><path d="M97.458,93.631a2.491,2.491,0,0,0,1.136,2.908,2.387,2.387,0,0,0,.209.124c.844.45,6.4,3.406,6.445,3.271l.621-1.917L99.008,95.8S97.314,95.184,97.458,93.631Z" transform="translate(-97.342 -93.631)"/></g></g><g transform="translate(10.743 7.471)"><path class="c" d="M80.472,85.41a28.552,28.552,0,0,1-4.29-1.2A28.6,28.6,0,0,1,72,82.67a28.552,28.552,0,0,1,4.291,1.2A28.566,28.566,0,0,1,80.472,85.41Z" transform="translate(-71.998 -82.659)"/></g><g transform="translate(9.439 11.508)"><path class="c" d="M82.532,97.736c-.03.092-3.176-.844-7.026-2.089s-6.949-2.33-6.919-2.422,3.175.844,7.027,2.09S82.561,97.645,82.532,97.736Z" transform="translate(-68.585 -93.219)"/></g><g transform="translate(8.349 14.878)"><path class="c" d="M80.938,106.953c-.03.092-3.457-.935-7.654-2.292s-7.577-2.533-7.548-2.625,3.456.935,7.655,2.293S80.967,106.862,80.938,106.953Z" transform="translate(-65.736 -102.03)"/></g><g transform="translate(7.321 18.056)"><path class="c" d="M78.249,115.265c-.03.092-3.457-.935-7.654-2.293s-7.577-2.533-7.548-2.625,3.456.935,7.655,2.293S78.278,115.173,78.249,115.265Z" transform="translate(-63.047 -110.341)"/></g><g transform="translate(6.293 21.234)"><path class="c" d="M75.56,123.576c-.029.092-3.457-.935-7.654-2.292s-7.577-2.533-7.548-2.625,3.456.935,7.655,2.293S75.59,123.485,75.56,123.576Z" transform="translate(-60.358 -118.653)"/></g><g transform="translate(5.265 24.412)"><path class="c" d="M72.872,131.888c-.03.092-3.457-.935-7.654-2.293s-7.577-2.533-7.548-2.625,3.456.935,7.655,2.293S72.9,131.8,72.872,131.888Z" transform="translate(-57.669 -126.964)"/></g></g><g transform="translate(214.534)"><g transform="translate(0 0.065)"><path class="h" d="M632.619,49.226l-19.98,4.1a1.794,1.794,0,0,1-2.118-1.4L605,25a1.794,1.794,0,0,1,1.4-2.118l13.972-2.865,9.316,5.967,4.331,21.12A1.794,1.794,0,0,1,632.619,49.226Z" transform="translate(-604.963 -20.021)"/></g><g transform="translate(15.392)"><path class="l" d="M645.218,19.852l1.1,5.35a2.444,2.444,0,0,0,2.885,1.9l5.347-1.222Z" transform="translate(-645.218 -19.852)"/></g><g transform="translate(7.098 11.322)"><path class="e" d="M640,62.706a2.218,2.218,0,0,1-.064-.25l-.159-.709c-.137-.635-.331-1.533-.577-2.668l-2-9.463.131.086L623.7,52.515c-.024.033.19-.288.1-.15v.011l0,.014.006.028.011.056.023.112.046.224.091.446.182.888.358,1.75.691,3.388c.447,2.2.87,4.282,1.258,6.2l-.133-.088,9.854-1.962,2.79-.542.744-.139a2.458,2.458,0,0,1,.265-.042,1.634,1.634,0,0,1-.236.062l-.717.161-2.753.595-9.9,2.089-.11.023-.023-.111c-.4-1.913-.827-3.992-1.282-6.192l-.7-3.386q-.178-.866-.36-1.75l-.182-.887-.091-.447-.046-.224-.023-.112-.011-.056-.006-.028,0-.014v-.011c-.09.135.122-.189.1-.155l13.633-2.777.11-.022.022.109c.785,3.943,1.439,7.232,1.9,9.555.219,1.13.392,2.024.515,2.655.054.291.1.52.129.693A1.531,1.531,0,0,1,640,62.706Z" transform="translate(-623.527 -49.462)"/><g transform="translate(6.86 1.711)"><path class="e" d="M644.164,67.049c-.07.015-.729-2.909-1.471-6.53s-1.288-6.568-1.218-6.583.729,2.909,1.471,6.531S644.234,67.034,644.164,67.049Z" transform="translate(-641.469 -53.936)"/></g><g transform="translate(2.075 10.035)"><path class="e" d="M642.637,75.712c.015.07-3.037.755-6.815,1.529s-6.854,1.346-6.868,1.276,3.036-.755,6.816-1.53S642.623,75.641,642.637,75.712Z" transform="translate(-628.954 -75.706)"/></g><g transform="translate(1.545 6.66)"><path class="e" d="M641.251,66.885c.014.07-3.037.755-6.815,1.53s-6.854,1.346-6.868,1.276,3.036-.755,6.816-1.529S641.236,66.815,641.251,66.885Z" transform="translate(-627.568 -66.879)"/></g><g transform="translate(0.859 3.338)"><path class="e" d="M639.354,58.2c.015.07-3.014.75-6.763,1.519s-6.8,1.336-6.816,1.266,3.013-.75,6.764-1.519S639.34,58.128,639.354,58.2Z" transform="translate(-625.775 -58.192)"/></g></g></g></g><g transform="translate(255.845 2557.91)"><g transform="translate(0 18.279)"><path class="f" d="M3.755,0H69.144A3.756,3.756,0,0,1,72.9,3.756V15.228a3.756,3.756,0,0,1-3.756,3.756H3.755A3.755,3.755,0,0,1,0,15.228V3.755A3.755,3.755,0,0,1,3.755,0Z"/><g transform="translate(32.811 4.531)"><rect class="e" width="32.325" height="10.719" rx="0.708"/></g><g transform="translate(12.09 5.359)"><circle class="f" cx="3.88" cy="3.88" r="3.88" transform="translate(0.651 0.652)"/><path class="b" d="M132.223,432.766a4.532,4.532,0,1,1,4.531-4.532A4.537,4.537,0,0,1,132.223,432.766Zm0-7.762a3.23,3.23,0,1,0,3.229,3.23A3.234,3.234,0,0,0,132.223,425Z" transform="translate(-127.691 -423.702)"/></g><g transform="translate(36.024 6.364)"><path class="b" d="M164.612,425.245a38.056,38.056,0,0,1,0,7.186,38.2,38.2,0,0,1,0-7.186Z" transform="translate(-164.443 -425.245)"/></g><g transform="translate(39.169 6.364)"><path class="b" d="M169.441,425.245a38.063,38.063,0,0,1,0,7.186,38.2,38.2,0,0,1,0-7.186Z" transform="translate(-169.272 -425.245)"/></g><g transform="translate(42.313 6.364)"><path class="b" d="M174.27,425.245a38.207,38.207,0,0,1,0,7.186,38.056,38.056,0,0,1,0-7.186Z" transform="translate(-174.1 -425.245)"/></g><g transform="translate(45.458 6.364)"><path class="b" d="M179.1,425.245a38.214,38.214,0,0,1,0,7.186,38.053,38.053,0,0,1,0-7.186Z" transform="translate(-178.929 -425.245)"/></g><g transform="translate(48.603 6.364)"><path class="b" d="M183.927,425.245a38.056,38.056,0,0,1,0,7.186,38.2,38.2,0,0,1,0-7.186Z" transform="translate(-183.758 -425.245)"/></g><g transform="translate(51.748 6.364)"><path class="b" d="M188.756,425.245a38.207,38.207,0,0,1,0,7.186,38.2,38.2,0,0,1,0-7.186Z" transform="translate(-188.587 -425.245)"/></g><g transform="translate(54.892 6.364)"><path class="b" d="M193.585,425.245a38.207,38.207,0,0,1,0,7.186,38.06,38.06,0,0,1,0-7.186Z" transform="translate(-193.415 -425.245)"/></g><g transform="translate(58.037 6.364)"><path class="b" d="M198.414,425.245a38.214,38.214,0,0,1,0,7.186,38.053,38.053,0,0,1,0-7.186Z" transform="translate(-198.244 -425.245)"/></g><g transform="translate(61.182 6.364)"><path class="b" d="M203.242,425.245a38.063,38.063,0,0,1,0,7.186,38.2,38.2,0,0,1,0-7.186Z" transform="translate(-203.073 -425.245)"/></g></g><path class="j" d="M3.755,0H69.144A3.756,3.756,0,0,1,72.9,3.756V15.228a3.756,3.756,0,0,1-3.756,3.756H3.755A3.755,3.755,0,0,1,0,15.228V3.755A3.755,3.755,0,0,1,3.755,0Z"/><g transform="translate(32.811 4.531)"><rect class="e" width="32.325" height="10.719" rx="0.708"/></g><g transform="translate(12.09 5.359)"><circle class="f" cx="3.88" cy="3.88" r="3.88" transform="translate(0.651 0.651)"/><path class="b" d="M132.223,404.7a4.532,4.532,0,1,1,4.531-4.532A4.537,4.537,0,0,1,132.223,404.7Zm0-7.761a3.229,3.229,0,1,0,3.229,3.229A3.233,3.233,0,0,0,132.223,396.938Z" transform="translate(-127.691 -395.635)"/></g><g transform="translate(36.024 6.363)"><path class="b" d="M164.612,397.177a38.056,38.056,0,0,1,0,7.186,38.2,38.2,0,0,1,0-7.186Z" transform="translate(-164.443 -397.177)"/></g><g transform="translate(39.169 6.363)"><path class="b" d="M169.441,397.177a38.063,38.063,0,0,1,0,7.186,38.2,38.2,0,0,1,0-7.186Z" transform="translate(-169.272 -397.177)"/></g><g transform="translate(42.313 6.363)"><path class="b" d="M174.27,397.177a38.207,38.207,0,0,1,0,7.186,38.056,38.056,0,0,1,0-7.186Z" transform="translate(-174.1 -397.177)"/></g><g transform="translate(45.458 6.363)"><path class="b" d="M179.1,397.177a38.214,38.214,0,0,1,0,7.186,38.053,38.053,0,0,1,0-7.186Z" transform="translate(-178.929 -397.177)"/></g><g transform="translate(48.603 6.363)"><path class="b" d="M183.927,397.177a38.056,38.056,0,0,1,0,7.186,38.2,38.2,0,0,1,0-7.186Z" transform="translate(-183.758 -397.177)"/></g><g transform="translate(51.748 6.363)"><path class="b" d="M188.756,397.177a38.207,38.207,0,0,1,0,7.186,38.2,38.2,0,0,1,0-7.186Z" transform="translate(-188.587 -397.177)"/></g><g transform="translate(54.892 6.363)"><path class="b" d="M193.585,397.177a38.207,38.207,0,0,1,0,7.186,38.06,38.06,0,0,1,0-7.186Z" transform="translate(-193.415 -397.177)"/></g><g transform="translate(58.037 6.363)"><path class="b" d="M198.414,397.177a38.214,38.214,0,0,1,0,7.186,38.053,38.053,0,0,1,0-7.186Z" transform="translate(-198.244 -397.177)"/></g><g transform="translate(61.182 6.363)"><path class="b" d="M203.242,397.177a38.063,38.063,0,0,1,0,7.186,38.2,38.2,0,0,1,0-7.186Z" transform="translate(-203.073 -397.177)"/></g><g transform="translate(0 37.364)"><path class="n" d="M3.755,0H69.144A3.756,3.756,0,0,1,72.9,3.756V15.228a3.756,3.756,0,0,1-3.756,3.756H3.755A3.755,3.755,0,0,1,0,15.228V3.755A3.755,3.755,0,0,1,3.755,0Z"/><g transform="translate(32.811 4.531)"><rect class="e" width="32.325" height="10.719" rx="0.708"/></g><g transform="translate(12.09 5.359)"><path class="f" d="M136.452,457.889a3.88,3.88,0,1,0-3.88,3.88A3.881,3.881,0,0,0,136.452,457.889Z" transform="translate(-128.04 -453.357)"/><path class="a" d="M132.223,462.071a4.532,4.532,0,1,1,4.531-4.531A4.537,4.537,0,0,1,132.223,462.071Zm0-7.761a3.229,3.229,0,1,0,3.229,3.23A3.234,3.234,0,0,0,132.223,454.31Z" transform="translate(-127.691 -453.008)"/></g><g transform="translate(36.024 6.363)"><path class="b" d="M164.612,454.55a38.063,38.063,0,0,1,0,7.186,38.206,38.206,0,0,1,0-7.186Z" transform="translate(-164.443 -454.55)"/></g><g transform="translate(39.169 6.363)"><path class="b" d="M169.441,454.55a38.07,38.07,0,0,1,0,7.186,38.206,38.206,0,0,1,0-7.186Z" transform="translate(-169.272 -454.55)"/></g><g transform="translate(42.313 6.363)"><path class="b" d="M174.27,454.55a38.213,38.213,0,0,1,0,7.186,38.063,38.063,0,0,1,0-7.186Z" transform="translate(-174.1 -454.55)"/></g><g transform="translate(45.458 6.363)"><path class="b" d="M179.1,454.55a38.22,38.22,0,0,1,0,7.186,38.06,38.06,0,0,1,0-7.186Z" transform="translate(-178.929 -454.55)"/></g><g transform="translate(48.603 6.363)"><path class="b" d="M183.927,454.55a38.063,38.063,0,0,1,0,7.186,38.21,38.21,0,0,1,0-7.186Z" transform="translate(-183.758 -454.55)"/></g><g transform="translate(51.748 6.363)"><path class="b" d="M188.756,454.55a38.213,38.213,0,0,1,0,7.186,38.21,38.21,0,0,1,0-7.186Z" transform="translate(-188.587 -454.55)"/></g><g transform="translate(54.892 6.363)"><path class="b" d="M193.585,454.55a38.213,38.213,0,0,1,0,7.186,38.066,38.066,0,0,1,0-7.186Z" transform="translate(-193.415 -454.55)"/></g><g transform="translate(58.037 6.363)"><path class="b" d="M198.414,454.55a38.22,38.22,0,0,1,0,7.186,38.06,38.06,0,0,1,0-7.186Z" transform="translate(-198.244 -454.55)"/></g><g transform="translate(61.182 6.363)"><path class="b" d="M203.242,454.55a38.07,38.07,0,0,1,0,7.186,38.206,38.206,0,0,1,0-7.186Z" transform="translate(-203.073 -454.55)"/></g></g></g><g transform="translate(238.416 2489.838)"><g transform="translate(0 54.706)"><g transform="translate(33.795 64.955)"><g transform="translate(0.078)"><path class="h" d="M1682.488,7541.253l-.036-3.118-5.841.03.005,4.563.362.021c1.612.081,8.2.3,9.279-.033C1687.457,7542.346,1682.488,7541.253,1682.488,7541.253Z" transform="translate(-1676.611 -7538.136)"/></g><g transform="translate(0 4.417)"><path class="o" d="M1676.405,7549.8a.654.654,0,0,0,.1.01l.288.016,1.062.041c.9.029,2.136.051,3.505.046s2.609-.038,3.505-.072l1.061-.048.288-.02a.572.572,0,0,0,.1-.011.51.51,0,0,0-.1,0l-.289.005-1.062.027c-.9.022-2.136.046-3.5.052s-2.607-.01-3.5-.025l-1.062-.018-.289,0A.557.557,0,0,0,1676.405,7549.8Z" transform="translate(-1676.405 -7549.761)"/></g><g transform="translate(7.859 3.666)"><path class="o" d="M1697.1,7548.7a2.43,2.43,0,0,1,.2-.507,2.338,2.338,0,0,1,.36-.408.942.942,0,0,0-.556.915Z" transform="translate(-1697.086 -7547.784)"/></g><g transform="translate(6.139 3.228)"><path class="o" d="M1692.563,7547.12c.017.01.1-.091.183-.225s.14-.252.123-.263-.1.091-.183.225S1692.547,7547.109,1692.563,7547.12Z" transform="translate(-1692.561 -7546.631)"/></g><g transform="translate(5.667 3.138)"><path class="o" d="M1691.318,7546.725c.013.015.1-.047.205-.138s.17-.176.158-.191-.105.047-.205.138S1691.305,7546.711,1691.318,7546.725Z" transform="translate(-1691.317 -7546.394)"/></g><g transform="translate(5.366 2.886)"><path class="o" d="M1690.527,7545.763a.7.7,0,0,0,.305.038.68.68,0,0,0,.305-.034.693.693,0,0,0-.3-.037A.674.674,0,0,0,1690.527,7545.763Z" transform="translate(-1690.527 -7545.73)"/></g><g transform="translate(5.262 2.525)"><path class="o" d="M1690.252,7544.787a.855.855,0,0,0,.692.049,1.9,1.9,0,0,0-.346-.022A1.848,1.848,0,0,0,1690.252,7544.787Z" transform="translate(-1690.252 -7544.781)"/></g><g transform="translate(6.338 2.678)"><path class="o" d="M1693.083,7545.712a1.113,1.113,0,0,0,.375,0,2.111,2.111,0,0,0,.4-.09,1.1,1.1,0,0,0,.228-.094.2.2,0,0,0,.092-.117.147.147,0,0,0-.057-.15.694.694,0,0,0-.972.456.214.214,0,0,0-.009.1,1.057,1.057,0,0,1,.169-.322.682.682,0,0,1,.32-.21.583.583,0,0,1,.448.029c.059.044.037.114-.029.153a1.069,1.069,0,0,1-.21.092,2.744,2.744,0,0,1-.386.1C1693.226,7545.7,1693.083,7545.7,1693.083,7545.712Z" transform="translate(-1693.083 -7545.183)"/></g><g transform="translate(5.942 2.5)"><path class="o" d="M1692.536,7545.439a.374.374,0,0,0,.042-.261.613.613,0,0,0-.1-.274.377.377,0,0,0-.313-.19.15.15,0,0,0-.115.173.413.413,0,0,0,.065.167,1.135,1.135,0,0,0,.178.227.547.547,0,0,0,.216.151c.006-.01-.075-.067-.179-.186a1.3,1.3,0,0,1-.158-.225c-.052-.079-.088-.221.006-.239s.19.084.248.158a.62.62,0,0,1,.107.245A1.4,1.4,0,0,1,1692.536,7545.439Z" transform="translate(-1692.043 -7544.714)"/></g><g transform="translate(0.112 2.82)"><path class="o" d="M1676.7,7545.6c0,.014.167-.017.431.014a1.824,1.824,0,0,1,1.535,1.212c.09.25.1.418.113.416a.316.316,0,0,0,0-.117,1.506,1.506,0,0,0-.065-.315,1.776,1.776,0,0,0-1.578-1.246,1.421,1.421,0,0,0-.321.01A.361.361,0,0,0,1676.7,7545.6Z" transform="translate(-1676.7 -7545.556)"/></g><g transform="translate(0.66 0.427)"><path class="o" d="M1678.187,7539.26a20.314,20.314,0,0,0-.019,2.4,10.062,10.062,0,0,0,.045-1.2A10.227,10.227,0,0,0,1678.187,7539.26Z" transform="translate(-1678.141 -7539.26)"/></g><g transform="translate(2.933 3.956)"><path class="o" d="M1684.123,7548.553a4.774,4.774,0,0,0,1.707.008c0-.02-.383,0-.853,0S1684.125,7548.532,1684.123,7548.553Z" transform="translate(-1684.123 -7548.545)"/></g><g transform="translate(1.786 3.964)"><path class="o" d="M1681.107,7548.571c-.014.014.031.081.071.168s.061.165.081.163.03-.092-.017-.192S1681.119,7548.557,1681.107,7548.571Z" transform="translate(-1681.104 -7548.569)"/></g><g transform="translate(1.352 3.429)"><path class="o" d="M1679.964,7547.163c-.014.014.024.074.085.135s.121.1.135.085-.024-.075-.085-.135S1679.978,7547.148,1679.964,7547.163Z" transform="translate(-1679.962 -7547.16)"/></g><g transform="translate(0.736 3.155)"><path class="o" d="M1678.342,7546.473c0,.02.082.019.167.048s.148.076.163.063-.034-.1-.141-.13S1678.336,7546.456,1678.342,7546.473Z" transform="translate(-1678.341 -7546.439)"/></g><g transform="translate(0.295 3.062)"><path class="o" d="M1677.182,7546.207c-.007.018.026.048.075.066s.094.019.1,0-.027-.047-.075-.066S1677.189,7546.188,1677.182,7546.207Z" transform="translate(-1677.181 -7546.193)"/></g></g><g transform="translate(0 57.807)"><path class="h" d="M1593.214,7525.1l1.65-2.646-4.937-3.123-2.454,3.845.293.213c1.314.938,6.749,4.673,7.834,4.972C1596.811,7528.693,1593.214,7525.1,1593.214,7525.1Z" transform="translate(-1587.473 -7519.327)"/><g transform="translate(0.002 3.687)"><path class="o" d="M1587.478,7529.029a.522.522,0,0,0,.079.063l.235.168q.356.249.872.607c.74.507,1.772,1.194,2.928,1.927s2.218,1.376,2.992,1.829l.92.531.253.14a.611.611,0,0,0,.09.044.5.5,0,0,0-.083-.057l-.246-.152-.909-.55c-.767-.465-1.824-1.112-2.979-1.845s-2.191-1.413-2.938-1.909l-.885-.588-.242-.158A.553.553,0,0,0,1587.478,7529.029Z" transform="translate(-1587.478 -7529.029)"/></g><g transform="translate(6.562 7.543)"><path class="o" d="M1604.744,7539.668a2.389,2.389,0,0,1,.439-.322,2.361,2.361,0,0,1,.523-.149.946.946,0,0,0-.962.471Z" transform="translate(-1604.742 -7539.178)"/></g><g transform="translate(5.575 6.123)"><path class="o" d="M1602.144,7535.692a.631.631,0,0,0,.276-.091c.144-.068.254-.138.246-.155s-.132.023-.276.091S1602.136,7535.674,1602.144,7535.692Z" transform="translate(-1602.143 -7535.442)"/></g><g transform="translate(5.31 5.814)"><path class="o" d="M1601.446,7534.722c0,.02.114.016.247-.006s.239-.057.235-.076-.114-.017-.247.006S1601.443,7534.7,1601.446,7534.722Z" transform="translate(-1601.446 -7534.626)"/></g><g transform="translate(5.352 5.28)"><path class="o" d="M1601.556,7533.224c-.011.017.1.1.237.2s.265.153.275.137-.1-.1-.237-.2A.7.7,0,0,0,1601.556,7533.224Z" transform="translate(-1601.556 -7533.221)"/></g><g transform="translate(5.472 4.899)"><path class="o" d="M1601.874,7532.22c-.015.01.075.146.234.265a.6.6,0,0,0,.322.149c.008-.02-.128-.092-.279-.205S1601.89,7532.207,1601.874,7532.22Z" transform="translate(-1601.873 -7532.219)"/></g><g transform="translate(6.008 5.896)"><path class="o" d="M1603.291,7535a1.08,1.08,0,0,0,.319.2,2.115,2.115,0,0,0,.385.141,1.062,1.062,0,0,0,.244.042.2.2,0,0,0,.141-.048.149.149,0,0,0,.032-.158.69.69,0,0,0-.827-.285.675.675,0,0,0-.238.146c-.047.047-.065.078-.062.08a1.031,1.031,0,0,1,.316-.178.672.672,0,0,1,.382,0,.578.578,0,0,1,.362.265c.027.068-.03.115-.108.114a1.128,1.128,0,0,1-.226-.038,2.435,2.435,0,0,1-.38-.121C1603.418,7535.063,1603.3,7534.985,1603.291,7535Z" transform="translate(-1603.284 -7534.843)"/></g><g transform="translate(5.936 5.293)"><path class="o" d="M1603.245,7534.079c0,.006.1-.046.176-.2a.625.625,0,0,0,.061-.287.379.379,0,0,0-.162-.329.149.149,0,0,0-.19.084.415.415,0,0,0-.036.177,1.127,1.127,0,0,0,.028.286.546.546,0,0,0,.1.243c.01,0-.027-.1-.052-.253a1.334,1.334,0,0,1-.012-.274c0-.094.046-.234.134-.2s.115.173.124.267a.611.611,0,0,1-.041.263A1.43,1.43,0,0,1,1603.245,7534.079Z" transform="translate(-1603.093 -7533.254)"/></g><g transform="translate(0.957 2.4)"><path class="o" d="M1589.993,7525.645c-.006.013.15.077.356.244a1.829,1.829,0,0,1,.64,1.849c-.058.26-.141.406-.129.411s.028-.031.063-.1a1.517,1.517,0,0,0,.115-.3,1.774,1.774,0,0,0-.658-1.9,1.559,1.559,0,0,0-.276-.166A.4.4,0,0,0,1589.993,7525.645Z" transform="translate(-1589.993 -7525.644)"/></g><g transform="translate(1.459 0.672)"><path class="o" d="M1592.623,7521.1a9.937,9.937,0,0,0-.685.986,10.266,10.266,0,0,0-.626,1.025,9.935,9.935,0,0,0,.685-.986A10.326,10.326,0,0,0,1592.623,7521.1Z" transform="translate(-1591.312 -7521.096)"/></g><g transform="translate(2.739 4.85)"><path class="o" d="M1594.682,7532.091a3.286,3.286,0,0,0,.675.527,3.252,3.252,0,0,0,.758.4c.009-.019-.325-.2-.72-.459S1594.7,7532.075,1594.682,7532.091Z" transform="translate(-1594.682 -7532.09)"/></g><g transform="translate(1.717 4.236)"><path class="o" d="M1592.048,7530.475c-.019,0-.017.085-.031.18s-.037.172-.02.182.075-.062.09-.172S1592.066,7530.47,1592.048,7530.475Z" transform="translate(-1591.991 -7530.475)"/></g><g transform="translate(1.682 3.552)"><path class="o" d="M1591.913,7528.675c-.019,0-.02.075,0,.159s.049.15.068.145.02-.075,0-.159S1591.932,7528.671,1591.913,7528.675Z" transform="translate(-1591.898 -7528.675)"/></g><g transform="translate(1.306 3.008)"><path class="o" d="M1590.909,7527.249c-.007.02.059.06.115.132s.084.142.1.14.022-.1-.049-.185S1590.914,7527.23,1590.909,7527.249Z" transform="translate(-1590.908 -7527.242)"/></g><g transform="translate(0.99 2.679)"><path class="o" d="M1590.085,7526.379c-.016.012,0,.054.027.1s.069.065.085.055,0-.056-.028-.1S1590.1,7526.367,1590.085,7526.379Z" transform="translate(-1590.078 -7526.376)"/></g></g><g transform="translate(0.214)"><g transform="translate(0 0.451)"><path class="g" d="M1616.186,7371.04s4.956,32.926,4.235,34.516-23.858,27.036-23.858,27.036l-8.526-5.649s20.21-25.445,20.057-26.057-7.659-32.5-7.659-32.5Z" transform="translate(-1588.036 -7368.391)"/></g><g transform="translate(8.872)"><path class="g" d="M1612.1,7367.205l-.3,1.223a14.382,14.382,0,0,0,1.511,10.61l13.438,23.294a18.709,18.709,0,0,1,2.06,5.294l6.067,26.905h9.36c0,.561-2.421-22.163-3.635-29.71-.915-5.692-8.532-23.36-12.222-31.7l2.286-2.813-3.971-.663Z" transform="translate(-1611.383 -7367.205)"/></g><g transform="translate(26.152 5.848)"><path class="o" d="M1656.859,7382.595a1.705,1.705,0,0,1,.207.37c.121.244.289.6.49,1.043.4.886.931,2.124,1.47,3.509s.985,2.655,1.287,3.582c.151.463.268.839.343,1.1a1.757,1.757,0,0,1,.1.413,1.737,1.737,0,0,1-.171-.388q-.164-.443-.4-1.08c-.336-.913-.8-2.172-1.339-3.555s-1.045-2.625-1.414-3.525c-.17-.419-.314-.777-.433-1.068A1.783,1.783,0,0,1,1656.859,7382.595Z" transform="translate(-1656.857 -7382.595)"/></g><g transform="translate(16.212 21.22)"><path class="o" d="M1641.746,7446.729a1.425,1.425,0,0,1-.061-.263q-.052-.287-.136-.756l-.093-.546q-.066-.3-.143-.644c-.1-.463-.209-.991-.377-1.564l-.245-.9-.308-.965c-.2-.672-.478-1.367-.743-2.108-.578-1.466-1.279-3.05-2.1-4.674a88.048,88.048,0,0,0-4.722-8.028l-1.56-2.357-.422-.642a1.342,1.342,0,0,1-.136-.231,1.38,1.38,0,0,1,.169.208l.453.622c.391.541.946,1.333,1.613,2.324a77.837,77.837,0,0,1,4.782,8.016c.823,1.629,1.522,3.222,2.093,4.7.262.747.535,1.447.729,2.125q.154.5.3.973l.234.91c.16.576.257,1.109.35,1.575q.069.346.128.649c.028.2.053.383.076.551.041.316.074.57.1.764A1.332,1.332,0,0,1,1641.746,7446.729Z" transform="translate(-1630.699 -7423.049)"/></g></g><g transform="translate(1.249 57.69)"><path class="o" d="M1599.5,7524.619a1.64,1.64,0,0,1-.391-.127,9.855,9.855,0,0,1-1.017-.469,23.585,23.585,0,0,1-3.09-2.01c-1.153-.858-2.189-1.64-2.972-2.158s-1.289-.806-1.273-.834a1.606,1.606,0,0,1,.376.164c.238.116.57.3.973.552.807.491,1.863,1.259,3.014,2.117a30.183,30.183,0,0,0,3.04,2.045C1598.977,7524.363,1599.515,7524.587,1599.5,7524.619Z" transform="translate(-1590.759 -7519.02)"/></g><g transform="translate(32.043 65.718)"><path class="o" d="M1681.665,7540.358a1.512,1.512,0,0,1-.389.021l-1.058-.007-3.488-.03-3.488.022-1.057,0a1.423,1.423,0,0,1-.389-.023,1.526,1.526,0,0,1,.386-.054c.249-.022.61-.046,1.056-.067.893-.045,2.128-.082,3.493-.08s2.6.041,3.492.087c.446.023.807.048,1.057.071A1.41,1.41,0,0,1,1681.665,7540.358Z" transform="translate(-1671.795 -7540.145)"/></g></g><g transform="translate(11.492 5.901)"><path class="o" d="M1622.187,7253.969a4.262,4.262,0,0,1-2.407-.363,2.262,2.262,0,0,1-1.268-1.97,7.353,7.353,0,0,0,.145-1.431,4.53,4.53,0,0,0-.66-1.283,2.662,2.662,0,0,1,.714-3.259,10.082,10.082,0,0,0,1.551-1.043,7.224,7.224,0,0,0,.875-2.028,3.281,3.281,0,0,1,2.441-1.87,10.4,10.4,0,0,0,1.751-.214,5.948,5.948,0,0,0,1.295-.771,6,6,0,0,1,4.468-.837,3.593,3.593,0,0,1,1.811.892,4.728,4.728,0,0,1,1.439,1.863,5.95,5.95,0,0,1-.286,2.837,2.332,2.332,0,0,1-1.83,1.774" transform="translate(-1617.714 -7238.774)"/><g transform="translate(2.77 3.85)"><g transform="translate(1.511)"><path class="p" d="M1628.978,7266.97l7.136.1c.122-.821.364-4.027.364-4.027a3.552,3.552,0,0,0,3.3-3.123c.314-2.943.44-9.758.44-9.758h0a10.286,10.286,0,0,0-10.411.324l-.468.3Z" transform="translate(-1628.978 -7248.905)"/><g transform="translate(7.738 5.546)"><path class="o" d="M1649.34,7267.049a1.961,1.961,0,0,1,.67-.076c.107,0,.193-.019.205-.075a.584.584,0,0,0-.047-.312c-.079-.277-.16-.56-.243-.854a11.365,11.365,0,0,1-.491-2.233,11.312,11.312,0,0,1,.714,2.171l.226.86a.681.681,0,0,1,.016.447.278.278,0,0,1-.2.152.662.662,0,0,1-.183.006A1.963,1.963,0,0,1,1649.34,7267.049Z" transform="translate(-1649.34 -7263.499)"/></g><g transform="translate(3.771 12.643)"><path class="q" d="M1642.64,7283.631a6.881,6.881,0,0,1-3.738-1.454,3.645,3.645,0,0,0,3.673,2.217Z" transform="translate(-1638.901 -7282.178)"/></g></g><g transform="translate(0 4.948)"><path class="p" d="M1626.914,7261.953c-.058-.025-2.017-.344-1.906,1.985s2.426,1.446,2.427,1.379S1626.914,7261.953,1626.914,7261.953Z" transform="translate(-1625.003 -7261.925)"/><g transform="translate(0.597 0.787)"><path class="q" d="M1627.656,7265.819c-.011-.007-.039.03-.106.065a.407.407,0,0,1-.3.021,1,1,0,0,1-.508-.879,1.344,1.344,0,0,1,.086-.586.467.467,0,0,1,.29-.325.206.206,0,0,1,.245.1c.034.064.022.111.034.114s.048-.04.025-.137a.262.262,0,0,0-.1-.141.3.3,0,0,0-.227-.049.569.569,0,0,0-.406.381,1.376,1.376,0,0,0-.109.656,1.054,1.054,0,0,0,.64.978.439.439,0,0,0,.368-.079C1627.654,7265.876,1627.664,7265.823,1627.656,7265.819Z" transform="translate(-1626.573 -7263.998)"/></g></g><g transform="translate(6.592 4.403)"><path class="o" d="M1642.36,7261.007c-.032-.041.024-.151.175-.268a1.365,1.365,0,0,1,1.4-.1c.165.094.235.2.209.241-.058.1-.436-.032-.9.007C1642.787,7260.915,1642.431,7261.095,1642.36,7261.007Z" transform="translate(-1642.351 -7260.493)"/></g><g transform="translate(10.73 4.691)"><path class="o" d="M1653.241,7261.5c-.02-.106.3-.255.717-.253s.737.15.716.256-.339.14-.717.14S1653.261,7261.609,1653.241,7261.5Z" transform="translate(-1653.241 -7261.249)"/></g></g><path class="o" d="M1628.091,7248.24l.332,2.148a1.786,1.786,0,0,0,.341.948,1.277,1.277,0,0,0,1.557.1,3.721,3.721,0,0,0,1.4-1.973,6.1,6.1,0,0,1,1.144-2.165,2.836,2.836,0,0,0,3.272.6c.475-.239.87-.608,1.326-.882a1.739,1.739,0,0,1,1.517-.243c.269.111.511.333.8.32a.648.648,0,0,0,.523-.36,1.113,1.113,0,0,0,.1-.647,2.544,2.544,0,0,0-1.516-1.841,7.868,7.868,0,0,0-3.467-.6,13.111,13.111,0,0,0-3.344.332,5.776,5.776,0,0,0-2.881,1.653,3.733,3.733,0,0,0-.955,3.109" transform="translate(-1624.148 -7241.798)"/><path class="o" d="M1652.185,7247.559a3.518,3.518,0,0,0,1.121,1.945,1.505,1.505,0,0,0,.986.443,1.223,1.223,0,0,0,1.075-1.221,2.329,2.329,0,0,0-.729-1.591,2.209,2.209,0,0,0-1.483-.783,1.132,1.132,0,0,0-1.185.994" transform="translate(-1638.953 -7243.472)"/><g transform="translate(9.18 9.056)"><g transform="translate(0.62 0.468)"><path class="o" d="M1643.5,7264.185a.373.373,0,0,0,.368.369.357.357,0,0,0,.377-.344.374.374,0,0,0-.367-.37A.358.358,0,0,0,1643.5,7264.185Z" transform="translate(-1643.503 -7263.839)"/></g><path class="o" d="M1641.878,7263.015c.047.047.326-.167.728-.174s.7.188.743.138c.021-.021-.029-.109-.159-.2a1.038,1.038,0,0,0-.6-.17.988.988,0,0,0-.578.2C1641.895,7262.905,1641.855,7262.993,1641.878,7263.015Z" transform="translate(-1641.872 -7262.607)"/></g><g transform="translate(13.375 9.118)"><g transform="translate(0.539 0.395)"><path class="o" d="M1654.329,7264.152a.373.373,0,0,0,.368.369.357.357,0,0,0,.378-.344.372.372,0,0,0-.367-.369A.356.356,0,0,0,1654.329,7264.152Z" transform="translate(-1654.329 -7263.808)"/></g><path class="o" d="M1652.917,7263.175c.047.048.326-.167.728-.174s.7.188.743.138c.021-.022-.027-.109-.158-.2a1.028,1.028,0,0,0-.6-.171.986.986,0,0,0-.578.2C1652.934,7263.065,1652.893,7263.154,1652.917,7263.175Z" transform="translate(-1652.91 -7262.767)"/></g><g transform="translate(10.748 12.987)"><path class="o" d="M1647.171,7274.1c0,.024-.1.071-.28.06a.972.972,0,0,1-.894-.936c0-.181.048-.282.072-.276.054,0,.012.435.339.777S1647.173,7274.05,1647.171,7274.1Z" transform="translate(-1645.998 -7272.952)"/></g></g><g transform="translate(24.716 33.279)"><path class="q" d="M1652.557,7312.8l5.93-1.984s4.13,9.768,5.193,9.865c5.888.536,12.187-1.415,14.4-2.187.224-.251.48-.554.765-.924a3.526,3.526,0,0,0,.554-1.058,5.378,5.378,0,0,0,.315-1.454.462.462,0,0,1,.794-.364,3.793,3.793,0,0,1-.261,2.948c-.581,1.357,1.476.278,2.233-.1s3.153-1.445,3.454-1.306c.442.205.3.717-.462,1.078s-2.98,1.609-2.76,2,4.042-1.6,4.042-1.6.749-.557,1.018-.115c.486.8-3.737,2.61-4.143,2.773-.282.113-.058.545.239.408s3.77-2.071,4.272-1.264c.385.619-3.459,1.523-3.956,2.322s2.846-.982,3.189-.375c.128.227.192.412-1.875,1.158a44.147,44.147,0,0,1-4.607,1.176l.007.021s-21.275,9.521-25.1.333C1651.9,7314.79,1652.557,7312.8,1652.557,7312.8Z" transform="translate(-1652.515 -7310.82)"/></g><path class="r" d="M1632.379,7301.866c-2.373-5.56-5.484-7.738-7.125-8.542a4.762,4.762,0,0,0-1.837-.472h0l-.2-.956-7.867-.708-.193,1.216-1.155-.062s-6.783.678-6.795,8.535c-.006,3.675,1.979,7.25,2.679,9,.437,3.665-1.135,10.309-1.093,11.929l19.278,1.367.815-12.05-.18-1.131,6.346-1.942Zm-17.027-9.451Z" transform="translate(-1599.71 -7265.37)"/><g transform="translate(21.798)"><path class="o" d="M1701.359,7235.731a22.4,22.4,0,0,0-39.7,11.685h0a22.383,22.383,0,0,0,7.561,19.253l-19.605,23.007,2.813,2.4,19.771-23.2a22.261,22.261,0,0,0,9.35,3.194,22.726,22.726,0,0,0,2.423.13,22.4,22.4,0,0,0,17.388-36.466Zm1.164,16.051a18.7,18.7,0,1,1-4.041-13.729A18.58,18.58,0,0,1,1702.523,7251.783Z" transform="translate(-1647.798 -7225.819)"/><path class="h" d="M1696.819,7231.58a22.4,22.4,0,0,0-39.7,11.684h0a22.381,22.381,0,0,0,7.561,19.252l-19.843,23.2,3.007,2.406,19.814-23.4a22.254,22.254,0,0,0,9.35,3.194,22.711,22.711,0,0,0,2.423.129,22.4,22.4,0,0,0,17.388-36.464Zm1.164,16.052a18.7,18.7,0,1,1-4.04-13.731A18.577,18.577,0,0,1,1697.983,7247.631Z" transform="translate(-1644.836 -7223.245)"/><g transform="translate(20.33 14.087)"><path class="o" d="M1702.394,7280.761a.87.87,0,0,1-.148-.166c-.09-.113-.23-.275-.389-.5a17.133,17.133,0,0,1-1.248-1.967,18.529,18.529,0,0,1-1.268-14.919,16.937,16.937,0,0,1,.9-2.149c.119-.248.23-.432.3-.559a1,1,0,0,1,.118-.187.92.92,0,0,1-.083.206c-.057.132-.156.321-.264.573a20.316,20.316,0,0,0-.835,2.159,19.036,19.036,0,0,0,1.259,14.811,20.258,20.258,0,0,0,1.187,1.989c.149.23.279.4.357.52A.946.946,0,0,1,1702.394,7280.761Z" transform="translate(-1698.337 -7260.315)"/></g><g transform="translate(24.455 11.526)"><path class="o" d="M1710.058,7253.583c.033.046-.195.258-.423.558s-.377.573-.43.553.023-.348.274-.672S1710.031,7253.54,1710.058,7253.583Z" transform="translate(-1709.19 -7253.576)"/></g></g><g transform="translate(7.947 26.002)"><g transform="translate(19.467 6.295)"><path class="o" d="M1659.618,7308.235a2.883,2.883,0,0,1,.138.526c.077.34.177.834.292,1.447.23,1.226.507,2.927.741,4.815s.378,3.606.453,4.852c.038.622.061,1.126.07,1.475a2.81,2.81,0,0,1-.006.542,2.872,2.872,0,0,1-.071-.538c-.034-.384-.079-.877-.132-1.469-.111-1.24-.278-2.952-.51-4.837s-.488-3.585-.682-4.815c-.092-.586-.169-1.076-.229-1.457A2.818,2.818,0,0,1,1659.618,7308.235Z" transform="translate(-1659.614 -7308.235)"/></g><g transform="translate(1.586 11.986)"><path class="p" d="M1640.931,7336.188s-21.268,9.543-25.094.354c-3.9-9.359-3.236-11.346-3.236-11.346l5.93-1.983s4.13,9.768,5.193,9.864c5.888.538,12.187-1.415,14.4-2.187.224-.252.48-.555.765-.925.244-.317.5-.775.75-1.089a7.823,7.823,0,0,1,1.252-1.1c.587-.665,1.124-.179.868.179a6.39,6.39,0,0,0-1.468,2.081c-.581,1.355,1.489.689,2.308.474.906-.237,2.606-.9,2.606-.9a1.99,1.99,0,0,1-1.176,1.563,12.192,12.192,0,0,1-1.274.53s1.572-.191,1.614.167-.466,3.009-2.138,3.8Z" transform="translate(-1612.559 -7323.214)"/></g><path class="r" d="M1614.562,7300.808l3.82,11.542-8.361,3.306s-4.362-11.335,1.162-14.109Z" transform="translate(-1608.385 -7297.335)"/><g transform="translate(1.615 1.771)"><g transform="translate(2.319)"><path class="o" d="M1625.356,7309.126s-.047-.03-.113-.108a2.134,2.134,0,0,1-.251-.371,12.876,12.876,0,0,1-.6-1.52c-.468-1.292-1.1-3.084-1.791-5.066l-.964-2.8a6.949,6.949,0,0,0-.964-2.169,1.763,1.763,0,0,0-1.366-.68,1.7,1.7,0,0,0-.567.137s.038-.041.128-.091a1.133,1.133,0,0,1,.435-.122,1.809,1.809,0,0,1,1.477.665,6.8,6.8,0,0,1,1.03,2.2l.978,2.792c.689,1.983,1.3,3.781,1.737,5.087.221.651.374,1.187.54,1.529S1625.37,7309.114,1625.356,7309.126Z" transform="translate(-1618.737 -7296.333)"/></g><g transform="translate(0 13.007)"><path class="o" d="M1621.4,7330.562a1.405,1.405,0,0,1-.316.2c-.209.116-.517.277-.9.467-.767.38-1.844.875-3.056,1.365s-2.332.879-3.149,1.137c-.408.13-.741.228-.973.289a1.4,1.4,0,0,1-.365.078,10.8,10.8,0,0,1,1.293-.5c.8-.292,1.91-.7,3.12-1.189s2.29-.96,3.071-1.308A11.079,11.079,0,0,1,1621.4,7330.562Z" transform="translate(-1612.635 -7330.56)"/></g><g transform="translate(0.703 14.405)"><path class="o" d="M1615.175,7335.957a4.358,4.358,0,1,1-.247-.895A2.24,2.24,0,0,1,1615.175,7335.957Z" transform="translate(-1614.485 -7334.239)"/></g><g transform="translate(2.541 13.786)"><path class="o" d="M1619.938,7334.268c-.047.027-.278-.308-.445-.775a1.6,1.6,0,0,1-.149-.882,9.524,9.524,0,0,1,.594,1.657Z" transform="translate(-1619.321 -7332.61)"/></g><g transform="translate(4.353 12.931)"><path class="o" d="M1624.746,7332.07c-.045.028-.3-.312-.475-.8a1.66,1.66,0,0,1-.16-.913,13.87,13.87,0,0,1,.635,1.71Z" transform="translate(-1624.089 -7330.359)"/></g><g transform="translate(6.405 12.02)"><path class="o" d="M1630.076,7329.784a4.656,4.656,0,1,1-.19-.939A2.4,2.4,0,0,1,1630.076,7329.784Z" transform="translate(-1629.491 -7327.963)"/></g></g><g transform="translate(21.052 15.338)"><g transform="translate(0 1.21)"><path class="o" d="M1670.285,7335.223a59,59,0,0,1-6.5,2.07,58.724,58.724,0,0,1,6.5-2.07Z" transform="translate(-1663.786 -7335.218)"/></g><g transform="translate(0.826 1.23)"><path class="o" d="M1666.538,7336.6c-.05.02-.218-.258-.373-.624s-.242-.679-.192-.7.217.258.374.624S1666.589,7336.574,1666.538,7336.6Z" transform="translate(-1665.959 -7335.271)"/></g><g transform="translate(2.578 0.603)"><path class="o" d="M1671.034,7335.2c-.05.02-.23-.31-.351-.754a1.5,1.5,0,0,1-.082-.829c.055-.009.154.343.273.776A2.241,2.241,0,0,1,1671.034,7335.2Z" transform="translate(-1670.571 -7333.621)"/></g><g transform="translate(4.442)"><path class="o" d="M1675.832,7333.657a3.525,3.525,0,1,1-.069-.832A1.831,1.831,0,0,1,1675.832,7333.657Z" transform="translate(-1675.475 -7332.033)"/></g></g><g transform="translate(8.403)"><path class="o" d="M1630.568,7292.6c-.054,0-.084-.214-.066-.471s.077-.46.132-.457.084.215.066.471S1630.623,7292.6,1630.568,7292.6Z" transform="translate(-1630.497 -7291.671)"/></g><g transform="translate(10.087 0.1)"><path class="o" d="M1635.05,7292.862c-.054,0-.107-.2-.118-.459s.026-.466.08-.468.107.2.118.461S1635.1,7292.86,1635.05,7292.862Z" transform="translate(-1634.93 -7291.935)"/></g><g transform="translate(11.451 0.299)"><path class="o" d="M1638.614,7293.417c-.055,0-.1-.216-.095-.481s.048-.48.1-.479.1.215.1.481S1638.669,7293.418,1638.614,7293.417Z" transform="translate(-1638.519 -7292.457)"/></g><g transform="translate(13.186 0.331)"><path class="o" d="M1643.254,7293.67c-.052.013-.16-.232-.169-.559s.083-.578.135-.568.053.261.063.563S1643.308,7293.656,1643.254,7293.67Z" transform="translate(-1643.084 -7292.542)"/></g><g transform="translate(14.659 0.332)"><path class="o" d="M1647.147,7293.672c-.054.007-.128-.241-.166-.551s-.023-.568.031-.574.129.24.166.55S1647.2,7293.666,1647.147,7293.672Z" transform="translate(-1646.961 -7292.546)"/></g></g></g></g></svg>