<svg xmlns="http://www.w3.org/2000/svg" width="307.771" height="266.323" viewBox="0 0 307.771 266.323"><defs><style>.a{fill:#ebebeb;}.b{fill:#e0e0e0;}.c{fill:#f0f0f0;}.d{fill:#fafafa;}.ab,.ac,.e,.y{fill:none;stroke-linecap:round;stroke-linejoin:round;}.e{stroke:#e0e0e0;stroke-width:3px;}.f{fill:#e6e6e6;}.g{fill:#f5f5f5;}.h{fill:#d9a171;}.i,.l,.o,.q,.v,.w,.x,.z{fill:#fff;}.i,.j,.p{opacity:0.2;}.j{fill:#a66d58;}.k{fill:#407bff;}.l{opacity:0.8;}.m{fill:#263238;}.n{fill:#afafaf;}.o{opacity:0.4;}.p,.r{isolation:isolate;}.q{opacity:0.7;}.r,.s,.v{opacity:0.1;}.t{fill:#2e353a;}.u{fill:#e4897b;}.w{opacity:0.6;}.x{opacity:0.3;}.y{stroke:#fff;}.z{opacity:0.5;}.aa{fill:#de5753;}.ab,.ac{stroke:#263238;}.ab{stroke-width:0.708px;}.ac{stroke-width:0.5px;}.ad{fill:#e8e8e8;}</style></defs><g transform="translate(-70.832 -110.461)"><g transform="translate(79.411 110.461)"><g transform="translate(36.342 12.619)"><rect class="a" width="7.132" height="7.132" transform="matrix(0.978, -0.21, 0.21, 0.978, 35.428, 8.124)"/><circle class="b" cx="39.317" cy="39.317" r="39.317" transform="translate(6.774 87.35) rotate(-86.94)"/><circle class="c" cx="34.229" cy="34.229" r="34.229" transform="matrix(0.778, -0.628, 0.628, 0.778, 0, 45.047)"/><rect class="b" width="12.849" height="8.04" transform="matrix(0.978, -0.21, 0.21, 0.978, 31.338, 2.704)"/><path class="b" d="M181.969,182.394a3.331,3.331,0,1,1-3.958-2.556A3.331,3.331,0,0,1,181.969,182.394Z" transform="translate(-130.579 -132.908)"/><path class="b" d="M169.666,151.446c1.044,2.2,1.937,4.438,2.836,6.677l1.291,3.377,1.218,3.4c.812,2.266,1.564,4.549,2.3,6.837s1.437,4.587,2.1,6.9l-2.581-.7q2.325-2.143,4.71-4.221t4.824-4.1c1.613-1.36,3.278-2.665,4.943-3.969,1.682-1.286,3.369-2.567,5.135-3.762-1.323,1.673-2.726,3.259-4.135,4.84-1.425,1.564-2.85,3.126-4.327,4.633-1.461,1.524-2.938,3.031-4.446,4.505s-3.02,2.942-4.56,4.381l-1.837,1.716-.744-2.421c-.706-2.3-1.371-4.607-2.014-6.922s-1.26-4.639-1.822-6.98l-.841-3.51-.768-3.532C170.474,156.22,169.995,153.856,169.666,151.446Z" transform="translate(-129.769 -128.892)"/></g><g transform="translate(138.29 2.343)"><path class="c" d="M397.7,156.138l-30.872,89.748L241.971,202.939l30.872-89.748,4.2,1.443a2.654,2.654,0,0,0-.8,1.175,2.718,2.718,0,1,0,5.141,1.769,2.65,2.65,0,0,0,.094-1.418l4.181,1.438a2.649,2.649,0,0,0-.8,1.175A2.718,2.718,0,1,0,290,120.542a2.65,2.65,0,0,0,.094-1.418l4.181,1.438a2.648,2.648,0,0,0-.8,1.175,2.718,2.718,0,1,0,5.141,1.769,2.658,2.658,0,0,0,.094-1.418l4.181,1.438a2.654,2.654,0,0,0-.8,1.175,2.718,2.718,0,1,0,5.141,1.769,2.65,2.65,0,0,0,.094-1.418l4.181,1.438a2.656,2.656,0,0,0-.8,1.175,2.718,2.718,0,1,0,5.141,1.769,2.65,2.65,0,0,0,.094-1.418l4.181,1.438a2.65,2.65,0,0,0-.8,1.175,2.718,2.718,0,1,0,5.141,1.769,2.65,2.65,0,0,0,.094-1.418l4.181,1.438a2.654,2.654,0,0,0-.8,1.175,2.718,2.718,0,1,0,5.141,1.769,2.65,2.65,0,0,0,.094-1.418l4.181,1.438a2.653,2.653,0,0,0-.8,1.175,2.718,2.718,0,1,0,5.141,1.769,2.659,2.659,0,0,0,.094-1.418l4.181,1.438a2.649,2.649,0,0,0-.8,1.175,2.718,2.718,0,1,0,5.141,1.769,2.65,2.65,0,0,0,.094-1.418l4.181,1.438a2.661,2.661,0,0,0-.8,1.175,2.718,2.718,0,1,0,5.141,1.769,2.651,2.651,0,0,0,.094-1.418l4.181,1.438a2.655,2.655,0,0,0-.8,1.175,2.718,2.718,0,1,0,5.141,1.769,2.65,2.65,0,0,0,.094-1.418l4.181,1.438a2.649,2.649,0,0,0-.8,1.175,2.718,2.718,0,1,0,5.141,1.769,2.65,2.65,0,0,0,.094-1.418l4.182,1.438a2.651,2.651,0,0,0-.8,1.175,2.718,2.718,0,1,0,5.141,1.769,2.65,2.65,0,0,0,.094-1.418l4.181,1.438a2.652,2.652,0,0,0-.8,1.176,2.718,2.718,0,0,0,5.141,1.768,2.65,2.65,0,0,0,.094-1.418Z" transform="translate(-241.971 -113.191)"/><path class="b" d="M401.759,156.138l-6.292,18.291L270.613,131.482l6.291-18.291,4.2,1.443a2.654,2.654,0,0,0-.8,1.175,2.718,2.718,0,1,0,5.141,1.769,2.65,2.65,0,0,0,.094-1.418l4.181,1.438a2.649,2.649,0,0,0-.8,1.175,2.718,2.718,0,1,0,5.141,1.769,2.65,2.65,0,0,0,.094-1.418l4.181,1.438a2.648,2.648,0,0,0-.8,1.175,2.718,2.718,0,1,0,5.141,1.769,2.658,2.658,0,0,0,.094-1.418l4.181,1.438a2.654,2.654,0,0,0-.8,1.175,2.718,2.718,0,1,0,5.141,1.769,2.65,2.65,0,0,0,.094-1.418l4.181,1.438a2.656,2.656,0,0,0-.8,1.175,2.718,2.718,0,1,0,5.141,1.769,2.65,2.65,0,0,0,.094-1.418l4.181,1.438a2.65,2.65,0,0,0-.8,1.175,2.718,2.718,0,1,0,5.141,1.769,2.65,2.65,0,0,0,.094-1.418l4.181,1.438a2.654,2.654,0,0,0-.8,1.175,2.718,2.718,0,1,0,5.141,1.769,2.65,2.65,0,0,0,.094-1.418l4.181,1.438a2.653,2.653,0,0,0-.8,1.175,2.718,2.718,0,1,0,5.141,1.769,2.659,2.659,0,0,0,.094-1.418l4.181,1.438a2.649,2.649,0,0,0-.8,1.175,2.718,2.718,0,1,0,5.141,1.769,2.65,2.65,0,0,0,.094-1.418l4.181,1.438a2.661,2.661,0,0,0-.8,1.175A2.718,2.718,0,1,0,363,144.256a2.65,2.65,0,0,0,.094-1.418l4.181,1.438a2.655,2.655,0,0,0-.8,1.175,2.718,2.718,0,1,0,5.141,1.769,2.65,2.65,0,0,0,.094-1.418l4.181,1.438a2.649,2.649,0,0,0-.8,1.175,2.718,2.718,0,1,0,5.141,1.769,2.65,2.65,0,0,0,.094-1.418l4.182,1.438a2.651,2.651,0,0,0-.8,1.175,2.718,2.718,0,1,0,5.141,1.769,2.65,2.65,0,0,0,.094-1.418l4.181,1.438a2.652,2.652,0,0,0-.8,1.176,2.718,2.718,0,0,0,5.141,1.768,2.65,2.65,0,0,0,.094-1.418Z" transform="translate(-246.033 -113.191)"/><g transform="translate(9.149 35.538)"><g transform="translate(48.673 0)"><rect class="d" width="14.464" height="14.464" transform="translate(4.705 0) rotate(18.982)"/><rect class="d" width="14.464" height="14.464" transform="translate(21.058 5.625) rotate(18.982)"/><rect class="d" width="14.464" height="14.464" transform="translate(37.412 11.25) rotate(18.982)"/><rect class="d" width="14.464" height="14.464" transform="translate(53.765 16.876) rotate(18.982)"/><rect class="d" width="14.464" height="14.464" transform="translate(70.119 22.501) rotate(18.982)"/></g><g transform="translate(10.644 4.221)"><rect class="d" width="14.464" height="14.464" transform="matrix(0.946, 0.325, -0.325, 0.946, 4.705, 0)"/><rect class="d" width="14.464" height="14.464" transform="translate(21.058 5.625) rotate(18.982)"/><rect class="d" width="14.464" height="14.464" transform="matrix(0.946, 0.325, -0.325, 0.946, 37.412, 11.25)"/><rect class="d" width="14.464" height="14.464" transform="matrix(0.946, 0.325, -0.325, 0.946, 53.765, 16.876)"/><rect class="d" width="14.464" height="14.464" transform="translate(70.119 22.501) rotate(18.982)"/><rect class="d" width="14.464" height="14.464" transform="translate(86.473 28.126) rotate(18.982)"/><rect class="d" width="14.464" height="14.464" transform="translate(102.826 33.751) rotate(18.982)"/></g><g transform="translate(5.322 19.693)"><rect class="d" width="14.464" height="14.464" transform="translate(4.705 0) rotate(18.982)"/><rect class="d" width="14.464" height="14.464" transform="translate(21.058 5.625) rotate(18.982)"/><rect class="d" width="14.464" height="14.464" transform="matrix(0.946, 0.325, -0.325, 0.946, 37.412, 11.25)"/><rect class="d" width="14.464" height="14.464" transform="translate(53.765 16.876) rotate(18.982)"/><rect class="d" width="14.464" height="14.464" transform="matrix(0.946, 0.325, -0.325, 0.946, 70.119, 22.501)"/><rect class="d" width="14.464" height="14.464" transform="translate(86.473 28.126) rotate(18.982)"/><rect class="d" width="14.464" height="14.464" transform="translate(102.826 33.751) rotate(18.982)"/></g><g transform="translate(0 35.165)"><rect class="d" width="14.464" height="14.464" transform="translate(4.705 0) rotate(18.982)"/><rect class="d" width="14.464" height="14.464" transform="translate(21.058 5.625) rotate(18.982)"/><rect class="d" width="14.464" height="14.464" transform="translate(37.412 11.25) rotate(18.982)"/><rect class="d" width="14.464" height="14.464" transform="translate(53.765 16.876) rotate(18.982)"/><rect class="d" width="14.464" height="14.464" transform="translate(70.119 22.501) rotate(18.982)"/><rect class="d" width="14.464" height="14.464" transform="translate(86.473 28.126) rotate(18.982)"/></g></g><line class="e" x2="8.973" y2="18.382" transform="translate(73.558 56.635)"/><line class="e" x1="18.382" y2="8.973" transform="translate(68.853 61.34)"/></g><path class="a" d="M80.829,150.393v5.693l2.931.275a15.2,15.2,0,0,0,2.187,5.258l-1.883,2.274,4.025,4.026,2.274-1.883a15.207,15.207,0,0,0,5.258,2.186l.276,2.932h5.693l.275-2.932a15.2,15.2,0,0,0,5.258-2.186l2.274,1.883,4.026-4.026-1.883-2.274a15.2,15.2,0,0,0,2.186-5.258l2.932-.275v-5.693l-2.932-.276a15.2,15.2,0,0,0-2.186-5.258l1.883-2.274-4.026-4.025-2.274,1.882a15.217,15.217,0,0,0-5.258-2.186l-.275-2.932H95.9l-.276,2.932a15.223,15.223,0,0,0-5.258,2.186l-2.274-1.882-4.025,4.025,1.883,2.274a15.2,15.2,0,0,0-2.187,5.258Zm17.915-4.86a7.707,7.707,0,1,1-7.707,7.706A7.707,7.707,0,0,1,98.744,145.533Z" transform="translate(-80.829 -113.987)"/><path class="b" d="M232.509,302.723a26.271,26.271,0,0,0,9.076-3.773l3.925,3.249,6.948-6.948-3.25-3.925a26.249,26.249,0,0,0,3.773-9.075l5.059-.477v-9.825l-5.059-.476a26.24,26.24,0,0,0-3.773-9.076l3.25-3.926-6.948-6.947-3.925,3.249A26.271,26.271,0,0,0,232.509,251l-.476-5.059h-9.826L221.73,251a26.27,26.27,0,0,0-9.076,3.773l-3.925-3.249-6.948,6.947,3.25,3.926a26.239,26.239,0,0,0-3.773,9.076l-5.059.476v9.825l5.059.477a26.249,26.249,0,0,0,3.773,9.075l-3.25,3.925,6.948,6.948,3.925-3.249a26.271,26.271,0,0,0,9.076,3.773l.476,5.059h9.826ZM213.817,276.86a13.3,13.3,0,1,1,13.3,13.3A13.3,13.3,0,0,1,213.817,276.86Z" transform="translate(-97.19 -129.674)"/><path class="f" d="M108.106,357.388l1.5,1.239,2.65-2.65-1.239-1.5a10,10,0,0,0,1.438-3.461l1.93-.181v-3.747l-1.93-.182a10,10,0,0,0-1.438-3.461l1.239-1.5L109.6,339.3l-1.5,1.239a10.016,10.016,0,0,0-3.46-1.439l-.182-1.929h-3.747l-.182,1.929a10.011,10.011,0,0,0-3.461,1.439l-1.5-1.239-2.649,2.649,1.239,1.5a10.021,10.021,0,0,0-1.439,3.461l-1.929.182v3.747l1.929.181a10.014,10.014,0,0,0,1.439,3.461l-1.239,1.5,2.649,2.65,1.5-1.239a10.009,10.009,0,0,0,3.461,1.438l.182,1.929h3.747l.182-1.929A10,10,0,0,0,108.106,357.388Zm-10.588-8.423a5.072,5.072,0,1,1,5.073,5.072A5.072,5.072,0,0,1,97.518,348.964Z" transform="translate(-82.243 -142.612)"/><path class="g" d="M234.3,130.135l.868.718,1.535-1.535-.718-.868a5.776,5.776,0,0,0,.833-2.006l1.118-.1v-2.171l-1.117-.106a5.8,5.8,0,0,0-.834-2.006l.718-.867-1.535-1.535-.868.718a5.791,5.791,0,0,0-2-.834l-.106-1.118h-2.171l-.1,1.118a5.788,5.788,0,0,0-2.006.834l-.868-.718-1.535,1.535.718.867a5.8,5.8,0,0,0-.834,2.006l-1.117.106v2.171l1.117.1a5.794,5.794,0,0,0,.834,2.006l-.718.868,1.535,1.535.868-.718a5.8,5.8,0,0,0,2.006.833l.1,1.118h2.171l.106-1.118A5.806,5.806,0,0,0,234.3,130.135Zm-6.135-4.881a2.939,2.939,0,1,1,2.939,2.938A2.939,2.939,0,0,1,228.161,125.255Z" transform="translate(-101.171 -111.59)"/><path class="c" d="M387.622,122.174l.868.718,1.535-1.535-.718-.867a5.784,5.784,0,0,0,.833-2.006l1.118-.106v-2.17l-1.117-.106a5.8,5.8,0,0,0-.834-2.006l.718-.868-1.535-1.535-.868.718a5.806,5.806,0,0,0-2-.833l-.106-1.118H383.34l-.106,1.118a5.789,5.789,0,0,0-2,.833l-.868-.718-1.535,1.535.718.868a5.794,5.794,0,0,0-.834,2.006l-1.117.106v2.17l1.117.106a5.8,5.8,0,0,0,.834,2.006l-.718.867,1.535,1.535.868-.718a5.791,5.791,0,0,0,2,.834l.106,1.118h2.171l.106-1.118A5.791,5.791,0,0,0,387.622,122.174Zm-6.135-4.881a2.939,2.939,0,1,1,2.939,2.939A2.939,2.939,0,0,1,381.487,117.293Z" transform="translate(-122.914 -110.461)"/><path class="a" d="M419.289,280.789l1.5,1.239,2.649-2.65-1.239-1.5a10.017,10.017,0,0,0,1.439-3.46l1.929-.182v-3.747l-1.929-.182a10.017,10.017,0,0,0-1.439-3.46l1.239-1.5-2.649-2.649-1.5,1.239a10.021,10.021,0,0,0-3.461-1.439l-.182-1.929H411.9l-.181,1.928a10.014,10.014,0,0,0-3.461,1.439l-1.5-1.239-2.65,2.649,1.239,1.5a10,10,0,0,0-1.438,3.46l-1.929.182v3.747l1.929.182a10,10,0,0,0,1.438,3.46l-1.239,1.5,2.65,2.65,1.5-1.239a10.014,10.014,0,0,0,3.461,1.439l.181,1.929h3.747l.182-1.93A10,10,0,0,0,419.289,280.789ZM408.7,272.366a5.072,5.072,0,1,1,5.072,5.072A5.071,5.071,0,0,1,408.7,272.366Z" transform="translate(-126.373 -131.749)"/><path class="c" d="M297.7,373.565l2.366,1.959,4.189-4.19-1.959-2.366a15.805,15.805,0,0,0,2.274-5.471l3.051-.287v-5.923l-3.05-.288a15.822,15.822,0,0,0-2.275-5.472l1.959-2.367-4.189-4.189-2.366,1.959a15.849,15.849,0,0,0-5.472-2.274l-.287-3.051h-5.924l-.287,3.049a15.838,15.838,0,0,0-5.472,2.275l-2.367-1.959-4.189,4.189,1.959,2.367A15.814,15.814,0,0,0,273.389,357l-3.049.288v5.923l3.049.287a15.84,15.84,0,0,0,2.275,5.471l-1.959,2.366,4.189,4.19,2.367-1.959a15.821,15.821,0,0,0,5.472,2.275l.287,3.05h5.924l.287-3.051A15.816,15.816,0,0,0,297.7,373.565Zm-16.74-13.317a8.019,8.019,0,1,1,8.019,8.02A8.018,8.018,0,0,1,280.963,360.248Z" transform="translate(-107.704 -143.241)"/></g><g transform="translate(81.164 175.669)"><g transform="translate(0 0)"><path class="h" d="M132.872,192.916c-27.752,4.8-49.436,13.389-48.433,19.187l.465,2.691h0c1,5.8,24.312,6.607,52.064,1.808S186.4,203.213,185.4,197.415l-.465-2.691C183.932,188.926,160.623,188.117,132.872,192.916Z" transform="translate(-83.089 -186.918)"/><ellipse class="i" cx="50.994" cy="10.653" rx="50.994" ry="10.653" transform="translate(0 17.379) rotate(-9.811)"/><path class="h" d="M135.407,202.788c-24.848,4.3-44.264,11.989-43.366,17.18l.776,4.486h0c.9,5.191,21.769,5.916,46.617,1.619s44.264-11.989,43.367-17.18h0l-.776-4.487C181.127,199.215,160.256,198.491,135.407,202.788Z" transform="translate(-84.167 -188.365)"/><ellipse class="j" cx="45.66" cy="9.539" rx="45.66" ry="9.539" transform="matrix(0.985, -0.17, 0.17, 0.985, 7.024, 26.69)"/><g transform="translate(13.919 20.926)"><path class="k" d="M162.351,272.453a7.945,7.945,0,0,1-2.149-12.426c10.069-10.957,22.255-28.405,19.159-46.312-.664-3.841-19.168-3.849-41.329-.017s-39.588,10.054-38.923,13.9c3.1,17.907,20.434,30.248,33.6,37.188a7.945,7.945,0,0,1,2.149,12.426c-10.069,10.957-22.255,28.405-19.159,46.312.665,3.841,19.168,3.849,41.329.016s39.588-10.053,38.924-13.895C192.853,291.734,175.515,279.392,162.351,272.453Z" transform="translate(-99.091 -210.829)"/><path class="l" d="M162.351,272.453a7.945,7.945,0,0,1-2.149-12.426c10.069-10.957,22.255-28.405,19.159-46.312-.664-3.841-19.168-3.849-41.329-.017s-39.588,10.054-38.923,13.9c3.1,17.907,20.434,30.248,33.6,37.188a7.945,7.945,0,0,1,2.149,12.426c-10.069,10.957-22.255,28.405-19.159,46.312.665,3.841,19.168,3.849,41.329.016s39.588-10.053,38.924-13.895C192.853,291.734,175.515,279.392,162.351,272.453Z" transform="translate(-99.091 -210.829)"/></g><g transform="translate(32.197 108.554)"><path class="m" d="M197,325.151c.4,4.024-70.991,17.922-75.734,11.746a5,5,0,0,1-.534-4.757,13.544,13.544,0,0,1,2.131-3.955c2.2-2.986,7.066-4.294,10.364-5.5,2.224-.811,4.467-1.561,6.705-2.334,2.4-.832,4.869-.255,6.959-2.079,1.25-1.093,2.185-2.71,3.8-3.11,1.188-.293,2.467.177,3.643-.139,1.529-.409,2.62-2.054,4.2-2.085a9.94,9.94,0,0,1,2.285.562c1.377.293,2.786-.168,4.188-.29a17.386,17.386,0,0,1,4.145.3,126.483,126.483,0,0,0,12.893,1.776c3.19.173,6.714.094,9.818.972a5.929,5.929,0,0,1,3.16,2.783l.009.006A14.836,14.836,0,0,1,197,325.151Z" transform="translate(-120.388 -312.937)"/><path class="i" d="M182.055,317.015c.062.03.011.015-.142-.032A.523.523,0,0,1,182.055,317.015Z" transform="translate(-129.113 -313.51)"/><path class="i" d="M195.074,319.036c-1.975-1.79-5.62-1.666-6.668-1.589s-1.413-.818-2.21-1.105-5.456.308-5.456.308,1.754.331,2.077.9c.294.536,2.319-.079,2.579-.156-.272.151-2.652,1.407-3.781.645-1.2-.806-1.584.652-2.478,1.016a10.832,10.832,0,0,1-4.16-.149,37.251,37.251,0,0,0-4.033-.027,5.823,5.823,0,0,1,2.294-.823c.755.087,3.771-1.5,3.154-1.389s-2.029-.711-3.126-1.052a14.89,14.89,0,0,0-3.985.255,13.057,13.057,0,0,1,3.947.548,18.72,18.72,0,0,0-2.569.814,8.4,8.4,0,0,1-2.366.409,3.279,3.279,0,0,0-1.6,1.233,25.159,25.159,0,0,1-2.983.516,7.108,7.108,0,0,1-2.923-.347l2.71-.887-.923-.266a10.74,10.74,0,0,0-1.96-.457c-1.093-.181-1.549.855-1.818,1.11s-2.648.032-3.318-.166-5.624,1.849-5.624,1.849l3.092-.535a7.584,7.584,0,0,0,2.539.59c2.067.278,2.366-.409,3.229-.349s3.748.839,3.748.839l-1.115.3a10.857,10.857,0,0,1-2.97-.017c-1.737-.231-2.642.674-3.157.763a25.875,25.875,0,0,1-4.033.584,4.6,4.6,0,0,0-2.831,1.39,3.51,3.51,0,0,1-3.568.85c-1.558-.406-4.195,1.506-4.195,1.506s1.38-1.831,2.1-1.956a19.921,19.921,0,0,0,3.226-1.619,6.674,6.674,0,0,0-1.149.094,2.864,2.864,0,0,1-2.139-.692c-.843-.594-1.719-.129-2.983.516s-2.618,1.41-3.947.474-5.4,2.519-5.4,2.519a15.168,15.168,0,0,0,2.7-.926c.373-.306.641.034,1.845.251s1.594-.6,2.183-.908,2.368.209,2.368.209a2.612,2.612,0,0,1-1.34.248c-.654-.1-1.7,1.775-2.061,1.57a8.2,8.2,0,0,0-3.912.677c-1.071.547-2.654,2.421-4.239,1.851-1.347-.491-4.39,3.638-7.059,3.689a13.544,13.544,0,0,1,2.131-3.955c2.2-2.986,7.066-4.294,10.364-5.5,2.224-.811,4.467-1.561,6.705-2.334,2.4-.832,4.869-.255,6.959-2.079,1.25-1.093,2.185-2.71,3.8-3.11,1.188-.293,2.467.177,3.643-.139,1.529-.409,2.62-2.054,4.2-2.085a9.94,9.94,0,0,1,2.285.562c1.377.293,2.786-.168,4.188-.29a17.386,17.386,0,0,1,4.145.3,126.482,126.482,0,0,0,12.893,1.776c3.19.173,6.714.094,9.818.972A5.929,5.929,0,0,1,195.074,319.036Z" transform="translate(-120.445 -312.937)"/></g><g transform="translate(22.37 116.918)"><path class="h" d="M156.626,325.487c-24.849,4.3-44.264,11.988-43.367,17.179l.776,4.487h0c.9,5.191,21.769,5.915,46.618,1.619s44.264-11.989,43.366-17.18h0l-.776-4.486C202.345,321.914,181.474,321.189,156.626,325.487Z" transform="translate(-109.547 -322.684)"/><path class="h" d="M157.4,334.782c-27.752,4.8-49.436,13.389-48.433,19.187l.465,2.691h0c1,5.8,24.312,6.607,52.064,1.808s49.435-13.389,48.433-19.187l-.465-2.691C208.465,330.792,185.156,329.983,157.4,334.782Z" transform="translate(-108.938 -323.955)"/><g transform="translate(0 7.696)"><path class="i" d="M127.832,366.461c-.691-.024-1.358-.057-2.012-.1C126.474,366.4,127.141,366.437,127.832,366.461Z" transform="translate(-111.332 -336.574)"/><path class="i" d="M182.027,360.585l-.179.039Z" transform="translate(-119.278 -335.755)"/><path class="i" d="M115.7,364.961q.416.109.859.21Q116.116,365.071,115.7,364.961Z" transform="translate(-109.897 -336.375)"/><path class="i" d="M157.4,334.782c-27.752,4.8-49.436,13.389-48.433,19.186l.465,2.692a3.49,3.49,0,0,0,1.9,2.263,3.49,3.49,0,0,1-1.9-2.263c-1-5.8,20.682-14.387,48.433-19.186s51.06-3.99,52.064,1.807h0l-.465-2.692C208.465,330.792,185.156,329.983,157.4,334.782Z" transform="translate(-108.938 -331.651)"/></g></g><g transform="translate(42.735 75.374)"><path class="m" d="M156.531,274.278c-.548,4.285-2.116,10.789-2.822,15.126s1.411,11.05,2.038,13.087,4.854,1.706,4.689,3.335,6.308,1.9,6.308,1.9-30.39,12.009-33.437,11.249,5.694-6.766,7.38-7.157,2.6-1.437,3.71-3.84,2.3-1.97,3.481-4.381a53.25,53.25,0,0,0,2.847-5.571c1.353-3.348,2.515-13.637,1.1-14.5-1.468-.9-.136,7.882-1.348,8.173s1.583-8.651-2.114-13.166S156.531,274.278,156.531,274.278Z" transform="translate(-132.668 -274.274)"/><path class="i" d="M166.744,307.725s-30.39,12.014-33.433,11.253c-2.8-.7,4.366-5.84,6.847-6.965.166,1.767,4.929-.04,6.815-1.086s2.036-.286,2.734-.595,5.959-4.239,5.412-4.081-4.469,3.059-5.412,2.115-2.5.863-3.676,1.411c-1.015.483-1.268-.1-2.109-.832.159-.293.318-.618.475-.966,1.11-2.4,2.3-1.974,3.479-4.383a53.549,53.549,0,0,0,2.845-5.57c1.355-3.352,2.52-13.637,1.11-14.5-1.467-.9-.135,7.885-1.347,8.17s1.577-8.645-2.116-13.162,8.162-4.256,8.162-4.256c-.547,4.288-2.115,10.793-2.821,15.128-.46,2.836.285,6.7,1.038,9.6-.2.7-.475,1.346-.8,1.449-.784.239-1.331,2.9-2.353,2.98s-.159,1.958,1.252,1.181c.935-.515,2.409-.832,3.446-1.307,1.323,1.172,4.288,1.157,4.145,2.52C160.27,307.456,166.744,307.725,166.744,307.725Z" transform="translate(-132.669 -274.274)"/></g><g transform="translate(31.692 50.348)"><path class="m" d="M171.187,250.529c-.15.245-.277.444-.356.586a71.957,71.957,0,0,1-3.883,6.165,38.362,38.362,0,0,1-4.659,5.9c-1.649,1.585-3.328,2.33-4.318,4.232a6.55,6.55,0,0,0-.555,1.481c-.364,1.435-.475,3.162-1.728,3.962a5.843,5.843,0,0,0-.88.531c-.626.539-.594,1.482-.76,2.29s-.943,1.688-1.673,1.316c-.618-.317-.8-1.378-1.5-1.339a2.7,2.7,0,0,0-.507.158c-.7.183-1.355-.372-1.893-.848s-1.316-.935-1.934-.562a34.75,34.75,0,0,0-6.125-4.485c-1.791-1.078-3.646-2.053-5.587-3.1-4.311-2.33-9.272-4.636-12.275-7a8.558,8.558,0,0,1-2.393-2.655,3.529,3.529,0,0,1-.348-1.11c-.492-4.239,12.623-5.5,17.172-8.661s11.633-1.133,14.612-1.791c3-.657,6.331.277,9.477.039s5.1-1.141,6.926.2,3.876.935,4.263,1.958C172.494,248.405,171.718,249.689,171.187,250.529Z" transform="translate(-119.8 -245.113)"/><path class="i" d="M167.253,249.5c-2.718-.523,2.821-.626,2.4-.943a6.967,6.967,0,0,0-4.8-1.251c-3.035.1-5.54-.1-6.181,0s2.1.942,2.1.942h-7.1c-2.3,0,1.569-.942,1.569-.942H143.322c.317,0,2.615,1.363,1.252,1.363s-2.822.729-4.7,1.458a32.05,32.05,0,0,1-4.6,1.466c-.309,0,4.3-3.44,4.581-3.653-.286.119-4.121,1.68-5.729,2.188-1.673.523-5.959,1.988-6.38,2.091a18.5,18.5,0,0,0,2.409,0,21.624,21.624,0,0,1-4.912,1.879c-1.252.159-4.256,1.189-5.025,3.368a8.558,8.558,0,0,0,2.393,2.655c3,2.369,7.964,4.675,12.275,7,1.941,1.046,3.8,2.021,5.587,3.1A34.75,34.75,0,0,1,146.6,274.7c.619-.372,1.4.087,1.934.562s1.189,1.031,1.893.848a2.7,2.7,0,0,1,.507-.158c.7-.039.88,1.022,1.5,1.339.729.372,1.506-.515,1.673-1.316s.135-1.751.76-2.29a5.843,5.843,0,0,1,.88-.531c1.252-.8,1.364-2.527,1.728-3.962a6.55,6.55,0,0,1,.555-1.481c.99-1.9,2.67-2.647,4.318-4.232a38.367,38.367,0,0,0,4.659-5.9,71.962,71.962,0,0,0,3.883-6.165C169.924,249.8,169.971,250.019,167.253,249.5Zm-38.82,11.077c-.911-.106,2.037-1.019,2.037-1.019A2.208,2.208,0,0,1,128.433,260.573Zm.548-3.526s1.489-1.176,2.116-1.1a12.6,12.6,0,0,0,1.8,0S130.549,257.517,128.982,257.047Zm11.834,9.17c-1.07-.2,1.137-.862,1.666-.705S142.07,266.451,140.816,266.216Zm5.3-11.991s-4.551,1.333-3.631,1.333h1.7c-.314,0-5.016,1.025-5.251.983a22.578,22.578,0,0,1,2.8-1.584s-.332-.417-.311-.574,1.061-.47,1.061-.47a3.377,3.377,0,0,1,2.645-.392,6.077,6.077,0,0,0,2.272.392Zm1.914,9.327c-1.272-1.157,2.5,0,2.5,0S148.888,264.335,148.026,263.552Zm2.037-12.462c1.724-1.175,2.142,0,2.142,0S149.507,251.47,150.064,251.09Zm5.945,4.546c-.459-.235-1.321-.68-1.321-.68a4.96,4.96,0,0,1,1.8-.652,4.331,4.331,0,0,1,2.43.652C159.39,255.244,156.467,255.871,156.008,255.636Zm3.381,5.764s-2.116-.043-2.318,0a17.31,17.31,0,0,1,2.318-.813Zm3.277-8.481s1.5-.324,2.21.452C165.826,254.416,162.666,252.919,162.666,252.919Z" transform="translate(-119.86 -245.419)"/></g></g></g><g transform="translate(273.471 224.405)"><g transform="translate(0 0)"><g transform="translate(1.966)"><path class="n" d="M318.078,373.376l6.915,2.084h37.828l.836-15.159-7.315-3.135s1.358-11.718,3.553-24.271l5.016-.158,10.659-42.031-6.061-2.62,4.389-13.924h6.583l7.018-19.538s-25.221-10.054-40.258-11.386l-13.469,2.26-.941,17.542-10.973,1.447-2.159,18.9,7.8,1.343L322.485,324.9l-11.273,3.171-1.965,27.654,9.816,2.015Z" transform="translate(-309.247 -243.235)"/><path class="o" d="M365.277,379.126l-37.411,1.046-7.179-3.613,8.225,1.521,29.05-2.092Z" transform="translate(-310.869 -262.06)"/><path class="o" d="M360.208,346.392l-27.061.079-21.665-4.24.048-.674,11.276-3.17,11.91,7.14Z" transform="translate(-309.564 -256.728)"/><path class="p" d="M371.238,294.419l-33.385-3.265-8.621-.087-7.806-1.339,15.952-1.831Z" transform="translate(-310.974 -249.568)"/><path class="p" d="M384.375,277.1H377.8l-26.34-12.037-14.731.911,15.539-2Z" transform="translate(-313.144 -246.175)"/><path class="i" d="M351.141,243.234l1.125,17.8-15.539,2,.943-17.537Z" transform="translate(-313.144 -243.234)"/><path class="i" d="M337.378,284.836l4.288-18.527-18.077,1.45-2.163,18.907Z" transform="translate(-310.974 -246.506)"/><path class="i" d="M329.693,291.591l16.35.843-9.456,46.457-11.91-7.14Z" transform="translate(-311.435 -250.092)"/><path class="i" d="M311.164,342.866l21.665,4.24L328.454,373.3l-19.207-3.45Z" transform="translate(-309.247 -257.363)"/><path class="i" d="M327.7,380.267l-1.252,14.113-6.918-2.084.988-15.639Z" transform="translate(-310.706 -262.155)"/></g><path class="k" d="M313.4,349.691l19.026,4.331,22.416-.987-21.423,4.807Z" transform="translate(-307.87 -258.331)"/><path class="k" d="M319.77,381.974l7,4.3H343.7l-20.546,1.645-6.884-4.7Z" transform="translate(-308.277 -262.909)"/><path class="k" d="M337.125,391.859h29.908l3.451,2.593Z" transform="translate(-311.235 -264.311)"/><path class="k" d="M326.706,362.006l-16.748-4.689-3,1.607Z" transform="translate(-306.956 -259.412)"/><path class="k" d="M335.814,370.1l25.176-2.16,2.668,1.08Z" transform="translate(-311.049 -260.918)"/><path class="k" d="M345.011,338.227l27.206-.974,2.366,2Z" transform="translate(-312.353 -256.567)"/><path class="k" d="M361.513,330.462l-22.359-2.54-13.792-5.14h-4.674l16.463,6.9Z" transform="translate(-308.904 -254.515)"/><path class="k" d="M332.253,308.352l11.282,4.059,35.193,2.838-3.177-2.362-32.349-2.03Z" transform="translate(-310.544 -252.469)"/><path class="k" d="M334.137,280.956l-15.673.784,3.882,1.881Z" transform="translate(-308.588 -248.583)"/><path class="k" d="M329.053,273.206l11.915-1.582L371.69,282.3,340.812,274.3Z" transform="translate(-310.09 -247.26)"/><path class="k" d="M367.4,264.673l-18.339-9.9-18.182,5.7,5.357,1.437,15.2-2.185Z" transform="translate(-310.349 -244.87)"/><path class="k" d="M366.864,258.307l27.587,11.428h-3.443Z" transform="translate(-315.452 -245.372)"/><path class="k" d="M356.636,248.262l13.794,1.567,21.486,11.916S364.16,249.673,356.636,248.262Z" transform="translate(-314.002 -243.947)"/><path class="k" d="M329.138,297.576l6.814,1.724-9.635-.862Z" transform="translate(-309.702 -250.94)"/><g transform="translate(0 4.315)"><path class="q" d="M313.4,349.691l19.026,4.331,22.416-.987-21.423,4.807Z" transform="translate(-307.87 -262.646)"/><path class="q" d="M319.77,381.974l7,4.3H343.7l-20.546,1.645-6.884-4.7Z" transform="translate(-308.277 -267.224)"/><path class="q" d="M337.125,391.859h29.908l3.451,2.593Z" transform="translate(-311.235 -268.626)"/><path class="q" d="M326.706,362.006l-16.748-4.689-3,1.607Z" transform="translate(-306.956 -263.727)"/><path class="q" d="M335.814,370.1l25.176-2.16,2.668,1.08Z" transform="translate(-311.049 -265.233)"/><path class="q" d="M345.011,338.227l27.206-.974,2.366,2Z" transform="translate(-312.353 -260.882)"/><path class="q" d="M361.513,330.462l-22.359-2.54-13.792-5.14h-4.674l16.463,6.9Z" transform="translate(-308.904 -258.83)"/><path class="q" d="M332.253,308.352l11.282,4.059,35.193,2.838-3.177-2.362-32.349-2.03Z" transform="translate(-310.544 -256.784)"/><path class="q" d="M334.137,280.956l-15.673.784,3.882,1.881Z" transform="translate(-308.588 -252.898)"/><path class="q" d="M329.053,273.206l11.915-1.582L371.69,282.3,340.812,274.3Z" transform="translate(-310.09 -251.575)"/><path class="q" d="M367.4,264.673l-18.339-9.9-18.182,5.7,5.357,1.437,15.2-2.185Z" transform="translate(-310.349 -249.185)"/><path class="q" d="M366.864,258.307l27.587,11.428h-3.443Z" transform="translate(-315.452 -249.687)"/><path class="q" d="M356.636,248.262l13.794,1.567,21.486,11.916S364.16,249.673,356.636,248.262Z" transform="translate(-314.002 -248.262)"/><path class="q" d="M329.138,297.576l6.814,1.724-9.635-.862Z" transform="translate(-309.702 -255.255)"/></g><path class="r" d="M335.814,302.69l9.313,2.351,26.2,2.508-26.2-1.285Z" transform="translate(-311.049 -251.666)"/><path class="r" d="M332.253,294.654l14.864.724,27.849,4.762-28.722-2.978Z" transform="translate(-310.544 -250.526)"/><path class="r" d="M327.595,284.67l11.664-1.84,29.56,6.856-29.8-5.8Z" transform="translate(-309.883 -248.849)"/><path class="r" d="M330.883,278.123l9.834-.282,29.908,7.708-30.192-6.48Z" transform="translate(-310.349 -248.142)"/><path class="r" d="M323.528,271.341l14.932-1.709-14.932,2.821Z" transform="translate(-309.306 -246.978)"/><path class="r" d="M322.987,276.366h5.206l-5.206,1.267Z" transform="translate(-309.23 -247.933)"/><path class="r" d="M337.544,250.682l13.985-2.42L370.23,255,351.7,249.829l-14.154,1.8Z" transform="translate(-311.294 -243.947)"/><path class="r" d="M390.207,274.043l-21.334-6.664,20.73,8.346Z" transform="translate(-315.737 -246.658)"/><path class="r" d="M350.448,252.894l3.125-.7,34.022,10.964-33.873-9.841Z" transform="translate(-313.124 -244.504)"/><path class="r" d="M397.764,257.591l-12.209-4.337,11.547,5.434Z" transform="translate(-318.103 -244.655)"/><path class="r" d="M329.053,314.014,342.106,318l29.584,2.385-29.865-1Z" transform="translate(-310.09 -253.272)"/><path class="r" d="M325.769,328.383l13.141,5.073,29.65.675H338.773Z" transform="translate(-309.624 -255.309)"/><path class="r" d="M363.437,343.159l-25.308-2.821-10.535-4.284,10.077,5.846Z" transform="translate(-309.883 -256.397)"/><path class="r" d="M376.247,325.7c-.235-.084-20.4-.607-20.4-.607l20.086,1.855Z" transform="translate(-313.889 -254.843)"/><path class="s" d="M311.035,345.186l21.635,4.72h15.146l-15.3.932-21.1-4.347Z" transform="translate(-307.535 -257.692)"/><path class="s" d="M363.126,357.856c-.008.047-21.041,2.352-21.041,2.352l20.863-1.176Z" transform="translate(-311.938 -259.489)"/><path class="s" d="M316.27,356.144c-.28-.141,13.062,2.645,13.062,2.645S321.022,358.521,316.27,356.144Z" transform="translate(-308.277 -259.245)"/><path class="s" d="M310.066,362.781l18.387,4.423-18.387-3.013Z" transform="translate(-307.397 -260.187)"/><path class="s" d="M314.08,370.452l15.6,3.551,23.237-.468L329.676,375.2Z" transform="translate(-307.966 -261.275)"/><path class="s" d="M338.676,365.358h16.3l-13.376.662Z" transform="translate(-311.455 -260.553)"/><path class="s" d="M322.987,380.863,328,383.049s26.66-.217,26.177,0-26.28,1.159-26.28,1.159Z" transform="translate(-309.23 -262.752)"/><path class="s" d="M364.233,388.9s-24.905.627-24.363.627h20.605Z" transform="translate(-311.623 -263.891)"/><path class="s" d="M372.021,382.781s-4.082-.417-3.764,0,3.562.952,3.562.952Z" transform="translate(-315.647 -262.997)"/><path class="s" d="M322.987,391.859l4.29.892,23.045,1.7-23.147-.552Z" transform="translate(-309.23 -264.311)"/></g></g><g transform="translate(134.818 138.273)"><g transform="translate(0 0)"><path class="m" d="M270.292,178.8c5.521,2.46,15.925,2.125,19.914-6.62s3.7-16.245-5.316-20.455-20.411,1.159-21.381,9.118S261.567,174.911,270.292,178.8Z" transform="translate(-162.055 -143.916)"/><g transform="translate(0 186.715)"><path class="t" d="M147.166,376.037a8.448,8.448,0,0,0,1.292-2.779h0s2.715-3.1,11.355-5.062l.756-3.888a3.265,3.265,0,0,0-1.578-3.394,1.823,1.823,0,0,0-.518-.212,22.168,22.168,0,0,0-2.861-.23,78.956,78.956,0,0,0-9.588.548l.043.692,6.036-.1c2.048-.026-.249,1.688-2.42,2.274s-4.453,1.685-4.281,6.17C145.627,375.282,145.969,377.437,147.166,376.037Z" transform="translate(-145.391 -360.439)"/><path class="u" d="M162.513,367.931s-11.089,2.943-13.58,5.371c0,0-1.53-4.174,4.187-7.143,7.393-3.838,5.827-5.413,5.827-5.413a18.489,18.489,0,0,1,3.168,1.227C164.05,363.124,162.513,367.931,162.513,367.931Z" transform="translate(-145.867 -360.482)"/></g><g transform="translate(154.294 221.419)"><path class="t" d="M345.112,408.811a8.443,8.443,0,0,0-3.023.505h0s-4.1-.484-10.593-6.505l-3.635,1.575a3.267,3.267,0,0,0-1.908,3.221,1.841,1.841,0,0,0,.118.547,22.226,22.226,0,0,0,1.428,2.491,79.1,79.1,0,0,0,5.873,7.6l.546-.427-3.5-4.919c-1.181-1.675,1.533-.749,3.244.711s3.906,2.72,7.508.044C345.36,410.506,346.945,409.006,345.112,408.811Z" transform="translate(-325.29 -401.151)"/><path class="u" d="M329.875,400.877s8.7,7.483,12.107,8.165c0,0-2.578,3.622-8.258.584-7.345-3.928-7.76-1.746-7.76-1.746a18.532,18.532,0,0,1-.778-3.307C325.041,402.326,329.875,400.877,329.875,400.877Z" transform="translate(-325.182 -400.877)"/></g><path class="m" d="M285.392,199.114c2.827,1.931,7.489,19.825,8.9,20.982s11.814-4.441,11.814-4.441l2.274,5.068s-15.722,9.616-17.882,7.809-9.233-21.181-9.233-21.181Z" transform="translate(-164.66 -150.845)"/><path class="i" d="M285.392,199.114c2.827,1.931,7.489,19.825,8.9,20.982s11.814-4.441,11.814-4.441l2.274,5.068s-15.722,9.616-17.882,7.809-9.233-21.181-9.233-21.181Z" transform="translate(-164.66 -150.845)"/><g transform="translate(62.965 54.29)"><path class="m" d="M218.761,217.29l10.705,10.816s32.693,11.14,40.844-.7c0,0-3.551-17.791-12.721-20.838S218.761,217.29,218.761,217.29Z" transform="translate(-218.761 -206.131)"/><path class="v" d="M218.761,217.29l10.705,10.816s32.693,11.14,40.844-.7c0,0-3.551-17.791-12.721-20.838S218.761,217.29,218.761,217.29Z" transform="translate(-218.761 -206.131)"/></g><path class="u" d="M309.538,222.071l6.478-3.533,3.06-7.26A36.282,36.282,0,0,1,322.8,212.8c.437.337-1.369,6.333-1.822,6.716a11.508,11.508,0,0,1-3.032.675l-6.167,3.9Z" transform="translate(-168.67 -152.57)"/><g transform="translate(60.454 37.648)"><path class="k" d="M242.56,188.22s21.229-.488,36.739,9.348a158.833,158.833,0,0,1-9.529,35.417l-31.122-5.147s3.332-8.865-.355-26.6Z" transform="translate(-219.02 -186.948)"/><path class="w" d="M242.56,188.22s21.229-.488,36.739,9.348a158.833,158.833,0,0,1-9.529,35.417l-31.122-5.147s3.332-8.865-.355-26.6Z" transform="translate(-219.02 -186.948)"/><path class="m" d="M248.558,187.093c4.32,18.23-14.616,34.541-29,34.736l-3.725-7.9,15.37-6.416,8.17-19.453Z" transform="translate(-215.835 -186.789)"/><path class="m" d="M278.288,194.465s-2.885,25.489.293,31.29c0,0,5.434-9.946,6.661-26.881A29.186,29.186,0,0,0,278.288,194.465Z" transform="translate(-224.522 -187.834)"/><path class="x" d="M248.558,187.093c4.32,18.23-14.616,34.541-29,34.736l-3.725-7.9,15.37-6.416,8.17-19.453Z" transform="translate(-215.835 -186.789)"/><path class="x" d="M278.288,194.465s-2.885,25.489.293,31.29c0,0,5.434-9.946,6.661-26.881A29.186,29.186,0,0,0,278.288,194.465Z" transform="translate(-224.522 -187.834)"/><g transform="translate(24.169)"><path class="m" d="M257.3,187.286s-3.83-2.086-10.233,1.881l3.918,2.781-2.909,3.29A39.112,39.112,0,0,1,244,212.261s6.973-7.109,9.317-14.887S254.6,187.835,257.3,187.286Z" transform="translate(-243.998 -186.738)"/><path class="m" d="M274.159,191.4s4.6.993,8.59,6.3l-2.455.455,2.391,4.147-5.992,13.384s-.636-10.32-.333-16.512A14.034,14.034,0,0,0,274.159,191.4Z" transform="translate(-248.275 -187.4)"/><path class="i" d="M257.3,187.286s-3.83-2.086-10.233,1.881l3.918,2.781-2.909,3.29A39.112,39.112,0,0,1,244,212.261s6.973-7.109,9.317-14.887S254.6,187.835,257.3,187.286Z" transform="translate(-243.998 -186.738)"/><path class="i" d="M274.159,191.4s4.6.993,8.59,6.3l-2.455.455,2.391,4.147-5.992,13.384s-.636-10.32-.333-16.512A14.034,14.034,0,0,0,274.159,191.4Z" transform="translate(-248.275 -187.4)"/></g></g><path class="m" d="M259.1,282.209c-5.188,21.4-20.173,49.891-23.1,55.409-2.29,4.347-11.338,5.8-22.326,7.075C192.51,347.147,164,351.036,164,351.036l-.038-6.678s57.583-13.565,58.516-16.669c1.309-4.385,2.847-25.238,4.219-42.782.162-1.959.312-3.872.459-5.72.245-3.041.467-5.86.657-8.3.442-5.59.721-9.211.721-9.211L259.3,239.954S265.595,255.431,259.1,282.209Z" transform="translate(-148.024 -156.637)"/><path class="p" d="M259.1,282.209c-5.188,21.4-20.173,49.891-23.1,55.409-2.29,4.347-11.338,5.8-22.326,7.075C192.51,347.147,164,351.036,164,351.036l-.038-6.678s57.583-13.565,58.516-16.669c1.309-4.385,2.847-25.238,4.219-42.782.162-1.959.312-3.872.459-5.72.245-3.041.467-5.86.657-8.3.442-5.59.721-9.211.721-9.211L259.3,239.954S265.595,255.431,259.1,282.209Z" transform="translate(-148.024 -156.637)"/><path class="m" d="M283.336,312.454c-2.9-6.349-27.9-45.938-27.9-45.938L230.88,270.67c7.918,23.234,36.119,46.968,40.9,53.123s40.29,61.088,40.29,61.088l4.368-3.091S289.48,325.9,283.336,312.454Z" transform="translate(-157.515 -160.404)"/><path class="m" d="M237.539,234.387l32.325,2.109-.6,3.7s-3.457,16.626-17.063,25.436l-21.381.481s-2.5-13.545,5.924-29.249Z" transform="translate(-157.457 -155.848)"/><g transform="translate(79.914 78.984)"><path d="M249.972,235.533l-10.654-.628-.806,2.485,11.221.845Z" transform="translate(-238.511 -234.905)"/><path d="M253.389,235.729l-.241,2.724,18.681,1.407.179-3.033Z" transform="translate(-240.587 -235.022)"/><g transform="translate(22.102 1.267)"><rect class="y" width="4.566" height="3.439" rx="0.674" transform="translate(0.202 0) rotate(3.373)"/><line class="y" x2="1.294" y2="0.076" transform="translate(3.315 1.906)"/></g></g><g transform="translate(81.284 38.92)"><path class="u" d="M270.967,212.837l8.835-4.525a9.008,9.008,0,0,1,2.278-2.329c.95-.433,9.271.824,9.271.824l-3.115,6.587s-6.157-.359-6.812-.865l-8.081,4.325Z" transform="translate(-244.483 -190.727)"/><path class="m" d="M242.817,188.221c-8.123,2.106,4.093,31.91,9.443,33.595s22.527-9.875,22.527-9.875l-2.948-4.961s-15.011,5.992-16.383,5.346-6.92-15.634-7.9-18.31S242.817,188.221,242.817,188.221Z" transform="translate(-240.107 -188.221)"/><path class="i" d="M242.817,188.221c-8.123,2.106,4.093,31.91,9.443,33.595s22.527-9.875,22.527-9.875l-2.948-4.961s-15.011,5.992-16.383,5.346-6.92-15.634-7.9-18.31S242.817,188.221,242.817,188.221Z" transform="translate(-240.107 -188.221)"/><path class="w" d="M278.65,215.8a.293.293,0,1,1-.231-.343A.292.292,0,0,1,278.65,215.8Z" transform="translate(-245.491 -192.083)"/><path class="w" d="M276.257,217.282a.293.293,0,1,1-.231-.343A.293.293,0,0,1,276.257,217.282Z" transform="translate(-245.151 -192.293)"/></g><g transform="translate(123.615 40.514)"><path class="m" d="M322.9,196.6l-10.9,28.268a1.5,1.5,0,0,1-1.717.891l-19.971-4.971a1.112,1.112,0,0,1-.79-1.514l10.9-28.268a1.5,1.5,0,0,1,1.717-.891l19.97,4.97A1.113,1.113,0,0,1,322.9,196.6Z" transform="translate(-289.434 -190.078)"/><path class="x" d="M323.046,196.639l-10.9,28.268a1.5,1.5,0,0,1-1.717.891l-19.062-4.744a1.112,1.112,0,0,1-.79-1.515l10.9-28.268a1.5,1.5,0,0,1,1.717-.891l19.062,4.744A1.113,1.113,0,0,1,323.046,196.639Z" transform="translate(-289.584 -190.115)"/><path class="x" d="M310.155,208.776a2.148,2.148,0,0,0-2.461,1.277,1.592,1.592,0,0,0,1.132,2.17,2.147,2.147,0,0,0,2.46-1.277A1.591,1.591,0,0,1,310.155,208.776Z" transform="translate(-292.006 -192.721)"/></g><g transform="translate(91.801 38.191)"><path class="k" d="M252.362,194.587s1.262-5.683,3.5-6.864,12.933.693,16.65,4.183a14.591,14.591,0,0,1,4.123,8.59l-4.783-2.024-7.254,8.173-5.687-11.44Z" transform="translate(-252.362 -187.37)"/><path class="z" d="M252.362,194.587s1.262-5.683,3.5-6.864,12.933.693,16.65,4.183a14.591,14.591,0,0,1,4.123,8.59l-4.783-2.024-7.254,8.173-5.687-11.44Z" transform="translate(-252.362 -187.37)"/></g><path class="u" d="M264.226,188.043c6.171.476,9.374,4.741,8.564,8.23l-3.839.532-3.084,8.412-1.219-9.345-3.873-2.461S258.3,187.586,264.226,188.043Z" transform="translate(-161.681 -149.272)"/><path class="u" d="M266.667,195.706c-5.889-4.647-5.2-8.282-5.2-8.282,2.9-1.594,4.818-5.046,5.51-7.709a15.148,15.148,0,0,0,.465-2.558l6.817,6.045a25.852,25.852,0,0,0-2.237,3.055,11.322,11.322,0,0,0-1.209,2.506c-.855,2.608.433,3.425.433,3.425C271.081,195.517,266.667,195.706,266.667,195.706Z" transform="translate(-161.849 -147.732)"/><path class="p" d="M272.646,185.8a11.275,11.275,0,0,0-.88,2.639c-3.07-1.855-4.4-5.543-4.957-8.486a15.045,15.045,0,0,0,.136-2.6l7.531,5.129A25.8,25.8,0,0,0,272.646,185.8Z" transform="translate(-162.61 -147.759)"/><g transform="translate(102.905 7.808)"><path class="u" d="M283.631,160.344c7.018,3.39,7.462,8.239,4.482,15.719-3.723,9.348-8.829,14.8-16.671,8.632C260.792,176.316,271.976,154.715,283.631,160.344Z" transform="translate(-265.565 -153.024)"/><path class="aa" d="M286.246,175.8a16.462,16.462,0,0,0,.636,3.9,2.143,2.143,0,0,1-2.234-.1Z" transform="translate(-268.044 -155.347)"/><g transform="translate(12.628 16.383)"><path class="m" d="M281.571,172.481c-.265.583-.795.912-1.183.735s-.489-.792-.224-1.376.795-.912,1.183-.735S281.836,171.9,281.571,172.481Z" transform="translate(-280.015 -171.057)"/><path class="m" d="M281.363,171.06l1.494.079S281.741,171.919,281.363,171.06Z" transform="translate(-280.206 -171.058)"/></g><g transform="translate(19.93 19.556)"><path class="m" d="M290.08,176.178c-.265.583-.795.912-1.183.736s-.489-.792-.224-1.375.795-.913,1.183-.736S290.345,175.6,290.08,176.178Z" transform="translate(-288.524 -174.754)"/><path class="m" d="M289.872,174.757l1.494.079S290.25,175.616,289.872,174.757Z" transform="translate(-288.715 -174.755)"/></g><path class="ab" d="M283.656,167.6a4.06,4.06,0,0,0-3.006-1.944" transform="translate(-267.478 -153.909)"/><path class="ab" d="M290.287,170.558a3.637,3.637,0,0,1,3.167.168" transform="translate(-268.844 -154.565)"/><path class="m" d="M270.12,167.875s6.066-4.181,7.719-8.872c0,0,16.651,1.037,10.519,15.483,0,0,7.413-11.877-4.516-17.984-11.909-6.1-20.4,11.567-16.713,19.834C267.129,176.337,266.348,170.5,270.12,167.875Z" transform="translate(-265.436 -152.432)"/><path class="u" d="M270.415,171.586a3.42,3.42,0,0,0-1.956-4.414c-2.289-.814-5.482,3.15-.591,6.837C268.569,174.538,269.374,173.991,270.415,171.586Z" transform="translate(-265.301 -154.108)"/><path class="m" d="M277.986,152.376s5.3-1.191,8.681.49,3.628,4.209,3.628,4.209a4.965,4.965,0,0,1,4.374,1.348c2.113,1.943,3.353,7.555,1.117,13.549s-7.465,5.157-7.465,5.157,6.813-8.9-.446-14.678c0,0-2.381-2.853-5.158-1.126s-4.753,8.921-10.854,4.235S272.721,153.754,277.986,152.376Z" transform="translate(-265.894 -151.967)"/><path class="ab" d="M279.461,180.1s2.626,1.455,2.816,2.935" transform="translate(-267.309 -155.956)"/></g><path class="m" d="M271.588,152.205s-3.678-12.217-11.676-8.7-11.9,12.307-18.371,7.172-9.435,1.528-12.582,3.565-8.7-1.021-7.219-3.565c0,0-4.073,3.12,3.147,6.4s10.778-3.573,13.071-.981,10.438,7.775,14.7,4.073a8.874,8.874,0,0,1,8.972-1.666Z" transform="translate(-156.056 -142.869)"/><path class="ac" d="M263.586,159.421c-3.482.1-7.74,7.808-12.663,5.972s-10.04-5.907-12.632-3.871" transform="translate(-158.566 -145.216)"/><path class="ac" d="M250.751,152.815c-7.451-.878-11.14-5.695-14.076-5.325s-6.453,7.688-9.785,5.325" transform="translate(-156.949 -143.521)"/><path class="ac" d="M287.268,162.279c-2.429-1.05-3.888.466-8.083,6.829-1.779,2.7-5.026.661-5.026.661" transform="translate(-163.652 -145.578)"/></g></g><g transform="translate(70.832 199.875)"><path class="n" d="M319.015,221.5l17.54-6.847s19.871,11.628,32.507,13.551l-21.849,4.3S323.554,227.786,319.015,221.5Z" transform="translate(-106.028 -214.65)"/><path class="n" d="M195.245,286.281l13.326-12.025s22.766,3.456,40.53,12.025l-18.556,11.39S213.073,288.789,195.245,286.281Z" transform="translate(-88.475 -223.103)"/><path class="n" d="M70.832,305.182l17.113-5.9s14.847,15.869,26.678,15.872L95,324.57S74.089,316.568,70.832,305.182Z" transform="translate(-70.832 -226.652)"/><path class="n" d="M146.209,236.841s22.33-2.612,38.164,9.718l-8.163,10.05s-19.6-8.3-36.767-3.44Z" transform="translate(-80.562 -217.764)"/><path class="ad" d="M377.117,346.237l21.522,3.676s-18.678,12.4-34.406,14.678l-16.98-5.5S367.692,356.95,377.117,346.237Z" transform="translate(-110.032 -233.311)"/><path class="ad" d="M374.087,301.18s20.694-1.118,35.324,4.953l8.778-8.381s-22.972-10.067-37.776-5.037Z" transform="translate(-113.838 -225.521)"/><path class="n" d="M209.289,392.722s10.346-10.886,36.161-13.759l15.652,7.053s-23.348,5.068-33.976,10Z" transform="translate(-90.467 -237.952)"/></g></g></svg>