<svg xmlns="http://www.w3.org/2000/svg" width="435.756" height="546.217" viewBox="0 0 435.756 546.217"><defs><style>.a{fill:#6595bf;}.b{fill:#f2e9e4;}.c,.r,.s,.t{fill:#fff;}.d{fill:#f5f5f5;}.e{fill:#ececec;}.f{fill:#e1e1e1;}.g,.v{opacity:0.2;}.g,.i,.r,.s,.t{isolation:isolate;}.h{fill:#aed3f2;}.i{opacity:0.1;}.j{fill:#fafafa;}.k{fill:#e6e6e6;}.l{fill:#e0e0e0;}.m{fill:#d9a171;}.n{fill:#ffb573;}.o{fill:#e29471;}.p{fill:#344154;}.q{fill:#ed893e;}.r{opacity:0.9;}.s{opacity:0.4;}.t{opacity:0.6;}.u{fill:#5e6178;}</style></defs><g transform="translate(-966.783 -3749.93)"><g transform="translate(1012 3834.608)"><g transform="translate(304.969 18.911)"><g transform="translate(0 0.19)"><path class="a" d="M686.315,105.93l-58.774,12.053a5.278,5.278,0,0,1-6.23-4.11L605.072,34.679a5.277,5.277,0,0,1,4.109-6.23l41.1-8.428,27.405,17.553L690.425,99.7A5.277,5.277,0,0,1,686.315,105.93Z" transform="translate(-604.963 -20.021)"/></g><g transform="translate(45.277)"><path class="b" d="M645.218,19.852l3.228,15.738a7.188,7.188,0,0,0,8.487,5.6L672.662,37.6Z" transform="translate(-645.218 -19.852)"/></g><g transform="translate(20.88 33.305)"><path class="c" d="M671.971,88.42a6.506,6.506,0,0,1-.188-.734c-.117-.522-.271-1.213-.467-2.085-.4-1.867-.974-4.51-1.7-7.849-1.43-6.77-3.453-16.35-5.879-27.837l.386.254-40.081,8.274c-.07.1.558-.847.293-.442l0,.01,0,.021.009.04.017.083.034.165.067.33.135.659.269,1.313q.268,1.311.535,2.612l1.053,5.148q1.041,5.1,2.034,9.965c1.315,6.475,2.558,12.6,3.7,18.228l-.39-.258,28.985-5.772L669,88.952l2.189-.409a7.234,7.234,0,0,1,.781-.123,4.794,4.794,0,0,1-.694.181l-2.11.472-8.1,1.749-29.126,6.145-.324.069-.068-.327c-1.165-5.627-2.431-11.744-3.772-18.213q-1-4.856-2.052-9.961-.525-2.548-1.058-5.148l-.537-2.611-.269-1.314-.135-.658-.069-.33-.034-.165-.017-.083-.008-.041,0-.021,0-.01c-.265.4.359-.555.3-.457L664,49.527l.323-.065.064.321c2.308,11.6,4.233,21.273,5.594,28.108.643,3.323,1.154,5.952,1.514,7.81.16.855.285,1.53.38,2.039A4.465,4.465,0,0,1,671.971,88.42Z" transform="translate(-623.527 -49.462)"/><g transform="translate(20.181 5.032)"><path class="c" d="M649.4,92.508c-.207.043-2.144-8.558-4.328-19.208s-3.788-19.321-3.582-19.364,2.144,8.557,4.328,19.211S649.6,92.466,649.4,92.508Z" transform="translate(-641.469 -53.936)"/></g><g transform="translate(6.104 29.518)"><path class="c" d="M669.2,75.723c.043.206-8.934,2.22-20.047,4.5s-20.16,3.96-20.2,3.754,8.932-2.221,20.049-4.5S669.161,75.516,669.2,75.723Z" transform="translate(-628.954 -75.706)"/></g><g transform="translate(4.545 19.59)"><path class="c" d="M667.817,66.9c.042.207-8.934,2.221-20.047,4.5s-20.16,3.96-20.2,3.753,8.932-2.22,20.049-4.5S667.774,66.69,667.817,66.9Z" transform="translate(-627.568 -66.879)"/></g><g transform="translate(2.528 9.819)"><path class="c" d="M665.719,58.209c.043.207-8.867,2.207-19.9,4.469s-20.006,3.929-20.049,3.723,8.864-2.207,19.9-4.469S665.676,58,665.719,58.209Z" transform="translate(-625.775 -58.192)"/></g></g></g></g><g transform="translate(966.783 3794.591)"><path class="d" d="M460.917,5199.68a56,56,0,1,1-63.7-46.9A55.941,55.941,0,0,1,460.917,5199.68Z" transform="translate(-349.533 -5152.143)"/><g transform="translate(13.327 13.297)"><path class="e" d="M443.308,5197.245a42.677,42.677,0,1,1-48.546-35.741A42.63,42.63,0,0,1,443.308,5197.245Z" transform="translate(-358.428 -5161.02)"/></g><g transform="translate(12.543 11.677)"><path class="f" d="M443.36,5196.461c-.255.051-.715-1.776-1.88-4.9a45.331,45.331,0,0,0-6.817-12.2,43.887,43.887,0,0,0-6.744-6.824,42.679,42.679,0,0,0-9.354-5.715,41.746,41.746,0,0,0-11.62-3.277,41.568,41.568,0,0,0-6.386-.342,41.6,41.6,0,0,0-12.919,2.364,41.634,41.634,0,0,0-5.852,2.578,41.866,41.866,0,0,0-9.706,7.181,42.716,42.716,0,0,0-6.723,8.658,43.753,43.753,0,0,0-3.888,8.773,45.286,45.286,0,0,0-2.051,13.822c.02,3.338.237,5.205-.019,5.251-.187.038-.833-1.76-1.251-5.177a39.495,39.495,0,0,1,1.1-14.534,42.8,42.8,0,0,1,10.688-18.9,41.39,41.39,0,0,1,4.753-4.241,41.929,41.929,0,0,1,5.572-3.641,43.47,43.47,0,0,1,6.3-2.827,43.71,43.71,0,0,1,13.935-2.549,43.241,43.241,0,0,1,6.888.415,41.7,41.7,0,0,1,6.5,1.434,41.146,41.146,0,0,1,5.947,2.282,42.8,42.8,0,0,1,16.693,13.894,39.509,39.509,0,0,1,6.178,13.2C443.516,5194.522,443.549,5196.431,443.36,5196.461Z" transform="translate(-357.905 -5159.937)"/></g><g transform="translate(37.009 26.113)"><path class="f" d="M401.8,5223.794l1.215,7.333-6.549,1.084-1.181-7.136c-6.548.679-13.1-.319-17.171-2.54l2.277-8.586a26.849,26.849,0,0,0,13.473,2.546l-1.811-10.938c-7.561-.561-16.08-1.641-17.631-11-1.148-6.94,2.907-13.736,13.058-16.628l-1.2-7.268,6.548-1.084,1.182,7.139a30,30,0,0,1,13.953,1.792l-1.939,8.6a27.2,27.2,0,0,0-10.584-1.747l1.844,11.134c7.549.5,15.939,1.6,17.468,10.83C415.875,5214.131,411.875,5220.848,401.8,5223.794Zm-11.338-27.86-1.542-9.3c-3.338,1.36-4.4,3.485-4.043,5.647C385.258,5194.576,387.428,5195.5,390.462,5195.934Zm13.875,13.918c-.379-2.293-2.484-3.221-5.463-3.74l1.5,9.038C403.524,5213.89,404.684,5211.947,404.336,5209.852Z" transform="translate(-374.233 -5169.573)"/></g></g><g transform="translate(1301.749 4023.038)"><path class="d" d="M441.266,5191.293a46.122,46.122,0,1,1-52.465-38.627A46.071,46.071,0,0,1,441.266,5191.293Z" transform="translate(-349.533 -5152.143)"/><g transform="translate(10.976 10.951)"><path class="e" d="M428.333,5190.854a35.148,35.148,0,1,1-39.981-29.436A35.109,35.109,0,0,1,428.333,5190.854Z" transform="translate(-358.428 -5161.02)"/></g><g transform="translate(10.33 9.617)"><path class="f" d="M428.284,5190.017c-.21.042-.589-1.463-1.549-4.039a37.337,37.337,0,0,0-5.615-10.051,36.15,36.15,0,0,0-5.554-5.62,35.135,35.135,0,0,0-7.7-4.707,34.362,34.362,0,0,0-9.57-2.7,34.225,34.225,0,0,0-5.259-.282,34.285,34.285,0,0,0-10.64,1.947,34.318,34.318,0,0,0-4.82,2.123,34.48,34.48,0,0,0-7.994,5.914,35.167,35.167,0,0,0-5.537,7.131,36.027,36.027,0,0,0-3.2,7.225,37.3,37.3,0,0,0-1.689,11.384c.016,2.749.195,4.287-.016,4.325-.154.031-.686-1.449-1.03-4.264a32.526,32.526,0,0,1,.9-11.97,35.254,35.254,0,0,1,8.8-15.569,34.122,34.122,0,0,1,3.914-3.493,34.584,34.584,0,0,1,4.589-3,35.778,35.778,0,0,1,5.185-2.328,36,36,0,0,1,11.476-2.1,35.56,35.56,0,0,1,5.673.342A34.33,34.33,0,0,1,404,5161.47a33.881,33.881,0,0,1,4.9,1.879,35.248,35.248,0,0,1,13.748,11.442,32.54,32.54,0,0,1,5.088,10.872C428.412,5188.421,428.439,5189.992,428.284,5190.017Z" transform="translate(-357.905 -5159.937)"/></g><g transform="translate(30.479 21.506)"><path class="f" d="M396.936,5214.228l1,6.04-5.394.893-.972-5.877c-5.393.559-10.793-.263-14.142-2.092l1.876-7.071a22.11,22.11,0,0,0,11.1,2.1l-1.492-9.009c-6.227-.462-13.243-1.351-14.52-9.062-.945-5.716,2.394-11.313,10.754-13.694l-.991-5.985,5.392-.893.974,5.879a24.7,24.7,0,0,1,11.491,1.476l-1.6,7.081a22.409,22.409,0,0,0-8.717-1.439l1.519,9.169c6.217.411,13.127,1.318,14.386,8.919C408.528,5206.27,405.234,5211.8,396.936,5214.228Zm-9.338-22.945-1.27-7.657c-2.749,1.12-3.623,2.871-3.329,4.651C383.313,5190.165,385.1,5190.923,387.6,5191.283Zm11.427,11.462c-.312-1.889-2.046-2.652-4.5-3.081l1.231,7.444C398.356,5206.071,399.312,5204.472,399.025,5202.746Z" transform="translate(-374.233 -5169.573)"/></g></g><g transform="translate(10.318 -1793.287)"><g transform="translate(1012.546 5543.217)"><path class="g" d="M226.715,2192.234H523.01L542.5,1788.724H256.691Z" transform="translate(-217.612 -1767.974)"/><path class="h" d="M220.775,2192.234H523.414l19.509-403.509H259.854Z" transform="translate(-220.775 -1767.974)"/><path class="i" d="M229.155,2180.032H506.263l18.651-382.453-261.737-.015Z" transform="translate(-216.313 -1763.267)"/><path class="j" d="M525.025,1797.564a3030.059,3030.059,0,0,1-33.133,376.43H292.13c-22.068-.659-63.185-1.609-63.185-1.609s31.493-263.5,34.343-374.821Z" transform="translate(-216.425 -1763.266)"/><path class="h" d="M372.91,1816.955h0q-.874,24.734-2.146,49.454h49.469q1.287-24.734,2.146-49.454Zm43.232,45.148H375.3q1.044-20.445,1.778-40.841H417.92Q417.171,1841.675,416.142,1862.1Z" transform="translate(-140.905 -1752.942)"/><path class="h" d="M367.521,1869.185h0q-.857,24.734-2.146,49.469h49.454q1.287-24.751,2.161-49.469Zm43.232,45.163H369.911q1.012-20.43,1.778-40.857H412.53q-.766,20.442-1.778,40.857Z" transform="translate(-143.775 -1725.129)"/><path class="h" d="M362.86,1919.675h0q-.857,24.719-2.145,49.454H410.2q1.273-24.734,2.145-49.454Zm43.232,45.148H365.251q1.011-20.446,1.778-40.842H407.87q-.749,20.4-1.778,40.842Z" transform="translate(-146.257 -1698.242)"/><path class="h" d="M355.711,1973.445h0q-.858,24.736-2.146,49.47h49.469q1.274-24.751,2.145-49.47Zm43.232,45.163H358.1q1.011-20.429,1.778-40.856H400.72Q399.955,1998.164,398.943,2018.608Z" transform="translate(-150.064 -1669.609)"/><path class="k" d="M264.1,1835.925H403.975q-.168,4.6-.353,9.195H263.735Z" transform="translate(-197.899 -1742.84)"/><path class="k" d="M284.889,1826.335H394.326c-.122,3.065-.276,6.13-.414,9.195H284.445C284.6,1832.465,284.736,1829.4,284.889,1826.335Z" transform="translate(-186.871 -1747.947)"/><path class="k" d="M255.733,1889.885H395.589q-.161,4.6-.352,9.2H255.365C255.488,1896.046,255.626,1892.95,255.733,1889.885Z" transform="translate(-202.356 -1714.106)"/><path class="k" d="M276.514,1880.265H385.966c-.138,3.065-.291,6.13-.429,9.195H276.085C276.223,1886.41,276.33,1883.33,276.514,1880.265Z" transform="translate(-191.323 -1719.228)"/><path class="k" d="M249.378,1990.555H389.235c-.123,3.065-.23,6.13-.368,9.2H248.995Q249.211,1995.182,249.378,1990.555Z" transform="translate(-205.748 -1660.498)"/><path class="k" d="M270.159,1980.935H379.6c-.123,3.065-.276,6.13-.414,9.194H269.715C269.868,1987.08,270.006,1984.015,270.159,1980.935Z" transform="translate(-194.715 -1665.621)"/><path class="k" d="M255.288,1937.605H395.144c-.123,3.065-.23,6.13-.368,9.195H254.9Q255.121,1942.233,255.288,1937.605Z" transform="translate(-202.601 -1688.695)"/><path class="k" d="M276.054,1927.985H385.506c-.123,3.065-.276,6.13-.429,9.195H275.625C275.763,1934.13,275.916,1931.065,276.054,1927.985Z" transform="translate(-191.568 -1693.817)"/><path class="l" d="M290.585,1816.67h146.6l-1.287-4.6c-3.31-11.524-4.843-19.156-15.57-19.156,0,0-35.952-2.038-36.949-5.149a18.25,18.25,0,0,0-17.517-12.582,20.6,20.6,0,0,0-18.727,12.582c-1.287,3.065-40.443,5.149-40.443,5.149-10.8,0-10.038,7.662-14.39,19.156Z" transform="translate(-183.601 -1775.184)"/></g><path class="a" d="M375.963,1844.852a6.025,6.025,0,0,0,1.532,4.46,5.781,5.781,0,0,0,4.306.981c6.13-.506,11.6-4,16.52-7.663a138.5,138.5,0,0,0,25.286-24.735q-13.99,9.439-28.688,17.808a43.793,43.793,0,0,1-9.5,4.368c-1.349.383-3.188.414-3.724-.873-.659-1.532,1.318-3.847,0-4.889s-4.107,1.318-4.735,2.375C375.733,1838.676,375.886,1842.569,375.963,1844.852Z" transform="translate(874.381 3790.776)"/><path class="a" d="M368.813,1896.7a6.025,6.025,0,0,0,1.533,4.459,5.778,5.778,0,0,0,4.306.981c6.13-.521,11.6-4,16.52-7.662a139.053,139.053,0,0,0,25.286-24.734q-14.006,9.438-28.689,17.792a43.048,43.048,0,0,1-9.5,4.383c-1.349.383-3.188.413-3.724-.889-.659-1.533,1.318-3.832,0-4.873s-4.107,1.318-4.735,2.36C368.583,1890.449,368.736,1894.326,368.813,1896.7Z" transform="translate(870.574 3818.386)"/><path class="a" d="M365.493,1948.436a6.14,6.14,0,0,0,1.533,4.475,5.743,5.743,0,0,0,4.291.981c6.13-.521,11.6-4,16.52-7.662a139.045,139.045,0,0,0,25.286-24.735q-13.977,9.455-28.689,17.793a43.234,43.234,0,0,1-9.486,4.383c-1.349.383-3.2.414-3.739-.889-.659-1.533,1.318-3.847,0-4.874s-4.107,1.3-4.735,2.36C365.263,1942.26,365.416,1946.153,365.493,1948.436Z" transform="translate(868.806 3845.942)"/><g transform="translate(1003.682 5617.865)"><path class="m" d="M266.839,1960.252s-12.076,15.325-10.13,41.516,53.913,11.356,53.913,11.356,22.589-32.78,36.612-36.4l-12.459-12.935C326.085,1964.313,319.633,1954.949,266.839,1960.252Z" transform="translate(-192.89 -1752.153)"/><g transform="translate(0 36.326)"><path class="n" d="M295.415,1898.381c3.479,8.215,7.111,16.153,10.988,24.137s7.831,15.861,12.26,23.784l1.778,3.065a16.889,16.889,0,0,0,4.383,4.965,21.753,21.753,0,0,0,9.624,4,47.268,47.268,0,0,0,15.616-.292,108.51,108.51,0,0,0,26.543-8.368l-3.065-9.195-6.268,1c-2.115.321-4.23.506-6.314.812a118.863,118.863,0,0,1-12.337.889,37.2,37.2,0,0,1-10.651-1.072,4.946,4.946,0,0,1-2.314-1.2c0-.108.138,0,.138,0l-1.287-2.712c-3.525-7.755-7.049-15.831-10.543-23.754s-7.1-16-10.728-23.907Z" transform="translate(-172.166 -1824.735)"/><path class="n" d="M361.365,1934.38a8.45,8.45,0,0,0,3.065-1.364c3.295-3.064,1.349-8.245-1.747-11.524h0c-.123-.138-3.586-3.325-3.724-3.464-3.326-3.064-5.165.23-8.214,3.556l-6.13,6.636,3.755,7.953a48.843,48.843,0,0,0,10.222-1.119C359.373,1934.9,360.339,1934.671,361.365,1934.38Z" transform="translate(-145.966 -1810.743)"/><path class="a" d="M321.428,1896.522c7.08,10.927,5.854,25.393,5.854,25.393l-17.042,3.694s-18.972-19.8-15.509-29.44C298.578,1885.533,313.934,1884.936,321.428,1896.522Z" transform="translate(-172.754 -1826.078)"/><path class="g" d="M310.152,1924.437l10.835-2.345a99.262,99.262,0,0,0-10.283-21.333c-6.421-9.516-11.019-12.26-16.122-9.563C292.973,1904.407,310.152,1924.437,310.152,1924.437Z" transform="translate(-172.666 -1824.906)"/><path class="a" d="M279.5,1887.616c-1.747.168-19.34,4.444-14.911,21.087,18.39,65.254,6.605,59.767-1.333,90.418l67.936,3.54s-4.6-46.849-1.625-55.171c5.088-13.992,4.521-24.2-.659-38.236-5.716-15.493-7.923-19.693-7.923-19.693C314.517,1888.137,292.771,1882.635,279.5,1887.616Z" transform="translate(-189.291 -1827.378)"/><path class="g" d="M280.032,1935c-.95-8.245-14.666-39.492-11.954-43.309,2.115-1.119,11.708.138,17.057,6.131C297.318,1926.358,280.032,1935,280.032,1935Z" transform="translate(-186.911 -1824.314)"/><path class="o" d="M270.139,2097.692l-34.9,26.206c-1.425-.675-11.739-12-11.739-12l30.252-25.653Z" transform="translate(-210.458 -1720.518)"/><path class="m" d="M232.669,2113.181a.476.476,0,0,1,0-.49.456.456,0,0,1,.49-.138c.291.092,7.279,2.421,8.689,5.256a2.175,2.175,0,0,1,.184,1.717,1.642,1.642,0,0,1-1.395,1.287c-1.257.183-3.065-1.287-4.6-3.065A31.367,31.367,0,0,1,232.669,2113.181Zm8.03,4.353a19.28,19.28,0,0,0-6.528-3.77c1.9,2.835,5.027,6.283,6.482,6.129.2,0,.46-.123.659-.719a1.325,1.325,0,0,0-.107-1.027,4.237,4.237,0,0,0-.49-.69Z" transform="translate(-205.614 -1706.521)"/><path class="m" d="M232.645,2113.81a.461.461,0,0,1,.245-.368c.184-.106,4.168-3.065,7.172-2.589a3.243,3.243,0,0,1,2.084,1.394,1.531,1.531,0,0,1,.153,2.039c-1.3,1.64-7.172,1.027-9.394,0l-.153-.107Zm7.233-2.037a10.1,10.1,0,0,0-5.823,1.961c2.544.766,6.942.965,7.663,0,0-.093.261-.323-.184-.951l-.23-.153A2.2,2.2,0,0,0,239.878,2111.773Z" transform="translate(-205.591 -1707.442)"/><path class="p" d="M242.689,2115.111l-3.065-1.441a12.977,12.977,0,0,1-6.912-8.184l-1.2-4.2a1.531,1.531,0,0,0-1.962-.384l-13.639,6.513c-1.318.736-.874,4.031-.766,4.153,5.992,9.1,20.26,27.586,25.225,33.486s11.432,1.778,9.931-1.088c-6.712-12.813-6.866-19.647-6.651-25.7A4.589,4.589,0,0,0,242.689,2115.111Z" transform="translate(-214.992 -1712.818)"/><path class="m" d="M269.537,1995.279a40.646,40.646,0,0,0-.214,9.639c1.318,16.98,12.076,72.779,14.988,94.326a12.764,12.764,0,0,1-4.9,11.4c-9.839,8.476-27.248,19.923-46.971,47.953.245,12.26,1.441,13.792,12.567,18.221,0,0,55.921-42.19,64.611-54.558,12.8-18.237,13.087-95.491,13.793-115.628.414-11.433.766-25.057-7.877-32.413C310.715,1970.084,272.786,1963.954,269.537,1995.279Z" transform="translate(-205.703 -1781.99)"/><path class="o" d="M403.362,2069.26l15.6,40.857c-1.042,1.149-13.226,11.554-14.881,7.662-5.088-11.755-27.708-50.205-27.708-50.205Z" transform="translate(-129.054 -1730.459)"/><path class="m" d="M405.809,2097.336a.5.5,0,0,1-.506,0,.552.552,0,0,1-.123-.5c.123-.292,2.651-7.2,5.532-8.521a2.158,2.158,0,0,1,1.716-.123,1.607,1.607,0,0,1,1.241,1.426c.153,1.256-1.379,2.972-3.2,4.475A30.182,30.182,0,0,1,405.809,2097.336Zm4.6-7.877a19.149,19.149,0,0,0-3.908,6.406c2.881-1.823,6.437-4.844,6.329-6.3,0-.185-.123-.461-.705-.674a1.326,1.326,0,0,0-1.027.076,4.413,4.413,0,0,0-.72.476Z" transform="translate(-113.724 -1719.549)"/><path class="m" d="M406.368,2097.585a.444.444,0,0,1-.368-.261c-.107-.184-2.912-4.26-2.36-7.249a3.229,3.229,0,0,1,1.456-2.037,1.532,1.532,0,0,1,2.038-.093c1.532,1.35.8,7.2-.26,9.4l-.107.153Zm-1.762-7.326a10.018,10.018,0,0,0,1.778,5.87c.843-2.5,1.18-6.9.184-7.663-.092,0-.322-.26-.966.153l-.153.23A2.156,2.156,0,0,0,404.605,2090.258Z" transform="translate(-114.573 -1719.796)"/><path class="p" d="M410.107,2093.455l-16.474,6.606a1.531,1.531,0,0,0-.935,1.762l2.237,14.942c.322,1.532,3.6,2.008,3.755,1.946,10.467-3.065,32.305-11.325,39.4-14.329s5.027-10.421,1.854-9.824c-14.222,2.667-20.8.828-26.528-1.149A4.413,4.413,0,0,0,410.107,2093.455Z" transform="translate(-120.382 -1716.863)"/><path class="m" d="M364.24,2056.486c3.985,2.774,7.755,5.44,11.172,7.939,30.865,22.619,48.442,63.507,60.963,85.82,11.386,5.563,27.217-5.486,32.029-8.888,0,0-33.715-71.522-45.01-87.077-27.371-37.485-54.573-62.067-96.548-85.59a35.243,35.243,0,0,0-35.692.659,61.8,61.8,0,0,0-11.877,8.935c-1.532,1.654-4.322,11.141,8.582,24.044,11.57,11.586,49.209,35.371,76.319,54.206" transform="translate(-181.484 -1785.53)"/><path class="i" d="M292.153,2001.486c-2.7-4.8,1.241-21.011,1.241-21.011s52.626,50.91,55.17,61.3l-45.209-30.65Z" transform="translate(-174.405 -1776.841)"/><path class="m" d="M362.8,2060.768a.807.807,0,0,1-.644-.337c-1.532-2.422-3.157-4.766-4.72-6.973a.77.77,0,0,1,1.257-.889c1.532,2.238,3.172,4.6,4.751,7.019a.749.749,0,0,1-.205,1.041l-.025.016A.663.663,0,0,1,362.8,2060.768Z" transform="translate(-139.215 -1738.625)"/><path class="m" d="M367.228,2060.666a.768.768,0,0,1-.613-.291,124.2,124.2,0,0,0-24.52-24.52c-3.2-2.345-6.85-4.935-11.157-7.923a.766.766,0,0,1,.874-1.257c4.322,3.065,7.969,5.594,11.187,7.954a125.511,125.511,0,0,1,24.8,24.734.751.751,0,0,1-.6,1.242Z" transform="translate(-153.407 -1752.301)"/><path class="m" d="M290.182,2069.191h-.23a.783.783,0,0,1-.506-.965c.444-1.364.858-2.882,1.272-4.491a.768.768,0,0,1,.933-.553v0a.75.75,0,0,1,.556.9l0,.016c-.414,1.639-.843,3.187-1.287,4.6A.784.784,0,0,1,290.182,2069.191Z" transform="translate(-175.361 -1732.812)"/><path class="m" d="M271.8,2097.11a.768.768,0,0,1-.49-1.365c13-10.8,20.98-18.3,23.769-22.251a21.183,21.183,0,0,0,1.532-2.468.78.78,0,0,1,1.042-.322.764.764,0,0,1,.322,1.026,22.145,22.145,0,0,1-1.533,2.652c-2.851,4.061-10.942,11.646-24.03,22.542A.783.783,0,0,1,271.8,2097.11Z" transform="translate(-185.149 -1728.839)"/><path class="p" d="M286.512,1891.314c1.2,4.919,5.67,8.291,9.977,10.942,3.356,2.054,7.049,4.016,10.973,3.878a11.481,11.481,0,0,0,10.484-12.4c-.017-.19-.037-.381-.063-.57a7.218,7.218,0,0,0,10.039,1.849,7.332,7.332,0,0,0,.611-.471c2.912-2.82,2.835-7.478,2.1-11.463a58.036,58.036,0,0,0-18.712-32.75c-2.237,2.928-6.682,2.376-8.7,1.839a9.068,9.068,0,0,1-2.069-.766h0a9.36,9.36,0,0,0-5.87.781h0c-2.835,3.693-3.862,8.505-4.8,13.119q-1.715,8.459-3.433,16.934A21.716,21.716,0,0,0,286.512,1891.314Z" transform="translate(-177.04 -1846.141)"/><path class="n" d="M286.441,1871.195c.306,8.152,0,19.923-6.314,24.428,0,0-.965,8.153,20.122,20.382,9.885-10.345,4.6-16.52,4.6-16.52-8.551-3.494-7.662-7.064-5.256-13Z" transform="translate(-180.31 -1835.034)"/><path class="g" d="M288.505,1875.215l7.663,9.2a24.924,24.924,0,0,0-1.441,4.261c-3.326-1.012-8.2-4.721-8.352-8.506A10.729,10.729,0,0,1,288.505,1875.215Z" transform="translate(-176.979 -1832.892)"/><path class="n" d="M278.927,1868.542c1.533,13.547,1.9,19.31,9.2,25.915,10.881,9.961,27.187,5.088,29.731-8.644,2.268-12.367-.644-32.52-14.237-37.148a18.59,18.59,0,0,0-24.627,19.923Z" transform="translate(-180.995 -1847.599)"/><path class="p" d="M297.675,1872.918c0,1.133.552,2.053,1.287,2.084s1.349-.9,1.379-2.023-.552-2.069-1.287-2.084S297.675,1871.784,297.675,1872.918Z" transform="translate(-170.962 -1835.193)"/><path class="p" d="M293.145,1863.57c0,1.1.7,1.977,1.425,1.946s1.257-.981,1.211-2.084-.7-1.977-1.41-1.946S293.16,1862.512,293.145,1863.57Z" transform="translate(-173.374 -1840.204)"/><path class="p" d="M301.308,1863.155c0,1.119.705,1.977,1.41,1.946s1.272-.981,1.226-2.084-.7-1.977-1.425-1.931S301.216,1862.051,301.308,1863.155Z" transform="translate(-169.032 -1840.418)"/><path class="p" d="M301.895,1861.449l2.605-.9S303.259,1862.706,301.895,1861.449Z" transform="translate(-168.715 -1840.705)"/><path class="q" d="M298.855,1863.875a30.627,30.627,0,0,0,4.337,6.865,4.861,4.861,0,0,1-3.923.935Z" transform="translate(-170.334 -1838.932)"/><path class="p" d="M290.6,1860.434a.674.674,0,0,0,.766,0,7.657,7.657,0,0,1,6.038-1.211.659.659,0,0,0,.782-.49.644.644,0,0,0-.469-.781h-.006a8.792,8.792,0,0,0-7.218,1.532.645.645,0,0,0,0,.9h0Z" transform="translate(-174.887 -1842.202)"/><path class="p" d="M305.592,1859.436a.675.675,0,0,0,.613-.276.643.643,0,0,0-.132-.9l-.006,0a6.325,6.325,0,0,0-5.915-1.073.6.6,0,0,0-.394.747l.011.035h0a.629.629,0,0,0,.8.388l.012,0h0a5.188,5.188,0,0,1,4.6.919A.841.841,0,0,0,305.592,1859.436Z" transform="translate(-169.868 -1842.661)"/><path class="p" d="M293.725,1861.934l2.62-.92S295.1,1863.038,293.725,1861.934Z" transform="translate(-173.066 -1840.454)"/></g><path class="p" d="M329.279,1856.854c-.123.169-5.3,2.467-11.739-1.3-.659-.383-1.425-.444-2.054-.781h0a9.387,9.387,0,0,0-5.885.781h0c-.46.26-5.961,2.5-6.651,12.26-1.119,15.693-8.214,11.8-9.195,11.463-2.391-.873-3.663-2.759-6.13-2.437a3.971,3.971,0,0,1-1.349,0c1.532,4.505,3.172,8.8,5.134,9.762,14.3,6.912,10.069,19.156,6.283,21.1-2.713,1.409-14.1,2.528-22.5-6.775-2.575,2.345-6.758,1.794-9.9.169h0a11.187,11.187,0,0,1-5.226-13.792,26.177,26.177,0,0,1,9.517-12.521c3.065-2.1,6.605-3.632,8.812-6.605a11.906,11.906,0,0,0,1.532-2.835c.6-1.533,1.318-3.142,2.023-4.689a3.729,3.729,0,0,0,.215-.736,21.731,21.731,0,0,1,5.732-9.087c3.923-3.832,12.444-6.805,19.478-6.973C315.471,1843.582,326.092,1849.375,329.279,1856.854Z" transform="translate(-191.364 -1813.27)"/><path class="p" d="M273.655,1860.128c.107-1.119.153-2.084.169-2.483A19.738,19.738,0,0,0,273.655,1860.128Z" transform="translate(-183.753 -1805.923)"/><path class="n" d="M277.018,1870.446a9.815,9.815,0,0,0,5.241,5.3c3.188,1.287,5.18-1.533,4.6-4.689-.521-2.9-2.774-7.065-6.13-7.034a4.4,4.4,0,0,0-4.231,4.56v.038A4.2,4.2,0,0,0,277.018,1870.446Z" transform="translate(-182.242 -1802.525)"/><path class="p" d="M307.4,1903.664c3.908-.7,7.816-2.329,9.946-5.655,6.13-9.563-4.092-34.3-16.474-47.094l-.506.643c12.26,12.6,22.359,36.78,16.383,46.144-4.122,6.421-15.724,6.13-19.463,5.425l-.138.751A32.162,32.162,0,0,0,307.4,1903.664Z" transform="translate(-171.244 -1809.507)"/><path class="p" d="M274.065,1869.173l.751-.138c-.935-5.072.828-10.635,4.935-15.677,4.444-5.44,10.9-9.195,16.045-9.195,5.915-.107,14.406,2.023,19.1,6.958l.552-.521c-4.843-5.119-13.578-7.31-19.662-7.2-5.364.092-12.046,3.923-16.612,9.517C274.893,1858.078,273.085,1863.87,274.065,1869.173Z" transform="translate(-183.673 -1813.512)"/><path class="p" d="M259.505,1878.193a96.213,96.213,0,0,0,12.26,8.812,27.1,27.1,0,0,0,13.241,4.6,15.651,15.651,0,0,0,3.295-.246,12.939,12.939,0,0,0,9-5.823,9.973,9.973,0,0,0,.9-7.663,7.95,7.95,0,0,0-3.877-5.027l-.337.659a7.3,7.3,0,0,1,3.509,4.6,9.188,9.188,0,0,1-.843,7.08,12.983,12.983,0,0,1-11.494,5.731,26.433,26.433,0,0,1-12.873-4.474,96.212,96.212,0,0,1-12.551-9Z" transform="translate(-191.288 -1797.829)"/><path class="n" d="M265.645,1895.583c1.349,10.13,12.566,53.515,14.85,58.465.322.674.644,1.364,1.027,2.053s.751,1.395,1.226,2.13l.7,1.134c.337.475.674.981,1.027,1.395a26.225,26.225,0,0,0,2.145,2.359,31.182,31.182,0,0,0,8.7,5.609,67.326,67.326,0,0,0,16.153,4.674,135.792,135.792,0,0,0,30.926,1.533l.536-10.728-7-1.533c-2.345-.521-4.674-1.119-6.988-1.655-4.6-1.149-9.195-2.36-13.517-3.816-4.107-1.241-10.651-3.065-14.406-5.088a13.322,13.322,0,0,1-3.433-2.758,2.709,2.709,0,0,1-.276-.429.41.41,0,0,1,0-.123l-.23-.444c-.184-.368-.352-.751-.506-1.134s-11.478-46.419-13.026-55.783Z" transform="translate(-188.018 -1787.924)"/><path class="n" d="M314.865,1942.921a44.7,44.7,0,0,1,7.448-7.387,9.005,9.005,0,0,1,4.322-1.931c4.965-.766,10.207-1.533,10.39,7.586h0c0,.23,1.165,4.091,1.18,4.306.429,5.011-4.383,5.778-9.394,6.207l-13.379.919Z" transform="translate(-161.808 -1765.702)"/><path class="a" d="M293.233,1897.611c4.72,15.4-.965,15.218-.4,24.612L274,1926.912s-10.344-8.7-11.908-19.723a17.56,17.56,0,0,1,20.628-19.432A13.192,13.192,0,0,1,293.233,1897.611Z" transform="translate(-189.982 -1790.044)"/><rect class="m" width="5.9" height="1.701" transform="matrix(0.975, -0.221, 0.221, 0.975, 94.327, 129.45)"/><rect class="m" width="6.375" height="1.701" transform="translate(85.046 132.424) rotate(-18.49)"/><rect class="m" width="5.302" height="1.533" transform="translate(150.488 130.962) rotate(-12.46)"/><path class="m" d="M384.261,1926.055a13.166,13.166,0,0,0-.383,16.751l.383.49v2.666H298.655v-22.987h85.606Z" transform="translate(-170.44 -1771.135)"/><path class="i" d="M367.556,1926.055a13.166,13.166,0,0,0-.383,16.751l.383.49v2.666H330.025v-22.987h37.531Z" transform="translate(-153.736 -1771.135)"/><path class="p" d="M365.731,1941.735l.383.49H332.675v-17.241h33.47a13.165,13.165,0,0,0-.383,16.75Z" transform="translate(-152.324 -1770.064)"/><path class="r" d="M365.731,1941.735l.383.49H332.675v-17.241h33.47a13.165,13.165,0,0,0-.383,16.75Z" transform="translate(-152.324 -1770.064)"/><path class="c" d="M331.25,1932.463a4.6,4.6,0,1,1-4.6-4.6h0A4.6,4.6,0,0,1,331.25,1932.463Z" transform="translate(-157.98 -1768.53)"/><path class="p" d="M329.878,1932.117a3.6,3.6,0,1,1-3.6-3.6,3.6,3.6,0,0,1,3.6,3.6Z" transform="translate(-157.65 -1768.184)"/><rect class="c" width="19.969" height="12.735" transform="translate(130.529 156.913)"/><rect class="c" width="8.597" height="12.735" transform="translate(151.433 156.913)"/><path class="p" d="M332.675,1939.079v-1.532a4.6,4.6,0,1,0,0-9.1v-1.533a6.13,6.13,0,1,1,0,12.168Z" transform="translate(-152.324 -1769.063)"/><rect class="c" width="30.665" height="0.766" transform="translate(180.351 159.947)"/><rect class="c" width="30.665" height="0.766" transform="translate(180.351 160.851)"/><rect class="c" width="30.665" height="0.766" transform="translate(180.351 161.74)"/><rect class="c" width="30.665" height="0.766" transform="translate(180.351 162.644)"/><rect class="c" width="30.665" height="0.766" transform="translate(180.351 163.549)"/><rect class="c" width="30.665" height="0.766" transform="translate(180.351 164.453)"/><rect class="c" width="30.665" height="0.766" transform="translate(180.351 165.357)"/><rect class="c" width="30.665" height="0.766" transform="translate(180.351 166.261)"/><rect class="c" width="30.665" height="0.766" transform="translate(180.351 167.15)"/><path class="a" d="M390.351,1910.812a13.165,13.165,0,0,0-.383,16.75l.383.491v2.667H304.745v-23.065h85.606Z" transform="translate(-167.197 -1779.292)"/><path class="i" d="M373.646,1910.812a13.165,13.165,0,0,0-.383,16.75l.383.491v2.667H336.115v-23.065h37.531Z" transform="translate(-150.493 -1779.292)"/><path class="p" d="M371.852,1926.465l.383.49h-33.47v-17.241h33.47A13.165,13.165,0,0,0,371.852,1926.465Z" transform="translate(-149.081 -1778.195)"/><path class="r" d="M371.852,1926.465l.383.49h-33.47v-17.241h33.47A13.165,13.165,0,0,0,371.852,1926.465Z" transform="translate(-149.081 -1778.195)"/><path class="c" d="M337.34,1917.192a4.6,4.6,0,1,1-4.6-4.6A4.6,4.6,0,0,1,337.34,1917.192Z" transform="translate(-154.737 -1776.662)"/><path class="p" d="M335.968,1916.846a3.6,3.6,0,1,1-3.6-3.6,3.6,3.6,0,0,1,3.6,3.6Z" transform="translate(-154.407 -1776.315)"/><rect class="c" width="19.969" height="12.735" transform="translate(139.862 133.496)"/><rect class="c" width="8.597" height="12.735" transform="translate(160.766 133.496)"/><path class="p" d="M338.765,1923.793v-1.533a4.6,4.6,0,0,0,0-9.1v-1.532a6.13,6.13,0,0,1,0,12.168Z" transform="translate(-149.081 -1777.178)"/><rect class="c" width="30.665" height="0.766" transform="translate(189.684 136.546)"/><rect class="c" width="30.665" height="0.766" transform="translate(189.684 137.45)"/><rect class="c" width="30.665" height="0.766" transform="translate(189.684 138.339)"/><rect class="c" width="30.665" height="0.766" transform="translate(189.684 139.243)"/><rect class="c" width="30.665" height="0.766" transform="translate(189.684 140.147)"/><rect class="c" width="30.665" height="0.766" transform="translate(189.684 141.051)"/><rect class="c" width="30.665" height="0.766" transform="translate(189.684 141.956)"/><rect class="c" width="30.665" height="0.766" transform="translate(189.684 142.844)"/><rect class="c" width="30.665" height="0.766" transform="translate(189.684 143.748)"/><path class="m" d="M332.735,1845.534a186.969,186.969,0,0,0,52.871-.306,3.59,3.59,0,0,0,2.7-1.287c.8-1.318-.322-2.912-1.241-4.138a20.264,20.264,0,0,1-3.6-15.907,84.479,84.479,0,0,1-47.109,21.455Z" transform="translate(-152.292 -1823.895)"/><path class="s" d="M332.735,1845.534a186.969,186.969,0,0,0,52.871-.306,3.59,3.59,0,0,0,2.7-1.287c.8-1.318-.322-2.912-1.241-4.138a20.264,20.264,0,0,1-3.6-15.907,84.479,84.479,0,0,1-47.109,21.455Z" transform="translate(-152.292 -1823.895)"/><rect class="m" width="76.564" height="19.034" transform="translate(140.782 109.405)"/><rect class="t" width="76.564" height="19.034" transform="translate(141.042 109.482)"/><rect class="t" width="58.756" height="19.034" transform="translate(140.797 109.482)"/><path class="m" d="M307.116,1906.306l76.2,2.375-.092-1.931-76.135-1Z" transform="translate(-165.951 -1780.304)"/><path class="m" d="M383.259,1901.86l-76.074-4.276v.644l76.074,5.088Z" transform="translate(-165.898 -1784.655)"/><path class="m" d="M383.259,1896.625l-76.074,1.747v.613l76.074-.92Z" transform="translate(-165.898 -1785.166)"/><path class="m" d="M383.4,1903.256l-76.089,3.709v-.567l76.089-4.414Z" transform="translate(-165.829 -1782.312)"/><path class="m" d="M306.985,1895.445l76.073.061v.628H306.985Z" transform="translate(-166.004 -1785.795)"/><rect class="m" width="76.564" height="19.034" transform="translate(146.283 52.702)"/><rect class="t" width="76.564" height="19.034" transform="translate(146.529 52.794)"/><rect class="t" width="58.756" height="19.034" transform="translate(146.299 52.794)"/><path class="m" d="M310.7,1869.316l76.2,2.36-.092-1.931-76.135-.981Z" transform="translate(-164.045 -1800.002)"/><path class="m" d="M386.839,1864.876l-76.074-4.292v.644l76.074,5.088Z" transform="translate(-163.992 -1804.357)"/><path class="m" d="M386.839,1859.624l-76.074,1.748V1862l76.074-.92Z" transform="translate(-163.992 -1804.869)"/><path class="m" d="M386.984,1866.267,310.9,1869.96v-.552l76.089-4.414Z" transform="translate(-163.922 -1802.009)"/><rect class="m" width="76.564" height="19.034" transform="translate(145.333 90.095)"/><rect class="t" width="76.564" height="19.034" transform="translate(145.578 90.172)"/><rect class="t" width="58.756" height="19.034" transform="translate(145.502 90.187)"/><path class="m" d="M386.052,1893.164l-76.135,1-.092,1.932,76.181-2.376Z" transform="translate(-164.492 -1787.008)"/><path class="m" d="M310.145,1882.845l76.073.061v.628H310.145Z" transform="translate(-164.322 -1792.504)"/><path class="m" d="M309.825,1890.711l76.073-5.088v-.629l-76.073,4.276Z" transform="translate(-164.492 -1791.359)"/><path class="m" d="M386.219,1884.035l-76.073,1.732v.628l76.073-.919Z" transform="translate(-164.322 -1791.87)"/><path class="m" d="M386.364,1890.667l-76.089,3.708v-.567l76.089-4.414Z" transform="translate(-164.252 -1789.016)"/><path class="m" d="M384.686,1870.975l-76.533.383-.107,18.65h76.641Z" transform="translate(-165.44 -1798.825)"/><rect class="t" width="76.564" height="19.034" transform="translate(142.682 72.15)"/><rect class="t" width="58.756" height="19.034" transform="translate(142.605 72.15)"/><path class="m" d="M369.078,1871.225H308.115v1.947H367.76Z" transform="translate(-165.403 -1798.692)"/><path class="m" d="M384.2,1876.315l-76.089.7v.567H384.2Z" transform="translate(-165.403 -1795.982)"/><path class="m" d="M308.115,1883.353l76.089-3.709v.552l-76.089,4.429Z" transform="translate(-165.403 -1794.208)"/><path class="m" d="M308.115,1877.395l76.089,1.517v.536l-76.089-.8Z" transform="translate(-165.403 -1795.406)"/><rect class="m" width="76.074" height="9.578" transform="translate(162.712 30.741)"/><rect class="t" width="76.074" height="9.578" transform="translate(162.712 30.741)"/><rect class="t" width="60.611" height="9.578" transform="translate(162.712 30.741)"/><path class="m" d="M397.269,1848.394l-76.073.368v.291h76.073Z" transform="translate(-158.438 -1810.849)"/><path class="m" d="M321.2,1846.725l76.073-1.931v.291l-76.073,2.3Z" transform="translate(-158.438 -1812.766)"/><path class="m" d="M321.035,1845.715l76.074.781v.291l-76.074-.429Z" transform="translate(-158.523 -1812.276)"/><rect class="m" width="76.074" height="4.613" transform="translate(152.076 26.527)"/><rect class="t" width="76.074" height="4.582" transform="translate(152.076 26.558)"/><rect class="t" width="60.626" height="4.873" transform="translate(152.076 26.282)"/><path class="m" d="M314.245,1844.165l76.074-1.931v.291l-76.074,2.3Z" transform="translate(-162.138 -1814.129)"/><path class="m" d="M314.245,1841.985l76.074.781v.291l-76.074-.413Z" transform="translate(-162.138 -1814.262)"/><rect class="m" width="76.074" height="4.613" transform="translate(159.156 21.807)"/><rect class="t" width="76.074" height="4.582" transform="translate(159.156 21.838)"/><rect class="t" width="60.611" height="4.873" transform="translate(159.156 21.562)"/><path class="m" d="M318.886,1839.484l76.089.92-.015.307-76.1-.567Z" transform="translate(-159.683 -1815.593)"/><path class="m" d="M318.875,1838.9l76.058.782v.291l-76.058-.414Z" transform="translate(-159.673 -1815.902)"/><rect class="m" width="76.074" height="12.337" transform="translate(157.578 40.335)"/><rect class="t" width="76.074" height="12.337" transform="translate(157.578 40.335)"/><rect class="t" width="58.695" height="12.337" transform="translate(157.578 40.335)"/><path class="m" d="M393.569,1852.981l-76.074-.429v-.337h76.074Z" transform="translate(-160.408 -1808.814)"/><path class="m" d="M317.835,1854.146l76.074,2.222v-.337l-76.074-2.636Z" transform="translate(-160.227 -1808.186)"/><path class="m" d="M392.407,1850.214H320.655l1.594,1.532h70.158Z" transform="translate(-158.725 -1809.879)"/><path class="m" d="M318.005,1857.456l76.073-.92v-.322l-76.073.475Z" transform="translate(-160.136 -1806.684)"/></g></g><g transform="translate(986.379 4054.519)"><g transform="translate(0 0)"><path class="u" d="M94.149,153.585l-46.054-14.9a6.056,6.056,0,0,1-3.9-7.626l20.62-63.744a6.057,6.057,0,0,1,7.626-3.9l29.208,9.448,15.071,30.616-14.947,46.2A6.057,6.057,0,0,1,94.149,153.585Z" transform="translate(-43.901 -63.121)"/><g transform="translate(51.672 9.744)"><path class="b" d="M103.721,73.256l-5.8,17.94a5.633,5.633,0,0,0,3.625,7.093l17.25,5.583Z" transform="translate(-97.643 -73.256)"/></g><g class="v" transform="translate(51.383 29.334)"><path d="M97.632,93.631s-1.634,4.278,2.857,7.311a6,6,0,0,0,.526.311c2.122,1.131,16.1,8.565,16.206,8.225.12-.369,1.561-4.821,1.561-4.821l-17.251-5.58S97.271,97.537,97.632,93.631Z" transform="translate(-97.342 -93.631)"/></g></g><g transform="translate(27.014 18.785)"><path class="j" d="M93.305,89.577c-.075.231-4.905-1.126-10.788-3.029S71.924,82.915,72,82.685s4.9,1.125,10.789,3.029S93.379,89.346,93.305,89.577Z" transform="translate(-71.998 -82.659)"/></g><g transform="translate(23.733 28.938)"><path class="j" d="M103.653,104.578c-.075.231-7.986-2.122-17.668-5.254s-17.474-5.859-17.4-6.09,7.984,2.122,17.669,5.255S103.727,104.348,103.653,104.578Z" transform="translate(-68.585 -93.219)"/></g><g transform="translate(20.993 37.41)"><path class="j" d="M103.962,114.409c-.075.231-8.693-2.351-19.247-5.764s-19.053-6.37-18.979-6.6,8.691,2.35,19.249,5.765S104.036,114.179,103.962,114.409Z" transform="translate(-65.735 -102.03)"/></g><g transform="translate(18.408 45.401)"><path class="j" d="M101.273,122.721c-.075.231-8.693-2.351-19.247-5.765s-19.053-6.37-18.979-6.6,8.691,2.351,19.249,5.766S101.348,122.49,101.273,122.721Z" transform="translate(-63.046 -110.341)"/></g><g transform="translate(15.823 53.393)"><path class="j" d="M98.584,131.032c-.074.231-8.693-2.35-19.246-5.764s-19.054-6.37-18.979-6.6,8.691,2.35,19.249,5.765S98.659,130.8,98.584,131.032Z" transform="translate(-60.358 -118.653)"/></g><g transform="translate(13.238 61.384)"><path class="j" d="M95.9,139.344c-.075.231-8.693-2.351-19.247-5.765s-19.053-6.37-18.979-6.6,8.691,2.351,19.249,5.766S95.97,139.113,95.9,139.344Z" transform="translate(-57.67 -126.964)"/></g></g></g></svg>