<svg xmlns="http://www.w3.org/2000/svg" xmlns:xlink="http://www.w3.org/1999/xlink" width="270.158" height="266.971" viewBox="0 0 270.158 266.971"><defs><style>.a{fill:none;}.b{fill:#aed3f2;}.c{fill:#d9a171;}.d{clip-path:url(#a);}.e{fill:#263238;}.f{fill:#455a64;}.g{fill:#ffbe9d;}.h{fill:#eb996e;}.i{opacity:0.2;}.j{fill:#5e6178;}.k{fill:#6595bf;}.l{fill:#e0e0e0;}.m{fill:#fff;}.n{opacity:0.3;}</style><clipPath id="a"><path class="a" d="M922.893,573.637c0,34.8.806,68.441-42.048,84.45-25.711,9.606-78.481,20.972-99.211,20.972-33.48,0-84.151-4.925-106.539-34.887-14.578-19.506-22.359-71.443-22.359-93.4,0-55.673,51.129-156.574,132.76-114.357C834.673,461.845,922.893,517.965,922.893,573.637Z" transform="translate(-652.736 -426.363)"/></clipPath></defs><g transform="translate(-257.938 -5215)"><g transform="translate(257.938 5215)"><path class="b" d="M718.024,492.969c-29.239,39.868-31.265,154.955,9.8,185.077s109.692-36.133,138.924-76,19.642-96.592-21.426-126.714S747.258,453.106,718.024,492.969Z" transform="translate(-641.8 -418.693)"/><path class="c" d="M652.737,539.741c0,55.673,100.206,116.48,155.486,116.48s114.671-60.807,114.671-116.48-23.323-93.376-104.954-51.159C768.763,514.01,652.737,484.07,652.737,539.741Z" transform="translate(-652.736 -415.33)"/><g transform="translate(0 0)"><g class="d" transform="translate(0 0)"><g transform="translate(35.648 24.887)"><g transform="translate(31.192)"><g transform="translate(0)"><g transform="translate(0)"><g transform="translate(0)"><g transform="translate(0.287 0.28)"><g transform="translate(0)"><path class="e" d="M833.821,490.273a3.409,3.409,0,0,0-1.237-1.985,8.438,8.438,0,0,0-5.234-1.295,22.233,22.233,0,0,1-2.144-6.949,4.434,4.434,0,0,0,2.467-.7,2.416,2.416,0,0,0,.406-.125c1.758-.806,1.931-3.433.824-5.018a10.033,10.033,0,0,0-4.809-3.089c1.325.08,2.456.956,3.724,1.35s3.051-.041,3.2-1.36a2.879,2.879,0,0,0-.2-1.187q-.375-1.17-.743-2.339a2.613,2.613,0,0,0-1.03-1.631,6.108,6.108,0,0,0-1.35-.324c-1.481-.4-2.25-2.2-3.726-2.612a6.8,6.8,0,0,0-3.31.49c-1.1.261-2.555.045-2.9-1.032a10.556,10.556,0,0,0,3.766-3.184,3.624,3.624,0,0,0-.358-4.556,5.328,5.328,0,0,0-3.725-.763c-1.449.065-3.25.394-3.633,1.791a3.769,3.769,0,0,0-4.576,2.733c-.019.075-.035.149-.049.224l-3.731-.375c1.041-1.125,2.522-1.8,3.421-3.041s.734-3.468-.764-3.789a10.318,10.318,0,0,1-1.664-.146c-.375-.149-.685-.488-1.089-.5a1.452,1.452,0,0,0-.805.316l-7.881,5.141,2.125-4.954c.656-1.522,1.164-3.625-.2-4.565-1.319-.911-3.25.4-3.523,1.984a2.562,2.562,0,0,0-3.115,2.358,2.6,2.6,0,0,0-3.051,3.964,7.371,7.371,0,0,0-3.75,1.125,2.26,2.26,0,0,0-3.651-1.555,3.939,3.939,0,0,0-.579-2.25,1.361,1.361,0,0,0-1.894-.339,1.557,1.557,0,0,0-.14.112,2.64,2.64,0,0,0-4.275-2.584q-.647-.786-1.3-1.571a3.473,3.473,0,0,0-3.349,1.737c-.548,1.217.369,2.969,1.7,2.849-.934-.016-.723,1.476-.176,2.235l2.28,3.17a2.921,2.921,0,0,0-3.616-.32,2.26,2.26,0,0,0-3.194-.049l-.073.074a1.83,1.83,0,0,0-3.288.556c-.231-.611-1.07-.648-1.719-.576a4.254,4.254,0,0,0-2.6.894c-.666.659-.661,2.024.218,2.349-.8-.448-1.826.432-1.84,1.347a3.274,3.274,0,0,0,1.31,2.315,7.626,7.626,0,0,1,1.875,1.978,3.869,3.869,0,0,0-2.635-.556,10.027,10.027,0,0,0-4.769.951c-.279-.644-1.177-.673-1.866-.533a11.17,11.17,0,0,0-5.686,3.091c-.725.737-1.375,1.844-.875,2.75a2.767,2.767,0,0,0,1.045.927l5.059,3.125a13.772,13.772,0,0,0-6.916,4.9c-1.011.588-2.3.649-3.21,1.375s-.849,2.657.323,2.656a2.146,2.146,0,0,0-.625,2.489,2.037,2.037,0,0,0,.789.875,2.9,2.9,0,0,0,.555.625,3.956,3.956,0,0,0,1.359.713,2.646,2.646,0,0,0,2.261,1.042,10.78,10.78,0,0,0-2.405,2.849,4.514,4.514,0,0,0,0,4.641,2.391,2.391,0,0,0,.179.2,2.2,2.2,0,0,0,.968,1.4,1.866,1.866,0,0,0-.179,1.233,4.937,4.937,0,0,0-1.11,8.653c1.163.823,3.321.67,3.43-.75a3.841,3.841,0,0,0,2.919,2.125,3.722,3.722,0,0,0,1.66,5c.094.046.19.09.287.129a3.967,3.967,0,0,0,1.25,6.49,3.039,3.039,0,1,0,5.72,2.054l.021-.061a6.426,6.426,0,0,0,2.275,2.848,2.231,2.231,0,0,0,3.075-.7c.024-.039.047-.079.07-.12A4.173,4.173,0,0,0,769.948,529a2.7,2.7,0,0,0,5.367.474l6.97-.068a24.844,24.844,0,0,0,4.608-.333,12.465,12.465,0,0,0,5.31-2.458,4.224,4.224,0,0,1,1.61-.979,4.357,4.357,0,0,1,2.125.328,11.278,11.278,0,0,0,10.711-2.532,5.644,5.644,0,0,1,1.414-1.125,5.091,5.091,0,0,1,2.057-.285,20.294,20.294,0,0,0,5.065-.73,5.381,5.381,0,0,0,3.573-2.345c.666-1.307-.116-3.326-1.585-3.3a3.152,3.152,0,0,1,.779-2.647,1.9,1.9,0,0,1,2.574-.106,1.364,1.364,0,0,1-.625,2.225c1.576,1.086,4.025-.439,4.065-2.354a3.77,3.77,0,0,0-3.778-3.516,8.668,8.668,0,0,0,.108-4.215,3.1,3.1,0,0,0,4.223.478,5.333,5.333,0,0,0,3.457,2.485,3.2,3.2,0,0,0,3.533-1.93,2.3,2.3,0,0,0-2.189-2.968,2.75,2.75,0,0,0-2.448-3.984,4.285,4.285,0,0,0-2.616-4.548,2.251,2.251,0,0,0,3.055-.89,2.327,2.327,0,0,0,.154-.348c.888,1.4,3.047,1.056,4.476.219A3.012,3.012,0,0,0,833.821,490.273Z" transform="translate(-740.367 -446.496)"/></g></g><g transform="translate(0)"><path class="f" d="M834.072,490.33a2.187,2.187,0,0,1,.08.569,2.471,2.471,0,0,1-.534,1.605A5.429,5.429,0,0,1,831.3,494.1a4.7,4.7,0,0,1-1.808.307,2.248,2.248,0,0,1-1.838-.971l.151-.023a2.35,2.35,0,0,1-2.987,1.458,2.423,2.423,0,0,1-.354-.156l.09-.179a4.408,4.408,0,0,1,2.7,4.661l-.125-.139a2.662,2.662,0,0,1,2.4,1.286,2.712,2.712,0,0,1,.176,2.888l-.125-.205a2.324,2.324,0,0,1,2.335,1.75,2.544,2.544,0,0,1-1.178,2.89,3.678,3.678,0,0,1-3.359.311,5.944,5.944,0,0,1-2.722-2.319l.241.039a3.274,3.274,0,0,1-4.463-.5l.309-.145a8.881,8.881,0,0,1-.1,4.3l-.174-.231a4.235,4.235,0,0,1,2.6.964,3.554,3.554,0,0,1,1.365,2.51,2.965,2.965,0,0,1-1.375,2.585,2.662,2.662,0,0,1-2.988.158l-.444-.3.533-.058a1.106,1.106,0,0,0,.777-1.309,1.213,1.213,0,0,0-1.321-.962,1.873,1.873,0,0,0-1.591.966,3.245,3.245,0,0,0-.354,2.008l-.214-.186a1.816,1.816,0,0,1,1.388.645,2.689,2.689,0,0,1,.625,1.375,2.65,2.65,0,0,1-.193,1.515,3.594,3.594,0,0,1-.934,1.2,7.239,7.239,0,0,1-2.683,1.3,20.421,20.421,0,0,1-2.932.606c-1.969.414-4.25-.389-5.536,1.44a11.363,11.363,0,0,1-5.625,2.894,11.653,11.653,0,0,1-3.261.194,16.586,16.586,0,0,1-3.2-.7,1.964,1.964,0,0,0-1.431.161,11.345,11.345,0,0,0-1.3.959,12.861,12.861,0,0,1-2.971,1.662,17.857,17.857,0,0,1-6.8.979l-6.993.074.258-.224a2.966,2.966,0,0,1-5.9-.521l.427.225a4.449,4.449,0,0,1-6.149-1.334,4.33,4.33,0,0,1-.4-.791l.518.009a2.026,2.026,0,0,1-1.488,1.236,2.892,2.892,0,0,1-1.964-.225,6.519,6.519,0,0,1-2.474-3l.51-.039a3.319,3.319,0,1,1-6.271-2.178h0l.181.363a3.961,3.961,0,0,1-2.531-3.015,4.011,4.011,0,0,1,1.186-3.966l.09.492a4.014,4.014,0,0,1-2.256-5.209c.045-.112.1-.224.15-.333l.214.43a4.148,4.148,0,0,1-3.144-2.286l.552-.1a1.508,1.508,0,0,1-.453.964,1.979,1.979,0,0,1-.912.474,3.3,3.3,0,0,1-1.941-.162,4.914,4.914,0,0,1-2.5-2.9,5.059,5.059,0,0,1,.2-3.886,5.354,5.354,0,0,1,2.889-2.7l-.186.336a2.166,2.166,0,0,1,.205-1.425l.111.386a2.5,2.5,0,0,1-1.1-1.589l.067.125a4.391,4.391,0,0,1-.565-4.4,9.6,9.6,0,0,1,2.807-3.7l.224.518a2.948,2.948,0,0,1-2.525-1.159l.149.1a3.726,3.726,0,0,1-2.073-1.458l.088.085a2.236,2.236,0,0,1-1.09-1.82,2.439,2.439,0,0,1,.9-2.026l.184.534a1.137,1.137,0,0,1-.942-.476,1.728,1.728,0,0,1-.3-.949,2.168,2.168,0,0,1,.741-1.769c1.033-.8,2.31-.848,3.24-1.4l-.09.08a14.106,14.106,0,0,1,7.066-5.008l-.069.541-2.316-1.434-1.758-1.087a14.6,14.6,0,0,1-1.764-1.175,1.775,1.775,0,0,1-.562-1.066,2.219,2.219,0,0,1,.184-1.158,5.061,5.061,0,0,1,1.313-1.718,11.467,11.467,0,0,1,5.531-2.825,3.094,3.094,0,0,1,1.125-.018,1.323,1.323,0,0,1,1.01.737l-.424-.14a8.524,8.524,0,0,1,3.834-.946c.649-.03,1.275-.068,1.943-.049a3.234,3.234,0,0,1,1.968.625l-.455.366c-.566-1.125-1.944-1.713-2.756-2.965a2.226,2.226,0,0,1-.269-2.224,1.929,1.929,0,0,1,.834-.841,1.329,1.329,0,0,1,1.25-.006l-.25.537a1.339,1.339,0,0,1-.795-.858,1.962,1.962,0,0,1-.021-1.1,1.9,1.9,0,0,1,.559-.941,2.824,2.824,0,0,1,.889-.542,7.348,7.348,0,0,1,1.914-.385,3.276,3.276,0,0,1,1.024.047,1.224,1.224,0,0,1,.916.728l-.569.071a2.126,2.126,0,0,1,3.846-.649l-.487-.064a2.545,2.545,0,0,1,3.6-.136c.039.035.075.071.111.109l-.4-.041a3.212,3.212,0,0,1,3.991.341l-.437.384-1.934-2.69a3.766,3.766,0,0,1-.8-1.552,1.985,1.985,0,0,1,0-.954.934.934,0,0,1,.315-.49.9.9,0,0,1,.566-.177l.021.576a1.969,1.969,0,0,1-1.875-1.149,2.434,2.434,0,0,1-.085-2.166,3.78,3.78,0,0,1,3.591-1.846h.125l.082.1,1.3,1.573-.4-.039a2.925,2.925,0,0,1,4.734,2.864l-.5-.235a1.368,1.368,0,0,1,1.345-.444,1.878,1.878,0,0,1,1.155.706,4.242,4.242,0,0,1,.612,2.375l-.476-.182a2.536,2.536,0,0,1,4.125,1.76l-.424-.241a7.644,7.644,0,0,1,3.891-1.159l-.215.439a2.875,2.875,0,0,1,3.375-4.375l-.375.25a2.823,2.823,0,0,1,2.954-2.686,2.758,2.758,0,0,1,.506.07l-.338.211a3.156,3.156,0,0,1,1.059-1.785,2.7,2.7,0,0,1,1.949-.708,2.075,2.075,0,0,1,1.67,1.239,3.546,3.546,0,0,1,.157,2,16.73,16.73,0,0,1-1.291,3.555l-1.454,3.375-.375-.316,4.868-3.17,2.383-1.55a6.124,6.124,0,0,1,1.285-.736,1.151,1.151,0,0,1,.85.133c.227.125.41.265.585.34a3.663,3.663,0,0,0,1.282.1,1.817,1.817,0,0,1,1.375.67,3.014,3.014,0,0,1,.279,2.838,5.241,5.241,0,0,1-1.807,2.11,16.937,16.937,0,0,0-2.011,1.659l-.148-.394,3.731.383-.25.2a3.991,3.991,0,0,1,4.651-3.2c.089.016.177.036.266.059l-.28.154a2.569,2.569,0,0,1,1.9-1.66,9.218,9.218,0,0,1,2.4-.306,6.812,6.812,0,0,1,2.375.265,2.934,2.934,0,0,1,1.788,1.586,4.344,4.344,0,0,1-.775,4.389,12.53,12.53,0,0,1-3.43,2.668l.088-.229a1.535,1.535,0,0,0,1.3.95,3.8,3.8,0,0,0,1.764-.149,12.459,12.459,0,0,1,1.809-.448,2.785,2.785,0,0,1,1.85.355c1.078.656,1.708,1.724,2.69,2.188a15.042,15.042,0,0,0,1.625.42,2.171,2.171,0,0,1,1.1,1.358l.978,3.075a1.9,1.9,0,0,1-.125,1.635,2.176,2.176,0,0,1-1.345.875,3.541,3.541,0,0,1-1.545.024,7.067,7.067,0,0,1-1.391-.523,7.412,7.412,0,0,0-2.579-.905l.063-.284a17.567,17.567,0,0,1,3.057,1.466,5.684,5.684,0,0,1,2.144,2.289,4.183,4.183,0,0,1,.208,2.875,2.58,2.58,0,0,1-1.854,1.845l.029-.014a4.49,4.49,0,0,1-2.53.713l.106-.125a22.157,22.157,0,0,0,2.107,6.929l-.066-.043a13.122,13.122,0,0,1,3.5.425,4.919,4.919,0,0,1,2.116,1.239,3.355,3.355,0,0,1,.75,1.233,2.139,2.139,0,0,1,.107.459,3.534,3.534,0,0,0-.912-1.638,4.894,4.894,0,0,0-2.094-1.184,13.227,13.227,0,0,0-3.468-.384h-.045l-.021-.042a22,22,0,0,1-2.18-6.968l-.018-.125h.125a4.282,4.282,0,0,0,2.4-.694l.019-.01h.013a2.345,2.345,0,0,0,1.68-1.7,3.936,3.936,0,0,0-.212-2.7,5.449,5.449,0,0,0-2.057-2.164,17.492,17.492,0,0,0-3.015-1.425l-.863-.34.926.055a7.641,7.641,0,0,1,2.69.918,6.791,6.791,0,0,0,1.326.5,3.219,3.219,0,0,0,1.4-.027,1.856,1.856,0,0,0,1.146-.737,1.575,1.575,0,0,0,.077-1.366L830,467.226a1.833,1.833,0,0,0-.912-1.153,13.046,13.046,0,0,1-1.644-.421c-1.11-.539-1.75-1.625-2.722-2.191-.98-.635-2.2-.211-3.367.141a4.187,4.187,0,0,1-1.936.164,1.923,1.923,0,0,1-1.609-1.214l-.046-.149.132-.08a12.235,12.235,0,0,0,3.314-2.584,3.936,3.936,0,0,0,.71-3.959,2.5,2.5,0,0,0-1.542-1.354,6.428,6.428,0,0,0-2.229-.236,8.884,8.884,0,0,0-2.288.3,2.124,2.124,0,0,0-1.6,1.355l-.057.223-.223-.068a3.546,3.546,0,0,0-4.291,2.594c-.015.06-.028.12-.039.18l-.035.22-.216-.022-3.733-.375-.472-.047.324-.346a17.09,17.09,0,0,1,2.061-1.713,4.82,4.82,0,0,0,1.65-1.906,2.559,2.559,0,0,0-.208-2.364,1.328,1.328,0,0,0-1.023-.485,3.867,3.867,0,0,1-1.455-.144c-.49-.239-.8-.555-1.116-.444a6.4,6.4,0,0,0-1.135.672q-1.181.771-2.375,1.555l-4.863,3.178-.71.464.335-.78q.718-1.674,1.449-3.375a16.47,16.47,0,0,0,1.25-3.437,3.031,3.031,0,0,0-.125-1.7,1.543,1.543,0,0,0-1.236-.926,2.549,2.549,0,0,0-2.433,2.056l-.054.3-.284-.084a2.3,2.3,0,0,0-2.726,1.771,2.1,2.1,0,0,0-.045.33v.4l-.375-.151a2.325,2.325,0,0,0-2.73,3.549l.323.429-.538.01a7.1,7.1,0,0,0-3.609,1.08l-.446.279.023-.52a1.986,1.986,0,0,0-3.174-1.352l-.446.45-.031-.634a3.767,3.767,0,0,0-.5-2.065c-.351-.5-1.264-.708-1.6-.25l-.78,1.05.281-1.284a2.358,2.358,0,0,0-3.818-2.305l-.219.185-.184-.221-1.3-1.571.21.1a3.221,3.221,0,0,0-3.051,1.524c-.514.98.27,2.594,1.386,2.487l.02.579c-.181.01-.25.057-.314.25a1.433,1.433,0,0,0,.013.671,3.209,3.209,0,0,0,.711,1.335q.962,1.341,1.935,2.69l-.436.384a2.634,2.634,0,0,0-3.241-.3l-.219.165-.176-.205a1.97,1.97,0,0,0-2.786-.016l-.038.039-.3.36-.188-.422a1.547,1.547,0,0,0-2.73.461l-.125,1.476-.439-1.405c-.116-.375-.77-.456-1.334-.4a6.846,6.846,0,0,0-1.75.346,1.623,1.623,0,0,0-1.09,1.083c-.139.508.021,1.109.448,1.25l-.25.536c-.405-.25-1.024.1-1.268.6a1.643,1.643,0,0,0,.239,1.625c.659,1.077,2.048,1.653,2.786,3.014l.7,1.294-1.156-.926c-.868-.7-2.25-.47-3.5-.443a7.969,7.969,0,0,0-3.568.866l-.3.176-.125-.316c-.159-.421-.875-.489-1.472-.375a10.876,10.876,0,0,0-5.235,2.676,4.471,4.471,0,0,0-1.168,1.509,1.294,1.294,0,0,0,.24,1.56,15.018,15.018,0,0,0,1.666,1.1l1.75,1.088,2.318,1.432.561.347-.625.2a13.506,13.506,0,0,0-6.764,4.791l-.038.051-.052.029c-1.115.625-2.356.691-3.169,1.351a1.591,1.591,0,0,0-.515,1.275c.018.486.261.875.645.852l.948-.055-.763.59a1.861,1.861,0,0,0-.671,1.528,1.623,1.623,0,0,0,.816,1.345l.055.032.033.052a3.119,3.119,0,0,0,1.75,1.221l.093.029.056.075a2.355,2.355,0,0,0,2,.928l.9-.084-.672.6a9.044,9.044,0,0,0-2.648,3.459,3.815,3.815,0,0,0,.449,3.81l.05.055.018.074a1.916,1.916,0,0,0,.831,1.218l.239.14-.125.25a1.584,1.584,0,0,0-.154,1.039l.054.25-.24.091a4.755,4.755,0,0,0-2.563,2.4,4.47,4.47,0,0,0-.18,3.441,4.369,4.369,0,0,0,2.16,2.549,2.72,2.72,0,0,0,1.589.138,1.061,1.061,0,0,0,.922-.916l.068-1.136.485,1.034a3.568,3.568,0,0,0,2.694,1.963l.428.051-.214.375a3.45,3.45,0,0,0,1.576,4.618c.07.034.141.066.213.1l.5.156-.413.336a3.445,3.445,0,0,0-1,3.4,3.4,3.4,0,0,0,2.145,2.6l.279.088-.1.276a2.758,2.758,0,1,0,5.21,1.809l.209-.625.3.584a6.032,6.032,0,0,0,2.231,2.769,1.95,1.95,0,0,0,2.673-.687l.011-.019.264-.786.25.794a3.909,3.909,0,0,0,5.084,2.174,3.833,3.833,0,0,0,.63-.321l.444-.328-.016.551a2.434,2.434,0,0,0,4.837.428l.03-.223h.226l6.994-.061a17.371,17.371,0,0,0,6.625-.934,12.322,12.322,0,0,0,2.856-1.591,11.809,11.809,0,0,1,1.369-1,2.462,2.462,0,0,1,1.764-.2,16.222,16.222,0,0,0,3.145.7,11.11,11.11,0,0,0,3.125-.179,10.891,10.891,0,0,0,5.4-2.76,5.924,5.924,0,0,1,1.237-1.008,3.538,3.538,0,0,1,1.574-.365,24.132,24.132,0,0,0,2.989-.179,19.886,19.886,0,0,0,2.869-.585,6.824,6.824,0,0,0,2.522-1.21,2.467,2.467,0,0,0,.983-2.313,1.764,1.764,0,0,0-1.573-1.664h-.193l-.023-.191a3.665,3.665,0,0,1,.413-2.273,2.3,2.3,0,0,1,1.944-1.169,1.625,1.625,0,0,1,1.732,1.315,1.5,1.5,0,0,1-1.125,1.769l.086-.364a2.272,2.272,0,0,0,2.539-.152,2.571,2.571,0,0,0,1.211-2.24,3.635,3.635,0,0,0-3.579-3.125h-.24l.065-.23a8.548,8.548,0,0,0,.115-4.125l-.17-.75.478.6a2.941,2.941,0,0,0,3.98.459l.14-.117.1.155a5.638,5.638,0,0,0,2.559,2.205,3.372,3.372,0,0,0,3.083-.269,2.25,2.25,0,0,0,1.068-2.555,2.047,2.047,0,0,0-2.03-1.569l-.27.033.14-.24a2.632,2.632,0,0,0-2.322-3.791l-.153.016.025-.154a4.2,4.2,0,0,0-2.534-4.435l.09-.179a2.169,2.169,0,0,0,3.072-1.177l.049-.189.1.168a2.1,2.1,0,0,0,1.7.912,4.611,4.611,0,0,0,1.75-.279,5.406,5.406,0,0,0,2.294-1.524,2.466,2.466,0,0,0,.558-1.552C834.109,490.521,834.055,490.333,834.072,490.33Z" transform="translate(-740.331 -446.272)"/></g><g transform="translate(29.886 26.377)"><g transform="translate(0)"><g transform="translate(0)"><path class="g" d="M754.409,490.789A22.22,22.22,0,0,1,775.4,467.405q.4-.021.806-.029a22.877,22.877,0,0,1,23.177,20.9c.913,10.345,1.6,20.774,1.308,24.527-.875,11.316-7.911,15.29-10.733,16.438a15.192,15.192,0,0,1-3.084.545h0a.076.076,0,0,0-.07.083h0l1.723,13.168c.611,8.593,2.5,37.813-6.25,38.493-8.769.682-22.358-28.234-23.133-36.844Z" transform="translate(-754.376 -467.373)"/></g></g></g><g transform="translate(64.785 48.552)"><g transform="translate(3.041 5.43)"><g transform="translate(0)"><g transform="translate(0)"><g transform="translate(0)"><path class="e" d="M761.852,490.958a1.807,1.807,0,0,1-1.615,1.951,1.758,1.758,0,0,1-2.019-1.452l0-.023a1.811,1.811,0,0,1,1.614-1.954,1.76,1.76,0,0,1,2.02,1.451Z" transform="translate(-758.208 -489.457)"/></g></g></g></g><g transform="translate(0)"><g transform="translate(0)"><g transform="translate(0)"><g transform="translate(0)"><g transform="translate(0)"><path class="e" d="M764.992,486.743c-.206.25-1.678-.648-3.649-.49-1.97.125-3.334,1.24-3.566,1.02-.114-.1.081-.539.675-1.038a5.082,5.082,0,0,1,2.831-1.106,4.927,4.927,0,0,1,2.928.684C764.854,486.222,765.094,486.63,764.992,486.743Z" transform="translate(-757.746 -485.113)"/></g></g></g></g></g></g><g transform="translate(45.447 50.422)"><g transform="translate(3.969 5.027)"><g transform="translate(0)"><g transform="translate(0)"><path class="e" d="M776.579,492.13a1.808,1.808,0,0,1-1.616,1.953,1.757,1.757,0,0,1-2.018-1.451l0-.024a1.807,1.807,0,0,1,1.614-1.954,1.759,1.759,0,0,1,2.02,1.451Z" transform="translate(-772.935 -490.63)"/></g></g></g><path class="e" d="M780.462,488.238c-.209.25-1.68-.647-3.65-.49-1.97.131-3.334,1.24-3.566,1.02-.114-.1.08-.539.674-1.038a5.08,5.08,0,0,1,2.831-1.1,4.916,4.916,0,0,1,2.928.682C780.322,487.717,780.565,488.125,780.462,488.238Z" transform="translate(-773.215 -486.609)"/></g><g transform="translate(58.78 49.792)"><g transform="translate(0)"><g transform="translate(0)"><g transform="translate(0)"><g transform="translate(0)"><path class="e" d="M764.909,502.161a13.29,13.29,0,0,1,3.155-.816c.5-.091.966-.225,1.024-.569a2.506,2.506,0,0,0-.459-1.44q-.857-1.738-1.8-3.646c-2.511-5.2-4.375-9.488-4.159-9.584s2.424,4.036,4.935,9.235l1.74,3.675a2.834,2.834,0,0,1,.421,1.919,1.248,1.248,0,0,1-.768.787,3.479,3.479,0,0,1-.844.182A13.1,13.1,0,0,1,764.909,502.161Z" transform="translate(-762.653 -486.105)"/></g></g></g></g></g><g transform="translate(44.764 85.126)"><g transform="translate(0)"><path class="h" d="M782.716,518.045s-7.558,1.2-17.539-3.673c.6.3,3.488,11.42,18,7.22Z" transform="translate(-765.177 -514.372)"/></g></g><g transform="translate(54.808 69.466)"><g transform="translate(0)"><g transform="translate(0)"><g transform="translate(0)"><path class="h" d="M772.512,502.957a3.608,3.608,0,0,0-3.29-1.047,3.252,3.252,0,0,0-2.14,1.352,2,2,0,0,0,.034,2.319,2.429,2.429,0,0,0,2.636.441,7.461,7.461,0,0,0,2.4-1.673,2.145,2.145,0,0,0,.515-.616.639.639,0,0,0-.062-.72" transform="translate(-766.728 -501.844)"/></g></g></g></g><g transform="translate(55.105 67.645)"><g transform="translate(0)"><g transform="translate(0)"><path class="e" d="M765.99,500.388c.319-.044.5,2.057,2.453,3.406s4.213.94,4.25,1.233c.041.125-.474.448-1.434.547a5.418,5.418,0,0,1-3.54-.91A4.578,4.578,0,0,1,765.8,501.8C765.648,500.921,765.845,500.388,765.99,500.388Z" transform="translate(-765.745 -500.387)"/></g></g></g></g><g transform="translate(43.709 44.603)"><g transform="translate(0)"><g transform="translate(0)"><path class="e" d="M782.2,483.138c-.151.541-2.139.445-4.428.9-2.3.409-4.108,1.219-4.453.77-.155-.215.125-.735.839-1.3a7.57,7.57,0,0,1,3.233-1.4,7.66,7.66,0,0,1,3.534.131C781.8,482.5,782.262,482.882,782.2,483.138Z" transform="translate(-773.28 -481.954)"/></g></g></g><g transform="translate(64.283 43.352)"><g transform="translate(0)"><g transform="translate(0)"><g transform="translate(0)"><path class="e" d="M765.279,482.7c-.311.468-1.705.116-3.339.223-1.639.049-2.991.53-3.346.095-.157-.214.022-.67.592-1.133a4.916,4.916,0,0,1,5.386-.25C765.188,482.039,765.419,482.478,765.279,482.7Z" transform="translate(-758.539 -480.953)"/></g></g></g></g></g></g><g transform="translate(12.453 11.265)"><g transform="translate(8.858 9.255)"><g transform="translate(0)"><path class="e" d="M808.923,475.79a14.182,14.182,0,0,0-.279-1.875,5.725,5.725,0,0,0-1.67-2.348c-2.393-2.349-4.919-4.775-7.931-5.554-1.84-.475-3.75-.3-5.594-.75a32.094,32.094,0,0,1-3.345-1.215,27.405,27.405,0,0,0-14.206-.766,22.63,22.63,0,0,0-7.625,2.476,27.32,27.32,0,0,0-6.84,6.225,41.659,41.659,0,0,0-7.625,12.273,20.376,20.376,0,0,0-1.1,11.589c.908,3.861,3.638,7.325,6.98,7.86l1.164-1.586,1.86-2.351c-.308.938,0,.867.784,1.315a1.6,1.6,0,0,0,2.151-.694c.021-.041.041-.084.059-.127.671.761,1.988-.182,1.709-1.226.783.355,1.678-.733,1.358-1.65.9.26,1.294-1.186,1.67-2.163a14.763,14.763,0,0,1,.769-1.5,9.749,9.749,0,0,0,.988-5.336,9.565,9.565,0,0,0,1.212-5.25l.135-3.479q.289-.426.574-.854a1.876,1.876,0,0,0,1.39,1.685,4,4,0,0,0,2.084-.206l2.022-.569,1.315.266a5.2,5.2,0,0,0,.656,3.321,3.236,3.236,0,0,0,1.343,1.771.975.975,0,0,0,1.271-1.152,1.08,1.08,0,0,0,1.516-.186,1.094,1.094,0,0,0,.13-.214,3.558,3.558,0,0,0,.29-2.159,9.088,9.088,0,0,0-2.059-4.855q1.922,1.528,3.848,3.058a1.679,1.679,0,0,0,.919.465.95.95,0,0,0,.925.973.934.934,0,0,0,.166-.011,2.461,2.461,0,0,0,1.25-1c.8-.986,1.59-2.617.73-3.584a.778.778,0,0,0,.321-1.051.916.916,0,0,0-.071-.11l4.307,2.75c-.422-.2-.819.464-.687.981a2.163,2.163,0,0,0,.944,1.133,3.174,3.174,0,0,0-.31,1.963c-.784-.6-1.78.709-1.459,1.738a2.3,2.3,0,0,0,2.281,1.5,1.6,1.6,0,0,0,1.711-1.33c.906.116,1.665-1.179,1.264-2.159.679.375,1.149-.826,1.112-1.7a12.633,12.633,0,0,0-1.016-4.464.233.233,0,0,0,.321.076l.014-.009a.259.259,0,0,0,.074-.176l2.566,5.034a13.087,13.087,0,0,1,1.634,4.539c.067.665.217,1.571.781,1.586a.824.824,0,0,0,.431-.151A8.375,8.375,0,0,0,809.446,482a6.378,6.378,0,0,0,.4-2.008A27.309,27.309,0,0,0,808.923,475.79Z" transform="translate(-752.323 -462.687)"/></g></g><g transform="translate(12.427 44.928)"><g transform="translate(0)"><g transform="translate(0)"><g transform="translate(0)"><g transform="translate(0)"><g transform="translate(0)"><g transform="translate(0)"><g transform="translate(0)"><path class="g" d="M796.018,491.441c-.2-.071-7.906-1.807-7.174,5.9s8.32,5.381,8.313,5.16S796.018,491.441,796.018,491.441Z" transform="translate(-788.795 -491.225)"/></g></g></g></g></g></g></g></g><g transform="translate(14.415 47.542)"><g transform="translate(0)"><g transform="translate(0)"><g transform="translate(0)"><g transform="translate(0)"><path class="h" d="M794.631,499.282c-.037-.021-.125.106-.342.234a1.352,1.352,0,0,1-1,.116,3.339,3.339,0,0,1-1.82-2.836,4.448,4.448,0,0,1,.194-1.959,1.559,1.559,0,0,1,.911-1.125.687.687,0,0,1,.828.293c.125.205.09.365.131.375s.154-.145.061-.458a.864.864,0,0,0-.35-.454,1.017,1.017,0,0,0-.761-.125,1.9,1.9,0,0,0-1.289,1.329,4.583,4.583,0,0,0-.263,2.193,3.5,3.5,0,0,0,2.276,3.143,1.444,1.444,0,0,0,1.208-.321C794.641,499.471,794.665,499.294,794.631,499.282Z" transform="translate(-790.896 -493.317)"/></g></g></g></g></g><g transform="translate(35.795 14.29)"><g transform="translate(0)"><path class="f" d="M778.654,473.03a1.933,1.933,0,0,0,.434-1.036,1.367,1.367,0,0,0-.446-1.131,1.464,1.464,0,0,0-1.508-.25l-.312.135.113-.323a1.53,1.53,0,0,0-.554-1.674,1.5,1.5,0,0,0-1.911.231l-.275-.216a.656.656,0,0,0,.09-.2.866.866,0,0,0-.186-.715,1,1,0,0,0-.661-.344,1.662,1.662,0,0,0-.769.1,2.1,2.1,0,0,1-.849.266c-.375-.035-.562-.295-.763-.4a2.946,2.946,0,0,0-.625-.319,3.329,3.329,0,0,0-1.263-.177,3.386,3.386,0,0,0-1.76.587c-.368.25-.528.456-.554.435a1.528,1.528,0,0,1,.47-.544,3.317,3.317,0,0,1,1.826-.724,3.483,3.483,0,0,1,1.375.149,3.15,3.15,0,0,1,.705.336c.237.143.421.339.611.338a2.038,2.038,0,0,0,.71-.256,1.973,1.973,0,0,1,.931-.125,1.336,1.336,0,0,1,.89.465,1.2,1.2,0,0,1,.25,1.015.966.966,0,0,1-.144.324l-.275-.218a1.777,1.777,0,0,1,3.009,1.774l-.2-.187a1.709,1.709,0,0,1,1.79.347,1.6,1.6,0,0,1,.1,2.153C778.762,472.99,778.66,473.039,778.654,473.03Z" transform="translate(-766.855 -466.715)"/></g></g><g transform="translate(42.018 10.937)"><g transform="translate(0)"><g transform="translate(0)"><path class="f" d="M774.056,475.194a2.364,2.364,0,0,0,.574-1.021,1.739,1.739,0,0,0-.191-1.3A1.811,1.811,0,0,0,773,472l-.25-.01.152-.2a2.161,2.161,0,0,0,.428-1.935,1.165,1.165,0,0,0-.76-.719.92.92,0,0,0-1.011.223l-.894,1.125.611-1.306a1.794,1.794,0,0,0-.032-1.515,1.66,1.66,0,0,0-1.28-.919,1.748,1.748,0,0,0-1.144.215l-.387.231.125-.434c.184-.614-.479-1.25-1.085-1.278a2.95,2.95,0,0,0-1.789.614l-.318.206.074-.369a1.274,1.274,0,0,0-.522-1.2,2.356,2.356,0,0,0-1.228-.425,6.013,6.013,0,0,0-2.211.242,9.556,9.556,0,0,0-1.8.828,1.566,1.566,0,0,1,.409-.339,5.656,5.656,0,0,1,1.336-.668,5.919,5.919,0,0,1,2.29-.324,2.6,2.6,0,0,1,1.384.454,1.567,1.567,0,0,1,.655,1.489l-.243-.161a3.226,3.226,0,0,1,1.993-.688,1.628,1.628,0,0,1,1.063.519,1.245,1.245,0,0,1,.328,1.2l-.257-.2A2.1,2.1,0,0,1,770,466.39a2,2,0,0,1,1.543,1.114,2.128,2.128,0,0,1,.025,1.81l-.282-.177a1.25,1.25,0,0,1,1.375-.32,1.479,1.479,0,0,1,.95.926,2.419,2.419,0,0,1-.509,2.2l-.1-.215a2.025,2.025,0,0,1,1.613,1.03,1.918,1.918,0,0,1-.311,2.237C774.162,475.153,774.063,475.2,774.056,475.194Z" transform="translate(-759.674 -464.034)"/></g></g></g><g transform="translate(57.63 11.7)"><g transform="translate(0)"><g transform="translate(0)"><path class="f" d="M762.8,475.049a1.314,1.314,0,0,0-.53-.91,1.674,1.674,0,0,0-1.185-.315,4.924,4.924,0,0,0-1.615.532l-.185.088.009-.206a1.5,1.5,0,0,0-1.341-1.351,4.359,4.359,0,0,0-2.42.6l-1.045.5.865-.765a1.232,1.232,0,0,0-.214-1.73l-.036-.028a2.8,2.8,0,0,0-2.2-.325l-.1.019-.676.125.535-.433a1.324,1.324,0,0,0-.325-2.069,2,2,0,0,0-2.2.4l-.662.625.409-.812a3,3,0,0,0-.269-3.035,2.794,2.794,0,0,0-2.159-1.125,3.168,3.168,0,0,0-1.613.35c-.345.182-.5.33-.52.313s.029-.047.1-.125a2.144,2.144,0,0,1,.365-.28,3.091,3.091,0,0,1,1.669-.456,2.988,2.988,0,0,1,2.375,1.164,3.264,3.264,0,0,1,.34,3.341l-.25-.19a2.321,2.321,0,0,1,2.581-.475,1.687,1.687,0,0,1,.858,1.2,1.484,1.484,0,0,1-.475,1.45l-.141-.311.109-.019a3.107,3.107,0,0,1,2.476.4,1.785,1.785,0,0,1,.625,1.1,1.284,1.284,0,0,1-.375,1.173l-.179-.271a4.58,4.58,0,0,1,2.61-.6,1.761,1.761,0,0,1,1.539,1.654l-.176-.125a5.017,5.017,0,0,1,1.7-.5,1.8,1.8,0,0,1,1.285.406,1.258,1.258,0,0,1,.449.721A.53.53,0,0,1,762.8,475.049Z" transform="translate(-745.314 -464.644)"/></g></g></g><g transform="translate(48.702 5.258)"><g transform="translate(0)"><g transform="translate(0)"><path class="f" d="M769.5,459.494a1.029,1.029,0,0,1-.444.2,5.881,5.881,0,0,1-1.344.186,4.039,4.039,0,0,0-1.916.459,1.235,1.235,0,0,0-.606.9.9.9,0,0,0,.441.986l-.224.19c-.109-.44-.686-.675-1.209-.927a5.843,5.843,0,0,0-1.688-.56,2.109,2.109,0,0,0-1.631.4,1.4,1.4,0,0,0-.605,1.344l.091.423-.349-.259a3.88,3.88,0,0,0-2.349-.739,4.382,4.382,0,0,0-1.919.446,5.549,5.549,0,0,0-1.409,1.081,1.4,1.4,0,0,1,.264-.4,3.717,3.717,0,0,1,1.053-.854,4.408,4.408,0,0,1,2.007-.544,4.083,4.083,0,0,1,2.55.75l-.259.166a1.723,1.723,0,0,1,.714-1.685,2.438,2.438,0,0,1,1.887-.471,6.039,6.039,0,0,1,1.79.595,7.321,7.321,0,0,1,.8.421,1.271,1.271,0,0,1,.585.74l.076.324-.3-.134a1.2,1.2,0,0,1-.616-1.334,1.527,1.527,0,0,1,.761-1.091,4.064,4.064,0,0,1,2.056-.424,7.6,7.6,0,0,0,1.326-.09C769.331,459.539,769.488,459.474,769.5,459.494Z" transform="translate(-754.338 -459.49)"/></g></g></g><g transform="translate(39.034)"><g transform="translate(0)"><path class="f" d="M775.6,455.352a3.709,3.709,0,0,0-.9.205,2.213,2.213,0,0,0-.824.625,1.908,1.908,0,0,0-.454,1.217v.19l-.182-.046a1.154,1.154,0,0,0-1.21.825,3.5,3.5,0,0,0,.1,1.924l.164.671-.471-.522-.074-.081a1.481,1.481,0,0,0-1.236-.391,1.652,1.652,0,0,0-1.095.591,2.634,2.634,0,0,0-.523,2.114,4.877,4.877,0,0,0,.518,1.47,2.521,2.521,0,0,1,.261.526c-.017.011-.165-.14-.375-.459a4.3,4.3,0,0,1-.644-1.494,2.838,2.838,0,0,1,.519-2.365,1.947,1.947,0,0,1,2.734-.32q.051.039.1.082l.095.106-.306.15a3.7,3.7,0,0,1-.071-2.125,1.448,1.448,0,0,1,1.594-1l-.182.144a2.127,2.127,0,0,1,.569-1.375,2.255,2.255,0,0,1,.943-.625,1.823,1.823,0,0,1,.714-.1C775.52,455.313,775.6,455.339,775.6,455.352Z" transform="translate(-768.584 -455.284)"/></g></g><g transform="translate(26.244 2.88)"><g transform="translate(0)"><g transform="translate(0)"><path class="f" d="M785.535,466.639a.93.93,0,0,1-.466-.065,2.9,2.9,0,0,1-1.113-.653,3.093,3.093,0,0,1-.945-1.676,1.591,1.591,0,0,0-.311-.927c-.219-.228-.656-.345-.953-.726a1.75,1.75,0,0,1,.25-2.386l.006.25a5.61,5.61,0,0,1-1.663-1.939,2.265,2.265,0,0,1-.325-.929c.038-.015.171.32.493.834a6.186,6.186,0,0,0,1.68,1.772l.176.125-.17.132a1.444,1.444,0,0,0-.17,1.917c.2.285.593.389.919.7a1.832,1.832,0,0,1,.388,1.115,2.978,2.978,0,0,0,.8,1.555A4.4,4.4,0,0,0,785.535,466.639Z" transform="translate(-780.016 -457.588)"/></g></g></g><g transform="translate(12.616 10.847)"><g transform="translate(0)"><path class="f" d="M798.32,468.491c0,.015-.1.04-.286.066a3.866,3.866,0,0,1-.833,0,4.651,4.651,0,0,1-2.7-1.237l.225-.024a3,3,0,0,1-1.958,1.255,3.093,3.093,0,0,1-1.311-.042,1.906,1.906,0,0,1-1.182-.771,3.946,3.946,0,0,1-.181-.49.69.69,0,0,0-.25-.3,2.152,2.152,0,0,0-.834-.288,2.784,2.784,0,0,1-.927-.29,1,1,0,0,1-.568-.814l.234.134a3.08,3.08,0,0,1-2.125.231,3.32,3.32,0,0,1-1.47-.75,2.763,2.763,0,0,1-.654-.845.925.925,0,0,1-.117-.361,4.344,4.344,0,0,0,.893,1.06,3.269,3.269,0,0,0,1.4.643,2.855,2.855,0,0,0,1.915-.25l.225-.119.008.25a.677.677,0,0,0,.413.536,2.5,2.5,0,0,0,.829.244,2.444,2.444,0,0,1,.974.34,1.044,1.044,0,0,1,.366.455,4.448,4.448,0,0,0,.165.454,1.607,1.607,0,0,0,.964.607,2.8,2.8,0,0,0,1.163.046,2.736,2.736,0,0,0,1.768-1.089l.1-.148.125.125a4.715,4.715,0,0,0,2.513,1.28C797.911,468.5,798.317,468.45,798.32,468.491Z" transform="translate(-783.386 -463.961)"/></g></g><g transform="translate(0.799 17.41)"><g transform="translate(0)"><path class="f" d="M788.64,480.245c-.006,0-.024-.037-.05-.116a1.956,1.956,0,0,1-.09-.359,3.7,3.7,0,0,1,.049-1.4,8.189,8.189,0,0,1,.767-2.035,7.674,7.674,0,0,1,.679-1.169,2.059,2.059,0,0,1,.566-.52.931.931,0,0,1,.854-.071l-.206.162a2.325,2.325,0,0,1,3.6-2.34l-.269.163a1.6,1.6,0,0,1,.535-1.36,1.541,1.541,0,0,1,1.47-.31,1.592,1.592,0,0,1,.729.46l-.3.145a1,1,0,0,1,.3-.851,1.372,1.372,0,0,1,.759-.4,3.164,3.164,0,0,1,1.523.25l-.206.084a2.5,2.5,0,0,1,1.417-1.182,3.506,3.506,0,0,1,1.708-.145,8.8,8.8,0,0,1,2.738,1.081l-.17.172a.611.611,0,0,1,.019-.611,1.053,1.053,0,0,1,.4-.365,1.787,1.787,0,0,1,.916-.22,5,5,0,0,1,1.422.3,4.676,4.676,0,0,1,.825.4.958.958,0,0,1,.25.191c-.017.03-.382-.219-1.125-.452a5.25,5.25,0,0,0-1.383-.234,1.621,1.621,0,0,0-.8.217c-.25.143-.461.411-.311.659l.222.367-.394-.2a8.8,8.8,0,0,0-2.664-1,3.212,3.212,0,0,0-1.552.149,2.178,2.178,0,0,0-1.224,1.029l-.066.133-.141-.049a2.879,2.879,0,0,0-1.355-.231c-.414.059-.835.453-.766.848l.107.609-.412-.465a1.26,1.26,0,0,0-.565-.354,1.191,1.191,0,0,0-1.137.235,1.261,1.261,0,0,0-.424,1.06l.044.375-.312-.215a2.055,2.055,0,0,0-2.311.026,2.084,2.084,0,0,0-.8,1.976l.051.286-.259-.125c-.391-.189-.818.154-1.085.49a7.644,7.644,0,0,0-.677,1.111,8.575,8.575,0,0,0-.814,1.961A4.689,4.689,0,0,0,788.64,480.245Z" transform="translate(-788.455 -469.211)"/></g></g><g transform="translate(2.756 24.131)"><g transform="translate(0)"><path class="f" d="M790.43,488.934c-.009.006-.076-.064-.194-.205a5.6,5.6,0,0,1-.47-.665,2.508,2.508,0,0,1-.387-1.25,1.817,1.817,0,0,1,.2-.82,1.311,1.311,0,0,1,.712-.653l-.055.194a1.632,1.632,0,0,1,1.523-2.644l-.141.261a1.313,1.313,0,0,1-.08-1.554,1.941,1.941,0,0,1,1.426-.82,7.41,7.41,0,0,0,.779-.07.671.671,0,0,0,.446-.459,2.84,2.84,0,0,1,.385-.79,1.513,1.513,0,0,1,.782-.522,8.63,8.63,0,0,1,1.853-.2,2.015,2.015,0,0,0,1.465-.565,8.054,8.054,0,0,0,.421-.708,1.736,1.736,0,0,1,.658-.6,1.84,1.84,0,0,1,1.639-.051l-.187.232a1.389,1.389,0,0,1,.052-1.625,1.957,1.957,0,0,1,1.25-.758,6.2,6.2,0,0,1,2.3.089,7.612,7.612,0,0,1,1.41.427,1.77,1.77,0,0,1,.466.239,17.687,17.687,0,0,0-1.91-.49,6.338,6.338,0,0,0-2.215-.02,1.714,1.714,0,0,0-1.071.67,1.106,1.106,0,0,0-.045,1.273l.416.515-.6-.282a1.536,1.536,0,0,0-1.352.061,1.423,1.423,0,0,0-.53.5,6.985,6.985,0,0,1-.439.741,1.816,1.816,0,0,1-.788.531,4.061,4.061,0,0,1-.912.169,8.715,8.715,0,0,0-1.774.191,1.171,1.171,0,0,0-.612.406,2.612,2.612,0,0,0-.343.711,1.016,1.016,0,0,1-.675.655,6.33,6.33,0,0,1-.826.074,1.623,1.623,0,0,0-1.189.657,1,1,0,0,0,.031,1.169l.3.334-.445-.073a1.381,1.381,0,0,0-1.433.735,1.412,1.412,0,0,0,.151,1.445l.109.138-.166.056a1.334,1.334,0,0,0-.792,1.244,2.443,2.443,0,0,0,.311,1.181C790.215,488.607,790.458,488.916,790.43,488.934Z" transform="translate(-789.379 -474.588)"/></g></g><g transform="translate(0 40.843)"><g transform="translate(0)"><g transform="translate(0)"><path class="f" d="M802.542,504.514a.758.758,0,0,1-.348-.08,2.4,2.4,0,0,1-.85-.559,2.5,2.5,0,0,1-.712-1.425,2.653,2.653,0,0,1,.547-2v.187a4.831,4.831,0,0,1-1.056-1.655,1.98,1.98,0,0,1-.015-1.125,1.441,1.441,0,0,1,.75-.934l-.008.31a2.03,2.03,0,0,1-1.026-1.75,2.272,2.272,0,0,1,.263-1.168,1.9,1.9,0,0,1,.84-.8.663.663,0,0,0,.44-.682,2.748,2.748,0,0,1,.146-1.04,3.524,3.524,0,0,1,1.179-1.5c.44-.375.845-.736,1.231-1.051a5.859,5.859,0,0,1,2.041-1.183,2.754,2.754,0,0,1,.638-.106c.148,0,.224,0,.225.018,0,.034-.31.031-.82.22a6.256,6.256,0,0,0-1.924,1.242l-1.2,1.079a3.294,3.294,0,0,0-1.068,1.39,2.478,2.478,0,0,0-.117.936,1.008,1.008,0,0,1-.144.59,1.329,1.329,0,0,1-.457.388,1.809,1.809,0,0,0-.091,3.106l.314.159-.321.15a1.388,1.388,0,0,0-.568,1.649,4.662,4.662,0,0,0,.969,1.56l.076.1-.075.092a2.432,2.432,0,0,0-.539,1.791,2.373,2.373,0,0,0,.6,1.339A3.461,3.461,0,0,0,802.542,504.514Z" transform="translate(-799.822 -487.958)"/></g></g></g><g transform="translate(28.604 21.081)"><g transform="translate(0)"><g transform="translate(0)"><path class="f" d="M783.212,477.71a2.628,2.628,0,0,1-1.066-.324,2.94,2.94,0,0,1-1-.732,1.925,1.925,0,0,1-.469-1.484,1.468,1.468,0,0,1,.111-.375l.094.235a1.673,1.673,0,0,1-.956-1.078,1.523,1.523,0,0,1,.125-1.15c.332-.59.78-.684.779-.648.032.046-.336.218-.565.75a1.356,1.356,0,0,0-.041.956,1.407,1.407,0,0,0,.787.845l.16.065-.068.17a1.135,1.135,0,0,0-.081.285,1.68,1.68,0,0,0,.375,1.228,3.022,3.022,0,0,0,.875.716A5.309,5.309,0,0,1,783.212,477.71Z" transform="translate(-779.866 -472.149)"/></g></g></g><g transform="translate(30.262 17.432)"><g transform="translate(0)"><g transform="translate(0)"><path class="f" d="M782.815,473.99a2.052,2.052,0,0,0,.136-1.295,1.449,1.449,0,0,0-.914-1.021,1.568,1.568,0,0,0-1.643.4l-.2.224-.083-.291a2.884,2.884,0,0,0-.485-.991,1.322,1.322,0,0,0-.924-.548c-.564-.027-1.143.543-.953.989l-.322.1a2.676,2.676,0,0,0-1.1-1.654,2.613,2.613,0,0,0-1.543-.444,4.082,4.082,0,0,0-1.438.388c-.01-.014.091-.125.323-.259a2.623,2.623,0,0,1,1.1-.344,2.747,2.747,0,0,1,1.715.416,2.916,2.916,0,0,1,1.276,1.83l-.324.1a.981.981,0,0,1,.26-1.04,1.4,1.4,0,0,1,1.018-.421,1.65,1.65,0,0,1,1.184.684,3.129,3.129,0,0,1,.533,1.125l-.284-.066a1.848,1.848,0,0,1,1.986-.445,1.652,1.652,0,0,1,1.016,1.24,1.677,1.677,0,0,1-.115,1.039C782.929,473.911,782.825,474,782.815,473.99Z" transform="translate(-773.343 -469.229)"/></g></g></g></g></g><g transform="translate(40.407 98.965)"><g transform="translate(0)"><path class="f" d="M750.949,527.506l-20.643,9.839,2.875,37.639s2.432,2.852,6.39,23.021-9.269,59.423-9.269,59.423l97.142,2.431s-11.4-81.412-12.72-92.186l-4.848-41.163-19.528-1.068h-5.631l-4.854,35.088-24.442-34.023Z" transform="translate(-730.303 -525.443)"/></g></g><g transform="translate(150.522 160.325)"><g transform="translate(0)"><path class="e" d="M716.126,588.229a5.591,5.591,0,0,1-.3-2.217,15.833,15.833,0,0,1,.9-5.33,15.314,15.314,0,0,1,2.625-4.665c.875-1.041,1.555-1.539,1.6-1.481a26.845,26.845,0,0,0-3.634,6.375A27.64,27.64,0,0,0,716.126,588.229Z" transform="translate(-715.812 -574.53)"/></g></g><g transform="translate(109.372 100.033)"><g transform="translate(0)"><path class="f" d="M759.751,590.953l-34.6-.3-13.086-38.646h0a150.136,150.136,0,0,0-6.844-13.625c-6.934-12.75-15.739-12.078-15.739-12.078l-10.625,16.518,11.275,25.3s10.791,47.708,23.293,49.806c20.761,3.481,57.916-10.869,57.916-10.869Z" transform="translate(-678.859 -526.297)"/></g></g><g class="i" transform="translate(46.055 172.764)"><g transform="translate(0)"><path d="M820.14,588.248c.032-1.316.36-3.01-.776-3.573a3.831,3.831,0,0,0-2.941.221c-28.668,10.163-45.25-1.635-73.923,8.529l-5.839,29.443c12.719.1,18.536-2.875,31.044-6.875,12.758-4.081,25.523-8.168,38.034-13.009a34.716,34.716,0,0,0,9.839-5.151A12.5,12.5,0,0,0,820.14,588.248Z" transform="translate(-736.66 -584.481)"/></g></g><g transform="translate(122.581 127.835)"><g transform="translate(0)"><path class="e" d="M739.844,548.539a10.077,10.077,0,0,0,.667,1.951,32.742,32.742,0,0,1,1.2,4.778c.679,3.805.812,6.959,1.007,6.956a20.241,20.241,0,0,0-.332-7.079,20.9,20.9,0,0,0-1.424-4.834A4.687,4.687,0,0,0,739.844,548.539Z" transform="translate(-739.844 -548.539)"/></g></g><g transform="translate(0 110.284)"><g transform="translate(0)"><g transform="translate(0)"><path class="f" d="M828.25,599.024l15.078-23.233h0l1.353-2.084h0l2.031-3.143L837.856,534.5s-7.566,3.473-11.724,9.27a137.579,137.579,0,0,0-9.238,16.459s-14.75,33.75-17.176,38.782-6.341,14.361,0,19.585,48.783,5.4,48.783,5.4l2.856-21.324Z" transform="translate(-796.28 -534.498)"/></g><g transform="translate(43.779 5.711)"><g transform="translate(0)"><path class="e" d="M805.937,565.619c-.112-.023.217-1.581.357-4.125a32.806,32.806,0,0,0-4.841-18.973c-1.341-2.168-2.375-3.375-2.289-3.453.031-.029.315.25.8.789a21.08,21.08,0,0,1,1.866,2.423,29.791,29.791,0,0,1,4.91,19.25,21.269,21.269,0,0,1-.476,3.02A3.856,3.856,0,0,1,805.937,565.619Z" transform="translate(-799.159 -539.066)"/></g></g></g><g transform="translate(52.544 59.4)"><g transform="translate(0)"><path class="g" d="M768.166,594.717a14.581,14.581,0,0,1,3.822-5.046c2.779-2.414,8.875-4.285,9.67-6.6s3.1-.519,2.563,2.363c-.345,1.836-4.125,6.644-4.125,6.644s4.435,1.113,7.388-.589,13.291-4.759,14.4-3.314c1.25,1.635-1.456,2.18-2.625,2.839-.884.5-7.75,3.909-7.75,3.909s13.676-.466,15.4.184c1.875.707-.045,2.361-.908,2.4-.542.021-2.886,2.114-4.545,3.66a6.208,6.208,0,0,1-4.144,1.663l-3.177.048,9.654,1.013s1.669,1.526-.654,2.323c-1.035.356-27.792,2.774-30.064,2.7-5.149-.172-12.321-.526-12.321-.526L762,593.893Z" transform="translate(-760.745 -582.017)"/></g><g transform="translate(32.21 15.638)"><g transform="translate(0)"><path class="h" d="M775.2,594.551a28.908,28.908,0,0,1-13.284,2.375c-.006-.187,3.015-.36,6.673-1.021S775.137,594.374,775.2,594.551Z" transform="translate(-761.912 -594.528)"/></g></g></g></g><g transform="translate(133.666 87.649)"><g transform="translate(0)"><g transform="translate(0)"><g transform="translate(0.596 12.888)"><path class="j" d="M750.845,526.7l-.052,9.275-14.681,83.11-74.822-13.216.934-5.284Z" transform="translate(-661.289 -526.701)"/></g><g transform="translate(0)"><path class="k" d="M749.392,528.867l-59.974-10.594a15.252,15.252,0,0,0-17.674,12.368h0l-10.219,57.842a15.255,15.255,0,0,0,12.369,17.675l59.973,10.594h0l15.525-87.885Z" transform="translate(-659.242 -515.979)"/><path class="k" d="M663.781,604.562,735.9,617.3l15.568-88.125-72.122-12.74A3.167,3.167,0,0,0,675.689,519L661.222,600.9A3.167,3.167,0,0,0,663.781,604.562ZM735.7,617.015l-71.876-12.7a2.917,2.917,0,0,1-2.363-3.376l14.466-81.9a2.916,2.916,0,0,1,3.376-2.361l71.876,12.7Z" transform="translate(-661.174 -516.39)"/></g><g transform="translate(4.039 3.585)"><path class="l" d="M693.723,519.258l-5.379,6.194-13.4,75.832,64.844,10.79,4.193-3.039Z" transform="translate(-674.949 -519.258)"/></g><g transform="translate(8.948 3.185)"><g transform="translate(0.007 0.067)"><rect class="m" width="65.114" height="80.002" transform="translate(64.122 90.109) rotate(-169.982)"/></g><g transform="translate(0)"><path class="e" d="M663.761,597.786c.087-.492,5.664-31.922,13.974-78.772l-.067.049,64.116,11.326h.006l-.049-.07L727.824,609.1l.063-.044-64.132-11.274,64.119,11.381.052.01.009-.054c3.985-22.533,8.78-49.636,13.929-78.781l.011-.064-.07-.013-64.117-11.319-.058-.01-.01.056C669.378,565.856,663.85,597.29,663.761,597.786Z" transform="translate(-663.755 -518.938)"/></g></g><g transform="translate(74.4 38.359)"><path class="e" d="M671.541,548.433a1.484,1.484,0,1,0,1.736-1.344A1.556,1.556,0,0,0,671.541,548.433Z" transform="translate(-671.503 -547.077)"/></g><g class="n" transform="translate(80.31 50.031)"><path d="M669.378,559.292l-2.771-.49.427-2.388,2.766.489Z" transform="translate(-666.607 -556.415)"/></g><g transform="translate(74.842 33.269)"><g transform="translate(0.024 0.001)"><path class="l" d="M669.694,543.161a8.648,8.648,0,1,1-3.06,17.016l-1.393-.246.376-2.015,1.364.3a6.663,6.663,0,1,0-5.76-7.773.909.909,0,1,1-1.813-.14.841.841,0,0,1,.03-.175A8.775,8.775,0,0,1,669.694,543.161Z" transform="translate(-659.406 -543.006)"/></g><g transform="translate(0)"><path class="e" d="M669.673,543.161l-.2-.036-.62-.081c-.27-.024-.608-.029-1.009-.039a9.816,9.816,0,0,0-1.365.14,9.112,9.112,0,0,0-3.464,1.4l-.449.336c-.075.058-.155.113-.229.174l-.216.2c-.144.134-.3.26-.439.408l-.413.457a8.848,8.848,0,0,0-1.378,2.244,8.737,8.737,0,0,0-.423,1.356,2.072,2.072,0,0,0-.1.736,1.018,1.018,0,0,0,.364.674.884.884,0,0,0,.761.173,1,1,0,0,0,.63-.486,1.216,1.216,0,0,0,.139-.385l.09-.385a5.769,5.769,0,0,1,.238-.761,6.485,6.485,0,0,1,1.95-2.655,7,7,0,0,1,1.481-.909,7.767,7.767,0,0,1,.826-.318c.143-.045.289-.076.434-.115a3.329,3.329,0,0,1,.441-.1l.449-.07c.153-.017.3-.021.458-.033a8.1,8.1,0,0,1,.921,0,7.823,7.823,0,0,1,2.719.735c.144.069.28.154.421.229l.211.118.2.135a6.9,6.9,0,0,1,1.46,1.289,6.57,6.57,0,0,1,1.059,1.664,6.094,6.094,0,0,1,.51,1.943,5.664,5.664,0,0,1-.14,2.034,5.846,5.846,0,0,1-.8,1.9,6.886,6.886,0,0,1-3.9,2.843,7.071,7.071,0,0,1-2.366.268,4.212,4.212,0,0,1-.586-.054,4.329,4.329,0,0,1-.578-.092l-1.139-.249-.065-.011-.011.065q-.191,1.024-.376,2.014l-.01.061.067.013c.518.091,1.029.188,1.539.264l.769.1.768.02a9.373,9.373,0,0,0,2.934-.518c.226-.086.46-.161.681-.26l.648-.315.6-.378a2.459,2.459,0,0,0,.29-.2l.28-.2a8.7,8.7,0,0,0,1.869-1.955c.137-.176.234-.375.35-.557l.166-.28.136-.291c.086-.2.186-.382.26-.58l.2-.591a8.408,8.408,0,0,0,.366-2.363,7.946,7.946,0,0,0-.055-1.13,4.682,4.682,0,0,0-.088-.542c-.038-.178-.064-.359-.11-.528a8.535,8.535,0,0,0-.323-.989l-.19-.465c-.067-.151-.151-.293-.222-.437a8.846,8.846,0,0,0-2.16-2.67c-.1-.085-.189-.166-.285-.244l-.294-.206a5.815,5.815,0,0,0-.564-.366l-.538-.3c-.175-.086-.352-.157-.507-.229a6.594,6.594,0,0,0-.873-.325c-.129-.04-.239-.084-.355-.111l-.3-.065-.406-.09-.138-.024a1.016,1.016,0,0,1,.135.036l.4.1.3.071c.11.027.225.074.352.115a6.9,6.9,0,0,1,.865.333c.159.074.329.149.5.231l.535.306a5.423,5.423,0,0,1,.557.373l.29.206c.1.074.186.159.283.239a8.783,8.783,0,0,1,2.131,2.661c.071.14.152.281.219.434l.185.462a8.363,8.363,0,0,1,.315.981c.051.169.066.345.106.526a4.55,4.55,0,0,1,.085.536,7.988,7.988,0,0,1,.056,1.12,8.3,8.3,0,0,1-.374,2.326l-.2.584c-.071.2-.173.38-.259.573l-.139.286-.161.275c-.115.18-.21.378-.344.549a8.582,8.582,0,0,1-1.851,1.929l-.277.205a2.489,2.489,0,0,1-.287.2l-.6.362-.64.309c-.215.1-.446.176-.67.264a9.254,9.254,0,0,1-2.9.5l-.759-.021-.759-.1c-.508-.075-1.019-.18-1.538-.265l.051.072q.184-.99.378-2.014l-.075.05,1.141.25a4.909,4.909,0,0,0,.586.1,4.326,4.326,0,0,0,.6.054,7.152,7.152,0,0,0,2.408-.271,7.008,7.008,0,0,0,3.975-2.9,6,6,0,0,0,.822-1.94,5.74,5.74,0,0,0,.14-2.075,6.138,6.138,0,0,0-.521-1.982,6.646,6.646,0,0,0-1.076-1.705,6.97,6.97,0,0,0-1.486-1.31l-.2-.139-.214-.117c-.144-.078-.284-.163-.43-.232a7.921,7.921,0,0,0-2.765-.743,7.82,7.82,0,0,0-.939,0c-.154.011-.31.016-.463.034l-.456.073a3.456,3.456,0,0,0-.449.1c-.146.04-.3.075-.441.117a7.57,7.57,0,0,0-.841.33,7.142,7.142,0,0,0-1.505.926,6.59,6.59,0,0,0-1.977,2.7,5.622,5.622,0,0,0-.24.776c-.031.13-.06.26-.091.39a1.074,1.074,0,0,1-.125.359.9.9,0,0,1-.564.439.786.786,0,0,1-.675-.151.929.929,0,0,1-.33-.608,2.006,2.006,0,0,1,.1-.7,8.129,8.129,0,0,1,1.768-3.569l.409-.455c.138-.145.29-.273.432-.406l.22-.2c.073-.063.148-.117.226-.174l.44-.336a9.1,9.1,0,0,1,3.436-1.411,10.111,10.111,0,0,1,1.358-.152c.395,0,.731,0,1,.024l.622.072C669.6,543.158,669.673,543.161,669.673,543.161Z" transform="translate(-659.364 -543.005)"/></g></g><g transform="translate(70.31 61.507)"><path class="e" d="M674.812,566.951a1.484,1.484,0,1,0,1.738-1.344A1.558,1.558,0,0,0,674.812,566.951Z" transform="translate(-674.774 -565.595)"/></g><g transform="translate(23.659 23.946)"><rect class="k" width="50.159" height="2.099" transform="translate(49.395 10.793) rotate(-169.982)"/></g><g transform="translate(44.712 25.052)"><rect class="k" width="29.235" height="2.099" transform="translate(28.789 7.153) rotate(-169.982)"/></g><g transform="translate(36.412 72.037)"><rect class="k" width="29.235" height="2.099" transform="translate(28.789 7.153) rotate(-169.982)"/></g><g transform="translate(17.525 16.913)"><g transform="translate(0 0)"><g transform="translate(0)"><g transform="translate(6.926)"><g transform="translate(0)"><rect class="l" width="50.222" height="3.062" transform="translate(49.456 11.752) rotate(-169.982)"/></g></g><g transform="translate(2.575 27.736)"><g transform="translate(0 0)"><rect class="l" width="50.222" height="3.062" transform="translate(49.456 11.752) rotate(-169.982)"/></g></g><g transform="translate(34.398 18.041)"><g transform="translate(0 0)"><rect class="l" width="20.03" height="3.062" transform="translate(19.725 6.5) rotate(-169.982)"/></g></g><g transform="translate(5.199 12.883)"><g transform="translate(0 0)"><rect class="l" width="25.042" height="3.062" transform="translate(24.66 7.372) rotate(-169.982)"/></g></g><g transform="translate(27.335 9.369)"><g transform="translate(0)"><path class="e" d="M674.842,537.416c-.006.034,6.336,1.18,14.164,2.563s14.18,2.48,14.186,2.445-6.335-1.185-14.165-2.568S674.848,537.38,674.842,537.416Z" transform="translate(-674.842 -537.415)"/></g></g><g transform="translate(6.315 8.103)"><g transform="translate(0)"><path class="e" d="M675.135,536.4c-.006.034,10.958,2,24.492,4.386s24.506,4.3,24.513,4.27-10.959-2-24.492-4.393S675.141,536.367,675.135,536.4Z" transform="translate(-675.135 -536.403)"/></g></g><g transform="translate(5.918 10.349)"><g transform="translate(0)"><path class="e" d="M675.453,538.2c-.006.036,10.958,2,24.491,4.388s24.507,4.305,24.513,4.269-10.958-2-24.49-4.391S675.459,538.165,675.453,538.2Z" transform="translate(-675.453 -538.2)"/></g></g><g transform="translate(34.244 22.925)"><g transform="translate(0)"><path class="e" d="M676.228,548.261c-.006.036,4.4.844,9.839,1.8s9.864,1.714,9.87,1.678-4.4-.843-9.839-1.8S676.235,548.226,676.228,548.261Z" transform="translate(-676.228 -548.26)"/></g></g><g transform="translate(33.835 25.242)"><g transform="translate(0)"><path class="e" d="M676.817,550.115c-.006.036,4.328.83,9.679,1.776s9.7,1.682,9.7,1.648-4.326-.83-9.68-1.776S676.823,550.079,676.817,550.115Z" transform="translate(-676.817 -550.114)"/></g></g><g transform="translate(33.5 27.611)"><g transform="translate(0)"><path class="e" d="M676.952,552.01c-.006.034,4.366.831,9.764,1.785s9.778,1.7,9.784,1.667-4.363-.836-9.763-1.79S676.958,551.974,676.952,552.01Z" transform="translate(-676.952 -552.009)"/></g></g><g transform="translate(33.097 29.896)"><g transform="translate(0)"><path class="e" d="M677.275,553.838c0,.034,4.366.833,9.764,1.785s9.778,1.7,9.784,1.667-4.363-.836-9.763-1.79S677.281,553.8,677.275,553.838Z" transform="translate(-677.275 -553.837)"/></g></g><g transform="translate(5.158 18.348)"><g transform="translate(0)"><path class="e" d="M698.934,544.6c-.006.034,4.56.866,10.2,1.861s10.211,1.779,10.217,1.744-4.558-.871-10.2-1.866S698.94,544.564,698.934,544.6Z" transform="translate(-698.934 -544.599)"/></g><g transform="translate(21.85 3.08)"><g transform="translate(0)"><path class="e" d="M696.412,548.6a4.012,4.012,0,0,0,.1-.419c.055-.255.132-.623.214-1.049l-.061.049,1.4.249-.051-.069h0l-.035.2-.035.2-.068.381-.124.7.071-.044c-.41-.073-.758-.116-1.008-.149a3.493,3.493,0,0,0-.408-.044,2.127,2.127,0,0,0,.364.093c.247.054.6.129,1.031.214l.053.009.01-.059.122-.7.068-.381.07-.4h0l-.04-.078-1.4-.237-.052-.01-.01.056c-.08.455-.13.835-.165,1.093A2.442,2.442,0,0,0,696.412,548.6Z" transform="translate(-696.41 -547.063)"/></g></g></g><g transform="translate(4.656 21.185)"><g transform="translate(0)"><g transform="translate(0)"><path class="e" d="M699.335,546.869c-.006.035,4.56.866,10.2,1.862s10.211,1.778,10.217,1.744-4.557-.871-10.2-1.868S699.341,546.833,699.335,546.869Z" transform="translate(-699.335 -546.868)"/></g></g><g transform="translate(21.85 3.081)"><g transform="translate(0)"><path class="e" d="M696.813,550.874a4.09,4.09,0,0,0,.1-.42c.055-.254.134-.621.214-1.047l-.061.049,1.4.247-.051-.069h0l-.035.2-.035.2-.068.382-.124.7.072-.044c-.41-.072-.759-.115-1.007-.149a3.217,3.217,0,0,0-.409-.045,2.129,2.129,0,0,0,.365.092c.246.054.6.13,1.03.215l.052.01.01-.06.124-.7.067-.382.069-.4h0l-.039-.076-1.406-.239-.052-.009-.01.055c-.08.456-.13.834-.165,1.094A2.418,2.418,0,0,0,696.813,550.874Z" transform="translate(-696.811 -549.333)"/></g></g></g><g transform="translate(4.155 24.021)"><g transform="translate(0)"><g transform="translate(0)"><path class="e" d="M699.736,549.138c-.006.036,4.56.868,10.2,1.863s10.211,1.78,10.217,1.744-4.558-.871-10.2-1.868S699.742,549.1,699.736,549.138Z" transform="translate(-699.736 -549.137)"/></g></g><g transform="translate(21.85 3.081)"><g transform="translate(0)"><path class="e" d="M697.214,553.143a3.679,3.679,0,0,0,.1-.42c.056-.254.134-.621.214-1.047l-.061.049,1.4.249-.051-.069h0l-.035.2-.035.2-.068.381-.123.7.07-.044c-.41-.073-.758-.116-1.006-.149a3.213,3.213,0,0,0-.409-.044,2.155,2.155,0,0,0,.364.092c.247.054.6.129,1.031.214l.052.009.01-.059.124-.7.067-.381.069-.395h0l-.039-.078-1.406-.237-.052-.01-.01.056c-.08.455-.129.834-.165,1.093A2.443,2.443,0,0,0,697.214,553.143Z" transform="translate(-697.212 -551.602)"/></g></g></g><g transform="translate(0 33.465)"><path class="e" d="M678.4,570.711l.042-.246.125-.706c.11-.623.273-1.541.494-2.735.421-2.388,1.049-5.874,1.837-10.281l-.044.032,48.7,8.624h0l-.049-.069-2.469,13.97.071-.052-34.787-6.116L682.1,571.343l-2.747-.476-.714-.126-.246-.044.236.041.706.125,2.733.491,10.2,1.82,34.814,6.179.071.013.009-.042,2.468-13.973.011-.064-.064-.011-48.7-8.578-.038-.006-.006.04c-.773,4.421-1.383,7.918-1.8,10.311-.211,1.19-.365,2.107-.474,2.729l-.124.7C678.417,570.631,678.4,570.711,678.4,570.711Z" transform="translate(-678.392 -556.692)"/><g transform="translate(1.856 3.562)"><g transform="translate(0)"><path class="e" d="M679.055,559.542c-.006.035,10.861,1.984,24.268,4.353s24.289,4.26,24.3,4.226-10.859-1.985-24.272-4.354S679.061,559.506,679.055,559.542Z" transform="translate(-679.055 -559.542)"/></g></g><g transform="translate(1.244 7.031)"><g transform="translate(0)"><path class="e" d="M679.546,562.317c-.006.035,10.861,1.984,24.268,4.353s24.289,4.26,24.294,4.225-10.858-1.984-24.27-4.353S679.552,562.281,679.546,562.317Z" transform="translate(-679.546 -562.317)"/></g></g><g transform="translate(0.624 10.537)"><g transform="translate(0)"><path class="e" d="M680.041,565.122c-.005.034,10.861,1.984,24.269,4.353s24.288,4.26,24.294,4.226-10.859-1.985-24.27-4.354S680.049,565.086,680.041,565.122Z" transform="translate(-680.041 -565.122)"/></g></g><g transform="translate(43.025 7.625)"><g transform="translate(0)"><path class="e" d="M682.974,576.907c.034.006.619-3.146,1.307-7.046s1.22-7.063,1.186-7.069-.621,3.149-1.309,7.046S682.941,576.9,682.974,576.907Z" transform="translate(-682.973 -562.792)"/></g></g><g transform="translate(26.632 4.929)"><g transform="translate(0)"><path class="e" d="M696.178,574.114c.032.006.592-3,1.25-6.728s1.164-6.745,1.131-6.751-.6,3.006-1.254,6.729S696.143,574.108,696.178,574.114Z" transform="translate(-696.177 -560.635)"/></g></g><g transform="translate(9.169 2.076)"><g transform="translate(0)"><g transform="translate(0)"><path class="e" d="M710.089,572.254c.034.006.611-3.1,1.289-6.939s1.2-6.958,1.168-6.963-.612,3.1-1.291,6.94S710.056,572.248,710.089,572.254Z" transform="translate(-710.088 -558.353)"/></g></g></g></g><g transform="translate(0.428 50.782)"><g transform="translate(0)"><path class="e" d="M681.051,570.546c-.006.035,10.623,1.938,23.736,4.255s23.754,4.17,23.76,4.136-10.619-1.942-23.739-4.26S681.057,570.511,681.051,570.546Z" transform="translate(-681.051 -570.546)"/></g></g><g transform="translate(0.07 52.802)"><g transform="translate(0)"><path class="e" d="M681.336,572.162c-.006.034,10.623,1.938,23.738,4.254s23.754,4.171,23.76,4.136-10.62-1.941-23.739-4.259S681.342,572.126,681.336,572.162Z" transform="translate(-681.336 -572.162)"/></g></g><g transform="translate(29.927 60.158)"><g transform="translate(0)"><path class="e" d="M681.622,578.047c-.006.034,3.859.743,8.631,1.585s8.646,1.5,8.653,1.468-3.858-.746-8.63-1.59S681.628,578.011,681.622,578.047Z" transform="translate(-681.622 -578.046)"/></g></g></g></g></g><g class="n" transform="translate(76.349 72.459)"><path d="M672.548,577.233l-2.771-.489.427-2.388,2.765.489Z" transform="translate(-669.777 -574.357)"/></g><g transform="translate(70.783 56.24)"><g transform="translate(0.024 0)"><path class="l" d="M672.94,561.538a8.648,8.648,0,1,1-3.059,17.015l-1.392-.246.376-2.015,1.363.3a6.662,6.662,0,1,0-5.76-7.773.909.909,0,0,1-1.813-.139.934.934,0,0,1,.031-.176A8.774,8.774,0,0,1,672.94,561.538Z" transform="translate(-662.652 -561.382)"/></g><g transform="translate(0)"><path class="e" d="M672.918,561.537l-.2-.036-.621-.08c-.27-.024-.606-.029-1.009-.039a9.986,9.986,0,0,0-1.364.14,9.085,9.085,0,0,0-3.464,1.4l-.45.335c-.075.057-.154.112-.229.175l-.216.2c-.142.135-.3.26-.437.408l-.414.458a8.87,8.87,0,0,0-1.376,2.245,8.741,8.741,0,0,0-.422,1.356,2.106,2.106,0,0,0-.1.738,1.03,1.03,0,0,0,.365.674.891.891,0,0,0,.761.172,1.006,1.006,0,0,0,.63-.487,1.211,1.211,0,0,0,.137-.385l.091-.384a5.609,5.609,0,0,1,.237-.763,6.482,6.482,0,0,1,1.949-2.655,7.116,7.116,0,0,1,1.481-.909,7.909,7.909,0,0,1,.828-.324c.143-.044.29-.075.435-.115a3.246,3.246,0,0,1,.441-.094l.449-.071c.151-.016.3-.021.456-.032a7.27,7.27,0,0,1,3.64.739c.145.069.281.152.422.229l.21.117.2.136a6.825,6.825,0,0,1,1.459,1.289,6.487,6.487,0,0,1,1.057,1.669,6.012,6.012,0,0,1,.51,1.943,6.742,6.742,0,0,1,.024,1.019,6.894,6.894,0,0,1-.162,1.014,5.845,5.845,0,0,1-.805,1.9,6.88,6.88,0,0,1-3.9,2.842,7.072,7.072,0,0,1-2.366.269,4.4,4.4,0,0,1-.586-.052,4.768,4.768,0,0,1-.578-.095l-1.139-.249-.065-.011-.011.065q-.191,1.024-.376,2.014l-.011.064.069.011c.516.091,1.028.187,1.539.265l.769.095.768.02a9.381,9.381,0,0,0,2.934-.516c.226-.088.46-.161.681-.261l.647-.315.6-.378a2.281,2.281,0,0,0,.289-.2l.28-.2a8.676,8.676,0,0,0,1.87-1.955c.138-.176.234-.375.35-.557l.165-.28.137-.291c.086-.195.186-.382.26-.58l.2-.591a8.369,8.369,0,0,0,.368-2.363,7.927,7.927,0,0,0-.055-1.13,4.624,4.624,0,0,0-.088-.543c-.037-.177-.064-.358-.11-.527a8.508,8.508,0,0,0-.323-.989l-.19-.465c-.068-.151-.151-.292-.223-.437a8.827,8.827,0,0,0-2.161-2.67c-.1-.084-.187-.166-.284-.244l-.294-.2a5.364,5.364,0,0,0-.565-.365l-.536-.305c-.175-.086-.353-.157-.508-.229a6.649,6.649,0,0,0-.873-.324c-.129-.04-.239-.084-.355-.11l-.3-.066-.405-.089-.139-.025a1.246,1.246,0,0,1,.136.036l.4.1.3.07c.11.029.225.074.353.115a6.885,6.885,0,0,1,.865.332c.159.074.328.149.5.231l.535.307a5.2,5.2,0,0,1,.557.371l.29.206c.1.074.186.16.281.239a8.766,8.766,0,0,1,2.132,2.661c.071.14.153.281.219.434l.185.463a8.7,8.7,0,0,1,.316.98c.05.169.065.345.1.526a4.6,4.6,0,0,1,.085.536,8,8,0,0,1,.056,1.12,8.258,8.258,0,0,1-.375,2.328l-.2.584c-.071.195-.172.38-.259.573l-.139.287-.161.274c-.116.181-.21.378-.345.549a8.554,8.554,0,0,1-1.85,1.93l-.277.205a2.241,2.241,0,0,1-.289.195l-.6.363-.64.31c-.215.1-.445.175-.669.262a9.255,9.255,0,0,1-2.9.5l-.759-.021-.759-.1c-.509-.075-1.02-.18-1.538-.265l.05.073q.186-.99.377-2.014l-.075.05,1.142.25a4.851,4.851,0,0,0,.586.1,4.3,4.3,0,0,0,.6.054,7.158,7.158,0,0,0,2.408-.271,7,7,0,0,0,3.974-2.9,5.941,5.941,0,0,0,.825-1.945,6.918,6.918,0,0,0,.165-1.035,7.06,7.06,0,0,0-.024-1.041,6.2,6.2,0,0,0-.521-1.983,6.66,6.66,0,0,0-1.079-1.7,7,7,0,0,0-1.486-1.31l-.2-.139-.215-.117c-.144-.078-.282-.164-.429-.234a7.979,7.979,0,0,0-2.765-.743,7.822,7.822,0,0,0-.939,0c-.154.011-.31.016-.463.034l-.456.073a3.48,3.48,0,0,0-.449.1c-.146.04-.3.075-.441.118a7.57,7.57,0,0,0-.841.329,7.1,7.1,0,0,0-1.5.926,6.577,6.577,0,0,0-1.979,2.7,5.554,5.554,0,0,0-.24.775q-.045.2-.09.39a1.108,1.108,0,0,1-.126.359.9.9,0,0,1-.564.439.779.779,0,0,1-.674-.151.922.922,0,0,1-.331-.607,2.028,2.028,0,0,1,.1-.7,8.636,8.636,0,0,1,.414-1.343,8.79,8.79,0,0,1,1.355-2.228l.407-.455c.137-.145.291-.271.432-.4l.22-.2c.073-.062.148-.117.226-.174l.44-.336a9.1,9.1,0,0,1,3.436-1.411,10.131,10.131,0,0,1,1.358-.152c.4.005.731.006,1,.024l.621.073C672.847,561.533,672.918,561.537,672.918,561.537Z" transform="translate(-662.61 -561.382)"/></g></g><g transform="translate(6.193 6.818)"><g transform="translate(0)"><path class="e" d="M741.4,609.966l-.328-.058-.963-.17-3.7-.642-13.713-2.351-45.915-7.826.053.075,1.109-6.279c3.45-19.57,6.573-37.283,8.833-50.107l2.661-15.186c.316-1.793.554-3.184.716-4.131.084-.47.147-.83.184-1.075s.059-.37.059-.37-.021.123-.071.369-.106.6-.2,1.073c-.167.945-.42,2.338-.742,4.126-.633,3.586-1.56,8.771-2.7,15.179-2.265,12.824-5.405,30.533-8.869,50.1l-1.11,6.279-.01.059.064.011,45.923,7.784,13.719,2.316,3.71.619.964.157C741.285,609.951,741.4,609.966,741.4,609.966Z" transform="translate(-676.689 -521.845)"/></g></g><g transform="translate(7.599 5.223)"><g transform="translate(0)"><path class="e" d="M740.24,609.432l-.326-.059-.959-.169-3.694-.652-13.673-2.384-45.829-7.94.054.074c.373-2.11.769-4.355,1.164-6.625,3.44-19.637,6.554-37.409,8.809-50.277,1.121-6.433,2.028-11.638,2.655-15.238l.715-4.144c.079-.478.141-.834.185-1.08s.057-.37.057-.37l-.065.369-.19,1.078c-.169.949-.414,2.339-.74,4.139l-2.69,15.233c-2.264,12.865-5.391,30.637-8.846,50.269-.4,2.27-.8,4.514-1.162,6.626l-.011.064.064.011,45.837,7.9,13.68,2.344,3.7.629.961.159Z" transform="translate(-675.693 -520.569)"/></g></g><g transform="translate(5.202 8.71)"><g transform="translate(0)"><path class="e" d="M742.162,610.419l-.326-.057-.96-.17-3.7-.641L723.481,607.2l-45.805-7.809.054.075c.319-1.849.659-3.82,1-5.811,3.344-19.413,6.371-36.984,8.564-49.7,1.089-6.359,1.971-11.505,2.58-15.065.3-1.778.536-3.158.7-4.1.082-.466.136-.824.177-1.065s.056-.367.056-.367l-.064.361-.188,1.064-.724,4.094c-.619,3.556-1.514,8.7-2.621,15.056-2.2,12.72-5.243,30.288-8.6,49.7-.344,1.989-.685,3.961-1,5.81l-.011.064.064.011,45.812,7.768,13.7,2.309,3.706.619.963.157C742.051,610.4,742.162,610.419,742.162,610.419Z" transform="translate(-677.593 -523.358)"/></g></g></g><g transform="translate(11.508 11.107)"><path class="f" d="M725.919,526.337l-6.008-1.061L717.34,527.3,718.7,530.5l6.293,1.111Z" transform="translate(-717.34 -525.276)"/></g></g></g><g transform="translate(174.599 167.025)"><g class="n" transform="translate(5.278 1.414)"><g transform="translate(0)"><path d="M700.262,581.137c-2.625-.575-5.166,1.1-7.334,2.7A33.14,33.14,0,0,0,689.054,587c-3.333,3.333-5.086,7.9-7.893,11.691l15.759-2.4Z" transform="translate(-681.161 -581.022)"/></g></g><g transform="translate(0)"><g transform="translate(0.256)"><g transform="translate(0)"><path class="g" d="M674,599.631l6.881-1.434s6.193-9.875,9.448-11.074l1.833-.816s2.39-5.236,5.639-4.57c1.931-1.264,3.661-.759,3.848,1.169,0,0,.958-4.387,4.545-2.579s-4.96,16.989-4.96,16.989-3,7.78-6.726,5.181c0,0-3.723.875-6.214-.521,0,0-2.307,3.25-7.763.77Z" transform="translate(-674.001 -579.89)"/></g></g><g transform="translate(0 19.424)"><g transform="translate(0)"><g transform="translate(0)"><path class="h" d="M703.652,596.273c.035,0,.113.256.044.734a3.264,3.264,0,0,1-.955,1.77,4.5,4.5,0,0,1-2.7,1.27,9.254,9.254,0,0,1-3.594-.39,22.567,22.567,0,0,1-5.91-2.587,7.837,7.837,0,0,1-2.108-1.64,40.99,40.99,0,0,0,8.185,3.625,9.39,9.39,0,0,0,3.361.42,4.21,4.21,0,0,0,2.461-1.016A4.026,4.026,0,0,0,703.652,596.273Z" transform="translate(-688.427 -595.429)"/></g></g></g><g transform="translate(21.811 2.067)"><g transform="translate(0)"><path class="h" d="M678.047,596.254c-.16-.109,1.906-3.09,3.678-7.159,1.8-4.058,2.6-7.594,2.785-7.551a7.5,7.5,0,0,1-.36,2.358,33.161,33.161,0,0,1-4.61,10.493A7.475,7.475,0,0,1,678.047,596.254Z" transform="translate(-678.038 -581.544)"/></g></g><g transform="translate(17.862 1.849)"><g transform="translate(0)"><g transform="translate(0)"><path class="h" d="M681.428,595.966c-.162-.1,1.58-3.195,3.276-7.221s2.729-7.43,2.91-7.375a38.179,38.179,0,0,1-6.186,14.6Z" transform="translate(-681.417 -581.369)"/></g></g></g><g transform="translate(19.705 19.959)"><g transform="translate(0)"><g transform="translate(0)"><path class="h" d="M685.544,595.859c.171.007.022,1.262-1.1,2.2s-2.375.875-2.355.7c-.019-.181,1.014-.383,1.949-1.186C684.992,596.792,685.368,595.809,685.544,595.859Z" transform="translate(-682.086 -595.858)"/></g></g></g><g transform="translate(13.585 6.691)"><g transform="translate(0)"><g transform="translate(0)"><path class="h" d="M686.1,592.826q2.151-3.885,4.616-7.583A18.546,18.546,0,0,1,686.1,592.826Z" transform="translate(-686.103 -585.243)"/></g></g></g></g></g></g></g></g></g></g></svg>