<svg xmlns="http://www.w3.org/2000/svg" width="378.473" height="595.832" viewBox="0 0 378.473 595.832"><defs><style>.a{fill:#fafafa;}.b{fill:#263238;}.c{fill:#e0e0e0;}.d{fill:#d9a171;}.e{fill:#e8505b;}.f{fill:#fff;}.g{fill:#a66d58;}.h{fill:#344154;}.i{fill:#ffbe9d;}.j{fill:#eb996e;}.k{fill:#455a64;}.l{opacity:0.1;}.m{fill:#636363;}.n{fill:#8e8e8e;}.o{fill:#f5f5f5;}.p{fill:#ececec;}.q{fill:#e1e1e1;}.r{fill:#ebebeb;}.s{fill:#12263f;}</style></defs><g transform="translate(1364.168 12451.878)"><path class="a" d="M0,0H267.128V244.665H0Z" transform="translate(-1303.246 -12393.801)"/><path class="b" d="M451.228,330.657H182.686V84.577H451.228ZM184.1,329.243H449.814V85.991H184.1Z" transform="translate(-1486.64 -12479.085)"/><path class="b" d="M0,0H278.132V15.6H0Z" transform="translate(-1309.423 -12408.52)"/><path class="c" d="M183.618,85.7l265.917,26.1L449.4,85.7Z" transform="translate(-1486.254 -12478.619)"/><path class="d" d="M0,0H8.963V100.1H0Z" transform="translate(-1261.691 -12311.312)"/><path class="d" d="M0,0H8.963V66.1H0Z" transform="translate(-1244.387 -12277.313)"/><path class="d" d="M0,0H8.963V88.168H0Z" transform="translate(-1227.083 -12298.869)"/><path class="e" d="M0,0H8.963V96.236H0Z" transform="translate(-1209.779 -12307.445)"/><path class="d" d="M0,0H8.963V64.068H0Z" transform="translate(-1192.474 -12275.278)"/><path class="d" d="M0,0H8.963V51.5H0Z" transform="translate(-1175.17 -12262.714)"/><path class="d" d="M0,0H8.963V89.827H0Z" transform="translate(-1157.866 -12301.037)"/><path class="d" d="M0,0H8.963V73.632H0Z" transform="translate(-1140.562 -12284.842)"/><path class="d" d="M0,0H8.963V86.573H0Z" transform="translate(-1123.258 -12297.783)"/><path class="d" d="M0,0H8.963V58.981H0Z" transform="translate(-1105.953 -12270.191)"/><path class="d" d="M0,0H8.963V70.2H0Z" transform="translate(-1088.649 -12281.414)"/><path class="b" d="M387.573,159.9a3.44,3.44,0,0,1-.578-.093c-.412-.083-.966-.2-1.674-.344a25.851,25.851,0,0,0-2.741-.436,34.085,34.085,0,0,0-3.769-.314,43.594,43.594,0,0,0-10.3.885,45.427,45.427,0,0,0-12.783,4.839,52.274,52.274,0,0,0-12.943,10.306c-4.033,4.42-7.434,9.88-10.91,15.661-3.511,5.744-7.085,11.984-12.259,17.327a32.041,32.041,0,0,1-9.033,6.755,18.952,18.952,0,0,1-5.566,1.7,18.016,18.016,0,0,1-5.9-.2,24.081,24.081,0,0,1-10.28-5.392,47.97,47.97,0,0,1-7.615-8.309c-4.418-5.949-7.558-12.362-10.918-18.2-3.315-5.86-6.727-11.338-10.906-15.616a29.637,29.637,0,0,0-6.742-5.3,28.439,28.439,0,0,0-3.643-1.768,28.927,28.927,0,0,0-3.719-1.1,26.979,26.979,0,0,0-13.515.378,30.481,30.481,0,0,0-9.275,4.46,33.869,33.869,0,0,0-4.872,4.367l-1.134,1.278a3.552,3.552,0,0,1-.407.421,3.277,3.277,0,0,1,.348-.468l1.082-1.329a31.591,31.591,0,0,1,4.814-4.5,30.335,30.335,0,0,1,9.332-4.624,27.3,27.3,0,0,1,13.741-.491,28.371,28.371,0,0,1,14.428,8.256c4.262,4.326,7.718,9.842,11.058,15.708,3.384,5.849,6.533,12.235,10.908,18.108a47.439,47.439,0,0,0,7.506,8.179,23.4,23.4,0,0,0,9.961,5.231,17.292,17.292,0,0,0,5.649.192,18.3,18.3,0,0,0,5.357-1.636,31.439,31.439,0,0,0,8.83-6.6c5.1-5.246,8.667-11.437,12.2-17.176,3.493-5.771,6.935-11.263,11.038-15.721a52.528,52.528,0,0,1,13.143-10.351,45.436,45.436,0,0,1,12.952-4.785,42.945,42.945,0,0,1,10.4-.769,32.683,32.683,0,0,1,3.788.385,23.818,23.818,0,0,1,2.74.508l1.662.416A3.407,3.407,0,0,1,387.573,159.9Z" transform="translate(-1472.81 -12448.521)"/><path class="b" d="M205.7,256.466c-.2,0-.368-28.545-.368-63.747s.164-63.753.368-63.753.369,28.538.369,63.753S205.906,256.466,205.7,256.466Z" transform="translate(-1477.261 -12460.703)"/><path class="b" d="M399.48,219.237c0,.2-42.516.368-94.949.368-52.453,0-94.959-.164-94.959-.368s42.506-.368,94.959-.368C356.964,218.869,399.48,219.033,399.48,219.237Z" transform="translate(-1475.507 -12423.475)"/><path class="b" d="M225.51,224.809c0,.2-2.979.368-6.652.368s-6.652-.165-6.652-.368,2.978-.369,6.652-.369S225.51,224.605,225.51,224.809Z" transform="translate(-1474.416 -12421.168)"/><path class="b" d="M241.872,225.092c0,.2-3.559.369-7.949.369s-7.95-.165-7.95-.369,3.559-.368,7.95-.368S241.872,224.889,241.872,225.092Z" transform="translate(-1468.715 -12421.05)"/><path class="b" d="M255.181,225.092c0,.2-3.559.369-7.95.369s-7.949-.165-7.949-.369,3.558-.368,7.949-.368S255.181,224.889,255.181,225.092Z" transform="translate(-1463.203 -12421.05)"/><path class="b" d="M268.489,225.092c0,.2-3.559.369-7.949.369s-7.95-.165-7.95-.369,3.558-.368,7.95-.368S268.489,224.889,268.489,225.092Z" transform="translate(-1457.693 -12421.05)"/><path class="b" d="M281.8,225.092c0,.2-3.559.369-7.949.369s-7.95-.165-7.95-.369,3.559-.368,7.95-.368S281.8,224.889,281.8,225.092Z" transform="translate(-1452.182 -12421.05)"/><path class="b" d="M295.106,225.092c0,.2-3.559.369-7.95.369s-7.95-.165-7.95-.369,3.56-.368,7.95-.368S295.106,224.889,295.106,225.092Z" transform="translate(-1446.671 -12421.05)"/><path class="b" d="M308.414,225.092c0,.2-3.559.369-7.949.369s-7.95-.165-7.95-.369,3.558-.368,7.95-.368S308.414,224.889,308.414,225.092Z" transform="translate(-1441.16 -12421.05)"/><path class="b" d="M321.722,225.092c0,.2-3.559.369-7.949.369s-7.95-.165-7.95-.369,3.559-.368,7.95-.368S321.722,224.889,321.722,225.092Z" transform="translate(-1435.649 -12421.05)"/><path class="b" d="M335.031,225.092c0,.2-3.559.369-7.95.369s-7.95-.165-7.95-.369,3.559-.368,7.95-.368S335.031,224.889,335.031,225.092Z" transform="translate(-1430.138 -12421.05)"/><path class="b" d="M348.339,225.092c0,.2-3.559.369-7.949.369s-7.95-.165-7.95-.369,3.558-.368,7.95-.368S348.339,224.889,348.339,225.092Z" transform="translate(-1424.627 -12421.05)"/><path class="b" d="M256.649,177.128c.006-.112.807.17,1.065,1.273a2.706,2.706,0,0,1-.2,1.9,1.647,1.647,0,0,1-.96.812,1.745,1.745,0,0,1-1.338-.158,2.24,2.24,0,0,1-1.143-2.1,2.331,2.331,0,0,1,.916-1.694,1.518,1.518,0,0,1,1.259-.311c.3.092.409.239.387.273-.031.1-.667-.2-1.311.437a1.923,1.923,0,0,0-.574,1.324,1.618,1.618,0,0,0,.816,1.423.965.965,0,0,0,1.359-.345,2.389,2.389,0,0,0,.279-1.464A3.322,3.322,0,0,0,256.649,177.128Z" transform="translate(-1457.083 -12440.892)"/><path class="b" d="M317.839,160.015c0-.041.206-.109.57,0a2.212,2.212,0,0,1,1.175,1.017,2.915,2.915,0,0,1,.29,2.308,2.431,2.431,0,0,1-2.253,1.8,1.938,1.938,0,0,1-1.432-.748,3.107,3.107,0,0,1-.607-1.281,2.94,2.94,0,0,1,.372-2.288c.809-1.147,1.811-1.089,1.775-1,.048.107-.789.269-1.326,1.268a2.548,2.548,0,0,0-.161,1.862c.174.677.7,1.449,1.4,1.455a1.807,1.807,0,0,0,1.584-1.276,2.505,2.505,0,0,0-.107-1.855A2.661,2.661,0,0,0,317.839,160.015Z" transform="translate(-1431.642 -12447.943)"/><path class="b" d="M318.255,127.119c-.2,0-.368-.474-.368-1.061s.164-1.061.368-1.061.368.475.368,1.061S318.458,127.119,318.255,127.119Z" transform="translate(-1430.654 -12462.347)"/><path class="b" d="M318.255,134.444c-.2,0-.368-1.041-.368-2.326s.164-2.328.368-2.328.368,1.042.368,2.328S318.458,134.444,318.255,134.444Z" transform="translate(-1430.654 -12460.362)"/><path class="b" d="M318.255,141.028c-.2,0-.368-1.042-.368-2.328s.164-2.328.368-2.328.368,1.042.368,2.328S318.458,141.028,318.255,141.028Z" transform="translate(-1430.654 -12457.637)"/><path class="b" d="M318.255,147.611c-.2,0-.368-1.042-.368-2.328s.164-2.328.368-2.328.368,1.042.368,2.328S318.458,147.611,318.255,147.611Z" transform="translate(-1430.654 -12454.91)"/><path class="b" d="M318.255,154.194c-.2,0-.368-1.042-.368-2.328s.164-2.328.368-2.328.368,1.042.368,2.328S318.458,154.194,318.255,154.194Z" transform="translate(-1430.654 -12452.185)"/><path class="b" d="M318.255,158.244c-.2,0-.368-.475-.368-1.061s.164-1.061.368-1.061.368.474.368,1.061S318.458,158.244,318.255,158.244Z" transform="translate(-1430.654 -12449.458)"/><path class="b" d="M382.475,113.941c0,.2-14.7.368-32.837.368s-32.84-.164-32.84-.368,14.7-.368,32.84-.368S382.475,113.737,382.475,113.941Z" transform="translate(-1431.104 -12467.077)"/><path class="b" d="M359.755,107.438c0,.2-9.46.369-21.128.369s-21.129-.165-21.129-.369,9.459-.368,21.129-.368S359.755,107.235,359.755,107.438Z" transform="translate(-1430.815 -12469.771)"/><path class="f" d="M0,0H8.963V96.236H0Z" transform="translate(-1209.779 -12307.445)"/><g transform="translate(-1208.125 -11877.599)"><path class="g" d="M276.672,464.295l.079-13.864-25.967-.314-.331,20.281,1.608.123c7.161.483,36.444,1.958,41.252.566C298.675,469.53,276.672,464.295,276.672,464.295Z" transform="translate(-250.453 -450.117)"/></g><g transform="translate(-1208.094 -11864.965)"><path d="M259.86,466.608a9,9,0,0,0-3.245-5.576,8.745,8.745,0,0,0-6.048-1.961l-.092,7.257Z" transform="translate(-250.475 -459.051)"/></g><g transform="translate(-1208.125 -11860.479)"><path d="M287.417,462.224s7.707,2.325,6.727,3.586-30.629.885-43.691-.426l.048-.58,34.579.734S285.906,462.269,287.417,462.224Z" transform="translate(-250.453 -462.224)"/></g><g transform="translate(-1208.484 -11857.931)"><path class="b" d="M250.2,464.037a2.427,2.427,0,0,0,.446.054l1.281.093,4.717.264c3.983.194,9.493.389,15.579.471s11.6.035,15.589-.052c1.861-.052,3.439-.1,4.722-.136l1.284-.059a2.614,2.614,0,0,0,.447-.041,2.37,2.37,0,0,0-.448-.023H292.53c-1.283.009-2.861.021-4.722.035-3.988.03-9.5.041-15.582-.04s-11.59-.243-15.575-.38l-4.72-.163c-.477-.014-.9-.025-1.284-.035A2.353,2.353,0,0,0,250.2,464.037Z" transform="translate(-250.199 -464.026)"/></g><g transform="translate(-1173.552 -11860.796)"><path class="b" d="M274.943,466.036a6.861,6.861,0,0,1,2.543-4.029,4.2,4.2,0,0,0-2.543,4.029Z" transform="translate(-274.901 -461.999)"/></g><g transform="translate(-1181.135 -11862.892)"><path class="b" d="M269.552,462.665c.074.047.445-.395.831-.987s.641-1.11.569-1.157-.445.393-.832.986S269.48,462.617,269.552,462.665Z" transform="translate(-269.539 -460.517)"/></g><g transform="translate(-1183.218 -11863.328)"><path class="b" d="M268.073,461.654c.058.065.471-.2.923-.6s.772-.771.716-.836-.471.2-.923.6S268.016,461.588,268.073,461.654Z" transform="translate(-268.066 -460.209)"/></g><g transform="translate(-1184.509 -11864.479)"><path class="b" d="M267.153,459.522a5.892,5.892,0,0,0,2.714.065,5.945,5.945,0,0,0-2.714-.065Z" transform="translate(-267.153 -459.395)"/></g><g transform="translate(-1184.944 -11866.109)"><path class="b" d="M266.846,458.266a3.814,3.814,0,0,0,3.07.271,8.215,8.215,0,0,0-1.536-.126A8.356,8.356,0,0,0,266.846,458.266Z" transform="translate(-266.845 -458.242)"/></g><g transform="translate(-1180.213 -11865.291)"><path class="b" d="M270.191,461.114a4.8,4.8,0,0,0,1.67.01,9.784,9.784,0,0,0,1.78-.369,4.844,4.844,0,0,0,1.022-.406.9.9,0,0,0,.42-.513.657.657,0,0,0-.245-.67,3.062,3.062,0,0,0-3.8.847,3.007,3.007,0,0,0-.559,1.107.925.925,0,0,0-.049.45,4.755,4.755,0,0,1,.779-1.414,3.014,3.014,0,0,1,1.437-.908,2.586,2.586,0,0,1,1.987.161c.263.2.155.509-.141.682a4.977,4.977,0,0,1-.943.389,11.62,11.62,0,0,1-1.724.426C270.829,461.068,270.192,461.061,270.191,461.114Z" transform="translate(-270.191 -458.82)"/></g><g transform="translate(-1181.927 -11866.16)"><path class="b" d="M271.124,461.456a1.641,1.641,0,0,0,.208-1.157,2.736,2.736,0,0,0-.44-1.225,1.68,1.68,0,0,0-1.379-.868.666.666,0,0,0-.525.765,1.829,1.829,0,0,0,.274.748,5.075,5.075,0,0,0,.775,1.02,2.41,2.41,0,0,0,.946.689c.03-.041-.328-.3-.781-.839a5.8,5.8,0,0,1-.687-1.01c-.224-.356-.373-.991.047-1.062.418-.035.84.386,1.09.723a2.744,2.744,0,0,1,.458,1.09A6.044,6.044,0,0,1,271.124,461.456Z" transform="translate(-268.979 -458.206)"/></g><g transform="translate(-1207.863 -11865.175)"><path class="b" d="M250.638,459.06c0,.059.744-.061,1.916.092a8.14,8.14,0,0,1,6.733,5.508c.382,1.118.412,1.867.47,1.861a1.522,1.522,0,0,0,.007-.525,6.844,6.844,0,0,0-.264-1.4,7.9,7.9,0,0,0-6.921-5.661,6.7,6.7,0,0,0-1.428.018A1.483,1.483,0,0,0,250.638,459.06Z" transform="translate(-250.638 -458.903)"/></g><g transform="translate(-1205.378 -11875.789)"><path class="b" d="M252.739,451.4a90.736,90.736,0,0,0-.272,10.669,44.828,44.828,0,0,0,.293-5.331A45.59,45.59,0,0,0,252.739,451.4Z" transform="translate(-252.395 -451.397)"/></g><g transform="translate(-1195.408 -11859.926)"><path class="b" d="M259.446,462.642a21.389,21.389,0,0,0,7.588.169c-.009-.092-1.7-.01-3.8-.059S259.457,462.552,259.446,462.642Z" transform="translate(-259.446 -462.615)"/></g><g transform="translate(-1200.509 -11859.98)"><path class="b" d="M255.851,462.586c-.064.062.134.361.3.752s.259.738.348.732.139-.407-.059-.858S255.907,462.524,255.851,462.586Z" transform="translate(-255.838 -462.576)"/></g><g transform="translate(-1202.398 -11862.394)"><path class="b" d="M254.516,460.882c-.062.061.1.332.368.608s.53.451.593.39-.1-.332-.366-.608S254.579,460.821,254.516,460.882Z" transform="translate(-254.503 -460.87)"/></g><g transform="translate(-1205.117 -11863.65)"><path class="b" d="M252.581,460.124c.017.088.362.089.742.229s.652.345.721.287-.144-.418-.617-.584S252.556,460.043,252.581,460.124Z" transform="translate(-252.58 -459.981)"/></g><g transform="translate(-1207.067 -11864.104)"><path class="b" d="M251.205,459.718c-.032.079.116.215.329.3s.414.09.447.01-.115-.215-.329-.3S251.238,459.637,251.205,459.718Z" transform="translate(-251.201 -459.66)"/></g><g transform="translate(-1300.239 -11877.599)"><path class="g" d="M202.8,464.295l-.079-13.864,25.968-.314.331,20.281-1.609.123c-7.161.483-36.444,1.958-41.252.566C180.792,469.53,202.8,464.295,202.8,464.295Z" transform="translate(-185.313 -450.117)"/></g><g transform="translate(-1265.954 -11864.965)"><path d="M209.558,466.608a9.01,9.01,0,0,1,3.245-5.576,8.745,8.745,0,0,1,6.048-1.961l.093,7.257Z" transform="translate(-209.558 -459.051)"/></g><g transform="translate(-1300.314 -11860.479)"><path d="M192.072,462.224s-7.707,2.325-6.725,3.586,30.628.885,43.691-.426l-.049-.58-34.579.734S193.583,462.269,192.072,462.224Z" transform="translate(-185.26 -462.224)"/></g><g transform="translate(-1300.242 -11857.931)"><path class="b" d="M229.374,464.037a2.4,2.4,0,0,1-.445.054l-1.281.093-4.717.264c-3.983.194-9.493.389-15.579.471s-11.6.035-15.589-.052c-1.861-.052-3.439-.1-4.722-.136l-1.284-.059a2.557,2.557,0,0,1-.445-.041,2.342,2.342,0,0,1,.448-.023h1.284c1.283.009,2.861.021,4.722.035,3.988.03,9.5.041,15.582-.04s11.59-.243,15.575-.38l4.72-.163c.477-.014.9-.025,1.284-.035A2.341,2.341,0,0,1,229.374,464.037Z" transform="translate(-185.311 -464.026)"/></g><g transform="translate(-1293.697 -11860.796)"><path class="b" d="M192.484,466.036a6.86,6.86,0,0,0-2.543-4.029,4.2,4.2,0,0,1,2.543,4.029Z" transform="translate(-189.939 -461.999)"/></g><g transform="translate(-1284.951 -11862.892)"><path class="b" d="M197.535,462.665c-.074.047-.445-.395-.831-.987s-.641-1.11-.567-1.157.444.393.83.986S197.607,462.617,197.535,462.665Z" transform="translate(-196.124 -460.517)"/></g><g transform="translate(-1283.097 -11863.328)"><path class="b" d="M199.081,461.654c-.058.065-.471-.2-.923-.6s-.772-.771-.715-.836.471.2.923.6S199.137,461.588,199.081,461.654Z" transform="translate(-197.435 -460.209)"/></g><g transform="translate(-1282.867 -11864.479)"><path class="b" d="M200.312,459.522a5.892,5.892,0,0,1-2.714.065,5.945,5.945,0,0,1,2.714-.065Z" transform="translate(-197.598 -459.395)"/></g><g transform="translate(-1282.789 -11866.109)"><path class="b" d="M200.723,458.266a3.814,3.814,0,0,1-3.07.271,8.231,8.231,0,0,1,1.536-.126A8.364,8.364,0,0,1,200.723,458.266Z" transform="translate(-197.653 -458.242)"/></g><g transform="translate(-1289.362 -11865.291)"><path class="b" d="M197.918,461.114a4.8,4.8,0,0,1-1.669.01,9.825,9.825,0,0,1-1.782-.369,4.875,4.875,0,0,1-1.022-.406.9.9,0,0,1-.42-.513.657.657,0,0,1,.245-.67,3.062,3.062,0,0,1,3.8.847,2.986,2.986,0,0,1,.559,1.107.924.924,0,0,1,.049.45,4.756,4.756,0,0,0-.779-1.414,3.014,3.014,0,0,0-1.437-.908,2.586,2.586,0,0,0-1.987.161c-.263.2-.155.509.141.682a4.977,4.977,0,0,0,.943.389,11.659,11.659,0,0,0,1.724.426C197.28,461.068,197.918,461.061,197.918,461.114Z" transform="translate(-193.005 -458.82)"/></g><g transform="translate(-1285.1 -11866.16)"><path class="b" d="M196.238,461.456a1.641,1.641,0,0,1-.208-1.157,2.737,2.737,0,0,1,.441-1.225,1.677,1.677,0,0,1,1.377-.868.666.666,0,0,1,.525.765,1.829,1.829,0,0,1-.274.748,5.072,5.072,0,0,1-.775,1.02,2.409,2.409,0,0,1-.946.689c-.03-.041.328-.3.782-.839a5.889,5.889,0,0,0,.686-1.01c.225-.356.373-.991-.047-1.062-.419-.035-.838.386-1.09.723a2.745,2.745,0,0,0-.458,1.09A6.046,6.046,0,0,0,196.238,461.456Z" transform="translate(-196.019 -458.206)"/></g><g transform="translate(-1265.938 -11865.175)"><path class="b" d="M218.709,459.06c-.006.059-.745-.061-1.918.092a8.14,8.14,0,0,0-6.732,5.508c-.382,1.118-.41,1.867-.47,1.861a1.523,1.523,0,0,1-.007-.525,6.853,6.853,0,0,1,.264-1.4,7.9,7.9,0,0,1,6.921-5.661,6.7,6.7,0,0,1,1.428.018A1.511,1.511,0,0,1,218.709,459.06Z" transform="translate(-209.57 -458.903)"/></g><g transform="translate(-1259.699 -11875.789)"><path class="b" d="M214.053,451.4a90.788,90.788,0,0,1,.272,10.669,90.755,90.755,0,0,1-.272-10.669Z" transform="translate(-213.981 -451.397)"/></g><g transform="translate(-1276.841 -11859.926)"><path class="b" d="M209.446,462.642a21.381,21.381,0,0,1-7.587.169c.007-.092,1.7-.01,3.794-.059S209.434,462.552,209.446,462.642Z" transform="translate(-201.859 -462.615)"/></g><g transform="translate(-1264.892 -11859.98)"><path class="b" d="M211.036,462.586c.064.062-.134.361-.3.752s-.259.738-.348.732-.139-.407.059-.858S210.979,462.524,211.036,462.586Z" transform="translate(-210.309 -462.576)"/></g><g transform="translate(-1263.251 -11862.394)"><path class="b" d="M212.443,460.882c.062.061-.1.332-.368.608s-.53.451-.593.39.1-.332.366-.608S212.381,460.821,212.443,460.882Z" transform="translate(-211.469 -460.87)"/></g><g transform="translate(-1261.022 -11863.65)"><path class="b" d="M214.521,460.124c-.017.088-.362.089-.742.229s-.652.345-.72.287.143-.418.615-.584S214.547,460.043,214.521,460.124Z" transform="translate(-213.046 -459.981)"/></g><g transform="translate(-1258.38 -11864.104)"><path class="b" d="M215.695,459.718c.032.079-.115.215-.329.3s-.414.09-.447.01.114-.215.329-.3S215.662,459.637,215.695,459.718Z" transform="translate(-214.914 -459.66)"/></g><path class="h" d="M318.753,272.386l-9.96,260.253-40.438.849,6.715-225.5L229.585,535.211H191.139l49.529-262.3Z" transform="translate(-1483.139 -12401.313)"/><path class="b" d="M260.007,279.082a25.765,25.765,0,0,1-.465,4.289c-.378,2.636-.948,6.269-1.619,10.272a43.1,43.1,0,0,1-1.155,5.652,7.992,7.992,0,0,1-2.642,3.971,6.234,6.234,0,0,1-2.936,1.311,2.37,2.37,0,0,1-1.175-.018,7.269,7.269,0,0,0,6.126-5.464,50.108,50.108,0,0,0,1.078-5.569c.673-4,1.322-7.623,1.826-10.238A25.744,25.744,0,0,1,260.007,279.082Z" transform="translate(-1458.759 -12398.54)"/><path class="b" d="M251.294,280.163c.089.064-.242.482-.052,1.169a1.368,1.368,0,0,0,.677.868,1.224,1.224,0,0,0,1.6-1.4,1.366,1.366,0,0,0-.775-.782c-.656-.277-1.113,0-1.167-.1-.083-.038.375-.594,1.319-.382a1.8,1.8,0,0,1,1.239,1.035,1.832,1.832,0,0,1-2.52,2.213,1.8,1.8,0,0,1-.867-1.362C250.658,280.457,251.267,280.074,251.294,280.163Z" transform="translate(-1458.46 -12398.373)"/><path class="b" d="M235.943,284.707c-.175.058-.764-1.6-.53-3.711s1.144-3.607,1.3-3.514c.189.088-.395,1.619-.594,3.59C235.9,283.041,236.148,284.662,235.943,284.707Z" transform="translate(-1464.828 -12399.205)"/><path class="b" d="M239.391,284.576c-.18.051-.741-1.653-.581-3.824.144-2.174.938-3.781,1.107-3.706.2.069-.262,1.7-.4,3.756C239.368,282.854,239.594,284.533,239.391,284.576Z" transform="translate(-1463.411 -12399.384)"/><path class="b" d="M268.787,285.411c-.2-.054.126-1.775.228-3.909.117-2.134-.028-3.879.175-3.911.184-.037.658,1.724.537,3.948S268.965,285.466,268.787,285.411Z" transform="translate(-1451.012 -12399.158)"/><path class="b" d="M272.513,285.251c-.194-.083.437-1.783.577-3.968.166-2.185-.223-3.955-.02-4.01.17-.069.9,1.725.731,4.06C273.647,283.667,272.671,285.343,272.513,285.251Z" transform="translate(-1449.458 -12399.29)"/><g transform="translate(-1224.778 -12302.555)"><path class="i" d="M242.727,214.956l24.966-1.994c.156-2.915-.052-14.192-.052-14.192s10.387-1.615,10.515-12-1.673-34.234-1.673-34.234h0a36.092,36.092,0,0,0-36.269,4.559l-1.539,1.185Z" transform="translate(-238.676 -149.602)"/></g><g transform="translate(-1209.337 -12257.385)"><path class="j" d="M263.136,185.393a24.146,24.146,0,0,1-13.54-3.848s3.2,7.475,13.564,6.539Z" transform="translate(-249.596 -181.545)"/></g><g transform="translate(-1230.413 -12283.447)"><path class="i" d="M241.606,163.442c-.177-.076-7.137-2.111-6.909,4.989s7.308,5.409,7.314,5.205S241.606,163.442,241.606,163.442Z" transform="translate(-234.691 -163.115)"/></g><g transform="translate(-1228.606 -12281.122)"><path class="j" d="M239.227,170.334c-.033-.021-.122.09-.327.194a1.241,1.241,0,0,1-.925.048,3.06,3.06,0,0,1-1.5-2.7,4.066,4.066,0,0,1,.29-1.782,1.426,1.426,0,0,1,.9-.979.63.63,0,0,1,.741.315c.1.2.061.338.1.349.02.017.148-.123.082-.414a.8.8,0,0,0-.294-.437.934.934,0,0,0-.69-.158,1.735,1.735,0,0,0-1.256,1.143,4.186,4.186,0,0,0-.366,1.992c.092,1.43.867,2.745,1.9,3.008a1.328,1.328,0,0,0,1.126-.223C239.22,170.506,239.251,170.346,239.227,170.334Z" transform="translate(-235.97 -164.759)"/></g><g transform="translate(-1210.486 -12286.57)"><g transform="translate(15.688)"><g transform="translate(2.578 1.886)"><path class="b" d="M264.661,163.581a1.485,1.485,0,0,1-1.431,1.5,1.419,1.419,0,0,1-1.529-1.338,1.484,1.484,0,0,1,1.428-1.5A1.422,1.422,0,0,1,264.661,163.581Z" transform="translate(-261.7 -162.239)"/></g><path class="b" d="M265.74,162.464c-.185.194-1.308-.638-2.9-.634-1.594-.018-2.766.8-2.938.607-.085-.086.1-.436.612-.806a4.065,4.065,0,0,1,2.353-.725,3.917,3.917,0,0,1,2.311.745C265.663,162.029,265.83,162.378,265.74,162.464Z" transform="translate(-259.877 -160.906)"/></g><g transform="translate(0 0.298)"><g transform="translate(2.636 1.962)"><path class="b" d="M253.607,163.846a1.483,1.483,0,0,1-1.43,1.5A1.419,1.419,0,0,1,250.648,164a1.483,1.483,0,0,1,1.428-1.5A1.42,1.42,0,0,1,253.607,163.846Z" transform="translate(-250.647 -162.504)"/></g><path class="b" d="M254.645,162.675c-.184.194-1.308-.638-2.9-.634-1.594-.018-2.766.8-2.939.607-.085-.086.1-.436.612-.807a4.071,4.071,0,0,1,2.352-.724,3.9,3.9,0,0,1,2.312.745C254.568,162.238,254.735,162.589,254.645,162.675Z" transform="translate(-248.783 -161.117)"/></g><g transform="translate(10.906 0.395)"><path class="b" d="M257.243,174.483a10.634,10.634,0,0,1,2.593-.468c.407-.041.793-.123.861-.4a2.084,2.084,0,0,0-.272-1.209l-1.206-3.1c-1.673-4.419-2.885-8.052-2.707-8.117s1.68,3.462,3.354,7.879c.4,1.09.788,2.128,1.154,3.122a2.361,2.361,0,0,1,.212,1.6,1.027,1.027,0,0,1-.67.6,2.823,2.823,0,0,1-.691.1A10.436,10.436,0,0,1,257.243,174.483Z" transform="translate(-256.496 -161.185)"/></g><g transform="translate(6.698 14.797)"><path class="b" d="M253.779,171.37c.259-.016.263,1.717,1.745,2.947s3.327,1.039,3.341,1.281c.024.109-.411.337-1.191.358a4.316,4.316,0,0,1-2.789-.971,3.76,3.76,0,0,1-1.353-2.472C253.466,171.789,253.66,171.36,253.779,171.37Z" transform="translate(-253.519 -171.37)"/></g></g><g transform="translate(-1211.495 -12292.164)"><path class="b" d="M255.353,158.146c-.158.434-1.751.228-3.623.454-1.878.188-3.388.737-3.636.346-.112-.185.151-.594.762-1.014a6.353,6.353,0,0,1,5.531-.611C255.074,157.6,255.421,157.94,255.353,158.146Z" transform="translate(-248.069 -156.95)"/></g><g transform="translate(-1194.957 -12291.283)"><path class="b" d="M265.2,159.226c-.281.362-1.38-.014-2.7-.031-1.321-.065-2.441.243-2.7-.136-.113-.184.062-.547.552-.891a3.914,3.914,0,0,1,4.353.134C265.17,158.676,265.323,159.049,265.2,159.226Z" transform="translate(-259.765 -157.573)"/></g><path class="b" d="M282.644,149.612a3.831,3.831,0,0,0-1.416-3.425,2.719,2.719,0,0,0-3.523.263,3.172,3.172,0,0,0-2.728-3.848c-1.694-.107-3.139,1.171-4.775,1.621a7.7,7.7,0,0,1-4.849-.56c-1.537-.619-2.974-1.473-4.531-2.042a13.28,13.28,0,0,0-16.985,7.8,5.9,5.9,0,0,0-6.253,2.367A9.669,9.669,0,0,0,236.1,158.6a21.633,21.633,0,0,0,1.188,4.659c0,.134-.014.264-.011.4.107,5.712.754,12.417,3.19,12.455,4.247.065,3.234-7.936,3.234-7.936,5.212-2.014,3.271-9.822,4.573-11.007s4.03-3.937,14.941,1.64c4.237,2.165,9.869,2.1,12.945,1.4.091-.02.182-.032.272-.055l.064-.013c.034-.008.056-.027.09-.037a9.827,9.827,0,0,0,2.8-1.186,5.53,5.53,0,0,0,2.3-2.564,3.026,3.026,0,0,0-.6-3.251A6.648,6.648,0,0,0,282.644,149.612Z" transform="translate(-1464.556 -12455.791)"/><path class="g" d="M243.878,193.672c3.5-.67,6.908-1.937,11.021-2.113h0a44.168,44.168,0,0,0,26.62.017c1.08.136,2.581.277,4.469.5,11.564,1.366,16,3.807,24.305,11.97l-.908,46.8s2.789,53.253,2.582,61.861H232.951l-.064-36.115.018-9.831-26.014,9.445,2.367-13.655s11.647-45.23,13.461-51.332C224.924,203.811,232.856,195.783,243.878,193.672Z" transform="translate(-1476.616 -12434.783)"/><path class="g" d="M218.8,243.937l38.947-5.535,7.4,13.26-36.206,16.323a15.64,15.64,0,0,1-6.423,1.38h0a15.63,15.63,0,0,1-14.459-9.7l-1.171-2.856Z" transform="translate(-1476.616 -12415.387)"/><path class="i" d="M277.852,235.219l-.846-.635a19.451,19.451,0,0,0-15.326-3.542h0a26.686,26.686,0,0,0-11.935,5.6l-6.673,5.494,7.1,12.714L255,248.094s4.505,6.116,5.31,5.471a10.318,10.318,0,0,0,1.77-2.575l-3.218-4.505,7.725,1.609,11.266-5.15-4.828-6.116,4.828,1.609Z" transform="translate(-1461.634 -12418.577)"/><path class="g" d="M273.345,194.032s11,3.749,15.627,14.335c3.015,6.906,7.448,40.148,7.448,40.148l5.59,10.781a18.173,18.173,0,0,1,2.039,8.366v1.645a18.181,18.181,0,0,1-4.075,11.47h0a18.191,18.191,0,0,1-12.493,6.635c-5.579.5-12.328.72-13.769-.928-2.542-2.906-6.358-10.719-6.358-10.719l16.271-8.643-7.005-12.974Z" transform="translate(-1451.579 -12433.76)"/><path class="b" d="M228.5,266.87a3.055,3.055,0,0,1,.628-.352l1.865-.906,6.99-3.265,23.864-10.893-.161.488-4.57-8.169c-.971-1.744-1.929-3.46-2.837-5.088l.344.178-28.531,2.8-8.48.759c-.94.069-1.7.127-2.291.171a3.62,3.62,0,0,1-.8.016,3.61,3.61,0,0,1,.788-.147l2.278-.3,8.458-.973,28.507-3.033.232-.024.113.2,2.844,5.085c1.561,2.8,3.086,5.538,4.556,8.176l.187.335-.348.154L238.17,262.76l-7.073,3.076c-.783.325-1.415.59-1.915.8A3.1,3.1,0,0,1,228.5,266.87Z" transform="translate(-1473.457 -12415.496)"/><path class="b" d="M229.4,248.7c-.2,0-.356-6.963-.356-15.551s.16-15.551.356-15.551.356,6.96.356,15.551S229.6,248.7,229.4,248.7Z" transform="translate(-1467.443 -12423.999)"/><path class="b" d="M279.477,247.013a3.522,3.522,0,0,1,1.185-.187,10.868,10.868,0,0,1,3.283.2,3.883,3.883,0,0,1,2.06,1.165,5.378,5.378,0,0,1,1.078,2.48,5.779,5.779,0,0,1-.266,2.968,5.543,5.543,0,0,1-1.971,2.527,14.731,14.731,0,0,1-5.641,2.012,25.8,25.8,0,0,1-4.828.469c-2.786.028-4.433-.677-4.382-.765a22.926,22.926,0,0,0,4.371.26,29.239,29.239,0,0,0,4.709-.61,14.876,14.876,0,0,0,5.354-1.944,5.078,5.078,0,0,0,1.121-7.021,3.443,3.443,0,0,0-1.738-1.056,13.056,13.056,0,0,0-3.145-.407A4.319,4.319,0,0,1,279.477,247.013Z" transform="translate(-1450.486 -12411.915)"/><path class="b" d="M285.94,262.473a8.253,8.253,0,0,1-2.8.331,17.78,17.78,0,0,1-6.727-1.116,14.53,14.53,0,0,1-3.349-1.782,8.023,8.023,0,0,1-2.07-2.339,6.143,6.143,0,0,1-1-2.647c.113-.048.482.976,1.423,2.376a8.38,8.38,0,0,0,2.033,2.082,15.842,15.842,0,0,0,3.22,1.646,21.033,21.033,0,0,0,6.477,1.277A16.715,16.715,0,0,1,285.94,262.473Z" transform="translate(-1450.489 -12408.547)"/><path class="b" d="M290.965,236.4a13.476,13.476,0,0,1-1.92,2.309c-1.251,1.372-3.015,3.234-4.992,5.263s-3.8,3.838-5.136,5.122a12.745,12.745,0,0,1-2.277,1.977,12.675,12.675,0,0,1,1.915-2.329c1.249-1.374,3.011-3.24,4.988-5.268C287.494,239.426,290.829,236.238,290.965,236.4Z" transform="translate(-1447.735 -12416.216)"/><path class="b" d="M274.331,236.475c-.2,0-.356-3.981-.356-8.89s.158-8.89.356-8.89.356,3.979.356,8.89S274.528,236.475,274.331,236.475Z" transform="translate(-1448.837 -12423.548)"/><path class="c" d="M307.895,204.391c0,.2-19.944.356-44.54.356s-44.544-.16-44.544-.356,19.939-.356,44.544-.356S307.895,204.195,307.895,204.391Z" transform="translate(-1471.68 -12429.617)"/><path class="c" d="M310.923,209.407c0,.2-21.018.356-46.939.356s-46.944-.16-46.944-.356,21.013-.356,46.944-.356S310.923,209.211,310.923,209.407Z" transform="translate(-1472.414 -12427.54)"/><path class="c" d="M303.249,199.817c0,.2-18.31.356-40.89.356s-40.893-.158-40.893-.356,18.306-.356,40.893-.356S303.249,199.621,303.249,199.817Z" transform="translate(-1470.581 -12431.512)"/><path class="c" d="M305.392,275.54c0,.2-17.922.356-40.026.356s-40.03-.16-40.03-.356,17.918-.356,40.03-.356S305.392,275.344,305.392,275.54Z" transform="translate(-1468.979 -12400.154)"/><path class="c" d="M304.7,272.321c0,.2-17.683.356-39.49.356s-39.5-.16-39.5-.356,17.679-.356,39.5-.356S304.7,272.125,304.7,272.321Z" transform="translate(-1468.822 -12401.487)"/><path class="c" d="M304.053,268.156c0,.2-17.622.356-39.357.356s-39.36-.16-39.36-.356,17.618-.356,39.36-.356S304.053,267.96,304.053,268.156Z" transform="translate(-1468.979 -12403.212)"/><path class="c" d="M242.233,255.737a7.106,7.106,0,0,1-1.994-1.861,18.859,18.859,0,0,1-4.326-12.243,7.1,7.1,0,0,1,.383-2.7c.236,0-.361,4.2,1.365,8.97C239.313,252.693,242.418,255.591,242.233,255.737Z" transform="translate(-1464.6 -12415.166)"/><path class="c" d="M239.792,257.746a8.145,8.145,0,0,1-2.158-2.055,20.612,20.612,0,0,1-4.657-13.392,8.187,8.187,0,0,1,.416-2.95c.239,0-.464,4.594,1.4,9.825C236.576,254.431,239.983,257.6,239.792,257.746Z" transform="translate(-1465.817 -12414.993)"/><path class="c" d="M237.418,259.3A8.414,8.414,0,0,1,235,257.249a18.7,18.7,0,0,1-4.667-14.275,8.38,8.38,0,0,1,.742-3.087c.12.028-.153,1.2-.239,3.124a20.829,20.829,0,0,0,4.546,13.912C236.583,258.42,237.5,259.208,237.418,259.3Z" transform="translate(-1466.951 -12414.771)"/><path class="c" d="M270.813,260.241c.045-.048.409.318,1.2.748a8.621,8.621,0,0,0,3.661.919,31,31,0,0,0,5.69-.371,8.9,8.9,0,0,0,5.968-2.916,8.437,8.437,0,0,0,1.772-6.356,9.013,9.013,0,0,0-2.468-4.908,13.6,13.6,0,0,0-4.36-2.84,3.848,3.848,0,0,1,1.4.352A9.972,9.972,0,0,1,286.994,247a9.284,9.284,0,0,1,2.759,5.17,8.944,8.944,0,0,1-1.869,6.9,7.731,7.731,0,0,1-3.045,2.261,13.139,13.139,0,0,1-3.383.855,28.189,28.189,0,0,1-5.822.221,8.126,8.126,0,0,1-3.763-1.182A3.006,3.006,0,0,1,270.813,260.241Z" transform="translate(-1450.147 -12412.857)"/><path class="c" d="M284.435,242.943c0-.026.149-.038.435-.04a4.725,4.725,0,0,1,1.237.209,7.881,7.881,0,0,1,3.654,2.756,18.713,18.713,0,0,1,3.043,6.074,11.3,11.3,0,0,1,.448,4.041,8.9,8.9,0,0,1-1.458,4.136,12.626,12.626,0,0,1-6.719,4.88,19.971,19.971,0,0,1-6.742.775,38.107,38.107,0,0,1-4.525-.481,7.127,7.127,0,0,1-1.629-.356c.014-.136,2.367.252,6.165.334a20.6,20.6,0,0,0,6.527-.9,12.2,12.2,0,0,0,6.325-4.645,8.306,8.306,0,0,0,1.359-3.808,10.839,10.839,0,0,0-.386-3.8,19.124,19.124,0,0,0-2.81-5.942,8.062,8.062,0,0,0-3.346-2.8C285.037,243,284.429,243.013,284.435,242.943Z" transform="translate(-1449.581 -12413.522)"/><path class="b" d="M266.514,234.75l-24.786,30.019,1.9,2.058,40.225-6.132L303.8,230.678l-1.851-1.667Z" transform="translate(-1462.191 -12419.274)"/><path class="i" d="M289.095,238.672h0a3.824,3.824,0,0,0-3.575,2.442c-.6,1.553-1.469,3.368-2.438,3.9-1.787.974-4.874,1.753-6.5.957s-8.125-6.645-9.262-5.994-2.113,2.113-.976,3.412,7.15,5.2,6.013,6.5-13.813-4.422-15.763-3.917-3.087,1.7-1.95,2.486,9.75,4.032,10.238,5.17c0,0-13-3.414-13.488-2.6s-1.3,2.113,0,2.6,12.512,3.412,13.488,3.9a23.68,23.68,0,0,0,5.012,1.462,53.475,53.475,0,0,1,5.236,1.66,11.468,11.468,0,0,0,8.086-.216l1.315-.536a5.158,5.158,0,0,0,3.2-5.088l-.266-4.433,1.418-3.657Z" transform="translate(-1458.479 -12415.274)"/><path class="k" d="M303.258,230.3a3.058,3.058,0,0,1-.742.181l-2.151.382-7.927,1.274-11.771,1.8-6.945,1.051a13.275,13.275,0,0,0-6.733,2.728,45.1,45.1,0,0,0-4.9,5.632q-2.287,2.853-4.4,5.487c-2.8,3.469-5.333,6.6-7.482,9.265L245.11,264.3l-1.413,1.664a3.1,3.1,0,0,1-.53.55,3.079,3.079,0,0,1,.419-.639l1.308-1.749,4.915-6.348c2.114-2.69,4.606-5.856,7.362-9.36l4.367-5.512a44.415,44.415,0,0,1,4.992-5.744A13.894,13.894,0,0,1,273.6,234.3l6.967-1.013,11.792-1.646,7.961-1.049,2.169-.249A3.128,3.128,0,0,1,303.258,230.3Z" transform="translate(-1461.595 -12418.746)"/><path class="a" d="M272.754,234.948a3.4,3.4,0,0,0-1.116.905,1.163,1.163,0,0,0-.048,1.349,1.247,1.247,0,0,0,1.659.027,1.621,1.621,0,0,0,.643-.962,1.139,1.139,0,0,0-.344-1.076.885.885,0,0,0-1.092-.042" transform="translate(-1449.906 -12416.816)"/><g transform="translate(-1330.015 -12451.878) rotate(20)"><g transform="translate(0 0)"><path class="d" d="M83.6,35.45A42.058,42.058,0,1,1,35.454.529,42.058,42.058,0,0,1,83.6,35.45Z"/></g></g><g class="l" transform="translate(-1330.196 -12451.381) rotate(20)"><g transform="translate(0 0)"><path class="f" d="M35.454,0A42.05,42.05,0,0,0,.529,48.144S29.922,44.8,35.074,31.934,35.454,0,35.454,0Z"/></g></g><g transform="translate(-1324.514 -12439.732) rotate(20)"><g transform="translate(0 0)"><path class="m" d="M63.551,26.952A31.972,31.972,0,1,1,26.951.4,31.97,31.97,0,0,1,63.551,26.952Z"/></g></g><g transform="translate(-1323.203 -12437.62) rotate(20)"><g transform="translate(0 0)"><path class="n" d="M62.7,26.588A31.544,31.544,0,1,1,26.591.4,31.541,31.541,0,0,1,62.7,26.588Z"/></g></g><g transform="translate(-1308.882 -12420.552) rotate(20)"><path class="d" d="M13.064,17.509l-1.271-7.97.042-.008a16.574,16.574,0,0,1,4.412.429,13.391,13.391,0,0,1,2.181.935l.07-.261L19.27,7.57l.175-.707L17.787,5.6l-.633.417a15.181,15.181,0,0,0-6.038-.748l-.7-4.383L8.877,0l.176,1.1-1.871.3.711,4.465C1.826,7.435-.54,11.414.1,15.442c.874,5.486,5.8,6.16,10.352,6.528l1.259,7.9a15.3,15.3,0,0,1-8.375-1.744L2.193,32.4c2.337,1.45,6.291,2.116,10.2,1.736l.527,3.309-1.536.274,1.707.8L16.324,38l-.7-4.424c6.1-1.618,8.505-5.564,7.864-9.592C22.616,18.5,17.615,17.877,13.064,17.509Zm-3.37-.314c-2.4-.306-4.232-.907-4.535-2.8-.278-1.736.683-3.346,3.415-4.228Zm2.1-7.664Zm3.142,19.744-1.111-6.99c2.476.294,4.359.927,4.665,2.86C18.76,26.844,17.75,28.38,14.935,29.275Z"/></g><g transform="translate(-1308.882 -12420.552) rotate(20)"><path class="d" d="M13.064,17.509l-1.271-7.97.042-.008a16.574,16.574,0,0,1,4.412.429,13.391,13.391,0,0,1,2.181.935l.07-.261L19.27,7.57l.175-.707L17.787,5.6l-.633.417a15.181,15.181,0,0,0-6.038-.748l-.7-4.383L8.877,0l.176,1.1-1.871.3.711,4.465C1.826,7.435-.54,11.414.1,15.442c.874,5.486,5.8,6.16,10.352,6.528l1.259,7.9a15.3,15.3,0,0,1-8.375-1.744L2.193,32.4c2.337,1.45,6.291,2.116,10.2,1.736l.527,3.309-1.536.274,1.707.8L16.324,38l-.7-4.424c6.1-1.618,8.505-5.564,7.864-9.592C22.616,18.5,17.615,17.877,13.064,17.509Zm-3.37-.314c-2.4-.306-4.232-.907-4.535-2.8-.278-1.736.683-3.346,3.415-4.228Zm2.1-7.664Zm3.142,19.744-1.111-6.99c2.476.294,4.359.927,4.665,2.86C18.76,26.844,17.75,28.38,14.935,29.275Z"/></g><path class="d" d="M15.622,32.7l.7,4.42-3.236.519-.7-4.383c-3.91.376-7.86-.29-10.2-1.74l1.139-4.269a15.356,15.356,0,0,0,8.379,1.74l-1.258-7.9C5.9,20.725.977,20.05.1,14.56c-.641-4.028,1.72-8.007,7.787-9.58L7.178.519,10.417,0l.7,4.384a17.11,17.11,0,0,1,8.4,1.136L18.53,9.764a16.584,16.584,0,0,0-6.736-1.115l1.271,7.978c4.555.368,9.551.993,10.425,6.479C24.131,27.134,21.721,31.08,15.622,32.7ZM9.694,16.312,8.575,9.286c-2.733.878-3.693,2.488-3.416,4.228C5.462,15.41,7.3,16.006,9.694,16.312Zm8.8,7.954c-.306-1.932-2.19-2.566-4.665-2.86l1.111,6.99C17.751,27.5,18.764,25.966,18.49,24.266Z" transform="translate(-1310.306 -12421.061) rotate(20)"/><path class="f" d="M2.461,7.706A2.687,2.687,0,0,1,1.4,6.938,5.056,5.056,0,0,1,.034,4.095,5.027,5.027,0,0,1,.672,1a2.653,2.653,0,0,1,.846-1c.041.037-.3.4-.649,1.1a5.287,5.287,0,0,0-.523,2.95A5.347,5.347,0,0,0,1.562,6.791C2.073,7.387,2.494,7.661,2.461,7.706Z" transform="translate(-1312.821 -12411.622) rotate(20)"/><path class="f" d="M.464,2.6A2.909,2.909,0,0,1,.1,1.324,2.9,2.9,0,0,1,.051,0,2.91,2.91,0,0,1,.415,1.275,2.868,2.868,0,0,1,.464,2.6Z" transform="translate(-1303.354 -12416.805) rotate(20)"/><path class="h" d="M398.785,2582.8a1.978,1.978,0,0,1-1.979-1.978v-24.584a1.978,1.978,0,0,1,1.979-1.976h4.764l-10.5-12.4-10.509,12.4H387.3a1.978,1.978,0,0,1,1.977,1.976v24.584a1.977,1.977,0,1,1-3.953,0v-22.608H378.27a1.976,1.976,0,0,1-1.508-3.254l14.775-17.434a1.973,1.973,0,0,1,1.508-.7h0a1.975,1.975,0,0,1,1.508.7l14.77,17.434a1.977,1.977,0,0,1-1.51,3.254h-7.052v22.608A1.978,1.978,0,0,1,398.785,2582.8Z" transform="translate(-1666.083 -14934.795)"/><path class="o" d="M445.008,5192.891a48,48,0,1,1-54.605-40.2A47.95,47.95,0,0,1,445.008,5192.891Z" transform="translate(-1431.244 -17539.793)"/><path class="p" d="M431.185,5192.071a36.582,36.582,0,1,1-41.613-30.637A36.542,36.542,0,0,1,431.185,5192.071Z" transform="translate(-1428.715 -17537.273)"/><path class="q" d="M431.155,5191.245c-.218.042-.613-1.523-1.612-4.206a38.85,38.85,0,0,0-5.844-10.459,37.592,37.592,0,0,0-5.781-5.851,36.67,36.67,0,0,0-8.018-4.9,35.71,35.71,0,0,0-9.96-2.81,35.581,35.581,0,0,0-5.474-.292,35.731,35.731,0,0,0-11.074,2.025,35.821,35.821,0,0,0-5.017,2.209,34.178,34.178,0,0,0-4.47,2.84,33.791,33.791,0,0,0-3.85,3.316,36.593,36.593,0,0,0-5.763,7.421,37.516,37.516,0,0,0-3.333,7.52,38.815,38.815,0,0,0-1.758,11.848c.017,2.86.2,4.464-.017,4.5-.16.034-.714-1.505-1.072-4.438a33.842,33.842,0,0,1,.941-12.456,37.013,37.013,0,0,1,3.212-8.108,37.391,37.391,0,0,1,5.949-8.1,37.291,37.291,0,0,1,8.85-6.755,37.181,37.181,0,0,1,5.4-2.424,37.424,37.424,0,0,1,11.944-2.186,37.24,37.24,0,0,1,5.9.357,37.347,37.347,0,0,1,10.669,3.184,36.691,36.691,0,0,1,14.309,11.909,33.878,33.878,0,0,1,5.3,11.316C431.289,5189.583,431.317,5191.219,431.155,5191.245Z" transform="translate(-1428.864 -17537.578)"/><path class="q" d="M397.862,5216.051l1.042,6.286-5.614.927-1.012-6.116c-5.613.582-11.233-.273-14.719-2.177l1.952-7.359a22.988,22.988,0,0,0,11.549,2.182l-1.553-9.375c-6.481-.482-13.784-1.406-15.113-9.433-.984-5.95,2.492-11.774,11.193-14.253l-1.031-6.23,5.612-.93,1.013,6.12a25.706,25.706,0,0,1,11.96,1.537l-1.662,7.368a23.319,23.319,0,0,0-9.073-1.5l1.581,9.543c6.47.429,13.663,1.373,14.973,9.285C409.928,5207.767,406.5,5213.525,397.862,5216.051Zm-9.719-23.881-1.322-7.97c-2.862,1.166-3.771,2.989-3.465,4.841C383.683,5191.005,385.543,5191.794,388.144,5192.169Zm11.893,11.931c-.325-1.966-2.13-2.762-4.683-3.207l1.282,7.748C399.341,5207.559,400.335,5205.9,400.037,5204.1Z" transform="translate(-1424.221 -17534.84)"/><path class="f" d="M8.427,0H93.186a8.427,8.427,0,0,1,8.427,8.427v141.84a8.427,8.427,0,0,1-8.427,8.427H8.427A8.427,8.427,0,0,1,0,150.267V8.427A8.427,8.427,0,0,1,8.427,0Z" transform="translate(-1096.004 -12251.757)"/><path class="b" d="M471.453,291.776s.11-.017.326-.033.542-.015.964-.089a10.315,10.315,0,0,0,7.819-5.5,10.126,10.126,0,0,0,1.1-3.729c.1-1.385.02-2.9.038-4.49-.025-12.736-.059-31.139-.1-53.876-.02-22.751-.043-49.833-.069-79.9a10.185,10.185,0,0,0-4.925-9.344c-3.245-2.093-7.364-1.251-11.256-1.426l-24.089.009L390.6,133.4a10.082,10.082,0,0,0-9.537,6.85c-.713,1.962-.5,4.107-.532,6.244v6.362q0,12.678,0,24.964c-.007,16.367-.014,32.155-.018,47.195s-.021,29.33-.03,42.7q-.006,5.015-.01,9.856c.02,1.6-.05,3.236.043,4.77a10.146,10.146,0,0,0,8.62,9.073,38.9,38.9,0,0,0,4.375.122l4.316.006,53.872.1,14.647.059,3.809.032c.858.011,1.3.033,1.3.033s-.44.022-1.3.032l-3.809.032-14.647.06-53.872.1-4.316,0a38.64,38.64,0,0,1-4.443-.116,10.633,10.633,0,0,1-9.053-9.5c-.1-1.628-.032-3.194-.056-4.817q0-4.839-.009-9.856c-.01-13.375-.02-27.666-.03-42.7s-.012-30.827-.018-47.195q0-12.274,0-24.964V146.5l.007-3.2a10.918,10.918,0,0,1,.557-3.246,10.723,10.723,0,0,1,10.144-7.287l50.658.006,24.089.009,5.872,0a10.726,10.726,0,0,1,9.694,5.757,11.324,11.324,0,0,1,.984,2.748,14.068,14.068,0,0,1,.222,2.874c-.026,30.071-.049,57.154-.069,79.9-.043,22.737-.078,41.14-.1,53.876-.028,1.595.044,3.082-.067,4.51a10.307,10.307,0,0,1-1.156,3.8,10.6,10.6,0,0,1-4.343,4.355,10.234,10.234,0,0,1-3.637,1.119A9.971,9.971,0,0,1,471.453,291.776Z" transform="translate(-1476.221 -12384.838)"/><path class="c" d="M3.114,0A3.114,3.114,0,1,1,0,3.114,3.114,3.114,0,0,1,3.114,0Z" transform="translate(-1085.424 -12241.266)"/><path class="c" d="M401.506,144.654a3.114,3.114,0,1,1-3.114-3.114A3.114,3.114,0,0,1,401.506,144.654Z" transform="translate(-1472.662 -12382.807)"/><path class="c" d="M3.114,0A3.114,3.114,0,1,1,0,3.114,3.114,3.114,0,0,1,3.114,0Z" transform="translate(-1069.344 -12241.266)"/><path class="b" d="M464.118,157.407c0,.177-16.1.321-35.946.321s-35.948-.144-35.948-.321,16.091-.32,35.948-.32S464.118,157.231,464.118,157.407Z" transform="translate(-1473.369 -12379.21)"/><path class="b" d="M464.118,162.546c0,.177-16.1.321-35.946.321s-35.948-.144-35.948-.321,16.091-.32,35.948-.32S464.118,162.37,464.118,162.546Z" transform="translate(-1473.369 -12378.021)"/><path class="b" d="M464.118,167.686c0,.177-16.1.32-35.946.32s-35.948-.143-35.948-.32,16.091-.321,35.948-.321S464.118,167.509,464.118,167.686Z" transform="translate(-1473.369 -12376.832)"/><path class="b" d="M464.118,172.825c0,.177-16.1.32-35.946.32s-35.948-.143-35.948-.32,16.091-.32,35.948-.32S464.118,172.648,464.118,172.825Z" transform="translate(-1473.369 -12375.643)"/><path class="b" d="M464.118,177.964c0,.177-16.1.321-35.946.321s-35.948-.144-35.948-.321,16.091-.32,35.948-.32S464.118,177.788,464.118,177.964Z" transform="translate(-1473.369 -12374.453)"/><path class="b" d="M464.118,183.1c0,.176-16.1.32-35.946.32s-35.948-.144-35.948-.32,16.091-.321,35.948-.321S464.118,182.927,464.118,183.1Z" transform="translate(-1473.369 -12373.265)"/><path class="b" d="M464.118,222.426c0,.177-16.1.321-35.946.321s-35.948-.144-35.948-.321,16.091-.32,35.948-.32S464.118,222.249,464.118,222.426Z" transform="translate(-1473.369 -12364.167)"/><path class="b" d="M464.118,228.021c0,.177-16.1.32-35.946.32s-35.948-.143-35.948-.32,16.091-.321,35.948-.321S464.118,227.844,464.118,228.021Z" transform="translate(-1473.369 -12362.873)"/><path class="b" d="M464.118,233.616c0,.176-16.1.32-35.946.32s-35.948-.144-35.948-.32,16.091-.321,35.948-.321S464.118,233.439,464.118,233.616Z" transform="translate(-1473.369 -12361.578)"/><path class="b" d="M464.118,239.21c0,.177-16.1.321-35.946.321s-35.948-.144-35.948-.321,16.091-.32,35.948-.32S464.118,239.034,464.118,239.21Z" transform="translate(-1473.369 -12360.283)"/><path class="b" d="M464.118,244.805c0,.177-16.1.32-35.946.32s-35.948-.143-35.948-.32,16.091-.32,35.948-.32S464.118,244.628,464.118,244.805Z" transform="translate(-1473.369 -12358.989)"/><path class="c" d="M465.982,190.5s-.123,0-.366.009l-1.076.007-4.158.016-15.468.028-52.548.032.128-.092c0,4.129,0,8.411,0,12.8,0,4.515,0,8.925,0,13.183l-.128-.092,52.184.032,15.347.028,4.125.016,1.067.007c.24,0,.363.009.363.009s-.123.006-.363.009l-1.067.009-4.125.016-15.347.027-52.184.032h-.129v-.092c0-4.258,0-8.668,0-13.183,0-4.384,0-8.666,0-12.8V190.4h.129l52.548.032,15.468.027,4.158.016,1.076.009C465.859,190.489,465.982,190.5,465.982,190.5Z" transform="translate(-1473.367 -12371.502)"/><path class="c" d="M465.957,194.048c0,.052-16.481.094-36.807.094s-36.81-.042-36.81-.094,16.477-.095,36.81-.095S465.957,193.995,465.957,194.048Z" transform="translate(-1473.342 -12370.681)"/><path class="c" d="M465.957,196.954c0,.052-16.481.094-36.807.094s-36.81-.042-36.81-.094,16.477-.095,36.81-.095S465.957,196.9,465.957,196.954Z" transform="translate(-1473.342 -12370.009)"/><path class="c" d="M465.957,199.86c0,.052-16.481.094-36.807.094s-36.81-.042-36.81-.094,16.477-.095,36.81-.095S465.957,199.807,465.957,199.86Z" transform="translate(-1473.342 -12369.335)"/><path class="c" d="M465.957,202.766c0,.052-16.481.094-36.807.094s-36.81-.042-36.81-.094,16.477-.095,36.81-.095S465.957,202.713,465.957,202.766Z" transform="translate(-1473.342 -12368.663)"/><path class="c" d="M465.957,205.672c0,.052-16.481.094-36.807.094s-36.81-.042-36.81-.094,16.477-.095,36.81-.095S465.957,205.619,465.957,205.672Z" transform="translate(-1473.342 -12367.991)"/><path class="c" d="M392.34,208.578c0-.053,16.481-.095,36.807-.095s36.81.042,36.81.095-16.478.094-36.81.094S392.34,208.63,392.34,208.578Z" transform="translate(-1473.342 -12367.319)"/><path class="c" d="M400.832,216.851c-.052,0-.094-5.9-.094-13.185s.042-13.188.094-13.188.095,5.9.095,13.188S400.883,216.851,400.832,216.851Z" transform="translate(-1471.399 -12371.483)"/><path class="c" d="M409.443,216.851c-.053,0-.095-5.9-.095-13.185s.042-13.188.095-13.188.094,5.9.094,13.188S409.495,216.851,409.443,216.851Z" transform="translate(-1469.407 -12371.483)"/><path class="c" d="M418.053,216.851c-.052,0-.095-5.9-.095-13.185s.043-13.188.095-13.188.095,5.9.095,13.188S418.1,216.851,418.053,216.851Z" transform="translate(-1467.415 -12371.483)"/><path class="c" d="M426.663,216.851c-.052,0-.094-5.9-.094-13.185s.042-13.188.094-13.188.095,5.9.095,13.188S426.716,216.851,426.663,216.851Z" transform="translate(-1465.423 -12371.483)"/><path class="c" d="M435.274,216.851c-.052,0-.095-5.9-.095-13.185s.043-13.188.095-13.188.095,5.9.095,13.188S435.325,216.851,435.274,216.851Z" transform="translate(-1463.431 -12371.483)"/><path class="c" d="M443.609,216.851c-.052,0-.094-5.9-.094-13.185s.042-13.188.094-13.188.095,5.9.095,13.188S443.66,216.851,443.609,216.851Z" transform="translate(-1461.502 -12371.483)"/><path class="c" d="M452.22,216.851c-.053,0-.095-5.9-.095-13.185s.042-13.188.095-13.188.094,5.9.094,13.188S452.272,216.851,452.22,216.851Z" transform="translate(-1459.51 -12371.483)"/><path class="g" d="M401.581,208.681a.645.645,0,1,1-.645-.646A.645.645,0,0,1,401.581,208.681Z" transform="translate(-1471.503 -12367.422)"/><path class="g" d="M.645,0A.645.645,0,1,1,0,.645.645.645,0,0,1,.645,0Z" transform="translate(-1060.61 -12166.543)"/><path class="g" d="M418.8,205.725a.645.645,0,1,1-.645-.645A.645.645,0,0,1,418.8,205.725Z" transform="translate(-1467.519 -12368.106)"/><path class="g" d="M427.327,199.515a.669.669,0,0,1-.946.946h0A.669.669,0,0,1,427.327,199.515Z" transform="translate(-1465.506 -12369.433)"/><path class="g" d="M436.036,199.515a.669.669,0,0,1-.946.946h0A.669.669,0,0,1,436.036,199.515Z" transform="translate(-1463.491 -12369.433)"/><path class="g" d="M444.184,205.22a.669.669,0,0,1-.946.946h0A.669.669,0,0,1,444.184,205.22Z" transform="translate(-1461.606 -12368.113)"/><path class="k" d="M410.192,197.057a.646.646,0,1,1-.645-.646A.646.646,0,0,1,410.192,197.057Z" transform="translate(-1469.511 -12370.111)"/><path class="k" d="M401.581,205.775a.645.645,0,1,1-.645-.645A.645.645,0,0,1,401.581,205.775Z" transform="translate(-1471.503 -12368.094)"/><path class="k" d="M444.185,208.208a.669.669,0,0,1-.946.946A.669.669,0,0,1,444.185,208.208Z" transform="translate(-1461.606 -12367.422)"/><path class="k" d="M436.023,202.869a.645.645,0,1,1-.645-.645A.646.646,0,0,1,436.023,202.869Z" transform="translate(-1463.534 -12368.767)"/><path class="k" d="M427.5,202.792a.645.645,0,1,1-.645-.645A.644.644,0,0,1,427.5,202.792Z" transform="translate(-1465.506 -12368.785)"/><path class="c" d="M397.6,214a5.54,5.54,0,0,1-2.042,0,5.615,5.615,0,0,1,2.042,0Z" transform="translate(-1472.597 -12366.064)"/><path class="c" d="M406.4,214a5.547,5.547,0,0,1-2.043,0,5.622,5.622,0,0,1,2.043,0Z" transform="translate(-1470.561 -12366.064)"/><path class="c" d="M415.2,214a5.541,5.541,0,0,1-2.042,0,5.615,5.615,0,0,1,2.042,0Z" transform="translate(-1468.525 -12366.064)"/><path class="c" d="M424,214a5.54,5.54,0,0,1-2.042,0A5.615,5.615,0,0,1,424,214Z" transform="translate(-1466.489 -12366.064)"/><path class="c" d="M432.806,214a5.541,5.541,0,0,1-2.042,0,5.615,5.615,0,0,1,2.042,0Z" transform="translate(-1464.452 -12366.064)"/><path class="c" d="M440.676,214a5.54,5.54,0,0,1-2.042,0,5.615,5.615,0,0,1,2.042,0Z" transform="translate(-1462.631 -12366.064)"/><path class="c" d="M448.546,214a5.547,5.547,0,0,1-2.043,0,5.622,5.622,0,0,1,2.043,0Z" transform="translate(-1460.811 -12366.064)"/><path class="c" d="M391.406,211.476a3.63,3.63,0,0,1-1.649,0,3.633,3.633,0,0,1,1.649,0Z" transform="translate(-1473.94 -12366.648)"/><path class="c" d="M391.406,208.1a3.632,3.632,0,0,1-1.649,0,3.632,3.632,0,0,1,1.649,0Z" transform="translate(-1473.94 -12367.43)"/><path class="c" d="M391.406,204.716a3.68,3.68,0,0,1-1.649,0,3.632,3.632,0,0,1,1.649,0Z" transform="translate(-1473.94 -12368.212)"/><path class="c" d="M391.406,201.336a3.68,3.68,0,0,1-1.649,0,3.63,3.63,0,0,1,1.649,0Z" transform="translate(-1473.94 -12368.994)"/><path class="c" d="M391.406,197.956a3.678,3.678,0,0,1-1.649,0,3.632,3.632,0,0,1,1.649,0Z" transform="translate(-1473.94 -12369.776)"/><path class="c" d="M391.406,194.576a3.677,3.677,0,0,1-1.649,0,3.633,3.633,0,0,1,1.649,0Z" transform="translate(-1473.94 -12370.559)"/><path class="c" d="M391.406,191.2a3.678,3.678,0,0,1-1.649,0,3.632,3.632,0,0,1,1.649,0Z" transform="translate(-1473.94 -12371.34)"/><path class="g" d="M392.306,214.491l-.118-.336,10.542-3.705,10.656-7.193,10.6,3.517,10.683-7.046,10.7-.031.046.033,10.165,7.181,9.848-6.508.2.3-10.051,6.642-.1-.07-10.217-7.218-10.479.031-10.738,7.083-10.6-3.517-10.571,7.128Z" transform="translate(-1473.377 -12369.352)"/><path class="k" d="M455.6,212.064l-10.378-7.055h-10.7l-10.7-7.063-10.377-.093-10.6,10.735H392.34v-.356H402.7L413.3,197.5l10.632.1,10.7,7.062h10.7l10.149,6.9,10.137-17.813.309.176Z" transform="translate(-1473.342 -12370.729)"/><path class="o" d="M3.956,0h98.736a3.956,3.956,0,0,1,3.956,3.956V106.9a3.956,3.956,0,0,1-3.956,3.956H3.956A3.956,3.956,0,0,1,0,106.9V3.956A3.956,3.956,0,0,1,3.956,0Z" transform="translate(-1364.168 -12330.826)"/><g transform="translate(-1339.359 -12305.815)"><path class="c" d="M78.307,62.781A29.489,29.489,0,1,0,107.8,92.271,29.489,29.489,0,0,0,78.307,62.781Zm.445,47.159A18.114,18.114,0,1,1,96.867,91.826,18.114,18.114,0,0,1,78.752,109.94Z" transform="translate(-48.819 -62.781)"/></g><g transform="translate(-1309.421 -12305.804)"><path class="a" d="M73.654,62.791c0,3.137,0,7.368,0,10.918a18.122,18.122,0,0,1,17.26,23.606l10.687,2.9A29.481,29.481,0,0,0,73.654,62.791Z" transform="translate(-73.652 -62.791)"/></g><g transform="translate(-1339.359 -12303.502)"><path class="r" d="M60.638,91.431A18.115,18.115,0,0,1,71.375,74.887L66.84,64.7A29.5,29.5,0,0,0,48.819,91.876c0,.415.014.826.031,1.237H60.719C60.667,92.559,60.638,92,60.638,91.431Z" transform="translate(-48.819 -64.7)"/></g><g transform="translate(-1315.25 -12271.279)"><path class="r" d="M74.641,104.05a18.154,18.154,0,0,1-3.831-.41c-.456,2.628-1.316,7.721-1.993,11.73a29.461,29.461,0,0,0,33.777-21.043l-10.687-2.9A18.122,18.122,0,0,1,74.641,104.05Z" transform="translate(-68.817 -91.428)"/></g><g transform="translate(-1319.552 -12280.598)"><path class="c" d="M71.463,88.992H70.37V90.4H68.858V88.992H65.249V87.948l3.159-4.25h1.628l-2.93,4.03h1.8V86.474H70.37v1.254h1.092Z" transform="translate(-65.249 -83.698)"/></g><g transform="translate(-1312.881 -12280.714)"><path class="c" d="M70.782,87.068c0-2.211,1.226-3.466,2.873-3.466s2.872,1.255,2.872,3.466-1.216,3.466-2.872,3.466S70.782,89.279,70.782,87.068Zm4.183,0c0-1.523-.535-2.154-1.31-2.154s-1.3.632-1.3,2.154.535,2.154,1.3,2.154S74.965,88.591,74.965,87.068Z" transform="translate(-70.782 -83.602)"/></g><g transform="translate(-1306.497 -12280.675)"><path class="c" d="M76.078,85.482a1.67,1.67,0,1,1,1.665,1.848A1.668,1.668,0,0,1,76.078,85.482Zm2.364,0c0-.719-.277-1.063-.7-1.063s-.7.354-.7,1.063.287,1.062.7,1.062S78.442,86.2,78.442,85.482Zm3.294-1.771h1.139l-4.576,6.7H77.159Zm-1.1,4.93a1.671,1.671,0,1,1,1.655,1.848A1.665,1.665,0,0,1,80.635,88.641Zm2.354,0c0-.708-.277-1.062-.7-1.062s-.7.345-.7,1.062.287,1.063.7,1.063S82.99,89.35,82.99,88.641Z" transform="translate(-76.078 -83.634)"/></g><g transform="translate(-1334.272 -12239.678)"><path class="c" d="M101.841,117.921c0,.154-10.925.28-24.4.28s-24.4-.125-24.4-.28,10.924-.28,24.4-.28S101.841,117.766,101.841,117.921Z" transform="translate(-53.039 -117.641)"/></g><g transform="translate(-1323.404 -12235.196)"><path class="c" d="M89.12,121.638c0,.154-6.059.28-13.533.28s-13.534-.125-13.534-.28,6.058-.28,13.534-.28S89.12,121.483,89.12,121.638Z" transform="translate(-62.054 -121.358)"/></g><path class="c" d="M2.683,0A2.683,2.683,0,1,1,0,2.683,2.683,2.683,0,0,1,2.683,0Z" transform="translate(-1356.221 -12324.078)"/><path class="c" d="M2.683,0A2.683,2.683,0,1,1,0,2.683,2.683,2.683,0,0,1,2.683,0Z" transform="translate(-1349.292 -12324.078)"/><path class="c" d="M51.694,50.317a2.684,2.684,0,1,1-2.684-2.684A2.683,2.683,0,0,1,51.694,50.317Z" transform="translate(-1388.691 -12371.711)"/><path class="s" d="M8.8,0H7.485L2.475-7.67V0H1.155V-9.953H2.475L7.5-2.249v-7.7H8.8Zm3.739,0H11.231V-9.953h1.313Zm9.721-3.158A3.662,3.662,0,0,1,21.1-.721a3.82,3.82,0,0,1-2.608.858,3.507,3.507,0,0,1-2.827-1.265A5.088,5.088,0,0,1,14.6-4.512v-.957a5.671,5.671,0,0,1,.5-2.44,3.7,3.7,0,0,1,1.4-1.617,3.911,3.911,0,0,1,2.105-.564A3.6,3.6,0,0,1,21.15-9.2a3.706,3.706,0,0,1,1.114,2.451H20.945A2.847,2.847,0,0,0,20.2-8.477a2.248,2.248,0,0,0-1.6-.533,2.349,2.349,0,0,0-1.972.93,4.265,4.265,0,0,0-.714,2.646v.964A4.384,4.384,0,0,0,16.6-1.894a2.187,2.187,0,0,0,1.894.957,2.526,2.526,0,0,0,1.678-.5,2.75,2.75,0,0,0,.776-1.726Zm7.889-6.084L26.031,0H24.705l4.108-8.914H23.427V-9.953h6.727Z" transform="translate(-1040.787 -12230.711)"/></g></svg>