<svg xmlns="http://www.w3.org/2000/svg" width="213.246" height="235.136" viewBox="0 0 213.246 235.136"><defs><style>.a{fill:#e0e0e0;}.b{fill:#ebebeb;}.c{fill:#f5f5f5;}.d{fill:#e8505b;}.e{opacity:0.3;}.f{fill:#fafafa;}.g{fill:#fff;}.h{fill:#263238;}.i{fill:#d9a171;}.j{fill:#455a64;}.k{fill:#ffbe9d;}.l{fill:#eb996e;}.m,.n{fill:none;stroke-miterlimit:10;}.m{stroke:#f9ded0;}.n{stroke:#4e585d;}</style></defs><g transform="translate(-156.245 -1475.511)"><g transform="translate(156.245 1475.51)"><g transform="translate(0 5.517)"><g transform="translate(178.677 190.722)"><g transform="translate(0)"><g transform="translate(1.951 6.373)"><path class="a" d="M428.933,386.491l-3.121,31.994H409.294l-3.251-31.994Z" transform="translate(-406.043 -386.491)"/></g><g transform="translate(0 4.032)"><g transform="translate(0 0)"><rect class="b" width="27.312" height="2.341" transform="translate(27.312 2.341) rotate(180)"/></g></g><g transform="translate(3.121)"><path class="b" d="M427.564,372.7l2.731,4.552h-21.72l1.041-4.552Z" transform="translate(-408.576 -372.698)"/></g><g transform="translate(3.046 17.144)"><path class="c" d="M429.156,409.8l-1.114,11.417h-18.47l-1.16-11.417Z" transform="translate(-408.412 -409.805)"/></g></g><g transform="translate(9.611 18.443)"><g transform="translate(1.434 0.252)"><path class="a" d="M425.726,420.532a5.243,5.243,0,0,1,.855-2.825c.462-.716,1.019-1.334,1.469-1.952a5.9,5.9,0,0,0,.954-1.8,3.348,3.348,0,0,0,.147-.792c.042.022.086.041.127.067a2.893,2.893,0,0,1,1.207,1.886,5.438,5.438,0,0,1-.1,2.281,4.919,4.919,0,0,1-1.2,2.423,3.311,3.311,0,0,1-2.883.893A2.684,2.684,0,0,1,425.726,420.532Z" transform="translate(-425.726 -413.161)"/></g><path class="a" d="M422.658,417.726a9.563,9.563,0,0,1,.584-2.993,3.306,3.306,0,0,1,2.185-2.025,2.556,2.556,0,0,1,1.587.075,3.437,3.437,0,0,1-.193.8,6.167,6.167,0,0,1-.976,1.692c-.451.593-1.019,1.206-1.5,1.956a5.3,5.3,0,0,0-.839,2.36c-.018.172-.025.34-.027.5a1.721,1.721,0,0,1-.626-.633A3.047,3.047,0,0,1,422.658,417.726Z" transform="translate(-422.621 -412.616)"/></g></g><g transform="translate(0 170.698)"><g transform="translate(33.792 4.792)"><g transform="translate(3.243)"><path class="d" d="M95.249,341.536l1.381,25.4a1.715,1.715,0,0,0,1.7,1.622l45.7.335a1.715,1.715,0,0,0,1.727-1.7l.145-19.77a1.715,1.715,0,0,0-1.713-1.727l-28.109-.025a1.713,1.713,0,0,1-1.211-.5l-4.85-4.848a1.715,1.715,0,0,0-1.2-.5l-11.849-.087A1.715,1.715,0,0,0,95.249,341.536Z" transform="translate(-95.246 -339.728)"/></g><g class="e" transform="translate(3.243)"><path d="M95.249,341.536l1.381,25.4a1.715,1.715,0,0,0,1.7,1.622l45.7.335a1.715,1.715,0,0,0,1.727-1.7l.145-19.77a1.715,1.715,0,0,0-1.713-1.727l-28.109-.025a1.713,1.713,0,0,1-1.211-.5l-4.85-4.848a1.715,1.715,0,0,0-1.2-.5l-11.849-.087A1.715,1.715,0,0,0,95.249,341.536Z" transform="translate(-95.246 -339.728)"/></g><g transform="translate(3.781 2.61)"><g transform="translate(0 0)"><g transform="translate(0 0)"><rect class="c" width="49.938" height="29.841" transform="translate(0.219 0) rotate(0.42)"/></g></g></g><g transform="translate(0 4.029)"><path class="f" d="M88.235,349.678l3.585,31.145a1.1,1.1,0,0,0,1.087.977l48.667.357a1.1,1.1,0,0,0,1.107-1.008l2.678-31.1a1.1,1.1,0,0,0-1.09-1.2l-54.93-.4A1.1,1.1,0,0,0,88.235,349.678Z" transform="translate(-88.228 -348.449)"/></g></g><g transform="translate(20.345)"><g transform="translate(3.243)"><path class="a" d="M66.145,331.165l1.381,25.4a1.715,1.715,0,0,0,1.7,1.622l45.7.335a1.715,1.715,0,0,0,1.727-1.7l.145-19.77a1.715,1.715,0,0,0-1.714-1.727L86.98,335.3a1.712,1.712,0,0,1-1.21-.5l-4.85-4.848a1.714,1.714,0,0,0-1.2-.5l-11.849-.087A1.715,1.715,0,0,0,66.145,331.165Z" transform="translate(-66.142 -329.357)"/></g><g transform="translate(3.781 2.61)"><g transform="translate(0 0)"><g transform="translate(0 0)"><rect class="c" width="49.938" height="29.841" transform="translate(0.219 0) rotate(0.42)"/></g></g></g><g transform="translate(0 4.029)"><path class="a" d="M59.131,339.307l3.585,31.145a1.1,1.1,0,0,0,1.088.977l48.667.357a1.1,1.1,0,0,0,1.107-1.008l2.678-31.1a1.1,1.1,0,0,0-1.091-1.2l-54.929-.4A1.1,1.1,0,0,0,59.131,339.307Z" transform="translate(-59.124 -338.078)"/></g></g><g transform="translate(5.192 5.948)"><g transform="translate(3.243)"><path class="c" d="M33.346,344.037l1.381,25.4a1.714,1.714,0,0,0,1.7,1.622l45.7.335a1.715,1.715,0,0,0,1.727-1.7L84,349.921a1.714,1.714,0,0,0-1.713-1.727l-28.109-.025a1.715,1.715,0,0,1-1.211-.5l-4.85-4.847a1.714,1.714,0,0,0-1.2-.5l-11.849-.086A1.715,1.715,0,0,0,33.346,344.037Z" transform="translate(-33.343 -342.23)"/></g><g transform="translate(3.781 2.61)"><g transform="translate(0 0)"><rect class="c" width="49.938" height="29.841" transform="translate(0.219 0) rotate(0.42)"/></g></g><g transform="translate(0 4.029)"><path class="c" d="M26.332,352.179l3.585,31.146A1.1,1.1,0,0,0,31,384.3l48.667.356a1.1,1.1,0,0,0,1.107-1.008l2.678-31.1a1.1,1.1,0,0,0-1.091-1.2l-54.929-.4A1.1,1.1,0,0,0,26.332,352.179Z" transform="translate(-26.325 -350.951)"/></g></g><g transform="translate(0 15.442)"><path class="b" d="M15.088,362.78v43.2H77.415v-43.2Zm38.791,10.962H38.624a3.19,3.19,0,1,1,0-6.38H53.879a3.19,3.19,0,1,1,0,6.38Z" transform="translate(-15.088 -362.78)"/></g><g transform="translate(62.327 15.442)"><path class="a" d="M149.99,362.78v43.2h33.6v-43.2Z" transform="translate(-149.99 -362.78)"/></g></g><g transform="translate(126.167 0)"><g transform="translate(0.293)"><path class="a" d="M355.265,49.075v59.432H278.5l-2.766-59.017Z" transform="translate(-275.736 -49.075)"/></g><g transform="translate(0 0.052)"><g transform="translate(0.293 0.293)"><g transform="translate(0)"><rect class="c" width="59.087" height="76.763" transform="translate(0 59.087) rotate(-90)"/></g></g><path class="a" d="M352.451,108.861H275.1V49.188h77.349Zm-76.763-.586h76.177v-58.5H275.688Z" transform="translate(-275.102 -49.188)"/></g><g transform="translate(8.454 6.28)"><g transform="translate(0.152 0.138)"><rect class="g" width="60.135" height="45.237"/></g><path class="a" d="M353.689,62.8s-.1.006-.291.008l-.846.008-3.276.017-12.334.037-43.388.068.138-.137c0,13.569.01,28.97.015,45.232v.005l-.152-.152,60.135.027-.125.125c.027-13.671.049-24.964.065-32.848.014-3.944.025-7.034.032-9.147.006-1.051.011-1.856.014-2.409s.014-.834.014-.834.009.27.014.808.008,1.345.014,2.385c.007,2.106.018,5.187.032,9.118.016,7.9.038,19.223.065,32.927v.125h-.126l-60.135.027H293.4v-.158c.005-16.262.01-31.663.015-45.232v-.138h.138l43.478.069,12.3.036,3.248.017.831.008C353.6,62.8,353.689,62.8,353.689,62.8Z" transform="translate(-293.401 -62.667)"/></g><g transform="translate(0.292 0.205)"><path class="a" d="M275.735,49.522a7.527,7.527,0,0,1,1.3.8c.779.525,1.844,1.268,3,2.12s2.174,1.658,2.9,2.261a7.22,7.22,0,0,1,1.123,1.031,7.926,7.926,0,0,1-1.256-.861l-2.943-2.186-2.942-2.189A7.584,7.584,0,0,1,275.735,49.522Z" transform="translate(-275.734 -49.519)"/></g><g transform="translate(68.741 0.342)"><path class="a" d="M432.2,49.819a43.668,43.668,0,0,1-4.067,3.159,43.484,43.484,0,0,1-4.247,2.913,43.569,43.569,0,0,1,4.067-3.159A43.524,43.524,0,0,1,432.2,49.819Z" transform="translate(-423.887 -49.817)"/></g><g transform="translate(68.435 51.653)"><g transform="translate(0.002 0.002)"><line class="g" x1="8.62" y1="7.778"/></g><path class="a" d="M423.226,160.876a110.471,110.471,0,0,1,8.62,7.778,55.461,55.461,0,0,1-4.412-3.776A55.337,55.337,0,0,1,423.226,160.876Z" transform="translate(-423.224 -160.874)"/></g><g transform="translate(0.292 52.003)"><path class="a" d="M275.734,169.061a100.726,100.726,0,0,1,8.229-7.427,50.55,50.55,0,0,1-4.013,3.827A50.522,50.522,0,0,1,275.734,169.061Z" transform="translate(-275.733 -161.632)"/></g><g transform="translate(26.023 14.6)"><path class="a" d="M358,80.833c0,.087-5.949.158-13.286.158s-13.287-.071-13.287-.158,5.948-.158,13.287-.158S358,80.746,358,80.833Z" transform="translate(-331.427 -80.675)"/></g><g transform="translate(18.767 29.558)"><path class="a" d="M355.537,113.21c0,.087-8.914.158-19.906.158s-19.908-.071-19.908-.158,8.911-.158,19.908-.158S355.537,113.123,355.537,113.21Z" transform="translate(-315.722 -113.052)"/></g><g transform="translate(18.767 33.253)"><path class="a" d="M355.537,121.207c0,.087-8.914.158-19.906.158s-19.908-.071-19.908-.158,8.911-.158,19.908-.158S355.537,121.12,355.537,121.207Z" transform="translate(-315.722 -121.049)"/></g><g transform="translate(34.616 37.951)"><g transform="translate(0.016 0.015)"><path class="a" d="M359.323,135.883a4.632,4.632,0,1,1-4.632-4.632A4.632,4.632,0,0,1,359.323,135.883Z" transform="translate(-350.059 -131.251)"/></g><path class="a" d="M354.673,140.513a4.647,4.647,0,1,1,4.647-4.647A4.653,4.653,0,0,1,354.673,140.513Zm0-9.265a4.617,4.617,0,1,0,4.617,4.617A4.623,4.623,0,0,0,354.673,131.248Z" transform="translate(-350.025 -131.218)"/></g><g transform="translate(18.677 42.441)"><path class="a" d="M326.689,141.093a98.641,98.641,0,0,1-11.162,0,98.631,98.631,0,0,1,11.162,0Z" transform="translate(-315.527 -140.935)"/></g><g transform="translate(47.959 42.441)"><path class="a" d="M391.393,141.093a123.459,123.459,0,0,1-12.488,0,123.447,123.447,0,0,1,12.488,0Z" transform="translate(-378.905 -140.935)"/></g><g transform="translate(19.601 37.366)"><path class="b" d="M324.881,134.312a1.342,1.342,0,0,1-.067-.383,4.083,4.083,0,0,1,.064-1.114,3.986,3.986,0,0,1,.7-1.629.94.94,0,0,1,.477-.325.727.727,0,0,1,.614.132,1.115,1.115,0,0,1,.388,1.209,3.607,3.607,0,0,1-.681,1.206,6.073,6.073,0,0,1-1.025,1.081,3.069,3.069,0,0,1-1.47.677,2.374,2.374,0,0,1-1.685-.377,1.821,1.821,0,0,1-.739-1.65,5.428,5.428,0,0,1,.5-1.8,2.091,2.091,0,0,1,.608-.8,1.32,1.32,0,0,1,1.02-.255,1,1,0,0,1,.766.761,2.074,2.074,0,0,1-.062,1.046,6.382,6.382,0,0,1-.915,1.767,4,4,0,0,1-1.475,1.264,2.994,2.994,0,0,1-1.871.237,2.228,2.228,0,0,1-1.48-1.045,2.914,2.914,0,0,1-.393-1.674,4.411,4.411,0,0,1,.407-1.554c.208-.446.465-.979,1.029-1.125a.68.68,0,0,1,.708.328,1.475,1.475,0,0,1,.186.685,4.542,4.542,0,0,1-.551,2.281,4.712,4.712,0,0,1-1.109,1.377,4.271,4.271,0,0,1-.936.606,1.537,1.537,0,0,1-.365.133,6.366,6.366,0,0,0,1.22-.831,4.738,4.738,0,0,0,1.034-1.367,4.413,4.413,0,0,0,.485-2.186,1.268,1.268,0,0,0-.161-.574.439.439,0,0,0-.464-.214.915.915,0,0,0-.493.368,3.015,3.015,0,0,0-.342.624,3.2,3.2,0,0,0-.006,2.97,1.93,1.93,0,0,0,1.293.9,2.7,2.7,0,0,0,1.677-.222,4.845,4.845,0,0,0,2.219-2.839,1.783,1.783,0,0,0,.059-.883.676.676,0,0,0-.522-.529,1.012,1.012,0,0,0-.772.2,1.794,1.794,0,0,0-.515.677,5.181,5.181,0,0,0-.477,1.685,1.521,1.521,0,0,0,.608,1.4,2.1,2.1,0,0,0,1.478.339,2.813,2.813,0,0,0,1.344-.608,5.885,5.885,0,0,0,.994-1.024,3.444,3.444,0,0,0,.659-1.114.9.9,0,0,0-.292-.991.584.584,0,0,0-.837.147,3.984,3.984,0,0,0-.718,1.539A6.021,6.021,0,0,0,324.881,134.312Z" transform="translate(-317.526 -129.952)"/></g><g transform="translate(48.903 34.064)"><path class="b" d="M391.031,129.726a.459.459,0,0,1-.121.067c-.083.038-.2.1-.37.165a12.584,12.584,0,0,1-1.479.51,13.9,13.9,0,0,1-2.445.449,14.084,14.084,0,0,1-1.559.059c-.552.011-1.148-.11-1.722-.044a1.185,1.185,0,0,0-.749.383.712.712,0,0,0-.092.8,4.233,4.233,0,0,0,.569.81q.327.4.686.806t.751.8a2.493,2.493,0,0,0,.847.652.753.753,0,0,0,.878-.31,1.627,1.627,0,0,0,.263-1.061A25.29,25.29,0,0,1,387.65,123.2l.135-.4.159.388a8.773,8.773,0,0,1,.625,2.767,9.078,9.078,0,0,1-.633,3.857,8.885,8.885,0,0,1-.9,1.684,2.724,2.724,0,0,1-1.456,1.228.893.893,0,0,1-.956-.34,1.774,1.774,0,0,1-.251-.925,9.674,9.674,0,0,1,1.021-4.938l.1-.2.132.178a2.133,2.133,0,1,1-3.262-.1,1.184,1.184,0,0,1,.534-.369.573.573,0,0,1,.624.172.853.853,0,0,1,.149.585,1.834,1.834,0,0,1-.116.535A6.813,6.813,0,0,1,381.84,130a6.281,6.281,0,0,1-.646.54,1.4,1.4,0,0,1-.244.154,1.481,1.481,0,0,1,.218-.189c.143-.123.358-.3.612-.566a6.949,6.949,0,0,0,1.619-2.667,1.091,1.091,0,0,0-.018-.954c-.211-.264-.638-.085-.871.213a2,2,0,0,0-.144,2.351,1.88,1.88,0,1,0,3.04-2.212l.233-.022a9.424,9.424,0,0,0-.969,4.795,1.513,1.513,0,0,0,.2.768.584.584,0,0,0,.639.219,1.723,1.723,0,0,0,.711-.419,4.722,4.722,0,0,0,.56-.688,8.576,8.576,0,0,0,.866-1.624,8.782,8.782,0,0,0,.608-3.722,8.468,8.468,0,0,0-.6-2.664l.294-.01a25.251,25.251,0,0,0-1.179,10.5,1.9,1.9,0,0,1-.325,1.234,1.185,1.185,0,0,1-.524.4.972.972,0,0,1-.662-.006,2.7,2.7,0,0,1-.944-.723q-.393-.4-.753-.814t-.687-.821a4.381,4.381,0,0,1-.593-.869.945.945,0,0,1,.137-1.038,1.4,1.4,0,0,1,.889-.448,4.179,4.179,0,0,1,.915.013c.288.024.568.043.841.051a14.475,14.475,0,0,0,1.54-.035,14.64,14.64,0,0,0,2.43-.394c.655-.167,1.153-.333,1.487-.453A4.421,4.421,0,0,1,391.031,129.726Z" transform="translate(-380.95 -122.805)"/></g></g></g><g transform="translate(0.096 234.74)"><path class="h" d="M228.445,456.151c0,.066-47.719.12-106.57.12-58.871,0-106.58-.054-106.58-.12s47.709-.121,106.58-.121C180.726,456.03,228.445,456.084,228.445,456.151Z" transform="translate(-15.295 -456.03)"/></g><g transform="translate(10.333 0)"><g transform="translate(0 7.061)"><g transform="translate(0.13 0.408)"><path class="g" d="M105.228,151.782H37.788l-.055-85.888h67.523Z" transform="translate(-37.733 -65.894)"/></g><g transform="translate(0.101 0.101)"><rect class="c" width="67.523" height="16.53"/></g><g transform="translate(3.475 14.131)"><rect class="d" width="25.732" height="4.164"/></g><g transform="translate(3.475 34.869)"><rect class="f" width="60.326" height="5.98"/></g><g transform="translate(3.475 40.842)"><rect class="a" width="60.326" height="5.98"/></g><g transform="translate(6.228 15.47)"><g transform="translate(0 0.066)"><path class="g" d="M50.932,98.637h.116v1.094h-.116Z" transform="translate(-50.932 -98.637)"/></g><g transform="translate(0.449 0.331)"><path class="g" d="M52.66,99.564v.476h-.111v-.466a.229.229,0,0,0-.247-.262.27.27,0,0,0-.288.3v.431H51.9v-.822h.106v.152a.347.347,0,0,1,.313-.158A.315.315,0,0,1,52.66,99.564Z" transform="translate(-51.903 -99.212)"/></g><g transform="translate(1.338 0.338)"><path class="g" d="M54.673,99.226l-.366.822h-.114l-.364-.822h.116l.308.7.311-.7Z" transform="translate(-53.829 -99.226)"/></g><g transform="translate(2.233 0.331)"><path class="g" d="M55.765,99.629a.418.418,0,1,1,.419.419A.4.4,0,0,1,55.765,99.629Zm.724,0a.306.306,0,1,0-.3.321A.3.3,0,0,0,56.489,99.629Z" transform="translate(-55.765 -99.212)"/></g><g transform="translate(3.272)"><path class="g" d="M58.013,98.573a.081.081,0,1,1,.081.08A.08.08,0,0,1,58.013,98.573Zm.025.26h.111v.822h-.111Z" transform="translate(-58.013 -98.495)"/></g><g transform="translate(3.634 0.331)"><path class="g" d="M58.8,99.629a.4.4,0,0,1,.424-.417.36.36,0,0,1,.322.163l-.083.056a.279.279,0,0,0-.239-.122.321.321,0,0,0,0,.641.278.278,0,0,0,.239-.121l.083.056a.363.363,0,0,1-.322.163A.406.406,0,0,1,58.8,99.629Z" transform="translate(-58.797 -99.212)"/></g><g transform="translate(4.501 0.331)"><path class="g" d="M61.471,99.664h-.687a.3.3,0,0,0,.323.286.323.323,0,0,0,.251-.108l.063.072a.434.434,0,0,1-.748-.285.4.4,0,0,1,.4-.417.392.392,0,0,1,.4.417C61.473,99.639,61.471,99.651,61.471,99.664Zm-.687-.083h.583a.292.292,0,0,0-.583,0Z" transform="translate(-60.673 -99.212)"/></g><g transform="translate(6.237 0.066)"><path class="g" d="M65.2,99.02l-.041.328h.222v.085h-.233l-.036.3h-.084l.036-.3h-.32l-.038.3h-.084l.036-.3h-.222v-.085h.233l.041-.328h-.223v-.086h.234l.036-.3h.086l-.037.3h.322l.036-.3h.084l-.036.3h.22v.086Zm-.085,0h-.32l-.043.328h.322Z" transform="translate(-64.432 -98.637)"/></g><g transform="translate(7.294 0.066)"><path class="g" d="M67.511,99.417c0,.183-.133.324-.4.324a.57.57,0,0,1-.394-.141l.055-.089a.479.479,0,0,0,.339.127c.181,0,.281-.084.281-.22s-.092-.217-.3-.217h-.078v-.083l.3-.38h-.56v-.1h.7v.08l-.31.389C67.394,99.118,67.511,99.242,67.511,99.417Z" transform="translate(-66.72 -98.637)"/></g><g transform="translate(8.225 0.066)"><path class="g" d="M69.683,99.444h-.219v.287h-.112v-.287h-.618v-.081l.58-.725h.125l-.559.706h.475V99.09h.11v.253h.219Z" transform="translate(-68.734 -98.637)"/></g><g transform="translate(9.224 0.066)"><path class="g" d="M71.686,99.409c0,.186-.129.332-.4.332A.565.565,0,0,1,70.9,99.6l.055-.089a.476.476,0,0,0,.336.127c.186,0,.285-.091.285-.224s-.088-.228-.366-.228h-.233l.056-.549h.6v.1h-.5l-.037.348h.141C71.561,99.086,71.686,99.215,71.686,99.409Z" transform="translate(-70.897 -98.637)"/></g><g transform="translate(10.156 0.056)"><path class="g" d="M73.736,99.394a.341.341,0,0,1-.373.336c-.291,0-.449-.2-.449-.547,0-.372.2-.566.5-.566a.5.5,0,0,1,.259.06l-.045.091a.384.384,0,0,0-.213-.052c-.236,0-.388.152-.388.449,0,.025,0,.056,0,.089a.35.35,0,0,1,.334-.188A.331.331,0,0,1,73.736,99.394Zm-.111,0c0-.144-.106-.236-.275-.236a.253.253,0,0,0-.281.239c0,.12.1.234.289.234A.239.239,0,0,0,73.625,99.4Z" transform="translate(-72.914 -98.617)"/></g><g transform="translate(11.056 0.056)"><path class="g" d="M75.661,99.62v.1h-.767v-.079l.455-.445c.123-.122.147-.2.147-.271,0-.127-.089-.2-.256-.2a.372.372,0,0,0-.3.122l-.079-.069a.491.491,0,0,1,.388-.156c.222,0,.362.113.362.3a.45.45,0,0,1-.18.342l-.372.366Z" transform="translate(-74.861 -98.617)"/></g></g><g transform="translate(41.172 6.755)"><g transform="translate(0 0.05)"><path class="h" d="M126.566,79.741h.653v3.514h-.653Z" transform="translate(-126.566 -79.741)"/></g><g transform="translate(1.603 0.05)"><path class="h" d="M133.157,79.741v3.514h-.537l-1.938-2.379v2.379h-.647V79.741h.537l1.938,2.379V79.741Z" transform="translate(-130.035 -79.741)"/></g><g transform="translate(5.149 0.05)"><path class="h" d="M141.421,79.741l-1.532,3.514h-.643l-1.536-3.514h.708l1.169,2.711,1.18-2.711Z" transform="translate(-137.711 -79.741)"/></g><g transform="translate(8.946)"><path class="h" d="M145.929,81.439a1.895,1.895,0,1,1,1.893,1.807A1.8,1.8,0,0,1,145.929,81.439Zm3.128,0a1.235,1.235,0,1,0-1.235,1.235A1.2,1.2,0,0,0,149.057,81.439Z" transform="translate(-145.929 -79.632)"/></g><g transform="translate(13.426 0.05)"><path class="h" d="M155.626,79.741h.653v3.514h-.653Z" transform="translate(-155.626 -79.741)"/></g><g transform="translate(14.778)"><path class="h" d="M158.551,81.439a1.9,1.9,0,0,1,3.273-1.22l-.421.4a1.236,1.236,0,0,0-.939-.412,1.235,1.235,0,1,0,0,2.47,1.223,1.223,0,0,0,.939-.417l.421.4a1.9,1.9,0,0,1-3.273-1.22Z" transform="translate(-158.551 -79.632)"/></g><g transform="translate(18.68 0.05)"><path class="h" d="M169.633,82.708v.547H167V79.741h2.565v.547H167.65V81.2h1.7v.537h-1.7v.969Z" transform="translate(-166.997 -79.741)"/></g></g><g transform="translate(51.645 20.591)"><g transform="translate(0 0.86)"><path class="h" d="M151.347,111.541a5.566,5.566,0,0,1-2.113,0,5.591,5.591,0,0,1,2.113,0Z" transform="translate(-149.234 -111.44)"/></g><g transform="translate(2.471)"><path class="h" d="M154.594,111.421a4.871,4.871,0,0,1,.706-1.841,4.863,4.863,0,0,1-.706,1.841Z" transform="translate(-154.582 -109.579)"/></g><g transform="translate(3.63 0.86)"><path class="h" d="M158.661,111.541c0,.056-.352.1-.785.1s-.785-.045-.785-.1a3.113,3.113,0,0,1,1.571,0Z" transform="translate(-157.09 -111.44)"/></g><g transform="translate(5.831 0.049)"><path class="h" d="M161.87,111.264a1.823,1.823,0,0,1,.195-.823c.16-.436.332-.773.384-.754a1.84,1.84,0,0,1-.195.823C162.095,110.946,161.922,111.283,161.87,111.264Z" transform="translate(-161.855 -109.686)"/></g><g transform="translate(6.663 0.86)"><path class="h" d="M166.8,111.541a12.249,12.249,0,0,1-3.142,0,12.305,12.305,0,0,1,3.142,0Z" transform="translate(-163.656 -111.44)"/></g></g><g transform="translate(3.475 30.705)"><rect class="d" width="60.326" height="4.164"/></g><g transform="translate(8.679 38.073)"><path d="M69.188,147.518c0,.056-2.9.1-6.475.1s-6.476-.045-6.476-.1,2.9-.1,6.476-.1S69.188,147.462,69.188,147.518Z" transform="translate(-56.237 -147.417)"/></g><g transform="translate(37.165 38.211)"><path d="M123.541,147.816a19.792,19.792,0,0,1-2.824.1,19.8,19.8,0,0,1-2.825-.1,19.927,19.927,0,0,1,2.825-.1A19.923,19.923,0,0,1,123.541,147.816Z" transform="translate(-117.892 -147.715)"/></g><g transform="translate(49.521 37.866)"><path d="M145.876,147.07c0,.056-.278.1-.62.1s-.62-.045-.62-.1.278-.1.62-.1S145.876,147.014,145.876,147.07Z" transform="translate(-144.636 -146.969)"/></g><g transform="translate(56.548 38.004)"><path d="M164.874,147.368a31.281,31.281,0,0,1-5.029,0,31.3,31.3,0,0,1,5.029,0Z" transform="translate(-159.845 -147.267)"/></g><g transform="translate(8.679 43.859)"><path d="M75.87,160.042c0,.056-4.4.1-9.816.1s-9.817-.045-9.817-.1,4.394-.1,9.817-.1S75.87,159.986,75.87,160.042Z" transform="translate(-56.237 -159.941)"/></g><g transform="translate(37.165 43.929)"><path d="M122.508,160.192a26.365,26.365,0,0,1-4.616,0,26.488,26.488,0,0,1,4.616,0Z" transform="translate(-117.892 -160.091)"/></g><g transform="translate(49.245 43.859)"><path d="M145.831,160.042a4.015,4.015,0,0,1-1.791,0,4.014,4.014,0,0,1,1.791,0Z" transform="translate(-144.04 -159.941)"/></g><g transform="translate(56.065 43.722)"><path d="M163.624,159.744a28.791,28.791,0,0,1-4.823,0,28.769,28.769,0,0,1,4.823,0Z" transform="translate(-158.801 -159.643)"/></g><g transform="translate(34.766 50.251)"><g transform="translate(0.442 5.457)"><rect class="d" width="28.424" height="3.706"/></g><g transform="translate(15.874 0.125)"><path class="h" d="M153.816,174.146a28.285,28.285,0,0,1-3.379.1,28.285,28.285,0,0,1-3.379-.1,28.3,28.3,0,0,1,3.379-.1A28.3,28.3,0,0,1,153.816,174.146Z" transform="translate(-147.059 -174.045)"/></g><g transform="translate(15.874 2.61)"><path class="h" d="M153.816,179.525a28.283,28.283,0,0,1-3.379.1,28.283,28.283,0,0,1-3.379-.1,28.473,28.473,0,0,1,3.379-.1A28.473,28.473,0,0,1,153.816,179.525Z" transform="translate(-147.059 -179.424)"/></g><g transform="translate(3.322 2.61)"><path class="h" d="M126.647,179.525a28.278,28.278,0,0,1-3.378.1,28.277,28.277,0,0,1-3.379-.1,28.466,28.466,0,0,1,3.379-.1A28.468,28.468,0,0,1,126.647,179.525Z" transform="translate(-119.89 -179.424)"/></g><path class="h" d="M122.779,173.876c0,.056-2.256.1-5.039.1s-5.04-.045-5.04-.1,2.256-.1,5.04-.1S122.779,173.82,122.779,173.876Z" transform="translate(-112.7 -173.775)"/><g transform="translate(15.874 7.397)"><path class="g" d="M153.816,189.886a28.283,28.283,0,0,1-3.379.1,28.283,28.283,0,0,1-3.379-.1,28.35,28.35,0,0,1,3.379-.1A28.35,28.35,0,0,1,153.816,189.886Z" transform="translate(-147.059 -189.785)"/></g><g transform="translate(3.695 7.397)"><path class="g" d="M127.454,189.886a28.279,28.279,0,0,1-3.378.1,28.277,28.277,0,0,1-3.379-.1,28.344,28.344,0,0,1,3.379-.1A28.346,28.346,0,0,1,127.454,189.886Z" transform="translate(-120.697 -189.785)"/></g></g><g transform="translate(5.451 6.158)"><rect class="d" width="1.947" height="1.947" rx="0.974"/><g transform="translate(0.437 0.442)"><path class="d" d="M50.2,81.211v.024a.113.113,0,0,0,.113.113h1.87V79.411a.113.113,0,0,0-.113-.113h0a.113.113,0,0,0-.113.113v1.673l-1.644.014A.113.113,0,0,0,50.2,81.211Z" transform="translate(-50.197 -79.298)"/></g><g transform="translate(3.335 0.572)"><path class="d" d="M67.646,79.68c0,.056-2.5.1-5.588.1s-5.589-.045-5.589-.1,2.5-.1,5.589-.1S67.646,79.624,67.646,79.68Z" transform="translate(-56.469 -79.579)"/></g><g transform="translate(3.482 1.645)"><path class="d" d="M62.635,82a21.212,21.212,0,0,1-2.924.1,21.2,21.2,0,0,1-2.924-.1,21.2,21.2,0,0,1,2.924-.1A21.211,21.211,0,0,1,62.635,82Z" transform="translate(-56.787 -81.901)"/></g></g><path class="h" d="M105.076,151.306c0-.8-.037-35.035-.091-86.194l.091.091-67.516.01h-.007l.1-.1c-.006,31.954-.012,61.628-.018,86.194l-.084-.084,67.523.084-67.523.084H37.47v-.084c-.005-24.566-.011-54.24-.018-86.194v-.1h.109l67.516.01h.091v.091C105.113,116.271,105.077,150.512,105.076,151.306Z" transform="translate(-37.452 -65.011)"/><g transform="translate(3.554 22.014)"><g transform="translate(13.951 1.659)"><path class="h" d="M91.476,116.351c0,.056-3.613.1-8.068.1s-8.069-.045-8.069-.1,3.612-.1,8.069-.1S91.476,116.3,91.476,116.351Z" transform="translate(-75.34 -116.25)"/><g transform="translate(0 1.545)"><path class="h" d="M91.476,119.7c0,.056-3.613.1-8.068.1s-8.069-.045-8.069-.1,3.612-.1,8.069-.1S91.476,119.639,91.476,119.7Z" transform="translate(-75.34 -119.594)"/></g><g transform="translate(0 3.09)"><path class="h" d="M81.373,123.039a22.621,22.621,0,0,1-3.017.1,22.615,22.615,0,0,1-3.017-.1,22.567,22.567,0,0,1,3.017-.1A22.573,22.573,0,0,1,81.373,123.039Z" transform="translate(-75.34 -122.938)"/></g></g><path class="h" d="M75.482,112.76c0,.056-6.792.1-15.168.1s-15.17-.045-15.17-.1,6.791-.1,15.17-.1S75.482,112.7,75.482,112.76Z" transform="translate(-45.144 -112.659)"/></g><g transform="translate(8.472 32.686)"><path class="g" d="M69.321,135.859c0,.056-3.029.1-6.765.1s-6.766-.045-6.766-.1,3.029-.1,6.766-.1S69.321,135.8,69.321,135.859Z" transform="translate(-55.789 -135.758)"/></g><g transform="translate(35.893 32.686)"><path class="g" d="M122.3,135.859a31.738,31.738,0,0,1-3.579.1,31.748,31.748,0,0,1-3.58-.1,31.953,31.953,0,0,1,3.58-.1A31.942,31.942,0,0,1,122.3,135.859Z" transform="translate(-115.139 -135.758)"/></g><g transform="translate(47.986 32.686)"><path class="g" d="M146.623,135.859a34.884,34.884,0,0,1-5.31,0,35.047,35.047,0,0,1,5.31,0Z" transform="translate(-141.313 -135.758)"/></g><g transform="translate(56.841 32.686)"><path class="g" d="M165.791,135.859a34.883,34.883,0,0,1-5.31,0,35.047,35.047,0,0,1,5.31,0Z" transform="translate(-160.481 -135.758)"/></g><g transform="translate(4.34 62.399)"><path class="h" d="M105.442,200.19c0,.067-13.118.12-29.3.12s-29.3-.054-29.3-.12,13.115-.121,29.3-.121S105.442,200.123,105.442,200.19Z" transform="translate(-46.845 -200.069)"/></g><g transform="translate(5.084 68.099)"><path class="h" d="M74.486,212.527c0,.067-5.828.12-13.015.12s-13.016-.054-13.016-.12,5.826-.121,13.016-.121S74.486,212.46,74.486,212.527Z" transform="translate(-48.455 -212.406)"/></g><g transform="translate(5.084 70.249)"><path class="h" d="M68.635,217.179c0,.067-4.518.12-10.09.12s-10.091-.054-10.091-.12,4.517-.12,10.091-.12S68.635,217.113,68.635,217.179Z" transform="translate(-48.455 -217.059)"/></g><g transform="translate(5.084 72.398)"><g transform="translate(0 0)"><path class="h" d="M65.375,221.831c0,.067-3.788.12-8.46.12s-8.46-.054-8.46-.12,3.787-.12,8.46-.12S65.375,221.765,65.375,221.831Z" transform="translate(-48.455 -221.711)"/></g></g><g transform="translate(41.266 65.595)"><g transform="translate(0 0)"><path class="h" d="M146.746,210.951a.867.867,0,0,1-.161.047l-.477.115c-.419.1-1.04.238-1.841.409-1.6.34-3.927.8-6.817,1.28-1.445.238-3.031.478-4.738.706-.853.114-1.737.227-2.648.332l-1.387.157c-.235.024-.468.057-.717.067a1.416,1.416,0,0,1-.758-.152.736.736,0,0,1,.029-1.355,12.294,12.294,0,0,1,1.371-.658,14.318,14.318,0,0,1,6.222-1.065,6.548,6.548,0,0,1,1.648.258,2.732,2.732,0,0,1,1.434.934,2.063,2.063,0,0,1,.324,1.681,3.121,3.121,0,0,1-.805,1.483,6.655,6.655,0,0,1-1.289,1.022,12.828,12.828,0,0,1-1.394.8,3.138,3.138,0,0,1-1.569.351,1.787,1.787,0,0,1-1.35-.822,3.6,3.6,0,0,1-.505-1.455,9.824,9.824,0,0,1-.093-1.483,10.564,10.564,0,0,1,1.478-5.285,3.683,3.683,0,0,1,.8-1.019,1.163,1.163,0,0,1,1.235-.221,1.452,1.452,0,0,1,.75.956,2.23,2.23,0,0,1-.062,1.155,6.962,6.962,0,0,1-.406,1c-.147.317-.3.621-.453.914-.307.586-.62,1.126-.934,1.618a22.36,22.36,0,0,1-1.763,2.413c-.529.627-.969,1.088-1.276,1.391-.152.153-.274.263-.354.339a.8.8,0,0,1-.128.109.9.9,0,0,1,.11-.126l.337-.356c.3-.313.723-.783,1.238-1.417a23.393,23.393,0,0,0,1.721-2.425c.306-.492.613-1.031.912-1.616a13.359,13.359,0,0,0,.831-1.895,2.071,2.071,0,0,0,.054-1.063,1.276,1.276,0,0,0-.654-.833.974.974,0,0,0-1.037.2,3.512,3.512,0,0,0-.75.972,10.394,10.394,0,0,0-1.429,5.185,9.73,9.73,0,0,0,.1,1.447,3.385,3.385,0,0,0,.474,1.362,1.552,1.552,0,0,0,1.18.718,2.917,2.917,0,0,0,1.448-.333,12.646,12.646,0,0,0,1.365-.788,6.422,6.422,0,0,0,1.242-.985,2.882,2.882,0,0,0,.745-1.368,1.82,1.82,0,0,0-.283-1.49,2.5,2.5,0,0,0-1.312-.847,6.335,6.335,0,0,0-1.589-.248,14.147,14.147,0,0,0-6.121,1.038,12.238,12.238,0,0,0-1.339.638.518.518,0,0,0-.036.972,2.4,2.4,0,0,0,1.34.06l1.386-.151,2.646-.32c1.706-.219,3.292-.449,4.738-.676,2.89-.454,5.218-.892,6.825-1.2l1.849-.365.482-.092A.831.831,0,0,1,146.746,210.951Z" transform="translate(-126.769 -206.986)"/></g></g><g transform="translate(39.862 77.632)"><g transform="translate(0 0)"><path class="h" d="M127.684,233.159a16.262,16.262,0,0,1-3.953,0,16.327,16.327,0,0,1,3.953,0Z" transform="translate(-123.731 -233.039)"/></g></g></g><g transform="translate(3.651 3.618)"><g transform="translate(0.13 0.408)"><path class="g" d="M113.13,144.33H45.69l-.055-85.888h67.523Z" transform="translate(-45.635 -58.443)"/></g><g transform="translate(0.101 0.101)"><rect class="c" width="67.523" height="16.53"/></g><g transform="translate(3.475 14.131)"><rect class="d" width="25.732" height="4.164"/></g><g transform="translate(3.475 34.869)"><rect class="f" width="60.326" height="5.98"/></g><g transform="translate(3.475 40.842)"><rect class="a" width="60.326" height="5.98"/></g><g transform="translate(6.228 15.471)"><g transform="translate(0 0.066)"><path class="g" d="M58.834,91.186h.116V92.28h-.116Z" transform="translate(-58.834 -91.186)"/></g><g transform="translate(0.449 0.331)"><path class="g" d="M60.562,92.113v.477h-.111v-.466a.229.229,0,0,0-.247-.262.269.269,0,0,0-.288.3v.432h-.11v-.822h.106v.152a.344.344,0,0,1,.312-.158A.315.315,0,0,1,60.562,92.113Z" transform="translate(-59.806 -91.761)"/></g><g transform="translate(1.338 0.337)"><path class="g" d="M62.575,91.774l-.366.822H62.1l-.365-.822h.116l.308.7.311-.7Z" transform="translate(-61.731 -91.774)"/></g><g transform="translate(2.233 0.331)"><path class="g" d="M63.667,92.178a.418.418,0,1,1,.419.419A.4.4,0,0,1,63.667,92.178Zm.724,0a.306.306,0,1,0-.3.321A.3.3,0,0,0,64.391,92.178Z" transform="translate(-63.667 -91.761)"/></g><g transform="translate(3.272)"><path class="g" d="M65.915,91.122A.081.081,0,1,1,66,91.2.079.079,0,0,1,65.915,91.122Zm.025.259h.111V92.2H65.94Z" transform="translate(-65.915 -91.044)"/></g><g transform="translate(3.634 0.331)"><path class="g" d="M66.7,92.178a.4.4,0,0,1,.424-.417.359.359,0,0,1,.322.163l-.083.056a.28.28,0,0,0-.239-.122.321.321,0,0,0,0,.641.279.279,0,0,0,.239-.121l.083.056a.363.363,0,0,1-.322.163A.406.406,0,0,1,66.7,92.178Z" transform="translate(-66.699 -91.761)"/></g><g transform="translate(4.501 0.331)"><path class="g" d="M69.373,92.213h-.687a.3.3,0,0,0,.323.286.324.324,0,0,0,.252-.108l.062.072a.434.434,0,0,1-.748-.285.4.4,0,1,1,.8,0C69.375,92.188,69.373,92.2,69.373,92.213Zm-.687-.083h.583a.292.292,0,0,0-.583,0Z" transform="translate(-68.575 -91.761)"/></g><g transform="translate(6.237 0.066)"><path class="g" d="M73.1,91.569l-.041.328h.222v.086h-.233l-.036.3h-.084l.036-.3h-.32l-.037.3H72.52l.036-.3h-.222V91.9h.233l.041-.328h-.224v-.086h.234l.036-.3h.086l-.037.3h.322l.036-.3h.084l-.036.3h.22v.086Zm-.085,0h-.32l-.043.328h.322Z" transform="translate(-72.334 -91.186)"/></g><g transform="translate(7.294 0.066)"><path class="g" d="M75.413,91.966c0,.183-.133.323-.4.323a.57.57,0,0,1-.394-.14l.055-.089a.479.479,0,0,0,.339.127c.181,0,.281-.085.281-.22s-.092-.217-.3-.217h-.078v-.083l.3-.38h-.56v-.1h.7v.079l-.31.389C75.3,91.667,75.413,91.791,75.413,91.966Z" transform="translate(-74.622 -91.186)"/></g><g transform="translate(8.225 0.066)"><path class="g" d="M77.585,91.992h-.219v.288h-.112v-.288h-.618v-.081l.58-.725h.125l-.56.706h.475v-.253h.109v.253h.219Z" transform="translate(-76.636 -91.186)"/></g><g transform="translate(9.224 0.066)"><path class="g" d="M79.589,91.958c0,.186-.13.331-.4.331a.566.566,0,0,1-.392-.14l.055-.089a.476.476,0,0,0,.336.127c.186,0,.285-.091.285-.224s-.088-.228-.366-.228h-.233l.056-.548h.6v.1h-.5l-.038.349h.141C79.463,91.635,79.589,91.764,79.589,91.958Z" transform="translate(-78.799 -91.186)"/></g><g transform="translate(10.156 0.056)"><path class="g" d="M81.638,91.943a.341.341,0,0,1-.373.336c-.291,0-.449-.2-.449-.547,0-.372.2-.565.5-.565a.5.5,0,0,1,.259.059l-.045.091a.384.384,0,0,0-.213-.051c-.236,0-.388.152-.388.448,0,.025,0,.056,0,.089a.35.35,0,0,1,.335-.188A.331.331,0,0,1,81.638,91.943Zm-.11,0c0-.144-.106-.236-.275-.236a.253.253,0,0,0-.281.239c0,.121.1.235.289.235A.24.24,0,0,0,81.528,91.945Z" transform="translate(-80.816 -91.166)"/></g><g transform="translate(11.056 0.056)"><path class="g" d="M83.563,92.169v.1H82.8v-.08l.455-.445c.123-.122.147-.2.147-.27,0-.127-.089-.2-.256-.2a.371.371,0,0,0-.3.122l-.079-.069a.49.49,0,0,1,.388-.156c.222,0,.362.112.362.3a.45.45,0,0,1-.18.342l-.372.365Z" transform="translate(-82.763 -91.166)"/></g></g><g transform="translate(41.172 6.756)"><g transform="translate(0 0.05)"><path class="h" d="M134.468,72.29h.653V75.8h-.653Z" transform="translate(-134.468 -72.29)"/></g><g transform="translate(1.603 0.05)"><path class="h" d="M141.059,72.29V75.8h-.537l-1.937-2.38V75.8h-.648V72.29h.537l1.938,2.379V72.29Z" transform="translate(-137.937 -72.29)"/></g><g transform="translate(5.149 0.05)"><path class="h" d="M149.323,72.29,147.791,75.8h-.643l-1.536-3.514h.708L147.49,75l1.18-2.711Z" transform="translate(-145.613 -72.29)"/></g><g transform="translate(8.946)"><path class="h" d="M153.831,73.988a1.895,1.895,0,1,1,1.893,1.807A1.8,1.8,0,0,1,153.831,73.988Zm3.128,0a1.235,1.235,0,1,0-1.235,1.235A1.2,1.2,0,0,0,156.959,73.988Z" transform="translate(-153.831 -72.181)"/></g><g transform="translate(13.426 0.05)"><path class="h" d="M163.528,72.29h.653V75.8h-.653Z" transform="translate(-163.528 -72.29)"/></g><g transform="translate(14.778)"><path class="h" d="M166.453,73.988a1.9,1.9,0,0,1,3.273-1.22l-.421.4a1.234,1.234,0,0,0-.939-.412,1.235,1.235,0,1,0,0,2.47,1.223,1.223,0,0,0,.939-.417l.421.4a1.9,1.9,0,0,1-3.273-1.22Z" transform="translate(-166.453 -72.181)"/></g><g transform="translate(18.68 0.05)"><path class="h" d="M177.535,75.257V75.8H174.9V72.29h2.565v.547h-1.912v.914h1.7v.537h-1.7v.969Z" transform="translate(-174.899 -72.29)"/></g></g><g transform="translate(51.645 20.592)"><g transform="translate(0 0.859)"><path class="h" d="M159.249,104.089a5.566,5.566,0,0,1-2.113,0,5.565,5.565,0,0,1,2.113,0Z" transform="translate(-157.136 -103.988)"/></g><g transform="translate(2.471)"><path class="h" d="M162.5,103.97a4.863,4.863,0,0,1,.706-1.841,4.864,4.864,0,0,1-.706,1.841Z" transform="translate(-162.484 -102.128)"/></g><g transform="translate(3.63 0.859)"><path class="h" d="M166.563,104.089c0,.056-.352.1-.785.1s-.785-.045-.785-.1.352-.1.785-.1S166.563,104.033,166.563,104.089Z" transform="translate(-164.992 -103.988)"/></g><g transform="translate(5.831 0.049)"><path class="h" d="M169.772,103.812a1.832,1.832,0,0,1,.195-.823c.16-.436.332-.773.384-.754a1.831,1.831,0,0,1-.195.823C170,103.494,169.825,103.831,169.772,103.812Z" transform="translate(-169.757 -102.234)"/></g><g transform="translate(6.663 0.859)"><path class="h" d="M174.7,104.089a12.249,12.249,0,0,1-3.142,0,12.247,12.247,0,0,1,3.142,0Z" transform="translate(-171.558 -103.988)"/></g></g><g transform="translate(3.475 30.705)"><rect class="d" width="60.326" height="4.164"/></g><g transform="translate(8.679 38.073)"><g transform="translate(0 0)"><path d="M77.09,140.066c0,.056-2.9.1-6.475.1s-6.476-.045-6.476-.1,2.9-.1,6.476-.1S77.09,140.01,77.09,140.066Z" transform="translate(-64.139 -139.965)"/></g></g><g transform="translate(37.165 38.211)"><path d="M131.443,140.364a19.79,19.79,0,0,1-2.824.1,19.794,19.794,0,0,1-2.825-.1,19.8,19.8,0,0,1,2.825-.1A19.8,19.8,0,0,1,131.443,140.364Z" transform="translate(-125.794 -140.263)"/></g><g transform="translate(49.521 37.866)"><g transform="translate(0 0)"><path d="M153.779,139.619c0,.056-.278.1-.62.1s-.62-.045-.62-.1.277-.1.62-.1S153.779,139.563,153.779,139.619Z" transform="translate(-152.539 -139.518)"/></g></g><g transform="translate(56.548 38.004)"><g transform="translate(0 0)"><path d="M172.776,139.917a31.433,31.433,0,0,1-5.029,0,31.3,31.3,0,0,1,5.029,0Z" transform="translate(-167.747 -139.816)"/></g></g><g transform="translate(8.679 43.86)"><path d="M83.772,152.591c0,.055-4.4.1-9.816.1s-9.817-.045-9.817-.1,4.394-.1,9.817-.1S83.772,152.535,83.772,152.591Z" transform="translate(-64.139 -152.49)"/></g><g transform="translate(37.165 43.929)"><path d="M130.41,152.74a26.5,26.5,0,0,1-4.616,0,26.378,26.378,0,0,1,4.616,0Z" transform="translate(-125.794 -152.639)"/></g><g transform="translate(49.245 43.86)"><path d="M153.733,152.591a4.033,4.033,0,0,1-1.791,0,4.014,4.014,0,0,1,1.791,0Z" transform="translate(-151.942 -152.49)"/></g><g transform="translate(56.065 43.722)"><path d="M171.526,152.293a28.787,28.787,0,0,1-4.823,0,28.913,28.913,0,0,1,4.823,0Z" transform="translate(-166.703 -152.192)"/></g><g transform="translate(34.766 50.251)"><g transform="translate(0.442 5.458)"><rect class="d" width="28.424" height="3.706"/></g><g transform="translate(15.875 0.125)"><path class="h" d="M161.719,166.7a28.454,28.454,0,0,1-3.378.1,28.452,28.452,0,0,1-3.379-.1,28.283,28.283,0,0,1,3.379-.1A28.285,28.285,0,0,1,161.719,166.7Z" transform="translate(-154.962 -166.594)"/></g><g transform="translate(15.875 2.61)"><path class="h" d="M161.719,172.073a28.278,28.278,0,0,1-3.378.1,28.276,28.276,0,0,1-3.379-.1,28.285,28.285,0,0,1,3.379-.1A28.286,28.286,0,0,1,161.719,172.073Z" transform="translate(-154.962 -171.972)"/></g><g transform="translate(3.322 2.61)"><path class="h" d="M134.549,172.073a28.278,28.278,0,0,1-3.378.1,28.283,28.283,0,0,1-3.379-.1,28.291,28.291,0,0,1,3.379-.1A28.286,28.286,0,0,1,134.549,172.073Z" transform="translate(-127.792 -171.972)"/></g><path class="h" d="M130.681,166.424c0,.056-2.256.1-5.039.1s-5.04-.045-5.04-.1,2.256-.1,5.04-.1S130.681,166.368,130.681,166.424Z" transform="translate(-120.602 -166.323)"/><g transform="translate(15.875 7.397)"><path class="g" d="M161.719,182.434a28.348,28.348,0,0,1-3.378.1,28.346,28.346,0,0,1-3.379-.1,28.281,28.281,0,0,1,3.379-.1A28.282,28.282,0,0,1,161.719,182.434Z" transform="translate(-154.962 -182.333)"/></g><g transform="translate(3.695 7.397)"><path class="g" d="M135.356,182.434a28.347,28.347,0,0,1-3.378.1,28.353,28.353,0,0,1-3.379-.1,28.287,28.287,0,0,1,3.379-.1A28.282,28.282,0,0,1,135.356,182.434Z" transform="translate(-128.599 -182.333)"/></g></g><g transform="translate(5.451 6.159)"><rect class="d" width="1.947" height="1.947" rx="0.974"/><g transform="translate(0.437 0.442)"><path class="d" d="M58.1,73.759v.025a.113.113,0,0,0,.113.113h1.87V71.959a.113.113,0,0,0-.113-.113h0a.113.113,0,0,0-.113.113v1.673l-1.644.014A.113.113,0,0,0,58.1,73.759Z" transform="translate(-58.099 -71.846)"/></g><g transform="translate(3.335 0.572)"><path class="d" d="M75.548,72.229c0,.055-2.5.1-5.588.1s-5.589-.045-5.589-.1,2.5-.1,5.589-.1S75.548,72.173,75.548,72.229Z" transform="translate(-64.371 -72.128)"/></g><g transform="translate(3.482 1.645)"><path class="d" d="M70.537,74.551a21.26,21.26,0,0,1-2.924.1,21.258,21.258,0,0,1-2.924-.1,21.2,21.2,0,0,1,2.924-.1A21.206,21.206,0,0,1,70.537,74.551Z" transform="translate(-64.689 -74.45)"/></g></g><path class="h" d="M112.978,143.855c0-.8-.036-35.036-.091-86.195l.091.091-67.516.011h-.007l.1-.1c-.006,31.954-.012,61.628-.018,86.195l-.084-.084,67.523.084-67.523.084h-.084v-.084c-.005-24.566-.011-54.24-.018-86.195v-.1h.109l67.516.011h.091v.091C113.015,108.819,112.979,143.06,112.978,143.855Z" transform="translate(-45.354 -57.559)"/><g transform="translate(3.554 22.015)"><g transform="translate(13.951 1.659)"><path class="h" d="M99.378,108.9c0,.056-3.613.1-8.068.1s-8.069-.045-8.069-.1,3.612-.1,8.069-.1S99.378,108.844,99.378,108.9Z" transform="translate(-83.242 -108.799)"/><g transform="translate(0 1.545)"><path class="h" d="M99.378,112.244c0,.056-3.613.1-8.068.1s-8.069-.045-8.069-.1,3.612-.1,8.069-.1S99.378,112.188,99.378,112.244Z" transform="translate(-83.242 -112.143)"/></g><g transform="translate(0 3.09)"><path class="h" d="M89.275,115.588a22.563,22.563,0,0,1-3.017.1,22.563,22.563,0,0,1-3.017-.1,22.715,22.715,0,0,1,3.017-.1A22.715,22.715,0,0,1,89.275,115.588Z" transform="translate(-83.242 -115.487)"/></g></g><path class="h" d="M83.384,105.309c0,.056-6.792.1-15.168.1s-15.17-.045-15.17-.1,6.791-.1,15.17-.1S83.384,105.253,83.384,105.309Z" transform="translate(-53.046 -105.208)"/></g><g transform="translate(8.472 32.686)"><g transform="translate(0 0)"><path class="g" d="M77.223,128.407c0,.056-3.029.1-6.765.1s-6.766-.045-6.766-.1,3.029-.1,6.766-.1S77.223,128.351,77.223,128.407Z" transform="translate(-63.691 -128.306)"/></g></g><g transform="translate(35.893 32.686)"><g transform="translate(0 0)"><path class="g" d="M130.2,128.407a31.75,31.75,0,0,1-3.58.1,31.749,31.749,0,0,1-3.58-.1,31.751,31.751,0,0,1,3.58-.1A31.752,31.752,0,0,1,130.2,128.407Z" transform="translate(-123.041 -128.306)"/></g></g><g transform="translate(47.986 32.686)"><g transform="translate(0 0)"><path class="g" d="M154.525,128.407a34.884,34.884,0,0,1-5.31,0,34.889,34.889,0,0,1,5.31,0Z" transform="translate(-149.215 -128.306)"/></g></g><g transform="translate(56.841 32.686)"><g transform="translate(0 0)"><path class="g" d="M173.693,128.407a34.884,34.884,0,0,1-5.31,0,34.89,34.89,0,0,1,5.31,0Z" transform="translate(-168.383 -128.306)"/></g></g><g transform="translate(4.34 62.4)"><path class="h" d="M113.344,192.738c0,.067-13.118.121-29.3.121s-29.3-.054-29.3-.121,13.116-.12,29.3-.12S113.344,192.672,113.344,192.738Z" transform="translate(-54.747 -192.618)"/></g><g transform="translate(5.084 68.099)"><path class="h" d="M82.388,205.075c0,.067-5.828.121-13.015.121s-13.016-.054-13.016-.121,5.826-.12,13.016-.12S82.388,205.009,82.388,205.075Z" transform="translate(-56.357 -204.955)"/></g><g transform="translate(5.084 70.249)"><path class="h" d="M76.537,209.727c0,.067-4.518.121-10.09.121s-10.091-.054-10.091-.121,4.517-.12,10.091-.12S76.537,209.661,76.537,209.727Z" transform="translate(-56.357 -209.607)"/></g><g transform="translate(5.084 72.398)"><path class="h" d="M73.277,214.38c0,.066-3.788.12-8.46.12s-8.46-.054-8.46-.12,3.787-.121,8.46-.121S73.277,214.313,73.277,214.38Z" transform="translate(-56.357 -214.259)"/></g><g transform="translate(41.266 65.595)"><path class="h" d="M154.648,203.5a.91.91,0,0,1-.161.047l-.477.115c-.42.1-1.04.238-1.841.409-1.6.34-3.927.8-6.817,1.28-1.445.238-3.031.478-4.738.706-.854.113-1.737.226-2.649.332l-1.387.157c-.235.024-.468.057-.717.067a1.416,1.416,0,0,1-.758-.152.737.737,0,0,1,.029-1.355,12.315,12.315,0,0,1,1.371-.658,14.325,14.325,0,0,1,6.222-1.064,6.563,6.563,0,0,1,1.648.257,2.734,2.734,0,0,1,1.434.934,2.061,2.061,0,0,1,.324,1.681,3.123,3.123,0,0,1-.805,1.483,6.651,6.651,0,0,1-1.288,1.022,12.879,12.879,0,0,1-1.394.8,3.139,3.139,0,0,1-1.569.351,1.787,1.787,0,0,1-1.35-.822,3.6,3.6,0,0,1-.505-1.455,9.834,9.834,0,0,1-.093-1.483,10.567,10.567,0,0,1,1.478-5.285,3.686,3.686,0,0,1,.8-1.02,1.163,1.163,0,0,1,1.235-.221,1.451,1.451,0,0,1,.75.957,2.231,2.231,0,0,1-.062,1.155,6.883,6.883,0,0,1-.406,1c-.147.317-.3.621-.453.915-.306.586-.62,1.126-.934,1.618a22.389,22.389,0,0,1-1.763,2.412c-.529.627-.969,1.088-1.276,1.391-.152.153-.274.263-.354.339a.867.867,0,0,1-.128.109.882.882,0,0,1,.11-.127l.337-.355c.3-.313.723-.783,1.238-1.417a23.337,23.337,0,0,0,1.721-2.424c.306-.492.613-1.031.912-1.617a13.207,13.207,0,0,0,.831-1.895,2.064,2.064,0,0,0,.054-1.063,1.275,1.275,0,0,0-.654-.833.973.973,0,0,0-1.037.2,3.506,3.506,0,0,0-.75.972,10.392,10.392,0,0,0-1.428,5.185,9.666,9.666,0,0,0,.095,1.447,3.389,3.389,0,0,0,.474,1.362,1.553,1.553,0,0,0,1.18.718,2.926,2.926,0,0,0,1.449-.333,12.654,12.654,0,0,0,1.365-.788,6.46,6.46,0,0,0,1.242-.985,2.886,2.886,0,0,0,.745-1.369,1.819,1.819,0,0,0-.283-1.489,2.5,2.5,0,0,0-1.312-.847,6.33,6.33,0,0,0-1.589-.248,14.149,14.149,0,0,0-6.121,1.038,12.248,12.248,0,0,0-1.339.638.518.518,0,0,0-.036.972,2.4,2.4,0,0,0,1.34.06l1.386-.151,2.646-.319c1.706-.219,3.292-.45,4.738-.676,2.89-.454,5.218-.892,6.825-1.2l1.849-.365.482-.092A.836.836,0,0,1,154.648,203.5Z" transform="translate(-134.671 -199.534)"/></g><g transform="translate(39.862 77.632)"><path class="h" d="M135.587,225.708a16.327,16.327,0,0,1-3.954,0,16.268,16.268,0,0,1,3.954,0Z" transform="translate(-131.633 -225.587)"/></g></g><g transform="translate(6.973)"><g transform="translate(0.13 0.408)"><path class="g" d="M120.32,136.5H52.88l-.055-85.888h67.523Z" transform="translate(-52.825 -50.611)"/></g><g transform="translate(0.101 0.101)"><rect class="c" width="67.523" height="16.53"/></g><g transform="translate(3.475 14.131)"><rect class="i" width="25.732" height="4.164"/></g><g transform="translate(3.475 34.869)"><rect class="f" width="60.326" height="5.98"/></g><g transform="translate(3.475 40.842)"><rect class="a" width="60.326" height="5.98"/></g><g transform="translate(6.228 15.47)"><g transform="translate(0 0.066)"><path class="g" d="M66.024,83.354h.116v1.094h-.116Z" transform="translate(-66.024 -83.354)"/></g><g transform="translate(0.449 0.332)"><path class="g" d="M67.752,84.282v.476H67.64v-.466a.229.229,0,0,0-.247-.262.27.27,0,0,0-.288.3v.431H67v-.822H67.1v.152a.346.346,0,0,1,.313-.158A.315.315,0,0,1,67.752,84.282Z" transform="translate(-66.995 -83.93)"/></g><g transform="translate(1.338 0.338)"><path class="g" d="M69.765,83.943l-.365.822h-.114l-.364-.822h.116l.308.7.311-.7Z" transform="translate(-68.921 -83.943)"/></g><g transform="translate(2.232 0.332)"><path class="g" d="M70.856,84.347a.418.418,0,1,1,.419.419A.4.4,0,0,1,70.856,84.347Zm.724,0a.306.306,0,1,0-.3.321A.3.3,0,0,0,71.58,84.347Z" transform="translate(-70.856 -83.93)"/></g><g transform="translate(3.271)"><path class="g" d="M73.1,83.29a.08.08,0,0,1,.081-.078.079.079,0,1,1,0,.158A.081.081,0,0,1,73.1,83.29Zm.025.26h.111v.822h-.111Z" transform="translate(-73.104 -83.212)"/></g><g transform="translate(3.634 0.332)"><path class="g" d="M73.889,84.347a.4.4,0,0,1,.424-.417.359.359,0,0,1,.322.162l-.083.056a.279.279,0,0,0-.239-.122.321.321,0,0,0,0,.641.277.277,0,0,0,.239-.12l.083.056a.363.363,0,0,1-.322.163A.406.406,0,0,1,73.889,84.347Z" transform="translate(-73.889 -83.93)"/></g><g transform="translate(4.501 0.332)"><path class="g" d="M76.563,84.381h-.688a.3.3,0,0,0,.324.286.324.324,0,0,0,.251-.108l.063.072a.434.434,0,0,1-.748-.285.4.4,0,0,1,.4-.417.391.391,0,0,1,.4.417C76.565,84.356,76.563,84.369,76.563,84.381Zm-.688-.083h.583a.292.292,0,0,0-.583,0Z" transform="translate(-75.765 -83.93)"/></g><g transform="translate(6.237 0.066)"><path class="g" d="M80.289,83.737l-.041.328h.222v.085h-.233l-.036.3h-.085l.036-.3h-.321l-.037.3H79.71l.036-.3h-.222v-.085h.233l.041-.328h-.224v-.086h.235l.036-.3h.086l-.038.3h.322l.036-.3h.085l-.036.3h.22v.086Zm-.085,0h-.321l-.042.328h.322Z" transform="translate(-79.524 -83.354)"/></g><g transform="translate(7.294 0.066)"><path class="g" d="M82.6,84.134c0,.183-.133.324-.4.324a.569.569,0,0,1-.394-.141l.055-.089a.479.479,0,0,0,.339.127c.182,0,.281-.084.281-.22s-.092-.217-.3-.217h-.078v-.083l.3-.38h-.56v-.1h.7v.08l-.31.389C82.486,83.835,82.6,83.959,82.6,84.134Z" transform="translate(-81.812 -83.354)"/></g><g transform="translate(8.225 0.066)"><path class="g" d="M84.775,84.161h-.219v.287h-.113v-.287h-.617v-.081l.58-.725h.125l-.56.706h.475v-.253h.11v.253h.219Z" transform="translate(-83.826 -83.354)"/></g><g transform="translate(9.224 0.066)"><path class="g" d="M86.778,84.126c0,.186-.13.332-.4.332a.565.565,0,0,1-.392-.141l.055-.089a.475.475,0,0,0,.336.127c.186,0,.284-.091.284-.224s-.087-.228-.365-.228h-.233l.056-.549h.6v.1h-.5l-.037.348h.141C86.653,83.8,86.778,83.932,86.778,84.126Z" transform="translate(-85.989 -83.354)"/></g><g transform="translate(10.156 0.056)"><path class="g" d="M88.828,84.111a.341.341,0,0,1-.373.336c-.291,0-.449-.2-.449-.547,0-.372.2-.566.5-.566a.5.5,0,0,1,.26.06l-.045.091a.384.384,0,0,0-.213-.052c-.236,0-.388.152-.388.449,0,.025,0,.056,0,.089a.35.35,0,0,1,.334-.188A.331.331,0,0,1,88.828,84.111Zm-.111,0c0-.144-.106-.236-.275-.236a.253.253,0,0,0-.281.239c0,.12.1.234.289.234A.239.239,0,0,0,88.717,84.114Z" transform="translate(-88.006 -83.334)"/></g><g transform="translate(11.055 0.056)"><path class="g" d="M90.752,84.337v.1h-.767v-.079l.455-.445c.123-.122.147-.2.147-.27,0-.127-.089-.205-.256-.205a.372.372,0,0,0-.3.122l-.08-.069a.493.493,0,0,1,.388-.156c.222,0,.363.113.363.3a.45.45,0,0,1-.18.342l-.372.366Z" transform="translate(-89.952 -83.334)"/></g></g><g transform="translate(51.645 20.591)"><g transform="translate(0 0.86)"><path class="h" d="M166.438,96.258a5.565,5.565,0,0,1-2.113,0,5.59,5.59,0,0,1,2.113,0Z" transform="translate(-164.325 -96.157)"/></g><g transform="translate(2.471)"><path class="h" d="M169.686,96.138a4.851,4.851,0,0,1,.706-1.841,4.864,4.864,0,0,1-.706,1.841Z" transform="translate(-169.674 -94.296)"/></g><g transform="translate(3.63 0.86)"><path class="h" d="M173.752,96.258c0,.056-.352.1-.785.1s-.786-.045-.786-.1a3.114,3.114,0,0,1,1.571,0Z" transform="translate(-172.181 -96.157)"/></g><g transform="translate(5.831 0.049)"><path class="h" d="M176.962,95.981a1.828,1.828,0,0,1,.195-.823c.16-.436.332-.773.385-.754a1.841,1.841,0,0,1-.195.823C177.187,95.663,177.014,96,176.962,95.981Z" transform="translate(-176.947 -94.403)"/></g><g transform="translate(6.664 0.86)"><path class="h" d="M181.89,96.258a12.245,12.245,0,0,1-3.142,0,12.3,12.3,0,0,1,3.142,0Z" transform="translate(-178.748 -96.157)"/></g></g><g transform="translate(3.475 30.705)"><rect class="i" width="60.326" height="4.164"/></g><g transform="translate(8.679 38.073)"><path d="M84.279,132.235c0,.056-2.9.1-6.475.1s-6.476-.045-6.476-.1,2.9-.1,6.476-.1S84.279,132.179,84.279,132.235Z" transform="translate(-71.328 -132.134)"/></g><g transform="translate(37.165 38.211)"><g transform="translate(0)"><path d="M138.633,132.533a19.919,19.919,0,0,1-2.824.1,19.923,19.923,0,0,1-2.825-.1,19.8,19.8,0,0,1,2.825-.1A19.8,19.8,0,0,1,138.633,132.533Z" transform="translate(-132.984 -132.432)"/></g></g><g transform="translate(49.521 37.866)"><path d="M160.968,131.787c0,.056-.278.1-.62.1s-.62-.045-.62-.1.278-.1.62-.1S160.968,131.731,160.968,131.787Z" transform="translate(-159.728 -131.686)"/></g><g transform="translate(56.548 38.004)"><path d="M179.966,132.086a31.291,31.291,0,0,1-5.029,0,31.437,31.437,0,0,1,5.029,0Z" transform="translate(-174.937 -131.985)"/></g><g transform="translate(8.679 43.86)"><path d="M90.961,144.76c0,.056-4.4.1-9.816.1s-9.817-.045-9.817-.1,4.395-.1,9.817-.1S90.961,144.7,90.961,144.76Z" transform="translate(-71.328 -144.659)"/></g><g transform="translate(37.165 43.929)"><g transform="translate(0)"><path d="M137.6,144.909a26.365,26.365,0,0,1-4.616,0,26.488,26.488,0,0,1,4.616,0Z" transform="translate(-132.984 -144.808)"/></g></g><g transform="translate(49.245 43.86)"><path d="M160.923,144.76a4.012,4.012,0,0,1-1.791,0,4.031,4.031,0,0,1,1.791,0Z" transform="translate(-159.132 -144.659)"/></g><g transform="translate(56.065 43.722)"><path d="M178.716,144.461a28.778,28.778,0,0,1-4.823,0,28.782,28.782,0,0,1,4.823,0Z" transform="translate(-173.893 -144.36)"/></g><g transform="translate(34.766 50.251)"><g transform="translate(0.442 5.457)"><rect class="i" width="28.424" height="3.706"/></g><g transform="translate(15.874 0.125)"><path class="h" d="M168.908,158.863a28.291,28.291,0,0,1-3.379.1,28.285,28.285,0,0,1-3.379-.1,28.287,28.287,0,0,1,3.379-.1A28.293,28.293,0,0,1,168.908,158.863Z" transform="translate(-162.151 -158.762)"/></g><g transform="translate(15.874 2.61)"><path class="h" d="M168.908,164.242a28.3,28.3,0,0,1-3.379.1,28.3,28.3,0,0,1-3.379-.1,28.465,28.465,0,0,1,3.379-.1A28.471,28.471,0,0,1,168.908,164.242Z" transform="translate(-162.151 -164.141)"/></g><g transform="translate(3.322 2.61)"><path class="h" d="M141.739,164.242a28.292,28.292,0,0,1-3.378.1,28.29,28.29,0,0,1-3.379-.1,28.459,28.459,0,0,1,3.379-.1A28.46,28.46,0,0,1,141.739,164.242Z" transform="translate(-134.982 -164.141)"/></g><g transform="translate(0)"><path class="h" d="M137.871,158.593c0,.056-2.257.1-5.039.1s-5.04-.045-5.04-.1,2.256-.1,5.04-.1S137.871,158.537,137.871,158.593Z" transform="translate(-127.792 -158.492)"/></g><g transform="translate(15.874 7.397)"><path class="g" d="M168.908,174.6a28.3,28.3,0,0,1-3.379.1,28.291,28.291,0,0,1-3.379-.1,28.471,28.471,0,0,1,3.379-.1A28.477,28.477,0,0,1,168.908,174.6Z" transform="translate(-162.151 -174.502)"/></g><g transform="translate(3.695 7.397)"><path class="g" d="M142.546,174.6a28.287,28.287,0,0,1-3.378.1,28.285,28.285,0,0,1-3.379-.1,28.465,28.465,0,0,1,3.379-.1A28.467,28.467,0,0,1,142.546,174.6Z" transform="translate(-135.789 -174.502)"/></g></g><g transform="translate(5.451 6.159)"><rect class="i" width="1.947" height="1.947" rx="0.974"/><g transform="translate(0.437 0.442)"><path class="i" d="M65.289,65.928v.024a.113.113,0,0,0,.113.113h1.87V64.128a.113.113,0,0,0-.113-.113h0a.113.113,0,0,0-.113.113V65.8l-1.644.014A.113.113,0,0,0,65.289,65.928Z" transform="translate(-65.289 -64.015)"/></g><g transform="translate(3.335 0.572)"><path class="i" d="M82.738,64.4c0,.056-2.5.1-5.588.1s-5.589-.045-5.589-.1,2.5-.1,5.589-.1S82.738,64.341,82.738,64.4Z" transform="translate(-71.561 -64.296)"/></g><g transform="translate(3.481 1.645)"><path class="i" d="M77.726,66.72a21.216,21.216,0,0,1-2.924.1,21.21,21.21,0,0,1-2.924-.1,21.341,21.341,0,0,1,2.924-.1A21.347,21.347,0,0,1,77.726,66.72Z" transform="translate(-71.878 -66.619)"/></g></g><path class="h" d="M120.168,136.023c0-.8-.037-35.035-.091-86.194l.091.091-67.516.01h-.007l.1-.1c-.006,31.954-.012,61.628-.018,86.194l-.084-.084,67.523.084-67.523.084h-.084v-.084c-.005-24.566-.011-54.24-.018-86.194v-.1h.109l67.516.01h.091v.091C120.205,100.988,120.169,135.229,120.168,136.023Z" transform="translate(-52.544 -49.728)"/><g transform="translate(3.554 22.014)"><g transform="translate(13.951 1.659)"><path class="h" d="M106.568,101.068c0,.056-3.613.1-8.068.1s-8.069-.045-8.069-.1,3.612-.1,8.069-.1S106.568,101.012,106.568,101.068Z" transform="translate(-90.432 -100.967)"/><g transform="translate(0 1.545)"><path class="h" d="M106.568,104.412c0,.056-3.613.1-8.068.1s-8.069-.045-8.069-.1,3.612-.1,8.069-.1S106.568,104.356,106.568,104.412Z" transform="translate(-90.432 -104.311)"/></g><g transform="translate(0 3.09)"><path class="h" d="M96.465,107.756a22.573,22.573,0,0,1-3.016.1,22.568,22.568,0,0,1-3.017-.1,22.565,22.565,0,0,1,3.017-.1A22.57,22.57,0,0,1,96.465,107.756Z" transform="translate(-90.432 -107.655)"/></g></g><path class="h" d="M90.573,97.477c0,.056-6.792.1-15.168.1s-15.169-.045-15.169-.1,6.79-.1,15.169-.1S90.573,97.421,90.573,97.477Z" transform="translate(-60.236 -97.376)"/></g><g transform="translate(8.472 32.686)"><path class="g" d="M84.413,120.576c0,.055-3.029.1-6.766.1s-6.766-.045-6.766-.1,3.029-.1,6.766-.1S84.413,120.52,84.413,120.576Z" transform="translate(-70.881 -120.475)"/></g><g transform="translate(35.893 32.686)"><g transform="translate(0)"><path class="g" d="M137.39,120.576a31.942,31.942,0,0,1-3.579.1,31.952,31.952,0,0,1-3.58-.1,31.748,31.748,0,0,1,3.58-.1A31.738,31.738,0,0,1,137.39,120.576Z" transform="translate(-130.231 -120.475)"/></g></g><g transform="translate(47.985 32.686)"><path class="g" d="M161.714,120.576a35.048,35.048,0,0,1-5.31,0,34.884,34.884,0,0,1,5.31,0Z" transform="translate(-156.404 -120.475)"/></g><g transform="translate(56.841 32.686)"><path class="g" d="M180.883,120.576a35.042,35.042,0,0,1-5.31,0,34.879,34.879,0,0,1,5.31,0Z" transform="translate(-175.573 -120.475)"/></g><g transform="translate(4.34 62.4)"><path class="h" d="M120.534,184.907c0,.066-13.119.12-29.3.12s-29.3-.054-29.3-.12,13.115-.12,29.3-.12S120.534,184.841,120.534,184.907Z" transform="translate(-61.937 -184.787)"/></g><g transform="translate(5.084 68.099)"><path class="h" d="M89.578,197.244c0,.067-5.828.12-13.015.12s-13.016-.054-13.016-.12,5.827-.121,13.016-.121S89.578,197.177,89.578,197.244Z" transform="translate(-63.547 -197.123)"/></g><g transform="translate(5.084 70.249)"><path class="h" d="M83.727,201.9c0,.067-4.518.12-10.09.12s-10.09-.054-10.09-.12,4.517-.12,10.09-.12S83.727,201.83,83.727,201.9Z" transform="translate(-63.547 -201.776)"/></g><g transform="translate(5.084 72.398)"><path class="h" d="M80.467,206.548c0,.067-3.788.121-8.46.121s-8.46-.054-8.46-.121,3.787-.12,8.46-.12S80.467,206.482,80.467,206.548Z" transform="translate(-63.547 -206.428)"/></g><g transform="translate(41.266 65.595)"><path class="h" d="M161.838,195.668a.846.846,0,0,1-.16.047l-.477.115c-.42.1-1.04.238-1.841.409-1.6.34-3.927.8-6.817,1.28-1.445.238-3.031.478-4.738.706-.853.114-1.737.227-2.648.332l-1.387.156c-.235.024-.468.057-.717.067a1.42,1.42,0,0,1-.758-.152.736.736,0,0,1,.029-1.355,12.289,12.289,0,0,1,1.371-.658,14.335,14.335,0,0,1,6.222-1.065,6.547,6.547,0,0,1,1.648.258,2.732,2.732,0,0,1,1.434.934,2.063,2.063,0,0,1,.324,1.681,3.125,3.125,0,0,1-.805,1.483,6.655,6.655,0,0,1-1.289,1.022,12.8,12.8,0,0,1-1.394.8,3.14,3.14,0,0,1-1.57.351,1.786,1.786,0,0,1-1.35-.822,3.606,3.606,0,0,1-.506-1.456,9.94,9.94,0,0,1-.093-1.483,10.568,10.568,0,0,1,1.478-5.285,3.69,3.69,0,0,1,.8-1.019,1.164,1.164,0,0,1,1.236-.221,1.451,1.451,0,0,1,.749.956,2.221,2.221,0,0,1-.062,1.155,6.857,6.857,0,0,1-.406,1c-.147.317-.3.621-.452.914-.307.586-.621,1.126-.934,1.618a22.36,22.36,0,0,1-1.763,2.413c-.529.627-.969,1.088-1.276,1.391-.152.153-.274.263-.355.34a.848.848,0,0,1-.127.109.9.9,0,0,1,.11-.126l.337-.356c.3-.313.723-.783,1.238-1.417a23.335,23.335,0,0,0,1.721-2.424c.306-.492.613-1.032.912-1.617a13.3,13.3,0,0,0,.831-1.895,2.067,2.067,0,0,0,.054-1.063,1.277,1.277,0,0,0-.655-.833.973.973,0,0,0-1.037.2,3.512,3.512,0,0,0-.75.971,10.394,10.394,0,0,0-1.428,5.185,9.729,9.729,0,0,0,.1,1.447,3.384,3.384,0,0,0,.474,1.362,1.551,1.551,0,0,0,1.18.718,2.917,2.917,0,0,0,1.448-.333,12.648,12.648,0,0,0,1.365-.788,6.423,6.423,0,0,0,1.242-.985,2.882,2.882,0,0,0,.745-1.369,1.821,1.821,0,0,0-.283-1.49,2.5,2.5,0,0,0-1.312-.847,6.336,6.336,0,0,0-1.589-.248,14.144,14.144,0,0,0-6.121,1.039,12.2,12.2,0,0,0-1.339.637.518.518,0,0,0-.036.972,2.4,2.4,0,0,0,1.339.061l1.386-.151,2.646-.32c1.706-.219,3.292-.449,4.737-.676,2.891-.454,5.218-.892,6.825-1.2l1.849-.365.481-.092A.844.844,0,0,1,161.838,195.668Z" transform="translate(-141.861 -191.703)"/></g><g transform="translate(5.639 83.12)"><path class="h" d="M123.925,229.757c0,.066-13.248.12-29.586.12s-29.589-.054-29.589-.12,13.245-.121,29.589-.121S123.925,229.69,123.925,229.757Z" transform="translate(-64.75 -229.636)"/></g><g transform="translate(39.862 77.632)"><g transform="translate(0)"><path class="h" d="M142.776,217.876a16.266,16.266,0,0,1-3.954,0,16.327,16.327,0,0,1,3.954,0Z" transform="translate(-138.822 -217.756)"/></g></g></g></g><g transform="translate(146.967 82.351)"><g transform="translate(0 0.091)"><path class="g" d="M368.638,200.536l4.7-8.282a22.192,22.192,0,1,1,5.315,5.912l.008.01Z" transform="translate(-368.638 -158.499)"/></g><path class="h" d="M368.638,200.429l10.008-2.419-.034.1-.008-.01-.278-.361.363.278a22.7,22.7,0,0,0,4.542,2.706,22.14,22.14,0,0,0,6.037,1.7,19.855,19.855,0,0,0,3.48.165c.6-.036,1.208-.052,1.822-.105l1.855-.286a22.175,22.175,0,0,0,13.695-8.829,21.871,21.871,0,0,0,3.694-8.472,22.365,22.365,0,0,0-.265-9.747,21.624,21.624,0,0,0-4.7-9.008l-.895-.985c-.294-.331-.645-.6-.963-.908-.333-.287-.634-.613-.993-.866l-1.052-.786a9.216,9.216,0,0,0-1.088-.72l-1.111-.675-1.163-.565a10.069,10.069,0,0,0-1.174-.523,22.378,22.378,0,0,0-9.821-1.516,21.644,21.644,0,0,0-9.022,2.654,22.3,22.3,0,0,0-10.441,12.8,23.833,23.833,0,0,0-.977,7.144,21.977,21.977,0,0,0,1.052,6.181,22.5,22.5,0,0,0,2.184,4.751l.018.03-.017.029-4.75,8.254,4.649-8.311v.059a22.452,22.452,0,0,1-2.22-4.768,22.039,22.039,0,0,1-1.083-6.22,23.951,23.951,0,0,1,.964-7.2,22.472,22.472,0,0,1,10.514-12.934,21.844,21.844,0,0,1,9.111-2.692,22.6,22.6,0,0,1,9.927,1.526,10.332,10.332,0,0,1,1.187.528l1.176.571,1.124.682a9.317,9.317,0,0,1,1.1.728l1.063.795c.362.256.667.585,1,.876.322.307.676.583.974.918l.9.995a21.849,21.849,0,0,1,4.747,9.107,22.578,22.578,0,0,1,.261,9.852,22.075,22.075,0,0,1-3.742,8.555,22.349,22.349,0,0,1-13.838,8.886l-1.872.283c-.619.052-1.234.067-1.837.1a19.913,19.913,0,0,1-3.507-.177,22.218,22.218,0,0,1-6.074-1.733,22.7,22.7,0,0,1-4.556-2.745l.084-.084.008.01.056.074-.091.021Z" transform="translate(-368.638 -158.301)"/><g transform="translate(14.338 14.749)"><path class="h" d="M413.927,198.816c-2.24,0-3.8-1.647-3.8-4.3s1.56-4.3,3.8-4.3,3.821,1.669,3.821,4.3S416.166,198.816,413.927,198.816Zm0-1.825c.944,0,1.6-.823,1.6-2.471s-.659-2.471-1.6-2.471c-.967,0-1.6.8-1.6,2.471S412.96,196.99,413.927,196.99Zm1.34,8.993h-2.614l-10.5-15.581h2.614Zm-11.772.178c-2.24,0-3.822-1.67-3.822-4.3s1.582-4.3,3.822-4.3c2.218,0,3.8,1.67,3.8,4.3S405.712,206.161,403.494,206.161Zm0-1.825c.944,0,1.6-.8,1.6-2.471s-.659-2.471-1.6-2.471c-.966,0-1.6.823-1.6,2.471S402.528,204.336,403.494,204.336Z" transform="translate(-399.672 -190.224)"/></g></g><g transform="translate(143.867 227.386)"><path class="h" d="M366.616,447.5h37.54l14.484-5.912v-1.476l-23.647.146-11.233,5.469-15.027-.246A2.084,2.084,0,0,0,366.616,447.5Z" transform="translate(-366.616 -440.113)"/><g transform="translate(19.019 1.459)"><path class="j" d="M440.785,443.288a1.925,1.925,0,0,1-.349.032l-1,.045-3.682.119-12.149.3-5.8.12.051-.013-7.227,3.85-2.088,1.09-.561.282a.974.974,0,0,1-.2.086.907.907,0,0,1,.182-.12l.543-.314,2.057-1.147,7.185-3.927.024-.013h.028l5.8-.134,12.151-.231,3.683-.043h1A1.913,1.913,0,0,1,440.785,443.288Z" transform="translate(-407.781 -443.271)"/></g></g><g transform="translate(37.567 74.143)"><g transform="translate(41.297 0.675)"><path class="h" d="M259.817,110.286c-5.931-1.291-12.288.7-17.038,4.482s-8.011,9.181-10.083,14.886a85.038,85.038,0,0,0-3.844,17.762q-2.019,14.971-2.883,30.069a8.305,8.305,0,0,0,.364,3.734,5.664,5.664,0,0,0,4.224,3.053,16.738,16.738,0,0,0,5.4-.13" transform="translate(-225.921 -109.893)"/><g transform="translate(33.289 2.856)"><path class="h" d="M306.407,116.122c4.613-.367,10.215,1.369,12.847,5.176,2.045,2.958,1.576,8.126,2.287,11.651a101.1,101.1,0,0,1,2.44,17.09c.176,6.331-.838,12.627-1.848,18.878l-3.351,20.731a28.992,28.992,0,0,1-2.462,8.969c-1.448,2.757-4.017,5.119-7.11,5.483a9.114,9.114,0,0,1-7.584-3.2,17.309,17.309,0,0,1-3.654-7.634" transform="translate(-297.973 -116.074)"/></g><g transform="translate(54.231 11.789)"><path class="h" d="M343.456,192.344c-.152-.074.075-.883.588-2.29s1.319-3.408,2.212-5.9a54.983,54.983,0,0,0,2.478-8.843,29.416,29.416,0,0,0,.007-10.984,98.956,98.956,0,0,0-3.043-10.911,53.35,53.35,0,0,1-2.184-9.271,22.307,22.307,0,0,1,.04-6.477c.27-1.513.625-2.293.772-2.262.377.064-.233,3.344.866,8.464a69.657,69.657,0,0,0,2.612,8.855,77.942,77.942,0,0,1,3.3,11.165c.2,1.034.329,2.073.424,3.1.036.517.078,1.029.078,1.539s.035,1.016,0,1.516a30.051,30.051,0,0,1-.7,5.692,44.893,44.893,0,0,1-3.077,9.054,56.658,56.658,0,0,1-2.944,5.66C344.113,191.747,343.6,192.416,343.456,192.344Z" transform="translate(-343.301 -135.41)"/></g></g><g transform="translate(55.043 4.293)"><path class="k" d="M257.176,135.868a19.43,19.43,0,0,1,21.362-18.062,20.005,20.005,0,0,1,17.949,20.562c-.284,9.079-.774,18.205-1.417,21.434-1.94,9.735-8.46,12.453-11.03,13.156a13.321,13.321,0,0,1-2.734.152h0a.066.066,0,0,0-.069.066l.125,11.612c-.364,7.525-5.753,13.3-13.413,12.977-7.686-.32-12.491-7.045-12.268-14.6Z" transform="translate(-255.673 -117.722)"/><g transform="translate(31.69 21.075)"><g transform="translate(1.756 3.877)"><path class="h" d="M331.273,173.222a1.581,1.581,0,0,1-1.605,1.527,1.536,1.536,0,0,1-1.6-1.491,1.581,1.581,0,0,1,1.6-1.528A1.538,1.538,0,0,1,331.273,173.222Z" transform="translate(-328.065 -171.73)"/></g><path class="h" d="M330.6,165.13c-.207.2-1.39-.737-3.117-.8-1.724-.092-3.023.729-3.2.513-.089-.1.128-.459.693-.831a4.44,4.44,0,0,1,2.573-.665,4.3,4.3,0,0,1,2.472.9C330.538,164.662,330.7,165.042,330.6,165.13Z" transform="translate(-324.263 -163.338)"/></g><g transform="translate(14.703 20.686)"><g transform="translate(2.594 3.885)"><path class="h" d="M296.319,172.4a1.581,1.581,0,0,1-1.605,1.527,1.537,1.537,0,0,1-1.6-1.491,1.581,1.581,0,0,1,1.6-1.528A1.538,1.538,0,0,1,296.319,172.4Z" transform="translate(-293.111 -170.904)"/></g><path class="h" d="M293.837,164.287c-.207.2-1.392-.737-3.118-.8-1.724-.091-3.023.729-3.2.513-.088-.1.126-.458.694-.83a4.444,4.444,0,0,1,2.573-.665,4.3,4.3,0,0,1,2.472.9C293.77,163.82,293.937,164.2,293.837,164.287Z" transform="translate(-287.496 -162.495)"/></g><g transform="translate(26.556 21.151)"><path class="h" d="M313.447,177.677a11.6,11.6,0,0,1,2.823-.38c.442-.027.863-.1.948-.388a2.177,2.177,0,0,0-.248-1.3q-.564-1.6-1.184-3.355c-1.64-4.774-2.81-8.693-2.615-8.755s1.684,3.758,3.324,8.533q.59,1.765,1.128,3.372a2.474,2.474,0,0,1,.167,1.711,1.093,1.093,0,0,1-.748.6,3.035,3.035,0,0,1-.753.071A11.418,11.418,0,0,1,313.447,177.677Z" transform="translate(-313.151 -163.501)"/></g><g transform="translate(10.715 50.371)"><path class="l" d="M293.713,231.761s-6.687.261-14.848-5.014c0,0,2.316,8.773,14.882,8.143Z" transform="translate(-278.865 -226.747)"/></g><g transform="translate(20.782 38.129)"><path class="l" d="M305.845,201.507a3.157,3.157,0,0,0-2.749-1.252,2.842,2.842,0,0,0-2,.953,1.745,1.745,0,0,0-.21,2.018,2.122,2.122,0,0,0,2.244.657,6.523,6.523,0,0,0,2.254-1.2,1.889,1.889,0,0,0,.512-.481.561.561,0,0,0,.02-.632" transform="translate(-300.653 -200.249)"/></g><g transform="translate(21.412 36.289)"><path class="h" d="M302.332,196.268c.281,0,.218,1.838,1.775,3.213s3.559,1.255,3.565,1.513c.022.116-.458.339-1.3.327a4.746,4.746,0,0,1-2.98-1.159,4,4,0,0,1-1.368-2.689C301.979,196.7,302.2,196.252,302.332,196.268Z" transform="translate(-302.017 -196.267)"/></g><g transform="translate(14.02 18.121)"><path class="h" d="M293.926,158.361c-.187.455-1.9.164-3.938.32-2.038.115-3.693.63-3.947.205-.113-.2.188-.625.864-1.045a6.613,6.613,0,0,1,2.953-.882,6.7,6.7,0,0,1,3.055.482C293.646,157.767,294.008,158.145,293.926,158.361Z" transform="translate(-286.018 -156.944)"/></g><g transform="translate(31.652 17.486)"><path class="h" d="M330.05,157.456c-.318.373-1.493-.076-2.923-.155-1.427-.128-2.651.149-2.916-.266-.115-.2.09-.579.633-.922a4.3,4.3,0,0,1,4.7.339C330.039,156.87,330.191,157.274,330.05,157.456Z" transform="translate(-324.18 -155.569)"/></g></g><g transform="translate(37.562 63.091)"><path class="k" d="M258.489,246.168s22.533,8.709,25.263,10.27a13.6,13.6,0,0,1,3.618,2.666l-15.839,15.015H241.109l-23.271-15.861,4.058-10.321,12.972-2.95" transform="translate(-217.838 -244.987)"/></g><g transform="translate(29.093 145.528)"><path class="l" d="M200.159,429.314a13.315,13.315,0,0,1-.517-5.9c.072,0,.02,1.332.166,2.957S200.228,429.3,200.159,429.314Z" transform="translate(-199.507 -423.416)"/></g><g transform="translate(0 66.041)"><g transform="translate(101.945 11.166)"><path class="i" d="M362.339,275.541l-4.144,2.745-1,73.419,19.817-11.219S367.159,277.064,362.339,275.541Z" transform="translate(-357.19 -275.541)"/></g><path class="i" d="M178.157,251.372s-15.227,1.016-18.78,6.345S144.4,313.8,144.4,313.8s-6.08,9.089-6.577,11.323c-.669,3.011-1.29,9.022-1.29,9.022l3.795,5.521,1.52,1.534s-1-17.027,16.765-12.062l5.076-.443,5.1-30.532,2.516,24.856-6.372,23.027,73.531-.041,2-81.373s-9.594,5.045-19.675,3.741C214.868,267.609,186.785,260.255,178.157,251.372Z" transform="translate(-136.537 -251.372)"/><g transform="translate(29.552 83.87)"><path class="m" d="M200.5,432.9" transform="translate(-200.499 -432.903)"/></g><g transform="translate(4.078 65.998)"><path class="h" d="M167.946,402.929c-.022.008-.161-.357-.464-.99a13.147,13.147,0,0,0-1.587-2.5,13.5,13.5,0,0,0-3.249-2.928,12.481,12.481,0,0,0-10.3-1.583,13.484,13.484,0,0,0-3.979,1.816,13.163,13.163,0,0,0-2.266,1.908c-.479.513-.721.82-.74.8a1.266,1.266,0,0,1,.16-.234,8.027,8.027,0,0,1,.511-.634,12.12,12.12,0,0,1,2.238-1.986,13.283,13.283,0,0,1,4.016-1.889,12.517,12.517,0,0,1,10.477,1.611,13.29,13.29,0,0,1,3.262,3.008,12.142,12.142,0,0,1,1.539,2.567,8.024,8.024,0,0,1,.3.758A1.246,1.246,0,0,1,167.946,402.929Z" transform="translate(-145.363 -394.22)"/></g><g transform="translate(14.027 59.601)"><path class="h" d="M179.767,393.49a5.816,5.816,0,0,1-.165-.758,16.711,16.711,0,0,0-.554-2.029,15.317,15.317,0,0,0-9.378-9.555,16.648,16.648,0,0,0-2.019-.592,5.853,5.853,0,0,1-.754-.18.661.661,0,0,1,.2.009c.131.017.325.032.572.079a13.507,13.507,0,0,1,2.056.523,14.888,14.888,0,0,1,9.484,9.662,13.491,13.491,0,0,1,.484,2.066c.042.247.054.442.068.572A.633.633,0,0,1,179.767,393.49Z" transform="translate(-166.897 -380.373)"/></g><g transform="translate(20.356 25.065)"><path class="h" d="M192.492,327.352a.97.97,0,0,1-.144-.208l-.371-.619c-.319-.54-.766-1.329-1.311-2.309-1.09-1.959-2.55-4.691-4.151-7.713s-3.064-5.751-4.157-7.707l-1.3-2.312-.352-.63a.989.989,0,0,1-.109-.228,1,1,0,0,1,.15.2l.391.607c.334.531.806,1.306,1.368,2.276,1.132,1.937,2.62,4.655,4.221,7.678l4.088,7.745,1.244,2.345.331.641A1.04,1.04,0,0,1,192.492,327.352Z" transform="translate(-180.595 -305.624)"/></g><g transform="translate(31.177 19.632)"><path class="h" d="M204.111,293.865a2.076,2.076,0,0,1,.02.362c0,.26.006.6.011,1.037.006.9.014,2.2.05,3.813.059,3.22.222,7.666.492,12.572s.595,9.346.853,12.556c.13,1.587.236,2.879.311,3.8.033.431.06.775.08,1.034a2.023,2.023,0,0,1,.012.362,2.035,2.035,0,0,1-.06-.357l-.125-1.03c-.1-.895-.24-2.191-.388-3.8-.3-3.208-.65-7.647-.924-12.558s-.407-9.361-.422-12.583c-.014-1.612,0-2.916.026-3.817.015-.432.026-.777.035-1.037A2.032,2.032,0,0,1,204.111,293.865Z" transform="translate(-204.016 -293.865)"/></g><g transform="translate(39.935 58.052)"><path class="h" d="M263.461,406.734a.536.536,0,0,1-.124-.042l-.356-.145-1.359-.578c-.591-.249-1.31-.563-2.131-.958s-1.77-.816-2.786-1.348l-1.6-.817c-.557-.286-1.123-.608-1.716-.929-1.192-.633-2.428-1.374-3.737-2.141-2.592-1.575-5.386-3.4-8.215-5.466-2.818-2.08-5.4-4.2-7.68-6.2-1.124-1.018-2.2-1.976-3.163-2.923-.484-.47-.961-.913-1.4-1.358l-1.26-1.286c-.813-.81-1.5-1.586-2.122-2.254s-1.139-1.256-1.554-1.745l-.958-1.124-.245-.3a.066.066,0,1,1,.019-.016l.262.28.992,1.093c.425.479.95,1.061,1.582,1.716s1.326,1.425,2.145,2.226l1.269,1.273c.443.441.923.88,1.409,1.346.965.939,2.046,1.889,3.172,2.9,2.284,1.988,4.863,4.1,7.676,6.17,2.822,2.06,5.606,3.888,8.186,5.47,1.3.771,2.533,1.517,3.718,2.156.59.324,1.153.65,1.707.94l1.595.829c1.009.541,1.951.976,2.767,1.378s1.527.733,2.112.995l1.34.619.346.166A.533.533,0,0,1,263.461,406.734Z" transform="translate(-222.972 -377.022)"/></g><g transform="translate(8.702 64.024)"><path class="h" d="M158.264,390.483l24.413,26.461,1.842,3.93-3.9-1.945-24.79-26.169a1.667,1.667,0,0,1,.151-2.434h0A1.666,1.666,0,0,1,158.264,390.483Z" transform="translate(-155.372 -389.946)"/></g><g transform="translate(101.74 35.539)"><path class="h" d="M357.887,328.293a.613.613,0,0,1,.008.139c0,.1,0,.239,0,.406-.007.374-.015.9-.026,1.56-.033,1.372-.079,3.328-.137,5.737-.117,4.859-.277,11.543-.455,18.927-.131,7.387-.249,14.073-.336,18.933-.043,2.41-.078,4.366-.1,5.738-.017.664-.03,1.186-.039,1.56-.006.167-.012.3-.016.406a.594.594,0,0,1-.014.138.579.579,0,0,1-.011-.138c0-.1,0-.239-.008-.406,0-.374,0-.9-.006-1.56.006-1.372.015-3.328.026-5.739.037-4.846.111-11.541.265-18.936s.36-14.084.525-18.927c.09-2.409.162-4.363.213-5.735.03-.664.054-1.186.071-1.559l.025-.405A.612.612,0,0,1,357.887,328.293Z" transform="translate(-356.745 -328.293)"/></g><g class="e" transform="translate(42.171 60.604)"><path d="M227.812,382.544s11.1,7.67,17.369,10.178,12.733,4.557,18.785,7.549c1.773.876,3.785,2.369,3.422,4.314a3.239,3.239,0,0,1-2.518,2.332,9.524,9.524,0,0,1-3.606-.061l-1.546-.1S240.048,396.647,227.812,382.544Z" transform="translate(-227.812 -382.544)"/></g><g transform="translate(101.804 67.62)"><path class="h" d="M372.509,397.739a7.035,7.035,0,0,1-.831.118,18.813,18.813,0,0,0-2.236.432,17.456,17.456,0,0,0-11.352,9.1,18.846,18.846,0,0,0-.908,2.089,7.047,7.047,0,0,1-.3.785.73.73,0,0,1,.04-.214c.037-.138.082-.344.167-.6a15.457,15.457,0,0,1,.845-2.134,16.957,16.957,0,0,1,11.464-9.189,15.389,15.389,0,0,1,2.267-.36c.27-.027.481-.026.623-.032A.742.742,0,0,1,372.509,397.739Z" transform="translate(-356.883 -397.73)"/></g><g class="e" transform="translate(101.77 65.372)"><path d="M356.811,407.046a17.586,17.586,0,0,1,10.77-13.8,3.734,3.734,0,0,1,1.994-.345,1.492,1.492,0,0,1,1.292,1.367c-.028,1-1.233,1.437-2.185,1.739a16.669,16.669,0,0,0-6.835,4.527,49.794,49.794,0,0,0-5.027,6.573" transform="translate(-356.811 -392.865)"/></g><g class="e" transform="translate(11.885 60.557)"><path d="M177.456,396.954a16.65,16.65,0,0,0-10.968-14.132,5.285,5.285,0,0,0-2.21-.361,2.281,2.281,0,0,0-1.836,1.143,2.362,2.362,0,0,0,.638,2.624,6.477,6.477,0,0,0,2.538,1.324c2.585.87,5.28,1.61,7.481,3.221s2.855,3.566,4.356,6.182" transform="translate(-162.261 -382.444)"/></g><g transform="translate(22.93 9.031)"><path class="n" d="M186.167,270.918" transform="translate(-186.167 -270.918)"/></g><g transform="translate(21.195 9.653)"><path class="f" d="M271.359,279.536s-.067.046-.2.126l-.614.348-1,.559c-.4.219-.849.484-1.384.733a62.7,62.7,0,0,1-9.229,3.779l-1.543.49-1.633.438c-.558.141-1.12.312-1.7.438l-1.787.385-.917.2-.94.157-1.926.321c-.653.093-1.32.161-1.995.245s-1.358.167-2.054.2l-2.112.151-2.165.057-1.1.023-1.112-.026c-.744-.025-1.5-.017-2.254-.071a65.229,65.229,0,0,1-9.311-1.2,68.607,68.607,0,0,1-9.044-2.522c-2.867-.993-5.583-2.082-8.153-3.155-5.135-2.16-9.714-4.2-13.641-5.718a50.851,50.851,0,0,0-9.484-2.985,14.125,14.125,0,0,0-2.694-.181c-.309.009-.545.026-.7.042s-.24.013-.24.013a6.675,6.675,0,0,1,.941-.1,13.448,13.448,0,0,1,2.71.136,49.364,49.364,0,0,1,9.532,2.919c3.94,1.5,8.53,3.524,13.665,5.672,2.57,1.066,5.285,2.149,8.145,3.137a68.885,68.885,0,0,0,9.016,2.509,65.544,65.544,0,0,0,9.274,1.2c.754.055,1.5.047,2.246.073l1.107.027,1.1-.02,2.158-.054,2.1-.146c.694-.036,1.375-.118,2.048-.2s1.337-.148,1.989-.238l1.92-.315.938-.153.915-.194,1.783-.378c.584-.122,1.145-.291,1.7-.43l1.631-.429,1.541-.481a65.192,65.192,0,0,0,9.239-3.7c.537-.242.991-.5,1.392-.712l1.012-.539.625-.327C271.283,279.567,271.359,279.536,271.359,279.536Z" transform="translate(-182.413 -272.266)"/></g><g transform="translate(17.488 21.073)"><path class="f" d="M187.822,301.778a2.7,2.7,0,0,1-.5-.273l-1.332-.809a33.222,33.222,0,0,0-4.531-2.384,14.869,14.869,0,0,0-4.947-1.158c-1.308-.057-2.113.113-2.119.066a2.271,2.271,0,0,1,.56-.129,9.185,9.185,0,0,1,1.564-.107,13.837,13.837,0,0,1,5.034,1.106,27.829,27.829,0,0,1,4.53,2.463c.552.36.991.662,1.293.875A2.589,2.589,0,0,1,187.822,301.778Z" transform="translate(-174.389 -296.983)"/></g><g transform="translate(31.396 30.464)"><path class="f" d="M276.3,324.71a1.122,1.122,0,0,1-.167.1l-.5.26-.817.415-1.139.517a41.726,41.726,0,0,1-7.573,2.465,52.856,52.856,0,0,1-11.739,1.271,74.952,74.952,0,0,1-14.385-1.486c-5.046-.973-9.766-2.286-14.027-3.556s-8.069-2.52-11.249-3.613-5.735-2.034-7.494-2.7l-2.02-.779-.523-.21a1.079,1.079,0,0,1-.175-.079,1.17,1.17,0,0,1,.184.056l.531.188,2.036.736c1.769.637,4.331,1.552,7.516,2.625s7,2.3,11.257,3.562,8.976,2.561,14.01,3.532a75.8,75.8,0,0,0,14.34,1.5,53.52,53.52,0,0,0,11.7-1.216,43.443,43.443,0,0,0,7.573-2.384l1.146-.5.826-.394.51-.238A1.1,1.1,0,0,1,276.3,324.71Z" transform="translate(-204.492 -317.31)"/></g><g transform="translate(102.662 30.411)"><path class="f" d="M369.165,317.2a13.638,13.638,0,0,1-1.574.477c-.974.279-2.314.685-3.754,1.242s-2.7,1.163-3.612,1.613a13.565,13.565,0,0,1-1.484.709,1.6,1.6,0,0,1,.363-.255c.241-.152.6-.359,1.042-.6a29.335,29.335,0,0,1,7.4-2.87c.5-.118.9-.205,1.178-.255A1.579,1.579,0,0,1,369.165,317.2Z" transform="translate(-358.74 -317.193)"/></g><g transform="translate(12.614 40.619)"><path class="f" d="M182.554,344.916a4.856,4.856,0,0,1-.66-.423c-.206-.145-.46-.319-.766-.505s-.64-.418-1.034-.635a28.789,28.789,0,0,0-2.8-1.447,28.095,28.095,0,0,0-7.4-2.155,28.681,28.681,0,0,0-3.142-.286c-.449-.029-.856-.016-1.213-.02s-.665,0-.917.015a4.977,4.977,0,0,1-.785,0,4.839,4.839,0,0,1,.779-.1c.251-.026.56-.05.919-.056s.768-.034,1.221-.016a25.689,25.689,0,0,1,3.169.237,26.459,26.459,0,0,1,7.456,2.172,25.628,25.628,0,0,1,2.8,1.5c.391.228.723.469,1.021.669s.547.384.745.541A4.884,4.884,0,0,1,182.554,344.916Z" transform="translate(-163.839 -339.288)"/></g><g transform="translate(32.649 50.477)"><path class="f" d="M276.787,368.779a1.149,1.149,0,0,1-.175.057l-.519.145c-.459.116-1.128.324-2.007.515a63.406,63.406,0,0,1-7.51,1.292,77.185,77.185,0,0,1-11.292.422,107.033,107.033,0,0,1-13.765-1.41,192.313,192.313,0,0,1-24.4-6.007c-3.076-.941-5.555-1.732-7.267-2.285l-1.969-.643-.51-.173a1.045,1.045,0,0,1-.171-.067,1,1,0,0,1,.178.043l.517.15,1.982.6,7.287,2.211a202.016,202.016,0,0,0,24.39,5.933,109.312,109.312,0,0,0,13.733,1.426,79.024,79.024,0,0,0,11.266-.37,68.1,68.1,0,0,0,7.507-1.214c.881-.177,1.553-.37,2.015-.471l.525-.122A1.009,1.009,0,0,1,276.787,368.779Z" transform="translate(-207.203 -360.626)"/></g><g transform="translate(102.656 46.382)"><path class="f" d="M372.651,351.769a2.634,2.634,0,0,1-.562.135l-1.539.312c-1.3.273-3.078.7-5,1.315s-3.628,1.292-4.844,1.82l-1.436.636a2.654,2.654,0,0,1-.537.215,2.691,2.691,0,0,1,.5-.3c.325-.18.806-.423,1.407-.707a40.171,40.171,0,0,1,9.885-3.147c.655-.116,1.187-.2,1.557-.237A2.717,2.717,0,0,1,372.651,351.769Z" transform="translate(-358.728 -351.763)"/></g><g transform="translate(9.529 55.622)"><path class="f" d="M176.824,381.018a8.429,8.429,0,0,1-.493-.765,18.642,18.642,0,0,0-1.459-1.99,17.462,17.462,0,0,0-14.364-6.289,18.649,18.649,0,0,0-2.452.279,8.584,8.584,0,0,1-.9.156.874.874,0,0,1,.223-.078c.149-.04.366-.111.654-.17a15.637,15.637,0,0,1,2.461-.356A17.062,17.062,0,0,1,175,378.155a15.651,15.651,0,0,1,1.407,2.05c.152.252.247.46.318.6A.894.894,0,0,1,176.824,381.018Z" transform="translate(-157.162 -371.761)"/></g><g transform="translate(34.941 71.253)"><path class="f" d="M235.731,409.956c-.012.066-5.3-.858-11.8-2.061s-11.774-2.233-11.762-2.3,5.3.857,11.805,2.061S235.744,409.891,235.731,409.956Z" transform="translate(-212.165 -405.594)"/></g><g transform="translate(64.616 78.99)"><path class="f" d="M313.154,423.148a2.193,2.193,0,0,1-.373.035l-1.071.051c-.93.041-2.277.083-3.941.119-3.328.073-7.929.1-13.008-.008s-9.676-.341-13-.56c-1.661-.109-3-.209-3.932-.291l-1.068-.1a2.18,2.18,0,0,1-.371-.05,2.167,2.167,0,0,1,.375,0l1.07.053,3.935.214c3.323.176,7.916.377,12.993.489s9.673.109,13,.078l3.941-.042,1.072-.006A2.241,2.241,0,0,1,313.154,423.148Z" transform="translate(-276.393 -422.341)"/></g><g transform="translate(102.161 63.526)"><path class="f" d="M375.253,388.961a4.244,4.244,0,0,1-.731.028c-.469,0-1.149.017-1.985.067s-1.831.152-2.926.318a30.42,30.42,0,0,0-6.921,1.943c-1.021.428-1.925.855-2.664,1.251s-1.331.729-1.73.976a4.284,4.284,0,0,1-.639.356,4.263,4.263,0,0,1,.589-.435c.385-.272.965-.633,1.7-1.046a27.4,27.4,0,0,1,2.659-1.306,28.162,28.162,0,0,1,6.974-1.958,27.464,27.464,0,0,1,2.95-.268c.843-.029,1.526-.022,2,.009A4.255,4.255,0,0,1,375.253,388.961Z" transform="translate(-357.656 -388.868)"/></g><g transform="translate(0.798 70.994)"><path class="f" d="M164.426,411.7c-.024.012-.2-.381-.613-1.035a10.369,10.369,0,0,0-2.159-2.431,12.675,12.675,0,0,0-4.228-2.285,14.371,14.371,0,0,0-5.845-.6,18.4,18.4,0,0,0-5.673,1.642,25.173,25.173,0,0,0-4.167,2.477c-1.119.814-1.979,1.536-2.561,2.047-.3.25-.514.458-.67.59a1.507,1.507,0,0,1-.243.2,1.5,1.5,0,0,1,.21-.231c.146-.143.354-.362.641-.625a29.381,29.381,0,0,1,2.523-2.114,24.214,24.214,0,0,1,4.174-2.541,18.273,18.273,0,0,1,5.74-1.681,14.377,14.377,0,0,1,5.941.63,12.58,12.58,0,0,1,4.27,2.366,9.876,9.876,0,0,1,2.128,2.512,6.653,6.653,0,0,1,.413.8A1.466,1.466,0,0,1,164.426,411.7Z" transform="translate(-138.265 -405.034)"/></g><g transform="translate(31.398 84.643)"><path class="f" d="M253.075,444.567a.528.528,0,0,1-.129,0l-.377-.018-1.447-.094c-1.257-.082-3.072-.237-5.313-.466s-4.9-.548-7.85-.972-6.175-.978-9.545-1.652-6.557-1.439-9.439-2.189-5.454-1.515-7.6-2.2c-1.077-.328-2.038-.667-2.887-.949s-1.575-.541-2.165-.759l-1.36-.5-.352-.136a.513.513,0,0,1-.117-.055.547.547,0,0,1,.126.031l.359.114,1.375.459c.6.2,1.324.452,2.177.72s1.816.6,2.895.914c2.149.666,4.726,1.4,7.6,2.151s6.066,1.484,9.431,2.167,6.59,1.22,9.53,1.668,5.6.776,7.836,1.022,4.048.431,5.3.541l1.443.139.375.042A.521.521,0,0,1,253.075,444.567Z" transform="translate(-204.495 -434.574)"/></g><g transform="translate(3.795 74.997)"><g transform="translate(18.023 0.654)"><path class="k" d="M183.759,415.113l6.53,2.092,2.428-.419,4.114,1.133a3.043,3.043,0,0,1,2.224,3.176,17.965,17.965,0,0,1-.562,3.182c-1,3.811-2.679,3.727-4.437,3.225s-2.567-1.935-2.707-4.191l-4.159-2.275Z" transform="translate(-183.759 -415.113)"/></g><g transform="translate(23.448 4.531)"><path class="l" d="M197.617,427.936a5.115,5.115,0,0,1-2.077-4.433,8.016,8.016,0,0,0,2.077,4.433Z" transform="translate(-195.5 -423.504)"/></g><path class="k" d="M154.928,413.936s-5.372.664-6.876,3.233-3.3,9.828-3.3,9.828l5.089,5.956s20.668.86,21.313,0-.225-1.8-.225-1.8,2.543,1.141,3.618.389a3.523,3.523,0,0,0,1.056-3.57,8.422,8.422,0,0,0-4.674-4.787,90.125,90.125,0,0,1-8.049-4.839s-3.868-3.868-4.62-4.405S154.928,413.936,154.928,413.936Z" transform="translate(-144.75 -413.697)"/><g transform="translate(8.471 5.694)"><path class="l" d="M180.792,437.779a.816.816,0,0,1-.22-.057l-.616-.208-2.251-.805c-1.9-.69-4.512-1.658-7.395-2.742a11.471,11.471,0,0,1-3.836-2.067,10.114,10.114,0,0,1-2.122-2.861,22.647,22.647,0,0,1-.975-2.189c-.1-.263-.178-.469-.227-.609a.819.819,0,0,1-.063-.219.8.8,0,0,1,.108.2l.268.592c.231.514.56,1.262,1.038,2.145a10.278,10.278,0,0,0,2.119,2.775,11.526,11.526,0,0,0,3.773,2.007c2.883,1.084,5.488,2.077,7.37,2.808l2.224.877.6.249A.8.8,0,0,1,180.792,437.779Z" transform="translate(-163.086 -426.022)"/></g><g transform="translate(8.697 15.706)"><path class="l" d="M170.287,451.664a4.967,4.967,0,0,1-1.059-.441c-.638-.306-1.5-.76-2.435-1.31s-1.746-1.091-2.322-1.5a4.962,4.962,0,0,1-.9-.717,6,6,0,0,1,.991.575c.6.374,1.424.89,2.349,1.438s1.775,1.023,2.391,1.367A5.957,5.957,0,0,1,170.287,451.664Z" transform="translate(-163.574 -447.691)"/></g><g transform="translate(3.947 6.408)"><path class="l" d="M153.48,436.389a.479.479,0,0,1-.021-.444,4.948,4.948,0,0,1,.671-.987,1.006,1.006,0,0,0,.176-.717,3.263,3.263,0,0,0-.286-.863,9.174,9.174,0,0,1-.663-2.076,3.994,3.994,0,0,1,.2-2.184,2.52,2.52,0,0,1,1.208-1.324,2.047,2.047,0,0,1,1.191-.211.864.864,0,0,1,.42.139c-.006.02-.155-.032-.429-.046a2.11,2.11,0,0,0-1.1.268,2.4,2.4,0,0,0-1.081,1.257,3.889,3.889,0,0,0-.171,2.061,9.7,9.7,0,0,0,.631,2.03,3.334,3.334,0,0,1,.28.927,1.182,1.182,0,0,1-.233.833,6.579,6.579,0,0,0-.725.925A1.058,1.058,0,0,0,153.48,436.389Z" transform="translate(-153.292 -427.566)"/></g><g transform="translate(12.825 5.834)"><path class="l" d="M175.835,426.334a5.718,5.718,0,0,0-3.317,3.323,1.552,1.552,0,0,1,.161-.712,4.386,4.386,0,0,1,2.445-2.449A1.559,1.559,0,0,1,175.835,426.334Z" transform="translate(-172.508 -426.325)"/></g></g><g transform="translate(29.277 83.806)"><path class="l" d="M205.172,437.188c.005.014-.1.069-.3.135a3.347,3.347,0,0,1-.876.152,3.879,3.879,0,0,1-4.075-3.509,3.344,3.344,0,0,1,.021-.889.761.761,0,0,1,.089-.314,10.928,10.928,0,0,0,.059,1.18,3.905,3.905,0,0,0,3.9,3.361A11.112,11.112,0,0,0,205.172,437.188Z" transform="translate(-199.905 -432.764)"/></g></g><g transform="translate(101.945 140.509)"><path class="k" d="M359.218,419.573l10.86-6.929a9.421,9.421,0,0,1,2.585,0,2.857,2.857,0,0,1,1.862,1.344l2.482.207,6.516,5.9,3.4.517.634,1.241-1.241,4.706s-3.1,3.17-5.378,1.921l-2.9.291-2.586-.291s.207,2.474-.724,2.474-2.482-.31-2.9-1.034a25.81,25.81,0,0,1-1.138-2.9l-2.482,2.585s-2.288,2.5-3.62,1.344c-1.125-.974-1.241-1.552-1.241-1.552h0a5.22,5.22,0,0,1-2.888-.31c-1.042-.621-2.7-.311-3.111-2.534S357.206,420.858,359.218,419.573Z" transform="translate(-357.19 -412.552)"/><g transform="translate(10.852 4.778)"><path class="l" d="M383.932,434.248a1.628,1.628,0,0,1-.211-.426,8.729,8.729,0,0,1-.385-1.234,36.833,36.833,0,0,1-.59-4.206,11.777,11.777,0,0,0-1.111-4.03,13.7,13.7,0,0,0-.954-1.458,1.56,1.56,0,0,1,.348.323,5.932,5.932,0,0,1,.755,1.053,10.846,10.846,0,0,1,1.2,4.081c.192,1.652.291,3.143.517,4.2C383.711,433.611,383.971,434.233,383.932,434.248Z" transform="translate(-380.679 -422.895)"/></g><g transform="translate(17.762 5.788)"><path class="l" d="M397.022,425.08c.037.014-.172.584-.429,1.525a20.33,20.33,0,0,0-.617,7.541c.1.97.214,1.566.176,1.574a1.469,1.469,0,0,1-.127-.409c-.069-.266-.145-.657-.217-1.144a17.193,17.193,0,0,1,.623-7.61c.151-.468.289-.842.4-1.093A1.482,1.482,0,0,1,397.022,425.08Z" transform="translate(-395.634 -425.08)"/></g><g transform="translate(17.899 11.073)"><path class="l" d="M397.686,436.546a2.792,2.792,0,0,0-1.725,1.762c-.029,0-.052-.158.005-.4a1.9,1.9,0,0,1,1.316-1.344C397.527,436.5,397.684,436.517,397.686,436.546Z" transform="translate(-395.932 -436.518)"/></g><g transform="translate(19.348 8.007)"><path class="l" d="M401.23,429.884a258.24,258.24,0,0,1-2.156,3.291,8.416,8.416,0,0,1,2.156-3.291Z" transform="translate(-399.067 -429.882)"/></g><g transform="translate(19.535 6.352)"><path class="l" d="M400.678,428.6c-.021.06-.627-.237-.973-.952a1.638,1.638,0,0,1-.157-1.353,3.957,3.957,0,0,0,1.13,2.3Z" transform="translate(-399.472 -426.3)"/></g><g transform="translate(23.26 7.644)"><path class="l" d="M407.536,437.425a10.888,10.888,0,0,1,.979-.986,7.015,7.015,0,0,0,1.833-2.706,6.805,6.805,0,0,0,.144-3.262,10.8,10.8,0,0,1-.2-1.374,6.3,6.3,0,0,1,.371,1.344,6.405,6.405,0,0,1-.084,3.369,6.581,6.581,0,0,1-1.944,2.753A6.328,6.328,0,0,1,407.536,437.425Z" transform="translate(-407.535 -429.096)"/></g><g transform="translate(26.074 11.282)"><path class="l" d="M414.367,440.868c-.02.019-.22-.143-.42-.5a2.619,2.619,0,0,1,.336-3c.275-.3.505-.418.521-.4s-.164.189-.389.5a2.828,2.828,0,0,0-.316,2.818C414.249,440.648,414.4,440.844,414.367,440.868Z" transform="translate(-413.624 -436.972)"/></g><g transform="translate(9.703 5.997)"><path class="l" d="M378.2,431.134a10.67,10.67,0,0,0,1.38-5.6,2.37,2.37,0,0,1,.138.86,7.416,7.416,0,0,1-1,4.044A2.349,2.349,0,0,1,378.2,431.134Z" transform="translate(-378.191 -425.532)"/></g><g transform="translate(8.501 7.465)"><path class="l" d="M376.116,432.143a12.548,12.548,0,0,1-.5-3.433,12.556,12.556,0,0,1,.5,3.433Z" transform="translate(-375.591 -428.71)"/></g><g transform="translate(6.857 9.053)"><path class="l" d="M375.443,440.517a4.075,4.075,0,0,0,.814-1.254,3.331,3.331,0,0,0,.177-1.585,2.887,2.887,0,0,0-.877-1.707c-.5-.492-1.089-.869-1.555-1.3a9.809,9.809,0,0,1-1.147-1.222,8.217,8.217,0,0,1-.639-.929,1.244,1.244,0,0,1-.181-.373c.034-.022.338.481.951,1.193a11.359,11.359,0,0,0,1.162,1.164c.46.411,1.045.777,1.577,1.3a3.045,3.045,0,0,1,.928,1.85,3.355,3.355,0,0,1-.238,1.676,2.721,2.721,0,0,1-.638.943A1.018,1.018,0,0,1,375.443,440.517Z" transform="translate(-372.032 -432.147)"/></g><g transform="translate(6.392 14.245)"><path class="l" d="M372.99,443.393c.012.036-.2.122-.5.328a2.875,2.875,0,0,0-1.28,2.376,3.562,3.562,0,0,1,0,.6c-.027.009-.135-.208-.173-.594a2.609,2.609,0,0,1,1.362-2.528C372.742,443.394,372.983,443.365,372.99,443.393Z" transform="translate(-371.025 -443.384)"/></g></g><g transform="translate(47.537)"><g transform="translate(0.59)"><path class="h" d="M261.517,125.168c-4.007,7.718-4.46,16.766-4.145,25.456s1.31,17.456-.11,26.035c-.559,3.376-1.492,6.788-.96,10.169.313,1.986,1.121,3.861,1.531,5.83a7.085,7.085,0,0,1-.876,5.776,5.676,5.676,0,0,1-5.483,1.835,9.876,9.876,0,0,1-5.148-3.049,21.311,21.311,0,0,1-5.28-11.942,63.517,63.517,0,0,1,.03-13.251q1.243-17.218,2.486-34.435c.359-4.964.744-10.042,2.752-14.6a25.365,25.365,0,0,1,10.353-11.313c5.345-3.178,12.265-4.558,17.774-1.673,1.838.962,3.609,2.808,3.173,4.837-.345,1.6-1.909,2.6-3.335,3.408l-14.1,8.027" transform="translate(-240.704 -108.431)"/></g><g transform="translate(14.252 15.304)"><path class="h" d="M270.314,204.988c-.152-.078.141-.969.742-2.53s1.5-3.8,2.427-6.6a44.348,44.348,0,0,0,2.147-10.013,47.732,47.732,0,0,0-.949-12.489,121.051,121.051,0,0,1-2-12.828,31.432,31.432,0,0,1,.967-10.748,17.629,17.629,0,0,1,3.331-6.5q.437-.482.783-.838a7.677,7.677,0,0,1,.64-.544c.36-.277.574-.391.633-.332s-.04.287-.275.66l-.446.671q-.244.412-.572.928A21,21,0,0,0,275.3,150.2a33.565,33.565,0,0,0-.407,10.15c.37,3.838,1.339,8.057,2.155,12.589a44.919,44.919,0,0,1,.786,13.126,39.487,39.487,0,0,1-2.756,10.385,50.15,50.15,0,0,1-3.181,6.422C271.032,204.316,270.457,205.062,270.314,204.988Z" transform="translate(-270.274 -141.554)"/></g><g transform="translate(0.096 3.346)"><path class="j" d="M239.635,133.635a2.441,2.441,0,0,1,.371-.137l1.074-.347c.468-.146,1.04-.327,1.7-.557s1.413-.468,2.233-.778c1.651-.588,3.593-1.352,5.722-2.264,2.122-.928,4.427-2.011,6.794-3.253s4.558-2.544,6.522-3.772,3.682-2.414,5.1-3.444c.719-.5,1.344-.989,1.9-1.4s1.033-.782,1.417-1.086l.893-.691a2.419,2.419,0,0,1,.322-.228,2.391,2.391,0,0,1-.292.266l-.865.726c-.376.316-.84.7-1.394,1.119s-1.171.924-1.885,1.435c-1.406,1.05-3.128,2.238-5.081,3.494s-4.16,2.542-6.528,3.8-4.687,2.325-6.819,3.244c-2.139.9-4.091,1.652-5.752,2.22-.825.3-1.585.53-2.248.746s-1.238.387-1.711.518l-1.089.3A2.456,2.456,0,0,1,239.635,133.635Z" transform="translate(-239.635 -115.673)"/></g><g transform="translate(0 5.936)"><path class="j" d="M239.427,138.372a2.508,2.508,0,0,1,.4-.076l1.139-.17.824-.117.973-.176c.7-.134,1.5-.256,2.364-.471l1.367-.31c.475-.11.961-.257,1.468-.391,1.019-.256,2.083-.614,3.208-.971a57.743,57.743,0,0,0,13.747-6.756c.97-.673,1.9-1.3,2.728-1.947.416-.32.83-.614,1.207-.924l1.081-.892c.7-.556,1.285-1.114,1.817-1.584l.735-.663.6-.58.83-.8a2.506,2.506,0,0,1,.3-.267,2.532,2.532,0,0,1-.267.3l-.8.831-.582.6c-.217.213-.463.435-.723.679-.524.48-1.1,1.049-1.8,1.615l-1.075.907c-.376.314-.787.613-1.2.938-.823.659-1.756,1.292-2.726,1.972a55.925,55.925,0,0,1-13.8,6.781c-1.131.353-2.2.7-3.226.953-.51.13-1,.273-1.477.379l-1.375.3c-.873.2-1.677.316-2.378.437-.351.056-.677.116-.979.158l-.828.1-1.146.125A2.477,2.477,0,0,1,239.427,138.372Z" transform="translate(-239.427 -121.279)"/></g><g transform="translate(6.099 21.801)"><path class="j" d="M253.324,217.4a.775.775,0,0,1-.034-.157l-.074-.465c-.061-.409-.158-1.013-.237-1.8a59.747,59.747,0,0,1-.351-6.65c-.012-2.813.163-6.162.51-9.863s.838-7.757,1.322-12.017c1-8.514,1.9-16.219,2.551-21.814.336-2.779.609-5.032.8-6.607.1-.768.175-1.37.23-1.795l.066-.466a.081.081,0,1,1,.024,0l-.042.469c-.044.426-.106,1.03-.185,1.8-.172,1.577-.419,3.834-.724,6.616-.636,5.6-1.513,13.305-2.481,21.822-.484,4.26-.986,8.314-1.34,12.01s-.55,7.036-.56,9.843a65.284,65.284,0,0,0,.274,6.64c.064.783.146,1.387.192,1.8.021.2.038.35.05.468A.836.836,0,0,1,253.324,217.4Z" transform="translate(-252.628 -155.617)"/></g><g transform="translate(12.367 19.674)"><path class="j" d="M266.662,189.268a2.368,2.368,0,0,1-.041-.388q-.027-.414-.072-1.113c-.058-.967-.123-2.367-.186-4.1-.127-3.462-.215-8.249-.143-13.536s.295-10.072.517-13.529c.111-1.729.214-3.127.3-4.092q.064-.7.1-1.111a2.36,2.36,0,0,1,.052-.386,2.356,2.356,0,0,1,0,.39q-.021.414-.057,1.113c-.054.991-.13,2.384-.223,4.1-.179,3.458-.372,8.239-.447,13.523s-.01,10.066.073,13.528c.046,1.713.083,3.108.109,4.1q.017.7.026,1.115A2.4,2.4,0,0,1,266.662,189.268Z" transform="translate(-266.194 -151.014)"/></g></g></g></g><g transform="translate(169.546 1516.854)"><g transform="translate(75.563 0)"><path class="c" d="M353.3,42.012A14.5,14.5,0,1,1,336.8,29.87,14.483,14.483,0,0,1,353.3,42.012Z" transform="translate(-324.461 -29.706)"/><g transform="translate(3.45 3.443)"><path class="b" d="M357.344,49.968a11.049,11.049,0,1,1-12.569-9.254A11.036,11.036,0,0,1,357.344,49.968Z" transform="translate(-335.368 -40.589)"/></g><g transform="translate(3.247 3.023)"><path class="a" d="M356.852,48.719a6.511,6.511,0,0,1-.487-1.27,11.732,11.732,0,0,0-1.765-3.159,11.293,11.293,0,0,0-1.746-1.767,11.077,11.077,0,0,0-2.422-1.48,10.826,10.826,0,0,0-3.008-.849,10.734,10.734,0,0,0-1.653-.088,10.8,10.8,0,0,0-3.345.612,10.759,10.759,0,0,0-1.515.667,10.829,10.829,0,0,0-2.513,1.859,11.056,11.056,0,0,0-1.741,2.242,11.336,11.336,0,0,0-1.007,2.271,11.728,11.728,0,0,0-.531,3.578,6.5,6.5,0,0,1-.005,1.36,3.236,3.236,0,0,1-.324-1.34,10.212,10.212,0,0,1,.284-3.762,11.069,11.069,0,0,1,2.767-4.894,10.642,10.642,0,0,1,1.23-1.1,10.76,10.76,0,0,1,1.443-.942,11.245,11.245,0,0,1,1.63-.733,11.32,11.32,0,0,1,3.608-.66,11.255,11.255,0,0,1,1.783.108,11.258,11.258,0,0,1,3.223.962,11.072,11.072,0,0,1,4.322,3.6,10.234,10.234,0,0,1,1.6,3.418A3.25,3.25,0,0,1,356.852,48.719Z" transform="translate(-334.727 -39.263)"/></g><g transform="translate(9.582 6.761)"><path class="a" d="M361.89,65.118l.315,1.9-1.7.28-.306-1.848a8.142,8.142,0,0,1-4.446-.657l.59-2.223a6.944,6.944,0,0,0,3.488.659l-.469-2.832c-1.958-.145-4.163-.425-4.565-2.85-.3-1.8.752-3.556,3.38-4.3l-.312-1.882,1.7-.281.306,1.848a7.769,7.769,0,0,1,3.612.464l-.5,2.226a7.049,7.049,0,0,0-2.74-.453l.477,2.882c1.954.129,4.127.414,4.522,2.8C365.534,62.616,364.5,64.355,361.89,65.118ZM358.955,57.9l-.4-2.407c-.864.352-1.139.9-1.047,1.463C357.607,57.553,358.169,57.791,358.955,57.9Zm3.592,3.6c-.1-.594-.643-.834-1.414-.968l.387,2.34C362.337,62.553,362.637,62.051,362.547,61.508Z" transform="translate(-354.753 -51.08)"/></g></g><g transform="translate(0 68.617)"><path class="c" d="M433.192,312.771a19.261,19.261,0,1,1-11.541-24.639A19.241,19.241,0,0,1,433.192,312.771Z" transform="translate(-395.827 -286.967)"/><g transform="translate(4.583 4.575)"><path class="b" d="M433.035,315.349a14.678,14.678,0,1,1-8.794-18.777A14.662,14.662,0,0,1,433.035,315.349Z" transform="translate(-404.561 -295.684)"/></g><g transform="translate(5.302 4.03)"><path class="a" d="M433.839,314.422a8.722,8.722,0,0,1,.238-1.792,15.584,15.584,0,0,0-.055-4.806,15.034,15.034,0,0,0-.916-3.171,14.684,14.684,0,0,0-1.888-3.264,14.4,14.4,0,0,0-2.972-2.9,14.242,14.242,0,0,0-1.873-1.151,15.6,15.6,0,0,0-2.09-.875,15.813,15.813,0,0,0-2.2-.535,14.323,14.323,0,0,0-2.192-.183,14.4,14.4,0,0,0-4.113.575,14.689,14.689,0,0,0-3.454,1.512,15.043,15.043,0,0,0-2.616,2.011,15.578,15.578,0,0,0-2.89,3.839,8.636,8.636,0,0,1-.869,1.584,4.3,4.3,0,0,1,.473-1.77,13.566,13.566,0,0,1,2.72-4.211,14.708,14.708,0,0,1,6.336-3.955,14.165,14.165,0,0,1,2.133-.5,14.356,14.356,0,0,1,2.282-.184,14.943,14.943,0,0,1,2.367.18,15.035,15.035,0,0,1,4.629,1.519A14.966,14.966,0,0,1,428.9,297.6a14.934,14.934,0,0,1,3.15,3.167,14.7,14.7,0,0,1,2.761,6.941,13.6,13.6,0,0,1-.3,5A4.305,4.305,0,0,1,433.839,314.422Z" transform="translate(-405.93 -294.646)"/></g><g transform="translate(10.883 9.417)"><path class="a" d="M423.515,323.518l-.838,2.415-2.156-.749.815-2.35a10.819,10.819,0,0,1-4.771-3.589l2.1-2.22a9.23,9.23,0,0,0,3.653,2.983l1.25-3.6c-2.192-1.412-4.589-3.139-3.519-6.223.793-2.286,3.135-3.672,6.677-2.878l.831-2.394,2.157.748-.816,2.351a10.319,10.319,0,0,1,3.921,2.834l-2,2.279a9.355,9.355,0,0,0-2.91-2.268l-1.272,3.667c2.2,1.391,4.553,3.1,3.5,6.143C429.356,322.911,427.042,324.283,423.515,323.518Zm1.152-10.281,1.062-3.062c-1.232-.138-1.9.331-2.149,1.042C423.318,311.971,423.823,312.606,424.667,313.236Zm1.905,6.486c.262-.756-.222-1.382-1.036-2.028l-1.033,2.977C425.664,320.808,426.332,320.412,426.572,319.722Z" transform="translate(-416.565 -304.912)"/></g></g></g></g></svg>