<svg xmlns="http://www.w3.org/2000/svg" width="209.097" height="218.56" viewBox="0 0 209.097 218.56"><defs><style>.a{fill:#f5f5f5;}.b{fill:#ececec;}.c{fill:#e1e1e1;}.d,.l{fill:#aed3f2;}.d,.e{stroke:#707070;}.d{stroke-width:0.4px;}.e,.q{fill:#d9a171;}.e,.h,.j,.y{stroke-width:0.5px;}.f{fill:#484b65;}.g,.h,.j{fill:#5e6178;}.h{stroke:#000;}.i,.y{fill:#f2e9e4;}.j{stroke:#12263f;}.k{fill:#fa9c66;}.m{mix-blend-mode:multiply;isolation:isolate;}.n{fill:#6595bf;}.o{fill:#fff;}.p{fill:#afafaf;}.r{fill:#344154;}.s{fill:#f7dcd7;}.t{fill:#c9b5b4;}.u{fill:#a18198;}.v{fill:#f7d9e9;}.w{fill:#102770;}.x{fill:#003666;}.y{stroke:#aca6a6;}.z{fill:#a66d58;}.aa{fill:#fbcdc8;}.ab{opacity:0.2;}.ac{fill:#fafafa;}</style></defs><g transform="translate(-199.377 -3639.75)"><g transform="translate(199.377 3731.567)"><path class="a" d="M408.937,5177.5a29.867,29.867,0,1,1-33.974-25.014A29.834,29.834,0,0,1,408.937,5177.5Z" transform="translate(-349.533 -5152.143)"/><g transform="translate(7.108 7.092)"><path class="b" d="M403.7,5180.34a22.761,22.761,0,1,1-25.891-19.062A22.736,22.736,0,0,1,403.7,5180.34Z" transform="translate(-358.428 -5161.02)"/></g><g transform="translate(6.69 6.228)"><path class="c" d="M403.48,5179.416a13.323,13.323,0,0,1-1-2.615,24.173,24.173,0,0,0-3.636-6.509,23.407,23.407,0,0,0-3.6-3.64,22.785,22.785,0,0,0-4.989-3.048,22.288,22.288,0,0,0-6.2-1.748,22.176,22.176,0,0,0-3.406-.182,22.17,22.17,0,0,0-6.89,1.261,22.184,22.184,0,0,0-3.121,1.375,22.378,22.378,0,0,0-5.177,3.829,22.784,22.784,0,0,0-3.586,4.618,23.319,23.319,0,0,0-2.074,4.679,24.15,24.15,0,0,0-1.094,7.372,13.3,13.3,0,0,1-.01,2.8,6.688,6.688,0,0,1-.667-2.761,21.059,21.059,0,0,1,.586-7.751,22.824,22.824,0,0,1,5.7-10.082,22.074,22.074,0,0,1,2.535-2.262,22.3,22.3,0,0,1,2.972-1.942,23.324,23.324,0,0,1,3.358-1.508,23.341,23.341,0,0,1,7.432-1.359,23.16,23.16,0,0,1,3.673.222,23.3,23.3,0,0,1,6.638,1.981,22.844,22.844,0,0,1,8.9,7.41,21.077,21.077,0,0,1,3.295,7.04A6.692,6.692,0,0,1,403.48,5179.416Z" transform="translate(-357.905 -5159.937)"/></g><g transform="translate(19.738 13.927)"><path class="c" d="M388.935,5198.49l.648,3.911-3.493.578-.63-3.806a16.771,16.771,0,0,1-9.158-1.354l1.215-4.579a14.32,14.32,0,0,0,7.186,1.357l-.966-5.834c-4.032-.3-8.576-.874-9.4-5.868-.612-3.7,1.55-7.326,6.964-8.868l-.642-3.876,3.492-.578.63,3.808a16.015,16.015,0,0,1,7.441.955l-1.034,4.585a14.532,14.532,0,0,0-5.645-.931l.984,5.938c4.026.267,8.5.854,9.316,5.776C396.442,5193.337,394.308,5196.919,388.935,5198.49Zm-6.047-14.858-.822-4.958c-1.78.726-2.346,1.858-2.156,3.012C380.113,5182.908,381.27,5183.4,382.888,5183.632Zm7.4,7.423c-.2-1.223-1.325-1.718-2.914-2l.8,4.82C389.855,5193.208,390.473,5192.172,390.288,5191.055Z" transform="translate(-374.233 -5169.573)"/></g></g><g transform="translate(204.093 3640)"><path class="d" d="M720.109,1212.129v-11.357H707.428a38.293,38.293,0,0,0-7.079-17.112l8.963-8.964-8.047-8.021-8.963,8.963a38.085,38.085,0,0,0-17.086-7.079v-12.681H663.833v12.681a38.661,38.661,0,0,0-17.086,7.079l-8.963-8.963-8.021,8.021,8.963,8.964a38.3,38.3,0,0,0-7.079,17.112H618.966v11.357h12.681a38.2,38.2,0,0,0,7.079,17.087l-8.963,8.963,8.021,8.047,8.963-8.963a38.656,38.656,0,0,0,17.086,7.079v12.681h11.383v-12.681a38.08,38.08,0,0,0,17.086-7.079l8.963,8.963,8.047-8.047-8.963-8.963a38.2,38.2,0,0,0,7.079-17.087Zm-29.055,7.792a25.449,25.449,0,0,1-15.839,11.281,25.764,25.764,0,0,1-11.383,0,24.43,24.43,0,0,1-7.766-3.26,25.324,25.324,0,0,1-11.281-15.813,25.637,25.637,0,0,1,0-11.357,25.282,25.282,0,0,1,11.281-15.839,24.97,24.97,0,0,1,7.766-3.234,25.755,25.755,0,0,1,11.383,0,25.365,25.365,0,0,1,7.792,3.234,25.722,25.722,0,0,1,11.281,15.839,25.652,25.652,0,0,1,0,11.357A25.362,25.362,0,0,1,691.055,1219.921Z" transform="translate(-521.929 -1146.421)"/><path class="e" d="M489.412,1147.221v-4.832h-5.4a16.292,16.292,0,0,0-3.012-7.281l3.814-3.814-3.424-3.413-3.814,3.814a16.206,16.206,0,0,0-7.27-3.012v-5.4h-4.843v5.4a16.451,16.451,0,0,0-7.27,3.012l-3.814-3.814-3.413,3.413,3.814,3.814a16.3,16.3,0,0,0-3.012,7.281h-5.4v4.832h5.4a16.255,16.255,0,0,0,3.012,7.27l-3.814,3.814,3.413,3.424,3.814-3.814a16.448,16.448,0,0,0,7.27,3.012v5.4h4.843v-5.4a16.2,16.2,0,0,0,7.27-3.012l3.814,3.814,3.424-3.424L481,1154.491a16.248,16.248,0,0,0,3.012-7.27Zm-12.362,3.315a10.828,10.828,0,0,1-6.739,4.8,10.953,10.953,0,0,1-4.843,0,10.394,10.394,0,0,1-3.3-1.387,10.776,10.776,0,0,1-4.8-6.729,10.9,10.9,0,0,1,0-4.832,10.755,10.755,0,0,1,4.8-6.739,10.623,10.623,0,0,1,3.3-1.376,10.953,10.953,0,0,1,4.843,0,10.791,10.791,0,0,1,3.315,1.376,10.944,10.944,0,0,1,4.8,6.739,10.914,10.914,0,0,1,0,4.832A10.793,10.793,0,0,1,477.05,1150.536Z" transform="translate(-399.426 -1123.288)"/><path class="f" d="M619.408,1231.642a7.327,7.327,0,1,0,7.329,7.329A7.328,7.328,0,0,0,619.408,1231.642Zm0,10.876a3.549,3.549,0,1,1,3.551-3.547A3.549,3.549,0,0,1,619.408,1242.518Z" transform="translate(-517.041 -1200.198)"/><path class="g" d="M603.786,1269.942h-33.8l-3.726,13.877h41.252Z" transform="translate(-484.519 -1227.383)"/><path class="h" d="M531.217,1306.084H427.547a12.756,12.756,0,0,0-12.743,12.743V1441.35a12.756,12.756,0,0,0,12.743,12.743h103.67a12.759,12.759,0,0,0,12.746-12.743V1318.827A12.759,12.759,0,0,0,531.217,1306.084Zm6.107,135.266a6.112,6.112,0,0,1-6.107,6.1H427.547a6.112,6.112,0,0,1-6.107-6.1V1318.827a6.112,6.112,0,0,1,6.107-6.1h103.67a6.112,6.112,0,0,1,6.107,6.1Z" transform="translate(-377.015 -1253.037)"/><path class="i" d="M553.555,1335.066V1457.59a6.112,6.112,0,0,1-6.107,6.1H443.778a6.112,6.112,0,0,1-6.107-6.1V1335.066a6.112,6.112,0,0,1,6.107-6.1h103.67A6.112,6.112,0,0,1,553.555,1335.066Z" transform="translate(-393.246 -1269.276)"/><g transform="translate(57.512 118.039)"><g transform="translate(0 4.155)"><path class="j" d="M485.742,1576.7l-2.976-5.674,50.855-26.671,6.249,14.1,19.242-13.568,3.692,5.236-25.626,18.069-6.641-14.985Z" transform="translate(-482.766 -1544.357)"/></g><path class="j" d="M732.336,1547.96l-3.078-9.745-8.1-6.23,19.785-1.946Z" transform="translate(-651.976 -1530.039)"/></g><path class="k" d="M569.316,1579.6s5.25-2.151,5.735.488c.666,3.619-3.876,3.234-6.639,1.582S569.316,1579.6,569.316,1579.6Z" transform="translate(-485.315 -1446.59)"/><path class="l" d="M515.229,1535.4a90.6,90.6,0,0,1-13.727.552,13.4,13.4,0,0,1-2.578-.418c-2.333-.689-4.829-5.384-6.614-9.5-1.483-3.417-2.474-6.439-2.474-6.439l1.706-7.508a.847.847,0,0,1,.071.048.285.285,0,0,1,.048.034l.011.011A27.134,27.134,0,0,1,502,1529.049l13.641,2.467S515.937,1534.149,515.229,1535.4Z" transform="translate(-430.273 -1399.259)"/><g class="m" transform="translate(61.341 112.863)"><path class="n" d="M505.85,1536.035a13.425,13.425,0,0,1-2.578-.417c-2.333-.69-4.829-5.384-6.614-9.5l-.134-.943-.563-12.955v-.015l.048.049.011.011A39.846,39.846,0,0,1,505.85,1536.035Z" transform="translate(-495.961 -1512.204)"/></g><g transform="translate(56.398 139.737)"><g transform="translate(0 24.615)"><rect class="o" width="14.145" height="20.802"/></g><g transform="translate(25.436 16.41)"><rect class="p" width="14.145" height="29.007"/></g><g transform="translate(50.871 8.205)"><rect class="q" width="14.145" height="37.212"/></g><g transform="translate(76.307)"><rect class="l" width="14.145" height="45.417"/></g></g><path class="l" d="M499.01,1800.16s6.909,1.556,6.772,3.477-10.615.961-10.615.961-.5-1.968.275-3.02S499.01,1800.16,499.01,1800.16Z" transform="translate(-433.942 -1603.732)"/><path class="l" d="M397.567,1789.516s5.186,4.822,4.1,6.414-9.656-4.514-9.656-4.514.556-1.953,1.757-2.471S397.567,1789.516,397.567,1789.516Z" transform="translate(-360.837 -1595.672)"/><path class="r" d="M477.217,1639.151s-2.087,2.288-7.106,1.013l-1.442-14.963-1.025-10.63-.082-.861-.536-5.585-.8-3.361-.261-1.08-.149-.615-4.4-18.324-.745-3.1.376-.652,4.52-7.769.38-.66,4.74,2.6,2.653,1.453s.071.51.186,1.4c.052.369.108.8.175,1.289.119.906.261,2,.417,3.245.075.6.156,1.222.235,1.874.525,4.128,1.144,9.289,1.613,13.931.011.119.022.239.037.358a78.141,78.141,0,0,1,.645,11.156C476.632,1609.951,477.217,1639.151,477.217,1639.151Z" transform="translate(-409.568 -1442.182)"/><path class="r" d="M428.97,1583.048s-.268.719-.734,1.941v0c-.592,1.576-1.509,3.987-2.582,6.759-1.874,4.851-8.536,20.481-8.7,20.794-.13.253-2.832,5.5-5.838,11.327-3.89,7.56-8.294,16.115-8.294,16.115a6.764,6.764,0,0,1-6.74-2.47L402.5,1622.2l1.807-4.311.153-.369,2.261-5.406,1.8-4.292.071-.272,3.081-11.733,3.6-13.708.164-.629,4.363-2.687,4.583-2.82.052.082,2.254,3.469Z" transform="translate(-363.728 -1444.606)"/><path class="s" d="M473.262,1539.4a8.287,8.287,0,0,1-.928.469,10.686,10.686,0,0,1-1.595.552,15.519,15.519,0,0,1-2.645.451,25.638,25.638,0,0,1-4.918-.078,37.181,37.181,0,0,1-3.778-.6c-.976-.213-1.569-.384-1.569-.384l3.051-27.464.261-2.347c.041-.007.078-.011.119-.019a18.83,18.83,0,0,1,6.174.142l0,0,.115.231c0,.008.008.019.011.026.246.484.533,1.054.846,1.676,1.8,3.592,4.445,8.909,4.445,9.106C472.856,1521.47,473.262,1539.4,473.262,1539.4Z" transform="translate(-407.554 -1397.63)"/><g class="m" transform="translate(59.78 112.726)"><path class="t" d="M497.232,1555.535c-4.616.574-6.546-1.993-6.546-1.993s.306-5.138.656-11.293c.194-3.342.4-6.987.574-10.265.242-4.389.428-8.134.469-9.665a35.441,35.441,0,0,0-1.8-10.421l.22-.168c0,.008.008.019.011.026.246.484.533,1.054.846,1.677,1.8,3.592,4.445,8.909,4.445,9.106,0,.305.406,18.239.406,18.239a8.335,8.335,0,0,1-.928.469c.525,4.128,1.144,9.289,1.613,13.931C497.206,1555.3,497.217,1555.416,497.232,1555.535Z" transform="translate(-490.581 -1511.729)"/></g><g class="m" transform="translate(38.769 151.214)"><path class="u" d="M432.593,1644.857s-5.533,15.206-14.412,25.884l1.807-4.311.153-.369,2.262-5.406,1.8-4.292.071-.272,3.081-11.733Z" transform="translate(-418.181 -1644.358)"/></g><path class="l" d="M443.983,1541.249c-1.17,5.444-2.552,9.933-3.771,10.388-3.04,1.14-4.181-1.595-9.423-2.66,0,0,0,0,0-.008a92.337,92.337,0,0,0,4.27-13.391,33.472,33.472,0,0,0,.894-6.666c.075-7.825-1.066-13.6.075-15.578a2.278,2.278,0,0,1,.231-.328,9.555,9.555,0,0,1,4.065-2.277c.559-.119,1.1-.209,1.621-.28.041-.007.078-.011.119-.019.186.354.633,1.2,1.185,2.306a46.3,46.3,0,0,1,3.268,7.892C447.019,1522.727,445.741,1533.071,443.983,1541.249Z" transform="translate(-388.361 -1398.083)"/><g transform="translate(65.397 151.818)"><path class="v" d="M512.189,1687.759a.558.558,0,0,1-.558-.547l-.548-27.185-1.143-12.98a.559.559,0,0,1,1.114-.1l1.147,13.037.549,27.2a.558.558,0,0,1-.547.57Z" transform="translate(-509.936 -1646.439)"/></g><path class="w" d="M490.609,1510.267c.03.063.063.127.1.194l0,0C490.672,1510.39,490.639,1510.327,490.609,1510.267Z" transform="translate(-430.821 -1397.966)"/><rect class="o" width="47.448" height="5.77" transform="translate(52.197 93.921)"/><rect class="o" width="47.448" height="5.77" transform="translate(52.197 105.472)"/><g class="m" transform="translate(56.654 159.642)"><path class="u" d="M487.474,1673.4l-5.216,23.377-1.025-10.63-.082-.861-.537-5.585-.8-3.361Z" transform="translate(-479.809 -1673.4)"/></g><path class="l" d="M499.807,1549.133a9.732,9.732,0,0,1-5.879.909s.149-3.867.317-8.808c.268-7.91.581-18.581.395-20.574-.175-1.871-1.6-5.257-2.772-7.787-.291-.626-.563-1.2-.8-1.681-.045-.09-.086-.175-.126-.257a13.322,13.322,0,0,1,1.457.369c.29.451.611.961.946,1.512,1.748,2.865,3.908,6.885,4.434,9.97C498.693,1528.155,499.807,1549.133,499.807,1549.133Z" transform="translate(-431.058 -1398.439)"/><path class="x" d="M463.62,1454.635c5.086,0,6.109,7.561,4.535,13.2l-12.343.73S452.95,1454.635,463.62,1454.635Z" transform="translate(-405.875 -1358.478)"/><rect class="o" width="47.448" height="10.755" transform="translate(52.197 74.662)"/><path class="k" d="M476.984,1493.415c-2.187,1.542-5.559-.108-5.559-.108l.414-6.051,2.563-.909,1.375-.488.473-.167.045.466.637,6.707Z" transform="translate(-417.204 -1380.522)"/><g class="m" transform="translate(54.59 105.169)"><path class="k" d="M477.834,1492.864a6.258,6.258,0,0,1-5.138-4.918l2.608-1.6,1.069-.656s.112.06.306.167c.134.078.309.179.518.3Z" transform="translate(-472.696 -1485.691)"/></g><path class="g" d="M472.807,1658.383l-13.328,3.294-2.075.514c-.045.011-.093.019-.138.03a2.27,2.27,0,0,1-2.608-1.688l-1.744-7.061a2.268,2.268,0,0,1,1.658-2.746l15.4-3.808a2.258,2.258,0,0,1,1.967.44,2.23,2.23,0,0,1,.779,1.218l1.744,7.061A2.268,2.268,0,0,1,472.807,1658.383Z" transform="translate(-404.018 -1494.914)"/><g transform="translate(53.437 149.788)"><path class="g" d="M468.784,1643.164l.367,1.483,1.447-.357-.367-1.483a.543.543,0,0,1,.021-.332.553.553,0,0,1,.381-.336l4.814-1.19a.554.554,0,0,1,.671.4l.367,1.483,1.447-.358-.367-1.483a2.046,2.046,0,0,0-2.476-1.491l-4.814,1.19a2.045,2.045,0,0,0-1.415,1.248A2.019,2.019,0,0,0,468.784,1643.164Z" transform="translate(-468.724 -1639.442)"/></g><path class="k" d="M474.971,1459.007s1.815,6.853,1.027,9.2-6.736,3.9-8.318-2.292,2.6-7.595,2.6-7.595Z" transform="translate(-414.293 -1361.095)"/><g class="m" transform="translate(53.901 96.739)"><path class="k" d="M477.1,1457.815a4.344,4.344,0,0,1-4.4,3.613l-.9,1.952-1.47-4.408,3.611-2.33Z" transform="translate(-470.324 -1456.642)"/></g><path class="x" d="M466.2,1466.915s.962,4.312-.466,7.419-2.845-3.379-2.845-3.379l.346-4.439Z" transform="translate(-411.144 -1366.911)"/><path class="k" d="M468.775,1477.526a1.511,1.511,0,1,0,1.266-1.722A1.511,1.511,0,0,0,468.775,1477.526Z" transform="translate(-415.311 -1373.492)"/><path class="x" d="M472.977,1457.815s-1.662,3.3-8.463,2.732l2.006-3.417s2.144-.487,2.226-.487S472.977,1457.815,472.977,1457.815Z" transform="translate(-412.299 -1359.903)"/><g class="m" transform="translate(42.432 137.496)"><path class="n" d="M442.27,1607.532l-.525,2.31s-7.422-4.4-10.943.634a92.358,92.358,0,0,0,4.27-13.391l2.347,1.244Z" transform="translate(-430.802 -1597.084)"/></g><g class="m" transform="translate(43.825 118.832)"><path class="n" d="M446.952,1532.772s-6.344,16.2,1.75,28.916l-5.181-5.209-7.917-11.169Z" transform="translate(-435.604 -1532.772)"/></g><path class="k" d="M471.87,1632.471s4.771,2.979,2.719,4.894c-2.831,2.642-4.875-3.179-4.875-3.179Z" transform="translate(-415.99 -1484.706)"/><path class="l" d="M440.468,1523.256l-6.295,14.038,8.045,14.877a5.2,5.2,0,0,1-3.548,2.506s-11.416-13.862-12.075-16.644c-.787-3.32,2.192-14.057,6.544-18.668Z" transform="translate(-385.294 -1404.424)"/><rect class="f" width="69.695" height="13.224" transform="translate(67.52 50.454)"/><g transform="translate(14.639 46.098)"><rect class="y" width="51.988" height="29.055" transform="translate(1.799 2.336)"/><rect class="q" width="4.484" height="19.759" transform="translate(4.909 8.805)"/><rect class="q" width="4.484" height="11.701" transform="translate(13.2 16.863)"/><rect class="q" width="4.484" height="16.863" transform="translate(21.491 11.701)"/><rect class="q" width="4.484" height="8.922" transform="translate(29.782 19.642)"/><rect class="q" width="4.484" height="6.633" transform="translate(46.365 21.931)"/><rect class="q" width="4.484" height="15.555" transform="translate(38.073 13.009)"/><path class="g" d="M388.281,1286.809H337.366a2.336,2.336,0,0,1-2.336-2.336h0a2.336,2.336,0,0,1,2.336-2.335h50.915a2.336,2.336,0,0,1,2.336,2.335h0A2.336,2.336,0,0,1,388.281,1286.809Z" transform="translate(-335.03 -1282.138)"/></g><g transform="translate(137.549 151.214)"><path class="q" d="M824.158,1661.343s-3.133-5.269-.712-9.4.142-8.33-1.922-7.476-3.346,4.058-5.909,4.2-4.415-1.994-6.764-.855.142,3.418-3.275,4.343,7.262,7.1,7.262,7.1l-.356,4.5Z" transform="translate(-791.455 -1644.357)"/><path class="z" d="M840.382,1688.314s-.214-5.126-4.415-5.055a26.382,26.382,0,0,0-8.03,2,3.857,3.857,0,0,0-1.921,5.6l.055.087Z" transform="translate(-806.041 -1671.969)"/><path class="q" d="M825.4,1730.828H758.567s2.134-25.183,19.411-32.99h0a25.208,25.208,0,0,1,6.6-1.944C791.935,1694.759,812.3,1697.983,825.4,1730.828Z" transform="translate(-758.567 -1680.807)"/><g transform="translate(26.826 23.902)"><path class="aa" d="M860,1737.319v-4.383a10.523,10.523,0,0,1,3.944,1.341l1.288-3.174A11.678,11.678,0,0,0,860,1729.53v-2.81h-2.578v2.864c-4.077.464-6.059,2.81-6.059,5.542,0,3.688,3.2,4.64,6.059,5.339v4.3a10.459,10.459,0,0,1-5-1.83l-1.416,3.146a12.191,12.191,0,0,0,6.42,2.062v2.81H860v-2.889c4.048-.489,6.006-2.81,6.006-5.489C866.01,1738.942,862.864,1737.99,860,1737.319Zm-2.578-.646c-1.134-.361-1.908-.853-1.908-1.755,0-.849.542-1.6,1.908-1.908Zm2.578,7.992v-3.559c1.109.389,1.854.878,1.854,1.78C861.858,1743.714,861.291,1744.384,860,1744.666Z" transform="translate(-851.006 -1726.72)"/></g><g class="m" transform="translate(0 17.031)"><path class="z" d="M801.379,1736.034H758.567s2.134-25.183,19.411-32.99h0S748.487,1732.5,801.379,1736.034Z" transform="translate(-758.567 -1703.044)"/></g></g><path class="q" d="M672.384,1382.573l10.221,4.277a8.064,8.064,0,0,1,6.027-4.308v-11.112A19.127,19.127,0,0,0,672.384,1382.573Z" transform="translate(-559.845 -1299.419)"/><path class="o" d="M718.728,1441.887a8.064,8.064,0,0,1-10.644,6.245l-6.117,9.376a19.133,19.133,0,0,0,27.887-15.62Z" transform="translate(-580.843 -1349.429)"/><path class="g" d="M677.609,1424.379a8.28,8.28,0,0,1-.114-1.354,8.094,8.094,0,0,1,.054-.945c.023-.182.05-.364.086-.545l-10.3-4.313a19.132,19.132,0,0,0,7.44,21.6l6.049-9.266A8.075,8.075,0,0,1,677.609,1424.379Z" transform="translate(-555.621 -1331.922)"/><path class="n" d="M760.713,1373.969H736.28v-24.528A25.564,25.564,0,0,1,760.713,1373.969Z" transform="translate(-605.198 -1283.812)"/></g><g transform="translate(292.888 3833.635) rotate(-43)"><g transform="translate(0 0)"><path class="q" d="M18.679,33.629,1.559,28.09A2.251,2.251,0,0,1,.11,25.255l7.665-23.7A2.251,2.251,0,0,1,10.61.11L21.468,3.622,27.07,15,21.514,32.179A2.252,2.252,0,0,1,18.679,33.629Z"/><g transform="translate(19.208 3.622)"><g transform="translate(0 0)"><path class="i" d="M2.26,0,.1,6.669A2.094,2.094,0,0,0,1.45,9.306l6.412,2.076Z"/></g></g><g class="ab" transform="translate(19.101 10.905)"><g transform="translate(0 0)"><path d="M.108,0A2.328,2.328,0,0,0,1.17,2.718a2.231,2.231,0,0,0,.2.116c.789.42,5.984,3.184,6.024,3.057L7.97,4.1,1.557,2.024S-.027,1.452.108,0Z"/></g></g></g><g transform="translate(10.042 6.983)"><g transform="translate(0 0)"><path class="ac" d="M7.921,2.571A26.69,26.69,0,0,1,3.91,1.446,26.734,26.734,0,0,1,0,.01,26.689,26.689,0,0,1,4.011,1.135,26.7,26.7,0,0,1,7.921,2.571Z"/></g></g><g transform="translate(8.823 10.757)"><g transform="translate(0 0)"><path class="ac" d="M13.036,4.223c-.028.086-2.969-.789-6.568-1.953S-.028.092,0,.006,2.968.795,6.568,1.959,13.064,4.137,13.036,4.223Z"/></g></g><g transform="translate(7.804 13.907)"><g transform="translate(0 0)"><path class="ac" d="M14.21,4.6c-.028.086-3.231-.874-7.155-2.143S-.027.091,0,.005,3.231.879,7.156,2.148,14.238,4.516,14.21,4.6Z"/></g></g><g transform="translate(6.843 16.877)"><g transform="translate(0 0)"><path class="ac" d="M14.21,4.6c-.028.086-3.231-.874-7.155-2.143S-.027.091,0,.005,3.231.879,7.156,2.149,14.238,4.516,14.21,4.6Z"/></g></g><g transform="translate(5.882 19.848)"><g transform="translate(0 0)"><path class="ac" d="M14.21,4.6c-.028.086-3.231-.874-7.154-2.143S-.028.091,0,.005,3.231.879,7.156,2.148,14.238,4.516,14.21,4.6Z"/></g></g><g transform="translate(4.921 22.819)"><g transform="translate(0 0)"><path class="ac" d="M14.21,4.6c-.028.086-3.231-.874-7.155-2.143S-.027.091,0,.005,3.231.879,7.156,2.149,14.238,4.516,14.21,4.6Z"/></g></g></g></g></svg>