<svg xmlns="http://www.w3.org/2000/svg" width="306.318" height="230.167" viewBox="0 0 306.318 230.167"><defs><style>.a,.g{fill:#aed3f2;}.a,.b,.c,.d,.f,.g,.h,.i,.j,.k,.l,.m,.n,.o,.p,.r,.u{stroke:#000;stroke-width:1.5px;}.a,.f,.k,.l,.m,.n,.o,.p,.u{stroke-miterlimit:10;}.b,.l{fill:#5e6178;}.b,.c,.d,.g,.h,.i,.j,.r{stroke-linecap:round;stroke-linejoin:round;}.c,.k{fill:#d9a171;}.d,.s{fill:#fff;}.e{fill:#a4a7a9;}.e,.q,.t{mix-blend-mode:multiply;isolation:isolate;}.f{fill:#444898;}.h,.n{fill:#8f9394;}.i,.m{fill:#d3d5d6;}.j{fill:#0076ae;}.o{fill:none;}.p{fill:#00388c;}.q{fill:#c2c4c6;}.r{fill:#009dde;}.s{opacity:0.3;}.t{fill:#a6a9ac;}.u{fill:#f2e9e4;}.v{fill:#1a1818;}</style></defs><g transform="translate(-42.264 -124.691)"><g transform="translate(269.877 141.435)"><path class="a" d="M323.1,167.375l-15.422-24.343-15.148,24.343h6.219V198.5h18.133V167.375Z" transform="translate(-292.532 -143.033)"/></g><g transform="translate(133.178 125.441)"><rect class="b" width="88.774" height="94.361" transform="translate(22.425)"/><rect class="c" width="127.357" height="166.648" transform="translate(0 49.39)"/><rect class="d" width="99.652" height="51.81" transform="translate(16.682 61.443)"/><path class="e" d="M160.529,193.019V244.83h99.652V193.019Zm93.665,46.664H166.516V198.167h87.678Z" transform="translate(-143.847 -131.577)"/><g transform="translate(16.682 120.908)"><rect class="f" width="28.876" height="16.363" transform="translate(0 70.77)"/><rect class="g" width="28.876" height="16.363" transform="translate(35.387 70.77)"/><rect class="h" width="28.876" height="16.363" transform="translate(70.776 70.77)"/><rect class="d" width="28.876" height="16.362" transform="translate(0)"/><rect class="d" width="28.876" height="16.362" transform="translate(0)"/><path class="e" d="M160.529,258.423v16.362h28.876V258.423Zm25.439,13.614h-22V261.172h22Z" transform="translate(-160.529 -258.423)"/><rect class="d" width="28.876" height="16.362" transform="translate(35.387)"/><rect class="d" width="28.876" height="16.362" transform="translate(70.776)"/><path class="e" d="M199.451,258.423v16.362h28.875V258.423Zm25.438,13.614h-22V261.172h22Z" transform="translate(-164.063 -258.423)"/><path class="e" d="M238.373,258.423v16.362h28.876V258.423Zm25.439,13.614h-22V261.172h22Z" transform="translate(-167.597 -258.423)"/><g transform="translate(0 23.59)"><rect class="d" width="28.876" height="16.362" transform="translate(0 0)"/><rect class="d" width="28.876" height="16.362" transform="translate(0 0)"/><path class="e" d="M160.529,284.369v16.362h28.876V284.369Zm25.439,13.614h-22V287.118h22Z" transform="translate(-160.529 -284.369)"/><rect class="d" width="28.876" height="16.362" transform="translate(35.387 0)"/><rect class="d" width="28.876" height="16.362" transform="translate(70.776 0)"/><path class="e" d="M199.451,284.369v16.362h28.875V284.369Zm25.438,13.614h-22V287.118h22Z" transform="translate(-164.063 -284.369)"/><path class="e" d="M238.373,284.369v16.362h28.876V284.369Zm25.439,13.614h-22V287.118h22Z" transform="translate(-167.597 -284.369)"/></g><rect class="d" width="28.876" height="16.363" transform="translate(0 46.519)"/><rect class="d" width="28.876" height="16.363" transform="translate(0 46.519)"/><path class="e" d="M160.529,309.587V325.95h28.876V309.587ZM185.968,323.2h-22V312.336h22Z" transform="translate(-160.529 -263.068)"/><rect class="d" width="28.876" height="16.363" transform="translate(35.387 46.519)"/><rect class="d" width="28.876" height="16.363" transform="translate(70.776 46.519)"/><path class="e" d="M199.451,309.587V325.95h28.875V309.587ZM224.889,323.2h-22V312.336h22Z" transform="translate(-164.063 -263.068)"/><path class="e" d="M238.373,309.587V325.95h28.876V309.587ZM263.812,323.2h-22V312.336h22Z" transform="translate(-167.597 -263.068)"/><path class="e" d="M160.529,336.26v16.363h28.876V336.26Zm25.439,13.614h-22V339.009h22Z" transform="translate(-160.529 -265.49)"/><path class="e" d="M199.451,336.26v16.363h28.875V336.26Zm25.438,13.614h-22V339.009h22Z" transform="translate(-164.063 -265.49)"/><path class="e" d="M238.373,336.26v16.363h28.876V336.26Zm25.439,13.614h-22V339.009h22Z" transform="translate(-167.597 -265.49)"/></g><rect class="b" width="5.753" height="166.648" transform="translate(5.353 49.39)"/></g><g transform="translate(257.43 224.15)"><rect class="i" width="90.401" height="116.12" transform="translate(0)"/><g transform="translate(9.409 8.667)"><rect class="j" width="36.186" height="2.48" transform="translate(0.487 56.331)"/><rect class="j" width="36.186" height="2.479" transform="translate(0.487 64.236)"/><rect class="j" width="36.186" height="2.48" transform="translate(0.487 72.141)"/><rect class="j" width="36.186" height="2.481" transform="translate(0.487 80.595)"/><rect class="j" width="73.267" height="2.48"/><rect class="j" width="73.267" height="2.48" transform="translate(0 7.904)"/><rect class="j" width="73.269" height="2.48" transform="translate(0.037 90.615)"/><rect class="j" width="73.269" height="2.48" transform="translate(0.037 98.52)"/><g transform="translate(3.01 16.061)"><path class="b" d="M322.963,276.5c0-.052,0-.1,0-.155a15.139,15.139,0,0,0-28.386-7.325l13.168,7.48Z" transform="translate(-292.691 -261.205)"/><path class="h" d="M308.071,277.739H292.507c0,.036,0,.07,0,.1a15.139,15.139,0,0,0,15.137,15.138c.145,0,.288-.007.432-.012Z" transform="translate(-292.502 -262.706)"/><path class="k" d="M324.283,277.739H309.115v15.242h.033a15.138,15.138,0,0,0,15.138-15.138C324.286,277.809,324.284,277.775,324.283,277.739Z" transform="translate(-294.01 -262.706)"/><path class="h" d="M309.076,276.492h15.2a14.782,14.782,0,0,0-7-12.674Z" transform="translate(-294.007 -261.442)"/><path class="g" d="M294.49,269.6a15.081,15.081,0,0,0-1.988,7.416h15.136Z" transform="translate(-292.502 -261.967)"/></g><g transform="translate(42.934 55.091)"><path class="g" d="M366.871,319.423c0-.051.006-.1.006-.155a15.141,15.141,0,0,0-28.389-7.325l13.17,7.479Z" transform="translate(-336.601 -304.133)"/><path class="h" d="M351.981,320.667H336.416c0,.036,0,.07,0,.1a15.138,15.138,0,0,0,15.138,15.139c.145,0,.286-.007.43-.012Z" transform="translate(-336.413 -305.634)"/><path class="l" d="M368.194,320.667H353.023v15.242h.036A15.139,15.139,0,0,0,368.2,320.77C368.2,320.737,368.194,320.7,368.194,320.667Z" transform="translate(-337.921 -305.634)"/><path class="h" d="M352.986,319.42h15.2a14.778,14.778,0,0,0-7.005-12.674Z" transform="translate(-337.918 -304.37)"/><path class="c" d="M338.4,312.528a15.093,15.093,0,0,0-1.987,7.417h15.136Z" transform="translate(-336.413 -304.895)"/></g><g transform="translate(41.046 15.51)"><path class="c" d="M364.795,275.889c0-.051,0-.1,0-.155a15.139,15.139,0,0,0-28.386-7.325l13.169,7.48Z" transform="translate(-334.525 -260.599)"/><path class="h" d="M349.9,277.132H334.34c0,.036,0,.07,0,.1a15.139,15.139,0,0,0,15.136,15.139c.146,0,.288-.007.432-.012Z" transform="translate(-334.336 -262.1)"/><path class="l" d="M366.116,277.132H350.948v15.243h.033a15.139,15.139,0,0,0,15.138-15.139C366.119,277.2,366.118,277.168,366.116,277.132Z" transform="translate(-335.844 -262.1)"/><path class="h" d="M350.91,275.885h15.2a14.78,14.78,0,0,0-7.005-12.674Z" transform="translate(-335.841 -260.836)"/><path class="g" d="M336.324,268.994a15.072,15.072,0,0,0-1.988,7.416h15.136Z" transform="translate(-334.336 -261.361)"/></g></g></g><g transform="translate(227.528 250.866)"><path class="a" d="M290.313,359.415l-11.255-53.678L267.8,359.415Z" transform="translate(-247.938 -267.236)"/><path class="m" d="M313.366,362.135l-11.255-26.446-11.253,26.446Z" transform="translate(-250.031 -269.956)"/><path class="k" d="M334.348,360.28l-11.931-45.019L311.842,360.28Z" transform="translate(-251.936 -268.101)"/><path class="m" d="M351.251,363.364l-7.826-14.135L335,363.364Z" transform="translate(-254.039 -271.185)"/><path class="l" d="M251.018,355.571V263.392h-5.064v97.242H345.7v-5.063Z" transform="translate(-245.954 -263.392)"/><path class="k" d="M278.786,360.33l-11.347-44.522-11.16,44.522Z" transform="translate(-246.891 -268.151)"/><path class="n" d="M302.69,361.667l-11.347-31.127-11.161,31.127Z" transform="translate(-249.062 -269.488)"/><path class="a" d="M325.741,361.073,314.4,323.992l-11.161,37.081Z" transform="translate(-251.155 -268.894)"/><path class="n" d="M342.643,362.885l-8.123-18.938L326.4,362.885Z" transform="translate(-253.258 -270.706)"/><path class="o" d="M255.541,315.729l11.15-17.685,3.662,3.287,7.592-15.5,14.9,37.406L298.9,316.2l4.471,7.682,5.322-13.4,3.6,4.46,5.686-11.581,5.581,8.607,4.522,18.937,5.5,7.2,3.912-5.36,3.756,9.038" transform="translate(-246.825 -265.429)"/><path class="p" d="M257.651,318.256a2.012,2.012,0,1,1-2.01-2.01A2.01,2.01,0,0,1,257.651,318.256Z" transform="translate(-246.651 -268.191)"/><path class="p" d="M269.732,299.251a2.142,2.142,0,1,1-2.141-2.142A2.141,2.141,0,0,1,269.732,299.251Z" transform="translate(-247.724 -266.453)"/><path class="p" d="M282.064,285.626a2.092,2.092,0,1,1-2.091-2.091A2.091,2.091,0,0,1,282.064,285.626Z" transform="translate(-248.853 -265.221)"/><path class="p" d="M304.922,319.049a2.114,2.114,0,1,1-2.114-2.113A2.113,2.113,0,0,1,304.922,319.049Z" transform="translate(-250.924 -268.253)"/><path class="p" d="M315.829,312.984a2.1,2.1,0,1,1-2.1-2.1A2.1,2.1,0,0,1,315.829,312.984Z" transform="translate(-251.917 -267.703)"/><path class="p" d="M326.124,305.106a2.117,2.117,0,1,1-2.117-2.117A2.118,2.118,0,0,1,326.124,305.106Z" transform="translate(-252.849 -266.987)"/><path class="p" d="M342.722,342.787a1.752,1.752,0,1,1-1.752-1.75A1.754,1.754,0,0,1,342.722,342.787Z" transform="translate(-254.422 -270.441)"/><path class="p" d="M336.965,334.935a1.815,1.815,0,1,1-1.815-1.817A1.814,1.814,0,0,1,336.965,334.935Z" transform="translate(-253.888 -269.722)"/><path class="p" d="M332.319,315.074a1.88,1.88,0,1,1-1.879-1.88A1.88,1.88,0,0,1,332.319,315.074Z" transform="translate(-253.454 -267.913)"/><path class="p" d="M347.149,337.057a1.633,1.633,0,1,1-1.634-1.633A1.634,1.634,0,0,1,347.149,337.057Z" transform="translate(-254.846 -269.932)"/></g><g transform="translate(93.611 141.438)"><path class="g" d="M129.235,167.376l-15.423-24.34-15.148,24.34h6.218V198.5h18.133V167.376Z" transform="translate(-98.664 -143.036)"/></g><g transform="translate(43.014 232.92)"><rect class="b" width="68.3" height="102.113"/><rect class="d" width="68.3" height="81.087" transform="translate(0 7.505)"/><path class="q" d="M43.014,251.907v81.087h68.3V251.907Zm64.6,76.69H46.716V256.3H107.61Z" transform="translate(-43.014 -244.402)"/><path class="d" d="M84.51,348.14a4.373,4.373,0,1,1-4.372-4.374A4.373,4.373,0,0,1,84.51,348.14Z" transform="translate(-45.987 -252.743)"/><path class="q" d="M80.137,343.766a4.374,4.374,0,1,0,4.372,4.374A4.373,4.373,0,0,0,80.137,343.766Zm0,7.084a2.709,2.709,0,1,1,2.709-2.709A2.709,2.709,0,0,1,80.137,350.85Z" transform="translate(-45.987 -252.743)"/></g><g transform="translate(83.012 258.942)"><g transform="translate(22.646 0)"><g transform="translate(0 53.015)"><path class="r" d="M111.914,342.7v6.749c0,6.251,12.186,10.663,26.72,10.663s27.569-5.291,27.543-10.541l.025-6.871Z" transform="translate(-111.914 -331.683)"/><g transform="translate(0.013)"><path class="r" d="M166.189,341.6c0,6.083-12.146,11.014-27.129,11.014s-27.132-4.932-27.132-11.014,12.146-11.014,27.132-11.014S166.189,335.515,166.189,341.6Z" transform="translate(-111.928 -330.583)"/><path class="d" d="M159.282,341.908c0,4.362-8.711,7.9-19.455,7.9s-19.458-3.536-19.458-7.9,8.712-7.9,19.458-7.9S159.282,337.546,159.282,341.908Z" transform="translate(-112.694 -330.894)"/><path class="q" d="M139.827,334.01c-10.746,0-19.458,3.536-19.458,7.9s8.712,7.9,19.458,7.9,19.455-3.536,19.455-7.9S150.571,334.01,139.827,334.01Zm0,14.786c-9.373,0-16.97-3.084-16.97-6.888s7.6-6.888,16.97-6.888,16.968,3.084,16.968,6.888S149.2,348.8,139.827,348.8Z" transform="translate(-112.694 -330.894)"/><path class="s" d="M118.6,340.258c1.091-3.256,6.645-5.432,13.573-6.674-.28-.025-.561-.046-.85-.062-7.625-.422-14.664,1.788-15.717,4.936-.564,1.682.7,3.289,3.159,4.487A5.51,5.51,0,0,1,118.6,340.258Z" transform="translate(-112.25 -330.845)"/><path class="t" d="M148.049,331.2c4.509,1.906,7.31,4.481,7.31,7.282,0,5.759-11.838,10.565-26.025,10.565a57.177,57.177,0,0,1-12.473-1.325c4.857,2.98,13.186,4.947,22.647,4.947,14.983,0,27.129-4.932,27.129-11.014C166.637,336.782,158.849,332.65,148.049,331.2Z" transform="translate(-112.376 -330.639)"/><path d="M150.327,338.421a6.467,6.467,0,0,0-2.462-1.175,15.215,15.215,0,0,0-3.164-.524c-1.1-.07-2.435-.106-3.966-.106h-5.005l.048,5.228-1.567.007v1.454l1.509.007,0,.46h-1.511V345.3h1.513l.005,2.931h3.979V345.3h8.126v-1.527h-8.126v-.466h1.8c1.377,0,2.64-.055,3.76-.161a14.052,14.052,0,0,0,3.106-.626,5.694,5.694,0,0,0,2.092-1.142,1.971,1.971,0,0,0,.716-1.416A2.048,2.048,0,0,0,150.327,338.421Zm-3.56,2.408a3.085,3.085,0,0,1-1.2.555,11.213,11.213,0,0,1-1.857.3c-.712.063-1.515.095-2.387.095h-1.615v-3.64h.694c1.053,0,1.988.02,2.779.059a15.008,15.008,0,0,1,2.086.237,3.724,3.724,0,0,1,1.407.526,1.149,1.149,0,0,1,.094,1.866Z" transform="translate(-113.951 -331.131)"/></g></g><g transform="translate(0 44.179)"><path class="r" d="M111.914,332.98v6.747c0,6.252,12.186,10.664,26.72,10.664S166.2,345.1,166.177,339.85l.025-6.87Z" transform="translate(-111.914 -321.965)"/><g transform="translate(0.013)"><path class="r" d="M166.189,331.88c0,6.082-12.146,11.012-27.129,11.012s-27.132-4.931-27.132-11.012,12.146-11.015,27.132-11.015S166.189,325.8,166.189,331.88Z" transform="translate(-111.928 -320.865)"/><path class="d" d="M159.282,332.191c0,4.361-8.711,7.9-19.455,7.9s-19.458-3.537-19.458-7.9,8.712-7.9,19.458-7.9S159.282,327.828,159.282,332.191Z" transform="translate(-112.694 -321.176)"/><path class="q" d="M139.827,324.292c-10.746,0-19.458,3.536-19.458,7.9s8.712,7.9,19.458,7.9,19.455-3.537,19.455-7.9S150.571,324.292,139.827,324.292Zm0,14.786c-9.373,0-16.97-3.084-16.97-6.887s7.6-6.889,16.97-6.889,16.968,3.084,16.968,6.889S149.2,339.078,139.827,339.078Z" transform="translate(-112.694 -321.176)"/><path class="s" d="M118.6,330.54c1.091-3.256,6.645-5.433,13.573-6.674-.28-.024-.561-.045-.85-.061-7.625-.422-14.664,1.788-15.717,4.936-.564,1.681.7,3.289,3.159,4.487A5.511,5.511,0,0,1,118.6,330.54Z" transform="translate(-112.25 -321.127)"/><path class="t" d="M148.049,321.479c4.509,1.907,7.31,4.481,7.31,7.282,0,5.76-11.838,10.565-26.025,10.565A57.177,57.177,0,0,1,116.861,338c4.857,2.981,13.186,4.947,22.647,4.947,14.983,0,27.129-4.931,27.129-11.012C166.637,327.064,158.849,322.932,148.049,321.479Z" transform="translate(-112.376 -320.921)"/><path d="M150.327,328.7a6.481,6.481,0,0,0-2.462-1.174,15.156,15.156,0,0,0-3.164-.523c-1.1-.072-2.435-.107-3.966-.107h-5.005l.048,5.227-1.567.008v1.453l1.509.008,0,.46h-1.511v1.527h1.513l.005,2.93h3.979v-2.93h8.126v-1.527h-8.126v-.466h1.8c1.377,0,2.64-.055,3.76-.162a14,14,0,0,0,3.106-.626,5.708,5.708,0,0,0,2.092-1.143,1.97,1.97,0,0,0,.716-1.415A2.051,2.051,0,0,0,150.327,328.7Zm-3.56,2.409a3.1,3.1,0,0,1-1.2.555,11.211,11.211,0,0,1-1.857.3c-.712.061-1.515.093-2.387.093h-1.615v-3.638h.694c1.053,0,1.988.019,2.779.057a15,15,0,0,1,2.086.238,3.709,3.709,0,0,1,1.407.526,1.149,1.149,0,0,1,.094,1.866Z" transform="translate(-113.951 -321.413)"/></g></g><g transform="translate(0 35.343)"><path class="r" d="M111.914,323.26v6.749c0,6.251,12.186,10.664,26.72,10.664s27.569-5.291,27.543-10.541l.025-6.872Z" transform="translate(-111.914 -312.246)"/><g transform="translate(0.013)"><path class="r" d="M166.189,322.16c0,6.083-12.146,11.014-27.129,11.014s-27.132-4.932-27.132-11.014,12.146-11.014,27.132-11.014S166.189,316.078,166.189,322.16Z" transform="translate(-111.928 -311.146)"/><path class="d" d="M159.282,322.471c0,4.363-8.711,7.9-19.455,7.9s-19.458-3.536-19.458-7.9,8.712-7.9,19.458-7.9S159.282,318.11,159.282,322.471Z" transform="translate(-112.694 -311.457)"/><path class="q" d="M139.827,314.573c-10.746,0-19.458,3.537-19.458,7.9s8.712,7.9,19.458,7.9,19.455-3.536,19.455-7.9S150.571,314.573,139.827,314.573Zm0,14.786c-9.373,0-16.97-3.084-16.97-6.888s7.6-6.887,16.97-6.887,16.968,3.084,16.968,6.887S149.2,329.359,139.827,329.359Z" transform="translate(-112.694 -311.457)"/><path class="s" d="M118.6,320.822c1.091-3.256,6.645-5.433,13.573-6.674-.28-.025-.561-.046-.85-.062-7.625-.422-14.664,1.789-15.717,4.936-.564,1.682.7,3.289,3.159,4.487A5.507,5.507,0,0,1,118.6,320.822Z" transform="translate(-112.25 -311.408)"/><path class="t" d="M148.049,311.76c4.509,1.907,7.31,4.481,7.31,7.283,0,5.76-11.838,10.565-26.025,10.565a57.177,57.177,0,0,1-12.473-1.325c4.857,2.98,13.186,4.947,22.647,4.947,14.983,0,27.129-4.932,27.129-11.014C166.637,317.344,158.849,313.213,148.049,311.76Z" transform="translate(-112.376 -311.202)"/><path d="M150.327,318.984a6.468,6.468,0,0,0-2.462-1.174,15.157,15.157,0,0,0-3.164-.524c-1.1-.071-2.435-.106-3.966-.106h-5.005l.048,5.227-1.567.007v1.455l1.509.006,0,.46h-1.511v1.528h1.513l.005,2.93h3.979v-2.93h8.126v-1.528h-8.126v-.466h1.8c1.377,0,2.64-.055,3.76-.162a14.051,14.051,0,0,0,3.106-.626,5.682,5.682,0,0,0,2.092-1.143,1.966,1.966,0,0,0,.716-1.414A2.051,2.051,0,0,0,150.327,318.984Zm-3.56,2.408a3.06,3.06,0,0,1-1.2.555,11.113,11.113,0,0,1-1.857.3c-.712.062-1.515.093-2.387.093h-1.615V318.7h.694c1.053,0,1.988.021,2.779.059a15.147,15.147,0,0,1,2.086.238,3.71,3.71,0,0,1,1.407.526,1.148,1.148,0,0,1,.094,1.865Z" transform="translate(-113.951 -311.694)"/></g></g><g transform="translate(0 26.507)"><path class="g" d="M111.914,313.543v6.748c0,6.251,12.186,10.663,26.72,10.663s27.569-5.291,27.543-10.541l.025-6.87Z" transform="translate(-111.914 -302.528)"/><g transform="translate(0.013)"><path class="r" d="M166.189,312.443c0,6.082-12.146,11.012-27.129,11.012s-27.132-4.931-27.132-11.012,12.146-11.015,27.132-11.015S166.189,306.36,166.189,312.443Z" transform="translate(-111.928 -301.428)"/><path class="d" d="M159.282,312.754c0,4.361-8.711,7.9-19.455,7.9s-19.458-3.536-19.458-7.9,8.712-7.9,19.458-7.9S159.282,308.391,159.282,312.754Z" transform="translate(-112.694 -301.739)"/><path class="q" d="M139.827,304.856c-10.746,0-19.458,3.535-19.458,7.9s8.712,7.9,19.458,7.9,19.455-3.536,19.455-7.9S150.571,304.856,139.827,304.856Zm0,14.785c-9.373,0-16.97-3.084-16.97-6.887s7.6-6.889,16.97-6.889,16.968,3.083,16.968,6.889S149.2,319.641,139.827,319.641Z" transform="translate(-112.694 -301.739)"/><path class="s" d="M118.6,311.1c1.091-3.257,6.645-5.433,13.573-6.675-.28-.024-.561-.045-.85-.061-7.625-.422-14.664,1.788-15.717,4.936-.564,1.682.7,3.289,3.159,4.487A5.507,5.507,0,0,1,118.6,311.1Z" transform="translate(-112.25 -301.69)"/><path class="t" d="M148.049,302.042c4.509,1.907,7.31,4.481,7.31,7.282,0,5.76-11.838,10.566-26.025,10.566a57.177,57.177,0,0,1-12.473-1.325c4.857,2.98,13.186,4.946,22.647,4.946,14.983,0,27.129-4.931,27.129-11.012C166.637,307.627,158.849,303.495,148.049,302.042Z" transform="translate(-112.376 -301.484)"/><path d="M150.327,309.265a6.494,6.494,0,0,0-2.462-1.174,15.216,15.216,0,0,0-3.164-.523c-1.1-.071-2.435-.106-3.966-.106h-5.005l.048,5.227-1.567.008v1.452l1.509.008,0,.46h-1.511v1.527h1.513l.005,2.931h3.979v-2.931h8.126v-1.527h-8.126v-.466h1.8c1.377,0,2.64-.055,3.76-.162a14,14,0,0,0,3.106-.626,5.681,5.681,0,0,0,2.092-1.142,1.966,1.966,0,0,0,.716-1.414A2.052,2.052,0,0,0,150.327,309.265Zm-3.56,2.409a3.086,3.086,0,0,1-1.2.555,11.216,11.216,0,0,1-1.857.3c-.712.062-1.515.094-2.387.094h-1.615v-3.639h.694c1.053,0,1.988.02,2.779.058a15,15,0,0,1,2.086.238,3.709,3.709,0,0,1,1.407.526,1.149,1.149,0,0,1,.094,1.866Z" transform="translate(-113.951 -301.976)"/></g></g><g transform="translate(0 17.671)"><path class="g" d="M111.914,303.824v6.748c0,6.252,12.186,10.664,26.72,10.664s27.569-5.291,27.543-10.541l.025-6.871Z" transform="translate(-111.914 -292.81)"/><g transform="translate(0.013)"><path class="r" d="M166.189,302.724c0,6.083-12.146,11.013-27.129,11.013s-27.132-4.931-27.132-11.013,12.146-11.014,27.132-11.014S166.189,296.642,166.189,302.724Z" transform="translate(-111.928 -291.71)"/><path class="d" d="M159.282,303.035c0,4.362-8.711,7.9-19.455,7.9s-19.458-3.536-19.458-7.9,8.712-7.9,19.458-7.9S159.282,298.673,159.282,303.035Z" transform="translate(-112.694 -292.021)"/><path class="q" d="M139.827,295.137c-10.746,0-19.458,3.536-19.458,7.9s8.712,7.9,19.458,7.9,19.455-3.536,19.455-7.9S150.571,295.137,139.827,295.137Zm0,14.785c-9.373,0-16.97-3.084-16.97-6.887s7.6-6.888,16.97-6.888,16.968,3.084,16.968,6.888S149.2,309.922,139.827,309.922Z" transform="translate(-112.694 -292.021)"/><path class="s" d="M118.6,301.385c1.091-3.256,6.645-5.433,13.573-6.674-.28-.025-.561-.045-.85-.062-7.625-.422-14.664,1.79-15.717,4.937-.564,1.681.7,3.289,3.159,4.487A5.511,5.511,0,0,1,118.6,301.385Z" transform="translate(-112.25 -291.972)"/><path class="t" d="M148.049,292.324c4.509,1.907,7.31,4.481,7.31,7.282,0,5.76-11.838,10.565-26.025,10.565a57.236,57.236,0,0,1-12.473-1.324c4.857,2.979,13.186,4.946,22.647,4.946,14.983,0,27.129-4.931,27.129-11.013C166.637,297.908,158.849,293.776,148.049,292.324Z" transform="translate(-112.376 -291.766)"/><path d="M150.327,299.547a6.481,6.481,0,0,0-2.462-1.174,15.157,15.157,0,0,0-3.164-.524c-1.1-.071-2.435-.106-3.966-.106h-5.005l.048,5.228-1.567.007v1.454l1.509.006,0,.46h-1.511v1.528h1.513l.005,2.93h3.979v-2.93h8.126V304.9h-8.126v-.466h1.8c1.377,0,2.64-.054,3.76-.161a14.052,14.052,0,0,0,3.106-.626,5.668,5.668,0,0,0,2.092-1.142,1.97,1.97,0,0,0,.716-1.415A2.051,2.051,0,0,0,150.327,299.547Zm-3.56,2.409a3.1,3.1,0,0,1-1.2.555,11.216,11.216,0,0,1-1.857.3c-.712.062-1.515.094-2.387.094h-1.615v-3.639h.694c1.053,0,1.988.019,2.779.058a15.147,15.147,0,0,1,2.086.238,3.724,3.724,0,0,1,1.407.526,1.149,1.149,0,0,1,.094,1.866Z" transform="translate(-113.951 -292.258)"/></g></g><g transform="translate(0 8.836)"><path class="g" d="M111.914,294.106v6.748c0,6.251,12.186,10.664,26.72,10.664s27.569-5.292,27.543-10.542l.025-6.87Z" transform="translate(-111.914 -283.092)"/><g transform="translate(0.013)"><path class="r" d="M166.189,293.006c0,6.083-12.146,11.013-27.129,11.013s-27.132-4.931-27.132-11.013,12.146-11.014,27.132-11.014S166.189,286.923,166.189,293.006Z" transform="translate(-111.928 -281.992)"/><path class="d" d="M159.282,293.317c0,4.361-8.711,7.9-19.455,7.9s-19.458-3.537-19.458-7.9,8.712-7.9,19.458-7.9S159.282,288.955,159.282,293.317Z" transform="translate(-112.694 -282.303)"/><path class="q" d="M139.827,285.418c-10.746,0-19.458,3.537-19.458,7.9s8.712,7.9,19.458,7.9,19.455-3.537,19.455-7.9S150.571,285.418,139.827,285.418Zm0,14.786c-9.373,0-16.97-3.084-16.97-6.887s7.6-6.888,16.97-6.888,16.968,3.083,16.968,6.888S149.2,300.2,139.827,300.2Z" transform="translate(-112.694 -282.303)"/><path class="s" d="M118.6,291.667c1.091-3.257,6.645-5.433,13.573-6.674-.28-.024-.561-.046-.85-.062-7.625-.421-14.664,1.788-15.717,4.937-.564,1.681.7,3.288,3.159,4.487A5.512,5.512,0,0,1,118.6,291.667Z" transform="translate(-112.25 -282.254)"/><path class="t" d="M148.049,282.606c4.509,1.907,7.31,4.482,7.31,7.282,0,5.759-11.838,10.565-26.025,10.565a57.177,57.177,0,0,1-12.473-1.325c4.857,2.981,13.186,4.947,22.647,4.947,14.983,0,27.129-4.931,27.129-11.013C166.637,288.19,158.849,284.059,148.049,282.606Z" transform="translate(-112.376 -282.048)"/><path d="M150.327,289.829a6.48,6.48,0,0,0-2.462-1.174,15.153,15.153,0,0,0-3.164-.524c-1.1-.071-2.435-.106-3.966-.106h-5.005l.048,5.227-1.567.008v1.453l1.509.008,0,.459h-1.511v1.528h1.513l.005,2.93h3.979v-2.93h8.126V295.18h-8.126v-.466h1.8c1.377,0,2.64-.055,3.76-.162a14,14,0,0,0,3.106-.626,5.693,5.693,0,0,0,2.092-1.142,1.968,1.968,0,0,0,.716-1.416A2.049,2.049,0,0,0,150.327,289.829Zm-3.56,2.409a3.1,3.1,0,0,1-1.2.556,11.4,11.4,0,0,1-1.857.3c-.712.061-1.515.093-2.387.093h-1.615v-3.639h.694c1.053,0,1.988.019,2.779.057a15.147,15.147,0,0,1,2.086.238,3.708,3.708,0,0,1,1.407.526,1.148,1.148,0,0,1,.094,1.865Z" transform="translate(-113.951 -282.54)"/></g></g><path class="g" d="M111.914,284.387v6.749c0,6.251,12.186,10.663,26.72,10.663s27.569-5.291,27.543-10.541l.025-6.871Z" transform="translate(-111.914 -273.374)"/><g transform="translate(0.013)"><path class="g" d="M166.189,283.287c0,6.083-12.146,11.014-27.129,11.014s-27.132-4.932-27.132-11.014,12.146-11.013,27.132-11.013S166.189,277.2,166.189,283.287Z" transform="translate(-111.928 -272.274)"/><path class="d" d="M159.282,283.6c0,4.362-8.711,7.9-19.455,7.9s-19.458-3.536-19.458-7.9,8.712-7.9,19.458-7.9S159.282,279.236,159.282,283.6Z" transform="translate(-112.694 -272.585)"/><path class="q" d="M139.827,275.7c-10.746,0-19.458,3.536-19.458,7.9s8.712,7.9,19.458,7.9,19.455-3.536,19.455-7.9S150.571,275.7,139.827,275.7Zm0,14.785c-9.373,0-16.97-3.084-16.97-6.887s7.6-6.887,16.97-6.887,16.968,3.083,16.968,6.887S149.2,290.485,139.827,290.485Z" transform="translate(-112.694 -272.585)"/><path class="s" d="M118.6,281.949c1.091-3.257,6.645-5.433,13.573-6.675-.28-.024-.561-.045-.85-.061-7.625-.422-14.664,1.788-15.717,4.936-.564,1.682.7,3.289,3.159,4.487A5.507,5.507,0,0,1,118.6,281.949Z" transform="translate(-112.25 -272.536)"/><path d="M150.327,280.11a6.467,6.467,0,0,0-2.462-1.174,15.216,15.216,0,0,0-3.164-.523c-1.1-.071-2.435-.106-3.966-.106h-5.005l.048,5.227-1.567.006V285l1.509.007,0,.46h-1.511v1.527h1.513l.005,2.931h3.979V286.99h8.126v-1.527h-8.126V285h1.8c1.377,0,2.64-.054,3.76-.162a14,14,0,0,0,3.106-.626,5.668,5.668,0,0,0,2.092-1.142,1.968,1.968,0,0,0,.716-1.415A2.052,2.052,0,0,0,150.327,280.11Zm-3.56,2.409a3.1,3.1,0,0,1-1.2.555,11.211,11.211,0,0,1-1.857.3c-.712.061-1.515.093-2.387.093h-1.615v-3.639h.694c1.053,0,1.988.02,2.779.059a15.149,15.149,0,0,1,2.086.237,3.709,3.709,0,0,1,1.407.526,1.149,1.149,0,0,1,.094,1.866Z" transform="translate(-113.951 -272.822)"/></g></g><g transform="translate(45.064 42.665)"><g transform="translate(0 16.007)"><path class="c" d="M136.57,351.437v6.749c0,6.252,12.188,10.664,26.721,10.664s27.57-5.292,27.543-10.541l.027-6.872Z" transform="translate(-136.57 -338.134)"/><g transform="translate(0.015)"><path class="c" d="M190.849,349.624c0,7.078-12.148,12.817-27.131,12.817s-27.132-5.739-27.132-12.817,12.147-12.818,27.132-12.818S190.849,342.545,190.849,349.624Z" transform="translate(-136.586 -336.806)"/><path class="d" d="M183.94,349.986c0,5.075-8.711,9.191-19.455,9.191s-19.459-4.116-19.459-9.191,8.712-9.192,19.459-9.192S183.94,344.909,183.94,349.986Z" transform="translate(-137.352 -337.168)"/><path class="q" d="M164.485,340.794c-10.747,0-19.459,4.115-19.459,9.192s8.712,9.191,19.459,9.191,19.455-4.116,19.455-9.191S175.229,340.794,164.485,340.794Zm0,17.207c-9.373,0-16.968-3.588-16.968-8.015s7.595-8.016,16.968-8.016,16.966,3.589,16.966,8.016S173.853,358,164.485,358Z" transform="translate(-137.352 -337.168)"/><path class="s" d="M143.262,348.067c1.091-3.791,6.645-6.324,13.573-7.768-.279-.028-.562-.053-.85-.072-7.626-.491-14.662,2.081-15.717,5.745-.564,1.958.7,3.827,3.159,5.221A7.414,7.414,0,0,1,143.262,348.067Z" transform="translate(-136.908 -337.111)"/><path d="M161.093,347a14.212,14.212,0,0,1,3.155-1.033,18.383,18.383,0,0,1,3.776-.375,20.231,20.231,0,0,1,3.153.245v-1.543a27.546,27.546,0,0,0-2.989-.156,26.468,26.468,0,0,0-5.134.481,18.781,18.781,0,0,0-4.269,1.341,9.039,9.039,0,0,0-2.882,1.987,4.634,4.634,0,0,0-.465.595h-2.023v1.581h1.465c0,.072-.011.142-.011.214a2.929,2.929,0,0,0,.077.659h-2.291v1.582h3.16c.036.04.069.08.107.121a9.188,9.188,0,0,0,2.9,1.955,19.089,19.089,0,0,0,4.267,1.317,26.665,26.665,0,0,0,5.1.474,26.1,26.1,0,0,0,2.989-.173v-1.531a19.308,19.308,0,0,1-3.086.249,18.8,18.8,0,0,1-3.811-.376,14.24,14.24,0,0,1-3.187-1.032,7.555,7.555,0,0,1-1.606-1h9.233v-1.582H158.313a2.222,2.222,0,0,1-.116-.7c0-.056,0-.112.009-.168h11.119V348.54h-10.39a.281.281,0,0,1,.022-.027A6.6,6.6,0,0,1,161.093,347Z" transform="translate(-138.045 -337.472)"/></g></g><g transform="translate(0 8.004)"><path class="c" d="M136.57,342.635v6.748c0,6.251,12.188,10.664,26.721,10.664s27.57-5.292,27.543-10.542l.027-6.87Z" transform="translate(-136.57 -329.332)"/><g transform="translate(0.015)"><path class="c" d="M190.849,340.82c0,7.079-12.148,12.817-27.131,12.817s-27.132-5.738-27.132-12.817S148.733,328,163.718,328,190.849,333.741,190.849,340.82Z" transform="translate(-136.586 -328.003)"/><path class="d" d="M183.94,341.182c0,5.077-8.711,9.192-19.455,9.192s-19.459-4.115-19.459-9.192,8.712-9.191,19.459-9.191S183.94,336.107,183.94,341.182Z" transform="translate(-137.352 -328.365)"/><path class="q" d="M164.485,331.991c-10.747,0-19.459,4.116-19.459,9.191s8.712,9.192,19.459,9.192,19.455-4.115,19.455-9.192S175.229,331.991,164.485,331.991Zm0,17.207c-9.373,0-16.968-3.589-16.968-8.016s7.595-8.016,16.968-8.016,16.966,3.589,16.966,8.016S173.853,349.2,164.485,349.2Z" transform="translate(-137.352 -328.365)"/><path class="s" d="M143.262,339.263c1.091-3.79,6.645-6.324,13.573-7.768-.279-.027-.562-.053-.85-.072-7.626-.489-14.662,2.082-15.717,5.746-.564,1.956.7,3.827,3.159,5.221A7.418,7.418,0,0,1,143.262,339.263Z" transform="translate(-136.908 -328.308)"/><path d="M161.093,338.2a14.211,14.211,0,0,1,3.155-1.032,18.317,18.317,0,0,1,3.776-.375,20.235,20.235,0,0,1,3.153.245v-1.544a27.764,27.764,0,0,0-2.989-.156,26.462,26.462,0,0,0-5.134.482,18.734,18.734,0,0,0-4.269,1.34,9.024,9.024,0,0,0-2.882,1.987,4.7,4.7,0,0,0-.465.595h-2.023v1.583h1.465c0,.071-.011.142-.011.213a2.916,2.916,0,0,0,.077.658h-2.291v1.582h3.16c.036.041.069.081.107.121a9.19,9.19,0,0,0,2.9,1.956,19.086,19.086,0,0,0,4.267,1.317,26.738,26.738,0,0,0,5.1.474,26.11,26.11,0,0,0,2.989-.173v-1.532a19.312,19.312,0,0,1-3.086.249,18.8,18.8,0,0,1-3.811-.375,14.147,14.147,0,0,1-3.187-1.033,7.516,7.516,0,0,1-1.606-1h9.233V342.19H158.313a2.218,2.218,0,0,1-.116-.7c0-.055,0-.111.009-.166h11.119v-1.583h-10.39c.006-.008.014-.018.022-.027A6.628,6.628,0,0,1,161.093,338.2Z" transform="translate(-138.045 -328.669)"/></g></g><path class="c" d="M136.57,333.831v6.749c0,6.251,12.188,10.662,26.721,10.662s27.57-5.29,27.543-10.54l.027-6.871Z" transform="translate(-136.57 -320.528)"/><g transform="translate(0.015)"><path class="c" d="M190.849,332.017c0,7.078-12.148,12.817-27.131,12.817s-27.132-5.739-27.132-12.817S148.733,319.2,163.718,319.2,190.849,324.938,190.849,332.017Z" transform="translate(-136.586 -319.2)"/><path class="d" d="M183.94,332.379c0,5.076-8.711,9.191-19.455,9.191s-19.459-4.115-19.459-9.191,8.712-9.192,19.459-9.192S183.94,327.3,183.94,332.379Z" transform="translate(-137.352 -319.562)"/><path class="q" d="M164.485,323.187c-10.747,0-19.459,4.115-19.459,9.192s8.712,9.191,19.459,9.191,19.455-4.115,19.455-9.191S175.229,323.187,164.485,323.187Zm0,17.208c-9.373,0-16.968-3.589-16.968-8.016s7.595-8.016,16.968-8.016,16.966,3.59,16.966,8.016S173.853,340.395,164.485,340.395Z" transform="translate(-137.352 -319.562)"/><path class="s" d="M143.262,330.459c1.091-3.79,6.645-6.323,13.573-7.766-.279-.029-.562-.055-.85-.072-7.626-.492-14.662,2.081-15.717,5.744-.564,1.958.7,3.828,3.159,5.222A7.422,7.422,0,0,1,143.262,330.459Z" transform="translate(-136.908 -319.505)"/><path d="M161.093,329.392a14.257,14.257,0,0,1,3.155-1.032,18.32,18.32,0,0,1,3.776-.375,20.347,20.347,0,0,1,3.153.245v-1.543a27.768,27.768,0,0,0-2.989-.157,26.392,26.392,0,0,0-5.134.483,18.782,18.782,0,0,0-4.269,1.339,9.055,9.055,0,0,0-2.882,1.988,4.636,4.636,0,0,0-.465.595h-2.023v1.582h1.465c0,.071-.011.142-.011.214a2.927,2.927,0,0,0,.077.658h-2.291v1.582h3.16c.036.04.069.081.107.121a9.174,9.174,0,0,0,2.9,1.955,19.038,19.038,0,0,0,4.267,1.317,26.662,26.662,0,0,0,5.1.474,26.1,26.1,0,0,0,2.989-.173V337.13a19.207,19.207,0,0,1-3.086.25A18.861,18.861,0,0,1,164.28,337a14.146,14.146,0,0,1-3.187-1.032,7.517,7.517,0,0,1-1.606-1h9.233v-1.582H158.313a2.222,2.222,0,0,1-.116-.7c0-.056,0-.111.009-.167h11.119v-1.582h-10.39a.2.2,0,0,1,.022-.026A6.615,6.615,0,0,1,161.093,329.392Z" transform="translate(-138.045 -319.865)"/></g></g><g transform="translate(75.21 59.86)"><g transform="translate(0 7.462)"><path class="u" d="M169.727,358.855v6.375c0,5.9,11.511,10.071,25.238,10.071s26.041-5,26.014-9.957l.026-6.49Z" transform="translate(-169.727 -347.457)"/><g transform="translate(0.012)"><path class="u" d="M220.993,357.717c0,6.3-11.471,11.4-25.625,11.4s-25.628-5.1-25.628-11.4,11.473-11.4,25.628-11.4S220.993,351.422,220.993,357.717Z" transform="translate(-169.74 -346.319)"/><path class="d" d="M214.468,358.039c0,4.514-8.228,8.175-18.377,8.175s-18.379-3.66-18.379-8.175,8.229-8.174,18.379-8.174S214.468,353.525,214.468,358.039Z" transform="translate(-170.464 -346.641)"/><path d="M198.71,359.976l8.648-6.7h-4.226l-6.252,4.867-6.255-4.867H186.4l8.649,6.7v.6h-4.29v1.346h4.29v.536h-4.29v1.346h4.29v1.176h3.659v-1.176H203v-1.346H198.71v-.536H203v-1.346H198.71Z" transform="translate(-171.253 -346.951)"/><path class="q" d="M196.092,349.865c-10.149,0-18.379,3.66-18.379,8.174s8.229,8.175,18.379,8.175,18.377-3.66,18.377-8.175S206.24,349.865,196.092,349.865Zm0,15.3c-8.852,0-16.027-3.192-16.027-7.129s7.175-7.128,16.027-7.128,16.026,3.191,16.026,7.128S204.943,365.168,196.092,365.168Z" transform="translate(-170.464 -346.641)"/><path class="s" d="M176.045,356.332c1.032-3.37,6.279-5.623,12.821-6.909-.265-.025-.533-.047-.8-.063-7.2-.436-13.848,1.851-14.846,5.109-.532,1.741.663,3.4,2.984,4.644A6.266,6.266,0,0,1,176.045,356.332Z" transform="translate(-170.044 -346.59)"/></g></g><path class="u" d="M169.727,350.649v6.374c0,5.9,11.511,10.072,25.238,10.072s26.041-5,26.014-9.956l.026-6.49Z" transform="translate(-169.727 -339.25)"/><g transform="translate(0.012)"><path class="u" d="M220.993,349.511c0,6.294-11.471,11.4-25.625,11.4s-25.628-5.1-25.628-11.4,11.473-11.4,25.628-11.4S220.993,343.215,220.993,349.511Z" transform="translate(-169.74 -338.112)"/><path class="d" d="M214.468,349.833c0,4.514-8.228,8.174-18.377,8.174s-18.379-3.66-18.379-8.174,8.229-8.175,18.379-8.175S214.468,345.318,214.468,349.833Z" transform="translate(-170.464 -338.434)"/><path d="M198.71,351.768l8.648-6.7h-4.226l-6.252,4.867-6.255-4.867H186.4l8.649,6.7v.6h-4.29v1.347h4.29v.535h-4.29V355.6h4.29v1.176h3.659V355.6H203v-1.347H198.71v-.535H203v-1.347H198.71Z" transform="translate(-171.253 -338.744)"/><path class="q" d="M196.092,341.658c-10.149,0-18.379,3.66-18.379,8.175s8.229,8.174,18.379,8.174,18.377-3.66,18.377-8.174S206.24,341.658,196.092,341.658Zm0,15.3c-8.852,0-16.027-3.191-16.027-7.128s7.175-7.128,16.027-7.128,16.026,3.191,16.026,7.128S204.943,356.961,196.092,356.961Z" transform="translate(-170.464 -338.434)"/><path class="s" d="M176.045,348.125c1.032-3.37,6.279-5.623,12.821-6.908-.265-.025-.533-.047-.8-.064-7.2-.436-13.848,1.851-14.846,5.109-.532,1.74.663,3.4,2.984,4.643A6.261,6.261,0,0,1,176.045,348.125Z" transform="translate(-170.044 -338.383)"/></g></g><g transform="translate(0 50.825)"><g transform="translate(0 15.025)"><path class="h" d="M87.006,356.344v6.749c0,6.251,12.187,10.663,26.721,10.663s27.571-5.291,27.543-10.541l.027-6.871Z" transform="translate(-87.006 -345.756)"/><g transform="translate(0.015)"><path class="h" d="M141.284,356.114c0,6.305-12.147,11.417-27.132,11.417s-27.13-5.112-27.13-11.417S99.168,344.7,114.152,344.7,141.284,349.81,141.284,356.114Z" transform="translate(-87.022 -344.699)"/><path class="d" d="M134.376,356.436c0,4.521-8.71,8.187-19.458,8.187s-19.457-3.666-19.457-8.187,8.714-8.187,19.457-8.187S134.376,351.915,134.376,356.436Z" transform="translate(-87.788 -345.021)"/><path class="q" d="M114.918,348.249c-10.743,0-19.457,3.666-19.457,8.187s8.714,8.187,19.457,8.187,19.458-3.666,19.458-8.187S125.666,348.249,114.918,348.249Zm0,15.327c-9.37,0-16.966-3.2-16.966-7.14s7.6-7.139,16.966-7.139,16.968,3.2,16.968,7.139S124.291,363.576,114.918,363.576Z" transform="translate(-87.788 -345.021)"/><path class="s" d="M93.7,354.727c1.093-3.377,6.648-5.632,13.576-6.919-.282-.025-.564-.047-.855-.064-7.624-.436-14.659,1.855-15.716,5.116-.563,1.744.7,3.41,3.159,4.651A5.945,5.945,0,0,1,93.7,354.727Z" transform="translate(-87.344 -344.971)"/><path class="t" d="M123.143,345.334c4.511,1.977,7.309,4.645,7.309,7.549,0,5.969-11.838,10.95-26.024,10.95a55.222,55.222,0,0,1-12.473-1.373c4.857,3.089,13.184,5.128,22.645,5.128,14.986,0,27.132-5.112,27.132-11.417C141.732,351.124,133.942,346.841,123.143,345.334Z" transform="translate(-87.47 -344.757)"/><path class="v" d="M117.683,358.323l9.076-6.648h-4.432l-6.563,4.832-6.562-4.832h-4.433l9.076,6.648v.6h-4.5v1.336h4.5v3.036h3.838v-3.036h4.5v-1.336h-4.5Z" transform="translate(-88.633 -345.332)"/></g></g><g transform="translate(0 8.316)"><path class="h" d="M87.006,348.966v6.748c0,6.252,12.187,10.664,26.721,10.664s27.571-5.291,27.543-10.541l.027-6.871Z" transform="translate(-87.006 -338.377)"/><g transform="translate(0.015)"><path class="h" d="M141.284,348.737c0,6.3-12.147,11.416-27.132,11.416s-27.13-5.112-27.13-11.416,12.146-11.417,27.13-11.417S141.284,342.431,141.284,348.737Z" transform="translate(-87.022 -337.32)"/><path class="d" d="M134.376,349.059c0,4.521-8.71,8.186-19.458,8.186s-19.457-3.665-19.457-8.186,8.714-8.187,19.457-8.187S134.376,344.537,134.376,349.059Z" transform="translate(-87.788 -337.643)"/><path class="q" d="M114.918,340.872c-10.743,0-19.457,3.665-19.457,8.187s8.714,8.186,19.457,8.186,19.458-3.665,19.458-8.186S125.666,340.872,114.918,340.872Zm0,15.326c-9.37,0-16.966-3.2-16.966-7.139s7.6-7.14,16.966-7.14,16.968,3.2,16.968,7.14S124.291,356.2,114.918,356.2Z" transform="translate(-87.788 -337.643)"/><path class="s" d="M93.7,347.349c1.093-3.376,6.648-5.632,13.576-6.919-.282-.025-.564-.047-.855-.064-7.624-.436-14.659,1.855-15.716,5.117-.563,1.744.7,3.409,3.159,4.651A5.949,5.949,0,0,1,93.7,347.349Z" transform="translate(-87.344 -337.592)"/><path class="t" d="M123.143,337.956c4.511,1.977,7.309,4.645,7.309,7.549,0,5.969-11.838,10.95-26.024,10.95a55.278,55.278,0,0,1-12.473-1.372c4.857,3.089,13.184,5.127,22.645,5.127,14.986,0,27.132-5.112,27.132-11.416C141.732,343.746,133.942,339.463,123.143,337.956Z" transform="translate(-87.47 -337.378)"/><path class="v" d="M117.683,350.946l9.076-6.648h-4.432l-6.563,4.832L109.2,344.3h-4.433l9.076,6.648v.6h-4.5v1.336h4.5v3.035h3.838V352.88h4.5v-1.336h-4.5Z" transform="translate(-88.633 -337.954)"/></g></g><path class="h" d="M87.006,339.82v6.748c0,6.251,12.187,10.664,26.721,10.664s27.571-5.291,27.543-10.542l.027-6.87Z" transform="translate(-87.006 -329.231)"/><g transform="translate(0.015)"><path class="h" d="M141.284,339.591c0,6.3-12.147,11.415-27.132,11.415s-27.13-5.112-27.13-11.415,12.146-11.417,27.13-11.417S141.284,333.285,141.284,339.591Z" transform="translate(-87.022 -328.174)"/><path class="d" d="M134.376,339.913c0,4.521-8.71,8.186-19.458,8.186s-19.457-3.665-19.457-8.186,8.714-8.188,19.457-8.188S134.376,335.391,134.376,339.913Z" transform="translate(-87.788 -328.496)"/><path class="q" d="M114.918,331.725c-10.743,0-19.457,3.666-19.457,8.188s8.714,8.186,19.457,8.186,19.458-3.665,19.458-8.186S125.666,331.725,114.918,331.725Zm0,15.326c-9.37,0-16.966-3.2-16.966-7.138s7.6-7.141,16.966-7.141,16.968,3.2,16.968,7.141S124.291,347.051,114.918,347.051Z" transform="translate(-87.788 -328.496)"/><path class="s" d="M93.7,338.2c1.093-3.376,6.648-5.632,13.576-6.919-.282-.024-.564-.046-.855-.063-7.624-.436-14.659,1.854-15.716,5.116-.563,1.743.7,3.41,3.159,4.651A5.947,5.947,0,0,1,93.7,338.2Z" transform="translate(-87.344 -328.446)"/><path class="v" d="M117.683,341.8l9.076-6.649h-4.432l-6.563,4.833-6.562-4.833h-4.433l9.076,6.649v.6h-4.5v1.336h4.5v3.036h3.838v-3.036h4.5V342.4h-4.5Z" transform="translate(-88.633 -328.808)"/></g></g></g></g></svg>