<svg xmlns="http://www.w3.org/2000/svg" width="100" height="100" viewBox="0 0 100 100"><defs><style>.a{fill:none;}.b{fill:#344154;}</style></defs><g transform="translate(-517.03 -493.055)"><rect class="a" width="100" height="100" transform="translate(517.03 493.055)"/><path class="b" d="M575.579,557.013c0-4.021.056-8.044-.023-12.064-.038-1.977.611-2.811,2.537-3.671a18.837,18.837,0,0,1,6.054-1.381,33.262,33.262,0,0,1,9.322.388,13.651,13.651,0,0,1,4.042,1.35,3.146,3.146,0,0,1,1.813,3.018c-.041,8.146-.02,16.293-.02,24.446,0,1.944-.651,2.846-2.47,3.606a21.677,21.677,0,0,1-7.162,1.476,32.23,32.23,0,0,1-8.267-.471,11.935,11.935,0,0,1-4.531-1.663,2.789,2.789,0,0,1-1.309-2.492C575.6,565.374,575.579,561.193,575.579,557.013ZM577.71,543.9v.315a16.829,16.829,0,0,0,1.72.836,23.152,23.152,0,0,0,7.65,1.142,24.453,24.453,0,0,0,8.339-1.134,3.6,3.6,0,0,0,1.742-1.037,2.729,2.729,0,0,0-.558-.441,18.025,18.025,0,0,0-2.357-.907,28.256,28.256,0,0,0-9.131-.7,19.519,19.519,0,0,0-5.692,1.074,18.849,18.849,0,0,0-1.713.854Zm.016,15.728a3.776,3.776,0,0,1-.005.664,1.441,1.441,0,0,0,1.222,1.821,35.42,35.42,0,0,0,4.45,1.087,28.491,28.491,0,0,0,9.686-.26,23.836,23.836,0,0,0,3.356-1.079,1.181,1.181,0,0,0,.687-.663,7.332,7.332,0,0,0,.031-1.574,29.166,29.166,0,0,1-19.427,0Zm0-8.513a3.98,3.98,0,0,1-.007.756,1.238,1.238,0,0,0,.916,1.494c.022.006.046.011.069.015a20.683,20.683,0,0,0,2.762.87,30.7,30.7,0,0,0,11.614.072,9.789,9.789,0,0,0,3.624-1.254.949.949,0,0,0,.432-.548,10.613,10.613,0,0,0,.02-1.416,30.736,30.736,0,0,1-19.43.012Zm0,4.323a3.988,3.988,0,0,1-.007.749,1.22,1.22,0,0,0,.885,1.481c.033.008.066.015.1.021a25.47,25.47,0,0,0,3.279.978,29.662,29.662,0,0,0,10.833,0,24.961,24.961,0,0,0,3.709-1.173,1.069,1.069,0,0,0,.6-.658,6.888,6.888,0,0,0,.028-1.413,30.872,30.872,0,0,1-19.429.016Zm0,8.626a4.2,4.2,0,0,1-.007.769,1.2,1.2,0,0,0,.865,1.458l.08.017a25.6,25.6,0,0,0,3.125.953,30.763,30.763,0,0,0,10.682.122,12.148,12.148,0,0,0,4.023-1.23c.25-.137.576-.364.621-.6a7.876,7.876,0,0,0,.028-1.489,30.828,30.828,0,0,1-19.417,0Zm0,4.314a9.7,9.7,0,0,1-.008,1.064.861.861,0,0,0,.552.974,15.717,15.717,0,0,0,2.258.872,29.977,29.977,0,0,0,12.382.331,10.309,10.309,0,0,0,3.737-1.245c.2-.122.453-.327.478-.521a11.065,11.065,0,0,0,.023-1.479,30.711,30.711,0,0,1-19.422,0Zm0-21.689a5.528,5.528,0,0,1-.006.834,1.261,1.261,0,0,0,.916,1.531c.027.007.054.013.082.018a27.816,27.816,0,0,0,3.026.918,30.94,30.94,0,0,0,9.375.318,15.677,15.677,0,0,0,4.961-1.208c1.126-.513,1.381-1.133.974-2.376a29.484,29.484,0,0,1-19.329-.035Z"/><path class="b" d="M588.683,534.227H536.636v23.992h35.109a4.323,4.323,0,0,1,.787.06.818.818,0,0,1,.7.866.86.86,0,0,1-.74.9,2.606,2.606,0,0,1-.579.029h-35.83c-1.074,0-1.354-.275-1.354-1.337V533.7c0-1.1.269-1.366,1.38-1.366h53.031c1.113,0,1.372.258,1.373,1.37,0,.865.007,1.73,0,2.6-.008.706-.363,1.112-.936,1.1-.555-.011-.881-.4-.895-1.084S588.683,534.948,588.683,534.227Z"/><path class="b" d="M540.673,520.339c-.349,1.563-.688,3.073-1.023,4.584-.3,1.343-.594,2.686-.9,4.029-.152.676-.583,1-1.156.87a.933.933,0,0,1-.648-1.247q1.024-4.648,2.059-9.293c.185-.83.6-1.074,1.424-.895l34.508,7.759q4.127.929,8.251,1.87a.921.921,0,0,1-.169,1.835,1,1,0,0,1-.181-.035c-.1-.016-.21-.033-.313-.056l-4.436-1-22.85-5.139Z"/><path class="b" d="M561.533,555.687a9.49,9.49,0,1,1,9.505-9.479A9.488,9.488,0,0,1,561.533,555.687ZM569.3,546.2a7.765,7.765,0,1,0,0,.018V546.2Z"/><path class="b" d="M548.6,555.763c-1.322,0-2.645-.008-3.968,0a1.456,1.456,0,0,1-1.163-.513c-1.338-1.478-2.7-2.932-4.016-4.429a1.742,1.742,0,0,1-.393-1.042c-.034-2.381-.015-4.762-.021-7.143a1.659,1.659,0,0,1,.527-1.273q2.172-2.091,4.315-4.214a1.692,1.692,0,0,1,1.275-.517c2.469.012,4.938,0,7.406.008a2.229,2.229,0,0,1,.576.062.839.839,0,0,1,.673.895.854.854,0,0,1-.716.865,2.487,2.487,0,0,1-.578.034c-2.31,0-4.621-.008-6.93.014a1.175,1.175,0,0,0-.728.3q-1.842,1.748-3.631,3.552a1.221,1.221,0,0,0-.323.77q-.039,3.067,0,6.137a1.154,1.154,0,0,0,.269.7q1.632,1.84,3.319,3.632a1.106,1.106,0,0,0,.723.3c2.381.022,4.761.013,7.142.013.159,0,.318-.006.477.005a.935.935,0,0,1,.983.885c0,.021,0,.043,0,.065a.924.924,0,0,1-.95.9l-.034,0c-.264.015-.529,0-.794,0Z"/><path class="b" d="M552.282,513.951c-.558,1.106-1.1,2.174-1.636,3.24a2.649,2.649,0,0,1-.262.457.871.871,0,0,1-1.137.26.9.9,0,0,1-.436-1.122,2.665,2.665,0,0,1,.145-.339c.612-1.231,1.222-2.463,1.841-3.69.494-.98.806-1.1,1.8-.686q6.369,2.651,12.734,5.306l12.489,5.21c.7.291.97.763.754,1.293-.229.559-.76.708-1.477.41L553,514.247C552.787,514.157,552.576,514.072,552.282,513.951Z"/><path class="b" d="M574.433,538.5c-1.392,0-2.784.008-4.175-.005a.924.924,0,0,1-.988-.855l0-.032a.937.937,0,0,1,.923-.951h.008a1.21,1.21,0,0,1,.159-.01c2.73,0,5.46-.007,8.192,0,.705,0,1.1.377,1.09.951s-.42.9-1.135.9C577.146,538.5,575.79,538.5,574.433,538.5Z"/><path class="b" d="M562.581,547.436a3.943,3.943,0,0,0-.626-.141c-.422-.027-.848,0-1.269-.031a2.547,2.547,0,0,1-2.35-2.2,2.5,2.5,0,0,1,1.791-2.517.651.651,0,0,0,.358-.3c.268-.621.6-.911,1.106-.872a1.054,1.054,0,0,1,1.011.92c.006.03.037.055.089.13.282,0,.6-.013.912,0a1.107,1.107,0,0,1,1.163,1.045v.015a1.075,1.075,0,0,1-1.057,1.093,1.118,1.118,0,0,1-.116-.005c-.793.021-1.587-.006-2.381.015a3.686,3.686,0,0,0-.71.161v.219a4.093,4.093,0,0,0,.655.15c.438.032.882,0,1.321.039a2.544,2.544,0,0,1,2.279,2.217,2.491,2.491,0,0,1-1.709,2.468.915.915,0,0,0-.47.447,1.079,1.079,0,0,1-.993.745.938.938,0,0,1-1.016-.681c-.1-.344-.291-.385-.579-.371a3.835,3.835,0,0,1-.686-.02,1.064,1.064,0,0,1,.067-2.124c.828-.029,1.657,0,2.486-.019a4.293,4.293,0,0,0,.726-.142C562.579,547.6,562.58,547.516,562.581,547.436Z"/></g></svg>