<svg xmlns="http://www.w3.org/2000/svg" width="100.001" height="100" viewBox="0 0 100.001 100"><defs><style>.a,.c{fill:none;}.b{fill:#344154;}.c{stroke:#344154;stroke-miterlimit:10;stroke-width:2.772px;}.d{fill:#344054;}</style></defs><g transform="translate(-1070.74 -755.974)"><rect class="a" width="100" height="100" transform="translate(1070.74 755.974)"/><path class="b" d="M1133.976,827.582c0-6.226.086-12.453-.036-18.677-.06-3.06.945-4.352,3.927-5.682a29.127,29.127,0,0,1,9.372-2.138,51.491,51.491,0,0,1,14.431.6,21.132,21.132,0,0,1,6.257,2.09,4.869,4.869,0,0,1,2.807,4.671c-.064,12.612-.031,25.224-.031,37.845,0,3.009-1.007,4.406-3.824,5.582a33.49,33.49,0,0,1-11.087,2.284,49.83,49.83,0,0,1-12.8-.729,18.444,18.444,0,0,1-7.014-2.573,4.32,4.32,0,0,1-2.027-3.859C1134.005,840.524,1133.976,834.052,1133.976,827.582Zm3.3-20.294v.488a25.8,25.8,0,0,0,2.662,1.293,35.8,35.8,0,0,0,11.843,1.768,37.877,37.877,0,0,0,12.909-1.754,5.58,5.58,0,0,0,2.7-1.607,4.278,4.278,0,0,0-.863-.683,28.177,28.177,0,0,0-3.649-1.4,43.757,43.757,0,0,0-14.136-1.086,30.232,30.232,0,0,0-8.812,1.663,28.951,28.951,0,0,0-2.651,1.322Zm.025,24.347a5.985,5.985,0,0,1-.008,1.029,2.23,2.23,0,0,0,1.546,2.75,2.148,2.148,0,0,0,.345.068,54.88,54.88,0,0,0,6.89,1.683,44.11,44.11,0,0,0,14.994-.4,36.971,36.971,0,0,0,5.195-1.671,1.822,1.822,0,0,0,1.063-1.026,11.281,11.281,0,0,0,.049-2.436,45.16,45.16,0,0,1-30.074,0Zm0-13.178a6.1,6.1,0,0,1-.011,1.171,1.919,1.919,0,0,0,1.417,2.313c.036.008.071.016.107.022a32.2,32.2,0,0,0,4.277,1.347,47.5,47.5,0,0,0,17.979.111,15.154,15.154,0,0,0,5.609-1.94,1.469,1.469,0,0,0,.669-.848,16.375,16.375,0,0,0,.032-2.193,47.589,47.589,0,0,1-30.079.018Zm0,6.692a6.22,6.22,0,0,1-.011,1.159,1.889,1.889,0,0,0,1.37,2.293c.051.013.1.024.154.032a39.58,39.58,0,0,0,5.077,1.515,45.932,45.932,0,0,0,16.769,0,38.724,38.724,0,0,0,5.743-1.815,1.655,1.655,0,0,0,.932-1.02,10.659,10.659,0,0,0,.043-2.187,47.791,47.791,0,0,1-30.077.025Zm0,13.353a6.567,6.567,0,0,1-.011,1.191,1.856,1.856,0,0,0,1.339,2.257c.041.01.083.019.124.027a39.427,39.427,0,0,0,4.837,1.474,47.619,47.619,0,0,0,16.537.19,18.826,18.826,0,0,0,6.228-1.9c.386-.212.891-.564.96-.924a12.16,12.16,0,0,0,.045-2.3,47.722,47.722,0,0,1-30.059,0Zm0,6.679a14.844,14.844,0,0,1-.013,1.648,1.331,1.331,0,0,0,.856,1.506,24.151,24.151,0,0,0,3.495,1.351,46.386,46.386,0,0,0,19.168.512,15.926,15.926,0,0,0,5.785-1.928c.306-.188.7-.506.74-.8a17,17,0,0,0,.034-2.291,47.538,47.538,0,0,1-30.065.007Zm0-33.576a8.3,8.3,0,0,1-.01,1.292,1.953,1.953,0,0,0,1.418,2.37c.042.01.085.019.128.027a43.2,43.2,0,0,0,4.684,1.422,47.872,47.872,0,0,0,14.513.492,24.224,24.224,0,0,0,7.68-1.871c1.743-.794,2.138-1.753,1.508-3.678a45.642,45.642,0,0,1-29.923-.054Z"/><path class="b" d="M1154.261,792.306h-80.572v37.142h54.351a6.536,6.536,0,0,1,1.218.093,1.265,1.265,0,0,1,1.087,1.34,1.333,1.333,0,0,1-1.145,1.394,4.08,4.08,0,0,1-.9.045h-55.467c-1.663,0-2.1-.426-2.1-2.071V791.487c0-1.7.416-2.115,2.136-2.115h82.095c1.724,0,2.124.4,2.126,2.121,0,1.339.011,2.677,0,4.019-.013,1.092-.563,1.721-1.448,1.7-.86-.018-1.366-.615-1.386-1.678S1154.261,793.423,1154.261,792.306Z"/><path class="b" d="M1079.938,770.807c-.54,2.42-1.064,4.758-1.584,7.1-.462,2.079-.918,4.158-1.385,6.237-.236,1.047-.9,1.542-1.791,1.347-.823-.18-1.225-.925-1-1.931q1.586-7.2,3.187-14.385c.287-1.285.927-1.663,2.2-1.386l53.421,12.011q6.387,1.437,12.772,2.9a1.427,1.427,0,0,1-.262,2.841,1.405,1.405,0,0,1-.28-.055c-.162-.024-.324-.05-.484-.086q-3.434-.774-6.867-1.552l-35.373-7.957Z"/><path class="b" d="M1112.231,825.529a14.691,14.691,0,1,1,14.714-14.675A14.691,14.691,0,0,1,1112.231,825.529Zm12.031-14.69a12.022,12.022,0,1,0,0,.027v-.026Z"/><path class="b" d="M1092.21,825.645c-2.047,0-4.095-.012-6.142,0a2.25,2.25,0,0,1-1.8-.794c-2.07-2.286-4.179-4.539-6.215-6.856a2.7,2.7,0,0,1-.61-1.613c-.053-3.685-.022-7.371-.032-11.058a2.558,2.558,0,0,1,.817-1.969q3.362-3.24,6.679-6.524a2.617,2.617,0,0,1,1.974-.8c3.822.018,7.644,0,11.465.013a3.466,3.466,0,0,1,.891.095,1.3,1.3,0,0,1,1.042,1.386,1.321,1.321,0,0,1-1.108,1.339,3.9,3.9,0,0,1-.9.053c-3.575,0-7.152-.013-10.728.022a1.81,1.81,0,0,0-1.126.461q-2.853,2.706-5.622,5.5a1.9,1.9,0,0,0-.5,1.192q-.06,4.75,0,9.5a1.784,1.784,0,0,0,.416,1.076q2.528,2.85,5.138,5.623a1.711,1.711,0,0,0,1.12.464c3.685.035,7.37.021,11.056.021.246,0,.492-.01.738.007a1.448,1.448,0,0,1,1.522,1.37c0,.033,0,.067,0,.1a1.43,1.43,0,0,1-1.471,1.389l-.053,0c-.408.024-.819,0-1.228,0Z"/><path class="b" d="M1097.911,760.919c-.865,1.713-1.7,3.365-2.534,5.015a4.164,4.164,0,0,1-.4.708,1.349,1.349,0,0,1-1.76.4,1.385,1.385,0,0,1-.677-1.736,4.119,4.119,0,0,1,.225-.525c.948-1.906,1.893-3.813,2.85-5.713.765-1.516,1.248-1.7,2.792-1.062q9.859,4.1,19.713,8.215l19.333,8.065c1.079.451,1.5,1.181,1.167,2-.354.864-1.177,1.1-2.287.634l-37.312-15.546C1098.692,761.237,1098.365,761.106,1097.911,760.919Z"/><path class="b" d="M1132.2,798.917c-2.155,0-4.31.013-6.464-.008a1.43,1.43,0,0,1-1.53-1.323l0-.049a1.452,1.452,0,0,1,1.429-1.473h.013a2.232,2.232,0,0,1,.245-.016c4.227,0,8.454-.011,12.682,0,1.092,0,1.708.584,1.688,1.472s-.65,1.386-1.757,1.386C1136.4,798.923,1134.3,798.918,1132.2,798.917Z"/><path class="b" d="M1113.854,812.755a5.963,5.963,0,0,0-.97-.217c-.653-.043-1.313,0-1.964-.049a3.944,3.944,0,0,1-3.638-3.413,3.865,3.865,0,0,1,2.772-3.9,1.006,1.006,0,0,0,.554-.459c.416-.962.93-1.411,1.713-1.35a1.63,1.63,0,0,1,1.565,1.423c.009.047.057.086.138.2.437,0,.925-.021,1.411,0a1.711,1.711,0,0,1,1.8,1.617v.024a1.663,1.663,0,0,1-1.635,1.69,1.574,1.574,0,0,1-.181-.007c-1.228.032-2.457-.009-3.685.024a5.666,5.666,0,0,0-1.1.248v.34a6.521,6.521,0,0,0,1.013.233c.679.048,1.367,0,2.046.059a3.939,3.939,0,0,1,3.528,3.432,3.857,3.857,0,0,1-2.646,3.821,1.409,1.409,0,0,0-.727.693,1.672,1.672,0,0,1-1.537,1.153,1.453,1.453,0,0,1-1.573-1.055c-.15-.532-.45-.6-.9-.574a5.783,5.783,0,0,1-1.061-.032,1.646,1.646,0,0,1,.1-3.287c1.282-.046,2.565,0,3.849-.031a6.526,6.526,0,0,0,1.124-.219C1113.851,813.005,1113.853,812.88,1113.854,812.755Z"/><rect class="c" width="31.904" height="21.494" rx="2.009" transform="translate(1103.076 830.92)"/><rect class="d" width="13.309" height="2.934" transform="translate(1112.374 840.2)"/></g></svg>