<svg xmlns="http://www.w3.org/2000/svg" width="100" height="100" viewBox="0 0 100 100"><defs><style>.a{fill:none;}.b{fill:#344154;}</style></defs><g transform="translate(-498.757 -747.889)"><rect class="a" width="100" height="100" transform="translate(498.757 747.889)"/><path class="b" d="M534.89,747.89c.487.238,1,.438,1.461.722a4.859,4.859,0,0,1,2.423,4.2c.045,1.649.009,3.3.009,5.046h1.147c6.773,0,13.545.015,20.308-.011a5.71,5.71,0,0,1,4.286,1.747q5.438,5.469,10.908,10.905a5.487,5.487,0,0,1,1.66,4.117c-.024,8.461-.012,16.922-.012,25.383v1.177c1.369.248,2.693.408,3.975.734a23.239,23.239,0,0,1,17.513,19.744,1.854,1.854,0,0,0,.179.435v4.881a2.626,2.626,0,0,0-.184.531,23.24,23.24,0,0,1-21.4,20.3,22.884,22.884,0,0,1-20.333-9.229,1.611,1.611,0,0,0-1.448-.7c-10.866.018-21.732-.049-32.6.051a5.408,5.408,0,0,1-5.718-5.671c.113-9.959.04-19.909.04-29.864v-1.2h-1.209c-4,0-8,.013-12,0a4.93,4.93,0,0,1-5.12-4.731c-.006-.149,0-.3,0-.448V753.077a6.192,6.192,0,0,1,.133-1.351,5.352,5.352,0,0,1,3.765-3.837Zm-14.457,53.317v30.838c0,2.02.459,2.489,2.452,2.489h30.254c.343,0,.686-.029,1.135-.049-3.224-7.495-3.054-14.794,1.037-21.767s10.427-10.64,18.385-11.483V774.612h-1.1c-2.244,0-4.49,0-6.734-.013a5.068,5.068,0,0,1-5.454-5.4c-.018-2.277-.033-4.555.027-6.831.022-.87-.191-1.164-1.121-1.157-6.506.042-13.013.023-19.52.023h-1.013v1.3c0,11-.062,21.992.04,32.988a5.382,5.382,0,0,1-5,5.736,5.316,5.316,0,0,1-.747,0c-4.154-.159-8.321-.038-12.637-.038Zm74.98,23.425a19.905,19.905,0,1,0,0,.009Zm-93.322-50.194v20.981c0,1.933.512,2.456,2.4,2.456h28.793c1.51,0,2.125-.609,2.125-2.136q.008-21.082,0-42.166c0-1.847-.531-2.359-2.4-2.359h-28.5c-1.916,0-2.428.514-2.428,2.434q0,10.406,0,20.8Zm61.7-10.571c0,1.973-.032,3.912.016,5.843a1.335,1.335,0,0,0,1.259,1.395c1.991.075,4,.026,5.944.026Z"/><path class="b" d="M538.773,809.583c-3.8,0-7.609.009-11.42,0-1.364,0-2.257-.979-1.834-2.087a2.907,2.907,0,0,1,1.238-1.195,2.4,2.4,0,0,1,1.148-.092h21.657c.292,0,.587-.008.877.02a1.614,1.614,0,0,1,1.632,1.595c0,.034,0,.068,0,.1a1.65,1.65,0,0,1-1.648,1.651h-.045c-1.3.041-2.6.013-3.9.013Z"/><path class="b" d="M556.169,792.918c-3.452,0-6.893.014-10.339,0-1.66-.009-2.572-1.266-1.859-2.512a1.886,1.886,0,0,1,1.827-.886q6.73.009,13.46,0,3.754,0,7.51.008a1.726,1.726,0,0,1,1.944,1.388c.207,1.137-.56,1.976-1.908,2-1.82.031-3.641.009-5.462.009Z"/><path class="b" d="M556.243,784.6c-3.512,0-7.024.01-10.535,0-1.523,0-2.4-1.229-1.78-2.446a1.725,1.725,0,0,1,1.69-.93h5.072l15.316-.013h.487c1.461.014,2.258.616,2.258,1.7s-.8,1.69-2.258,1.692H556.25Z"/><path class="b" d="M556.173,801.216H545.541a1.623,1.623,0,0,1-1.726-1.269,1.517,1.517,0,0,1,.767-1.822,2.031,2.031,0,0,1,1.02-.232q10.632-.024,21.264-.016a1.683,1.683,0,0,1,1.88,1.462,1.782,1.782,0,0,1,.013.18,1.663,1.663,0,0,1-1.633,1.692,1.591,1.591,0,0,1-.218-.011c-3.578.012-7.154,0-10.731,0Z"/><path class="b" d="M537.1,814.514c3.153,0,6.308-.007,9.462.007a3.284,3.284,0,0,1,1.234.2,1.352,1.352,0,0,1,.921,1.632,3.18,3.18,0,0,1-1.117,1.421c-.283.218-.812.153-1.231.153q-9.219.012-18.437,0c-1.679,0-2.556-.621-2.523-1.763.038-1.118.851-1.651,2.513-1.651Z"/><path class="b" d="M536.25,826.208c-3.021,0-6.042.008-9.063-.007a1.613,1.613,0,0,1-1.75-1.464v0a1.594,1.594,0,0,1,1.095-1.752,2.463,2.463,0,0,1,.862-.091q8.868-.008,17.735,0c1.207,0,1.979.664,1.975,1.665s-.768,1.65-1.992,1.653C542.161,826.215,539.206,826.209,536.25,826.208Z"/><path class="b" d="M577.11,813.322v9.67a8.757,8.757,0,0,1,4.913,3.126,8.327,8.327,0,0,1-4.029,13.03,1.345,1.345,0,0,0-1.053.922,2.3,2.3,0,0,1-1.5,1.114,1.341,1.341,0,0,1-1.58-1.052.652.652,0,0,1-.013-.076c-.133-.612-.449-.738-.937-.9a8.278,8.278,0,0,1-5.824-7.714,1.7,1.7,0,0,1,1.458-1.9c.054-.007.107-.012.161-.014.987-.025,1.636.664,1.716,1.833a4.663,4.663,0,0,0,3.279,4.371V826.1a8.378,8.378,0,0,1-.739-16.192c.47-.149.738-.281.862-.838a1.642,1.642,0,0,1,3.163.012c.118.57.4.692.865.838a8.253,8.253,0,0,1,5.875,7.674c.008,1.2-.561,1.9-1.56,1.964-1.033.06-1.708-.643-1.785-1.859A4.763,4.763,0,0,0,577.11,813.322Zm-.033,13.33v9.111a4.787,4.787,0,0,0,0-9.113Zm-3.376-13.3a4.781,4.781,0,0,0-3.268,4.871,4.588,4.588,0,0,0,3.268,4.15Z"/><path class="b" d="M518.782,754.547h9.659a3.384,3.384,0,0,1,3.677,3.064,3.449,3.449,0,0,1,.005.557q.021,6.391,0,12.781a3.4,3.4,0,0,1-3.135,3.637,3.574,3.574,0,0,1-.451,0q-9.805.036-19.611,0A3.364,3.364,0,0,1,505.4,771.4a3.414,3.414,0,0,1,0-.392q-.01-6.438.008-12.88a3.343,3.343,0,0,1,3.1-3.577,3.276,3.276,0,0,1,.515,0C512.275,754.541,515.531,754.547,518.782,754.547Zm9.883,3.407H508.832v13.157h19.833Z"/><path class="b" d="M508.728,781.253c-.55,0-1.1.036-1.649-.008a1.7,1.7,0,0,1-1.66-1.693,1.609,1.609,0,0,1,1.568-1.648h.008a29.476,29.476,0,0,1,3.491,0,1.594,1.594,0,0,1,1.6,1.589c0,.043,0,.086-.005.129a1.651,1.651,0,0,1-1.669,1.633h-.031c-.548.035-1.1,0-1.651,0Z"/><path class="b" d="M518.735,781.257c-.518,0-1.038.025-1.555,0a1.767,1.767,0,0,1-1.788-1.692,1.675,1.675,0,0,1,1.67-1.681h.005a30.61,30.61,0,0,1,3.4.015,1.658,1.658,0,0,1,1.639,1.677v.028a1.726,1.726,0,0,1-1.719,1.649C519.839,781.286,519.284,781.257,518.735,781.257Z"/><path class="b" d="M528.69,781.256c-.519,0-1.038.027-1.555,0a1.727,1.727,0,0,1-1.726-1.646,1.653,1.653,0,0,1,1.6-1.706h.036a30.133,30.133,0,0,1,3.4,0,1.664,1.664,0,0,1,1.68,1.647v.027a1.762,1.762,0,0,1-1.785,1.7c-.549.03-1.1,0-1.653,0Z"/><path class="b" d="M528.713,787.911c-.518,0-1.039.021-1.555,0a1.715,1.715,0,0,1-1.758-1.67v-.031a1.664,1.664,0,0,1,1.686-1.644h.011c1.132-.039,2.269-.033,3.4.019a1.646,1.646,0,0,1,1.62,1.614,1.719,1.719,0,0,1-1.654,1.707c-.58.038-1.166.006-1.749.006Z"/><path class="b" d="M528.683,794.56c-.52,0-1.042.018-1.561,0a1.687,1.687,0,0,1-1.713-1.643,1.65,1.65,0,0,1,1.63-1.67.257.257,0,0,1,.04,0c1.105-.035,2.213-.032,3.32,0a1.672,1.672,0,0,1,1.726,1.618v.011a1.726,1.726,0,0,1-1.762,1.689h-.012C529.79,794.575,529.236,794.56,528.683,794.56Z"/><path class="b" d="M508.768,787.919c-.55,0-1.1.024-1.651,0a1.7,1.7,0,0,1-1.7-1.647,1.6,1.6,0,0,1,1.518-1.685c.035,0,.071,0,.107,0,1.13-.052,2.267-.058,3.4-.014a1.593,1.593,0,0,1,1.639,1.546c0,.041,0,.082,0,.123a1.645,1.645,0,0,1-1.624,1.669h-.036c-.548.031-1.1,0-1.65,0Z"/><path class="b" d="M518.682,787.908c-.52,0-1.042.025-1.562,0a1.736,1.736,0,0,1-1.726-1.657,1.662,1.662,0,0,1,1.649-1.673h.027c1.136-.043,2.278-.043,3.415,0A1.631,1.631,0,0,1,522.1,786.2a1.691,1.691,0,0,1-1.667,1.7C519.854,787.937,519.267,787.908,518.682,787.908Z"/><path class="b" d="M518.758,794.567c-.552,0-1.1.02-1.652,0a1.716,1.716,0,0,1-1.707-1.645,1.666,1.666,0,0,1,1.656-1.674h0c1.132-.037,2.266-.043,3.4-.009a1.647,1.647,0,0,1,1.652,1.643v.032a1.682,1.682,0,0,1-1.7,1.644c-.55.024-1.1,0-1.65,0Z"/><path class="b" d="M508.684,794.56c-.52,0-1.041.018-1.561,0a1.681,1.681,0,0,1-1.7-1.644,1.614,1.614,0,0,1,1.557-1.668h.1c1.137-.035,2.277-.037,3.414,0a1.558,1.558,0,0,1,1.594,1.523c0,.032,0,.065,0,.1a1.618,1.618,0,0,1-1.55,1.684c-.03,0-.06,0-.09,0C509.857,794.582,509.27,794.558,508.684,794.56Z"/></g></svg>