<svg xmlns="http://www.w3.org/2000/svg" width="647.926" height="259.46" viewBox="0 0 647.926 259.46"><defs><style>.a{fill:#d79b55;}.b{fill:#f1f1f1;}.c{fill:#b50000;}</style></defs><g transform="translate(-987.141 2690.88)"><path class="a" d="M0-136H647.926v51.675H0Z" transform="translate(987.141 -2554.88)"/><path class="b" d="M0-89H647.926v45.713H0Z" transform="translate(987.141 -2508.467)"/><path class="b" d="M0-45H647.926V.713H0Z" transform="translate(987.141 -2465.017)"/><path d="M9.3-2.93H4.16L3.184,0H.068L5.361-14.219H8.076L13.4,0H10.283ZM4.951-5.3H8.506L6.719-10.625ZM18.606-2.08a1.851,1.851,0,0,0,1.27-.43,1.506,1.506,0,0,0,.508-1.143h2.646a3.62,3.62,0,0,1-.586,1.968A3.866,3.866,0,0,1,20.866-.3,4.936,4.936,0,0,1,18.654.2a4.587,4.587,0,0,1-3.574-1.44,5.7,5.7,0,0,1-1.309-3.979V-5.41a5.635,5.635,0,0,1,1.3-3.9,4.534,4.534,0,0,1,3.564-1.455,4.444,4.444,0,0,1,3.179,1.128,3.994,3.994,0,0,1,1.216,3H20.383a1.923,1.923,0,0,0-.508-1.333,1.7,1.7,0,0,0-1.289-.513,1.7,1.7,0,0,0-1.489.718,4.155,4.155,0,0,0-.5,2.329v.293a4.207,4.207,0,0,0,.5,2.344A1.722,1.722,0,0,0,18.606-2.08ZM27.69-13.164v2.6H29.5V-8.5H27.69v5.273a1.259,1.259,0,0,0,.225.84,1.128,1.128,0,0,0,.859.254A4.5,4.5,0,0,0,29.6-2.2V-.059A5.81,5.81,0,0,1,27.895.2q-2.969,0-3.027-3V-8.5H23.324v-2.07h1.543v-2.6ZM33.717,0H30.885V-10.566h2.832Zm-3-13.3a1.39,1.39,0,0,1,.425-1.045,1.6,1.6,0,0,1,1.157-.41,1.6,1.6,0,0,1,1.152.41,1.382,1.382,0,0,1,.43,1.045,1.386,1.386,0,0,1-.435,1.055,1.6,1.6,0,0,1-1.147.41,1.6,1.6,0,0,1-1.147-.41A1.386,1.386,0,0,1,30.719-13.3Zm8.947,9.854,1.963-7.119h2.949L41.014,0h-2.7L34.754-10.566H37.7ZM48.467,0H45.635V-10.566h2.832Zm-3-13.3a1.39,1.39,0,0,1,.425-1.045,1.6,1.6,0,0,1,1.157-.41,1.6,1.6,0,0,1,1.152.41,1.382,1.382,0,0,1,.43,1.045,1.386,1.386,0,0,1-.435,1.055,1.6,1.6,0,0,1-1.147.41,1.6,1.6,0,0,1-1.147-.41A1.386,1.386,0,0,1,45.469-13.3Zm4.553,7.939A6.368,6.368,0,0,1,51.13-9.3a3.6,3.6,0,0,1,3.032-1.465,3.236,3.236,0,0,1,2.549,1.152V-15h2.832V0H56.995l-.137-1.123A3.321,3.321,0,0,1,54.143.2a3.587,3.587,0,0,1-2.993-1.47A6.573,6.573,0,0,1,50.022-5.361Zm2.822.205a4.16,4.16,0,0,0,.518,2.275,1.687,1.687,0,0,0,1.5.791,1.889,1.889,0,0,0,1.846-1.1v-4.17a1.862,1.862,0,0,0-1.826-1.1Q52.844-8.467,52.844-5.156ZM67.524,0a3.134,3.134,0,0,1-.283-.947A3.415,3.415,0,0,1,64.575.2,3.752,3.752,0,0,1,62-.7a2.89,2.89,0,0,1-1.021-2.266,2.986,2.986,0,0,1,1.245-2.578,6.144,6.144,0,0,1,3.6-.908h1.3v-.605a1.741,1.741,0,0,0-.376-1.172,1.479,1.479,0,0,0-1.187-.439,1.682,1.682,0,0,0-1.118.342,1.161,1.161,0,0,0-.405.938H61.215a2.835,2.835,0,0,1,.566-1.7,3.744,3.744,0,0,1,1.6-1.226,5.837,5.837,0,0,1,2.324-.444,4.611,4.611,0,0,1,3.1.981,3.433,3.433,0,0,1,1.147,2.759v4.58a5.052,5.052,0,0,0,.42,2.275V0ZM65.19-1.963a2.431,2.431,0,0,0,1.152-.278,1.828,1.828,0,0,0,.781-.747V-4.8H66.069q-2.119,0-2.256,1.465l-.01.166a1.13,1.13,0,0,0,.371.869A1.441,1.441,0,0,0,65.19-1.963Zm6.164-3.4A6.368,6.368,0,0,1,72.463-9.3a3.6,3.6,0,0,1,3.032-1.465,3.236,3.236,0,0,1,2.549,1.152V-15h2.832V0H78.327L78.19-1.123A3.321,3.321,0,0,1,75.475.2a3.587,3.587,0,0,1-2.993-1.47A6.573,6.573,0,0,1,71.354-5.361Zm2.822.205a4.16,4.16,0,0,0,.518,2.275,1.687,1.687,0,0,0,1.5.791,1.889,1.889,0,0,0,1.846-1.1v-4.17a1.862,1.862,0,0,0-1.826-1.1Q74.176-8.467,74.176-5.156ZM87.6.2A5.187,5.187,0,0,1,83.812-1.23a5.068,5.068,0,0,1-1.46-3.8V-5.3a6.383,6.383,0,0,1,.615-2.847,4.515,4.515,0,0,1,1.743-1.934,4.893,4.893,0,0,1,2.573-.679A4.385,4.385,0,0,1,90.7-9.395a5.555,5.555,0,0,1,1.245,3.877v1.152H85.214a2.622,2.622,0,0,0,.825,1.66,2.5,2.5,0,0,0,1.743.625,3.046,3.046,0,0,0,2.549-1.182l1.387,1.553A4.237,4.237,0,0,1,90-.308,5.639,5.639,0,0,1,87.6.2Zm-.322-8.672a1.767,1.767,0,0,0-1.362.566,2.926,2.926,0,0,0-.669,1.621h3.926v-.225a2.086,2.086,0,0,0-.508-1.45A1.824,1.824,0,0,0,87.274-8.477ZM98.936-2.92a.909.909,0,0,0-.513-.815,5.824,5.824,0,0,0-1.646-.532q-3.77-.791-3.77-3.2a2.9,2.9,0,0,1,1.167-2.349,4.707,4.707,0,0,1,3.052-.942,5.067,5.067,0,0,1,3.218.947,2.985,2.985,0,0,1,1.206,2.461H98.829a1.366,1.366,0,0,0-.391-1,1.653,1.653,0,0,0-1.221-.4,1.689,1.689,0,0,0-1.1.322,1.017,1.017,0,0,0-.391.82.87.87,0,0,0,.444.757,4.571,4.571,0,0,0,1.5.5,12.244,12.244,0,0,1,1.777.474,2.92,2.92,0,0,1,2.236,2.842A2.756,2.756,0,0,1,100.44-.7a5.35,5.35,0,0,1-3.2.894,5.588,5.588,0,0,1-2.358-.474,3.957,3.957,0,0,1-1.616-1.3,3.018,3.018,0,0,1-.586-1.782h2.676a1.473,1.473,0,0,0,.557,1.152,2.208,2.208,0,0,0,1.387.4,2.044,2.044,0,0,0,1.226-.308A.957.957,0,0,0,98.936-2.92Zm8.442-2.441A6.368,6.368,0,0,1,108.486-9.3a3.6,3.6,0,0,1,3.032-1.465,3.236,3.236,0,0,1,2.549,1.152V-15H116.9V0h-2.549l-.137-1.123A3.321,3.321,0,0,1,111.5.2a3.587,3.587,0,0,1-2.993-1.47A6.573,6.573,0,0,1,107.378-5.361Zm2.822.205a4.16,4.16,0,0,0,.518,2.275,1.687,1.687,0,0,0,1.5.791,1.889,1.889,0,0,0,1.846-1.1v-4.17a1.862,1.862,0,0,0-1.826-1.1Q110.2-8.467,110.2-5.156ZM123.62.2a5.187,5.187,0,0,1-3.784-1.426,5.068,5.068,0,0,1-1.46-3.8V-5.3a6.383,6.383,0,0,1,.615-2.847,4.515,4.515,0,0,1,1.743-1.934,4.893,4.893,0,0,1,2.573-.679,4.385,4.385,0,0,1,3.413,1.367,5.555,5.555,0,0,1,1.245,3.877v1.152h-6.729a2.622,2.622,0,0,0,.825,1.66,2.5,2.5,0,0,0,1.743.625,3.046,3.046,0,0,0,2.549-1.182l1.387,1.553a4.237,4.237,0,0,1-1.719,1.4A5.639,5.639,0,0,1,123.62.2ZM123.3-8.477a1.767,1.767,0,0,0-1.362.566,2.926,2.926,0,0,0-.669,1.621h3.926v-.225a2.086,2.086,0,0,0-.508-1.45A1.824,1.824,0,0,0,123.3-8.477ZM134.571,0V-8.5H133v-2.07h1.572v-.488a3.963,3.963,0,0,1,1.226-3.071,4.931,4.931,0,0,1,3.4-1.079,11.289,11.289,0,0,1,3.2.576l-.41,2.334a12.5,12.5,0,0,0-1.484-.366,7.293,7.293,0,0,0-1.133-.083q-1.973,0-1.973,1.748v.43h2.08V-8.5H137.4V0Zm9.15,0H140.89V-10.566h2.832Zm4.6-10.566.088,1.221a3.689,3.689,0,0,1,3.037-1.416,3.066,3.066,0,0,1,2.5.986,4.6,4.6,0,0,1,.84,2.949V0h-2.822V-6.758a1.831,1.831,0,0,0-.391-1.3,1.749,1.749,0,0,0-1.3-.405,1.942,1.942,0,0,0-1.787,1.016V0h-2.822V-10.566ZM162.72,0a3.134,3.134,0,0,1-.283-.947A3.415,3.415,0,0,1,159.771.2,3.752,3.752,0,0,1,157.2-.7a2.889,2.889,0,0,1-1.021-2.266,2.986,2.986,0,0,1,1.245-2.578,6.144,6.144,0,0,1,3.6-.908h1.3v-.605a1.741,1.741,0,0,0-.376-1.172,1.479,1.479,0,0,0-1.187-.439,1.682,1.682,0,0,0-1.118.342,1.161,1.161,0,0,0-.405.938h-2.822a2.835,2.835,0,0,1,.566-1.7,3.744,3.744,0,0,1,1.6-1.226,5.837,5.837,0,0,1,2.324-.444,4.611,4.611,0,0,1,3.1.981,3.433,3.433,0,0,1,1.147,2.759v4.58a5.052,5.052,0,0,0,.42,2.275V0Zm-2.334-1.963a2.431,2.431,0,0,0,1.152-.278,1.828,1.828,0,0,0,.781-.747V-4.8h-1.055q-2.119,0-2.256,1.465l-.01.166a1.13,1.13,0,0,0,.371.869A1.441,1.441,0,0,0,160.386-1.963Zm9.2-8.6.088,1.221a3.689,3.689,0,0,1,3.037-1.416,3.066,3.066,0,0,1,2.5.986,4.6,4.6,0,0,1,.84,2.949V0H173.23V-6.758a1.831,1.831,0,0,0-.391-1.3,1.749,1.749,0,0,0-1.3-.405,1.942,1.942,0,0,0-1.787,1.016V0h-2.822V-10.566ZM182.255-2.08a1.851,1.851,0,0,0,1.27-.43,1.506,1.506,0,0,0,.508-1.143h2.646a3.62,3.62,0,0,1-.586,1.968A3.866,3.866,0,0,1,184.516-.3,4.936,4.936,0,0,1,182.3.2a4.587,4.587,0,0,1-3.574-1.44,5.7,5.7,0,0,1-1.309-3.979V-5.41a5.635,5.635,0,0,1,1.3-3.9,4.534,4.534,0,0,1,3.564-1.455,4.444,4.444,0,0,1,3.179,1.128,3.994,3.994,0,0,1,1.216,3h-2.646a1.923,1.923,0,0,0-.508-1.333,1.7,1.7,0,0,0-1.289-.513,1.7,1.7,0,0,0-1.489.718,4.155,4.155,0,0,0-.5,2.329v.293a4.207,4.207,0,0,0,.5,2.344A1.722,1.722,0,0,0,182.255-2.08ZM190.939,0h-2.832V-10.566h2.832Zm-3-13.3a1.39,1.39,0,0,1,.425-1.045,1.6,1.6,0,0,1,1.157-.41,1.6,1.6,0,0,1,1.152.41,1.382,1.382,0,0,1,.43,1.045,1.386,1.386,0,0,1-.435,1.055,1.6,1.6,0,0,1-1.147.41,1.6,1.6,0,0,1-1.147-.41A1.386,1.386,0,0,1,187.941-13.3ZM199.056,0a3.134,3.134,0,0,1-.283-.947A3.415,3.415,0,0,1,196.107.2a3.752,3.752,0,0,1-2.573-.9,2.889,2.889,0,0,1-1.021-2.266,2.986,2.986,0,0,1,1.245-2.578,6.144,6.144,0,0,1,3.6-.908h1.3v-.605a1.741,1.741,0,0,0-.376-1.172,1.479,1.479,0,0,0-1.187-.439,1.682,1.682,0,0,0-1.118.342,1.161,1.161,0,0,0-.405.938h-2.822a2.835,2.835,0,0,1,.566-1.7,3.744,3.744,0,0,1,1.6-1.226,5.837,5.837,0,0,1,2.324-.444,4.611,4.611,0,0,1,3.1.981,3.433,3.433,0,0,1,1.147,2.759v4.58a5.052,5.052,0,0,0,.42,2.275V0Zm-2.334-1.963a2.431,2.431,0,0,0,1.152-.278,1.828,1.828,0,0,0,.781-.747V-4.8H197.6q-2.119,0-2.256,1.465l-.01.166a1.13,1.13,0,0,0,.371.869A1.441,1.441,0,0,0,196.722-1.963Zm11-.117a1.851,1.851,0,0,0,1.27-.43,1.506,1.506,0,0,0,.508-1.143h2.646a3.62,3.62,0,0,1-.586,1.968A3.866,3.866,0,0,1,209.981-.3,4.936,4.936,0,0,1,207.769.2a4.587,4.587,0,0,1-3.574-1.44,5.7,5.7,0,0,1-1.309-3.979V-5.41a5.635,5.635,0,0,1,1.3-3.9,4.534,4.534,0,0,1,3.564-1.455,4.444,4.444,0,0,1,3.179,1.128,3.994,3.994,0,0,1,1.216,3H209.5a1.923,1.923,0,0,0-.508-1.333,1.7,1.7,0,0,0-1.289-.513,1.7,1.7,0,0,0-1.489.718,4.155,4.155,0,0,0-.5,2.329v.293a4.207,4.207,0,0,0,.5,2.344A1.722,1.722,0,0,0,207.72-2.08ZM216.4,0h-2.832V-10.566H216.4Zm-3-13.3a1.39,1.39,0,0,1,.425-1.045,1.6,1.6,0,0,1,1.157-.41,1.6,1.6,0,0,1,1.152.41,1.382,1.382,0,0,1,.43,1.045,1.386,1.386,0,0,1-.435,1.055,1.6,1.6,0,0,1-1.147.41,1.6,1.6,0,0,1-1.147-.41A1.386,1.386,0,0,1,213.406-13.3Zm4.553,7.92a6.267,6.267,0,0,1,.605-2.8,4.432,4.432,0,0,1,1.743-1.9,5.086,5.086,0,0,1,2.642-.674,4.812,4.812,0,0,1,3.491,1.309A5.252,5.252,0,0,1,227.949-5.9l.02.723a5.523,5.523,0,0,1-1.357,3.9A4.718,4.718,0,0,1,222.969.2a4.742,4.742,0,0,1-3.647-1.465,5.62,5.62,0,0,1-1.362-3.984Zm2.822.205a3.939,3.939,0,0,0,.566,2.3,1.869,1.869,0,0,0,1.621.8,1.874,1.874,0,0,0,1.6-.786,4.31,4.31,0,0,0,.576-2.515,3.9,3.9,0,0,0-.576-2.285,1.874,1.874,0,0,0-1.621-.811,1.843,1.843,0,0,0-1.6.806A4.383,4.383,0,0,0,220.781-5.176ZM223.506-15h3.076l-2.705,3.027h-2.295Zm8.469,4.434.088,1.221a3.689,3.689,0,0,1,3.037-1.416,3.066,3.066,0,0,1,2.5.986,4.6,4.6,0,0,1,.84,2.949V0h-2.822V-6.758a1.831,1.831,0,0,0-.391-1.3,1.749,1.749,0,0,0-1.3-.405,1.942,1.942,0,0,0-1.787,1.016V0h-2.822V-10.566Z" transform="translate(1090.128 -2657.58)"/><path d="M10.01,1.958V.288A6.166,6.166,0,0,1,7.974-.274a3.549,3.549,0,0,1-1.354-1.3,4.664,4.664,0,0,1-.663-2.2l1.679-.315a4.236,4.236,0,0,0,.687,1.976,2.436,2.436,0,0,0,1.688.993V-6.438a6.976,6.976,0,0,1-2.106-.8A3.085,3.085,0,0,1,6.675-8.47a3.669,3.669,0,0,1-.431-1.791,3.651,3.651,0,0,1,1.262-2.885,4.389,4.389,0,0,1,2.5-.909v-.8h.983v.8a4.123,4.123,0,0,1,2.31.854,3.794,3.794,0,0,1,1.317,2.5l-1.726.26a2.857,2.857,0,0,0-.617-1.508,2.276,2.276,0,0,0-1.285-.691V-7.83a13.243,13.243,0,0,1,1.67.492,4.125,4.125,0,0,1,1.271.835,3.359,3.359,0,0,1,.756,1.169,4,4,0,0,1,.264,1.466,4.033,4.033,0,0,1-1.1,2.895A4.05,4.05,0,0,1,10.994.269V1.958Zm0-14.621a2.475,2.475,0,0,0-1.535.779,2.173,2.173,0,0,0-.561,1.494,2.161,2.161,0,0,0,.478,1.429,3.292,3.292,0,0,0,1.619.918Zm.983,11.541a2.476,2.476,0,0,0,1.61-.844,2.616,2.616,0,0,0,.635-1.791,2.241,2.241,0,0,0-.45-1.461,3.883,3.883,0,0,0-1.8-.988Zm5.641-2.44,1.753-.148a3.144,3.144,0,0,0,.9,1.925A2.456,2.456,0,0,0,21-1.141a2.666,2.666,0,0,0,2.041-.909,3.426,3.426,0,0,0,.835-2.412,3.1,3.1,0,0,0-.8-2.254,2.8,2.8,0,0,0-2.1-.826,2.912,2.912,0,0,0-1.457.366,2.828,2.828,0,0,0-1.021.951l-1.568-.2,1.317-6.986h6.763v1.6H19.584l-.733,3.655a4.426,4.426,0,0,1,2.57-.854,4.071,4.071,0,0,1,3.006,1.234,4.312,4.312,0,0,1,1.225,3.173,4.953,4.953,0,0,1-1.076,3.191A4.311,4.311,0,0,1,21,.232,4.4,4.4,0,0,1,17.975-.807,4.055,4.055,0,0,1,16.634-3.562ZM28.138,0V-1.9h1.9V0ZM32.48-6.708a12.446,12.446,0,0,1,.5-3.883,4.829,4.829,0,0,1,1.475-2.268,3.771,3.771,0,0,1,2.463-.8,4.019,4.019,0,0,1,1.92.441A3.671,3.671,0,0,1,40.2-11.945a6.819,6.819,0,0,1,.844,2.022,13.437,13.437,0,0,1,.306,3.215,12.48,12.48,0,0,1-.492,3.864,4.831,4.831,0,0,1-1.47,2.273,3.771,3.771,0,0,1-2.472.8,3.732,3.732,0,0,1-3.089-1.41Q32.48-2.876,32.48-6.708Zm1.716,0q0,3.349.784,4.458a2.31,2.31,0,0,0,1.934,1.109,2.308,2.308,0,0,0,1.934-1.113q.784-1.113.784-4.453,0-3.358-.784-4.462a2.327,2.327,0,0,0-1.953-1.1,2.14,2.14,0,0,0-1.837.974Q34.2-10.057,34.2-6.708Zm8.851,0a12.446,12.446,0,0,1,.5-3.883,4.829,4.829,0,0,1,1.475-2.268,3.771,3.771,0,0,1,2.463-.8,4.019,4.019,0,0,1,1.92.441,3.671,3.671,0,0,1,1.364,1.271,6.819,6.819,0,0,1,.844,2.022,13.437,13.437,0,0,1,.306,3.215,12.48,12.48,0,0,1-.492,3.864,4.831,4.831,0,0,1-1.47,2.273,3.771,3.771,0,0,1-2.472.8,3.732,3.732,0,0,1-3.089-1.41Q43.047-2.876,43.047-6.708Zm1.716,0q0,3.349.784,4.458a2.31,2.31,0,0,0,1.934,1.109,2.308,2.308,0,0,0,1.934-1.113q.784-1.113.784-4.453,0-3.358-.784-4.462a2.327,2.327,0,0,0-1.953-1.1,2.14,2.14,0,0,0-1.837.974Q44.763-10.057,44.763-6.708Zm8.851,0a12.446,12.446,0,0,1,.5-3.883,4.829,4.829,0,0,1,1.475-2.268,3.771,3.771,0,0,1,2.463-.8,4.019,4.019,0,0,1,1.92.441,3.671,3.671,0,0,1,1.364,1.271,6.819,6.819,0,0,1,.844,2.022,13.437,13.437,0,0,1,.306,3.215,12.48,12.48,0,0,1-.492,3.864,4.831,4.831,0,0,1-1.47,2.273,3.771,3.771,0,0,1-2.472.8,3.732,3.732,0,0,1-3.089-1.41Q53.614-2.876,53.614-6.708Zm1.716,0q0,3.349.784,4.458a2.31,2.31,0,0,0,1.934,1.109,2.308,2.308,0,0,0,1.934-1.113q.784-1.113.784-4.453,0-3.358-.784-4.462a2.327,2.327,0,0,0-1.953-1.1,2.14,2.14,0,0,0-1.837.974Q55.33-10.057,55.33-6.708ZM65.118,0V-1.9h1.9V0Zm4.342-6.708a12.446,12.446,0,0,1,.5-3.883,4.829,4.829,0,0,1,1.475-2.268,3.771,3.771,0,0,1,2.463-.8,4.019,4.019,0,0,1,1.92.441,3.671,3.671,0,0,1,1.364,1.271,6.819,6.819,0,0,1,.844,2.022,13.437,13.437,0,0,1,.306,3.215,12.481,12.481,0,0,1-.492,3.864,4.831,4.831,0,0,1-1.47,2.273,3.771,3.771,0,0,1-2.472.8A3.732,3.732,0,0,1,70.8-1.178Q69.459-2.876,69.459-6.708Zm1.716,0q0,3.349.784,4.458a2.31,2.31,0,0,0,1.934,1.109,2.308,2.308,0,0,0,1.934-1.113q.784-1.113.784-4.453,0-3.358-.784-4.462a2.327,2.327,0,0,0-1.953-1.1,2.14,2.14,0,0,0-1.837.974Q71.176-10.057,71.176-6.708Zm8.851,0a12.446,12.446,0,0,1,.5-3.883A4.829,4.829,0,0,1,82-12.858a3.771,3.771,0,0,1,2.463-.8,4.019,4.019,0,0,1,1.92.441,3.671,3.671,0,0,1,1.364,1.271,6.819,6.819,0,0,1,.844,2.022A13.437,13.437,0,0,1,88.9-6.708,12.481,12.481,0,0,1,88.4-2.844a4.831,4.831,0,0,1-1.47,2.273,3.771,3.771,0,0,1-2.472.8,3.732,3.732,0,0,1-3.089-1.41Q80.026-2.876,80.026-6.708Zm1.716,0q0,3.349.784,4.458a2.31,2.31,0,0,0,1.934,1.109A2.308,2.308,0,0,0,86.4-2.254q.784-1.113.784-4.453,0-3.358-.784-4.462a2.327,2.327,0,0,0-1.953-1.1,2.14,2.14,0,0,0-1.837.974Q81.743-10.057,81.743-6.708Zm8.851,0a12.446,12.446,0,0,1,.5-3.883,4.829,4.829,0,0,1,1.475-2.268,3.771,3.771,0,0,1,2.463-.8,4.019,4.019,0,0,1,1.92.441,3.671,3.671,0,0,1,1.364,1.271,6.819,6.819,0,0,1,.844,2.022,13.437,13.437,0,0,1,.306,3.215,12.481,12.481,0,0,1-.492,3.864A4.831,4.831,0,0,1,97.5-.571a3.771,3.771,0,0,1-2.472.8,3.732,3.732,0,0,1-3.089-1.41Q90.593-2.876,90.593-6.708Zm1.716,0q0,3.349.784,4.458a2.31,2.31,0,0,0,1.934,1.109,2.308,2.308,0,0,0,1.934-1.113q.784-1.113.784-4.453,0-3.358-.784-4.462a2.327,2.327,0,0,0-1.953-1.1,2.14,2.14,0,0,0-1.837.974Q92.31-10.057,92.31-6.708Z" transform="translate(1514.128 -2610.58)"/><path d="M10.01,1.958V.288A6.166,6.166,0,0,1,7.974-.274a3.549,3.549,0,0,1-1.354-1.3,4.664,4.664,0,0,1-.663-2.2l1.679-.315a4.236,4.236,0,0,0,.687,1.976,2.436,2.436,0,0,0,1.688.993V-6.438a6.976,6.976,0,0,1-2.106-.8A3.085,3.085,0,0,1,6.675-8.47a3.669,3.669,0,0,1-.431-1.791,3.651,3.651,0,0,1,1.262-2.885,4.389,4.389,0,0,1,2.5-.909v-.8h.983v.8a4.123,4.123,0,0,1,2.31.854,3.794,3.794,0,0,1,1.317,2.5l-1.726.26a2.857,2.857,0,0,0-.617-1.508,2.276,2.276,0,0,0-1.285-.691V-7.83a13.243,13.243,0,0,1,1.67.492,4.125,4.125,0,0,1,1.271.835,3.359,3.359,0,0,1,.756,1.169,4,4,0,0,1,.264,1.466,4.033,4.033,0,0,1-1.1,2.895A4.05,4.05,0,0,1,10.994.269V1.958Zm0-14.621a2.475,2.475,0,0,0-1.535.779,2.173,2.173,0,0,0-.561,1.494,2.161,2.161,0,0,0,.478,1.429,3.292,3.292,0,0,0,1.619.918Zm.983,11.541a2.476,2.476,0,0,0,1.61-.844,2.616,2.616,0,0,0,.635-1.791,2.241,2.241,0,0,0-.45-1.461,3.883,3.883,0,0,0-1.8-.988Zm5.65-2.468,1.67-.223a3.679,3.679,0,0,0,.979,2.046,2.418,2.418,0,0,0,1.684.626,2.7,2.7,0,0,0,1.99-.816,2.755,2.755,0,0,0,.812-2.022,2.562,2.562,0,0,0-.751-1.9,2.6,2.6,0,0,0-1.911-.747,4.794,4.794,0,0,0-1.178.186L20.123-7.9a2.553,2.553,0,0,0,.269.019,3.439,3.439,0,0,0,1.92-.557,1.905,1.905,0,0,0,.854-1.716,2.03,2.03,0,0,0-.622-1.521,2.209,2.209,0,0,0-1.6-.6,2.274,2.274,0,0,0-1.624.612,3.074,3.074,0,0,0-.835,1.837l-1.67-.3a4.292,4.292,0,0,1,1.392-2.6,4.023,4.023,0,0,1,2.7-.923,4.448,4.448,0,0,1,2.05.478,3.456,3.456,0,0,1,1.433,1.3,3.348,3.348,0,0,1,.5,1.753,2.871,2.871,0,0,1-.473,1.6,3.231,3.231,0,0,1-1.4,1.15,3.156,3.156,0,0,1,1.874,1.155,3.515,3.515,0,0,1,.668,2.194A4.014,4.014,0,0,1,24.251-1,4.568,4.568,0,0,1,20.967.241,4.272,4.272,0,0,1,17.993-.826,4.125,4.125,0,0,1,16.644-3.59ZM28.138,0V-1.9h1.9V0ZM32.48-6.708a12.446,12.446,0,0,1,.5-3.883,4.829,4.829,0,0,1,1.475-2.268,3.771,3.771,0,0,1,2.463-.8,4.019,4.019,0,0,1,1.92.441A3.671,3.671,0,0,1,40.2-11.945a6.819,6.819,0,0,1,.844,2.022,13.437,13.437,0,0,1,.306,3.215,12.48,12.48,0,0,1-.492,3.864,4.831,4.831,0,0,1-1.47,2.273,3.771,3.771,0,0,1-2.472.8,3.732,3.732,0,0,1-3.089-1.41Q32.48-2.876,32.48-6.708Zm1.716,0q0,3.349.784,4.458a2.31,2.31,0,0,0,1.934,1.109,2.308,2.308,0,0,0,1.934-1.113q.784-1.113.784-4.453,0-3.358-.784-4.462a2.327,2.327,0,0,0-1.953-1.1,2.14,2.14,0,0,0-1.837.974Q34.2-10.057,34.2-6.708Zm8.851,0a12.446,12.446,0,0,1,.5-3.883,4.829,4.829,0,0,1,1.475-2.268,3.771,3.771,0,0,1,2.463-.8,4.019,4.019,0,0,1,1.92.441,3.671,3.671,0,0,1,1.364,1.271,6.819,6.819,0,0,1,.844,2.022,13.437,13.437,0,0,1,.306,3.215,12.48,12.48,0,0,1-.492,3.864,4.831,4.831,0,0,1-1.47,2.273,3.771,3.771,0,0,1-2.472.8,3.732,3.732,0,0,1-3.089-1.41Q43.047-2.876,43.047-6.708Zm1.716,0q0,3.349.784,4.458a2.31,2.31,0,0,0,1.934,1.109,2.308,2.308,0,0,0,1.934-1.113q.784-1.113.784-4.453,0-3.358-.784-4.462a2.327,2.327,0,0,0-1.953-1.1,2.14,2.14,0,0,0-1.837.974Q44.763-10.057,44.763-6.708Zm8.851,0a12.446,12.446,0,0,1,.5-3.883,4.829,4.829,0,0,1,1.475-2.268,3.771,3.771,0,0,1,2.463-.8,4.019,4.019,0,0,1,1.92.441,3.671,3.671,0,0,1,1.364,1.271,6.819,6.819,0,0,1,.844,2.022,13.437,13.437,0,0,1,.306,3.215,12.48,12.48,0,0,1-.492,3.864,4.831,4.831,0,0,1-1.47,2.273,3.771,3.771,0,0,1-2.472.8,3.732,3.732,0,0,1-3.089-1.41Q53.614-2.876,53.614-6.708Zm1.716,0q0,3.349.784,4.458a2.31,2.31,0,0,0,1.934,1.109,2.308,2.308,0,0,0,1.934-1.113q.784-1.113.784-4.453,0-3.358-.784-4.462a2.327,2.327,0,0,0-1.953-1.1,2.14,2.14,0,0,0-1.837.974Q55.33-10.057,55.33-6.708ZM65.118,0V-1.9h1.9V0Zm4.342-6.708a12.446,12.446,0,0,1,.5-3.883,4.829,4.829,0,0,1,1.475-2.268,3.771,3.771,0,0,1,2.463-.8,4.019,4.019,0,0,1,1.92.441,3.671,3.671,0,0,1,1.364,1.271,6.819,6.819,0,0,1,.844,2.022,13.437,13.437,0,0,1,.306,3.215,12.481,12.481,0,0,1-.492,3.864,4.831,4.831,0,0,1-1.47,2.273,3.771,3.771,0,0,1-2.472.8A3.732,3.732,0,0,1,70.8-1.178Q69.459-2.876,69.459-6.708Zm1.716,0q0,3.349.784,4.458a2.31,2.31,0,0,0,1.934,1.109,2.308,2.308,0,0,0,1.934-1.113q.784-1.113.784-4.453,0-3.358-.784-4.462a2.327,2.327,0,0,0-1.953-1.1,2.14,2.14,0,0,0-1.837.974Q71.176-10.057,71.176-6.708Zm8.851,0a12.446,12.446,0,0,1,.5-3.883A4.829,4.829,0,0,1,82-12.858a3.771,3.771,0,0,1,2.463-.8,4.019,4.019,0,0,1,1.92.441,3.671,3.671,0,0,1,1.364,1.271,6.819,6.819,0,0,1,.844,2.022A13.437,13.437,0,0,1,88.9-6.708,12.481,12.481,0,0,1,88.4-2.844a4.831,4.831,0,0,1-1.47,2.273,3.771,3.771,0,0,1-2.472.8,3.732,3.732,0,0,1-3.089-1.41Q80.026-2.876,80.026-6.708Zm1.716,0q0,3.349.784,4.458a2.31,2.31,0,0,0,1.934,1.109A2.308,2.308,0,0,0,86.4-2.254q.784-1.113.784-4.453,0-3.358-.784-4.462a2.327,2.327,0,0,0-1.953-1.1,2.14,2.14,0,0,0-1.837.974Q81.743-10.057,81.743-6.708Zm8.851,0a12.446,12.446,0,0,1,.5-3.883,4.829,4.829,0,0,1,1.475-2.268,3.771,3.771,0,0,1,2.463-.8,4.019,4.019,0,0,1,1.92.441,3.671,3.671,0,0,1,1.364,1.271,6.819,6.819,0,0,1,.844,2.022,13.437,13.437,0,0,1,.306,3.215,12.481,12.481,0,0,1-.492,3.864A4.831,4.831,0,0,1,97.5-.571a3.771,3.771,0,0,1-2.472.8,3.732,3.732,0,0,1-3.089-1.41Q90.593-2.876,90.593-6.708Zm1.716,0q0,3.349.784,4.458a2.31,2.31,0,0,0,1.934,1.109,2.308,2.308,0,0,0,1.934-1.113q.784-1.113.784-4.453,0-3.358-.784-4.462a2.327,2.327,0,0,0-1.953-1.1,2.14,2.14,0,0,0-1.837.974Q92.31-10.057,92.31-6.708Z" transform="translate(1514.128 -2565.58)"/><path d="M10.01,1.958V.288A6.166,6.166,0,0,1,7.974-.274a3.549,3.549,0,0,1-1.354-1.3,4.664,4.664,0,0,1-.663-2.2l1.679-.315a4.236,4.236,0,0,0,.687,1.976,2.436,2.436,0,0,0,1.688.993V-6.438a6.976,6.976,0,0,1-2.106-.8A3.085,3.085,0,0,1,6.675-8.47a3.669,3.669,0,0,1-.431-1.791,3.651,3.651,0,0,1,1.262-2.885,4.389,4.389,0,0,1,2.5-.909v-.8h.983v.8a4.123,4.123,0,0,1,2.31.854,3.794,3.794,0,0,1,1.317,2.5l-1.726.26a2.857,2.857,0,0,0-.617-1.508,2.276,2.276,0,0,0-1.285-.691V-7.83a13.243,13.243,0,0,1,1.67.492,4.125,4.125,0,0,1,1.271.835,3.359,3.359,0,0,1,.756,1.169,4,4,0,0,1,.264,1.466,4.033,4.033,0,0,1-1.1,2.895A4.05,4.05,0,0,1,10.994.269V1.958Zm0-14.621a2.475,2.475,0,0,0-1.535.779,2.173,2.173,0,0,0-.561,1.494,2.161,2.161,0,0,0,.478,1.429,3.292,3.292,0,0,0,1.619.918Zm.983,11.541a2.476,2.476,0,0,0,1.61-.844,2.616,2.616,0,0,0,.635-1.791,2.241,2.241,0,0,0-.45-1.461,3.883,3.883,0,0,0-1.8-.988ZM25.3-10.27l-1.661.13a3.145,3.145,0,0,0-.631-1.429,2.21,2.21,0,0,0-1.67-.714,2.3,2.3,0,0,0-1.4.445,3.806,3.806,0,0,0-1.243,1.679,8.775,8.775,0,0,0-.473,3.145A3.87,3.87,0,0,1,19.7-8.377a3.967,3.967,0,0,1,1.828-.445,3.786,3.786,0,0,1,2.844,1.229,4.412,4.412,0,0,1,1.174,3.177,5.228,5.228,0,0,1-.552,2.38A4.022,4.022,0,0,1,23.472-.353a4.142,4.142,0,0,1-2.189.584,4.278,4.278,0,0,1-3.4-1.535Q16.56-2.839,16.56-6.364q0-3.943,1.457-5.733a4.187,4.187,0,0,1,3.423-1.559,3.841,3.841,0,0,1,2.63.9A3.82,3.82,0,0,1,25.3-10.27ZM18.48-4.407a3.874,3.874,0,0,0,.366,1.651,2.731,2.731,0,0,0,1.025,1.2,2.563,2.563,0,0,0,1.382.413,2.356,2.356,0,0,0,1.818-.854,3.36,3.36,0,0,0,.761-2.319,3.144,3.144,0,0,0-.751-2.222,2.469,2.469,0,0,0-1.893-.812,2.576,2.576,0,0,0-1.92.812A2.926,2.926,0,0,0,18.48-4.407ZM28.138,0V-1.9h1.9V0ZM32.48-6.708a12.446,12.446,0,0,1,.5-3.883,4.829,4.829,0,0,1,1.475-2.268,3.771,3.771,0,0,1,2.463-.8,4.019,4.019,0,0,1,1.92.441A3.671,3.671,0,0,1,40.2-11.945a6.819,6.819,0,0,1,.844,2.022,13.437,13.437,0,0,1,.306,3.215,12.48,12.48,0,0,1-.492,3.864,4.831,4.831,0,0,1-1.47,2.273,3.771,3.771,0,0,1-2.472.8,3.732,3.732,0,0,1-3.089-1.41Q32.48-2.876,32.48-6.708Zm1.716,0q0,3.349.784,4.458a2.31,2.31,0,0,0,1.934,1.109,2.308,2.308,0,0,0,1.934-1.113q.784-1.113.784-4.453,0-3.358-.784-4.462a2.327,2.327,0,0,0-1.953-1.1,2.14,2.14,0,0,0-1.837.974Q34.2-10.057,34.2-6.708Zm8.851,0a12.446,12.446,0,0,1,.5-3.883,4.829,4.829,0,0,1,1.475-2.268,3.771,3.771,0,0,1,2.463-.8,4.019,4.019,0,0,1,1.92.441,3.671,3.671,0,0,1,1.364,1.271,6.819,6.819,0,0,1,.844,2.022,13.437,13.437,0,0,1,.306,3.215,12.48,12.48,0,0,1-.492,3.864,4.831,4.831,0,0,1-1.47,2.273,3.771,3.771,0,0,1-2.472.8,3.732,3.732,0,0,1-3.089-1.41Q43.047-2.876,43.047-6.708Zm1.716,0q0,3.349.784,4.458a2.31,2.31,0,0,0,1.934,1.109,2.308,2.308,0,0,0,1.934-1.113q.784-1.113.784-4.453,0-3.358-.784-4.462a2.327,2.327,0,0,0-1.953-1.1,2.14,2.14,0,0,0-1.837.974Q44.763-10.057,44.763-6.708Zm8.851,0a12.446,12.446,0,0,1,.5-3.883,4.829,4.829,0,0,1,1.475-2.268,3.771,3.771,0,0,1,2.463-.8,4.019,4.019,0,0,1,1.92.441,3.671,3.671,0,0,1,1.364,1.271,6.819,6.819,0,0,1,.844,2.022,13.437,13.437,0,0,1,.306,3.215,12.48,12.48,0,0,1-.492,3.864,4.831,4.831,0,0,1-1.47,2.273,3.771,3.771,0,0,1-2.472.8,3.732,3.732,0,0,1-3.089-1.41Q53.614-2.876,53.614-6.708Zm1.716,0q0,3.349.784,4.458a2.31,2.31,0,0,0,1.934,1.109,2.308,2.308,0,0,0,1.934-1.113q.784-1.113.784-4.453,0-3.358-.784-4.462a2.327,2.327,0,0,0-1.953-1.1,2.14,2.14,0,0,0-1.837.974Q55.33-10.057,55.33-6.708ZM65.118,0V-1.9h1.9V0Zm4.342-6.708a12.446,12.446,0,0,1,.5-3.883,4.829,4.829,0,0,1,1.475-2.268,3.771,3.771,0,0,1,2.463-.8,4.019,4.019,0,0,1,1.92.441,3.671,3.671,0,0,1,1.364,1.271,6.819,6.819,0,0,1,.844,2.022,13.437,13.437,0,0,1,.306,3.215,12.481,12.481,0,0,1-.492,3.864,4.831,4.831,0,0,1-1.47,2.273,3.771,3.771,0,0,1-2.472.8A3.732,3.732,0,0,1,70.8-1.178Q69.459-2.876,69.459-6.708Zm1.716,0q0,3.349.784,4.458a2.31,2.31,0,0,0,1.934,1.109,2.308,2.308,0,0,0,1.934-1.113q.784-1.113.784-4.453,0-3.358-.784-4.462a2.327,2.327,0,0,0-1.953-1.1,2.14,2.14,0,0,0-1.837.974Q71.176-10.057,71.176-6.708Zm8.851,0a12.446,12.446,0,0,1,.5-3.883A4.829,4.829,0,0,1,82-12.858a3.771,3.771,0,0,1,2.463-.8,4.019,4.019,0,0,1,1.92.441,3.671,3.671,0,0,1,1.364,1.271,6.819,6.819,0,0,1,.844,2.022A13.437,13.437,0,0,1,88.9-6.708,12.481,12.481,0,0,1,88.4-2.844a4.831,4.831,0,0,1-1.47,2.273,3.771,3.771,0,0,1-2.472.8,3.732,3.732,0,0,1-3.089-1.41Q80.026-2.876,80.026-6.708Zm1.716,0q0,3.349.784,4.458a2.31,2.31,0,0,0,1.934,1.109A2.308,2.308,0,0,0,86.4-2.254q.784-1.113.784-4.453,0-3.358-.784-4.462a2.327,2.327,0,0,0-1.953-1.1,2.14,2.14,0,0,0-1.837.974Q81.743-10.057,81.743-6.708Zm8.851,0a12.446,12.446,0,0,1,.5-3.883,4.829,4.829,0,0,1,1.475-2.268,3.771,3.771,0,0,1,2.463-.8,4.019,4.019,0,0,1,1.92.441,3.671,3.671,0,0,1,1.364,1.271,6.819,6.819,0,0,1,.844,2.022,13.437,13.437,0,0,1,.306,3.215,12.481,12.481,0,0,1-.492,3.864A4.831,4.831,0,0,1,97.5-.571a3.771,3.771,0,0,1-2.472.8,3.732,3.732,0,0,1-3.089-1.41Q90.593-2.876,90.593-6.708Zm1.716,0q0,3.349.784,4.458a2.31,2.31,0,0,0,1.934,1.109,2.308,2.308,0,0,0,1.934-1.113q.784-1.113.784-4.453,0-3.358-.784-4.462a2.327,2.327,0,0,0-1.953-1.1,2.14,2.14,0,0,0-1.837.974Q92.31-10.057,92.31-6.708Z" transform="translate(1514.128 -2521.58)"/><path d="M10.01,1.958V.288A6.166,6.166,0,0,1,7.974-.274a3.549,3.549,0,0,1-1.354-1.3,4.664,4.664,0,0,1-.663-2.2l1.679-.315a4.236,4.236,0,0,0,.687,1.976,2.436,2.436,0,0,0,1.688.993V-6.438a6.976,6.976,0,0,1-2.106-.8A3.085,3.085,0,0,1,6.675-8.47a3.669,3.669,0,0,1-.431-1.791,3.651,3.651,0,0,1,1.262-2.885,4.389,4.389,0,0,1,2.5-.909v-.8h.983v.8a4.123,4.123,0,0,1,2.31.854,3.794,3.794,0,0,1,1.317,2.5l-1.726.26a2.857,2.857,0,0,0-.617-1.508,2.276,2.276,0,0,0-1.285-.691V-7.83a13.243,13.243,0,0,1,1.67.492,4.125,4.125,0,0,1,1.271.835,3.359,3.359,0,0,1,.756,1.169,4,4,0,0,1,.264,1.466,4.033,4.033,0,0,1-1.1,2.895A4.05,4.05,0,0,1,10.994.269V1.958Zm0-14.621a2.475,2.475,0,0,0-1.535.779,2.173,2.173,0,0,0-.561,1.494,2.161,2.161,0,0,0,.478,1.429,3.292,3.292,0,0,0,1.619.918Zm.983,11.541a2.476,2.476,0,0,0,1.61-.844,2.616,2.616,0,0,0,.635-1.791,2.241,2.241,0,0,0-.45-1.461,3.883,3.883,0,0,0-1.8-.988ZM25.411-1.6V0h-8.99a2.954,2.954,0,0,1,.195-1.16,6.135,6.135,0,0,1,1.1-1.809A17.224,17.224,0,0,1,19.9-5.028a18.521,18.521,0,0,0,3-2.881,3.449,3.449,0,0,0,.779-2.009,2.232,2.232,0,0,0-.71-1.675,2.56,2.56,0,0,0-1.851-.682,2.608,2.608,0,0,0-1.93.724,2.738,2.738,0,0,0-.733,2l-1.716-.176a4.225,4.225,0,0,1,1.327-2.927,4.525,4.525,0,0,1,3.089-1.007,4.311,4.311,0,0,1,3.1,1.085,3.564,3.564,0,0,1,1.141,2.69,4.081,4.081,0,0,1-.334,1.6,6.229,6.229,0,0,1-1.109,1.661,27.009,27.009,0,0,1-2.574,2.394q-1.5,1.262-1.93,1.712a5.491,5.491,0,0,0-.705.9ZM28.138,0V-1.9h1.9V0ZM32.48-3.562l1.753-.148a3.144,3.144,0,0,0,.9,1.925,2.456,2.456,0,0,0,1.712.645,2.666,2.666,0,0,0,2.041-.909,3.426,3.426,0,0,0,.835-2.412,3.1,3.1,0,0,0-.8-2.254,2.8,2.8,0,0,0-2.1-.826,2.912,2.912,0,0,0-1.457.366,2.828,2.828,0,0,0-1.021.951l-1.568-.2,1.317-6.986h6.763v1.6H35.43L34.7-8.164a4.426,4.426,0,0,1,2.57-.854,4.071,4.071,0,0,1,3.006,1.234A4.312,4.312,0,0,1,41.5-4.611a4.953,4.953,0,0,1-1.076,3.191A4.311,4.311,0,0,1,36.85.232,4.4,4.4,0,0,1,33.821-.807,4.055,4.055,0,0,1,32.48-3.562ZM43.047-6.708a12.446,12.446,0,0,1,.5-3.883,4.829,4.829,0,0,1,1.475-2.268,3.771,3.771,0,0,1,2.463-.8,4.019,4.019,0,0,1,1.92.441,3.671,3.671,0,0,1,1.364,1.271,6.819,6.819,0,0,1,.844,2.022,13.437,13.437,0,0,1,.306,3.215,12.48,12.48,0,0,1-.492,3.864,4.831,4.831,0,0,1-1.47,2.273,3.771,3.771,0,0,1-2.472.8,3.732,3.732,0,0,1-3.089-1.41Q43.047-2.876,43.047-6.708Zm1.716,0q0,3.349.784,4.458a2.31,2.31,0,0,0,1.934,1.109,2.308,2.308,0,0,0,1.934-1.113q.784-1.113.784-4.453,0-3.358-.784-4.462a2.327,2.327,0,0,0-1.953-1.1,2.14,2.14,0,0,0-1.837.974Q44.763-10.057,44.763-6.708Zm8.851,0a12.446,12.446,0,0,1,.5-3.883,4.829,4.829,0,0,1,1.475-2.268,3.771,3.771,0,0,1,2.463-.8,4.019,4.019,0,0,1,1.92.441,3.671,3.671,0,0,1,1.364,1.271,6.819,6.819,0,0,1,.844,2.022,13.437,13.437,0,0,1,.306,3.215,12.48,12.48,0,0,1-.492,3.864,4.831,4.831,0,0,1-1.47,2.273,3.771,3.771,0,0,1-2.472.8,3.732,3.732,0,0,1-3.089-1.41Q53.614-2.876,53.614-6.708Zm1.716,0q0,3.349.784,4.458a2.31,2.31,0,0,0,1.934,1.109,2.308,2.308,0,0,0,1.934-1.113q.784-1.113.784-4.453,0-3.358-.784-4.462a2.327,2.327,0,0,0-1.953-1.1,2.14,2.14,0,0,0-1.837.974Q55.33-10.057,55.33-6.708ZM65.118,0V-1.9h1.9V0Zm4.342-6.708a12.446,12.446,0,0,1,.5-3.883,4.829,4.829,0,0,1,1.475-2.268,3.771,3.771,0,0,1,2.463-.8,4.019,4.019,0,0,1,1.92.441,3.671,3.671,0,0,1,1.364,1.271,6.819,6.819,0,0,1,.844,2.022,13.437,13.437,0,0,1,.306,3.215,12.481,12.481,0,0,1-.492,3.864,4.831,4.831,0,0,1-1.47,2.273,3.771,3.771,0,0,1-2.472.8A3.732,3.732,0,0,1,70.8-1.178Q69.459-2.876,69.459-6.708Zm1.716,0q0,3.349.784,4.458a2.31,2.31,0,0,0,1.934,1.109,2.308,2.308,0,0,0,1.934-1.113q.784-1.113.784-4.453,0-3.358-.784-4.462a2.327,2.327,0,0,0-1.953-1.1,2.14,2.14,0,0,0-1.837.974Q71.176-10.057,71.176-6.708Zm8.851,0a12.446,12.446,0,0,1,.5-3.883A4.829,4.829,0,0,1,82-12.858a3.771,3.771,0,0,1,2.463-.8,4.019,4.019,0,0,1,1.92.441,3.671,3.671,0,0,1,1.364,1.271,6.819,6.819,0,0,1,.844,2.022A13.437,13.437,0,0,1,88.9-6.708,12.481,12.481,0,0,1,88.4-2.844a4.831,4.831,0,0,1-1.47,2.273,3.771,3.771,0,0,1-2.472.8,3.732,3.732,0,0,1-3.089-1.41Q80.026-2.876,80.026-6.708Zm1.716,0q0,3.349.784,4.458a2.31,2.31,0,0,0,1.934,1.109A2.308,2.308,0,0,0,86.4-2.254q.784-1.113.784-4.453,0-3.358-.784-4.462a2.327,2.327,0,0,0-1.953-1.1,2.14,2.14,0,0,0-1.837.974Q81.743-10.057,81.743-6.708Zm8.851,0a12.446,12.446,0,0,1,.5-3.883,4.829,4.829,0,0,1,1.475-2.268,3.771,3.771,0,0,1,2.463-.8,4.019,4.019,0,0,1,1.92.441,3.671,3.671,0,0,1,1.364,1.271,6.819,6.819,0,0,1,.844,2.022,13.437,13.437,0,0,1,.306,3.215,12.481,12.481,0,0,1-.492,3.864A4.831,4.831,0,0,1,97.5-.571a3.771,3.771,0,0,1-2.472.8,3.732,3.732,0,0,1-3.089-1.41Q90.593-2.876,90.593-6.708Zm1.716,0q0,3.349.784,4.458a2.31,2.31,0,0,0,1.934,1.109,2.308,2.308,0,0,0,1.934-1.113q.784-1.113.784-4.453,0-3.358-.784-4.462a2.327,2.327,0,0,0-1.953-1.1,2.14,2.14,0,0,0-1.837.974Q92.31-10.057,92.31-6.708Z" transform="translate(1514.128 -2478.58)"/><path class="c" d="M10.742-1.631.928-5.9V-8.262l9.814-4.248v2.783L3.9-7.109l6.846,2.715Zm5.573-.488V-6.211a5.384,5.384,0,0,1-2.808-1.655,4.151,4.151,0,0,1-.894-2.69,3.806,3.806,0,0,1,1.011-2.69,4.073,4.073,0,0,1,2.69-1.255v-.967h1.416v.967a4.19,4.19,0,0,1,2.471,1.06A4.086,4.086,0,0,1,21.374-11.1l-2.471.322a1.989,1.989,0,0,0-1.172-1.562v3.818A6.3,6.3,0,0,1,20.924-6.88a3.892,3.892,0,0,1,.85,2.593A4.339,4.339,0,0,1,20.7-1.309,4.7,4.7,0,0,1,17.731.176V2H16.315V.225a4.52,4.52,0,0,1-2.744-1.26,5.184,5.184,0,0,1-1.348-2.979l2.549-.273a3.249,3.249,0,0,0,.586,1.348A2.672,2.672,0,0,0,16.315-2.119Zm0-10.254a1.833,1.833,0,0,0-.918.664,1.717,1.717,0,0,0-.342,1.035,1.639,1.639,0,0,0,.313.962,2.168,2.168,0,0,0,.947.718ZM17.731-1.982a1.989,1.989,0,0,0,1.191-.679,1.91,1.91,0,0,0,.459-1.274A1.73,1.73,0,0,0,19-5.063a2.466,2.466,0,0,0-1.265-.728Zm5.68-1.7,2.734-.283a2.346,2.346,0,0,0,.693,1.47,1.881,1.881,0,0,0,1.328.542,1.844,1.844,0,0,0,1.455-.7,3.177,3.177,0,0,0,.6-2.1,2.883,2.883,0,0,0-.591-1.978,1.969,1.969,0,0,0-1.538-.659A2.8,2.8,0,0,0,25.97-6.348L23.743-6.67l1.406-7.451h7.256v2.568H27.23L26.8-9.121a4.149,4.149,0,0,1,1.875-.459,4.12,4.12,0,0,1,3.1,1.328A4.783,4.783,0,0,1,33.04-4.8,5.169,5.169,0,0,1,32.015-1.65,4.546,4.546,0,0,1,28.138.244,4.812,4.812,0,0,1,24.906-.82,4.384,4.384,0,0,1,23.411-3.682ZM38.994-14.375a3.912,3.912,0,0,1,3.252,1.484q1.4,1.758,1.4,5.83t-1.406,5.84A3.905,3.905,0,0,1,38.994.244a4.1,4.1,0,0,1-3.369-1.606Q34.346-2.969,34.346-7.09q0-4.043,1.406-5.82A3.905,3.905,0,0,1,38.994-14.375Zm0,2.275a1.371,1.371,0,0,0-.889.317,2.131,2.131,0,0,0-.605,1.138,15.692,15.692,0,0,0-.283,3.584A15.577,15.577,0,0,0,37.471-3.6a2.434,2.434,0,0,0,.64,1.255,1.365,1.365,0,0,0,.884.313,1.371,1.371,0,0,0,.889-.317,2.131,2.131,0,0,0,.605-1.138,15.554,15.554,0,0,0,.283-3.574,15.577,15.577,0,0,0-.254-3.462,2.468,2.468,0,0,0-.64-1.26A1.352,1.352,0,0,0,38.994-12.1Zm10.983-2.275a3.912,3.912,0,0,1,3.252,1.484q1.4,1.758,1.4,5.83t-1.406,5.84A3.905,3.905,0,0,1,49.977.244a4.1,4.1,0,0,1-3.369-1.606Q45.329-2.969,45.329-7.09q0-4.043,1.406-5.82A3.905,3.905,0,0,1,49.977-14.375Zm0,2.275a1.371,1.371,0,0,0-.889.317,2.131,2.131,0,0,0-.605,1.138A15.692,15.692,0,0,0,48.2-7.061,15.577,15.577,0,0,0,48.454-3.6a2.434,2.434,0,0,0,.64,1.255,1.365,1.365,0,0,0,.884.313,1.371,1.371,0,0,0,.889-.317,2.131,2.131,0,0,0,.605-1.138,15.554,15.554,0,0,0,.283-3.574,15.577,15.577,0,0,0-.254-3.462,2.468,2.468,0,0,0-.64-1.26A1.352,1.352,0,0,0,49.977-12.1ZM56.907,0V-2.744h2.744V0Zm9.469-14.375a3.912,3.912,0,0,1,3.252,1.484q1.4,1.758,1.4,5.83t-1.406,5.84A3.905,3.905,0,0,1,66.377.244a4.1,4.1,0,0,1-3.369-1.606Q61.728-2.969,61.728-7.09q0-4.043,1.406-5.82A3.905,3.905,0,0,1,66.377-14.375Zm0,2.275a1.371,1.371,0,0,0-.889.317,2.131,2.131,0,0,0-.605,1.138A15.692,15.692,0,0,0,64.6-7.061,15.577,15.577,0,0,0,64.853-3.6a2.434,2.434,0,0,0,.64,1.255,1.365,1.365,0,0,0,.884.313,1.371,1.371,0,0,0,.889-.317,2.131,2.131,0,0,0,.605-1.138,15.553,15.553,0,0,0,.283-3.574,15.577,15.577,0,0,0-.254-3.462,2.468,2.468,0,0,0-.64-1.26A1.352,1.352,0,0,0,66.377-12.1ZM77.36-14.375a3.912,3.912,0,0,1,3.252,1.484q1.4,1.758,1.4,5.83T80.6-1.221A3.905,3.905,0,0,1,77.36.244a4.1,4.1,0,0,1-3.369-1.606Q72.711-2.969,72.711-7.09q0-4.043,1.406-5.82A3.905,3.905,0,0,1,77.36-14.375Zm0,2.275a1.371,1.371,0,0,0-.889.317,2.131,2.131,0,0,0-.605,1.138,15.692,15.692,0,0,0-.283,3.584A15.577,15.577,0,0,0,75.836-3.6a2.434,2.434,0,0,0,.64,1.255,1.365,1.365,0,0,0,.884.313,1.371,1.371,0,0,0,.889-.317,2.131,2.131,0,0,0,.605-1.138,15.553,15.553,0,0,0,.283-3.574,15.577,15.577,0,0,0-.254-3.462,2.468,2.468,0,0,0-.64-1.26A1.352,1.352,0,0,0,77.36-12.1Zm10.983-2.275a3.912,3.912,0,0,1,3.252,1.484q1.4,1.758,1.4,5.83t-1.406,5.84A3.905,3.905,0,0,1,88.343.244a4.1,4.1,0,0,1-3.369-1.606Q83.694-2.969,83.694-7.09q0-4.043,1.406-5.82A3.905,3.905,0,0,1,88.343-14.375Zm0,2.275a1.371,1.371,0,0,0-.889.317,2.131,2.131,0,0,0-.605,1.138,15.692,15.692,0,0,0-.283,3.584A15.577,15.577,0,0,0,86.819-3.6a2.434,2.434,0,0,0,.64,1.255,1.365,1.365,0,0,0,.884.313,1.371,1.371,0,0,0,.889-.317,2.131,2.131,0,0,0,.605-1.138,15.553,15.553,0,0,0,.283-3.574,15.577,15.577,0,0,0-.254-3.462,2.468,2.468,0,0,0-.64-1.26A1.352,1.352,0,0,0,88.343-12.1ZM94.765-1.621V-4.385l6.855-2.7L94.765-9.746V-12.49l9.824,4.248V-5.9Z" transform="translate(1508.128 -2434.58)"/><path d="M9.688-6.572H3.525v5.039h7.158V0H1.65V-14.219h8.936v1.543H3.525v4.57H9.688ZM14.1-10.566l.049,1.172a3.9,3.9,0,0,1,3.135-1.367,3.021,3.021,0,0,1,3.018,1.7,4,4,0,0,1,1.372-1.23,4.052,4.052,0,0,1,2-.469q3.477,0,3.535,3.682V0H25.4V-6.973a2.426,2.426,0,0,0-.518-1.694,2.279,2.279,0,0,0-1.738-.562,2.4,2.4,0,0,0-1.67.6,2.436,2.436,0,0,0-.771,1.616V0H18.889V-6.924a2.016,2.016,0,0,0-2.256-2.3A2.417,2.417,0,0,0,14.2-7.715V0H12.395V-10.566ZM31.567,0H29.76V-10.566h1.807ZM29.613-13.369a1.078,1.078,0,0,1,.269-.742,1.008,1.008,0,0,1,.8-.3,1.024,1.024,0,0,1,.8.3,1.067,1.067,0,0,1,.273.742,1.032,1.032,0,0,1-.273.732,1.043,1.043,0,0,1-.8.293,1.026,1.026,0,0,1-.8-.293A1.043,1.043,0,0,1,29.613-13.369ZM40.28-2.8a1.33,1.33,0,0,0-.552-1.138,5.311,5.311,0,0,0-1.924-.7,9.1,9.1,0,0,1-2.178-.7,3.1,3.1,0,0,1-1.191-.977,2.336,2.336,0,0,1-.386-1.348,2.741,2.741,0,0,1,1.1-2.2,4.291,4.291,0,0,1,2.808-.9,4.415,4.415,0,0,1,2.915.928,2.947,2.947,0,0,1,1.118,2.373H40.172a1.631,1.631,0,0,0-.63-1.279,2.36,2.36,0,0,0-1.587-.537,2.47,2.47,0,0,0-1.543.43,1.353,1.353,0,0,0-.557,1.123,1.1,1.1,0,0,0,.518.986,6.368,6.368,0,0,0,1.87.635,9.744,9.744,0,0,1,2.192.723A3.2,3.2,0,0,1,41.681-4.37a2.485,2.485,0,0,1,.405,1.44A2.7,2.7,0,0,1,40.953-.659,4.752,4.752,0,0,1,38.014.2a5.321,5.321,0,0,1-2.246-.449,3.653,3.653,0,0,1-1.528-1.255,3.025,3.025,0,0,1-.552-1.743h1.807a1.87,1.87,0,0,0,.728,1.44,2.822,2.822,0,0,0,1.792.532,2.913,2.913,0,0,0,1.646-.415A1.275,1.275,0,0,0,40.28-2.8ZM46.073,0H44.266V-10.566h1.807ZM44.119-13.369a1.078,1.078,0,0,1,.269-.742,1.008,1.008,0,0,1,.8-.3,1.024,1.024,0,0,1,.8.3,1.067,1.067,0,0,1,.273.742,1.032,1.032,0,0,1-.273.732,1.043,1.043,0,0,1-.8.293,1.026,1.026,0,0,1-.8-.293A1.043,1.043,0,0,1,44.119-13.369Zm4.035,7.988a6.241,6.241,0,0,1,.61-2.793,4.553,4.553,0,0,1,1.7-1.914,4.626,4.626,0,0,1,2.485-.674,4.456,4.456,0,0,1,3.491,1.494,5.748,5.748,0,0,1,1.333,3.975v.127A6.3,6.3,0,0,1,57.183-2.4,4.486,4.486,0,0,1,55.494-.488,4.679,4.679,0,0,1,52.969.2,4.445,4.445,0,0,1,49.488-1.3a5.719,5.719,0,0,1-1.333-3.955Zm1.816.215a4.52,4.52,0,0,0,.815,2.822,2.61,2.61,0,0,0,2.183,1.064,2.594,2.594,0,0,0,2.188-1.079,4.943,4.943,0,0,0,.811-3.022A4.513,4.513,0,0,0,55.142-8.2,2.623,2.623,0,0,0,52.95-9.277a2.594,2.594,0,0,0-2.158,1.064A4.906,4.906,0,0,0,49.971-5.166ZM53.77-15h2.188L53.34-12.129H51.885Zm7.649,4.434.059,1.328a3.851,3.851,0,0,1,3.164-1.523q3.35,0,3.379,3.779V0H66.213V-6.992a2.432,2.432,0,0,0-.522-1.689,2.094,2.094,0,0,0-1.6-.547,2.607,2.607,0,0,0-1.543.469,3.183,3.183,0,0,0-1.035,1.23V0H59.709V-10.566ZM74.6-5.371a6.19,6.19,0,0,1,1.152-3.911,3.644,3.644,0,0,1,3.018-1.479,3.665,3.665,0,0,1,2.939,1.27V-15h1.807V0h-1.66l-.088-1.133A3.679,3.679,0,0,1,78.747.2a3.609,3.609,0,0,1-2.993-1.5A6.26,6.26,0,0,1,74.6-5.234Zm1.807.205a4.687,4.687,0,0,0,.742,2.813A2.4,2.4,0,0,0,79.2-1.338a2.636,2.636,0,0,0,2.51-1.543V-7.734a2.656,2.656,0,0,0-2.49-1.494A2.411,2.411,0,0,0,77.145-8.2,5.16,5.16,0,0,0,76.4-5.166ZM90.37.2a4.617,4.617,0,0,1-3.5-1.411A5.237,5.237,0,0,1,85.526-4.99v-.332a6.341,6.341,0,0,1,.6-2.808,4.685,4.685,0,0,1,1.68-1.934,4.223,4.223,0,0,1,2.339-.7,3.957,3.957,0,0,1,3.2,1.357,5.877,5.877,0,0,1,1.143,3.887v.752H87.333a3.756,3.756,0,0,0,.913,2.524,2.87,2.87,0,0,0,2.222.962,3.147,3.147,0,0,0,1.621-.391,4.073,4.073,0,0,0,1.162-1.035l1.1.859A4.437,4.437,0,0,1,90.37.2Zm-.225-9.473a2.41,2.41,0,0,0-1.836.8,3.869,3.869,0,0,0-.918,2.231h5.293v-.137a3.441,3.441,0,0,0-.742-2.134A2.269,2.269,0,0,0,90.145-9.277ZM107.4,0a3.8,3.8,0,0,1-.254-1.113A4.031,4.031,0,0,1,104.134.2a3.73,3.73,0,0,1-2.563-.884,2.859,2.859,0,0,1-1-2.241,2.987,2.987,0,0,1,1.255-2.563,5.916,5.916,0,0,1,3.53-.913h1.758v-.83a2.029,2.029,0,0,0-.566-1.509,2.276,2.276,0,0,0-1.67-.562,2.634,2.634,0,0,0-1.621.488,1.439,1.439,0,0,0-.654,1.182h-1.816a2.493,2.493,0,0,1,.562-1.528,3.832,3.832,0,0,1,1.523-1.167,5.125,5.125,0,0,1,2.114-.43,4.177,4.177,0,0,1,2.861.913,3.294,3.294,0,0,1,1.074,2.515v4.863a5.946,5.946,0,0,0,.371,2.314V0Zm-3-1.377a3.175,3.175,0,0,0,1.611-.439,2.658,2.658,0,0,0,1.1-1.143V-5.127H105.7q-3.32,0-3.32,1.943a1.645,1.645,0,0,0,.566,1.328A2.177,2.177,0,0,0,104.4-1.377Zm11.262.1a2.6,2.6,0,0,0,1.689-.586,2.061,2.061,0,0,0,.8-1.465h1.709a3.276,3.276,0,0,1-.625,1.729A4.116,4.116,0,0,1,117.7-.293,4.438,4.438,0,0,1,115.659.2a4.353,4.353,0,0,1-3.433-1.44,5.737,5.737,0,0,1-1.274-3.94v-.3a6.361,6.361,0,0,1,.566-2.744,4.314,4.314,0,0,1,1.626-1.865,4.619,4.619,0,0,1,2.5-.664A4.238,4.238,0,0,1,118.6-9.7a3.8,3.8,0,0,1,1.255,2.764h-1.709a2.49,2.49,0,0,0-.776-1.685,2.415,2.415,0,0,0-1.724-.659,2.529,2.529,0,0,0-2.134.991,4.655,4.655,0,0,0-.757,2.866v.342a4.562,4.562,0,0,0,.752,2.813A2.541,2.541,0,0,0,115.659-1.279Zm10.139,0a2.6,2.6,0,0,0,1.689-.586,2.061,2.061,0,0,0,.8-1.465H130a3.276,3.276,0,0,1-.625,1.729,4.116,4.116,0,0,1-1.538,1.309A4.438,4.438,0,0,1,125.8.2a4.353,4.353,0,0,1-3.433-1.44,5.737,5.737,0,0,1-1.274-3.94v-.3a6.361,6.361,0,0,1,.566-2.744,4.314,4.314,0,0,1,1.626-1.865,4.619,4.619,0,0,1,2.5-.664A4.238,4.238,0,0,1,128.742-9.7,3.8,3.8,0,0,1,130-6.934h-1.709a2.49,2.49,0,0,0-.776-1.685,2.415,2.415,0,0,0-1.724-.659,2.529,2.529,0,0,0-2.134.991A4.655,4.655,0,0,0,122.9-5.42v.342a4.562,4.562,0,0,0,.752,2.813A2.541,2.541,0,0,0,125.8-1.279ZM133.661,0h-1.807V-10.566h1.807Zm-1.953-13.369a1.078,1.078,0,0,1,.269-.742,1.008,1.008,0,0,1,.8-.3,1.024,1.024,0,0,1,.8.3,1.067,1.067,0,0,1,.273.742,1.032,1.032,0,0,1-.273.732,1.043,1.043,0,0,1-.8.293,1.026,1.026,0,0,1-.8-.293A1.043,1.043,0,0,1,131.708-13.369Zm4.035,7.988a6.241,6.241,0,0,1,.61-2.793,4.553,4.553,0,0,1,1.7-1.914,4.626,4.626,0,0,1,2.485-.674,4.456,4.456,0,0,1,3.491,1.494,5.748,5.748,0,0,1,1.333,3.975v.127a6.3,6.3,0,0,1-.591,2.769,4.486,4.486,0,0,1-1.689,1.909A4.679,4.679,0,0,1,140.558.2,4.445,4.445,0,0,1,137.076-1.3a5.719,5.719,0,0,1-1.333-3.955Zm1.816.215a4.52,4.52,0,0,0,.815,2.822,2.61,2.61,0,0,0,2.183,1.064,2.594,2.594,0,0,0,2.188-1.079,4.943,4.943,0,0,0,.811-3.022,4.513,4.513,0,0,0-.825-2.817,2.623,2.623,0,0,0-2.192-1.079,2.594,2.594,0,0,0-2.158,1.064A4.906,4.906,0,0,0,137.56-5.166Zm11.447-5.4.059,1.328a3.851,3.851,0,0,1,3.164-1.523q3.35,0,3.379,3.779V0H153.8V-6.992a2.433,2.433,0,0,0-.522-1.689,2.094,2.094,0,0,0-1.6-.547,2.607,2.607,0,0,0-1.543.469,3.183,3.183,0,0,0-1.035,1.23V0H147.3V-10.566ZM162.388.2a4.617,4.617,0,0,1-3.5-1.411,5.237,5.237,0,0,1-1.348-3.774v-.332a6.341,6.341,0,0,1,.6-2.808,4.685,4.685,0,0,1,1.68-1.934,4.223,4.223,0,0,1,2.339-.7,3.957,3.957,0,0,1,3.2,1.357,5.877,5.877,0,0,1,1.143,3.887v.752h-7.158a3.756,3.756,0,0,0,.913,2.524,2.87,2.87,0,0,0,2.222.962,3.147,3.147,0,0,0,1.621-.391,4.073,4.073,0,0,0,1.162-1.035l1.1.859A4.437,4.437,0,0,1,162.388.2Zm-.225-9.473a2.41,2.41,0,0,0-1.836.8,3.868,3.868,0,0,0-.918,2.231H164.7v-.137a3.441,3.441,0,0,0-.742-2.134A2.269,2.269,0,0,0,162.163-9.277ZM174.421-2.8a1.33,1.33,0,0,0-.552-1.138,5.311,5.311,0,0,0-1.924-.7,9.1,9.1,0,0,1-2.178-.7,3.1,3.1,0,0,1-1.191-.977,2.336,2.336,0,0,1-.386-1.348,2.741,2.741,0,0,1,1.1-2.2,4.291,4.291,0,0,1,2.808-.9,4.415,4.415,0,0,1,2.915.928,2.947,2.947,0,0,1,1.118,2.373h-1.816a1.631,1.631,0,0,0-.63-1.279,2.36,2.36,0,0,0-1.587-.537,2.47,2.47,0,0,0-1.543.43A1.353,1.353,0,0,0,170-7.725a1.1,1.1,0,0,0,.518.986,6.368,6.368,0,0,0,1.87.635,9.744,9.744,0,0,1,2.192.723,3.2,3.2,0,0,1,1.245,1.011,2.485,2.485,0,0,1,.405,1.44A2.7,2.7,0,0,1,175.1-.659,4.752,4.752,0,0,1,172.156.2a5.321,5.321,0,0,1-2.246-.449,3.653,3.653,0,0,1-1.528-1.255,3.025,3.025,0,0,1-.552-1.743h1.807a1.87,1.87,0,0,0,.728,1.44,2.822,2.822,0,0,0,1.792.532,2.913,2.913,0,0,0,1.646-.415A1.275,1.275,0,0,0,174.421-2.8Z" transform="translate(1004.128 -2611.58)"/><path d="M6.543-7.627h3.965v1.709H6.543v4.492H4.727V-5.918H.762V-7.627H4.727v-4.15H6.543ZM25.317-6.572H19.154v5.039h7.158V0H17.279V-14.219h8.936v1.543H19.154v4.57h6.162ZM28.746,0V-9.17h-1.67v-1.4h1.67V-11.65a3.6,3.6,0,0,1,.908-2.627,3.431,3.431,0,0,1,2.568-.928,4.741,4.741,0,0,1,1.24.166l-.1,1.465a5.189,5.189,0,0,0-.977-.088,1.766,1.766,0,0,0-1.357.513,2.075,2.075,0,0,0-.479,1.47v1.113h2.256v1.4H30.553V0ZM38.856.2a4.617,4.617,0,0,1-3.5-1.411A5.237,5.237,0,0,1,34.012-4.99v-.332a6.341,6.341,0,0,1,.6-2.808,4.685,4.685,0,0,1,1.68-1.934,4.223,4.223,0,0,1,2.339-.7,3.957,3.957,0,0,1,3.2,1.357,5.877,5.877,0,0,1,1.143,3.887v.752H35.819a3.756,3.756,0,0,0,.913,2.524,2.87,2.87,0,0,0,2.222.962,3.147,3.147,0,0,0,1.621-.391,4.073,4.073,0,0,0,1.162-1.035l1.1.859A4.437,4.437,0,0,1,38.856.2Zm-.225-9.473a2.41,2.41,0,0,0-1.836.8,3.868,3.868,0,0,0-.918,2.231H41.17v-.137a3.441,3.441,0,0,0-.742-2.134A2.269,2.269,0,0,0,38.631-9.277Zm10.344,8a2.6,2.6,0,0,0,1.689-.586,2.061,2.061,0,0,0,.8-1.465h1.709A3.276,3.276,0,0,1,52.549-1.6,4.116,4.116,0,0,1,51.011-.293,4.438,4.438,0,0,1,48.975.2a4.353,4.353,0,0,1-3.433-1.44,5.737,5.737,0,0,1-1.274-3.94v-.3a6.361,6.361,0,0,1,.566-2.744A4.314,4.314,0,0,1,46.46-10.1a4.619,4.619,0,0,1,2.5-.664A4.238,4.238,0,0,1,51.919-9.7a3.8,3.8,0,0,1,1.255,2.764H51.465a2.49,2.49,0,0,0-.776-1.685,2.415,2.415,0,0,0-1.724-.659,2.529,2.529,0,0,0-2.134.991,4.655,4.655,0,0,0-.757,2.866v.342a4.562,4.562,0,0,0,.752,2.813A2.541,2.541,0,0,0,48.975-1.279Zm8.352-11.846v2.559H59.3v1.4H57.327v6.553a1.464,1.464,0,0,0,.264.952,1.11,1.11,0,0,0,.9.317,4.374,4.374,0,0,0,.859-.117V0a5.238,5.238,0,0,1-1.387.2,2.25,2.25,0,0,1-1.826-.732,3.147,3.147,0,0,1-.615-2.08V-9.17H53.6v-1.4H55.52v-2.559ZM63.042,0H61.235V-10.566h1.807ZM61.088-13.369a1.078,1.078,0,0,1,.269-.742,1.008,1.008,0,0,1,.8-.3,1.024,1.024,0,0,1,.8.3,1.067,1.067,0,0,1,.273.742,1.032,1.032,0,0,1-.273.732,1.043,1.043,0,0,1-.8.293,1.026,1.026,0,0,1-.8-.293A1.043,1.043,0,0,1,61.088-13.369Zm8,10.918,2.617-8.115h1.846L69.762,0H68.385L64.557-10.566H66.4Zm5.246-2.93a6.241,6.241,0,0,1,.61-2.793,4.553,4.553,0,0,1,1.7-1.914,4.626,4.626,0,0,1,2.485-.674,4.456,4.456,0,0,1,3.491,1.494,5.748,5.748,0,0,1,1.333,3.975v.127A6.3,6.3,0,0,1,83.363-2.4,4.486,4.486,0,0,1,81.674-.488,4.679,4.679,0,0,1,79.149.2,4.445,4.445,0,0,1,75.668-1.3a5.719,5.719,0,0,1-1.333-3.955Zm1.816.215a4.52,4.52,0,0,0,.815,2.822,2.61,2.61,0,0,0,2.183,1.064,2.594,2.594,0,0,0,2.188-1.079,4.943,4.943,0,0,0,.811-3.022A4.513,4.513,0,0,0,81.322-8.2,2.623,2.623,0,0,0,79.13-9.277a2.594,2.594,0,0,0-2.158,1.064A4.906,4.906,0,0,0,76.151-5.166ZM95.618-8.945a5.414,5.414,0,0,0-.889-.068A2.381,2.381,0,0,0,92.317-7.5V0H90.511V-10.566h1.758L92.3-9.346a2.813,2.813,0,0,1,2.52-1.416,1.846,1.846,0,0,1,.8.137ZM101.333.2a4.617,4.617,0,0,1-3.5-1.411A5.237,5.237,0,0,1,96.489-4.99v-.332a6.341,6.341,0,0,1,.6-2.808,4.685,4.685,0,0,1,1.68-1.934,4.223,4.223,0,0,1,2.339-.7,3.957,3.957,0,0,1,3.2,1.357,5.877,5.877,0,0,1,1.143,3.887v.752H98.3a3.756,3.756,0,0,0,.913,2.524,2.87,2.87,0,0,0,2.222.962,3.147,3.147,0,0,0,1.621-.391,4.073,4.073,0,0,0,1.162-1.035l1.1.859A4.437,4.437,0,0,1,101.333.2Zm-.225-9.473a2.41,2.41,0,0,0-1.836.8,3.869,3.869,0,0,0-.918,2.231h5.293v-.137a3.441,3.441,0,0,0-.742-2.134A2.269,2.269,0,0,0,101.108-9.277Zm10.344,8a2.6,2.6,0,0,0,1.689-.586,2.061,2.061,0,0,0,.8-1.465h1.709a3.276,3.276,0,0,1-.625,1.729,4.116,4.116,0,0,1-1.538,1.309A4.438,4.438,0,0,1,111.452.2a4.353,4.353,0,0,1-3.433-1.44,5.737,5.737,0,0,1-1.274-3.94v-.3a6.361,6.361,0,0,1,.566-2.744,4.314,4.314,0,0,1,1.626-1.865,4.619,4.619,0,0,1,2.5-.664A4.238,4.238,0,0,1,114.4-9.7a3.8,3.8,0,0,1,1.255,2.764h-1.709a2.49,2.49,0,0,0-.776-1.685,2.415,2.415,0,0,0-1.724-.659,2.529,2.529,0,0,0-2.134.991,4.655,4.655,0,0,0-.757,2.866v.342a4.562,4.562,0,0,0,.752,2.813A2.541,2.541,0,0,0,111.452-1.279ZM119.316,0h-1.807V-10.566h1.807Zm-1.953-13.369a1.078,1.078,0,0,1,.269-.742,1.008,1.008,0,0,1,.8-.3,1.024,1.024,0,0,1,.8.3,1.067,1.067,0,0,1,.273.742,1.032,1.032,0,0,1-.273.732,1.043,1.043,0,0,1-.8.293,1.026,1.026,0,0,1-.8-.293A1.043,1.043,0,0,1,117.362-13.369Zm13.459,8.2a6.283,6.283,0,0,1-1.113,3.892A3.557,3.557,0,0,1,126.72.2a3.683,3.683,0,0,1-3.1-1.416L123.536,0h-1.66V-15h1.807v5.6a3.663,3.663,0,0,1,3.018-1.357,3.579,3.579,0,0,1,3.022,1.455,6.471,6.471,0,0,1,1.1,3.984Zm-1.807-.205a4.882,4.882,0,0,0-.713-2.852,2.36,2.36,0,0,0-2.051-1.006,2.652,2.652,0,0,0-2.568,1.66V-3a2.727,2.727,0,0,0,2.588,1.66,2.347,2.347,0,0,0,2.021-1.006A5.192,5.192,0,0,0,129.015-5.371ZM134.73,0h-1.807V-10.566h1.807Zm-1.953-13.369a1.078,1.078,0,0,1,.269-.742,1.008,1.008,0,0,1,.8-.3,1.024,1.024,0,0,1,.8.3,1.067,1.067,0,0,1,.273.742,1.032,1.032,0,0,1-.273.732,1.043,1.043,0,0,1-.8.293,1.026,1.026,0,0,1-.8-.293A1.043,1.043,0,0,1,132.777-13.369Zm4.074,8A6.19,6.19,0,0,1,138-9.282a3.644,3.644,0,0,1,3.018-1.479,3.665,3.665,0,0,1,2.939,1.27V-15h1.807V0h-1.66l-.088-1.133A3.679,3.679,0,0,1,141,.2a3.609,3.609,0,0,1-2.993-1.5,6.26,6.26,0,0,1-1.157-3.926Zm1.807.205a4.687,4.687,0,0,0,.742,2.813,2.4,2.4,0,0,0,2.051,1.016,2.636,2.636,0,0,0,2.51-1.543V-7.734a2.656,2.656,0,0,0-2.49-1.494A2.411,2.411,0,0,0,139.4-8.2,5.16,5.16,0,0,0,138.658-5.166Zm9.1-.215a6.241,6.241,0,0,1,.61-2.793,4.553,4.553,0,0,1,1.7-1.914,4.626,4.626,0,0,1,2.485-.674,4.456,4.456,0,0,1,3.491,1.494,5.748,5.748,0,0,1,1.333,3.975v.127a6.3,6.3,0,0,1-.591,2.769A4.486,4.486,0,0,1,155.1-.488,4.679,4.679,0,0,1,152.576.2,4.445,4.445,0,0,1,149.094-1.3a5.719,5.719,0,0,1-1.333-3.955Zm1.816.215a4.52,4.52,0,0,0,.815,2.822,2.61,2.61,0,0,0,2.183,1.064,2.594,2.594,0,0,0,2.188-1.079,4.943,4.943,0,0,0,.811-3.022,4.513,4.513,0,0,0-.825-2.817,2.623,2.623,0,0,0-2.192-1.079A2.594,2.594,0,0,0,150.4-8.213,4.906,4.906,0,0,0,149.578-5.166Zm23.285,0a6.327,6.327,0,0,1-1.1,3.887A3.537,3.537,0,0,1,168.771.2a3.875,3.875,0,0,1-3.027-1.221V4.063h-1.807V-10.566h1.65l.088,1.172a3.722,3.722,0,0,1,3.066-1.367,3.6,3.6,0,0,1,3.013,1.436,6.4,6.4,0,0,1,1.108,3.994Zm-1.807-.205a4.669,4.669,0,0,0-.762-2.822,2.454,2.454,0,0,0-2.09-1.035,2.656,2.656,0,0,0-2.461,1.455v5.049a2.661,2.661,0,0,0,2.48,1.445,2.442,2.442,0,0,0,2.065-1.03A5.1,5.1,0,0,0,171.056-5.371Zm3.293-.01a6.241,6.241,0,0,1,.61-2.793,4.553,4.553,0,0,1,1.7-1.914,4.626,4.626,0,0,1,2.485-.674,4.456,4.456,0,0,1,3.491,1.494,5.748,5.748,0,0,1,1.333,3.975v.127a6.3,6.3,0,0,1-.591,2.769,4.486,4.486,0,0,1-1.689,1.909A4.679,4.679,0,0,1,179.164.2,4.445,4.445,0,0,1,175.682-1.3a5.719,5.719,0,0,1-1.333-3.955Zm1.816.215a4.52,4.52,0,0,0,.815,2.822,2.61,2.61,0,0,0,2.183,1.064,2.594,2.594,0,0,0,2.188-1.079,4.943,4.943,0,0,0,.811-3.022,4.513,4.513,0,0,0-.825-2.817,2.623,2.623,0,0,0-2.192-1.079,2.594,2.594,0,0,0-2.158,1.064A4.906,4.906,0,0,0,176.166-5.166Zm14.846-3.779a5.414,5.414,0,0,0-.889-.068A2.381,2.381,0,0,0,187.711-7.5V0H185.9V-10.566h1.758l.029,1.221a2.813,2.813,0,0,1,2.52-1.416,1.846,1.846,0,0,1,.8.137Zm9.438,6.494,2.617-8.115h1.846L201.123,0h-1.377l-3.828-10.566h1.846ZM210.705.2a4.617,4.617,0,0,1-3.5-1.411,5.237,5.237,0,0,1-1.348-3.774v-.332a6.341,6.341,0,0,1,.6-2.808,4.685,4.685,0,0,1,1.68-1.934,4.223,4.223,0,0,1,2.339-.7,3.957,3.957,0,0,1,3.2,1.357,5.877,5.877,0,0,1,1.143,3.887v.752h-7.158a3.756,3.756,0,0,0,.913,2.524,2.87,2.87,0,0,0,2.222.962,3.147,3.147,0,0,0,1.621-.391,4.073,4.073,0,0,0,1.162-1.035l1.1.859A4.437,4.437,0,0,1,210.705.2Zm-.225-9.473a2.41,2.41,0,0,0-1.836.8,3.868,3.868,0,0,0-.918,2.231h5.293v-.137a3.441,3.441,0,0,0-.742-2.134A2.269,2.269,0,0,0,210.48-9.277Zm7.815-1.289.059,1.328a3.851,3.851,0,0,1,3.164-1.523q3.35,0,3.379,3.779V0H223.09V-6.992a2.433,2.433,0,0,0-.522-1.689,2.094,2.094,0,0,0-1.6-.547,2.607,2.607,0,0,0-1.543.469,3.183,3.183,0,0,0-1.035,1.23V0h-1.807V-10.566Zm11.447-2.559v2.559h1.973v1.4h-1.973v6.553a1.464,1.464,0,0,0,.264.952,1.11,1.11,0,0,0,.9.317,4.374,4.374,0,0,0,.859-.117V0a5.238,5.238,0,0,1-1.387.2,2.25,2.25,0,0,1-1.826-.732,3.147,3.147,0,0,1-.615-2.08V-9.17h-1.924v-1.4h1.924v-2.559ZM240.018,0a3.8,3.8,0,0,1-.254-1.113A4.031,4.031,0,0,1,236.756.2a3.73,3.73,0,0,1-2.563-.884,2.859,2.859,0,0,1-1-2.241,2.987,2.987,0,0,1,1.255-2.563,5.916,5.916,0,0,1,3.53-.913h1.758v-.83a2.029,2.029,0,0,0-.566-1.509,2.276,2.276,0,0,0-1.67-.562,2.634,2.634,0,0,0-1.621.488,1.439,1.439,0,0,0-.654,1.182h-1.816a2.493,2.493,0,0,1,.562-1.528,3.832,3.832,0,0,1,1.523-1.167,5.125,5.125,0,0,1,2.114-.43,4.177,4.177,0,0,1,2.861.913,3.294,3.294,0,0,1,1.074,2.515v4.863a5.946,5.946,0,0,0,.371,2.314V0Zm-3-1.377a3.175,3.175,0,0,0,1.611-.439,2.658,2.658,0,0,0,1.1-1.143V-5.127h-1.416q-3.32,0-3.32,1.943a1.645,1.645,0,0,0,.566,1.328A2.177,2.177,0,0,0,237.02-1.377Zm11.205-3.994a6.19,6.19,0,0,1,1.152-3.911,3.644,3.644,0,0,1,3.018-1.479,3.665,3.665,0,0,1,2.939,1.27V-15h1.807V0h-1.66l-.088-1.133A3.679,3.679,0,0,1,252.375.2a3.609,3.609,0,0,1-2.993-1.5,6.26,6.26,0,0,1-1.157-3.926Zm1.807.205a4.687,4.687,0,0,0,.742,2.813,2.4,2.4,0,0,0,2.051,1.016,2.636,2.636,0,0,0,2.51-1.543V-7.734a2.656,2.656,0,0,0-2.49-1.494,2.411,2.411,0,0,0-2.07,1.025A5.16,5.16,0,0,0,250.032-5.166ZM264,.2a4.617,4.617,0,0,1-3.5-1.411,5.237,5.237,0,0,1-1.348-3.774v-.332a6.341,6.341,0,0,1,.6-2.808,4.685,4.685,0,0,1,1.68-1.934,4.223,4.223,0,0,1,2.339-.7,3.957,3.957,0,0,1,3.2,1.357,5.877,5.877,0,0,1,1.143,3.887v.752h-7.158a3.756,3.756,0,0,0,.913,2.524,2.87,2.87,0,0,0,2.222.962,3.147,3.147,0,0,0,1.621-.391,4.073,4.073,0,0,0,1.162-1.035l1.1.859A4.437,4.437,0,0,1,264,.2Zm-.225-9.473a2.41,2.41,0,0,0-1.836.8,3.869,3.869,0,0,0-.918,2.231h5.293v-.137a3.441,3.441,0,0,0-.742-2.134A2.269,2.269,0,0,0,263.774-9.277Zm19.672,4.111a6.283,6.283,0,0,1-1.113,3.892A3.557,3.557,0,0,1,279.344.2a3.683,3.683,0,0,1-3.1-1.416L276.161,0H274.5V-15h1.807v5.6a3.662,3.662,0,0,1,3.018-1.357,3.579,3.579,0,0,1,3.022,1.455,6.471,6.471,0,0,1,1.1,3.984Zm-1.807-.205a4.882,4.882,0,0,0-.713-2.852,2.36,2.36,0,0,0-2.051-1.006,2.652,2.652,0,0,0-2.568,1.66V-3a2.727,2.727,0,0,0,2.588,1.66,2.347,2.347,0,0,0,2.021-1.006A5.191,5.191,0,0,0,281.639-5.371Zm3.274-.01a6.241,6.241,0,0,1,.61-2.793,4.553,4.553,0,0,1,1.7-1.914,4.626,4.626,0,0,1,2.485-.674A4.456,4.456,0,0,1,293.2-9.268a5.748,5.748,0,0,1,1.333,3.975v.127a6.3,6.3,0,0,1-.591,2.769,4.486,4.486,0,0,1-1.689,1.909A4.679,4.679,0,0,1,289.727.2,4.445,4.445,0,0,1,286.246-1.3a5.719,5.719,0,0,1-1.333-3.955Zm1.816.215a4.52,4.52,0,0,0,.815,2.822,2.61,2.61,0,0,0,2.183,1.064,2.594,2.594,0,0,0,2.188-1.079,4.943,4.943,0,0,0,.811-3.022A4.512,4.512,0,0,0,291.9-8.2a2.623,2.623,0,0,0-2.192-1.079,2.594,2.594,0,0,0-2.158,1.064A4.906,4.906,0,0,0,286.729-5.166Zm11.447-5.4.059,1.328a3.85,3.85,0,0,1,3.164-1.523q3.35,0,3.379,3.779V0h-1.807V-6.992a2.432,2.432,0,0,0-.522-1.689,2.094,2.094,0,0,0-1.6-.547,2.607,2.607,0,0,0-1.543.469,3.183,3.183,0,0,0-1.035,1.23V0h-1.807V-10.566Zm8.518,5.186a6.241,6.241,0,0,1,.61-2.793,4.553,4.553,0,0,1,1.7-1.914,4.626,4.626,0,0,1,2.485-.674,4.456,4.456,0,0,1,3.491,1.494,5.748,5.748,0,0,1,1.333,3.975v.127a6.3,6.3,0,0,1-.591,2.769,4.486,4.486,0,0,1-1.689,1.909A4.679,4.679,0,0,1,311.509.2,4.445,4.445,0,0,1,308.027-1.3a5.719,5.719,0,0,1-1.333-3.955Zm1.816.215a4.52,4.52,0,0,0,.815,2.822,2.61,2.61,0,0,0,2.183,1.064A2.594,2.594,0,0,0,313.7-2.358a4.943,4.943,0,0,0,.811-3.022,4.512,4.512,0,0,0-.825-2.817,2.623,2.623,0,0,0-2.192-1.079,2.594,2.594,0,0,0-2.158,1.064A4.906,4.906,0,0,0,308.511-5.166ZM324.4-2.8a1.33,1.33,0,0,0-.552-1.138,5.311,5.311,0,0,0-1.924-.7,9.1,9.1,0,0,1-2.178-.7,3.1,3.1,0,0,1-1.191-.977,2.336,2.336,0,0,1-.386-1.348,2.741,2.741,0,0,1,1.1-2.2,4.291,4.291,0,0,1,2.808-.9,4.415,4.415,0,0,1,2.915.928,2.947,2.947,0,0,1,1.118,2.373h-1.816a1.631,1.631,0,0,0-.63-1.279,2.36,2.36,0,0,0-1.587-.537,2.47,2.47,0,0,0-1.543.43,1.353,1.353,0,0,0-.557,1.123,1.1,1.1,0,0,0,.518.986,6.368,6.368,0,0,0,1.87.635,9.744,9.744,0,0,1,2.192.723A3.2,3.2,0,0,1,325.8-4.37a2.485,2.485,0,0,1,.405,1.44,2.7,2.7,0,0,1-1.133,2.271A4.752,4.752,0,0,1,322.136.2a5.321,5.321,0,0,1-2.246-.449,3.653,3.653,0,0,1-1.528-1.255,3.025,3.025,0,0,1-.552-1.743h1.807a1.87,1.87,0,0,0,.728,1.44,2.822,2.822,0,0,0,1.792.532,2.914,2.914,0,0,0,1.646-.415A1.275,1.275,0,0,0,324.4-2.8Z" transform="translate(1004.128 -2566.58)"/><path d="M1.3-5.771A15.1,15.1,0,0,1,1.89-10.01,12.312,12.312,0,0,1,3.652-13.7a7.5,7.5,0,0,1,2.432-2.344l.371,1.191a7.778,7.778,0,0,0-2.339,3.34,14.479,14.479,0,0,0-1,5.029l-.01.83A14.554,14.554,0,0,0,4.482.889a7.815,7.815,0,0,0,1.973,2.6l-.371,1.1A7.74,7.74,0,0,1,3.6,2.168,13.574,13.574,0,0,1,1.3-5.771ZM11.633-5.3H6.867V-6.777h4.766Zm5.6-.371A15.106,15.106,0,0,1,16.659-1.5a12.345,12.345,0,0,1-1.748,3.687,7.659,7.659,0,0,1-2.466,2.4l-.381-1.1A7.851,7.851,0,0,0,14.482-.093a15.484,15.484,0,0,0,.933-5.386v-.312a16.076,16.076,0,0,0-.43-3.813,12.87,12.87,0,0,0-1.2-3.159,7.3,7.3,0,0,0-1.724-2.178l.381-1.1A7.629,7.629,0,0,1,14.9-13.662,12.371,12.371,0,0,1,16.65-9.98,15.454,15.454,0,0,1,17.231-5.674Zm9.233.107V0H24.588V-14.219h5.244a5.269,5.269,0,0,1,3.657,1.191,4.039,4.039,0,0,1,1.323,3.154,3.986,3.986,0,0,1-1.294,3.188,5.5,5.5,0,0,1-3.706,1.118Zm0-1.533h3.369a3.372,3.372,0,0,0,2.3-.708,2.586,2.586,0,0,0,.8-2.046,2.672,2.672,0,0,0-.8-2.031,3.159,3.159,0,0,0-2.2-.791H26.463ZM43.008,0a3.8,3.8,0,0,1-.254-1.113A4.031,4.031,0,0,1,39.746.2a3.73,3.73,0,0,1-2.563-.884,2.859,2.859,0,0,1-1-2.241,2.987,2.987,0,0,1,1.255-2.563,5.916,5.916,0,0,1,3.53-.913h1.758v-.83a2.029,2.029,0,0,0-.566-1.509,2.276,2.276,0,0,0-1.67-.562,2.634,2.634,0,0,0-1.621.488,1.439,1.439,0,0,0-.654,1.182H36.4a2.493,2.493,0,0,1,.562-1.528,3.832,3.832,0,0,1,1.523-1.167,5.125,5.125,0,0,1,2.114-.43,4.177,4.177,0,0,1,2.861.913,3.294,3.294,0,0,1,1.074,2.515v4.863A5.946,5.946,0,0,0,44.9-.156V0Zm-3-1.377a3.175,3.175,0,0,0,1.611-.439,2.658,2.658,0,0,0,1.1-1.143V-5.127H41.309q-3.32,0-3.32,1.943a1.645,1.645,0,0,0,.566,1.328A2.177,2.177,0,0,0,40.01-1.377ZM46.6-5.371A6.21,6.21,0,0,1,47.747-9.3a3.654,3.654,0,0,1,3.027-1.46,3.635,3.635,0,0,1,3.018,1.367l.088-1.172h1.65V-.254a4.3,4.3,0,0,1-1.216,3.232A4.487,4.487,0,0,1,51.047,4.16a5.435,5.435,0,0,1-2.236-.488,3.85,3.85,0,0,1-1.67-1.338l.938-1.084A3.533,3.533,0,0,0,50.92,2.686a2.768,2.768,0,0,0,2.056-.742,2.837,2.837,0,0,0,.737-2.09v-.908A3.713,3.713,0,0,1,50.754.2a3.609,3.609,0,0,1-3-1.494A6.529,6.529,0,0,1,46.6-5.371Zm1.816.205a4.738,4.738,0,0,0,.732,2.808A2.38,2.38,0,0,0,51.2-1.338a2.646,2.646,0,0,0,2.51-1.553V-7.715a2.677,2.677,0,0,0-2.49-1.514A2.4,2.4,0,0,0,49.163-8.2,5.16,5.16,0,0,0,48.42-5.166Zm9.025-.215a6.241,6.241,0,0,1,.61-2.793,4.553,4.553,0,0,1,1.7-1.914,4.626,4.626,0,0,1,2.485-.674,4.456,4.456,0,0,1,3.491,1.494,5.748,5.748,0,0,1,1.333,3.975v.127A6.3,6.3,0,0,1,66.474-2.4,4.486,4.486,0,0,1,64.785-.488,4.679,4.679,0,0,1,62.26.2,4.445,4.445,0,0,1,58.779-1.3a5.719,5.719,0,0,1-1.333-3.955Zm1.816.215a4.52,4.52,0,0,0,.815,2.822A2.61,2.61,0,0,0,62.26-1.279a2.594,2.594,0,0,0,2.188-1.079,4.943,4.943,0,0,0,.811-3.022A4.513,4.513,0,0,0,64.433-8.2a2.623,2.623,0,0,0-2.192-1.079,2.594,2.594,0,0,0-2.158,1.064A4.906,4.906,0,0,0,59.262-5.166Zm13.92-.205a6.19,6.19,0,0,1,1.152-3.911,3.644,3.644,0,0,1,3.018-1.479,3.665,3.665,0,0,1,2.939,1.27V-15H82.1V0h-1.66L80.35-1.133A3.679,3.679,0,0,1,77.333.2a3.609,3.609,0,0,1-2.993-1.5,6.26,6.26,0,0,1-1.157-3.926Zm1.807.205a4.687,4.687,0,0,0,.742,2.813,2.4,2.4,0,0,0,2.051,1.016,2.636,2.636,0,0,0,2.51-1.543V-7.734A2.656,2.656,0,0,0,77.8-9.229,2.411,2.411,0,0,0,75.731-8.2,5.16,5.16,0,0,0,74.989-5.166ZM88.956.2a4.617,4.617,0,0,1-3.5-1.411A5.237,5.237,0,0,1,84.112-4.99v-.332a6.341,6.341,0,0,1,.6-2.808,4.685,4.685,0,0,1,1.68-1.934,4.223,4.223,0,0,1,2.339-.7,3.957,3.957,0,0,1,3.2,1.357,5.877,5.877,0,0,1,1.143,3.887v.752H85.919a3.756,3.756,0,0,0,.913,2.524,2.87,2.87,0,0,0,2.222.962,3.147,3.147,0,0,0,1.621-.391,4.073,4.073,0,0,0,1.162-1.035l1.1.859A4.437,4.437,0,0,1,88.956.2Zm-.225-9.473a2.41,2.41,0,0,0-1.836.8,3.869,3.869,0,0,0-.918,2.231H91.27v-.137a3.441,3.441,0,0,0-.742-2.134A2.269,2.269,0,0,0,88.731-9.277Zm10.248,3.9a6.241,6.241,0,0,1,.61-2.793,4.553,4.553,0,0,1,1.7-1.914,4.626,4.626,0,0,1,2.485-.674,4.456,4.456,0,0,1,3.491,1.494A5.748,5.748,0,0,1,108.6-5.293v.127a6.3,6.3,0,0,1-.591,2.769,4.486,4.486,0,0,1-1.689,1.909A4.679,4.679,0,0,1,103.794.2,4.445,4.445,0,0,1,100.312-1.3a5.719,5.719,0,0,1-1.333-3.955Zm1.816.215a4.52,4.52,0,0,0,.815,2.822,2.61,2.61,0,0,0,2.183,1.064,2.594,2.594,0,0,0,2.188-1.079,4.943,4.943,0,0,0,.811-3.022,4.513,4.513,0,0,0-.825-2.817,2.623,2.623,0,0,0-2.192-1.079,2.594,2.594,0,0,0-2.158,1.064A4.906,4.906,0,0,0,100.8-5.166Zm18.684,0a6.283,6.283,0,0,1-1.113,3.892A3.557,3.557,0,0,1,115.378.2a3.683,3.683,0,0,1-3.1-1.416L112.194,0h-1.66V-15h1.807v5.6a3.663,3.663,0,0,1,3.018-1.357,3.579,3.579,0,0,1,3.022,1.455,6.471,6.471,0,0,1,1.1,3.984Zm-1.807-.205a4.882,4.882,0,0,0-.713-2.852,2.36,2.36,0,0,0-2.051-1.006,2.652,2.652,0,0,0-2.568,1.66V-3a2.727,2.727,0,0,0,2.588,1.66,2.347,2.347,0,0,0,2.021-1.006A5.192,5.192,0,0,0,117.673-5.371ZM123.388,0h-1.807V-15h1.807Zm4.524,0H126.1V-10.566h1.807Zm-1.953-13.369a1.078,1.078,0,0,1,.269-.742,1.008,1.008,0,0,1,.8-.3,1.024,1.024,0,0,1,.8.3,1.067,1.067,0,0,1,.273.742,1.032,1.032,0,0,1-.273.732,1.043,1.043,0,0,1-.8.293,1.026,1.026,0,0,1-.8-.293A1.043,1.043,0,0,1,125.958-13.369Zm4.084,8A6.21,6.21,0,0,1,131.185-9.3a3.654,3.654,0,0,1,3.027-1.46,3.635,3.635,0,0,1,3.018,1.367l.088-1.172h1.65V-.254a4.3,4.3,0,0,1-1.216,3.232,4.487,4.487,0,0,1-3.267,1.182,5.435,5.435,0,0,1-2.236-.488,3.85,3.85,0,0,1-1.67-1.338l.938-1.084a3.533,3.533,0,0,0,2.842,1.436,2.768,2.768,0,0,0,2.056-.742,2.837,2.837,0,0,0,.737-2.09v-.908A3.713,3.713,0,0,1,134.193.2a3.609,3.609,0,0,1-3-1.494A6.529,6.529,0,0,1,130.042-5.371Zm1.816.205a4.738,4.738,0,0,0,.732,2.808,2.38,2.38,0,0,0,2.051,1.021,2.646,2.646,0,0,0,2.51-1.553V-7.715a2.677,2.677,0,0,0-2.49-1.514A2.4,2.4,0,0,0,132.6-8.2,5.16,5.16,0,0,0,131.859-5.166ZM147.886,0a3.8,3.8,0,0,1-.254-1.113A4.031,4.031,0,0,1,144.624.2a3.73,3.73,0,0,1-2.563-.884,2.859,2.859,0,0,1-1-2.241,2.987,2.987,0,0,1,1.255-2.563,5.916,5.916,0,0,1,3.53-.913H147.6v-.83a2.029,2.029,0,0,0-.566-1.509,2.276,2.276,0,0,0-1.67-.562,2.634,2.634,0,0,0-1.621.488,1.439,1.439,0,0,0-.654,1.182h-1.816a2.493,2.493,0,0,1,.562-1.528,3.832,3.832,0,0,1,1.523-1.167,5.125,5.125,0,0,1,2.114-.43,4.177,4.177,0,0,1,2.861.913,3.294,3.294,0,0,1,1.074,2.515v4.863a5.946,5.946,0,0,0,.371,2.314V0Zm-3-1.377a3.175,3.175,0,0,0,1.611-.439,2.658,2.658,0,0,0,1.1-1.143V-5.127h-1.416q-3.32,0-3.32,1.943a1.645,1.645,0,0,0,.566,1.328A2.177,2.177,0,0,0,144.888-1.377Zm11.262.1a2.6,2.6,0,0,0,1.689-.586,2.061,2.061,0,0,0,.8-1.465h1.709a3.276,3.276,0,0,1-.625,1.729,4.116,4.116,0,0,1-1.538,1.309A4.438,4.438,0,0,1,156.15.2a4.353,4.353,0,0,1-3.433-1.44,5.737,5.737,0,0,1-1.274-3.94v-.3a6.361,6.361,0,0,1,.566-2.744,4.314,4.314,0,0,1,1.626-1.865,4.619,4.619,0,0,1,2.5-.664A4.238,4.238,0,0,1,159.094-9.7a3.8,3.8,0,0,1,1.255,2.764H158.64a2.49,2.49,0,0,0-.776-1.685,2.415,2.415,0,0,0-1.724-.659,2.529,2.529,0,0,0-2.134.991,4.655,4.655,0,0,0-.757,2.866v.342A4.562,4.562,0,0,0,154-2.266,2.541,2.541,0,0,0,156.15-1.279ZM164.013,0h-1.807V-10.566h1.807ZM162.06-13.369a1.078,1.078,0,0,1,.269-.742,1.008,1.008,0,0,1,.8-.3,1.024,1.024,0,0,1,.8.3,1.067,1.067,0,0,1,.273.742,1.032,1.032,0,0,1-.273.732,1.043,1.043,0,0,1-.8.293,1.026,1.026,0,0,1-.8-.293A1.043,1.043,0,0,1,162.06-13.369ZM166.1-5.381a6.241,6.241,0,0,1,.61-2.793,4.553,4.553,0,0,1,1.7-1.914,4.626,4.626,0,0,1,2.485-.674,4.456,4.456,0,0,1,3.491,1.494,5.748,5.748,0,0,1,1.333,3.975v.127a6.3,6.3,0,0,1-.591,2.769,4.486,4.486,0,0,1-1.689,1.909A4.679,4.679,0,0,1,170.91.2,4.445,4.445,0,0,1,167.428-1.3,5.719,5.719,0,0,1,166.1-5.254Zm1.816.215a4.52,4.52,0,0,0,.815,2.822,2.61,2.61,0,0,0,2.183,1.064A2.594,2.594,0,0,0,173.1-2.358a4.943,4.943,0,0,0,.811-3.022,4.513,4.513,0,0,0-.825-2.817,2.623,2.623,0,0,0-2.192-1.079,2.594,2.594,0,0,0-2.158,1.064A4.906,4.906,0,0,0,167.912-5.166Zm11.447-5.4.059,1.328a3.851,3.851,0,0,1,3.164-1.523q3.35,0,3.379,3.779V0h-1.807V-6.992a2.433,2.433,0,0,0-.522-1.689,2.094,2.094,0,0,0-1.6-.547,2.607,2.607,0,0,0-1.543.469,3.183,3.183,0,0,0-1.035,1.23V0H177.65V-10.566ZM192.74.2a4.617,4.617,0,0,1-3.5-1.411A5.237,5.237,0,0,1,187.9-4.99v-.332a6.341,6.341,0,0,1,.6-2.808,4.685,4.685,0,0,1,1.68-1.934,4.223,4.223,0,0,1,2.339-.7,3.957,3.957,0,0,1,3.2,1.357,5.877,5.877,0,0,1,1.143,3.887v.752H189.7a3.756,3.756,0,0,0,.913,2.524,2.87,2.87,0,0,0,2.222.962,3.147,3.147,0,0,0,1.621-.391,4.073,4.073,0,0,0,1.162-1.035l1.1.859A4.437,4.437,0,0,1,192.74.2Zm-.225-9.473a2.41,2.41,0,0,0-1.836.8,3.868,3.868,0,0,0-.918,2.231h5.293v-.137a3.441,3.441,0,0,0-.742-2.134A2.269,2.269,0,0,0,192.515-9.277ZM204.773-2.8a1.33,1.33,0,0,0-.552-1.138,5.311,5.311,0,0,0-1.924-.7,9.1,9.1,0,0,1-2.178-.7,3.1,3.1,0,0,1-1.191-.977,2.336,2.336,0,0,1-.386-1.348,2.741,2.741,0,0,1,1.1-2.2,4.291,4.291,0,0,1,2.808-.9,4.415,4.415,0,0,1,2.915.928,2.947,2.947,0,0,1,1.118,2.373h-1.816a1.631,1.631,0,0,0-.63-1.279,2.36,2.36,0,0,0-1.587-.537,2.47,2.47,0,0,0-1.543.43,1.353,1.353,0,0,0-.557,1.123,1.1,1.1,0,0,0,.518.986,6.368,6.368,0,0,0,1.87.635,9.744,9.744,0,0,1,2.192.723,3.2,3.2,0,0,1,1.245,1.011,2.485,2.485,0,0,1,.405,1.44,2.7,2.7,0,0,1-1.133,2.271A4.752,4.752,0,0,1,202.508.2a5.321,5.321,0,0,1-2.246-.449,3.653,3.653,0,0,1-1.528-1.255,3.025,3.025,0,0,1-.552-1.743h1.807a1.87,1.87,0,0,0,.728,1.44,2.822,2.822,0,0,0,1.792.532,2.913,2.913,0,0,0,1.646-.415A1.275,1.275,0,0,0,204.773-2.8ZM213.83,0V-9.17h-1.67v-1.4h1.67v-.9a3.671,3.671,0,0,1,1.011-2.754,3.919,3.919,0,0,1,2.856-.986,8.6,8.6,0,0,1,2.764.6l-.3,1.523a6.259,6.259,0,0,0-2.324-.488,2.274,2.274,0,0,0-1.675.522,2.154,2.154,0,0,0-.513,1.567v.918H217.8v1.4h-2.158V0Zm7.529,0h-1.816V-10.566h1.816Zm4.318-10.566.059,1.328a3.851,3.851,0,0,1,3.164-1.523q3.35,0,3.379,3.779V0h-1.807V-6.992a2.433,2.433,0,0,0-.522-1.689,2.094,2.094,0,0,0-1.6-.547,2.607,2.607,0,0,0-1.543.469,3.183,3.183,0,0,0-1.035,1.23V0h-1.807V-10.566ZM241.2,0a3.8,3.8,0,0,1-.254-1.113A4.031,4.031,0,0,1,237.936.2a3.73,3.73,0,0,1-2.563-.884,2.859,2.859,0,0,1-1-2.241,2.987,2.987,0,0,1,1.255-2.563,5.916,5.916,0,0,1,3.53-.913h1.758v-.83a2.029,2.029,0,0,0-.566-1.509,2.276,2.276,0,0,0-1.67-.562,2.634,2.634,0,0,0-1.621.488,1.439,1.439,0,0,0-.654,1.182h-1.816a2.493,2.493,0,0,1,.562-1.528,3.832,3.832,0,0,1,1.523-1.167,5.125,5.125,0,0,1,2.114-.43,4.177,4.177,0,0,1,2.861.913,3.294,3.294,0,0,1,1.074,2.515v4.863a5.946,5.946,0,0,0,.371,2.314V0Zm-3-1.377a3.175,3.175,0,0,0,1.611-.439,2.658,2.658,0,0,0,1.1-1.143V-5.127H239.5q-3.32,0-3.32,1.943a1.645,1.645,0,0,0,.566,1.328A2.177,2.177,0,0,0,238.2-1.377Zm8.732-9.189.059,1.328a3.851,3.851,0,0,1,3.164-1.523q3.35,0,3.379,3.779V0h-1.807V-6.992a2.433,2.433,0,0,0-.522-1.689,2.094,2.094,0,0,0-1.6-.547,2.607,2.607,0,0,0-1.543.469,3.183,3.183,0,0,0-1.035,1.23V0h-1.807V-10.566Zm13.234,9.287a2.6,2.6,0,0,0,1.689-.586,2.061,2.061,0,0,0,.8-1.465h1.709a3.276,3.276,0,0,1-.625,1.729A4.117,4.117,0,0,1,262.2-.293,4.438,4.438,0,0,1,260.166.2a4.353,4.353,0,0,1-3.433-1.44,5.737,5.737,0,0,1-1.274-3.94v-.3a6.361,6.361,0,0,1,.566-2.744,4.314,4.314,0,0,1,1.626-1.865,4.619,4.619,0,0,1,2.5-.664A4.238,4.238,0,0,1,263.111-9.7a3.8,3.8,0,0,1,1.255,2.764h-1.709a2.49,2.49,0,0,0-.776-1.685,2.415,2.415,0,0,0-1.724-.659,2.529,2.529,0,0,0-2.134.991,4.655,4.655,0,0,0-.757,2.866v.342a4.562,4.562,0,0,0,.752,2.813A2.541,2.541,0,0,0,260.166-1.279ZM268.03,0h-1.807V-10.566h1.807Zm-1.953-13.369a1.078,1.078,0,0,1,.269-.742,1.008,1.008,0,0,1,.8-.3,1.024,1.024,0,0,1,.8.3,1.067,1.067,0,0,1,.273.742,1.032,1.032,0,0,1-.273.732,1.043,1.043,0,0,1-.8.293,1.026,1.026,0,0,1-.8-.293A1.043,1.043,0,0,1,266.077-13.369ZM274.975.2a4.617,4.617,0,0,1-3.5-1.411,5.237,5.237,0,0,1-1.348-3.774v-.332a6.341,6.341,0,0,1,.6-2.808,4.685,4.685,0,0,1,1.68-1.934,4.223,4.223,0,0,1,2.339-.7,3.957,3.957,0,0,1,3.2,1.357A5.877,5.877,0,0,1,279.1-5.518v.752h-7.158a3.756,3.756,0,0,0,.913,2.524,2.87,2.87,0,0,0,2.222.962,3.147,3.147,0,0,0,1.621-.391,4.073,4.073,0,0,0,1.162-1.035l1.1.859A4.437,4.437,0,0,1,274.975.2Zm-.225-9.473a2.41,2.41,0,0,0-1.836.8A3.869,3.869,0,0,0,272-6.25h5.293v-.137a3.441,3.441,0,0,0-.742-2.134A2.269,2.269,0,0,0,274.75-9.277Zm11.213.332a5.414,5.414,0,0,0-.889-.068A2.381,2.381,0,0,0,282.663-7.5V0h-1.807V-10.566h1.758l.029,1.221a2.813,2.813,0,0,1,2.52-1.416,1.846,1.846,0,0,1,.8.137ZM293.426,0a3.8,3.8,0,0,1-.254-1.113A4.031,4.031,0,0,1,290.165.2,3.73,3.73,0,0,1,287.6-.688a2.859,2.859,0,0,1-1-2.241,2.987,2.987,0,0,1,1.255-2.563,5.916,5.916,0,0,1,3.53-.913h1.758v-.83a2.029,2.029,0,0,0-.566-1.509,2.276,2.276,0,0,0-1.67-.562,2.634,2.634,0,0,0-1.621.488,1.439,1.439,0,0,0-.654,1.182h-1.816a2.493,2.493,0,0,1,.562-1.528,3.833,3.833,0,0,1,1.523-1.167,5.125,5.125,0,0,1,2.114-.43,4.177,4.177,0,0,1,2.861.913,3.294,3.294,0,0,1,1.074,2.515v4.863a5.946,5.946,0,0,0,.371,2.314V0Zm-3-1.377a3.175,3.175,0,0,0,1.611-.439,2.658,2.658,0,0,0,1.1-1.143V-5.127h-1.416q-3.32,0-3.32,1.943a1.645,1.645,0,0,0,.566,1.328A2.177,2.177,0,0,0,290.428-1.377ZM303.6-2.8a1.33,1.33,0,0,0-.552-1.138,5.311,5.311,0,0,0-1.924-.7,9.1,9.1,0,0,1-2.178-.7,3.1,3.1,0,0,1-1.191-.977,2.336,2.336,0,0,1-.386-1.348,2.741,2.741,0,0,1,1.1-2.2,4.291,4.291,0,0,1,2.808-.9,4.415,4.415,0,0,1,2.915.928,2.947,2.947,0,0,1,1.118,2.373H303.5a1.631,1.631,0,0,0-.63-1.279,2.36,2.36,0,0,0-1.587-.537,2.47,2.47,0,0,0-1.543.43,1.353,1.353,0,0,0-.557,1.123,1.1,1.1,0,0,0,.518.986,6.368,6.368,0,0,0,1.87.635,9.744,9.744,0,0,1,2.192.723,3.2,3.2,0,0,1,1.245,1.011,2.485,2.485,0,0,1,.405,1.44,2.7,2.7,0,0,1-1.133,2.271A4.752,4.752,0,0,1,301.339.2a5.321,5.321,0,0,1-2.246-.449,3.653,3.653,0,0,1-1.528-1.255,3.025,3.025,0,0,1-.552-1.743h1.807a1.87,1.87,0,0,0,.728,1.44,2.822,2.822,0,0,0,1.792.532,2.914,2.914,0,0,0,1.646-.415A1.275,1.275,0,0,0,303.6-2.8Z" transform="translate(1004.128 -2522.58)"/><path d="M1.3-5.771A15.1,15.1,0,0,1,1.89-10.01,12.312,12.312,0,0,1,3.652-13.7a7.5,7.5,0,0,1,2.432-2.344l.371,1.191a7.778,7.778,0,0,0-2.339,3.34,14.479,14.479,0,0,0-1,5.029l-.01.83A14.554,14.554,0,0,0,4.482.889a7.815,7.815,0,0,0,1.973,2.6l-.371,1.1A7.74,7.74,0,0,1,3.6,2.168,13.574,13.574,0,0,1,1.3-5.771ZM11.633-5.3H6.867V-6.777h4.766Zm5.6-.371A15.106,15.106,0,0,1,16.659-1.5a12.345,12.345,0,0,1-1.748,3.687,7.659,7.659,0,0,1-2.466,2.4l-.381-1.1A7.851,7.851,0,0,0,14.482-.093a15.484,15.484,0,0,0,.933-5.386v-.312a16.076,16.076,0,0,0-.43-3.813,12.87,12.87,0,0,0-1.2-3.159,7.3,7.3,0,0,0-1.724-2.178l.381-1.1A7.629,7.629,0,0,1,14.9-13.662,12.371,12.371,0,0,1,16.65-9.98,15.454,15.454,0,0,1,17.231-5.674Zm9.233.107V0H24.588V-14.219h5.244a5.269,5.269,0,0,1,3.657,1.191,4.039,4.039,0,0,1,1.323,3.154,3.986,3.986,0,0,1-1.294,3.188,5.5,5.5,0,0,1-3.706,1.118Zm0-1.533h3.369a3.372,3.372,0,0,0,2.3-.708,2.586,2.586,0,0,0,.8-2.046,2.672,2.672,0,0,0-.8-2.031,3.159,3.159,0,0,0-2.2-.791H26.463ZM43.008,0a3.8,3.8,0,0,1-.254-1.113A4.031,4.031,0,0,1,39.746.2a3.73,3.73,0,0,1-2.563-.884,2.859,2.859,0,0,1-1-2.241,2.987,2.987,0,0,1,1.255-2.563,5.916,5.916,0,0,1,3.53-.913h1.758v-.83a2.029,2.029,0,0,0-.566-1.509,2.276,2.276,0,0,0-1.67-.562,2.634,2.634,0,0,0-1.621.488,1.439,1.439,0,0,0-.654,1.182H36.4a2.493,2.493,0,0,1,.562-1.528,3.832,3.832,0,0,1,1.523-1.167,5.125,5.125,0,0,1,2.114-.43,4.177,4.177,0,0,1,2.861.913,3.294,3.294,0,0,1,1.074,2.515v4.863A5.946,5.946,0,0,0,44.9-.156V0Zm-3-1.377a3.175,3.175,0,0,0,1.611-.439,2.658,2.658,0,0,0,1.1-1.143V-5.127H41.309q-3.32,0-3.32,1.943a1.645,1.645,0,0,0,.566,1.328A2.177,2.177,0,0,0,40.01-1.377ZM46.6-5.371A6.21,6.21,0,0,1,47.747-9.3a3.654,3.654,0,0,1,3.027-1.46,3.635,3.635,0,0,1,3.018,1.367l.088-1.172h1.65V-.254a4.3,4.3,0,0,1-1.216,3.232A4.487,4.487,0,0,1,51.047,4.16a5.435,5.435,0,0,1-2.236-.488,3.85,3.85,0,0,1-1.67-1.338l.938-1.084A3.533,3.533,0,0,0,50.92,2.686a2.768,2.768,0,0,0,2.056-.742,2.837,2.837,0,0,0,.737-2.09v-.908A3.713,3.713,0,0,1,50.754.2a3.609,3.609,0,0,1-3-1.494A6.529,6.529,0,0,1,46.6-5.371Zm1.816.205a4.738,4.738,0,0,0,.732,2.808A2.38,2.38,0,0,0,51.2-1.338a2.646,2.646,0,0,0,2.51-1.553V-7.715a2.677,2.677,0,0,0-2.49-1.514A2.4,2.4,0,0,0,49.163-8.2,5.16,5.16,0,0,0,48.42-5.166Zm9.025-.215a6.241,6.241,0,0,1,.61-2.793,4.553,4.553,0,0,1,1.7-1.914,4.626,4.626,0,0,1,2.485-.674,4.456,4.456,0,0,1,3.491,1.494,5.748,5.748,0,0,1,1.333,3.975v.127A6.3,6.3,0,0,1,66.474-2.4,4.486,4.486,0,0,1,64.785-.488,4.679,4.679,0,0,1,62.26.2,4.445,4.445,0,0,1,58.779-1.3a5.719,5.719,0,0,1-1.333-3.955Zm1.816.215a4.52,4.52,0,0,0,.815,2.822A2.61,2.61,0,0,0,62.26-1.279a2.594,2.594,0,0,0,2.188-1.079,4.943,4.943,0,0,0,.811-3.022A4.513,4.513,0,0,0,64.433-8.2a2.623,2.623,0,0,0-2.192-1.079,2.594,2.594,0,0,0-2.158,1.064A4.906,4.906,0,0,0,59.262-5.166Zm13.92-.205a6.19,6.19,0,0,1,1.152-3.911,3.644,3.644,0,0,1,3.018-1.479,3.665,3.665,0,0,1,2.939,1.27V-15H82.1V0h-1.66L80.35-1.133A3.679,3.679,0,0,1,77.333.2a3.609,3.609,0,0,1-2.993-1.5,6.26,6.26,0,0,1-1.157-3.926Zm1.807.205a4.687,4.687,0,0,0,.742,2.813,2.4,2.4,0,0,0,2.051,1.016,2.636,2.636,0,0,0,2.51-1.543V-7.734A2.656,2.656,0,0,0,77.8-9.229,2.411,2.411,0,0,0,75.731-8.2,5.16,5.16,0,0,0,74.989-5.166ZM88.956.2a4.617,4.617,0,0,1-3.5-1.411A5.237,5.237,0,0,1,84.112-4.99v-.332a6.341,6.341,0,0,1,.6-2.808,4.685,4.685,0,0,1,1.68-1.934,4.223,4.223,0,0,1,2.339-.7,3.957,3.957,0,0,1,3.2,1.357,5.877,5.877,0,0,1,1.143,3.887v.752H85.919a3.756,3.756,0,0,0,.913,2.524,2.87,2.87,0,0,0,2.222.962,3.147,3.147,0,0,0,1.621-.391,4.073,4.073,0,0,0,1.162-1.035l1.1.859A4.437,4.437,0,0,1,88.956.2Zm-.225-9.473a2.41,2.41,0,0,0-1.836.8,3.869,3.869,0,0,0-.918,2.231H91.27v-.137a3.441,3.441,0,0,0-.742-2.134A2.269,2.269,0,0,0,88.731-9.277Zm19.653,4.111a6.327,6.327,0,0,1-1.1,3.887A3.537,3.537,0,0,1,104.292.2a3.875,3.875,0,0,1-3.027-1.221V4.063H99.458V-10.566h1.65l.088,1.172a3.722,3.722,0,0,1,3.066-1.367,3.6,3.6,0,0,1,3.013,1.436,6.4,6.4,0,0,1,1.108,3.994Zm-1.807-.205a4.669,4.669,0,0,0-.762-2.822,2.454,2.454,0,0,0-2.09-1.035,2.656,2.656,0,0,0-2.461,1.455v5.049a2.661,2.661,0,0,0,2.48,1.445,2.442,2.442,0,0,0,2.065-1.03A5.1,5.1,0,0,0,106.577-5.371ZM116.872,0a3.8,3.8,0,0,1-.254-1.113A4.031,4.031,0,0,1,113.61.2a3.73,3.73,0,0,1-2.563-.884,2.859,2.859,0,0,1-1-2.241A2.987,2.987,0,0,1,111.3-5.493a5.916,5.916,0,0,1,3.53-.913h1.758v-.83a2.029,2.029,0,0,0-.566-1.509,2.276,2.276,0,0,0-1.67-.562,2.634,2.634,0,0,0-1.621.488,1.439,1.439,0,0,0-.654,1.182h-1.816a2.493,2.493,0,0,1,.562-1.528,3.832,3.832,0,0,1,1.523-1.167,5.125,5.125,0,0,1,2.114-.43,4.177,4.177,0,0,1,2.861.913A3.294,3.294,0,0,1,118.4-7.334v4.863a5.946,5.946,0,0,0,.371,2.314V0Zm-3-1.377a3.175,3.175,0,0,0,1.611-.439,2.658,2.658,0,0,0,1.1-1.143V-5.127h-1.416q-3.32,0-3.32,1.943a1.645,1.645,0,0,0,.566,1.328A2.177,2.177,0,0,0,113.874-1.377ZM126-8.945a5.414,5.414,0,0,0-.889-.068A2.381,2.381,0,0,0,122.7-7.5V0H120.9V-10.566h1.758l.029,1.221a2.813,2.813,0,0,1,2.52-1.416,1.846,1.846,0,0,1,.8.137Zm4.27-4.18v2.559h1.973v1.4h-1.973v6.553a1.464,1.464,0,0,0,.264.952,1.11,1.11,0,0,0,.9.317,4.374,4.374,0,0,0,.859-.117V0a5.238,5.238,0,0,1-1.387.2,2.25,2.25,0,0,1-1.826-.732,3.147,3.147,0,0,1-.615-2.08V-9.17h-1.924v-1.4h1.924v-2.559ZM135.99,0h-1.807V-10.566h1.807Zm-1.953-13.369a1.078,1.078,0,0,1,.269-.742,1.008,1.008,0,0,1,.8-.3,1.024,1.024,0,0,1,.8.3,1.067,1.067,0,0,1,.273.742,1.032,1.032,0,0,1-.273.732,1.043,1.043,0,0,1-.8.293,1.026,1.026,0,0,1-.8-.293A1.043,1.043,0,0,1,134.036-13.369Zm8.752,12.09a2.6,2.6,0,0,0,1.689-.586,2.061,2.061,0,0,0,.8-1.465h1.709a3.276,3.276,0,0,1-.625,1.729,4.116,4.116,0,0,1-1.538,1.309A4.438,4.438,0,0,1,142.788.2a4.353,4.353,0,0,1-3.433-1.44,5.737,5.737,0,0,1-1.274-3.94v-.3a6.361,6.361,0,0,1,.566-2.744,4.314,4.314,0,0,1,1.626-1.865,4.619,4.619,0,0,1,2.5-.664A4.238,4.238,0,0,1,145.733-9.7a3.8,3.8,0,0,1,1.255,2.764h-1.709a2.49,2.49,0,0,0-.776-1.685,2.415,2.415,0,0,0-1.724-.659,2.529,2.529,0,0,0-2.134.991,4.655,4.655,0,0,0-.757,2.866v.342a4.562,4.562,0,0,0,.752,2.813A2.541,2.541,0,0,0,142.788-1.279ZM150.652,0h-1.807V-10.566h1.807ZM148.7-13.369a1.078,1.078,0,0,1,.269-.742,1.008,1.008,0,0,1,.8-.3,1.024,1.024,0,0,1,.8.3,1.067,1.067,0,0,1,.273.742,1.032,1.032,0,0,1-.273.732,1.043,1.043,0,0,1-.8.293,1.026,1.026,0,0,1-.8-.293A1.043,1.043,0,0,1,148.7-13.369Zm13.44,8.2a6.327,6.327,0,0,1-1.1,3.887A3.537,3.537,0,0,1,158.046.2a3.875,3.875,0,0,1-3.027-1.221V4.063h-1.807V-10.566h1.65l.088,1.172a3.722,3.722,0,0,1,3.066-1.367,3.6,3.6,0,0,1,3.013,1.436,6.4,6.4,0,0,1,1.108,3.994Zm-1.807-.205a4.669,4.669,0,0,0-.762-2.822,2.454,2.454,0,0,0-2.09-1.035,2.656,2.656,0,0,0-2.461,1.455v5.049a2.661,2.661,0,0,0,2.48,1.445,2.442,2.442,0,0,0,2.065-1.03A5.1,5.1,0,0,0,160.332-5.371ZM170.627,0a3.8,3.8,0,0,1-.254-1.113A4.031,4.031,0,0,1,167.365.2,3.73,3.73,0,0,1,164.8-.688a2.859,2.859,0,0,1-1-2.241,2.987,2.987,0,0,1,1.255-2.563,5.916,5.916,0,0,1,3.53-.913h1.758v-.83a2.029,2.029,0,0,0-.566-1.509,2.276,2.276,0,0,0-1.67-.562,2.634,2.634,0,0,0-1.621.488,1.439,1.439,0,0,0-.654,1.182h-1.816a2.493,2.493,0,0,1,.562-1.528,3.832,3.832,0,0,1,1.523-1.167,5.125,5.125,0,0,1,2.114-.43,4.177,4.177,0,0,1,2.861.913,3.294,3.294,0,0,1,1.074,2.515v4.863a5.946,5.946,0,0,0,.371,2.314V0Zm-3-1.377a3.175,3.175,0,0,0,1.611-.439,2.658,2.658,0,0,0,1.1-1.143V-5.127h-1.416q-3.32,0-3.32,1.943a1.645,1.645,0,0,0,.566,1.328A2.177,2.177,0,0,0,167.629-1.377Zm11.262.1a2.6,2.6,0,0,0,1.689-.586,2.061,2.061,0,0,0,.8-1.465h1.709a3.276,3.276,0,0,1-.625,1.729,4.116,4.116,0,0,1-1.538,1.309A4.438,4.438,0,0,1,178.89.2a4.353,4.353,0,0,1-3.433-1.44,5.737,5.737,0,0,1-1.274-3.94v-.3a6.361,6.361,0,0,1,.566-2.744,4.314,4.314,0,0,1,1.626-1.865,4.619,4.619,0,0,1,2.5-.664A4.238,4.238,0,0,1,181.835-9.7a3.8,3.8,0,0,1,1.255,2.764h-1.709a2.49,2.49,0,0,0-.776-1.685,2.415,2.415,0,0,0-1.724-.659,2.529,2.529,0,0,0-2.134.991,4.655,4.655,0,0,0-.757,2.866v.342a4.562,4.562,0,0,0,.752,2.813A2.541,2.541,0,0,0,178.89-1.279ZM186.754,0h-1.807V-10.566h1.807ZM184.8-13.369a1.078,1.078,0,0,1,.269-.742,1.008,1.008,0,0,1,.8-.3,1.024,1.024,0,0,1,.8.3,1.067,1.067,0,0,1,.273.742,1.032,1.032,0,0,1-.273.732,1.043,1.043,0,0,1-.8.293,1.026,1.026,0,0,1-.8-.293A1.043,1.043,0,0,1,184.8-13.369Zm4.035,7.988a6.241,6.241,0,0,1,.61-2.793,4.553,4.553,0,0,1,1.7-1.914,4.626,4.626,0,0,1,2.485-.674,4.456,4.456,0,0,1,3.491,1.494,5.748,5.748,0,0,1,1.333,3.975v.127a6.3,6.3,0,0,1-.591,2.769,4.486,4.486,0,0,1-1.689,1.909A4.679,4.679,0,0,1,193.65.2,4.445,4.445,0,0,1,190.169-1.3a5.719,5.719,0,0,1-1.333-3.955Zm1.816.215a4.52,4.52,0,0,0,.815,2.822,2.61,2.61,0,0,0,2.183,1.064,2.594,2.594,0,0,0,2.188-1.079,4.943,4.943,0,0,0,.811-3.022,4.513,4.513,0,0,0-.825-2.817,2.623,2.623,0,0,0-2.192-1.079,2.594,2.594,0,0,0-2.158,1.064A4.906,4.906,0,0,0,190.652-5.166Zm11.447-5.4.059,1.328a3.851,3.851,0,0,1,3.164-1.523q3.35,0,3.379,3.779V0h-1.807V-6.992a2.433,2.433,0,0,0-.522-1.689,2.094,2.094,0,0,0-1.6-.547,2.607,2.607,0,0,0-1.543.469,3.183,3.183,0,0,0-1.035,1.23V0h-1.807V-10.566ZM215.48.2a4.617,4.617,0,0,1-3.5-1.411,5.237,5.237,0,0,1-1.348-3.774v-.332a6.341,6.341,0,0,1,.6-2.808,4.685,4.685,0,0,1,1.68-1.934,4.223,4.223,0,0,1,2.339-.7,3.957,3.957,0,0,1,3.2,1.357A5.877,5.877,0,0,1,219.6-5.518v.752h-7.158a3.756,3.756,0,0,0,.913,2.524,2.87,2.87,0,0,0,2.222.962A3.147,3.147,0,0,0,217.2-1.67a4.073,4.073,0,0,0,1.162-1.035l1.1.859A4.437,4.437,0,0,1,215.48.2Zm-.225-9.473a2.41,2.41,0,0,0-1.836.8A3.868,3.868,0,0,0,212.5-6.25h5.293v-.137a3.441,3.441,0,0,0-.742-2.134A2.269,2.269,0,0,0,215.256-9.277ZM227.514-2.8a1.33,1.33,0,0,0-.552-1.138,5.311,5.311,0,0,0-1.924-.7,9.1,9.1,0,0,1-2.178-.7,3.1,3.1,0,0,1-1.191-.977,2.336,2.336,0,0,1-.386-1.348,2.741,2.741,0,0,1,1.1-2.2,4.291,4.291,0,0,1,2.808-.9,4.415,4.415,0,0,1,2.915.928,2.947,2.947,0,0,1,1.118,2.373h-1.816a1.631,1.631,0,0,0-.63-1.279,2.36,2.36,0,0,0-1.587-.537,2.47,2.47,0,0,0-1.543.43,1.353,1.353,0,0,0-.557,1.123,1.1,1.1,0,0,0,.518.986,6.368,6.368,0,0,0,1.87.635,9.744,9.744,0,0,1,2.192.723,3.2,3.2,0,0,1,1.245,1.011,2.485,2.485,0,0,1,.405,1.44,2.7,2.7,0,0,1-1.133,2.271A4.752,4.752,0,0,1,225.248.2,5.321,5.321,0,0,1,223-.254a3.653,3.653,0,0,1-1.528-1.255,3.025,3.025,0,0,1-.552-1.743h1.807a1.87,1.87,0,0,0,.728,1.44,2.822,2.822,0,0,0,1.792.532,2.913,2.913,0,0,0,1.646-.415A1.275,1.275,0,0,0,227.514-2.8Z" transform="translate(1004.128 -2479.58)"/><path d="M9.629-7.949H1.484V-9.521H9.629Zm0,4.053H1.484V-5.459H9.629ZM24.955-6.572H18.793v5.039h7.158V0H16.918V-14.219h8.936v1.543H18.793v4.57h6.162ZM28.385,0V-9.17h-1.67v-1.4h1.67V-11.65a3.6,3.6,0,0,1,.908-2.627,3.431,3.431,0,0,1,2.568-.928,4.741,4.741,0,0,1,1.24.166L33-13.574a5.189,5.189,0,0,0-.977-.088,1.766,1.766,0,0,0-1.357.513,2.075,2.075,0,0,0-.479,1.47v1.113h2.256v1.4H30.192V0ZM38.494.2A4.617,4.617,0,0,1,35-1.216,5.237,5.237,0,0,1,33.651-4.99v-.332a6.341,6.341,0,0,1,.6-2.808,4.685,4.685,0,0,1,1.68-1.934,4.223,4.223,0,0,1,2.339-.7,3.957,3.957,0,0,1,3.2,1.357,5.877,5.877,0,0,1,1.143,3.887v.752H35.457a3.756,3.756,0,0,0,.913,2.524,2.87,2.87,0,0,0,2.222.962,3.147,3.147,0,0,0,1.621-.391,4.073,4.073,0,0,0,1.162-1.035l1.1.859A4.437,4.437,0,0,1,38.494.2ZM38.27-9.277a2.41,2.41,0,0,0-1.836.8,3.868,3.868,0,0,0-.918,2.231h5.293v-.137a3.441,3.441,0,0,0-.742-2.134A2.269,2.269,0,0,0,38.27-9.277Zm10.344,8A2.6,2.6,0,0,0,50.3-1.865a2.061,2.061,0,0,0,.8-1.465h1.709A3.276,3.276,0,0,1,52.188-1.6,4.116,4.116,0,0,1,50.65-.293,4.438,4.438,0,0,1,48.614.2a4.353,4.353,0,0,1-3.433-1.44,5.737,5.737,0,0,1-1.274-3.94v-.3a6.361,6.361,0,0,1,.566-2.744A4.314,4.314,0,0,1,46.1-10.1a4.619,4.619,0,0,1,2.5-.664A4.238,4.238,0,0,1,51.558-9.7a3.8,3.8,0,0,1,1.255,2.764H51.1a2.49,2.49,0,0,0-.776-1.685A2.415,2.415,0,0,0,48.6-9.277a2.529,2.529,0,0,0-2.134.991,4.655,4.655,0,0,0-.757,2.866v.342a4.562,4.562,0,0,0,.752,2.813A2.541,2.541,0,0,0,48.614-1.279Zm8.352-11.846v2.559h1.973v1.4H56.965v6.553a1.464,1.464,0,0,0,.264.952,1.11,1.11,0,0,0,.9.317,4.374,4.374,0,0,0,.859-.117V0A5.238,5.238,0,0,1,57.6.2a2.25,2.25,0,0,1-1.826-.732,3.147,3.147,0,0,1-.615-2.08V-9.17H53.235v-1.4h1.924v-2.559ZM62.68,0H60.874V-10.566H62.68ZM60.727-13.369A1.078,1.078,0,0,1,61-14.111a1.008,1.008,0,0,1,.8-.3,1.024,1.024,0,0,1,.8.3,1.067,1.067,0,0,1,.273.742,1.032,1.032,0,0,1-.273.732,1.043,1.043,0,0,1-.8.293,1.026,1.026,0,0,1-.8-.293A1.043,1.043,0,0,1,60.727-13.369Zm8,10.918,2.617-8.115H73.19L69.4,0H68.024L64.2-10.566h1.846Zm5.246-2.93a6.241,6.241,0,0,1,.61-2.793,4.553,4.553,0,0,1,1.7-1.914,4.626,4.626,0,0,1,2.485-.674,4.456,4.456,0,0,1,3.491,1.494,5.748,5.748,0,0,1,1.333,3.975v.127A6.3,6.3,0,0,1,83-2.4,4.486,4.486,0,0,1,81.312-.488,4.679,4.679,0,0,1,78.788.2,4.445,4.445,0,0,1,75.306-1.3a5.719,5.719,0,0,1-1.333-3.955Zm1.816.215a4.52,4.52,0,0,0,.815,2.822,2.61,2.61,0,0,0,2.183,1.064,2.594,2.594,0,0,0,2.188-1.079,4.943,4.943,0,0,0,.811-3.022A4.513,4.513,0,0,0,80.961-8.2a2.623,2.623,0,0,0-2.192-1.079A2.594,2.594,0,0,0,76.61-8.213,4.906,4.906,0,0,0,75.79-5.166Zm13.93-.205A6.21,6.21,0,0,1,90.862-9.3a3.654,3.654,0,0,1,3.027-1.46,3.635,3.635,0,0,1,3.018,1.367L97-10.566h1.65V-.254A4.3,4.3,0,0,1,97.43,2.979,4.487,4.487,0,0,1,94.163,4.16a5.435,5.435,0,0,1-2.236-.488,3.85,3.85,0,0,1-1.67-1.338l.938-1.084a3.533,3.533,0,0,0,2.842,1.436,2.768,2.768,0,0,0,2.056-.742,2.837,2.837,0,0,0,.737-2.09v-.908A3.713,3.713,0,0,1,93.87.2a3.609,3.609,0,0,1-3-1.494A6.529,6.529,0,0,1,89.72-5.371Zm1.816.205a4.738,4.738,0,0,0,.732,2.808,2.38,2.38,0,0,0,2.051,1.021,2.646,2.646,0,0,0,2.51-1.553V-7.715a2.677,2.677,0,0,0-2.49-1.514A2.4,2.4,0,0,0,92.278-8.2,5.16,5.16,0,0,0,91.536-5.166ZM105.425.2a4.617,4.617,0,0,1-3.5-1.411,5.237,5.237,0,0,1-1.348-3.774v-.332a6.341,6.341,0,0,1,.6-2.808,4.685,4.685,0,0,1,1.68-1.934,4.223,4.223,0,0,1,2.339-.7A3.957,3.957,0,0,1,108.4-9.4a5.877,5.877,0,0,1,1.143,3.887v.752h-7.158a3.756,3.756,0,0,0,.913,2.524,2.87,2.87,0,0,0,2.222.962,3.147,3.147,0,0,0,1.621-.391,4.073,4.073,0,0,0,1.162-1.035l1.1.859A4.437,4.437,0,0,1,105.425.2ZM105.2-9.277a2.41,2.41,0,0,0-1.836.8,3.869,3.869,0,0,0-.918,2.231h5.293v-.137A3.441,3.441,0,0,0,107-8.521,2.269,2.269,0,0,0,105.2-9.277Zm7.815-1.289.059,1.328a3.85,3.85,0,0,1,3.164-1.523q3.35,0,3.379,3.779V0H117.81V-6.992a2.432,2.432,0,0,0-.522-1.689,2.094,2.094,0,0,0-1.6-.547,2.607,2.607,0,0,0-1.543.469,3.183,3.183,0,0,0-1.035,1.23V0h-1.807V-10.566ZM126.4.2a4.617,4.617,0,0,1-3.5-1.411,5.237,5.237,0,0,1-1.348-3.774v-.332a6.341,6.341,0,0,1,.6-2.808,4.685,4.685,0,0,1,1.68-1.934,4.223,4.223,0,0,1,2.339-.7,3.957,3.957,0,0,1,3.2,1.357,5.877,5.877,0,0,1,1.143,3.887v.752h-7.158a3.756,3.756,0,0,0,.913,2.524,2.87,2.87,0,0,0,2.222.962,3.147,3.147,0,0,0,1.621-.391,4.073,4.073,0,0,0,1.162-1.035l1.1.859A4.437,4.437,0,0,1,126.4.2Zm-.225-9.473a2.41,2.41,0,0,0-1.836.8,3.869,3.869,0,0,0-.918,2.231h5.293v-.137a3.441,3.441,0,0,0-.742-2.134A2.269,2.269,0,0,0,126.171-9.277Zm11.213.332a5.414,5.414,0,0,0-.889-.068A2.381,2.381,0,0,0,134.083-7.5V0h-1.807V-10.566h1.758l.029,1.221a2.813,2.813,0,0,1,2.52-1.416,1.846,1.846,0,0,1,.8.137ZM144.847,0a3.8,3.8,0,0,1-.254-1.113A4.031,4.031,0,0,1,141.585.2a3.73,3.73,0,0,1-2.563-.884,2.859,2.859,0,0,1-1-2.241,2.987,2.987,0,0,1,1.255-2.563,5.916,5.916,0,0,1,3.53-.913h1.758v-.83A2.029,2.029,0,0,0,144-8.745a2.276,2.276,0,0,0-1.67-.562,2.634,2.634,0,0,0-1.621.488,1.439,1.439,0,0,0-.654,1.182h-1.816a2.493,2.493,0,0,1,.562-1.528,3.832,3.832,0,0,1,1.523-1.167,5.125,5.125,0,0,1,2.114-.43,4.177,4.177,0,0,1,2.861.913,3.294,3.294,0,0,1,1.074,2.515v4.863a5.946,5.946,0,0,0,.371,2.314V0Zm-3-1.377a3.175,3.175,0,0,0,1.611-.439,2.658,2.658,0,0,0,1.1-1.143V-5.127h-1.416q-3.32,0-3.32,1.943a1.645,1.645,0,0,0,.566,1.328A2.177,2.177,0,0,0,141.849-1.377Zm6.584-3.994a6.19,6.19,0,0,1,1.152-3.911,3.644,3.644,0,0,1,3.018-1.479,3.665,3.665,0,0,1,2.939,1.27V-15h1.807V0h-1.66L155.6-1.133A3.679,3.679,0,0,1,152.583.2a3.609,3.609,0,0,1-2.993-1.5,6.26,6.26,0,0,1-1.157-3.926Zm1.807.205a4.687,4.687,0,0,0,.742,2.813,2.4,2.4,0,0,0,2.051,1.016,2.636,2.636,0,0,0,2.51-1.543V-7.734a2.656,2.656,0,0,0-2.49-1.494,2.411,2.411,0,0,0-2.07,1.025A5.16,5.16,0,0,0,150.24-5.166Zm9.1-.215a6.241,6.241,0,0,1,.61-2.793,4.553,4.553,0,0,1,1.7-1.914,4.626,4.626,0,0,1,2.485-.674,4.456,4.456,0,0,1,3.491,1.494,5.748,5.748,0,0,1,1.333,3.975v.127a6.3,6.3,0,0,1-.591,2.769,4.486,4.486,0,0,1-1.689,1.909A4.679,4.679,0,0,1,164.158.2,4.445,4.445,0,0,1,160.676-1.3a5.719,5.719,0,0,1-1.333-3.955Zm1.816.215a4.52,4.52,0,0,0,.815,2.822,2.61,2.61,0,0,0,2.183,1.064,2.594,2.594,0,0,0,2.188-1.079,4.943,4.943,0,0,0,.811-3.022,4.513,4.513,0,0,0-.825-2.817,2.623,2.623,0,0,0-2.192-1.079,2.594,2.594,0,0,0-2.158,1.064A4.906,4.906,0,0,0,161.16-5.166ZM179.9.2a4.617,4.617,0,0,1-3.5-1.411A5.237,5.237,0,0,1,175.06-4.99v-.332a6.341,6.341,0,0,1,.6-2.808,4.685,4.685,0,0,1,1.68-1.934,4.223,4.223,0,0,1,2.339-.7,3.957,3.957,0,0,1,3.2,1.357,5.877,5.877,0,0,1,1.143,3.887v.752h-7.158a3.756,3.756,0,0,0,.913,2.524A2.87,2.87,0,0,0,180-1.279a3.147,3.147,0,0,0,1.621-.391,4.073,4.073,0,0,0,1.162-1.035l1.1.859A4.437,4.437,0,0,1,179.9.2Zm-.225-9.473a2.41,2.41,0,0,0-1.836.8,3.868,3.868,0,0,0-.918,2.231h5.293v-.137a3.441,3.441,0,0,0-.742-2.134A2.269,2.269,0,0,0,179.679-9.277Zm7.815-1.289.059,1.328a3.851,3.851,0,0,1,3.164-1.523q3.35,0,3.379,3.779V0h-1.807V-6.992a2.433,2.433,0,0,0-.522-1.689,2.094,2.094,0,0,0-1.6-.547,2.607,2.607,0,0,0-1.543.469,3.183,3.183,0,0,0-1.035,1.23V0h-1.807V-10.566ZM207.635,0a3.8,3.8,0,0,1-.254-1.113A4.031,4.031,0,0,1,204.373.2a3.73,3.73,0,0,1-2.563-.884,2.859,2.859,0,0,1-1-2.241,2.987,2.987,0,0,1,1.255-2.563,5.916,5.916,0,0,1,3.53-.913h1.758v-.83a2.029,2.029,0,0,0-.566-1.509,2.276,2.276,0,0,0-1.67-.562,2.634,2.634,0,0,0-1.621.488,1.439,1.439,0,0,0-.654,1.182h-1.816a2.493,2.493,0,0,1,.562-1.528,3.832,3.832,0,0,1,1.523-1.167,5.125,5.125,0,0,1,2.114-.43,4.177,4.177,0,0,1,2.861.913,3.294,3.294,0,0,1,1.074,2.515v4.863a5.946,5.946,0,0,0,.371,2.314V0Zm-3-1.377a3.175,3.175,0,0,0,1.611-.439,2.658,2.658,0,0,0,1.1-1.143V-5.127h-1.416q-3.32,0-3.32,1.943a1.645,1.645,0,0,0,.566,1.328A2.177,2.177,0,0,0,204.637-1.377Zm11.262.1a2.6,2.6,0,0,0,1.689-.586,2.061,2.061,0,0,0,.8-1.465H220.1a3.276,3.276,0,0,1-.625,1.729,4.116,4.116,0,0,1-1.538,1.309A4.438,4.438,0,0,1,215.9.2a4.353,4.353,0,0,1-3.433-1.44,5.737,5.737,0,0,1-1.274-3.94v-.3a6.361,6.361,0,0,1,.566-2.744,4.314,4.314,0,0,1,1.626-1.865,4.619,4.619,0,0,1,2.5-.664A4.238,4.238,0,0,1,218.843-9.7,3.8,3.8,0,0,1,220.1-6.934h-1.709a2.49,2.49,0,0,0-.776-1.685,2.415,2.415,0,0,0-1.724-.659,2.529,2.529,0,0,0-2.134.991A4.655,4.655,0,0,0,213-5.42v.342a4.562,4.562,0,0,0,.752,2.813A2.541,2.541,0,0,0,215.9-1.279Zm8.352-11.846v2.559h1.973v1.4H224.25v6.553a1.464,1.464,0,0,0,.264.952,1.11,1.11,0,0,0,.9.317,4.374,4.374,0,0,0,.859-.117V0a5.238,5.238,0,0,1-1.387.2,2.25,2.25,0,0,1-1.826-.732,3.147,3.147,0,0,1-.615-2.08V-9.17H220.52v-1.4h1.924v-2.559ZM229.965,0h-1.807V-10.566h1.807Zm-1.953-13.369a1.078,1.078,0,0,1,.269-.742,1.008,1.008,0,0,1,.8-.3,1.024,1.024,0,0,1,.8.3,1.067,1.067,0,0,1,.273.742,1.032,1.032,0,0,1-.273.732,1.043,1.043,0,0,1-.8.293,1.026,1.026,0,0,1-.8-.293A1.043,1.043,0,0,1,228.012-13.369Zm8,10.918,2.617-8.115h1.846L236.686,0h-1.377l-3.828-10.566h1.846ZM243.846,0h-1.807V-10.566h1.807Zm-1.953-13.369a1.078,1.078,0,0,1,.269-.742,1.008,1.008,0,0,1,.8-.3,1.024,1.024,0,0,1,.8.3,1.067,1.067,0,0,1,.273.742,1.032,1.032,0,0,1-.273.732,1.043,1.043,0,0,1-.8.293,1.026,1.026,0,0,1-.8-.293A1.043,1.043,0,0,1,241.893-13.369Zm4.074,8a6.19,6.19,0,0,1,1.152-3.911,3.644,3.644,0,0,1,3.018-1.479,3.665,3.665,0,0,1,2.939,1.27V-15h1.807V0h-1.66l-.088-1.133A3.679,3.679,0,0,1,250.117.2a3.609,3.609,0,0,1-2.993-1.5,6.26,6.26,0,0,1-1.157-3.926Zm1.807.205a4.687,4.687,0,0,0,.742,2.813,2.4,2.4,0,0,0,2.051,1.016,2.636,2.636,0,0,0,2.51-1.543V-7.734a2.656,2.656,0,0,0-2.49-1.494,2.411,2.411,0,0,0-2.07,1.025A5.16,5.16,0,0,0,247.774-5.166ZM263.879,0a3.8,3.8,0,0,1-.254-1.113A4.031,4.031,0,0,1,260.618.2a3.73,3.73,0,0,1-2.563-.884,2.859,2.859,0,0,1-1-2.241,2.987,2.987,0,0,1,1.255-2.563,5.916,5.916,0,0,1,3.53-.913H263.6v-.83a2.029,2.029,0,0,0-.566-1.509,2.276,2.276,0,0,0-1.67-.562,2.634,2.634,0,0,0-1.621.488,1.439,1.439,0,0,0-.654,1.182h-1.816a2.493,2.493,0,0,1,.562-1.528,3.833,3.833,0,0,1,1.523-1.167,5.125,5.125,0,0,1,2.114-.43,4.177,4.177,0,0,1,2.861.913A3.294,3.294,0,0,1,265.4-7.334v4.863a5.946,5.946,0,0,0,.371,2.314V0Zm-3-1.377a3.175,3.175,0,0,0,1.611-.439,2.658,2.658,0,0,0,1.1-1.143V-5.127H262.18q-3.32,0-3.32,1.943a1.645,1.645,0,0,0,.566,1.328A2.177,2.177,0,0,0,260.881-1.377Zm6.584-3.994a6.19,6.19,0,0,1,1.152-3.911,3.644,3.644,0,0,1,3.018-1.479,3.665,3.665,0,0,1,2.939,1.27V-15h1.807V0h-1.66l-.088-1.133A3.679,3.679,0,0,1,271.616.2a3.609,3.609,0,0,1-2.993-1.5,6.26,6.26,0,0,1-1.157-3.926Zm1.807.205a4.687,4.687,0,0,0,.742,2.813,2.4,2.4,0,0,0,2.051,1.016,2.636,2.636,0,0,0,2.51-1.543V-7.734a2.656,2.656,0,0,0-2.49-1.494,2.411,2.411,0,0,0-2.07,1.025A5.16,5.16,0,0,0,269.272-5.166ZM283.239.2a4.617,4.617,0,0,1-3.5-1.411A5.237,5.237,0,0,1,278.4-4.99v-.332A6.341,6.341,0,0,1,279-8.13a4.685,4.685,0,0,1,1.68-1.934,4.223,4.223,0,0,1,2.339-.7,3.957,3.957,0,0,1,3.2,1.357,5.877,5.877,0,0,1,1.143,3.887v.752H280.2a3.756,3.756,0,0,0,.913,2.524,2.87,2.87,0,0,0,2.222.962,3.147,3.147,0,0,0,1.621-.391,4.073,4.073,0,0,0,1.162-1.035l1.1.859A4.437,4.437,0,0,1,283.239.2Zm-.225-9.473a2.41,2.41,0,0,0-1.836.8,3.869,3.869,0,0,0-.918,2.231h5.293v-.137a3.441,3.441,0,0,0-.742-2.134A2.269,2.269,0,0,0,283.014-9.277ZM295.272-2.8a1.33,1.33,0,0,0-.552-1.138,5.311,5.311,0,0,0-1.924-.7,9.1,9.1,0,0,1-2.178-.7,3.1,3.1,0,0,1-1.191-.977,2.336,2.336,0,0,1-.386-1.348,2.741,2.741,0,0,1,1.1-2.2,4.291,4.291,0,0,1,2.808-.9,4.415,4.415,0,0,1,2.915.928,2.947,2.947,0,0,1,1.118,2.373h-1.816a1.631,1.631,0,0,0-.63-1.279,2.36,2.36,0,0,0-1.587-.537,2.47,2.47,0,0,0-1.543.43,1.353,1.353,0,0,0-.557,1.123,1.1,1.1,0,0,0,.518.986,6.368,6.368,0,0,0,1.87.635,9.744,9.744,0,0,1,2.192.723,3.2,3.2,0,0,1,1.245,1.011,2.485,2.485,0,0,1,.405,1.44,2.7,2.7,0,0,1-1.133,2.271A4.752,4.752,0,0,1,293.006.2a5.321,5.321,0,0,1-2.246-.449,3.653,3.653,0,0,1-1.528-1.255,3.025,3.025,0,0,1-.552-1.743h1.807a1.87,1.87,0,0,0,.728,1.44,2.822,2.822,0,0,0,1.792.532,2.914,2.914,0,0,0,1.646-.415A1.275,1.275,0,0,0,295.272-2.8Zm8.012-2.568a6.19,6.19,0,0,1,1.152-3.911,3.644,3.644,0,0,1,3.018-1.479,3.665,3.665,0,0,1,2.939,1.27V-15H312.2V0h-1.66l-.088-1.133A3.679,3.679,0,0,1,307.434.2a3.609,3.609,0,0,1-2.993-1.5,6.26,6.26,0,0,1-1.157-3.926Zm1.807.205a4.687,4.687,0,0,0,.742,2.813,2.4,2.4,0,0,0,2.051,1.016,2.636,2.636,0,0,0,2.51-1.543V-7.734a2.656,2.656,0,0,0-2.49-1.494,2.411,2.411,0,0,0-2.07,1.025A5.16,5.16,0,0,0,305.091-5.166ZM319.057.2a4.617,4.617,0,0,1-3.5-1.411,5.237,5.237,0,0,1-1.348-3.774v-.332a6.341,6.341,0,0,1,.6-2.808,4.685,4.685,0,0,1,1.68-1.934,4.223,4.223,0,0,1,2.339-.7,3.957,3.957,0,0,1,3.2,1.357,5.877,5.877,0,0,1,1.143,3.887v.752H316.02a3.756,3.756,0,0,0,.913,2.524,2.87,2.87,0,0,0,2.222.962,3.147,3.147,0,0,0,1.621-.391,4.073,4.073,0,0,0,1.162-1.035l1.1.859A4.437,4.437,0,0,1,319.057.2Zm-.225-9.473a2.41,2.41,0,0,0-1.836.8,3.869,3.869,0,0,0-.918,2.231h5.293v-.137a3.441,3.441,0,0,0-.742-2.134A2.269,2.269,0,0,0,318.833-9.277ZM330.165,0V-9.17H328.5v-1.4h1.67v-.9a3.671,3.671,0,0,1,1.011-2.754,3.919,3.919,0,0,1,2.856-.986,8.6,8.6,0,0,1,2.764.6l-.3,1.523a6.259,6.259,0,0,0-2.324-.488,2.274,2.274,0,0,0-1.675.522,2.154,2.154,0,0,0-.513,1.567v.918h2.158v1.4h-2.158V0Zm7.529,0h-1.816V-10.566h1.816Zm4.318-10.566.059,1.328a3.85,3.85,0,0,1,3.164-1.523q3.35,0,3.379,3.779V0h-1.807V-6.992a2.432,2.432,0,0,0-.522-1.689,2.094,2.094,0,0,0-1.6-.547,2.607,2.607,0,0,0-1.543.469,3.183,3.183,0,0,0-1.035,1.23V0H340.3V-10.566ZM357.532,0a3.8,3.8,0,0,1-.254-1.113A4.031,4.031,0,0,1,354.271.2a3.73,3.73,0,0,1-2.563-.884,2.859,2.859,0,0,1-1-2.241,2.987,2.987,0,0,1,1.255-2.563,5.916,5.916,0,0,1,3.53-.913h1.758v-.83a2.029,2.029,0,0,0-.566-1.509,2.276,2.276,0,0,0-1.67-.562,2.634,2.634,0,0,0-1.621.488,1.439,1.439,0,0,0-.654,1.182h-1.816a2.493,2.493,0,0,1,.562-1.528,3.833,3.833,0,0,1,1.523-1.167,5.125,5.125,0,0,1,2.114-.43,4.177,4.177,0,0,1,2.861.913,3.294,3.294,0,0,1,1.074,2.515v4.863a5.946,5.946,0,0,0,.371,2.314V0Zm-3-1.377a3.175,3.175,0,0,0,1.611-.439,2.658,2.658,0,0,0,1.1-1.143V-5.127h-1.416q-3.32,0-3.32,1.943a1.645,1.645,0,0,0,.566,1.328A2.177,2.177,0,0,0,354.534-1.377Zm8.733-9.189.059,1.328a3.85,3.85,0,0,1,3.164-1.523q3.35,0,3.379,3.779V0h-1.807V-6.992a2.432,2.432,0,0,0-.522-1.689,2.094,2.094,0,0,0-1.6-.547,2.607,2.607,0,0,0-1.543.469,3.183,3.183,0,0,0-1.035,1.23V0h-1.807V-10.566ZM376.5-1.279a2.6,2.6,0,0,0,1.689-.586,2.061,2.061,0,0,0,.8-1.465H380.7a3.276,3.276,0,0,1-.625,1.729,4.117,4.117,0,0,1-1.538,1.309A4.438,4.438,0,0,1,376.5.2a4.353,4.353,0,0,1-3.433-1.44,5.737,5.737,0,0,1-1.274-3.94v-.3a6.362,6.362,0,0,1,.566-2.744,4.314,4.314,0,0,1,1.626-1.865,4.619,4.619,0,0,1,2.5-.664A4.238,4.238,0,0,1,379.446-9.7,3.8,3.8,0,0,1,380.7-6.934h-1.709a2.49,2.49,0,0,0-.776-1.685,2.415,2.415,0,0,0-1.724-.659,2.529,2.529,0,0,0-2.134.991A4.655,4.655,0,0,0,373.6-5.42v.342a4.562,4.562,0,0,0,.752,2.813A2.541,2.541,0,0,0,376.5-1.279ZM384.365,0h-1.807V-10.566h1.807Zm-1.953-13.369a1.078,1.078,0,0,1,.269-.742,1.008,1.008,0,0,1,.8-.3,1.024,1.024,0,0,1,.8.3,1.067,1.067,0,0,1,.273.742,1.032,1.032,0,0,1-.273.732,1.043,1.043,0,0,1-.8.293,1.026,1.026,0,0,1-.8-.293A1.043,1.043,0,0,1,382.412-13.369ZM393.449,0a3.8,3.8,0,0,1-.254-1.113A4.031,4.031,0,0,1,390.187.2a3.73,3.73,0,0,1-2.563-.884,2.859,2.859,0,0,1-1-2.241,2.987,2.987,0,0,1,1.255-2.563,5.916,5.916,0,0,1,3.53-.913h1.758v-.83a2.029,2.029,0,0,0-.566-1.509,2.276,2.276,0,0,0-1.67-.562,2.634,2.634,0,0,0-1.621.488,1.439,1.439,0,0,0-.654,1.182h-1.816a2.493,2.493,0,0,1,.562-1.528,3.833,3.833,0,0,1,1.523-1.167,5.125,5.125,0,0,1,2.114-.43,4.177,4.177,0,0,1,2.861.913,3.294,3.294,0,0,1,1.074,2.515v4.863a5.946,5.946,0,0,0,.371,2.314V0Zm-3-1.377a3.175,3.175,0,0,0,1.611-.439,2.658,2.658,0,0,0,1.1-1.143V-5.127H391.75q-3.32,0-3.32,1.943A1.645,1.645,0,0,0,389-1.855,2.177,2.177,0,0,0,390.451-1.377Zm11.262.1a2.6,2.6,0,0,0,1.689-.586,2.061,2.061,0,0,0,.8-1.465h1.709a3.276,3.276,0,0,1-.625,1.729,4.117,4.117,0,0,1-1.538,1.309A4.438,4.438,0,0,1,401.712.2a4.353,4.353,0,0,1-3.433-1.44,5.737,5.737,0,0,1-1.274-3.94v-.3a6.362,6.362,0,0,1,.566-2.744A4.314,4.314,0,0,1,399.2-10.1a4.619,4.619,0,0,1,2.5-.664A4.238,4.238,0,0,1,404.657-9.7a3.8,3.8,0,0,1,1.255,2.764H404.2a2.49,2.49,0,0,0-.776-1.685,2.415,2.415,0,0,0-1.724-.659,2.529,2.529,0,0,0-2.134.991,4.655,4.655,0,0,0-.757,2.866v.342a4.562,4.562,0,0,0,.752,2.813A2.541,2.541,0,0,0,401.712-1.279ZM409.576,0h-1.807V-10.566h1.807Zm-1.953-13.369a1.078,1.078,0,0,1,.269-.742,1.008,1.008,0,0,1,.8-.3,1.024,1.024,0,0,1,.8.3,1.067,1.067,0,0,1,.273.742,1.032,1.032,0,0,1-.273.732,1.043,1.043,0,0,1-.8.293,1.026,1.026,0,0,1-.8-.293A1.043,1.043,0,0,1,407.623-13.369Zm4.035,7.988a6.241,6.241,0,0,1,.61-2.793,4.553,4.553,0,0,1,1.7-1.914,4.626,4.626,0,0,1,2.485-.674,4.456,4.456,0,0,1,3.491,1.494,5.748,5.748,0,0,1,1.333,3.975v.127a6.3,6.3,0,0,1-.591,2.769A4.486,4.486,0,0,1,419-.488,4.679,4.679,0,0,1,416.472.2,4.445,4.445,0,0,1,412.991-1.3a5.719,5.719,0,0,1-1.333-3.955Zm1.816.215a4.52,4.52,0,0,0,.815,2.822,2.61,2.61,0,0,0,2.183,1.064,2.594,2.594,0,0,0,2.188-1.079,4.943,4.943,0,0,0,.811-3.022,4.512,4.512,0,0,0-.825-2.817,2.623,2.623,0,0,0-2.192-1.079,2.594,2.594,0,0,0-2.158,1.064A4.906,4.906,0,0,0,413.474-5.166Zm3.8-9.834h2.188l-2.617,2.871h-1.455Zm7.649,4.434.059,1.328a3.85,3.85,0,0,1,3.164-1.523q3.35,0,3.379,3.779V0h-1.807V-6.992a2.432,2.432,0,0,0-.522-1.689,2.094,2.094,0,0,0-1.6-.547,2.607,2.607,0,0,0-1.543.469,3.183,3.183,0,0,0-1.035,1.23V0h-1.807V-10.566Z" transform="translate(1004.128 -2435.58)"/></g></svg>