<?xml version="1.0" encoding="utf-8"?>
<!-- Generator: Adobe Illustrator 25.3.1, SVG Export Plug-In . SVG Version: 6.00 Build 0)  -->
<svg version="1.1" id="Layer_1" xmlns="http://www.w3.org/2000/svg" xmlns:xlink="http://www.w3.org/1999/xlink" x="0px" y="0px"
	 viewBox="0 0 647.9 166.2" style="enable-background:new 0 0 647.9 166.2;" xml:space="preserve">
<style type="text/css">
	.st0{fill:#F1F1F1;}
	.st1{fill:#B50000;}
</style>
<g transform="translate(-987.141 2165.222)">
	<path class="st0" d="M987.1-2165.2h647.9v45.7H987.1V-2165.2z"/>
	<path class="st0" d="M987.1-2077.8h647.9v45.7H987.1V-2077.8z"/>
	<path d="M1518.9-2131.4v-1.7c-0.7-0.1-1.4-0.3-2-0.6c-0.6-0.3-1-0.8-1.4-1.3c-0.4-0.7-0.6-1.4-0.7-2.2l1.7-0.3
		c0.1,0.7,0.3,1.4,0.7,2c0.4,0.6,1,0.9,1.7,1v-5.3c-0.7-0.2-1.5-0.4-2.1-0.8c-0.5-0.3-0.9-0.7-1.2-1.2c-0.3-0.6-0.4-1.2-0.4-1.8
		c0-1.1,0.4-2.2,1.3-2.9c0.7-0.6,1.6-0.9,2.5-0.9v-0.8h1v0.8c0.8,0,1.6,0.3,2.3,0.9c0.7,0.6,1.2,1.5,1.3,2.5l-1.7,0.3
		c-0.1-0.6-0.3-1.1-0.6-1.5c-0.3-0.4-0.8-0.6-1.3-0.7v4.8c0.6,0.1,1.1,0.3,1.7,0.5c0.5,0.2,0.9,0.5,1.3,0.8c0.3,0.3,0.6,0.7,0.8,1.2
		c0.2,0.5,0.3,1,0.3,1.5c0,1.1-0.4,2.1-1.1,2.9c-0.8,0.8-1.8,1.2-2.9,1.2v1.7H1518.9z M1518.9-2146c-0.6,0.1-1.1,0.3-1.5,0.8
		c-0.4,0.4-0.6,0.9-0.6,1.5c0,0.5,0.2,1,0.5,1.4c0.4,0.5,1,0.8,1.6,0.9L1518.9-2146z M1519.8-2134.5c0.6-0.1,1.2-0.4,1.6-0.8
		c0.4-0.5,0.7-1.1,0.6-1.8c0-0.5-0.1-1-0.4-1.5c-0.5-0.5-1.1-0.8-1.8-1L1519.8-2134.5z M1531.8-2133.3h-1.7v-10.6
		c-0.5,0.4-1,0.8-1.6,1.2c-0.6,0.3-1.1,0.6-1.8,0.9v-1.6c0.9-0.4,1.7-1,2.4-1.6c0.6-0.5,1.1-1.1,1.5-1.8h1.1L1531.8-2133.3z
		 M1537-2133.3v-1.9h1.9v1.9H1537z M1541.3-2136.9l1.8-0.1c0.1,0.7,0.4,1.4,0.9,1.9c0.5,0.4,1.1,0.7,1.7,0.6c0.8,0,1.5-0.3,2-0.9
		c0.6-0.7,0.9-1.5,0.8-2.4c0-0.8-0.2-1.6-0.8-2.3c-0.6-0.6-1.3-0.9-2.1-0.8c-0.5,0-1,0.1-1.5,0.4c-0.4,0.2-0.8,0.6-1,1l-1.6-0.2
		l1.3-7h6.8v1.6h-5.4l-0.7,3.7c0.7-0.5,1.6-0.8,2.6-0.9c1.1,0,2.2,0.4,3,1.2c0.8,0.8,1.3,2,1.2,3.2c0,1.2-0.4,2.3-1.1,3.2
		c-0.9,1.1-2.2,1.7-3.6,1.6c-1.1,0-2.2-0.3-3-1C1541.9-2134.8,1541.4-2135.8,1541.3-2136.9z M1551.9-2140c0-1.3,0.1-2.6,0.5-3.9
		c0.3-0.9,0.8-1.7,1.5-2.3c0.7-0.5,1.6-0.8,2.5-0.8c0.7,0,1.3,0.1,1.9,0.4c0.6,0.3,1,0.7,1.4,1.3c0.4,0.6,0.7,1.3,0.8,2
		c0.2,1.1,0.3,2.1,0.3,3.2c0,1.3-0.1,2.6-0.5,3.9c-0.3,0.9-0.8,1.7-1.5,2.3c-0.7,0.6-1.6,0.8-2.5,0.8c-1.2,0.1-2.3-0.5-3.1-1.4
		C1552.3-2135.6,1551.9-2137.5,1551.9-2140z M1553.6-2140c0,2.2,0.3,3.7,0.8,4.5c0.4,0.7,1.1,1.1,1.9,1.1c0.8,0,1.5-0.4,1.9-1.1
		c0.5-0.7,0.8-2.2,0.8-4.5c0-2.2-0.3-3.7-0.8-4.5c-0.4-0.7-1.2-1.1-2-1.1c-0.7,0-1.4,0.4-1.8,1
		C1553.9-2143.8,1553.6-2142.3,1553.6-2140z M1562.5-2140c0-1.3,0.1-2.6,0.5-3.9c0.3-0.9,0.8-1.7,1.5-2.3c0.7-0.5,1.6-0.8,2.5-0.8
		c0.7,0,1.3,0.1,1.9,0.4c0.6,0.3,1,0.7,1.4,1.3c0.4,0.6,0.7,1.3,0.8,2c0.2,1.1,0.3,2.1,0.3,3.2c0,1.3-0.1,2.6-0.5,3.9
		c-0.3,0.9-0.8,1.7-1.5,2.3c-0.7,0.6-1.6,0.8-2.5,0.8c-1.2,0.1-2.3-0.5-3.1-1.4C1562.9-2135.6,1562.5-2137.5,1562.5-2140z
		 M1564.2-2140c0,2.2,0.3,3.7,0.8,4.5c0.4,0.7,1.1,1.1,1.9,1.1c0.8,0,1.5-0.4,1.9-1.1c0.5-0.7,0.8-2.2,0.8-4.5
		c0-2.2-0.3-3.7-0.8-4.5c-0.4-0.7-1.2-1.1-2-1.1c-0.7,0-1.4,0.4-1.8,1C1564.5-2143.8,1564.2-2142.3,1564.2-2140z M1574-2133.3v-1.9
		h1.9v1.9H1574z M1578.3-2140c0-1.3,0.1-2.6,0.5-3.9c0.3-0.9,0.8-1.7,1.5-2.3c0.7-0.5,1.6-0.8,2.5-0.8c0.7,0,1.3,0.1,1.9,0.4
		c0.6,0.3,1,0.7,1.4,1.3c0.4,0.6,0.7,1.3,0.8,2c0.2,1.1,0.3,2.1,0.3,3.2c0,1.3-0.1,2.6-0.5,3.9c-0.3,0.9-0.8,1.7-1.5,2.3
		c-0.7,0.6-1.6,0.8-2.5,0.8c-1.2,0.1-2.3-0.5-3.1-1.4C1578.8-2135.6,1578.3-2137.5,1578.3-2140z M1580-2140c0,2.2,0.3,3.7,0.8,4.5
		c0.4,0.7,1.1,1.1,1.9,1.1c0.8,0,1.5-0.4,1.9-1.1c0.5-0.7,0.8-2.2,0.8-4.5c0-2.2-0.3-3.7-0.8-4.5c-0.4-0.7-1.2-1.1-2-1.1
		c-0.7,0-1.4,0.4-1.8,1C1580.3-2143.8,1580-2142.3,1580-2140L1580-2140z M1588.9-2140c0-1.3,0.1-2.6,0.5-3.9
		c0.3-0.9,0.8-1.7,1.5-2.3c0.7-0.5,1.6-0.8,2.5-0.8c0.7,0,1.3,0.1,1.9,0.4c0.6,0.3,1,0.7,1.4,1.3c0.4,0.6,0.7,1.3,0.8,2
		c0.2,1.1,0.3,2.1,0.3,3.2c0,1.3-0.1,2.6-0.5,3.9c-0.3,0.9-0.8,1.7-1.5,2.3c-0.7,0.6-1.6,0.8-2.5,0.8c-1.2,0.1-2.3-0.5-3.1-1.4
		C1589.3-2135.6,1588.9-2137.5,1588.9-2140z M1590.6-2140c0,2.2,0.3,3.7,0.8,4.5c0.4,0.7,1.1,1.1,1.9,1.1c0.8,0,1.5-0.4,1.9-1.1
		c0.5-0.7,0.8-2.2,0.8-4.5c0-2.2-0.3-3.7-0.8-4.5c-0.4-0.7-1.2-1.1-2-1.1c-0.7,0-1.4,0.4-1.8,1
		C1590.9-2143.8,1590.6-2142.3,1590.6-2140z M1599.4-2140c0-1.3,0.1-2.6,0.5-3.9c0.3-0.9,0.8-1.7,1.5-2.3c0.7-0.5,1.6-0.8,2.5-0.8
		c0.7,0,1.3,0.1,1.9,0.4c0.6,0.3,1,0.7,1.4,1.3c0.4,0.6,0.7,1.3,0.8,2c0.2,1.1,0.3,2.1,0.3,3.2c0,1.3-0.1,2.6-0.5,3.9
		c-0.3,0.9-0.8,1.7-1.5,2.3c-0.7,0.6-1.6,0.8-2.5,0.8c-1.2,0.1-2.3-0.5-3.1-1.4C1599.9-2135.6,1599.4-2137.5,1599.4-2140
		L1599.4-2140z M1601.2-2140c0,2.2,0.3,3.7,0.8,4.5c0.4,0.7,1.1,1.1,1.9,1.1c0.8,0,1.5-0.4,1.9-1.1c0.5-0.7,0.8-2.2,0.8-4.5
		c0-2.2-0.3-3.7-0.8-4.5c-0.4-0.7-1.2-1.1-2-1.1c-0.7,0-1.4,0.4-1.8,1C1601.4-2143.8,1601.2-2142.3,1601.2-2140z"/>
	<path d="M1593.1-2087.4v-1.7c-0.7-0.1-1.4-0.3-2-0.6c-0.6-0.3-1-0.8-1.4-1.3c-0.4-0.7-0.6-1.4-0.7-2.2l1.7-0.3
		c0.1,0.7,0.3,1.4,0.7,2c0.4,0.6,1,0.9,1.7,1v-5.3c-0.7-0.2-1.5-0.4-2.1-0.8c-0.5-0.3-0.9-0.7-1.2-1.2c-0.3-0.6-0.4-1.2-0.4-1.8
		c0-1.1,0.4-2.2,1.3-2.9c0.7-0.6,1.6-0.9,2.5-0.9v-0.8h1v0.8c0.8,0,1.6,0.3,2.3,0.9c0.7,0.6,1.2,1.5,1.3,2.5l-1.7,0.3
		c-0.1-0.6-0.3-1.1-0.6-1.5c-0.3-0.4-0.8-0.6-1.3-0.7v4.8c0.6,0.1,1.1,0.3,1.7,0.5c0.5,0.2,0.9,0.5,1.3,0.8c0.3,0.3,0.6,0.7,0.8,1.2
		c0.2,0.5,0.3,1,0.3,1.5c0,1.1-0.4,2.1-1.1,2.9c-0.7,0.8-1.8,1.2-2.9,1.2v1.7H1593.1z M1593.1-2102c-0.6,0.1-1.1,0.3-1.5,0.8
		c-0.4,0.4-0.6,0.9-0.6,1.5c0,0.5,0.2,1,0.5,1.4c0.4,0.5,1,0.8,1.6,0.9L1593.1-2102z M1594.1-2090.5c0.6-0.1,1.2-0.4,1.6-0.8
		c0.4-0.5,0.7-1.1,0.6-1.8c0-0.5-0.1-1-0.5-1.5c-0.5-0.5-1.1-0.8-1.8-1L1594.1-2090.5z M1599.8-2096c0-1.3,0.1-2.6,0.5-3.9
		c0.3-0.9,0.8-1.7,1.5-2.3c0.7-0.5,1.6-0.8,2.5-0.8c0.7,0,1.3,0.1,1.9,0.4c0.6,0.3,1,0.7,1.4,1.3c0.4,0.6,0.7,1.3,0.8,2
		c0.2,1.1,0.3,2.1,0.3,3.2c0,1.3-0.1,2.6-0.5,3.9c-0.3,0.9-0.8,1.7-1.5,2.3c-0.7,0.6-1.6,0.8-2.5,0.8c-1.2,0.1-2.3-0.5-3.1-1.4
		C1600.2-2091.6,1599.8-2093.5,1599.8-2096L1599.8-2096z M1601.5-2096c0,2.2,0.3,3.7,0.8,4.5c0.4,0.7,1.1,1.1,1.9,1.1
		c0.8,0,1.5-0.4,1.9-1.1c0.5-0.7,0.8-2.2,0.8-4.5c0-2.2-0.3-3.7-0.8-4.5c-0.4-0.7-1.2-1.1-2-1.1c-0.7,0-1.4,0.4-1.8,1
		C1601.8-2099.8,1601.5-2098.3,1601.5-2096L1601.5-2096z"/>
	<path d="M1518.9-2000.4v-1.7c-0.7-0.1-1.4-0.3-2-0.6c-0.6-0.3-1-0.8-1.4-1.3c-0.4-0.7-0.6-1.4-0.7-2.2l1.7-0.3
		c0.1,0.7,0.3,1.4,0.7,2c0.4,0.6,1,0.9,1.7,1v-5.3c-0.7-0.2-1.5-0.4-2.1-0.8c-0.5-0.3-0.9-0.7-1.2-1.2c-0.3-0.6-0.4-1.2-0.4-1.8
		c0-1.1,0.4-2.2,1.3-2.9c0.7-0.6,1.6-0.9,2.5-0.9v-0.8h1v0.8c0.8,0,1.6,0.3,2.3,0.9c0.7,0.6,1.2,1.5,1.3,2.5l-1.7,0.3
		c-0.1-0.6-0.3-1.1-0.6-1.5c-0.3-0.4-0.8-0.6-1.3-0.7v4.8c0.6,0.1,1.1,0.3,1.7,0.5c0.5,0.2,0.9,0.5,1.3,0.8c0.3,0.3,0.6,0.7,0.8,1.2
		c0.2,0.5,0.3,1,0.3,1.5c0,1.1-0.4,2.1-1.1,2.9c-0.8,0.8-1.8,1.2-2.9,1.2v1.7H1518.9z M1518.9-2015c-0.6,0.1-1.1,0.3-1.5,0.8
		c-0.4,0.4-0.6,0.9-0.6,1.5c0,0.5,0.2,1,0.5,1.4c0.4,0.5,1,0.8,1.6,0.9L1518.9-2015z M1519.8-2003.5c0.6-0.1,1.2-0.4,1.6-0.8
		c0.4-0.5,0.7-1.1,0.6-1.8c0-0.5-0.1-1-0.4-1.5c-0.5-0.5-1.1-0.8-1.8-1L1519.8-2003.5z M1531.8-2002.3h-1.7v-10.6
		c-0.5,0.4-1,0.8-1.6,1.2c-0.6,0.3-1.1,0.6-1.8,0.9v-1.6c0.9-0.4,1.7-1,2.4-1.6c0.6-0.5,1.1-1.1,1.5-1.8h1.1L1531.8-2002.3z
		 M1537-2002.3v-1.9h1.9v1.9H1537z M1541.3-2009c0-1.3,0.1-2.6,0.5-3.9c0.3-0.9,0.8-1.7,1.5-2.3c0.7-0.5,1.6-0.8,2.5-0.8
		c0.7,0,1.3,0.1,1.9,0.4c0.6,0.3,1,0.7,1.4,1.3c0.4,0.6,0.7,1.3,0.8,2c0.2,1.1,0.3,2.1,0.3,3.2c0,1.3-0.1,2.6-0.5,3.9
		c-0.3,0.9-0.8,1.7-1.5,2.3c-0.7,0.6-1.6,0.8-2.5,0.8c-1.2,0.1-2.3-0.5-3.1-1.4C1541.8-2004.6,1541.3-2006.5,1541.3-2009z
		 M1543-2009c0,2.2,0.3,3.7,0.8,4.5c0.4,0.7,1.1,1.1,1.9,1.1c0.8,0,1.5-0.4,1.9-1.1c0.5-0.7,0.8-2.2,0.8-4.5c0-2.2-0.3-3.7-0.8-4.5
		c-0.4-0.7-1.2-1.1-2-1.1c-0.7,0-1.4,0.4-1.8,1C1543.3-2012.8,1543-2011.3,1543-2009L1543-2009z M1551.9-2009c0-1.3,0.1-2.6,0.5-3.9
		c0.3-0.9,0.8-1.7,1.5-2.3c0.7-0.5,1.6-0.8,2.5-0.8c0.7,0,1.3,0.1,1.9,0.4c0.6,0.3,1,0.7,1.4,1.3c0.4,0.6,0.7,1.3,0.8,2
		c0.2,1.1,0.3,2.1,0.3,3.2c0,1.3-0.1,2.6-0.5,3.9c-0.3,0.9-0.8,1.7-1.5,2.3c-0.7,0.6-1.6,0.8-2.5,0.8c-1.2,0.1-2.3-0.5-3.1-1.4
		C1552.3-2004.6,1551.9-2006.5,1551.9-2009L1551.9-2009z M1553.6-2009c0,2.2,0.3,3.7,0.8,4.5c0.4,0.7,1.1,1.1,1.9,1.1
		c0.8,0,1.5-0.4,1.9-1.1c0.5-0.7,0.8-2.2,0.8-4.5c0-2.2-0.3-3.7-0.8-4.5c-0.4-0.7-1.2-1.1-2-1.1c-0.7,0-1.4,0.4-1.8,1
		C1553.9-2012.8,1553.6-2011.3,1553.6-2009L1553.6-2009z M1562.5-2009c0-1.3,0.1-2.6,0.5-3.9c0.3-0.9,0.8-1.7,1.5-2.3
		c0.7-0.5,1.6-0.8,2.5-0.8c0.7,0,1.3,0.1,1.9,0.4c0.6,0.3,1,0.7,1.4,1.3c0.4,0.6,0.7,1.3,0.8,2c0.2,1.1,0.3,2.1,0.3,3.2
		c0,1.3-0.1,2.6-0.5,3.9c-0.3,0.9-0.8,1.7-1.5,2.3c-0.7,0.6-1.6,0.8-2.5,0.8c-1.2,0.1-2.3-0.5-3.1-1.4
		C1562.9-2004.6,1562.5-2006.5,1562.5-2009L1562.5-2009z M1564.2-2009c0,2.2,0.3,3.7,0.8,4.5c0.4,0.7,1.1,1.1,1.9,1.1
		c0.8,0,1.5-0.4,1.9-1.1c0.5-0.7,0.8-2.2,0.8-4.5c0-2.2-0.3-3.7-0.8-4.5c-0.4-0.7-1.2-1.1-2-1.1c-0.7,0-1.4,0.4-1.8,1
		C1564.5-2012.8,1564.2-2011.3,1564.2-2009L1564.2-2009z M1574-2002.3v-1.9h1.9v1.9H1574z M1578.3-2009c0-1.3,0.1-2.6,0.5-3.9
		c0.3-0.9,0.8-1.7,1.5-2.3c0.7-0.5,1.6-0.8,2.5-0.8c0.7,0,1.3,0.1,1.9,0.4c0.6,0.3,1,0.7,1.4,1.3c0.4,0.6,0.7,1.3,0.8,2
		c0.2,1.1,0.3,2.1,0.3,3.2c0,1.3-0.1,2.6-0.5,3.9c-0.3,0.9-0.8,1.7-1.5,2.3c-0.7,0.6-1.6,0.8-2.5,0.8c-1.2,0.1-2.3-0.5-3.1-1.4
		C1578.8-2004.6,1578.3-2006.5,1578.3-2009z M1580-2009c0,2.2,0.3,3.7,0.8,4.5c0.4,0.7,1.1,1.1,1.9,1.1c0.8,0,1.5-0.4,1.9-1.1
		c0.5-0.7,0.8-2.2,0.8-4.5c0-2.2-0.3-3.7-0.8-4.5c-0.4-0.7-1.2-1.1-2-1.1c-0.7,0-1.4,0.4-1.8,1C1580.3-2012.8,1580-2011.3,1580-2009
		L1580-2009z M1588.9-2009c0-1.3,0.1-2.6,0.5-3.9c0.3-0.9,0.8-1.7,1.5-2.3c0.7-0.5,1.6-0.8,2.5-0.8c0.7,0,1.3,0.1,1.9,0.4
		c0.6,0.3,1,0.7,1.4,1.3c0.4,0.6,0.7,1.3,0.8,2c0.2,1.1,0.3,2.1,0.3,3.2c0,1.3-0.1,2.6-0.5,3.9c-0.3,0.9-0.8,1.7-1.5,2.3
		c-0.7,0.6-1.6,0.8-2.5,0.8c-1.2,0.1-2.3-0.5-3.1-1.4C1589.3-2004.6,1588.9-2006.5,1588.9-2009z M1590.6-2009c0,2.2,0.3,3.7,0.8,4.5
		c0.4,0.7,1.1,1.1,1.9,1.1c0.8,0,1.5-0.4,1.9-1.1c0.5-0.7,0.8-2.2,0.8-4.5c0-2.2-0.3-3.7-0.8-4.5c-0.4-0.7-1.2-1.1-2-1.1
		c-0.7,0-1.4,0.4-1.8,1C1590.9-2012.8,1590.6-2011.3,1590.6-2009z M1599.4-2009c0-1.3,0.1-2.6,0.5-3.9c0.3-0.9,0.8-1.7,1.5-2.3
		c0.7-0.5,1.6-0.8,2.5-0.8c0.7,0,1.3,0.1,1.9,0.4c0.6,0.3,1,0.7,1.4,1.3c0.4,0.6,0.7,1.3,0.8,2c0.2,1.1,0.3,2.1,0.3,3.2
		c0,1.3-0.1,2.6-0.5,3.9c-0.3,0.9-0.8,1.7-1.5,2.3c-0.7,0.6-1.6,0.8-2.5,0.8c-1.2,0.1-2.3-0.5-3.1-1.4
		C1599.9-2004.6,1599.4-2006.5,1599.4-2009L1599.4-2009z M1601.2-2009c0,2.2,0.3,3.7,0.8,4.5c0.4,0.7,1.1,1.1,1.9,1.1
		c0.8,0,1.5-0.4,1.9-1.1c0.5-0.7,0.8-2.2,0.8-4.5c0-2.2-0.3-3.7-0.8-4.5c-0.4-0.7-1.2-1.1-2-1.1c-0.7,0-1.4,0.4-1.8,1
		C1601.4-2012.8,1601.2-2011.3,1601.2-2009z"/>
	<path class="st1" d="M1518.9-2048l-9.8-4.3v-2.4l9.8-4.2v2.8l-6.8,2.6l6.8,2.7L1518.9-2048z M1524.4-2048.5v-4.1
		c-1.1-0.2-2.1-0.8-2.8-1.7c-0.6-0.8-0.9-1.7-0.9-2.7c0-1,0.3-2,1-2.7c0.7-0.7,1.7-1.2,2.7-1.3v-1h1.4v1c0.9,0.1,1.8,0.4,2.5,1.1
		c0.6,0.6,1,1.5,1.2,2.3l-2.5,0.3c-0.1-0.7-0.5-1.3-1.2-1.6v3.8c1.2,0.2,2.3,0.8,3.2,1.6c0.6,0.7,0.9,1.7,0.9,2.6
		c0,1.1-0.4,2.2-1.1,3c-0.8,0.8-1.8,1.4-3,1.5v1.8h-1.4v-1.8c-1-0.1-2-0.5-2.7-1.3c-0.8-0.8-1.2-1.9-1.3-3l2.5-0.3
		c0.1,0.5,0.3,0.9,0.6,1.3C1523.7-2048.9,1524.1-2048.6,1524.4-2048.5z M1524.4-2058.7c-0.4,0.1-0.7,0.4-0.9,0.7
		c-0.2,0.3-0.3,0.7-0.3,1c0,0.3,0.1,0.7,0.3,1c0.2,0.3,0.6,0.6,0.9,0.7V-2058.7z M1525.9-2048.3c0.5-0.1,0.9-0.3,1.2-0.7
		c0.3-0.4,0.5-0.8,0.5-1.3c0-0.4-0.1-0.8-0.4-1.1c-0.3-0.4-0.8-0.6-1.3-0.7L1525.9-2048.3z M1531.5-2050l2.7-0.3
		c0,0.6,0.3,1.1,0.7,1.5c0.4,0.3,0.8,0.5,1.3,0.5c0.6,0,1.1-0.3,1.5-0.7c0.4-0.6,0.7-1.4,0.6-2.1c0.1-0.7-0.2-1.4-0.6-2
		c-0.4-0.4-1-0.7-1.5-0.7c-0.8,0-1.6,0.4-2.1,1l-2.2-0.3l1.4-7.5h7.3v2.6h-5.2l-0.4,2.4c0.6-0.3,1.2-0.5,1.9-0.5
		c1.2,0,2.3,0.5,3.1,1.3c0.9,0.9,1.3,2.2,1.3,3.5c0,1.1-0.3,2.2-1,3.2c-0.9,1.2-2.3,2-3.9,1.9c-1.2,0.1-2.3-0.3-3.2-1.1
		C1532.2-2047.9,1531.7-2048.9,1531.5-2050z M1547.1-2060.7c1.3-0.1,2.5,0.5,3.3,1.5c0.9,1.2,1.4,3.1,1.4,5.8s-0.5,4.7-1.4,5.8
		c-0.8,1-2,1.5-3.2,1.5c-1.3,0-2.6-0.6-3.4-1.6c-0.9-1.1-1.3-3-1.3-5.7c0-2.7,0.5-4.6,1.4-5.8
		C1544.7-2060.2,1545.9-2060.8,1547.1-2060.7z M1547.1-2058.4c-0.3,0-0.6,0.1-0.9,0.3c-0.3,0.3-0.5,0.7-0.6,1.1
		c-0.2,1.2-0.3,2.4-0.3,3.6c0,1.2,0,2.3,0.3,3.5c0.1,0.5,0.3,0.9,0.6,1.3c0.2,0.2,0.6,0.3,0.9,0.3c0.3,0,0.6-0.1,0.9-0.3
		c0.3-0.3,0.5-0.7,0.6-1.1c0.2-1.2,0.3-2.4,0.3-3.6c0-1.2,0-2.3-0.3-3.5c-0.1-0.5-0.3-0.9-0.6-1.3
		C1547.8-2058.3,1547.4-2058.4,1547.1-2058.4z M1558.1-2060.7c1.3-0.1,2.5,0.5,3.3,1.5c0.9,1.2,1.4,3.1,1.4,5.8s-0.5,4.7-1.4,5.8
		c-0.8,1-2,1.5-3.2,1.5c-1.3,0-2.6-0.6-3.4-1.6c-0.9-1.1-1.3-3-1.3-5.7c0-2.7,0.5-4.6,1.4-5.8
		C1555.6-2060.2,1556.9-2060.8,1558.1-2060.7z M1558.1-2058.4c-0.3,0-0.6,0.1-0.9,0.3c-0.3,0.3-0.5,0.7-0.6,1.1
		c-0.2,1.2-0.3,2.4-0.3,3.6c0,1.2,0,2.3,0.3,3.5c0.1,0.5,0.3,0.9,0.6,1.3c0.2,0.2,0.6,0.3,0.9,0.3c0.3,0,0.6-0.1,0.9-0.3
		c0.3-0.3,0.5-0.7,0.6-1.1c0.2-1.2,0.3-2.4,0.3-3.6c0-1.2,0-2.3-0.3-3.5c-0.1-0.5-0.3-0.9-0.6-1.3
		C1558.7-2058.3,1558.4-2058.4,1558.1-2058.4z M1565-2046.3v-2.7h2.7v2.7H1565z M1574.5-2060.7c1.3-0.1,2.5,0.5,3.3,1.5
		c0.9,1.2,1.4,3.1,1.4,5.8s-0.5,4.7-1.4,5.8c-0.8,1-2,1.5-3.2,1.5c-1.3,0-2.6-0.6-3.4-1.6c-0.9-1.1-1.3-3-1.3-5.7
		c0-2.7,0.5-4.6,1.4-5.8C1572-2060.2,1573.3-2060.8,1574.5-2060.7L1574.5-2060.7z M1574.5-2058.4c-0.3,0-0.6,0.1-0.9,0.3
		c-0.3,0.3-0.5,0.7-0.6,1.1c-0.2,1.2-0.3,2.4-0.3,3.6c0,1.2,0,2.3,0.3,3.5c0.1,0.5,0.3,0.9,0.6,1.3c0.2,0.2,0.6,0.3,0.9,0.3
		c0.3,0,0.6-0.1,0.9-0.3c0.3-0.3,0.5-0.7,0.6-1.1c0.2-1.2,0.3-2.4,0.3-3.6c0-1.2,0-2.3-0.3-3.5c-0.1-0.5-0.3-0.9-0.6-1.3
		C1575.1-2058.3,1574.8-2058.4,1574.5-2058.4L1574.5-2058.4z M1585.5-2060.7c1.3-0.1,2.5,0.5,3.3,1.5c0.9,1.2,1.4,3.1,1.4,5.8
		s-0.5,4.7-1.4,5.8c-0.8,1-2,1.5-3.2,1.5c-1.3,0-2.6-0.6-3.4-1.6c-0.9-1.1-1.3-3-1.3-5.7c0-2.7,0.5-4.6,1.4-5.8
		C1583-2060.2,1584.2-2060.8,1585.5-2060.7z M1585.5-2058.4c-0.3,0-0.6,0.1-0.9,0.3c-0.3,0.3-0.5,0.7-0.6,1.1
		c-0.2,1.2-0.3,2.4-0.3,3.6c0,1.2,0,2.3,0.3,3.5c0.1,0.5,0.3,0.9,0.6,1.3c0.2,0.2,0.6,0.3,0.9,0.3c0.3,0,0.6-0.1,0.9-0.3
		c0.3-0.3,0.5-0.7,0.6-1.1c0.2-1.2,0.3-2.4,0.3-3.6c0-1.2,0-2.3-0.3-3.5c-0.1-0.5-0.3-0.9-0.6-1.3
		C1586.1-2058.3,1585.8-2058.4,1585.5-2058.4z M1596.5-2060.7c1.3-0.1,2.5,0.5,3.3,1.5c0.9,1.2,1.4,3.1,1.4,5.8s-0.5,4.7-1.4,5.8
		c-0.8,1-2,1.5-3.2,1.5c-1.3,0-2.6-0.6-3.4-1.6c-0.9-1.1-1.3-3-1.3-5.7c0-2.7,0.5-4.6,1.4-5.8
		C1594-2060.2,1595.2-2060.8,1596.5-2060.7z M1596.5-2058.4c-0.3,0-0.6,0.1-0.9,0.3c-0.3,0.3-0.5,0.7-0.6,1.1
		c-0.2,1.2-0.3,2.4-0.3,3.6c0,1.2,0,2.3,0.3,3.5c0.1,0.5,0.3,0.9,0.6,1.3c0.2,0.2,0.6,0.3,0.9,0.3c0.3,0,0.6-0.1,0.9-0.3
		c0.3-0.3,0.5-0.7,0.6-1.1c0.2-1.2,0.3-2.4,0.3-3.6c0-1.2,0-2.3-0.3-3.5c-0.1-0.5-0.3-0.9-0.6-1.3
		C1597.1-2058.3,1596.8-2058.4,1596.5-2058.4z M1602.9-2048v-2.8l6.9-2.7l-6.9-2.7v-2.7l9.8,4.2v2.3L1602.9-2048z"/>
	<path d="M1013.8-2140.9h-6.2v5h7.2v1.5h-9v-14.2h8.9v1.5h-7.1v4.6h6.2V-2140.9z M1017.2-2134.3v-9.2h-1.7v-1.4h1.7v-1.1
		c-0.1-1,0.3-1.9,0.9-2.6c0.7-0.7,1.6-1,2.6-0.9c0.4,0,0.8,0.1,1.2,0.2l-0.1,1.5c-0.3-0.1-0.6-0.1-1-0.1c-0.5,0-1,0.2-1.4,0.5
		c-0.3,0.4-0.5,0.9-0.5,1.5v1.1h2.3v1.4h-2.3v9.2H1017.2z M1027.4-2134.1c-1.3,0-2.6-0.5-3.5-1.4c-0.9-1-1.4-2.4-1.3-3.8v-0.3
		c0-1,0.2-1.9,0.6-2.8c0.4-0.8,1-1.5,1.7-1.9c0.7-0.5,1.5-0.7,2.3-0.7c1.2-0.1,2.4,0.4,3.2,1.4c0.8,1.1,1.2,2.5,1.1,3.9v0.8h-7.2
		c0,0.9,0.3,1.8,0.9,2.5c0.6,0.6,1.4,1,2.2,1c0.6,0,1.1-0.1,1.6-0.4c0.5-0.3,0.8-0.6,1.2-1l1.1,0.9
		C1030.5-2134.8,1029-2134,1027.4-2134.1z M1027.1-2143.6c-0.7,0-1.4,0.3-1.8,0.8c-0.5,0.6-0.9,1.4-0.9,2.2h5.3v-0.1
		c0-0.8-0.3-1.5-0.7-2.1C1028.5-2143.4,1027.8-2143.6,1027.1-2143.6z M1037.5-2135.6c0.6,0,1.2-0.2,1.7-0.6c0.5-0.4,0.8-0.9,0.8-1.5
		h1.7c0,0.6-0.3,1.2-0.6,1.7c-0.4,0.6-0.9,1-1.5,1.3c-0.6,0.3-1.3,0.5-2,0.5c-1.3,0.1-2.6-0.5-3.4-1.4c-0.9-1.1-1.4-2.5-1.3-3.9
		v-0.3c0-0.9,0.2-1.9,0.6-2.7c0.3-0.8,0.9-1.4,1.6-1.9c0.8-0.5,1.6-0.7,2.5-0.7c1.1,0,2.1,0.3,3,1.1c0.8,0.7,1.2,1.7,1.3,2.8h-1.7
		c0-0.6-0.3-1.2-0.8-1.7c-0.5-0.4-1.1-0.7-1.7-0.7c-0.8,0-1.6,0.3-2.1,1c-0.6,0.8-0.8,1.9-0.8,2.9v0.3c-0.1,1,0.2,2,0.8,2.8
		C1035.8-2135.9,1036.6-2135.6,1037.5-2135.6L1037.5-2135.6z M1045.8-2147.5v2.6h2v1.4h-2v6.6c0,0.3,0.1,0.7,0.3,1
		c0.2,0.2,0.6,0.4,0.9,0.3c0.3,0,0.6,0,0.9-0.1v1.5c-0.5,0.1-0.9,0.2-1.4,0.2c-0.7,0-1.4-0.2-1.8-0.7c-0.4-0.6-0.7-1.3-0.6-2.1v-6.6
		h-1.9v-1.4h1.9v-2.6L1045.8-2147.5z M1051.5-2134.3h-1.8v-10.6h1.8L1051.5-2134.3z M1049.6-2147.7c0-0.3,0.1-0.5,0.3-0.7
		c0.2-0.2,0.5-0.3,0.8-0.3c0.3,0,0.6,0.1,0.8,0.3c0.2,0.2,0.3,0.5,0.3,0.7c0,0.3-0.1,0.5-0.3,0.7c-0.2,0.2-0.5,0.3-0.8,0.3
		c-0.3,0-0.6-0.1-0.8-0.3C1049.7-2147.2,1049.6-2147.4,1049.6-2147.7z M1057.6-2136.8l2.6-8.1h1.8l-3.8,10.6h-1.4l-3.8-10.6h1.8
		L1057.6-2136.8z M1062.8-2139.7c0-1,0.2-1.9,0.6-2.8c0.4-0.8,1-1.5,1.7-1.9c0.7-0.5,1.6-0.7,2.5-0.7c1.3,0,2.6,0.5,3.5,1.5
		c0.9,1.1,1.4,2.5,1.3,4v0.1c0,1-0.2,1.9-0.6,2.8c-0.4,0.8-1,1.5-1.7,1.9c-0.8,0.5-1.6,0.7-2.5,0.7c-1.3,0-2.6-0.5-3.5-1.5
		c-0.9-1.1-1.4-2.5-1.3-4L1062.8-2139.7z M1064.6-2139.5c-0.1,1,0.2,2,0.8,2.8c0.5,0.7,1.3,1.1,2.2,1.1c0.9,0,1.7-0.4,2.2-1.1
		c0.6-0.9,0.9-2,0.8-3c0-1-0.2-2-0.8-2.8c-0.5-0.7-1.3-1.1-2.2-1.1c-0.9,0-1.7,0.4-2.2,1.1
		C1064.9-2141.6,1064.6-2140.6,1064.6-2139.5L1064.6-2139.5z M1078.6-2139.7c-0.1-1.4,0.3-2.8,1.1-3.9c0.7-0.9,1.8-1.5,3-1.5
		c1.2-0.1,2.3,0.5,3,1.4l0.1-1.2h1.7v10.3c0.1,1.2-0.4,2.4-1.2,3.2c-0.9,0.8-2.1,1.2-3.3,1.2c-0.8,0-1.5-0.2-2.2-0.5
		c-0.7-0.3-1.3-0.7-1.7-1.3l0.9-1.1c0.7,0.9,1.7,1.4,2.8,1.4c0.8,0,1.5-0.2,2.1-0.7c0.5-0.6,0.8-1.3,0.7-2.1v-0.9
		c-0.7,0.8-1.8,1.3-3,1.3c-1.2,0-2.3-0.5-3-1.5C1078.9-2136.8,1078.5-2138.3,1078.6-2139.7L1078.6-2139.7z M1080.4-2139.5
		c-0.1,1,0.2,2,0.7,2.8c0.5,0.7,1.2,1.1,2.1,1c1.1,0,2.1-0.6,2.5-1.6v-4.8c-0.5-1-1.4-1.5-2.5-1.5c-0.8,0-1.6,0.4-2.1,1
		C1080.6-2141.6,1080.3-2140.6,1080.4-2139.5L1080.4-2139.5z M1094.3-2134.1c-1.3,0-2.6-0.5-3.5-1.4c-0.9-1-1.4-2.4-1.3-3.8v-0.3
		c0-1,0.2-1.9,0.6-2.8c0.4-0.8,1-1.5,1.7-1.9c0.7-0.5,1.5-0.7,2.3-0.7c1.2-0.1,2.4,0.4,3.2,1.4c0.8,1.1,1.2,2.5,1.1,3.9v0.8h-7.2
		c0,0.9,0.3,1.8,0.9,2.5c0.6,0.6,1.4,1,2.2,1c0.6,0,1.1-0.1,1.6-0.4c0.5-0.3,0.8-0.6,1.2-1l1.1,0.9
		C1097.4-2134.8,1095.9-2134,1094.3-2134.1z M1094.1-2143.6c-0.7,0-1.4,0.3-1.8,0.8c-0.5,0.6-0.9,1.4-0.9,2.2h5.3v-0.1
		c0-0.8-0.3-1.5-0.7-2.1C1095.4-2143.4,1094.7-2143.6,1094.1-2143.6L1094.1-2143.6z M1101.9-2144.9l0.1,1.3c0.7-1,1.9-1.6,3.2-1.5
		c2.2,0,3.4,1.3,3.4,3.8v7h-1.8v-7c0-0.6-0.1-1.2-0.5-1.7c-0.4-0.4-1-0.6-1.6-0.5c-0.6,0-1.1,0.2-1.5,0.5c-0.4,0.3-0.8,0.7-1,1.2
		v7.5h-1.8v-10.6L1101.9-2144.9z M1115.3-2134.1c-1.3,0-2.6-0.5-3.5-1.4c-0.9-1-1.4-2.4-1.3-3.8v-0.3c0-1,0.2-1.9,0.6-2.8
		c0.4-0.8,1-1.5,1.7-1.9c0.7-0.5,1.5-0.7,2.3-0.7c1.2-0.1,2.4,0.4,3.2,1.4c0.8,1.1,1.2,2.5,1.1,3.9v0.8h-7.2c0,0.9,0.3,1.8,0.9,2.5
		c0.6,0.6,1.4,1,2.2,1c0.6,0,1.1-0.1,1.6-0.4c0.5-0.3,0.8-0.6,1.2-1l1.1,0.9C1118.4-2134.8,1116.9-2134,1115.3-2134.1z M1115-2143.6
		c-0.7,0-1.4,0.3-1.8,0.8c-0.5,0.6-0.9,1.4-0.9,2.2h5.3v-0.1c0-0.8-0.3-1.5-0.7-2.1C1116.4-2143.4,1115.7-2143.6,1115-2143.6z
		 M1126.2-2143.3c-0.3,0-0.6-0.1-0.9-0.1c-1-0.1-2,0.5-2.4,1.5v7.5h-1.8v-10.6h1.8l0,1.2c0.5-0.9,1.5-1.4,2.5-1.4
		c0.3,0,0.5,0,0.8,0.1L1126.2-2143.3z M1133.7-2134.3c-0.1-0.4-0.2-0.7-0.3-1.1c-0.8,0.8-1.9,1.3-3,1.3c-0.9,0-1.8-0.3-2.6-0.9
		c-0.7-0.6-1-1.4-1-2.2c0-1,0.4-2,1.3-2.6c1.1-0.7,2.3-1,3.5-0.9h1.8v-0.8c0-0.6-0.2-1.1-0.6-1.5c-0.5-0.4-1.1-0.6-1.7-0.6
		c-0.6,0-1.1,0.2-1.6,0.5c-0.4,0.3-0.6,0.7-0.7,1.2h-1.8c0-0.6,0.2-1.1,0.6-1.5c0.4-0.5,0.9-0.9,1.5-1.2c0.7-0.3,1.4-0.4,2.1-0.4
		c1-0.1,2.1,0.3,2.9,0.9c0.7,0.6,1.1,1.6,1.1,2.5v4.9c0,0.8,0.1,1.6,0.4,2.3v0.2H1133.7z M1130.7-2135.7c0.6,0,1.1-0.2,1.6-0.4
		c0.5-0.3,0.9-0.7,1.1-1.1v-2.2h-1.4c-2.2,0-3.3,0.6-3.3,1.9c0,0.5,0.2,1,0.6,1.3C1129.7-2135.9,1130.2-2135.7,1130.7-2135.7
		L1130.7-2135.7z M1137.3-2139.7c-0.1-1.4,0.3-2.8,1.2-3.9c0.7-1,1.8-1.5,3-1.5c1.1,0,2.2,0.4,2.9,1.3v-5.5h1.8v15h-1.7l-0.1-1.1
		c-0.7,0.9-1.9,1.4-3,1.3c-1.2,0-2.3-0.5-3-1.5c-0.8-1.1-1.2-2.5-1.2-3.9L1137.3-2139.7z M1139.1-2139.5c-0.1,1,0.2,2,0.7,2.8
		c0.5,0.7,1.2,1,2.1,1c1.1,0,2.1-0.6,2.5-1.5v-4.9c-0.5-0.9-1.4-1.5-2.5-1.5c-0.8,0-1.6,0.4-2.1,1
		C1139.3-2141.6,1139-2140.6,1139.1-2139.5L1139.1-2139.5z M1148.2-2139.7c0-1,0.2-1.9,0.6-2.8c0.4-0.8,1-1.5,1.7-1.9
		c0.7-0.5,1.6-0.7,2.5-0.7c1.3,0,2.6,0.5,3.5,1.5c0.9,1.1,1.4,2.5,1.3,4v0.1c0,1-0.2,1.9-0.6,2.8c-0.4,0.8-1,1.4-1.7,1.9
		c-0.8,0.5-1.6,0.7-2.5,0.7c-1.3,0-2.6-0.5-3.5-1.5c-0.9-1.1-1.4-2.5-1.3-4L1148.2-2139.7z M1150-2139.5c-0.1,1,0.2,2,0.8,2.8
		c0.5,0.7,1.3,1.1,2.2,1.1c0.9,0,1.7-0.4,2.2-1.1c0.6-0.9,0.9-2,0.8-3c0-1-0.2-2-0.8-2.8c-0.5-0.7-1.3-1.1-2.2-1.1
		c-0.9,0-1.7,0.4-2.2,1.1C1150.2-2141.6,1149.9-2140.6,1150-2139.5L1150-2139.5z M1168.8-2134.1c-1.3,0-2.6-0.5-3.5-1.4
		c-0.9-1-1.4-2.4-1.3-3.8v-0.3c0-1,0.2-1.9,0.6-2.8c0.4-0.8,1-1.5,1.7-1.9c0.7-0.5,1.5-0.7,2.3-0.7c1.2-0.1,2.4,0.4,3.2,1.4
		c0.8,1.1,1.2,2.5,1.1,3.9v0.8h-7.1c0,0.9,0.3,1.8,0.9,2.5c0.6,0.6,1.4,1,2.2,1c0.6,0,1.1-0.1,1.6-0.4c0.5-0.3,0.8-0.6,1.2-1
		l1.1,0.9C1171.9-2134.8,1170.4-2134,1168.8-2134.1z M1168.5-2143.6c-0.7,0-1.4,0.3-1.8,0.8c-0.5,0.6-0.9,1.4-0.9,2.2h5.3v-0.1
		c0-0.8-0.3-1.5-0.7-2.1C1169.9-2143.4,1169.2-2143.6,1168.5-2143.6L1168.5-2143.6z M1176.4-2144.9l0.1,1.3c0.7-1,1.9-1.6,3.2-1.5
		c2.2,0,3.4,1.3,3.4,3.8v7h-1.8v-7c0-0.6-0.1-1.2-0.5-1.7c-0.4-0.4-1-0.6-1.6-0.5c-0.6,0-1.1,0.2-1.5,0.5c-0.4,0.3-0.8,0.7-1,1.2
		v7.5h-1.8v-10.6L1176.4-2144.9z M1196.5-2134.3c-0.1-0.4-0.2-0.7-0.3-1.1c-0.8,0.8-1.9,1.3-3,1.3c-0.9,0-1.8-0.3-2.6-0.9
		c-0.7-0.6-1-1.4-1-2.2c0-1,0.4-2,1.3-2.6c1.1-0.7,2.3-1,3.5-0.9h1.8v-0.8c0-0.6-0.2-1.1-0.6-1.5c-0.5-0.4-1.1-0.6-1.7-0.6
		c-0.6,0-1.1,0.2-1.6,0.5c-0.4,0.3-0.6,0.7-0.7,1.2h-1.8c0-0.6,0.2-1.1,0.6-1.5c0.4-0.5,0.9-0.9,1.5-1.2c0.7-0.3,1.4-0.4,2.1-0.4
		c1-0.1,2.1,0.3,2.9,0.9c0.7,0.6,1.1,1.6,1.1,2.5v4.9c0,0.8,0.1,1.6,0.4,2.3v0.2H1196.5z M1193.5-2135.7c0.6,0,1.1-0.2,1.6-0.4
		c0.5-0.3,0.9-0.7,1.1-1.1v-2.2h-1.4c-2.2,0-3.3,0.6-3.3,1.9c0,0.5,0.2,1,0.6,1.3C1192.4-2135.9,1193-2135.7,1193.5-2135.7
		L1193.5-2135.7z M1204.8-2135.6c0.6,0,1.2-0.2,1.7-0.6c0.5-0.4,0.8-0.9,0.8-1.5h1.7c0,0.6-0.3,1.2-0.6,1.7c-0.4,0.6-0.9,1-1.5,1.3
		c-0.6,0.3-1.3,0.5-2,0.5c-1.3,0.1-2.6-0.5-3.4-1.4c-0.9-1.1-1.4-2.5-1.3-3.9v-0.3c0-0.9,0.2-1.9,0.6-2.7c0.3-0.8,0.9-1.4,1.6-1.9
		c0.8-0.5,1.6-0.7,2.5-0.7c1.1,0,2.1,0.3,3,1.1c0.8,0.7,1.2,1.7,1.3,2.8h-1.7c0-0.6-0.3-1.2-0.8-1.7c-0.5-0.4-1.1-0.7-1.7-0.7
		c-0.8,0-1.6,0.3-2.1,1c-0.6,0.8-0.8,1.9-0.8,2.9v0.3c-0.1,1,0.2,2,0.8,2.8C1203.1-2135.9,1203.9-2135.6,1204.8-2135.6
		L1204.8-2135.6z M1213.1-2147.5v2.6h2v1.4h-2v6.6c0,0.3,0.1,0.7,0.3,1c0.2,0.2,0.6,0.4,0.9,0.3c0.3,0,0.6-0.1,0.9-0.1v1.5
		c-0.5,0.1-0.9,0.2-1.4,0.2c-0.7,0-1.4-0.2-1.8-0.7c-0.4-0.6-0.7-1.3-0.6-2.1v-6.6h-1.9v-1.4h1.9v-2.6L1213.1-2147.5z
		 M1218.8-2134.3h-1.8v-10.6h1.8V-2134.3z M1216.9-2147.7c0-0.3,0.1-0.5,0.3-0.7c0.2-0.2,0.5-0.3,0.8-0.3c0.3,0,0.6,0.1,0.8,0.3
		c0.2,0.2,0.3,0.5,0.3,0.7c0,0.3-0.1,0.5-0.3,0.7c-0.2,0.2-0.5,0.3-0.8,0.3c-0.3,0-0.6-0.1-0.8-0.3
		C1217-2147.2,1216.9-2147.4,1216.9-2147.7L1216.9-2147.7z M1224.9-2136.8l2.6-8.1h1.8l-3.8,10.6h-1.4l-3.8-10.6h1.8L1224.9-2136.8z
		 M1232.7-2134.3h-1.8v-10.6h1.8V-2134.3z M1230.8-2147.7c0-0.3,0.1-0.5,0.3-0.7c0.2-0.2,0.5-0.3,0.8-0.3c0.3,0,0.6,0.1,0.8,0.3
		c0.2,0.2,0.3,0.5,0.3,0.7c0,0.3-0.1,0.5-0.3,0.7c-0.2,0.2-0.5,0.3-0.8,0.3c-0.3,0-0.6-0.1-0.8-0.3
		C1230.8-2147.2,1230.7-2147.4,1230.8-2147.7z M1234.8-2139.7c-0.1-1.4,0.3-2.8,1.2-3.9c0.7-1,1.8-1.5,3-1.5c1.1,0,2.2,0.4,2.9,1.3
		v-5.5h1.8v15h-1.7l-0.1-1.1c-0.7,0.9-1.9,1.4-3,1.3c-1.2,0-2.3-0.5-3-1.5c-0.8-1.1-1.2-2.5-1.2-3.9L1234.8-2139.7z M1236.6-2139.5
		c-0.1,1,0.2,2,0.7,2.8c0.5,0.7,1.2,1,2.1,1c1.1,0,2.1-0.6,2.5-1.5v-4.9c-0.5-0.9-1.4-1.5-2.5-1.5c-0.8,0-1.6,0.4-2.1,1
		C1236.8-2141.6,1236.6-2140.6,1236.6-2139.5L1236.6-2139.5z M1252.7-2134.3c-0.1-0.4-0.2-0.7-0.3-1.1c-0.8,0.8-1.9,1.3-3,1.3
		c-0.9,0-1.8-0.3-2.6-0.9c-0.7-0.6-1-1.4-1-2.2c0-1,0.4-2,1.3-2.6c1.1-0.7,2.3-1,3.5-0.9h1.8v-0.8c0-0.6-0.2-1.1-0.6-1.5
		c-0.5-0.4-1.1-0.6-1.7-0.6c-0.6,0-1.1,0.2-1.6,0.5c-0.4,0.3-0.6,0.7-0.7,1.2h-1.8c0-0.6,0.2-1.1,0.6-1.5c0.4-0.5,0.9-0.9,1.5-1.2
		c0.7-0.3,1.4-0.4,2.1-0.4c1-0.1,2.1,0.3,2.9,0.9c0.7,0.6,1.1,1.6,1.1,2.5v4.9c0,0.8,0.1,1.6,0.4,2.3v0.2H1252.7z M1249.7-2135.7
		c0.6,0,1.1-0.2,1.6-0.4c0.5-0.3,0.9-0.7,1.1-1.1v-2.2h-1.4c-2.2,0-3.3,0.6-3.3,1.9c0,0.5,0.2,1,0.6,1.3
		C1248.7-2135.9,1249.2-2135.7,1249.7-2135.7L1249.7-2135.7z M1256.3-2139.7c-0.1-1.4,0.3-2.8,1.2-3.9c0.7-1,1.8-1.5,3-1.5
		c1.1,0,2.2,0.4,2.9,1.3v-5.5h1.8v15h-1.7l-0.1-1.1c-0.7,0.9-1.9,1.4-3,1.3c-1.2,0-2.3-0.5-3-1.5c-0.8-1.1-1.2-2.5-1.2-3.9V-2139.7z
		 M1258.1-2139.5c-0.1,1,0.2,2,0.7,2.8c0.5,0.7,1.2,1,2.1,1c1.1,0,2.1-0.6,2.5-1.5v-4.9c-0.5-0.9-1.4-1.5-2.5-1.5
		c-0.8,0-1.6,0.4-2.1,1C1258.3-2141.6,1258.1-2140.6,1258.1-2139.5z M1272.1-2134.1c-1.3,0-2.6-0.5-3.5-1.4c-0.9-1-1.4-2.4-1.3-3.8
		v-0.3c0-1,0.2-1.9,0.6-2.8c0.4-0.8,1-1.5,1.7-1.9c0.7-0.5,1.5-0.7,2.3-0.7c1.2-0.1,2.4,0.4,3.2,1.4c0.8,1.1,1.2,2.5,1.1,3.9v0.8
		h-7.2c0,0.9,0.3,1.8,0.9,2.5c0.6,0.6,1.4,1,2.2,1c0.6,0,1.1-0.1,1.6-0.4c0.5-0.3,0.8-0.6,1.2-1l1.1,0.9
		C1275.2-2134.8,1273.7-2134,1272.1-2134.1z M1271.9-2143.6c-0.7,0-1.4,0.3-1.8,0.8c-0.5,0.6-0.9,1.4-0.9,2.2h5.3v-0.1
		c0-0.8-0.3-1.5-0.7-2.1C1273.2-2143.4,1272.6-2143.6,1271.9-2143.6L1271.9-2143.6z M1284.1-2137.1c0-0.4-0.2-0.9-0.6-1.1
		c-0.6-0.4-1.2-0.6-1.9-0.7c-0.8-0.1-1.5-0.4-2.2-0.7c-0.5-0.2-0.9-0.6-1.2-1c-0.3-0.4-0.4-0.9-0.4-1.3c0-0.9,0.4-1.7,1.1-2.2
		c0.8-0.6,1.8-0.9,2.8-0.9c1.1,0,2.1,0.3,2.9,0.9c0.7,0.6,1.1,1.5,1.1,2.4h-1.8c0-0.5-0.2-1-0.6-1.3c-0.4-0.4-1-0.6-1.6-0.5
		c-0.5,0-1.1,0.1-1.5,0.4c-0.4,0.3-0.6,0.7-0.6,1.1c0,0.4,0.2,0.8,0.5,1c0.6,0.3,1.2,0.5,1.9,0.6c0.8,0.2,1.5,0.4,2.2,0.7
		c0.5,0.2,0.9,0.6,1.2,1c0.3,0.4,0.4,0.9,0.4,1.4c0,0.9-0.4,1.7-1.1,2.3c-0.9,0.6-1.9,0.9-2.9,0.9c-0.8,0-1.5-0.1-2.2-0.4
		c-0.6-0.3-1.1-0.7-1.5-1.3c-0.4-0.5-0.6-1.1-0.6-1.7h1.8c0,0.6,0.3,1.1,0.7,1.4c0.5,0.4,1.2,0.6,1.8,0.5c0.6,0,1.2-0.1,1.6-0.4
		C1283.9-2136.3,1284.1-2136.7,1284.1-2137.1z M1292.1-2139.7c-0.1-1.4,0.3-2.8,1.2-3.9c0.7-1,1.8-1.5,3-1.5c1.1,0,2.2,0.4,2.9,1.3
		v-5.5h1.8v15h-1.7l-0.1-1.1c-0.7,0.9-1.9,1.4-3,1.3c-1.2,0-2.3-0.5-3-1.5c-0.8-1.1-1.2-2.5-1.2-3.9L1292.1-2139.7z M1293.9-2139.5
		c-0.1,1,0.2,2,0.7,2.8c0.5,0.7,1.2,1,2.1,1c1.1,0,2.1-0.6,2.5-1.5v-4.9c-0.5-0.9-1.4-1.5-2.5-1.5c-0.8,0-1.6,0.4-2.1,1
		C1294.1-2141.6,1293.9-2140.6,1293.9-2139.5L1293.9-2139.5z M1307.9-2134.1c-1.3,0-2.6-0.5-3.5-1.4c-0.9-1-1.4-2.4-1.3-3.8v-0.3
		c0-1,0.2-1.9,0.6-2.8c0.4-0.8,1-1.5,1.7-1.9c0.7-0.5,1.5-0.7,2.3-0.7c1.2-0.1,2.4,0.4,3.2,1.4c0.8,1.1,1.2,2.5,1.1,3.9v0.8h-7.2
		c0,0.9,0.3,1.8,0.9,2.5c0.6,0.6,1.4,1,2.2,1c0.6,0,1.1-0.1,1.6-0.4c0.5-0.3,0.8-0.6,1.2-1l1.1,0.9
		C1311-2134.8,1309.5-2134,1307.9-2134.1z M1307.7-2143.6c-0.7,0-1.4,0.3-1.8,0.8c-0.5,0.6-0.9,1.4-0.9,2.2h5.3v-0.1
		c0-0.8-0.3-1.5-0.7-2.1C1309-2143.4,1308.4-2143.6,1307.7-2143.6L1307.7-2143.6z M1317.9-2139.7c0-1,0.2-1.9,0.6-2.8
		c0.4-0.8,1-1.5,1.7-1.9c0.7-0.5,1.6-0.7,2.5-0.7c1.3-0.1,2.6,0.5,3.5,1.5c0.9,1.1,1.4,2.5,1.3,4v0.1c0,1-0.2,1.9-0.6,2.8
		c-0.4,0.8-1,1.4-1.7,1.9c-0.8,0.5-1.6,0.7-2.5,0.7c-1.3,0-2.6-0.5-3.5-1.5c-0.9-1.1-1.4-2.5-1.3-4V-2139.7z M1319.8-2139.5
		c-0.1,1,0.2,2,0.8,2.8c0.5,0.7,1.3,1.1,2.2,1.1c0.9,0,1.7-0.4,2.2-1.1c0.6-0.9,0.9-2,0.8-3c0-1-0.2-2-0.8-2.8
		c-0.5-0.7-1.3-1.1-2.2-1.1c-0.9,0-1.7,0.4-2.2,1.1C1320-2141.7,1319.7-2140.6,1319.8-2139.5L1319.8-2139.5z M1338.4-2139.5
		c0.1,1.4-0.3,2.7-1.1,3.9c-0.7,1-1.8,1.5-3,1.5c-1.1,0.1-2.2-0.4-3-1.2v5.1h-1.8v-14.6h1.6l0.1,1.2c0.7-0.9,1.9-1.4,3.1-1.4
		c1.2,0,2.3,0.5,3,1.4c0.8,1.2,1.2,2.6,1.1,4L1338.4-2139.5z M1336.6-2139.7c0.1-1-0.2-2-0.8-2.8c-0.5-0.7-1.3-1.1-2.1-1
		c-1,0-2,0.5-2.5,1.5v5c0.5,0.9,1.4,1.5,2.5,1.4c0.8,0,1.6-0.4,2.1-1C1336.4-2137.6,1336.7-2138.6,1336.6-2139.7L1336.6-2139.7z
		 M1344.8-2134.1c-1.3,0-2.6-0.5-3.5-1.4c-0.9-1-1.4-2.4-1.3-3.8v-0.3c0-1,0.2-1.9,0.6-2.8c0.4-0.8,1-1.5,1.7-1.9
		c0.7-0.5,1.5-0.7,2.3-0.7c1.2-0.1,2.4,0.4,3.2,1.4c0.8,1.1,1.2,2.5,1.1,3.9v0.8h-7.2c0,0.9,0.3,1.8,0.9,2.5c0.6,0.6,1.4,1,2.2,1
		c0.6,0,1.1-0.1,1.6-0.4c0.5-0.3,0.8-0.6,1.2-1l1.1,0.9C1347.9-2134.8,1346.4-2134,1344.8-2134.1z M1344.5-2143.6
		c-0.7,0-1.4,0.3-1.8,0.8c-0.5,0.6-0.9,1.4-0.9,2.2h5.3v-0.1c0-0.8-0.3-1.5-0.7-2.1C1345.9-2143.4,1345.2-2143.6,1344.5-2143.6
		L1344.5-2143.6z M1355.8-2143.3c-0.3,0-0.6-0.1-0.9-0.1c-1-0.1-2,0.5-2.4,1.5v7.5h-1.8v-10.6h1.8l0,1.2c0.5-0.9,1.5-1.4,2.5-1.4
		c0.3,0,0.5,0,0.8,0.1L1355.8-2143.3z M1363.2-2134.3c-0.1-0.4-0.2-0.7-0.3-1.1c-0.8,0.8-1.9,1.3-3,1.3c-0.9,0-1.8-0.3-2.6-0.9
		c-0.7-0.6-1-1.4-1-2.2c0-1,0.4-2,1.3-2.6c1.1-0.7,2.3-1,3.5-0.9h1.8v-0.8c0-0.6-0.2-1.1-0.6-1.5c-0.5-0.4-1.1-0.6-1.7-0.6
		c-0.6,0-1.1,0.2-1.6,0.5c-0.4,0.3-0.6,0.7-0.7,1.2h-1.8c0-0.6,0.2-1.1,0.6-1.5c0.4-0.5,0.9-0.9,1.5-1.2c0.7-0.3,1.4-0.4,2.1-0.4
		c1-0.1,2.1,0.3,2.9,0.9c0.7,0.6,1.1,1.6,1.1,2.5v4.9c0,0.8,0.1,1.6,0.4,2.3v0.2H1363.2z M1360.2-2135.7c0.6,0,1.1-0.2,1.6-0.4
		c0.5-0.3,0.9-0.7,1.1-1.1v-2.2h-1.4c-2.2,0-3.3,0.6-3.3,1.9c0,0.5,0.2,1,0.6,1.3C1359.2-2135.9,1359.7-2135.7,1360.2-2135.7
		L1360.2-2135.7z M1371.5-2135.6c0.6,0,1.2-0.2,1.7-0.6c0.5-0.4,0.8-0.9,0.8-1.5h1.7c0,0.6-0.3,1.2-0.6,1.7c-0.4,0.6-0.9,1-1.5,1.3
		c-0.6,0.3-1.3,0.5-2,0.5c-1.3,0.1-2.6-0.5-3.4-1.4c-0.9-1.1-1.4-2.5-1.3-3.9v-0.3c0-0.9,0.2-1.9,0.6-2.7c0.3-0.8,0.9-1.4,1.6-1.9
		c0.8-0.5,1.6-0.7,2.5-0.7c1.1,0,2.1,0.3,3,1.1c0.8,0.7,1.2,1.7,1.3,2.8h-1.7c0-0.6-0.3-1.2-0.8-1.7c-0.5-0.4-1.1-0.7-1.7-0.7
		c-0.8,0-1.6,0.3-2.1,1c-0.6,0.8-0.8,1.9-0.8,2.9v0.3c-0.1,1,0.2,2,0.8,2.8C1369.8-2135.9,1370.7-2135.6,1371.5-2135.6
		L1371.5-2135.6z M1379.3-2134.3h-1.8v-10.6h1.8V-2134.3z M1377.4-2147.7c0-0.3,0.1-0.5,0.3-0.7c0.2-0.2,0.5-0.3,0.8-0.3
		c0.3,0,0.6,0.1,0.8,0.3c0.2,0.2,0.3,0.5,0.3,0.7c0,0.3-0.1,0.5-0.3,0.7c-0.2,0.2-0.5,0.3-0.8,0.3c-0.3,0-0.6-0.1-0.8-0.3
		C1377.5-2147.2,1377.4-2147.4,1377.4-2147.7L1377.4-2147.7z M1381.4-2139.7c0-1,0.2-1.9,0.6-2.8c0.4-0.8,1-1.5,1.7-1.9
		c0.7-0.5,1.6-0.7,2.5-0.7c1.3,0,2.6,0.5,3.5,1.5c0.9,1.1,1.4,2.5,1.3,4v0.1c0,1-0.2,1.9-0.6,2.8c-0.4,0.8-1,1.4-1.7,1.9
		c-0.8,0.5-1.6,0.7-2.5,0.7c-1.3,0-2.6-0.5-3.5-1.5c-0.9-1.1-1.4-2.5-1.3-4V-2139.7z M1383.2-2139.5c-0.1,1,0.2,2,0.8,2.8
		c0.5,0.7,1.3,1.1,2.2,1.1c0.9,0,1.7-0.4,2.2-1.1c0.6-0.9,0.9-2,0.8-3c0-1-0.2-2-0.8-2.8c-0.5-0.7-1.3-1.1-2.2-1.1
		c-0.9,0-1.7,0.4-2.2,1.1C1383.5-2141.6,1383.2-2140.6,1383.2-2139.5L1383.2-2139.5z M1387-2149.3h2.2l-2.6,2.9h-1.5L1387-2149.3z
		 M1394.7-2144.9l0.1,1.3c0.7-1,1.9-1.6,3.2-1.5c2.2,0,3.4,1.3,3.4,3.8v7h-1.8v-7c0-0.6-0.1-1.2-0.5-1.7c-0.4-0.4-1-0.6-1.6-0.5
		c-0.6,0-1.1,0.2-1.5,0.5c-0.4,0.3-0.8,0.7-1,1.2v7.5h-1.8v-10.6H1394.7z"/>
	<path d="M1013.8-2096.9h-6.2v5h7.2v1.5h-9v-14.2h8.9v1.5h-7.1v4.6h6.2V-2096.9z M1017.2-2090.3v-9.2h-1.7v-1.4h1.7v-1.1
		c-0.1-1,0.3-1.9,0.9-2.6c0.7-0.7,1.6-1,2.6-0.9c0.4,0,0.8,0.1,1.2,0.2l-0.1,1.5c-0.3-0.1-0.6-0.1-1-0.1c-0.5,0-1,0.2-1.4,0.5
		c-0.3,0.4-0.5,0.9-0.5,1.5v1.1h2.3v1.4h-2.3v9.2H1017.2z M1027.4-2090.1c-1.3,0-2.6-0.5-3.5-1.4c-0.9-1-1.4-2.4-1.3-3.8v-0.3
		c0-1,0.2-1.9,0.6-2.8c0.4-0.8,1-1.5,1.7-1.9c0.7-0.5,1.5-0.7,2.3-0.7c1.2-0.1,2.4,0.4,3.2,1.4c0.8,1.1,1.2,2.5,1.1,3.9v0.8h-7.2
		c0,0.9,0.3,1.8,0.9,2.5c0.6,0.6,1.4,1,2.2,1c0.6,0,1.1-0.1,1.6-0.4c0.5-0.3,0.8-0.6,1.2-1l1.1,0.9
		C1030.5-2090.8,1029-2090,1027.4-2090.1z M1027.1-2099.6c-0.7,0-1.4,0.3-1.8,0.8c-0.5,0.6-0.9,1.4-0.9,2.2h5.3v-0.1
		c0-0.8-0.3-1.5-0.7-2.1C1028.5-2099.4,1027.8-2099.6,1027.1-2099.6z M1037.5-2091.6c0.6,0,1.2-0.2,1.7-0.6c0.5-0.4,0.8-0.9,0.8-1.5
		h1.7c0,0.6-0.3,1.2-0.6,1.7c-0.4,0.6-0.9,1-1.5,1.3c-0.6,0.3-1.3,0.5-2,0.5c-1.3,0.1-2.6-0.5-3.4-1.4c-0.9-1.1-1.4-2.5-1.3-3.9
		v-0.3c0-0.9,0.2-1.9,0.6-2.7c0.3-0.8,0.9-1.4,1.6-1.9c0.8-0.5,1.6-0.7,2.5-0.7c1.1,0,2.1,0.3,3,1.1c0.8,0.7,1.2,1.7,1.3,2.8h-1.7
		c0-0.6-0.3-1.2-0.8-1.7c-0.5-0.4-1.1-0.7-1.7-0.7c-0.8,0-1.6,0.3-2.1,1c-0.6,0.8-0.8,1.9-0.8,2.9v0.3c-0.1,1,0.2,2,0.8,2.8
		C1035.8-2091.9,1036.6-2091.6,1037.5-2091.6L1037.5-2091.6z M1045.8-2103.5v2.6h2v1.4h-2v6.6c0,0.3,0.1,0.7,0.3,1
		c0.2,0.2,0.6,0.4,0.9,0.3c0.3,0,0.6,0,0.9-0.1v1.5c-0.5,0.1-0.9,0.2-1.4,0.2c-0.7,0-1.4-0.2-1.8-0.7c-0.4-0.6-0.7-1.3-0.6-2.1v-6.6
		h-1.9v-1.4h1.9v-2.6L1045.8-2103.5z M1051.5-2090.3h-1.8v-10.6h1.8L1051.5-2090.3z M1049.6-2103.7c0-0.3,0.1-0.5,0.3-0.7
		c0.2-0.2,0.5-0.3,0.8-0.3c0.3,0,0.6,0.1,0.8,0.3c0.2,0.2,0.3,0.5,0.3,0.7c0,0.3-0.1,0.5-0.3,0.7c-0.2,0.2-0.5,0.3-0.8,0.3
		c-0.3,0-0.6-0.1-0.8-0.3C1049.7-2103.2,1049.6-2103.4,1049.6-2103.7z M1057.6-2092.8l2.6-8.1h1.8l-3.8,10.6h-1.4l-3.8-10.6h1.8
		L1057.6-2092.8z M1062.8-2095.7c0-1,0.2-1.9,0.6-2.8c0.4-0.8,1-1.5,1.7-1.9c0.7-0.5,1.6-0.7,2.5-0.7c1.3,0,2.6,0.5,3.5,1.5
		c0.9,1.1,1.4,2.5,1.3,4v0.1c0,1-0.2,1.9-0.6,2.8c-0.4,0.8-1,1.5-1.7,1.9c-0.8,0.5-1.6,0.7-2.5,0.7c-1.3,0-2.6-0.5-3.5-1.5
		c-0.9-1.1-1.4-2.5-1.3-4L1062.8-2095.7z M1064.6-2095.5c-0.1,1,0.2,2,0.8,2.8c0.5,0.7,1.3,1.1,2.2,1.1c0.9,0,1.7-0.4,2.2-1.1
		c0.6-0.9,0.9-2,0.8-3c0-1-0.2-2-0.8-2.8c-0.5-0.7-1.3-1.1-2.2-1.1c-0.9,0-1.7,0.4-2.2,1.1
		C1064.9-2097.6,1064.6-2096.6,1064.6-2095.5L1064.6-2095.5z M1078.6-2095.7c-0.1-1.4,0.3-2.8,1.1-3.9c0.7-0.9,1.8-1.5,3-1.5
		c1.2-0.1,2.3,0.5,3,1.4l0.1-1.2h1.7v10.3c0.1,1.2-0.4,2.4-1.2,3.2c-0.9,0.8-2.1,1.2-3.3,1.2c-0.8,0-1.5-0.2-2.2-0.5
		c-0.7-0.3-1.3-0.7-1.7-1.3l0.9-1.1c0.7,0.9,1.7,1.4,2.8,1.4c0.8,0,1.5-0.2,2.1-0.7c0.5-0.6,0.8-1.3,0.7-2.1v-0.9
		c-0.7,0.8-1.8,1.3-3,1.3c-1.2,0-2.3-0.5-3-1.5C1078.9-2092.8,1078.5-2094.3,1078.6-2095.7L1078.6-2095.7z M1080.4-2095.5
		c-0.1,1,0.2,2,0.7,2.8c0.5,0.7,1.2,1.1,2.1,1c1.1,0,2.1-0.6,2.5-1.6v-4.8c-0.5-1-1.4-1.5-2.5-1.5c-0.8,0-1.6,0.4-2.1,1
		C1080.6-2097.6,1080.3-2096.6,1080.4-2095.5L1080.4-2095.5z M1094.3-2090.1c-1.3,0-2.6-0.5-3.5-1.4c-0.9-1-1.4-2.4-1.3-3.8v-0.3
		c0-1,0.2-1.9,0.6-2.8c0.4-0.8,1-1.5,1.7-1.9c0.7-0.5,1.5-0.7,2.3-0.7c1.2-0.1,2.4,0.4,3.2,1.4c0.8,1.1,1.2,2.5,1.1,3.9v0.8h-7.2
		c0,0.9,0.3,1.8,0.9,2.5c0.6,0.6,1.4,1,2.2,1c0.6,0,1.1-0.1,1.6-0.4c0.5-0.3,0.8-0.6,1.2-1l1.1,0.9
		C1097.4-2090.8,1095.9-2090,1094.3-2090.1z M1094.1-2099.6c-0.7,0-1.4,0.3-1.8,0.8c-0.5,0.6-0.9,1.4-0.9,2.2h5.3v-0.1
		c0-0.8-0.3-1.5-0.7-2.1C1095.4-2099.4,1094.7-2099.6,1094.1-2099.6L1094.1-2099.6z M1101.9-2100.9l0.1,1.3c0.7-1,1.9-1.6,3.2-1.5
		c2.2,0,3.4,1.3,3.4,3.8v7h-1.8v-7c0-0.6-0.1-1.2-0.5-1.7c-0.4-0.4-1-0.6-1.6-0.5c-0.6,0-1.1,0.2-1.5,0.5c-0.4,0.3-0.8,0.7-1,1.2
		v7.5h-1.8v-10.6L1101.9-2100.9z M1115.3-2090.1c-1.3,0-2.6-0.5-3.5-1.4c-0.9-1-1.4-2.4-1.3-3.8v-0.3c0-1,0.2-1.9,0.6-2.8
		c0.4-0.8,1-1.5,1.7-1.9c0.7-0.5,1.5-0.7,2.3-0.7c1.2-0.1,2.4,0.4,3.2,1.4c0.8,1.1,1.2,2.5,1.1,3.9v0.8h-7.2c0,0.9,0.3,1.8,0.9,2.5
		c0.6,0.6,1.4,1,2.2,1c0.6,0,1.1-0.1,1.6-0.4c0.5-0.3,0.8-0.6,1.2-1l1.1,0.9C1118.4-2090.8,1116.9-2090,1115.3-2090.1z M1115-2099.6
		c-0.7,0-1.4,0.3-1.8,0.8c-0.5,0.6-0.9,1.4-0.9,2.2h5.3v-0.1c0-0.8-0.3-1.5-0.7-2.1C1116.4-2099.4,1115.7-2099.6,1115-2099.6z
		 M1126.2-2099.3c-0.3,0-0.6-0.1-0.9-0.1c-1-0.1-2,0.5-2.4,1.5v7.5h-1.8v-10.6h1.8l0,1.2c0.5-0.9,1.5-1.4,2.5-1.4
		c0.3,0,0.5,0,0.8,0.1L1126.2-2099.3z M1133.7-2090.3c-0.1-0.4-0.2-0.7-0.3-1.1c-0.8,0.8-1.9,1.3-3,1.3c-0.9,0-1.8-0.3-2.6-0.9
		c-0.7-0.6-1-1.4-1-2.2c0-1,0.4-2,1.3-2.6c1.1-0.7,2.3-1,3.5-0.9h1.8v-0.8c0-0.6-0.2-1.1-0.6-1.5c-0.5-0.4-1.1-0.6-1.7-0.6
		c-0.6,0-1.1,0.2-1.6,0.5c-0.4,0.3-0.6,0.7-0.7,1.2h-1.8c0-0.6,0.2-1.1,0.6-1.5c0.4-0.5,0.9-0.9,1.5-1.2c0.7-0.3,1.4-0.4,2.1-0.4
		c1-0.1,2.1,0.3,2.9,0.9c0.7,0.6,1.1,1.6,1.1,2.5v4.9c0,0.8,0.1,1.6,0.4,2.3v0.2H1133.7z M1130.7-2091.7c0.6,0,1.1-0.2,1.6-0.4
		c0.5-0.3,0.9-0.7,1.1-1.1v-2.2h-1.4c-2.2,0-3.3,0.6-3.3,1.9c0,0.5,0.2,1,0.6,1.3C1129.7-2091.9,1130.2-2091.7,1130.7-2091.7
		L1130.7-2091.7z M1137.3-2095.7c-0.1-1.4,0.3-2.8,1.2-3.9c0.7-1,1.8-1.5,3-1.5c1.1,0,2.2,0.4,2.9,1.3v-5.5h1.8v15h-1.7l-0.1-1.1
		c-0.7,0.9-1.9,1.4-3,1.3c-1.2,0-2.3-0.5-3-1.5c-0.8-1.1-1.2-2.5-1.2-3.9L1137.3-2095.7z M1139.1-2095.5c-0.1,1,0.2,2,0.7,2.8
		c0.5,0.7,1.2,1,2.1,1c1.1,0,2.1-0.6,2.5-1.5v-4.9c-0.5-0.9-1.4-1.5-2.5-1.5c-0.8,0-1.6,0.4-2.1,1
		C1139.3-2097.6,1139-2096.6,1139.1-2095.5L1139.1-2095.5z M1148.2-2095.7c0-1,0.2-1.9,0.6-2.8c0.4-0.8,1-1.5,1.7-1.9
		c0.7-0.5,1.6-0.7,2.5-0.7c1.3,0,2.6,0.5,3.5,1.5c0.9,1.1,1.4,2.5,1.3,4v0.1c0,1-0.2,1.9-0.6,2.8c-0.4,0.8-1,1.4-1.7,1.9
		c-0.8,0.5-1.6,0.7-2.5,0.7c-1.3,0-2.6-0.5-3.5-1.5c-0.9-1.1-1.4-2.5-1.3-4L1148.2-2095.7z M1150-2095.5c-0.1,1,0.2,2,0.8,2.8
		c0.5,0.7,1.3,1.1,2.2,1.1c0.9,0,1.7-0.4,2.2-1.1c0.6-0.9,0.9-2,0.8-3c0-1-0.2-2-0.8-2.8c-0.5-0.7-1.3-1.1-2.2-1.1
		c-0.9,0-1.7,0.4-2.2,1.1C1150.2-2097.6,1149.9-2096.6,1150-2095.5L1150-2095.5z M1168.8-2090.1c-1.3,0-2.6-0.5-3.5-1.4
		c-0.9-1-1.4-2.4-1.3-3.8v-0.3c0-1,0.2-1.9,0.6-2.8c0.4-0.8,1-1.5,1.7-1.9c0.7-0.5,1.5-0.7,2.3-0.7c1.2-0.1,2.4,0.4,3.2,1.4
		c0.8,1.1,1.2,2.5,1.1,3.9v0.8h-7.1c0,0.9,0.3,1.8,0.9,2.5c0.6,0.6,1.4,1,2.2,1c0.6,0,1.1-0.1,1.6-0.4c0.5-0.3,0.8-0.6,1.2-1
		l1.1,0.9C1171.9-2090.8,1170.4-2090,1168.8-2090.1z M1168.5-2099.6c-0.7,0-1.4,0.3-1.8,0.8c-0.5,0.6-0.9,1.4-0.9,2.2h5.3v-0.1
		c0-0.8-0.3-1.5-0.7-2.1C1169.9-2099.4,1169.2-2099.6,1168.5-2099.6L1168.5-2099.6z M1176.4-2100.9l0.1,1.3c0.7-1,1.9-1.6,3.2-1.5
		c2.2,0,3.4,1.3,3.4,3.8v7h-1.8v-7c0-0.6-0.1-1.2-0.5-1.7c-0.4-0.4-1-0.6-1.6-0.5c-0.6,0-1.1,0.2-1.5,0.5c-0.4,0.3-0.8,0.7-1,1.2
		v7.5h-1.8v-10.6L1176.4-2100.9z M1196.5-2090.3c-0.1-0.4-0.2-0.7-0.3-1.1c-0.8,0.8-1.9,1.3-3,1.3c-0.9,0-1.8-0.3-2.6-0.9
		c-0.7-0.6-1-1.4-1-2.2c0-1,0.4-2,1.3-2.6c1.1-0.7,2.3-1,3.5-0.9h1.8v-0.8c0-0.6-0.2-1.1-0.6-1.5c-0.5-0.4-1.1-0.6-1.7-0.6
		c-0.6,0-1.1,0.2-1.6,0.5c-0.4,0.3-0.6,0.7-0.7,1.2h-1.8c0-0.6,0.2-1.1,0.6-1.5c0.4-0.5,0.9-0.9,1.5-1.2c0.7-0.3,1.4-0.4,2.1-0.4
		c1-0.1,2.1,0.3,2.9,0.9c0.7,0.6,1.1,1.6,1.1,2.5v4.9c0,0.8,0.1,1.6,0.4,2.3v0.2H1196.5z M1193.5-2091.7c0.6,0,1.1-0.2,1.6-0.4
		c0.5-0.3,0.9-0.7,1.1-1.1v-2.2h-1.4c-2.2,0-3.3,0.6-3.3,1.9c0,0.5,0.2,1,0.6,1.3C1192.4-2091.9,1193-2091.7,1193.5-2091.7
		L1193.5-2091.7z M1204.8-2091.6c0.6,0,1.2-0.2,1.7-0.6c0.5-0.4,0.8-0.9,0.8-1.5h1.7c0,0.6-0.3,1.2-0.6,1.7c-0.4,0.6-0.9,1-1.5,1.3
		c-0.6,0.3-1.3,0.5-2,0.5c-1.3,0.1-2.6-0.5-3.4-1.4c-0.9-1.1-1.4-2.5-1.3-3.9v-0.3c0-0.9,0.2-1.9,0.6-2.7c0.3-0.8,0.9-1.4,1.6-1.9
		c0.8-0.5,1.6-0.7,2.5-0.7c1.1,0,2.1,0.3,3,1.1c0.8,0.7,1.2,1.7,1.3,2.8h-1.7c0-0.6-0.3-1.2-0.8-1.7c-0.5-0.4-1.1-0.7-1.7-0.7
		c-0.8,0-1.6,0.3-2.1,1c-0.6,0.8-0.8,1.9-0.8,2.9v0.3c-0.1,1,0.2,2,0.8,2.8C1203.1-2091.9,1203.9-2091.6,1204.8-2091.6
		L1204.8-2091.6z M1213.1-2103.5v2.6h2v1.4h-2v6.6c0,0.3,0.1,0.7,0.3,1c0.2,0.2,0.6,0.4,0.9,0.3c0.3,0,0.6-0.1,0.9-0.1v1.5
		c-0.5,0.1-0.9,0.2-1.4,0.2c-0.7,0-1.4-0.2-1.8-0.7c-0.4-0.6-0.7-1.3-0.6-2.1v-6.6h-1.9v-1.4h1.9v-2.6L1213.1-2103.5z
		 M1218.8-2090.3h-1.8v-10.6h1.8V-2090.3z M1216.9-2103.7c0-0.3,0.1-0.5,0.3-0.7c0.2-0.2,0.5-0.3,0.8-0.3c0.3,0,0.6,0.1,0.8,0.3
		c0.2,0.2,0.3,0.5,0.3,0.7c0,0.3-0.1,0.5-0.3,0.7c-0.2,0.2-0.5,0.3-0.8,0.3c-0.3,0-0.6-0.1-0.8-0.3
		C1217-2103.2,1216.9-2103.4,1216.9-2103.7L1216.9-2103.7z M1224.9-2092.8l2.6-8.1h1.8l-3.8,10.6h-1.4l-3.8-10.6h1.8L1224.9-2092.8z
		 M1232.7-2090.3h-1.8v-10.6h1.8V-2090.3z M1230.8-2103.7c0-0.3,0.1-0.5,0.3-0.7c0.2-0.2,0.5-0.3,0.8-0.3c0.3,0,0.6,0.1,0.8,0.3
		c0.2,0.2,0.3,0.5,0.3,0.7c0,0.3-0.1,0.5-0.3,0.7c-0.2,0.2-0.5,0.3-0.8,0.3c-0.3,0-0.6-0.1-0.8-0.3
		C1230.8-2103.2,1230.7-2103.4,1230.8-2103.7z M1234.8-2095.7c-0.1-1.4,0.3-2.8,1.2-3.9c0.7-1,1.8-1.5,3-1.5c1.1,0,2.2,0.4,2.9,1.3
		v-5.5h1.8v15h-1.7l-0.1-1.1c-0.7,0.9-1.9,1.4-3,1.3c-1.2,0-2.3-0.5-3-1.5c-0.8-1.1-1.2-2.5-1.2-3.9L1234.8-2095.7z M1236.6-2095.5
		c-0.1,1,0.2,2,0.7,2.8c0.5,0.7,1.2,1,2.1,1c1.1,0,2.1-0.6,2.5-1.5v-4.9c-0.5-0.9-1.4-1.5-2.5-1.5c-0.8,0-1.6,0.4-2.1,1
		C1236.8-2097.6,1236.6-2096.6,1236.6-2095.5L1236.6-2095.5z M1252.7-2090.3c-0.1-0.4-0.2-0.7-0.3-1.1c-0.8,0.8-1.9,1.3-3,1.3
		c-0.9,0-1.8-0.3-2.6-0.9c-0.7-0.6-1-1.4-1-2.2c0-1,0.4-2,1.3-2.6c1.1-0.7,2.3-1,3.5-0.9h1.8v-0.8c0-0.6-0.2-1.1-0.6-1.5
		c-0.5-0.4-1.1-0.6-1.7-0.6c-0.6,0-1.1,0.2-1.6,0.5c-0.4,0.3-0.6,0.7-0.7,1.2h-1.8c0-0.6,0.2-1.1,0.6-1.5c0.4-0.5,0.9-0.9,1.5-1.2
		c0.7-0.3,1.4-0.4,2.1-0.4c1-0.1,2.1,0.3,2.9,0.9c0.7,0.6,1.1,1.6,1.1,2.5v4.9c0,0.8,0.1,1.6,0.4,2.3v0.2H1252.7z M1249.7-2091.7
		c0.6,0,1.1-0.2,1.6-0.4c0.5-0.3,0.9-0.7,1.1-1.1v-2.2h-1.4c-2.2,0-3.3,0.6-3.3,1.9c0,0.5,0.2,1,0.6,1.3
		C1248.7-2091.9,1249.2-2091.7,1249.7-2091.7L1249.7-2091.7z M1256.3-2095.7c-0.1-1.4,0.3-2.8,1.2-3.9c0.7-1,1.8-1.5,3-1.5
		c1.1,0,2.2,0.4,2.9,1.3v-5.5h1.8v15h-1.7l-0.1-1.1c-0.7,0.9-1.9,1.4-3,1.3c-1.2,0-2.3-0.5-3-1.5c-0.8-1.1-1.2-2.5-1.2-3.9V-2095.7z
		 M1258.1-2095.5c-0.1,1,0.2,2,0.7,2.8c0.5,0.7,1.2,1,2.1,1c1.1,0,2.1-0.6,2.5-1.5v-4.9c-0.5-0.9-1.4-1.5-2.5-1.5
		c-0.8,0-1.6,0.4-2.1,1C1258.3-2097.6,1258.1-2096.6,1258.1-2095.5z M1272.1-2090.1c-1.3,0-2.6-0.5-3.5-1.4c-0.9-1-1.4-2.4-1.3-3.8
		v-0.3c0-1,0.2-1.9,0.6-2.8c0.4-0.8,1-1.5,1.7-1.9c0.7-0.5,1.5-0.7,2.3-0.7c1.2-0.1,2.4,0.4,3.2,1.4c0.8,1.1,1.2,2.5,1.1,3.9v0.8
		h-7.2c0,0.9,0.3,1.8,0.9,2.5c0.6,0.6,1.4,1,2.2,1c0.6,0,1.1-0.1,1.6-0.4c0.5-0.3,0.8-0.6,1.2-1l1.1,0.9
		C1275.2-2090.8,1273.7-2090,1272.1-2090.1z M1271.9-2099.6c-0.7,0-1.4,0.3-1.8,0.8c-0.5,0.6-0.9,1.4-0.9,2.2h5.3v-0.1
		c0-0.8-0.3-1.5-0.7-2.1C1273.2-2099.4,1272.6-2099.6,1271.9-2099.6L1271.9-2099.6z M1284.1-2093.1c0-0.4-0.2-0.9-0.6-1.1
		c-0.6-0.4-1.2-0.6-1.9-0.7c-0.8-0.1-1.5-0.4-2.2-0.7c-0.5-0.2-0.9-0.6-1.2-1c-0.3-0.4-0.4-0.9-0.4-1.3c0-0.9,0.4-1.7,1.1-2.2
		c0.8-0.6,1.8-0.9,2.8-0.9c1.1,0,2.1,0.3,2.9,0.9c0.7,0.6,1.1,1.5,1.1,2.4h-1.8c0-0.5-0.2-1-0.6-1.3c-0.4-0.4-1-0.6-1.6-0.5
		c-0.5,0-1.1,0.1-1.5,0.4c-0.4,0.3-0.6,0.7-0.6,1.1c0,0.4,0.2,0.8,0.5,1c0.6,0.3,1.2,0.5,1.9,0.6c0.8,0.2,1.5,0.4,2.2,0.7
		c0.5,0.2,0.9,0.6,1.2,1c0.3,0.4,0.4,0.9,0.4,1.4c0,0.9-0.4,1.7-1.1,2.3c-0.9,0.6-1.9,0.9-2.9,0.9c-0.8,0-1.5-0.1-2.2-0.4
		c-0.6-0.3-1.1-0.7-1.5-1.3c-0.4-0.5-0.6-1.1-0.6-1.7h1.8c0,0.6,0.3,1.1,0.7,1.4c0.5,0.4,1.2,0.6,1.8,0.5c0.6,0,1.2-0.1,1.6-0.4
		C1283.9-2092.3,1284.1-2092.7,1284.1-2093.1z M1292.1-2095.7c-0.1-1.4,0.3-2.8,1.2-3.9c0.7-1,1.8-1.5,3-1.5c1.1,0,2.2,0.4,2.9,1.3
		v-5.5h1.8v15h-1.7l-0.1-1.1c-0.7,0.9-1.9,1.4-3,1.3c-1.2,0-2.3-0.5-3-1.5c-0.8-1.1-1.2-2.5-1.2-3.9L1292.1-2095.7z M1293.9-2095.5
		c-0.1,1,0.2,2,0.7,2.8c0.5,0.7,1.2,1,2.1,1c1.1,0,2.1-0.6,2.5-1.5v-4.9c-0.5-0.9-1.4-1.5-2.5-1.5c-0.8,0-1.6,0.4-2.1,1
		C1294.1-2097.6,1293.9-2096.6,1293.9-2095.5L1293.9-2095.5z M1307.9-2090.1c-1.3,0-2.6-0.5-3.5-1.4c-0.9-1-1.4-2.4-1.3-3.8v-0.3
		c0-1,0.2-1.9,0.6-2.8c0.4-0.8,1-1.5,1.7-1.9c0.7-0.5,1.5-0.7,2.3-0.7c1.2-0.1,2.4,0.4,3.2,1.4c0.8,1.1,1.2,2.5,1.1,3.9v0.8h-7.2
		c0,0.9,0.3,1.8,0.9,2.5c0.6,0.6,1.4,1,2.2,1c0.6,0,1.1-0.1,1.6-0.4c0.5-0.3,0.8-0.6,1.2-1l1.1,0.9
		C1311-2090.8,1309.5-2090,1307.9-2090.1z M1307.7-2099.6c-0.7,0-1.4,0.3-1.8,0.8c-0.5,0.6-0.9,1.4-0.9,2.2h5.3v-0.1
		c0-0.8-0.3-1.5-0.7-2.1C1309-2099.4,1308.4-2099.6,1307.7-2099.6L1307.7-2099.6z M1320.4-2090.3h-1.8v-10.6h1.8V-2090.3z
		 M1318.4-2103.7c0-0.3,0.1-0.5,0.3-0.7c0.2-0.2,0.5-0.3,0.8-0.3c0.3,0,0.6,0.1,0.8,0.3c0.2,0.2,0.3,0.5,0.3,0.7
		c0,0.3-0.1,0.5-0.3,0.7c-0.2,0.2-0.5,0.3-0.8,0.3c-0.3,0-0.6-0.1-0.8-0.3C1318.5-2103.2,1318.4-2103.4,1318.4-2103.7z
		 M1324.7-2100.9l0.1,1.3c0.7-1,1.9-1.6,3.2-1.5c2.2,0,3.4,1.3,3.4,3.8v7h-1.8v-7c0-0.6-0.1-1.2-0.5-1.7c-0.4-0.4-1-0.6-1.6-0.5
		c-0.6,0-1.1,0.2-1.5,0.5c-0.4,0.3-0.8,0.7-1,1.2v7.5h-1.8v-10.6L1324.7-2100.9z M1337.1-2092.8l2.6-8.1h1.8l-3.8,10.6h-1.4
		l-3.8-10.6h1.8L1337.1-2092.8z M1347.4-2090.1c-1.3,0-2.6-0.5-3.5-1.4c-0.9-1-1.4-2.4-1.3-3.8v-0.3c0-1,0.2-1.9,0.6-2.8
		c0.4-0.8,1-1.5,1.7-1.9c0.7-0.5,1.5-0.7,2.3-0.7c1.2-0.1,2.4,0.4,3.2,1.4c0.8,1.1,1.2,2.5,1.1,3.9v0.8h-7.2c0,0.9,0.3,1.8,0.9,2.5
		c0.6,0.6,1.4,1,2.2,1c0.6,0,1.1-0.1,1.6-0.4c0.5-0.3,0.8-0.6,1.2-1l1.1,0.9C1350.5-2090.8,1349-2090,1347.4-2090.1z M1347.2-2099.6
		c-0.7,0-1.4,0.3-1.8,0.8c-0.5,0.6-0.9,1.4-0.9,2.2h5.3v-0.1c0-0.8-0.3-1.5-0.7-2.1C1348.5-2099.4,1347.8-2099.6,1347.2-2099.6
		L1347.2-2099.6z M1358.4-2099.3c-0.3,0-0.6-0.1-0.9-0.1c-1-0.1-2,0.5-2.4,1.5v7.5h-1.8v-10.6h1.8l0,1.2c0.5-0.9,1.5-1.4,2.5-1.4
		c0.3,0,0.5,0,0.8,0.1L1358.4-2099.3z M1365.9-2093.1c0-0.4-0.2-0.9-0.6-1.1c-0.6-0.4-1.2-0.6-1.9-0.7c-0.8-0.1-1.5-0.4-2.2-0.7
		c-0.5-0.2-0.9-0.6-1.2-1c-0.3-0.4-0.4-0.9-0.4-1.3c0-0.9,0.4-1.7,1.1-2.2c0.8-0.6,1.8-0.9,2.8-0.9c1.1,0,2.1,0.3,2.9,0.9
		c0.7,0.6,1.1,1.5,1.1,2.4h-1.8c0-0.5-0.2-1-0.6-1.3c-0.4-0.4-1-0.6-1.6-0.5c-0.5,0-1.1,0.1-1.5,0.4c-0.4,0.3-0.6,0.7-0.6,1.1
		c0,0.4,0.2,0.8,0.5,1c0.6,0.3,1.2,0.5,1.9,0.6c0.8,0.2,1.5,0.4,2.2,0.7c0.5,0.2,0.9,0.6,1.2,1c0.3,0.4,0.4,0.9,0.4,1.4
		c0,0.9-0.4,1.7-1.1,2.3c-0.9,0.6-1.9,0.9-2.9,0.9c-0.8,0-1.5-0.1-2.2-0.4c-0.6-0.3-1.1-0.7-1.5-1.3c-0.4-0.5-0.6-1.1-0.6-1.7h1.8
		c0,0.6,0.3,1.1,0.7,1.4c0.5,0.4,1.2,0.6,1.8,0.5c0.6,0,1.2-0.1,1.6-0.4C1365.6-2092.3,1365.9-2092.7,1365.9-2093.1z M1371.7-2090.3
		h-1.8v-10.6h1.8V-2090.3z M1369.7-2103.7c0-0.3,0.1-0.5,0.3-0.7c0.2-0.2,0.5-0.3,0.8-0.3c0.3,0,0.6,0.1,0.8,0.3
		c0.2,0.2,0.3,0.5,0.3,0.7c0,0.3-0.1,0.5-0.3,0.7c-0.2,0.2-0.5,0.3-0.8,0.3c-0.3,0-0.6-0.1-0.8-0.3
		C1369.8-2103.2,1369.7-2103.4,1369.7-2103.7z M1373.7-2095.7c0-1,0.2-1.9,0.6-2.8c0.4-0.8,1-1.5,1.7-1.9c0.7-0.5,1.6-0.7,2.5-0.7
		c1.3,0,2.6,0.5,3.5,1.5c0.9,1.1,1.4,2.5,1.3,4v0.1c0,1-0.2,1.9-0.6,2.8c-0.4,0.8-1,1.4-1.7,1.9c-0.8,0.5-1.6,0.7-2.5,0.7
		c-1.3,0-2.6-0.5-3.5-1.5c-0.9-1.1-1.4-2.5-1.3-4V-2095.7z M1375.6-2095.5c-0.1,1,0.2,2,0.8,2.8c0.5,0.7,1.3,1.1,2.2,1.1
		c0.9,0,1.7-0.4,2.2-1.1c0.6-0.9,0.9-2,0.8-3c0-1-0.2-2-0.8-2.8c-0.5-0.7-1.3-1.1-2.2-1.1c-0.9,0-1.7,0.4-2.2,1.1
		C1375.8-2097.6,1375.5-2096.6,1375.6-2095.5L1375.6-2095.5z M1379.4-2105.3h2.2l-2.6,2.9h-1.5L1379.4-2105.3z M1387-2100.9l0.1,1.3
		c0.7-1,1.9-1.6,3.2-1.5c2.2,0,3.4,1.3,3.4,3.8v7h-1.8v-7c0-0.6-0.1-1.2-0.5-1.7c-0.4-0.4-1-0.6-1.6-0.5c-0.6,0-1.1,0.2-1.5,0.5
		c-0.4,0.3-0.8,0.7-1,1.2v7.5h-1.8v-10.6H1387z"/>
	<path d="M1013.8-2053.9h-6.2v5h7.2v1.5h-9v-14.2h8.9v1.5h-7.1v4.6h6.2V-2053.9z M1017.2-2047.3v-9.2h-1.7v-1.4h1.7v-1.1
		c-0.1-1,0.3-1.9,0.9-2.6c0.7-0.7,1.6-1,2.6-0.9c0.4,0,0.8,0.1,1.2,0.2l-0.1,1.5c-0.3-0.1-0.6-0.1-1-0.1c-0.5,0-1,0.2-1.4,0.5
		c-0.3,0.4-0.5,0.9-0.5,1.5v1.1h2.3v1.4h-2.3v9.2H1017.2z M1027.4-2047.1c-1.3,0-2.6-0.5-3.5-1.4c-0.9-1-1.4-2.4-1.3-3.8v-0.3
		c0-1,0.2-1.9,0.6-2.8c0.4-0.8,1-1.5,1.7-1.9c0.7-0.5,1.5-0.7,2.3-0.7c1.2-0.1,2.4,0.4,3.2,1.4c0.8,1.1,1.2,2.5,1.1,3.9v0.8h-7.2
		c0,0.9,0.3,1.8,0.9,2.5c0.6,0.6,1.4,1,2.2,1c0.6,0,1.1-0.1,1.6-0.4c0.5-0.3,0.8-0.6,1.2-1l1.1,0.9
		C1030.5-2047.8,1029-2047,1027.4-2047.1z M1027.1-2056.6c-0.7,0-1.4,0.3-1.8,0.8c-0.5,0.6-0.9,1.4-0.9,2.2h5.3v-0.1
		c0-0.8-0.3-1.5-0.7-2.1C1028.5-2056.4,1027.8-2056.6,1027.1-2056.6z M1037.5-2048.6c0.6,0,1.2-0.2,1.7-0.6c0.5-0.4,0.8-0.9,0.8-1.5
		h1.7c0,0.6-0.3,1.2-0.6,1.7c-0.4,0.6-0.9,1-1.5,1.3c-0.6,0.3-1.3,0.5-2,0.5c-1.3,0.1-2.6-0.5-3.4-1.4c-0.9-1.1-1.4-2.5-1.3-3.9
		v-0.3c0-0.9,0.2-1.9,0.6-2.7c0.3-0.8,0.9-1.4,1.6-1.9c0.8-0.5,1.6-0.7,2.5-0.7c1.1,0,2.1,0.3,3,1.1c0.8,0.7,1.2,1.7,1.3,2.8h-1.7
		c0-0.6-0.3-1.2-0.8-1.7c-0.5-0.4-1.1-0.7-1.7-0.7c-0.8,0-1.6,0.3-2.1,1c-0.6,0.8-0.8,1.9-0.8,2.9v0.3c-0.1,1,0.2,2,0.8,2.8
		C1035.8-2048.9,1036.6-2048.6,1037.5-2048.6L1037.5-2048.6z M1045.8-2060.5v2.6h2v1.4h-2v6.6c0,0.3,0.1,0.7,0.3,1
		c0.2,0.2,0.6,0.4,0.9,0.3c0.3,0,0.6,0,0.9-0.1v1.5c-0.5,0.1-0.9,0.2-1.4,0.2c-0.7,0-1.4-0.2-1.8-0.7c-0.4-0.6-0.7-1.3-0.6-2.1v-6.6
		h-1.9v-1.4h1.9v-2.6L1045.8-2060.5z M1051.5-2047.3h-1.8v-10.6h1.8L1051.5-2047.3z M1049.6-2060.7c0-0.3,0.1-0.5,0.3-0.7
		c0.2-0.2,0.5-0.3,0.8-0.3c0.3,0,0.6,0.1,0.8,0.3c0.2,0.2,0.3,0.5,0.3,0.7c0,0.3-0.1,0.5-0.3,0.7c-0.2,0.2-0.5,0.3-0.8,0.3
		c-0.3,0-0.6-0.1-0.8-0.3C1049.7-2060.2,1049.6-2060.4,1049.6-2060.7z M1057.6-2049.8l2.6-8.1h1.8l-3.8,10.6h-1.4l-3.8-10.6h1.8
		L1057.6-2049.8z M1062.8-2052.7c0-1,0.2-1.9,0.6-2.8c0.4-0.8,1-1.5,1.7-1.9c0.7-0.5,1.6-0.7,2.5-0.7c1.3,0,2.6,0.5,3.5,1.5
		c0.9,1.1,1.4,2.5,1.3,4v0.1c0,1-0.2,1.9-0.6,2.8c-0.4,0.8-1,1.5-1.7,1.9c-0.8,0.5-1.6,0.7-2.5,0.7c-1.3,0-2.6-0.5-3.5-1.5
		c-0.9-1.1-1.4-2.5-1.3-4L1062.8-2052.7z M1064.6-2052.5c-0.1,1,0.2,2,0.8,2.8c0.5,0.7,1.3,1.1,2.2,1.1c0.9,0,1.7-0.4,2.2-1.1
		c0.6-0.9,0.9-2,0.8-3c0-1-0.2-2-0.8-2.8c-0.5-0.7-1.3-1.1-2.2-1.1c-0.9,0-1.7,0.4-2.2,1.1
		C1064.9-2054.6,1064.6-2053.6,1064.6-2052.5L1064.6-2052.5z M1078.6-2052.7c-0.1-1.4,0.3-2.8,1.1-3.9c0.7-0.9,1.8-1.5,3-1.5
		c1.2-0.1,2.3,0.5,3,1.4l0.1-1.2h1.7v10.3c0.1,1.2-0.4,2.4-1.2,3.2c-0.9,0.8-2.1,1.2-3.3,1.2c-0.8,0-1.5-0.2-2.2-0.5
		c-0.7-0.3-1.3-0.7-1.7-1.3l0.9-1.1c0.7,0.9,1.7,1.4,2.8,1.4c0.8,0,1.5-0.2,2.1-0.7c0.5-0.6,0.8-1.3,0.7-2.1v-0.9
		c-0.7,0.8-1.8,1.3-3,1.3c-1.2,0-2.3-0.5-3-1.5C1078.9-2049.8,1078.5-2051.3,1078.6-2052.7L1078.6-2052.7z M1080.4-2052.5
		c-0.1,1,0.2,2,0.7,2.8c0.5,0.7,1.2,1.1,2.1,1c1.1,0,2.1-0.6,2.5-1.6v-4.8c-0.5-1-1.4-1.5-2.5-1.5c-0.8,0-1.6,0.4-2.1,1
		C1080.6-2054.6,1080.3-2053.6,1080.4-2052.5L1080.4-2052.5z M1094.3-2047.1c-1.3,0-2.6-0.5-3.5-1.4c-0.9-1-1.4-2.4-1.3-3.8v-0.3
		c0-1,0.2-1.9,0.6-2.8c0.4-0.8,1-1.5,1.7-1.9c0.7-0.5,1.5-0.7,2.3-0.7c1.2-0.1,2.4,0.4,3.2,1.4c0.8,1.1,1.2,2.5,1.1,3.9v0.8h-7.2
		c0,0.9,0.3,1.8,0.9,2.5c0.6,0.6,1.4,1,2.2,1c0.6,0,1.1-0.1,1.6-0.4c0.5-0.3,0.8-0.6,1.2-1l1.1,0.9
		C1097.4-2047.8,1095.9-2047,1094.3-2047.1z M1094.1-2056.6c-0.7,0-1.4,0.3-1.8,0.8c-0.5,0.6-0.9,1.4-0.9,2.2h5.3v-0.1
		c0-0.8-0.3-1.5-0.7-2.1C1095.4-2056.4,1094.7-2056.6,1094.1-2056.6L1094.1-2056.6z M1101.9-2057.9l0.1,1.3c0.7-1,1.9-1.6,3.2-1.5
		c2.2,0,3.4,1.3,3.4,3.8v7h-1.8v-7c0-0.6-0.1-1.2-0.5-1.7c-0.4-0.4-1-0.6-1.6-0.5c-0.6,0-1.1,0.2-1.5,0.5c-0.4,0.3-0.8,0.7-1,1.2
		v7.5h-1.8v-10.6L1101.9-2057.9z M1115.3-2047.1c-1.3,0-2.6-0.5-3.5-1.4c-0.9-1-1.4-2.4-1.3-3.8v-0.3c0-1,0.2-1.9,0.6-2.8
		c0.4-0.8,1-1.5,1.7-1.9c0.7-0.5,1.5-0.7,2.3-0.7c1.2-0.1,2.4,0.4,3.2,1.4c0.8,1.1,1.2,2.5,1.1,3.9v0.8h-7.2c0,0.9,0.3,1.8,0.9,2.5
		c0.6,0.6,1.4,1,2.2,1c0.6,0,1.1-0.1,1.6-0.4c0.5-0.3,0.8-0.6,1.2-1l1.1,0.9C1118.4-2047.8,1116.9-2047,1115.3-2047.1z M1115-2056.6
		c-0.7,0-1.4,0.3-1.8,0.8c-0.5,0.6-0.9,1.4-0.9,2.2h5.3v-0.1c0-0.8-0.3-1.5-0.7-2.1C1116.4-2056.4,1115.7-2056.6,1115-2056.6z
		 M1126.2-2056.3c-0.3,0-0.6-0.1-0.9-0.1c-1-0.1-2,0.5-2.4,1.5v7.5h-1.8v-10.6h1.8l0,1.2c0.5-0.9,1.5-1.4,2.5-1.4
		c0.3,0,0.5,0,0.8,0.1L1126.2-2056.3z M1133.7-2047.3c-0.1-0.4-0.2-0.7-0.3-1.1c-0.8,0.8-1.9,1.3-3,1.3c-0.9,0-1.8-0.3-2.6-0.9
		c-0.7-0.6-1-1.4-1-2.2c0-1,0.4-2,1.3-2.6c1.1-0.7,2.3-1,3.5-0.9h1.8v-0.8c0-0.6-0.2-1.1-0.6-1.5c-0.5-0.4-1.1-0.6-1.7-0.6
		c-0.6,0-1.1,0.2-1.6,0.5c-0.4,0.3-0.6,0.7-0.7,1.2h-1.8c0-0.6,0.2-1.1,0.6-1.5c0.4-0.5,0.9-0.9,1.5-1.2c0.7-0.3,1.4-0.4,2.1-0.4
		c1-0.1,2.1,0.3,2.9,0.9c0.7,0.6,1.1,1.6,1.1,2.5v4.9c0,0.8,0.1,1.6,0.4,2.3v0.2H1133.7z M1130.7-2048.7c0.6,0,1.1-0.2,1.6-0.4
		c0.5-0.3,0.9-0.7,1.1-1.1v-2.2h-1.4c-2.2,0-3.3,0.6-3.3,1.9c0,0.5,0.2,1,0.6,1.3C1129.7-2048.9,1130.2-2048.7,1130.7-2048.7
		L1130.7-2048.7z M1137.3-2052.7c-0.1-1.4,0.3-2.8,1.2-3.9c0.7-1,1.8-1.5,3-1.5c1.1,0,2.2,0.4,2.9,1.3v-5.5h1.8v15h-1.7l-0.1-1.1
		c-0.7,0.9-1.9,1.4-3,1.3c-1.2,0-2.3-0.5-3-1.5c-0.8-1.1-1.2-2.5-1.2-3.9L1137.3-2052.7z M1139.1-2052.5c-0.1,1,0.2,2,0.7,2.8
		c0.5,0.7,1.2,1,2.1,1c1.1,0,2.1-0.6,2.5-1.5v-4.9c-0.5-0.9-1.4-1.5-2.5-1.5c-0.8,0-1.6,0.4-2.1,1
		C1139.3-2054.6,1139-2053.6,1139.1-2052.5L1139.1-2052.5z M1148.2-2052.7c0-1,0.2-1.9,0.6-2.8c0.4-0.8,1-1.5,1.7-1.9
		c0.7-0.5,1.6-0.7,2.5-0.7c1.3,0,2.6,0.5,3.5,1.5c0.9,1.1,1.4,2.5,1.3,4v0.1c0,1-0.2,1.9-0.6,2.8c-0.4,0.8-1,1.4-1.7,1.9
		c-0.8,0.5-1.6,0.7-2.5,0.7c-1.3,0-2.6-0.5-3.5-1.5c-0.9-1.1-1.4-2.5-1.3-4L1148.2-2052.7z M1150-2052.5c-0.1,1,0.2,2,0.8,2.8
		c0.5,0.7,1.3,1.1,2.2,1.1c0.9,0,1.7-0.4,2.2-1.1c0.6-0.9,0.9-2,0.8-3c0-1-0.2-2-0.8-2.8c-0.5-0.7-1.3-1.1-2.2-1.1
		c-0.9,0-1.7,0.4-2.2,1.1C1150.2-2054.6,1149.9-2053.6,1150-2052.5L1150-2052.5z M1168.8-2047.1c-1.3,0-2.6-0.5-3.5-1.4
		c-0.9-1-1.4-2.4-1.3-3.8v-0.3c0-1,0.2-1.9,0.6-2.8c0.4-0.8,1-1.5,1.7-1.9c0.7-0.5,1.5-0.7,2.3-0.7c1.2-0.1,2.4,0.4,3.2,1.4
		c0.8,1.1,1.2,2.5,1.1,3.9v0.8h-7.1c0,0.9,0.3,1.8,0.9,2.5c0.6,0.6,1.4,1,2.2,1c0.6,0,1.1-0.1,1.6-0.4c0.5-0.3,0.8-0.6,1.2-1
		l1.1,0.9C1171.9-2047.8,1170.4-2047,1168.8-2047.1z M1168.5-2056.6c-0.7,0-1.4,0.3-1.8,0.8c-0.5,0.6-0.9,1.4-0.9,2.2h5.3v-0.1
		c0-0.8-0.3-1.5-0.7-2.1C1169.9-2056.4,1169.2-2056.6,1168.5-2056.6L1168.5-2056.6z M1176.4-2057.9l0.1,1.3c0.7-1,1.9-1.6,3.2-1.5
		c2.2,0,3.4,1.3,3.4,3.8v7h-1.8v-7c0-0.6-0.1-1.2-0.5-1.7c-0.4-0.4-1-0.6-1.6-0.5c-0.6,0-1.1,0.2-1.5,0.5c-0.4,0.3-0.8,0.7-1,1.2
		v7.5h-1.8v-10.6L1176.4-2057.9z M1196.5-2047.3c-0.1-0.4-0.2-0.7-0.3-1.1c-0.8,0.8-1.9,1.3-3,1.3c-0.9,0-1.8-0.3-2.6-0.9
		c-0.7-0.6-1-1.4-1-2.2c0-1,0.4-2,1.3-2.6c1.1-0.7,2.3-1,3.5-0.9h1.8v-0.8c0-0.6-0.2-1.1-0.6-1.5c-0.5-0.4-1.1-0.6-1.7-0.6
		c-0.6,0-1.1,0.2-1.6,0.5c-0.4,0.3-0.6,0.7-0.7,1.2h-1.8c0-0.6,0.2-1.1,0.6-1.5c0.4-0.5,0.9-0.9,1.5-1.2c0.7-0.3,1.4-0.4,2.1-0.4
		c1-0.1,2.1,0.3,2.9,0.9c0.7,0.6,1.1,1.6,1.1,2.5v4.9c0,0.8,0.1,1.6,0.4,2.3v0.2H1196.5z M1193.5-2048.7c0.6,0,1.1-0.2,1.6-0.4
		c0.5-0.3,0.9-0.7,1.1-1.1v-2.2h-1.4c-2.2,0-3.3,0.6-3.3,1.9c0,0.5,0.2,1,0.6,1.3C1192.4-2048.9,1193-2048.7,1193.5-2048.7
		L1193.5-2048.7z M1204.8-2048.6c0.6,0,1.2-0.2,1.7-0.6c0.5-0.4,0.8-0.9,0.8-1.5h1.7c0,0.6-0.3,1.2-0.6,1.7c-0.4,0.6-0.9,1-1.5,1.3
		c-0.6,0.3-1.3,0.5-2,0.5c-1.3,0.1-2.6-0.5-3.4-1.4c-0.9-1.1-1.4-2.5-1.3-3.9v-0.3c0-0.9,0.2-1.9,0.6-2.7c0.3-0.8,0.9-1.4,1.6-1.9
		c0.8-0.5,1.6-0.7,2.5-0.7c1.1,0,2.1,0.3,3,1.1c0.8,0.7,1.2,1.7,1.3,2.8h-1.7c0-0.6-0.3-1.2-0.8-1.7c-0.5-0.4-1.1-0.7-1.7-0.7
		c-0.8,0-1.6,0.3-2.1,1c-0.6,0.8-0.8,1.9-0.8,2.9v0.3c-0.1,1,0.2,2,0.8,2.8C1203.1-2048.9,1203.9-2048.6,1204.8-2048.6
		L1204.8-2048.6z M1213.1-2060.5v2.6h2v1.4h-2v6.6c0,0.3,0.1,0.7,0.3,1c0.2,0.2,0.6,0.4,0.9,0.3c0.3,0,0.6-0.1,0.9-0.1v1.5
		c-0.5,0.1-0.9,0.2-1.4,0.2c-0.7,0-1.4-0.2-1.8-0.7c-0.4-0.6-0.7-1.3-0.6-2.1v-6.6h-1.9v-1.4h1.9v-2.6L1213.1-2060.5z
		 M1218.8-2047.3h-1.8v-10.6h1.8V-2047.3z M1216.9-2060.7c0-0.3,0.1-0.5,0.3-0.7c0.2-0.2,0.5-0.3,0.8-0.3c0.3,0,0.6,0.1,0.8,0.3
		c0.2,0.2,0.3,0.5,0.3,0.7c0,0.3-0.1,0.5-0.3,0.7c-0.2,0.2-0.5,0.3-0.8,0.3c-0.3,0-0.6-0.1-0.8-0.3
		C1217-2060.2,1216.9-2060.4,1216.9-2060.7L1216.9-2060.7z M1224.9-2049.8l2.6-8.1h1.8l-3.8,10.6h-1.4l-3.8-10.6h1.8L1224.9-2049.8z
		 M1232.7-2047.3h-1.8v-10.6h1.8V-2047.3z M1230.8-2060.7c0-0.3,0.1-0.5,0.3-0.7c0.2-0.2,0.5-0.3,0.8-0.3c0.3,0,0.6,0.1,0.8,0.3
		c0.2,0.2,0.3,0.5,0.3,0.7c0,0.3-0.1,0.5-0.3,0.7c-0.2,0.2-0.5,0.3-0.8,0.3c-0.3,0-0.6-0.1-0.8-0.3
		C1230.8-2060.2,1230.7-2060.4,1230.8-2060.7z M1234.8-2052.7c-0.1-1.4,0.3-2.8,1.2-3.9c0.7-1,1.8-1.5,3-1.5c1.1,0,2.2,0.4,2.9,1.3
		v-5.5h1.8v15h-1.7l-0.1-1.1c-0.7,0.9-1.9,1.4-3,1.3c-1.2,0-2.3-0.5-3-1.5c-0.8-1.1-1.2-2.5-1.2-3.9L1234.8-2052.7z M1236.6-2052.5
		c-0.1,1,0.2,2,0.7,2.8c0.5,0.7,1.2,1,2.1,1c1.1,0,2.1-0.6,2.5-1.5v-4.9c-0.5-0.9-1.4-1.5-2.5-1.5c-0.8,0-1.6,0.4-2.1,1
		C1236.8-2054.6,1236.6-2053.6,1236.6-2052.5L1236.6-2052.5z M1252.7-2047.3c-0.1-0.4-0.2-0.7-0.3-1.1c-0.8,0.8-1.9,1.3-3,1.3
		c-0.9,0-1.8-0.3-2.6-0.9c-0.7-0.6-1-1.4-1-2.2c0-1,0.4-2,1.3-2.6c1.1-0.7,2.3-1,3.5-0.9h1.8v-0.8c0-0.6-0.2-1.1-0.6-1.5
		c-0.5-0.4-1.1-0.6-1.7-0.6c-0.6,0-1.1,0.2-1.6,0.5c-0.4,0.3-0.6,0.7-0.7,1.2h-1.8c0-0.6,0.2-1.1,0.6-1.5c0.4-0.5,0.9-0.9,1.5-1.2
		c0.7-0.3,1.4-0.4,2.1-0.4c1-0.1,2.1,0.3,2.9,0.9c0.7,0.6,1.1,1.6,1.1,2.5v4.9c0,0.8,0.1,1.6,0.4,2.3v0.2H1252.7z M1249.7-2048.7
		c0.6,0,1.1-0.2,1.6-0.4c0.5-0.3,0.9-0.7,1.1-1.1v-2.2h-1.4c-2.2,0-3.3,0.6-3.3,1.9c0,0.5,0.2,1,0.6,1.3
		C1248.7-2048.9,1249.2-2048.7,1249.7-2048.7L1249.7-2048.7z M1256.3-2052.7c-0.1-1.4,0.3-2.8,1.2-3.9c0.7-1,1.8-1.5,3-1.5
		c1.1,0,2.2,0.4,2.9,1.3v-5.5h1.8v15h-1.7l-0.1-1.1c-0.7,0.9-1.9,1.4-3,1.3c-1.2,0-2.3-0.5-3-1.5c-0.8-1.1-1.2-2.5-1.2-3.9V-2052.7z
		 M1258.1-2052.5c-0.1,1,0.2,2,0.7,2.8c0.5,0.7,1.2,1,2.1,1c1.1,0,2.1-0.6,2.5-1.5v-4.9c-0.5-0.9-1.4-1.5-2.5-1.5
		c-0.8,0-1.6,0.4-2.1,1C1258.3-2054.6,1258.1-2053.6,1258.1-2052.5z M1272.1-2047.1c-1.3,0-2.6-0.5-3.5-1.4c-0.9-1-1.4-2.4-1.3-3.8
		v-0.3c0-1,0.2-1.9,0.6-2.8c0.4-0.8,1-1.5,1.7-1.9c0.7-0.5,1.5-0.7,2.3-0.7c1.2-0.1,2.4,0.4,3.2,1.4c0.8,1.1,1.2,2.5,1.1,3.9v0.8
		h-7.2c0,0.9,0.3,1.8,0.9,2.5c0.6,0.6,1.4,1,2.2,1c0.6,0,1.1-0.1,1.6-0.4c0.5-0.3,0.8-0.6,1.2-1l1.1,0.9
		C1275.2-2047.8,1273.7-2047,1272.1-2047.1z M1271.9-2056.6c-0.7,0-1.4,0.3-1.8,0.8c-0.5,0.6-0.9,1.4-0.9,2.2h5.3v-0.1
		c0-0.8-0.3-1.5-0.7-2.1C1273.2-2056.4,1272.6-2056.6,1271.9-2056.6L1271.9-2056.6z M1284.1-2050.1c0-0.4-0.2-0.9-0.6-1.1
		c-0.6-0.4-1.2-0.6-1.9-0.7c-0.8-0.1-1.5-0.4-2.2-0.7c-0.5-0.2-0.9-0.6-1.2-1c-0.3-0.4-0.4-0.9-0.4-1.3c0-0.9,0.4-1.7,1.1-2.2
		c0.8-0.6,1.8-0.9,2.8-0.9c1.1,0,2.1,0.3,2.9,0.9c0.7,0.6,1.1,1.5,1.1,2.4h-1.8c0-0.5-0.2-1-0.6-1.3c-0.4-0.4-1-0.6-1.6-0.5
		c-0.5,0-1.1,0.1-1.5,0.4c-0.4,0.3-0.6,0.7-0.6,1.1c0,0.4,0.2,0.8,0.5,1c0.6,0.3,1.2,0.5,1.9,0.6c0.8,0.2,1.5,0.4,2.2,0.7
		c0.5,0.2,0.9,0.6,1.2,1c0.3,0.4,0.4,0.9,0.4,1.4c0,0.9-0.4,1.7-1.1,2.3c-0.9,0.6-1.9,0.9-2.9,0.9c-0.8,0-1.5-0.1-2.2-0.4
		c-0.6-0.3-1.1-0.7-1.5-1.3c-0.4-0.5-0.6-1.1-0.6-1.7h1.8c0,0.6,0.3,1.1,0.7,1.4c0.5,0.4,1.2,0.6,1.8,0.5c0.6,0,1.2-0.1,1.6-0.4
		C1283.9-2049.3,1284.1-2049.7,1284.1-2050.1z M1292.1-2052.7c-0.1-1.4,0.3-2.8,1.2-3.9c0.7-1,1.8-1.5,3-1.5c1.1,0,2.2,0.4,2.9,1.3
		v-5.5h1.8v15h-1.7l-0.1-1.1c-0.7,0.9-1.9,1.4-3,1.3c-1.2,0-2.3-0.5-3-1.5c-0.8-1.1-1.2-2.5-1.2-3.9L1292.1-2052.7z M1293.9-2052.5
		c-0.1,1,0.2,2,0.7,2.8c0.5,0.7,1.2,1,2.1,1c1.1,0,2.1-0.6,2.5-1.5v-4.9c-0.5-0.9-1.4-1.5-2.5-1.5c-0.8,0-1.6,0.4-2.1,1
		C1294.1-2054.6,1293.9-2053.6,1293.9-2052.5L1293.9-2052.5z M1307.9-2047.1c-1.3,0-2.6-0.5-3.5-1.4c-0.9-1-1.4-2.4-1.3-3.8v-0.3
		c0-1,0.2-1.9,0.6-2.8c0.4-0.8,1-1.5,1.7-1.9c0.7-0.5,1.5-0.7,2.3-0.7c1.2-0.1,2.4,0.4,3.2,1.4c0.8,1.1,1.2,2.5,1.1,3.9v0.8h-7.2
		c0,0.9,0.3,1.8,0.9,2.5c0.6,0.6,1.4,1,2.2,1c0.6,0,1.1-0.1,1.6-0.4c0.5-0.3,0.8-0.6,1.2-1l1.1,0.9
		C1311-2047.8,1309.5-2047,1307.9-2047.1z M1307.7-2056.6c-0.7,0-1.4,0.3-1.8,0.8c-0.5,0.6-0.9,1.4-0.9,2.2h5.3v-0.1
		c0-0.8-0.3-1.5-0.7-2.1C1309-2056.4,1308.4-2056.6,1307.7-2056.6L1307.7-2056.6z M1319-2047.3v-9.2h-1.7v-1.4h1.7v-0.9
		c-0.1-1,0.3-2,1-2.8c0.8-0.7,1.8-1.1,2.9-1c0.9,0,1.9,0.2,2.8,0.6l-0.3,1.5c-0.7-0.3-1.5-0.5-2.3-0.5c-0.6-0.1-1.2,0.1-1.7,0.5
		c-0.4,0.4-0.6,1-0.5,1.6v0.9h2.2v1.4h-2.2v9.2H1319z M1326.6-2047.3h-1.8v-10.6h1.8L1326.6-2047.3z M1330.9-2057.9l0.1,1.3
		c0.7-1,1.9-1.6,3.2-1.5c2.2,0,3.4,1.3,3.4,3.8v7h-1.8v-7c0-0.6-0.1-1.2-0.5-1.7c-0.4-0.4-1-0.6-1.6-0.5c-0.6,0-1.1,0.2-1.5,0.5
		c-0.4,0.3-0.8,0.7-1,1.2v7.5h-1.8v-10.6H1330.9z M1346.4-2047.3c-0.1-0.4-0.2-0.7-0.3-1.1c-0.8,0.8-1.9,1.3-3,1.3
		c-0.9,0-1.8-0.3-2.6-0.9c-0.7-0.6-1-1.4-1-2.2c0-1,0.4-2,1.3-2.6c1.1-0.7,2.3-1,3.5-0.9h1.8v-0.8c0-0.6-0.2-1.1-0.6-1.5
		c-0.5-0.4-1.1-0.6-1.7-0.6c-0.6,0-1.1,0.2-1.6,0.5c-0.4,0.3-0.6,0.7-0.7,1.2h-1.8c0-0.6,0.2-1.1,0.6-1.5c0.4-0.5,0.9-0.9,1.5-1.2
		c0.7-0.3,1.4-0.4,2.1-0.4c1-0.1,2.1,0.3,2.9,0.9c0.7,0.6,1.1,1.6,1.1,2.5v4.9c0,0.8,0.1,1.6,0.4,2.3v0.2H1346.4z M1343.4-2048.7
		c0.6,0,1.1-0.2,1.6-0.4c0.5-0.3,0.9-0.7,1.1-1.1v-2.2h-1.4c-2.2,0-3.3,0.6-3.3,1.9c0,0.5,0.2,1,0.6,1.3
		C1342.3-2048.9,1342.9-2048.7,1343.4-2048.7L1343.4-2048.7z M1352.1-2057.9l0.1,1.3c0.7-1,1.9-1.6,3.2-1.5c2.2,0,3.4,1.3,3.4,3.8v7
		h-1.8v-7c0-0.6-0.1-1.2-0.5-1.7c-0.4-0.4-1-0.6-1.6-0.5c-0.6,0-1.1,0.2-1.5,0.5c-0.4,0.3-0.8,0.7-1,1.2v7.5h-1.8v-10.6H1352.1z
		 M1365.4-2048.6c0.6,0,1.2-0.2,1.7-0.6c0.5-0.4,0.8-0.9,0.8-1.5h1.7c0,0.6-0.3,1.2-0.6,1.7c-0.4,0.6-0.9,1-1.5,1.3
		c-0.6,0.3-1.3,0.5-2,0.5c-1.3,0.1-2.6-0.5-3.4-1.4c-0.9-1.1-1.4-2.5-1.3-3.9v-0.3c0-0.9,0.2-1.9,0.6-2.7c0.3-0.8,0.9-1.4,1.6-1.9
		c0.8-0.5,1.6-0.7,2.5-0.7c1.1,0,2.1,0.3,3,1.1c0.8,0.7,1.2,1.7,1.3,2.8h-1.7c0-0.6-0.3-1.2-0.8-1.7c-0.5-0.4-1.1-0.7-1.7-0.7
		c-0.8,0-1.6,0.3-2.1,1c-0.6,0.8-0.8,1.9-0.8,2.9v0.3c-0.1,1,0.2,2,0.8,2.8C1363.7-2048.9,1364.5-2048.6,1365.4-2048.6z
		 M1373.2-2047.3h-1.8v-10.6h1.8V-2047.3z M1371.3-2060.7c0-0.3,0.1-0.5,0.3-0.7c0.2-0.2,0.5-0.3,0.8-0.3c0.3,0,0.6,0.1,0.8,0.3
		c0.2,0.2,0.3,0.5,0.3,0.7c0,0.3-0.1,0.5-0.3,0.7c-0.2,0.2-0.5,0.3-0.8,0.3c-0.3,0-0.6-0.1-0.8-0.3
		C1371.4-2060.2,1371.3-2060.4,1371.3-2060.7L1371.3-2060.7z M1382.3-2047.3c-0.1-0.4-0.2-0.7-0.3-1.1c-0.8,0.8-1.9,1.3-3,1.3
		c-0.9,0-1.8-0.3-2.6-0.9c-0.7-0.6-1-1.4-1-2.2c0-1,0.4-2,1.3-2.6c1.1-0.7,2.3-1,3.5-0.9h1.8v-0.8c0-0.6-0.2-1.1-0.6-1.5
		c-0.5-0.4-1.1-0.6-1.7-0.6c-0.6,0-1.1,0.2-1.6,0.5c-0.4,0.3-0.6,0.7-0.7,1.2h-1.8c0-0.6,0.2-1.1,0.6-1.5c0.4-0.5,0.9-0.9,1.5-1.2
		c0.7-0.3,1.4-0.4,2.1-0.4c1-0.1,2.1,0.3,2.9,0.9c0.7,0.6,1.1,1.6,1.1,2.5v4.9c0,0.8,0.1,1.6,0.4,2.3v0.2H1382.3z M1379.3-2048.7
		c0.6,0,1.1-0.2,1.6-0.4c0.5-0.3,0.9-0.7,1.1-1.1v-2.2h-1.4c-2.2,0-3.3,0.6-3.3,1.9c0,0.5,0.2,1,0.6,1.3
		C1378.3-2048.9,1378.8-2048.7,1379.3-2048.7L1379.3-2048.7z M1390.6-2048.6c0.6,0,1.2-0.2,1.7-0.6c0.5-0.4,0.8-0.9,0.8-1.5h1.7
		c0,0.6-0.3,1.2-0.6,1.7c-0.4,0.6-0.9,1-1.5,1.3c-0.6,0.3-1.3,0.5-2,0.5c-1.3,0.1-2.6-0.5-3.4-1.4c-0.9-1.1-1.4-2.5-1.3-3.9v-0.3
		c0-0.9,0.2-1.9,0.6-2.7c0.3-0.8,0.9-1.4,1.6-1.9c0.8-0.5,1.6-0.7,2.5-0.7c1.1,0,2.1,0.3,3,1.1c0.8,0.7,1.2,1.7,1.3,2.8h-1.7
		c0-0.6-0.3-1.2-0.8-1.7c-0.5-0.4-1.1-0.7-1.7-0.7c-0.8,0-1.6,0.3-2.1,1c-0.6,0.8-0.8,1.9-0.8,2.9v0.3c-0.1,1,0.2,2,0.8,2.8
		C1388.9-2048.9,1389.7-2048.6,1390.6-2048.6L1390.6-2048.6z M1398.4-2047.3h-1.8v-10.6h1.8L1398.4-2047.3z M1396.5-2060.7
		c0-0.3,0.1-0.5,0.3-0.7c0.2-0.2,0.5-0.3,0.8-0.3c0.3,0,0.6,0.1,0.8,0.3c0.2,0.2,0.3,0.5,0.3,0.7c0,0.3-0.1,0.5-0.3,0.7
		c-0.2,0.2-0.5,0.3-0.8,0.3c-0.3,0-0.6-0.1-0.8-0.3C1396.6-2060.2,1396.5-2060.4,1396.5-2060.7z M1400.5-2052.7c0-1,0.2-1.9,0.6-2.8
		c0.4-0.8,1-1.5,1.7-1.9c0.7-0.5,1.6-0.7,2.5-0.7c1.3,0,2.6,0.5,3.5,1.5c0.9,1.1,1.4,2.5,1.3,4v0.1c0,1-0.2,1.9-0.6,2.8
		c-0.4,0.8-1,1.4-1.7,1.9c-0.8,0.5-1.6,0.7-2.5,0.7c-1.3,0-2.6-0.5-3.5-1.5c-0.9-1.1-1.4-2.5-1.3-4V-2052.7z M1402.3-2052.5
		c-0.1,1,0.2,2,0.8,2.8c0.5,0.7,1.3,1.1,2.2,1.1c0.9,0,1.7-0.4,2.2-1.1c0.6-0.9,0.9-2,0.8-3c0-1-0.2-2-0.8-2.8
		c-0.5-0.7-1.3-1.1-2.2-1.1c-0.9,0-1.7,0.4-2.2,1.1C1402.6-2054.6,1402.3-2053.6,1402.3-2052.5L1402.3-2052.5z M1406.1-2062.3h2.2
		l-2.6,2.9h-1.5L1406.1-2062.3z M1413.8-2057.9l0.1,1.3c0.7-1,1.9-1.6,3.2-1.5c2.2,0,3.4,1.3,3.4,3.8v7h-1.8v-7
		c0-0.6-0.1-1.2-0.5-1.7c-0.4-0.4-1-0.6-1.6-0.5c-0.6,0-1.1,0.2-1.5,0.5c-0.4,0.3-0.8,0.7-1,1.2v7.5h-1.8v-10.6H1413.8z"/>
	<path d="M1013.6-2009.6h-6v6.3h-1.9v-14.2h8.8v1.5h-6.9v4.9h6V-2009.6z M1018.2-2003.3h-1.8v-15h1.8V-2003.3z M1027.3-2004.4
		c-0.8,0.9-1.9,1.3-3.1,1.2c-1,0.1-1.9-0.3-2.6-1c-0.6-0.8-1-1.9-0.9-2.9v-6.9h1.8v6.8c0,1.6,0.7,2.4,2,2.4c1.2,0.1,2.3-0.5,2.8-1.5
		v-7.7h1.8v10.6h-1.7L1027.3-2004.4z M1033.3-2013.9v11.8c0,2-0.9,3-2.8,3c-0.4,0-0.7-0.1-1.1-0.2v-1.4c0.3,0.1,0.5,0.1,0.8,0.1
		c0.3,0,0.7-0.1,0.9-0.3c0.2-0.3,0.4-0.7,0.3-1.1v-11.8H1033.3z M1031.3-2016.7c0-0.3,0.1-0.5,0.3-0.7c0.2-0.2,0.5-0.3,0.8-0.3
		c0.3,0,0.6,0.1,0.8,0.3c0.2,0.2,0.3,0.5,0.3,0.7c0,0.3-0.1,0.5-0.3,0.7c-0.2,0.2-0.5,0.3-0.8,0.3c-0.3,0-0.6-0.1-0.8-0.3
		C1031.4-2016.2,1031.3-2016.4,1031.3-2016.7L1031.3-2016.7z M1035.4-2008.7c0-1,0.2-1.9,0.6-2.8c0.4-0.8,1-1.5,1.7-1.9
		c0.7-0.5,1.6-0.7,2.5-0.7c1.3,0,2.6,0.5,3.5,1.5c0.9,1.1,1.4,2.5,1.3,4v0.1c0,1-0.2,1.9-0.6,2.8c-0.4,0.8-1,1.5-1.7,1.9
		c-0.8,0.5-1.6,0.7-2.5,0.7c-1.3,0-2.6-0.5-3.5-1.5c-0.9-1.1-1.4-2.5-1.3-4V-2008.7z M1037.2-2008.5c-0.1,1,0.2,2,0.8,2.8
		c0.5,0.7,1.3,1.1,2.2,1.1c0.9,0,1.7-0.4,2.2-1.1c0.6-0.9,0.9-2,0.8-3c0-1-0.2-2-0.8-2.8c-0.5-0.7-1.3-1.1-2.2-1.1
		c-0.9,0-1.7,0.4-2.2,1.1C1037.4-2010.7,1037.2-2009.6,1037.2-2008.5L1037.2-2008.5z M1054-2016.5v2.6h2v1.4h-2v6.6
		c0,0.3,0.1,0.7,0.3,1c0.2,0.2,0.6,0.4,0.9,0.3c0.3,0,0.6,0,0.9-0.1v1.5c-0.5,0.1-0.9,0.2-1.4,0.2c-0.7,0-1.4-0.2-1.8-0.7
		c-0.4-0.6-0.7-1.3-0.6-2.1v-6.6h-1.9v-1.4h1.9v-2.6L1054-2016.5z M1057.1-2008.7c0-1,0.2-1.9,0.6-2.8c0.4-0.8,1-1.5,1.7-1.9
		c0.7-0.5,1.6-0.7,2.5-0.7c1.3,0,2.6,0.5,3.5,1.5c0.9,1.1,1.4,2.5,1.3,4v0.1c0,1-0.2,1.9-0.6,2.8c-0.4,0.8-1,1.5-1.7,1.9
		c-0.8,0.5-1.6,0.7-2.5,0.7c-1.3,0-2.6-0.5-3.5-1.5c-0.9-1.1-1.4-2.5-1.3-4L1057.1-2008.7z M1058.9-2008.5c-0.1,1,0.2,2,0.8,2.8
		c0.5,0.7,1.3,1.1,2.2,1.1c0.9,0,1.7-0.4,2.2-1.1c0.6-0.9,0.9-2,0.8-3c0-1-0.2-2-0.8-2.8c-0.5-0.7-1.3-1.1-2.2-1.1
		c-0.9,0-1.7,0.4-2.2,1.1C1059.1-2010.6,1058.9-2009.6,1058.9-2008.5L1058.9-2008.5z M1071.1-2016.5v2.6h2v1.4h-2v6.6
		c0,0.3,0.1,0.7,0.3,1c0.2,0.2,0.6,0.4,0.9,0.3c0.3,0,0.6,0,0.9-0.1v1.5c-0.5,0.1-0.9,0.2-1.4,0.2c-0.7,0-1.4-0.2-1.8-0.7
		c-0.4-0.6-0.7-1.3-0.6-2.1v-6.6h-1.9v-1.4h1.9v-2.6L1071.1-2016.5z M1081.4-2003.3c-0.1-0.4-0.2-0.7-0.3-1.1
		c-0.8,0.8-1.9,1.3-3,1.3c-0.9,0-1.8-0.3-2.6-0.9c-0.7-0.6-1-1.4-1-2.2c0-1,0.4-2,1.3-2.6c1.1-0.7,2.3-1,3.5-0.9h1.8v-0.8
		c0-0.6-0.2-1.1-0.6-1.5c-0.5-0.4-1.1-0.6-1.7-0.6c-0.6,0-1.1,0.2-1.6,0.5c-0.4,0.3-0.6,0.7-0.7,1.2h-1.8c0-0.6,0.2-1.1,0.6-1.5
		c0.4-0.5,0.9-0.9,1.5-1.2c0.7-0.3,1.4-0.4,2.1-0.4c1-0.1,2.1,0.3,2.9,0.9c0.7,0.6,1.1,1.6,1.1,2.5v4.9c0,0.8,0.1,1.6,0.4,2.3v0.2
		H1081.4z M1078.4-2004.7c0.6,0,1.1-0.2,1.6-0.4c0.5-0.3,0.9-0.7,1.1-1.1v-2.2h-1.4c-2.2,0-3.3,0.6-3.3,1.9c0,0.5,0.2,1,0.6,1.3
		C1077.3-2004.9,1077.9-2004.7,1078.4-2004.7L1078.4-2004.7z M1087.4-2003.3h-1.8v-15h1.8V-2003.3z M1094.1-2008.7
		c-0.1-1.4,0.3-2.8,1.2-3.9c0.7-1,1.8-1.5,3-1.5c1.1,0,2.2,0.4,2.9,1.3v-5.5h1.8v15h-1.7l-0.1-1.1c-0.7,0.9-1.9,1.4-3,1.3
		c-1.2,0-2.3-0.5-3-1.5c-0.8-1.1-1.2-2.5-1.2-3.9V-2008.7z M1095.9-2008.5c-0.1,1,0.2,2,0.7,2.8c0.5,0.7,1.2,1,2.1,1
		c1.1,0,2.1-0.6,2.5-1.5v-4.9c-0.5-0.9-1.4-1.5-2.5-1.5c-0.8,0-1.6,0.4-2.1,1C1096.1-2010.6,1095.9-2009.6,1095.9-2008.5
		L1095.9-2008.5z M1109.9-2003.1c-1.3,0-2.6-0.5-3.5-1.4c-0.9-1-1.4-2.4-1.3-3.8v-0.3c0-1,0.2-1.9,0.6-2.8c0.4-0.8,1-1.5,1.7-1.9
		c0.7-0.5,1.5-0.7,2.3-0.7c1.2-0.1,2.4,0.4,3.2,1.4c0.8,1.1,1.2,2.5,1.1,3.9v0.8h-7.2c0,0.9,0.3,1.8,0.9,2.5c0.6,0.6,1.4,1,2.2,1
		c0.6,0,1.1-0.1,1.6-0.4c0.5-0.3,0.8-0.6,1.2-1l1.1,0.9C1113-2003.8,1111.5-2003,1109.9-2003.1z M1109.7-2012.6
		c-0.7,0-1.4,0.3-1.8,0.8c-0.5,0.6-0.9,1.4-0.9,2.2h5.3v-0.1c0-0.8-0.3-1.5-0.7-2.1C1111-2012.4,1110.4-2012.6,1109.7-2012.6
		L1109.7-2012.6z M1124.8-2003.1c-1.3,0-2.6-0.5-3.5-1.4c-0.9-1-1.4-2.4-1.3-3.8v-0.3c0-1,0.2-1.9,0.6-2.8c0.4-0.8,1-1.5,1.7-1.9
		c0.7-0.5,1.5-0.7,2.3-0.7c1.2-0.1,2.4,0.4,3.2,1.4c0.8,1.1,1.2,2.5,1.1,3.9v0.8h-7.2c0,0.9,0.3,1.8,0.9,2.5c0.6,0.6,1.4,1,2.2,1
		c0.6,0,1.1-0.1,1.6-0.4c0.5-0.3,0.8-0.6,1.2-1l1.1,0.9C1127.9-2003.8,1126.4-2003,1124.8-2003.1z M1124.6-2012.6
		c-0.7,0-1.4,0.3-1.8,0.8c-0.5,0.6-0.9,1.4-0.9,2.2h5.3v-0.1c0-0.8-0.3-1.5-0.7-2.1C1125.9-2012.4,1125.2-2012.6,1124.6-2012.6
		L1124.6-2012.6z M1131.6-2003.3v-9.2h-1.7v-1.4h1.7v-1.1c-0.1-1,0.3-1.9,0.9-2.6c0.7-0.7,1.6-1,2.6-0.9c0.4,0,0.8,0.1,1.2,0.2
		l-0.1,1.5c-0.3-0.1-0.6-0.1-1-0.1c-0.5,0-1,0.2-1.4,0.5c-0.3,0.4-0.5,0.9-0.5,1.5v1.1h2.3v1.4h-2.3v9.2H1131.6z M1141.7-2003.1
		c-1.3,0-2.6-0.5-3.5-1.4c-0.9-1-1.4-2.4-1.3-3.8v-0.3c0-1,0.2-1.9,0.6-2.8c0.4-0.8,1-1.5,1.7-1.9c0.7-0.5,1.5-0.7,2.3-0.7
		c1.2-0.1,2.4,0.4,3.2,1.4c0.8,1.1,1.2,2.5,1.1,3.9v0.8h-7.1c0,0.9,0.3,1.8,0.9,2.5c0.6,0.6,1.4,1,2.2,1c0.6,0,1.1-0.1,1.6-0.4
		c0.5-0.3,0.8-0.6,1.2-1l1.1,0.9C1144.8-2003.8,1143.3-2003,1141.7-2003.1L1141.7-2003.1z M1141.4-2012.6c-0.7,0-1.4,0.3-1.8,0.8
		c-0.5,0.6-0.9,1.4-0.9,2.2h5.3v-0.1c0-0.8-0.3-1.5-0.7-2.1C1142.8-2012.4,1142.1-2012.6,1141.4-2012.6L1141.4-2012.6z
		 M1151.8-2004.6c0.6,0,1.2-0.2,1.7-0.6c0.5-0.4,0.8-0.9,0.8-1.5h1.7c0,0.6-0.3,1.2-0.6,1.7c-0.4,0.6-0.9,1-1.5,1.3
		c-0.6,0.3-1.3,0.5-2,0.5c-1.3,0.1-2.6-0.5-3.4-1.4c-0.9-1.1-1.4-2.5-1.3-3.9v-0.3c0-0.9,0.2-1.9,0.6-2.7c0.3-0.8,0.9-1.4,1.6-1.9
		c0.8-0.5,1.6-0.7,2.5-0.7c1.1,0,2.1,0.3,3,1.1c0.8,0.7,1.2,1.7,1.3,2.8h-1.7c0-0.6-0.3-1.2-0.8-1.7c-0.5-0.4-1.1-0.7-1.7-0.7
		c-0.8,0-1.6,0.3-2.1,1c-0.6,0.8-0.8,1.9-0.8,2.9v0.3c-0.1,1,0.2,2,0.8,2.8C1150.1-2004.9,1150.9-2004.6,1151.8-2004.6
		L1151.8-2004.6z M1160.1-2016.5v2.6h2v1.4h-2v6.6c0,0.3,0.1,0.7,0.3,1c0.2,0.2,0.6,0.4,0.9,0.3c0.3,0,0.6,0,0.9-0.1v1.5
		c-0.5,0.1-0.9,0.2-1.4,0.2c-0.7,0-1.4-0.2-1.8-0.7c-0.4-0.6-0.7-1.3-0.6-2.1v-6.6h-1.9v-1.4h1.9v-2.6L1160.1-2016.5z
		 M1165.8-2003.3h-1.8v-10.6h1.8V-2003.3z M1163.9-2016.7c0-0.3,0.1-0.5,0.3-0.7c0.2-0.2,0.5-0.3,0.8-0.3c0.3,0,0.6,0.1,0.8,0.3
		c0.2,0.2,0.3,0.5,0.3,0.7c0,0.3-0.1,0.5-0.3,0.7c-0.2,0.2-0.5,0.3-0.8,0.3c-0.3,0-0.6-0.1-0.8-0.3
		C1164-2016.2,1163.9-2016.4,1163.9-2016.7z M1171.9-2005.8l2.6-8.1h1.8l-3.8,10.6h-1.4l-3.8-10.6h1.8L1171.9-2005.8z
		 M1177.1-2008.7c0-1,0.2-1.9,0.6-2.8c0.4-0.8,1-1.5,1.7-1.9c0.7-0.5,1.6-0.7,2.5-0.7c1.3,0,2.6,0.5,3.5,1.5c0.9,1.1,1.4,2.5,1.3,4
		v0.1c0,1-0.2,1.9-0.6,2.8c-0.4,0.8-1,1.4-1.7,1.9c-0.8,0.5-1.6,0.7-2.5,0.7c-1.3,0-2.6-0.5-3.5-1.5c-0.9-1.1-1.4-2.5-1.3-4V-2008.7
		z M1179-2008.5c-0.1,1,0.2,2,0.8,2.8c0.5,0.7,1.3,1.1,2.2,1.1c0.9,0,1.7-0.4,2.2-1.1c0.6-0.9,0.9-2,0.8-3c0-1-0.2-2-0.8-2.8
		c-0.5-0.7-1.3-1.1-2.2-1.1c-0.9,0-1.7,0.4-2.2,1.1C1179.2-2010.7,1178.9-2009.6,1179-2008.5L1179-2008.5z"/>
</g>
</svg>
