<svg xmlns="http://www.w3.org/2000/svg" width="241.032" height="233.525" viewBox="0 0 241.032 233.525"><defs><style>.a{fill:#f5f5f5;}.b{fill:#e0e0e0;}.c{fill:#ebebeb;}.d{fill:#263238;}.e{fill:#ffbe9d;}.f{fill:#eb996e;}.g{fill:#455a64;}.h{fill:#d9a171;}.i{fill:#fff;}.j{opacity:0.3;}.k{fill:#344154;}</style></defs><g transform="translate(-9.093 -12.847)"><g transform="translate(14.848 34.803)"><rect class="a" width="48.479" height="43.647" transform="translate(0 126.571)"/><rect class="b" width="35.834" height="13.35" rx="6.675" transform="translate(6.325 145.168)"/><path class="b" d="M77.326,327.09c0,.073-10.685.13-23.848.13s-23.848-.057-23.848-.13,10.685-.13,23.848-.13S77.326,327.038,77.326,327.09Z" transform="translate(-29.117 -192.254)"/><path class="b" d="M36.846,319.883a1.2,1.2,0,1,1-1.2-1.2A1.2,1.2,0,0,1,36.846,319.883Z" transform="translate(-31.433 -188.267)"/><path class="b" d="M43.7,319.883a1.2,1.2,0,1,1-1.2-1.2h0a1.192,1.192,0,0,1,1.2,1.2Z" transform="translate(-34.732 -188.267)"/><path class="b" d="M50.556,319.883a1.2,1.2,0,1,1-1.2-1.2,1.2,1.2,0,0,1,1.2,1.2Z" transform="translate(-38.035 -188.267)"/><rect class="b" width="63.566" height="23.682" rx="11.841" transform="translate(5.309 0.099)"/><path class="a" d="M340.77,67.13V126.9l9.627-9.985h45.659V67.13Z" transform="translate(-178.95 -67.13)"/><path class="b" d="M396.3,85.22c0,.083-12.188.15-27.218.15s-27.218-.067-27.218-.15,12.183-.15,27.218-.15S396.3,85.143,396.3,85.22Z" transform="translate(-179.475 -75.769)"/><path class="b" d="M350.118,76.939a1.374,1.374,0,1,1-1.384-1.369h0a1.374,1.374,0,0,1,1.384,1.369Z" transform="translate(-182.128 -71.194)"/><path class="b" d="M357.938,76.934a1.374,1.374,0,1,1-1.374-1.374h0a1.369,1.369,0,0,1,1.374,1.374Z" transform="translate(-185.894 -71.19)"/><path class="b" d="M365.757,76.939a1.369,1.369,0,1,1-1.369-1.369A1.369,1.369,0,0,1,365.757,76.939Z" transform="translate(-189.665 -71.194)"/><path class="a" d="M426.683,366.032a12.183,12.183,0,1,1-5.506-16.331h.031a12.168,12.168,0,0,1,5.475,16.331Z" transform="translate(-209.198 -202.595)"/><path class="c" d="M426.794,367.415a9.285,9.285,0,1,1-4.147-12.442h0A9.27,9.27,0,0,1,426.794,367.415Z" transform="translate(-211.902 -205.269)"/><path class="b" d="M427.715,366.831a5.748,5.748,0,0,1,.28-1.1,9.622,9.622,0,0,0-.031-5.086,9.331,9.331,0,0,0-.954-2.188,8.585,8.585,0,0,0-1.659-2.032,8.294,8.294,0,0,0-1.094-.861,8.45,8.45,0,0,0-1.249-.7,8.98,8.98,0,0,0-1.343-.518,8.689,8.689,0,0,0-1.364-.27,8.293,8.293,0,0,0-1.343-.062,7.658,7.658,0,0,0-1.286.124,9.223,9.223,0,0,0-2.281.7,9.523,9.523,0,0,0-3.878,3.282c-.415.6-.612.954-.664.933a2.675,2.675,0,0,1,.425-1.078,8.6,8.6,0,0,1,2.012-2.452,9.29,9.29,0,0,1,4.267-2.027,8.287,8.287,0,0,1,1.379-.161,9.274,9.274,0,0,1,2.919.332,9.681,9.681,0,0,1,1.452.518,9.878,9.878,0,0,1,1.348.762,9.2,9.2,0,0,1,1.177.933,8.659,8.659,0,0,1,.975,1.068,8.262,8.262,0,0,1,.772,1.151,9.3,9.3,0,0,1,1.234,4.562,8.632,8.632,0,0,1-.549,3.111C427.99,366.51,427.756,366.852,427.715,366.831Z" transform="translate(-212.698 -204.949)"/><path class="b" d="M420.389,371.8l-.705,1.483-1.3-.627.679-1.421a6.9,6.9,0,0,1-2.737-2.592l1.478-1.244a5.853,5.853,0,0,0,2.074,2.136l1.037-2.172c-1.275-1.037-2.66-2.3-1.763-4.148.664-1.379,2.234-2.074,4.4-1.327l.7-1.441,1.3.622-.658,1.379a6.57,6.57,0,0,1,2.26,2.074l-1.421,1.291a5.843,5.843,0,0,0-1.669-1.638l-1.063,2.214c1.281,1.037,2.639,2.276,1.758,4.111C424.1,371.845,422.551,372.54,420.389,371.8Zm1.462-6.377.892-1.846c-.767-.176-1.218.073-1.426.518s.052.892.518,1.327Zm.731,4.215c.218-.456-.036-.887-.518-1.348l-.866,1.773c.736.171,1.182-.031,1.384-.43Z" transform="translate(-215.337 -208.382)"/></g><g transform="translate(16.123 244.967)"><path class="d" d="M255.853,472.645c0,.073-50.314.135-112.371.135S31.1,472.717,31.1,472.645s50.288-.135,112.382-.135S255.853,472.567,255.853,472.645Z" transform="translate(-31.1 -472.51)"/></g><g transform="translate(58.518 78.762)"><path class="e" d="M247.508,189.632l-1.177,47.758c-.2,8.124-2.152,20.012-14.978,19.11h0c-11.069-1.618-13.63-12.251-13.433-19.83.093-3.593.161-6.589.145-6.963,0,0-12.131-1.441-12.712-13.479-.28-5.827.114-17.871.6-28.768a22.479,22.479,0,0,1,21.66-21.448l1.161-.041C241.343,166.234,248.156,177.07,247.508,189.632Z" transform="translate(-157.364 -158.687)"/><path class="f" d="M229.966,284.094a29.279,29.279,0,0,0,15.553-5.184s-3.515,8.948-15.589,8.295Z" transform="translate(-169.244 -213.074)"/><path class="d" d="M245.837,216.525c.228.254,1.659-.814,3.676-.793s3.479,1.037,3.7.814c.109-.114-.124-.565-.762-1.037a5.05,5.05,0,0,0-2.965-.959,4.816,4.816,0,0,0-2.924.944C245.946,215.96,245.733,216.411,245.837,216.525Z" transform="translate(-176.892 -182.081)"/><path class="d" d="M245.12,225.788a1.628,1.628,0,0,0,1.628,1.586,1.555,1.555,0,0,0,1.628-1.483v-.047a1.623,1.623,0,0,0-1.628-1.586,1.555,1.555,0,0,0-1.628,1.478Z" transform="translate(-176.559 -186.755)"/><path class="d" d="M230.7,230.654a12.737,12.737,0,0,0-3.028-.435c-.477-.031-.928-.109-1.037-.425a2.385,2.385,0,0,1,.27-1.415c.4-1.161.824-2.38,1.27-3.629,1.758-5.184,3.012-9.472,2.8-9.539s-1.809,4.09-3.567,9.29c-.425,1.275-.829,2.5-1.213,3.676a2.752,2.752,0,0,0-.176,1.866,1.2,1.2,0,0,0,.8.664,3.271,3.271,0,0,0,.809.083A12.39,12.39,0,0,0,230.7,230.654Z" transform="translate(-167.312 -182.398)"/><path class="d" d="M248.06,202.54c.176.456,1.8.176,3.728.347s3.5.653,3.738.233c.109-.2-.176-.622-.819-1.037a6.024,6.024,0,0,0-2.794-.9,5.957,5.957,0,0,0-2.893.456C248.324,201.949,247.982,202.322,248.06,202.54Z" transform="translate(-177.97 -175.634)"/><path class="d" d="M210.4,203.27c.2.373,1.783,0,3.691.036s3.474.316,3.691-.057c.093-.176-.207-.518-.861-.829a6.589,6.589,0,0,0-2.8-.57,6.8,6.8,0,0,0-2.825.586C210.63,202.751,210.309,203.073,210.4,203.27Z" transform="translate(-159.831 -175.964)"/><path class="e" d="M285.395,228.463c.207-.1,8.2-2.748,8.233,5.506s-8.259,6.584-8.295,6.346S285.395,228.463,285.395,228.463Z" transform="translate(-195.92 -188.549)"/><path class="f" d="M290.212,239.614c.036,0,.145.1.384.213a1.488,1.488,0,0,0,1.078,0c.871-.321,1.6-1.711,1.633-3.2a4.739,4.739,0,0,0-.41-2.074,1.669,1.669,0,0,0-1.089-1.1.731.731,0,0,0-.845.4c-.109.228-.057.394-.1.41s-.181-.14-.114-.477a.871.871,0,0,1,.321-.518,1.037,1.037,0,0,1,.793-.218,2.017,2.017,0,0,1,1.509,1.275,4.847,4.847,0,0,1,.518,2.3c-.047,1.664-.892,3.22-2.074,3.572a1.555,1.555,0,0,1-1.317-.213C290.228,239.816,290.181,239.63,290.212,239.614Z" transform="translate(-198.27 -190.985)"/><path class="d" d="M252.975,178.921c-1.612-2.971-1.882-6.455-2.7-9.731s-3.225-7.44-6.361-8.689a7.991,7.991,0,0,0-8.912.264c-.425-4.308-3.245-6.843-7.383-8.1s-10.887-.845-14.941.622c-3.147,1.13-6.221,3.577-10.021,7.2a40.192,40.192,0,0,0-4.4,4.941l-4.049,11.089,2.9,6c.171.41.347.814.565,1.218h0l2.349,12.51c.306-3.375.518-15.154.793-18.529a18.908,18.908,0,0,0,13.682-5.7c1.923-1.98,3.468-4.49,5.988-5.625,3.245-1.457,7-.166,10.317,1.125l-.14-.135a15.034,15.034,0,0,1,4.531,3.531,46.981,46.981,0,0,0,1.3,19.929c.28.969,1.068,2.981,2,3.38,1.825.783,2.39-1.084,3.541-2.043a4.908,4.908,0,0,1,3.4-.705,77.384,77.384,0,0,0,2.592-8.471,7.512,7.512,0,0,0,3.453.358q-.493-1.291-.969-2.592a4.028,4.028,0,0,0,1.452.726,1.348,1.348,0,0,0,1.431-.56A2.212,2.212,0,0,0,252.975,178.921Z" transform="translate(-152.043 -151.921)"/><path class="g" d="M267.05,173.21a9.411,9.411,0,0,1,1.166,1.151,8.518,8.518,0,0,1,1.7,4.059,15.556,15.556,0,0,1,.192,3.064c-.036,1.109-.171,2.291-.3,3.536a31.2,31.2,0,0,0-.233,3.94,13.294,13.294,0,0,0,.192,2.074,4.324,4.324,0,0,0,.772,2.048,1.82,1.82,0,0,0,1.675.632,2.727,2.727,0,0,0,1.555-.8,6.258,6.258,0,0,0,1.27-3.017l-.254.026a10.517,10.517,0,0,0,1.369,2.592,3.629,3.629,0,0,0,2.291,1.358,2.343,2.343,0,0,0,1.249-.171,2,2,0,0,0,.871-.8,2.1,2.1,0,0,0,.3-1.037,1.467,1.467,0,0,0-.353-.949l-.13.109a7.776,7.776,0,0,0,2.509,2.032,8.218,8.218,0,0,0,.788.342,2.59,2.59,0,0,0,.285.083.881.881,0,0,0-.264-.124c-.176-.083-.441-.2-.762-.378a8.025,8.025,0,0,1-2.421-2.074l-.135.109a1.555,1.555,0,0,1,0,1.789,1.851,1.851,0,0,1-.788.705,2.11,2.11,0,0,1-1.13.14,3.339,3.339,0,0,1-2.126-1.291,10.126,10.126,0,0,1-1.317-2.514l-.161-.394-.093.415a6.11,6.11,0,0,1-1.213,2.883,2.473,2.473,0,0,1-1.395.721,1.555,1.555,0,0,1-1.42-.518,4.085,4.085,0,0,1-.715-1.918,13.546,13.546,0,0,1-.192-2.043,30.759,30.759,0,0,1,.218-3.909c.124-1.244.249-2.431.275-3.556a14.851,14.851,0,0,0-.233-3.111,8.5,8.5,0,0,0-1.809-4.1A4.713,4.713,0,0,0,267.05,173.21Z" transform="translate(-187.12 -162.173)"/><path class="d" d="M210.393,216.675c.228.254,1.659-.814,3.676-.793s3.479,1.037,3.7.814c.109-.114-.124-.565-.762-1.037a5.018,5.018,0,0,0-2.96-.959,4.878,4.878,0,0,0-2.929.944C210.5,216.11,210.279,216.566,210.393,216.675Z" transform="translate(-159.822 -182.153)"/><path class="d" d="M212.75,224.578a1.633,1.633,0,0,0,1.633,1.586,1.555,1.555,0,0,0,1.623-1.488v-.041a1.623,1.623,0,0,0-1.628-1.586,1.555,1.555,0,0,0-1.628,1.478Z" transform="translate(-160.971 -186.173)"/><path class="d" d="M193.957,175.33c-1.037,1.327-2.665,2.52-4.344,2.3a13.15,13.15,0,0,1-1.778-.57c-.6.342-.518,2.359-.119,2.929a11.572,11.572,0,0,0,1.234,1.338c-2.006,1.037-3.79.446-5.879-.378a10.332,10.332,0,0,0,5.936,8.44,3.636,3.636,0,0,0,3.318.145,4.067,4.067,0,0,0,1.519-2.556,45.36,45.36,0,0,0,1.752-11.017Z" transform="translate(-146.678 -163.194)"/><path class="f" d="M238.242,252.009a1.649,1.649,0,0,1,1.441-.871,1.857,1.857,0,0,1,1.446.337,2.618,2.618,0,0,1,.575,2.96,2.177,2.177,0,0,1-2.732,1.037c-.98-.451-1.369-2.976-.69-3.816" transform="translate(-173.102 -199.699)"/><path class="d" d="M237.723,253.688a3.531,3.531,0,0,1,.213.472,1.726,1.726,0,0,0,1,.887,2.545,2.545,0,0,0,1.954-.233,2.043,2.043,0,0,0-1-3.665,2,2,0,0,0-1.783.731,2.043,2.043,0,0,0-.415,1.286c0,.332.057.518.031.518s-.026-.041-.057-.13a1.721,1.721,0,0,1-.078-.389,2.017,2.017,0,0,1,.368-1.4,2.146,2.146,0,0,1,1.96-.861,2.276,2.276,0,0,1,1.1,4.147,2.711,2.711,0,0,1-2.152.2,1.794,1.794,0,0,1-1.037-1.037,1.693,1.693,0,0,1-.109-.384Z" transform="translate(-172.926 -199.579)"/><path class="g" d="M227.313,169.515a7.565,7.565,0,0,0-1.224-1.555,8.015,8.015,0,0,0-4.842-2.074,9.809,9.809,0,0,0-3.655.43,14.615,14.615,0,0,0-3.816,1.856c-2.514,1.664-4.739,4.147-7.17,6.662a31.705,31.705,0,0,1-3.816,3.4,15.408,15.408,0,0,1-4.2,2.25,13.868,13.868,0,0,1-7.984.13,13.63,13.63,0,0,1-4.827-2.447l-.653-.55c-.187-.161-.321-.321-.441-.441l-.264-.28c-.057-.062-.088-.1-.083-.1l.1.083.28.259c.124.114.27.27.456.425l.653.518a14,14,0,0,0,4.811,2.343,13.734,13.734,0,0,0,7.854-.181,15.392,15.392,0,0,0,4.147-2.224,33.348,33.348,0,0,0,3.779-3.375c2.421-2.488,4.666-5,7.227-6.683a14.676,14.676,0,0,1,3.888-1.861,9.913,9.913,0,0,1,3.738-.41,7.984,7.984,0,0,1,4.878,2.219,5.847,5.847,0,0,1,.918,1.156l.181.337C227.318,169.464,227.318,169.51,227.313,169.515Z" transform="translate(-147.289 -158.536)"/><path class="e" d="M221.04,294.154l4.573-.907L253.9,291.5l6.029,1.643-.793,14.682-13.63,8.689-13.22-.259-8.316-7.574-1.84-7.512Z" transform="translate(-164.963 -219.137)"/><path class="h" d="M255.373,317.267a89.05,89.05,0,0,0-5.433-9.716A24.226,24.226,0,0,0,235.994,297.4L214.22,291.49s-1.13,21.774-16.118,21.774-17.907-20.411-17.907-20.411l-25.222,10.063c-.866.337-6.714,2.359-13.521,16.953-6.48,13.9-9.332,21.007-9.332,21.007l25.953,7.5,1.623,23.366-.55,13.334L238,384.9l-.441-15.252.332-23.387.985,1.592,26.243-10.524S261.735,330.409,255.373,317.267Z" transform="translate(-122.143 -219.132)"/><path class="d" d="M336.149,368.45c.119,0,.047,8.451-.155,18.871s-.441,18.85-.555,18.85-.047-8.451.156-18.871S336.056,368.45,336.149,368.45Z" transform="translate(-220.027 -256.194)"/><path class="d" d="M174.6,359.21a3.628,3.628,0,0,1,.29.866c.156.565.368,1.389.617,2.406.518,2.043,1.1,4.873,1.675,8.025s.975,6.024,1.224,8.1c.124,1.037.218,1.887.264,2.473a3.836,3.836,0,0,1,.031.912,3.572,3.572,0,0,1-.2-.892c-.1-.669-.233-1.488-.389-2.452-.321-2.074-.783-4.925-1.348-8.072s-1.13-5.978-1.555-8.031c-.192-.959-.353-1.773-.487-2.437A4.112,4.112,0,0,1,174.6,359.21Z" transform="translate(-142.599 -251.744)"/><path class="e" d="M125.071,388l-10.576,21.22a15.46,15.46,0,0,0-1.6,7.642h0a15.465,15.465,0,0,0,15.449,14.687l30.3-1.758,1.327-13.8-23.055-5.563,8.736-16.517Z" transform="translate(-112.875 -265.608)"/><path class="f" d="M143.6,430.848c0,.1-1.037-.078-2.722-.067a20.806,20.806,0,0,0-6.392,1.13,19.248,19.248,0,0,0-5.7,3.038c-1.306,1.037-1.929,1.882-2,1.83s.109-.249.384-.638a10.066,10.066,0,0,1,1.379-1.478,17.171,17.171,0,0,1,5.8-3.251,18.352,18.352,0,0,1,6.543-1,11.787,11.787,0,0,1,2,.238A2.177,2.177,0,0,1,143.6,430.848Z" transform="translate(-119.566 -286.028)"/><path class="f" d="M171.624,399.079a5.988,5.988,0,0,1-.518,1.623,31.349,31.349,0,0,1-3.94,7.149,5.941,5.941,0,0,1-1.109,1.281c-.1-.073,1.426-2.152,2.95-4.92S171.51,399.038,171.624,399.079Z" transform="translate(-138.483 -270.943)"/><path class="e" d="M353.549,428.762H318V415.334l20.6-8.7-7.642-16.015,20.623-8.295,10.068,22.4c2.338,6.506,4.728,9.6,2.691,15.517C363.26,423.308,358.884,428.762,353.549,428.762Z" transform="translate(-211.655 -262.873)"/><path class="e" d="M189.3,436.347h5.931s13.381-4.837,16.134-4.376c2.478.415,11.556,6.444,13.334,7.637a1.11,1.11,0,0,1,.43.55h0a1.949,1.949,0,0,1-1.084,2.473l-.187.078.078.27a3.177,3.177,0,0,1,.14,1.084,1.306,1.306,0,0,1-2.431.565l.342.607a1.478,1.478,0,0,1,.187.814l-.031.555a1.493,1.493,0,0,1-1.037,1.332h0a1.5,1.5,0,0,1-1.555-.41c-1.151-1.265-3.629-3.8-5.319-4.08a38.847,38.847,0,0,0-5.49-.28,1.867,1.867,0,0,0-1.732,1.192h0c1,.073,7.953,3.7,10.415,4.993a2.634,2.634,0,0,1,1.431,1.986c.088.767-.3,1.555-1.825,1.218a67.173,67.173,0,0,1-9.15-3.468s-3.038-.866-5,.518c-2.768,1.955-4.033,2.67-6.408,1.882a20.34,20.34,0,0,1-4.147-1.918l-4.666-.467S183.254,438.042,189.3,436.347Z" transform="translate(-148.143 -286.768)"/><path class="f" d="M226.36,444.269c0,.052.949-.249,2.514-.353a12.961,12.961,0,0,1,10.815,4.6,23.565,23.565,0,0,1,1.488,2.074,2.638,2.638,0,0,0-.3-.622,10.819,10.819,0,0,0-1.037-1.555,12.562,12.562,0,0,0-10.97-4.666,10.183,10.183,0,0,0-1.846.316A2.518,2.518,0,0,0,226.36,444.269Z" transform="translate(-167.525 -292.43)"/><path class="f" d="M229.09,437.952a10.962,10.962,0,0,1,2.592-.456,11.406,11.406,0,0,1,6.1,1.737,24.2,24.2,0,0,1,4.9,4.148l1.348,1.426a4.452,4.452,0,0,0,.518.518,4.288,4.288,0,0,0-.441-.57c-.3-.358-.731-.871-1.286-1.488a22.719,22.719,0,0,0-4.91-4.246,11.079,11.079,0,0,0-6.221-1.685,7.258,7.258,0,0,0-1.944.358,3.894,3.894,0,0,0-.518.192C229.142,437.911,229.085,437.942,229.09,437.952Z" transform="translate(-168.839 -289.363)"/><path class="e" d="M301.314,437.117h-5.936S282,432.28,279.244,432.741c-2.478.415-11.556,6.444-13.334,7.637a1.11,1.11,0,0,0-.43.55h0a1.954,1.954,0,0,0,1.084,2.473l.187.078-.078.27a3.177,3.177,0,0,0-.14,1.084,1.306,1.306,0,0,0,2.431.565l-.342.607a1.555,1.555,0,0,0-.187.814l.031.55A1.477,1.477,0,0,0,269.5,448.7h0a1.488,1.488,0,0,0,1.555-.4c1.151-1.27,3.629-3.805,5.319-4.085a38.96,38.96,0,0,1,5.5-.275,1.866,1.866,0,0,1,1.726,1.192h0c-1,.067-7.953,3.7-10.415,4.993a2.634,2.634,0,0,0-1.431,1.98c-.088.772.3,1.581,1.825,1.224a67.174,67.174,0,0,0,9.15-3.468s3.038-.871,5,.518c2.768,1.955,4.033,2.67,6.408,1.882a20.346,20.346,0,0,0,4.147-1.918l4.666-.467S307.364,438.828,301.314,437.117Z" transform="translate(-186.307 -287.139)"/><path class="f" d="M286.828,445.093c0,.052-.949-.249-2.514-.347a12.961,12.961,0,0,0-10.835,4.619,15.551,15.551,0,0,0-1.488,2.074,2.941,2.941,0,0,1,.3-.617,10.821,10.821,0,0,1,1.037-1.555,12.562,12.562,0,0,1,10.97-4.666,11.157,11.157,0,0,1,1.846.311A2.945,2.945,0,0,1,286.828,445.093Z" transform="translate(-189.499 -292.839)"/><path class="f" d="M283.509,438.747a10.749,10.749,0,0,0-2.592-.456,11.405,11.405,0,0,0-6.086,1.726,24.537,24.537,0,0,0-4.9,4.148l-1.348,1.431a4.451,4.451,0,0,1-.518.518,4.02,4.02,0,0,1,.441-.575c.3-.353.731-.866,1.291-1.483a22.293,22.293,0,0,1,4.9-4.246,11.079,11.079,0,0,1,6.221-1.685,7.261,7.261,0,0,1,1.939.358,3.118,3.118,0,0,1,.518.192A.486.486,0,0,1,283.509,438.747Z" transform="translate(-187.606 -289.744)"/><path class="f" d="M373.282,428.321c-.031.047-.8-.518-2.2-1.166-.347-.156-.731-.327-1.161-.472s-.881-.29-1.369-.43a16.357,16.357,0,0,0-6.537-.378c-.518.088-.975.155-1.41.275a10.675,10.675,0,0,0-1.208.337c-1.462.477-2.3.949-2.323.9a2.536,2.536,0,0,1,.581-.347,4.74,4.74,0,0,1,.71-.347,8.226,8.226,0,0,1,.969-.389,10.016,10.016,0,0,1,1.218-.373,13.4,13.4,0,0,1,1.426-.3,15.594,15.594,0,0,1,6.636.378c.493.156.964.285,1.384.467a9.745,9.745,0,0,1,1.166.518,7.144,7.144,0,0,1,.923.518,5.37,5.37,0,0,1,.664.43A2.7,2.7,0,0,1,373.282,428.321Z" transform="translate(-230.47 -283.636)"/><path class="b" d="M255.6,420.538H181.515a3.935,3.935,0,0,1-3.925-3.764l-2.224-50.988a3.93,3.93,0,0,1,3.748-4.106h78.564a3.935,3.935,0,0,1,3.935,3.935c0,.052,0,.1,0,.161l-2.074,50.988a3.93,3.93,0,0,1-3.94,3.774Z" transform="translate(-142.966 -252.933)"/><path class="d" d="M255.5,420.277a4.8,4.8,0,0,0,.715-.083,3.877,3.877,0,0,0,1.861-.923,3.95,3.95,0,0,0,1.322-3.033q.078-2.037.181-4.692c.28-7.061.679-17.274,1.177-29.9q.187-4.744.394-9.907c.067-1.721.14-3.479.207-5.267,0-.446.052-.907.036-1.343a3.836,3.836,0,0,0-2.1-3.188,3.789,3.789,0,0,0-1.3-.389c-.446-.036-.928,0-1.4,0h-77.05a4.147,4.147,0,0,0-1.716.259,3.8,3.8,0,0,0-2.271,2.452,4.19,4.19,0,0,0-.156.845v.876c.026.591.047,1.182.073,1.773l.156,3.531q.306,7.035.6,13.853c.394,9.083.772,17.839,1.135,26.186.047,1.037.088,2.074.135,3.111,0,.518.041,1.037.067,1.555a5.538,5.538,0,0,0,.187,1.483,3.836,3.836,0,0,0,1.809,2.224,3.883,3.883,0,0,0,1.374.441c.472.052.98.026,1.472.031h32.179l29.919.041,8.134.026H244.51l-29.919.041H182.448c-.518,0-.985,0-1.5-.031a4.07,4.07,0,0,1-3.385-2.831,5.64,5.64,0,0,1-.2-1.555c0-.518-.047-1.037-.073-1.555q-.062-1.555-.135-3.111c-.368-8.347-.752-17.108-1.151-26.186q-.3-6.812-.607-13.853c-.052-1.172-.1-2.349-.15-3.531l-.078-1.773a8.72,8.72,0,0,1,0-.9,4.438,4.438,0,0,1,.161-.907,4.059,4.059,0,0,1,2.431-2.623,4.427,4.427,0,0,1,1.815-.28h77.035c.477,0,.938,0,1.426.026a4.059,4.059,0,0,1,3.271,2.437,4.148,4.148,0,0,1,.321,1.353c0,.472,0,.907-.036,1.358q-.109,2.691-.218,5.273-.218,5.184-.415,9.907c-.518,12.619-.959,22.811-1.26,29.893q-.119,2.644-.2,4.666a4.028,4.028,0,0,1-1.369,3.074,3.94,3.94,0,0,1-1.892.912c-.171.026-.342.041-.518.052Z" transform="translate(-142.868 -252.672)"/><path class="i" d="M258.819,416.439a4.059,4.059,0,1,1-4.059-4.059h0a4.065,4.065,0,0,1,4.059,4.059Z" transform="translate(-179.246 -277.349)"/></g><g transform="translate(168.259 100.805)"><path class="d" d="M399.832,203.7v.928c0,.617,0,1.555.031,2.748,0,2.421.057,5.978.1,10.54.078,9.15.192,22.324.337,38.432v.109H400.2l-55.784.026.093-.041L333.389,268.6l-.233.254v-12.5l.135.135h-8.373v-.135c-.13-18.964-.254-36.84-.368-52.652v-.124h.119l54.394.062,15.341.031h-.052l-15.366.031-54.317.062.124-.124c.119,15.812.254,33.7.394,52.653l-.135-.13H333.4v12.308l-.233-.088,11.12-12.116.036-.041h55.919l-.1.109c-.093-16.072-.171-29.235-.223-38.364-.026-4.573-.042-8.139-.052-10.566v-2.768C399.863,204.005,399.832,203.7,399.832,203.7Z" transform="translate(-324.55 -198.841)"/><path class="d" d="M399.9,218.029c0,.062-16.652.119-37.193.119s-37.2-.057-37.2-.119,16.652-.119,37.2-.119S399.9,217.957,399.9,218.029Z" transform="translate(-325.007 -205.742)"/><ellipse class="b" cx="0.995" cy="1.089" rx="0.995" ry="1.089" transform="translate(2.592 8.248)"/><ellipse class="b" cx="0.995" cy="1.089" rx="0.995" ry="1.089" transform="translate(5.537 8.248)"/><ellipse class="b" cx="0.995" cy="1.089" rx="0.995" ry="1.089" transform="translate(8.476 8.248)"/><path class="i" d="M394.34,254.357V248.1a.4.4,0,0,1,.4-.4.394.394,0,0,1,.2.057l5.589,3.152a.4.4,0,0,1,0,.695l-5.594,3.111a.4.4,0,0,1-.518-.145A.394.394,0,0,1,394.34,254.357Z" transform="translate(-358.158 -220.088)"/><circle class="h" cx="7.154" cy="7.154" r="7.154" transform="translate(67.558)"/><rect class="i" width="6.449" height="1.441" transform="translate(71.924 8.922) rotate(-45)"/><rect class="i" width="1.441" height="6.449" transform="translate(71.918 5.372) rotate(-45)"/></g><g transform="translate(101.614 12.847)"><path class="i" d="M196.25,39.69V91.176h47.022l10.161,7.86V39.69Z" transform="translate(-196.12 -31.96)"/><path class="d" d="M196.13,39.608h4.085l11.608-.031L253.3,39.52h.114V99.254l-.218-.166L243.069,91.2H196v-.109c.026-15.553.041-28.41.057-37.416,0-4.49,0-8.01.031-10.41v.047c0,2.406,0,5.936.026,10.431,0,8.99.036,21.847.057,37.327l-.109-.109h47.069l.036.026,10.177,7.88-.218.109V39.629l.119.119-41.413-.062L200.2,39.66h-3.868Z" transform="translate(-196 -31.878)"/><path class="d" d="M253.642,58.406c0,.083-12.608.156-28.151.156s-28.151-.073-28.151-.156,12.6-.156,28.151-.156S253.642,58.317,253.642,58.406Z" transform="translate(-196.645 -40.898)"/><path class="b" d="M205.921,49.826A1.421,1.421,0,1,1,204.5,48.4h0a1.42,1.42,0,0,1,1.421,1.426Z" transform="translate(-199.409 -36.155)"/><path class="b" d="M214,49.831a1.421,1.421,0,1,1-1.421-1.421h0A1.415,1.415,0,0,1,214,49.825Z" transform="translate(-203.3 -36.159)"/><path class="b" d="M222.091,49.831a1.418,1.418,0,1,1,.005,0Z" transform="translate(-207.196 -36.159)"/><path class="h" d="M256.618,80.212a15.926,15.926,0,1,1-16.336-15.506h.031A15.911,15.911,0,0,1,256.618,80.212Z" transform="translate(-209.855 -44.004)"/><path class="h" d="M256.307,83.816A12.142,12.142,0,1,1,243.865,72h0a12.116,12.116,0,0,1,12.442,11.789Z" transform="translate(-213.35 -47.515)"/><g class="j" transform="translate(18.521 24.017)"><path d="M256.162,83.007a7.073,7.073,0,0,1-.358-1.452,12.889,12.889,0,0,0-1.488-3.686,12.231,12.231,0,0,0-4.1-4.1,10.2,10.2,0,0,0-1.5-.767,10.013,10.013,0,0,0-1.664-.57,11.6,11.6,0,0,0-1.783-.327,12.1,12.1,0,0,0-3.733.207,11.66,11.66,0,0,0-3.334,1.27,11.345,11.345,0,0,0-1.4.928,12.183,12.183,0,0,0-3.629,4.542,12.79,12.79,0,0,0-1.073,3.831,7.125,7.125,0,0,1-.192,1.478,3.628,3.628,0,0,1-.166-1.5,11.261,11.261,0,0,1,.824-4.065,12.141,12.141,0,0,1,3.691-4.951,10.821,10.821,0,0,1,1.493-1.037,11.711,11.711,0,0,1,1.7-.829,12.054,12.054,0,0,1,1.877-.575,12.444,12.444,0,0,1,2.006-.275,13.092,13.092,0,0,1,2.017.052,11.2,11.2,0,0,1,3.712,1.037,10.513,10.513,0,0,1,1.6.855,12.173,12.173,0,0,1,4.22,4.516,11.245,11.245,0,0,1,1.265,3.925,3.552,3.552,0,0,1,.016,1.5Z" transform="translate(-231.725 -71.107)"/></g><g class="j" transform="translate(25.696 28.177)"><path d="M252.255,94.751l.078,2.11-1.887.073-.078-2.074a8.938,8.938,0,0,1-4.754-1.332l.949-2.338a7.688,7.688,0,0,0,3.712,1.2l-.119-3.152c-2.115-.425-4.484-1.037-4.588-3.733-.073-2,1.312-3.774,4.277-4.225l-.078-2.074,1.887-.073.078,2.074A8.492,8.492,0,0,1,255.6,82.21l-.85,2.359a7.642,7.642,0,0,0-2.924-.871l.119,3.2c2.115.41,4.443,1.037,4.547,3.681C256.569,92.542,255.2,94.279,252.255,94.751Zm-2.209-8.3-.109-2.675c-.99.264-1.363.824-1.343,1.446s.607,1.037,1.446,1.255Zm3.422,4.422c-.026-.658-.586-1-1.41-1.249l.1,2.592c.938-.207,1.338-.71,1.338-1.317Z" transform="translate(-245.565 -79.13)"/></g><path class="d" d="M256.241,83.046v-.181c0-.135-.031-.337-.057-.586l-.041-.43a3.149,3.149,0,0,0-.093-.518,8.611,8.611,0,0,0-.29-1.265,11.705,11.705,0,0,0-1.457-3.23,12.277,12.277,0,0,0-14.817-4.858,11.581,11.581,0,0,0-1.607.747,12.222,12.222,0,0,0-1.5.98,12.543,12.543,0,0,0-1.363,1.208,14.226,14.226,0,0,0-1.166,1.446,11.763,11.763,0,0,0-1.659,3.4A12.162,12.162,0,0,0,234.2,90.787a14.175,14.175,0,0,0,1.234,1.384,15.029,15.029,0,0,0,1.415,1.146,11.675,11.675,0,0,0,3.137,1.586,12.443,12.443,0,0,0,6.439.384,12.22,12.22,0,0,0,5.1-2.4,12.4,12.4,0,0,0,3.048-3.541,11.887,11.887,0,0,0,1.3-3.271,9.081,9.081,0,0,0,.228-1.281c.026-.187.057-.358.073-.518a4.064,4.064,0,0,0,0-.435,3.107,3.107,0,0,1,.031-.586,1.249,1.249,0,0,1,0-.2.625.625,0,0,1,0,.2v1.037a5.1,5.1,0,0,1-.057.518,8.907,8.907,0,0,1-.15,1.275,11.814,11.814,0,0,1-1.27,3.349,12.443,12.443,0,0,1-14.8,5.7,14.24,14.24,0,0,1-1.649-.669,13.478,13.478,0,0,1-1.555-.944,14.989,14.989,0,0,1-1.452-1.161,14.807,14.807,0,0,1-1.26-1.415,12.1,12.1,0,0,1-1.877-3.4,12.318,12.318,0,0,1-.187-7.88,11.887,11.887,0,0,1,1.711-3.479,13.571,13.571,0,0,1,1.192-1.472,14.18,14.18,0,0,1,1.389-1.229,12.961,12.961,0,0,1,1.509-1.037,11.643,11.643,0,0,1,1.612-.747A12.443,12.443,0,0,1,254.4,76.752a11.649,11.649,0,0,1,1.431,3.282,9.68,9.68,0,0,1,.27,1.281c.026.187.062.358.078.518a3.969,3.969,0,0,1,0,.43,4.4,4.4,0,0,0,.031.591,1.139,1.139,0,0,1,.031.192Z" transform="translate(-213.045 -46.979)"/><circle class="h" cx="7.725" cy="7.725" r="7.725" transform="translate(49.272)"/><rect class="i" width="6.963" height="1.555" transform="translate(53.983 9.639) rotate(-45)"/><rect class="i" width="1.555" height="6.963" transform="translate(53.981 5.812) rotate(-45)"/></g><g transform="translate(9.093 76.962)"><path class="i" d="M95.887,221.4h-.052V158.88H17.81v62.695H85.725l10.161,10.167Z" transform="translate(-17.67 -153.473)"/><path class="d" d="M95.757,221.312v10.431l-.067-.067L85.512,221.525h.041l-67.915.041h-.1V158.69H95.762v.083c0,18.9-.031,34.492-.036,45.379v17.14h0v-4.516c0-2.914,0-7.18-.026-12.624,0-10.887,0-26.477-.036-45.379l.088.088H17.7l.109-.109v62.689l-.1-.1,67.915.041h0l10.151,10.177-.067.031C95.746,224.993,95.757,221.582,95.757,221.312Z" transform="translate(-17.54 -153.381)"/><path class="d" d="M95.83,172.239c0,.062-17.466.109-39.012.109S17.8,172.3,17.8,172.239s17.466-.109,39.018-.109S95.83,172.171,95.83,172.239Z" transform="translate(-17.665 -159.853)"/><path class="b" d="M24.71,164.9a.985.985,0,1,1-.99-.98h0a.98.98,0,0,1,.99.98Z" transform="translate(-20.044 -155.9)"/><path class="b" d="M30.32,164.9a.985.985,0,1,1-.99-.98h0A.985.985,0,0,1,30.32,164.9Z" transform="translate(-22.746 -155.9)"/><circle class="b" cx="0.985" cy="0.985" r="0.985" transform="translate(8.513 8.015)"/><circle class="h" cx="7.383" cy="7.383" r="7.383" transform="translate(70.834)"/><rect class="i" width="6.657" height="1.483" transform="translate(75.346 9.207) rotate(-45)"/><rect class="i" width="1.483" height="6.657" transform="translate(75.341 5.551) rotate(-45)"/><path class="h" d="M63.926,175.16l5.77,5.957,8.072-1.892,1.638,8.129,7.808,2.774-3.012,7.73,5.065,6.558-6.709,4.863.715,8.254L75,218l-3.862,7.331-7.211-4.085-7.217,4.085L52.847,218l-8.274-.472.715-8.254-6.709-4.863,5.07-6.558-3.017-7.73,7.808-2.774,1.638-8.129,8.072,1.892Z" transform="translate(-27.672 -161.313)"/></g><path class="k" d="M340.032,245.08a1.84,1.84,0,0,0,1.182-.41,1.446,1.446,0,0,0,.56-1.037h1.2a2.313,2.313,0,0,1-.441,1.208,2.9,2.9,0,0,1-1.073.918,3.111,3.111,0,0,1-1.426.342,3.054,3.054,0,0,1-2.406-1.037,4.029,4.029,0,0,1-.892-2.758v-.213a4.453,4.453,0,0,1,.4-1.918,3.038,3.038,0,0,1,1.135-1.306,3.23,3.23,0,0,1,1.758-.461,2.955,2.955,0,0,1,2.074.741,2.665,2.665,0,0,1,.881,1.934h-1.2a1.732,1.732,0,0,0-.518-1.177,1.7,1.7,0,0,0-1.2-.461,1.789,1.789,0,0,0-1.5.695,3.261,3.261,0,0,0-.518,2.006v.238a3.193,3.193,0,0,0,.518,1.97A1.783,1.783,0,0,0,340.032,245.08Z" transform="translate(-162.156 -114.807)"/><path class="k" d="M355.878,243.248a2.658,2.658,0,0,1-.181-.778,2.81,2.81,0,0,1-2.1.918,2.592,2.592,0,0,1-1.794-.622,1.991,1.991,0,0,1-.7-1.555,2.074,2.074,0,0,1,.881-1.794,4.147,4.147,0,0,1,2.468-.638h1.229v-.586a1.41,1.41,0,0,0-.394-1.037,1.586,1.586,0,0,0-1.172-.394,1.83,1.83,0,0,0-1.13.342,1.006,1.006,0,0,0-.461.824h-1.27a1.726,1.726,0,0,1,.394-1.068,2.633,2.633,0,0,1,1.068-.814,3.535,3.535,0,0,1,1.478-.3,2.924,2.924,0,0,1,2,.638,2.291,2.291,0,0,1,.752,1.757v3.406a4.185,4.185,0,0,0,.259,1.618v.083Zm-2.1-.964a2.188,2.188,0,0,0,1.125-.306,1.814,1.814,0,0,0,.772-.8v-1.519h-1q-2.328,0-2.323,1.363a1.151,1.151,0,0,0,.394.928A1.555,1.555,0,0,0,353.778,242.284Zm1.167-9.534H356.5l-1.835,2.012h-1.037Z" transform="translate(-169.075 -112.084)"/><path class="k" d="M367.675,243.248H366.41v-10.5h1.265Z" transform="translate(-176.449 -112.084)"/><path class="k" d="M375.406,245.08a1.84,1.84,0,0,0,1.182-.41,1.446,1.446,0,0,0,.56-1.037h1.2a2.349,2.349,0,0,1-.436,1.208,2.914,2.914,0,0,1-1.078.918,3.11,3.11,0,0,1-1.426.342,3.033,3.033,0,0,1-2.4-1.037,4,4,0,0,1-.892-2.758v-.213a4.454,4.454,0,0,1,.394-1.918,3.018,3.018,0,0,1,1.141-1.306,3.215,3.215,0,0,1,1.752-.461,2.94,2.94,0,0,1,2.074.741,2.665,2.665,0,0,1,.881,1.934h-1.2a1.731,1.731,0,0,0-.544-1.177,1.685,1.685,0,0,0-1.2-.461,1.773,1.773,0,0,0-1.493.695,3.256,3.256,0,0,0-.518,2.006v.238a3.193,3.193,0,0,0,.518,1.97A1.789,1.789,0,0,0,375.406,245.08Z" transform="translate(-179.193 -114.807)"/><path class="k" d="M391.417,245.4a2.68,2.68,0,0,1-2.167.871,2.3,2.3,0,0,1-1.8-.69,2.986,2.986,0,0,1-.622-2.032V238.74h1.265v4.8c0,1.125.456,1.685,1.364,1.685a1.945,1.945,0,0,0,1.929-1.084v-5.4h1.265v7.393h-1.2Z" transform="translate(-186.277 -114.968)"/><path class="k" d="M403.255,243.248H402v-10.5h1.265Z" transform="translate(-193.588 -112.084)"/><path class="k" d="M407.665,242.241a4.365,4.365,0,0,1,.43-1.954,3.111,3.111,0,0,1,1.187-1.338,3.22,3.22,0,0,1,1.737-.472,3.111,3.111,0,0,1,2.447,1.037,4.034,4.034,0,0,1,.933,2.784v.078a4.432,4.432,0,0,1-.415,1.939,3.111,3.111,0,0,1-1.182,1.332,3.267,3.267,0,0,1-1.768.482,3.111,3.111,0,0,1-2.437-1.037,3.992,3.992,0,0,1-.933-2.768Zm1.27.15a3.178,3.178,0,0,0,.57,1.975,1.934,1.934,0,0,0,3.059,0,3.453,3.453,0,0,0,.57-2.115,3.111,3.111,0,0,0-.581-1.97,1.918,1.918,0,0,0-3.043,0,3.416,3.416,0,0,0-.575,2.094Z" transform="translate(-196.314 -114.841)"/><path class="k" d="M429.805,239.49a4.35,4.35,0,0,1,.8-2.737,2.748,2.748,0,0,1,4.147-.145V232.75h1.265v10.5h-1.141l-.062-.793a2.561,2.561,0,0,1-2.11.933,2.53,2.53,0,0,1-2.074-1.037,4.391,4.391,0,0,1-.809-2.748Zm1.265.145a3.282,3.282,0,0,0,.518,1.97,1.685,1.685,0,0,0,1.426.71,1.846,1.846,0,0,0,1.752-1.084v-3.4a1.861,1.861,0,0,0-1.742-1.037,1.69,1.69,0,0,0-1.446.715,3.629,3.629,0,0,0-.508,2.1Z" transform="translate(-206.976 -112.084)"/><path class="k" d="M448.4,246.144a3.225,3.225,0,0,1-2.447-.99,3.629,3.629,0,0,1-.944-2.639v-.233a4.428,4.428,0,0,1,.42-1.965,3.256,3.256,0,0,1,1.177-1.353,2.939,2.939,0,0,1,1.633-.487,2.774,2.774,0,0,1,2.245.949,4.106,4.106,0,0,1,.8,2.722v.518H446.27a2.592,2.592,0,0,0,.638,1.768,2.027,2.027,0,0,0,1.555.674,2.219,2.219,0,0,0,1.135-.275,2.913,2.913,0,0,0,.814-.726l.773.6A3.111,3.111,0,0,1,448.4,246.144Zm-.161-6.631a1.685,1.685,0,0,0-1.281.555,2.681,2.681,0,0,0-.643,1.555h3.7v-.1a2.4,2.4,0,0,0-.518-1.493A1.6,1.6,0,0,0,448.235,239.513Z" transform="translate(-214.295 -114.839)"/><path class="k" d="M360.646,277.519a1.841,1.841,0,0,0,1.182-.41,1.446,1.446,0,0,0,.56-1.037h1.2a2.3,2.3,0,0,1-.436,1.208,2.873,2.873,0,0,1-1.078.918,3.11,3.11,0,0,1-1.426.342,3.033,3.033,0,0,1-2.4-1.011,4,4,0,0,1-.892-2.758v-.2a4.453,4.453,0,0,1,.394-1.918,3.017,3.017,0,0,1,1.141-1.306,3.214,3.214,0,0,1,1.752-.461,2.96,2.96,0,0,1,2.074.741,2.659,2.659,0,0,1,.876,1.934h-1.2a1.732,1.732,0,0,0-.544-1.177,1.685,1.685,0,0,0-1.2-.461,1.773,1.773,0,0,0-1.493.695,3.261,3.261,0,0,0-.518,2.006v.238a3.193,3.193,0,0,0,.518,1.97,1.789,1.789,0,0,0,1.493.684Z" transform="translate(-172.085 -130.449)"/><path class="k" d="M371.475,274.642a4.365,4.365,0,0,1,.425-1.954,3.147,3.147,0,0,1,1.187-1.338,3.225,3.225,0,0,1,1.742-.472,3.111,3.111,0,0,1,2.442,1.037,4.034,4.034,0,0,1,.933,2.784v.088a4.36,4.36,0,0,1-.415,1.939,3.11,3.11,0,0,1-1.182,1.332,3.246,3.246,0,0,1-1.763.482,3.11,3.11,0,0,1-2.437-1.037,3.992,3.992,0,0,1-.933-2.768Zm1.27.15a3.178,3.178,0,0,0,.57,1.975,1.934,1.934,0,0,0,3.059,0,3.453,3.453,0,0,0,.565-2.115,3.162,3.162,0,0,0-.576-1.97,1.841,1.841,0,0,0-1.555-.757,1.809,1.809,0,0,0-1.509.747,3.416,3.416,0,0,0-.555,2.12Z" transform="translate(-178.886 -130.443)"/><path class="k" d="M391.563,276.425a.933.933,0,0,0-.389-.8,3.836,3.836,0,0,0-1.348-.487,6.337,6.337,0,0,1-1.524-.493,2.147,2.147,0,0,1-.829-.684,1.617,1.617,0,0,1-.27-.944,1.918,1.918,0,0,1,.767-1.555,3,3,0,0,1,1.965-.627,3.059,3.059,0,0,1,2.037.648,2.074,2.074,0,0,1,.783,1.659h-1.27a1.141,1.141,0,0,0-.441-.9,1.659,1.659,0,0,0-1.109-.373,1.711,1.711,0,0,0-1.078.3.938.938,0,0,0-.394.788.778.778,0,0,0,.363.69,4.453,4.453,0,0,0,1.312.441,7.068,7.068,0,0,1,1.555.518,2.292,2.292,0,0,1,.871.705,1.773,1.773,0,0,1,.285,1.011,1.887,1.887,0,0,1-.793,1.586,3.333,3.333,0,0,1-2.074.6,3.665,3.665,0,0,1-1.555-.316,2.592,2.592,0,0,1-1.073-.876,2.146,2.146,0,0,1-.384-1.224h1.265a1.306,1.306,0,0,0,.518,1.011,1.975,1.975,0,0,0,1.255.373,2.074,2.074,0,0,0,1.151-.29A.9.9,0,0,0,391.563,276.425Z" transform="translate(-186.35 -130.423)"/><path class="k" d="M402.328,267.67v1.794h1.379v.964h-1.379v4.593a1.037,1.037,0,0,0,.187.669.778.778,0,0,0,.627.223,3.311,3.311,0,0,0,.6-.083v1.037a3.8,3.8,0,0,1-.97.135,1.581,1.581,0,0,1-1.28-.518,2.219,2.219,0,0,1-.43-1.457v-4.6H399.72v-.975h1.343V267.66Z" transform="translate(-192.49 -128.895)"/><path class="k" d="M409.345,274.642a4.365,4.365,0,0,1,.43-1.954,3.147,3.147,0,0,1,1.187-1.338,3.225,3.225,0,0,1,1.742-.472,3.111,3.111,0,0,1,2.442,1.037,4.033,4.033,0,0,1,.933,2.784v.088a4.433,4.433,0,0,1-.415,1.939,3.111,3.111,0,0,1-1.182,1.332,3.25,3.25,0,0,1-1.768.482,3.11,3.11,0,0,1-2.437-1.037,3.992,3.992,0,0,1-.933-2.768Zm1.27.15a3.147,3.147,0,0,0,.575,1.975,1.934,1.934,0,0,0,3.059,0,3.489,3.489,0,0,0,.565-2.115,3.163,3.163,0,0,0-.575-1.97,1.846,1.846,0,0,0-1.555-.757,1.82,1.82,0,0,0-1.514.747,3.416,3.416,0,0,0-.555,2.12Z" transform="translate(-197.123 -130.443)"/><path class="k" d="M429.433,276.426a.944.944,0,0,0-.384-.8,3.838,3.838,0,0,0-1.348-.487,6.335,6.335,0,0,1-1.524-.493,2.208,2.208,0,0,1-.835-.684,1.618,1.618,0,0,1-.27-.944,1.929,1.929,0,0,1,.767-1.555,3.012,3.012,0,0,1,1.97-.627,3.08,3.08,0,0,1,2.037.648,2.073,2.073,0,0,1,.783,1.659h-1.27a1.161,1.161,0,0,0-.441-.9,1.659,1.659,0,0,0-1.109-.373,1.727,1.727,0,0,0-1.084.3.949.949,0,0,0-.389.788.767.767,0,0,0,.363.689,4.463,4.463,0,0,0,1.306.441,6.883,6.883,0,0,1,1.555.518,2.214,2.214,0,0,1,.871.705,1.731,1.731,0,0,1,.285,1.011,1.887,1.887,0,0,1-.793,1.586,3.323,3.323,0,0,1-2.074.6,3.68,3.68,0,0,1-1.555-.316,2.556,2.556,0,0,1-1.068-.876,2.115,2.115,0,0,1-.389-1.223H426.1a1.322,1.322,0,0,0,.518,1.011,1.986,1.986,0,0,0,1.255.373,2.073,2.073,0,0,0,1.156-.29A.907.907,0,0,0,429.433,276.426Z" transform="translate(-204.587 -130.423)"/><path class="k" d="M64.022,90.718a1.84,1.84,0,0,0,1.182-.41,1.446,1.446,0,0,0,.56-1.037h1.2a2.312,2.312,0,0,1-.441,1.208,2.9,2.9,0,0,1-1.073.918,3.111,3.111,0,0,1-1.426.342,3.043,3.043,0,0,1-2.406-1.011,4.028,4.028,0,0,1-.892-2.758v-.207a4.459,4.459,0,0,1,.4-1.923,3.038,3.038,0,0,1,1.135-1.27,3.271,3.271,0,0,1,1.752-.461,2.986,2.986,0,0,1,2.074.741,2.675,2.675,0,0,1,.881,1.939h-1.2a1.737,1.737,0,0,0-.518-1.182,1.7,1.7,0,0,0-1.208-.461,1.778,1.778,0,0,0-1.493.695,3.261,3.261,0,0,0-.518,2.006v.238a3.194,3.194,0,0,0,.518,1.97A1.783,1.783,0,0,0,64.022,90.718Z" transform="translate(-29.24 -40.503)"/><path class="k" d="M74.85,87.836a4.365,4.365,0,0,1,.43-1.955,3.147,3.147,0,0,1,1.2-1.322,3.225,3.225,0,0,1,1.742-.472,3.111,3.111,0,0,1,2.442,1.037,4.034,4.034,0,0,1,.933,2.784V88a4.417,4.417,0,0,1-.415,1.939A3.157,3.157,0,0,1,80,91.273a3.292,3.292,0,0,1-1.768.477A3.111,3.111,0,0,1,75.8,90.713a3.992,3.992,0,0,1-.933-2.768Zm1.27.15a3.147,3.147,0,0,0,.575,1.975,1.934,1.934,0,0,0,3.059,0,3.489,3.489,0,0,0,.565-2.115,3.162,3.162,0,0,0-.575-1.97,1.846,1.846,0,0,0-1.555-.757,1.82,1.82,0,0,0-1.514.747A3.427,3.427,0,0,0,76.12,87.986Z" transform="translate(-36.045 -40.492)"/><path class="k" d="M94.933,89.587a.928.928,0,0,0-.384-.793,3.723,3.723,0,0,0-1.348-.518,6.335,6.335,0,0,1-1.524-.493,2.2,2.2,0,0,1-.835-.679,1.628,1.628,0,0,1-.27-.944,1.934,1.934,0,0,1,.767-1.555,3.012,3.012,0,0,1,1.97-.627,3.079,3.079,0,0,1,2.037.69,2.074,2.074,0,0,1,.783,1.659h-1.27a1.151,1.151,0,0,0-.441-.892,1.638,1.638,0,0,0-1.109-.378,1.726,1.726,0,0,0-1.084.3.949.949,0,0,0-.389.788.762.762,0,0,0,.363.69,4.593,4.593,0,0,0,1.306.446,6.641,6.641,0,0,1,1.555.518,2.182,2.182,0,0,1,.871.71,1.716,1.716,0,0,1,.285,1.006,1.9,1.9,0,0,1-.793,1.592,3.354,3.354,0,0,1-2.074.6,3.681,3.681,0,0,1-1.555-.316,2.556,2.556,0,0,1-1.068-.876,2.11,2.11,0,0,1-.389-1.218H91.6a1.322,1.322,0,0,0,.518,1.006,1.986,1.986,0,0,0,1.255.373,2.074,2.074,0,0,0,1.156-.29.9.9,0,0,0,.4-.793Z" transform="translate(-43.504 -40.439)"/><path class="k" d="M105.7,80.87v1.789h1.379v.98H105.7v4.588a1.037,1.037,0,0,0,.181.669.783.783,0,0,0,.632.223,2.944,2.944,0,0,0,.6-.083v1.037a3.805,3.805,0,0,1-.975.135,1.555,1.555,0,0,1-1.275-.518,2.208,2.208,0,0,1-.43-1.457V83.638H103.09v-.98h1.348V80.87Z" transform="translate(-49.644 -38.944)"/><path class="k" d="M112.725,87.821a4.365,4.365,0,0,1,.425-1.954,3.157,3.157,0,0,1,1.192-1.338,3.219,3.219,0,0,1,1.737-.472,3.111,3.111,0,0,1,2.447,1.037,4.034,4.034,0,0,1,.928,2.784v.088a4.417,4.417,0,0,1-.41,1.939,3.157,3.157,0,0,1-1.182,1.338,3.308,3.308,0,0,1-1.768.477,3.111,3.111,0,0,1-2.437-1.037,3.992,3.992,0,0,1-.933-2.768Zm1.27.15a3.178,3.178,0,0,0,.57,1.975,1.934,1.934,0,0,0,3.059,0,3.453,3.453,0,0,0,.57-2.115,3.168,3.168,0,0,0-.581-1.97,1.84,1.84,0,0,0-1.555-.757,1.815,1.815,0,0,0-1.509.747,3.427,3.427,0,0,0-.555,2.12Z" transform="translate(-54.282 -40.478)"/><path class="k" d="M132.8,89.587a.918.918,0,0,0-.389-.793,3.686,3.686,0,0,0-1.343-.518,6.185,6.185,0,0,1-1.524-.493,2.157,2.157,0,0,1-.835-.679,1.628,1.628,0,0,1-.27-.944,1.918,1.918,0,0,1,.767-1.555,3,3,0,0,1,1.965-.627,3.111,3.111,0,0,1,2.043.648A2.074,2.074,0,0,1,134,86.284h-1.275a1.135,1.135,0,0,0-.441-.892,1.628,1.628,0,0,0-1.109-.378,1.711,1.711,0,0,0-1.078.3.949.949,0,0,0-.389.788.762.762,0,0,0,.363.69,4.474,4.474,0,0,0,1.306.446,6.739,6.739,0,0,1,1.555.518,2.183,2.183,0,0,1,.866.736,1.716,1.716,0,0,1,.285,1.006,1.9,1.9,0,0,1-.8,1.592,3.354,3.354,0,0,1-2.074.6,3.681,3.681,0,0,1-1.555-.316,2.525,2.525,0,0,1-1.068-.876,2.11,2.11,0,0,1-.389-1.218h1.265a1.307,1.307,0,0,0,.518,1.006,1.975,1.975,0,0,0,1.255.373,2.074,2.074,0,0,0,1.151-.29A.9.9,0,0,0,132.8,89.587Z" transform="translate(-61.732 -40.439)"/><path class="k" d="M383.081,122.824h-1.317l-4.987-7.668v7.668H375.46V112.87h1.317l5.024,7.7v-7.7h1.306Z" transform="translate(-180.808 -54.354)"/><path class="k" d="M396.152,122.824H394.84V112.87h1.312Z" transform="translate(-190.14 -54.354)"/><path class="k" d="M403.5,122.824H402.18V112.87H403.5Z" transform="translate(-193.675 -54.354)"/><path class="k" d="M414.83,118.428h-4.179v4.4H409.34V112.87H415.5v1.073h-4.853v3.411h4.179Z" transform="translate(-197.123 -54.354)"/><path class="k" d="M45.026,363.343a1.337,1.337,0,0,0,.871-.3,1.073,1.073,0,0,0,.42-.762H47.2a1.7,1.7,0,0,1-.321.9,2.177,2.177,0,0,1-.8.679,2.334,2.334,0,0,1-1.037.254,2.265,2.265,0,0,1-1.8-.726,2.976,2.976,0,0,1-.658-2.074v-.161a3.344,3.344,0,0,1,.29-1.421,2.266,2.266,0,0,1,.845-.969,2.411,2.411,0,0,1,1.3-.342,2.2,2.2,0,0,1,1.555.549,1.975,1.975,0,0,1,.648,1.436h-.881a1.322,1.322,0,0,0-.4-.876,1.255,1.255,0,0,0-.892-.342,1.322,1.322,0,0,0-1.109.518,2.447,2.447,0,0,0-.394,1.488v.176a2.38,2.38,0,0,0,.394,1.462A1.322,1.322,0,0,0,45.026,363.343Z" transform="translate(-20.504 -172.6)"/><path class="k" d="M53.048,361.228a3.2,3.2,0,0,1,.316-1.446,2.328,2.328,0,0,1,.881-1,2.38,2.38,0,0,1,1.286-.347,2.317,2.317,0,0,1,1.809.772,2.986,2.986,0,0,1,.695,2.074v.036a3.277,3.277,0,0,1-.306,1.431,2.328,2.328,0,0,1-.876.99,2.427,2.427,0,0,1-1.312.358,2.3,2.3,0,0,1-1.8-.778,2.95,2.95,0,0,1-.69-2Zm.938.114a2.354,2.354,0,0,0,.425,1.462,1.436,1.436,0,0,0,2.266,0,2.556,2.556,0,0,0,.42-1.555,2.343,2.343,0,0,0-.446-1.483,1.421,1.421,0,0,0-2.255,0,2.592,2.592,0,0,0-.41,1.555Z" transform="translate(-25.545 -172.61)"/><path class="k" d="M65.807,358.532l.026.612a2.006,2.006,0,0,1,1.623-.71,1.555,1.555,0,0,1,1.555.881,2.074,2.074,0,0,1,.71-.638,2.131,2.131,0,0,1,1.037-.244q1.8,0,1.835,1.908v3.671h-.928v-3.629a1.255,1.255,0,0,0-.27-.881,1.182,1.182,0,0,0-.9-.29,1.249,1.249,0,0,0-.866.311,1.265,1.265,0,0,0-.4.84v3.629H68.29V360.4a1.037,1.037,0,0,0-1.172-1.161,1.254,1.254,0,0,0-1.26.788v4H64.92v-5.5Z" transform="translate(-31.263 -172.605)"/><path class="k" d="M87.09,361.32a3.261,3.261,0,0,1-.575,2.012,1.835,1.835,0,0,1-1.555.767,2.006,2.006,0,0,1-1.555-.633V366.1H82.46v-7.564h.855l.047.612a1.918,1.918,0,0,1,1.592-.71,1.872,1.872,0,0,1,1.555.741,3.323,3.323,0,0,1,.575,2.074Zm-.938-.109a2.411,2.411,0,0,0-.394-1.462,1.281,1.281,0,0,0-1.084-.518,1.374,1.374,0,0,0-1.275.757v2.618a1.374,1.374,0,0,0,1.286.747,1.26,1.26,0,0,0,1.068-.518,2.649,2.649,0,0,0,.4-1.6Z" transform="translate(-39.71 -172.609)"/><path class="k" d="M96.329,359.382a2.557,2.557,0,0,0-.461-.036,1.234,1.234,0,0,0-1.249.783v3.888H93.68v-5.48h.912v.638a1.452,1.452,0,0,1,1.327-.736.886.886,0,0,1,.415.073Z" transform="translate(-45.113 -172.609)"/><path class="k" d="M103.3,364.034a1.976,1.976,0,0,1-.13-.575,2.074,2.074,0,0,1-1.555.679,1.923,1.923,0,0,1-1.327-.461,1.472,1.472,0,0,1-.518-1.161,1.555,1.555,0,0,1,.648-1.327,3.064,3.064,0,0,1,1.83-.477h.912v-.41a1.037,1.037,0,0,0-.3-.778,1.167,1.167,0,0,0-.866-.3,1.4,1.4,0,0,0-.84.254.757.757,0,0,0-.337.612h-.933a1.3,1.3,0,0,1,.29-.788,1.97,1.97,0,0,1,.793-.607,2.592,2.592,0,0,1,1.094-.223,2.157,2.157,0,0,1,1.483.472,1.721,1.721,0,0,1,.56,1.307v2.52a3.043,3.043,0,0,0,.192,1.2v.083Zm-1.555-.715a1.623,1.623,0,0,0,.84-.228,1.389,1.389,0,0,0,.57-.591v-1.125h-.736c-1.146,0-1.721.337-1.721,1.011a.855.855,0,0,0,.3.69A1.151,1.151,0,0,0,101.744,363.318Z" transform="translate(-48.044 -172.627)"/><path class="i" d="M69.906,208.906a3.95,3.95,0,0,1,1.125-2.9,3.873,3.873,0,0,1,2.877-1.141,3.821,3.821,0,0,1,2.888,1.151,4.08,4.08,0,0,1,1.109,2.971v.954a3.909,3.909,0,0,1-1.12,2.888,3.868,3.868,0,0,1-2.851,1.12,3.95,3.95,0,0,1-2.888-1.12,4,4,0,0,1-1.141-2.981Zm1.856,1.037a2.525,2.525,0,0,0,.586,1.732,2,2,0,0,0,1.586.679,1.949,1.949,0,0,0,1.555-.658,2.634,2.634,0,0,0,.586-1.8v-.98a2.592,2.592,0,0,0-.581-1.737,2.141,2.141,0,0,0-3.137,0,2.706,2.706,0,0,0-.575,1.789Zm2.732,13.272-1.4-.887,9.539-15.268,1.4.887ZM79.42,219.9a3.945,3.945,0,0,1,1.12-2.893,3.862,3.862,0,0,1,2.893-1.135A3.909,3.909,0,0,1,86.32,217a4.039,4.039,0,0,1,1.125,2.991v.954a3.93,3.93,0,0,1-1.12,2.888,3.847,3.847,0,0,1-2.893,1.135,3.95,3.95,0,0,1-2.888-1.12,4.007,4.007,0,0,1-1.141-2.986Zm1.851,1.037a2.592,2.592,0,0,0,.607,1.742,2,2,0,0,0,1.555.679,1.929,1.929,0,0,0,1.555-.669,2.67,2.67,0,0,0,.575-1.809v-1a2.546,2.546,0,0,0-.575-1.732,2.141,2.141,0,0,0-3.111,0,2.592,2.592,0,0,0-.607,1.815Z" transform="translate(-33.662 -98.655)"/></g></svg>