<svg xmlns="http://www.w3.org/2000/svg" width="252.8" height="209.697" viewBox="0 0 252.8 209.697"><defs><style>.a{fill:#ececec;}.b{fill:#e1e1e1;}.c{fill:#fafafa;}.d{fill:#f0f0f0;}.e{fill:#e7e7e7;}.f{fill:#f5f5f5;}.g{fill:#344154;}.h,.i,.m{opacity:0.3;}.i,.j,.k,.l,.n,.t,.y,.z{fill:#fff;}.j,.o{opacity:0.4;}.k,.p{opacity:0.2;}.l{opacity:0.1;}.q,.z{opacity:0.5;}.r{fill:#d9a171;}.s{fill:#007cff;}.t{opacity:0.6;}.u{fill:#fcb373;}.v{fill:#263237;}.w{fill:#ec873e;}.x{fill:none;stroke:#1a2e35;stroke-linecap:round;stroke-linejoin:round;stroke-width:0.72px;}.y{opacity:0.7;}</style></defs><g transform="translate(-1644.176 8772.448)"><rect class="a" width="5.612" height="0.161" transform="translate(1818.594 -8579.768)"/><rect class="a" width="12.396" height="0.161" transform="translate(1866.426 -8587.522)"/><rect class="a" width="27.898" height="0.161" transform="translate(1644.176 -8586.434)"/><rect class="a" width="4.09" height="0.161" transform="translate(1677.819 -8586.434)"/><rect class="a" width="60.501" height="0.161" transform="translate(1695.205 -8583.711)"/><path class="b" d="M109.46,129.52l23.766-13.82h18.308l24.15,13.164v89.6H109.46Z" transform="translate(1563.941 -8885.932)"/><path class="c" d="M176.368,218.463H109.46V129.52l.7-.649a47.051,47.051,0,0,1,32.77-13.171h0a47.072,47.072,0,0,1,32.8,13.164l.7.656ZM113.9,214.024h58.058v-82.6a42.94,42.94,0,0,0-58.03,0Z" transform="translate(1563.941 -8885.932)"/><path class="d" d="M142.811,216.225h3.329V186.491h28.191v-3.329H146.141V152.751h28.191v-3.329H146.141V121.23h-3.329v28.191H114.62v3.329h28.191v30.411H114.62v3.329h28.191Z" transform="translate(1562.382 -8887.603)"/><path class="d" d="M177.627,219.717H106.28V127.66l.649-.656a49.6,49.6,0,0,1,70.049,0l.649.656Zm-66.908-4.432h62.469V129.51a45.138,45.138,0,0,0-62.469,0Z" transform="translate(1564.901 -8884.973)"/><path class="b" d="M334.418,254.574c0-.14-.475-13.96-2.729-16.193s-4.711-.077-4.816,0l-.223-.272s2.869-2.345,5.284,0,2.792,15.858,2.834,16.437Z" transform="translate(1498.344 -8922.587)"/><path class="b" d="M337.983,255.863c0-.161-1.543-16.633,4.474-23.543l.265.237c-5.919,6.784-4.4,23.11-4.39,23.271Z" transform="translate(1494.975 -8921.153)"/><path class="b" d="M336.188,253.59h-.356c0-.181,1.18-18.727-3.232-22.782l.237-.258C337.374,234.689,336.236,252.815,336.188,253.59Z" transform="translate(1496.547 -8920.619)"/><path class="b" d="M338.406,257.107h-.356c0-.51.147-12.522,3.56-14.476a2.408,2.408,0,0,1,2.213-.216c2.059.852,3.085,4.523,3.127,4.676l-.342.1c0-.042-1.019-3.664-2.925-4.453a2.094,2.094,0,0,0-1.9.2C338.546,244.788,338.406,256.989,338.406,257.107Z" transform="translate(1494.901 -8924.15)"/><path class="b" d="M333.311,257.375h-.356c0-.1.516-9.493-2.017-12.808a2.345,2.345,0,0,0-1.989-1.131c-1.661.112-3.057,2.548-3.071,2.569l-.307-.174c.063-.1,1.5-2.617,3.35-2.75a2.68,2.68,0,0,1,2.3,1.277C333.827,247.749,333.332,256.984,333.311,257.375Z" transform="translate(1498.67 -8924.403)"/><path class="b" d="M337.229,254.073c-.07-.914-1.654-22.335,1.138-26.153l.286.209c-2.722,3.678-1.089,25.693-1.068,25.916Z" transform="translate(1495.303 -8919.825)"/><path class="a" d="M346.852,245.015s-1.675.621-1.173,2.094,5.8,3.86,5.8,3.86,2.22-2.031.181-5.346S346.9,243.975,346.852,245.015Z" transform="translate(1492.625 -8924.579)"/><path class="a" d="M335.142,241.325s1.787-.077,1.885,1.466-3.867,5.8-3.867,5.8-2.834-1.026-2.227-4.886S334.667,240.383,335.142,241.325Z" transform="translate(1497.076 -8923.668)"/><path class="a" d="M332.105,230.163s1.194-.133,1.1-.859-4.628-2.589-7.3.426c0,0,1.71,2.945,4.188,2.98S332.105,230.163,332.105,230.163Z" transform="translate(1498.571 -8919.869)"/><path class="a" d="M337.385,226.875s-1.075.523-1.4-.147,2.562-4.649,6.428-3.49c0,0,.1,3.4-1.982,4.746S337.385,226.875,337.385,226.875Z" transform="translate(1495.531 -8918.348)"/><path class="a" d="M327.577,244.285s.824-.663-.063-.984-5.242-.23-5.284,4.076c0,0,5.067.845,5.7-.8S327.577,244.285,327.577,244.285Z" transform="translate(1499.679 -8924.437)"/><path class="a" d="M344.458,230.435s-.824-.663.063-.984,5.242-.237,5.284,4.076c0,0-5.067.845-5.7-.8S344.458,230.435,344.458,230.435Z" transform="translate(1493.135 -8920.253)"/><path class="a" d="M340.2,235.644s-.07-.81.579-.5,2.918,2.792.572,5.088c0,0-3.169-2.345-2.6-3.567S340.2,235.644,340.2,235.644Z" transform="translate(1494.708 -8921.986)"/><path class="a" d="M327.311,237.227s.489-.642-.23-.7-3.944.775-3.19,4c0,0,3.93-.3,4.1-1.633S327.311,237.227,327.311,237.227Z" transform="translate(1499.212 -8922.424)"/><path class="d" d="M341.39,274.275H327.912L326.46,259.52h16.389Z" transform="translate(1498.402 -8929.369)"/><rect class="e" width="17.826" height="3.26" transform="translate(1824.143 -8671.475)"/><rect class="e" width="48.956" height="52.697" transform="translate(1832.058 -8651.938)"/><rect class="e" width="6.156" height="63.453" transform="translate(1882.34 -8655.861)"/><rect class="c" width="4.013" height="19.69" transform="translate(1839.854 -8647.793)"/><rect class="f" width="4.013" height="19.69" transform="translate(1856.487 -8647.793)"/><rect class="f" width="4.013" height="18.308" transform="translate(1843.861 -8646.411)"/><rect class="c" width="4.013" height="18.308" transform="translate(1852.474 -8646.411)"/><rect class="a" width="2.589" height="19.69" transform="translate(1849.877 -8647.793)"/><rect class="c" width="2.003" height="18.308" transform="translate(1847.874 -8646.411)"/><rect class="a" width="4.013" height="19.69" transform="translate(1860.493 -8647.793)"/><rect class="e" width="4.013" height="18.308" transform="translate(1864.507 -8646.411)"/><rect class="e" width="4.013" height="18.308" transform="translate(1873.12 -8646.411)"/><rect class="c" width="2.589" height="19.69" transform="translate(1870.523 -8647.793)"/><rect class="a" width="2.003" height="18.308" transform="translate(1868.52 -8646.411)"/><rect class="c" width="2.003" height="19.229" transform="translate(1877.126 -8647.325)"/><rect class="c" width="4.013" height="19.69" transform="translate(1879.136 -8601.705) rotate(180)"/><rect class="c" width="4.013" height="19.69" transform="translate(1862.504 -8601.705) rotate(180)"/><rect class="d" width="4.013" height="18.308" transform="translate(1875.123 -8601.705) rotate(180)"/><rect class="a" width="4.013" height="18.308" transform="translate(1866.51 -8601.705) rotate(180)"/><rect class="c" width="2.589" height="19.69" transform="translate(1869.106 -8601.705) rotate(180)"/><rect class="f" width="2.003" height="18.308" transform="translate(1871.11 -8601.705) rotate(180)"/><rect class="a" width="4.013" height="19.69" transform="translate(1858.49 -8601.705) rotate(180)"/><rect class="f" width="4.013" height="18.308" transform="translate(1854.477 -8601.705) rotate(180)"/><rect class="e" width="4.013" height="18.308" transform="translate(1845.871 -8601.705) rotate(180)"/><rect class="c" width="2.589" height="19.69" transform="translate(1848.46 -8601.705) rotate(180)"/><rect class="c" width="2.589" height="19.69" transform="translate(1839.854 -8601.705) rotate(180)"/><rect class="a" width="2.003" height="18.308" transform="translate(1850.47 -8601.705) rotate(180)"/><rect class="d" width="2.003" height="19.229" transform="translate(1841.857 -8601.698) rotate(180)"/><path class="d" d="M384.814,279.56H334.56v59.9h48.621v3.553h3.281V279.56Zm-1.64,54.156H337.659V310.627h45.529Zm0-26.37H337.659V285.3h45.529Z" transform="translate(1495.955 -8935.421)"/><rect class="e" width="48.956" height="52.697" transform="translate(1831.981 -8599.241) rotate(180)"/><rect class="e" width="6.156" height="4.202" transform="translate(1791.052 -8592.408) rotate(180)"/><rect class="c" width="4.013" height="19.69" transform="translate(1830.327 -8628.096) rotate(180)"/><rect class="f" width="4.013" height="19.69" transform="translate(1813.694 -8628.096) rotate(180)"/><rect class="f" width="4.013" height="18.308" transform="translate(1826.313 -8628.096) rotate(180)"/><rect class="c" width="4.013" height="18.308" transform="translate(1817.707 -8628.096) rotate(180)"/><rect class="a" width="2.589" height="19.69" transform="translate(1820.297 -8628.096) rotate(180)"/><rect class="c" width="2.003" height="18.308" transform="translate(1822.307 -8628.096) rotate(180)"/><rect class="a" width="4.013" height="19.69" transform="translate(1812.326 -8628.096) rotate(180)"/><rect class="e" width="4.013" height="18.308" transform="translate(1808.32 -8628.096) rotate(180)"/><rect class="e" width="4.013" height="18.308" transform="translate(1799.714 -8628.096) rotate(180)"/><rect class="c" width="2.589" height="19.69" transform="translate(1802.303 -8628.096) rotate(180)"/><rect class="a" width="2.003" height="18.308" transform="translate(1804.306 -8628.096) rotate(180)"/><rect class="f" width="2.003" height="19.229" transform="translate(1795.7 -8628.103) rotate(180)"/><rect class="c" width="4.013" height="19.69" transform="translate(1791.805 -8621.396)"/><rect class="c" width="4.013" height="19.69" transform="translate(1808.438 -8621.396)"/><rect class="f" width="4.013" height="18.308" transform="translate(1795.819 -8620.014)"/><rect class="a" width="4.013" height="18.308" transform="translate(1804.425 -8620.014)"/><rect class="c" width="2.589" height="19.69" transform="translate(1801.835 -8621.396)"/><rect class="f" width="2.003" height="18.308" transform="translate(1799.832 -8620.014)"/><rect class="a" width="4.013" height="19.69" transform="translate(1809.806 -8621.396)"/><rect class="f" width="4.013" height="18.308" transform="translate(1813.82 -8620.014)"/><rect class="e" width="4.013" height="18.308" transform="translate(1822.426 -8620.014)"/><rect class="c" width="2.589" height="19.69" transform="translate(1819.836 -8621.396)"/><rect class="c" width="2.589" height="19.69" transform="translate(1827.919 -8621.396)"/><rect class="a" width="2.003" height="18.308" transform="translate(1817.826 -8620.014)"/><rect class="a" width="2.003" height="19.229" transform="translate(1826.439 -8620.935)"/><path class="d" d="M264.51,279.56v63.453H267.8V339.46h48.621v-59.9Zm3.287,31.067H313.32v23.089H267.8Zm0-25.323H313.32v22.042H267.8Z" transform="translate(1517.112 -8935.421)"/><ellipse class="f" cx="125.224" cy="7.315" rx="125.224" ry="7.315" transform="translate(1646.528 -8577.381)"/><path class="g" d="M341.9,254.194H254.566a3.008,3.008,0,0,1-3.029-3.225l7.336-128.881a3.448,3.448,0,0,1,3.392-3.218h87.31a3,3,0,0,1,3.022,3.218l-7.322,128.881A3.448,3.448,0,0,1,341.9,254.194Z" transform="translate(1521.033 -8886.89)"/><path class="h" d="M341.9,254.194H254.566a3.008,3.008,0,0,1-3.029-3.225l7.336-128.881a3.448,3.448,0,0,1,3.392-3.218h87.31a3,3,0,0,1,3.022,3.218l-7.322,128.881A3.448,3.448,0,0,1,341.9,254.194Z" transform="translate(1521.033 -8886.89)"/><path class="g" d="M349.834,122.095,342.5,250.969a3.434,3.434,0,0,1-3.392,3.225H251.789a3,3,0,0,1-3.022-3.225l1.857-32.6,5.479-96.272a3.434,3.434,0,0,1,3.392-3.225h87.317a3,3,0,0,1,3.022,3.225Z" transform="translate(1521.869 -8886.89)"/><path class="i" d="M347.566,180.58,342.5,269.614a3.441,3.441,0,0,1-3.385,3.211H251.789a3,3,0,0,1-3.022-3.211l5.046-89.034Z" transform="translate(1521.869 -8905.527)"/><path class="j" d="M345.189,164.195H269.13l1.145-20.025h76.052Z" transform="translate(1515.717 -8894.53)"/><path class="k" d="M374.646,130.99h3.965l-.363,6.317H374.29Z" transform="translate(1483.956 -8890.55)"/><path class="k" d="M368,130.99h3.965l-.363,6.317H367.64Z" transform="translate(1485.964 -8890.55)"/><path class="k" d="M361.356,130.99h3.965l-.356,6.317H361Z" transform="translate(1487.97 -8890.55)"/><path class="k" d="M354.716,130.99h3.965l-.363,6.317H354.36Z" transform="translate(1489.975 -8890.55)"/><path class="k" d="M348.073,130.99h3.964l-.363,6.317H347.71Z" transform="translate(1491.984 -8890.55)"/><path class="k" d="M341.426,130.99h3.965l-.356,6.317H341.07Z" transform="translate(1493.989 -8890.55)"/><path class="i" d="M284.023,135.7H271.18l.154-2.68h12.843Z" transform="translate(1515.097 -8891.163)"/><path class="g" d="M319.1,163.079l-.049.845H314.13l.042-.656,2.945-2.673c.761-.7.928-1.124.949-1.55.042-.7-.426-1.131-1.4-1.131a2.3,2.3,0,0,0-1.794.74l-.628-.572a3.364,3.364,0,0,1,2.562-1.033c1.4,0,2.3.7,2.234,1.9a2.947,2.947,0,0,1-1.249,2.136l-2.213,2Z" transform="translate(1502.126 -8898.419)"/><path class="g" d="M322.488,165.713a.7.7,0,0,1,.7-.663.6.6,0,0,1,.607.663.7.7,0,0,1-.7.7.621.621,0,0,1-.607-.7Z" transform="translate(1499.603 -8900.837)"/><path class="g" d="M331.571,162.284h-1.3l-.1,1.668h-.949l.1-1.668h-3.8l.042-.7,3.769-4.446h1.054l-3.609,4.286h2.631l.084-1.473h.921l-.091,1.473h1.305Z" transform="translate(1498.686 -8898.447)"/><path class="g" d="M335.185,160.49c.133-2.213,1.4-3.49,3-3.49s2.708,1.263,2.576,3.49-1.4,3.49-2.994,3.49S335.053,162.73,335.185,160.49Zm4.6,0c.1-1.738-.586-2.61-1.647-2.61s-1.871.872-1.975,2.61.586,2.617,1.661,2.617S339.68,162.249,339.785,160.49Z" transform="translate(1495.77 -8898.405)"/><path class="g" d="M344.525,160.49c.133-2.213,1.4-3.49,3.008-3.49s2.708,1.263,2.576,3.49-1.4,3.49-2.994,3.49S344.393,162.73,344.525,160.49Zm4.607,0c.1-1.738-.586-2.61-1.654-2.61s-1.871.872-1.975,2.61.586,2.617,1.661,2.617S349.041,162.249,349.132,160.49Z" transform="translate(1492.949 -8898.405)"/><path class="g" d="M353.438,165.713a.7.7,0,0,1,.7-.663.6.6,0,0,1,.607.663.7.7,0,0,1-.7.7.621.621,0,0,1-.607-.7Z" transform="translate(1490.255 -8900.837)"/><path class="g" d="M362.278,162.006c-.07,1.235-1.173,2-2.841,2s-2.666-.761-2.59-2a1.815,1.815,0,0,1,1.3-1.64,1.445,1.445,0,0,1-.872-1.466c.07-1.138,1.1-1.85,2.576-1.85s2.443.7,2.373,1.85a1.668,1.668,0,0,1-1.054,1.466,1.57,1.57,0,0,1,1.11,1.64Zm-.97,0c.042-.747-.593-1.214-1.682-1.214s-1.759.468-1.8,1.214.572,1.242,1.654,1.242,1.78-.5,1.829-1.27Zm-3.064-3.043c-.042.7.489,1.089,1.4,1.089s1.549-.419,1.584-1.089-.537-1.1-1.459-1.1-1.48.391-1.522,1.068Z" transform="translate(1489.225 -8898.421)"/><path class="g" d="M371.1,160.424c-.14,2.317-1.536,3.56-3.448,3.56a3.2,3.2,0,0,1-1.682-.4l.419-.754a2.345,2.345,0,0,0,1.3.321c1.4,0,2.324-.865,2.422-2.562v-.244a2.422,2.422,0,0,1-2.024.893,1.969,1.969,0,0,1-2.213-2.094,2.359,2.359,0,0,1,2.541-2.15C370.258,157.032,371.222,158.26,371.1,160.424Zm-1.124-1.291c.042-.7-.489-1.312-1.557-1.312a1.438,1.438,0,0,0-1.584,1.319c-.049.8.516,1.312,1.473,1.312A1.529,1.529,0,0,0,369.972,159.132Z" transform="translate(1486.501 -8898.402)"/><path class="g" d="M328.364,149l-.168,2.736h-.4l.147-2.4h-.628V149Z" transform="translate(1498.145 -8895.989)"/><path class="g" d="M329.459,152.425a.286.286,0,0,1,.286-.265.244.244,0,0,1,.244.265.293.293,0,0,1-.279.272.244.244,0,0,1-.251-.272Z" transform="translate(1497.496 -8896.943)"/><path class="g" d="M331.673,149l-.161,2.736h-.391l.14-2.4h-.621V149Z" transform="translate(1497.139 -8895.989)"/><path class="g" d="M332.868,150.326c.056-.893.565-1.4,1.215-1.4s1.1.51,1.04,1.4-.565,1.4-1.208,1.4S332.812,151.219,332.868,150.326Zm1.864,0c.042-.7-.237-1.054-.7-1.054s-.754.356-.8,1.054.237,1.054.7,1.054S334.69,151.024,334.732,150.326Z" transform="translate(1496.468 -8895.968)"/><path class="g" d="M336.638,150.326c.056-.893.565-1.4,1.214-1.4s1.1.51,1.047,1.4-.572,1.4-1.214,1.4S336.59,151.219,336.638,150.326Zm1.864,0c.042-.7-.237-1.054-.7-1.054s-.754.356-.8,1.054.237,1.054.7,1.054.754-.356.8-1.054Z" transform="translate(1495.329 -8895.968)"/><path class="g" d="M340.24,152.425a.286.286,0,0,1,.286-.265.244.244,0,0,1,.244.265.286.286,0,0,1-.279.272.251.251,0,0,1-.251-.272Z" transform="translate(1494.24 -8896.943)"/><path class="g" d="M343.808,150.916c0,.5-.475.81-1.152.81s-1.075-.307-1.047-.81a.74.74,0,0,1,.53-.663.565.565,0,0,1-.356-.586c0-.461.447-.747,1.04-.747s.991.286.963.747a.7.7,0,0,1-.426.586A.635.635,0,0,1,343.808,150.916Zm-.391,0c0-.307-.244-.5-.7-.5s-.7.188-.733.5.23.5.7.5.712-.2.733-.5Zm-1.242-1.242c0,.272.2.44.579.44s.628-.168.642-.44-.216-.44-.586-.44S342.2,149.409,342.175,149.674Z" transform="translate(1493.827 -8895.965)"/><path class="g" d="M345.328,150.326c.056-.893.565-1.4,1.214-1.4s1.1.51,1.04,1.4-.565,1.4-1.208,1.4S345.272,151.219,345.328,150.326Zm1.864,0c.042-.7-.237-1.054-.7-1.054s-.754.356-.8,1.054.237,1.054.7,1.054S347.15,151.024,347.192,150.326Z" transform="translate(1492.704 -8895.968)"/><path class="g" d="M351.024,150.715h-.7l-.042.7h-.328l.042-.7h-.7v-.307h.7l.049-.7h.328l-.042.7h.7Z" transform="translate(1491.503 -8896.204)"/><path class="g" d="M353.233,149l-.161,2.736h-.391l.14-2.4H352.2V149Z" transform="translate(1490.628 -8895.989)"/><path class="g" d="M354.32,152.425a.286.286,0,0,1,.286-.265.244.244,0,0,1,.244.265.286.286,0,0,1-.279.272.251.251,0,0,1-.251-.272Z" transform="translate(1489.988 -8896.943)"/><path class="g" d="M357.524,150.9c0,.461-.391.838-1.1.838a1.494,1.494,0,0,1-1-.335l.2-.307a1.172,1.172,0,0,0,.817.293c.412,0,.663-.188.7-.489s-.181-.475-.656-.475h-.223v-.272l.747-.852h-1.333v-.335h1.829v.265l-.782.886C357.287,150.171,357.552,150.478,357.524,150.9Z" transform="translate(1489.652 -8895.98)"/><path class="g" d="M359,150.326c.056-.893.565-1.4,1.214-1.4s1.1.51,1.047,1.4-.565,1.4-1.214,1.4S358.95,151.219,359,150.326Zm1.864,0c.042-.7-.237-1.054-.7-1.054s-.754.356-.8,1.054.237,1.054.7,1.054S360.82,151.024,360.862,150.326Z" transform="translate(1488.575 -8895.968)"/><path class="g" d="M362.778,150.326c.049-.893.565-1.4,1.214-1.4s1.1.51,1.04,1.4-.565,1.4-1.208,1.4S362.722,151.219,362.778,150.326Zm1.857,0c.042-.7-.237-1.054-.663-1.054s-.761.356-.8,1.054.237,1.054.7,1.054S364.593,151.024,364.635,150.326Z" transform="translate(1487.434 -8895.968)"/><path class="g" d="M366.37,152.425a.286.286,0,0,1,.286-.265.237.237,0,0,1,.244.265.279.279,0,0,1-.272.272.258.258,0,0,1-.258-.272Z" transform="translate(1486.348 -8896.943)"/><path class="g" d="M367.7,150.326c.049-.893.565-1.4,1.215-1.4s1.1.51,1.04,1.4-.565,1.4-1.207,1.4S367.642,151.219,367.7,150.326Zm1.857,0c.049-.7-.237-1.054-.663-1.054s-.761.356-.8,1.054.237,1.054.7,1.054.733-.356.768-1.054Z" transform="translate(1485.948 -8895.968)"/><path class="g" d="M373.492,150.287a1.354,1.354,0,0,1-1.4,1.438,1.249,1.249,0,0,1-.7-.161l.168-.307a.9.9,0,0,0,.523.133c.558,0,.935-.349.977-1.04v-.1a.97.97,0,0,1-.817.363c-.551,0-.928-.321-.9-.831a.956.956,0,0,1,1.033-.865C373.157,148.919,373.548,149.414,373.492,150.287Zm-.454-.523c0-.279-.2-.523-.628-.523a.579.579,0,0,0-.642.53c0,.321.209.53.6.53a.614.614,0,0,0,.67-.537Z" transform="translate(1484.844 -8895.964)"/><path class="l" d="M344.2,118.87c-8.264,20.548-33.691,70.928-92.768,99.5l5.479-96.272a3.434,3.434,0,0,1,3.392-3.225Z" transform="translate(1521.062 -8886.89)"/><g transform="translate(1779.493 -8719.225)"><path class="g" d="M371.181,188.87H361.6a1.4,1.4,0,0,0-1.361,1.291l-.188,3.315a1.207,1.207,0,0,0,1.215,1.291h9.548a1.4,1.4,0,0,0,1.361-1.291l.188-3.315a1.207,1.207,0,0,0-1.18-1.291Z" transform="translate(-291.235 -188.806)"/><path class="g" d="M347.947,188.78H338.4a1.4,1.4,0,0,0-1.361,1.291l-.188,3.315a1.214,1.214,0,0,0,1.214,1.291h9.548a1.4,1.4,0,0,0,1.4-1.291l.188-3.315a1.208,1.208,0,0,0-1.249-1.291Z" transform="translate(-284.228 -188.779)"/><path class="g" d="M370.4,202.06h-9.548a1.4,1.4,0,0,0-1.361,1.291l-.188,3.315a1.208,1.208,0,0,0,1.214,1.291h9.548a1.4,1.4,0,0,0,1.361-1.291l.188-3.315a1.207,1.207,0,0,0-1.214-1.291Z" transform="translate(-291.009 -192.79)"/><path class="g" d="M347.2,202h-9.548a1.4,1.4,0,0,0-1.361,1.291L336.1,206.6a1.207,1.207,0,0,0,1.214,1.291h9.548a1.4,1.4,0,0,0,1.4-1.291l.188-3.308A1.2,1.2,0,0,0,347.2,202Z" transform="translate(-284.002 -192.771)"/><path class="g" d="M323.987,202.06h-9.548a1.4,1.4,0,0,0-1.361,1.291l-.188,3.315a1.208,1.208,0,0,0,1.214,1.291h9.548a1.4,1.4,0,0,0,1.361-1.291l.188-3.315a1.208,1.208,0,0,0-1.214-1.291Z" transform="translate(-276.992 -192.79)"/><path class="g" d="M300.792,202.15h-9.548a1.4,1.4,0,0,0-1.326,1.291l-.188,3.315a1.207,1.207,0,0,0,1.214,1.291h9.513a1.4,1.4,0,0,0,1.361-1.291l.188-3.315a1.207,1.207,0,0,0-1.214-1.291Z" transform="translate(-269.997 -192.817)"/><path class="g" d="M277.567,202.23h-9.548a1.4,1.4,0,0,0-1.354,1.291l-.2,3.315a1.214,1.214,0,0,0,1.214,1.291h9.548a1.4,1.4,0,0,0,1.361-1.291l.188-3.315a1.207,1.207,0,0,0-1.214-1.291Z" transform="translate(-262.972 -192.841)"/><path class="g" d="M369.107,219.77h-9.074a1.633,1.633,0,0,0-1.612,1.529l-.272,4.676a1.431,1.431,0,0,0,1.445,1.529h9.074a1.633,1.633,0,0,0,1.612-1.529l.265-4.676a1.4,1.4,0,0,0-1.438-1.529Z" transform="translate(-290.661 -198.139)"/><path class="g" d="M345.909,219.65h-9.074a1.64,1.64,0,0,0-1.612,1.536l-.265,4.676a1.4,1.4,0,0,0,1.438,1.529h9.074a1.633,1.633,0,0,0,1.612-1.529l.272-4.676a1.438,1.438,0,0,0-1.445-1.536Z" transform="translate(-283.656 -198.103)"/><path class="g" d="M322.7,219.77h-9.074a1.633,1.633,0,0,0-1.612,1.529l-.265,4.676a1.4,1.4,0,0,0,1.438,1.529h9.074a1.633,1.633,0,0,0,1.612-1.529l.265-4.676a1.4,1.4,0,0,0-1.438-1.529Z" transform="translate(-276.646 -198.139)"/><path class="g" d="M299.487,219.88h-9.074a1.633,1.633,0,0,0-1.612,1.536l-.272,4.669a1.438,1.438,0,0,0,1.445,1.536h9.074a1.64,1.64,0,0,0,1.612-1.536l.265-4.669a1.4,1.4,0,0,0-1.438-1.536Z" transform="translate(-269.634 -198.172)"/><path class="g" d="M276.255,220h-9.074a1.647,1.647,0,0,0-1.619,1.536l-.265,4.676a1.4,1.4,0,0,0,1.445,1.529h9.074a1.633,1.633,0,0,0,1.612-1.529l.265-4.676A1.4,1.4,0,0,0,276.255,220Z" transform="translate(-262.617 -198.208)"/><path class="g" d="M342.047,287.51h-9.074a1.633,1.633,0,0,0-1.612,1.536l-.272,4.669a1.431,1.431,0,0,0,1.445,1.536h9.074a1.633,1.633,0,0,0,1.612-1.536l.265-4.669a1.4,1.4,0,0,0-1.438-1.536Z" transform="translate(-282.488 -218.598)"/><path class="g" d="M318.835,287.62h-9.074a1.647,1.647,0,0,0-1.619,1.536l-.265,4.676a1.4,1.4,0,0,0,1.445,1.529H318.4a1.633,1.633,0,0,0,1.612-1.529l.265-4.676a1.4,1.4,0,0,0-1.438-1.536Z" transform="translate(-275.477 -218.631)"/><path class="g" d="M295.627,287.74h-9.074a1.64,1.64,0,0,0-1.619,1.529l-.265,4.676a1.438,1.438,0,0,0,1.438,1.536h9.074a1.647,1.647,0,0,0,1.612-1.536l.265-4.676a1.4,1.4,0,0,0-1.431-1.529Z" transform="translate(-268.468 -218.667)"/><path class="g" d="M272.418,287.85h-9.074a1.64,1.64,0,0,0-1.612,1.536l-.265,4.669a1.4,1.4,0,0,0,1.438,1.536h9.074a1.64,1.64,0,0,0,1.619-1.536l.265-4.669a1.4,1.4,0,0,0-1.445-1.536Z" transform="translate(-261.46 -218.7)"/><path class="g" d="M365.957,270.66h-9.074a1.633,1.633,0,0,0-1.612,1.536l-.23,4.062-.035.607-.7,11.866a1.4,1.4,0,0,0,1.445,1.529h9.074a1.64,1.64,0,0,0,1.612-1.529l.7-11.866v-.607l.237-4.062a1.431,1.431,0,0,0-1.417-1.536Z" transform="translate(-289.5 -213.509)"/><path class="g" d="M343.008,270.55h-9.074a1.64,1.64,0,0,0-1.612,1.529l-.265,4.676a1.4,1.4,0,0,0,1.438,1.529h9.074a1.64,1.64,0,0,0,1.619-1.529l.265-4.676a1.4,1.4,0,0,0-1.445-1.529Z" transform="translate(-282.78 -213.475)"/><path class="g" d="M319.8,270.66h-9.074a1.633,1.633,0,0,0-1.612,1.535l-.265,4.669a1.4,1.4,0,0,0,1.438,1.536h9.074a1.647,1.647,0,0,0,1.619-1.536l.265-4.669a1.431,1.431,0,0,0-1.445-1.536Z" transform="translate(-275.77 -213.509)"/><path class="g" d="M296.582,270.77h-9.074a1.64,1.64,0,0,0-1.626,1.556L285.617,277a1.4,1.4,0,0,0,1.438,1.529h9.074A1.633,1.633,0,0,0,297.741,277l.272-4.676a1.438,1.438,0,0,0-1.431-1.557Z" transform="translate(-268.754 -213.542)"/><path class="g" d="M273.378,270.889H264.3a1.633,1.633,0,0,0-1.612,1.529l-.265,4.676a1.4,1.4,0,0,0,1.445,1.55h9.074a1.633,1.633,0,0,0,1.612-1.529l.265-4.676a1.4,1.4,0,0,0-1.445-1.549Z" transform="translate(-261.749 -213.578)"/><path class="g" d="M367.175,253.7H358.1a1.64,1.64,0,0,0-1.619,1.529l-.265,4.676a1.4,1.4,0,0,0,1.445,1.529h9.074a1.633,1.633,0,0,0,1.612-1.529l.265-4.676a1.4,1.4,0,0,0-1.438-1.529Z" transform="translate(-290.077 -208.386)"/><path class="g" d="M343.978,253.58H334.9a1.64,1.64,0,0,0-1.612,1.536l-.265,4.669a1.4,1.4,0,0,0,1.438,1.536h9.074a1.633,1.633,0,0,0,1.612-1.536l.265-4.669a1.4,1.4,0,0,0-1.438-1.536Z" transform="translate(-283.073 -208.35)"/><path class="g" d="M320.765,253.7h-9.074a1.633,1.633,0,0,0-1.612,1.529l-.272,4.676a1.4,1.4,0,0,0,1.445,1.529h9.074a1.633,1.633,0,0,0,1.612-1.529l.265-4.676a1.4,1.4,0,0,0-1.438-1.529Z" transform="translate(-276.06 -208.386)"/><path class="g" d="M297.563,253.809h-9.074a1.64,1.64,0,0,0-1.605,1.529l-.265,4.676a1.438,1.438,0,0,0,1.445,1.536h9.074a1.64,1.64,0,0,0,1.612-1.536l.265-4.676a1.4,1.4,0,0,0-1.452-1.529Z" transform="translate(-269.057 -208.419)"/><path class="g" d="M274.345,253.92h-9.074a1.64,1.64,0,0,0-1.619,1.536l-.265,4.669a1.4,1.4,0,0,0,1.438,1.536H273.9a1.64,1.64,0,0,0,1.612-1.536l.265-4.669a1.4,1.4,0,0,0-1.431-1.536Z" transform="translate(-262.04 -208.453)"/><path class="g" d="M368.138,236.73h-9.074a1.64,1.64,0,0,0-1.612,1.536l-.265,4.669a1.4,1.4,0,0,0,1.438,1.536H367.7a1.64,1.64,0,0,0,1.619-1.536l.265-4.669a1.431,1.431,0,0,0-1.445-1.536Z" transform="translate(-290.369 -203.261)"/><path class="g" d="M344.947,236.62h-9.074a1.64,1.64,0,0,0-1.619,1.529l-.265,4.676a1.438,1.438,0,0,0,1.438,1.536H344.5a1.647,1.647,0,0,0,1.612-1.536l.265-4.676a1.4,1.4,0,0,0-1.431-1.529Z" transform="translate(-283.364 -203.228)"/><path class="g" d="M321.738,236.729h-9.074a1.64,1.64,0,0,0-1.612,1.536l-.265,4.669a1.4,1.4,0,0,0,1.438,1.536H321.3a1.64,1.64,0,0,0,1.619-1.536l.265-4.669a1.4,1.4,0,0,0-1.445-1.536Z" transform="translate(-276.356 -203.261)"/><path class="g" d="M298.534,236.84H289.46a1.64,1.64,0,0,0-1.577,1.508l-.265,4.676a1.4,1.4,0,0,0,1.438,1.529h9.074a1.64,1.64,0,0,0,1.619-1.529l.265-4.676a1.438,1.438,0,0,0-1.48-1.508Z" transform="translate(-269.358 -203.294)"/><path class="g" d="M275.308,237h-9.074a1.633,1.633,0,0,0-1.612,1.529l-.265,4.676a1.4,1.4,0,0,0,1.438,1.536h9.074a1.633,1.633,0,0,0,1.612-1.536l.272-4.676A1.4,1.4,0,0,0,275.308,237Z" transform="translate(-262.333 -203.342)"/></g><path class="g" d="M370.191,188.87h-9.527a1.4,1.4,0,0,0-1.4,1.291l-.188,3.315a1.208,1.208,0,0,0,1.214,1.291h9.548a1.4,1.4,0,0,0,1.361-1.291l.188-3.315a1.207,1.207,0,0,0-1.2-1.291Z" transform="translate(1488.551 -8908.031)"/><path class="g" d="M347.027,188.78h-9.548a1.4,1.4,0,0,0-1.361,1.291l-.188,3.315a1.207,1.207,0,0,0,1.215,1.291h9.548a1.4,1.4,0,0,0,1.361-1.291l.188-3.315a1.207,1.207,0,0,0-1.214-1.291Z" transform="translate(1495.543 -8908.004)"/><path class="g" d="M369.461,202.06h-9.548a1.4,1.4,0,0,0-1.4,1.291l-.188,3.315a1.208,1.208,0,0,0,1.215,1.291h9.583a1.4,1.4,0,0,0,1.361-1.291l.188-3.315a1.207,1.207,0,0,0-1.214-1.291Z" transform="translate(1488.777 -8912.015)"/><path class="g" d="M346.276,202h-9.548a1.4,1.4,0,0,0-1.361,1.291l-.188,3.308a1.2,1.2,0,0,0,1.214,1.291h9.548A1.4,1.4,0,0,0,347.3,206.6l.188-3.308A1.207,1.207,0,0,0,346.276,202Z" transform="translate(1495.77 -8911.996)"/><path class="g" d="M323.067,202.06h-9.548a1.4,1.4,0,0,0-1.361,1.291l-.188,3.315a1.208,1.208,0,0,0,1.214,1.291h9.548a1.4,1.4,0,0,0,1.361-1.291l.188-3.315a1.208,1.208,0,0,0-1.214-1.291Z" transform="translate(1502.779 -8912.015)"/><path class="g" d="M299.848,202.15h-9.534a1.4,1.4,0,0,0-1.4,1.291l-.188,3.315a1.208,1.208,0,0,0,1.214,1.291h9.548a1.4,1.4,0,0,0,1.361-1.291l.188-3.315a1.208,1.208,0,0,0-1.194-1.291Z" transform="translate(1509.798 -8912.042)"/><path class="g" d="M276.647,202.23H267.1a1.4,1.4,0,0,0-1.361,1.291l-.188,3.315a1.207,1.207,0,0,0,1.214,1.291h9.569a1.4,1.4,0,0,0,1.361-1.291l.188-3.315a1.208,1.208,0,0,0-1.235-1.291Z" transform="translate(1516.799 -8912.065)"/><path class="g" d="M368.189,219.769h-9.074A1.64,1.64,0,0,0,357.5,221.3l-.265,4.676a1.4,1.4,0,0,0,1.438,1.529h9.074a1.64,1.64,0,0,0,1.619-1.529l.265-4.649a1.4,1.4,0,0,0-1.445-1.556Z" transform="translate(1489.108 -8917.363)"/><path class="g" d="M344.985,219.65h-9.074a1.647,1.647,0,0,0-1.619,1.536l-.265,4.676a1.4,1.4,0,0,0,1.438,1.529h9.074a1.64,1.64,0,0,0,1.612-1.529l.265-4.676a1.4,1.4,0,0,0-1.431-1.536Z" transform="translate(1496.118 -8917.327)"/><path class="g" d="M321.778,219.77H312.7a1.64,1.64,0,0,0-1.612,1.529l-.265,4.676a1.4,1.4,0,0,0,1.438,1.529h9.074a1.64,1.64,0,0,0,1.619-1.529l.265-4.676a1.4,1.4,0,0,0-1.445-1.529Z" transform="translate(1503.125 -8917.363)"/><path class="g" d="M298.558,219.88h-9.074a1.633,1.633,0,0,0-1.612,1.536l-.265,4.669a1.4,1.4,0,0,0,1.438,1.536h9.074a1.647,1.647,0,0,0,1.619-1.536l.265-4.669a1.431,1.431,0,0,0-1.445-1.536Z" transform="translate(1510.138 -8917.396)"/><path class="g" d="M275.348,220h-9.074a1.64,1.64,0,0,0-1.612,1.536l-.265,4.676a1.4,1.4,0,0,0,1.438,1.529h9.074a1.64,1.64,0,0,0,1.619-1.529l.265-4.676A1.438,1.438,0,0,0,275.348,220Z" transform="translate(1517.148 -8917.433)"/><path class="g" d="M341.118,287.51h-9.074a1.633,1.633,0,0,0-1.612,1.536l-.265,4.669a1.4,1.4,0,0,0,1.438,1.536h9.074a1.64,1.64,0,0,0,1.619-1.536l.265-4.669a1.431,1.431,0,0,0-1.445-1.536Z" transform="translate(1497.284 -8937.822)"/><path class="g" d="M317.908,287.62h-9.074a1.64,1.64,0,0,0-1.612,1.536l-.265,4.676a1.4,1.4,0,0,0,1.438,1.529h9.074a1.633,1.633,0,0,0,1.612-1.529l.272-4.676a1.438,1.438,0,0,0-1.445-1.536Z" transform="translate(1504.294 -8937.855)"/><path class="g" d="M294.7,287.74h-9.074a1.633,1.633,0,0,0-1.612,1.529l-.265,4.676a1.4,1.4,0,0,0,1.438,1.536h9.074a1.64,1.64,0,0,0,1.612-1.536l.265-4.676a1.4,1.4,0,0,0-1.438-1.529Z" transform="translate(1511.304 -8937.892)"/><path class="g" d="M271.487,287.85h-9.074a1.633,1.633,0,0,0-1.612,1.536l-.272,4.669a1.438,1.438,0,0,0,1.445,1.536h9.074a1.633,1.633,0,0,0,1.612-1.536l.265-4.669a1.4,1.4,0,0,0-1.438-1.536Z" transform="translate(1518.315 -8937.925)"/><path class="g" d="M364.953,270.66H355.88a1.64,1.64,0,0,0-1.619,1.536l-.23,4.062-.035.607-.7,11.866a1.4,1.4,0,0,0,1.438,1.529h9.074a1.633,1.633,0,0,0,1.612-1.529l.7-11.866.035-.607.23-4.062a1.4,1.4,0,0,0-1.431-1.536Z" transform="translate(1490.298 -8932.733)"/><path class="g" d="M342.087,270.55h-9.074a1.633,1.633,0,0,0-1.612,1.529l-.272,4.676a1.431,1.431,0,0,0,1.445,1.529h9.074a1.633,1.633,0,0,0,1.612-1.529l.265-4.676a1.4,1.4,0,0,0-1.438-1.529Z" transform="translate(1496.993 -8932.7)"/><path class="g" d="M318.877,270.66H309.8a1.64,1.64,0,0,0-1.619,1.536l-.265,4.669a1.438,1.438,0,0,0,1.445,1.536h9.074a1.64,1.64,0,0,0,1.612-1.536l.265-4.669a1.4,1.4,0,0,0-1.438-1.536Z" transform="translate(1504.003 -8932.733)"/><path class="g" d="M295.665,270.77h-9.074a1.647,1.647,0,0,0-1.619,1.536l-.265,4.676a1.4,1.4,0,0,0,1.445,1.529h9.074a1.64,1.64,0,0,0,1.612-1.529l.265-4.676a1.4,1.4,0,0,0-1.438-1.536Z" transform="translate(1511.014 -8932.767)"/><path class="g" d="M272.455,270.89h-9.074a1.64,1.64,0,0,0-1.619,1.529l-.265,4.676a1.4,1.4,0,0,0,1.438,1.529h9.074a1.64,1.64,0,0,0,1.612-1.529l.265-4.676a1.4,1.4,0,0,0-1.431-1.529Z" transform="translate(1518.024 -8932.803)"/><path class="g" d="M366.258,253.7h-9.074a1.633,1.633,0,0,0-1.612,1.529l-.265,4.676a1.4,1.4,0,0,0,1.438,1.529h9.074a1.64,1.64,0,0,0,1.619-1.529l.265-4.676a1.4,1.4,0,0,0-1.445-1.529Z" transform="translate(1489.691 -8927.61)"/><path class="g" d="M343.058,253.58h-9.074a1.647,1.647,0,0,0-1.612,1.536l-.265,4.669a1.4,1.4,0,0,0,1.438,1.536h9.074a1.64,1.64,0,0,0,1.619-1.536l.265-4.669a1.438,1.438,0,0,0-1.445-1.536Z" transform="translate(1496.698 -8927.575)"/><path class="g" d="M319.839,253.7h-9.074a1.633,1.633,0,0,0-1.612,1.529l-.265,4.676a1.4,1.4,0,0,0,1.438,1.529H319.4a1.64,1.64,0,0,0,1.619-1.529l.265-4.676a1.4,1.4,0,0,0-1.445-1.529Z" transform="translate(1503.711 -8927.61)"/><path class="g" d="M296.628,253.81h-9.074a1.633,1.633,0,0,0-1.612,1.529l-.265,4.676a1.4,1.4,0,0,0,1.438,1.536h9.074a1.647,1.647,0,0,0,1.619-1.536l.265-4.676a1.4,1.4,0,0,0-1.445-1.529Z" transform="translate(1510.721 -8927.644)"/><path class="g" d="M273.418,253.92h-9.074a1.633,1.633,0,0,0-1.612,1.536l-.265,4.67a1.4,1.4,0,0,0,1.438,1.536h9.074a1.633,1.633,0,0,0,1.612-1.536l.272-4.669a1.438,1.438,0,0,0-1.445-1.536Z" transform="translate(1517.731 -8927.678)"/><path class="g" d="M367.257,236.73h-9.074a1.633,1.633,0,0,0-1.612,1.536l-.272,4.669a1.431,1.431,0,0,0,1.445,1.536h9.074a1.633,1.633,0,0,0,1.612-1.536l.265-4.669a1.4,1.4,0,0,0-1.438-1.536Z" transform="translate(1489.391 -8922.485)"/><path class="g" d="M344.018,236.62h-9.074a1.633,1.633,0,0,0-1.612,1.529l-.265,4.676a1.4,1.4,0,0,0,1.438,1.536h9.074a1.64,1.64,0,0,0,1.612-1.536l.265-4.676a1.4,1.4,0,0,0-1.438-1.529Z" transform="translate(1496.408 -8922.452)"/><path class="g" d="M320.807,236.73h-9.074a1.633,1.633,0,0,0-1.612,1.536l-.272,4.669a1.438,1.438,0,0,0,1.445,1.536h9.074a1.633,1.633,0,0,0,1.612-1.536l.265-4.669a1.4,1.4,0,0,0-1.438-1.536Z" transform="translate(1503.42 -8922.485)"/><path class="g" d="M297.589,236.84h-9.074a1.647,1.647,0,0,0-1.633,1.508l-.265,4.676a1.4,1.4,0,0,0,1.445,1.529h9.074a1.633,1.633,0,0,0,1.612-1.529l.265-4.676a1.4,1.4,0,0,0-1.424-1.508Z" transform="translate(1510.437 -8922.519)"/><path class="g" d="M274.387,237h-9.074a1.64,1.64,0,0,0-1.619,1.529l-.265,4.676a1.438,1.438,0,0,0,1.445,1.536h9.074a1.647,1.647,0,0,0,1.612-1.536l.265-4.676A1.4,1.4,0,0,0,274.387,237Z" transform="translate(1517.44 -8922.566)"/><g class="m" transform="translate(1778.841 -8719.224)"><path class="n" d="M370.191,188.87h-9.527a1.4,1.4,0,0,0-1.4,1.291l-.188,3.315a1.208,1.208,0,0,0,1.214,1.291h9.548a1.4,1.4,0,0,0,1.361-1.291l.188-3.315a1.207,1.207,0,0,0-1.2-1.291Z" transform="translate(-290.29 -188.807)"/><path class="n" d="M347.027,188.78h-9.548a1.4,1.4,0,0,0-1.361,1.291l-.188,3.315a1.207,1.207,0,0,0,1.215,1.291h9.548a1.4,1.4,0,0,0,1.361-1.291l.188-3.315a1.207,1.207,0,0,0-1.214-1.291Z" transform="translate(-283.298 -188.78)"/><path class="n" d="M369.461,202.06h-9.548a1.4,1.4,0,0,0-1.4,1.291l-.188,3.315a1.208,1.208,0,0,0,1.215,1.291h9.583a1.4,1.4,0,0,0,1.361-1.291l.188-3.315a1.207,1.207,0,0,0-1.214-1.291Z" transform="translate(-290.063 -192.791)"/><path class="n" d="M346.276,202h-9.548a1.4,1.4,0,0,0-1.361,1.291l-.188,3.308a1.2,1.2,0,0,0,1.214,1.291h9.548A1.4,1.4,0,0,0,347.3,206.6l.188-3.308A1.207,1.207,0,0,0,346.276,202Z" transform="translate(-283.071 -192.773)"/><path class="n" d="M323.067,202.06h-9.548a1.4,1.4,0,0,0-1.361,1.291l-.188,3.315a1.208,1.208,0,0,0,1.214,1.291h9.548a1.4,1.4,0,0,0,1.361-1.291l.188-3.315a1.208,1.208,0,0,0-1.214-1.291Z" transform="translate(-276.061 -192.791)"/><path class="n" d="M299.848,202.15h-9.534a1.4,1.4,0,0,0-1.4,1.291l-.188,3.315a1.208,1.208,0,0,0,1.214,1.291h9.548a1.4,1.4,0,0,0,1.361-1.291l.188-3.315a1.208,1.208,0,0,0-1.194-1.291Z" transform="translate(-269.042 -192.818)"/><path class="n" d="M276.647,202.23H267.1a1.4,1.4,0,0,0-1.361,1.291l-.188,3.315a1.207,1.207,0,0,0,1.214,1.291h9.569a1.4,1.4,0,0,0,1.361-1.291l.188-3.315a1.208,1.208,0,0,0-1.235-1.291Z" transform="translate(-262.042 -192.842)"/><path class="n" d="M368.189,219.769h-9.074A1.64,1.64,0,0,0,357.5,221.3l-.265,4.676a1.4,1.4,0,0,0,1.438,1.529h9.074a1.64,1.64,0,0,0,1.619-1.529l.265-4.649a1.4,1.4,0,0,0-1.445-1.556Z" transform="translate(-289.733 -198.139)"/><path class="n" d="M344.985,219.65h-9.074a1.647,1.647,0,0,0-1.619,1.536l-.265,4.676a1.4,1.4,0,0,0,1.438,1.529h9.074a1.64,1.64,0,0,0,1.612-1.529l.265-4.676a1.4,1.4,0,0,0-1.431-1.536Z" transform="translate(-282.723 -198.103)"/><path class="n" d="M321.778,219.77H312.7a1.64,1.64,0,0,0-1.612,1.529l-.265,4.676a1.4,1.4,0,0,0,1.438,1.529h9.074a1.64,1.64,0,0,0,1.619-1.529l.265-4.676a1.4,1.4,0,0,0-1.445-1.529Z" transform="translate(-275.716 -198.139)"/><path class="n" d="M298.558,219.88h-9.074a1.633,1.633,0,0,0-1.612,1.536l-.265,4.669a1.4,1.4,0,0,0,1.438,1.536h9.074a1.647,1.647,0,0,0,1.619-1.536l.265-4.669a1.431,1.431,0,0,0-1.445-1.536Z" transform="translate(-268.702 -198.173)"/><path class="n" d="M275.348,220h-9.074a1.64,1.64,0,0,0-1.612,1.536l-.265,4.676a1.4,1.4,0,0,0,1.438,1.529h9.074a1.64,1.64,0,0,0,1.619-1.529l.265-4.676A1.438,1.438,0,0,0,275.348,220Z" transform="translate(-261.693 -198.209)"/><path class="n" d="M341.118,287.51h-9.074a1.633,1.633,0,0,0-1.612,1.536l-.265,4.669a1.4,1.4,0,0,0,1.438,1.536h9.074a1.64,1.64,0,0,0,1.619-1.536l.265-4.669a1.431,1.431,0,0,0-1.445-1.536Z" transform="translate(-281.556 -218.599)"/><path class="n" d="M317.908,287.62h-9.074a1.64,1.64,0,0,0-1.612,1.536l-.265,4.676a1.4,1.4,0,0,0,1.438,1.529h9.074a1.633,1.633,0,0,0,1.612-1.529l.272-4.676a1.438,1.438,0,0,0-1.445-1.536Z" transform="translate(-274.547 -218.632)"/><path class="n" d="M294.7,287.74h-9.074a1.633,1.633,0,0,0-1.612,1.529l-.265,4.676a1.4,1.4,0,0,0,1.438,1.536h9.074a1.64,1.64,0,0,0,1.612-1.536l.265-4.676a1.4,1.4,0,0,0-1.438-1.529Z" transform="translate(-267.537 -218.668)"/><path class="n" d="M271.487,287.85h-9.074a1.633,1.633,0,0,0-1.612,1.536l-.272,4.669a1.438,1.438,0,0,0,1.445,1.536h9.074a1.633,1.633,0,0,0,1.612-1.536l.265-4.669a1.4,1.4,0,0,0-1.438-1.536Z" transform="translate(-260.525 -218.701)"/><path class="n" d="M364.953,270.66H355.88a1.64,1.64,0,0,0-1.619,1.536l-.23,4.062-.035.607-.7,11.866a1.4,1.4,0,0,0,1.438,1.529h9.074a1.633,1.633,0,0,0,1.612-1.529l.7-11.866.035-.607.23-4.062a1.4,1.4,0,0,0-1.431-1.536Z" transform="translate(-288.543 -213.509)"/><path class="n" d="M342.087,270.55h-9.074a1.633,1.633,0,0,0-1.612,1.529l-.272,4.676a1.431,1.431,0,0,0,1.445,1.529h9.074a1.633,1.633,0,0,0,1.612-1.529l.265-4.676a1.4,1.4,0,0,0-1.438-1.529Z" transform="translate(-281.848 -213.476)"/><path class="n" d="M318.877,270.66H309.8a1.64,1.64,0,0,0-1.619,1.536l-.265,4.669a1.438,1.438,0,0,0,1.445,1.536h9.074a1.64,1.64,0,0,0,1.612-1.536l.265-4.669a1.4,1.4,0,0,0-1.438-1.536Z" transform="translate(-274.838 -213.509)"/><path class="n" d="M295.665,270.77h-9.074a1.647,1.647,0,0,0-1.619,1.536l-.265,4.676a1.4,1.4,0,0,0,1.445,1.529h9.074a1.64,1.64,0,0,0,1.612-1.529l.265-4.676a1.4,1.4,0,0,0-1.438-1.536Z" transform="translate(-267.827 -213.542)"/><path class="n" d="M272.455,270.89h-9.074a1.64,1.64,0,0,0-1.619,1.529l-.265,4.676a1.4,1.4,0,0,0,1.438,1.529h9.074a1.64,1.64,0,0,0,1.612-1.529l.265-4.676a1.4,1.4,0,0,0-1.431-1.529Z" transform="translate(-260.817 -213.579)"/><path class="n" d="M366.258,253.7h-9.074a1.633,1.633,0,0,0-1.612,1.529l-.265,4.676a1.4,1.4,0,0,0,1.438,1.529h9.074a1.64,1.64,0,0,0,1.619-1.529l.265-4.676a1.4,1.4,0,0,0-1.445-1.529Z" transform="translate(-289.15 -208.387)"/><path class="n" d="M343.058,253.58h-9.074a1.647,1.647,0,0,0-1.612,1.536l-.265,4.669a1.4,1.4,0,0,0,1.438,1.536h9.074a1.64,1.64,0,0,0,1.619-1.536l.265-4.669a1.438,1.438,0,0,0-1.445-1.536Z" transform="translate(-282.142 -208.351)"/><path class="n" d="M319.839,253.7h-9.074a1.633,1.633,0,0,0-1.612,1.529l-.265,4.676a1.4,1.4,0,0,0,1.438,1.529H319.4a1.64,1.64,0,0,0,1.619-1.529l.265-4.676a1.4,1.4,0,0,0-1.445-1.529Z" transform="translate(-275.13 -208.387)"/><path class="n" d="M296.628,253.81h-9.074a1.633,1.633,0,0,0-1.612,1.529l-.265,4.676a1.4,1.4,0,0,0,1.438,1.536h9.074a1.647,1.647,0,0,0,1.619-1.536l.265-4.676a1.4,1.4,0,0,0-1.445-1.529Z" transform="translate(-268.119 -208.42)"/><path class="n" d="M273.418,253.92h-9.074a1.633,1.633,0,0,0-1.612,1.536l-.265,4.67a1.4,1.4,0,0,0,1.438,1.536h9.074a1.633,1.633,0,0,0,1.612-1.536l.272-4.669a1.438,1.438,0,0,0-1.445-1.536Z" transform="translate(-261.11 -208.454)"/><path class="n" d="M367.257,236.73h-9.074a1.633,1.633,0,0,0-1.612,1.536l-.272,4.669a1.431,1.431,0,0,0,1.445,1.536h9.074a1.633,1.633,0,0,0,1.612-1.536l.265-4.669a1.4,1.4,0,0,0-1.438-1.536Z" transform="translate(-289.45 -203.262)"/><path class="n" d="M344.018,236.62h-9.074a1.633,1.633,0,0,0-1.612,1.529l-.265,4.676a1.4,1.4,0,0,0,1.438,1.536h9.074a1.64,1.64,0,0,0,1.612-1.536l.265-4.676a1.4,1.4,0,0,0-1.438-1.529Z" transform="translate(-282.432 -203.228)"/><path class="n" d="M320.807,236.73h-9.074a1.633,1.633,0,0,0-1.612,1.536l-.272,4.669a1.438,1.438,0,0,0,1.445,1.536h9.074a1.633,1.633,0,0,0,1.612-1.536l.265-4.669a1.4,1.4,0,0,0-1.438-1.536Z" transform="translate(-275.421 -203.262)"/><path class="n" d="M297.589,236.84h-9.074a1.647,1.647,0,0,0-1.633,1.508l-.265,4.676a1.4,1.4,0,0,0,1.445,1.529h9.074a1.633,1.633,0,0,0,1.612-1.529l.265-4.676a1.4,1.4,0,0,0-1.424-1.508Z" transform="translate(-268.404 -203.295)"/><path class="n" d="M274.387,237h-9.074a1.64,1.64,0,0,0-1.619,1.529l-.265,4.676a1.438,1.438,0,0,0,1.445,1.536h9.074a1.647,1.647,0,0,0,1.612-1.536l.265-4.676A1.4,1.4,0,0,0,274.387,237Z" transform="translate(-261.401 -203.343)"/></g><g class="o" transform="translate(1831.469 -8719.224)"><path d="M369.892,194.768h-9.548a1.208,1.208,0,0,1-1.215-1.291l.188-3.315a1.4,1.4,0,0,1,1.4-1.291h9.492a1.207,1.207,0,0,1,1.214,1.291l-.188,3.315A1.4,1.4,0,0,1,369.892,194.768Z" transform="translate(-342.933 -188.807)"/><path d="M346.692,194.678h-9.548a1.207,1.207,0,0,1-1.214-1.291l.188-3.315a1.4,1.4,0,0,1,1.361-1.291h9.548a1.208,1.208,0,0,1,1.214,1.291l-.188,3.315A1.4,1.4,0,0,1,346.692,194.678Z" transform="translate(-335.926 -188.78)"/></g><g class="o" transform="translate(1782.345 -8709.996)"><path d="M369.142,207.958h-9.548a1.207,1.207,0,0,1-1.214-1.291l.188-3.315a1.4,1.4,0,0,1,1.4-1.291h9.548a1.207,1.207,0,0,1,1.215,1.291l-.188,3.315A1.4,1.4,0,0,1,369.142,207.958Z" transform="translate(-293.583 -202.018)"/><path d="M345.941,207.877h-9.548a1.2,1.2,0,0,1-1.214-1.291l.188-3.308A1.4,1.4,0,0,1,336.728,202h9.548a1.208,1.208,0,0,1,1.214,1.291L347.3,206.6A1.4,1.4,0,0,1,345.941,207.877Z" transform="translate(-286.575 -202)"/><path d="M322.732,207.958h-9.548a1.208,1.208,0,0,1-1.215-1.291l.189-3.315a1.4,1.4,0,0,1,1.361-1.291h9.548a1.208,1.208,0,0,1,1.215,1.291l-.189,3.315A1.4,1.4,0,0,1,322.732,207.958Z" transform="translate(-279.566 -202.018)"/><path d="M299.522,208.048h-9.548a1.207,1.207,0,0,1-1.214-1.291l.167-3.315a1.4,1.4,0,0,1,1.4-1.291h9.548a1.207,1.207,0,0,1,1.2,1.291l-.188,3.315A1.4,1.4,0,0,1,299.522,208.048Z" transform="translate(-272.556 -202.045)"/><path d="M276.332,208.128h-9.569a1.208,1.208,0,0,1-1.214-1.291l.188-3.315a1.4,1.4,0,0,1,1.361-1.291h9.548a1.208,1.208,0,0,1,1.215,1.291l-.188,3.315A1.4,1.4,0,0,1,276.332,208.128Z" transform="translate(-265.546 -202.069)"/></g><path class="p" d="M302.235,192.486h18.636a.754.754,0,0,0,.74-.7h0a.7.7,0,0,0-.663-.7H302.319a.754.754,0,0,0-.74.7h0a.649.649,0,0,0,.656.7Z" transform="translate(1505.917 -8908.701)"/><path class="p" d="M267.163,192.486h18.629a.754.754,0,0,0,.747-.7h0a.7.7,0,0,0-.663-.7H267.247a.761.761,0,0,0-.747.7h0A.7.7,0,0,0,267.163,192.486Z" transform="translate(1516.511 -8908.701)"/><path class="g" d="M272.748,192.818h-2.464a1.152,1.152,0,0,1-1.166-1.235h0a1.319,1.319,0,0,1,1.305-1.242h2.471a1.152,1.152,0,0,1,1.159,1.242h0A1.319,1.319,0,0,1,272.748,192.818Z" transform="translate(1515.721 -8908.475)"/><path class="g" d="M322.535,192.788h-2.471a1.159,1.159,0,0,1-1.166-1.242h0a1.326,1.326,0,0,1,1.305-1.235h2.471a1.152,1.152,0,0,1,1.166,1.235h0A1.326,1.326,0,0,1,322.535,192.788Z" transform="translate(1500.686 -8908.466)"/><path class="q" d="M368.189,219.769h-9.074A1.64,1.64,0,0,0,357.5,221.3l-.265,4.676a1.4,1.4,0,0,0,1.438,1.529h9.074a1.64,1.64,0,0,0,1.619-1.529l.265-4.649a1.4,1.4,0,0,0-1.445-1.556Z" transform="translate(1489.108 -8917.363)"/><path class="q" d="M344.985,219.65h-9.074a1.647,1.647,0,0,0-1.619,1.536l-.265,4.676a1.4,1.4,0,0,0,1.438,1.529h9.074a1.64,1.64,0,0,0,1.612-1.529l.265-4.676a1.4,1.4,0,0,0-1.431-1.536Z" transform="translate(1496.118 -8917.327)"/><path class="q" d="M321.778,219.77H312.7a1.64,1.64,0,0,0-1.612,1.529l-.265,4.676a1.4,1.4,0,0,0,1.438,1.529h9.074a1.64,1.64,0,0,0,1.619-1.529l.265-4.676a1.4,1.4,0,0,0-1.445-1.529Z" transform="translate(1503.125 -8917.363)"/><path class="q" d="M298.558,219.88h-9.074a1.633,1.633,0,0,0-1.612,1.536l-.265,4.669a1.4,1.4,0,0,0,1.438,1.536h9.074a1.647,1.647,0,0,0,1.619-1.536l.265-4.669a1.431,1.431,0,0,0-1.445-1.536Z" transform="translate(1510.138 -8917.396)"/><path class="q" d="M275.348,220h-9.074a1.64,1.64,0,0,0-1.612,1.536l-.265,4.676a1.4,1.4,0,0,0,1.438,1.529h9.074a1.64,1.64,0,0,0,1.619-1.529l.265-4.676A1.438,1.438,0,0,0,275.348,220Z" transform="translate(1517.148 -8917.433)"/><path class="q" d="M341.118,287.51h-9.074a1.633,1.633,0,0,0-1.612,1.536l-.265,4.669a1.4,1.4,0,0,0,1.438,1.536h9.074a1.64,1.64,0,0,0,1.619-1.536l.265-4.669a1.431,1.431,0,0,0-1.445-1.536Z" transform="translate(1497.284 -8937.822)"/><path class="q" d="M317.908,287.62h-9.074a1.64,1.64,0,0,0-1.612,1.536l-.265,4.676a1.4,1.4,0,0,0,1.438,1.529h9.074a1.633,1.633,0,0,0,1.612-1.529l.272-4.676a1.438,1.438,0,0,0-1.445-1.536Z" transform="translate(1504.294 -8937.855)"/><path class="q" d="M294.7,287.74h-9.074a1.633,1.633,0,0,0-1.612,1.529l-.265,4.676a1.4,1.4,0,0,0,1.438,1.536h9.074a1.64,1.64,0,0,0,1.612-1.536l.265-4.676a1.4,1.4,0,0,0-1.438-1.529Z" transform="translate(1511.304 -8937.892)"/><path class="q" d="M271.487,287.85h-9.074a1.633,1.633,0,0,0-1.612,1.536l-.272,4.669a1.438,1.438,0,0,0,1.445,1.536h9.074a1.633,1.633,0,0,0,1.612-1.536l.265-4.669a1.4,1.4,0,0,0-1.438-1.536Z" transform="translate(1518.315 -8937.925)"/><path class="h" d="M364.953,270.66H355.88a1.64,1.64,0,0,0-1.619,1.536l-.23,4.062-.035.607-.7,11.866a1.4,1.4,0,0,0,1.438,1.529h9.074a1.633,1.633,0,0,0,1.612-1.529l.7-11.866.035-.607.23-4.062a1.4,1.4,0,0,0-1.431-1.536Z" transform="translate(1490.298 -8932.733)"/><path class="q" d="M342.087,270.55h-9.074a1.633,1.633,0,0,0-1.612,1.529l-.272,4.676a1.431,1.431,0,0,0,1.445,1.529h9.074a1.633,1.633,0,0,0,1.612-1.529l.265-4.676a1.4,1.4,0,0,0-1.438-1.529Z" transform="translate(1496.993 -8932.7)"/><path class="q" d="M318.877,270.66H309.8a1.64,1.64,0,0,0-1.619,1.536l-.265,4.669a1.438,1.438,0,0,0,1.445,1.536h9.074a1.64,1.64,0,0,0,1.612-1.536l.265-4.669a1.4,1.4,0,0,0-1.438-1.536Z" transform="translate(1504.003 -8932.733)"/><path class="q" d="M295.665,270.77h-9.074a1.647,1.647,0,0,0-1.619,1.536l-.265,4.676a1.4,1.4,0,0,0,1.445,1.529h9.074a1.64,1.64,0,0,0,1.612-1.529l.265-4.676a1.4,1.4,0,0,0-1.438-1.536Z" transform="translate(1511.014 -8932.767)"/><path class="h" d="M272.458,270.89h-9.074a1.64,1.64,0,0,0-1.612,1.529l-.265,4.676a1.4,1.4,0,0,0,1.438,1.529h9.074a1.64,1.64,0,0,0,1.612-1.529l.265-4.676a1.4,1.4,0,0,0-1.438-1.529Z" transform="translate(1518.021 -8932.803)"/><path class="q" d="M366.258,253.7h-9.074a1.633,1.633,0,0,0-1.612,1.529l-.265,4.676a1.4,1.4,0,0,0,1.438,1.529h9.074a1.64,1.64,0,0,0,1.619-1.529l.265-4.676a1.4,1.4,0,0,0-1.445-1.529Z" transform="translate(1489.691 -8927.61)"/><path class="q" d="M343.058,253.58h-9.074a1.647,1.647,0,0,0-1.612,1.536l-.265,4.669a1.4,1.4,0,0,0,1.438,1.536h9.074a1.64,1.64,0,0,0,1.619-1.536l.265-4.669a1.438,1.438,0,0,0-1.445-1.536Z" transform="translate(1496.698 -8927.575)"/><path class="q" d="M319.839,253.7h-9.074a1.633,1.633,0,0,0-1.612,1.529l-.265,4.676a1.4,1.4,0,0,0,1.438,1.529H319.4a1.64,1.64,0,0,0,1.619-1.529l.265-4.676a1.4,1.4,0,0,0-1.445-1.529Z" transform="translate(1503.711 -8927.61)"/><path class="q" d="M296.628,253.81h-9.074a1.633,1.633,0,0,0-1.612,1.529l-.265,4.676a1.4,1.4,0,0,0,1.438,1.536h9.074a1.633,1.633,0,0,0,1.612-1.536l.272-4.676a1.4,1.4,0,0,0-1.445-1.529Z" transform="translate(1510.721 -8927.644)"/><path class="h" d="M273.418,253.92h-9.074a1.633,1.633,0,0,0-1.612,1.536l-.265,4.67a1.4,1.4,0,0,0,1.438,1.536h9.074a1.633,1.633,0,0,0,1.612-1.536l.272-4.669a1.438,1.438,0,0,0-1.445-1.536Z" transform="translate(1517.731 -8927.678)"/><path class="q" d="M367.257,236.73h-9.074a1.633,1.633,0,0,0-1.612,1.536l-.272,4.669a1.431,1.431,0,0,0,1.445,1.536h9.074a1.633,1.633,0,0,0,1.612-1.536l.265-4.669a1.4,1.4,0,0,0-1.438-1.536Z" transform="translate(1489.391 -8922.485)"/><path class="q" d="M344.018,236.62h-9.074a1.633,1.633,0,0,0-1.612,1.529l-.265,4.676a1.4,1.4,0,0,0,1.438,1.536h9.074a1.64,1.64,0,0,0,1.612-1.536l.265-4.676a1.4,1.4,0,0,0-1.438-1.529Z" transform="translate(1496.408 -8922.452)"/><path class="q" d="M320.807,236.73h-9.074a1.633,1.633,0,0,0-1.612,1.536l-.272,4.669a1.438,1.438,0,0,0,1.445,1.536h9.074a1.633,1.633,0,0,0,1.612-1.536l.265-4.669a1.4,1.4,0,0,0-1.438-1.536Z" transform="translate(1503.42 -8922.485)"/><path class="q" d="M297.589,236.84h-9.074a1.647,1.647,0,0,0-1.633,1.508l-.265,4.676a1.4,1.4,0,0,0,1.445,1.529h9.074a1.633,1.633,0,0,0,1.612-1.529l.265-4.676a1.4,1.4,0,0,0-1.424-1.508Z" transform="translate(1510.437 -8922.519)"/><path class="q" d="M274.387,237h-9.074a1.64,1.64,0,0,0-1.619,1.529l-.265,4.676a1.438,1.438,0,0,0,1.445,1.536h9.074a1.647,1.647,0,0,0,1.612-1.536l.265-4.676A1.4,1.4,0,0,0,274.387,237Z" transform="translate(1517.44 -8922.566)"/><path class="r" d="M104.233,344.7s-3.992.872-5.7,0-1.068-13.548-2.792-13.806c-4.006-.607-3.329,16.235-1.626,19.781s10.47,2.038,10.47,2.038Z" transform="translate(1568.98 -8950.92)"/><path class="k" d="M104.233,344.7s-3.992.872-5.7,0-1.068-13.548-2.792-13.806c-4.006-.607-3.329,16.235-1.626,19.781s10.47,2.038,10.47,2.038Z" transform="translate(1568.98 -8950.92)"/><path class="r" d="M108.657,355.825s-5.912-85.984,1.145-86.975,8.76,29.315,6.031,85.851Z" transform="translate(1564.883 -8932.18)"/><path class="i" d="M108.657,355.825s-5.912-85.984,1.145-86.975,8.76,29.315,6.031,85.851Z" transform="translate(1564.883 -8932.18)"/><path class="g" d="M97.79,384.36h23.2l-1.933,14.846H99.73Z" transform="translate(1567.465 -8967.073)"/><path class="r" d="M119.493,304.029s6.428.565,6.624,0,.188-12.731,2.911-12.012,1.536,15.355,0,17.073-9.534,2.624-9.534,2.624S118.418,306.311,119.493,304.029Z" transform="translate(1561.055 -8939.174)"/><path class="j" d="M119.493,304.029s6.428.565,6.624,0,.188-12.731,2.911-12.012,1.536,15.355,0,17.073-9.534,2.624-9.534,2.624S118.418,306.311,119.493,304.029Z" transform="translate(1561.055 -8939.174)"/><path class="s" d="M112.658,348.358q-.7-9.814-1.256-19.627t-.97-19.613q-.419-9.828-.551-19.669c0-3.281,0-6.561.056-9.841.049-1.647.112-3.287.258-4.928.07-.824.168-1.647.321-2.471a6.856,6.856,0,0,1,.321-1.249l.14-.321a3.287,3.287,0,0,1,.237-.335.782.782,0,0,1,.244-.168.579.579,0,0,1,.391,0,.8.8,0,0,1,.4.349,4.663,4.663,0,0,1,.447,1.263c.1.412.168.817.237,1.228.133.817.23,1.633.321,2.457.174,1.633.307,3.273.419,4.886.216,3.28.37,6.554.5,9.835q.37,9.827.5,19.662t.161,19.669q0,9.827-.091,19.662-.084-9.828-.251-19.662c-.091-6.554-.2-13.108-.356-19.662s-.314-13.1-.593-19.648c-.133-3.274-.3-6.54-.53-9.807-.112-1.633-.244-3.26-.426-4.886-.091-.81-.2-1.619-.328-2.415-.063-.4-.14-.8-.23-1.18a4.056,4.056,0,0,0-.363-1.054c0-.063-.084-.084-.042-.07s.147-.035.091,0l-.112.168-.1.244a6.979,6.979,0,0,0-.293,1.124c-.147.789-.244,1.591-.314,2.4-.154,1.619-.223,3.26-.279,4.886-.1,3.267-.1,6.54-.084,9.814.049,6.554.251,13.1.454,19.655s.475,13.094.768,19.648S112.316,341.811,112.658,348.358Z" transform="translate(1563.814 -8932.564)"/><path class="s" d="M120.86,307.506c.831-.084,1.661-.14,2.485-.237s1.647-.168,2.457-.314c.4-.07.8-.154,1.18-.258s.782-.349.649-.356a17.992,17.992,0,0,1,.091-2.562c.154-1.668.349-3.322.607-4.963a46.865,46.865,0,0,1,.963-4.886l-.879,9.925a22.588,22.588,0,0,0-.126,2.415v.084a1.4,1.4,0,0,1,0,.174.579.579,0,0,1-.133.279.963.963,0,0,1-.356.265,3.3,3.3,0,0,1-.649.23,8.141,8.141,0,0,1-1.27.2A29.312,29.312,0,0,1,120.86,307.506Z" transform="translate(1560.498 -8939.762)"/><path class="s" d="M120.86,310.714l5.472-1.235a19.828,19.828,0,0,0,2.617-.754.538.538,0,0,0,.154-.091,1.222,1.222,0,0,0,.1-.23c.063-.2.112-.419.161-.635.084-.447.14-.9.188-1.361.216-1.843.321-3.706.468-5.584l.188-2.792.23-2.792c.119,1.878.14,3.748.119,5.626s-.1,3.741-.307,5.626c-.063.468-.126.935-.223,1.4a5.066,5.066,0,0,1-.188.7,2,2,0,0,1-.188.4,1.04,1.04,0,0,1-.426.3,15.465,15.465,0,0,1-2.792.7A53.69,53.69,0,0,1,120.86,310.714Z" transform="translate(1560.498 -8940.157)"/><path class="s" d="M103.4,347.581a14.992,14.992,0,0,1-4.886-.551,3.357,3.357,0,0,1-.607-.279.97.97,0,0,1-.307-.286,1.4,1.4,0,0,1-.168-.321,6.653,6.653,0,0,1-.349-1.242c-.154-.824-.237-1.647-.314-2.464q-.188-2.464-.161-4.921c0-1.633.07-3.273.223-4.886.077.817.112,1.633.174,2.45l.14,2.443c.1,1.633.174,3.26.314,4.886.063.81.147,1.612.272,2.4A6.017,6.017,0,0,0,98,345.933a1.123,1.123,0,0,0,.1.223.342.342,0,0,0,.133.133,2.96,2.96,0,0,0,.489.272,11.218,11.218,0,0,0,2.3.642C101.766,347.35,102.59,347.462,103.4,347.581Z" transform="translate(1567.823 -8951.449)"/><path class="s" d="M95.135,334.8c.1.949.154,1.906.244,2.862l.2,2.862.4,5.709c.07.949.147,1.905.272,2.834a6.568,6.568,0,0,0,.258,1.326c.1.363.468.572.865.782a12.3,12.3,0,0,0,2.708.74c.935.181,1.885.293,2.834.412a16.612,16.612,0,0,1-5.744-.656,3.33,3.33,0,0,1-.7-.363,1.354,1.354,0,0,1-.53-.7,7.718,7.718,0,0,1-.349-1.473c-.147-.963-.23-1.919-.314-2.876-.14-1.912-.223-3.832-.244-5.744S95.009,336.712,95.135,334.8Z" transform="translate(1568.299 -8952.105)"/><path class="g" d="M150.694,376.724l17.156-1.5V349.67h6.031v25.553l17.212,1.5a2.959,2.959,0,0,1,2.673,2.945v2.282H148v-2.282a2.959,2.959,0,0,1,2.694-2.945Z" transform="translate(1552.301 -8956.596)"/><path class="l" d="M150.694,376.724l17.156-1.5V349.67h6.031v25.553l17.212,1.5a2.959,2.959,0,0,1,2.673,2.945v2.282H148v-2.282a2.959,2.959,0,0,1,2.694-2.945Z" transform="translate(1552.301 -8956.596)"/><path class="g" d="M205.62,398.3a3.944,3.944,0,1,0,3.944-3.937A3.944,3.944,0,0,0,205.62,398.3Z" transform="translate(1534.898 -8970.094)"/><path class="g" d="M152.587,398.3a3.944,3.944,0,1,1-3.944-3.937A3.944,3.944,0,0,1,152.587,398.3Z" transform="translate(1553.297 -8970.094)"/><path class="g" d="M2.848,0H5.186A2.883,2.883,0,0,1,8.069,2.883V23.41H0V2.883A2.883,2.883,0,0,1,2.848,0Z" transform="translate(1727.187 -8602.326) rotate(180)"/><path class="k" d="M2.848,0H5.186A2.883,2.883,0,0,1,8.069,2.883V23.41H0V2.883A2.883,2.883,0,0,1,2.848,0Z" transform="translate(1727.187 -8602.326) rotate(180)"/><path class="g" d="M152.277,258.86s1.857,37.251,9.883,43.665h-8.585s-7.678-12.689-8.215-43.665Z" transform="translate(1553.098 -8929.169)"/><path class="l" d="M152.277,258.86s1.857,37.251,9.883,43.665h-8.585s-7.678-12.689-8.215-43.665Z" transform="translate(1553.098 -8929.169)"/><path class="r" d="M153.14,317h37.516a3.49,3.49,0,0,1,3.49,3.49v2.68h-44.5v-2.68A3.49,3.49,0,0,1,153.14,317Z" transform="translate(1551.802 -8946.729)"/><rect class="g" width="47.881" height="3.085" rx="1.543" transform="translate(1699.756 -8626.644)"/><rect class="t" width="47.881" height="3.085" rx="1.543" transform="translate(1699.756 -8626.644)"/><path class="r" d="M139.427,260.979H153.17c4.027,0,6.938-3.623,6.5-8.083l-.586-5.961c-.44-4.46-4.062-8.076-8.09-8.076H137.249c-4.027,0-6.938,3.616-6.5,8.076l.586,5.961C131.777,257.356,135.4,260.979,139.427,260.979Z" transform="translate(1557.523 -8923.129)"/><path class="u" d="M245.861,258.663l3.888.447s2.541-1.124,2.562-1.221,3.385,1.221,3.385,1.221l.642,2.429s-4.781.51-5.689,0l-5.109.223Z" transform="translate(1522.841 -8928.874)"/><path class="r" d="M239.109,254.867H224.13c-1.529,0-3.609-3.727-5.249-7.308-1.5-3.281-2.631-6.421-2.631-6.421l1.605-3.978,1.591-3.93c3.043,2.094,6.791,16.34,6.791,16.34l12.871,1.689S239.486,254.867,239.109,254.867Z" transform="translate(1531.688 -8921.429)"/><path class="r" d="M247.768,258.97l-.7,4.118h1.912V258.97Z" transform="translate(1522.379 -8929.203)"/><path class="t" d="M247.768,258.97l-.7,4.118h1.912V258.97Z" transform="translate(1522.379 -8929.203)"/><path class="p" d="M218.861,249.26c-1.5-3.28-2.631-6.421-2.631-6.421l1.605-3.978C218.547,240.661,220.027,245.24,218.861,249.26Z" transform="translate(1531.694 -8923.129)"/><path class="g" d="M214.247,207.91s-1.508,5.807.37,8.376c0,0-16.9.2-21.637-2.869s.586-18.057,7.545-20.353S218.972,196.519,214.247,207.91Z" transform="translate(1539.261 -8909.147)"/><path class="u" d="M239.778,341.786l-3.713.7s-20.241-48.607-23.5-48.74-36.113,14.972-44.349,6.589,3.671-28.568,3.671-28.568,19.823-2.792,21.316,1.647a33.11,33.11,0,0,1,.838,4.013c.223,1.4.377,2.52.377,2.52h0c.614-.154,20.514-5.291,28.352,0C230.7,285.341,239.778,341.786,239.778,341.786Z" transform="translate(1547.072 -8932.806)"/><path class="u" d="M189.82,311.11s1.34,0,22.133-.935c0,0-3.86,35.708-5.584,55.14l4.341.237s17.484-50.562,17.324-57.185-7.755-8.557-7.755-8.557S205.5,308.374,189.82,311.11Z" transform="translate(1539.67 -8941.537)"/><path class="g" d="M189.85,313.647c.209,0,2.324,0,18.545-.768l-.314-4.669A90.324,90.324,0,0,1,189.85,313.647Z" transform="translate(1539.661 -8944.074)"/><path class="h" d="M211.962,310.151s-3.86,35.709-5.584,55.14l4.341.244s17.484-50.561,17.324-57.178-7.755-8.557-7.755-8.557a110.748,110.748,0,0,1-12.187,5.849,90.32,90.32,0,0,1-18.252,5.458c.209,0,2.324,0,18.545-.768Z" transform="translate(1539.661 -8941.534)"/><path class="g" d="M168.173,300.324c4.942,5.032,22.335,3.706,34.333,3.706l7.2-26.614-14.5,1.215s-.517-1.291-1.04-2.617c-.433-1.11-.879-2.247-1.005-2.638-1.494-4.481-21.316-1.647-21.316-1.647S159.93,291.948,168.173,300.324Z" transform="translate(1547.086 -8932.789)"/><path class="h" d="M190.37,284.588l12.417-3.72s-.516-1.291-1.04-2.617A84.515,84.515,0,0,0,190.37,284.588Z" transform="translate(1539.504 -8935.025)"/><path class="g" d="M175.172,267.73l-.482,3.085,21.316,1.647.558-3.65Z" transform="translate(1544.24 -8931.849)"/><path class="p" d="M175.172,267.73l-.482,3.085,21.316,1.647.558-3.65Z" transform="translate(1544.24 -8931.849)"/><rect class="g" width="1.061" height="5.388" transform="translate(1725.626 -8664.422) rotate(5.87)"/><rect class="n" width="4.676" height="3.546" transform="translate(1731.142 -8663.329) rotate(3.68)"/><rect class="g" width="1.061" height="5.388" transform="translate(1738.726 -8663.861) rotate(5.87)"/><path class="v" d="M279.967,376.207a7.392,7.392,0,0,0-2.708-.237h0s-3.42-1.326-7.678-7.95l-3.49.544a2.9,2.9,0,0,0-2.359,2.345,1.694,1.694,0,0,0,0,.5,18.611,18.611,0,0,0,.7,2.464,70.707,70.707,0,0,0,3.364,7.838l.565-.244-1.912-5c-.649-1.71,1.48-.307,2.631,1.326s2.757,3.211,6.449,1.71C279.772,377.722,281.468,376.78,279.967,376.207Z" transform="translate(1517.352 -8962.139)"/><path class="u" d="M267.915,364.7s2.094,2.952,4.711,6.114a17.2,17.2,0,0,0,4.6,4.188s-2.534,1.675-4.523.342-6.282-6.924-8.983-5.4a7.172,7.172,0,0,1,.237-1.64C264.195,367.429,267.915,364.7,267.915,364.7Z" transform="translate(1517.351 -8961.136)"/><path class="v" d="M226.5,398.252a7.526,7.526,0,0,0-2.457-1.173h0s-2.729-2.45-4.376-10.142l-3.441-.7a2.911,2.911,0,0,0-3.036,1.4,1.542,1.542,0,0,0-.2.454,19.412,19.412,0,0,0-.23,2.541,70.611,70.611,0,0,0,.377,8.529l.621-.035v-5.36c0-1.822,1.494.237,1.989,2.171s1.452,3.979,5.437,3.874C225.806,399.613,227.725,399.32,226.5,398.252Z" transform="translate(1532.755 -8967.627)"/><path class="u" d="M219.148,383.33s.935,3.49,2.254,7.378a16.1,16.1,0,0,0,2.841,5.507s-2.959.7-4.348-1.27-3.49-8.7-6.505-8.222a6.8,6.8,0,0,1,.8-1.459C214.7,384.565,219.148,383.33,219.148,383.33Z" transform="translate(1532.551 -8966.763)"/><path class="h" d="M219.148,383.33s.935,3.49,2.254,7.378a16.1,16.1,0,0,0,2.841,5.507s-2.959.7-4.348-1.27-3.49-8.7-6.505-8.222a6.8,6.8,0,0,1,.8-1.459C214.7,384.565,219.148,383.33,219.148,383.33Z" transform="translate(1532.551 -8966.763)"/><path class="r" d="M207.064,231.134s-2.094,12.34-4.432,15.725a4.191,4.191,0,0,1-.321.4c-1.843,1.947-4.1,6.114-5.179,8.2-.391.775-.628,1.263-.628,1.263l-21.253-.928s.656-4.132,1.34-8.32c.482-2.987,1.124-6.512,1.892-9.821.307-1.305.628-2.569.97-3.748a27.221,27.221,0,0,1,2.234-5.842,4.523,4.523,0,0,1,1.494-1.7s.9-.084,2.464-.077h.119a52.083,52.083,0,0,1,16.053,2.7,44.846,44.846,0,0,1,5.249,2.143Z" transform="translate(1544.071 -8919.332)"/><path class="r" d="M193.74,226.6s3.085,7.287,8.634,7.287,5.73-4.09,5.73-4.09A25.709,25.709,0,0,0,193.74,226.6Z" transform="translate(1538.486 -8919.417)"/><path class="r" d="M200.508,225.613c-3.685-.991-5.584.37-7.678,3.706l4.781,1.919,3.951,11.433,4.39-10.135,3.287.1S208.793,227.881,200.508,225.613Z" transform="translate(1538.761 -8919.032)"/><path class="t" d="M200.508,225.613c-3.685-.991-5.584.37-7.678,3.706l4.781,1.919,3.951,11.433,4.39-10.135,3.287.1S208.793,227.881,200.508,225.613Z" transform="translate(1538.761 -8919.032)"/><path class="p" d="M204.03,249.279a4.186,4.186,0,0,1-.321.4c-1.843,1.947-4.1,6.114-5.179,8.2-4.977-.614-14.658-2.129-15.956-4.586-1.166-2.247-2.171-9.074-2.694-13.22.307-1.305.628-2.569.97-3.748l7.217-2.024s1.187,7.531,1.4,11.091C189.589,248.322,200.3,249.1,204.03,249.279Z" transform="translate(1542.672 -8921.752)"/><path class="u" d="M206.08,225.68c.042,1.312.782,1.619.782,1.619.265,2.408-3.085,8.411-3.085,8.411l-5.207-10.728c2.994-1.187,3.671-4.488,3.8-6.456a11.289,11.289,0,0,0,0-1.536l5.584,3.49a20.45,20.45,0,0,0-1.249,2.443A6.98,6.98,0,0,0,206.08,225.68Z" transform="translate(1537.027 -8916.523)"/><path class="p" d="M208.981,220.148a19.126,19.126,0,0,0-.991,2.562,6.806,6.806,0,0,0-.349,2.792c-3.148.244-4.4-6.7-4.4-6.7v-.042a11.165,11.165,0,0,0-.154-1.529Z" transform="translate(1535.662 -8916.597)"/><path class="u" d="M212.444,200.059c5.409,1.647,6.282,5.074,4.963,10.77-1.626,7.119-4.683,11.6-10.993,8.048C197.864,214.054,203.448,197.316,212.444,200.059Z" transform="translate(1535.94 -8911.319)"/><path class="w" d="M218.809,213.66a11.99,11.99,0,0,0,.893,2.729,1.556,1.556,0,0,1-1.612.174Z" transform="translate(1531.132 -8915.518)"/><path class="g" d="M214.084,211.16c-.126.447-.468.747-.768.663s-.433-.517-.307-.963.468-.74.761-.656S214.21,210.713,214.084,211.16Z" transform="translate(1532.681 -8914.47)"/><path class="g" d="M213.94,210.142l1.075-.112S214.3,210.707,213.94,210.142Z" transform="translate(1532.385 -8914.422)"/><path class="g" d="M222.092,213.257c-.126.447-.468.74-.768.656s-.44-.51-.314-.956.475-.747.768-.663S222.218,212.783,222.092,213.257Z" transform="translate(1530.264 -8915.102)"/><path class="g" d="M222,212.232l1.075-.112S222.328,212.8,222,212.232Z" transform="translate(1529.951 -8915.053)"/><path class="x" d="M215.006,206.1a2.946,2.946,0,0,0-2.6.1" transform="translate(1532.847 -8913.157)"/><path class="x" d="M221.86,207.6a2.652,2.652,0,0,1,2.024,1.1" transform="translate(1529.993 -8913.688)"/><path class="g" d="M203.366,206.291s3.881-3.671,4.544-7.224c0,0,12.061-1.11,9.269,9.932,0,0,3.992-9.339-5.242-12.389s-13.345,10.56-9.772,16.053C202.159,212.691,200.965,208.615,203.366,206.291Z" transform="translate(1536.328 -8910.235)"/><path class="x" d="M212.35,217.63a2.743,2.743,0,0,0,2.792,2.338" transform="translate(1532.865 -8916.717)"/><path class="g" d="M203.089,208.848a.161.161,0,0,0,.091.174h.035l5.507,1.284a2.394,2.394,0,0,0,1.4,2.555,2.89,2.89,0,0,0,3.7-1.005,1.691,1.691,0,0,0,.161-.363.907.907,0,0,1,.7-.2.5.5,0,0,1,.286.321,2.394,2.394,0,0,0,1.4,2.541,2.89,2.89,0,0,0,3.692-1.005,2.352,2.352,0,0,0-1.11-3.336,2.883,2.883,0,0,0-3.692,1.005,1.4,1.4,0,0,0-.168.363A.7.7,0,0,0,214.8,211a1.019,1.019,0,0,0-.7.07,2.394,2.394,0,0,0-1.4-2.555,2.89,2.89,0,0,0-3.7,1.005,2.622,2.622,0,0,0-.216.475l-5.486-1.235a.181.181,0,0,0-.216.084Zm12.5,2.136a2.52,2.52,0,0,1,3.232-.879,2.094,2.094,0,0,1,.956,2.918,2.52,2.52,0,0,1-3.232.872,2.052,2.052,0,0,1-.956-2.911Zm-6.282-1.3a2.534,2.534,0,0,1,3.232-.879,2.094,2.094,0,0,1,.97,2.918,2.527,2.527,0,0,1-3.232.879,2.094,2.094,0,0,1-.97-2.918Z" transform="translate(1535.663 -8913.875)"/><g class="m" transform="translate(1738.75 -8705.655)"><path class="n" d="M203.089,208.848a.161.161,0,0,0,.091.174h.035l5.507,1.284a2.394,2.394,0,0,0,1.4,2.555,2.89,2.89,0,0,0,3.7-1.005,1.691,1.691,0,0,0,.161-.363.907.907,0,0,1,.7-.2.5.5,0,0,1,.286.321,2.394,2.394,0,0,0,1.4,2.541,2.89,2.89,0,0,0,3.692-1.005,2.352,2.352,0,0,0-1.11-3.336,2.883,2.883,0,0,0-3.692,1.005,1.4,1.4,0,0,0-.168.363A.7.7,0,0,0,214.8,211a1.019,1.019,0,0,0-.7.07,2.394,2.394,0,0,0-1.4-2.555,2.89,2.89,0,0,0-3.7,1.005,2.622,2.622,0,0,0-.216.475l-5.486-1.235a.181.181,0,0,0-.216.084Zm12.5,2.136a2.52,2.52,0,0,1,3.232-.879,2.094,2.094,0,0,1,.956,2.918,2.52,2.52,0,0,1-3.232.872,2.052,2.052,0,0,1-.956-2.911Zm-6.282-1.3a2.534,2.534,0,0,1,3.232-.879,2.094,2.094,0,0,1,.97,2.918,2.527,2.527,0,0,1-3.232.879,2.094,2.094,0,0,1-.97-2.918Z" transform="translate(-203.086 -208.219)"/></g><path class="u" d="M203.522,211.405a2.478,2.478,0,0,0-1.892-2.945c-1.731-.328-3.581,2.869.335,4.97C202.531,213.716,203.047,213.248,203.522,211.405Z" transform="translate(1536.703 -8913.94)"/><path class="r" d="M216.3,262.8a72.383,72.383,0,0,1,9.144-1.326c3.706-.174,7.859-.244,6.84,1.759l-15.076.14Z" transform="translate(1531.672 -8929.935)"/><path class="y" d="M216.3,262.8a72.383,72.383,0,0,1,9.144-1.326c3.706-.174,7.859-.244,6.84,1.759l-15.076.14Z" transform="translate(1531.672 -8929.935)"/><rect class="g" width="17.435" height="0.593" transform="translate(1747.281 -8667.127)"/><rect class="g" width="0.768" height="8.676" transform="translate(1747.436 -8677.005) rotate(-24.58)"/><path class="u" d="M206,257.879l4.984,1.187a5.584,5.584,0,0,1,2.094-1.689,49.465,49.465,0,0,1,5.465-1.117l1.047,5s-6.98.7-7.552.565l-6.01-.572Z" transform="translate(1534.783 -8928.384)"/><path class="r" d="M185.252,226.4c-3.49,1-3.727,19.222-2.366,21.637s17.771,4.8,17.771,4.8l1.054-3.671s-13.618-4.718-13.834-5.1.886-10.8.886-12.871S185.252,226.4,185.252,226.4Z" transform="translate(1541.997 -8919.366)"/><path class="r" d="M208.893,257.86l-.733,5.1,1.417-.2.935-4.565Z" transform="translate(1534.131 -8928.867)"/><path class="t" d="M208.893,257.86l-.733,5.1,1.417-.2.935-4.565Z" transform="translate(1534.131 -8928.867)"/><path class="g" d="M246.293,364.809H242.6L242,270.47h4.9Z" transform="translate(1523.911 -8932.676)"/><path class="j" d="M246.9,270.68l-.1,14.909-.5,79.283h-3.7l-.5-79.283L242,270.68Z" transform="translate(1523.911 -8932.739)"/><path class="p" d="M246.9,270.68l-.1,15.076h-4.7L242,270.68Z" transform="translate(1523.911 -8932.739)"/><path class="g" d="M299.87,364.809h-3.692L289.54,270.47h4.9Z" transform="translate(1509.552 -8932.676)"/><path class="z" d="M299.877,364.872h-3.7l-6.317-89.746-.321-4.446h4.9l.265,4.446Z" transform="translate(1509.552 -8932.739)"/><path class="p" d="M294.705,274.9h-4.844l-.321-4.223h4.9Z" transform="translate(1509.552 -8932.739)"/><path class="g" d="M190.369,364.809h-3.7l5.43-94.339H197Z" transform="translate(1540.621 -8932.676)"/><path class="z" d="M197,270.68l-.321,4.446-6.317,89.746H186.68l5.158-89.746.265-4.446Z" transform="translate(1540.618 -8932.739)"/><path class="p" d="M194.335,270.68h4.9l-.321,4.223H194.07Z" transform="translate(1538.386 -8932.739)"/><path class="g" d="M188.89,267.15h79.039v3.12a1.508,1.508,0,0,1-1.508,1.508H190.4a1.508,1.508,0,0,1-1.508-1.508Z" transform="translate(1539.951 -8931.673)"/><path class="t" d="M188.89,267.15h79.039v3.12a1.508,1.508,0,0,1-1.508,1.508H190.4a1.508,1.508,0,0,1-1.508-1.508Z" transform="translate(1539.951 -8931.673)"/><rect class="p" width="79.039" height="2.317" transform="translate(1728.841 -8664.523)"/><path class="g" d="M268.663,266.87H185.045a1.305,1.305,0,0,1-1.305-1.305h0a1.305,1.305,0,0,1,1.305-1.305h83.618a1.305,1.305,0,0,1,1.305,1.305h0a1.305,1.305,0,0,1-1.305,1.305Z" transform="translate(1541.506 -8930.801)"/><path class="t" d="M268.663,266.87H185.045a1.305,1.305,0,0,1-1.305-1.305h0a1.305,1.305,0,0,1,1.305-1.305h83.618a1.305,1.305,0,0,1,1.305,1.305h0a1.305,1.305,0,0,1-1.305,1.305Z" transform="translate(1541.506 -8930.801)"/><path class="g" d="M272.071,261v1.515c0,.454-.782.775-1.228.775H235.49c-.454,0-1.18-.321-1.18-.775V261Z" transform="translate(1526.233 -8929.815)"/><path class="t" d="M272.071,261v1.515c0,.454-.782.775-1.228.775H235.49c-.454,0-1.18-.321-1.18-.775V261Z" transform="translate(1526.233 -8929.815)"/><path class="p" d="M277.274,261v1.515c0,.454-.782.775-1.228.775H252.734c-.447,0-1.194-.321-1.194-.775V261Z" transform="translate(1521.029 -8929.815)"/><path class="g" d="M283.781,233.953l-4.188,19.152a1.48,1.48,0,0,1-1.4,1.145h-22.97a.991.991,0,0,1-.865-1.277l4.188-18.943a1.319,1.319,0,0,1,1.4-.942H282.93C283.53,233.087,283.921,233.331,283.781,233.953Z" transform="translate(1520.19 -8921.384)"/><path class="t" d="M283.781,233.953l-4.188,19.152a1.48,1.48,0,0,1-1.4,1.145h-22.97a.991.991,0,0,1-.865-1.277l4.188-18.943a1.319,1.319,0,0,1,1.4-.942H282.93C283.53,233.087,283.921,233.331,283.781,233.953Z" transform="translate(1520.19 -8921.384)"/><path class="j" d="M284.114,233.952,279.926,253.1a1.48,1.48,0,0,1-1.4,1.145h-22.2a1,1,0,0,1-.872-1.277l4.188-18.943a1.312,1.312,0,0,1,1.4-.942h22.2C283.863,233.087,284.254,233.331,284.114,233.952Z" transform="translate(1519.857 -8921.384)"/><path class="p" d="M276.516,249.69a2.971,2.971,0,0,0,2.45-2.562c.279-1.417-.37-2.569-1.445-2.569a1.794,1.794,0,0,0-.593.119,3.274,3.274,0,0,1-1.822,2.338.368.368,0,0,0,0,.112C274.792,248.545,275.441,249.7,276.516,249.69Z" transform="translate(1513.936 -8924.851)"/></g></svg>