<svg xmlns="http://www.w3.org/2000/svg" width="269.244" height="233.368" viewBox="0 0 269.244 233.368"><defs><style>.a,.b,.c,.h,.i,.l,.r,.s{fill:none;}.a,.b,.c,.d,.e,.f,.h,.i,.j,.l,.m,.n,.o,.p,.q,.t,.u,.v,.x,.y{stroke:#1a2e35;}.a,.b,.c,.d,.e,.f,.j{stroke-linecap:round;}.b{stroke-width:1.001px;}.c,.d,.e{stroke-linejoin:round;}.d,.f,.n,.q,.w{fill:#fff;}.e,.j,.k,.m,.p{fill:#344154;}.g{fill:#d9a171;}.h,.l,.m,.o,.q,.r,.u,.v,.x,.y{stroke-miterlimit:10;}.l{stroke-dasharray:2.95 2.95;}.o,.t{fill:#636363;}.r,.s{stroke:#a3a3a3;}.u{fill:#ffbf9d;}.v{fill:#5e5e5e;}.x{fill:#aed3f2;}.y{fill:#6595bf;}.z{fill:#12263f;}</style></defs><g transform="translate(-1546.807 10220.124)"><path class="a" d="M0,0H50.97V67.306H0Z" transform="translate(1628.662 -10210.113)"/><path class="a" d="M0,0H39.1V51.623H0Z" transform="translate(1634.602 -10202.272)"/><path class="a" d="M0,0H50.97V67.306H0Z" transform="translate(1552.208 -10175.48)"/><path class="a" d="M0,0H39.1V51.623H0Z" transform="translate(1558.148 -10167.639)"/><path class="a" d="M29.432,0A29.432,29.432,0,1,1,0,29.432,29.432,29.432,0,0,1,29.432,0Z" transform="matrix(0.995, -0.1, 0.1, 0.995, 1720.567, -10213.71)"/><path class="b" d="M24.419,0A24.419,24.419,0,1,1,0,24.419,24.419,24.419,0,0,1,24.419,0Z" transform="translate(1725.477 -10208.409) rotate(-8.616)"/><path class="c" d="M338.56,152.84h15.559v22.446" transform="translate(1398.674 -10340.193)"/><path class="d" d="M321.1,367.32l10.325,16.63a3.182,3.182,0,0,1-2.705,4.862H307.636a3.182,3.182,0,0,0,2.712-4.849l-10-16.271Z" transform="translate(1411.916 -10414.521)"/><path class="e" d="M321.1,367.32l-20.754.372,3.849,6.254h21.022Z" transform="translate(1411.916 -10414.521)"/><path class="f" d="M2.91,0H85.28a2.91,2.91,0,0,1,2.91,2.91V71.571a2.91,2.91,0,0,1-2.91,2.91H2.91A2.91,2.91,0,0,1,0,71.571V2.91A2.91,2.91,0,0,1,2.91,0Z" transform="translate(1764.15 -10043.495) rotate(180)"/><path class="f" d="M2.91,0H85.28a2.91,2.91,0,0,1,2.91,2.91V71.571a2.91,2.91,0,0,1-2.91,2.91H2.91A2.91,2.91,0,0,1,0,71.571V2.91A2.91,2.91,0,0,1,2.91,0Z" transform="translate(1760.811 -10043.495) rotate(180)"/><path class="e" d="M242.626,259H324.89a2.967,2.967,0,0,1,2.967,2.967v58.158H239.64V261.967A2.96,2.96,0,0,1,242.626,259Z" transform="translate(1432.954 -10376.982)"/><path class="f" d="M0,0H80.78V54.1H0Z" transform="translate(1757.106 -10060.916) rotate(180)"/><path class="g" d="M0,0H74.559V4.613H0Z" transform="translate(1679.684 -10100.496)"/><path class="h" d="M250.86,324.363V297.65h73.834v27.687" transform="translate(1429.066 -10390.377)"/><path class="i" d="M0,0H73.35" transform="translate(1680.168 -10083.742)"/><path class="i" d="M0,0V27.883" transform="translate(1733.359 -10092.923)"/><path class="f" d="M0,0H2.568V.856H0Z" transform="translate(1637.602 -10029.433)"/><path class="f" d="M0,0H2.568V.856H0Z" transform="translate(1641.019 -10029.433)"/><path class="f" d="M0,0H2.568V.856H0Z" transform="translate(1644.443 -10029.433)"/><path class="f" d="M0,0H2.568V.856H0Z" transform="translate(1647.861 -10029.433)"/><path class="f" d="M0,0H2.568V.856H0Z" transform="translate(1651.285 -10029.433)"/><path class="f" d="M0,0H2.568V.856H0Z" transform="translate(1654.703 -10029.433)"/><path class="f" d="M0,0H2.568V.856H0Z" transform="translate(1658.127 -10029.433)"/><path class="f" d="M0,0H2.568V.856H0Z" transform="translate(1661.544 -10029.433)"/><path class="f" d="M0,0H2.568V.856H0Z" transform="translate(1664.969 -10029.433)"/><path class="f" d="M0,0H2.568V.856H0Z" transform="translate(1668.386 -10029.433)"/><path class="f" d="M0,0H2.568V.856H0Z" transform="translate(1671.81 -10029.433)"/><path class="f" d="M0,0H2.568V.856H0Z" transform="translate(1675.228 -10029.433)"/><path class="f" d="M0,0H2.568V.856H0Z" transform="translate(1678.652 -10029.433)"/><path class="f" d="M0,0H2.568V.856H0Z" transform="translate(1682.069 -10029.433)"/><path class="f" d="M0,0H2.568V.856H0Z" transform="translate(1685.494 -10029.433)"/><path class="f" d="M0,0H2.568V.856H0Z" transform="translate(1688.911 -10029.433)"/><path class="f" d="M0,0H2.568V.856H0Z" transform="translate(1692.335 -10029.433)"/><path class="f" d="M0,0H2.568V.856H0Z" transform="translate(1695.753 -10029.433)"/><path class="f" d="M0,0H2.568V.856H0Z" transform="translate(1699.177 -10029.433)"/><path class="f" d="M0,0H2.568V.856H0Z" transform="translate(1702.594 -10029.433)"/><path class="f" d="M0,0H2.568V.856H0Z" transform="translate(1706.019 -10029.433)"/><path class="f" d="M0,0H74.174V2.764H0Z" transform="translate(1636.275 -10028.453)"/><path class="j" d="M0,0H18.094V2.764H0Z" transform="translate(1692.355 -10028.453)"/><path class="k" d="M401.219,299.57v-9.56h-6.861v9.56H389.79l8,13.853,8-13.853Z" transform="translate(1380.921 -10387.729)"/><path class="i" d="M0,.98V0" transform="translate(1729.295 -10123.204)"/><path class="l" d="M326.41,241.978v-6.894a4.574,4.574,0,0,1,4.574-4.574H371.5a4.574,4.574,0,0,1,4.574,4.574V264.81" transform="translate(1402.885 -10367.109)"/><path class="i" d="M0,0V.98" transform="translate(1778.957 -10101.313)"/><path class="m" d="M363.994,334.51h41.494a4.084,4.084,0,0,1,4.084,4.084V371.6H359.91V338.594a4.084,4.084,0,0,1,4.084-4.084Z" transform="translate(1391.276 -10403.15)"/><path class="n" d="M0,0H44.435V41.664H0Z" transform="translate(1753.799 -10073.215)"/><path class="m" d="M325.27,358.1h77.9a2.5,2.5,0,0,1,2.5,2.5V385.33H325.29V358.1Z" transform="translate(1403.28 -10411.325)"/><path class="o" d="M308.652,358.1h77.271a1.562,1.562,0,0,1,1.562,1.562V385.33H307.11V359.662a1.562,1.562,0,0,1,1.562-1.562Z" transform="translate(1409.573 -10411.325)"/><path class="o" d="M317.66,358.1h66.568v17.826a5.509,5.509,0,0,1-5.509,5.509H323.175a5.509,5.509,0,0,1-5.509-5.509V358.1Z" transform="translate(1405.917 -10411.325)"/><path class="p" d="M0,0H41.926V27.23H0Z" transform="translate(1735.901 -10053.226)"/><path class="q" d="M330.964,379.78s1.431,6.776-1.784,9.279-19.27,1.96-19.27,1.96h52.459s6.424,1.607,6.071-9.991Z" transform="translate(1408.603 -10418.838)"/><path class="g" d="M373.558,394.886H339.97l1.83-1.026h33.078Z" transform="translate(1398.186 -10423.718)"/><path class="r" d="M346.14,383.43c0,4.136-.98,5.665-.98,5.665h32.366s1.418-.876,1.745-5.561" transform="translate(1396.387 -10420.104)"/><path class="s" d="M0,0H32.8" transform="translate(1742.089 -10032.968)"/><path class="s" d="M0,0H32.915" transform="translate(1742.416 -10035.04)"/><path class="r" d="M378.85,388.984s1.634-1.523,1.523-5.554" transform="translate(1384.712 -10420.104)"/><path class="t" d="M0,0H41.926V15.624H0Z" transform="translate(1735.901 -10053.226)"/><path class="p" d="M0,0H45.722V1.79H0Z" transform="translate(1732.098 -10027.786)"/><path class="m" d="M334.2,358.1h44.958v2.163a4.319,4.319,0,0,1-4.319,4.319H338.519a4.319,4.319,0,0,1-4.319-4.319Z" transform="translate(1400.185 -10411.325)"/><path class="q" d="M424.65,364.795a1.4,1.4,0,1,1-1.4-1.4A1.4,1.4,0,0,1,424.65,364.795Z" transform="translate(1369.814 -10413.158)"/><path class="q" d="M424.65,374.392a1.4,1.4,0,1,1-1.4-1.392A1.4,1.4,0,0,1,424.65,374.392Z" transform="translate(1369.814 -10416.488)"/><path class="m" d="M423.433,395.123h-.849a1.17,1.17,0,0,1-1.163-1.17h0a1.163,1.163,0,0,1,1.163-1.163h.849a1.163,1.163,0,0,1,1.163,1.163h0A1.17,1.17,0,0,1,423.433,395.123Z" transform="translate(1369.96 -10423.347)"/><path class="d" d="M360.787,439.7V411.27H348.26V439.8" transform="translate(1395.313 -10429.751)"/><path class="j" d="M0,0H6.267V28.785H0Z" transform="translate(1749.839 -10018.481)"/><path class="d" d="M446.647,439.7V411.27H434.12V439.8" transform="translate(1365.559 -10429.751)"/><path class="j" d="M0,0H6.267V28.785H0Z" transform="translate(1805.945 -10018.481)"/><path class="n" d="M0,0H255.5V9.919H0Z" transform="translate(1560.05 -10023.35)"/><path class="p" d="M0,0H61.477V9.919H0Z" transform="translate(1754.067 -10023.35)"/><path class="n" d="M0,0H255.5V3.483H0Z" transform="translate(1560.05 -10026.055)"/><path class="p" d="M0,0H55.9V3.483H0Z" transform="translate(1759.648 -10026.055)"/><path class="u" d="M166.262,184.009a28.443,28.443,0,0,1,.157,5.581c-.307,1.549-2.019,2.483-1.862,3.568s4.032,6.665,2.169,8.495a9.149,9.149,0,0,1-3.411,2.326l-1.242,2.79s-7.443,4.809-10.383,6.044-.314,7.136-.314,7.136l-7.6-1.706-1.856,8.841a38.555,38.555,0,0,0-13.494-8.064c-7.757-2.477-10.7-2.176-10.7-2.176a48.674,48.674,0,0,0,2.79-9.58c1.085-5.737,1.706-18.454,1.706-19.382s4.96-15.2,9.305-17.99,22.015.314,31.32,2.614,5.273,8.992,5.273,8.992Z" transform="translate(1475.201 -10345.721)"/><path class="m" d="M189.09,199.023a1.794,1.794,0,0,0-2.483-1.085c-2.013.621-2.483,1.706-1.706,1.706s2.614-.928,3.1,0S188.934,200.107,189.09,199.023Z" transform="translate(1452.047 -10355.775)"/><path class="h" d="M186.488,208.21l-.934.47a2.688,2.688,0,0,1,.778,3.1c-.621,2.169-1.242,4.032-1.242,4.032" transform="translate(1451.858 -10359.382)"/><path class="m" d="M158.712,174.588s1.4,5.881.778,7.136-5.273,2.941-5.737,4.646-1.4,10.86-1.085,12.566,1.085,4.653,1.862,4.653,6.535-4.345,8.678-4.5,1.242,3.725.157,4.966-3.267,1.549-3.1,2.947,2.941,6.2-.157,10.383-6.672,3.267-10.39.314a9.954,9.954,0,0,1-3.267-10.7,61.979,61.979,0,0,0,2.941-13.337c.15-3.254-.614-7.443-2.941-6.535s-.47,10.083-2.176,12.1-8.528,7.757-10.39,7.757-11.939-4.5-12.246-4.966.928-21.244-.314-29.458,1.706-14.115,11.168-16.9,26.668,2.326,26.668,2.326-1.706-2.79,2.019-4.032,12.559,2.169,13.18,7.75-2.614,5.737-2.169,7.6,6.358,5.43,3.267,8.377-8.044,1.1-8.044,1.1l-.621-4.809S163.495,169.935,158.712,174.588Z" transform="translate(1474.048 -10340.488)"/><path class="v" d="M170.079,203.224l-14.729-.464s-3.1.771-3.411,2.477-.653,5.737.307,5.881.928-.915.928-2.32,0-3.568,1.242-4.339a9.1,9.1,0,0,1,3.411-.934l12.559,1.242,11.762.928v-2.013Z" transform="translate(1463.458 -10357.493)"/><path class="u" d="M160.354,209.193s.464-4.96-2.013-6.358-4.189,2.483-4.345,5.881,2.176,7.6,5.117,6.822" transform="translate(1462.636 -10357.418)"/><path class="h" d="M196.817,207.26s.307,3.568-1.085,5.273a7.188,7.188,0,0,1-1.862,1.555" transform="translate(1448.816 -10359.053)"/><path class="q" d="M236.081,249.385l-6.24,21.819-4.679,12.468L220.1,297.107s-14.023-.19-20.257-1.359-17.441-5.156-17.441-5.156a112.982,112.982,0,0,0,12.742-28.425c2.646-9.253,4.7-16.676,4.7-16.676Z" transform="translate(1452.79 -10372.301)"/><path class="r" d="M213.284,266.75s-4.666,16.742-6.574,20.14l22.681,3.391s4.241-7.423,7.417-20.355Z" transform="translate(1444.366 -10379.669)"/><path class="s" d="M0,0,23.531,3.176" transform="translate(1656.375 -10109.103)"/><path class="s" d="M0,0,22.6,3" transform="translate(1655.317 -10103.594)"/><path class="s" d="M0,0,22.681,3.182" transform="translate(1653.455 -10097.993)"/><path class="r" d="M230.62,292.85l-4.45,12.193,7.208,1.49,2.548-8.482" transform="translate(1437.622 -10388.713)"/><path class="s" d="M0,0,9.325,1.7" transform="translate(1642.385 -10091.512)"/><path class="s" d="M0,0,9.331,1.692" transform="translate(1641.745 -10090.237)"/><path class="s" d="M0,0,9.331,1.7" transform="translate(1641.111 -10088.97)"/><path class="g" d="M209.12,247.82l-2.81,9.743,32.8,3.934,3.189-9.743Z" transform="translate(1444.505 -10373.108)"/><path class="w" d="M252.764,257.138a2.457,2.457,0,1,1-2.437-2.15A2.307,2.307,0,0,1,252.764,257.138Z" transform="translate(1430.103 -10375.591)"/><path class="u" d="M216.521,330.337s5.848-13.827,6.43-19.284.974-10.521,2.339-12.076,4.476-8.959,5.064-11.109,1.96-4.287,3.5-2.731.974,5.26.392,6.626-1.366,3.5-1.366,3.5l4.091-4.476,2.535-6.038a2.584,2.584,0,0,1,2.529,1.96c.386,1.96,2.731,4.868,2.143,6.62a4.679,4.679,0,0,1-2.339,2.535s.98,4.868.784,6.62a9.919,9.919,0,0,1-3.509,5.881c-1.96,1.555-7.4,6.619-7.4,6.619s2.731,20.649,0,30.778-7.593,13.246-11.109,13.827S210.28,352.4,210.28,352.4,217.494,348.647,216.521,330.337Z" transform="translate(1443.129 -10385.856)"/><path class="i" d="M3.11,0,0,3.117" transform="translate(1681.86 -10089.995)"/><path class="i" d="M0,2.535,3.117,0" transform="translate(1680.103 -10097.595)"/><path class="x" d="M109.441,236.213s5.443-1.307,13.723,2.183a38,38,0,0,1,15.461,11.54,34.065,34.065,0,0,1,4.359,7.842s-31.582-12.194-35.071-12.194H100.07S104.213,236.644,109.441,236.213Z" transform="translate(1481.321 -10369.003)"/><path class="q" d="M205.875,440.556c-25.269-22.218-64.692-22.218-64.692-22.218L135.3,412.68H65.33v28.2" transform="translate(1493.36 -10430.239)"/><path class="h" d="M173.99,423.34s-3.267,14.16-9.58,20.257" transform="translate(1459.025 -10433.934)"/><path class="h" d="M169.95,421.68A31.967,31.967,0,0,1,158.41,435.4" transform="translate(1461.104 -10433.358)"/><path class="y" d="M85.583,246.519s4.79-1.091,14.154.869,23.093,10.018,29.19,12.631,10.893,2.836,11.978,6.757,13.069,40.946,18.3,45.088c7.711,6.11,15.03,16.827,6.535,25.707-5.005,5.228-11.762,5.665-14.807,4.574s-10.455-8.711-10.455-11.109v-3.052L126.1,311.434s3.045,25.923,4.352,29.406,4.8,8.495,4.8,10.671-5.012,6.535-10.893,10.24-11.762,6.972-25.269,7.626-29.621-1.529-33.1-6.1-7.841-10.017-8.279-17.643-1.96-37.678-1.96-37.678.869-24.4,1.523-32.457,2.4-13.285,6.535-15.029S82.747,246.519,85.583,246.519Z" transform="translate(1496.684 -10372.553)"/><path class="h" d="M111.76,323.54a27.047,27.047,0,0,0,1.96,2.705" transform="translate(1477.27 -10399.349)"/><path class="h" d="M96.74,277s2.339,16.336,8.194,27.589" transform="translate(1482.475 -10383.221)"/><path class="h" d="M99.07,308.34s4.8,15.467,12.2,23.524" transform="translate(1481.668 -10394.081)"/><path class="i" d="M0,0,10.893,13.069" transform="translate(1611.888 -10074.194)"/><path class="i" d="M0,0,1.7,2.032" transform="translate(1608.621 -10078.115)"/><path class="i" d="M0,0,10.233,7.4" transform="translate(1609.059 -10072.234)"/><path class="h" d="M159.426,285s-10.24,9.8-10.017,21.126" transform="translate(1464.225 -10385.993)"/><path class="q" d="M204.138,346.68s3.705,7.188-1.738,12.416-16.99,3.7-16.99,3.7v3.045c0,2.4,7.4,10.017,10.455,11.109s9.8.653,14.807-4.574C219.187,363.5,211.849,352.77,204.138,346.68Z" transform="translate(1451.747 -10407.368)"/><path class="i" d="M11.762,11.109,0,0" transform="translate(1615.371 -10042.829)"/><path class="i" d="M0,0,11.547,8.279" transform="translate(1608.837 -10049.147)"/><path class="h" d="M116.75,382.18a21.778,21.778,0,0,0,2.614,1.634" transform="translate(1475.541 -10419.67)"/><path class="h" d="M78.07,353s13.115,10.233,21.453,16.336" transform="translate(1488.945 -10409.558)"/><path class="h" d="M82.07,363s9.586,6.972,11.109,7.841" transform="translate(1487.559 -10413.023)"/><path class="m" d="M61.954,370.51h51.623a6.044,6.044,0,0,1,6.044,6.044v44.108a4.411,4.411,0,0,1-4.411,4.411H60.321a4.411,4.411,0,0,1-4.411-4.411V376.554A6.044,6.044,0,0,1,61.954,370.51Z" transform="translate(1496.625 -10415.626)"/><path class="o" d="M53.954,370.51h51.623a6.044,6.044,0,0,1,6.044,6.044v44.108a4.411,4.411,0,0,1-4.411,4.411H52.321a4.411,4.411,0,0,1-4.411-4.411V376.554a6.044,6.044,0,0,1,6.044-6.044Z" transform="translate(1499.397 -10415.626)"/><path class="k" d="M64.331,436.317V393.96a1.96,1.96,0,1,0-3.921,0v42.351Z" transform="translate(1495.065 -10423.073)"/><path class="k" d="M118.831,436.317V393.96a1.96,1.96,0,1,0-3.921,0v42.351Z" transform="translate(1476.179 -10423.073)"/><path class="z" d="M2.906-1.972H1.058V-.46H3.205V0H.5V-4.266H3.176V-3.8H1.058v1.371H2.906ZM5.666-.841A.4.4,0,0,0,5.5-1.182a1.593,1.593,0,0,0-.577-.209A2.729,2.729,0,0,1,4.27-1.6.929.929,0,0,1,3.913-1.9.7.7,0,0,1,3.8-2.3a.822.822,0,0,1,.33-.659,1.287,1.287,0,0,1,.842-.27,1.325,1.325,0,0,1,.875.278.884.884,0,0,1,.335.712H5.634a.489.489,0,0,0-.189-.384.708.708,0,0,0-.476-.161.741.741,0,0,0-.463.129.406.406,0,0,0-.167.337.329.329,0,0,0,.155.3,1.91,1.91,0,0,0,.561.19,2.923,2.923,0,0,1,.658.217.959.959,0,0,1,.374.3.746.746,0,0,1,.122.432.811.811,0,0,1-.34.681,1.426,1.426,0,0,1-.882.256,1.6,1.6,0,0,1-.674-.135,1.1,1.1,0,0,1-.458-.376.907.907,0,0,1-.166-.523H4.23a.561.561,0,0,0,.218.432.847.847,0,0,0,.538.16A.874.874,0,0,0,5.48-.508.383.383,0,0,0,5.666-.841Zm1.983-3.1v.768h.592v.419H7.649V-.785A.439.439,0,0,0,7.729-.5.333.333,0,0,0,8-.4a1.312,1.312,0,0,0,.258-.035V0A1.571,1.571,0,0,1,7.84.059a.675.675,0,0,1-.548-.22.944.944,0,0,1-.185-.624V-2.751H6.53V-3.17h.577v-.768ZM10.831,0a1.139,1.139,0,0,1-.076-.334,1.209,1.209,0,0,1-.9.393,1.119,1.119,0,0,1-.769-.265.858.858,0,0,1-.3-.672.9.9,0,0,1,.376-.769,1.775,1.775,0,0,1,1.059-.274h.527v-.249a.609.609,0,0,0-.17-.453.683.683,0,0,0-.5-.168.79.79,0,0,0-.486.146.432.432,0,0,0-.2.354H8.848a.748.748,0,0,1,.168-.458,1.15,1.15,0,0,1,.457-.35,1.538,1.538,0,0,1,.634-.129,1.253,1.253,0,0,1,.858.274.988.988,0,0,1,.322.754V-.741a1.784,1.784,0,0,0,.111.694V0Zm-.9-.413a.953.953,0,0,0,.483-.132.8.8,0,0,0,.331-.343v-.65h-.425q-1,0-1,.583a.493.493,0,0,0,.17.4A.653.653,0,0,0,9.932-.413Zm2.074-1.2a1.857,1.857,0,0,1,.346-1.173,1.093,1.093,0,0,1,.905-.444,1.1,1.1,0,0,1,.882.381V-4.5h.542V0h-.5l-.026-.34a1.1,1.1,0,0,1-.905.4,1.083,1.083,0,0,1-.9-.451,1.878,1.878,0,0,1-.347-1.178Zm.542.062a1.406,1.406,0,0,0,.223.844.72.72,0,0,0,.615.3.791.791,0,0,0,.753-.463V-2.32a.8.8,0,0,0-.747-.448.723.723,0,0,0-.621.308A1.548,1.548,0,0,0,12.548-1.55Zm2.83-.064a1.872,1.872,0,0,1,.183-.838,1.366,1.366,0,0,1,.51-.574,1.388,1.388,0,0,1,.746-.2,1.337,1.337,0,0,1,1.047.448,1.725,1.725,0,0,1,.4,1.192v.038a1.889,1.889,0,0,1-.177.831,1.346,1.346,0,0,1-.507.573,1.4,1.4,0,0,1-.757.205A1.333,1.333,0,0,1,15.778-.39a1.716,1.716,0,0,1-.4-1.187Zm.545.064a1.356,1.356,0,0,0,.245.847.783.783,0,0,0,.655.319.778.778,0,0,0,.656-.324,1.483,1.483,0,0,0,.243-.907,1.354,1.354,0,0,0-.248-.845.787.787,0,0,0-.658-.324.778.778,0,0,0-.647.319A1.472,1.472,0,0,0,15.923-1.55Zm4.866.709a.4.4,0,0,0-.166-.341,1.593,1.593,0,0,0-.577-.209,2.729,2.729,0,0,1-.653-.211.929.929,0,0,1-.357-.293.7.7,0,0,1-.116-.4.822.822,0,0,1,.33-.659,1.287,1.287,0,0,1,.842-.27,1.325,1.325,0,0,1,.875.278.884.884,0,0,1,.335.712h-.545a.489.489,0,0,0-.189-.384.708.708,0,0,0-.476-.161.741.741,0,0,0-.463.129.406.406,0,0,0-.167.337.329.329,0,0,0,.155.3,1.91,1.91,0,0,0,.561.19,2.923,2.923,0,0,1,.658.217.959.959,0,0,1,.374.3.746.746,0,0,1,.122.432.811.811,0,0,1-.34.681,1.426,1.426,0,0,1-.882.256,1.6,1.6,0,0,1-.674-.135,1.1,1.1,0,0,1-.458-.376.907.907,0,0,1-.166-.523h.542a.561.561,0,0,0,.218.432.847.847,0,0,0,.538.16A.874.874,0,0,0,20.6-.508.383.383,0,0,0,20.789-.841ZM23.7,0V-2.751h-.5V-3.17h.5v-.27a1.1,1.1,0,0,1,.3-.826,1.176,1.176,0,0,1,.857-.3,2.58,2.58,0,0,1,.829.179l-.091.457a1.878,1.878,0,0,0-.7-.146.682.682,0,0,0-.5.157.646.646,0,0,0-.154.47v.275H24.9v.419h-.647V0Zm2.259,0h-.545V-3.17h.545Zm1.395-3.17.018.4a1.155,1.155,0,0,1,.949-.457q1,0,1.014,1.134V0H28.8V-2.1a.73.73,0,0,0-.157-.507.628.628,0,0,0-.479-.164.782.782,0,0,0-.463.141.955.955,0,0,0-.311.369V0h-.542V-3.17ZM32.112,0a1.139,1.139,0,0,1-.076-.334,1.209,1.209,0,0,1-.9.393,1.119,1.119,0,0,1-.769-.265.858.858,0,0,1-.3-.672.9.9,0,0,1,.376-.769A1.775,1.775,0,0,1,31.5-1.922h.527v-.249a.609.609,0,0,0-.17-.453.683.683,0,0,0-.5-.168.79.79,0,0,0-.486.146.432.432,0,0,0-.2.354h-.545A.748.748,0,0,1,30.3-2.75a1.15,1.15,0,0,1,.457-.35,1.538,1.538,0,0,1,.634-.129,1.253,1.253,0,0,1,.858.274.988.988,0,0,1,.322.754V-.741a1.784,1.784,0,0,0,.111.694V0Zm-.9-.413A.953.953,0,0,0,31.7-.545a.8.8,0,0,0,.331-.343v-.65H31.6q-1,0-1,.583a.493.493,0,0,0,.17.4A.653.653,0,0,0,31.213-.413ZM33.932-3.17l.018.4a1.155,1.155,0,0,1,.949-.457q1,0,1.014,1.134V0H35.37V-2.1a.73.73,0,0,0-.157-.507.628.628,0,0,0-.479-.164.782.782,0,0,0-.463.141.955.955,0,0,0-.311.369V0h-.542V-3.17ZM38-.384a.781.781,0,0,0,.507-.176A.618.618,0,0,0,38.748-1h.513a.983.983,0,0,1-.187.519,1.235,1.235,0,0,1-.461.393A1.331,1.331,0,0,1,38,.059a1.306,1.306,0,0,1-1.03-.432,1.721,1.721,0,0,1-.382-1.182v-.091a1.908,1.908,0,0,1,.17-.823,1.294,1.294,0,0,1,.488-.56,1.386,1.386,0,0,1,.751-.2,1.271,1.271,0,0,1,.886.319,1.141,1.141,0,0,1,.376.829h-.513a.747.747,0,0,0-.233-.505.725.725,0,0,0-.517-.2.759.759,0,0,0-.64.3,1.4,1.4,0,0,0-.227.86v.1a1.369,1.369,0,0,0,.226.844A.762.762,0,0,0,38-.384ZM40.459,0h-.542V-3.17h.542Zm-.586-4.011a.324.324,0,0,1,.081-.223.3.3,0,0,1,.239-.091.307.307,0,0,1,.24.091.32.32,0,0,1,.082.223.31.31,0,0,1-.082.22.313.313,0,0,1-.24.088.308.308,0,0,1-.239-.088A.313.313,0,0,1,39.873-4.011ZM42.642.059a1.385,1.385,0,0,1-1.049-.423,1.571,1.571,0,0,1-.4-1.132v-.1a1.9,1.9,0,0,1,.18-.842,1.406,1.406,0,0,1,.5-.58,1.267,1.267,0,0,1,.7-.209,1.187,1.187,0,0,1,.961.407,1.763,1.763,0,0,1,.343,1.166v.226H41.73A1.127,1.127,0,0,0,42-.672a.861.861,0,0,0,.667.289A.944.944,0,0,0,43.157-.5a1.222,1.222,0,0,0,.349-.311l.331.258A1.331,1.331,0,0,1,42.642.059Zm-.067-2.842a.723.723,0,0,0-.551.239,1.161,1.161,0,0,0-.275.669h1.588v-.041a1.032,1.032,0,0,0-.223-.64A.681.681,0,0,0,42.574-2.783Zm3.463.1a1.624,1.624,0,0,0-.267-.021.714.714,0,0,0-.724.454V0H44.5V-3.17h.527l.009.366a.844.844,0,0,1,.756-.425.554.554,0,0,1,.24.041Zm.3,1.069a1.872,1.872,0,0,1,.183-.838,1.366,1.366,0,0,1,.51-.574,1.388,1.388,0,0,1,.746-.2,1.337,1.337,0,0,1,1.047.448,1.725,1.725,0,0,1,.4,1.192v.038a1.889,1.889,0,0,1-.177.831,1.346,1.346,0,0,1-.507.573,1.4,1.4,0,0,1-.757.205A1.333,1.333,0,0,1,46.733-.39a1.716,1.716,0,0,1-.4-1.187Zm.545.064a1.356,1.356,0,0,0,.245.847.783.783,0,0,0,.655.319.778.778,0,0,0,.656-.324,1.483,1.483,0,0,0,.243-.907,1.354,1.354,0,0,0-.248-.845.787.787,0,0,0-.658-.324.778.778,0,0,0-.647.319A1.472,1.472,0,0,0,46.878-1.55Zm4.866.709a.4.4,0,0,0-.166-.341A1.593,1.593,0,0,0,51-1.392a2.729,2.729,0,0,1-.653-.211.929.929,0,0,1-.357-.293.7.7,0,0,1-.116-.4.822.822,0,0,1,.33-.659,1.287,1.287,0,0,1,.842-.27,1.325,1.325,0,0,1,.875.278.884.884,0,0,1,.335.712h-.545a.489.489,0,0,0-.189-.384.708.708,0,0,0-.476-.161.741.741,0,0,0-.463.129.406.406,0,0,0-.167.337.329.329,0,0,0,.155.3,1.91,1.91,0,0,0,.561.19,2.923,2.923,0,0,1,.658.217.959.959,0,0,1,.374.3.746.746,0,0,1,.122.432.811.811,0,0,1-.34.681,1.426,1.426,0,0,1-.882.256,1.6,1.6,0,0,1-.674-.135,1.1,1.1,0,0,1-.458-.376.907.907,0,0,1-.166-.523h.542a.561.561,0,0,0,.218.432.847.847,0,0,0,.538.16.874.874,0,0,0,.494-.125A.383.383,0,0,0,51.744-.841Z" transform="translate(1701 -10105)"/></g></svg>